<svg xmlns="http://www.w3.org/2000/svg" xmlns:xlink="http://www.w3.org/1999/xlink" version="1.1" x="0" y="0" height="230" width="800" viewBox="0 0 800 230" preserveAspectRatio="none"  >
<g label="Query sequence" class="clusterblast-cluster"  >
<text x="5" y="20" class="clusterblast-acc"  >
Query sequence</text>
<line x1="10" y1="35" x2="778.0" y2="35" style="stroke-width:1; stroke:grey; "  />
<polygon points="287,35 292,30 293,30 293,40 292,40 287,35 " style="fill:#d81515; stroke-width:1; stroke:black; " description="&lt;b&gt;ctg48_1&lt;/b&gt;&lt;br&gt;ctg48 1&lt;br&gt;Location: 69 - 801" locus_tag="ctg48_1" class="clusterblast-orf" id="dummy-1_q0_0_all"  />
<polygon points="293,35 298,30 300,30 300,40 298,40 293,35 " style="fill:#d81515; stroke-width:1; stroke:black; " description="&lt;b&gt;ctg48_2&lt;/b&gt;&lt;br&gt;ctg48 2&lt;br&gt;Location: 797 - 1688" locus_tag="ctg48_2" class="clusterblast-orf" id="dummy-1_q1_0_all"  />
<polygon points="300,35 305,30 309,30 309,40 305,40 300,35 " style="fill:#33d815; stroke-width:1; stroke:black; " description="&lt;b&gt;ctg48_3&lt;/b&gt;&lt;br&gt;ctg48 3&lt;br&gt;Location: 1695 - 2766" locus_tag="ctg48_3" class="clusterblast-orf" id="dummy-1_q2_0_all"  />
<polygon points="309,35 314,30 323,30 323,40 314,40 309,35 " style="fill:#15abd8; stroke-width:1; stroke:black; " description="&lt;b&gt;ctg48_4&lt;/b&gt;&lt;br&gt;ctg48 4&lt;br&gt;Location: 2747 - 4439" locus_tag="ctg48_4" class="clusterblast-orf" id="dummy-1_q3_0_all"  />
<polygon points="323,35 328,30 331,30 331,40 328,40 323,35 " style="fill:white; stroke-width:1; stroke:black; " description="&lt;b&gt;ctg48_5&lt;/b&gt;&lt;br&gt;ctg48 5&lt;br&gt;Location: 4490 - 5474" locus_tag="ctg48_5" class="clusterblast-orf" id="dummy-1_q4_0_all"  />
<polygon points="332,40 339,40 344,35 339,30 332,30 332,40 " style="fill:white; stroke-width:1; stroke:black; " description="&lt;b&gt;ctg48_6&lt;/b&gt;&lt;br&gt;ctg48 6&lt;br&gt;Location: 5567 - 6998" locus_tag="ctg48_6" class="clusterblast-orf" id="dummy-1_q5_0_all"  />
<polygon points="346,40 351,40 356,35 351,30 346,30 346,40 " style="fill:#8d15d8; stroke-width:1; stroke:black; " description="&lt;b&gt;ctg48_7&lt;/b&gt;&lt;br&gt;ctg48 7&lt;br&gt;Location: 7302 - 8499" locus_tag="ctg48_7" class="clusterblast-orf" id="dummy-1_q6_0_all"  />
<polygon points="356,35 361,30 365,30 365,40 361,40 356,35 " style="fill:#d86f15; stroke-width:1; stroke:black; " description="&lt;b&gt;ctg48_8&lt;/b&gt;&lt;br&gt;ctg48 8&lt;br&gt;Location: 8559 - 9639" locus_tag="ctg48_8" class="clusterblast-orf" id="dummy-1_q7_0_all"  />
<polygon points="365,35 370,30 373,30 373,40 370,40 365,35 " style="fill:#15d851; stroke-width:1; stroke:black; " description="&lt;b&gt;ctg48_9&lt;/b&gt;&lt;br&gt;ctg48 9&lt;br&gt;Location: 9659 - 10583" locus_tag="ctg48_9" class="clusterblast-orf" id="dummy-1_q8_0_all"  />
<polygon points="374,35 379,30 381,30 381,40 379,40 374,35 " style="fill:#1551d8; stroke-width:1; stroke:black; " description="&lt;b&gt;ctg48_10&lt;/b&gt;&lt;br&gt;ctg48 10&lt;br&gt;Location: 10784 - 11618" locus_tag="ctg48_10" class="clusterblast-orf" id="dummy-1_q9_0_all"  />
<polygon points="381,35 386,30 391,30 391,40 386,40 381,35 " style="fill:#d815c9; stroke-width:1; stroke:black; " description="&lt;b&gt;ctg48_11&lt;/b&gt;&lt;br&gt;ctg48 11&lt;br&gt;Location: 11614 - 12766" locus_tag="ctg48_11" class="clusterblast-orf" id="dummy-1_q10_0_all"  />
<polygon points="391,40 396,40 401,35 396,30 391,30 391,40 " style="fill:white; stroke-width:1; stroke:black; " description="&lt;b&gt;ctg48_12&lt;/b&gt;&lt;br&gt;ctg48 12&lt;br&gt;Location: 12786 - 13989" locus_tag="ctg48_12" class="clusterblast-orf" id="dummy-1_q11_0_all"  />
<polygon points="401,35 406,30 408,30 408,40 406,40 401,35 " style="fill:#d8c915; stroke-width:1; stroke:black; " description="&lt;b&gt;ctg48_13&lt;/b&gt;&lt;br&gt;ctg48 13&lt;br&gt;Location: 14051 - 14882" locus_tag="ctg48_13" class="clusterblast-orf" id="dummy-1_q12_0_all"  />
<polygon points="408,35 413,30 418,30 418,40 413,40 408,35 " style="fill:#15d8ab; stroke-width:1; stroke:black; " description="&lt;b&gt;ctg48_14&lt;/b&gt;&lt;br&gt;ctg48 14&lt;br&gt;Location: 14878 - 16189" locus_tag="ctg48_14" class="clusterblast-orf" id="dummy-1_q13_0_all"  />
<polygon points="418,35 423,30 427,30 427,40 423,40 418,35 " style="fill:#3315d8; stroke-width:1; stroke:black; " description="&lt;b&gt;ctg48_15&lt;/b&gt;&lt;br&gt;ctg48 15&lt;br&gt;Location: 16185 - 17301" locus_tag="ctg48_15" class="clusterblast-orf" id="dummy-1_q14_0_all"  />
<polygon points="428,35 431,30 431,40 428,35 " style="fill:#d8156f; stroke-width:1; stroke:black; " description="&lt;b&gt;ctg48_16&lt;/b&gt;&lt;br&gt;ctg48 16&lt;br&gt;Location: 17403 - 17676" locus_tag="ctg48_16" class="clusterblast-orf" id="dummy-1_q15_0_all"  />
<polygon points="433,35 438,30 492,30 492,40 438,40 433,35 " style="fill:#8dd815; stroke-width:1; stroke:black; " description="&lt;b&gt;ctg48_17&lt;/b&gt;&lt;br&gt;ctg48 17&lt;br&gt;Location: 18022 - 25219" locus_tag="ctg48_17" class="clusterblast-orf" id="dummy-1_q16_0_all"  />
</g>
<g label="NZ_MSIF01000010" description="NZ_MSIF01000010_c11: Actinophytocola xinjiangensis strain CGMCC 4.4663 contig... (10% of genes show similarity), nrps-arylpolyene-ladderane" class="clusterblast-cluster"  >
<text x="5" y="70" class="clusterblast-acc"  >
<a xlink:href="https://antismash-db.secondarymetabolites.org/go/NZ_MSIF01000010/11" target="_blank">NZ_MSIF01000010_c11</a>: Actinophytocola xinjiangensis strain CGMCC 4.4663 contig... (10% of genes show similarity), nrps-arylpolyene-ladderane</text>
<line x1="10" y1="85" x2="778.0" y2="85" style="stroke-width:1; stroke:grey; "  />
</g>
<g id="a1_000"  >
<polygon points="0,85 4,80 4,90 0,85 " style="fill:white; stroke-width:1; stroke:black; " description="&lt;b&gt;BLA60_RS21415&lt;/b&gt;&lt;br&gt;deaminase&lt;br&gt;Location: 232512 - 231913" locus_tag="BLA60_RS21415" class="clusterblast-orf" id="dummy-1_h1_5_0"  />
</g>
<g id="a1_001"  >
<polygon points="5,85 8,80 8,90 5,85 " style="fill:white; stroke-width:1; stroke:black; " description="&lt;b&gt;BLA60_RS21410&lt;/b&gt;&lt;br&gt;hypothetical protein&lt;br&gt;Location: 231823 - 231476" locus_tag="BLA60_RS21410" class="clusterblast-orf" id="dummy-1_h1_5_1"  />
</g>
<g id="a1_002"  >
<polygon points="8,85 13,80 13,80 13,90 13,90 8,85 " style="fill:white; stroke-width:1; stroke:black; " description="&lt;b&gt;BLA60_RS21405&lt;/b&gt;&lt;br&gt;TetR/AcrR family transcriptional regulator&lt;br&gt;Location: 231479 - 230895" locus_tag="BLA60_RS21405" class="clusterblast-orf" id="dummy-1_h1_5_2"  />
</g>
<g id="a1_003"  >
<polygon points="13,90 14,90 19,85 14,80 13,80 13,90 " style="fill:white; stroke-width:1; stroke:black; " description="&lt;b&gt;BLA60_RS42320&lt;/b&gt;&lt;br&gt;hypothetical protein&lt;br&gt;Location: 230832 - 230068" locus_tag="BLA60_RS42320" class="clusterblast-orf" id="dummy-1_h1_5_3"  />
</g>
<g id="a1_004"  >
<polygon points="20,85 25,80 30,80 30,90 25,90 20,85 " style="fill:white; stroke-width:1; stroke:black; " description="&lt;b&gt;BLA60_RS21390&lt;/b&gt;&lt;br&gt;deoxyribodipyrimidine photo-lyase&lt;br&gt;Location: 230036 - 228750" locus_tag="BLA60_RS21390" class="clusterblast-orf" id="dummy-1_h1_5_4"  />
</g>
<g id="a1_005"  >
<polygon points="31,90 34,85 31,80 31,90 " style="fill:white; stroke-width:1; stroke:black; " description="&lt;b&gt;BLA60_RS21385&lt;/b&gt;&lt;br&gt;Rrf2 family transcriptional regulator&lt;br&gt;Location: 228657 - 228232" locus_tag="BLA60_RS21385" class="clusterblast-orf" id="dummy-1_h1_5_5"  />
</g>
<g id="a1_006"  >
<polygon points="34,90 39,90 44,85 39,80 34,80 34,90 " style="fill:white; stroke-width:1; stroke:black; " description="&lt;b&gt;BLA60_RS21380&lt;/b&gt;&lt;br&gt;hemin transporter&lt;br&gt;Location: 228223 - 227045" locus_tag="BLA60_RS21380" class="clusterblast-orf" id="dummy-1_h1_5_6"  />
</g>
<g id="a1_007"  >
<polygon points="44,85 49,80 54,80 54,90 49,90 44,85 " style="fill:white; stroke-width:1; stroke:black; " description="&lt;b&gt;BLA60_RS21375&lt;/b&gt;&lt;br&gt;UDP-N-acetylglucosamine--N-acetylmuramyl- (pentapeptide) pyrophosphoryl-undecaprenol N-acetylglucosamine transferase&lt;br&gt;Location: 226992 - 225814" locus_tag="BLA60_RS21375" class="clusterblast-orf" id="dummy-1_h1_5_7"  />
</g>
<g id="a1_008"  >
<polygon points="55,85 60,80 61,80 61,90 60,90 55,85 " style="fill:white; stroke-width:1; stroke:black; " description="&lt;b&gt;BLA60_RS21370&lt;/b&gt;&lt;br&gt;hypothetical protein&lt;br&gt;Location: 225727 - 224957" locus_tag="BLA60_RS21370" class="clusterblast-orf" id="dummy-1_h1_5_8"  />
</g>
<g id="a1_009"  >
<polygon points="62,85 63,80 63,90 62,85 " style="fill:white; stroke-width:1; stroke:black; " description="&lt;b&gt;BLA60_RS21365&lt;/b&gt;&lt;br&gt;DUF397 domain-containing protein&lt;br&gt;Location: 224834 - 224661" locus_tag="BLA60_RS21365" class="clusterblast-orf" id="dummy-1_h1_5_9"  />
</g>
<g id="a1_0010"  >
<polygon points="63,85 68,80 71,80 71,90 68,90 63,85 " style="fill:white; stroke-width:1; stroke:black; " description="&lt;b&gt;BLA60_RS21360&lt;/b&gt;&lt;br&gt;XRE family transcriptional regulator&lt;br&gt;Location: 224658 - 223726" locus_tag="BLA60_RS21360" class="clusterblast-orf" id="dummy-1_h1_5_10"  />
</g>
<g id="a1_0011"  >
<polygon points="71,90 73,85 71,80 71,90 " style="fill:white; stroke-width:1; stroke:black; " description="&lt;b&gt;BLA60_RS21355&lt;/b&gt;&lt;br&gt;hypothetical protein&lt;br&gt;Location: 223723 - 223481" locus_tag="BLA60_RS21355" class="clusterblast-orf" id="dummy-1_h1_5_11"  />
</g>
<g id="a1_0012"  >
<polygon points="74,90 91,90 96,85 91,80 74,80 74,90 " style="fill:white; stroke-width:1; stroke:black; " description="&lt;b&gt;BLA60_RS21350&lt;/b&gt;&lt;br&gt;hypothetical protein&lt;br&gt;Location: 223348 - 220637" locus_tag="BLA60_RS21350" class="clusterblast-orf" id="dummy-1_h1_5_12"  />
</g>
<g id="a1_0013"  >
<polygon points="97,85 102,80 104,80 104,90 102,90 97,85 " style="fill:white; stroke-width:1; stroke:black; " description="&lt;b&gt;BLA60_RS21345&lt;/b&gt;&lt;br&gt;peptidase M23&lt;br&gt;Location: 220583 - 219723" locus_tag="BLA60_RS21345" class="clusterblast-orf" id="dummy-1_h1_5_13"  />
</g>
<g id="a1_0014"  >
<polygon points="104,85 109,80 111,80 111,90 109,90 104,85 " style="fill:white; stroke-width:1; stroke:black; " description="&lt;b&gt;BLA60_RS21340&lt;/b&gt;&lt;br&gt;peptidoglycan-binding protein&lt;br&gt;Location: 219694 - 218858" locus_tag="BLA60_RS21340" class="clusterblast-orf" id="dummy-1_h1_5_14"  />
</g>
<g id="a1_0015"  >
<polygon points="111,85 113,80 113,90 111,85 " style="fill:white; stroke-width:1; stroke:black; " description="&lt;b&gt;BLA60_RS21335&lt;/b&gt;&lt;br&gt;hypothetical protein&lt;br&gt;Location: 218806 - 218591" locus_tag="BLA60_RS21335" class="clusterblast-orf" id="dummy-1_h1_5_15"  />
</g>
<g id="a1_0016"  >
<polygon points="113,85 118,80 129,80 129,90 118,90 113,85 " style="fill:white; stroke-width:1; stroke:black; " description="&lt;b&gt;BLA60_RS21330&lt;/b&gt;&lt;br&gt;AarF/ABC1/UbiB kinase family protein&lt;br&gt;Location: 218562 - 216586" locus_tag="BLA60_RS21330" class="clusterblast-orf" id="dummy-1_h1_5_16"  />
</g>
<g id="a1_0017"  >
<polygon points="131,85 133,80 133,90 131,85 " style="fill:white; stroke-width:1; stroke:black; " description="&lt;b&gt;BLA60_RS21325&lt;/b&gt;&lt;br&gt;LysR family transcriptional regulator&lt;br&gt;Location: 216410 - 216054" locus_tag="BLA60_RS21325" class="clusterblast-orf" id="dummy-1_h1_5_17"  />
</g>
<g id="a1_0018"  >
<polygon points="134,85 139,80 145,80 145,90 139,90 134,85 " style="fill:white; stroke-width:1; stroke:black; " description="&lt;b&gt;BLA60_RS21320&lt;/b&gt;&lt;br&gt;glycosyltransferase&lt;br&gt;Location: 215967 - 214645" locus_tag="BLA60_RS21320" class="clusterblast-orf" id="dummy-1_h1_5_18"  />
</g>
<g id="a1_0019"  >
<polygon points="148,90 153,90 158,85 153,80 148,80 148,90 " style="fill:#8d15d8; stroke-width:1; stroke:black; " description="&lt;b&gt;BLA60_RS21315&lt;/b&gt;&lt;br&gt;cytochrome P450&lt;br&gt;Location: 214292 - 213102&lt;br&gt;&lt;br&gt;&lt;b&gt;BlastP hit with ctg48_7&lt;/b&gt;&lt;br&gt;Percentage identity: 63&lt;br&gt;Percentage coverage: 99&lt;br&gt;BLAST bit score: 505&lt;br&gt;E-value: 7e-141" locus_tag="BLA60_RS21315" class="clusterblast-orf" id="dummy-1_h1_5_19"  />
</g>
<g id="a1_0020"  >
<polygon points="158,85 160,80 160,90 158,85 " style="fill:white; stroke-width:1; stroke:black; " description="&lt;b&gt;BLA60_RS21310&lt;/b&gt;&lt;br&gt;MbtH family protein&lt;br&gt;Location: 213041 - 212826" locus_tag="BLA60_RS21310" class="clusterblast-orf" id="dummy-1_h1_5_20"  />
</g>
<g id="a1_0021"  >
<polygon points="160,85 165,80 263,80 263,90 165,90 160,85 " style="fill:#8dd815; stroke-width:1; stroke:black; " description="&lt;b&gt;BLA60_RS21305&lt;/b&gt;&lt;br&gt;non-ribosomal peptide synthetase&lt;br&gt;Location: 212829 - 200107&lt;br&gt;&lt;br&gt;&lt;b&gt;BlastP hit with ctg48_17&lt;/b&gt;&lt;br&gt;Percentage identity: 45&lt;br&gt;Percentage coverage: 100&lt;br&gt;BLAST bit score: 1693&lt;br&gt;E-value: 0.0" locus_tag="BLA60_RS21305" class="clusterblast-orf" id="dummy-1_h1_5_21"  />
</g>
<g id="a1_0022"  >
<polygon points="263,85 268,80 274,80 274,90 268,90 263,85 " style="fill:white; stroke-width:1; stroke:black; " description="&lt;b&gt;BLA60_RS42315&lt;/b&gt;&lt;br&gt;hypothetical protein&lt;br&gt;Location: 200107 - 198782" locus_tag="BLA60_RS42315" class="clusterblast-orf" id="dummy-1_h1_5_22"  />
</g>
<g id="a1_0023"  >
<polygon points="300,85 305,80 411,80 411,90 305,90 300,85 " style="fill:white; stroke-width:1; stroke:black; " description="&lt;b&gt;BLA60_RS21300&lt;/b&gt;&lt;br&gt;hypothetical protein&lt;br&gt;Location: 195628 - 182004" locus_tag="BLA60_RS21300" class="clusterblast-orf" id="dummy-1_h1_5_23"  />
</g>
<g id="a1_0024"  >
<polygon points="413,85 418,80 425,80 425,90 418,90 413,85 " style="fill:white; stroke-width:1; stroke:black; " description="&lt;b&gt;BLA60_RS42310&lt;/b&gt;&lt;br&gt;non-ribosomal peptide synthetase&lt;br&gt;Location: 181745 - 180252" locus_tag="BLA60_RS42310" class="clusterblast-orf" id="dummy-1_h1_5_24"  />
</g>
<g id="a1_0025"  >
<polygon points="428,85 433,80 435,80 435,90 433,90 428,85 " style="fill:white; stroke-width:1; stroke:black; " description="&lt;b&gt;BLA60_RS42305&lt;/b&gt;&lt;br&gt;hypothetical protein&lt;br&gt;Location: 179894 - 179070" locus_tag="BLA60_RS42305" class="clusterblast-orf" id="dummy-1_h1_5_25"  />
</g>
<g id="a1_0026"  >
<polygon points="436,85 441,80 448,80 448,90 441,90 436,85 " style="fill:white; stroke-width:1; stroke:black; " description="&lt;b&gt;BLA60_RS42300&lt;/b&gt;&lt;br&gt;non-ribosomal peptide synthetase&lt;br&gt;Location: 178910 - 177423" locus_tag="BLA60_RS42300" class="clusterblast-orf" id="dummy-1_h1_5_26"  />
</g>
<g id="a1_0027"  >
<polygon points="451,85 456,80 461,80 461,90 456,90 451,85 " style="fill:white; stroke-width:1; stroke:black; " description="&lt;b&gt;BLA60_RS21285&lt;/b&gt;&lt;br&gt;non-ribosomal peptide synthetase&lt;br&gt;Location: 177101 - 175782" locus_tag="BLA60_RS21285" class="clusterblast-orf" id="dummy-1_h1_5_27"  />
</g>
<g id="a1_0028"  >
<polygon points="463,90 467,85 463,80 463,90 " style="fill:white; stroke-width:1; stroke:black; " description="&lt;b&gt;BLA60_RS21280&lt;/b&gt;&lt;br&gt;hypothetical protein&lt;br&gt;Location: 175582 - 175061" locus_tag="BLA60_RS21280" class="clusterblast-orf" id="dummy-1_h1_5_28"  />
</g>
<g id="a1_0029"  >
<polygon points="467,90 472,90 477,85 472,80 467,80 467,90 " style="fill:white; stroke-width:1; stroke:black; " description="&lt;b&gt;BLA60_RS21275&lt;/b&gt;&lt;br&gt;cytochrome P450&lt;br&gt;Location: 175064 - 173853" locus_tag="BLA60_RS21275" class="clusterblast-orf" id="dummy-1_h1_5_29"  />
</g>
<g id="a1_0030"  >
<polygon points="482,85 487,80 491,80 491,90 487,90 482,85 " style="fill:white; stroke-width:1; stroke:black; " description="&lt;b&gt;BLA60_RS21270&lt;/b&gt;&lt;br&gt;hypothetical protein&lt;br&gt;Location: 173279 - 172140" locus_tag="BLA60_RS21270" class="clusterblast-orf" id="dummy-1_h1_5_30"  />
</g>
<g id="a1_0031"  >
<polygon points="491,85 496,80 499,80 499,90 496,90 491,85 " style="fill:white; stroke-width:1; stroke:black; " description="&lt;b&gt;BLA60_RS21265&lt;/b&gt;&lt;br&gt;2,3-diaminopropionate biosynthesis protein SbnA&lt;br&gt;Location: 172138 - 171149" locus_tag="BLA60_RS21265" class="clusterblast-orf" id="dummy-1_h1_5_31"  />
</g>
<g id="a1_0032"  >
<polygon points="499,85 504,80 507,80 507,90 504,90 499,85 " style="fill:white; stroke-width:1; stroke:black; " description="&lt;b&gt;BLA60_RS21260&lt;/b&gt;&lt;br&gt;2,3-diaminopropionate biosynthesis protein SbnB&lt;br&gt;Location: 171147 - 170116" locus_tag="BLA60_RS21260" class="clusterblast-orf" id="dummy-1_h1_5_32"  />
</g>
<g id="a1_0033"  >
<polygon points="507,85 512,80 535,80 535,90 512,90 507,85 " style="fill:white; stroke-width:1; stroke:black; " description="&lt;b&gt;BLA60_RS21255&lt;/b&gt;&lt;br&gt;hypothetical protein&lt;br&gt;Location: 170119 - 166754" locus_tag="BLA60_RS21255" class="clusterblast-orf" id="dummy-1_h1_5_33"  />
</g>
<g id="a1_0034"  >
<polygon points="535,85 540,80 543,80 543,90 540,90 535,85 " style="fill:white; stroke-width:1; stroke:black; " description="&lt;b&gt;BLA60_RS21250&lt;/b&gt;&lt;br&gt;hypothetical protein&lt;br&gt;Location: 166757 - 165726" locus_tag="BLA60_RS21250" class="clusterblast-orf" id="dummy-1_h1_5_34"  />
</g>
<g id="a1_0035"  >
<polygon points="543,85 548,80 557,80 557,90 548,90 543,85 " style="fill:white; stroke-width:1; stroke:black; " description="&lt;b&gt;BLA60_RS21245&lt;/b&gt;&lt;br&gt;NAD(P)/FAD-dependent oxidoreductase&lt;br&gt;Location: 165729 - 164053" locus_tag="BLA60_RS21245" class="clusterblast-orf" id="dummy-1_h1_5_35"  />
</g>
<g id="a1_0036"  >
<polygon points="557,85 562,80 563,80 563,90 562,90 557,85 " style="fill:white; stroke-width:1; stroke:black; " description="&lt;b&gt;BLA60_RS21240&lt;/b&gt;&lt;br&gt;isomerase&lt;br&gt;Location: 164018 - 163299" locus_tag="BLA60_RS21240" class="clusterblast-orf" id="dummy-1_h1_5_36"  />
</g>
<g id="a1_0037"  >
<polygon points="563,85 568,80 569,80 569,90 568,90 563,85 " style="fill:white; stroke-width:1; stroke:black; " description="&lt;b&gt;BLA60_RS21235&lt;/b&gt;&lt;br&gt;3-oxoacyl-[acyl-carrier-protein] reductase&lt;br&gt;Location: 163279 - 162527" locus_tag="BLA60_RS21235" class="clusterblast-orf" id="dummy-1_h1_5_37"  />
</g>
<g id="a1_0038"  >
<polygon points="569,85 574,80 574,80 574,90 574,90 569,85 " style="fill:white; stroke-width:1; stroke:black; " description="&lt;b&gt;BLA60_RS21230&lt;/b&gt;&lt;br&gt;beta-hydroxyacyl-ACP dehydratase&lt;br&gt;Location: 162502 - 161918" locus_tag="BLA60_RS21230" class="clusterblast-orf" id="dummy-1_h1_5_38"  />
</g>
<g id="a1_0039"  >
<polygon points="573,85 577,80 577,90 573,85 " style="fill:white; stroke-width:1; stroke:black; " description="&lt;b&gt;BLA60_RS21225&lt;/b&gt;&lt;br&gt;hypothetical protein&lt;br&gt;Location: 162020 - 161622" locus_tag="BLA60_RS21225" class="clusterblast-orf" id="dummy-1_h1_5_39"  />
</g>
<g id="a1_0040"  >
<polygon points="577,85 579,80 579,90 577,85 " style="fill:white; stroke-width:1; stroke:black; " description="&lt;b&gt;BLA60_RS21220&lt;/b&gt;&lt;br&gt;acyl carrier protein&lt;br&gt;Location: 161625 - 161368" locus_tag="BLA60_RS21220" class="clusterblast-orf" id="dummy-1_h1_5_40"  />
</g>
<g id="a1_0041"  >
<polygon points="579,85 584,80 587,80 587,90 584,90 579,85 " style="fill:white; stroke-width:1; stroke:black; " description="&lt;b&gt;BLA60_RS21215&lt;/b&gt;&lt;br&gt;hypothetical protein&lt;br&gt;Location: 161356 - 160292" locus_tag="BLA60_RS21215" class="clusterblast-orf" id="dummy-1_h1_5_41"  />
</g>
<g id="a1_0042"  >
<polygon points="587,85 592,80 596,80 596,90 592,90 587,85 " style="fill:white; stroke-width:1; stroke:black; " description="&lt;b&gt;BLA60_RS21210&lt;/b&gt;&lt;br&gt;hypothetical protein&lt;br&gt;Location: 160295 - 159300" locus_tag="BLA60_RS21210" class="clusterblast-orf" id="dummy-1_h1_5_42"  />
</g>
<g id="a1_0043"  >
<polygon points="595,85 600,80 603,80 603,90 600,90 595,85 " style="fill:white; stroke-width:1; stroke:black; " description="&lt;b&gt;BLA60_RS21205&lt;/b&gt;&lt;br&gt;alpha/beta hydrolase&lt;br&gt;Location: 159307 - 158432" locus_tag="BLA60_RS21205" class="clusterblast-orf" id="dummy-1_h1_5_43"  />
</g>
<g id="a1_0044"  >
<polygon points="602,85 607,80 609,80 609,90 607,90 602,85 " style="fill:white; stroke-width:1; stroke:black; " description="&lt;b&gt;BLA60_RS21200&lt;/b&gt;&lt;br&gt;hypothetical protein&lt;br&gt;Location: 158528 - 157683" locus_tag="BLA60_RS21200" class="clusterblast-orf" id="dummy-1_h1_5_44"  />
</g>
<g id="a1_0045"  >
<polygon points="609,85 614,80 618,80 618,90 614,90 609,85 " style="fill:white; stroke-width:1; stroke:black; " description="&lt;b&gt;BLA60_RS21195&lt;/b&gt;&lt;br&gt;3-oxoacyl-ACP synthase&lt;br&gt;Location: 157674 - 156547" locus_tag="BLA60_RS21195" class="clusterblast-orf" id="dummy-1_h1_5_45"  />
</g>
<g id="a1_0046"  >
<polygon points="618,85 623,80 628,80 628,90 623,90 618,85 " style="fill:white; stroke-width:1; stroke:black; " description="&lt;b&gt;BLA60_RS21190&lt;/b&gt;&lt;br&gt;beta-ketoacyl-[acyl-carrier-protein] synthase family protein&lt;br&gt;Location: 156550 - 155303" locus_tag="BLA60_RS21190" class="clusterblast-orf" id="dummy-1_h1_5_46"  />
</g>
<g id="a1_0047"  >
<polygon points="630,90 632,85 630,80 630,90 " style="fill:white; stroke-width:1; stroke:black; " description="&lt;b&gt;BLA60_RS21185&lt;/b&gt;&lt;br&gt;acyl carrier protein&lt;br&gt;Location: 155029 - 154775" locus_tag="BLA60_RS21185" class="clusterblast-orf" id="dummy-1_h1_5_47"  />
</g>
<g id="a1_0048"  >
<polygon points="633,90 634,90 639,85 634,80 633,80 633,90 " style="fill:white; stroke-width:1; stroke:black; " description="&lt;b&gt;BLA60_RS21180&lt;/b&gt;&lt;br&gt;thioesterase&lt;br&gt;Location: 154694 - 153918" locus_tag="BLA60_RS21180" class="clusterblast-orf" id="dummy-1_h1_5_48"  />
</g>
<g id="a1_0049"  >
<polygon points="640,90 643,90 648,85 643,80 640,80 640,90 " style="fill:white; stroke-width:1; stroke:black; " description="&lt;b&gt;BLA60_RS21175&lt;/b&gt;&lt;br&gt;DUF3995 domain-containing protein&lt;br&gt;Location: 153836 - 152844" locus_tag="BLA60_RS21175" class="clusterblast-orf" id="dummy-1_h1_5_49"  />
</g>
<g id="a1_0050"  >
<polygon points="649,90 652,90 657,85 652,80 649,80 649,90 " style="fill:#15d851; stroke-width:1; stroke:black; " description="&lt;b&gt;BLA60_RS21170&lt;/b&gt;&lt;br&gt;hydroxyneurosporene methyltransferase&lt;br&gt;Location: 152782 - 151781&lt;br&gt;&lt;br&gt;&lt;b&gt;BlastP hit with ctg48_9&lt;/b&gt;&lt;br&gt;Percentage identity: 57&lt;br&gt;Percentage coverage: 100&lt;br&gt;BLAST bit score: 334&lt;br&gt;E-value: 1.7e-89" locus_tag="BLA60_RS21170" class="clusterblast-orf" id="dummy-1_h1_5_50"  />
</g>
<g id="a1_0051"  >
<polygon points="657,90 661,90 666,85 661,80 657,80 657,90 " style="fill:#d86f15; stroke-width:1; stroke:black; " description="&lt;b&gt;BLA60_RS21165&lt;/b&gt;&lt;br&gt;hypothetical protein&lt;br&gt;Location: 151749 - 150583&lt;br&gt;&lt;br&gt;&lt;b&gt;BlastP hit with ctg48_8&lt;/b&gt;&lt;br&gt;Percentage identity: 46&lt;br&gt;Percentage coverage: 95&lt;br&gt;BLAST bit score: 269&lt;br&gt;E-value: 4.5e-70" locus_tag="BLA60_RS21165" class="clusterblast-orf" id="dummy-1_h1_5_51"  />
</g>
<g id="a1_0052"  >
<polygon points="667,85 672,80 674,80 674,90 672,90 667,85 " style="fill:#1551d8; stroke-width:1; stroke:black; " description="&lt;b&gt;BLA60_RS21160&lt;/b&gt;&lt;br&gt;ABC transporter permease&lt;br&gt;Location: 150503 - 149667&lt;br&gt;&lt;br&gt;&lt;b&gt;BlastP hit with ctg48_10&lt;/b&gt;&lt;br&gt;Percentage identity: 31&lt;br&gt;Percentage coverage: 92&lt;br&gt;BLAST bit score: 97&lt;br&gt;E-value: 3.1e-18" locus_tag="BLA60_RS21160" class="clusterblast-orf" id="dummy-1_h1_5_52"  />
</g>
<g id="a1_0053"  >
<polygon points="674,85 679,80 682,80 682,90 679,90 674,85 " style="fill:#d815c9; stroke-width:1; stroke:black; " description="&lt;b&gt;BLA60_RS21155&lt;/b&gt;&lt;br&gt;daunorubicin/doxorubicin resistance ABC transporter ATP-binding protein DrrA&lt;br&gt;Location: 149645 - 148668&lt;br&gt;&lt;br&gt;&lt;b&gt;BlastP hit with ctg48_11&lt;/b&gt;&lt;br&gt;Percentage identity: 53&lt;br&gt;Percentage coverage: 78&lt;br&gt;BLAST bit score: 278&lt;br&gt;E-value: 1.3e-72" locus_tag="BLA60_RS21155" class="clusterblast-orf" id="dummy-1_h1_5_53"  />
</g>
<g id="a1_0054"  >
<polygon points="683,90 685,85 683,80 683,90 " style="fill:white; stroke-width:1; stroke:black; " description="&lt;b&gt;BLA60_RS21150&lt;/b&gt;&lt;br&gt;ferredoxin&lt;br&gt;Location: 148541 - 148350" locus_tag="BLA60_RS21150" class="clusterblast-orf" id="dummy-1_h1_5_54"  />
</g>
<g id="a1_0055"  >
<polygon points="684,85 689,80 699,80 699,90 689,90 684,85 " style="fill:white; stroke-width:1; stroke:black; " description="&lt;b&gt;BLA60_RS21145&lt;/b&gt;&lt;br&gt;ABC transporter permease&lt;br&gt;Location: 148378 - 146567" locus_tag="BLA60_RS21145" class="clusterblast-orf" id="dummy-1_h1_5_55"  />
</g>
<g id="a1_0056"  >
<polygon points="699,85 704,80 705,80 705,90 704,90 699,85 " style="fill:white; stroke-width:1; stroke:black; " description="&lt;b&gt;BLA60_RS21140&lt;/b&gt;&lt;br&gt;ABC transporter ATP-binding protein&lt;br&gt;Location: 146564 - 145827" locus_tag="BLA60_RS21140" class="clusterblast-orf" id="dummy-1_h1_5_56"  />
</g>
<g id="a1_0057"  >
<polygon points="705,85 710,80 711,80 711,90 710,90 705,85 " style="fill:white; stroke-width:1; stroke:black; " description="&lt;b&gt;BLA60_RS21135&lt;/b&gt;&lt;br&gt;DNA-binding response regulator&lt;br&gt;Location: 145792 - 145139" locus_tag="BLA60_RS21135" class="clusterblast-orf" id="dummy-1_h1_5_57"  />
</g>
<g id="a1_0058"  >
<polygon points="711,85 716,80 721,80 721,90 716,90 711,85 " style="fill:white; stroke-width:1; stroke:black; " description="&lt;b&gt;BLA60_RS21130&lt;/b&gt;&lt;br&gt;sensor histidine kinase&lt;br&gt;Location: 145142 - 143907" locus_tag="BLA60_RS21130" class="clusterblast-orf" id="dummy-1_h1_5_58"  />
</g>
<g id="a1_0059"  >
<polygon points="721,85 726,80 727,80 727,90 726,90 721,85 " style="fill:white; stroke-width:1; stroke:black; " description="&lt;b&gt;BLA60_RS21125&lt;/b&gt;&lt;br&gt;hypothetical protein&lt;br&gt;Location: 143826 - 143209" locus_tag="BLA60_RS21125" class="clusterblast-orf" id="dummy-1_h1_5_59"  />
</g>
<g id="a1_0060"  >
<polygon points="727,90 732,90 737,85 732,80 727,80 727,90 " style="fill:white; stroke-width:1; stroke:black; " description="&lt;b&gt;BLA60_RS21120&lt;/b&gt;&lt;br&gt;cytochrome P450&lt;br&gt;Location: 143110 - 141917" locus_tag="BLA60_RS21120" class="clusterblast-orf" id="dummy-1_h1_5_60"  />
</g>
<g id="a1_0061"  >
<polygon points="737,85 742,80 744,80 744,90 742,90 737,85 " style="fill:white; stroke-width:1; stroke:black; " description="&lt;b&gt;BLA60_RS21115&lt;/b&gt;&lt;br&gt;hypothetical protein&lt;br&gt;Location: 141907 - 141101" locus_tag="BLA60_RS21115" class="clusterblast-orf" id="dummy-1_h1_5_61"  />
</g>
<g id="a1_0062"  >
<polygon points="745,85 750,80 755,80 755,90 750,90 745,85 " style="fill:white; stroke-width:1; stroke:black; " description="&lt;b&gt;BLA60_RS21110&lt;/b&gt;&lt;br&gt;chitinase&lt;br&gt;Location: 140990 - 139749" locus_tag="BLA60_RS21110" class="clusterblast-orf" id="dummy-1_h1_5_62"  />
</g>
<g id="a1_0063"  >
<polygon points="756,85 761,80 764,80 764,90 761,90 756,85 " style="fill:white; stroke-width:1; stroke:black; " description="&lt;b&gt;BLA60_RS21105&lt;/b&gt;&lt;br&gt;hypothetical protein&lt;br&gt;Location: 139597 - 138623" locus_tag="BLA60_RS21105" class="clusterblast-orf" id="dummy-1_h1_5_63"  />
</g>
<g id="a1_0064"  >
<polygon points="766,90 768,90 773,85 768,80 766,80 766,90 " style="fill:#d815c9; stroke-width:1; stroke:black; " description="&lt;b&gt;BLA60_RS21100&lt;/b&gt;&lt;br&gt;ABC transporter&lt;br&gt;Location: 138390 - 137449&lt;br&gt;&lt;br&gt;&lt;b&gt;BlastP hit with ctg48_11&lt;/b&gt;&lt;br&gt;Percentage identity: 53&lt;br&gt;Percentage coverage: 83&lt;br&gt;BLAST bit score: 304&lt;br&gt;E-value: 1.3e-80" locus_tag="BLA60_RS21100" class="clusterblast-orf" id="dummy-1_h1_5_64"  />
</g>
<g id="a1_0065"  >
<polygon points="773,90 775,90 780,85 775,80 773,80 773,90 " style="fill:white; stroke-width:1; stroke:black; " description="&lt;b&gt;BLA60_RS21095&lt;/b&gt;&lt;br&gt;ABC transporter permease&lt;br&gt;Location: 137452 - 136700" locus_tag="BLA60_RS21095" class="clusterblast-orf" id="dummy-1_h1_5_65"  />
</g>
</svg>
