<svg xmlns="http://www.w3.org/2000/svg" xmlns:xlink="http://www.w3.org/1999/xlink" version="1.1" x="0" y="0" height="230" width="800" viewBox="0 0 800 230" preserveAspectRatio="none"  >
<g label="Query sequence" class="clusterblast-cluster"  >
<text x="5" y="20" class="clusterblast-acc"  >
Query sequence</text>
<line x1="10" y1="35" x2="778.0" y2="35" style="stroke-width:1; stroke:grey; "  />
<polygon points="258,40 260,40 265,35 260,30 258,30 258,40 " style="fill:#d81515; stroke-width:1; stroke:black; " description="&lt;b&gt;ctg8_1&lt;/b&gt;&lt;br&gt;ctg8 1&lt;br&gt;Location: 34 - 1228" locus_tag="ctg8_1" class="clusterblast-orf" id="dummy-1_q0_0_all"  />
<polygon points="265,40 266,35 265,30 265,40 " style="fill:#54d815; stroke-width:1; stroke:black; " description="&lt;b&gt;ctg8_2&lt;/b&gt;&lt;br&gt;ctg8 2&lt;br&gt;Location: 1247 - 1463" locus_tag="ctg8_2" class="clusterblast-orf" id="dummy-1_q1_0_all"  />
<polygon points="266,40 268,40 273,35 268,30 266,30 266,40 " style="fill:#15c1d8; stroke-width:1; stroke:black; " description="&lt;b&gt;ctg8_3&lt;/b&gt;&lt;br&gt;ctg8 3&lt;br&gt;Location: 1459 - 2614" locus_tag="ctg8_3" class="clusterblast-orf" id="dummy-1_q2_0_all"  />
<polygon points="273,40 278,40 283,35 278,30 273,30 273,40 " style="fill:#8215d8; stroke-width:1; stroke:black; " description="&lt;b&gt;ctg8_4&lt;/b&gt;&lt;br&gt;ctg8 4&lt;br&gt;Location: 2687 - 4496" locus_tag="ctg8_4" class="clusterblast-orf" id="dummy-1_q3_0_all"  />
<polygon points="283,40 285,35 283,30 283,40 " style="fill:#d84415; stroke-width:1; stroke:black; " description="&lt;b&gt;ctg8_5&lt;/b&gt;&lt;br&gt;ctg8 5&lt;br&gt;Location: 4492 - 4885" locus_tag="ctg8_5" class="clusterblast-orf" id="dummy-1_q4_0_all"  />
<polygon points="286,40 287,40 292,35 287,30 286,30 286,40 " style="fill:#25d815; stroke-width:1; stroke:black; " description="&lt;b&gt;ctg8_6&lt;/b&gt;&lt;br&gt;ctg8 6&lt;br&gt;Location: 4895 - 6089" locus_tag="ctg8_6" class="clusterblast-orf" id="dummy-1_q5_0_all"  />
<polygon points="293,40 297,35 293,30 293,40 " style="fill:#1592d8; stroke-width:1; stroke:black; " description="&lt;b&gt;ctg8_7&lt;/b&gt;&lt;br&gt;ctg8 7&lt;br&gt;Location: 6134 - 6944" locus_tag="ctg8_7" class="clusterblast-orf" id="dummy-1_q6_0_all"  />
<polygon points="297,35 300,30 300,40 297,35 " style="fill:#b115d8; stroke-width:1; stroke:black; " description="&lt;b&gt;ctg8_8&lt;/b&gt;&lt;br&gt;ctg8 8&lt;br&gt;Location: 6923 - 7457" locus_tag="ctg8_8" class="clusterblast-orf" id="dummy-1_q7_0_all"  />
<polygon points="300,40 301,35 300,30 300,40 " style="fill:white; stroke-width:1; stroke:black; " description="&lt;b&gt;ctg8_9&lt;/b&gt;&lt;br&gt;ctg8 9&lt;br&gt;Location: 7481 - 7646" locus_tag="ctg8_9" class="clusterblast-orf" id="dummy-1_q8_0_all"  />
<polygon points="303,35 308,30 310,30 310,40 308,40 303,35 " style="fill:#d87315; stroke-width:1; stroke:black; " description="&lt;b&gt;ctg8_10&lt;/b&gt;&lt;br&gt;ctg8 10&lt;br&gt;Location: 7953 - 9105" locus_tag="ctg8_10" class="clusterblast-orf" id="dummy-1_q9_0_all"  />
<polygon points="310,35 315,30 320,30 320,40 315,40 310,35 " style="fill:#15d834; stroke-width:1; stroke:black; " description="&lt;b&gt;ctg8_11&lt;/b&gt;&lt;br&gt;ctg8 11&lt;br&gt;Location: 9101 - 10916" locus_tag="ctg8_11" class="clusterblast-orf" id="dummy-1_q10_0_all"  />
<polygon points="320,35 325,30 326,30 326,40 325,40 320,35 " style="fill:#1563d8; stroke-width:1; stroke:black; " description="&lt;b&gt;ctg8_12&lt;/b&gt;&lt;br&gt;ctg8 12&lt;br&gt;Location: 10927 - 11929" locus_tag="ctg8_12" class="clusterblast-orf" id="dummy-1_q11_0_all"  />
<polygon points="327,40 331,35 327,30 327,40 " style="fill:#d815d0; stroke-width:1; stroke:black; " description="&lt;b&gt;ctg8_13&lt;/b&gt;&lt;br&gt;ctg8 13&lt;br&gt;Location: 12135 - 12939" locus_tag="ctg8_13" class="clusterblast-orf" id="dummy-1_q12_0_all"  />
<polygon points="332,35 335,30 335,40 332,35 " style="fill:white; stroke-width:1; stroke:black; " description="&lt;b&gt;ctg8_14&lt;/b&gt;&lt;br&gt;ctg8 14&lt;br&gt;Location: 12961 - 13627" locus_tag="ctg8_14" class="clusterblast-orf" id="dummy-1_q13_0_all"  />
<polygon points="336,40 347,40 352,35 347,30 336,30 336,40 " style="fill:#d8a215; stroke-width:1; stroke:black; " description="&lt;b&gt;ctg8_15&lt;/b&gt;&lt;br&gt;ctg8 15&lt;br&gt;Location: 13762 - 16624" locus_tag="ctg8_15" class="clusterblast-orf" id="dummy-1_q14_0_all"  />
<polygon points="353,40 355,35 353,30 353,40 " style="fill:white; stroke-width:1; stroke:black; " description="&lt;b&gt;ctg8_16&lt;/b&gt;&lt;br&gt;ctg8 16&lt;br&gt;Location: 16678 - 17080" locus_tag="ctg8_16" class="clusterblast-orf" id="dummy-1_q15_0_all"  />
<polygon points="355,40 359,35 355,30 355,40 " style="fill:white; stroke-width:1; stroke:black; " description="&lt;b&gt;ctg8_17&lt;/b&gt;&lt;br&gt;ctg8 17&lt;br&gt;Location: 17081 - 17846" locus_tag="ctg8_17" class="clusterblast-orf" id="dummy-1_q16_0_all"  />
<polygon points="360,35 365,30 369,30 369,40 365,40 360,35 " style="fill:#15d863; stroke-width:1; stroke:black; " description="&lt;b&gt;ctg8_18&lt;/b&gt;&lt;br&gt;ctg8 18&lt;br&gt;Location: 17897 - 19535" locus_tag="ctg8_18" class="clusterblast-orf" id="dummy-1_q17_0_all"  />
<polygon points="369,35 372,30 372,40 369,35 " style="fill:#1534d8; stroke-width:1; stroke:black; " description="&lt;b&gt;ctg8_19&lt;/b&gt;&lt;br&gt;ctg8 19&lt;br&gt;Location: 19531 - 20044" locus_tag="ctg8_19" class="clusterblast-orf" id="dummy-1_q18_0_all"  />
<polygon points="372,35 376,30 376,40 372,35 " style="fill:#d815a2; stroke-width:1; stroke:black; " description="&lt;b&gt;ctg8_20&lt;/b&gt;&lt;br&gt;ctg8 20&lt;br&gt;Location: 20040 - 20667" locus_tag="ctg8_20" class="clusterblast-orf" id="dummy-1_q19_0_all"  />
<polygon points="376,35 381,30 381,30 381,40 381,40 376,35 " style="fill:#d8d015; stroke-width:1; stroke:black; " description="&lt;b&gt;ctg8_21&lt;/b&gt;&lt;br&gt;ctg8 21&lt;br&gt;Location: 20806 - 21709" locus_tag="ctg8_21" class="clusterblast-orf" id="dummy-1_q20_0_all"  />
<polygon points="384,40 393,40 398,35 393,30 384,30 384,40 " style="fill:#15d892; stroke-width:1; stroke:black; " description="&lt;b&gt;ctg8_22&lt;/b&gt;&lt;br&gt;ctg8 22&lt;br&gt;Location: 22167 - 24606" locus_tag="ctg8_22" class="clusterblast-orf" id="dummy-1_q21_0_all"  />
<polygon points="398,40 406,40 411,35 406,30 398,30 398,40 " style="fill:#2515d8; stroke-width:1; stroke:black; " description="&lt;b&gt;ctg8_23&lt;/b&gt;&lt;br&gt;ctg8 23&lt;br&gt;Location: 24606 - 26832" locus_tag="ctg8_23" class="clusterblast-orf" id="dummy-1_q22_0_all"  />
<polygon points="411,40 412,40 417,35 412,30 411,30 411,40 " style="fill:#d81573; stroke-width:1; stroke:black; " description="&lt;b&gt;ctg8_24&lt;/b&gt;&lt;br&gt;ctg8 24&lt;br&gt;Location: 26957 - 28010" locus_tag="ctg8_24" class="clusterblast-orf" id="dummy-1_q23_0_all"  />
<polygon points="417,40 418,40 423,35 418,30 417,30 417,40 " style="fill:#b1d815; stroke-width:1; stroke:black; " description="&lt;b&gt;ctg8_25&lt;/b&gt;&lt;br&gt;ctg8 25&lt;br&gt;Location: 28006 - 29050" locus_tag="ctg8_25" class="clusterblast-orf" id="dummy-1_q24_0_all"  />
<polygon points="423,40 424,40 429,35 424,30 423,30 423,40 " style="fill:#15d8c1; stroke-width:1; stroke:black; " description="&lt;b&gt;ctg8_26&lt;/b&gt;&lt;br&gt;ctg8 26&lt;br&gt;Location: 29061 - 30072" locus_tag="ctg8_26" class="clusterblast-orf" id="dummy-1_q25_0_all"  />
<polygon points="429,35 432,30 432,40 429,35 " style="fill:#5415d8; stroke-width:1; stroke:black; " description="&lt;b&gt;ctg8_27&lt;/b&gt;&lt;br&gt;ctg8 27&lt;br&gt;Location: 30084 - 30567" locus_tag="ctg8_27" class="clusterblast-orf" id="dummy-1_q26_0_all"  />
<polygon points="433,40 435,40 440,35 435,30 433,30 433,40 " style="fill:#d81515; stroke-width:1; stroke:black; " description="&lt;b&gt;ctg8_28&lt;/b&gt;&lt;br&gt;ctg8 28&lt;br&gt;Location: 30746 - 31988" locus_tag="ctg8_28" class="clusterblast-orf" id="dummy-1_q27_0_all"  />
<polygon points="440,40 441,35 440,30 440,40 " style="fill:#54d815; stroke-width:1; stroke:black; " description="&lt;b&gt;ctg8_29&lt;/b&gt;&lt;br&gt;ctg8 29&lt;br&gt;Location: 31984 - 32185" locus_tag="ctg8_29" class="clusterblast-orf" id="dummy-1_q28_0_all"  />
<polygon points="442,35 447,30 449,30 449,40 447,40 442,35 " style="fill:#d81544; stroke-width:1; stroke:black; " description="&lt;b&gt;ctg8_30&lt;/b&gt;&lt;br&gt;ctg8 30&lt;br&gt;Location: 32242 - 33541" locus_tag="ctg8_30" class="clusterblast-orf" id="dummy-1_q29_0_all"  />
<polygon points="449,35 451,30 451,40 449,35 " style="fill:#82d815; stroke-width:1; stroke:black; " description="&lt;b&gt;ctg8_31&lt;/b&gt;&lt;br&gt;ctg8 31&lt;br&gt;Location: 33610 - 33826" locus_tag="ctg8_31" class="clusterblast-orf" id="dummy-1_q30_0_all"  />
<polygon points="451,35 456,30 459,30 459,40 456,40 451,35 " style="fill:#d8a215; stroke-width:1; stroke:black; " description="&lt;b&gt;ctg8_32&lt;/b&gt;&lt;br&gt;ctg8 32&lt;br&gt;Location: 33822 - 35376" locus_tag="ctg8_32" class="clusterblast-orf" id="dummy-1_q31_0_all"  />
<polygon points="459,35 464,30 479,30 479,40 464,40 459,35 " style="fill:#d8a215; stroke-width:1; stroke:black; " description="&lt;b&gt;ctg8_33&lt;/b&gt;&lt;br&gt;ctg8 33&lt;br&gt;Location: 35359 - 38725" locus_tag="ctg8_33" class="clusterblast-orf" id="dummy-1_q32_0_all"  />
<polygon points="479,35 484,30 489,30 489,40 484,40 479,35 " style="fill:#d8a215; stroke-width:1; stroke:black; " description="&lt;b&gt;ctg8_34&lt;/b&gt;&lt;br&gt;ctg8 34&lt;br&gt;Location: 38721 - 40512" locus_tag="ctg8_34" class="clusterblast-orf" id="dummy-1_q33_0_all"  />
<polygon points="489,35 494,30 521,30 521,40 494,40 489,35 " style="fill:#d8a215; stroke-width:1; stroke:black; " description="&lt;b&gt;ctg8_35&lt;/b&gt;&lt;br&gt;ctg8 35&lt;br&gt;Location: 40511 - 46208" locus_tag="ctg8_35" class="clusterblast-orf" id="dummy-1_q34_0_all"  />
</g>
<g label="NZ_CP009922" description="NZ_CP009922_c18: Streptomyces xiamenensis strain 318, complete genome (16% of genes show similarity), t3pks-terpene-nrps" class="clusterblast-cluster"  >
<text x="5" y="70" class="clusterblast-acc"  >
<a xlink:href="https://antismash-db.secondarymetabolites.org/go/NZ_CP009922/18" target="_blank">NZ_CP009922_c18</a>: Streptomyces xiamenensis strain 318, complete genome (16% of genes show similarity), t3pks-terpene-nrps</text>
<line x1="10" y1="85" x2="778.0" y2="85" style="stroke-width:1; stroke:grey; "  />
</g>
<g id="a1_000"  >
<polygon points="0,85 5,80 13,80 13,90 5,90 0,85 " style="fill:white; stroke-width:1; stroke:black; " description="&lt;b&gt;SXIM_RS24745&lt;/b&gt;&lt;br&gt;alpha-xylosidase&lt;br&gt;Location: 5469370 - 5471685" locus_tag="SXIM_RS24745" class="clusterblast-orf" id="dummy-1_h1_5_0"  />
</g>
<g id="a1_001"  >
<polygon points="13,85 18,80 21,80 21,90 18,90 13,85 " style="fill:white; stroke-width:1; stroke:black; " description="&lt;b&gt;SXIM_RS24750&lt;/b&gt;&lt;br&gt;beta-glucosidase&lt;br&gt;Location: 5471743 - 5473143" locus_tag="SXIM_RS24750" class="clusterblast-orf" id="dummy-1_h1_5_1"  />
</g>
<g id="a1_002"  >
<polygon points="21,85 26,80 26,80 26,90 26,90 21,85 " style="fill:white; stroke-width:1; stroke:black; " description="&lt;b&gt;SXIM_RS24755&lt;/b&gt;&lt;br&gt;carbohydrate ABC transporter permease&lt;br&gt;Location: 5473205 - 5474029" locus_tag="SXIM_RS24755" class="clusterblast-orf" id="dummy-1_h1_5_2"  />
</g>
<g id="a1_003"  >
<polygon points="26,85 31,80 32,80 32,90 31,90 26,85 " style="fill:white; stroke-width:1; stroke:black; " description="&lt;b&gt;SXIM_RS24760&lt;/b&gt;&lt;br&gt;sugar ABC transporter permease&lt;br&gt;Location: 5474036 - 5474998" locus_tag="SXIM_RS24760" class="clusterblast-orf" id="dummy-1_h1_5_3"  />
</g>
<g id="a1_004"  >
<polygon points="32,85 37,80 39,80 39,90 37,90 32,85 " style="fill:white; stroke-width:1; stroke:black; " description="&lt;b&gt;SXIM_RS24765&lt;/b&gt;&lt;br&gt;sugar ABC transporter substrate-binding protein&lt;br&gt;Location: 5475006 - 5476241" locus_tag="SXIM_RS24765" class="clusterblast-orf" id="dummy-1_h1_5_4"  />
</g>
<g id="a1_005"  >
<polygon points="39,85 44,80 45,80 45,90 44,90 39,85 " style="fill:white; stroke-width:1; stroke:black; " description="&lt;b&gt;SXIM_RS24770&lt;/b&gt;&lt;br&gt;LacI family transcriptional regulator&lt;br&gt;Location: 5476309 - 5477340" locus_tag="SXIM_RS24770" class="clusterblast-orf" id="dummy-1_h1_5_5"  />
</g>
<g id="a1_006"  >
<polygon points="46,85 50,80 50,90 46,85 " style="fill:white; stroke-width:1; stroke:black; " description="&lt;b&gt;SXIM_RS24775&lt;/b&gt;&lt;br&gt;ATP-dependent dethiobiotin synthetase BioD&lt;br&gt;Location: 5477559 - 5478236" locus_tag="SXIM_RS24775" class="clusterblast-orf" id="dummy-1_h1_5_6"  />
</g>
<g id="a1_007"  >
<polygon points="50,85 55,80 58,80 58,90 55,90 50,85 " style="fill:white; stroke-width:1; stroke:black; " description="&lt;b&gt;SXIM_RS24780&lt;/b&gt;&lt;br&gt;adenosylmethionine--8-amino-7-oxononanoate transaminase&lt;br&gt;Location: 5478270 - 5479607" locus_tag="SXIM_RS24780" class="clusterblast-orf" id="dummy-1_h1_5_7"  />
</g>
<g id="a1_008"  >
<polygon points="58,85 63,80 64,80 64,90 63,90 58,85 " style="fill:white; stroke-width:1; stroke:black; " description="&lt;b&gt;SXIM_RS24785&lt;/b&gt;&lt;br&gt;biotin synthase BioB&lt;br&gt;Location: 5479600 - 5480727" locus_tag="SXIM_RS24785" class="clusterblast-orf" id="dummy-1_h1_5_8"  />
</g>
<g id="a1_009"  >
<polygon points="65,90 67,90 72,85 67,80 65,80 65,90 " style="fill:white; stroke-width:1; stroke:black; " description="&lt;b&gt;SXIM_RS24790&lt;/b&gt;&lt;br&gt;8-amino-7-oxononanoate synthase&lt;br&gt;Location: 5480843 - 5482108" locus_tag="SXIM_RS24790" class="clusterblast-orf" id="dummy-1_h1_5_9"  />
</g>
<g id="a1_0010"  >
<polygon points="73,85 78,80 78,80 78,90 78,90 73,85 " style="fill:white; stroke-width:1; stroke:black; " description="&lt;b&gt;SXIM_RS24795&lt;/b&gt;&lt;br&gt;ATP-dependent DNA ligase&lt;br&gt;Location: 5482184 - 5483200" locus_tag="SXIM_RS24795" class="clusterblast-orf" id="dummy-1_h1_5_10"  />
</g>
<g id="a1_0011"  >
<polygon points="79,90 80,90 85,85 80,80 79,80 79,90 " style="fill:white; stroke-width:1; stroke:black; " description="&lt;b&gt;SXIM_RS24800&lt;/b&gt;&lt;br&gt;ATP-dependent DNA ligase&lt;br&gt;Location: 5483277 - 5484350" locus_tag="SXIM_RS24800" class="clusterblast-orf" id="dummy-1_h1_5_11"  />
</g>
<g id="a1_0012"  >
<polygon points="85,85 87,80 87,90 85,85 " style="fill:white; stroke-width:1; stroke:black; " description="&lt;b&gt;SXIM_RS24805&lt;/b&gt;&lt;br&gt;HIT family protein&lt;br&gt;Location: 5484328 - 5484753" locus_tag="SXIM_RS24805" class="clusterblast-orf" id="dummy-1_h1_5_12"  />
</g>
<g id="a1_0013"  >
<polygon points="88,90 89,90 94,85 89,80 88,80 88,90 " style="fill:white; stroke-width:1; stroke:black; " description="&lt;b&gt;SXIM_RS24810&lt;/b&gt;&lt;br&gt;NAD(P)/FAD-dependent oxidoreductase&lt;br&gt;Location: 5484810 - 5485880" locus_tag="SXIM_RS24810" class="clusterblast-orf" id="dummy-1_h1_5_13"  />
</g>
<g id="a1_0014"  >
<polygon points="94,90 96,90 101,85 96,80 94,80 94,90 " style="fill:white; stroke-width:1; stroke:black; " description="&lt;b&gt;SXIM_RS24815&lt;/b&gt;&lt;br&gt;peptidase S1&lt;br&gt;Location: 5486006 - 5487163" locus_tag="SXIM_RS24815" class="clusterblast-orf" id="dummy-1_h1_5_14"  />
</g>
<g id="a1_0015"  >
<polygon points="102,90 104,90 109,85 104,80 102,80 102,90 " style="fill:white; stroke-width:1; stroke:black; " description="&lt;b&gt;SXIM_RS24820&lt;/b&gt;&lt;br&gt;DUF418 domain-containing protein&lt;br&gt;Location: 5487316 - 5488527" locus_tag="SXIM_RS24820" class="clusterblast-orf" id="dummy-1_h1_5_15"  />
</g>
<g id="a1_0016"  >
<polygon points="110,90 113,85 110,80 110,90 " style="fill:white; stroke-width:1; stroke:black; " description="&lt;b&gt;SXIM_RS24825&lt;/b&gt;&lt;br&gt;NUDIX domain-containing protein&lt;br&gt;Location: 5488653 - 5489180" locus_tag="SXIM_RS24825" class="clusterblast-orf" id="dummy-1_h1_5_16"  />
</g>
<g id="a1_0017"  >
<polygon points="113,85 118,80 119,80 119,90 118,90 113,85 " style="fill:white; stroke-width:1; stroke:black; " description="&lt;b&gt;SXIM_RS24830&lt;/b&gt;&lt;br&gt;polyketide synthase&lt;br&gt;Location: 5489251 - 5490381" locus_tag="SXIM_RS24830" class="clusterblast-orf" id="dummy-1_h1_5_17"  />
</g>
<g id="a1_0018"  >
<polygon points="120,85 125,80 127,80 127,90 125,90 120,85 " style="fill:#d81515; stroke-width:1; stroke:black; " description="&lt;b&gt;SXIM_RS24835&lt;/b&gt;&lt;br&gt;cytochrome P450&lt;br&gt;Location: 5490464 - 5491669&lt;br&gt;&lt;br&gt;&lt;b&gt;BlastP hit with ctg8_1&lt;/b&gt;&lt;br&gt;Percentage identity: 37&lt;br&gt;Percentage coverage: 100&lt;br&gt;BLAST bit score: 227&lt;br&gt;E-value: 2.2e-57&lt;br&gt;&lt;br&gt;&lt;b&gt;BlastP hit with ctg8_28&lt;/b&gt;&lt;br&gt;Percentage identity: 36&lt;br&gt;Percentage coverage: 95&lt;br&gt;BLAST bit score: 208&lt;br&gt;E-value: 1.8e-51" locus_tag="SXIM_RS24835" class="clusterblast-orf" id="dummy-1_h1_5_18"  />
</g>
<g id="a1_0019"  >
<polygon points="128,85 133,80 135,80 135,90 133,90 128,85 " style="fill:white; stroke-width:1; stroke:black; " description="&lt;b&gt;SXIM_RS24840&lt;/b&gt;&lt;br&gt;ROK family transcriptional regulator&lt;br&gt;Location: 5491922 - 5493202" locus_tag="SXIM_RS24840" class="clusterblast-orf" id="dummy-1_h1_5_19"  />
</g>
<g id="a1_0020"  >
<polygon points="136,90 141,90 146,85 141,80 136,80 136,90 " style="fill:white; stroke-width:1; stroke:black; " description="&lt;b&gt;SXIM_RS24845&lt;/b&gt;&lt;br&gt;ABC transporter substrate-binding protein&lt;br&gt;Location: 5493376 - 5495079" locus_tag="SXIM_RS24845" class="clusterblast-orf" id="dummy-1_h1_5_20"  />
</g>
<g id="a1_0021"  >
<polygon points="146,90 147,90 152,85 147,80 146,80 146,90 " style="fill:white; stroke-width:1; stroke:black; " description="&lt;b&gt;SXIM_RS24850&lt;/b&gt;&lt;br&gt;ABC transporter permease&lt;br&gt;Location: 5495111 - 5496100" locus_tag="SXIM_RS24850" class="clusterblast-orf" id="dummy-1_h1_5_21"  />
</g>
<g id="a1_0022"  >
<polygon points="152,90 157,90 162,85 157,80 152,80 152,90 " style="fill:white; stroke-width:1; stroke:black; " description="&lt;b&gt;SXIM_RS24855&lt;/b&gt;&lt;br&gt;peptide ABC transporter ATPase&lt;br&gt;Location: 5496117 - 5497925" locus_tag="SXIM_RS24855" class="clusterblast-orf" id="dummy-1_h1_5_22"  />
</g>
<g id="a1_0023"  >
<polygon points="162,90 162,90 167,85 162,80 162,80 162,90 " style="fill:white; stroke-width:1; stroke:black; " description="&lt;b&gt;SXIM_RS24860&lt;/b&gt;&lt;br&gt;ABC transporter ATP-binding protein&lt;br&gt;Location: 5497922 - 5498797" locus_tag="SXIM_RS24860" class="clusterblast-orf" id="dummy-1_h1_5_23"  />
</g>
<g id="a1_0024"  >
<polygon points="168,90 177,90 182,85 177,80 168,80 168,90 " style="fill:white; stroke-width:1; stroke:black; " description="&lt;b&gt;SXIM_RS24865&lt;/b&gt;&lt;br&gt;glycoside hydrolase family 2 protein&lt;br&gt;Location: 5498941 - 5501430" locus_tag="SXIM_RS24865" class="clusterblast-orf" id="dummy-1_h1_5_24"  />
</g>
<g id="a1_0025"  >
<polygon points="182,90 182,90 187,85 182,80 182,80 182,90 " style="fill:white; stroke-width:1; stroke:black; " description="&lt;b&gt;SXIM_RS24870&lt;/b&gt;&lt;br&gt;LacI family transcriptional regulator&lt;br&gt;Location: 5501431 - 5502291" locus_tag="SXIM_RS24870" class="clusterblast-orf" id="dummy-1_h1_5_25"  />
</g>
<g id="a1_0026"  >
<polygon points="187,85 191,80 191,90 187,85 " style="fill:white; stroke-width:1; stroke:black; " description="&lt;b&gt;SXIM_RS24875&lt;/b&gt;&lt;br&gt;peptidase&lt;br&gt;Location: 5502273 - 5502842" locus_tag="SXIM_RS24875" class="clusterblast-orf" id="dummy-1_h1_5_26"  />
</g>
<g id="a1_0027"  >
<polygon points="191,85 196,80 197,80 197,90 196,90 191,85 " style="fill:white; stroke-width:1; stroke:black; " description="&lt;b&gt;SXIM_RS24880&lt;/b&gt;&lt;br&gt;hypothetical protein&lt;br&gt;Location: 5502966 - 5503967" locus_tag="SXIM_RS24880" class="clusterblast-orf" id="dummy-1_h1_5_27"  />
</g>
<g id="a1_0028"  >
<polygon points="198,85 203,80 206,80 206,90 203,90 198,85 " style="fill:white; stroke-width:1; stroke:black; " description="&lt;b&gt;SXIM_RS24885&lt;/b&gt;&lt;br&gt;MFS transporter&lt;br&gt;Location: 5504131 - 5505564" locus_tag="SXIM_RS24885" class="clusterblast-orf" id="dummy-1_h1_5_28"  />
</g>
<g id="a1_0029"  >
<polygon points="207,90 211,85 207,80 207,90 " style="fill:white; stroke-width:1; stroke:black; " description="&lt;b&gt;SXIM_RS24890&lt;/b&gt;&lt;br&gt;class I SAM-dependent methyltransferase&lt;br&gt;Location: 5505721 - 5506506" locus_tag="SXIM_RS24890" class="clusterblast-orf" id="dummy-1_h1_5_29"  />
</g>
<g id="a1_0030"  >
<polygon points="212,85 213,80 213,90 212,85 " style="fill:white; stroke-width:1; stroke:black; " description="&lt;b&gt;SXIM_RS27405&lt;/b&gt;&lt;br&gt;twin-arginine translocase TatA/TatE family subunit&lt;br&gt;Location: 5506593 - 5506853" locus_tag="SXIM_RS27405" class="clusterblast-orf" id="dummy-1_h1_5_30"  />
</g>
<g id="a1_0031"  >
<polygon points="214,90 217,85 214,80 214,90 " style="fill:white; stroke-width:1; stroke:black; " description="&lt;b&gt;SXIM_RS24900&lt;/b&gt;&lt;br&gt;hypothetical protein&lt;br&gt;Location: 5507045 - 5507449" locus_tag="SXIM_RS24900" class="clusterblast-orf" id="dummy-1_h1_5_31"  />
</g>
<g id="a1_0032"  >
<polygon points="218,90 218,90 223,85 218,80 218,80 218,90 " style="fill:white; stroke-width:1; stroke:black; " description="&lt;b&gt;SXIM_RS24905&lt;/b&gt;&lt;br&gt;hypothetical protein&lt;br&gt;Location: 5507693 - 5508451" locus_tag="SXIM_RS24905" class="clusterblast-orf" id="dummy-1_h1_5_32"  />
</g>
<g id="a1_0033"  >
<polygon points="223,90 229,90 234,85 229,80 223,80 223,90 " style="fill:white; stroke-width:1; stroke:black; " description="&lt;b&gt;SXIM_RS24910&lt;/b&gt;&lt;br&gt;peroxidase&lt;br&gt;Location: 5508582 - 5510486" locus_tag="SXIM_RS24910" class="clusterblast-orf" id="dummy-1_h1_5_33"  />
</g>
<g id="a1_0034"  >
<polygon points="235,85 240,80 247,80 247,90 240,90 235,85 " style="fill:white; stroke-width:1; stroke:black; " description="&lt;b&gt;SXIM_RS24915&lt;/b&gt;&lt;br&gt;amylo-alpha-1,6-glucosidase&lt;br&gt;Location: 5510568 - 5512670" locus_tag="SXIM_RS24915" class="clusterblast-orf" id="dummy-1_h1_5_34"  />
</g>
<g id="a1_0035"  >
<polygon points="247,90 248,90 253,85 248,80 247,80 247,90 " style="fill:white; stroke-width:1; stroke:black; " description="&lt;b&gt;SXIM_RS24920&lt;/b&gt;&lt;br&gt;LacI family transcriptional regulator&lt;br&gt;Location: 5512792 - 5513847" locus_tag="SXIM_RS24920" class="clusterblast-orf" id="dummy-1_h1_5_35"  />
</g>
<g id="a1_0036"  >
<polygon points="254,90 256,90 261,85 256,80 254,80 254,90 " style="fill:white; stroke-width:1; stroke:black; " description="&lt;b&gt;SXIM_RS24925&lt;/b&gt;&lt;br&gt;sugar ABC transporter substrate-binding protein&lt;br&gt;Location: 5513936 - 5515183" locus_tag="SXIM_RS24925" class="clusterblast-orf" id="dummy-1_h1_5_36"  />
</g>
<g id="a1_0037"  >
<polygon points="261,90 262,90 267,85 262,80 261,80 261,90 " style="fill:white; stroke-width:1; stroke:black; " description="&lt;b&gt;SXIM_RS24930&lt;/b&gt;&lt;br&gt;sugar ABC transporter permease&lt;br&gt;Location: 5515183 - 5516232" locus_tag="SXIM_RS24930" class="clusterblast-orf" id="dummy-1_h1_5_37"  />
</g>
<g id="a1_0038"  >
<polygon points="267,90 267,90 272,85 267,80 267,80 267,90 " style="fill:white; stroke-width:1; stroke:black; " description="&lt;b&gt;SXIM_RS24935&lt;/b&gt;&lt;br&gt;carbohydrate ABC transporter permease&lt;br&gt;Location: 5516229 - 5517173" locus_tag="SXIM_RS24935" class="clusterblast-orf" id="dummy-1_h1_5_38"  />
</g>
<g id="a1_0039"  >
<polygon points="272,85 277,80 278,80 278,90 277,90 272,85 " style="fill:white; stroke-width:1; stroke:black; " description="&lt;b&gt;SXIM_RS24940&lt;/b&gt;&lt;br&gt;DNA polymerase&lt;br&gt;Location: 5517206 - 5518159" locus_tag="SXIM_RS24940" class="clusterblast-orf" id="dummy-1_h1_5_39"  />
</g>
<g id="a1_0040"  >
<polygon points="278,90 280,85 278,80 278,90 " style="fill:white; stroke-width:1; stroke:black; " description="&lt;b&gt;SXIM_RS24945&lt;/b&gt;&lt;br&gt;DUF2087 domain-containing protein&lt;br&gt;Location: 5518236 - 5518511" locus_tag="SXIM_RS24945" class="clusterblast-orf" id="dummy-1_h1_5_40"  />
</g>
<g id="a1_0041"  >
<polygon points="280,85 285,80 288,80 288,90 285,90 280,85 " style="fill:white; stroke-width:1; stroke:black; " description="&lt;b&gt;SXIM_RS24950&lt;/b&gt;&lt;br&gt;phosphogluconate dehydrogenase (NADP(+)-dependent, decarboxylating)&lt;br&gt;Location: 5518561 - 5519997" locus_tag="SXIM_RS24950" class="clusterblast-orf" id="dummy-1_h1_5_41"  />
</g>
<g id="a1_0042"  >
<polygon points="289,90 291,90 296,85 291,80 289,80 289,90 " style="fill:white; stroke-width:1; stroke:black; " description="&lt;b&gt;SXIM_RS24955&lt;/b&gt;&lt;br&gt;DUF4032 domain-containing protein&lt;br&gt;Location: 5520129 - 5521388" locus_tag="SXIM_RS24955" class="clusterblast-orf" id="dummy-1_h1_5_42"  />
</g>
<g id="a1_0043"  >
<polygon points="296,85 301,80 301,80 301,90 301,90 296,85 " style="fill:white; stroke-width:1; stroke:black; " description="&lt;b&gt;SXIM_RS24960&lt;/b&gt;&lt;br&gt;acetyltransferase&lt;br&gt;Location: 5521351 - 5522181" locus_tag="SXIM_RS24960" class="clusterblast-orf" id="dummy-1_h1_5_43"  />
</g>
<g id="a1_0044"  >
<polygon points="302,85 307,80 324,80 324,90 307,90 302,85 " style="fill:white; stroke-width:1; stroke:black; " description="&lt;b&gt;SXIM_RS24965&lt;/b&gt;&lt;br&gt;amino acid adenylation protein&lt;br&gt;Location: 5522368 - 5526216" locus_tag="SXIM_RS24965" class="clusterblast-orf" id="dummy-1_h1_5_44"  />
</g>
<g id="a1_0045"  >
<polygon points="326,85 331,80 334,80 334,90 331,90 326,85 " style="fill:white; stroke-width:1; stroke:black; " description="&lt;b&gt;SXIM_RS24970&lt;/b&gt;&lt;br&gt;XRE family transcriptional regulator&lt;br&gt;Location: 5526536 - 5527945" locus_tag="SXIM_RS24970" class="clusterblast-orf" id="dummy-1_h1_5_45"  />
</g>
<g id="a1_0046"  >
<polygon points="336,90 338,90 343,85 338,80 336,80 336,90 " style="fill:white; stroke-width:1; stroke:black; " description="&lt;b&gt;SXIM_RS24975&lt;/b&gt;&lt;br&gt;isocitrate lyase&lt;br&gt;Location: 5528276 - 5529565" locus_tag="SXIM_RS24975" class="clusterblast-orf" id="dummy-1_h1_5_46"  />
</g>
<g id="a1_0047"  >
<polygon points="343,85 348,80 356,80 356,90 348,90 343,85 " style="fill:white; stroke-width:1; stroke:black; " description="&lt;b&gt;SXIM_RS24980&lt;/b&gt;&lt;br&gt;germacradienol/geosmin synthase&lt;br&gt;Location: 5529641 - 5531887" locus_tag="SXIM_RS24980" class="clusterblast-orf" id="dummy-1_h1_5_47"  />
</g>
<g id="a1_0048"  >
<polygon points="357,90 362,90 367,85 362,80 357,80 357,90 " style="fill:white; stroke-width:1; stroke:black; " description="&lt;b&gt;SXIM_RS24985&lt;/b&gt;&lt;br&gt;DUF2867 domain-containing protein&lt;br&gt;Location: 5532104 - 5533789" locus_tag="SXIM_RS24985" class="clusterblast-orf" id="dummy-1_h1_5_48"  />
</g>
<g id="a1_0049"  >
<polygon points="367,85 372,80 372,80 372,90 372,90 367,85 " style="fill:white; stroke-width:1; stroke:black; " description="&lt;b&gt;SXIM_RS24990&lt;/b&gt;&lt;br&gt;ABC transporter ATP-binding protein&lt;br&gt;Location: 5533777 - 5534646" locus_tag="SXIM_RS24990" class="clusterblast-orf" id="dummy-1_h1_5_49"  />
</g>
<g id="a1_0050"  >
<polygon points="372,85 377,80 378,80 378,90 377,90 372,85 " style="fill:white; stroke-width:1; stroke:black; " description="&lt;b&gt;SXIM_RS24995&lt;/b&gt;&lt;br&gt;ferrichrome ABC transporter permease&lt;br&gt;Location: 5534643 - 5535734" locus_tag="SXIM_RS24995" class="clusterblast-orf" id="dummy-1_h1_5_50"  />
</g>
<g id="a1_0051"  >
<polygon points="378,85 383,80 384,80 384,90 383,90 378,85 " style="fill:#b1d815; stroke-width:1; stroke:black; " description="&lt;b&gt;SXIM_RS25000&lt;/b&gt;&lt;br&gt;iron ABC transporter permease&lt;br&gt;Location: 5535731 - 5536770&lt;br&gt;&lt;br&gt;&lt;b&gt;BlastP hit with ctg8_25&lt;/b&gt;&lt;br&gt;Percentage identity: 39&lt;br&gt;Percentage coverage: 96&lt;br&gt;BLAST bit score: 199&lt;br&gt;E-value: 7.2e-49" locus_tag="SXIM_RS25000" class="clusterblast-orf" id="dummy-1_h1_5_51"  />
</g>
<g id="a1_0052"  >
<polygon points="384,85 389,80 390,80 390,90 389,90 384,85 " style="fill:#d81573; stroke-width:1; stroke:black; " description="&lt;b&gt;SXIM_RS25005&lt;/b&gt;&lt;br&gt;iron-siderophore ABC transporter substrate-binding protein&lt;br&gt;Location: 5536791 - 5537846&lt;br&gt;&lt;br&gt;&lt;b&gt;BlastP hit with ctg8_24&lt;/b&gt;&lt;br&gt;Percentage identity: 39&lt;br&gt;Percentage coverage: 99&lt;br&gt;BLAST bit score: 213&lt;br&gt;E-value: 3.7e-53" locus_tag="SXIM_RS25005" class="clusterblast-orf" id="dummy-1_h1_5_52"  />
</g>
<g id="a1_0053"  >
<polygon points="392,90 393,90 398,85 393,80 392,80 392,90 " style="fill:white; stroke-width:1; stroke:black; " description="&lt;b&gt;SXIM_RS25010&lt;/b&gt;&lt;br&gt;4-hydroxyphenylpyruvate dioxygenase&lt;br&gt;Location: 5538094 - 5539236" locus_tag="SXIM_RS25010" class="clusterblast-orf" id="dummy-1_h1_5_53"  />
</g>
<g id="a1_0054"  >
<polygon points="398,90 400,90 405,85 400,80 398,80 398,90 " style="fill:white; stroke-width:1; stroke:black; " description="&lt;b&gt;SXIM_RS25015&lt;/b&gt;&lt;br&gt;acyltransferase&lt;br&gt;Location: 5539233 - 5540417" locus_tag="SXIM_RS25015" class="clusterblast-orf" id="dummy-1_h1_5_54"  />
</g>
<g id="a1_0055"  >
<polygon points="406,90 407,90 412,85 407,80 406,80 406,90 " style="fill:white; stroke-width:1; stroke:black; " description="&lt;b&gt;SXIM_RS25020&lt;/b&gt;&lt;br&gt;prenyltransferase&lt;br&gt;Location: 5540559 - 5541623" locus_tag="SXIM_RS25020" class="clusterblast-orf" id="dummy-1_h1_5_55"  />
</g>
<g id="a1_0056"  >
<polygon points="412,90 413,90 418,85 413,80 412,80 412,90 " style="fill:white; stroke-width:1; stroke:black; " description="&lt;b&gt;SXIM_RS25025&lt;/b&gt;&lt;br&gt;polyprenyl synthetase family protein&lt;br&gt;Location: 5541620 - 5542657" locus_tag="SXIM_RS25025" class="clusterblast-orf" id="dummy-1_h1_5_56"  />
</g>
<g id="a1_0057"  >
<polygon points="418,90 422,90 427,85 422,80 418,80 418,90 " style="fill:white; stroke-width:1; stroke:black; " description="&lt;b&gt;SXIM_RS25030&lt;/b&gt;&lt;br&gt;hypothetical protein&lt;br&gt;Location: 5542674 - 5544371" locus_tag="SXIM_RS25030" class="clusterblast-orf" id="dummy-1_h1_5_57"  />
</g>
<g id="a1_0058"  >
<polygon points="427,90 430,90 435,85 430,80 427,80 427,90 " style="fill:white; stroke-width:1; stroke:black; " description="&lt;b&gt;SXIM_RS25035&lt;/b&gt;&lt;br&gt;FAD-dependent monooxygenase&lt;br&gt;Location: 5544368 - 5545621" locus_tag="SXIM_RS25035" class="clusterblast-orf" id="dummy-1_h1_5_58"  />
</g>
<g id="a1_0059"  >
<polygon points="435,90 437,90 442,85 437,80 435,80 435,90 " style="fill:white; stroke-width:1; stroke:black; " description="&lt;b&gt;SXIM_RS25040&lt;/b&gt;&lt;br&gt;hypothetical protein&lt;br&gt;Location: 5545618 - 5546970" locus_tag="SXIM_RS25040" class="clusterblast-orf" id="dummy-1_h1_5_59"  />
</g>
<g id="a1_0060"  >
<polygon points="442,85 447,80 447,80 447,90 447,90 442,85 " style="fill:white; stroke-width:1; stroke:black; " description="&lt;b&gt;SXIM_RS25045&lt;/b&gt;&lt;br&gt;siderophore-interacting protein&lt;br&gt;Location: 5546930 - 5547757" locus_tag="SXIM_RS25045" class="clusterblast-orf" id="dummy-1_h1_5_60"  />
</g>
<g id="a1_0061"  >
<polygon points="449,90 453,85 449,80 449,90 " style="fill:white; stroke-width:1; stroke:black; " description="&lt;b&gt;SXIM_RS25050&lt;/b&gt;&lt;br&gt;hypothetical protein&lt;br&gt;Location: 5548093 - 5548905" locus_tag="SXIM_RS25050" class="clusterblast-orf" id="dummy-1_h1_5_61"  />
</g>
<g id="a1_0062"  >
<polygon points="454,85 459,80 460,80 460,90 459,90 454,85 " style="fill:#d8d015; stroke-width:1; stroke:black; " description="&lt;b&gt;SXIM_RS25055&lt;/b&gt;&lt;br&gt;copper oxidase&lt;br&gt;Location: 5549000 - 5550106&lt;br&gt;&lt;br&gt;&lt;b&gt;BlastP hit with ctg8_21&lt;/b&gt;&lt;br&gt;Percentage identity: 90&lt;br&gt;Percentage coverage: 98&lt;br&gt;BLAST bit score: 555&lt;br&gt;E-value: 3.4e-156" locus_tag="SXIM_RS25055" class="clusterblast-orf" id="dummy-1_h1_5_62"  />
</g>
<g id="a1_0063"  >
<polygon points="462,90 471,90 476,85 471,80 462,80 462,90 " style="fill:#15d892; stroke-width:1; stroke:black; " description="&lt;b&gt;SXIM_RS25060&lt;/b&gt;&lt;br&gt;transcriptional regulator&lt;br&gt;Location: 5550334 - 5552835&lt;br&gt;&lt;br&gt;&lt;b&gt;BlastP hit with ctg8_22&lt;/b&gt;&lt;br&gt;Percentage identity: 91&lt;br&gt;Percentage coverage: 100&lt;br&gt;BLAST bit score: 1574&lt;br&gt;E-value: 0.0" locus_tag="SXIM_RS25060" class="clusterblast-orf" id="dummy-1_h1_5_63"  />
</g>
<g id="a1_0064"  >
<polygon points="476,90 483,90 488,85 483,80 476,80 476,90 " style="fill:#2515d8; stroke-width:1; stroke:black; " description="&lt;b&gt;SXIM_RS25065&lt;/b&gt;&lt;br&gt;DUF1080 domain-containing protein&lt;br&gt;Location: 5552835 - 5555051&lt;br&gt;&lt;br&gt;&lt;b&gt;BlastP hit with ctg8_23&lt;/b&gt;&lt;br&gt;Percentage identity: 86&lt;br&gt;Percentage coverage: 100&lt;br&gt;BLAST bit score: 1283&lt;br&gt;E-value: 0.0" locus_tag="SXIM_RS25065" class="clusterblast-orf" id="dummy-1_h1_5_64"  />
</g>
<g id="a1_0065"  >
<polygon points="489,90 490,90 495,85 490,80 489,80 489,90 " style="fill:#d81573; stroke-width:1; stroke:black; " description="&lt;b&gt;SXIM_RS25070&lt;/b&gt;&lt;br&gt;iron-siderophore ABC transporter substrate-binding protein&lt;br&gt;Location: 5555177 - 5556232&lt;br&gt;&lt;br&gt;&lt;b&gt;BlastP hit with ctg8_24&lt;/b&gt;&lt;br&gt;Percentage identity: 84&lt;br&gt;Percentage coverage: 101&lt;br&gt;BLAST bit score: 586&lt;br&gt;E-value: 2.1e-165" locus_tag="SXIM_RS25070" class="clusterblast-orf" id="dummy-1_h1_5_65"  />
</g>
<g id="a1_0066"  >
<polygon points="495,90 496,90 501,85 496,80 495,80 495,90 " style="fill:#b1d815; stroke-width:1; stroke:black; " description="&lt;b&gt;SXIM_RS25075&lt;/b&gt;&lt;br&gt;iron ABC transporter permease&lt;br&gt;Location: 5556229 - 5557272&lt;br&gt;&lt;br&gt;&lt;b&gt;BlastP hit with ctg8_25&lt;/b&gt;&lt;br&gt;Percentage identity: 89&lt;br&gt;Percentage coverage: 100&lt;br&gt;BLAST bit score: 570&lt;br&gt;E-value: 1.2e-160" locus_tag="SXIM_RS25075" class="clusterblast-orf" id="dummy-1_h1_5_66"  />
</g>
<g id="a1_0067"  >
<polygon points="501,90 502,90 507,85 502,80 501,80 501,90 " style="fill:#15d8c1; stroke-width:1; stroke:black; " description="&lt;b&gt;SXIM_RS25080&lt;/b&gt;&lt;br&gt;ABC transporter permease&lt;br&gt;Location: 5557284 - 5558294&lt;br&gt;&lt;br&gt;&lt;b&gt;BlastP hit with ctg8_26&lt;/b&gt;&lt;br&gt;Percentage identity: 88&lt;br&gt;Percentage coverage: 100&lt;br&gt;BLAST bit score: 512&lt;br&gt;E-value: 3.7e-143" locus_tag="SXIM_RS25080" class="clusterblast-orf" id="dummy-1_h1_5_67"  />
</g>
<g id="a1_0068"  >
<polygon points="507,85 512,80 515,80 515,90 512,90 507,85 " style="fill:#d81544; stroke-width:1; stroke:black; " description="&lt;b&gt;SXIM_RS25085&lt;/b&gt;&lt;br&gt;MFS transporter&lt;br&gt;Location: 5558367 - 5559659&lt;br&gt;&lt;br&gt;&lt;b&gt;BlastP hit with ctg8_30&lt;/b&gt;&lt;br&gt;Percentage identity: 90&lt;br&gt;Percentage coverage: 92&lt;br&gt;BLAST bit score: 666&lt;br&gt;E-value: 1.5e-189" locus_tag="SXIM_RS25085" class="clusterblast-orf" id="dummy-1_h1_5_68"  />
</g>
<g id="a1_0069"  >
<polygon points="515,85 516,80 516,90 515,85 " style="fill:#82d815; stroke-width:1; stroke:black; " description="&lt;b&gt;SXIM_RS25090&lt;/b&gt;&lt;br&gt;antibiotic synthesis protein MbtH&lt;br&gt;Location: 5559731 - 5559946&lt;br&gt;&lt;br&gt;&lt;b&gt;BlastP hit with ctg8_31&lt;/b&gt;&lt;br&gt;Percentage identity: 81&lt;br&gt;Percentage coverage: 99&lt;br&gt;BLAST bit score: 122&lt;br&gt;E-value: 1.7e-26" locus_tag="SXIM_RS25090" class="clusterblast-orf" id="dummy-1_h1_5_69"  />
</g>
<g id="a1_0070"  >
<polygon points="516,85 521,80 525,80 525,90 521,90 516,85 " style="fill:#d8a215; stroke-width:1; stroke:black; " description="&lt;b&gt;SXIM_RS25095&lt;/b&gt;&lt;br&gt;hypothetical protein&lt;br&gt;Location: 5559943 - 5561496&lt;br&gt;&lt;br&gt;&lt;b&gt;BlastP hit with ctg8_32&lt;/b&gt;&lt;br&gt;Percentage identity: 86&lt;br&gt;Percentage coverage: 100&lt;br&gt;BLAST bit score: 859&lt;br&gt;E-value: 2.5e-247" locus_tag="SXIM_RS25095" class="clusterblast-orf" id="dummy-1_h1_5_70"  />
</g>
<g id="a1_0071"  >
<polygon points="525,85 530,80 544,80 544,90 530,90 525,85 " style="fill:#d8a215; stroke-width:1; stroke:black; " description="&lt;b&gt;SXIM_RS25100&lt;/b&gt;&lt;br&gt;hypothetical protein&lt;br&gt;Location: 5561480 - 5564809&lt;br&gt;&lt;br&gt;&lt;b&gt;BlastP hit with ctg8_33&lt;/b&gt;&lt;br&gt;Percentage identity: 78&lt;br&gt;Percentage coverage: 93&lt;br&gt;BLAST bit score: 1498&lt;br&gt;E-value: 0.0" locus_tag="SXIM_RS25100" class="clusterblast-orf" id="dummy-1_h1_5_71"  />
</g>
<g id="a1_0072"  >
<polygon points="543,85 545,80 545,90 543,85 " style="fill:white; stroke-width:1; stroke:black; " description="&lt;b&gt;SXIM_RS27410&lt;/b&gt;&lt;br&gt;hypothetical protein&lt;br&gt;Location: 5564635 - 5564934" locus_tag="SXIM_RS27410" class="clusterblast-orf" id="dummy-1_h1_5_72"  />
</g>
<g id="a1_0073"  >
<polygon points="544,85 549,80 555,80 555,90 549,90 544,85 " style="fill:#d8a215; stroke-width:1; stroke:black; " description="&lt;b&gt;SXIM_RS25105&lt;/b&gt;&lt;br&gt;hypothetical protein&lt;br&gt;Location: 5564862 - 5566646&lt;br&gt;&lt;br&gt;&lt;b&gt;BlastP hit with ctg8_34&lt;/b&gt;&lt;br&gt;Percentage identity: 87&lt;br&gt;Percentage coverage: 100&lt;br&gt;BLAST bit score: 1014&lt;br&gt;E-value: 5.3e-294" locus_tag="SXIM_RS25105" class="clusterblast-orf" id="dummy-1_h1_5_73"  />
</g>
<g id="a1_0074"  >
<polygon points="555,85 560,80 670,80 670,90 560,90 555,85 " style="fill:#d8a215; stroke-width:1; stroke:black; " description="&lt;b&gt;SXIM_RS25110&lt;/b&gt;&lt;br&gt;D-alanine--poly(phosphoribitol) ligase subunit DltA&lt;br&gt;Location: 5566649 - 5586895&lt;br&gt;&lt;br&gt;&lt;b&gt;BlastP hit with ctg8_33&lt;/b&gt;&lt;br&gt;Percentage identity: 33&lt;br&gt;Percentage coverage: 104&lt;br&gt;BLAST bit score: 369&lt;br&gt;E-value: 1.3e-99&lt;br&gt;&lt;br&gt;&lt;b&gt;BlastP hit with ctg8_35&lt;/b&gt;&lt;br&gt;Percentage identity: 81&lt;br&gt;Percentage coverage: 98&lt;br&gt;BLAST bit score: 2823&lt;br&gt;E-value: 0.0" locus_tag="SXIM_RS25110" class="clusterblast-orf" id="dummy-1_h1_5_74"  />
</g>
<g id="a1_0075"  >
<polygon points="672,85 677,80 687,80 687,90 677,90 672,85 " style="fill:white; stroke-width:1; stroke:black; " description="&lt;b&gt;SXIM_RS25115&lt;/b&gt;&lt;br&gt;AfsR/SARP family transcriptional regulator&lt;br&gt;Location: 5587248 - 5589767" locus_tag="SXIM_RS25115" class="clusterblast-orf" id="dummy-1_h1_5_75"  />
</g>
<g id="a1_0076"  >
<polygon points="688,85 693,80 697,80 697,90 693,90 688,85 " style="fill:white; stroke-width:1; stroke:black; " description="&lt;b&gt;SXIM_RS25120&lt;/b&gt;&lt;br&gt;Zn-dependent hydrolase&lt;br&gt;Location: 5590090 - 5591532" locus_tag="SXIM_RS25120" class="clusterblast-orf" id="dummy-1_h1_5_76"  />
</g>
<g id="a1_0077"  >
<polygon points="697,85 701,80 701,90 697,85 " style="fill:white; stroke-width:1; stroke:black; " description="&lt;b&gt;SXIM_RS25125&lt;/b&gt;&lt;br&gt;HAD family phosphatase&lt;br&gt;Location: 5591563 - 5592285" locus_tag="SXIM_RS25125" class="clusterblast-orf" id="dummy-1_h1_5_77"  />
</g>
<g id="a1_0078"  >
<polygon points="701,85 706,80 706,80 706,90 706,90 701,85 " style="fill:white; stroke-width:1; stroke:black; " description="&lt;b&gt;SXIM_RS25130&lt;/b&gt;&lt;br&gt;hypothetical protein&lt;br&gt;Location: 5592344 - 5593192" locus_tag="SXIM_RS25130" class="clusterblast-orf" id="dummy-1_h1_5_78"  />
</g>
<g id="a1_0079"  >
<polygon points="707,85 712,80 713,80 713,90 712,90 707,85 " style="fill:white; stroke-width:1; stroke:black; " description="&lt;b&gt;SXIM_RS25135&lt;/b&gt;&lt;br&gt;ATPase&lt;br&gt;Location: 5593332 - 5594321" locus_tag="SXIM_RS25135" class="clusterblast-orf" id="dummy-1_h1_5_79"  />
</g>
<g id="a1_0080"  >
<polygon points="712,85 716,80 716,90 712,85 " style="fill:white; stroke-width:1; stroke:black; " description="&lt;b&gt;SXIM_RS25140&lt;/b&gt;&lt;br&gt;uracil-DNA glycosylase&lt;br&gt;Location: 5594306 - 5594983" locus_tag="SXIM_RS25140" class="clusterblast-orf" id="dummy-1_h1_5_80"  />
</g>
<g id="a1_0081"  >
<polygon points="717,85 722,80 723,80 723,90 722,90 717,85 " style="fill:white; stroke-width:1; stroke:black; " description="&lt;b&gt;SXIM_RS25145&lt;/b&gt;&lt;br&gt;NADH:flavin oxidoreductase/NADH oxidase&lt;br&gt;Location: 5595060 - 5596142" locus_tag="SXIM_RS25145" class="clusterblast-orf" id="dummy-1_h1_5_81"  />
</g>
<g id="a1_0082"  >
<polygon points="723,90 726,85 723,80 723,90 " style="fill:white; stroke-width:1; stroke:black; " description="&lt;b&gt;SXIM_RS25150&lt;/b&gt;&lt;br&gt;ArsR family transcriptional regulator&lt;br&gt;Location: 5596244 - 5596606" locus_tag="SXIM_RS25150" class="clusterblast-orf" id="dummy-1_h1_5_82"  />
</g>
<g id="a1_0083"  >
<polygon points="726,85 730,80 730,90 726,85 " style="fill:white; stroke-width:1; stroke:black; " description="&lt;b&gt;SXIM_RS25155&lt;/b&gt;&lt;br&gt;DUF305 domain-containing protein&lt;br&gt;Location: 5596603 - 5597397" locus_tag="SXIM_RS25155" class="clusterblast-orf" id="dummy-1_h1_5_83"  />
</g>
<g id="a1_0084"  >
<polygon points="731,90 734,90 739,85 734,80 731,80 731,90 " style="fill:white; stroke-width:1; stroke:black; " description="&lt;b&gt;SXIM_RS25160&lt;/b&gt;&lt;br&gt;hypothetical protein&lt;br&gt;Location: 5597475 - 5598929" locus_tag="SXIM_RS25160" class="clusterblast-orf" id="dummy-1_h1_5_84"  />
</g>
<g id="a1_0085"  >
<polygon points="739,85 743,80 743,90 739,85 " style="fill:white; stroke-width:1; stroke:black; " description="&lt;b&gt;SXIM_RS25165&lt;/b&gt;&lt;br&gt;TetR/AcrR family transcriptional regulator&lt;br&gt;Location: 5598936 - 5599592" locus_tag="SXIM_RS25165" class="clusterblast-orf" id="dummy-1_h1_5_85"  />
</g>
<g id="a1_0086"  >
<polygon points="743,85 747,80 747,90 743,85 " style="fill:white; stroke-width:1; stroke:black; " description="&lt;b&gt;SXIM_RS25170&lt;/b&gt;&lt;br&gt;hydrolase&lt;br&gt;Location: 5599732 - 5600427" locus_tag="SXIM_RS25170" class="clusterblast-orf" id="dummy-1_h1_5_86"  />
</g>
<g id="a1_0087"  >
<polygon points="749,85 754,80 754,80 754,90 754,90 749,85 " style="fill:white; stroke-width:1; stroke:black; " description="&lt;b&gt;SXIM_RS25175&lt;/b&gt;&lt;br&gt;M56 family peptidase&lt;br&gt;Location: 5600708 - 5601661" locus_tag="SXIM_RS25175" class="clusterblast-orf" id="dummy-1_h1_5_87"  />
</g>
<g id="a1_0088"  >
<polygon points="755,85 758,80 758,90 755,85 " style="fill:white; stroke-width:1; stroke:black; " description="&lt;b&gt;SXIM_RS25180&lt;/b&gt;&lt;br&gt;DUF5134 domain-containing protein&lt;br&gt;Location: 5601726 - 5602283" locus_tag="SXIM_RS25180" class="clusterblast-orf" id="dummy-1_h1_5_88"  />
</g>
<g id="a1_0089"  >
<polygon points="759,90 762,85 759,80 759,90 " style="fill:white; stroke-width:1; stroke:black; " description="&lt;b&gt;SXIM_RS25185&lt;/b&gt;&lt;br&gt;N-acetyltransferase&lt;br&gt;Location: 5602406 - 5602981" locus_tag="SXIM_RS25185" class="clusterblast-orf" id="dummy-1_h1_5_89"  />
</g>
<g id="a1_0090"  >
<polygon points="762,85 766,80 766,90 762,85 " style="fill:white; stroke-width:1; stroke:black; " description="&lt;b&gt;SXIM_RS25190&lt;/b&gt;&lt;br&gt;glycerophosphodiester phosphodiesterase&lt;br&gt;Location: 5602962 - 5603648" locus_tag="SXIM_RS25190" class="clusterblast-orf" id="dummy-1_h1_5_90"  />
</g>
<g id="a1_0091"  >
<polygon points="767,90 770,90 775,85 770,80 767,80 767,90 " style="fill:white; stroke-width:1; stroke:black; " description="&lt;b&gt;SXIM_RS25195&lt;/b&gt;&lt;br&gt;hypothetical protein&lt;br&gt;Location: 5603839 - 5605239" locus_tag="SXIM_RS25195" class="clusterblast-orf" id="dummy-1_h1_5_91"  />
</g>
<g id="a1_0092"  >
<polygon points="775,90 775,90 780,85 775,80 775,80 775,90 " style="fill:white; stroke-width:1; stroke:black; " description="&lt;b&gt;SXIM_RS25200&lt;/b&gt;&lt;br&gt;SDR family NAD(P)-dependent oxidoreductase&lt;br&gt;Location: 5605286 - 5606059" locus_tag="SXIM_RS25200" class="clusterblast-orf" id="dummy-1_h1_5_92"  />
</g>
</svg>
