<svg xmlns="http://www.w3.org/2000/svg" xmlns:xlink="http://www.w3.org/1999/xlink" version="1.1" x="0" y="0" height="230" width="800" viewBox="0 0 800 230" preserveAspectRatio="none"  >
<g label="Query sequence" class="clusterblast-cluster"  >
<text x="5" y="20" class="clusterblast-acc"  >
Query sequence</text>
<line x1="10" y1="35" x2="778.0" y2="35" style="stroke-width:1; stroke:grey; "  />
<polygon points="212,35 217,30 228,30 228,40 217,40 212,35 " style="fill:#d81515; stroke-width:1; stroke:black; " description="&lt;b&gt;ctg95_1&lt;/b&gt;&lt;br&gt;ctg95 1&lt;br&gt;Location: 202 - 970" locus_tag="ctg95_1" class="clusterblast-orf" id="dummy-1_q0_0_all"  />
<polygon points="231,40 255,40 260,35 255,30 231,30 231,40 " style="fill:#33d815; stroke-width:1; stroke:black; " description="&lt;b&gt;ctg95_2&lt;/b&gt;&lt;br&gt;ctg95 2&lt;br&gt;Location: 1127 - 2561" locus_tag="ctg95_2" class="clusterblast-orf" id="dummy-1_q1_0_all"  />
<polygon points="261,40 279,40 284,35 279,30 261,30 261,40 " style="fill:#15abd8; stroke-width:1; stroke:black; " description="&lt;b&gt;ctg95_3&lt;/b&gt;&lt;br&gt;ctg95 3&lt;br&gt;Location: 2612 - 3731" locus_tag="ctg95_3" class="clusterblast-orf" id="dummy-1_q2_0_all"  />
<polygon points="286,40 293,40 298,35 293,30 286,30 286,40 " style="fill:#8d15d8; stroke-width:1; stroke:black; " description="&lt;b&gt;ctg95_4&lt;/b&gt;&lt;br&gt;ctg95 4&lt;br&gt;Location: 3847 - 4414" locus_tag="ctg95_4" class="clusterblast-orf" id="dummy-1_q3_0_all"  />
<polygon points="298,35 303,30 315,30 315,40 303,40 298,35 " style="fill:#d86f15; stroke-width:1; stroke:black; " description="&lt;b&gt;ctg95_5&lt;/b&gt;&lt;br&gt;ctg95 5&lt;br&gt;Location: 4429 - 5278" locus_tag="ctg95_5" class="clusterblast-orf" id="dummy-1_q4_0_all"  />
<polygon points="315,35 320,30 366,30 366,40 320,40 315,35 " style="fill:#15d851; stroke-width:1; stroke:black; " description="&lt;b&gt;ctg95_6&lt;/b&gt;&lt;br&gt;ctg95 6&lt;br&gt;Location: 5278 - 7786" locus_tag="ctg95_6" class="clusterblast-orf" id="dummy-1_q5_0_all"  />
<polygon points="369,35 374,30 386,30 386,40 374,40 369,35 " style="fill:#1551d8; stroke-width:1; stroke:black; " description="&lt;b&gt;ctg95_7&lt;/b&gt;&lt;br&gt;ctg95 7&lt;br&gt;Location: 7916 - 8792" locus_tag="ctg95_7" class="clusterblast-orf" id="dummy-1_q6_0_all"  />
<polygon points="386,35 391,30 424,30 424,40 391,40 386,35 " style="fill:#1551d8; stroke-width:1; stroke:black; " description="&lt;b&gt;ctg95_8&lt;/b&gt;&lt;br&gt;ctg95 8&lt;br&gt;Location: 8788 - 10627" locus_tag="ctg95_8" class="clusterblast-orf" id="dummy-1_q7_0_all"  />
<polygon points="424,35 429,30 444,30 444,40 429,40 424,35 " style="fill:#d815c9; stroke-width:1; stroke:black; " description="&lt;b&gt;ctg95_9&lt;/b&gt;&lt;br&gt;ctg95 9&lt;br&gt;Location: 10643 - 11633" locus_tag="ctg95_9" class="clusterblast-orf" id="dummy-1_q8_0_all"  />
<polygon points="445,35 450,30 479,30 479,40 450,40 445,35 " style="fill:#d8c915; stroke-width:1; stroke:black; " description="&lt;b&gt;ctg95_10&lt;/b&gt;&lt;br&gt;ctg95 10&lt;br&gt;Location: 11664 - 13362" locus_tag="ctg95_10" class="clusterblast-orf" id="dummy-1_q9_0_all"  />
<polygon points="483,40 504,40 509,35 504,30 483,30 483,40 " style="fill:#15d8ab; stroke-width:1; stroke:black; " description="&lt;b&gt;ctg95_11&lt;/b&gt;&lt;br&gt;ctg95 11&lt;br&gt;Location: 13533 - 14811" locus_tag="ctg95_11" class="clusterblast-orf" id="dummy-1_q10_0_all"  />
<polygon points="514,40 533,40 538,35 533,30 514,30 514,40 " style="fill:#3315d8; stroke-width:1; stroke:black; " description="&lt;b&gt;ctg95_12&lt;/b&gt;&lt;br&gt;ctg95 12&lt;br&gt;Location: 15050 - 16256" locus_tag="ctg95_12" class="clusterblast-orf" id="dummy-1_q11_0_all"  />
<polygon points="540,40 558,40 563,35 558,30 540,30 540,40 " style="fill:#d8156f; stroke-width:1; stroke:black; " description="&lt;b&gt;ctg95_13&lt;/b&gt;&lt;br&gt;ctg95 13&lt;br&gt;Location: 16336 - 17458" locus_tag="ctg95_13" class="clusterblast-orf" id="dummy-1_q12_0_all"  />
<polygon points="564,35 567,30 567,40 564,35 " style="fill:#8dd815; stroke-width:1; stroke:black; " description="&lt;b&gt;ctg95_14&lt;/b&gt;&lt;br&gt;ctg95 14&lt;br&gt;Location: 17536 - 17698" locus_tag="ctg95_14" class="clusterblast-orf" id="dummy-1_q13_0_all"  />
</g>
<g label="NZ_FPAB01000009" description="NZ_FPAB01000009_c2: Streptomyces harbinensis strain CGMCC 4.7047, whole genom... (42% of genes show similarity), t3pks" class="clusterblast-cluster"  >
<text x="5" y="70" class="clusterblast-acc"  >
<a xlink:href="https://antismash-db.secondarymetabolites.org/go/NZ_FPAB01000009/2" target="_blank">NZ_FPAB01000009_c2</a>: Streptomyces harbinensis strain CGMCC 4.7047, whole genom... (42% of genes show similarity), t3pks</text>
<line x1="10" y1="85" x2="778.0" y2="85" style="stroke-width:1; stroke:grey; "  />
</g>
<g id="a1_000"  >
<polygon points="0,85 5,80 10,80 10,90 5,90 0,85 " style="fill:white; stroke-width:1; stroke:black; " description="&lt;b&gt;BM385_RS22125&lt;/b&gt;&lt;br&gt;hypothetical protein&lt;br&gt;Location: 77920 - 78420" locus_tag="BM385_RS22125" class="clusterblast-orf" id="dummy-1_h1_2_0"  />
</g>
<g id="a1_001"  >
<polygon points="12,90 16,85 12,80 12,90 " style="fill:white; stroke-width:1; stroke:black; " description="&lt;b&gt;BM385_RS22130&lt;/b&gt;&lt;br&gt;twin-arginine translocase TatA/TatE family subunit&lt;br&gt;Location: 78517 - 78753" locus_tag="BM385_RS22130" class="clusterblast-orf" id="dummy-1_h1_2_1"  />
</g>
<g id="a1_002"  >
<polygon points="25,90 44,90 49,85 44,80 25,80 25,90 " style="fill:white; stroke-width:1; stroke:black; " description="&lt;b&gt;BM385_RS22135&lt;/b&gt;&lt;br&gt;LLM class flavin-dependent oxidoreductase&lt;br&gt;Location: 79191 - 80348" locus_tag="BM385_RS22135" class="clusterblast-orf" id="dummy-1_h1_2_2"  />
</g>
<g id="a1_003"  >
<polygon points="50,85 55,80 61,80 61,90 55,90 50,85 " style="fill:white; stroke-width:1; stroke:black; " description="&lt;b&gt;BM385_RS22140&lt;/b&gt;&lt;br&gt;FMN reductase (NADPH)&lt;br&gt;Location: 80404 - 80955" locus_tag="BM385_RS22140" class="clusterblast-orf" id="dummy-1_h1_2_3"  />
</g>
<g id="a1_004"  >
<polygon points="70,85 75,80 86,80 86,90 75,90 70,85 " style="fill:#d81515; stroke-width:1; stroke:black; " description="&lt;b&gt;BM385_RS22145&lt;/b&gt;&lt;br&gt;class I SAM-dependent methyltransferase&lt;br&gt;Location: 81403 - 82170&lt;br&gt;&lt;br&gt;&lt;b&gt;BlastP hit with ctg95_1&lt;/b&gt;&lt;br&gt;Percentage identity: 99&lt;br&gt;Percentage coverage: 100&lt;br&gt;BLAST bit score: 527&lt;br&gt;E-value: 8.5e-148" locus_tag="BM385_RS22145" class="clusterblast-orf" id="dummy-1_h1_2_4"  />
</g>
<g id="a1_005"  >
<polygon points="89,90 113,90 118,85 113,80 89,80 89,90 " style="fill:#33d815; stroke-width:1; stroke:black; " description="&lt;b&gt;BM385_RS22150&lt;/b&gt;&lt;br&gt;MFS transporter&lt;br&gt;Location: 82328 - 83761&lt;br&gt;&lt;br&gt;&lt;b&gt;BlastP hit with ctg95_2&lt;/b&gt;&lt;br&gt;Percentage identity: 100&lt;br&gt;Percentage coverage: 100&lt;br&gt;BLAST bit score: 912&lt;br&gt;E-value: 1.8e-263" locus_tag="BM385_RS22150" class="clusterblast-orf" id="dummy-1_h1_2_5"  />
</g>
<g id="a1_006"  >
<polygon points="122,90 137,90 142,85 137,80 122,80 122,90 " style="fill:#15abd8; stroke-width:1; stroke:black; " description="&lt;b&gt;BM385_RS22155&lt;/b&gt;&lt;br&gt;hypothetical protein&lt;br&gt;Location: 83924 - 84931&lt;br&gt;&lt;br&gt;&lt;b&gt;BlastP hit with ctg95_3&lt;/b&gt;&lt;br&gt;Percentage identity: 100&lt;br&gt;Percentage coverage: 90&lt;br&gt;BLAST bit score: 665&lt;br&gt;E-value: 5e-189" locus_tag="BM385_RS22155" class="clusterblast-orf" id="dummy-1_h1_2_6"  />
</g>
<g id="a1_007"  >
<polygon points="144,90 151,90 156,85 151,80 144,80 144,90 " style="fill:#8d15d8; stroke-width:1; stroke:black; " description="&lt;b&gt;BM385_RS22160&lt;/b&gt;&lt;br&gt;peptidase&lt;br&gt;Location: 85048 - 85614&lt;br&gt;&lt;br&gt;&lt;b&gt;BlastP hit with ctg95_4&lt;/b&gt;&lt;br&gt;Percentage identity: 98&lt;br&gt;Percentage coverage: 100&lt;br&gt;BLAST bit score: 338&lt;br&gt;E-value: 5.4e-91" locus_tag="BM385_RS22160" class="clusterblast-orf" id="dummy-1_h1_2_7"  />
</g>
<g id="a1_008"  >
<polygon points="156,85 161,80 173,80 173,90 161,90 156,85 " style="fill:#d86f15; stroke-width:1; stroke:black; " description="&lt;b&gt;BM385_RS22165&lt;/b&gt;&lt;br&gt;LacI family transcriptional regulator&lt;br&gt;Location: 85630 - 86478&lt;br&gt;&lt;br&gt;&lt;b&gt;BlastP hit with ctg95_5&lt;/b&gt;&lt;br&gt;Percentage identity: 99&lt;br&gt;Percentage coverage: 100&lt;br&gt;BLAST bit score: 534&lt;br&gt;E-value: 7.7e-150" locus_tag="BM385_RS22165" class="clusterblast-orf" id="dummy-1_h1_2_8"  />
</g>
<g id="a1_009"  >
<polygon points="173,85 178,80 224,80 224,90 178,90 173,85 " style="fill:#15d851; stroke-width:1; stroke:black; " description="&lt;b&gt;BM385_RS22170&lt;/b&gt;&lt;br&gt;glycoside hydrolase family 2 protein&lt;br&gt;Location: 86479 - 88986&lt;br&gt;&lt;br&gt;&lt;b&gt;BlastP hit with ctg95_6&lt;/b&gt;&lt;br&gt;Percentage identity: 99&lt;br&gt;Percentage coverage: 100&lt;br&gt;BLAST bit score: 1701&lt;br&gt;E-value: 0.0" locus_tag="BM385_RS22170" class="clusterblast-orf" id="dummy-1_h1_2_9"  />
</g>
<g id="a1_0010"  >
<polygon points="227,85 232,80 245,80 245,90 232,90 227,85 " style="fill:#1551d8; stroke-width:1; stroke:black; " description="&lt;b&gt;BM385_RS22175&lt;/b&gt;&lt;br&gt;ABC transporter ATP-binding protein&lt;br&gt;Location: 89117 - 89992&lt;br&gt;&lt;br&gt;&lt;b&gt;BlastP hit with ctg95_7&lt;/b&gt;&lt;br&gt;Percentage identity: 99&lt;br&gt;Percentage coverage: 100&lt;br&gt;BLAST bit score: 567&lt;br&gt;E-value: 8.4e-160&lt;br&gt;&lt;br&gt;&lt;b&gt;BlastP hit with ctg95_8&lt;/b&gt;&lt;br&gt;Percentage identity: 40&lt;br&gt;Percentage coverage: 40&lt;br&gt;BLAST bit score: 146&lt;br&gt;E-value: 7.5e-33" locus_tag="BM385_RS22175" class="clusterblast-orf" id="dummy-1_h1_2_10"  />
</g>
<g id="a1_0011"  >
<polygon points="245,85 250,80 282,80 282,90 250,90 245,85 " style="fill:#1551d8; stroke-width:1; stroke:black; " description="&lt;b&gt;BM385_RS22180&lt;/b&gt;&lt;br&gt;peptide ABC transporter ATP-binding protein&lt;br&gt;Location: 89989 - 91827&lt;br&gt;&lt;br&gt;&lt;b&gt;BlastP hit with ctg95_7&lt;/b&gt;&lt;br&gt;Percentage identity: 40&lt;br&gt;Percentage coverage: 87&lt;br&gt;BLAST bit score: 139&lt;br&gt;E-value: 4.3e-31&lt;br&gt;&lt;br&gt;&lt;b&gt;BlastP hit with ctg95_8&lt;/b&gt;&lt;br&gt;Percentage identity: 98&lt;br&gt;Percentage coverage: 100&lt;br&gt;BLAST bit score: 1153&lt;br&gt;E-value: 0.0" locus_tag="BM385_RS22180" class="clusterblast-orf" id="dummy-1_h1_2_11"  />
</g>
<g id="a1_0012"  >
<polygon points="282,85 287,80 303,80 303,90 287,90 282,85 " style="fill:#d815c9; stroke-width:1; stroke:black; " description="&lt;b&gt;BM385_RS22185&lt;/b&gt;&lt;br&gt;ABC transporter permease&lt;br&gt;Location: 91844 - 92833&lt;br&gt;&lt;br&gt;&lt;b&gt;BlastP hit with ctg95_9&lt;/b&gt;&lt;br&gt;Percentage identity: 100&lt;br&gt;Percentage coverage: 100&lt;br&gt;BLAST bit score: 639&lt;br&gt;E-value: 2.6e-181" locus_tag="BM385_RS22185" class="clusterblast-orf" id="dummy-1_h1_2_12"  />
</g>
<g id="a1_0013"  >
<polygon points="303,85 308,80 337,80 337,90 308,90 303,85 " style="fill:#d8c915; stroke-width:1; stroke:black; " description="&lt;b&gt;BM385_RS22190&lt;/b&gt;&lt;br&gt;ABC transporter substrate-binding protein&lt;br&gt;Location: 92865 - 94523&lt;br&gt;&lt;br&gt;&lt;b&gt;BlastP hit with ctg95_10&lt;/b&gt;&lt;br&gt;Percentage identity: 99&lt;br&gt;Percentage coverage: 93&lt;br&gt;BLAST bit score: 1090&lt;br&gt;E-value: 0.0" locus_tag="BM385_RS22190" class="clusterblast-orf" id="dummy-1_h1_2_13"  />
</g>
<g id="a1_0014"  >
<polygon points="342,90 362,90 367,85 362,80 342,80 342,90 " style="fill:#15d8ab; stroke-width:1; stroke:black; " description="&lt;b&gt;BM385_RS22195&lt;/b&gt;&lt;br&gt;ROK family transcriptional regulator&lt;br&gt;Location: 94755 - 96011&lt;br&gt;&lt;br&gt;&lt;b&gt;BlastP hit with ctg95_11&lt;/b&gt;&lt;br&gt;Percentage identity: 99&lt;br&gt;Percentage coverage: 98&lt;br&gt;BLAST bit score: 748&lt;br&gt;E-value: 3e-214" locus_tag="BM385_RS22195" class="clusterblast-orf" id="dummy-1_h1_2_14"  />
</g>
<g id="a1_0015"  >
<polygon points="370,90 392,90 397,85 392,80 370,80 370,90 " style="fill:#3315d8; stroke-width:1; stroke:black; " description="&lt;b&gt;BM385_RS22200&lt;/b&gt;&lt;br&gt;cytochrome P450&lt;br&gt;Location: 96167 - 97456&lt;br&gt;&lt;br&gt;&lt;b&gt;BlastP hit with ctg95_12&lt;/b&gt;&lt;br&gt;Percentage identity: 100&lt;br&gt;Percentage coverage: 100&lt;br&gt;BLAST bit score: 800&lt;br&gt;E-value: 1.1e-229" locus_tag="BM385_RS22200" class="clusterblast-orf" id="dummy-1_h1_2_15"  />
</g>
<g id="a1_0016"  >
<polygon points="398,90 416,90 421,85 416,80 398,80 398,90 " style="fill:#d8156f; stroke-width:1; stroke:black; " description="&lt;b&gt;BM385_RS22205&lt;/b&gt;&lt;br&gt;type III polyketide synthase&lt;br&gt;Location: 97537 - 98658&lt;br&gt;&lt;br&gt;&lt;b&gt;BlastP hit with ctg95_13&lt;/b&gt;&lt;br&gt;Percentage identity: 100&lt;br&gt;Percentage coverage: 100&lt;br&gt;BLAST bit score: 749&lt;br&gt;E-value: 1.5e-214" locus_tag="BM385_RS22205" class="clusterblast-orf" id="dummy-1_h1_2_16"  />
</g>
<g id="a1_0017"  >
<polygon points="423,85 428,80 434,80 434,90 428,90 423,85 " style="fill:#8dd815; stroke-width:1; stroke:black; " description="&lt;b&gt;BM385_RS22210&lt;/b&gt;&lt;br&gt;NUDIX domain-containing protein&lt;br&gt;Location: 98738 - 99304&lt;br&gt;&lt;br&gt;&lt;b&gt;BlastP hit with ctg95_14&lt;/b&gt;&lt;br&gt;Percentage identity: 98&lt;br&gt;Percentage coverage: 100&lt;br&gt;BLAST bit score: 103&lt;br&gt;E-value: 8.2e-21" locus_tag="BM385_RS22210" class="clusterblast-orf" id="dummy-1_h1_2_17"  />
</g>
<g id="a1_0018"  >
<polygon points="437,85 442,80 462,80 462,90 442,90 437,85 " style="fill:white; stroke-width:1; stroke:black; " description="&lt;b&gt;BM385_RS22215&lt;/b&gt;&lt;br&gt;DUF418 domain-containing protein&lt;br&gt;Location: 99442 - 100662" locus_tag="BM385_RS22215" class="clusterblast-orf" id="dummy-1_h1_2_18"  />
</g>
<g id="a1_0019"  >
<polygon points="465,85 470,80 488,80 488,90 470,90 465,85 " style="fill:white; stroke-width:1; stroke:black; " description="&lt;b&gt;BM385_RS22220&lt;/b&gt;&lt;br&gt;hypothetical protein&lt;br&gt;Location: 100813 - 101967" locus_tag="BM385_RS22220" class="clusterblast-orf" id="dummy-1_h1_2_19"  />
</g>
<g id="a1_0020"  >
<polygon points="491,85 496,80 513,80 513,90 496,90 491,85 " style="fill:white; stroke-width:1; stroke:black; " description="&lt;b&gt;BM385_RS22225&lt;/b&gt;&lt;br&gt;NAD(P)/FAD-dependent oxidoreductase&lt;br&gt;Location: 102094 - 103164" locus_tag="BM385_RS22225" class="clusterblast-orf" id="dummy-1_h1_2_20"  />
</g>
<g id="a1_0021"  >
<polygon points="514,90 517,90 522,85 517,80 514,80 514,90 " style="fill:white; stroke-width:1; stroke:black; " description="&lt;b&gt;BM385_RS22230&lt;/b&gt;&lt;br&gt;HIT family protein&lt;br&gt;Location: 103221 - 103646" locus_tag="BM385_RS22230" class="clusterblast-orf" id="dummy-1_h1_2_21"  />
</g>
<g id="a1_0022"  >
<polygon points="522,85 527,80 544,80 544,90 527,90 522,85 " style="fill:white; stroke-width:1; stroke:black; " description="&lt;b&gt;BM385_RS22235&lt;/b&gt;&lt;br&gt;ATP-dependent DNA ligase&lt;br&gt;Location: 103624 - 104697" locus_tag="BM385_RS22235" class="clusterblast-orf" id="dummy-1_h1_2_22"  />
</g>
<g id="a1_0023"  >
<polygon points="545,90 563,90 568,85 563,80 545,80 545,90 " style="fill:white; stroke-width:1; stroke:black; " description="&lt;b&gt;BM385_RS22240&lt;/b&gt;&lt;br&gt;ATP-dependent DNA ligase&lt;br&gt;Location: 104774 - 105907" locus_tag="BM385_RS22240" class="clusterblast-orf" id="dummy-1_h1_2_23"  />
</g>
<g id="a1_0024"  >
<polygon points="569,85 574,80 593,80 593,90 574,90 569,85 " style="fill:white; stroke-width:1; stroke:black; " description="&lt;b&gt;BM385_RS22245&lt;/b&gt;&lt;br&gt;8-amino-7-oxononanoate synthase&lt;br&gt;Location: 105925 - 107142" locus_tag="BM385_RS22245" class="clusterblast-orf" id="dummy-1_h1_2_24"  />
</g>
<g id="a1_0025"  >
<polygon points="596,90 614,90 619,85 614,80 596,80 596,90 " style="fill:white; stroke-width:1; stroke:black; " description="&lt;b&gt;BM385_RS22250&lt;/b&gt;&lt;br&gt;biotin synthase BioB&lt;br&gt;Location: 107294 - 108400" locus_tag="BM385_RS22250" class="clusterblast-orf" id="dummy-1_h1_2_25"  />
</g>
<g id="a1_0026"  >
<polygon points="619,90 640,90 645,85 640,80 619,80 619,90 " style="fill:white; stroke-width:1; stroke:black; " description="&lt;b&gt;BM385_RS22255&lt;/b&gt;&lt;br&gt;adenosylmethionine--8-amino-7-oxononanoate transaminase&lt;br&gt;Location: 108393 - 109703" locus_tag="BM385_RS22255" class="clusterblast-orf" id="dummy-1_h1_2_26"  />
</g>
<g id="a1_0027"  >
<polygon points="647,90 656,90 661,85 656,80 647,80 647,90 " style="fill:white; stroke-width:1; stroke:black; " description="&lt;b&gt;BM385_RS22260&lt;/b&gt;&lt;br&gt;ATP-dependent dethiobiotin synthetase BioD&lt;br&gt;Location: 109756 - 110451" locus_tag="BM385_RS22260" class="clusterblast-orf" id="dummy-1_h1_2_27"  />
</g>
<g id="a1_0028"  >
<polygon points="665,90 681,90 686,85 681,80 665,80 665,90 " style="fill:white; stroke-width:1; stroke:black; " description="&lt;b&gt;BM385_RS22265&lt;/b&gt;&lt;br&gt;LacI family transcriptional regulator&lt;br&gt;Location: 110648 - 111685" locus_tag="BM385_RS22265" class="clusterblast-orf" id="dummy-1_h1_2_28"  />
</g>
<g id="a1_0029"  >
<polygon points="687,90 707,90 712,85 707,80 687,80 687,90 " style="fill:white; stroke-width:1; stroke:black; " description="&lt;b&gt;BM385_RS22270&lt;/b&gt;&lt;br&gt;sugar ABC transporter substrate-binding protein&lt;br&gt;Location: 111753 - 112985" locus_tag="BM385_RS22270" class="clusterblast-orf" id="dummy-1_h1_2_29"  />
</g>
<g id="a1_0030"  >
<polygon points="712,90 727,90 732,85 727,80 712,80 712,90 " style="fill:white; stroke-width:1; stroke:black; " description="&lt;b&gt;BM385_RS22275&lt;/b&gt;&lt;br&gt;sugar ABC transporter permease&lt;br&gt;Location: 112993 - 113964" locus_tag="BM385_RS22275" class="clusterblast-orf" id="dummy-1_h1_2_30"  />
</g>
<g id="a1_0031"  >
<polygon points="733,90 745,90 750,85 745,80 733,80 733,90 " style="fill:white; stroke-width:1; stroke:black; " description="&lt;b&gt;BM385_RS22280&lt;/b&gt;&lt;br&gt;carbohydrate ABC transporter permease&lt;br&gt;Location: 114007 - 114837" locus_tag="BM385_RS22280" class="clusterblast-orf" id="dummy-1_h1_2_31"  />
</g>
<g id="a1_0032"  >
<polygon points="751,90 775,90 780,85 775,80 751,80 751,90 " style="fill:white; stroke-width:1; stroke:black; " description="&lt;b&gt;BM385_RS22285&lt;/b&gt;&lt;br&gt;beta-glucosidase&lt;br&gt;Location: 114899 - 116299" locus_tag="BM385_RS22285" class="clusterblast-orf" id="dummy-1_h1_2_32"  />
</g>
</svg>
