<svg xmlns="http://www.w3.org/2000/svg" xmlns:xlink="http://www.w3.org/1999/xlink" version="1.1" x="0" y="0" height="230" width="800" viewBox="0 0 800 230" preserveAspectRatio="none"  >
<g label="Query sequence" class="clusterblast-cluster"  >
<text x="5" y="20" class="clusterblast-acc"  >
Query sequence</text>
<line x1="10" y1="35" x2="778.0" y2="35" style="stroke-width:1; stroke:grey; "  />
<polygon points="180,40 212,40 217,35 212,30 180,30 180,40 " style="fill:#d81515; stroke-width:1; stroke:black; " description="&lt;b&gt;ctg19_20&lt;/b&gt;&lt;br&gt;ctg19 20&lt;br&gt;Location: 25668 - 26610" locus_tag="ctg19_20" class="clusterblast-orf" id="dummy-1_q0_0_all"  />
<polygon points="220,40 228,40 233,35 228,30 220,30 220,40 " style="fill:#3cd815; stroke-width:1; stroke:black; " description="&lt;b&gt;ctg19_21&lt;/b&gt;&lt;br&gt;ctg19 21&lt;br&gt;Location: 26677 - 26998" locus_tag="ctg19_21" class="clusterblast-orf" id="dummy-1_q1_0_all"  />
<polygon points="231,40 271,40 276,35 271,30 231,30 231,40 " style="fill:#1563d8; stroke-width:1; stroke:black; " description="&lt;b&gt;ctg19_22&lt;/b&gt;&lt;br&gt;ctg19 22&lt;br&gt;Location: 26949 - 28083" locus_tag="ctg19_22" class="clusterblast-orf" id="dummy-1_q2_0_all"  />
<polygon points="275,35 280,30 314,30 314,40 280,40 275,35 " style="fill:#b115d8; stroke-width:1; stroke:black; " description="&lt;b&gt;ctg19_23&lt;/b&gt;&lt;br&gt;ctg19 23&lt;br&gt;Location: 28070 - 29060" locus_tag="ctg19_23" class="clusterblast-orf" id="dummy-1_q3_0_all"  />
<polygon points="316,35 321,30 350,30 350,40 321,40 316,35 " style="fill:#d88a15; stroke-width:1; stroke:black; " description="&lt;b&gt;ctg19_24&lt;/b&gt;&lt;br&gt;ctg19 24&lt;br&gt;Location: 29114 - 29960" locus_tag="ctg19_24" class="clusterblast-orf" id="dummy-1_q4_0_all"  />
<polygon points="350,35 355,30 395,30 395,40 355,40 350,35 " style="fill:#15d863; stroke-width:1; stroke:black; " description="&lt;b&gt;ctg19_25&lt;/b&gt;&lt;br&gt;ctg19 25&lt;br&gt;Location: 29956 - 31087" locus_tag="ctg19_25" class="clusterblast-orf" id="dummy-1_q5_0_all"  />
<polygon points="396,40 446,40 451,35 446,30 396,30 396,40 " style="fill:#3c15d8; stroke-width:1; stroke:black; " description="&lt;b&gt;ctg19_26&lt;/b&gt;&lt;br&gt;ctg19 26&lt;br&gt;Location: 31121 - 32492" locus_tag="ctg19_26" class="clusterblast-orf" id="dummy-1_q6_0_all"  />
<polygon points="450,40 463,40 468,35 463,30 450,30 450,40 " style="fill:#d8158a; stroke-width:1; stroke:black; " description="&lt;b&gt;ctg19_27&lt;/b&gt;&lt;br&gt;ctg19 27&lt;br&gt;Location: 32488 - 32944" locus_tag="ctg19_27" class="clusterblast-orf" id="dummy-1_q7_0_all"  />
<polygon points="469,40 503,40 508,35 503,30 469,30 469,40 " style="fill:#b1d815; stroke-width:1; stroke:black; " description="&lt;b&gt;ctg19_28&lt;/b&gt;&lt;br&gt;ctg19 28&lt;br&gt;Location: 32956 - 33949" locus_tag="ctg19_28" class="clusterblast-orf" id="dummy-1_q8_0_all"  />
<polygon points="510,40 595,40 600,35 595,30 510,30 510,40 " style="fill:#15d8d8; stroke-width:1; stroke:black; " description="&lt;b&gt;ctg19_29&lt;/b&gt;&lt;br&gt;ctg19 29&lt;br&gt;Location: 33997 - 36259" locus_tag="ctg19_29" class="clusterblast-orf" id="dummy-1_q9_0_all"  />
</g>
<g label="NZ_FPAB01000003" description="NZ_FPAB01000003_c16: Streptomyces harbinensis strain CGMCC 4.7047, whole geno... (55% of genes show similarity), nucleoside" class="clusterblast-cluster"  >
<text x="5" y="70" class="clusterblast-acc"  >
<a xlink:href="https://antismash-db.secondarymetabolites.org/go/NZ_FPAB01000003/16" target="_blank">NZ_FPAB01000003_c16</a>: Streptomyces harbinensis strain CGMCC 4.7047, whole geno... (55% of genes show similarity), nucleoside</text>
<line x1="10" y1="85" x2="778.0" y2="85" style="stroke-width:1; stroke:grey; "  />
</g>
<g id="a1_000"  >
<polygon points="0,90 32,90 37,85 32,80 0,80 0,90 " style="fill:#d81515; stroke-width:1; stroke:black; " description="&lt;b&gt;BM385_RS10805&lt;/b&gt;&lt;br&gt;protoheme IX farnesyltransferase&lt;br&gt;Location: 675191 - 676132&lt;br&gt;&lt;br&gt;&lt;b&gt;BlastP hit with ctg19_20&lt;/b&gt;&lt;br&gt;Percentage identity: 100&lt;br&gt;Percentage coverage: 100&lt;br&gt;BLAST bit score: 614&lt;br&gt;E-value: 4.9e-174" locus_tag="BM385_RS10805" class="clusterblast-orf" id="dummy-1_h1_1_0"  />
</g>
<g id="a1_001"  >
<polygon points="39,90 47,90 52,85 47,80 39,80 39,90 " style="fill:#3cd815; stroke-width:1; stroke:black; " description="&lt;b&gt;BM385_RS10810&lt;/b&gt;&lt;br&gt;hypothetical protein&lt;br&gt;Location: 676191 - 676520&lt;br&gt;&lt;br&gt;&lt;b&gt;BlastP hit with ctg19_21&lt;/b&gt;&lt;br&gt;Percentage identity: 100&lt;br&gt;Percentage coverage: 100&lt;br&gt;BLAST bit score: 209&lt;br&gt;E-value: 1.6e-52" locus_tag="BM385_RS10810" class="clusterblast-orf" id="dummy-1_h1_1_1"  />
</g>
<g id="a1_002"  >
<polygon points="53,90 90,90 95,85 90,80 53,80 53,90 " style="fill:#1563d8; stroke-width:1; stroke:black; " description="&lt;b&gt;BM385_RS10815&lt;/b&gt;&lt;br&gt;amidohydrolase&lt;br&gt;Location: 676547 - 677605&lt;br&gt;&lt;br&gt;&lt;b&gt;BlastP hit with ctg19_22&lt;/b&gt;&lt;br&gt;Percentage identity: 99&lt;br&gt;Percentage coverage: 93&lt;br&gt;BLAST bit score: 694&lt;br&gt;E-value: 7.7e-198" locus_tag="BM385_RS10815" class="clusterblast-orf" id="dummy-1_h1_1_2"  />
</g>
<g id="a1_003"  >
<polygon points="95,85 100,80 134,80 134,90 100,90 95,85 " style="fill:#b115d8; stroke-width:1; stroke:black; " description="&lt;b&gt;BM385_RS10820&lt;/b&gt;&lt;br&gt;heme A synthase&lt;br&gt;Location: 677593 - 678570&lt;br&gt;&lt;br&gt;&lt;b&gt;BlastP hit with ctg19_23&lt;/b&gt;&lt;br&gt;Percentage identity: 99&lt;br&gt;Percentage coverage: 99&lt;br&gt;BLAST bit score: 635&lt;br&gt;E-value: 3.7e-180" locus_tag="BM385_RS10820" class="clusterblast-orf" id="dummy-1_h1_1_3"  />
</g>
<g id="a1_004"  >
<polygon points="136,85 141,80 165,80 165,90 141,90 136,85 " style="fill:#d88a15; stroke-width:1; stroke:black; " description="&lt;b&gt;BM385_RS10825&lt;/b&gt;&lt;br&gt;ABC transporter&lt;br&gt;Location: 678637 - 679353&lt;br&gt;&lt;br&gt;&lt;b&gt;BlastP hit with ctg19_24&lt;/b&gt;&lt;br&gt;Percentage identity: 98&lt;br&gt;Percentage coverage: 85&lt;br&gt;BLAST bit score: 438&lt;br&gt;E-value: 4.4e-121" locus_tag="BM385_RS10825" class="clusterblast-orf" id="dummy-1_h1_1_4"  />
</g>
<g id="a1_005"  >
<polygon points="170,85 175,80 207,80 207,90 175,90 170,85 " style="fill:#15d863; stroke-width:1; stroke:black; " description="&lt;b&gt;BM385_RS10830&lt;/b&gt;&lt;br&gt;ABC transporter ATP-binding protein&lt;br&gt;Location: 679479 - 680420&lt;br&gt;&lt;br&gt;&lt;b&gt;BlastP hit with ctg19_25&lt;/b&gt;&lt;br&gt;Percentage identity: 100&lt;br&gt;Percentage coverage: 83&lt;br&gt;BLAST bit score: 616&lt;br&gt;E-value: 2e-174" locus_tag="BM385_RS10830" class="clusterblast-orf" id="dummy-1_h1_1_5"  />
</g>
<g id="a1_006"  >
<polygon points="207,90 265,90 270,85 265,80 207,80 207,90 " style="fill:#3c15d8; stroke-width:1; stroke:black; " description="&lt;b&gt;BM385_RS10835&lt;/b&gt;&lt;br&gt;hypothetical protein&lt;br&gt;Location: 680419 - 682014&lt;br&gt;&lt;br&gt;&lt;b&gt;BlastP hit with ctg19_26&lt;/b&gt;&lt;br&gt;Percentage identity: 100&lt;br&gt;Percentage coverage: 100&lt;br&gt;BLAST bit score: 884&lt;br&gt;E-value: 3.7e-255" locus_tag="BM385_RS10835" class="clusterblast-orf" id="dummy-1_h1_1_6"  />
</g>
<g id="a1_007"  >
<polygon points="270,90 283,90 288,85 283,80 270,80 270,90 " style="fill:#d8158a; stroke-width:1; stroke:black; " description="&lt;b&gt;BM385_RS10840&lt;/b&gt;&lt;br&gt;NUDIX domain-containing protein&lt;br&gt;Location: 682011 - 682466&lt;br&gt;&lt;br&gt;&lt;b&gt;BlastP hit with ctg19_27&lt;/b&gt;&lt;br&gt;Percentage identity: 100&lt;br&gt;Percentage coverage: 100&lt;br&gt;BLAST bit score: 320&lt;br&gt;E-value: 1.2e-85" locus_tag="BM385_RS10840" class="clusterblast-orf" id="dummy-1_h1_1_7"  />
</g>
<g id="a1_008"  >
<polygon points="289,90 323,90 328,85 323,80 289,80 289,90 " style="fill:#b1d815; stroke-width:1; stroke:black; " description="&lt;b&gt;BM385_RS10845&lt;/b&gt;&lt;br&gt;gfo/Idh/MocA family oxidoreductase&lt;br&gt;Location: 682479 - 683471&lt;br&gt;&lt;br&gt;&lt;b&gt;BlastP hit with ctg19_28&lt;/b&gt;&lt;br&gt;Percentage identity: 100&lt;br&gt;Percentage coverage: 100&lt;br&gt;BLAST bit score: 647&lt;br&gt;E-value: 9.5e-184" locus_tag="BM385_RS10845" class="clusterblast-orf" id="dummy-1_h1_1_8"  />
</g>
<g id="a1_009"  >
<polygon points="330,90 415,90 420,85 415,80 330,80 330,90 " style="fill:#15d8d8; stroke-width:1; stroke:black; " description="&lt;b&gt;BM385_RS10850&lt;/b&gt;&lt;br&gt;hypothetical protein&lt;br&gt;Location: 683520 - 685781&lt;br&gt;&lt;br&gt;&lt;b&gt;BlastP hit with ctg19_29&lt;/b&gt;&lt;br&gt;Percentage identity: 100&lt;br&gt;Percentage coverage: 100&lt;br&gt;BLAST bit score: 1465&lt;br&gt;E-value: 0.0" locus_tag="BM385_RS10850" class="clusterblast-orf" id="dummy-1_h1_1_9"  />
</g>
<g id="a1_0010"  >
<polygon points="422,90 469,90 474,85 469,80 422,80 422,90 " style="fill:white; stroke-width:1; stroke:black; " description="&lt;b&gt;BM385_RS10855&lt;/b&gt;&lt;br&gt;DegT/DnrJ/EryC1/StrS family aminotransferase&lt;br&gt;Location: 685831 - 687162" locus_tag="BM385_RS10855" class="clusterblast-orf" id="dummy-1_h1_1_10"  />
</g>
<g id="a1_0011"  >
<polygon points="478,90 506,90 511,85 506,80 478,80 478,90 " style="fill:white; stroke-width:1; stroke:black; " description="&lt;b&gt;BM385_RS10860&lt;/b&gt;&lt;br&gt;histidinol-phosphatase&lt;br&gt;Location: 687243 - 688085" locus_tag="BM385_RS10860" class="clusterblast-orf" id="dummy-1_h1_1_11"  />
</g>
<g id="a1_0012"  >
<polygon points="511,90 530,90 535,85 530,80 511,80 511,90 " style="fill:white; stroke-width:1; stroke:black; " description="&lt;b&gt;BM385_RS10865&lt;/b&gt;&lt;br&gt;GNAT family N-acetyltransferase&lt;br&gt;Location: 688082 - 688690" locus_tag="BM385_RS10865" class="clusterblast-orf" id="dummy-1_h1_1_12"  />
</g>
<g id="a1_0013"  >
<polygon points="536,90 573,90 578,85 573,80 536,80 536,90 " style="fill:white; stroke-width:1; stroke:black; " description="&lt;b&gt;BM385_RS10870&lt;/b&gt;&lt;br&gt;hypothetical protein&lt;br&gt;Location: 688725 - 689777" locus_tag="BM385_RS10870" class="clusterblast-orf" id="dummy-1_h1_1_13"  />
</g>
<g id="a1_0014"  >
<polygon points="578,90 633,90 638,85 633,80 578,80 578,90 " style="fill:white; stroke-width:1; stroke:black; " description="&lt;b&gt;BM385_RS10875&lt;/b&gt;&lt;br&gt;MFS transporter&lt;br&gt;Location: 689774 - 691282" locus_tag="BM385_RS10875" class="clusterblast-orf" id="dummy-1_h1_1_14"  />
</g>
<g id="a1_0015"  >
<polygon points="640,85 645,80 692,80 692,90 645,90 640,85 " style="fill:white; stroke-width:1; stroke:black; " description="&lt;b&gt;BM385_RS10880&lt;/b&gt;&lt;br&gt;gfo/Idh/MocA family oxidoreductase&lt;br&gt;Location: 691339 - 692649" locus_tag="BM385_RS10880" class="clusterblast-orf" id="dummy-1_h1_1_15"  />
</g>
<g id="a1_0016"  >
<polygon points="696,85 701,80 747,80 747,90 701,90 696,85 " style="fill:white; stroke-width:1; stroke:black; " description="&lt;b&gt;BM385_RS10885&lt;/b&gt;&lt;br&gt;hypothetical protein&lt;br&gt;Location: 692737 - 694026" locus_tag="BM385_RS10885" class="clusterblast-orf" id="dummy-1_h1_1_16"  />
</g>
<g id="a1_0017"  >
<polygon points="749,85 754,80 780,80 780,90 754,90 749,85 " style="fill:white; stroke-width:1; stroke:black; " description="&lt;b&gt;BM385_RS10890&lt;/b&gt;&lt;br&gt;carbohydrate ABC transporter permease&lt;br&gt;Location: 694081 - 694851" locus_tag="BM385_RS10890" class="clusterblast-orf" id="dummy-1_h1_1_17"  />
</g>
</svg>
