<svg xmlns="http://www.w3.org/2000/svg" xmlns:xlink="http://www.w3.org/1999/xlink" version="1.1" x="0" y="0" height="230" width="800" viewBox="0 0 800 230" preserveAspectRatio="none"  >
<g label="Query sequence" class="clusterblast-cluster"  >
<text x="5" y="20" class="clusterblast-acc"  >
Query sequence</text>
<line x1="10" y1="35" x2="778.0" y2="35" style="stroke-width:1; stroke:grey; "  />
<polygon points="131,40 172,40 177,35 172,30 131,30 131,40 " style="fill:#d81515; stroke-width:1; stroke:black; " description="&lt;b&gt;ctg19_20&lt;/b&gt;&lt;br&gt;ctg19 20&lt;br&gt;Location: 25668 - 26610" locus_tag="ctg19_20" class="clusterblast-orf" id="dummy-1_q0_0_all"  />
<polygon points="180,40 191,40 196,35 191,30 180,30 180,40 " style="fill:#3cd815; stroke-width:1; stroke:black; " description="&lt;b&gt;ctg19_21&lt;/b&gt;&lt;br&gt;ctg19 21&lt;br&gt;Location: 26677 - 26998" locus_tag="ctg19_21" class="clusterblast-orf" id="dummy-1_q1_0_all"  />
<polygon points="193,40 244,40 249,35 244,30 193,30 193,40 " style="fill:#1563d8; stroke-width:1; stroke:black; " description="&lt;b&gt;ctg19_22&lt;/b&gt;&lt;br&gt;ctg19 22&lt;br&gt;Location: 26949 - 28083" locus_tag="ctg19_22" class="clusterblast-orf" id="dummy-1_q2_0_all"  />
<polygon points="248,35 253,30 297,30 297,40 253,40 248,35 " style="fill:#b115d8; stroke-width:1; stroke:black; " description="&lt;b&gt;ctg19_23&lt;/b&gt;&lt;br&gt;ctg19 23&lt;br&gt;Location: 28070 - 29060" locus_tag="ctg19_23" class="clusterblast-orf" id="dummy-1_q3_0_all"  />
<polygon points="299,35 304,30 341,30 341,40 304,40 299,35 " style="fill:#d88a15; stroke-width:1; stroke:black; " description="&lt;b&gt;ctg19_24&lt;/b&gt;&lt;br&gt;ctg19 24&lt;br&gt;Location: 29114 - 29960" locus_tag="ctg19_24" class="clusterblast-orf" id="dummy-1_q4_0_all"  />
<polygon points="341,35 346,30 396,30 396,40 346,40 341,35 " style="fill:#15d863; stroke-width:1; stroke:black; " description="&lt;b&gt;ctg19_25&lt;/b&gt;&lt;br&gt;ctg19 25&lt;br&gt;Location: 29956 - 31087" locus_tag="ctg19_25" class="clusterblast-orf" id="dummy-1_q5_0_all"  />
<polygon points="398,40 460,40 465,35 460,30 398,30 398,40 " style="fill:#3c15d8; stroke-width:1; stroke:black; " description="&lt;b&gt;ctg19_26&lt;/b&gt;&lt;br&gt;ctg19 26&lt;br&gt;Location: 31121 - 32492" locus_tag="ctg19_26" class="clusterblast-orf" id="dummy-1_q6_0_all"  />
<polygon points="465,40 482,40 487,35 482,30 465,30 465,40 " style="fill:#d8158a; stroke-width:1; stroke:black; " description="&lt;b&gt;ctg19_27&lt;/b&gt;&lt;br&gt;ctg19 27&lt;br&gt;Location: 32488 - 32944" locus_tag="ctg19_27" class="clusterblast-orf" id="dummy-1_q7_0_all"  />
<polygon points="488,40 531,40 536,35 531,30 488,30 488,40 " style="fill:#b1d815; stroke-width:1; stroke:black; " description="&lt;b&gt;ctg19_28&lt;/b&gt;&lt;br&gt;ctg19 28&lt;br&gt;Location: 32956 - 33949" locus_tag="ctg19_28" class="clusterblast-orf" id="dummy-1_q8_0_all"  />
<polygon points="539,40 644,40 649,35 644,30 539,30 539,40 " style="fill:#15d8d8; stroke-width:1; stroke:black; " description="&lt;b&gt;ctg19_29&lt;/b&gt;&lt;br&gt;ctg19 29&lt;br&gt;Location: 33997 - 36259" locus_tag="ctg19_29" class="clusterblast-orf" id="dummy-1_q9_0_all"  />
</g>
<g label="NZ_BDGW01000042" description="NZ_BDGW01000042_c21: Streptomyces luteocolor strain NBRC 13826, whole genome ... (28% of genes show similarity), nucleoside" class="clusterblast-cluster"  >
<text x="5" y="70" class="clusterblast-acc"  >
<a xlink:href="https://antismash-db.secondarymetabolites.org/go/NZ_BDGW01000042/21" target="_blank">NZ_BDGW01000042_c21</a>: Streptomyces luteocolor strain NBRC 13826, whole genome ... (28% of genes show similarity), nucleoside</text>
<line x1="10" y1="85" x2="778.0" y2="85" style="stroke-width:1; stroke:grey; "  />
</g>
<g id="a1_000"  >
<polygon points="0,85 5,80 40,80 40,90 5,90 0,85 " style="fill:white; stroke-width:1; stroke:black; " description="&lt;b&gt;BJI52_RS18900&lt;/b&gt;&lt;br&gt;hypothetical protein&lt;br&gt;Location: 43284 - 44117" locus_tag="BJI52_RS18900" class="clusterblast-orf" id="dummy-1_h1_3_0"  />
</g>
<g id="a1_001"  >
<polygon points="38,85 43,80 101,80 101,90 43,90 38,85 " style="fill:white; stroke-width:1; stroke:black; " description="&lt;b&gt;BJI52_RS18905&lt;/b&gt;&lt;br&gt;VWA domain-containing protein&lt;br&gt;Location: 44069 - 45364" locus_tag="BJI52_RS18905" class="clusterblast-orf" id="dummy-1_h1_3_1"  />
</g>
<g id="a1_002"  >
<polygon points="109,85 114,80 169,80 169,90 114,90 109,85 " style="fill:white; stroke-width:1; stroke:black; " description="&lt;b&gt;BJI52_RS18910&lt;/b&gt;&lt;br&gt;monooxygenase&lt;br&gt;Location: 45522 - 46748" locus_tag="BJI52_RS18910" class="clusterblast-orf" id="dummy-1_h1_3_2"  />
</g>
<g id="a1_003"  >
<polygon points="171,85 176,80 201,80 201,90 176,90 171,85 " style="fill:white; stroke-width:1; stroke:black; " description="&lt;b&gt;BJI52_RS18915&lt;/b&gt;&lt;br&gt;peptidase&lt;br&gt;Location: 46784 - 47392" locus_tag="BJI52_RS18915" class="clusterblast-orf" id="dummy-1_h1_3_3"  />
</g>
<g id="a1_004"  >
<polygon points="202,85 207,80 262,80 262,90 207,90 202,85 " style="fill:white; stroke-width:1; stroke:black; " description="&lt;b&gt;BJI52_RS18920&lt;/b&gt;&lt;br&gt;pyridoxal phosphate-dependent aminotransferase&lt;br&gt;Location: 47425 - 48636" locus_tag="BJI52_RS18920" class="clusterblast-orf" id="dummy-1_h1_3_4"  />
</g>
<g id="a1_005"  >
<polygon points="266,90 293,90 298,85 293,80 266,80 266,90 " style="fill:white; stroke-width:1; stroke:black; " description="&lt;b&gt;BJI52_RS18925&lt;/b&gt;&lt;br&gt;transcriptional regulator&lt;br&gt;Location: 48721 - 49380" locus_tag="BJI52_RS18925" class="clusterblast-orf" id="dummy-1_h1_3_5"  />
</g>
<g id="a1_006"  >
<polygon points="300,90 344,90 349,85 344,80 300,80 300,90 " style="fill:white; stroke-width:1; stroke:black; " description="&lt;b&gt;BJI52_RS18930&lt;/b&gt;&lt;br&gt;LysR family transcriptional regulator&lt;br&gt;Location: 49421 - 50413" locus_tag="BJI52_RS18930" class="clusterblast-orf" id="dummy-1_h1_3_6"  />
</g>
<g id="a1_007"  >
<polygon points="364,90 429,90 434,85 429,80 364,80 364,90 " style="fill:#3c15d8; stroke-width:1; stroke:black; " description="&lt;b&gt;BJI52_RS18935&lt;/b&gt;&lt;br&gt;hypothetical protein&lt;br&gt;Location: 50730 - 52157&lt;br&gt;&lt;br&gt;&lt;b&gt;BlastP hit with ctg19_26&lt;/b&gt;&lt;br&gt;Percentage identity: 57&lt;br&gt;Percentage coverage: 101&lt;br&gt;BLAST bit score: 462&lt;br&gt;E-value: 7.8e-128" locus_tag="BJI52_RS18935" class="clusterblast-orf" id="dummy-1_h1_3_7"  />
</g>
<g id="a1_008"  >
<polygon points="434,90 452,90 457,85 452,80 434,80 434,90 " style="fill:#d8158a; stroke-width:1; stroke:black; " description="&lt;b&gt;BJI52_RS18940&lt;/b&gt;&lt;br&gt;NUDIX domain-containing protein&lt;br&gt;Location: 52147 - 52629&lt;br&gt;&lt;br&gt;&lt;b&gt;BlastP hit with ctg19_27&lt;/b&gt;&lt;br&gt;Percentage identity: 66&lt;br&gt;Percentage coverage: 96&lt;br&gt;BLAST bit score: 188&lt;br&gt;E-value: 7.2e-46" locus_tag="BJI52_RS18940" class="clusterblast-orf" id="dummy-1_h1_3_8"  />
</g>
<g id="a1_009"  >
<polygon points="467,90 509,90 514,85 509,80 467,80 467,90 " style="fill:#b1d815; stroke-width:1; stroke:black; " description="&lt;b&gt;BJI52_RS18945&lt;/b&gt;&lt;br&gt;gfo/Idh/MocA family oxidoreductase&lt;br&gt;Location: 52824 - 53792&lt;br&gt;&lt;br&gt;&lt;b&gt;BlastP hit with ctg19_28&lt;/b&gt;&lt;br&gt;Percentage identity: 64&lt;br&gt;Percentage coverage: 94&lt;br&gt;BLAST bit score: 400&lt;br&gt;E-value: 1.5e-109" locus_tag="BJI52_RS18945" class="clusterblast-orf" id="dummy-1_h1_3_9"  />
</g>
<g id="a1_0010"  >
<polygon points="516,90 624,90 629,85 624,80 516,80 516,90 " style="fill:#15d8d8; stroke-width:1; stroke:black; " description="&lt;b&gt;BJI52_RS18950&lt;/b&gt;&lt;br&gt;hypothetical protein&lt;br&gt;Location: 53824 - 56145&lt;br&gt;&lt;br&gt;&lt;b&gt;BlastP hit with ctg19_29&lt;/b&gt;&lt;br&gt;Percentage identity: 63&lt;br&gt;Percentage coverage: 103&lt;br&gt;BLAST bit score: 878&lt;br&gt;E-value: 7.5e-253" locus_tag="BJI52_RS18950" class="clusterblast-orf" id="dummy-1_h1_3_10"  />
</g>
<g id="a1_0011"  >
<polygon points="633,90 691,90 696,85 691,80 633,80 633,90 " style="fill:white; stroke-width:1; stroke:black; " description="&lt;b&gt;BJI52_RS18955&lt;/b&gt;&lt;br&gt;DegT/DnrJ/EryC1/StrS family aminotransferase&lt;br&gt;Location: 56217 - 57506" locus_tag="BJI52_RS18955" class="clusterblast-orf" id="dummy-1_h1_3_11"  />
</g>
<g id="a1_0012"  >
<polygon points="698,90 728,90 733,85 728,80 698,80 698,90 " style="fill:white; stroke-width:1; stroke:black; " description="&lt;b&gt;BJI52_RS18960&lt;/b&gt;&lt;br&gt;methyltransferase domain-containing protein&lt;br&gt;Location: 57540 - 58259" locus_tag="BJI52_RS18960" class="clusterblast-orf" id="dummy-1_h1_3_12"  />
</g>
<g id="a1_0013"  >
<polygon points="737,90 775,90 780,85 775,80 737,80 737,90 " style="fill:white; stroke-width:1; stroke:black; " description="&lt;b&gt;BJI52_RS18965&lt;/b&gt;&lt;br&gt;histidinol-phosphatase&lt;br&gt;Location: 58335 - 59210" locus_tag="BJI52_RS18965" class="clusterblast-orf" id="dummy-1_h1_3_13"  />
</g>
</svg>
