<svg xmlns="http://www.w3.org/2000/svg" xmlns:xlink="http://www.w3.org/1999/xlink" version="1.1" x="0" y="0" height="230" width="800" viewBox="0 0 800 230" preserveAspectRatio="none"  >
<g label="Query sequence" class="clusterblast-cluster"  >
<text x="5" y="20" class="clusterblast-acc"  >
Query sequence</text>
<line x1="10" y1="35" x2="778.0" y2="35" style="stroke-width:1; stroke:grey; "  />
<polygon points="252,35 254,30 254,40 252,35 " style="fill:#d81515; stroke-width:1; stroke:black; " description="&lt;b&gt;ctg28_1&lt;/b&gt;&lt;br&gt;ctg28 1&lt;br&gt;Location: 1 - 268" locus_tag="ctg28_1" class="clusterblast-orf" id="dummy-1_q0_0_all"  />
<polygon points="254,35 259,30 259,30 259,40 259,40 254,35 " style="fill:#6cd815; stroke-width:1; stroke:black; " description="&lt;b&gt;ctg28_2&lt;/b&gt;&lt;br&gt;ctg28 2&lt;br&gt;Location: 267 - 792" locus_tag="ctg28_2" class="clusterblast-orf" id="dummy-1_q1_0_all"  />
<polygon points="259,35 261,30 261,40 259,35 " style="fill:#15c3d8; stroke-width:1; stroke:black; " description="&lt;b&gt;ctg28_3&lt;/b&gt;&lt;br&gt;ctg28 3&lt;br&gt;Location: 825 - 1089" locus_tag="ctg28_3" class="clusterblast-orf" id="dummy-1_q2_0_all"  />
<polygon points="261,35 266,30 268,30 268,40 266,40 261,35 " style="fill:#9715d8; stroke-width:1; stroke:black; " description="&lt;b&gt;ctg28_4&lt;/b&gt;&lt;br&gt;ctg28 4&lt;br&gt;Location: 1090 - 1858" locus_tag="ctg28_4" class="clusterblast-orf" id="dummy-1_q3_0_all"  />
<polygon points="268,35 272,30 272,40 268,35 " style="fill:#d84115; stroke-width:1; stroke:black; " description="&lt;b&gt;ctg28_5&lt;/b&gt;&lt;br&gt;ctg28 5&lt;br&gt;Location: 1859 - 2303" locus_tag="ctg28_5" class="clusterblast-orf" id="dummy-1_q4_0_all"  />
<polygon points="273,35 275,30 275,40 273,35 " style="fill:#41d815; stroke-width:1; stroke:black; " description="&lt;b&gt;ctg28_6&lt;/b&gt;&lt;br&gt;ctg28 6&lt;br&gt;Location: 2325 - 2616" locus_tag="ctg28_6" class="clusterblast-orf" id="dummy-1_q5_0_all"  />
<polygon points="281,40 282,35 281,30 281,40 " style="fill:white; stroke-width:1; stroke:black; " description="&lt;b&gt;ctg28_7&lt;/b&gt;&lt;br&gt;ctg28 7&lt;br&gt;Location: 3262 - 3430" locus_tag="ctg28_7" class="clusterblast-orf" id="dummy-1_q6_0_all"  />
<polygon points="284,40 286,40 291,35 286,30 284,30 284,40 " style="fill:#1597d8; stroke-width:1; stroke:black; " description="&lt;b&gt;ctg28_8&lt;/b&gt;&lt;br&gt;ctg28 8&lt;br&gt;Location: 3562 - 4429" locus_tag="ctg28_8" class="clusterblast-orf" id="dummy-1_q7_0_all"  />
<polygon points="292,35 296,30 296,40 292,35 " style="fill:#c315d8; stroke-width:1; stroke:black; " description="&lt;b&gt;ctg28_9&lt;/b&gt;&lt;br&gt;ctg28 9&lt;br&gt;Location: 4518 - 4956" locus_tag="ctg28_9" class="clusterblast-orf" id="dummy-1_q8_0_all"  />
<polygon points="297,35 302,30 312,30 312,40 302,40 297,35 " style="fill:#d86c15; stroke-width:1; stroke:black; " description="&lt;b&gt;ctg28_10&lt;/b&gt;&lt;br&gt;ctg28 10&lt;br&gt;Location: 5075 - 6770" locus_tag="ctg28_10" class="clusterblast-orf" id="dummy-1_q9_0_all"  />
<polygon points="313,35 318,30 322,30 322,40 318,40 313,35 " style="fill:#15d815; stroke-width:1; stroke:black; " description="&lt;b&gt;ctg28_11&lt;/b&gt;&lt;br&gt;ctg28 11&lt;br&gt;Location: 6854 - 7814" locus_tag="ctg28_11" class="clusterblast-orf" id="dummy-1_q10_0_all"  />
<polygon points="322,35 327,30 334,30 334,40 327,40 322,35 " style="fill:#156cd8; stroke-width:1; stroke:black; " description="&lt;b&gt;ctg28_12&lt;/b&gt;&lt;br&gt;ctg28 12&lt;br&gt;Location: 7810 - 9211" locus_tag="ctg28_12" class="clusterblast-orf" id="dummy-1_q11_0_all"  />
<polygon points="335,35 340,30 343,30 343,40 340,40 335,35 " style="fill:#d815c3; stroke-width:1; stroke:black; " description="&lt;b&gt;ctg28_13&lt;/b&gt;&lt;br&gt;ctg28 13&lt;br&gt;Location: 9281 - 10226" locus_tag="ctg28_13" class="clusterblast-orf" id="dummy-1_q12_0_all"  />
<polygon points="344,35 349,30 356,30 356,40 349,40 344,35 " style="fill:#d89715; stroke-width:1; stroke:black; " description="&lt;b&gt;ctg28_14&lt;/b&gt;&lt;br&gt;ctg28 14&lt;br&gt;Location: 10298 - 11603" locus_tag="ctg28_14" class="clusterblast-orf" id="dummy-1_q13_0_all"  />
<polygon points="356,35 361,30 366,30 366,40 361,40 356,35 " style="fill:#15d841; stroke-width:1; stroke:black; " description="&lt;b&gt;ctg28_15&lt;/b&gt;&lt;br&gt;ctg28 15&lt;br&gt;Location: 11599 - 12679" locus_tag="ctg28_15" class="clusterblast-orf" id="dummy-1_q14_0_all"  />
<polygon points="365,35 370,30 374,30 374,40 370,40 365,35 " style="fill:#1541d8; stroke-width:1; stroke:black; " description="&lt;b&gt;ctg28_16&lt;/b&gt;&lt;br&gt;ctg28 16&lt;br&gt;Location: 12650 - 13634" locus_tag="ctg28_16" class="clusterblast-orf" id="dummy-1_q15_0_all"  />
<polygon points="374,35 379,30 384,30 384,40 379,40 374,35 " style="fill:#d81597; stroke-width:1; stroke:black; " description="&lt;b&gt;ctg28_17&lt;/b&gt;&lt;br&gt;ctg28 17&lt;br&gt;Location: 13630 - 14698" locus_tag="ctg28_17" class="clusterblast-orf" id="dummy-1_q16_0_all"  />
<polygon points="384,35 389,30 394,30 394,40 389,40 384,35 " style="fill:#d8c315; stroke-width:1; stroke:black; " description="&lt;b&gt;ctg28_18&lt;/b&gt;&lt;br&gt;ctg28 18&lt;br&gt;Location: 14723 - 15863" locus_tag="ctg28_18" class="clusterblast-orf" id="dummy-1_q17_0_all"  />
<polygon points="394,35 399,30 399,30 399,40 399,40 394,35 " style="fill:#15d86c; stroke-width:1; stroke:black; " description="&lt;b&gt;ctg28_19&lt;/b&gt;&lt;br&gt;ctg28 19&lt;br&gt;Location: 15859 - 16441" locus_tag="ctg28_19" class="clusterblast-orf" id="dummy-1_q18_0_all"  />
<polygon points="399,35 404,30 410,30 410,40 404,40 399,35 " style="fill:#d8c315; stroke-width:1; stroke:black; " description="&lt;b&gt;ctg28_20&lt;/b&gt;&lt;br&gt;ctg28 20&lt;br&gt;Location: 16440 - 17637" locus_tag="ctg28_20" class="clusterblast-orf" id="dummy-1_q19_0_all"  />
<polygon points="410,35 415,30 422,30 422,40 415,40 410,35 " style="fill:#d8c315; stroke-width:1; stroke:black; " description="&lt;b&gt;ctg28_21&lt;/b&gt;&lt;br&gt;ctg28 21&lt;br&gt;Location: 17665 - 18958" locus_tag="ctg28_21" class="clusterblast-orf" id="dummy-1_q20_0_all"  />
<polygon points="422,35 427,30 433,30 433,40 427,40 422,35 " style="fill:#1515d8; stroke-width:1; stroke:black; " description="&lt;b&gt;ctg28_22&lt;/b&gt;&lt;br&gt;ctg28 22&lt;br&gt;Location: 19016 - 20237" locus_tag="ctg28_22" class="clusterblast-orf" id="dummy-1_q21_0_all"  />
<polygon points="433,35 438,30 451,30 451,40 438,40 433,35 " style="fill:#d8156c; stroke-width:1; stroke:black; " description="&lt;b&gt;ctg28_23&lt;/b&gt;&lt;br&gt;ctg28 23&lt;br&gt;Location: 20245 - 22225" locus_tag="ctg28_23" class="clusterblast-orf" id="dummy-1_q22_0_all"  />
<polygon points="451,35 456,30 460,30 460,40 456,40 451,35 " style="fill:#c3d815; stroke-width:1; stroke:black; " description="&lt;b&gt;ctg28_24&lt;/b&gt;&lt;br&gt;ctg28 24&lt;br&gt;Location: 22227 - 23163" locus_tag="ctg28_24" class="clusterblast-orf" id="dummy-1_q23_0_all"  />
<polygon points="460,35 465,30 467,30 467,40 465,40 460,35 " style="fill:#15d897; stroke-width:1; stroke:black; " description="&lt;b&gt;ctg28_25&lt;/b&gt;&lt;br&gt;ctg28 25&lt;br&gt;Location: 23182 - 23968" locus_tag="ctg28_25" class="clusterblast-orf" id="dummy-1_q24_0_all"  />
<polygon points="468,35 471,30 471,40 468,35 " style="fill:#4115d8; stroke-width:1; stroke:black; " description="&lt;b&gt;ctg28_26&lt;/b&gt;&lt;br&gt;ctg28 26&lt;br&gt;Location: 24103 - 24373" locus_tag="ctg28_26" class="clusterblast-orf" id="dummy-1_q25_0_all"  />
<polygon points="471,35 476,30 482,30 482,40 476,40 471,35 " style="fill:#d81541; stroke-width:1; stroke:black; " description="&lt;b&gt;ctg28_27&lt;/b&gt;&lt;br&gt;ctg28 27&lt;br&gt;Location: 24460 - 25684" locus_tag="ctg28_27" class="clusterblast-orf" id="dummy-1_q26_0_all"  />
<polygon points="482,35 487,30 494,30 494,40 487,40 482,35 " style="fill:#d81541; stroke-width:1; stroke:black; " description="&lt;b&gt;ctg28_28&lt;/b&gt;&lt;br&gt;ctg28 28&lt;br&gt;Location: 25680 - 26961" locus_tag="ctg28_28" class="clusterblast-orf" id="dummy-1_q27_0_all"  />
<polygon points="494,35 496,30 496,40 494,35 " style="fill:#97d815; stroke-width:1; stroke:black; " description="&lt;b&gt;ctg28_29&lt;/b&gt;&lt;br&gt;ctg28 29&lt;br&gt;Location: 26957 - 27185" locus_tag="ctg28_29" class="clusterblast-orf" id="dummy-1_q28_0_all"  />
<polygon points="497,35 502,30 510,30 510,40 502,40 497,35 " style="fill:#d8156c; stroke-width:1; stroke:black; " description="&lt;b&gt;ctg28_30&lt;/b&gt;&lt;br&gt;ctg28 30&lt;br&gt;Location: 27295 - 28783" locus_tag="ctg28_30" class="clusterblast-orf" id="dummy-1_q29_0_all"  />
<polygon points="511,40 513,35 511,30 511,40 " style="fill:white; stroke-width:1; stroke:black; " description="&lt;b&gt;ctg28_31&lt;/b&gt;&lt;br&gt;ctg28 31&lt;br&gt;Location: 28868 - 29126" locus_tag="ctg28_31" class="clusterblast-orf" id="dummy-1_q30_0_all"  />
<polygon points="513,35 518,30 519,30 519,40 518,40 513,35 " style="fill:#15d8c3; stroke-width:1; stroke:black; " description="&lt;b&gt;ctg28_32&lt;/b&gt;&lt;br&gt;ctg28 32&lt;br&gt;Location: 29105 - 29753" locus_tag="ctg28_32" class="clusterblast-orf" id="dummy-1_q31_0_all"  />
<polygon points="522,35 527,30 528,30 528,40 527,40 522,35 " style="fill:#6c15d8; stroke-width:1; stroke:black; " description="&lt;b&gt;ctg28_33&lt;/b&gt;&lt;br&gt;ctg28 33&lt;br&gt;Location: 30087 - 30720" locus_tag="ctg28_33" class="clusterblast-orf" id="dummy-1_q32_0_all"  />
</g>
<g label="NZ_JXUQ02000001" description="NZ_JXUQ02000001_c14: Streptomyces sp. MNU77 contig1 MNU77, whole genome shotg... (33% of genes show similarity), t2pks-oligosaccharide-nrps" class="clusterblast-cluster"  >
<text x="5" y="70" class="clusterblast-acc"  >
<a xlink:href="https://antismash-db.secondarymetabolites.org/go/NZ_JXUQ02000001/14" target="_blank">NZ_JXUQ02000001_c14</a>: Streptomyces sp. MNU77 contig1 MNU77, whole genome shotg... (33% of genes show similarity), t2pks-oligosaccharide-nrps</text>
<line x1="10" y1="85" x2="778.0" y2="85" style="stroke-width:1; stroke:grey; "  />
</g>
<g id="a1_000"  >
<polygon points="0,85 2,80 2,90 0,85 " style="fill:white; stroke-width:1; stroke:black; " description="&lt;b&gt;PZ61_RS06720&lt;/b&gt;&lt;br&gt;hypothetical protein&lt;br&gt;Location: 1656774 - 1657049" locus_tag="PZ61_RS06720" class="clusterblast-orf" id="dummy-1_h1_9_0"  />
</g>
<g id="a1_001"  >
<polygon points="3,85 5,80 5,90 3,85 " style="fill:white; stroke-width:1; stroke:black; " description="&lt;b&gt;PZ61_RS06725&lt;/b&gt;&lt;br&gt;hypothetical protein&lt;br&gt;Location: 1657113 - 1657340" locus_tag="PZ61_RS06725" class="clusterblast-orf" id="dummy-1_h1_9_1"  />
</g>
<g id="a1_002"  >
<polygon points="5,85 8,80 8,90 5,85 " style="fill:white; stroke-width:1; stroke:black; " description="&lt;b&gt;PZ61_RS06730&lt;/b&gt;&lt;br&gt;hypothetical protein&lt;br&gt;Location: 1657337 - 1657690" locus_tag="PZ61_RS06730" class="clusterblast-orf" id="dummy-1_h1_9_2"  />
</g>
<g id="a1_003"  >
<polygon points="9,90 11,85 9,80 9,90 " style="fill:white; stroke-width:1; stroke:black; " description="&lt;b&gt;PZ61_RS06735&lt;/b&gt;&lt;br&gt;GntR family transcriptional regulator&lt;br&gt;Location: 1657839 - 1658095" locus_tag="PZ61_RS06735" class="clusterblast-orf" id="dummy-1_h1_9_3"  />
</g>
<g id="a1_004"  >
<polygon points="13,90 71,90 76,85 71,80 13,80 13,90 " style="fill:white; stroke-width:1; stroke:black; " description="&lt;b&gt;PZ61_RS06740&lt;/b&gt;&lt;br&gt;DUF1998 domain-containing protein&lt;br&gt;Location: 1658252 - 1665334" locus_tag="PZ61_RS06740" class="clusterblast-orf" id="dummy-1_h1_9_4"  />
</g>
<g id="a1_005"  >
<polygon points="76,90 93,90 98,85 93,80 76,80 76,90 " style="fill:white; stroke-width:1; stroke:black; " description="&lt;b&gt;PZ61_RS06745&lt;/b&gt;&lt;br&gt;ATP-dependent helicase&lt;br&gt;Location: 1665331 - 1667697" locus_tag="PZ61_RS06745" class="clusterblast-orf" id="dummy-1_h1_9_5"  />
</g>
<g id="a1_006"  >
<polygon points="102,85 107,80 107,80 107,90 107,90 102,85 " style="fill:white; stroke-width:1; stroke:black; " description="&lt;b&gt;PZ61_RS06750&lt;/b&gt;&lt;br&gt;hypothetical protein&lt;br&gt;Location: 1668177 - 1668731" locus_tag="PZ61_RS06750" class="clusterblast-orf" id="dummy-1_h1_9_6"  />
</g>
<g id="a1_007"  >
<polygon points="108,85 113,80 124,80 124,90 113,90 108,85 " style="fill:white; stroke-width:1; stroke:black; " description="&lt;b&gt;PZ61_RS06755&lt;/b&gt;&lt;br&gt;carbamoyltransferase&lt;br&gt;Location: 1668851 - 1670638" locus_tag="PZ61_RS06755" class="clusterblast-orf" id="dummy-1_h1_9_7"  />
</g>
<g id="a1_008"  >
<polygon points="124,85 129,80 135,80 135,90 129,90 124,85 " style="fill:white; stroke-width:1; stroke:black; " description="&lt;b&gt;PZ61_RS06760&lt;/b&gt;&lt;br&gt;methyltransferase domain-containing protein&lt;br&gt;Location: 1670661 - 1671890" locus_tag="PZ61_RS06760" class="clusterblast-orf" id="dummy-1_h1_9_8"  />
</g>
<g id="a1_009"  >
<polygon points="136,85 141,80 143,80 143,90 141,90 136,85 " style="fill:white; stroke-width:1; stroke:black; " description="&lt;b&gt;PZ61_RS06765&lt;/b&gt;&lt;br&gt;dTDP-6-deoxy-L-hexose 3-O-methyltransferase&lt;br&gt;Location: 1671952 - 1672728" locus_tag="PZ61_RS06765" class="clusterblast-orf" id="dummy-1_h1_9_9"  />
</g>
<g id="a1_0010"  >
<polygon points="143,85 148,80 152,80 152,90 148,90 143,85 " style="fill:#15d841; stroke-width:1; stroke:black; " description="&lt;b&gt;PZ61_RS06770&lt;/b&gt;&lt;br&gt;NAD(P)-dependent oxidoreductase&lt;br&gt;Location: 1672768 - 1673796&lt;br&gt;&lt;br&gt;&lt;b&gt;BlastP hit with ctg28_15&lt;/b&gt;&lt;br&gt;Percentage identity: 36&lt;br&gt;Percentage coverage: 96&lt;br&gt;BLAST bit score: 137&lt;br&gt;E-value: 3.5e-30" locus_tag="PZ61_RS06770" class="clusterblast-orf" id="dummy-1_h1_9_10"  />
</g>
<g id="a1_0011"  >
<polygon points="152,85 157,80 160,80 160,90 157,90 152,85 " style="fill:#d81597; stroke-width:1; stroke:black; " description="&lt;b&gt;PZ61_RS06775&lt;/b&gt;&lt;br&gt;glucose-1-phosphate thymidylyltransferase&lt;br&gt;Location: 1673753 - 1674682&lt;br&gt;&lt;br&gt;&lt;b&gt;BlastP hit with ctg28_17&lt;/b&gt;&lt;br&gt;Percentage identity: 35&lt;br&gt;Percentage coverage: 68&lt;br&gt;BLAST bit score: 147&lt;br&gt;E-value: 3.3e-33" locus_tag="PZ61_RS06775" class="clusterblast-orf" id="dummy-1_h1_9_11"  />
</g>
<g id="a1_0012"  >
<polygon points="160,85 165,80 166,80 166,90 165,90 160,85 " style="fill:white; stroke-width:1; stroke:black; " description="&lt;b&gt;PZ61_RS06780&lt;/b&gt;&lt;br&gt;dTDP-4-keto-6-deoxy-D-glucose epimerase&lt;br&gt;Location: 1674679 - 1675314" locus_tag="PZ61_RS06780" class="clusterblast-orf" id="dummy-1_h1_9_12"  />
</g>
<g id="a1_0013"  >
<polygon points="168,85 173,80 178,80 178,90 173,90 168,85 " style="fill:#d8c315; stroke-width:1; stroke:black; " description="&lt;b&gt;PZ61_RS06785&lt;/b&gt;&lt;br&gt;DUF1205 domain-containing protein&lt;br&gt;Location: 1675500 - 1676657&lt;br&gt;&lt;br&gt;&lt;b&gt;BlastP hit with ctg28_18&lt;/b&gt;&lt;br&gt;Percentage identity: 52&lt;br&gt;Percentage coverage: 101&lt;br&gt;BLAST bit score: 365&lt;br&gt;E-value: 8.3e-99&lt;br&gt;&lt;br&gt;&lt;b&gt;BlastP hit with ctg28_20&lt;/b&gt;&lt;br&gt;Percentage identity: 31&lt;br&gt;Percentage coverage: 103&lt;br&gt;BLAST bit score: 106&lt;br&gt;E-value: 5.6e-21" locus_tag="PZ61_RS06785" class="clusterblast-orf" id="dummy-1_h1_9_13"  />
</g>
<g id="a1_0014"  >
<polygon points="179,85 184,80 189,80 189,90 184,90 179,85 " style="fill:#d8c315; stroke-width:1; stroke:black; " description="&lt;b&gt;PZ61_RS06790&lt;/b&gt;&lt;br&gt;glycosyltransferase&lt;br&gt;Location: 1676748 - 1677881&lt;br&gt;&lt;br&gt;&lt;b&gt;BlastP hit with ctg28_18&lt;/b&gt;&lt;br&gt;Percentage identity: 45&lt;br&gt;Percentage coverage: 99&lt;br&gt;BLAST bit score: 323&lt;br&gt;E-value: 3.6e-86" locus_tag="PZ61_RS06790" class="clusterblast-orf" id="dummy-1_h1_9_14"  />
</g>
<g id="a1_0015"  >
<polygon points="189,85 194,80 200,80 200,90 194,90 189,85 " style="fill:white; stroke-width:1; stroke:black; " description="&lt;b&gt;PZ61_RS06795&lt;/b&gt;&lt;br&gt;cytochrome P450&lt;br&gt;Location: 1677895 - 1679082" locus_tag="PZ61_RS06795" class="clusterblast-orf" id="dummy-1_h1_9_15"  />
</g>
<g id="a1_0016"  >
<polygon points="200,85 205,80 211,80 211,90 205,90 200,85 " style="fill:#d8c315; stroke-width:1; stroke:black; " description="&lt;b&gt;PZ61_RS06800&lt;/b&gt;&lt;br&gt;DUF1205 domain-containing protein&lt;br&gt;Location: 1679149 - 1680354&lt;br&gt;&lt;br&gt;&lt;b&gt;BlastP hit with ctg28_20&lt;/b&gt;&lt;br&gt;Percentage identity: 52&lt;br&gt;Percentage coverage: 100&lt;br&gt;BLAST bit score: 381&lt;br&gt;E-value: 1.5e-103&lt;br&gt;&lt;br&gt;&lt;b&gt;BlastP hit with ctg28_21&lt;/b&gt;&lt;br&gt;Percentage identity: 32&lt;br&gt;Percentage coverage: 102&lt;br&gt;BLAST bit score: 147&lt;br&gt;E-value: 3.1e-33" locus_tag="PZ61_RS06800" class="clusterblast-orf" id="dummy-1_h1_9_16"  />
</g>
<g id="a1_0017"  >
<polygon points="212,85 217,80 223,80 223,90 217,90 212,85 " style="fill:#d8c315; stroke-width:1; stroke:black; " description="&lt;b&gt;PZ61_RS06805&lt;/b&gt;&lt;br&gt;DUF1205 domain-containing protein&lt;br&gt;Location: 1680413 - 1681648&lt;br&gt;&lt;br&gt;&lt;b&gt;BlastP hit with ctg28_20&lt;/b&gt;&lt;br&gt;Percentage identity: 31&lt;br&gt;Percentage coverage: 104&lt;br&gt;BLAST bit score: 132&lt;br&gt;E-value: 1.2e-28" locus_tag="PZ61_RS06805" class="clusterblast-orf" id="dummy-1_h1_9_17"  />
</g>
<g id="a1_0018"  >
<polygon points="224,90 224,90 229,85 224,80 224,80 224,90 " style="fill:white; stroke-width:1; stroke:black; " description="&lt;b&gt;PZ61_RS06810&lt;/b&gt;&lt;br&gt;TetR/AcrR family transcriptional regulator&lt;br&gt;Location: 1681749 - 1682330" locus_tag="PZ61_RS06810" class="clusterblast-orf" id="dummy-1_h1_9_18"  />
</g>
<g id="a1_0019"  >
<polygon points="230,85 235,80 237,80 237,90 235,90 230,85 " style="fill:white; stroke-width:1; stroke:black; " description="&lt;b&gt;PZ61_RS06815&lt;/b&gt;&lt;br&gt;hypothetical protein&lt;br&gt;Location: 1682384 - 1683187" locus_tag="PZ61_RS06815" class="clusterblast-orf" id="dummy-1_h1_9_19"  />
</g>
<g id="a1_0020"  >
<polygon points="237,85 242,80 246,80 246,90 242,90 237,85 " style="fill:#15d815; stroke-width:1; stroke:black; " description="&lt;b&gt;PZ61_RS06820&lt;/b&gt;&lt;br&gt;gfo/Idh/MocA family oxidoreductase&lt;br&gt;Location: 1683187 - 1684254&lt;br&gt;&lt;br&gt;&lt;b&gt;BlastP hit with ctg28_11&lt;/b&gt;&lt;br&gt;Percentage identity: 60&lt;br&gt;Percentage coverage: 99&lt;br&gt;BLAST bit score: 347&lt;br&gt;E-value: 2e-93" locus_tag="PZ61_RS06820" class="clusterblast-orf" id="dummy-1_h1_9_20"  />
</g>
<g id="a1_0021"  >
<polygon points="246,85 251,80 259,80 259,90 251,90 246,85 " style="fill:#156cd8; stroke-width:1; stroke:black; " description="&lt;b&gt;PZ61_RS06825&lt;/b&gt;&lt;br&gt;NDP-hexose 2,3-dehydratase&lt;br&gt;Location: 1684251 - 1685651&lt;br&gt;&lt;br&gt;&lt;b&gt;BlastP hit with ctg28_12&lt;/b&gt;&lt;br&gt;Percentage identity: 69&lt;br&gt;Percentage coverage: 98&lt;br&gt;BLAST bit score: 645&lt;br&gt;E-value: 3.9e-183" locus_tag="PZ61_RS06825" class="clusterblast-orf" id="dummy-1_h1_9_21"  />
</g>
<g id="a1_0022"  >
<polygon points="259,85 264,80 266,80 266,90 264,90 259,85 " style="fill:white; stroke-width:1; stroke:black; " description="&lt;b&gt;PZ61_RS06830&lt;/b&gt;&lt;br&gt;NDP-hexose 4-ketoreductase&lt;br&gt;Location: 1685678 - 1686433" locus_tag="PZ61_RS06830" class="clusterblast-orf" id="dummy-1_h1_9_22"  />
</g>
<g id="a1_0023"  >
<polygon points="267,85 272,80 278,80 278,90 272,90 267,85 " style="fill:#d89715; stroke-width:1; stroke:black; " description="&lt;b&gt;PZ61_RS06835&lt;/b&gt;&lt;br&gt;lipopolysaccharide biosynthesis protein RfbH&lt;br&gt;Location: 1686525 - 1687835&lt;br&gt;&lt;br&gt;&lt;b&gt;BlastP hit with ctg28_14&lt;/b&gt;&lt;br&gt;Percentage identity: 83&lt;br&gt;Percentage coverage: 100&lt;br&gt;BLAST bit score: 751&lt;br&gt;E-value: 4.7e-215" locus_tag="PZ61_RS06835" class="clusterblast-orf" id="dummy-1_h1_9_23"  />
</g>
<g id="a1_0024"  >
<polygon points="279,85 284,80 288,80 288,90 284,90 279,85 " style="fill:#1541d8; stroke-width:1; stroke:black; " description="&lt;b&gt;PZ61_RS06840&lt;/b&gt;&lt;br&gt;dTDP-glucose 4,6-dehydratase&lt;br&gt;Location: 1687846 - 1688844&lt;br&gt;&lt;br&gt;&lt;b&gt;BlastP hit with ctg28_16&lt;/b&gt;&lt;br&gt;Percentage identity: 72&lt;br&gt;Percentage coverage: 100&lt;br&gt;BLAST bit score: 499&lt;br&gt;E-value: 2.4e-139" locus_tag="PZ61_RS06840" class="clusterblast-orf" id="dummy-1_h1_9_24"  />
</g>
<g id="a1_0025"  >
<polygon points="288,85 293,80 298,80 298,90 293,90 288,85 " style="fill:white; stroke-width:1; stroke:black; " description="&lt;b&gt;PZ61_RS06845&lt;/b&gt;&lt;br&gt;aldo/keto reductase&lt;br&gt;Location: 1688940 - 1689989" locus_tag="PZ61_RS06845" class="clusterblast-orf" id="dummy-1_h1_9_25"  />
</g>
<g id="a1_0026"  >
<polygon points="298,85 303,80 303,80 303,90 303,90 298,85 " style="fill:white; stroke-width:1; stroke:black; " description="&lt;b&gt;PZ61_RS06850&lt;/b&gt;&lt;br&gt;NADPH-dependent oxidoreductase&lt;br&gt;Location: 1690001 - 1690585" locus_tag="PZ61_RS06850" class="clusterblast-orf" id="dummy-1_h1_9_26"  />
</g>
<g id="a1_0027"  >
<polygon points="304,85 309,80 314,80 314,90 309,90 304,85 " style="fill:white; stroke-width:1; stroke:black; " description="&lt;b&gt;PZ61_RS06855&lt;/b&gt;&lt;br&gt;acyltransferase&lt;br&gt;Location: 1690641 - 1691834" locus_tag="PZ61_RS06855" class="clusterblast-orf" id="dummy-1_h1_9_27"  />
</g>
<g id="a1_0028"  >
<polygon points="315,85 320,80 327,80 327,90 320,90 315,85 " style="fill:#1515d8; stroke-width:1; stroke:black; " description="&lt;b&gt;PZ61_RS06860&lt;/b&gt;&lt;br&gt;MFS transporter&lt;br&gt;Location: 1691921 - 1693192&lt;br&gt;&lt;br&gt;&lt;b&gt;BlastP hit with ctg28_22&lt;/b&gt;&lt;br&gt;Percentage identity: 50&lt;br&gt;Percentage coverage: 97&lt;br&gt;BLAST bit score: 298&lt;br&gt;E-value: 1e-78" locus_tag="PZ61_RS06860" class="clusterblast-orf" id="dummy-1_h1_9_28"  />
</g>
<g id="a1_0029"  >
<polygon points="327,85 332,80 348,80 348,90 332,90 327,85 " style="fill:#d8156c; stroke-width:1; stroke:black; " description="&lt;b&gt;PZ61_RS38415&lt;/b&gt;&lt;br&gt;monooxygenase&lt;br&gt;Location: 1693274 - 1695558&lt;br&gt;&lt;br&gt;&lt;b&gt;BlastP hit with ctg28_23&lt;/b&gt;&lt;br&gt;Percentage identity: 50&lt;br&gt;Percentage coverage: 73&lt;br&gt;BLAST bit score: 388&lt;br&gt;E-value: 1.6e-105&lt;br&gt;&lt;br&gt;&lt;b&gt;BlastP hit with ctg28_30&lt;/b&gt;&lt;br&gt;Percentage identity: 49&lt;br&gt;Percentage coverage: 98&lt;br&gt;BLAST bit score: 405&lt;br&gt;E-value: 7.2e-111" locus_tag="PZ61_RS38415" class="clusterblast-orf" id="dummy-1_h1_9_29"  />
</g>
<g id="a1_0030"  >
<polygon points="348,85 353,80 357,80 357,90 353,90 348,85 " style="fill:#c3d815; stroke-width:1; stroke:black; " description="&lt;b&gt;PZ61_RS06875&lt;/b&gt;&lt;br&gt;cyclase&lt;br&gt;Location: 1695623 - 1696570&lt;br&gt;&lt;br&gt;&lt;b&gt;BlastP hit with ctg28_24&lt;/b&gt;&lt;br&gt;Percentage identity: 71&lt;br&gt;Percentage coverage: 97&lt;br&gt;BLAST bit score: 426&lt;br&gt;E-value: 3.2e-117" locus_tag="PZ61_RS06875" class="clusterblast-orf" id="dummy-1_h1_9_30"  />
</g>
<g id="a1_0031"  >
<polygon points="357,85 362,80 364,80 364,90 362,90 357,85 " style="fill:#15d897; stroke-width:1; stroke:black; " description="&lt;b&gt;PZ61_RS06880&lt;/b&gt;&lt;br&gt;3-oxoacyl-ACP reductase FabG&lt;br&gt;Location: 1696611 - 1697393&lt;br&gt;&lt;br&gt;&lt;b&gt;BlastP hit with ctg28_25&lt;/b&gt;&lt;br&gt;Percentage identity: 82&lt;br&gt;Percentage coverage: 97&lt;br&gt;BLAST bit score: 403&lt;br&gt;E-value: 1.9e-110" locus_tag="PZ61_RS06880" class="clusterblast-orf" id="dummy-1_h1_9_31"  />
</g>
<g id="a1_0032"  >
<polygon points="365,85 367,80 367,90 365,85 " style="fill:#4115d8; stroke-width:1; stroke:black; " description="&lt;b&gt;PZ61_RS06885&lt;/b&gt;&lt;br&gt;acyl carrier protein&lt;br&gt;Location: 1697462 - 1697725&lt;br&gt;&lt;br&gt;&lt;b&gt;BlastP hit with ctg28_26&lt;/b&gt;&lt;br&gt;Percentage identity: 57&lt;br&gt;Percentage coverage: 97&lt;br&gt;BLAST bit score: 88&lt;br&gt;E-value: 4.6e-16" locus_tag="PZ61_RS06885" class="clusterblast-orf" id="dummy-1_h1_9_32"  />
</g>
<g id="a1_0033"  >
<polygon points="367,85 372,80 378,80 378,90 372,90 367,85 " style="fill:#d81541; stroke-width:1; stroke:black; " description="&lt;b&gt;PZ61_RS06890&lt;/b&gt;&lt;br&gt;ketosynthase chain-length factor&lt;br&gt;Location: 1697722 - 1698951&lt;br&gt;&lt;br&gt;&lt;b&gt;BlastP hit with ctg28_27&lt;/b&gt;&lt;br&gt;Percentage identity: 71&lt;br&gt;Percentage coverage: 98&lt;br&gt;BLAST bit score: 556&lt;br&gt;E-value: 2.7e-156&lt;br&gt;&lt;br&gt;&lt;b&gt;BlastP hit with ctg28_28&lt;/b&gt;&lt;br&gt;Percentage identity: 33&lt;br&gt;Percentage coverage: 97&lt;br&gt;BLAST bit score: 170&lt;br&gt;E-value: 5.7e-40" locus_tag="PZ61_RS06890" class="clusterblast-orf" id="dummy-1_h1_9_33"  />
</g>
<g id="a1_0034"  >
<polygon points="378,85 383,80 390,80 390,90 383,90 378,85 " style="fill:#d81541; stroke-width:1; stroke:black; " description="&lt;b&gt;PZ61_RS06895&lt;/b&gt;&lt;br&gt;beta-ketoacyl-[acyl-carrier-protein] synthase family protein&lt;br&gt;Location: 1698948 - 1700252&lt;br&gt;&lt;br&gt;&lt;b&gt;BlastP hit with ctg28_27&lt;/b&gt;&lt;br&gt;Percentage identity: 33&lt;br&gt;Percentage coverage: 103&lt;br&gt;BLAST bit score: 188&lt;br&gt;E-value: 1.1e-45&lt;br&gt;&lt;br&gt;&lt;b&gt;BlastP hit with ctg28_28&lt;/b&gt;&lt;br&gt;Percentage identity: 81&lt;br&gt;Percentage coverage: 99&lt;br&gt;BLAST bit score: 678&lt;br&gt;E-value: 3.8e-193" locus_tag="PZ61_RS06895" class="clusterblast-orf" id="dummy-1_h1_9_34"  />
</g>
<g id="a1_0035"  >
<polygon points="390,85 393,80 393,90 390,85 " style="fill:#97d815; stroke-width:1; stroke:black; " description="&lt;b&gt;PZ61_RS06900&lt;/b&gt;&lt;br&gt;TcmI family type II polyketide cyclase&lt;br&gt;Location: 1700249 - 1700578&lt;br&gt;&lt;br&gt;&lt;b&gt;BlastP hit with ctg28_29&lt;/b&gt;&lt;br&gt;Percentage identity: 77&lt;br&gt;Percentage coverage: 99&lt;br&gt;BLAST bit score: 127&lt;br&gt;E-value: 5.7e-28" locus_tag="PZ61_RS06900" class="clusterblast-orf" id="dummy-1_h1_9_35"  />
</g>
<g id="a1_0036"  >
<polygon points="393,85 398,80 407,80 407,90 398,90 393,85 " style="fill:#d8156c; stroke-width:1; stroke:black; " description="&lt;b&gt;PZ61_RS06905&lt;/b&gt;&lt;br&gt;FAD-binding protein&lt;br&gt;Location: 1700627 - 1702096&lt;br&gt;&lt;br&gt;&lt;b&gt;BlastP hit with ctg28_23&lt;/b&gt;&lt;br&gt;Percentage identity: 45&lt;br&gt;Percentage coverage: 58&lt;br&gt;BLAST bit score: 295&lt;br&gt;E-value: 1.4e-77&lt;br&gt;&lt;br&gt;&lt;b&gt;BlastP hit with ctg28_30&lt;/b&gt;&lt;br&gt;Percentage identity: 70&lt;br&gt;Percentage coverage: 99&lt;br&gt;BLAST bit score: 685&lt;br&gt;E-value: 6.2e-195" locus_tag="PZ61_RS06905" class="clusterblast-orf" id="dummy-1_h1_9_36"  />
</g>
<g id="a1_0037"  >
<polygon points="414,90 414,90 419,85 414,80 414,80 414,90 " style="fill:#15d8c3; stroke-width:1; stroke:black; " description="&lt;b&gt;PZ61_RS06910&lt;/b&gt;&lt;br&gt;hypothetical protein&lt;br&gt;Location: 1702923 - 1703531&lt;br&gt;&lt;br&gt;&lt;b&gt;BlastP hit with ctg28_32&lt;/b&gt;&lt;br&gt;Percentage identity: 41&lt;br&gt;Percentage coverage: 91&lt;br&gt;BLAST bit score: 136&lt;br&gt;E-value: 3.5e-30" locus_tag="PZ61_RS06910" class="clusterblast-orf" id="dummy-1_h1_9_37"  />
</g>
<g id="a1_0038"  >
<polygon points="420,85 425,80 426,80 426,90 425,90 420,85 " style="fill:#1597d8; stroke-width:1; stroke:black; " description="&lt;b&gt;PZ61_RS06915&lt;/b&gt;&lt;br&gt;DNA-binding response regulator&lt;br&gt;Location: 1703641 - 1704315&lt;br&gt;&lt;br&gt;&lt;b&gt;BlastP hit with ctg28_8&lt;/b&gt;&lt;br&gt;Percentage identity: 52&lt;br&gt;Percentage coverage: 79&lt;br&gt;BLAST bit score: 219&lt;br&gt;E-value: 4.3e-55" locus_tag="PZ61_RS06915" class="clusterblast-orf" id="dummy-1_h1_9_38"  />
</g>
<g id="a1_0039"  >
<polygon points="432,85 437,80 438,80 438,90 437,90 432,85 " style="fill:white; stroke-width:1; stroke:black; " description="&lt;b&gt;PZ61_RS06920&lt;/b&gt;&lt;br&gt;NADPH-dependent oxidoreductase&lt;br&gt;Location: 1704972 - 1705574" locus_tag="PZ61_RS06920" class="clusterblast-orf" id="dummy-1_h1_9_39"  />
</g>
<g id="a1_0040"  >
<polygon points="438,85 443,80 452,80 452,90 443,90 438,85 " style="fill:white; stroke-width:1; stroke:black; " description="&lt;b&gt;PZ61_RS06925&lt;/b&gt;&lt;br&gt;MFS transporter&lt;br&gt;Location: 1705571 - 1707163" locus_tag="PZ61_RS06925" class="clusterblast-orf" id="dummy-1_h1_9_40"  />
</g>
<g id="a1_0041"  >
<polygon points="454,85 459,80 512,80 512,90 459,90 454,85 " style="fill:white; stroke-width:1; stroke:black; " description="&lt;b&gt;PZ61_RS06930&lt;/b&gt;&lt;br&gt;amino acid adenylation domain-containing protein&lt;br&gt;Location: 1707416 - 1713841" locus_tag="PZ61_RS06930" class="clusterblast-orf" id="dummy-1_h1_9_41"  />
</g>
<g id="a1_0042"  >
<polygon points="513,85 518,80 525,80 525,90 518,90 513,85 " style="fill:white; stroke-width:1; stroke:black; " description="&lt;b&gt;PZ61_RS06935&lt;/b&gt;&lt;br&gt;MFS transporter&lt;br&gt;Location: 1713958 - 1715265" locus_tag="PZ61_RS06935" class="clusterblast-orf" id="dummy-1_h1_9_42"  />
</g>
<g id="a1_0043"  >
<polygon points="525,85 527,80 527,90 525,85 " style="fill:white; stroke-width:1; stroke:black; " description="&lt;b&gt;PZ61_RS06940&lt;/b&gt;&lt;br&gt;hypothetical protein&lt;br&gt;Location: 1715299 - 1715517" locus_tag="PZ61_RS06940" class="clusterblast-orf" id="dummy-1_h1_9_43"  />
</g>
<g id="a1_0044"  >
<polygon points="527,85 532,80 538,80 538,90 532,90 527,85 " style="fill:white; stroke-width:1; stroke:black; " description="&lt;b&gt;PZ61_RS06945&lt;/b&gt;&lt;br&gt;aminotransferase class V-fold PLP-dependent enzyme&lt;br&gt;Location: 1715514 - 1716749" locus_tag="PZ61_RS06945" class="clusterblast-orf" id="dummy-1_h1_9_44"  />
</g>
<g id="a1_0045"  >
<polygon points="538,85 543,80 550,80 550,90 543,90 538,85 " style="fill:white; stroke-width:1; stroke:black; " description="&lt;b&gt;PZ61_RS06950&lt;/b&gt;&lt;br&gt;phenylacetate--CoA ligase family protein&lt;br&gt;Location: 1716749 - 1718032" locus_tag="PZ61_RS06950" class="clusterblast-orf" id="dummy-1_h1_9_45"  />
</g>
<g id="a1_0046"  >
<polygon points="550,85 555,80 559,80 559,90 555,90 550,85 " style="fill:white; stroke-width:1; stroke:black; " description="&lt;b&gt;PZ61_RS06955&lt;/b&gt;&lt;br&gt;TauD/TfdA family dioxygenase&lt;br&gt;Location: 1718029 - 1719036" locus_tag="PZ61_RS06955" class="clusterblast-orf" id="dummy-1_h1_9_46"  />
</g>
<g id="a1_0047"  >
<polygon points="559,85 564,80 587,80 587,90 564,90 559,85 " style="fill:white; stroke-width:1; stroke:black; " description="&lt;b&gt;PZ61_RS06960&lt;/b&gt;&lt;br&gt;non-ribosomal peptide synthetase&lt;br&gt;Location: 1719033 - 1722176" locus_tag="PZ61_RS06960" class="clusterblast-orf" id="dummy-1_h1_9_47"  />
</g>
<g id="a1_0048"  >
<polygon points="587,85 592,80 592,80 592,90 592,90 587,85 " style="fill:white; stroke-width:1; stroke:black; " description="&lt;b&gt;PZ61_RS06965&lt;/b&gt;&lt;br&gt;hypothetical protein&lt;br&gt;Location: 1722152 - 1722742" locus_tag="PZ61_RS06965" class="clusterblast-orf" id="dummy-1_h1_9_48"  />
</g>
<g id="a1_0049"  >
<polygon points="592,85 597,80 605,80 605,90 597,90 592,85 " style="fill:white; stroke-width:1; stroke:black; " description="&lt;b&gt;PZ61_RS06970&lt;/b&gt;&lt;br&gt;hypothetical protein&lt;br&gt;Location: 1722739 - 1724223" locus_tag="PZ61_RS06970" class="clusterblast-orf" id="dummy-1_h1_9_49"  />
</g>
<g id="a1_0050"  >
<polygon points="618,90 635,90 640,85 635,80 618,80 618,90 " style="fill:white; stroke-width:1; stroke:black; " description="&lt;b&gt;PZ61_RS06975&lt;/b&gt;&lt;br&gt;HAMP domain-containing protein&lt;br&gt;Location: 1725614 - 1728046" locus_tag="PZ61_RS06975" class="clusterblast-orf" id="dummy-1_h1_9_50"  />
</g>
<g id="a1_0051"  >
<polygon points="640,90 643,85 640,80 640,90 " style="fill:white; stroke-width:1; stroke:black; " description="&lt;b&gt;PZ61_RS06980&lt;/b&gt;&lt;br&gt;roadblock/LC7 domain-containing protein&lt;br&gt;Location: 1728043 - 1728447" locus_tag="PZ61_RS06980" class="clusterblast-orf" id="dummy-1_h1_9_51"  />
</g>
<g id="a1_0052"  >
<polygon points="644,90 650,90 655,85 650,80 644,80 644,90 " style="fill:white; stroke-width:1; stroke:black; " description="&lt;b&gt;PZ61_RS06985&lt;/b&gt;&lt;br&gt;amino acid ABC transporter substrate-binding protein&lt;br&gt;Location: 1728580 - 1729785" locus_tag="PZ61_RS06985" class="clusterblast-orf" id="dummy-1_h1_9_52"  />
</g>
<g id="a1_0053"  >
<polygon points="655,90 669,90 674,85 669,80 655,80 655,90 " style="fill:white; stroke-width:1; stroke:black; " description="&lt;b&gt;PZ61_RS06990&lt;/b&gt;&lt;br&gt;branched-chain amino acid ABC transporter permease&lt;br&gt;Location: 1729787 - 1731916" locus_tag="PZ61_RS06990" class="clusterblast-orf" id="dummy-1_h1_9_53"  />
</g>
<g id="a1_0054"  >
<polygon points="674,90 677,90 682,85 677,80 674,80 674,90 " style="fill:white; stroke-width:1; stroke:black; " description="&lt;b&gt;PZ61_RS06995&lt;/b&gt;&lt;br&gt;ABC transporter ATP-binding protein&lt;br&gt;Location: 1731913 - 1732746" locus_tag="PZ61_RS06995" class="clusterblast-orf" id="dummy-1_h1_9_54"  />
</g>
<g id="a1_0055"  >
<polygon points="682,90 683,90 688,85 683,80 682,80 682,90 " style="fill:white; stroke-width:1; stroke:black; " description="&lt;b&gt;PZ61_RS07000&lt;/b&gt;&lt;br&gt;ABC transporter ATP-binding protein&lt;br&gt;Location: 1732757 - 1733485" locus_tag="PZ61_RS07000" class="clusterblast-orf" id="dummy-1_h1_9_55"  />
</g>
<g id="a1_0056"  >
<polygon points="689,85 694,80 700,80 700,90 694,90 689,85 " style="fill:white; stroke-width:1; stroke:black; " description="&lt;b&gt;PZ61_RS07005&lt;/b&gt;&lt;br&gt;monooxygenase&lt;br&gt;Location: 1733599 - 1734816" locus_tag="PZ61_RS07005" class="clusterblast-orf" id="dummy-1_h1_9_56"  />
</g>
<g id="a1_0057"  >
<polygon points="703,85 706,80 706,90 703,85 " style="fill:white; stroke-width:1; stroke:black; " description="&lt;b&gt;PZ61_RS07010&lt;/b&gt;&lt;br&gt;isomerase&lt;br&gt;Location: 1735084 - 1735434" locus_tag="PZ61_RS07010" class="clusterblast-orf" id="dummy-1_h1_9_57"  />
</g>
<g id="a1_0058"  >
<polygon points="708,90 716,90 721,85 716,80 708,80 708,90 " style="fill:white; stroke-width:1; stroke:black; " description="&lt;b&gt;PZ61_RS07015&lt;/b&gt;&lt;br&gt;betaine-aldehyde dehydrogenase&lt;br&gt;Location: 1735665 - 1737134" locus_tag="PZ61_RS07015" class="clusterblast-orf" id="dummy-1_h1_9_58"  />
</g>
<g id="a1_0059"  >
<polygon points="721,90 731,90 736,85 731,80 721,80 721,90 " style="fill:white; stroke-width:1; stroke:black; " description="&lt;b&gt;PZ61_RS07020&lt;/b&gt;&lt;br&gt;amino acid permease&lt;br&gt;Location: 1737131 - 1738723" locus_tag="PZ61_RS07020" class="clusterblast-orf" id="dummy-1_h1_9_59"  />
</g>
<g id="a1_0060"  >
<polygon points="736,90 745,90 750,85 745,80 736,80 736,90 " style="fill:white; stroke-width:1; stroke:black; " description="&lt;b&gt;PZ61_RS07025&lt;/b&gt;&lt;br&gt;choline oxidase&lt;br&gt;Location: 1738738 - 1740297" locus_tag="PZ61_RS07025" class="clusterblast-orf" id="dummy-1_h1_9_60"  />
</g>
<g id="a1_0061"  >
<polygon points="750,90 751,90 756,85 751,80 750,80 750,90 " style="fill:white; stroke-width:1; stroke:black; " description="&lt;b&gt;PZ61_RS07030&lt;/b&gt;&lt;br&gt;alpha-ketoglutarate-dependent dioxygenase AlkB&lt;br&gt;Location: 1740359 - 1740988" locus_tag="PZ61_RS07030" class="clusterblast-orf" id="dummy-1_h1_9_61"  />
</g>
<g id="a1_0062"  >
<polygon points="757,90 775,90 780,85 775,80 757,80 757,90 " style="fill:white; stroke-width:1; stroke:black; " description="&lt;b&gt;PZ61_RS07035&lt;/b&gt;&lt;br&gt;PAS domain-containing protein&lt;br&gt;Location: 1741118 - 1743622" locus_tag="PZ61_RS07035" class="clusterblast-orf" id="dummy-1_h1_9_62"  />
</g>
</svg>
