<svg xmlns="http://www.w3.org/2000/svg" xmlns:xlink="http://www.w3.org/1999/xlink" version="1.1" x="0" y="0" height="230" width="800" viewBox="0 0 800 230" preserveAspectRatio="none"  >
<g label="Query sequence" class="clusterblast-cluster"  >
<text x="5" y="20" class="clusterblast-acc"  >
Query sequence</text>
<line x1="10" y1="35" x2="778.0" y2="35" style="stroke-width:1; stroke:grey; "  />
<polygon points="79,35 84,30 91,30 91,40 84,40 79,35 " style="fill:#d81515; stroke-width:1; stroke:black; " description="&lt;b&gt;ctg10_3&lt;/b&gt;&lt;br&gt;ctg10 3&lt;br&gt;Location: 1323 - 2112" locus_tag="ctg10_3" class="clusterblast-orf" id="dummy-1_q0_0_all"  />
<polygon points="92,35 97,30 103,30 103,40 97,40 92,35 " style="fill:#60d815; stroke-width:1; stroke:black; " description="&lt;b&gt;ctg10_4&lt;/b&gt;&lt;br&gt;ctg10 4&lt;br&gt;Location: 2216 - 2984" locus_tag="ctg10_4" class="clusterblast-orf" id="dummy-1_q1_0_all"  />
<polygon points="103,35 108,30 119,30 119,40 108,40 103,35 " style="fill:#15abd8; stroke-width:1; stroke:black; " description="&lt;b&gt;ctg10_5&lt;/b&gt;&lt;br&gt;ctg10 5&lt;br&gt;Location: 2980 - 4036" locus_tag="ctg10_5" class="clusterblast-orf" id="dummy-1_q2_0_all"  />
<polygon points="118,35 123,30 134,30 134,40 123,40 118,35 " style="fill:#8d15d8; stroke-width:1; stroke:black; " description="&lt;b&gt;ctg10_6&lt;/b&gt;&lt;br&gt;ctg10 6&lt;br&gt;Location: 4013 - 5075" locus_tag="ctg10_6" class="clusterblast-orf" id="dummy-1_q3_0_all"  />
<polygon points="136,35 141,30 142,30 142,40 141,40 136,35 " style="fill:#d84215; stroke-width:1; stroke:black; " description="&lt;b&gt;ctg10_7&lt;/b&gt;&lt;br&gt;ctg10 7&lt;br&gt;Location: 5216 - 5612" locus_tag="ctg10_7" class="clusterblast-orf" id="dummy-1_q4_0_all"  />
<polygon points="142,35 144,30 144,40 142,35 " style="fill:white; stroke-width:1; stroke:black; " description="&lt;b&gt;ctg10_8&lt;/b&gt;&lt;br&gt;ctg10 8&lt;br&gt;Location: 5608 - 5755" locus_tag="ctg10_8" class="clusterblast-orf" id="dummy-1_q5_0_all"  />
<polygon points="144,35 149,30 157,30 157,40 149,40 144,35 " style="fill:#33d815; stroke-width:1; stroke:black; " description="&lt;b&gt;ctg10_9&lt;/b&gt;&lt;br&gt;ctg10 9&lt;br&gt;Location: 5754 - 6642" locus_tag="ctg10_9" class="clusterblast-orf" id="dummy-1_q6_0_all"  />
<polygon points="157,35 162,30 165,30 165,40 162,40 157,35 " style="fill:#60d815; stroke-width:1; stroke:black; " description="&lt;b&gt;ctg10_10&lt;/b&gt;&lt;br&gt;ctg10 10&lt;br&gt;Location: 6641 - 7232" locus_tag="ctg10_10" class="clusterblast-orf" id="dummy-1_q7_0_all"  />
<polygon points="167,35 172,30 183,30 183,40 172,40 167,35 " style="fill:#157ed8; stroke-width:1; stroke:black; " description="&lt;b&gt;ctg10_11&lt;/b&gt;&lt;br&gt;ctg10 11&lt;br&gt;Location: 7374 - 8433" locus_tag="ctg10_11" class="clusterblast-orf" id="dummy-1_q8_0_all"  />
<polygon points="184,35 189,30 208,30 208,40 189,40 184,35 " style="fill:#ba15d8; stroke-width:1; stroke:black; " description="&lt;b&gt;ctg10_12&lt;/b&gt;&lt;br&gt;ctg10 12&lt;br&gt;Location: 8508 - 10176" locus_tag="ctg10_12" class="clusterblast-orf" id="dummy-1_q9_0_all"  />
<polygon points="210,35 215,30 231,30 231,40 215,40 210,35 " style="fill:#d86f15; stroke-width:1; stroke:black; " description="&lt;b&gt;ctg10_13&lt;/b&gt;&lt;br&gt;ctg10 13&lt;br&gt;Location: 10316 - 11744" locus_tag="ctg10_13" class="clusterblast-orf" id="dummy-1_q10_0_all"  />
<polygon points="243,40 252,40 257,35 252,30 243,30 243,40 " style="fill:#15d824; stroke-width:1; stroke:black; " description="&lt;b&gt;ctg10_14&lt;/b&gt;&lt;br&gt;ctg10 14&lt;br&gt;Location: 12589 - 13531" locus_tag="ctg10_14" class="clusterblast-orf" id="dummy-1_q11_0_all"  />
<polygon points="257,35 262,30 276,30 276,40 262,40 257,35 " style="fill:#1551d8; stroke-width:1; stroke:black; " description="&lt;b&gt;ctg10_15&lt;/b&gt;&lt;br&gt;ctg10 15&lt;br&gt;Location: 13580 - 14822" locus_tag="ctg10_15" class="clusterblast-orf" id="dummy-1_q12_0_all"  />
<polygon points="277,35 282,30 287,30 287,40 282,40 277,35 " style="fill:#d815c9; stroke-width:1; stroke:black; " description="&lt;b&gt;ctg10_16&lt;/b&gt;&lt;br&gt;ctg10 16&lt;br&gt;Location: 14902 - 15634" locus_tag="ctg10_16" class="clusterblast-orf" id="dummy-1_q13_0_all"  />
<polygon points="288,35 293,30 299,30 299,40 293,40 288,35 " style="fill:#d89c15; stroke-width:1; stroke:black; " description="&lt;b&gt;ctg10_17&lt;/b&gt;&lt;br&gt;ctg10 17&lt;br&gt;Location: 15649 - 16441" locus_tag="ctg10_17" class="clusterblast-orf" id="dummy-1_q14_0_all"  />
<polygon points="301,40 315,40 320,35 315,30 301,30 301,40 " style="fill:#15d851; stroke-width:1; stroke:black; " description="&lt;b&gt;ctg10_18&lt;/b&gt;&lt;br&gt;ctg10 18&lt;br&gt;Location: 16592 - 17858" locus_tag="ctg10_18" class="clusterblast-orf" id="dummy-1_q15_0_all"  />
<polygon points="320,35 325,30 348,30 348,40 325,40 320,35 " style="fill:#d815c9; stroke-width:1; stroke:black; " description="&lt;b&gt;ctg10_19&lt;/b&gt;&lt;br&gt;ctg10 19&lt;br&gt;Location: 17847 - 19836" locus_tag="ctg10_19" class="clusterblast-orf" id="dummy-1_q16_0_all"  />
<polygon points="348,35 353,30 365,30 365,40 353,40 348,35 " style="fill:#1524d8; stroke-width:1; stroke:black; " description="&lt;b&gt;ctg10_20&lt;/b&gt;&lt;br&gt;ctg10 20&lt;br&gt;Location: 19832 - 20975" locus_tag="ctg10_20" class="clusterblast-orf" id="dummy-1_q17_0_all"  />
<polygon points="365,35 370,30 444,30 444,40 370,40 365,35 " style="fill:#d8159c; stroke-width:1; stroke:black; " description="&lt;b&gt;ctg10_21&lt;/b&gt;&lt;br&gt;ctg10 21&lt;br&gt;Location: 20971 - 26440" locus_tag="ctg10_21" class="clusterblast-orf" id="dummy-1_q18_0_all"  />
<polygon points="444,35 449,30 541,30 541,40 449,40 444,35 " style="fill:#d8159c; stroke-width:1; stroke:black; " description="&lt;b&gt;ctg10_22&lt;/b&gt;&lt;br&gt;ctg10 22&lt;br&gt;Location: 26436 - 33066" locus_tag="ctg10_22" class="clusterblast-orf" id="dummy-1_q19_0_all"  />
<polygon points="544,40 563,40 568,35 563,30 544,30 544,40 " style="fill:#d8c915; stroke-width:1; stroke:black; " description="&lt;b&gt;ctg10_23&lt;/b&gt;&lt;br&gt;ctg10 23&lt;br&gt;Location: 33293 - 34934" locus_tag="ctg10_23" class="clusterblast-orf" id="dummy-1_q20_0_all"  />
<polygon points="569,40 572,35 569,30 569,40 " style="fill:#15d87e; stroke-width:1; stroke:black; " description="&lt;b&gt;ctg10_24&lt;/b&gt;&lt;br&gt;ctg10 24&lt;br&gt;Location: 35016 - 35214" locus_tag="ctg10_24" class="clusterblast-orf" id="dummy-1_q21_0_all"  />
<polygon points="573,40 591,40 596,35 591,30 573,30 573,40 " style="fill:#3315d8; stroke-width:1; stroke:black; " description="&lt;b&gt;ctg10_25&lt;/b&gt;&lt;br&gt;ctg10 25&lt;br&gt;Location: 35279 - 36863" locus_tag="ctg10_25" class="clusterblast-orf" id="dummy-1_q22_0_all"  />
<polygon points="596,40 605,40 610,35 605,30 596,30 596,40 " style="fill:#d8156f; stroke-width:1; stroke:black; " description="&lt;b&gt;ctg10_26&lt;/b&gt;&lt;br&gt;ctg10 26&lt;br&gt;Location: 36859 - 37813" locus_tag="ctg10_26" class="clusterblast-orf" id="dummy-1_q23_0_all"  />
<polygon points="610,40 617,40 622,35 617,30 610,30 610,40 " style="fill:#bad815; stroke-width:1; stroke:black; " description="&lt;b&gt;ctg10_27&lt;/b&gt;&lt;br&gt;ctg10 27&lt;br&gt;Location: 37809 - 38679" locus_tag="ctg10_27" class="clusterblast-orf" id="dummy-1_q24_0_all"  />
<polygon points="622,40 640,40 645,35 640,30 622,30 622,40 " style="fill:#15d8ab; stroke-width:1; stroke:black; " description="&lt;b&gt;ctg10_28&lt;/b&gt;&lt;br&gt;ctg10 28&lt;br&gt;Location: 38671 - 40213" locus_tag="ctg10_28" class="clusterblast-orf" id="dummy-1_q25_0_all"  />
<polygon points="646,35 651,30 665,30 665,40 651,40 646,35 " style="fill:#6015d8; stroke-width:1; stroke:black; " description="&lt;b&gt;ctg10_29&lt;/b&gt;&lt;br&gt;ctg10 29&lt;br&gt;Location: 40283 - 41624" locus_tag="ctg10_29" class="clusterblast-orf" id="dummy-1_q26_0_all"  />
<polygon points="670,40 671,40 676,35 671,30 670,30 670,40 " style="fill:#d81542; stroke-width:1; stroke:black; " description="&lt;b&gt;ctg10_30&lt;/b&gt;&lt;br&gt;ctg10 30&lt;br&gt;Location: 41976 - 42363" locus_tag="ctg10_30" class="clusterblast-orf" id="dummy-1_q27_0_all"  />
<polygon points="682,40 686,35 682,30 682,40 " style="fill:#8dd815; stroke-width:1; stroke:black; " description="&lt;b&gt;ctg10_31&lt;/b&gt;&lt;br&gt;ctg10 31&lt;br&gt;Location: 42745 - 43039" locus_tag="ctg10_31" class="clusterblast-orf" id="dummy-1_q28_0_all"  />
<polygon points="687,35 692,30 700,30 700,40 692,40 687,35 " style="fill:#15d8d8; stroke-width:1; stroke:black; " description="&lt;b&gt;ctg10_32&lt;/b&gt;&lt;br&gt;ctg10 32&lt;br&gt;Location: 43112 - 44015" locus_tag="ctg10_32" class="clusterblast-orf" id="dummy-1_q29_0_all"  />
</g>
<g label="NZ_BBOK01000008" description="NZ_BBOK01000008_c12: Streptomyces sp. NBRC 110030, whole genome shotgun sequence (39% of genes show similarity), nrps" class="clusterblast-cluster"  >
<text x="5" y="70" class="clusterblast-acc"  >
<a xlink:href="https://antismash-db.secondarymetabolites.org/go/NZ_BBOK01000008/12" target="_blank">NZ_BBOK01000008_c12</a>: Streptomyces sp. NBRC 110030, whole genome shotgun sequence (39% of genes show similarity), nrps</text>
<line x1="10" y1="85" x2="778.0" y2="85" style="stroke-width:1; stroke:grey; "  />
</g>
<g id="a1_000"  >
<polygon points="0,85 5,80 5,80 5,90 5,90 0,85 " style="fill:white; stroke-width:1; stroke:black; " description="&lt;b&gt;APK71_RS21175&lt;/b&gt;&lt;br&gt;glyoxalase/bleomycin resistance/extradiol dioxygenase family protein&lt;br&gt;Location: 270156 - 270548" locus_tag="APK71_RS21175" class="clusterblast-orf" id="dummy-1_h1_7_0"  />
</g>
<g id="a1_001"  >
<polygon points="10,85 15,80 23,80 23,90 15,90 10,85 " style="fill:white; stroke-width:1; stroke:black; " description="&lt;b&gt;APK71_RS21180&lt;/b&gt;&lt;br&gt;TIGR03564 family F420-dependent LLM class oxidoreductase&lt;br&gt;Location: 270855 - 271802" locus_tag="APK71_RS21180" class="clusterblast-orf" id="dummy-1_h1_7_1"  />
</g>
<g id="a1_002"  >
<polygon points="26,90 29,90 34,85 29,80 26,80 26,90 " style="fill:white; stroke-width:1; stroke:black; " description="&lt;b&gt;APK71_RS21185&lt;/b&gt;&lt;br&gt;TetR family transcriptional regulator&lt;br&gt;Location: 271948 - 272514" locus_tag="APK71_RS21185" class="clusterblast-orf" id="dummy-1_h1_7_2"  />
</g>
<g id="a1_003"  >
<polygon points="37,85 42,80 48,80 48,90 42,90 37,85 " style="fill:white; stroke-width:1; stroke:black; " description="&lt;b&gt;APK71_RS21190&lt;/b&gt;&lt;br&gt;SDR family NAD(P)-dependent oxidoreductase&lt;br&gt;Location: 272730 - 273497" locus_tag="APK71_RS21190" class="clusterblast-orf" id="dummy-1_h1_7_3"  />
</g>
<g id="a1_004"  >
<polygon points="50,85 55,80 61,80 61,90 55,90 50,85 " style="fill:white; stroke-width:1; stroke:black; " description="&lt;b&gt;APK71_RS21195&lt;/b&gt;&lt;br&gt;3-oxoacyl-ACP reductase&lt;br&gt;Location: 273660 - 274418" locus_tag="APK71_RS21195" class="clusterblast-orf" id="dummy-1_h1_7_4"  />
</g>
<g id="a1_005"  >
<polygon points="64,85 68,80 68,90 64,85 " style="fill:white; stroke-width:1; stroke:black; " description="&lt;b&gt;APK71_RS21200&lt;/b&gt;&lt;br&gt;hypothetical protein&lt;br&gt;Location: 274585 - 274848" locus_tag="APK71_RS21200" class="clusterblast-orf" id="dummy-1_h1_7_5"  />
</g>
<g id="a1_006"  >
<polygon points="70,90 78,90 83,85 78,80 70,80 70,90 " style="fill:white; stroke-width:1; stroke:black; " description="&lt;b&gt;APK71_RS21205&lt;/b&gt;&lt;br&gt;XRE family transcriptional regulator&lt;br&gt;Location: 274988 - 275869" locus_tag="APK71_RS21205" class="clusterblast-orf" id="dummy-1_h1_7_6"  />
</g>
<g id="a1_007"  >
<polygon points="86,85 91,80 104,80 104,90 91,90 86,85 " style="fill:white; stroke-width:1; stroke:black; " description="&lt;b&gt;APK71_RS21210&lt;/b&gt;&lt;br&gt;amino acid permease&lt;br&gt;Location: 276104 - 277369" locus_tag="APK71_RS21210" class="clusterblast-orf" id="dummy-1_h1_7_7"  />
</g>
<g id="a1_008"  >
<polygon points="108,90 111,85 108,80 108,90 " style="fill:white; stroke-width:1; stroke:black; " description="&lt;b&gt;APK71_RS21215&lt;/b&gt;&lt;br&gt;hypothetical protein&lt;br&gt;Location: 277589 - 277798" locus_tag="APK71_RS21215" class="clusterblast-orf" id="dummy-1_h1_7_8"  />
</g>
<g id="a1_009"  >
<polygon points="113,90 126,90 131,85 126,80 113,80 113,90 " style="fill:white; stroke-width:1; stroke:black; " description="&lt;b&gt;APK71_RS21220&lt;/b&gt;&lt;br&gt;threonine--tRNA ligase&lt;br&gt;Location: 277959 - 279200" locus_tag="APK71_RS21220" class="clusterblast-orf" id="dummy-1_h1_7_9"  />
</g>
<g id="a1_0010"  >
<polygon points="133,85 138,80 146,80 146,90 138,90 133,85 " style="fill:white; stroke-width:1; stroke:black; " description="&lt;b&gt;APK71_RS21225&lt;/b&gt;&lt;br&gt;GNAT family N-acetyltransferase&lt;br&gt;Location: 279313 - 280200" locus_tag="APK71_RS21225" class="clusterblast-orf" id="dummy-1_h1_7_10"  />
</g>
<g id="a1_0011"  >
<polygon points="147,85 152,80 161,80 161,90 152,90 147,85 " style="fill:white; stroke-width:1; stroke:black; " description="&lt;b&gt;APK71_RS21230&lt;/b&gt;&lt;br&gt;aldo/keto reductase&lt;br&gt;Location: 280278 - 281276" locus_tag="APK71_RS21230" class="clusterblast-orf" id="dummy-1_h1_7_11"  />
</g>
<g id="a1_0012"  >
<polygon points="162,85 167,80 168,80 168,90 167,90 162,85 " style="fill:white; stroke-width:1; stroke:black; " description="&lt;b&gt;APK71_RS21235&lt;/b&gt;&lt;br&gt;hypothetical protein&lt;br&gt;Location: 281306 - 281737" locus_tag="APK71_RS21235" class="clusterblast-orf" id="dummy-1_h1_7_12"  />
</g>
<g id="a1_0013"  >
<polygon points="171,85 176,80 183,80 183,90 176,90 171,85 " style="fill:white; stroke-width:1; stroke:black; " description="&lt;b&gt;APK71_RS21240&lt;/b&gt;&lt;br&gt;alpha/beta hydrolase&lt;br&gt;Location: 281957 - 282799" locus_tag="APK71_RS21240" class="clusterblast-orf" id="dummy-1_h1_7_13"  />
</g>
<g id="a1_0014"  >
<polygon points="183,85 188,80 192,80 192,90 188,90 183,85 " style="fill:white; stroke-width:1; stroke:black; " description="&lt;b&gt;APK71_RS21245&lt;/b&gt;&lt;br&gt;DNA-binding protein&lt;br&gt;Location: 282804 - 283421" locus_tag="APK71_RS21245" class="clusterblast-orf" id="dummy-1_h1_7_14"  />
</g>
<g id="a1_0015"  >
<polygon points="194,85 199,80 201,80 201,90 199,90 194,85 " style="fill:white; stroke-width:1; stroke:black; " description="&lt;b&gt;APK71_RS36560&lt;/b&gt;&lt;br&gt;hypothetical protein&lt;br&gt;Location: 283548 - 284021" locus_tag="APK71_RS36560" class="clusterblast-orf" id="dummy-1_h1_7_15"  />
</g>
<g id="a1_0016"  >
<polygon points="204,90 207,85 204,80 204,90 " style="fill:#15d87e; stroke-width:1; stroke:black; " description="&lt;b&gt;APK71_RS21250&lt;/b&gt;&lt;br&gt;ferredoxin&lt;br&gt;Location: 284237 - 284458&lt;br&gt;&lt;br&gt;&lt;b&gt;BlastP hit with ctg10_24&lt;/b&gt;&lt;br&gt;Percentage identity: 59&lt;br&gt;Percentage coverage: 94&lt;br&gt;BLAST bit score: 74&lt;br&gt;E-value: 5e-12" locus_tag="APK71_RS21250" class="clusterblast-orf" id="dummy-1_h1_7_16"  />
</g>
<g id="a1_0017"  >
<polygon points="210,90 228,90 233,85 228,80 210,80 210,90 " style="fill:#3315d8; stroke-width:1; stroke:black; " description="&lt;b&gt;APK71_RS21255&lt;/b&gt;&lt;br&gt;ABC transporter substrate-binding protein&lt;br&gt;Location: 284646 - 286232&lt;br&gt;&lt;br&gt;&lt;b&gt;BlastP hit with ctg10_25&lt;/b&gt;&lt;br&gt;Percentage identity: 59&lt;br&gt;Percentage coverage: 101&lt;br&gt;BLAST bit score: 576&lt;br&gt;E-value: 4.3e-162" locus_tag="APK71_RS21255" class="clusterblast-orf" id="dummy-1_h1_7_17"  />
</g>
<g id="a1_0018"  >
<polygon points="233,90 242,90 247,85 242,80 233,80 233,90 " style="fill:#d8156f; stroke-width:1; stroke:black; " description="&lt;b&gt;APK71_RS21260&lt;/b&gt;&lt;br&gt;ABC transporter permease&lt;br&gt;Location: 286229 - 287179&lt;br&gt;&lt;br&gt;&lt;b&gt;BlastP hit with ctg10_26&lt;/b&gt;&lt;br&gt;Percentage identity: 59&lt;br&gt;Percentage coverage: 97&lt;br&gt;BLAST bit score: 307&lt;br&gt;E-value: 1.3e-81" locus_tag="APK71_RS21260" class="clusterblast-orf" id="dummy-1_h1_7_18"  />
</g>
<g id="a1_0019"  >
<polygon points="247,90 255,90 260,85 255,80 247,80 247,90 " style="fill:#bad815; stroke-width:1; stroke:black; " description="&lt;b&gt;APK71_RS21265&lt;/b&gt;&lt;br&gt;transporter&lt;br&gt;Location: 287176 - 288036&lt;br&gt;&lt;br&gt;&lt;b&gt;BlastP hit with ctg10_27&lt;/b&gt;&lt;br&gt;Percentage identity: 48&lt;br&gt;Percentage coverage: 95&lt;br&gt;BLAST bit score: 213&lt;br&gt;E-value: 2.3e-53" locus_tag="APK71_RS21265" class="clusterblast-orf" id="dummy-1_h1_7_19"  />
</g>
<g id="a1_0020"  >
<polygon points="259,90 277,90 282,85 277,80 259,80 259,90 " style="fill:#15d8ab; stroke-width:1; stroke:black; " description="&lt;b&gt;APK71_RS21270&lt;/b&gt;&lt;br&gt;ABC transporter ATP-binding protein&lt;br&gt;Location: 288033 - 289616&lt;br&gt;&lt;br&gt;&lt;b&gt;BlastP hit with ctg10_28&lt;/b&gt;&lt;br&gt;Percentage identity: 50&lt;br&gt;Percentage coverage: 98&lt;br&gt;BLAST bit score: 389&lt;br&gt;E-value: 5.5e-106" locus_tag="APK71_RS21270" class="clusterblast-orf" id="dummy-1_h1_7_20"  />
</g>
<g id="a1_0021"  >
<polygon points="284,85 289,80 308,80 308,90 289,90 284,85 " style="fill:#d8c915; stroke-width:1; stroke:black; " description="&lt;b&gt;APK71_RS21275&lt;/b&gt;&lt;br&gt;2,3-dihydroxybenzoate-AMP ligase&lt;br&gt;Location: 289689 - 291353&lt;br&gt;&lt;br&gt;&lt;b&gt;BlastP hit with ctg10_23&lt;/b&gt;&lt;br&gt;Percentage identity: 61&lt;br&gt;Percentage coverage: 99&lt;br&gt;BLAST bit score: 658&lt;br&gt;E-value: 8.9e-187" locus_tag="APK71_RS21275" class="clusterblast-orf" id="dummy-1_h1_7_21"  />
</g>
<g id="a1_0022"  >
<polygon points="310,90 403,90 408,85 403,80 310,80 310,90 " style="fill:#d8159c; stroke-width:1; stroke:black; " description="&lt;b&gt;APK71_RS21280&lt;/b&gt;&lt;br&gt;non-ribosomal peptide synthetase&lt;br&gt;Location: 291536 - 298276&lt;br&gt;&lt;br&gt;&lt;b&gt;BlastP hit with ctg10_21&lt;/b&gt;&lt;br&gt;Percentage identity: 38&lt;br&gt;Percentage coverage: 57&lt;br&gt;BLAST bit score: 547&lt;br&gt;E-value: 7.4e-153&lt;br&gt;&lt;br&gt;&lt;b&gt;BlastP hit with ctg10_22&lt;/b&gt;&lt;br&gt;Percentage identity: 50&lt;br&gt;Percentage coverage: 102&lt;br&gt;BLAST bit score: 1932&lt;br&gt;E-value: 0.0" locus_tag="APK71_RS21280" class="clusterblast-orf" id="dummy-1_h1_7_22"  />
</g>
<g id="a1_0023"  >
<polygon points="408,90 484,90 489,85 484,80 408,80 408,90 " style="fill:#d8159c; stroke-width:1; stroke:black; " description="&lt;b&gt;APK71_RS21285&lt;/b&gt;&lt;br&gt;methyltransferase domain-containing protein&lt;br&gt;Location: 298273 - 303846&lt;br&gt;&lt;br&gt;&lt;b&gt;BlastP hit with ctg10_21&lt;/b&gt;&lt;br&gt;Percentage identity: 50&lt;br&gt;Percentage coverage: 104&lt;br&gt;BLAST bit score: 1640&lt;br&gt;E-value: 0.0&lt;br&gt;&lt;br&gt;&lt;b&gt;BlastP hit with ctg10_22&lt;/b&gt;&lt;br&gt;Percentage identity: 41&lt;br&gt;Percentage coverage: 41&lt;br&gt;BLAST bit score: 560&lt;br&gt;E-value: 7.8e-157" locus_tag="APK71_RS21285" class="clusterblast-orf" id="dummy-1_h1_7_23"  />
</g>
<g id="a1_0024"  >
<polygon points="489,90 501,90 506,85 501,80 489,80 489,90 " style="fill:#1524d8; stroke-width:1; stroke:black; " description="&lt;b&gt;APK71_RS21290&lt;/b&gt;&lt;br&gt;epimerase&lt;br&gt;Location: 303843 - 304994&lt;br&gt;&lt;br&gt;&lt;b&gt;BlastP hit with ctg10_20&lt;/b&gt;&lt;br&gt;Percentage identity: 52&lt;br&gt;Percentage coverage: 99&lt;br&gt;BLAST bit score: 290&lt;br&gt;E-value: 2e-76" locus_tag="APK71_RS21290" class="clusterblast-orf" id="dummy-1_h1_7_24"  />
</g>
<g id="a1_0025"  >
<polygon points="506,90 531,90 536,85 531,80 506,80 506,90 " style="fill:#d815c9; stroke-width:1; stroke:black; " description="&lt;b&gt;APK71_RS21295&lt;/b&gt;&lt;br&gt;methyltransferase domain-containing protein&lt;br&gt;Location: 304991 - 307069&lt;br&gt;&lt;br&gt;&lt;b&gt;BlastP hit with ctg10_16&lt;/b&gt;&lt;br&gt;Percentage identity: 46&lt;br&gt;Percentage coverage: 99&lt;br&gt;BLAST bit score: 189&lt;br&gt;E-value: 5.2e-46&lt;br&gt;&lt;br&gt;&lt;b&gt;BlastP hit with ctg10_19&lt;/b&gt;&lt;br&gt;Percentage identity: 54&lt;br&gt;Percentage coverage: 100&lt;br&gt;BLAST bit score: 613&lt;br&gt;E-value: 3e-173" locus_tag="APK71_RS21295" class="clusterblast-orf" id="dummy-1_h1_7_25"  />
</g>
<g id="a1_0026"  >
<polygon points="536,90 550,90 555,85 550,80 536,80 536,90 " style="fill:#15d851; stroke-width:1; stroke:black; " description="&lt;b&gt;APK71_RS21300&lt;/b&gt;&lt;br&gt;cytochrome P450&lt;br&gt;Location: 307066 - 308331&lt;br&gt;&lt;br&gt;&lt;b&gt;BlastP hit with ctg10_18&lt;/b&gt;&lt;br&gt;Percentage identity: 54&lt;br&gt;Percentage coverage: 100&lt;br&gt;BLAST bit score: 420&lt;br&gt;E-value: 2.4e-115" locus_tag="APK71_RS21300" class="clusterblast-orf" id="dummy-1_h1_7_26"  />
</g>
<g id="a1_0027"  >
<polygon points="555,90 562,90 567,85 562,80 555,80 555,90 " style="fill:#d89c15; stroke-width:1; stroke:black; " description="&lt;b&gt;APK71_RS21305&lt;/b&gt;&lt;br&gt;thioesterase&lt;br&gt;Location: 308352 - 309197&lt;br&gt;&lt;br&gt;&lt;b&gt;BlastP hit with ctg10_17&lt;/b&gt;&lt;br&gt;Percentage identity: 50&lt;br&gt;Percentage coverage: 98&lt;br&gt;BLAST bit score: 255&lt;br&gt;E-value: 8.4e-66" locus_tag="APK71_RS21305" class="clusterblast-orf" id="dummy-1_h1_7_27"  />
</g>
<g id="a1_0028"  >
<polygon points="569,90 574,90 579,85 574,80 569,80 569,90 " style="fill:#d815c9; stroke-width:1; stroke:black; " description="&lt;b&gt;APK71_RS21310&lt;/b&gt;&lt;br&gt;class I SAM-dependent methyltransferase&lt;br&gt;Location: 309296 - 310024&lt;br&gt;&lt;br&gt;&lt;b&gt;BlastP hit with ctg10_16&lt;/b&gt;&lt;br&gt;Percentage identity: 63&lt;br&gt;Percentage coverage: 98&lt;br&gt;BLAST bit score: 294&lt;br&gt;E-value: 8.8e-78&lt;br&gt;&lt;br&gt;&lt;b&gt;BlastP hit with ctg10_19&lt;/b&gt;&lt;br&gt;Percentage identity: 49&lt;br&gt;Percentage coverage: 36&lt;br&gt;BLAST bit score: 236&lt;br&gt;E-value: 1e-59" locus_tag="APK71_RS21310" class="clusterblast-orf" id="dummy-1_h1_7_28"  />
</g>
<g id="a1_0029"  >
<polygon points="579,90 602,90 607,85 602,80 579,80 579,90 " style="fill:white; stroke-width:1; stroke:black; " description="&lt;b&gt;APK71_RS21315&lt;/b&gt;&lt;br&gt;ABC transporter ATP-binding protein&lt;br&gt;Location: 310021 - 311907" locus_tag="APK71_RS21315" class="clusterblast-orf" id="dummy-1_h1_7_29"  />
</g>
<g id="a1_0030"  >
<polygon points="607,90 627,90 632,85 627,80 607,80 607,90 " style="fill:white; stroke-width:1; stroke:black; " description="&lt;b&gt;APK71_RS21320&lt;/b&gt;&lt;br&gt;ABC transporter ATP-binding protein&lt;br&gt;Location: 311904 - 313661" locus_tag="APK71_RS21320" class="clusterblast-orf" id="dummy-1_h1_7_30"  />
</g>
<g id="a1_0031"  >
<polygon points="633,90 649,90 654,85 649,80 633,80 633,90 " style="fill:#6015d8; stroke-width:1; stroke:black; " description="&lt;b&gt;APK71_RS21325&lt;/b&gt;&lt;br&gt;salicylate synthase&lt;br&gt;Location: 313726 - 315132&lt;br&gt;&lt;br&gt;&lt;b&gt;BlastP hit with ctg10_29&lt;/b&gt;&lt;br&gt;Percentage identity: 48&lt;br&gt;Percentage coverage: 97&lt;br&gt;BLAST bit score: 321&lt;br&gt;E-value: 1.6e-85" locus_tag="APK71_RS21325" class="clusterblast-orf" id="dummy-1_h1_7_31"  />
</g>
<g id="a1_0032"  >
<polygon points="658,90 658,90 663,85 658,80 658,80 658,90 " style="fill:white; stroke-width:1; stroke:black; " description="&lt;b&gt;APK71_RS21330&lt;/b&gt;&lt;br&gt;hypothetical protein&lt;br&gt;Location: 315457 - 315768" locus_tag="APK71_RS21330" class="clusterblast-orf" id="dummy-1_h1_7_32"  />
</g>
<g id="a1_0033"  >
<polygon points="666,85 671,80 683,80 683,90 671,90 666,85 " style="fill:#1551d8; stroke-width:1; stroke:black; " description="&lt;b&gt;APK71_RS21335&lt;/b&gt;&lt;br&gt;GTP-binding protein&lt;br&gt;Location: 315993 - 317180&lt;br&gt;&lt;br&gt;&lt;b&gt;BlastP hit with ctg10_15&lt;/b&gt;&lt;br&gt;Percentage identity: 71&lt;br&gt;Percentage coverage: 97&lt;br&gt;BLAST bit score: 535&lt;br&gt;E-value: 5e-150" locus_tag="APK71_RS21335" class="clusterblast-orf" id="dummy-1_h1_7_33"  />
</g>
<g id="a1_0034"  >
<polygon points="683,85 686,80 686,90 683,85 " style="fill:white; stroke-width:1; stroke:black; " description="&lt;b&gt;APK71_RS21340&lt;/b&gt;&lt;br&gt;50S ribosomal protein L32&lt;br&gt;Location: 317188 - 317358" locus_tag="APK71_RS21340" class="clusterblast-orf" id="dummy-1_h1_7_34"  />
</g>
<g id="a1_0035"  >
<polygon points="687,85 692,80 696,80 696,90 692,90 687,85 " style="fill:white; stroke-width:1; stroke:black; " description="&lt;b&gt;APK71_RS21345&lt;/b&gt;&lt;br&gt;hypothetical protein&lt;br&gt;Location: 317416 - 318039" locus_tag="APK71_RS21345" class="clusterblast-orf" id="dummy-1_h1_7_35"  />
</g>
<g id="a1_0036"  >
<polygon points="705,85 708,80 708,90 705,85 " style="fill:white; stroke-width:1; stroke:black; " description="&lt;b&gt;APK71_RS21350&lt;/b&gt;&lt;br&gt;DUF5133 domain-containing protein&lt;br&gt;Location: 318649 - 318891" locus_tag="APK71_RS21350" class="clusterblast-orf" id="dummy-1_h1_7_36"  />
</g>
<g id="a1_0037"  >
<polygon points="711,85 716,80 716,80 716,90 716,90 711,85 " style="fill:white; stroke-width:1; stroke:black; " description="&lt;b&gt;APK71_RS21355&lt;/b&gt;&lt;br&gt;anti-sigma factor antagonist&lt;br&gt;Location: 319073 - 319456" locus_tag="APK71_RS21355" class="clusterblast-orf" id="dummy-1_h1_7_37"  />
</g>
<g id="a1_0038"  >
<polygon points="720,90 720,90 725,85 720,80 720,80 720,90 " style="fill:white; stroke-width:1; stroke:black; " description="&lt;b&gt;APK71_RS21360&lt;/b&gt;&lt;br&gt;ArsR family transcriptional regulator&lt;br&gt;Location: 319699 - 320064" locus_tag="APK71_RS21360" class="clusterblast-orf" id="dummy-1_h1_7_38"  />
</g>
<g id="a1_0039"  >
<polygon points="726,85 731,80 734,80 734,90 731,90 726,85 " style="fill:white; stroke-width:1; stroke:black; " description="&lt;b&gt;APK71_RS21365&lt;/b&gt;&lt;br&gt;hypothetical protein&lt;br&gt;Location: 320095 - 320637" locus_tag="APK71_RS21365" class="clusterblast-orf" id="dummy-1_h1_7_39"  />
</g>
<g id="a1_0040"  >
<polygon points="737,85 742,80 748,80 748,90 742,90 737,85 " style="fill:#60d815; stroke-width:1; stroke:black; " description="&lt;b&gt;APK71_RS21375&lt;/b&gt;&lt;br&gt;ABC transporter ATP-binding protein&lt;br&gt;Location: 320862 - 321662&lt;br&gt;&lt;br&gt;&lt;b&gt;BlastP hit with ctg10_4&lt;/b&gt;&lt;br&gt;Percentage identity: 51&lt;br&gt;Percentage coverage: 99&lt;br&gt;BLAST bit score: 245&lt;br&gt;E-value: 6.4e-63&lt;br&gt;&lt;br&gt;&lt;b&gt;BlastP hit with ctg10_10&lt;/b&gt;&lt;br&gt;Percentage identity: 36&lt;br&gt;Percentage coverage: 96&lt;br&gt;BLAST bit score: 94&lt;br&gt;E-value: 1.8e-17" locus_tag="APK71_RS21375" class="clusterblast-orf" id="dummy-1_h1_7_40"  />
</g>
<g id="a1_0041"  >
<polygon points="748,85 753,80 765,80 765,90 753,90 748,85 " style="fill:#15abd8; stroke-width:1; stroke:black; " description="&lt;b&gt;APK71_RS21380&lt;/b&gt;&lt;br&gt;ABC transporter permease&lt;br&gt;Location: 321659 - 322774&lt;br&gt;&lt;br&gt;&lt;b&gt;BlastP hit with ctg10_5&lt;/b&gt;&lt;br&gt;Percentage identity: 45&lt;br&gt;Percentage coverage: 95&lt;br&gt;BLAST bit score: 247&lt;br&gt;E-value: 2.3e-63" locus_tag="APK71_RS21380" class="clusterblast-orf" id="dummy-1_h1_7_41"  />
</g>
<g id="a1_0042"  >
<polygon points="765,85 770,80 780,80 780,90 770,90 765,85 " style="fill:white; stroke-width:1; stroke:black; " description="&lt;b&gt;APK71_RS21385&lt;/b&gt;&lt;br&gt;hypothetical protein&lt;br&gt;Location: 322771 - 323796" locus_tag="APK71_RS21385" class="clusterblast-orf" id="dummy-1_h1_7_42"  />
</g>
</svg>
