<svg xmlns="http://www.w3.org/2000/svg" xmlns:xlink="http://www.w3.org/1999/xlink" version="1.1" x="0" y="0" height="230" width="800" viewBox="0 0 800 230" preserveAspectRatio="none"  >
<g label="Query sequence" class="clusterblast-cluster"  >
<text x="5" y="20" class="clusterblast-acc"  >
Query sequence</text>
<line x1="10" y1="35" x2="778.0" y2="35" style="stroke-width:1; stroke:grey; "  />
<polygon points="368,35 373,30 393,30 393,40 373,40 368,35 " style="fill:#d81515; stroke-width:1; stroke:black; " description="&lt;b&gt;ctg309_1&lt;/b&gt;&lt;br&gt;ctg309 1&lt;br&gt;Location: 2 - 3704" locus_tag="ctg309_1" class="clusterblast-orf" id="dummy-1_q0_0_all"  />
<polygon points="396,40 399,40 404,35 399,30 396,30 396,40 " style="fill:#15d815; stroke-width:1; stroke:black; " description="&lt;b&gt;ctg309_2&lt;/b&gt;&lt;br&gt;ctg309 2&lt;br&gt;Location: 4148 - 5282" locus_tag="ctg309_2" class="clusterblast-orf" id="dummy-1_q1_0_all"  />
<polygon points="404,40 406,40 411,35 406,30 404,30 404,40 " style="fill:#1515d8; stroke-width:1; stroke:black; " description="&lt;b&gt;ctg309_3&lt;/b&gt;&lt;br&gt;ctg309 3&lt;br&gt;Location: 5278 - 6355" locus_tag="ctg309_3" class="clusterblast-orf" id="dummy-1_q2_0_all"  />
</g>
<g label="NC_021177" description="NC_021177_c6: Streptomyces fulvissimus DSM 40593, complete genome (5% of genes show similarity), nrps-transatpks-t1pks-otherks" class="clusterblast-cluster"  >
<text x="5" y="70" class="clusterblast-acc"  >
<a xlink:href="https://antismash-db.secondarymetabolites.org/go/NC_021177/6" target="_blank">NC_021177_c6</a>: Streptomyces fulvissimus DSM 40593, complete genome (5% of genes show similarity), nrps-transatpks-t1pks-otherks</text>
<line x1="10" y1="85" x2="778.0" y2="85" style="stroke-width:1; stroke:grey; "  />
</g>
<g id="a1_000"  >
<polygon points="0,85 5,80 7,80 7,90 5,90 0,85 " style="fill:white; stroke-width:1; stroke:black; " description="&lt;b&gt;SFUL_RS01665&lt;/b&gt;&lt;br&gt;2-nitropropane dioxygenase NPD&lt;br&gt;Location: 363078 - 364187" locus_tag="SFUL_RS01665" class="clusterblast-orf" id="dummy-1_h1_9_0"  />
</g>
<g id="a1_001"  >
<polygon points="9,90 16,90 21,85 16,80 9,80 9,90 " style="fill:white; stroke-width:1; stroke:black; " description="&lt;b&gt;SFUL_RS01670&lt;/b&gt;&lt;br&gt;serine hydrolase&lt;br&gt;Location: 364449 - 366314" locus_tag="SFUL_RS01670" class="clusterblast-orf" id="dummy-1_h1_9_1"  />
</g>
<g id="a1_002"  >
<polygon points="23,90 26,90 31,85 26,80 23,80 23,90 " style="fill:white; stroke-width:1; stroke:black; " description="&lt;b&gt;SFUL_RS01675&lt;/b&gt;&lt;br&gt;SGNH/GDSL hydrolase family protein&lt;br&gt;Location: 366548 - 367714" locus_tag="SFUL_RS01675" class="clusterblast-orf" id="dummy-1_h1_9_2"  />
</g>
<g id="a1_003"  >
<polygon points="31,85 36,80 41,80 41,90 36,90 31,85 " style="fill:white; stroke-width:1; stroke:black; " description="&lt;b&gt;SFUL_RS01680&lt;/b&gt;&lt;br&gt;NAD(P)/FAD-dependent oxidoreductase&lt;br&gt;Location: 367718 - 369310" locus_tag="SFUL_RS01680" class="clusterblast-orf" id="dummy-1_h1_9_3"  />
</g>
<g id="a1_004"  >
<polygon points="42,85 47,80 58,80 58,90 47,90 42,85 " style="fill:white; stroke-width:1; stroke:black; " description="&lt;b&gt;SFUL_RS01685&lt;/b&gt;&lt;br&gt;serine/threonine protein kinase&lt;br&gt;Location: 369386 - 371740" locus_tag="SFUL_RS01685" class="clusterblast-orf" id="dummy-1_h1_9_4"  />
</g>
<g id="a1_005"  >
<polygon points="58,85 63,80 64,80 64,90 63,90 58,85 " style="fill:white; stroke-width:1; stroke:black; " description="&lt;b&gt;SFUL_RS01690&lt;/b&gt;&lt;br&gt;DUF2236 domain-containing protein&lt;br&gt;Location: 371772 - 372659" locus_tag="SFUL_RS01690" class="clusterblast-orf" id="dummy-1_h1_9_5"  />
</g>
<g id="a1_006"  >
<polygon points="65,90 68,85 65,80 65,90 " style="fill:white; stroke-width:1; stroke:black; " description="&lt;b&gt;SFUL_RS01695&lt;/b&gt;&lt;br&gt;hypothetical protein&lt;br&gt;Location: 372863 - 373297" locus_tag="SFUL_RS01695" class="clusterblast-orf" id="dummy-1_h1_9_6"  />
</g>
<g id="a1_007"  >
<polygon points="69,85 74,80 75,80 75,90 74,90 69,85 " style="fill:white; stroke-width:1; stroke:black; " description="&lt;b&gt;SFUL_RS01700&lt;/b&gt;&lt;br&gt;short chain dehydrogenase&lt;br&gt;Location: 373320 - 374246" locus_tag="SFUL_RS01700" class="clusterblast-orf" id="dummy-1_h1_9_7"  />
</g>
<g id="a1_008"  >
<polygon points="76,90 80,85 76,80 76,90 " style="fill:white; stroke-width:1; stroke:black; " description="&lt;b&gt;SFUL_RS01705&lt;/b&gt;&lt;br&gt;TetR family transcriptional regulator&lt;br&gt;Location: 374366 - 375043" locus_tag="SFUL_RS01705" class="clusterblast-orf" id="dummy-1_h1_9_8"  />
</g>
<g id="a1_009"  >
<polygon points="81,85 86,80 97,80 97,90 86,90 81,85 " style="fill:white; stroke-width:1; stroke:black; " description="&lt;b&gt;SFUL_RS01710&lt;/b&gt;&lt;br&gt;excinuclease ABC subunit UvrA&lt;br&gt;Location: 375179 - 377572" locus_tag="SFUL_RS01710" class="clusterblast-orf" id="dummy-1_h1_9_9"  />
</g>
<g id="a1_0010"  >
<polygon points="98,85 101,80 101,90 98,85 " style="fill:white; stroke-width:1; stroke:black; " description="&lt;b&gt;SFUL_RS01715&lt;/b&gt;&lt;br&gt;VOC family protein&lt;br&gt;Location: 377712 - 378128" locus_tag="SFUL_RS01715" class="clusterblast-orf" id="dummy-1_h1_9_10"  />
</g>
<g id="a1_0011"  >
<polygon points="101,85 104,80 104,90 101,85 " style="fill:white; stroke-width:1; stroke:black; " description="&lt;b&gt;SFUL_RS01720&lt;/b&gt;&lt;br&gt;AraC family transcriptional regulator&lt;br&gt;Location: 378134 - 378559" locus_tag="SFUL_RS01720" class="clusterblast-orf" id="dummy-1_h1_9_11"  />
</g>
<g id="a1_0012"  >
<polygon points="104,85 109,80 117,80 117,90 109,90 104,85 " style="fill:white; stroke-width:1; stroke:black; " description="&lt;b&gt;SFUL_RS01725&lt;/b&gt;&lt;br&gt;hypothetical protein&lt;br&gt;Location: 378593 - 380485" locus_tag="SFUL_RS01725" class="clusterblast-orf" id="dummy-1_h1_9_12"  />
</g>
<g id="a1_0013"  >
<polygon points="124,85 129,80 132,80 132,90 129,90 124,85 " style="fill:white; stroke-width:1; stroke:black; " description="&lt;b&gt;SFUL_RS01730&lt;/b&gt;&lt;br&gt;[acyl-carrier-protein] S-malonyltransferase&lt;br&gt;Location: 381554 - 382798" locus_tag="SFUL_RS01730" class="clusterblast-orf" id="dummy-1_h1_9_13"  />
</g>
<g id="a1_0014"  >
<polygon points="132,85 137,80 140,80 140,90 137,90 132,85 " style="fill:white; stroke-width:1; stroke:black; " description="&lt;b&gt;SFUL_RS01735&lt;/b&gt;&lt;br&gt;3-oxoacyl-ACP synthase III&lt;br&gt;Location: 382798 - 383862" locus_tag="SFUL_RS01735" class="clusterblast-orf" id="dummy-1_h1_9_14"  />
</g>
<g id="a1_0015"  >
<polygon points="140,85 145,80 196,80 196,90 145,90 140,85 " style="fill:white; stroke-width:1; stroke:black; " description="&lt;b&gt;SFUL_RS01740&lt;/b&gt;&lt;br&gt;KR domain-containing protein&lt;br&gt;Location: 383859 - 392249" locus_tag="SFUL_RS01740" class="clusterblast-orf" id="dummy-1_h1_9_15"  />
</g>
<g id="a1_0016"  >
<polygon points="196,85 201,80 226,80 226,90 201,90 196,85 " style="fill:white; stroke-width:1; stroke:black; " description="&lt;b&gt;SFUL_RS01745&lt;/b&gt;&lt;br&gt;methyltransferase domain-containing protein&lt;br&gt;Location: 392242 - 396681" locus_tag="SFUL_RS01745" class="clusterblast-orf" id="dummy-1_h1_9_16"  />
</g>
<g id="a1_0017"  >
<polygon points="226,85 231,80 298,80 298,90 231,90 226,85 " style="fill:#d81515; stroke-width:1; stroke:black; " description="&lt;b&gt;SFUL_RS01750&lt;/b&gt;&lt;br&gt;non-ribosomal peptide synthase&lt;br&gt;Location: 396706 - 407427&lt;br&gt;&lt;br&gt;&lt;b&gt;BlastP hit with ctg309_1&lt;/b&gt;&lt;br&gt;Percentage identity: 40&lt;br&gt;Percentage coverage: 54&lt;br&gt;BLAST bit score: 326&lt;br&gt;E-value: 1.4e-86" locus_tag="SFUL_RS01750" class="clusterblast-orf" id="dummy-1_h1_9_17"  />
</g>
<g id="a1_0018"  >
<polygon points="299,85 304,80 307,80 307,90 304,90 299,85 " style="fill:white; stroke-width:1; stroke:black; " description="&lt;b&gt;SFUL_RS01755&lt;/b&gt;&lt;br&gt;acyl-CoA dehydrogenase&lt;br&gt;Location: 407548 - 408726" locus_tag="SFUL_RS01755" class="clusterblast-orf" id="dummy-1_h1_9_18"  />
</g>
<g id="a1_0019"  >
<polygon points="308,85 313,80 316,80 316,90 313,90 308,85 " style="fill:white; stroke-width:1; stroke:black; " description="&lt;b&gt;SFUL_RS01760&lt;/b&gt;&lt;br&gt;methyltransferase domain-containing protein&lt;br&gt;Location: 408829 - 409983" locus_tag="SFUL_RS01760" class="clusterblast-orf" id="dummy-1_h1_9_19"  />
</g>
<g id="a1_0020"  >
<polygon points="316,85 318,80 318,90 316,85 " style="fill:white; stroke-width:1; stroke:black; " description="&lt;b&gt;SFUL_RS01765&lt;/b&gt;&lt;br&gt;hypothetical protein&lt;br&gt;Location: 410123 - 410335" locus_tag="SFUL_RS01765" class="clusterblast-orf" id="dummy-1_h1_9_20"  />
</g>
<g id="a1_0021"  >
<polygon points="319,90 323,85 319,80 319,90 " style="fill:white; stroke-width:1; stroke:black; " description="&lt;b&gt;SFUL_RS01770&lt;/b&gt;&lt;br&gt;glycoside hydrolase family 25&lt;br&gt;Location: 410501 - 411055" locus_tag="SFUL_RS01770" class="clusterblast-orf" id="dummy-1_h1_9_21"  />
</g>
<g id="a1_0022"  >
<polygon points="324,90 325,90 330,85 325,80 324,80 324,90 " style="fill:white; stroke-width:1; stroke:black; " description="&lt;b&gt;SFUL_RS01775&lt;/b&gt;&lt;br&gt;endonuclease I&lt;br&gt;Location: 411274 - 412092" locus_tag="SFUL_RS01775" class="clusterblast-orf" id="dummy-1_h1_9_22"  />
</g>
<g id="a1_0023"  >
<polygon points="330,85 335,80 339,80 339,90 335,90 330,85 " style="fill:white; stroke-width:1; stroke:black; " description="&lt;b&gt;SFUL_RS01780&lt;/b&gt;&lt;br&gt;glutaminase A&lt;br&gt;Location: 412106 - 413458" locus_tag="SFUL_RS01780" class="clusterblast-orf" id="dummy-1_h1_9_23"  />
</g>
<g id="a1_0024"  >
<polygon points="340,85 343,80 343,90 340,85 " style="fill:white; stroke-width:1; stroke:black; " description="&lt;b&gt;SFUL_RS01785&lt;/b&gt;&lt;br&gt;DUF1269 domain-containing protein&lt;br&gt;Location: 413580 - 414077" locus_tag="SFUL_RS01785" class="clusterblast-orf" id="dummy-1_h1_9_24"  />
</g>
<g id="a1_0025"  >
<polygon points="344,90 347,90 352,85 347,80 344,80 344,90 " style="fill:white; stroke-width:1; stroke:black; " description="&lt;b&gt;SFUL_RS01790&lt;/b&gt;&lt;br&gt;methyl-accepting chemotaxis protein&lt;br&gt;Location: 414211 - 415326" locus_tag="SFUL_RS01790" class="clusterblast-orf" id="dummy-1_h1_9_25"  />
</g>
<g id="a1_0026"  >
<polygon points="352,85 357,80 358,80 358,90 357,90 352,85 " style="fill:white; stroke-width:1; stroke:black; " description="&lt;b&gt;SFUL_RS01795&lt;/b&gt;&lt;br&gt;D-2-hydroxyacid dehydrogenase family protein&lt;br&gt;Location: 415379 - 416338" locus_tag="SFUL_RS01795" class="clusterblast-orf" id="dummy-1_h1_9_26"  />
</g>
<g id="a1_0027"  >
<polygon points="359,85 364,80 375,80 375,90 364,90 359,85 " style="fill:white; stroke-width:1; stroke:black; " description="&lt;b&gt;SFUL_RS01800&lt;/b&gt;&lt;br&gt;phosphoketolase family protein&lt;br&gt;Location: 416398 - 418776" locus_tag="SFUL_RS01800" class="clusterblast-orf" id="dummy-1_h1_9_27"  />
</g>
<g id="a1_0028"  >
<polygon points="375,85 380,80 385,80 385,90 380,90 375,85 " style="fill:white; stroke-width:1; stroke:black; " description="&lt;b&gt;SFUL_RS01805&lt;/b&gt;&lt;br&gt;NADP-dependent succinic semialdehyde dehydrogenase&lt;br&gt;Location: 418829 - 420241" locus_tag="SFUL_RS01805" class="clusterblast-orf" id="dummy-1_h1_9_28"  />
</g>
<g id="a1_0029"  >
<polygon points="386,85 389,80 389,90 386,85 " style="fill:white; stroke-width:1; stroke:black; " description="&lt;b&gt;SFUL_RS01810&lt;/b&gt;&lt;br&gt;regulatory protein&lt;br&gt;Location: 420393 - 420851" locus_tag="SFUL_RS01810" class="clusterblast-orf" id="dummy-1_h1_9_29"  />
</g>
<g id="a1_0030"  >
<polygon points="390,85 395,80 404,80 404,90 395,90 390,85 " style="fill:white; stroke-width:1; stroke:black; " description="&lt;b&gt;SFUL_RS01815&lt;/b&gt;&lt;br&gt;xanthine dehydrogenase family protein molybdopterin-binding subunit&lt;br&gt;Location: 421031 - 423127" locus_tag="SFUL_RS01815" class="clusterblast-orf" id="dummy-1_h1_9_30"  />
</g>
<g id="a1_0031"  >
<polygon points="404,85 409,80 411,80 411,90 409,90 404,85 " style="fill:white; stroke-width:1; stroke:black; " description="&lt;b&gt;SFUL_RS01820&lt;/b&gt;&lt;br&gt;xanthine dehydrogenase family protein subunit M&lt;br&gt;Location: 423184 - 424194" locus_tag="SFUL_RS01820" class="clusterblast-orf" id="dummy-1_h1_9_31"  />
</g>
<g id="a1_0032"  >
<polygon points="411,85 415,80 415,90 411,85 " style="fill:white; stroke-width:1; stroke:black; " description="&lt;b&gt;SFUL_RS01825&lt;/b&gt;&lt;br&gt;(2Fe-2S)-binding protein&lt;br&gt;Location: 424191 - 424754" locus_tag="SFUL_RS01825" class="clusterblast-orf" id="dummy-1_h1_9_32"  />
</g>
<g id="a1_0033"  >
<polygon points="415,85 418,80 418,90 415,85 " style="fill:white; stroke-width:1; stroke:black; " description="&lt;b&gt;SFUL_RS01830&lt;/b&gt;&lt;br&gt;hypothetical protein&lt;br&gt;Location: 424802 - 425191" locus_tag="SFUL_RS01830" class="clusterblast-orf" id="dummy-1_h1_9_33"  />
</g>
<g id="a1_0034"  >
<polygon points="419,85 424,80 425,80 425,90 424,90 419,85 " style="fill:white; stroke-width:1; stroke:black; " description="&lt;b&gt;SFUL_RS01835&lt;/b&gt;&lt;br&gt;TIGR03557 family F420-dependent LLM class oxidoreductase&lt;br&gt;Location: 425281 - 426246" locus_tag="SFUL_RS01835" class="clusterblast-orf" id="dummy-1_h1_9_34"  />
</g>
<g id="a1_0035"  >
<polygon points="426,90 428,85 426,80 426,90 " style="fill:white; stroke-width:1; stroke:black; " description="&lt;b&gt;SFUL_RS01840&lt;/b&gt;&lt;br&gt;hypothetical protein&lt;br&gt;Location: 426335 - 426670" locus_tag="SFUL_RS01840" class="clusterblast-orf" id="dummy-1_h1_9_35"  />
</g>
<g id="a1_0036"  >
<polygon points="428,90 430,90 435,85 430,80 428,80 428,90 " style="fill:white; stroke-width:1; stroke:black; " description="&lt;b&gt;SFUL_RS01845&lt;/b&gt;&lt;br&gt;membrane protein&lt;br&gt;Location: 426726 - 427640" locus_tag="SFUL_RS01845" class="clusterblast-orf" id="dummy-1_h1_9_36"  />
</g>
<g id="a1_0037"  >
<polygon points="435,90 436,90 441,85 436,80 435,80 435,90 " style="fill:white; stroke-width:1; stroke:black; " description="&lt;b&gt;SFUL_RS01850&lt;/b&gt;&lt;br&gt;glyoxalase/bleomycin resistance protein/dioxygenase&lt;br&gt;Location: 427740 - 428564" locus_tag="SFUL_RS01850" class="clusterblast-orf" id="dummy-1_h1_9_37"  />
</g>
<g id="a1_0038"  >
<polygon points="441,85 444,80 444,90 441,85 " style="fill:white; stroke-width:1; stroke:black; " description="&lt;b&gt;SFUL_RS01855&lt;/b&gt;&lt;br&gt;hypothetical protein&lt;br&gt;Location: 428570 - 429103" locus_tag="SFUL_RS01855" class="clusterblast-orf" id="dummy-1_h1_9_38"  />
</g>
<g id="a1_0039"  >
<polygon points="446,90 448,85 446,80 446,90 " style="fill:white; stroke-width:1; stroke:black; " description="&lt;b&gt;SFUL_RS01860&lt;/b&gt;&lt;br&gt;VOC family protein&lt;br&gt;Location: 429331 - 429711" locus_tag="SFUL_RS01860" class="clusterblast-orf" id="dummy-1_h1_9_39"  />
</g>
<g id="a1_0040"  >
<polygon points="449,85 452,80 452,90 449,85 " style="fill:white; stroke-width:1; stroke:black; " description="&lt;b&gt;SFUL_RS01865&lt;/b&gt;&lt;br&gt;GNAT family N-acetyltransferase&lt;br&gt;Location: 429721 - 430215" locus_tag="SFUL_RS01865" class="clusterblast-orf" id="dummy-1_h1_9_40"  />
</g>
<g id="a1_0041"  >
<polygon points="453,90 457,85 453,80 453,90 " style="fill:white; stroke-width:1; stroke:black; " description="&lt;b&gt;SFUL_RS01870&lt;/b&gt;&lt;br&gt;hypothetical protein&lt;br&gt;Location: 430417 - 430998" locus_tag="SFUL_RS01870" class="clusterblast-orf" id="dummy-1_h1_9_41"  />
</g>
<g id="a1_0042"  >
<polygon points="457,90 461,85 457,80 457,90 " style="fill:white; stroke-width:1; stroke:black; " description="&lt;b&gt;SFUL_RS01875&lt;/b&gt;&lt;br&gt;hypothetical protein&lt;br&gt;Location: 430995 - 431597" locus_tag="SFUL_RS01875" class="clusterblast-orf" id="dummy-1_h1_9_42"  />
</g>
<g id="a1_0043"  >
<polygon points="462,85 463,80 463,90 462,85 " style="fill:white; stroke-width:1; stroke:black; " description="&lt;b&gt;SFUL_RS01880&lt;/b&gt;&lt;br&gt;hypothetical protein&lt;br&gt;Location: 431696 - 431920" locus_tag="SFUL_RS01880" class="clusterblast-orf" id="dummy-1_h1_9_43"  />
</g>
<g id="a1_0044"  >
<polygon points="464,85 469,80 469,80 469,90 469,90 464,85 " style="fill:white; stroke-width:1; stroke:black; " description="&lt;b&gt;SFUL_RS01885&lt;/b&gt;&lt;br&gt;protein-tyrosine-phosphatase&lt;br&gt;Location: 431962 - 432759" locus_tag="SFUL_RS01885" class="clusterblast-orf" id="dummy-1_h1_9_44"  />
</g>
<g id="a1_0045"  >
<polygon points="470,85 473,80 473,90 470,85 " style="fill:white; stroke-width:1; stroke:black; " description="&lt;b&gt;SFUL_RS01890&lt;/b&gt;&lt;br&gt;SHOCT domain-containing protein&lt;br&gt;Location: 432836 - 433369" locus_tag="SFUL_RS01890" class="clusterblast-orf" id="dummy-1_h1_9_45"  />
</g>
<g id="a1_0046"  >
<polygon points="475,90 483,90 488,85 483,80 475,80 475,90 " style="fill:white; stroke-width:1; stroke:black; " description="&lt;b&gt;SFUL_RS01895&lt;/b&gt;&lt;br&gt;methylmalonyl-CoA mutase&lt;br&gt;Location: 433661 - 435523" locus_tag="SFUL_RS01895" class="clusterblast-orf" id="dummy-1_h1_9_46"  />
</g>
<g id="a1_0047"  >
<polygon points="488,90 498,90 503,85 498,80 488,80 488,90 " style="fill:white; stroke-width:1; stroke:black; " description="&lt;b&gt;SFUL_RS01900&lt;/b&gt;&lt;br&gt;methylmalonyl-CoA mutase&lt;br&gt;Location: 435523 - 437760" locus_tag="SFUL_RS01900" class="clusterblast-orf" id="dummy-1_h1_9_47"  />
</g>
<g id="a1_0048"  >
<polygon points="503,90 505,90 510,85 505,80 503,80 503,90 " style="fill:white; stroke-width:1; stroke:black; " description="&lt;b&gt;SFUL_RS01905&lt;/b&gt;&lt;br&gt;methylmalonyl Co-A mutase-associated GTPase MeaB&lt;br&gt;Location: 437773 - 438777" locus_tag="SFUL_RS01905" class="clusterblast-orf" id="dummy-1_h1_9_48"  />
</g>
<g id="a1_0049"  >
<polygon points="510,85 515,80 515,80 515,90 515,90 510,85 " style="fill:white; stroke-width:1; stroke:black; " description="&lt;b&gt;SFUL_RS01910&lt;/b&gt;&lt;br&gt;ABC transporter ATP-binding protein&lt;br&gt;Location: 438868 - 439659" locus_tag="SFUL_RS01910" class="clusterblast-orf" id="dummy-1_h1_9_49"  />
</g>
<g id="a1_0050"  >
<polygon points="517,90 518,90 523,85 518,80 517,80 517,90 " style="fill:white; stroke-width:1; stroke:black; " description="&lt;b&gt;SFUL_RS01915&lt;/b&gt;&lt;br&gt;ABC transporter substrate-binding protein&lt;br&gt;Location: 439809 - 440822" locus_tag="SFUL_RS01915" class="clusterblast-orf" id="dummy-1_h1_9_50"  />
</g>
<g id="a1_0051"  >
<polygon points="524,85 529,80 532,80 532,90 529,90 524,85 " style="fill:white; stroke-width:1; stroke:black; " description="&lt;b&gt;SFUL_RS01920&lt;/b&gt;&lt;br&gt;M20 family peptidase&lt;br&gt;Location: 440908 - 442095" locus_tag="SFUL_RS01920" class="clusterblast-orf" id="dummy-1_h1_9_51"  />
</g>
<g id="a1_0052"  >
<polygon points="533,90 577,90 582,85 577,80 533,80 533,90 " style="fill:white; stroke-width:1; stroke:black; " description="&lt;b&gt;SFUL_RS01925&lt;/b&gt;&lt;br&gt;non-ribosomal peptide synthetase&lt;br&gt;Location: 442235 - 449599" locus_tag="SFUL_RS01925" class="clusterblast-orf" id="dummy-1_h1_9_52"  />
</g>
<g id="a1_0053"  >
<polygon points="583,90 584,85 583,80 583,90 " style="fill:white; stroke-width:1; stroke:black; " description="&lt;b&gt;SFUL_RS01930&lt;/b&gt;&lt;br&gt;MbtH family protein&lt;br&gt;Location: 449605 - 449808" locus_tag="SFUL_RS01930" class="clusterblast-orf" id="dummy-1_h1_9_53"  />
</g>
<g id="a1_0054"  >
<polygon points="584,90 589,90 594,85 589,80 584,80 584,90 " style="fill:white; stroke-width:1; stroke:black; " description="&lt;b&gt;SFUL_RS01935&lt;/b&gt;&lt;br&gt;MFS transporter&lt;br&gt;Location: 449805 - 451268" locus_tag="SFUL_RS01935" class="clusterblast-orf" id="dummy-1_h1_9_54"  />
</g>
<g id="a1_0055"  >
<polygon points="594,85 599,80 603,80 603,90 599,90 594,85 " style="fill:white; stroke-width:1; stroke:black; " description="&lt;b&gt;SFUL_RS01940&lt;/b&gt;&lt;br&gt;enterochelin esterase&lt;br&gt;Location: 451354 - 452634" locus_tag="SFUL_RS01940" class="clusterblast-orf" id="dummy-1_h1_9_55"  />
</g>
<g id="a1_0056"  >
<polygon points="603,85 608,80 618,80 618,90 608,90 603,85 " style="fill:white; stroke-width:1; stroke:black; " description="&lt;b&gt;SFUL_RS01945&lt;/b&gt;&lt;br&gt;Fe(3+)-hydroxamate ABC transporter permease FhuB&lt;br&gt;Location: 452649 - 454838" locus_tag="SFUL_RS01945" class="clusterblast-orf" id="dummy-1_h1_9_56"  />
</g>
<g id="a1_0057"  >
<polygon points="620,90 620,90 625,85 620,80 620,80 620,90 " style="fill:white; stroke-width:1; stroke:black; " description="&lt;b&gt;SFUL_RS01950&lt;/b&gt;&lt;br&gt;2,3-dihydro-2,3-dihydroxybenzoate dehydrogenase&lt;br&gt;Location: 455109 - 455939" locus_tag="SFUL_RS01950" class="clusterblast-orf" id="dummy-1_h1_9_57"  />
</g>
<g id="a1_0058"  >
<polygon points="626,90 629,90 634,85 629,80 626,80 626,90 " style="fill:white; stroke-width:1; stroke:black; " description="&lt;b&gt;SFUL_RS01955&lt;/b&gt;&lt;br&gt;isochorismate synthase DhbC&lt;br&gt;Location: 456029 - 457234" locus_tag="SFUL_RS01955" class="clusterblast-orf" id="dummy-1_h1_9_58"  />
</g>
<g id="a1_0059"  >
<polygon points="634,90 640,90 645,85 640,80 634,80 634,90 " style="fill:white; stroke-width:1; stroke:black; " description="&lt;b&gt;SFUL_RS01960&lt;/b&gt;&lt;br&gt;(2,3-dihydroxybenzoyl)adenylate synthase&lt;br&gt;Location: 457231 - 458874" locus_tag="SFUL_RS01960" class="clusterblast-orf" id="dummy-1_h1_9_59"  />
</g>
<g id="a1_0060"  >
<polygon points="645,90 645,90 650,85 645,80 645,80 645,90 " style="fill:white; stroke-width:1; stroke:black; " description="&lt;b&gt;SFUL_RS01965&lt;/b&gt;&lt;br&gt;isochorismatase&lt;br&gt;Location: 458923 - 459555" locus_tag="SFUL_RS01965" class="clusterblast-orf" id="dummy-1_h1_9_60"  />
</g>
<g id="a1_0061"  >
<polygon points="650,90 651,85 650,80 650,90 " style="fill:white; stroke-width:1; stroke:black; " description="&lt;b&gt;SFUL_RS01970&lt;/b&gt;&lt;br&gt;isochorismatase&lt;br&gt;Location: 459552 - 459791" locus_tag="SFUL_RS01970" class="clusterblast-orf" id="dummy-1_h1_9_61"  />
</g>
<g id="a1_0062"  >
<polygon points="653,90 656,90 661,85 656,80 653,80 653,90 " style="fill:white; stroke-width:1; stroke:black; " description="&lt;b&gt;SFUL_RS01975&lt;/b&gt;&lt;br&gt;transcription termination factor Rho&lt;br&gt;Location: 460113 - 461252" locus_tag="SFUL_RS01975" class="clusterblast-orf" id="dummy-1_h1_9_62"  />
</g>
<g id="a1_0063"  >
<polygon points="661,85 666,80 672,80 672,90 666,90 661,85 " style="fill:white; stroke-width:1; stroke:black; " description="&lt;b&gt;SFUL_RS01980&lt;/b&gt;&lt;br&gt;alpha-D-glucose phosphate-specific phosphoglucomutase&lt;br&gt;Location: 461286 - 462929" locus_tag="SFUL_RS01980" class="clusterblast-orf" id="dummy-1_h1_9_63"  />
</g>
<g id="a1_0064"  >
<polygon points="674,85 679,80 681,80 681,90 679,90 674,85 " style="fill:white; stroke-width:1; stroke:black; " description="&lt;b&gt;SFUL_RS01985&lt;/b&gt;&lt;br&gt;chitinase&lt;br&gt;Location: 463138 - 464208" locus_tag="SFUL_RS01985" class="clusterblast-orf" id="dummy-1_h1_9_64"  />
</g>
<g id="a1_0065"  >
<polygon points="683,85 688,80 688,80 688,90 688,90 683,85 " style="fill:white; stroke-width:1; stroke:black; " description="&lt;b&gt;SFUL_RS01990&lt;/b&gt;&lt;br&gt;3-hydroxybutyryl-CoA dehydrogenase; 3-hydroxyacyl-CoA dehydrogenase&lt;br&gt;Location: 464454 - 465323" locus_tag="SFUL_RS01990" class="clusterblast-orf" id="dummy-1_h1_9_65"  />
</g>
<g id="a1_0066"  >
<polygon points="688,85 693,80 699,80 699,90 693,90 688,85 " style="fill:white; stroke-width:1; stroke:black; " description="&lt;b&gt;SFUL_RS01995&lt;/b&gt;&lt;br&gt;malate synthase A&lt;br&gt;Location: 465320 - 466912" locus_tag="SFUL_RS01995" class="clusterblast-orf" id="dummy-1_h1_9_66"  />
</g>
<g id="a1_0067"  >
<polygon points="700,85 705,80 708,80 708,90 705,90 700,85 " style="fill:white; stroke-width:1; stroke:black; " description="&lt;b&gt;SFUL_RS02000&lt;/b&gt;&lt;br&gt;isocitrate lyase&lt;br&gt;Location: 466995 - 468275" locus_tag="SFUL_RS02000" class="clusterblast-orf" id="dummy-1_h1_9_67"  />
</g>
<g id="a1_0068"  >
<polygon points="711,90 716,90 721,85 716,80 711,80 711,90 " style="fill:white; stroke-width:1; stroke:black; " description="&lt;b&gt;SFUL_RS02005&lt;/b&gt;&lt;br&gt;XRE family transcriptional regulator&lt;br&gt;Location: 468649 - 470154" locus_tag="SFUL_RS02005" class="clusterblast-orf" id="dummy-1_h1_9_68"  />
</g>
<g id="a1_0069"  >
<polygon points="721,85 726,80 731,80 731,90 726,90 721,85 " style="fill:white; stroke-width:1; stroke:black; " description="&lt;b&gt;SFUL_RS02010&lt;/b&gt;&lt;br&gt;Prenyltrans 2 domain containing protein&lt;br&gt;Location: 470183 - 471610" locus_tag="SFUL_RS02010" class="clusterblast-orf" id="dummy-1_h1_9_69"  />
</g>
<g id="a1_0070"  >
<polygon points="735,90 748,90 753,85 748,80 735,80 735,90 " style="fill:#15d815; stroke-width:1; stroke:black; " description="&lt;b&gt;SFUL_RS02015&lt;/b&gt;&lt;br&gt;Prenyltrans 2 domain containing protein&lt;br&gt;Location: 472173 - 474932&lt;br&gt;&lt;br&gt;&lt;b&gt;BlastP hit with ctg309_2&lt;/b&gt;&lt;br&gt;Percentage identity: 45&lt;br&gt;Percentage coverage: 32&lt;br&gt;BLAST bit score: 90&lt;br&gt;E-value: 5.1e-16" locus_tag="SFUL_RS02015" class="clusterblast-orf" id="dummy-1_h1_9_70"  />
</g>
<g id="a1_0071"  >
<polygon points="753,90 754,90 759,85 754,80 753,80 753,90 " style="fill:#15d815; stroke-width:1; stroke:black; " description="&lt;b&gt;SFUL_RS02020&lt;/b&gt;&lt;br&gt;hypothetical protein&lt;br&gt;Location: 474929 - 475864&lt;br&gt;&lt;br&gt;&lt;b&gt;BlastP hit with ctg309_2&lt;/b&gt;&lt;br&gt;Percentage identity: 43&lt;br&gt;Percentage coverage: 36&lt;br&gt;BLAST bit score: 93&lt;br&gt;E-value: 4.6e-17" locus_tag="SFUL_RS02020" class="clusterblast-orf" id="dummy-1_h1_9_71"  />
</g>
<g id="a1_0072"  >
<polygon points="760,90 762,90 767,85 762,80 760,80 760,90 " style="fill:#1515d8; stroke-width:1; stroke:black; " description="&lt;b&gt;SFUL_RS02025&lt;/b&gt;&lt;br&gt;integral membrane protein&lt;br&gt;Location: 475872 - 477053&lt;br&gt;&lt;br&gt;&lt;b&gt;BlastP hit with ctg309_3&lt;/b&gt;&lt;br&gt;Percentage identity: 56&lt;br&gt;Percentage coverage: 98&lt;br&gt;BLAST bit score: 369&lt;br&gt;E-value: 5.4e-100" locus_tag="SFUL_RS02025" class="clusterblast-orf" id="dummy-1_h1_9_72"  />
</g>
<g id="a1_0073"  >
<polygon points="767,90 775,90 780,85 775,80 767,80 767,90 " style="fill:white; stroke-width:1; stroke:black; " description="&lt;b&gt;SFUL_RS02030&lt;/b&gt;&lt;br&gt;ATPase&lt;br&gt;Location: 477050 - 478840" locus_tag="SFUL_RS02030" class="clusterblast-orf" id="dummy-1_h1_9_73"  />
</g>
</svg>
