<svg xmlns="http://www.w3.org/2000/svg" xmlns:xlink="http://www.w3.org/1999/xlink" version="1.1" x="0" y="0" height="230" width="800" viewBox="0 0 800 230" preserveAspectRatio="none"  >
<g label="Query sequence" class="clusterblast-cluster"  >
<text x="5" y="20" class="clusterblast-acc"  >
Query sequence</text>
<line x1="10" y1="35" x2="778.0" y2="35" style="stroke-width:1; stroke:grey; "  />
<polygon points="302,40 319,40 324,35 319,30 302,30 302,40 " style="fill:#d81515; stroke-width:1; stroke:black; " description="&lt;b&gt;ctg356_1&lt;/b&gt;&lt;br&gt;ctg356 1&lt;br&gt;Location: 108 - 687" locus_tag="ctg356_1" class="clusterblast-orf" id="dummy-1_q0_0_all"  />
<polygon points="324,40 353,40 358,35 353,30 324,30 324,40 " style="fill:#15d863; stroke-width:1; stroke:black; " description="&lt;b&gt;ctg356_2&lt;/b&gt;&lt;br&gt;ctg356 2&lt;br&gt;Location: 698 - 1637" locus_tag="ctg356_2" class="clusterblast-orf" id="dummy-1_q1_0_all"  />
<polygon points="358,40 403,40 408,35 403,30 358,30 358,40 " style="fill:#1563d8; stroke-width:1; stroke:black; " description="&lt;b&gt;ctg356_3&lt;/b&gt;&lt;br&gt;ctg356 3&lt;br&gt;Location: 1633 - 2983" locus_tag="ctg356_3" class="clusterblast-orf" id="dummy-1_q2_0_all"  />
<polygon points="415,40 449,40 454,35 449,30 415,30 415,40 " style="fill:#b115d8; stroke-width:1; stroke:black; " description="&lt;b&gt;ctg356_4&lt;/b&gt;&lt;br&gt;ctg356 4&lt;br&gt;Location: 3191 - 4235" locus_tag="ctg356_4" class="clusterblast-orf" id="dummy-1_q3_0_all"  />
<polygon points="453,40 472,40 477,35 472,30 453,30 453,40 " style="fill:#b1d815; stroke-width:1; stroke:black; " description="&lt;b&gt;ctg356_5&lt;/b&gt;&lt;br&gt;ctg356 5&lt;br&gt;Location: 4231 - 4885" locus_tag="ctg356_5" class="clusterblast-orf" id="dummy-1_q4_0_all"  />
</g>
<g label="NZ_AUKR01000016" description="NZ_AUKR01000016_c14: Streptomyces sp. TAA040 H300DRAFT scaffold00015.15 C, wh... (20% of genes show similarity), terpene" class="clusterblast-cluster"  >
<text x="5" y="70" class="clusterblast-acc"  >
<a xlink:href="https://antismash-db.secondarymetabolites.org/go/NZ_AUKR01000016/14" target="_blank">NZ_AUKR01000016_c14</a>: Streptomyces sp. TAA040 H300DRAFT scaffold00015.15 C, wh... (20% of genes show similarity), terpene</text>
<line x1="10" y1="85" x2="778.0" y2="85" style="stroke-width:1; stroke:grey; "  />
</g>
<g id="a1_000"  >
<polygon points="0,90 12,90 17,85 12,80 0,80 0,90 " style="fill:white; stroke-width:1; stroke:black; " description="&lt;b&gt;H300_RS0115950&lt;/b&gt;&lt;br&gt;ATP-binding protein&lt;br&gt;Location: 115609 - 115130" locus_tag="H300_RS0115950" class="clusterblast-orf" id="dummy-1_h1_3_0"  />
</g>
<g id="a1_001"  >
<polygon points="18,85 23,80 39,80 39,90 23,90 18,85 " style="fill:white; stroke-width:1; stroke:black; " description="&lt;b&gt;H300_RS0115945&lt;/b&gt;&lt;br&gt;isopentenyl-diphosphate Delta-isomerase&lt;br&gt;Location: 115102 - 114542" locus_tag="H300_RS0115945" class="clusterblast-orf" id="dummy-1_h1_3_1"  />
</g>
<g id="a1_002"  >
<polygon points="40,85 45,80 74,80 74,90 45,90 40,85 " style="fill:white; stroke-width:1; stroke:black; " description="&lt;b&gt;H300_RS0115940&lt;/b&gt;&lt;br&gt;cation transporter&lt;br&gt;Location: 114497 - 113562" locus_tag="H300_RS0115940" class="clusterblast-orf" id="dummy-1_h1_3_2"  />
</g>
<g id="a1_003"  >
<polygon points="91,90 154,90 159,85 154,80 91,80 91,90 " style="fill:white; stroke-width:1; stroke:black; " description="&lt;b&gt;H300_RS0115935&lt;/b&gt;&lt;br&gt;transferase&lt;br&gt;Location: 113117 - 111264" locus_tag="H300_RS0115935" class="clusterblast-orf" id="dummy-1_h1_3_3"  />
</g>
<g id="a1_004"  >
<polygon points="158,90 180,90 185,85 180,80 158,80 158,90 " style="fill:white; stroke-width:1; stroke:black; " description="&lt;b&gt;H300_RS0115930&lt;/b&gt;&lt;br&gt;phosphocholine cytidylyltransferase family protein&lt;br&gt;Location: 111267 - 110530" locus_tag="H300_RS0115930" class="clusterblast-orf" id="dummy-1_h1_3_4"  />
</g>
<g id="a1_005"  >
<polygon points="185,90 219,90 224,85 219,80 185,80 185,90 " style="fill:white; stroke-width:1; stroke:black; " description="&lt;b&gt;H300_RS0115925&lt;/b&gt;&lt;br&gt;dehydrogenase&lt;br&gt;Location: 110542 - 109478" locus_tag="H300_RS0115925" class="clusterblast-orf" id="dummy-1_h1_3_5"  />
</g>
<g id="a1_006"  >
<polygon points="223,90 247,90 252,85 247,80 223,80 223,90 " style="fill:white; stroke-width:1; stroke:black; " description="&lt;b&gt;H300_RS0115920&lt;/b&gt;&lt;br&gt;transferase&lt;br&gt;Location: 109500 - 108715" locus_tag="H300_RS0115920" class="clusterblast-orf" id="dummy-1_h1_3_6"  />
</g>
<g id="a1_007"  >
<polygon points="252,90 280,90 285,85 280,80 252,80 252,90 " style="fill:white; stroke-width:1; stroke:black; " description="&lt;b&gt;H300_RS0115915&lt;/b&gt;&lt;br&gt;glycosyltransferase family 2 protein&lt;br&gt;Location: 108703 - 107822" locus_tag="H300_RS0115915" class="clusterblast-orf" id="dummy-1_h1_3_7"  />
</g>
<g id="a1_008"  >
<polygon points="287,90 316,90 321,85 316,80 287,80 287,90 " style="fill:white; stroke-width:1; stroke:black; " description="&lt;b&gt;H300_RS0115910&lt;/b&gt;&lt;br&gt;ABC transporter&lt;br&gt;Location: 107760 - 106816" locus_tag="H300_RS0115910" class="clusterblast-orf" id="dummy-1_h1_3_8"  />
</g>
<g id="a1_009"  >
<polygon points="321,90 346,90 351,85 346,80 321,80 321,90 " style="fill:white; stroke-width:1; stroke:black; " description="&lt;b&gt;H300_RS0115905&lt;/b&gt;&lt;br&gt;ABC transporter ATP-binding protein&lt;br&gt;Location: 106829 - 106023" locus_tag="H300_RS0115905" class="clusterblast-orf" id="dummy-1_h1_3_9"  />
</g>
<g id="a1_0010"  >
<polygon points="359,90 389,90 394,85 389,80 359,80 359,90 " style="fill:#d81515; stroke-width:1; stroke:black; " description="&lt;b&gt;H300_RS0115900&lt;/b&gt;&lt;br&gt;squalene synthase HpnC&lt;br&gt;Location: 105778 - 104828&lt;br&gt;&lt;br&gt;&lt;b&gt;BlastP hit with ctg356_1&lt;/b&gt;&lt;br&gt;Percentage identity: 74&lt;br&gt;Percentage coverage: 99&lt;br&gt;BLAST bit score: 262&lt;br&gt;E-value: 3.8e-68" locus_tag="H300_RS0115900" class="clusterblast-orf" id="dummy-1_h1_3_10"  />
</g>
<g id="a1_0011"  >
<polygon points="394,90 422,90 427,85 422,80 394,80 394,90 " style="fill:#15d863; stroke-width:1; stroke:black; " description="&lt;b&gt;H300_RS0115895&lt;/b&gt;&lt;br&gt;squalene synthase HpnD&lt;br&gt;Location: 104831 - 103923&lt;br&gt;&lt;br&gt;&lt;b&gt;BlastP hit with ctg356_2&lt;/b&gt;&lt;br&gt;Percentage identity: 66&lt;br&gt;Percentage coverage: 96&lt;br&gt;BLAST bit score: 387&lt;br&gt;E-value: 1.7e-105" locus_tag="H300_RS0115895" class="clusterblast-orf" id="dummy-1_h1_3_11"  />
</g>
<g id="a1_0012"  >
<polygon points="427,90 473,90 478,85 473,80 427,80 427,90 " style="fill:#1563d8; stroke-width:1; stroke:black; " description="&lt;b&gt;H300_RS0115890&lt;/b&gt;&lt;br&gt;FAD-dependent oxidoreductase&lt;br&gt;Location: 103926 - 102529&lt;br&gt;&lt;br&gt;&lt;b&gt;BlastP hit with ctg356_3&lt;/b&gt;&lt;br&gt;Percentage identity: 68&lt;br&gt;Percentage coverage: 100&lt;br&gt;BLAST bit score: 544&lt;br&gt;E-value: 1.5e-152" locus_tag="H300_RS0115890" class="clusterblast-orf" id="dummy-1_h1_3_12"  />
</g>
<g id="a1_0013"  >
<polygon points="483,90 515,90 520,85 515,80 483,80 483,90 " style="fill:#b115d8; stroke-width:1; stroke:black; " description="&lt;b&gt;H300_RS0115885&lt;/b&gt;&lt;br&gt;dimethylallyltranstransferase&lt;br&gt;Location: 102418 - 101384&lt;br&gt;&lt;br&gt;&lt;b&gt;BlastP hit with ctg356_4&lt;/b&gt;&lt;br&gt;Percentage identity: 77&lt;br&gt;Percentage coverage: 98&lt;br&gt;BLAST bit score: 487&lt;br&gt;E-value: 1.3e-135" locus_tag="H300_RS0115885" class="clusterblast-orf" id="dummy-1_h1_3_13"  />
</g>
<g id="a1_0014"  >
<polygon points="522,85 527,80 553,80 553,90 527,90 522,85 " style="fill:white; stroke-width:1; stroke:black; " description="&lt;b&gt;H300_RS0115880&lt;/b&gt;&lt;br&gt;protein-tyrosine-phosphatase&lt;br&gt;Location: 101332 - 100490" locus_tag="H300_RS0115880" class="clusterblast-orf" id="dummy-1_h1_3_14"  />
</g>
<g id="a1_0015"  >
<polygon points="555,85 559,80 559,90 555,85 " style="fill:white; stroke-width:1; stroke:black; " description="&lt;b&gt;H300_RS31130&lt;/b&gt;&lt;br&gt;SAM-dependent methyltransferase&lt;br&gt;Location: 100439 - 100335" locus_tag="H300_RS31130" class="clusterblast-orf" id="dummy-1_h1_3_15"  />
</g>
<g id="a1_0016"  >
<polygon points="558,90 560,90 565,85 560,80 558,80 558,90 " style="fill:white; stroke-width:1; stroke:black; " description="&lt;b&gt;H300_RS0115870&lt;/b&gt;&lt;br&gt;hypothetical protein&lt;br&gt;Location: 100355 - 100167" locus_tag="H300_RS0115870" class="clusterblast-orf" id="dummy-1_h1_3_16"  />
</g>
<g id="a1_0017"  >
<polygon points="567,85 572,80 598,80 598,90 572,90 567,85 " style="fill:white; stroke-width:1; stroke:black; " description="&lt;b&gt;H300_RS0115865&lt;/b&gt;&lt;br&gt;alpha/beta hydrolase&lt;br&gt;Location: 100105 - 99269" locus_tag="H300_RS0115865" class="clusterblast-orf" id="dummy-1_h1_3_17"  />
</g>
<g id="a1_0018"  >
<polygon points="608,90 629,90 634,85 629,80 608,80 608,90 " style="fill:#b1d815; stroke-width:1; stroke:black; " description="&lt;b&gt;H300_RS0115860&lt;/b&gt;&lt;br&gt;alpha-ketoglutarate-dependent dioxygenase AlkB&lt;br&gt;Location: 98982 - 98284&lt;br&gt;&lt;br&gt;&lt;b&gt;BlastP hit with ctg356_5&lt;/b&gt;&lt;br&gt;Percentage identity: 63&lt;br&gt;Percentage coverage: 101&lt;br&gt;BLAST bit score: 269&lt;br&gt;E-value: 4.6e-70" locus_tag="H300_RS0115860" class="clusterblast-orf" id="dummy-1_h1_3_18"  />
</g>
<g id="a1_0019"  >
<polygon points="642,90 702,90 707,85 702,80 642,80 642,90 " style="fill:white; stroke-width:1; stroke:black; " description="&lt;b&gt;H300_RS27210&lt;/b&gt;&lt;br&gt;ATP-binding protein&lt;br&gt;Location: 98071 - 96293" locus_tag="H300_RS27210" class="clusterblast-orf" id="dummy-1_h1_3_19"  />
</g>
<g id="a1_0020"  >
<polygon points="709,90 719,90 724,85 719,80 709,80 709,90 " style="fill:white; stroke-width:1; stroke:black; " description="&lt;b&gt;H300_RS0115850&lt;/b&gt;&lt;br&gt;roadblock/LC7 domain-containing protein&lt;br&gt;Location: 96226 - 95810" locus_tag="H300_RS0115850" class="clusterblast-orf" id="dummy-1_h1_3_20"  />
</g>
<g id="a1_0021"  >
<polygon points="725,90 733,90 738,85 733,80 725,80 725,90 " style="fill:white; stroke-width:1; stroke:black; " description="&lt;b&gt;H300_RS0115845&lt;/b&gt;&lt;br&gt;DUF742 domain-containing protein&lt;br&gt;Location: 95805 - 95431" locus_tag="H300_RS0115845" class="clusterblast-orf" id="dummy-1_h1_3_21"  />
</g>
<g id="a1_0022"  >
<polygon points="738,90 754,90 759,85 754,80 738,80 738,90 " style="fill:white; stroke-width:1; stroke:black; " description="&lt;b&gt;H300_RS0115840&lt;/b&gt;&lt;br&gt;ATP-binding protein&lt;br&gt;Location: 95453 - 94863" locus_tag="H300_RS0115840" class="clusterblast-orf" id="dummy-1_h1_3_22"  />
</g>
<g id="a1_0023"  >
<polygon points="759,90 775,90 780,85 775,80 759,80 759,90 " style="fill:white; stroke-width:1; stroke:black; " description="&lt;b&gt;H300_RS0115835&lt;/b&gt;&lt;br&gt;GAF domain-containing protein&lt;br&gt;Location: 94873 - 94307" locus_tag="H300_RS0115835" class="clusterblast-orf" id="dummy-1_h1_3_23"  />
</g>
</svg>
