<svg xmlns="http://www.w3.org/2000/svg" xmlns:xlink="http://www.w3.org/1999/xlink" version="1.1" x="0" y="0" height="230" width="800" viewBox="0 0 800 230" preserveAspectRatio="none"  >
<g label="Query sequence" class="clusterblast-cluster"  >
<text x="5" y="20" class="clusterblast-acc"  >
Query sequence</text>
<line x1="10" y1="35" x2="778.0" y2="35" style="stroke-width:1; stroke:grey; "  />
<polygon points="222,35 227,30 237,30 237,40 227,40 222,35 " style="fill:#d81515; stroke-width:1; stroke:black; " description="&lt;b&gt;ctg95_1&lt;/b&gt;&lt;br&gt;ctg95 1&lt;br&gt;Location: 202 - 970" locus_tag="ctg95_1" class="clusterblast-orf" id="dummy-1_q0_0_all"  />
<polygon points="240,40 262,40 267,35 262,30 240,30 240,40 " style="fill:#33d815; stroke-width:1; stroke:black; " description="&lt;b&gt;ctg95_2&lt;/b&gt;&lt;br&gt;ctg95 2&lt;br&gt;Location: 1127 - 2561" locus_tag="ctg95_2" class="clusterblast-orf" id="dummy-1_q1_0_all"  />
<polygon points="268,40 285,40 290,35 285,30 268,30 268,40 " style="fill:#15abd8; stroke-width:1; stroke:black; " description="&lt;b&gt;ctg95_3&lt;/b&gt;&lt;br&gt;ctg95 3&lt;br&gt;Location: 2612 - 3731" locus_tag="ctg95_3" class="clusterblast-orf" id="dummy-1_q2_0_all"  />
<polygon points="292,40 298,40 303,35 298,30 292,30 292,40 " style="fill:#8d15d8; stroke-width:1; stroke:black; " description="&lt;b&gt;ctg95_4&lt;/b&gt;&lt;br&gt;ctg95 4&lt;br&gt;Location: 3847 - 4414" locus_tag="ctg95_4" class="clusterblast-orf" id="dummy-1_q3_0_all"  />
<polygon points="303,35 308,30 319,30 319,40 308,40 303,35 " style="fill:#d86f15; stroke-width:1; stroke:black; " description="&lt;b&gt;ctg95_5&lt;/b&gt;&lt;br&gt;ctg95 5&lt;br&gt;Location: 4429 - 5278" locus_tag="ctg95_5" class="clusterblast-orf" id="dummy-1_q4_0_all"  />
<polygon points="319,35 324,30 367,30 367,40 324,40 319,35 " style="fill:#15d851; stroke-width:1; stroke:black; " description="&lt;b&gt;ctg95_6&lt;/b&gt;&lt;br&gt;ctg95 6&lt;br&gt;Location: 5278 - 7786" locus_tag="ctg95_6" class="clusterblast-orf" id="dummy-1_q5_0_all"  />
<polygon points="370,35 375,30 387,30 387,40 375,40 370,35 " style="fill:#1551d8; stroke-width:1; stroke:black; " description="&lt;b&gt;ctg95_7&lt;/b&gt;&lt;br&gt;ctg95 7&lt;br&gt;Location: 7916 - 8792" locus_tag="ctg95_7" class="clusterblast-orf" id="dummy-1_q6_0_all"  />
<polygon points="387,35 392,30 422,30 422,40 392,40 387,35 " style="fill:#1551d8; stroke-width:1; stroke:black; " description="&lt;b&gt;ctg95_8&lt;/b&gt;&lt;br&gt;ctg95 8&lt;br&gt;Location: 8788 - 10627" locus_tag="ctg95_8" class="clusterblast-orf" id="dummy-1_q7_0_all"  />
<polygon points="422,35 427,30 441,30 441,40 427,40 422,35 " style="fill:#d815c9; stroke-width:1; stroke:black; " description="&lt;b&gt;ctg95_9&lt;/b&gt;&lt;br&gt;ctg95 9&lt;br&gt;Location: 10643 - 11633" locus_tag="ctg95_9" class="clusterblast-orf" id="dummy-1_q8_0_all"  />
<polygon points="442,35 447,30 474,30 474,40 447,40 442,35 " style="fill:#d8c915; stroke-width:1; stroke:black; " description="&lt;b&gt;ctg95_10&lt;/b&gt;&lt;br&gt;ctg95 10&lt;br&gt;Location: 11664 - 13362" locus_tag="ctg95_10" class="clusterblast-orf" id="dummy-1_q9_0_all"  />
<polygon points="478,40 497,40 502,35 497,30 478,30 478,40 " style="fill:#15d8ab; stroke-width:1; stroke:black; " description="&lt;b&gt;ctg95_11&lt;/b&gt;&lt;br&gt;ctg95 11&lt;br&gt;Location: 13533 - 14811" locus_tag="ctg95_11" class="clusterblast-orf" id="dummy-1_q10_0_all"  />
<polygon points="507,40 525,40 530,35 525,30 507,30 507,40 " style="fill:#3315d8; stroke-width:1; stroke:black; " description="&lt;b&gt;ctg95_12&lt;/b&gt;&lt;br&gt;ctg95 12&lt;br&gt;Location: 15050 - 16256" locus_tag="ctg95_12" class="clusterblast-orf" id="dummy-1_q11_0_all"  />
<polygon points="531,40 548,40 553,35 548,30 531,30 531,40 " style="fill:#d8156f; stroke-width:1; stroke:black; " description="&lt;b&gt;ctg95_13&lt;/b&gt;&lt;br&gt;ctg95 13&lt;br&gt;Location: 16336 - 17458" locus_tag="ctg95_13" class="clusterblast-orf" id="dummy-1_q12_0_all"  />
<polygon points="554,35 557,30 557,40 554,35 " style="fill:#8dd815; stroke-width:1; stroke:black; " description="&lt;b&gt;ctg95_14&lt;/b&gt;&lt;br&gt;ctg95 14&lt;br&gt;Location: 17536 - 17698" locus_tag="ctg95_14" class="clusterblast-orf" id="dummy-1_q13_0_all"  />
</g>
<g label="NZ_CP021121" description="NZ_CP021121_c4: Streptomyces sp. SCSIO 03032 chromosome, complete genome (30% of genes show similarity), t3pks" class="clusterblast-cluster"  >
<text x="5" y="70" class="clusterblast-acc"  >
<a xlink:href="https://antismash-db.secondarymetabolites.org/go/NZ_CP021121/4" target="_blank">NZ_CP021121_c4</a>: Streptomyces sp. SCSIO 03032 chromosome, complete genome (30% of genes show similarity), t3pks</text>
<line x1="10" y1="85" x2="778.0" y2="85" style="stroke-width:1; stroke:grey; "  />
</g>
<g id="a1_000"  >
<polygon points="0,85 5,80 19,80 19,90 5,90 0,85 " style="fill:white; stroke-width:1; stroke:black; " description="&lt;b&gt;CAG99_RS01275&lt;/b&gt;&lt;br&gt;hypothetical protein&lt;br&gt;Location: 358114 - 359154" locus_tag="CAG99_RS01275" class="clusterblast-orf" id="dummy-1_h1_6_0"  />
</g>
<g id="a1_001"  >
<polygon points="21,85 26,80 28,80 28,90 26,90 21,85 " style="fill:white; stroke-width:1; stroke:black; " description="&lt;b&gt;CAG99_RS01280&lt;/b&gt;&lt;br&gt;tetratricopeptide repeat protein&lt;br&gt;Location: 359214 - 359582" locus_tag="CAG99_RS01280" class="clusterblast-orf" id="dummy-1_h1_6_1"  />
</g>
<g id="a1_002"  >
<polygon points="30,90 52,90 57,85 52,80 30,80 30,90 " style="fill:#33d815; stroke-width:1; stroke:black; " description="&lt;b&gt;CAG99_RS01285&lt;/b&gt;&lt;br&gt;MFS transporter&lt;br&gt;Location: 359708 - 361132&lt;br&gt;&lt;br&gt;&lt;b&gt;BlastP hit with ctg95_2&lt;/b&gt;&lt;br&gt;Percentage identity: 69&lt;br&gt;Percentage coverage: 99&lt;br&gt;BLAST bit score: 623&lt;br&gt;E-value: 2.1e-176" locus_tag="CAG99_RS01285" class="clusterblast-orf" id="dummy-1_h1_6_2"  />
</g>
<g id="a1_003"  >
<polygon points="58,85 63,80 75,80 75,90 63,90 58,85 " style="fill:#d86f15; stroke-width:1; stroke:black; " description="&lt;b&gt;CAG99_RS01290&lt;/b&gt;&lt;br&gt;LacI family transcriptional regulator&lt;br&gt;Location: 361187 - 362032&lt;br&gt;&lt;br&gt;&lt;b&gt;BlastP hit with ctg95_5&lt;/b&gt;&lt;br&gt;Percentage identity: 71&lt;br&gt;Percentage coverage: 98&lt;br&gt;BLAST bit score: 373&lt;br&gt;E-value: 1.7e-101" locus_tag="CAG99_RS01290" class="clusterblast-orf" id="dummy-1_h1_6_3"  />
</g>
<g id="a1_004"  >
<polygon points="75,85 80,80 122,80 122,90 80,90 75,85 " style="fill:#15d851; stroke-width:1; stroke:black; " description="&lt;b&gt;CAG99_RS01295&lt;/b&gt;&lt;br&gt;glycoside hydrolase family 2 protein&lt;br&gt;Location: 362029 - 364518&lt;br&gt;&lt;br&gt;&lt;b&gt;BlastP hit with ctg95_6&lt;/b&gt;&lt;br&gt;Percentage identity: 72&lt;br&gt;Percentage coverage: 98&lt;br&gt;BLAST bit score: 1220&lt;br&gt;E-value: 0.0" locus_tag="CAG99_RS01295" class="clusterblast-orf" id="dummy-1_h1_6_4"  />
</g>
<g id="a1_005"  >
<polygon points="125,90 162,90 167,85 162,80 125,80 125,90 " style="fill:white; stroke-width:1; stroke:black; " description="&lt;b&gt;CAG99_RS01300&lt;/b&gt;&lt;br&gt;alpha-galactosidase&lt;br&gt;Location: 364635 - 366842" locus_tag="CAG99_RS01300" class="clusterblast-orf" id="dummy-1_h1_6_5"  />
</g>
<g id="a1_006"  >
<polygon points="168,85 173,80 209,80 209,90 173,90 168,85 " style="fill:white; stroke-width:1; stroke:black; " description="&lt;b&gt;CAG99_RS01305&lt;/b&gt;&lt;br&gt;alpha-galactosidase&lt;br&gt;Location: 366911 - 369046" locus_tag="CAG99_RS01305" class="clusterblast-orf" id="dummy-1_h1_6_6"  />
</g>
<g id="a1_007"  >
<polygon points="209,85 214,80 227,80 227,90 214,90 209,85 " style="fill:#1551d8; stroke-width:1; stroke:black; " description="&lt;b&gt;CAG99_RS01310&lt;/b&gt;&lt;br&gt;ABC transporter ATP-binding protein&lt;br&gt;Location: 369043 - 369972&lt;br&gt;&lt;br&gt;&lt;b&gt;BlastP hit with ctg95_7&lt;/b&gt;&lt;br&gt;Percentage identity: 79&lt;br&gt;Percentage coverage: 99&lt;br&gt;BLAST bit score: 449&lt;br&gt;E-value: 3.3e-124&lt;br&gt;&lt;br&gt;&lt;b&gt;BlastP hit with ctg95_8&lt;/b&gt;&lt;br&gt;Percentage identity: 40&lt;br&gt;Percentage coverage: 40&lt;br&gt;BLAST bit score: 148&lt;br&gt;E-value: 2.6e-33" locus_tag="CAG99_RS01310" class="clusterblast-orf" id="dummy-1_h1_6_7"  />
</g>
<g id="a1_008"  >
<polygon points="227,85 232,80 262,80 262,90 232,90 227,85 " style="fill:#1551d8; stroke-width:1; stroke:black; " description="&lt;b&gt;CAG99_RS01315&lt;/b&gt;&lt;br&gt;peptide ABC transporter ATP-binding protein&lt;br&gt;Location: 369969 - 371777&lt;br&gt;&lt;br&gt;&lt;b&gt;BlastP hit with ctg95_7&lt;/b&gt;&lt;br&gt;Percentage identity: 37&lt;br&gt;Percentage coverage: 89&lt;br&gt;BLAST bit score: 135&lt;br&gt;E-value: 1.1e-29&lt;br&gt;&lt;br&gt;&lt;b&gt;BlastP hit with ctg95_8&lt;/b&gt;&lt;br&gt;Percentage identity: 74&lt;br&gt;Percentage coverage: 97&lt;br&gt;BLAST bit score: 847&lt;br&gt;E-value: 1.2e-243" locus_tag="CAG99_RS01315" class="clusterblast-orf" id="dummy-1_h1_6_8"  />
</g>
<g id="a1_009"  >
<polygon points="264,85 269,80 283,80 283,90 269,90 264,85 " style="fill:#d815c9; stroke-width:1; stroke:black; " description="&lt;b&gt;CAG99_RS01320&lt;/b&gt;&lt;br&gt;ABC transporter permease&lt;br&gt;Location: 371899 - 372888&lt;br&gt;&lt;br&gt;&lt;b&gt;BlastP hit with ctg95_9&lt;/b&gt;&lt;br&gt;Percentage identity: 84&lt;br&gt;Percentage coverage: 99&lt;br&gt;BLAST bit score: 546&lt;br&gt;E-value: 1.7e-153" locus_tag="CAG99_RS01320" class="clusterblast-orf" id="dummy-1_h1_6_9"  />
</g>
<g id="a1_0010"  >
<polygon points="283,85 288,80 315,80 315,90 288,90 283,85 " style="fill:#d8c915; stroke-width:1; stroke:black; " description="&lt;b&gt;CAG99_RS01325&lt;/b&gt;&lt;br&gt;ABC transporter substrate-binding protein&lt;br&gt;Location: 372898 - 374589&lt;br&gt;&lt;br&gt;&lt;b&gt;BlastP hit with ctg95_10&lt;/b&gt;&lt;br&gt;Percentage identity: 61&lt;br&gt;Percentage coverage: 100&lt;br&gt;BLAST bit score: 727&lt;br&gt;E-value: 1.2e-207" locus_tag="CAG99_RS01325" class="clusterblast-orf" id="dummy-1_h1_6_10"  />
</g>
<g id="a1_0011"  >
<polygon points="322,90 341,90 346,85 341,80 322,80 322,90 " style="fill:#15d8ab; stroke-width:1; stroke:black; " description="&lt;b&gt;CAG99_RS01330&lt;/b&gt;&lt;br&gt;ROK family transcriptional regulator&lt;br&gt;Location: 374909 - 376183&lt;br&gt;&lt;br&gt;&lt;b&gt;BlastP hit with ctg95_11&lt;/b&gt;&lt;br&gt;Percentage identity: 73&lt;br&gt;Percentage coverage: 98&lt;br&gt;BLAST bit score: 560&lt;br&gt;E-value: 2e-157" locus_tag="CAG99_RS01330" class="clusterblast-orf" id="dummy-1_h1_6_11"  />
</g>
<g id="a1_0012"  >
<polygon points="352,90 369,90 374,85 369,80 352,80 352,90 " style="fill:#3315d8; stroke-width:1; stroke:black; " description="&lt;b&gt;CAG99_RS01335&lt;/b&gt;&lt;br&gt;cytochrome P450&lt;br&gt;Location: 376520 - 377644&lt;br&gt;&lt;br&gt;&lt;b&gt;BlastP hit with ctg95_12&lt;/b&gt;&lt;br&gt;Percentage identity: 76&lt;br&gt;Percentage coverage: 93&lt;br&gt;BLAST bit score: 581&lt;br&gt;E-value: 1e-163" locus_tag="CAG99_RS01335" class="clusterblast-orf" id="dummy-1_h1_6_12"  />
</g>
<g id="a1_0013"  >
<polygon points="375,90 392,90 397,85 392,80 375,80 375,90 " style="fill:#d8156f; stroke-width:1; stroke:black; " description="&lt;b&gt;CAG99_RS01340&lt;/b&gt;&lt;br&gt;type III polyketide synthase&lt;br&gt;Location: 377719 - 378828&lt;br&gt;&lt;br&gt;&lt;b&gt;BlastP hit with ctg95_13&lt;/b&gt;&lt;br&gt;Percentage identity: 76&lt;br&gt;Percentage coverage: 100&lt;br&gt;BLAST bit score: 578&lt;br&gt;E-value: 4.7e-163" locus_tag="CAG99_RS01340" class="clusterblast-orf" id="dummy-1_h1_6_13"  />
</g>
<g id="a1_0014"  >
<polygon points="397,85 402,80 407,80 407,90 402,90 397,85 " style="fill:white; stroke-width:1; stroke:black; " description="&lt;b&gt;CAG99_RS01345&lt;/b&gt;&lt;br&gt;NUDIX domain-containing protein&lt;br&gt;Location: 378861 - 379370" locus_tag="CAG99_RS01345" class="clusterblast-orf" id="dummy-1_h1_6_14"  />
</g>
<g id="a1_0015"  >
<polygon points="408,85 413,80 423,80 423,90 413,90 408,85 " style="fill:white; stroke-width:1; stroke:black; " description="&lt;b&gt;CAG99_RS01350&lt;/b&gt;&lt;br&gt;S-adenosyl methyltransferase&lt;br&gt;Location: 379440 - 380222" locus_tag="CAG99_RS01350" class="clusterblast-orf" id="dummy-1_h1_6_15"  />
</g>
<g id="a1_0016"  >
<polygon points="429,85 434,80 450,80 450,90 434,90 429,85 " style="fill:white; stroke-width:1; stroke:black; " description="&lt;b&gt;CAG99_RS01355&lt;/b&gt;&lt;br&gt;NAD(P)/FAD-dependent oxidoreductase&lt;br&gt;Location: 380534 - 381622" locus_tag="CAG99_RS01355" class="clusterblast-orf" id="dummy-1_h1_6_16"  />
</g>
<g id="a1_0017"  >
<polygon points="453,85 457,80 457,90 453,85 " style="fill:white; stroke-width:1; stroke:black; " description="&lt;b&gt;CAG99_RS01360&lt;/b&gt;&lt;br&gt;DUF397 domain-containing protein&lt;br&gt;Location: 381785 - 381973" locus_tag="CAG99_RS01360" class="clusterblast-orf" id="dummy-1_h1_6_17"  />
</g>
<g id="a1_0018"  >
<polygon points="461,90 465,90 470,85 465,80 461,80 461,90 " style="fill:white; stroke-width:1; stroke:black; " description="&lt;b&gt;CAG99_RS01365&lt;/b&gt;&lt;br&gt;HIT family protein&lt;br&gt;Location: 382194 - 382634" locus_tag="CAG99_RS01365" class="clusterblast-orf" id="dummy-1_h1_6_18"  />
</g>
<g id="a1_0019"  >
<polygon points="469,85 474,80 490,80 490,90 474,90 469,85 " style="fill:white; stroke-width:1; stroke:black; " description="&lt;b&gt;CAG99_RS01370&lt;/b&gt;&lt;br&gt;ATP-dependent DNA ligase&lt;br&gt;Location: 382609 - 383685" locus_tag="CAG99_RS01370" class="clusterblast-orf" id="dummy-1_h1_6_19"  />
</g>
<g id="a1_0020"  >
<polygon points="491,90 506,90 511,85 506,80 491,80 491,90 " style="fill:white; stroke-width:1; stroke:black; " description="&lt;b&gt;CAG99_RS01375&lt;/b&gt;&lt;br&gt;ATP-dependent DNA ligase&lt;br&gt;Location: 383763 - 384794" locus_tag="CAG99_RS01375" class="clusterblast-orf" id="dummy-1_h1_6_20"  />
</g>
<g id="a1_0021"  >
<polygon points="511,85 516,80 527,80 527,90 516,90 511,85 " style="fill:white; stroke-width:1; stroke:black; " description="&lt;b&gt;CAG99_RS01380&lt;/b&gt;&lt;br&gt;S-adenosyl methyltransferase&lt;br&gt;Location: 384811 - 385647" locus_tag="CAG99_RS01380" class="clusterblast-orf" id="dummy-1_h1_6_21"  />
</g>
<g id="a1_0022"  >
<polygon points="530,85 535,80 553,80 553,90 535,90 530,85 " style="fill:white; stroke-width:1; stroke:black; " description="&lt;b&gt;CAG99_RS01385&lt;/b&gt;&lt;br&gt;8-amino-7-oxononanoate synthase&lt;br&gt;Location: 385780 - 386952" locus_tag="CAG99_RS01385" class="clusterblast-orf" id="dummy-1_h1_6_22"  />
</g>
<g id="a1_0023"  >
<polygon points="556,90 571,90 576,85 571,80 556,80 556,90 " style="fill:white; stroke-width:1; stroke:black; " description="&lt;b&gt;CAG99_RS01390&lt;/b&gt;&lt;br&gt;biotin synthase BioB&lt;br&gt;Location: 387133 - 388194" locus_tag="CAG99_RS01390" class="clusterblast-orf" id="dummy-1_h1_6_23"  />
</g>
<g id="a1_0024"  >
<polygon points="576,90 597,90 602,85 597,80 576,80 576,90 " style="fill:white; stroke-width:1; stroke:black; " description="&lt;b&gt;CAG99_RS01395&lt;/b&gt;&lt;br&gt;adenosylmethionine--8-amino-7-oxononanoate transaminase&lt;br&gt;Location: 388199 - 389557" locus_tag="CAG99_RS01395" class="clusterblast-orf" id="dummy-1_h1_6_24"  />
</g>
<g id="a1_0025"  >
<polygon points="603,90 611,90 616,85 611,80 603,80 603,90 " style="fill:white; stroke-width:1; stroke:black; " description="&lt;b&gt;CAG99_RS01400&lt;/b&gt;&lt;br&gt;ATP-dependent dethiobiotin synthetase BioD&lt;br&gt;Location: 389587 - 390273" locus_tag="CAG99_RS01400" class="clusterblast-orf" id="dummy-1_h1_6_25"  />
</g>
<g id="a1_0026"  >
<polygon points="621,90 637,90 642,85 637,80 621,80 621,90 " style="fill:white; stroke-width:1; stroke:black; " description="&lt;b&gt;CAG99_RS01405&lt;/b&gt;&lt;br&gt;LacI family transcriptional regulator&lt;br&gt;Location: 390528 - 391610" locus_tag="CAG99_RS01405" class="clusterblast-orf" id="dummy-1_h1_6_26"  />
</g>
<g id="a1_0027"  >
<polygon points="642,90 660,90 665,85 660,80 642,80 642,90 " style="fill:white; stroke-width:1; stroke:black; " description="&lt;b&gt;CAG99_RS01410&lt;/b&gt;&lt;br&gt;sugar ABC transporter substrate-binding protein&lt;br&gt;Location: 391601 - 392842" locus_tag="CAG99_RS01410" class="clusterblast-orf" id="dummy-1_h1_6_27"  />
</g>
<g id="a1_0028"  >
<polygon points="666,90 679,90 684,85 679,80 666,80 666,90 " style="fill:white; stroke-width:1; stroke:black; " description="&lt;b&gt;CAG99_RS01415&lt;/b&gt;&lt;br&gt;sugar ABC transporter permease&lt;br&gt;Location: 392853 - 393809" locus_tag="CAG99_RS01415" class="clusterblast-orf" id="dummy-1_h1_6_28"  />
</g>
<g id="a1_0029"  >
<polygon points="684,90 695,90 700,85 695,80 684,80 684,90 " style="fill:white; stroke-width:1; stroke:black; " description="&lt;b&gt;CAG99_RS01420&lt;/b&gt;&lt;br&gt;carbohydrate ABC transporter permease&lt;br&gt;Location: 393814 - 394641" locus_tag="CAG99_RS01420" class="clusterblast-orf" id="dummy-1_h1_6_29"  />
</g>
<g id="a1_0030"  >
<polygon points="700,90 722,90 727,85 722,80 700,80 700,90 " style="fill:white; stroke-width:1; stroke:black; " description="&lt;b&gt;CAG99_RS01425&lt;/b&gt;&lt;br&gt;beta-glucosidase&lt;br&gt;Location: 394658 - 396055" locus_tag="CAG99_RS01425" class="clusterblast-orf" id="dummy-1_h1_6_30"  />
</g>
<g id="a1_0031"  >
<polygon points="729,90 768,90 773,85 768,80 729,80 729,90 " style="fill:white; stroke-width:1; stroke:black; " description="&lt;b&gt;CAG99_RS01430&lt;/b&gt;&lt;br&gt;alpha-xylosidase&lt;br&gt;Location: 396161 - 398461" locus_tag="CAG99_RS01430" class="clusterblast-orf" id="dummy-1_h1_6_31"  />
</g>
<g id="a1_0032"  >
<polygon points="775,90 775,90 780,85 775,80 775,80 775,90 " style="fill:white; stroke-width:1; stroke:black; " description="&lt;b&gt;CAG99_RS01435&lt;/b&gt;&lt;br&gt;hypothetical protein&lt;br&gt;Location: 398562 - 398789" locus_tag="CAG99_RS01435" class="clusterblast-orf" id="dummy-1_h1_6_32"  />
</g>
</svg>
