<svg xmlns="http://www.w3.org/2000/svg" xmlns:xlink="http://www.w3.org/1999/xlink" version="1.1" x="0" y="0" height="230" width="800" viewBox="0 0 800 230" preserveAspectRatio="none"  >
<g label="Query sequence" class="clusterblast-cluster"  >
<text x="5" y="20" class="clusterblast-acc"  >
Query sequence</text>
<line x1="10" y1="35" x2="778.0" y2="35" style="stroke-width:1; stroke:grey; "  />
<polygon points="344,40 345,40 350,35 345,30 344,30 344,40 " style="fill:#d81515; stroke-width:1; stroke:black; " description="&lt;b&gt;ctg164_1&lt;/b&gt;&lt;br&gt;ctg164 1&lt;br&gt;Location: 2 - 809" locus_tag="ctg164_1" class="clusterblast-orf" id="dummy-1_q0_0_all"  />
<polygon points="351,40 354,35 351,30 351,40 " style="fill:#15d815; stroke-width:1; stroke:black; " description="&lt;b&gt;ctg164_2&lt;/b&gt;&lt;br&gt;ctg164 2&lt;br&gt;Location: 932 - 1295" locus_tag="ctg164_2" class="clusterblast-orf" id="dummy-1_q1_0_all"  />
<polygon points="354,40 371,40 376,35 371,30 354,30 354,40 " style="fill:#1515d8; stroke-width:1; stroke:black; " description="&lt;b&gt;ctg164_3&lt;/b&gt;&lt;br&gt;ctg164 3&lt;br&gt;Location: 1291 - 3955" locus_tag="ctg164_3" class="clusterblast-orf" id="dummy-1_q2_0_all"  />
<polygon points="375,35 380,30 393,30 393,40 380,40 375,35 " style="fill:#d815d8; stroke-width:1; stroke:black; " description="&lt;b&gt;ctg164_4&lt;/b&gt;&lt;br&gt;ctg164 4&lt;br&gt;Location: 3942 - 6132" locus_tag="ctg164_4" class="clusterblast-orf" id="dummy-1_q3_0_all"  />
<polygon points="394,35 399,30 404,30 404,40 399,40 394,35 " style="fill:#d8d815; stroke-width:1; stroke:black; " description="&lt;b&gt;ctg164_5&lt;/b&gt;&lt;br&gt;ctg164 5&lt;br&gt;Location: 6252 - 7506" locus_tag="ctg164_5" class="clusterblast-orf" id="dummy-1_q4_0_all"  />
<polygon points="404,35 409,30 435,30 435,40 409,40 404,35 " style="fill:#15d8d8; stroke-width:1; stroke:black; " description="&lt;b&gt;ctg164_6&lt;/b&gt;&lt;br&gt;ctg164 6&lt;br&gt;Location: 7584 - 11436" locus_tag="ctg164_6" class="clusterblast-orf" id="dummy-1_q5_0_all"  />
</g>
<g label="NZ_CP007255" description="NZ_CP007255_c15: Rhodococcus erythropolis R138, complete genome (8% of genes show similarity), nrps" class="clusterblast-cluster"  >
<text x="5" y="70" class="clusterblast-acc"  >
<a xlink:href="https://antismash-db.secondarymetabolites.org/go/NZ_CP007255/15" target="_blank">NZ_CP007255_c15</a>: Rhodococcus erythropolis R138, complete genome (8% of genes show similarity), nrps</text>
<line x1="10" y1="85" x2="778.0" y2="85" style="stroke-width:1; stroke:grey; "  />
</g>
<g id="a1_000"  >
<polygon points="0,85 3,80 3,90 0,85 " style="fill:white; stroke-width:1; stroke:black; " description="&lt;b&gt;H351_RS22670&lt;/b&gt;&lt;br&gt;30S ribosomal protein S8&lt;br&gt;Location: 4927653 - 4928051" locus_tag="H351_RS22670" class="clusterblast-orf" id="dummy-1_h1_10_0"  />
</g>
<g id="a1_001"  >
<polygon points="4,85 6,80 6,90 4,85 " style="fill:white; stroke-width:1; stroke:black; " description="&lt;b&gt;H351_RS22675&lt;/b&gt;&lt;br&gt;hypothetical protein&lt;br&gt;Location: 4928208 - 4928414" locus_tag="H351_RS22675" class="clusterblast-orf" id="dummy-1_h1_10_1"  />
</g>
<g id="a1_002"  >
<polygon points="6,85 8,80 8,90 6,85 " style="fill:white; stroke-width:1; stroke:black; " description="&lt;b&gt;H351_RS22680&lt;/b&gt;&lt;br&gt;30S ribosomal protein S14 type Z&lt;br&gt;Location: 4928504 - 4928689" locus_tag="H351_RS22680" class="clusterblast-orf" id="dummy-1_h1_10_2"  />
</g>
<g id="a1_003"  >
<polygon points="8,85 12,80 12,90 8,85 " style="fill:white; stroke-width:1; stroke:black; " description="&lt;b&gt;H351_RS22685&lt;/b&gt;&lt;br&gt;50S ribosomal protein L5&lt;br&gt;Location: 4928694 - 4929260" locus_tag="H351_RS22685" class="clusterblast-orf" id="dummy-1_h1_10_3"  />
</g>
<g id="a1_004"  >
<polygon points="12,85 15,80 15,90 12,85 " style="fill:white; stroke-width:1; stroke:black; " description="&lt;b&gt;H351_RS22690&lt;/b&gt;&lt;br&gt;50S ribosomal protein L24&lt;br&gt;Location: 4929262 - 4929579" locus_tag="H351_RS22690" class="clusterblast-orf" id="dummy-1_h1_10_4"  />
</g>
<g id="a1_005"  >
<polygon points="15,85 18,80 18,90 15,85 " style="fill:white; stroke-width:1; stroke:black; " description="&lt;b&gt;H351_RS22695&lt;/b&gt;&lt;br&gt;50S ribosomal protein L14&lt;br&gt;Location: 4929579 - 4929947" locus_tag="H351_RS22695" class="clusterblast-orf" id="dummy-1_h1_10_5"  />
</g>
<g id="a1_006"  >
<polygon points="21,85 23,80 23,90 21,85 " style="fill:white; stroke-width:1; stroke:black; " description="&lt;b&gt;H351_RS22700&lt;/b&gt;&lt;br&gt;30S ribosomal protein S17&lt;br&gt;Location: 4930294 - 4930575" locus_tag="H351_RS22700" class="clusterblast-orf" id="dummy-1_h1_10_6"  />
</g>
<g id="a1_007"  >
<polygon points="23,85 25,80 25,90 23,85 " style="fill:white; stroke-width:1; stroke:black; " description="&lt;b&gt;H351_RS22705&lt;/b&gt;&lt;br&gt;50S ribosomal protein L29&lt;br&gt;Location: 4930572 - 4930808" locus_tag="H351_RS22705" class="clusterblast-orf" id="dummy-1_h1_10_7"  />
</g>
<g id="a1_008"  >
<polygon points="25,85 28,80 28,90 25,85 " style="fill:white; stroke-width:1; stroke:black; " description="&lt;b&gt;H351_RS22710&lt;/b&gt;&lt;br&gt;50S ribosomal protein L16&lt;br&gt;Location: 4930808 - 4931224" locus_tag="H351_RS22710" class="clusterblast-orf" id="dummy-1_h1_10_8"  />
</g>
<g id="a1_009"  >
<polygon points="28,85 33,80 34,80 34,90 33,90 28,85 " style="fill:white; stroke-width:1; stroke:black; " description="&lt;b&gt;H351_RS22715&lt;/b&gt;&lt;br&gt;30S ribosomal protein S3&lt;br&gt;Location: 4931228 - 4932034" locus_tag="H351_RS22715" class="clusterblast-orf" id="dummy-1_h1_10_9"  />
</g>
<g id="a1_0010"  >
<polygon points="34,85 38,80 38,90 34,85 " style="fill:white; stroke-width:1; stroke:black; " description="&lt;b&gt;H351_RS22720&lt;/b&gt;&lt;br&gt;50S ribosomal protein L22&lt;br&gt;Location: 4932034 - 4932438" locus_tag="H351_RS22720" class="clusterblast-orf" id="dummy-1_h1_10_10"  />
</g>
<g id="a1_0011"  >
<polygon points="38,85 40,80 40,90 38,85 " style="fill:white; stroke-width:1; stroke:black; " description="&lt;b&gt;H351_RS22725&lt;/b&gt;&lt;br&gt;30S ribosomal protein S19&lt;br&gt;Location: 4932435 - 4932716" locus_tag="H351_RS22725" class="clusterblast-orf" id="dummy-1_h1_10_11"  />
</g>
<g id="a1_0012"  >
<polygon points="40,85 45,80 47,80 47,90 45,90 40,85 " style="fill:white; stroke-width:1; stroke:black; " description="&lt;b&gt;H351_RS22730&lt;/b&gt;&lt;br&gt;50S ribosomal protein L2&lt;br&gt;Location: 4932730 - 4933566" locus_tag="H351_RS22730" class="clusterblast-orf" id="dummy-1_h1_10_12"  />
</g>
<g id="a1_0013"  >
<polygon points="47,85 49,80 49,90 47,85 " style="fill:white; stroke-width:1; stroke:black; " description="&lt;b&gt;H351_RS22735&lt;/b&gt;&lt;br&gt;50S ribosomal protein L23&lt;br&gt;Location: 4933606 - 4933911" locus_tag="H351_RS22735" class="clusterblast-orf" id="dummy-1_h1_10_13"  />
</g>
<g id="a1_0014"  >
<polygon points="49,85 54,80 55,80 55,90 54,90 49,85 " style="fill:white; stroke-width:1; stroke:black; " description="&lt;b&gt;H351_RS22740&lt;/b&gt;&lt;br&gt;50S ribosomal protein L4&lt;br&gt;Location: 4933908 - 4934582" locus_tag="H351_RS22740" class="clusterblast-orf" id="dummy-1_h1_10_14"  />
</g>
<g id="a1_0015"  >
<polygon points="55,85 60,80 60,80 60,90 60,90 55,85 " style="fill:white; stroke-width:1; stroke:black; " description="&lt;b&gt;H351_RS22745&lt;/b&gt;&lt;br&gt;50S ribosomal protein L3&lt;br&gt;Location: 4934579 - 4935235" locus_tag="H351_RS22745" class="clusterblast-orf" id="dummy-1_h1_10_15"  />
</g>
<g id="a1_0016"  >
<polygon points="60,85 63,80 63,90 60,85 " style="fill:white; stroke-width:1; stroke:black; " description="&lt;b&gt;H351_RS22750&lt;/b&gt;&lt;br&gt;30S ribosomal protein S10&lt;br&gt;Location: 4935253 - 4935558" locus_tag="H351_RS22750" class="clusterblast-orf" id="dummy-1_h1_10_16"  />
</g>
<g id="a1_0017"  >
<polygon points="67,90 71,85 67,80 67,90 " style="fill:white; stroke-width:1; stroke:black; " description="&lt;b&gt;H351_RS22755&lt;/b&gt;&lt;br&gt;DUF4442 domain-containing protein&lt;br&gt;Location: 4936134 - 4936610" locus_tag="H351_RS22755" class="clusterblast-orf" id="dummy-1_h1_10_17"  />
</g>
<g id="a1_0018"  >
<polygon points="72,90 76,85 72,80 72,90 " style="fill:white; stroke-width:1; stroke:black; " description="&lt;b&gt;H351_RS22760&lt;/b&gt;&lt;br&gt;chorismate mutase&lt;br&gt;Location: 4936696 - 4937220" locus_tag="H351_RS22760" class="clusterblast-orf" id="dummy-1_h1_10_18"  />
</g>
<g id="a1_0019"  >
<polygon points="76,90 87,90 92,85 87,80 76,80 76,90 " style="fill:white; stroke-width:1; stroke:black; " description="&lt;b&gt;H351_RS22765&lt;/b&gt;&lt;br&gt;aminodeoxychorismate synthase, component I&lt;br&gt;Location: 4937217 - 4939301" locus_tag="H351_RS22765" class="clusterblast-orf" id="dummy-1_h1_10_19"  />
</g>
<g id="a1_0020"  >
<polygon points="92,90 95,90 100,85 95,80 92,80 92,90 " style="fill:white; stroke-width:1; stroke:black; " description="&lt;b&gt;H351_RS22770&lt;/b&gt;&lt;br&gt;prephenate dehydrogenase/arogenate dehydrogenase family protein&lt;br&gt;Location: 4939310 - 4940188" locus_tag="H351_RS22770" class="clusterblast-orf" id="dummy-1_h1_10_20"  />
</g>
<g id="a1_0021"  >
<polygon points="100,90 102,90 107,85 102,80 100,80 100,90 " style="fill:white; stroke-width:1; stroke:black; " description="&lt;b&gt;H351_RS22775&lt;/b&gt;&lt;br&gt;diiron oxygenase&lt;br&gt;Location: 4940195 - 4941172" locus_tag="H351_RS22775" class="clusterblast-orf" id="dummy-1_h1_10_21"  />
</g>
<g id="a1_0022"  >
<polygon points="108,85 113,80 115,80 115,90 113,90 108,85 " style="fill:white; stroke-width:1; stroke:black; " description="&lt;b&gt;H351_RS22780&lt;/b&gt;&lt;br&gt;glycosyltransferase family 2 protein&lt;br&gt;Location: 4941294 - 4942151" locus_tag="H351_RS22780" class="clusterblast-orf" id="dummy-1_h1_10_22"  />
</g>
<g id="a1_0023"  >
<polygon points="118,90 121,90 126,85 121,80 118,80 118,90 " style="fill:white; stroke-width:1; stroke:black; " description="&lt;b&gt;H351_RS22785&lt;/b&gt;&lt;br&gt;DrrA-related ABC transporter ATP-binding protein&lt;br&gt;Location: 4942556 - 4943527" locus_tag="H351_RS22785" class="clusterblast-orf" id="dummy-1_h1_10_23"  />
</g>
<g id="a1_0024"  >
<polygon points="126,90 128,90 133,85 128,80 126,80 126,90 " style="fill:white; stroke-width:1; stroke:black; " description="&lt;b&gt;H351_RS22790&lt;/b&gt;&lt;br&gt;antibiotic transporter&lt;br&gt;Location: 4943524 - 4944387" locus_tag="H351_RS22790" class="clusterblast-orf" id="dummy-1_h1_10_24"  />
</g>
<g id="a1_0025"  >
<polygon points="133,90 135,90 140,85 135,80 133,80 133,90 " style="fill:white; stroke-width:1; stroke:black; " description="&lt;b&gt;H351_RS22795&lt;/b&gt;&lt;br&gt;peptide ABC transporter permease&lt;br&gt;Location: 4944384 - 4945244" locus_tag="H351_RS22795" class="clusterblast-orf" id="dummy-1_h1_10_25"  />
</g>
<g id="a1_0026"  >
<polygon points="141,90 144,90 149,85 144,80 141,80 141,90 " style="fill:white; stroke-width:1; stroke:black; " description="&lt;b&gt;H351_RS22800&lt;/b&gt;&lt;br&gt;esterase family protein&lt;br&gt;Location: 4945363 - 4946400" locus_tag="H351_RS22800" class="clusterblast-orf" id="dummy-1_h1_10_26"  />
</g>
<g id="a1_0027"  >
<polygon points="150,90 152,90 157,85 152,80 150,80 150,90 " style="fill:white; stroke-width:1; stroke:black; " description="&lt;b&gt;H351_RS22805&lt;/b&gt;&lt;br&gt;putative triacylglycerol lipase&lt;br&gt;Location: 4946470 - 4947390" locus_tag="H351_RS22805" class="clusterblast-orf" id="dummy-1_h1_10_27"  />
</g>
<g id="a1_0028"  >
<polygon points="158,85 163,80 281,80 281,90 163,90 158,85 " style="fill:#15d8d8; stroke-width:1; stroke:black; " description="&lt;b&gt;H351_RS22810&lt;/b&gt;&lt;br&gt;non-ribosomal peptide synthetase&lt;br&gt;Location: 4947563 - 4962967&lt;br&gt;&lt;br&gt;&lt;b&gt;BlastP hit with ctg164_6&lt;/b&gt;&lt;br&gt;Percentage identity: 31&lt;br&gt;Percentage coverage: 105&lt;br&gt;BLAST bit score: 468&lt;br&gt;E-value: 3.1e-129" locus_tag="H351_RS22810" class="clusterblast-orf" id="dummy-1_h1_10_28"  />
</g>
<g id="a1_0029"  >
<polygon points="283,85 288,80 394,80 394,90 288,90 283,85 " style="fill:#15d8d8; stroke-width:1; stroke:black; " description="&lt;b&gt;H351_RS22815&lt;/b&gt;&lt;br&gt;non-ribosomal peptide synthetase&lt;br&gt;Location: 4963241 - 4977100&lt;br&gt;&lt;br&gt;&lt;b&gt;BlastP hit with ctg164_6&lt;/b&gt;&lt;br&gt;Percentage identity: 31&lt;br&gt;Percentage coverage: 104&lt;br&gt;BLAST bit score: 464&lt;br&gt;E-value: 4.4e-128" locus_tag="H351_RS22815" class="clusterblast-orf" id="dummy-1_h1_10_29"  />
</g>
<g id="a1_0030"  >
<polygon points="395,85 400,80 594,80 594,90 400,90 395,85 " style="fill:#15d8d8; stroke-width:1; stroke:black; " description="&lt;b&gt;H351_RS22820&lt;/b&gt;&lt;br&gt;non-ribosomal peptide synthetase&lt;br&gt;Location: 4977194 - 5002114&lt;br&gt;&lt;br&gt;&lt;b&gt;BlastP hit with ctg164_6&lt;/b&gt;&lt;br&gt;Percentage identity: 32&lt;br&gt;Percentage coverage: 105&lt;br&gt;BLAST bit score: 498&lt;br&gt;E-value: 2.8e-138" locus_tag="H351_RS22820" class="clusterblast-orf" id="dummy-1_h1_10_30"  />
</g>
<g id="a1_0031"  >
<polygon points="594,85 599,80 624,80 624,90 599,90 594,85 " style="fill:white; stroke-width:1; stroke:black; " description="&lt;b&gt;H351_RS22825&lt;/b&gt;&lt;br&gt;non-ribosomal peptide synthetase&lt;br&gt;Location: 5002133 - 5005945" locus_tag="H351_RS22825" class="clusterblast-orf" id="dummy-1_h1_10_31"  />
</g>
<g id="a1_0032"  >
<polygon points="628,85 633,80 633,80 633,90 633,90 628,85 " style="fill:white; stroke-width:1; stroke:black; " description="&lt;b&gt;H351_RS22830&lt;/b&gt;&lt;br&gt;CoA transferase subunit B&lt;br&gt;Location: 5006399 - 5007025" locus_tag="H351_RS22830" class="clusterblast-orf" id="dummy-1_h1_10_32"  />
</g>
<g id="a1_0033"  >
<polygon points="633,85 638,80 639,80 639,90 638,90 633,85 " style="fill:white; stroke-width:1; stroke:black; " description="&lt;b&gt;H351_RS22835&lt;/b&gt;&lt;br&gt;CoA transferase subunit A&lt;br&gt;Location: 5007046 - 5007801" locus_tag="H351_RS22835" class="clusterblast-orf" id="dummy-1_h1_10_33"  />
</g>
<g id="a1_0034"  >
<polygon points="639,85 644,80 646,80 646,90 644,90 639,85 " style="fill:white; stroke-width:1; stroke:black; " description="&lt;b&gt;H351_RS22840&lt;/b&gt;&lt;br&gt;CoA ester lyase&lt;br&gt;Location: 5007805 - 5008632" locus_tag="H351_RS22840" class="clusterblast-orf" id="dummy-1_h1_10_34"  />
</g>
<g id="a1_0035"  >
<polygon points="646,85 649,80 649,90 646,85 " style="fill:white; stroke-width:1; stroke:black; " description="&lt;b&gt;H351_RS22845&lt;/b&gt;&lt;br&gt;MaoC family dehydratase&lt;br&gt;Location: 5008629 - 5009117" locus_tag="H351_RS22845" class="clusterblast-orf" id="dummy-1_h1_10_35"  />
</g>
<g id="a1_0036"  >
<polygon points="649,85 654,80 659,80 659,90 654,90 649,85 " style="fill:white; stroke-width:1; stroke:black; " description="&lt;b&gt;H351_RS22850&lt;/b&gt;&lt;br&gt;acyl-CoA dehydrogenase&lt;br&gt;Location: 5009114 - 5010277" locus_tag="H351_RS22850" class="clusterblast-orf" id="dummy-1_h1_10_36"  />
</g>
<g id="a1_0037"  >
<polygon points="659,85 664,80 675,80 675,90 664,90 659,85 " style="fill:white; stroke-width:1; stroke:black; " description="&lt;b&gt;H351_RS22855&lt;/b&gt;&lt;br&gt;acetyl/propionyl/methylcrotonyl-CoA carboxylase subunit alpha&lt;br&gt;Location: 5010277 - 5012316" locus_tag="H351_RS22855" class="clusterblast-orf" id="dummy-1_h1_10_37"  />
</g>
<g id="a1_0038"  >
<polygon points="675,85 680,80 688,80 688,90 680,90 675,85 " style="fill:white; stroke-width:1; stroke:black; " description="&lt;b&gt;H351_RS22860&lt;/b&gt;&lt;br&gt;acetyl-CoA carboxylase subunit beta&lt;br&gt;Location: 5012322 - 5013911" locus_tag="H351_RS22860" class="clusterblast-orf" id="dummy-1_h1_10_38"  />
</g>
<g id="a1_0039"  >
<polygon points="688,90 688,90 693,85 688,80 688,80 688,90 " style="fill:white; stroke-width:1; stroke:black; " description="&lt;b&gt;H351_RS22865&lt;/b&gt;&lt;br&gt;TetR/AcrR family transcriptional regulator&lt;br&gt;Location: 5014010 - 5014609" locus_tag="H351_RS22865" class="clusterblast-orf" id="dummy-1_h1_10_39"  />
</g>
<g id="a1_0040"  >
<polygon points="694,90 695,90 700,85 695,80 694,80 694,90 " style="fill:white; stroke-width:1; stroke:black; " description="&lt;b&gt;H351_RS22870&lt;/b&gt;&lt;br&gt;GTP pyrophosphokinase&lt;br&gt;Location: 5014658 - 5015404" locus_tag="H351_RS22870" class="clusterblast-orf" id="dummy-1_h1_10_40"  />
</g>
<g id="a1_0041"  >
<polygon points="701,85 703,80 703,90 701,85 " style="fill:white; stroke-width:1; stroke:black; " description="&lt;b&gt;H351_RS22875&lt;/b&gt;&lt;br&gt;GlsB/YeaQ/YmgE family stress response membrane protein&lt;br&gt;Location: 5015562 - 5015822" locus_tag="H351_RS22875" class="clusterblast-orf" id="dummy-1_h1_10_41"  />
</g>
<g id="a1_0042"  >
<polygon points="704,90 711,90 716,85 711,80 704,80 704,90 " style="fill:white; stroke-width:1; stroke:black; " description="&lt;b&gt;H351_RS22880&lt;/b&gt;&lt;br&gt;C4-dicarboxylate transporter DctA&lt;br&gt;Location: 5016011 - 5017417" locus_tag="H351_RS22880" class="clusterblast-orf" id="dummy-1_h1_10_42"  />
</g>
<g id="a1_0043"  >
<polygon points="715,85 720,80 726,80 726,90 720,90 715,85 " style="fill:white; stroke-width:1; stroke:black; " description="&lt;b&gt;H351_RS22885&lt;/b&gt;&lt;br&gt;hypothetical protein&lt;br&gt;Location: 5017395 - 5018759" locus_tag="H351_RS22885" class="clusterblast-orf" id="dummy-1_h1_10_43"  />
</g>
<g id="a1_0044"  >
<polygon points="726,85 731,80 737,80 737,90 731,90 726,85 " style="fill:white; stroke-width:1; stroke:black; " description="&lt;b&gt;H351_RS22890&lt;/b&gt;&lt;br&gt;hypothetical protein&lt;br&gt;Location: 5018756 - 5020153" locus_tag="H351_RS22890" class="clusterblast-orf" id="dummy-1_h1_10_44"  />
</g>
<g id="a1_0045"  >
<polygon points="739,85 744,80 757,80 757,90 744,90 739,85 " style="fill:#d815d8; stroke-width:1; stroke:black; " description="&lt;b&gt;H351_RS22895&lt;/b&gt;&lt;br&gt;MMPL family transporter&lt;br&gt;Location: 5020337 - 5022583&lt;br&gt;&lt;br&gt;&lt;b&gt;BlastP hit with ctg164_4&lt;/b&gt;&lt;br&gt;Percentage identity: 32&lt;br&gt;Percentage coverage: 103&lt;br&gt;BLAST bit score: 305&lt;br&gt;E-value: 2e-80" locus_tag="H351_RS22895" class="clusterblast-orf" id="dummy-1_h1_10_45"  />
</g>
<g id="a1_0046"  >
<polygon points="759,90 765,90 770,85 765,80 759,80 759,90 " style="fill:white; stroke-width:1; stroke:black; " description="&lt;b&gt;H351_RS22900&lt;/b&gt;&lt;br&gt;hypothetical protein&lt;br&gt;Location: 5022808 - 5024256" locus_tag="H351_RS22900" class="clusterblast-orf" id="dummy-1_h1_10_46"  />
</g>
<g id="a1_0047"  >
<polygon points="771,85 776,80 780,80 780,90 776,90 771,85 " style="fill:white; stroke-width:1; stroke:black; " description="&lt;b&gt;H351_RS22905&lt;/b&gt;&lt;br&gt;NDMA-dependent alcohol dehydrogenase&lt;br&gt;Location: 5024311 - 5025423" locus_tag="H351_RS22905" class="clusterblast-orf" id="dummy-1_h1_10_47"  />
</g>
</svg>
