<svg xmlns="http://www.w3.org/2000/svg" xmlns:xlink="http://www.w3.org/1999/xlink" version="1.1" x="0" y="0" height="230" width="800" viewBox="0 0 800 230" preserveAspectRatio="none"  >
<g label="Query sequence" class="clusterblast-cluster"  >
<text x="5" y="20" class="clusterblast-acc"  >
Query sequence</text>
<line x1="10" y1="35" x2="778.0" y2="35" style="stroke-width:1; stroke:grey; "  />
<polygon points="107,35 112,30 126,30 126,40 112,40 107,35 " style="fill:#d81515; stroke-width:1; stroke:black; " description="&lt;b&gt;ctg53_1&lt;/b&gt;&lt;br&gt;ctg53 1&lt;br&gt;Location: 2 - 479" locus_tag="ctg53_1" class="clusterblast-orf" id="dummy-1_q0_0_all"  />
<polygon points="125,35 130,30 138,30 138,40 130,40 125,35 " style="fill:#4dd815; stroke-width:1; stroke:black; " description="&lt;b&gt;ctg53_2&lt;/b&gt;&lt;br&gt;ctg53 2&lt;br&gt;Location: 468 - 798" locus_tag="ctg53_2" class="clusterblast-orf" id="dummy-1_q1_0_all"  />
<polygon points="138,40 147,40 152,35 147,30 138,30 138,40 " style="fill:white; stroke-width:1; stroke:black; " description="&lt;b&gt;ctg53_3&lt;/b&gt;&lt;br&gt;ctg53 3&lt;br&gt;Location: 799 - 1153" locus_tag="ctg53_3" class="clusterblast-orf" id="dummy-1_q2_0_all"  />
<polygon points="162,40 181,40 186,35 181,30 162,30 162,40 " style="fill:white; stroke-width:1; stroke:black; " description="&lt;b&gt;ctg53_4&lt;/b&gt;&lt;br&gt;ctg53 4&lt;br&gt;Location: 1405 - 2044" locus_tag="ctg53_4" class="clusterblast-orf" id="dummy-1_q3_0_all"  />
<polygon points="197,35 202,30 234,30 234,40 202,40 197,35 " style="fill:#1585d8; stroke-width:1; stroke:black; " description="&lt;b&gt;ctg53_5&lt;/b&gt;&lt;br&gt;ctg53 5&lt;br&gt;Location: 2330 - 3284" locus_tag="ctg53_5" class="clusterblast-orf" id="dummy-1_q4_0_all"  />
<polygon points="237,35 242,30 287,30 287,40 242,40 237,35 " style="fill:#a115d8; stroke-width:1; stroke:black; " description="&lt;b&gt;ctg53_6&lt;/b&gt;&lt;br&gt;ctg53 6&lt;br&gt;Location: 3344 - 4661" locus_tag="ctg53_6" class="clusterblast-orf" id="dummy-1_q5_0_all"  />
<polygon points="289,40 309,40 314,35 309,30 289,30 289,40 " style="fill:#d86915; stroke-width:1; stroke:black; " description="&lt;b&gt;ctg53_7&lt;/b&gt;&lt;br&gt;ctg53 7&lt;br&gt;Location: 4707 - 5343" locus_tag="ctg53_7" class="clusterblast-orf" id="dummy-1_q6_0_all"  />
<polygon points="319,40 366,40 371,35 366,30 319,30 319,40 " style="fill:#15d831; stroke-width:1; stroke:black; " description="&lt;b&gt;ctg53_8&lt;/b&gt;&lt;br&gt;ctg53 8&lt;br&gt;Location: 5479 - 6817" locus_tag="ctg53_8" class="clusterblast-orf" id="dummy-1_q7_0_all"  />
<polygon points="372,35 377,30 438,30 438,40 377,40 372,35 " style="fill:#1531d8; stroke-width:1; stroke:black; " description="&lt;b&gt;ctg53_9&lt;/b&gt;&lt;br&gt;ctg53 9&lt;br&gt;Location: 6862 - 8560" locus_tag="ctg53_9" class="clusterblast-orf" id="dummy-1_q8_0_all"  />
<polygon points="441,35 446,30 453,30 453,40 446,40 441,35 " style="fill:#d815bc; stroke-width:1; stroke:black; " description="&lt;b&gt;ctg53_10&lt;/b&gt;&lt;br&gt;ctg53 10&lt;br&gt;Location: 8639 - 8948" locus_tag="ctg53_10" class="clusterblast-orf" id="dummy-1_q9_0_all"  />
<polygon points="457,35 462,30 473,30 473,40 462,40 457,35 " style="fill:#d8bc15; stroke-width:1; stroke:black; " description="&lt;b&gt;ctg53_11&lt;/b&gt;&lt;br&gt;ctg53 11&lt;br&gt;Location: 9046 - 9472" locus_tag="ctg53_11" class="clusterblast-orf" id="dummy-1_q10_0_all"  />
<polygon points="478,35 483,30 512,30 512,40 483,40 478,35 " style="fill:#15d885; stroke-width:1; stroke:black; " description="&lt;b&gt;ctg53_12&lt;/b&gt;&lt;br&gt;ctg53 12&lt;br&gt;Location: 9598 - 10483" locus_tag="ctg53_12" class="clusterblast-orf" id="dummy-1_q11_0_all"  />
<polygon points="512,35 517,30 535,30 535,40 517,40 512,35 " style="fill:#4d15d8; stroke-width:1; stroke:black; " description="&lt;b&gt;ctg53_13&lt;/b&gt;&lt;br&gt;ctg53 13&lt;br&gt;Location: 10479 - 11058" locus_tag="ctg53_13" class="clusterblast-orf" id="dummy-1_q12_0_all"  />
<polygon points="536,35 541,30 603,30 603,40 541,40 536,35 " style="fill:#d81569; stroke-width:1; stroke:black; " description="&lt;b&gt;ctg53_14&lt;/b&gt;&lt;br&gt;ctg53 14&lt;br&gt;Location: 11104 - 12817" locus_tag="ctg53_14" class="clusterblast-orf" id="dummy-1_q13_0_all"  />
<polygon points="608,40 652,40 657,35 652,30 608,30 608,40 " style="fill:#a1d815; stroke-width:1; stroke:black; " description="&lt;b&gt;ctg53_15&lt;/b&gt;&lt;br&gt;ctg53 15&lt;br&gt;Location: 12945 - 14220" locus_tag="ctg53_15" class="clusterblast-orf" id="dummy-1_q14_0_all"  />
<polygon points="659,35 664,30 672,30 672,40 664,40 659,35 " style="fill:#15d8d8; stroke-width:1; stroke:black; " description="&lt;b&gt;ctg53_16&lt;/b&gt;&lt;br&gt;ctg53 16&lt;br&gt;Location: 14277 - 14622" locus_tag="ctg53_16" class="clusterblast-orf" id="dummy-1_q15_0_all"  />
</g>
<g label="NZ_FPAB01000011" description="NZ_FPAB01000011_c19: Streptomyces harbinensis strain CGMCC 4.7047, whole geno... (76% of genes show similarity), terpene" class="clusterblast-cluster"  >
<text x="5" y="70" class="clusterblast-acc"  >
<a xlink:href="https://antismash-db.secondarymetabolites.org/go/NZ_FPAB01000011/19" target="_blank">NZ_FPAB01000011_c19</a>: Streptomyces harbinensis strain CGMCC 4.7047, whole geno... (76% of genes show similarity), terpene</text>
<line x1="10" y1="85" x2="778.0" y2="85" style="stroke-width:1; stroke:grey; "  />
</g>
<g id="a1_000"  >
<polygon points="0,90 77,90 82,85 77,80 0,80 0,90 " style="fill:white; stroke-width:1; stroke:black; " description="&lt;b&gt;BM385_RS24005&lt;/b&gt;&lt;br&gt;phosphate acetyltransferase&lt;br&gt;Location: 121255 - 119114" locus_tag="BM385_RS24005" class="clusterblast-orf" id="dummy-1_h1_1_0"  />
</g>
<g id="a1_001"  >
<polygon points="82,90 124,90 129,85 124,80 82,80 82,90 " style="fill:white; stroke-width:1; stroke:black; " description="&lt;b&gt;BM385_RS24000&lt;/b&gt;&lt;br&gt;acetate kinase&lt;br&gt;Location: 119117 - 117909" locus_tag="BM385_RS24000" class="clusterblast-orf" id="dummy-1_h1_1_1"  />
</g>
<g id="a1_002"  >
<polygon points="131,90 181,90 186,85 181,80 131,80 131,90 " style="fill:white; stroke-width:1; stroke:black; " description="&lt;b&gt;BM385_RS23995&lt;/b&gt;&lt;br&gt;pyruvate kinase&lt;br&gt;Location: 117848 - 116418" locus_tag="BM385_RS23995" class="clusterblast-orf" id="dummy-1_h1_1_2"  />
</g>
<g id="a1_003"  >
<polygon points="191,85 196,80 248,80 248,90 196,90 191,85 " style="fill:#d81515; stroke-width:1; stroke:black; " description="&lt;b&gt;BM385_RS23990&lt;/b&gt;&lt;br&gt;hypothetical protein&lt;br&gt;Location: 116311 - 114812&lt;br&gt;&lt;br&gt;&lt;b&gt;BlastP hit with ctg53_1&lt;/b&gt;&lt;br&gt;Percentage identity: 99&lt;br&gt;Percentage coverage: 51&lt;br&gt;BLAST bit score: 156&lt;br&gt;E-value: 1.9e-36" locus_tag="BM385_RS23990" class="clusterblast-orf" id="dummy-1_h1_1_3"  />
</g>
<g id="a1_004"  >
<polygon points="248,85 253,80 272,80 272,90 253,90 248,85 " style="fill:#4dd815; stroke-width:1; stroke:black; " description="&lt;b&gt;BM385_RS23985&lt;/b&gt;&lt;br&gt;hypothetical protein&lt;br&gt;Location: 114822 - 114202&lt;br&gt;&lt;br&gt;&lt;b&gt;BlastP hit with ctg53_2&lt;/b&gt;&lt;br&gt;Percentage identity: 100&lt;br&gt;Percentage coverage: 100&lt;br&gt;BLAST bit score: 129&lt;br&gt;E-value: 1.7e-28" locus_tag="BM385_RS23985" class="clusterblast-orf" id="dummy-1_h1_1_4"  />
</g>
<g id="a1_005"  >
<polygon points="278,85 283,80 301,80 301,90 283,90 278,85 " style="fill:white; stroke-width:1; stroke:black; " description="&lt;b&gt;BM385_RS23980&lt;/b&gt;&lt;br&gt;hypothetical protein&lt;br&gt;Location: 114060 - 113446" locus_tag="BM385_RS23980" class="clusterblast-orf" id="dummy-1_h1_1_5"  />
</g>
<g id="a1_006"  >
<polygon points="320,85 325,80 357,80 357,90 325,90 320,85 " style="fill:#1585d8; stroke-width:1; stroke:black; " description="&lt;b&gt;BM385_RS23975&lt;/b&gt;&lt;br&gt;tetratricopeptide repeat protein&lt;br&gt;Location: 112960 - 111992&lt;br&gt;&lt;br&gt;&lt;b&gt;BlastP hit with ctg53_5&lt;/b&gt;&lt;br&gt;Percentage identity: 98&lt;br&gt;Percentage coverage: 100&lt;br&gt;BLAST bit score: 567&lt;br&gt;E-value: 7e-160" locus_tag="BM385_RS23975" class="clusterblast-orf" id="dummy-1_h1_1_6"  />
</g>
<g id="a1_007"  >
<polygon points="359,85 364,80 399,80 399,90 364,90 359,85 " style="fill:#a115d8; stroke-width:1; stroke:black; " description="&lt;b&gt;BM385_RS23970&lt;/b&gt;&lt;br&gt;hypothetical protein&lt;br&gt;Location: 111946 - 110927&lt;br&gt;&lt;br&gt;&lt;b&gt;BlastP hit with ctg53_6&lt;/b&gt;&lt;br&gt;Percentage identity: 100&lt;br&gt;Percentage coverage: 74&lt;br&gt;BLAST bit score: 663&lt;br&gt;E-value: 1.3e-188" locus_tag="BM385_RS23970" class="clusterblast-orf" id="dummy-1_h1_1_7"  />
</g>
<g id="a1_008"  >
<polygon points="407,90 431,90 436,85 431,80 407,80 407,90 " style="fill:#d86915; stroke-width:1; stroke:black; " description="&lt;b&gt;BM385_RS23965&lt;/b&gt;&lt;br&gt;phytoene synthase&lt;br&gt;Location: 110703 - 109948&lt;br&gt;&lt;br&gt;&lt;b&gt;BlastP hit with ctg53_7&lt;/b&gt;&lt;br&gt;Percentage identity: 100&lt;br&gt;Percentage coverage: 100&lt;br&gt;BLAST bit score: 447&lt;br&gt;E-value: 9.2e-124" locus_tag="BM385_RS23965" class="clusterblast-orf" id="dummy-1_h1_1_8"  />
</g>
<g id="a1_009"  >
<polygon points="439,90 488,90 493,85 488,80 439,80 439,90 " style="fill:#15d831; stroke-width:1; stroke:black; " description="&lt;b&gt;BM385_RS23960&lt;/b&gt;&lt;br&gt;cytochrome P450&lt;br&gt;Location: 109883 - 108474&lt;br&gt;&lt;br&gt;&lt;b&gt;BlastP hit with ctg53_8&lt;/b&gt;&lt;br&gt;Percentage identity: 100&lt;br&gt;Percentage coverage: 100&lt;br&gt;BLAST bit score: 877&lt;br&gt;E-value: 7.6e-253" locus_tag="BM385_RS23960" class="clusterblast-orf" id="dummy-1_h1_1_9"  />
</g>
<g id="a1_0010"  >
<polygon points="495,85 500,80 561,80 561,90 500,90 495,85 " style="fill:#1531d8; stroke-width:1; stroke:black; " description="&lt;b&gt;BM385_RS23955&lt;/b&gt;&lt;br&gt;methylmalonyl-CoA mutase&lt;br&gt;Location: 108428 - 106731&lt;br&gt;&lt;br&gt;&lt;b&gt;BlastP hit with ctg53_9&lt;/b&gt;&lt;br&gt;Percentage identity: 100&lt;br&gt;Percentage coverage: 100&lt;br&gt;BLAST bit score: 1140&lt;br&gt;E-value: 0.0" locus_tag="BM385_RS23955" class="clusterblast-orf" id="dummy-1_h1_1_10"  />
</g>
<g id="a1_0011"  >
<polygon points="564,85 569,80 578,80 578,90 569,90 564,85 " style="fill:#d815bc; stroke-width:1; stroke:black; " description="&lt;b&gt;BM385_RS23950&lt;/b&gt;&lt;br&gt;DUF3817 domain-containing protein&lt;br&gt;Location: 106651 - 106289&lt;br&gt;&lt;br&gt;&lt;b&gt;BlastP hit with ctg53_10&lt;/b&gt;&lt;br&gt;Percentage identity: 100&lt;br&gt;Percentage coverage: 100&lt;br&gt;BLAST bit score: 205&lt;br&gt;E-value: 3.9e-51" locus_tag="BM385_RS23950" class="clusterblast-orf" id="dummy-1_h1_1_11"  />
</g>
<g id="a1_0012"  >
<polygon points="580,85 585,80 599,80 599,90 585,90 580,85 " style="fill:#d8bc15; stroke-width:1; stroke:black; " description="&lt;b&gt;BM385_RS23945&lt;/b&gt;&lt;br&gt;MarR family transcriptional regulator&lt;br&gt;Location: 106244 - 105735&lt;br&gt;&lt;br&gt;&lt;b&gt;BlastP hit with ctg53_11&lt;/b&gt;&lt;br&gt;Percentage identity: 100&lt;br&gt;Percentage coverage: 100&lt;br&gt;BLAST bit score: 275&lt;br&gt;E-value: 3.2e-72" locus_tag="BM385_RS23945" class="clusterblast-orf" id="dummy-1_h1_1_12"  />
</g>
<g id="a1_0013"  >
<polygon points="601,85 606,80 635,80 635,90 606,90 601,85 " style="fill:#15d885; stroke-width:1; stroke:black; " description="&lt;b&gt;BM385_RS23940&lt;/b&gt;&lt;br&gt;hypothetical protein&lt;br&gt;Location: 105692 - 104808&lt;br&gt;&lt;br&gt;&lt;b&gt;BlastP hit with ctg53_12&lt;/b&gt;&lt;br&gt;Percentage identity: 96&lt;br&gt;Percentage coverage: 100&lt;br&gt;BLAST bit score: 494&lt;br&gt;E-value: 9.2e-138" locus_tag="BM385_RS23940" class="clusterblast-orf" id="dummy-1_h1_1_13"  />
</g>
<g id="a1_0014"  >
<polygon points="635,85 640,80 657,80 657,90 640,90 635,85 " style="fill:#4d15d8; stroke-width:1; stroke:black; " description="&lt;b&gt;BM385_RS23935&lt;/b&gt;&lt;br&gt;SigE family RNA polymerase sigma factor&lt;br&gt;Location: 104811 - 104233&lt;br&gt;&lt;br&gt;&lt;b&gt;BlastP hit with ctg53_13&lt;/b&gt;&lt;br&gt;Percentage identity: 99&lt;br&gt;Percentage coverage: 100&lt;br&gt;BLAST bit score: 367&lt;br&gt;E-value: 8.4e-100" locus_tag="BM385_RS23935" class="clusterblast-orf" id="dummy-1_h1_1_14"  />
</g>
<g id="a1_0015"  >
<polygon points="659,85 664,80 725,80 725,90 664,90 659,85 " style="fill:#d81569; stroke-width:1; stroke:black; " description="&lt;b&gt;BM385_RS23930&lt;/b&gt;&lt;br&gt;murein biosynthesis integral membrane protein MurJ&lt;br&gt;Location: 104186 - 102474&lt;br&gt;&lt;br&gt;&lt;b&gt;BlastP hit with ctg53_14&lt;/b&gt;&lt;br&gt;Percentage identity: 100&lt;br&gt;Percentage coverage: 100&lt;br&gt;BLAST bit score: 1058&lt;br&gt;E-value: 3.1e-307" locus_tag="BM385_RS23930" class="clusterblast-orf" id="dummy-1_h1_1_15"  />
</g>
<g id="a1_0016"  >
<polygon points="732,90 775,90 780,85 775,80 732,80 732,90 " style="fill:#a1d815; stroke-width:1; stroke:black; " description="&lt;b&gt;BM385_RS23925&lt;/b&gt;&lt;br&gt;peptidoglycan bridge formation glycyltransferase FemA/FemB family protein&lt;br&gt;Location: 102300 - 101071&lt;br&gt;&lt;br&gt;&lt;b&gt;BlastP hit with ctg53_15&lt;/b&gt;&lt;br&gt;Percentage identity: 100&lt;br&gt;Percentage coverage: 96&lt;br&gt;BLAST bit score: 822&lt;br&gt;E-value: 2.1e-236" locus_tag="BM385_RS23925" class="clusterblast-orf" id="dummy-1_h1_1_16"  />
</g>
</svg>
