<svg xmlns="http://www.w3.org/2000/svg" xmlns:xlink="http://www.w3.org/1999/xlink" version="1.1" x="0" y="0" height="230" width="800" viewBox="0 0 800 230" preserveAspectRatio="none"  >
<g label="Query sequence" class="clusterblast-cluster"  >
<text x="5" y="20" class="clusterblast-acc"  >
Query sequence</text>
<line x1="10" y1="35" x2="778.0" y2="35" style="stroke-width:1; stroke:grey; "  />
<polygon points="0,40 14,40 19,35 14,30 0,30 0,40 " style="fill:white; stroke-width:1; stroke:black; " description="&lt;b&gt;ctg1_19&lt;/b&gt;&lt;br&gt;ctg1 19&lt;br&gt;Location: 20789 - 22121" locus_tag="ctg1_19" class="clusterblast-orf" id="dummy-1_q0_0_all"  />
<polygon points="20,40 23,35 20,30 20,40 " style="fill:#d81515; stroke-width:1; stroke:black; " description="&lt;b&gt;ctg1_20&lt;/b&gt;&lt;br&gt;ctg1 20&lt;br&gt;Location: 22126 - 22333" locus_tag="ctg1_20" class="clusterblast-orf" id="dummy-1_q1_0_all"  />
<polygon points="24,40 29,40 34,35 29,30 24,30 24,40 " style="fill:white; stroke-width:1; stroke:black; " description="&lt;b&gt;ctg1_21&lt;/b&gt;&lt;br&gt;ctg1 21&lt;br&gt;Location: 22451 - 23111" locus_tag="ctg1_21" class="clusterblast-orf" id="dummy-1_q2_0_all"  />
<polygon points="34,35 39,30 50,30 50,40 39,40 34,35 " style="fill:#4dd815; stroke-width:1; stroke:black; " description="&lt;b&gt;ctg1_22&lt;/b&gt;&lt;br&gt;ctg1 22&lt;br&gt;Location: 23130 - 24201" locus_tag="ctg1_22" class="clusterblast-orf" id="dummy-1_q3_0_all"  />
<polygon points="50,35 55,30 67,30 67,40 55,40 50,35 " style="fill:#1585d8; stroke-width:1; stroke:black; " description="&lt;b&gt;ctg1_23&lt;/b&gt;&lt;br&gt;ctg1 23&lt;br&gt;Location: 24197 - 25307" locus_tag="ctg1_23" class="clusterblast-orf" id="dummy-1_q4_0_all"  />
<polygon points="67,35 72,30 88,30 88,40 72,40 67,35 " style="fill:#a115d8; stroke-width:1; stroke:black; " description="&lt;b&gt;ctg1_24&lt;/b&gt;&lt;br&gt;ctg1 24&lt;br&gt;Location: 25334 - 26705" locus_tag="ctg1_24" class="clusterblast-orf" id="dummy-1_q5_0_all"  />
<polygon points="88,35 93,30 100,30 100,40 93,40 88,35 " style="fill:#d86915; stroke-width:1; stroke:black; " description="&lt;b&gt;ctg1_25&lt;/b&gt;&lt;br&gt;ctg1 25&lt;br&gt;Location: 26701 - 27508" locus_tag="ctg1_25" class="clusterblast-orf" id="dummy-1_q6_0_all"  />
<polygon points="100,35 105,30 112,30 112,40 105,40 100,35 " style="fill:#15d831; stroke-width:1; stroke:black; " description="&lt;b&gt;ctg1_26&lt;/b&gt;&lt;br&gt;ctg1 26&lt;br&gt;Location: 27507 - 28320" locus_tag="ctg1_26" class="clusterblast-orf" id="dummy-1_q7_0_all"  />
<polygon points="112,35 117,30 118,30 118,40 117,40 112,35 " style="fill:#1531d8; stroke-width:1; stroke:black; " description="&lt;b&gt;ctg1_27&lt;/b&gt;&lt;br&gt;ctg1 27&lt;br&gt;Location: 28316 - 28772" locus_tag="ctg1_27" class="clusterblast-orf" id="dummy-1_q8_0_all"  />
<polygon points="118,35 123,30 136,30 136,40 123,40 118,35 " style="fill:#d815bc; stroke-width:1; stroke:black; " description="&lt;b&gt;ctg1_28&lt;/b&gt;&lt;br&gt;ctg1 28&lt;br&gt;Location: 28768 - 29938" locus_tag="ctg1_28" class="clusterblast-orf" id="dummy-1_q9_0_all"  />
<polygon points="136,35 140,30 140,40 136,35 " style="fill:#d8bc15; stroke-width:1; stroke:black; " description="&lt;b&gt;ctg1_29&lt;/b&gt;&lt;br&gt;ctg1 29&lt;br&gt;Location: 29934 - 30219" locus_tag="ctg1_29" class="clusterblast-orf" id="dummy-1_q10_0_all"  />
<polygon points="140,35 145,30 175,30 175,40 145,40 140,35 " style="fill:#15d885; stroke-width:1; stroke:black; " description="&lt;b&gt;ctg1_30&lt;/b&gt;&lt;br&gt;ctg1 30&lt;br&gt;Location: 30191 - 32564" locus_tag="ctg1_30" class="clusterblast-orf" id="dummy-1_q11_0_all"  />
<polygon points="175,35 180,30 182,30 182,40 180,40 175,35 " style="fill:#4d15d8; stroke-width:1; stroke:black; " description="&lt;b&gt;ctg1_31&lt;/b&gt;&lt;br&gt;ctg1 31&lt;br&gt;Location: 32556 - 33078" locus_tag="ctg1_31" class="clusterblast-orf" id="dummy-1_q12_0_all"  />
<polygon points="185,40 217,40 222,35 217,30 185,30 185,40 " style="fill:white; stroke-width:1; stroke:black; " description="&lt;b&gt;ctg1_32&lt;/b&gt;&lt;br&gt;ctg1 32&lt;br&gt;Location: 33274 - 35701" locus_tag="ctg1_32" class="clusterblast-orf" id="dummy-1_q13_0_all"  />
<polygon points="226,35 231,30 249,30 249,40 231,40 226,35 " style="fill:white; stroke-width:1; stroke:black; " description="&lt;b&gt;ctg1_33&lt;/b&gt;&lt;br&gt;ctg1 33&lt;br&gt;Location: 36030 - 37515" locus_tag="ctg1_33" class="clusterblast-orf" id="dummy-1_q14_0_all"  />
<polygon points="254,35 259,30 266,30 266,40 259,40 254,35 " style="fill:#d81569; stroke-width:1; stroke:black; " description="&lt;b&gt;ctg1_34&lt;/b&gt;&lt;br&gt;ctg1 34&lt;br&gt;Location: 37865 - 38705" locus_tag="ctg1_34" class="clusterblast-orf" id="dummy-1_q15_0_all"  />
<polygon points="272,35 277,30 292,30 292,40 277,40 272,35 " style="fill:white; stroke-width:1; stroke:black; " description="&lt;b&gt;ctg1_35&lt;/b&gt;&lt;br&gt;ctg1 35&lt;br&gt;Location: 39094 - 40438" locus_tag="ctg1_35" class="clusterblast-orf" id="dummy-1_q16_0_all"  />
<polygon points="293,35 298,30 329,30 329,40 298,40 293,35 " style="fill:#a1d815; stroke-width:1; stroke:black; " description="&lt;b&gt;ctg1_36&lt;/b&gt;&lt;br&gt;ctg1 36&lt;br&gt;Location: 40484 - 42905" locus_tag="ctg1_36" class="clusterblast-orf" id="dummy-1_q17_0_all"  />
<polygon points="329,35 334,30 496,30 496,40 334,40 329,35 " style="fill:#a1d815; stroke-width:1; stroke:black; " description="&lt;b&gt;ctg1_37&lt;/b&gt;&lt;br&gt;ctg1 37&lt;br&gt;Location: 42901 - 54178" locus_tag="ctg1_37" class="clusterblast-orf" id="dummy-1_q18_0_all"  />
<polygon points="496,35 498,30 498,40 496,35 " style="fill:white; stroke-width:1; stroke:black; " description="&lt;b&gt;ctg1_38&lt;/b&gt;&lt;br&gt;ctg1 38&lt;br&gt;Location: 54170 - 54281" locus_tag="ctg1_38" class="clusterblast-orf" id="dummy-1_q19_0_all"  />
<polygon points="513,40 534,40 539,35 534,30 513,30 513,40 " style="fill:white; stroke-width:1; stroke:black; " description="&lt;b&gt;ctg1_39&lt;/b&gt;&lt;br&gt;ctg1 39&lt;br&gt;Location: 55265 - 57056" locus_tag="ctg1_39" class="clusterblast-orf" id="dummy-1_q20_0_all"  />
<polygon points="539,40 549,40 554,35 549,30 539,30 539,40 " style="fill:white; stroke-width:1; stroke:black; " description="&lt;b&gt;ctg1_40&lt;/b&gt;&lt;br&gt;ctg1 40&lt;br&gt;Location: 57055 - 58054" locus_tag="ctg1_40" class="clusterblast-orf" id="dummy-1_q21_0_all"  />
<polygon points="558,35 563,30 564,30 564,40 563,40 558,35 " style="fill:white; stroke-width:1; stroke:black; " description="&lt;b&gt;ctg1_41&lt;/b&gt;&lt;br&gt;ctg1 41&lt;br&gt;Location: 58327 - 58720" locus_tag="ctg1_41" class="clusterblast-orf" id="dummy-1_q22_0_all"  />
<polygon points="564,35 565,30 565,40 564,35 " style="fill:white; stroke-width:1; stroke:black; " description="&lt;b&gt;ctg1_42&lt;/b&gt;&lt;br&gt;ctg1 42&lt;br&gt;Location: 58716 - 58809" locus_tag="ctg1_42" class="clusterblast-orf" id="dummy-1_q23_0_all"  />
<polygon points="566,40 570,40 575,35 570,30 566,30 566,40 " style="fill:white; stroke-width:1; stroke:black; " description="&lt;b&gt;ctg1_43&lt;/b&gt;&lt;br&gt;ctg1 43&lt;br&gt;Location: 58839 - 59445" locus_tag="ctg1_43" class="clusterblast-orf" id="dummy-1_q24_0_all"  />
<polygon points="575,40 583,40 588,35 583,30 575,30 575,40 " style="fill:white; stroke-width:1; stroke:black; " description="&lt;b&gt;ctg1_44&lt;/b&gt;&lt;br&gt;ctg1 44&lt;br&gt;Location: 59441 - 60344" locus_tag="ctg1_44" class="clusterblast-orf" id="dummy-1_q25_0_all"  />
<polygon points="588,40 624,40 629,35 624,30 588,30 588,40 " style="fill:white; stroke-width:1; stroke:black; " description="&lt;b&gt;ctg1_45&lt;/b&gt;&lt;br&gt;ctg1 45&lt;br&gt;Location: 60340 - 63115" locus_tag="ctg1_45" class="clusterblast-orf" id="dummy-1_q26_0_all"  />
<polygon points="638,35 643,30 655,30 655,40 643,40 638,35 " style="fill:white; stroke-width:1; stroke:black; " description="&lt;b&gt;ctg1_46&lt;/b&gt;&lt;br&gt;ctg1 46&lt;br&gt;Location: 63678 - 64821" locus_tag="ctg1_46" class="clusterblast-orf" id="dummy-1_q27_0_all"  />
<polygon points="657,35 662,30 663,30 663,40 662,40 657,35 " style="fill:white; stroke-width:1; stroke:black; " description="&lt;b&gt;ctg1_47&lt;/b&gt;&lt;br&gt;ctg1 47&lt;br&gt;Location: 64988 - 65348" locus_tag="ctg1_47" class="clusterblast-orf" id="dummy-1_q28_0_all"  />
<polygon points="665,40 666,35 665,30 665,40 " style="fill:white; stroke-width:1; stroke:black; " description="&lt;b&gt;ctg1_48&lt;/b&gt;&lt;br&gt;ctg1 48&lt;br&gt;Location: 65498 - 65594" locus_tag="ctg1_48" class="clusterblast-orf" id="dummy-1_q29_0_all"  />
<polygon points="669,35 674,30 682,30 682,40 674,40 669,35 " style="fill:white; stroke-width:1; stroke:black; " description="&lt;b&gt;ctg1_49&lt;/b&gt;&lt;br&gt;ctg1 49&lt;br&gt;Location: 65762 - 66668" locus_tag="ctg1_49" class="clusterblast-orf" id="dummy-1_q30_0_all"  />
<polygon points="683,35 688,30 699,30 699,40 688,40 683,35 " style="fill:white; stroke-width:1; stroke:black; " description="&lt;b&gt;ctg1_50&lt;/b&gt;&lt;br&gt;ctg1 50&lt;br&gt;Location: 66720 - 67803" locus_tag="ctg1_50" class="clusterblast-orf" id="dummy-1_q31_0_all"  />
<polygon points="700,35 705,30 715,30 715,40 705,40 700,35 " style="fill:white; stroke-width:1; stroke:black; " description="&lt;b&gt;ctg1_51&lt;/b&gt;&lt;br&gt;ctg1 51&lt;br&gt;Location: 67850 - 68861" locus_tag="ctg1_51" class="clusterblast-orf" id="dummy-1_q32_0_all"  />
<polygon points="721,35 724,30 724,40 721,35 " style="fill:white; stroke-width:1; stroke:black; " description="&lt;b&gt;ctg1_52&lt;/b&gt;&lt;br&gt;ctg1 52&lt;br&gt;Location: 69275 - 69461" locus_tag="ctg1_52" class="clusterblast-orf" id="dummy-1_q33_0_all"  />
<polygon points="726,35 731,30 738,30 738,40 731,40 726,35 " style="fill:white; stroke-width:1; stroke:black; " description="&lt;b&gt;ctg1_53&lt;/b&gt;&lt;br&gt;ctg1 53&lt;br&gt;Location: 69605 - 70400" locus_tag="ctg1_53" class="clusterblast-orf" id="dummy-1_q34_0_all"  />
<polygon points="740,40 747,40 752,35 747,30 740,30 740,40 " style="fill:white; stroke-width:1; stroke:black; " description="&lt;b&gt;ctg1_54&lt;/b&gt;&lt;br&gt;ctg1 54&lt;br&gt;Location: 70523 - 71357" locus_tag="ctg1_54" class="clusterblast-orf" id="dummy-1_q35_0_all"  />
<polygon points="751,40 768,40 773,35 768,30 751,30 751,40 " style="fill:#15d8d8; stroke-width:1; stroke:black; " description="&lt;b&gt;ctg1_55&lt;/b&gt;&lt;br&gt;ctg1 55&lt;br&gt;Location: 71317 - 72736" locus_tag="ctg1_55" class="clusterblast-orf" id="dummy-1_q36_0_all"  />
<polygon points="772,40 775,40 780,35 775,30 772,30 772,40 " style="fill:white; stroke-width:1; stroke:black; " description="&lt;b&gt;ctg1_56&lt;/b&gt;&lt;br&gt;ctg1 56&lt;br&gt;Location: 72725 - 73211" locus_tag="ctg1_56" class="clusterblast-orf" id="dummy-1_q37_0_all"  />
</g>
<g label="NZ_JOCK01000024" description="NZ_JOCK01000024_c26: Streptomyces peucetius strain NRRL WC-3868 contig23.1, w... (45% of genes show similarity), t1pks" class="clusterblast-cluster"  >
<text x="5" y="70" class="clusterblast-acc"  >
<a xlink:href="https://antismash-db.secondarymetabolites.org/go/NZ_JOCK01000024/26" target="_blank">NZ_JOCK01000024_c26</a>: Streptomyces peucetius strain NRRL WC-3868 contig23.1, w... (45% of genes show similarity), t1pks</text>
<line x1="10" y1="85" x2="778.0" y2="85" style="stroke-width:1; stroke:grey; "  />
</g>
<g id="a1_000"  >
<polygon points="97,85 102,80 113,80 113,90 102,90 97,85 " style="fill:#1585d8; stroke-width:1; stroke:black; " description="&lt;b&gt;IO35_RS0125630&lt;/b&gt;&lt;br&gt;hydrogenase formation protein HypD&lt;br&gt;Location: 40436 - 39324&lt;br&gt;&lt;br&gt;&lt;b&gt;BlastP hit with ctg1_23&lt;/b&gt;&lt;br&gt;Percentage identity: 78&lt;br&gt;Percentage coverage: 100&lt;br&gt;BLAST bit score: 575&lt;br&gt;E-value: 5.1e-162" locus_tag="IO35_RS0125630" class="clusterblast-orf" id="dummy-1_h1_7_0"  />
</g>
<g id="a1_001"  >
<polygon points="113,85 118,80 124,80 124,90 118,90 113,85 " style="fill:white; stroke-width:1; stroke:black; " description="&lt;b&gt;IO35_RS0125625&lt;/b&gt;&lt;br&gt;CBS domain-containing protein&lt;br&gt;Location: 39324 - 38641" locus_tag="IO35_RS0125625" class="clusterblast-orf" id="dummy-1_h1_7_1"  />
</g>
<g id="a1_002"  >
<polygon points="124,85 129,80 144,80 144,90 129,90 124,85 " style="fill:#a115d8; stroke-width:1; stroke:black; " description="&lt;b&gt;IO35_RS0125620&lt;/b&gt;&lt;br&gt;dehydrogenase&lt;br&gt;Location: 38650 - 37250&lt;br&gt;&lt;br&gt;&lt;b&gt;BlastP hit with ctg1_24&lt;/b&gt;&lt;br&gt;Percentage identity: 75&lt;br&gt;Percentage coverage: 100&lt;br&gt;BLAST bit score: 691&lt;br&gt;E-value: 4.6e-197" locus_tag="IO35_RS0125620" class="clusterblast-orf" id="dummy-1_h1_7_2"  />
</g>
<g id="a1_003"  >
<polygon points="144,85 149,80 156,80 156,90 149,90 144,85 " style="fill:#d86915; stroke-width:1; stroke:black; " description="&lt;b&gt;IO35_RS0125615&lt;/b&gt;&lt;br&gt;oxidoreductase&lt;br&gt;Location: 37253 - 36468&lt;br&gt;&lt;br&gt;&lt;b&gt;BlastP hit with ctg1_25&lt;/b&gt;&lt;br&gt;Percentage identity: 81&lt;br&gt;Percentage coverage: 91&lt;br&gt;BLAST bit score: 412&lt;br&gt;E-value: 3.2e-113" locus_tag="IO35_RS0125615" class="clusterblast-orf" id="dummy-1_h1_7_3"  />
</g>
<g id="a1_004"  >
<polygon points="156,85 161,80 168,80 168,90 161,90 156,85 " style="fill:#15d831; stroke-width:1; stroke:black; " description="&lt;b&gt;IO35_RS0125610&lt;/b&gt;&lt;br&gt;oxidoreductase&lt;br&gt;Location: 36466 - 35648&lt;br&gt;&lt;br&gt;&lt;b&gt;BlastP hit with ctg1_26&lt;/b&gt;&lt;br&gt;Percentage identity: 59&lt;br&gt;Percentage coverage: 99&lt;br&gt;BLAST bit score: 315&lt;br&gt;E-value: 5.4e-84" locus_tag="IO35_RS0125610" class="clusterblast-orf" id="dummy-1_h1_7_4"  />
</g>
<g id="a1_005"  >
<polygon points="168,85 173,80 175,80 175,90 173,90 168,85 " style="fill:#1531d8; stroke-width:1; stroke:black; " description="&lt;b&gt;IO35_RS0125605&lt;/b&gt;&lt;br&gt;cyclic nucleotide-binding domain-containing protein&lt;br&gt;Location: 35651 - 35175&lt;br&gt;&lt;br&gt;&lt;b&gt;BlastP hit with ctg1_27&lt;/b&gt;&lt;br&gt;Percentage identity: 56&lt;br&gt;Percentage coverage: 94&lt;br&gt;BLAST bit score: 162&lt;br&gt;E-value: 4.2e-38" locus_tag="IO35_RS0125605" class="clusterblast-orf" id="dummy-1_h1_7_5"  />
</g>
<g id="a1_006"  >
<polygon points="175,85 180,80 193,80 193,90 180,90 175,85 " style="fill:#d815bc; stroke-width:1; stroke:black; " description="&lt;b&gt;IO35_RS0125600&lt;/b&gt;&lt;br&gt;4Fe-4S ferredoxin&lt;br&gt;Location: 35178 - 33970&lt;br&gt;&lt;br&gt;&lt;b&gt;BlastP hit with ctg1_28&lt;/b&gt;&lt;br&gt;Percentage identity: 68&lt;br&gt;Percentage coverage: 97&lt;br&gt;BLAST bit score: 524&lt;br&gt;E-value: 1.4e-146" locus_tag="IO35_RS0125600" class="clusterblast-orf" id="dummy-1_h1_7_6"  />
</g>
<g id="a1_007"  >
<polygon points="195,85 200,80 207,80 207,90 200,90 195,85 " style="fill:white; stroke-width:1; stroke:black; " description="&lt;b&gt;IO35_RS0125595&lt;/b&gt;&lt;br&gt;polyphosphate kinase 2&lt;br&gt;Location: 33838 - 33044" locus_tag="IO35_RS0125595" class="clusterblast-orf" id="dummy-1_h1_7_7"  />
</g>
<g id="a1_008"  >
<polygon points="212,90 228,90 233,85 228,80 212,80 212,90 " style="fill:white; stroke-width:1; stroke:black; " description="&lt;b&gt;IO35_RS0125590&lt;/b&gt;&lt;br&gt;serine hydrolase&lt;br&gt;Location: 32700 - 31276" locus_tag="IO35_RS0125590" class="clusterblast-orf" id="dummy-1_h1_7_8"  />
</g>
<g id="a1_009"  >
<polygon points="235,90 260,90 265,85 260,80 235,80 235,90 " style="fill:white; stroke-width:1; stroke:black; " description="&lt;b&gt;IO35_RS0125585&lt;/b&gt;&lt;br&gt;APC family permease&lt;br&gt;Location: 31165 - 29117" locus_tag="IO35_RS0125585" class="clusterblast-orf" id="dummy-1_h1_7_9"  />
</g>
<g id="a1_0010"  >
<polygon points="269,90 288,90 293,85 288,80 269,80 269,90 " style="fill:white; stroke-width:1; stroke:black; " description="&lt;b&gt;IO35_RS0125580&lt;/b&gt;&lt;br&gt;histidine kinase&lt;br&gt;Location: 28889 - 27279" locus_tag="IO35_RS0125580" class="clusterblast-orf" id="dummy-1_h1_7_10"  />
</g>
<g id="a1_0011"  >
<polygon points="294,90 297,90 302,85 297,80 294,80 294,90 " style="fill:white; stroke-width:1; stroke:black; " description="&lt;b&gt;IO35_RS0125575&lt;/b&gt;&lt;br&gt;hypothetical protein&lt;br&gt;Location: 27213 - 26629" locus_tag="IO35_RS0125575" class="clusterblast-orf" id="dummy-1_h1_7_11"  />
</g>
<g id="a1_0012"  >
<polygon points="309,90 309,90 314,85 309,80 309,80 309,90 " style="fill:white; stroke-width:1; stroke:black; " description="&lt;b&gt;IO35_RS0125570&lt;/b&gt;&lt;br&gt;NIPSNAP family protein&lt;br&gt;Location: 26212 - 25880" locus_tag="IO35_RS0125570" class="clusterblast-orf" id="dummy-1_h1_7_12"  />
</g>
<g id="a1_0013"  >
<polygon points="320,90 326,90 331,85 326,80 320,80 320,90 " style="fill:white; stroke-width:1; stroke:black; " description="&lt;b&gt;IO35_RS0125560&lt;/b&gt;&lt;br&gt;hypothetical protein&lt;br&gt;Location: 25440 - 24679" locus_tag="IO35_RS0125560" class="clusterblast-orf" id="dummy-1_h1_7_13"  />
</g>
<g id="a1_0014"  >
<polygon points="339,85 344,80 350,80 350,90 344,90 339,85 " style="fill:white; stroke-width:1; stroke:black; " description="&lt;b&gt;IO35_RS0125555&lt;/b&gt;&lt;br&gt;SDR family NAD(P)-dependent oxidoreductase&lt;br&gt;Location: 24146 - 23427" locus_tag="IO35_RS0125555" class="clusterblast-orf" id="dummy-1_h1_7_14"  />
</g>
<g id="a1_0015"  >
<polygon points="358,90 371,90 376,85 371,80 358,80 358,90 " style="fill:white; stroke-width:1; stroke:black; " description="&lt;b&gt;IO35_RS0125550&lt;/b&gt;&lt;br&gt;cytochrome P450&lt;br&gt;Location: 22906 - 21701" locus_tag="IO35_RS0125550" class="clusterblast-orf" id="dummy-1_h1_7_15"  />
</g>
<g id="a1_0016"  >
<polygon points="381,90 518,90 523,85 518,80 381,80 381,90 " style="fill:#a1d815; stroke-width:1; stroke:black; " description="&lt;b&gt;IO35_RS0125545&lt;/b&gt;&lt;br&gt;KR domain-containing protein&lt;br&gt;Location: 21342 - 11821&lt;br&gt;&lt;br&gt;&lt;b&gt;BlastP hit with ctg1_36&lt;/b&gt;&lt;br&gt;Percentage identity: 50&lt;br&gt;Percentage coverage: 83&lt;br&gt;BLAST bit score: 581&lt;br&gt;E-value: 2e-163&lt;br&gt;&lt;br&gt;&lt;b&gt;BlastP hit with ctg1_37&lt;/b&gt;&lt;br&gt;Percentage identity: 49&lt;br&gt;Percentage coverage: 46&lt;br&gt;BLAST bit score: 1431&lt;br&gt;E-value: 0.0" locus_tag="IO35_RS0125545" class="clusterblast-orf" id="dummy-1_h1_7_16"  />
</g>
<g id="a1_0017"  >
<polygon points="523,90 537,90 542,85 537,80 523,80 523,90 " style="fill:white; stroke-width:1; stroke:black; " description="&lt;b&gt;IO35_RS0125540&lt;/b&gt;&lt;br&gt;cytochrome P450&lt;br&gt;Location: 11817 - 10555" locus_tag="IO35_RS0125540" class="clusterblast-orf" id="dummy-1_h1_7_17"  />
</g>
<g id="a1_0018"  >
<polygon points="542,90 620,90 625,85 620,80 542,80 542,90 " style="fill:#a1d815; stroke-width:1; stroke:black; " description="&lt;b&gt;IO35_RS0125535&lt;/b&gt;&lt;br&gt;type I polyketide synthase&lt;br&gt;Location: 10527 - 4945&lt;br&gt;&lt;br&gt;&lt;b&gt;BlastP hit with ctg1_36&lt;/b&gt;&lt;br&gt;Percentage identity: 41&lt;br&gt;Percentage coverage: 114&lt;br&gt;BLAST bit score: 594&lt;br&gt;E-value: 1.8e-167&lt;br&gt;&lt;br&gt;&lt;b&gt;BlastP hit with ctg1_37&lt;/b&gt;&lt;br&gt;Percentage identity: 46&lt;br&gt;Percentage coverage: 47&lt;br&gt;BLAST bit score: 1259&lt;br&gt;E-value: 0.0" locus_tag="IO35_RS0125535" class="clusterblast-orf" id="dummy-1_h1_7_18"  />
</g>
<g id="a1_0019"  >
<polygon points="625,90 677,90 682,85 677,80 625,80 625,90 " style="fill:#a1d815; stroke-width:1; stroke:black; " description="&lt;b&gt;IO35_RS0125530&lt;/b&gt;&lt;br&gt;hypothetical protein&lt;br&gt;Location: 4952 - 1113&lt;br&gt;&lt;br&gt;&lt;b&gt;BlastP hit with ctg1_36&lt;/b&gt;&lt;br&gt;Percentage identity: 43&lt;br&gt;Percentage coverage: 103&lt;br&gt;BLAST bit score: 581&lt;br&gt;E-value: 1.2e-163" locus_tag="IO35_RS0125530" class="clusterblast-orf" id="dummy-1_h1_7_19"  />
</g>
</svg>
