<svg xmlns="http://www.w3.org/2000/svg" xmlns:xlink="http://www.w3.org/1999/xlink" version="1.1" x="0" y="0" height="230" width="800" viewBox="0 0 800 230" preserveAspectRatio="none"  >
<g label="Query sequence" class="clusterblast-cluster"  >
<text x="5" y="20" class="clusterblast-acc"  >
Query sequence</text>
<line x1="10" y1="35" x2="778.0" y2="35" style="stroke-width:1; stroke:grey; "  />
<polygon points="0,40 4,40 9,35 4,30 0,30 0,40 " style="fill:white; stroke-width:1; stroke:black; " description="&lt;b&gt;ctg2_1&lt;/b&gt;&lt;br&gt;ctg2 1&lt;br&gt;Location: 2 - 317" locus_tag="ctg2_1" class="clusterblast-orf" id="dummy-1_q0_0_all"  />
<polygon points="9,35 14,30 51,30 51,40 14,40 9,35 " style="fill:#d81515; stroke-width:1; stroke:black; " description="&lt;b&gt;ctg2_2&lt;/b&gt;&lt;br&gt;ctg2 2&lt;br&gt;Location: 345 - 1809" locus_tag="ctg2_2" class="clusterblast-orf" id="dummy-1_q1_0_all"  />
<polygon points="51,35 56,30 172,30 172,40 56,40 51,35 " style="fill:#56d815; stroke-width:1; stroke:black; " description="&lt;b&gt;ctg2_3&lt;/b&gt;&lt;br&gt;ctg2 3&lt;br&gt;Location: 1805 - 6122" locus_tag="ctg2_3" class="clusterblast-orf" id="dummy-1_q2_0_all"  />
<polygon points="172,35 177,30 179,30 179,40 177,40 172,35 " style="fill:#1597d8; stroke-width:1; stroke:black; " description="&lt;b&gt;ctg2_4&lt;/b&gt;&lt;br&gt;ctg2 4&lt;br&gt;Location: 6114 - 6354" locus_tag="ctg2_4" class="clusterblast-orf" id="dummy-1_q3_0_all"  />
<polygon points="187,35 192,30 232,30 232,40 192,40 187,35 " style="fill:#9715d8; stroke-width:1; stroke:black; " description="&lt;b&gt;ctg2_5&lt;/b&gt;&lt;br&gt;ctg2 5&lt;br&gt;Location: 6627 - 8220" locus_tag="ctg2_5" class="clusterblast-orf" id="dummy-1_q4_0_all"  />
<polygon points="231,35 236,30 246,30 246,40 236,40 231,35 " style="fill:#d85615; stroke-width:1; stroke:black; " description="&lt;b&gt;ctg2_6&lt;/b&gt;&lt;br&gt;ctg2 6&lt;br&gt;Location: 8185 - 8728" locus_tag="ctg2_6" class="clusterblast-orf" id="dummy-1_q5_0_all"  />
<polygon points="246,35 251,30 270,30 270,40 251,40 246,35 " style="fill:#15d815; stroke-width:1; stroke:black; " description="&lt;b&gt;ctg2_7&lt;/b&gt;&lt;br&gt;ctg2 7&lt;br&gt;Location: 8724 - 9585" locus_tag="ctg2_7" class="clusterblast-orf" id="dummy-1_q6_0_all"  />
<polygon points="272,35 277,30 279,30 279,40 277,40 272,35 " style="fill:#1556d8; stroke-width:1; stroke:black; " description="&lt;b&gt;ctg2_8&lt;/b&gt;&lt;br&gt;ctg2 8&lt;br&gt;Location: 9670 - 9913" locus_tag="ctg2_8" class="clusterblast-orf" id="dummy-1_q7_0_all"  />
<polygon points="279,35 284,30 308,30 308,40 284,40 279,35 " style="fill:#d815d8; stroke-width:1; stroke:black; " description="&lt;b&gt;ctg2_9&lt;/b&gt;&lt;br&gt;ctg2 9&lt;br&gt;Location: 9909 - 10923" locus_tag="ctg2_9" class="clusterblast-orf" id="dummy-1_q8_0_all"  />
<polygon points="311,40 336,40 341,35 336,30 311,30 311,40 " style="fill:#d89715; stroke-width:1; stroke:black; " description="&lt;b&gt;ctg2_10&lt;/b&gt;&lt;br&gt;ctg2 10&lt;br&gt;Location: 11023 - 12100" locus_tag="ctg2_10" class="clusterblast-orf" id="dummy-1_q9_0_all"  />
<polygon points="340,40 365,40 370,35 365,30 340,30 340,40 " style="fill:#15d856; stroke-width:1; stroke:black; " description="&lt;b&gt;ctg2_11&lt;/b&gt;&lt;br&gt;ctg2 11&lt;br&gt;Location: 12077 - 13133" locus_tag="ctg2_11" class="clusterblast-orf" id="dummy-1_q10_0_all"  />
<polygon points="370,40 388,40 393,35 388,30 370,30 370,40 " style="fill:#1515d8; stroke-width:1; stroke:black; " description="&lt;b&gt;ctg2_12&lt;/b&gt;&lt;br&gt;ctg2 12&lt;br&gt;Location: 13129 - 13927" locus_tag="ctg2_12" class="clusterblast-orf" id="dummy-1_q11_0_all"  />
<polygon points="396,35 401,30 436,30 436,40 401,40 396,35 " style="fill:#d81597; stroke-width:1; stroke:black; " description="&lt;b&gt;ctg2_13&lt;/b&gt;&lt;br&gt;ctg2 13&lt;br&gt;Location: 14040 - 15462" locus_tag="ctg2_13" class="clusterblast-orf" id="dummy-1_q12_0_all"  />
<polygon points="443,40 459,40 464,35 459,30 443,30 443,40 " style="fill:#d8d815; stroke-width:1; stroke:black; " description="&lt;b&gt;ctg2_14&lt;/b&gt;&lt;br&gt;ctg2 14&lt;br&gt;Location: 15729 - 16473" locus_tag="ctg2_14" class="clusterblast-orf" id="dummy-1_q13_0_all"  />
<polygon points="468,40 481,40 486,35 481,30 468,30 468,40 " style="fill:#15d897; stroke-width:1; stroke:black; " description="&lt;b&gt;ctg2_15&lt;/b&gt;&lt;br&gt;ctg2 15&lt;br&gt;Location: 16596 - 17250" locus_tag="ctg2_15" class="clusterblast-orf" id="dummy-1_q14_0_all"  />
<polygon points="488,35 493,30 503,30 503,40 493,40 488,35 " style="fill:#5615d8; stroke-width:1; stroke:black; " description="&lt;b&gt;ctg2_16&lt;/b&gt;&lt;br&gt;ctg2 16&lt;br&gt;Location: 17309 - 17846" locus_tag="ctg2_16" class="clusterblast-orf" id="dummy-1_q15_0_all"  />
<polygon points="503,35 508,30 567,30 567,40 508,40 503,35 " style="fill:#d81556; stroke-width:1; stroke:black; " description="&lt;b&gt;ctg2_17&lt;/b&gt;&lt;br&gt;ctg2 17&lt;br&gt;Location: 17842 - 20098" locus_tag="ctg2_17" class="clusterblast-orf" id="dummy-1_q16_0_all"  />
<polygon points="567,35 572,30 573,30 573,40 572,40 567,35 " style="fill:#97d815; stroke-width:1; stroke:black; " description="&lt;b&gt;ctg2_18&lt;/b&gt;&lt;br&gt;ctg2 18&lt;br&gt;Location: 20094 - 20307" locus_tag="ctg2_18" class="clusterblast-orf" id="dummy-1_q17_0_all"  />
<polygon points="581,35 586,30 656,30 656,40 586,40 581,35 " style="fill:white; stroke-width:1; stroke:black; " description="&lt;b&gt;ctg2_19&lt;/b&gt;&lt;br&gt;ctg2 19&lt;br&gt;Location: 20604 - 23250" locus_tag="ctg2_19" class="clusterblast-orf" id="dummy-1_q18_0_all"  />
<polygon points="659,35 664,30 686,30 686,40 664,40 659,35 " style="fill:#15d8d8; stroke-width:1; stroke:black; " description="&lt;b&gt;ctg2_20&lt;/b&gt;&lt;br&gt;ctg2 20&lt;br&gt;Location: 23381 - 24332" locus_tag="ctg2_20" class="clusterblast-orf" id="dummy-1_q19_0_all"  />
<polygon points="694,40 713,40 718,35 713,30 694,30 694,40 " style="fill:white; stroke-width:1; stroke:black; " description="&lt;b&gt;ctg2_21&lt;/b&gt;&lt;br&gt;ctg2 21&lt;br&gt;Location: 24626 - 25457" locus_tag="ctg2_21" class="clusterblast-orf" id="dummy-1_q20_0_all"  />
<polygon points="729,40 738,40 743,35 738,30 729,30 729,40 " style="fill:white; stroke-width:1; stroke:black; " description="&lt;b&gt;ctg2_22&lt;/b&gt;&lt;br&gt;ctg2 22&lt;br&gt;Location: 25860 - 26349" locus_tag="ctg2_22" class="clusterblast-orf" id="dummy-1_q21_0_all"  />
<polygon points="744,35 749,30 755,30 755,40 749,40 744,35 " style="fill:white; stroke-width:1; stroke:black; " description="&lt;b&gt;ctg2_23&lt;/b&gt;&lt;br&gt;ctg2 23&lt;br&gt;Location: 26373 - 26781" locus_tag="ctg2_23" class="clusterblast-orf" id="dummy-1_q22_0_all"  />
<polygon points="755,35 760,30 780,30 780,40 760,40 755,35 " style="fill:white; stroke-width:1; stroke:black; " description="&lt;b&gt;ctg2_24&lt;/b&gt;&lt;br&gt;ctg2 24&lt;br&gt;Location: 26793 - 27654" locus_tag="ctg2_24" class="clusterblast-orf" id="dummy-1_q23_0_all"  />
</g>
<g label="NZ_JYJG01000294" description="NZ_JYJG01000294_c45: Lechevalieria aerocolonigenes strain NRRL B-16140 contig... (37% of genes show similarity), nrps" class="clusterblast-cluster"  >
<text x="5" y="70" class="clusterblast-acc"  >
<a xlink:href="https://antismash-db.secondarymetabolites.org/go/NZ_JYJG01000294/45" target="_blank">NZ_JYJG01000294_c45</a>: Lechevalieria aerocolonigenes strain NRRL B-16140 contig... (37% of genes show similarity), nrps</text>
<line x1="10" y1="85" x2="778.0" y2="85" style="stroke-width:1; stroke:grey; "  />
</g>
<g id="a1_000"  >
<polygon points="10,85 15,80 49,80 49,90 15,90 10,85 " style="fill:#d81515; stroke-width:1; stroke:black; " description="&lt;b&gt;UK23_RS33650&lt;/b&gt;&lt;br&gt;MFS transporter&lt;br&gt;Location: 31831 - 30479&lt;br&gt;&lt;br&gt;&lt;b&gt;BlastP hit with ctg2_2&lt;/b&gt;&lt;br&gt;Percentage identity: 64&lt;br&gt;Percentage coverage: 90&lt;br&gt;BLAST bit score: 490&lt;br&gt;E-value: 2.2e-136" locus_tag="UK23_RS33650" class="clusterblast-orf" id="dummy-1_h1_4_0"  />
</g>
<g id="a1_001"  >
<polygon points="48,85 53,80 168,80 168,90 53,90 48,85 " style="fill:#56d815; stroke-width:1; stroke:black; " description="&lt;b&gt;UK23_RS33645&lt;/b&gt;&lt;br&gt;non-ribosomal peptide synthetase&lt;br&gt;Location: 30482 - 26241&lt;br&gt;&lt;br&gt;&lt;b&gt;BlastP hit with ctg2_3&lt;/b&gt;&lt;br&gt;Percentage identity: 58&lt;br&gt;Percentage coverage: 100&lt;br&gt;BLAST bit score: 1498&lt;br&gt;E-value: 0.0" locus_tag="UK23_RS33645" class="clusterblast-orf" id="dummy-1_h1_4_1"  />
</g>
<g id="a1_002"  >
<polygon points="168,85 173,80 174,80 174,90 173,90 168,85 " style="fill:#1597d8; stroke-width:1; stroke:black; " description="&lt;b&gt;UK23_RS33640&lt;/b&gt;&lt;br&gt;hypothetical protein&lt;br&gt;Location: 26248 - 26015&lt;br&gt;&lt;br&gt;&lt;b&gt;BlastP hit with ctg2_4&lt;/b&gt;&lt;br&gt;Percentage identity: 51&lt;br&gt;Percentage coverage: 89&lt;br&gt;BLAST bit score: 85&lt;br&gt;E-value: 3.4e-15" locus_tag="UK23_RS33640" class="clusterblast-orf" id="dummy-1_h1_4_2"  />
</g>
<g id="a1_003"  >
<polygon points="175,85 180,80 218,80 218,90 180,90 175,85 " style="fill:#9715d8; stroke-width:1; stroke:black; " description="&lt;b&gt;UK23_RS33635&lt;/b&gt;&lt;br&gt;long-chain-fatty-acid--CoA ligase&lt;br&gt;Location: 26003 - 24456&lt;br&gt;&lt;br&gt;&lt;b&gt;BlastP hit with ctg2_5&lt;/b&gt;&lt;br&gt;Percentage identity: 62&lt;br&gt;Percentage coverage: 97&lt;br&gt;BLAST bit score: 650&lt;br&gt;E-value: 1.8e-184" locus_tag="UK23_RS33635" class="clusterblast-orf" id="dummy-1_h1_4_3"  />
</g>
<g id="a1_004"  >
<polygon points="219,85 224,80 232,80 232,90 224,90 219,85 " style="fill:#d85615; stroke-width:1; stroke:black; " description="&lt;b&gt;UK23_RS33630&lt;/b&gt;&lt;br&gt;hypothetical protein&lt;br&gt;Location: 24452 - 23961&lt;br&gt;&lt;br&gt;&lt;b&gt;BlastP hit with ctg2_6&lt;/b&gt;&lt;br&gt;Percentage identity: 49&lt;br&gt;Percentage coverage: 89&lt;br&gt;BLAST bit score: 151&lt;br&gt;E-value: 8.9e-35" locus_tag="UK23_RS33630" class="clusterblast-orf" id="dummy-1_h1_4_4"  />
</g>
<g id="a1_005"  >
<polygon points="232,85 237,80 256,80 256,90 237,90 232,85 " style="fill:#15d815; stroke-width:1; stroke:black; " description="&lt;b&gt;UK23_RS33625&lt;/b&gt;&lt;br&gt;TauD/TfdA family dioxygenase&lt;br&gt;Location: 23960 - 23130&lt;br&gt;&lt;br&gt;&lt;b&gt;BlastP hit with ctg2_7&lt;/b&gt;&lt;br&gt;Percentage identity: 73&lt;br&gt;Percentage coverage: 96&lt;br&gt;BLAST bit score: 423&lt;br&gt;E-value: 1.5e-116" locus_tag="UK23_RS33625" class="clusterblast-orf" id="dummy-1_h1_4_5"  />
</g>
<g id="a1_006"  >
<polygon points="257,85 262,80 264,80 264,90 262,90 257,85 " style="fill:white; stroke-width:1; stroke:black; " description="&lt;b&gt;UK23_RS33620&lt;/b&gt;&lt;br&gt;acyl carrier protein&lt;br&gt;Location: 23106 - 22858" locus_tag="UK23_RS33620" class="clusterblast-orf" id="dummy-1_h1_4_6"  />
</g>
<g id="a1_007"  >
<polygon points="264,85 269,80 291,80 291,90 269,90 264,85 " style="fill:#d815d8; stroke-width:1; stroke:black; " description="&lt;b&gt;UK23_RS33615&lt;/b&gt;&lt;br&gt;ketoacyl-ACP synthase III&lt;br&gt;Location: 22844 - 21900&lt;br&gt;&lt;br&gt;&lt;b&gt;BlastP hit with ctg2_9&lt;/b&gt;&lt;br&gt;Percentage identity: 61&lt;br&gt;Percentage coverage: 96&lt;br&gt;BLAST bit score: 359&lt;br&gt;E-value: 3.1e-97" locus_tag="UK23_RS33615" class="clusterblast-orf" id="dummy-1_h1_4_7"  />
</g>
<g id="a1_008"  >
<polygon points="296,90 322,90 327,85 322,80 296,80 296,90 " style="fill:#d89715; stroke-width:1; stroke:black; " description="&lt;b&gt;UK23_RS33610&lt;/b&gt;&lt;br&gt;ABC transporter iron(III)/siderophore-binding protein&lt;br&gt;Location: 21692 - 20598&lt;br&gt;&lt;br&gt;&lt;b&gt;BlastP hit with ctg2_10&lt;/b&gt;&lt;br&gt;Percentage identity: 64&lt;br&gt;Percentage coverage: 99&lt;br&gt;BLAST bit score: 428&lt;br&gt;E-value: 7.5e-118" locus_tag="UK23_RS33610" class="clusterblast-orf" id="dummy-1_h1_4_8"  />
</g>
<g id="a1_009"  >
<polygon points="327,90 351,90 356,85 351,80 327,80 327,90 " style="fill:#15d856; stroke-width:1; stroke:black; " description="&lt;b&gt;UK23_RS33605&lt;/b&gt;&lt;br&gt;iron ABC transporter permease&lt;br&gt;Location: 20617 - 19562&lt;br&gt;&lt;br&gt;&lt;b&gt;BlastP hit with ctg2_11&lt;/b&gt;&lt;br&gt;Percentage identity: 71&lt;br&gt;Percentage coverage: 100&lt;br&gt;BLAST bit score: 453&lt;br&gt;E-value: 1.6e-125" locus_tag="UK23_RS33605" class="clusterblast-orf" id="dummy-1_h1_4_9"  />
</g>
<g id="a1_0010"  >
<polygon points="356,90 373,90 378,85 373,80 356,80 356,90 " style="fill:#1515d8; stroke-width:1; stroke:black; " description="&lt;b&gt;UK23_RS33600&lt;/b&gt;&lt;br&gt;ABC transporter ATP-binding protein&lt;br&gt;Location: 19565 - 18786&lt;br&gt;&lt;br&gt;&lt;b&gt;BlastP hit with ctg2_12&lt;/b&gt;&lt;br&gt;Percentage identity: 65&lt;br&gt;Percentage coverage: 98&lt;br&gt;BLAST bit score: 335&lt;br&gt;E-value: 4.9e-90" locus_tag="UK23_RS33600" class="clusterblast-orf" id="dummy-1_h1_4_10"  />
</g>
<g id="a1_0011"  >
<polygon points="378,85 383,80 383,80 383,90 383,90 378,85 " style="fill:white; stroke-width:1; stroke:black; " description="&lt;b&gt;UK23_RS50730&lt;/b&gt;&lt;br&gt;ABC transporter ATP-binding protein&lt;br&gt;Location: 18785 - 18630" locus_tag="UK23_RS50730" class="clusterblast-orf" id="dummy-1_h1_4_11"  />
</g>
<g id="a1_0012"  >
<polygon points="386,90 400,90 405,85 400,80 386,80 386,90 " style="fill:white; stroke-width:1; stroke:black; " description="&lt;b&gt;UK23_RS33595&lt;/b&gt;&lt;br&gt;1-acyl-sn-glycerol-3-phosphate acyltransferase&lt;br&gt;Location: 18517 - 17828" locus_tag="UK23_RS33595" class="clusterblast-orf" id="dummy-1_h1_4_12"  />
</g>
<g id="a1_0013"  >
<polygon points="410,90 418,90 423,85 418,80 410,80 410,90 " style="fill:white; stroke-width:1; stroke:black; " description="&lt;b&gt;UK23_RS33590&lt;/b&gt;&lt;br&gt;hypothetical protein&lt;br&gt;Location: 17654 - 17214" locus_tag="UK23_RS33590" class="clusterblast-orf" id="dummy-1_h1_4_13"  />
</g>
<g id="a1_0014"  >
<polygon points="422,85 427,80 434,80 434,90 427,90 422,85 " style="fill:white; stroke-width:1; stroke:black; " description="&lt;b&gt;UK23_RS33585&lt;/b&gt;&lt;br&gt;response regulator&lt;br&gt;Location: 17239 - 16799" locus_tag="UK23_RS33585" class="clusterblast-orf" id="dummy-1_h1_4_14"  />
</g>
<g id="a1_0015"  >
<polygon points="434,85 439,80 476,80 476,90 439,90 434,85 " style="fill:white; stroke-width:1; stroke:black; " description="&lt;b&gt;UK23_RS33580&lt;/b&gt;&lt;br&gt;histidine kinase&lt;br&gt;Location: 16806 - 15340" locus_tag="UK23_RS33580" class="clusterblast-orf" id="dummy-1_h1_4_15"  />
</g>
<g id="a1_0016"  >
<polygon points="477,85 482,80 510,80 510,90 482,90 477,85 " style="fill:white; stroke-width:1; stroke:black; " description="&lt;b&gt;UK23_RS33575&lt;/b&gt;&lt;br&gt;serine/threonine protein phosphatase&lt;br&gt;Location: 15277 - 14132" locus_tag="UK23_RS33575" class="clusterblast-orf" id="dummy-1_h1_4_16"  />
</g>
<g id="a1_0017"  >
<polygon points="511,90 520,90 525,85 520,80 511,80 511,90 " style="fill:white; stroke-width:1; stroke:black; " description="&lt;b&gt;UK23_RS33570&lt;/b&gt;&lt;br&gt;GNAT family N-acetyltransferase&lt;br&gt;Location: 14069 - 13581" locus_tag="UK23_RS33570" class="clusterblast-orf" id="dummy-1_h1_4_17"  />
</g>
<g id="a1_0018"  >
<polygon points="523,85 528,80 537,80 537,90 528,90 523,85 " style="fill:white; stroke-width:1; stroke:black; " description="&lt;b&gt;UK23_RS33565&lt;/b&gt;&lt;br&gt;DUF1232 domain-containing protein&lt;br&gt;Location: 13646 - 13176" locus_tag="UK23_RS33565" class="clusterblast-orf" id="dummy-1_h1_4_18"  />
</g>
<g id="a1_0019"  >
<polygon points="537,85 542,80 543,80 543,90 542,90 537,85 " style="fill:white; stroke-width:1; stroke:black; " description="&lt;b&gt;UK23_RS33560&lt;/b&gt;&lt;br&gt;hypothetical protein&lt;br&gt;Location: 13167 - 12964" locus_tag="UK23_RS33560" class="clusterblast-orf" id="dummy-1_h1_4_19"  />
</g>
<g id="a1_0020"  >
<polygon points="551,85 556,80 572,80 572,90 556,90 551,85 " style="fill:white; stroke-width:1; stroke:black; " description="&lt;b&gt;UK23_RS33555&lt;/b&gt;&lt;br&gt;hypothetical protein&lt;br&gt;Location: 12675 - 11932" locus_tag="UK23_RS33555" class="clusterblast-orf" id="dummy-1_h1_4_20"  />
</g>
<g id="a1_0021"  >
<polygon points="572,85 577,80 588,80 588,90 577,90 572,85 " style="fill:white; stroke-width:1; stroke:black; " description="&lt;b&gt;UK23_RS33550&lt;/b&gt;&lt;br&gt;RNA polymerase sigma factor SigL&lt;br&gt;Location: 11935 - 11366" locus_tag="UK23_RS33550" class="clusterblast-orf" id="dummy-1_h1_4_21"  />
</g>
<g id="a1_0022"  >
<polygon points="591,90 603,90 608,85 603,80 591,80 591,90 " style="fill:white; stroke-width:1; stroke:black; " description="&lt;b&gt;UK23_RS33545&lt;/b&gt;&lt;br&gt;hypothetical protein&lt;br&gt;Location: 11251 - 10661" locus_tag="UK23_RS33545" class="clusterblast-orf" id="dummy-1_h1_4_22"  />
</g>
<g id="a1_0023"  >
<polygon points="609,90 624,90 629,85 624,80 609,80 609,90 " style="fill:white; stroke-width:1; stroke:black; " description="&lt;b&gt;UK23_RS33540&lt;/b&gt;&lt;br&gt;DUF4142 domain-containing protein&lt;br&gt;Location: 10596 - 9886" locus_tag="UK23_RS33540" class="clusterblast-orf" id="dummy-1_h1_4_23"  />
</g>
<g id="a1_0024"  >
<polygon points="634,90 652,90 657,85 652,80 634,80 634,90 " style="fill:white; stroke-width:1; stroke:black; " description="&lt;b&gt;UK23_RS33535&lt;/b&gt;&lt;br&gt;ferredoxin&lt;br&gt;Location: 9724 - 8897" locus_tag="UK23_RS33535" class="clusterblast-orf" id="dummy-1_h1_4_24"  />
</g>
<g id="a1_0025"  >
<polygon points="657,90 691,90 696,85 691,80 657,80 657,90 " style="fill:white; stroke-width:1; stroke:black; " description="&lt;b&gt;UK23_RS33530&lt;/b&gt;&lt;br&gt;FAD-dependent oxidoreductase&lt;br&gt;Location: 8900 - 7521" locus_tag="UK23_RS33530" class="clusterblast-orf" id="dummy-1_h1_4_25"  />
</g>
<g id="a1_0026"  >
<polygon points="705,85 710,80 732,80 732,90 710,90 705,85 " style="fill:#d815d8; stroke-width:1; stroke:black; " description="&lt;b&gt;UK23_RS33525&lt;/b&gt;&lt;br&gt;ketoacyl-ACP synthase III&lt;br&gt;Location: 7207 - 6266&lt;br&gt;&lt;br&gt;&lt;b&gt;BlastP hit with ctg2_9&lt;/b&gt;&lt;br&gt;Percentage identity: 33&lt;br&gt;Percentage coverage: 96&lt;br&gt;BLAST bit score: 160&lt;br&gt;E-value: 3.6e-37" locus_tag="UK23_RS33525" class="clusterblast-orf" id="dummy-1_h1_4_26"  />
</g>
<g id="a1_0027"  >
<polygon points="734,90 746,90 751,85 746,80 734,80 734,90 " style="fill:white; stroke-width:1; stroke:black; " description="&lt;b&gt;UK23_RS33520&lt;/b&gt;&lt;br&gt;TetR/AcrR family transcriptional regulator&lt;br&gt;Location: 6184 - 5585" locus_tag="UK23_RS33520" class="clusterblast-orf" id="dummy-1_h1_4_27"  />
</g>
<g id="a1_0028"  >
<polygon points="750,85 755,80 769,80 769,90 755,90 750,85 " style="fill:white; stroke-width:1; stroke:black; " description="&lt;b&gt;UK23_RS33515&lt;/b&gt;&lt;br&gt;alpha/beta hydrolase&lt;br&gt;Location: 5607 - 4954" locus_tag="UK23_RS33515" class="clusterblast-orf" id="dummy-1_h1_4_28"  />
</g>
</svg>
