<svg xmlns="http://www.w3.org/2000/svg" xmlns:xlink="http://www.w3.org/1999/xlink" version="1.1" x="0" y="0" height="230" width="800" viewBox="0 0 800 230" preserveAspectRatio="none"  >
<g label="Query sequence" class="clusterblast-cluster"  >
<text x="5" y="20" class="clusterblast-acc"  >
Query sequence</text>
<line x1="10" y1="35" x2="778.0" y2="35" style="stroke-width:1; stroke:grey; "  />
<polygon points="338,35 342,30 342,40 338,35 " style="fill:#d81515; stroke-width:1; stroke:black; " description="&lt;b&gt;ctg95_1&lt;/b&gt;&lt;br&gt;ctg95 1&lt;br&gt;Location: 202 - 970" locus_tag="ctg95_1" class="clusterblast-orf" id="dummy-1_q0_0_all"  />
<polygon points="343,40 347,40 352,35 347,30 343,30 343,40 " style="fill:#33d815; stroke-width:1; stroke:black; " description="&lt;b&gt;ctg95_2&lt;/b&gt;&lt;br&gt;ctg95 2&lt;br&gt;Location: 1127 - 2561" locus_tag="ctg95_2" class="clusterblast-orf" id="dummy-1_q1_0_all"  />
<polygon points="352,40 354,40 359,35 354,30 352,30 352,40 " style="fill:#15abd8; stroke-width:1; stroke:black; " description="&lt;b&gt;ctg95_3&lt;/b&gt;&lt;br&gt;ctg95 3&lt;br&gt;Location: 2612 - 3731" locus_tag="ctg95_3" class="clusterblast-orf" id="dummy-1_q2_0_all"  />
<polygon points="359,40 363,35 359,30 359,40 " style="fill:#8d15d8; stroke-width:1; stroke:black; " description="&lt;b&gt;ctg95_4&lt;/b&gt;&lt;br&gt;ctg95 4&lt;br&gt;Location: 3847 - 4414" locus_tag="ctg95_4" class="clusterblast-orf" id="dummy-1_q3_0_all"  />
<polygon points="363,35 368,30 368,30 368,40 368,40 363,35 " style="fill:#d86f15; stroke-width:1; stroke:black; " description="&lt;b&gt;ctg95_5&lt;/b&gt;&lt;br&gt;ctg95 5&lt;br&gt;Location: 4429 - 5278" locus_tag="ctg95_5" class="clusterblast-orf" id="dummy-1_q4_0_all"  />
<polygon points="368,35 373,30 383,30 383,40 373,40 368,35 " style="fill:#15d851; stroke-width:1; stroke:black; " description="&lt;b&gt;ctg95_6&lt;/b&gt;&lt;br&gt;ctg95 6&lt;br&gt;Location: 5278 - 7786" locus_tag="ctg95_6" class="clusterblast-orf" id="dummy-1_q5_0_all"  />
<polygon points="383,35 388,30 389,30 389,40 388,40 383,35 " style="fill:#1551d8; stroke-width:1; stroke:black; " description="&lt;b&gt;ctg95_7&lt;/b&gt;&lt;br&gt;ctg95 7&lt;br&gt;Location: 7916 - 8792" locus_tag="ctg95_7" class="clusterblast-orf" id="dummy-1_q6_0_all"  />
<polygon points="389,35 394,30 400,30 400,40 394,40 389,35 " style="fill:#1551d8; stroke-width:1; stroke:black; " description="&lt;b&gt;ctg95_8&lt;/b&gt;&lt;br&gt;ctg95 8&lt;br&gt;Location: 8788 - 10627" locus_tag="ctg95_8" class="clusterblast-orf" id="dummy-1_q7_0_all"  />
<polygon points="400,35 405,30 405,30 405,40 405,40 400,35 " style="fill:#d815c9; stroke-width:1; stroke:black; " description="&lt;b&gt;ctg95_9&lt;/b&gt;&lt;br&gt;ctg95 9&lt;br&gt;Location: 10643 - 11633" locus_tag="ctg95_9" class="clusterblast-orf" id="dummy-1_q8_0_all"  />
<polygon points="406,35 411,30 416,30 416,40 411,40 406,35 " style="fill:#d8c915; stroke-width:1; stroke:black; " description="&lt;b&gt;ctg95_10&lt;/b&gt;&lt;br&gt;ctg95 10&lt;br&gt;Location: 11664 - 13362" locus_tag="ctg95_10" class="clusterblast-orf" id="dummy-1_q9_0_all"  />
<polygon points="417,40 419,40 424,35 419,30 417,30 417,40 " style="fill:#15d8ab; stroke-width:1; stroke:black; " description="&lt;b&gt;ctg95_11&lt;/b&gt;&lt;br&gt;ctg95 11&lt;br&gt;Location: 13533 - 14811" locus_tag="ctg95_11" class="clusterblast-orf" id="dummy-1_q10_0_all"  />
<polygon points="426,40 428,40 433,35 428,30 426,30 426,40 " style="fill:#3315d8; stroke-width:1; stroke:black; " description="&lt;b&gt;ctg95_12&lt;/b&gt;&lt;br&gt;ctg95 12&lt;br&gt;Location: 15050 - 16256" locus_tag="ctg95_12" class="clusterblast-orf" id="dummy-1_q11_0_all"  />
<polygon points="433,40 435,40 440,35 435,30 433,30 433,40 " style="fill:#d8156f; stroke-width:1; stroke:black; " description="&lt;b&gt;ctg95_13&lt;/b&gt;&lt;br&gt;ctg95 13&lt;br&gt;Location: 16336 - 17458" locus_tag="ctg95_13" class="clusterblast-orf" id="dummy-1_q12_0_all"  />
<polygon points="441,35 441,30 441,40 441,35 " style="fill:#8dd815; stroke-width:1; stroke:black; " description="&lt;b&gt;ctg95_14&lt;/b&gt;&lt;br&gt;ctg95 14&lt;br&gt;Location: 17536 - 17698" locus_tag="ctg95_14" class="clusterblast-orf" id="dummy-1_q13_0_all"  />
</g>
<g label="NZ_CP009313" description="NZ_CP009313_c15: Streptomyces nodosus strain ATCC 14899 genome (12% of genes show similarity), t2pks-oligosaccharide-terpene-t3pks-nrps" class="clusterblast-cluster"  >
<text x="5" y="70" class="clusterblast-acc"  >
<a xlink:href="https://antismash-db.secondarymetabolites.org/go/NZ_CP009313/15" target="_blank">NZ_CP009313_c15</a>: Streptomyces nodosus strain ATCC 14899 genome (12% of genes show similarity), t2pks-oligosaccharide-terpene-t3pks-nrps</text>
<line x1="10" y1="85" x2="778.0" y2="85" style="stroke-width:1; stroke:grey; "  />
</g>
<g id="a1_000"  >
<polygon points="0,90 4,85 0,80 0,90 " style="fill:#1551d8; stroke-width:1; stroke:black; " description="&lt;b&gt;SNOD_RS28295&lt;/b&gt;&lt;br&gt;ABC transporter ATP-binding protein&lt;br&gt;Location: 6569816 - 6570622&lt;br&gt;&lt;br&gt;&lt;b&gt;BlastP hit with ctg95_7&lt;/b&gt;&lt;br&gt;Percentage identity: 41&lt;br&gt;Percentage coverage: 92&lt;br&gt;BLAST bit score: 166&lt;br&gt;E-value: 5.7e-39&lt;br&gt;&lt;br&gt;&lt;b&gt;BlastP hit with ctg95_8&lt;/b&gt;&lt;br&gt;Percentage identity: 38&lt;br&gt;Percentage coverage: 39&lt;br&gt;BLAST bit score: 146&lt;br&gt;E-value: 9.8e-33" locus_tag="SNOD_RS28295" class="clusterblast-orf" id="dummy-1_h1_10_0"  />
</g>
<g id="a1_001"  >
<polygon points="4,90 9,90 14,85 9,80 4,80 4,90 " style="fill:white; stroke-width:1; stroke:black; " description="&lt;b&gt;SNOD_RS28300&lt;/b&gt;&lt;br&gt;ABC transporter substrate-binding protein&lt;br&gt;Location: 6570637 - 6572289" locus_tag="SNOD_RS28300" class="clusterblast-orf" id="dummy-1_h1_10_1"  />
</g>
<g id="a1_002"  >
<polygon points="14,85 19,80 29,80 29,90 19,90 14,85 " style="fill:white; stroke-width:1; stroke:black; " description="&lt;b&gt;SNOD_RS28305&lt;/b&gt;&lt;br&gt;ABC transporter permease&lt;br&gt;Location: 6572340 - 6574826" locus_tag="SNOD_RS28305" class="clusterblast-orf" id="dummy-1_h1_10_2"  />
</g>
<g id="a1_003"  >
<polygon points="29,85 34,80 34,80 34,90 34,90 29,85 " style="fill:white; stroke-width:1; stroke:black; " description="&lt;b&gt;SNOD_RS28310&lt;/b&gt;&lt;br&gt;ABC transporter ATP-binding protein&lt;br&gt;Location: 6574823 - 6575638" locus_tag="SNOD_RS28310" class="clusterblast-orf" id="dummy-1_h1_10_3"  />
</g>
<g id="a1_004"  >
<polygon points="38,90 46,90 51,85 46,80 38,80 38,90 " style="fill:white; stroke-width:1; stroke:black; " description="&lt;b&gt;SNOD_RS35355&lt;/b&gt;&lt;br&gt;hypothetical protein&lt;br&gt;Location: 6576325 - 6578562" locus_tag="SNOD_RS35355" class="clusterblast-orf" id="dummy-1_h1_10_4"  />
</g>
<g id="a1_005"  >
<polygon points="52,90 55,85 52,80 52,90 " style="fill:white; stroke-width:1; stroke:black; " description="&lt;b&gt;SNOD_RS28320&lt;/b&gt;&lt;br&gt;roadblock/LC7 domain-containing protein&lt;br&gt;Location: 6578623 - 6579135" locus_tag="SNOD_RS28320" class="clusterblast-orf" id="dummy-1_h1_10_5"  />
</g>
<g id="a1_006"  >
<polygon points="56,90 57,90 62,85 57,80 56,80 56,90 " style="fill:white; stroke-width:1; stroke:black; " description="&lt;b&gt;SNOD_RS28325&lt;/b&gt;&lt;br&gt;L-threonine 3-dehydrogenase&lt;br&gt;Location: 6579260 - 6580288" locus_tag="SNOD_RS28325" class="clusterblast-orf" id="dummy-1_h1_10_6"  />
</g>
<g id="a1_007"  >
<polygon points="62,90 64,90 69,85 64,80 62,80 62,90 " style="fill:white; stroke-width:1; stroke:black; " description="&lt;b&gt;SNOD_RS28330&lt;/b&gt;&lt;br&gt;glycine C-acetyltransferase&lt;br&gt;Location: 6580326 - 6581519" locus_tag="SNOD_RS28330" class="clusterblast-orf" id="dummy-1_h1_10_7"  />
</g>
<g id="a1_008"  >
<polygon points="69,90 70,90 75,85 70,80 69,80 69,90 " style="fill:white; stroke-width:1; stroke:black; " description="&lt;b&gt;SNOD_RS28335&lt;/b&gt;&lt;br&gt;LysR family transcriptional regulator&lt;br&gt;Location: 6581550 - 6582455" locus_tag="SNOD_RS28335" class="clusterblast-orf" id="dummy-1_h1_10_8"  />
</g>
<g id="a1_009"  >
<polygon points="76,90 78,85 76,80 76,90 " style="fill:white; stroke-width:1; stroke:black; " description="&lt;b&gt;SNOD_RS28340&lt;/b&gt;&lt;br&gt;MmcQ/YjbR family DNA-binding protein&lt;br&gt;Location: 6582632 - 6582991" locus_tag="SNOD_RS28340" class="clusterblast-orf" id="dummy-1_h1_10_9"  />
</g>
<g id="a1_0010"  >
<polygon points="80,85 85,80 86,80 86,90 85,90 80,85 " style="fill:white; stroke-width:1; stroke:black; " description="&lt;b&gt;SNOD_RS28350&lt;/b&gt;&lt;br&gt;serine/threonine-protein phosphatase&lt;br&gt;Location: 6583294 - 6584445" locus_tag="SNOD_RS28350" class="clusterblast-orf" id="dummy-1_h1_10_10"  />
</g>
<g id="a1_0011"  >
<polygon points="88,90 90,90 95,85 90,80 88,80 88,90 " style="fill:white; stroke-width:1; stroke:black; " description="&lt;b&gt;SNOD_RS28355&lt;/b&gt;&lt;br&gt;serine/threonine-protein phosphatase&lt;br&gt;Location: 6584707 - 6585879" locus_tag="SNOD_RS28355" class="clusterblast-orf" id="dummy-1_h1_10_11"  />
</g>
<g id="a1_0012"  >
<polygon points="95,90 99,85 95,80 95,90 " style="fill:white; stroke-width:1; stroke:black; " description="&lt;b&gt;SNOD_RS28360&lt;/b&gt;&lt;br&gt;SigE family RNA polymerase sigma factor&lt;br&gt;Location: 6585944 - 6586498" locus_tag="SNOD_RS28360" class="clusterblast-orf" id="dummy-1_h1_10_12"  />
</g>
<g id="a1_0013"  >
<polygon points="98,90 102,85 98,80 98,90 " style="fill:white; stroke-width:1; stroke:black; " description="&lt;b&gt;SNOD_RS28365&lt;/b&gt;&lt;br&gt;hypothetical protein&lt;br&gt;Location: 6586491 - 6587087" locus_tag="SNOD_RS28365" class="clusterblast-orf" id="dummy-1_h1_10_13"  />
</g>
<g id="a1_0014"  >
<polygon points="103,90 106,85 103,80 103,90 " style="fill:white; stroke-width:1; stroke:black; " description="&lt;b&gt;SNOD_RS28370&lt;/b&gt;&lt;br&gt;hypothetical protein&lt;br&gt;Location: 6587187 - 6587828" locus_tag="SNOD_RS28370" class="clusterblast-orf" id="dummy-1_h1_10_14"  />
</g>
<g id="a1_0015"  >
<polygon points="107,85 112,80 112,80 112,90 112,90 107,85 " style="fill:white; stroke-width:1; stroke:black; " description="&lt;b&gt;SNOD_RS28375&lt;/b&gt;&lt;br&gt;hypothetical protein&lt;br&gt;Location: 6587952 - 6588779" locus_tag="SNOD_RS28375" class="clusterblast-orf" id="dummy-1_h1_10_15"  />
</g>
<g id="a1_0016"  >
<polygon points="113,85 116,80 116,90 113,85 " style="fill:white; stroke-width:1; stroke:black; " description="&lt;b&gt;SNOD_RS28380&lt;/b&gt;&lt;br&gt;membrane protein&lt;br&gt;Location: 6588874 - 6589404" locus_tag="SNOD_RS28380" class="clusterblast-orf" id="dummy-1_h1_10_16"  />
</g>
<g id="a1_0017"  >
<polygon points="116,85 121,80 122,80 122,90 121,90 116,85 " style="fill:#d8156f; stroke-width:1; stroke:black; " description="&lt;b&gt;SNOD_RS28385&lt;/b&gt;&lt;br&gt;stilbene synthase&lt;br&gt;Location: 6589432 - 6590490&lt;br&gt;&lt;br&gt;&lt;b&gt;BlastP hit with ctg95_13&lt;/b&gt;&lt;br&gt;Percentage identity: 32&lt;br&gt;Percentage coverage: 90&lt;br&gt;BLAST bit score: 173&lt;br&gt;E-value: 4.5e-41" locus_tag="SNOD_RS28385" class="clusterblast-orf" id="dummy-1_h1_10_17"  />
</g>
<g id="a1_0018"  >
<polygon points="123,90 124,85 123,80 123,90 " style="fill:white; stroke-width:1; stroke:black; " description="&lt;b&gt;SNOD_RS36235&lt;/b&gt;&lt;br&gt;SAM-dependent methyltransferase&lt;br&gt;Location: 6590688 - 6590866" locus_tag="SNOD_RS36235" class="clusterblast-orf" id="dummy-1_h1_10_18"  />
</g>
<g id="a1_0019"  >
<polygon points="128,90 132,85 128,80 128,90 " style="fill:white; stroke-width:1; stroke:black; " description="&lt;b&gt;SNOD_RS36240&lt;/b&gt;&lt;br&gt;hypothetical protein&lt;br&gt;Location: 6591446 - 6592106" locus_tag="SNOD_RS36240" class="clusterblast-orf" id="dummy-1_h1_10_19"  />
</g>
<g id="a1_0020"  >
<polygon points="130,85 134,80 134,90 130,85 " style="fill:white; stroke-width:1; stroke:black; " description="&lt;b&gt;SNOD_RS28390&lt;/b&gt;&lt;br&gt;hypothetical protein&lt;br&gt;Location: 6591821 - 6592540" locus_tag="SNOD_RS28390" class="clusterblast-orf" id="dummy-1_h1_10_20"  />
</g>
<g id="a1_0021"  >
<polygon points="138,90 138,90 143,85 138,80 138,80 138,90 " style="fill:white; stroke-width:1; stroke:black; " description="&lt;b&gt;SNOD_RS28395&lt;/b&gt;&lt;br&gt;DNA-binding response regulator&lt;br&gt;Location: 6593190 - 6593954" locus_tag="SNOD_RS28395" class="clusterblast-orf" id="dummy-1_h1_10_21"  />
</g>
<g id="a1_0022"  >
<polygon points="143,90 147,85 143,80 143,90 " style="fill:white; stroke-width:1; stroke:black; " description="&lt;b&gt;SNOD_RS35370&lt;/b&gt;&lt;br&gt;hypothetical protein&lt;br&gt;Location: 6594021 - 6594671" locus_tag="SNOD_RS35370" class="clusterblast-orf" id="dummy-1_h1_10_22"  />
</g>
<g id="a1_0023"  >
<polygon points="147,85 149,80 149,90 147,85 " style="fill:white; stroke-width:1; stroke:black; " description="&lt;b&gt;SNOD_RS28405&lt;/b&gt;&lt;br&gt;hypothetical protein&lt;br&gt;Location: 6594718 - 6594948" locus_tag="SNOD_RS28405" class="clusterblast-orf" id="dummy-1_h1_10_23"  />
</g>
<g id="a1_0024"  >
<polygon points="149,85 152,80 152,90 149,85 " style="fill:white; stroke-width:1; stroke:black; " description="&lt;b&gt;SNOD_RS28410&lt;/b&gt;&lt;br&gt;hypothetical protein&lt;br&gt;Location: 6595067 - 6595504" locus_tag="SNOD_RS28410" class="clusterblast-orf" id="dummy-1_h1_10_24"  />
</g>
<g id="a1_0025"  >
<polygon points="153,85 158,80 162,80 162,90 158,90 153,85 " style="fill:white; stroke-width:1; stroke:black; " description="&lt;b&gt;SNOD_RS28415&lt;/b&gt;&lt;br&gt;FAD-binding protein&lt;br&gt;Location: 6595620 - 6597203" locus_tag="SNOD_RS28415" class="clusterblast-orf" id="dummy-1_h1_10_25"  />
</g>
<g id="a1_0026"  >
<polygon points="163,85 167,80 167,90 163,85 " style="fill:white; stroke-width:1; stroke:black; " description="&lt;b&gt;SNOD_RS28420&lt;/b&gt;&lt;br&gt;hypothetical protein&lt;br&gt;Location: 6597371 - 6598018" locus_tag="SNOD_RS28420" class="clusterblast-orf" id="dummy-1_h1_10_26"  />
</g>
<g id="a1_0027"  >
<polygon points="167,85 172,80 177,80 177,90 172,90 167,85 " style="fill:white; stroke-width:1; stroke:black; " description="&lt;b&gt;SNOD_RS28425&lt;/b&gt;&lt;br&gt;acyl-CoA carboxylase subunit beta&lt;br&gt;Location: 6598077 - 6599669" locus_tag="SNOD_RS28425" class="clusterblast-orf" id="dummy-1_h1_10_27"  />
</g>
<g id="a1_0028"  >
<polygon points="177,85 182,80 182,80 182,90 182,90 177,85 " style="fill:white; stroke-width:1; stroke:black; " description="&lt;b&gt;SNOD_RS28430&lt;/b&gt;&lt;br&gt;phosphopantheine-transferase PgaX&lt;br&gt;Location: 6599666 - 6600499" locus_tag="SNOD_RS28430" class="clusterblast-orf" id="dummy-1_h1_10_28"  />
</g>
<g id="a1_0029"  >
<polygon points="182,85 187,80 187,80 187,90 187,90 182,85 " style="fill:white; stroke-width:1; stroke:black; " description="&lt;b&gt;SNOD_RS28435&lt;/b&gt;&lt;br&gt;gfo/Idh/MocA family oxidoreductase&lt;br&gt;Location: 6600496 - 6601455" locus_tag="SNOD_RS28435" class="clusterblast-orf" id="dummy-1_h1_10_29"  />
</g>
<g id="a1_0030"  >
<polygon points="187,85 192,80 196,80 196,90 192,90 187,85 " style="fill:white; stroke-width:1; stroke:black; " description="&lt;b&gt;SNOD_RS28440&lt;/b&gt;&lt;br&gt;NDP-hexose 2,3-dehydratase&lt;br&gt;Location: 6601452 - 6602852" locus_tag="SNOD_RS28440" class="clusterblast-orf" id="dummy-1_h1_10_30"  />
</g>
<g id="a1_0031"  >
<polygon points="197,85 202,80 202,80 202,90 202,90 197,85 " style="fill:white; stroke-width:1; stroke:black; " description="&lt;b&gt;SNOD_RS28445&lt;/b&gt;&lt;br&gt;NDP-hexose 4-ketoreductase&lt;br&gt;Location: 6603151 - 6603897" locus_tag="SNOD_RS28445" class="clusterblast-orf" id="dummy-1_h1_10_31"  />
</g>
<g id="a1_0032"  >
<polygon points="202,85 207,80 210,80 210,90 207,90 202,85 " style="fill:white; stroke-width:1; stroke:black; " description="&lt;b&gt;SNOD_RS28450&lt;/b&gt;&lt;br&gt;lipopolysaccharide biosynthesis protein RfbH&lt;br&gt;Location: 6603941 - 6605245" locus_tag="SNOD_RS28450" class="clusterblast-orf" id="dummy-1_h1_10_32"  />
</g>
<g id="a1_0033"  >
<polygon points="210,85 215,80 216,80 216,90 215,90 210,85 " style="fill:white; stroke-width:1; stroke:black; " description="&lt;b&gt;SNOD_RS28455&lt;/b&gt;&lt;br&gt;NAD(P)-dependent oxidoreductase&lt;br&gt;Location: 6605242 - 6606300" locus_tag="SNOD_RS28455" class="clusterblast-orf" id="dummy-1_h1_10_33"  />
</g>
<g id="a1_0034"  >
<polygon points="216,85 221,80 222,80 222,90 221,90 216,85 " style="fill:white; stroke-width:1; stroke:black; " description="&lt;b&gt;SNOD_RS28460&lt;/b&gt;&lt;br&gt;dTDP-glucose 4,6-dehydratase&lt;br&gt;Location: 6606290 - 6607273" locus_tag="SNOD_RS28460" class="clusterblast-orf" id="dummy-1_h1_10_34"  />
</g>
<g id="a1_0035"  >
<polygon points="222,85 227,80 228,80 228,90 227,90 222,85 " style="fill:white; stroke-width:1; stroke:black; " description="&lt;b&gt;SNOD_RS28465&lt;/b&gt;&lt;br&gt;glucose-1-phosphate thymidylyltransferase&lt;br&gt;Location: 6607270 - 6608337" locus_tag="SNOD_RS28465" class="clusterblast-orf" id="dummy-1_h1_10_35"  />
</g>
<g id="a1_0036"  >
<polygon points="228,85 233,80 235,80 235,90 233,90 228,85 " style="fill:white; stroke-width:1; stroke:black; " description="&lt;b&gt;SNOD_RS28470&lt;/b&gt;&lt;br&gt;glycosyltransferase&lt;br&gt;Location: 6608364 - 6609491" locus_tag="SNOD_RS28470" class="clusterblast-orf" id="dummy-1_h1_10_36"  />
</g>
<g id="a1_0037"  >
<polygon points="235,85 238,80 238,90 235,85 " style="fill:white; stroke-width:1; stroke:black; " description="&lt;b&gt;SNOD_RS28475&lt;/b&gt;&lt;br&gt;dTDP-4-keto-6-deoxy-D-glucose epimerase&lt;br&gt;Location: 6609494 - 6610060" locus_tag="SNOD_RS28475" class="clusterblast-orf" id="dummy-1_h1_10_37"  />
</g>
<g id="a1_0038"  >
<polygon points="239,85 244,80 246,80 246,90 244,90 239,85 " style="fill:white; stroke-width:1; stroke:black; " description="&lt;b&gt;SNOD_RS28480&lt;/b&gt;&lt;br&gt;DUF1205 domain-containing protein&lt;br&gt;Location: 6610075 - 6611271" locus_tag="SNOD_RS28480" class="clusterblast-orf" id="dummy-1_h1_10_38"  />
</g>
<g id="a1_0039"  >
<polygon points="246,85 251,80 254,80 254,90 251,90 246,85 " style="fill:white; stroke-width:1; stroke:black; " description="&lt;b&gt;SNOD_RS28485&lt;/b&gt;&lt;br&gt;activator-dependent family glycosyltransferase&lt;br&gt;Location: 6611308 - 6612600" locus_tag="SNOD_RS28485" class="clusterblast-orf" id="dummy-1_h1_10_39"  />
</g>
<g id="a1_0040"  >
<polygon points="254,85 259,80 261,80 261,90 259,90 254,85 " style="fill:white; stroke-width:1; stroke:black; " description="&lt;b&gt;SNOD_RS28490&lt;/b&gt;&lt;br&gt;MFS transporter&lt;br&gt;Location: 6612681 - 6613892" locus_tag="SNOD_RS28490" class="clusterblast-orf" id="dummy-1_h1_10_40"  />
</g>
<g id="a1_0041"  >
<polygon points="261,85 266,80 273,80 273,90 266,90 261,85 " style="fill:white; stroke-width:1; stroke:black; " description="&lt;b&gt;SNOD_RS28495&lt;/b&gt;&lt;br&gt;KR domain-containing protein&lt;br&gt;Location: 6613913 - 6615898" locus_tag="SNOD_RS28495" class="clusterblast-orf" id="dummy-1_h1_10_41"  />
</g>
<g id="a1_0042"  >
<polygon points="273,85 278,80 279,80 279,90 278,90 273,85 " style="fill:white; stroke-width:1; stroke:black; " description="&lt;b&gt;SNOD_RS28500&lt;/b&gt;&lt;br&gt;cyclase&lt;br&gt;Location: 6615901 - 6616836" locus_tag="SNOD_RS28500" class="clusterblast-orf" id="dummy-1_h1_10_42"  />
</g>
<g id="a1_0043"  >
<polygon points="279,85 283,80 283,90 279,85 " style="fill:white; stroke-width:1; stroke:black; " description="&lt;b&gt;SNOD_RS28505&lt;/b&gt;&lt;br&gt;3-oxoacyl-ACP reductase FabG&lt;br&gt;Location: 6616857 - 6617642" locus_tag="SNOD_RS28505" class="clusterblast-orf" id="dummy-1_h1_10_43"  />
</g>
<g id="a1_0044"  >
<polygon points="284,85 286,80 286,90 284,85 " style="fill:white; stroke-width:1; stroke:black; " description="&lt;b&gt;SNOD_RS28510&lt;/b&gt;&lt;br&gt;acyl carrier protein&lt;br&gt;Location: 6617762 - 6618031" locus_tag="SNOD_RS28510" class="clusterblast-orf" id="dummy-1_h1_10_44"  />
</g>
<g id="a1_0045"  >
<polygon points="286,85 291,80 294,80 294,90 291,90 286,85 " style="fill:white; stroke-width:1; stroke:black; " description="&lt;b&gt;SNOD_RS28515&lt;/b&gt;&lt;br&gt;ketosynthase chain-length factor&lt;br&gt;Location: 6618125 - 6619351" locus_tag="SNOD_RS28515" class="clusterblast-orf" id="dummy-1_h1_10_45"  />
</g>
<g id="a1_0046"  >
<polygon points="294,85 299,80 301,80 301,90 299,90 294,85 " style="fill:white; stroke-width:1; stroke:black; " description="&lt;b&gt;SNOD_RS28520&lt;/b&gt;&lt;br&gt;beta-ketoacyl-[acyl-carrier-protein] synthase family protein&lt;br&gt;Location: 6619348 - 6620628" locus_tag="SNOD_RS28520" class="clusterblast-orf" id="dummy-1_h1_10_46"  />
</g>
<g id="a1_0047"  >
<polygon points="301,85 303,80 303,90 301,85 " style="fill:white; stroke-width:1; stroke:black; " description="&lt;b&gt;SNOD_RS28525&lt;/b&gt;&lt;br&gt;TcmI family type II polyketide cyclase&lt;br&gt;Location: 6620625 - 6620951" locus_tag="SNOD_RS28525" class="clusterblast-orf" id="dummy-1_h1_10_47"  />
</g>
<g id="a1_0048"  >
<polygon points="303,85 308,80 312,80 312,90 308,90 303,85 " style="fill:white; stroke-width:1; stroke:black; " description="&lt;b&gt;SNOD_RS28530&lt;/b&gt;&lt;br&gt;monooxygenase&lt;br&gt;Location: 6620965 - 6622452" locus_tag="SNOD_RS28530" class="clusterblast-orf" id="dummy-1_h1_10_48"  />
</g>
<g id="a1_0049"  >
<polygon points="314,85 319,80 319,80 319,90 319,90 314,85 " style="fill:white; stroke-width:1; stroke:black; " description="&lt;b&gt;SNOD_RS33825&lt;/b&gt;&lt;br&gt;hypothetical protein&lt;br&gt;Location: 6622757 - 6623617" locus_tag="SNOD_RS33825" class="clusterblast-orf" id="dummy-1_h1_10_49"  />
</g>
<g id="a1_0050"  >
<polygon points="320,85 324,80 324,90 320,85 " style="fill:white; stroke-width:1; stroke:black; " description="&lt;b&gt;SNOD_RS28540&lt;/b&gt;&lt;br&gt;TetR/AcrR family transcriptional regulator&lt;br&gt;Location: 6623747 - 6624484" locus_tag="SNOD_RS28540" class="clusterblast-orf" id="dummy-1_h1_10_50"  />
</g>
<g id="a1_0051"  >
<polygon points="325,90 328,85 325,80 325,90 " style="fill:white; stroke-width:1; stroke:black; " description="&lt;b&gt;SNOD_RS28545&lt;/b&gt;&lt;br&gt;NADPH-dependent FMN reductase&lt;br&gt;Location: 6624601 - 6625200" locus_tag="SNOD_RS28545" class="clusterblast-orf" id="dummy-1_h1_10_51"  />
</g>
<g id="a1_0052"  >
<polygon points="329,90 333,90 338,85 333,80 329,80 329,90 " style="fill:white; stroke-width:1; stroke:black; " description="&lt;b&gt;SNOD_RS28550&lt;/b&gt;&lt;br&gt;MFS transporter&lt;br&gt;Location: 6625303 - 6626811" locus_tag="SNOD_RS28550" class="clusterblast-orf" id="dummy-1_h1_10_52"  />
</g>
<g id="a1_0053"  >
<polygon points="339,90 340,90 345,85 340,80 339,80 339,90 " style="fill:white; stroke-width:1; stroke:black; " description="&lt;b&gt;SNOD_RS28555&lt;/b&gt;&lt;br&gt;12-oxophytodienoate reductase&lt;br&gt;Location: 6626917 - 6628035" locus_tag="SNOD_RS28555" class="clusterblast-orf" id="dummy-1_h1_10_53"  />
</g>
<g id="a1_0054"  >
<polygon points="346,85 351,80 357,80 357,90 351,90 346,85 " style="fill:white; stroke-width:1; stroke:black; " description="&lt;b&gt;SNOD_RS28560&lt;/b&gt;&lt;br&gt;sensor histidine kinase&lt;br&gt;Location: 6628194 - 6630026" locus_tag="SNOD_RS28560" class="clusterblast-orf" id="dummy-1_h1_10_54"  />
</g>
<g id="a1_0055"  >
<polygon points="357,85 361,80 361,90 357,85 " style="fill:white; stroke-width:1; stroke:black; " description="&lt;b&gt;SNOD_RS28565&lt;/b&gt;&lt;br&gt;DNA-binding response regulator&lt;br&gt;Location: 6630023 - 6630781" locus_tag="SNOD_RS28565" class="clusterblast-orf" id="dummy-1_h1_10_55"  />
</g>
<g id="a1_0056"  >
<polygon points="363,90 366,85 363,80 363,90 " style="fill:white; stroke-width:1; stroke:black; " description="&lt;b&gt;SNOD_RS28570&lt;/b&gt;&lt;br&gt;hypothetical protein&lt;br&gt;Location: 6631017 - 6631595" locus_tag="SNOD_RS28570" class="clusterblast-orf" id="dummy-1_h1_10_56"  />
</g>
<g id="a1_0057"  >
<polygon points="367,90 368,90 373,85 368,80 367,80 367,90 " style="fill:white; stroke-width:1; stroke:black; " description="&lt;b&gt;SNOD_RS28575&lt;/b&gt;&lt;br&gt;hypothetical protein&lt;br&gt;Location: 6631654 - 6632739" locus_tag="SNOD_RS28575" class="clusterblast-orf" id="dummy-1_h1_10_57"  />
</g>
<g id="a1_0058"  >
<polygon points="373,90 373,90 378,85 373,80 373,80 373,90 " style="fill:#1551d8; stroke-width:1; stroke:black; " description="&lt;b&gt;SNOD_RS28580&lt;/b&gt;&lt;br&gt;ABC transporter ATP-binding protein&lt;br&gt;Location: 6632736 - 6633548&lt;br&gt;&lt;br&gt;&lt;b&gt;BlastP hit with ctg95_7&lt;/b&gt;&lt;br&gt;Percentage identity: 41&lt;br&gt;Percentage coverage: 72&lt;br&gt;BLAST bit score: 106&lt;br&gt;E-value: 6.9e-21&lt;br&gt;&lt;br&gt;&lt;b&gt;BlastP hit with ctg95_8&lt;/b&gt;&lt;br&gt;Percentage identity: 35&lt;br&gt;Percentage coverage: 45&lt;br&gt;BLAST bit score: 109&lt;br&gt;E-value: 1.3e-21" locus_tag="SNOD_RS28580" class="clusterblast-orf" id="dummy-1_h1_10_58"  />
</g>
<g id="a1_0059"  >
<polygon points="379,90 381,90 386,85 381,80 379,80 379,90 " style="fill:white; stroke-width:1; stroke:black; " description="&lt;b&gt;SNOD_RS28585&lt;/b&gt;&lt;br&gt;ABC transporter permease&lt;br&gt;Location: 6633659 - 6634843" locus_tag="SNOD_RS28585" class="clusterblast-orf" id="dummy-1_h1_10_59"  />
</g>
<g id="a1_0060"  >
<polygon points="387,85 391,80 391,90 387,85 " style="fill:white; stroke-width:1; stroke:black; " description="&lt;b&gt;SNOD_RS28590&lt;/b&gt;&lt;br&gt;hypothetical protein&lt;br&gt;Location: 6635020 - 6635700" locus_tag="SNOD_RS28590" class="clusterblast-orf" id="dummy-1_h1_10_60"  />
</g>
<g id="a1_0061"  >
<polygon points="392,85 397,80 402,80 402,90 397,90 392,85 " style="fill:white; stroke-width:1; stroke:black; " description="&lt;b&gt;SNOD_RS28595&lt;/b&gt;&lt;br&gt;ABC transporter family substrate-binding protein&lt;br&gt;Location: 6635931 - 6637610" locus_tag="SNOD_RS28595" class="clusterblast-orf" id="dummy-1_h1_10_61"  />
</g>
<g id="a1_0062"  >
<polygon points="402,85 407,80 415,80 415,90 407,90 402,85 " style="fill:#1551d8; stroke-width:1; stroke:black; " description="&lt;b&gt;SNOD_RS28600&lt;/b&gt;&lt;br&gt;ABC transporter ATP-binding protein&lt;br&gt;Location: 6637631 - 6639784&lt;br&gt;&lt;br&gt;&lt;b&gt;BlastP hit with ctg95_7&lt;/b&gt;&lt;br&gt;Percentage identity: 38&lt;br&gt;Percentage coverage: 95&lt;br&gt;BLAST bit score: 148&lt;br&gt;E-value: 9.3e-34&lt;br&gt;&lt;br&gt;&lt;b&gt;BlastP hit with ctg95_8&lt;/b&gt;&lt;br&gt;Percentage identity: 38&lt;br&gt;Percentage coverage: 41&lt;br&gt;BLAST bit score: 158&lt;br&gt;E-value: 1.9e-36" locus_tag="SNOD_RS28600" class="clusterblast-orf" id="dummy-1_h1_10_62"  />
</g>
<g id="a1_0063"  >
<polygon points="415,85 420,80 421,80 421,90 420,90 415,85 " style="fill:#1551d8; stroke-width:1; stroke:black; " description="&lt;b&gt;SNOD_RS28605&lt;/b&gt;&lt;br&gt;ABC transporter permease&lt;br&gt;Location: 6639781 - 6640737&lt;br&gt;&lt;br&gt;&lt;b&gt;BlastP hit with ctg95_8&lt;/b&gt;&lt;br&gt;Percentage identity: 34&lt;br&gt;Percentage coverage: 38&lt;br&gt;BLAST bit score: 113&lt;br&gt;E-value: 7e-23" locus_tag="SNOD_RS28605" class="clusterblast-orf" id="dummy-1_h1_10_63"  />
</g>
<g id="a1_0064"  >
<polygon points="421,85 426,80 426,80 426,90 426,90 421,85 " style="fill:white; stroke-width:1; stroke:black; " description="&lt;b&gt;SNOD_RS28610&lt;/b&gt;&lt;br&gt;ABC transporter permease&lt;br&gt;Location: 6640739 - 6641722" locus_tag="SNOD_RS28610" class="clusterblast-orf" id="dummy-1_h1_10_64"  />
</g>
<g id="a1_0065"  >
<polygon points="433,90 437,90 442,85 437,80 433,80 433,90 " style="fill:white; stroke-width:1; stroke:black; " description="&lt;b&gt;SNOD_RS28615&lt;/b&gt;&lt;br&gt;ABC transporter substrate-binding protein&lt;br&gt;Location: 6642840 - 6644426" locus_tag="SNOD_RS28615" class="clusterblast-orf" id="dummy-1_h1_10_65"  />
</g>
<g id="a1_0066"  >
<polygon points="442,90 443,90 448,85 443,80 442,80 442,90 " style="fill:white; stroke-width:1; stroke:black; " description="&lt;b&gt;SNOD_RS28620&lt;/b&gt;&lt;br&gt;ABC transporter permease&lt;br&gt;Location: 6644423 - 6645373" locus_tag="SNOD_RS28620" class="clusterblast-orf" id="dummy-1_h1_10_66"  />
</g>
<g id="a1_0067"  >
<polygon points="448,90 448,90 453,85 448,80 448,80 448,90 " style="fill:white; stroke-width:1; stroke:black; " description="&lt;b&gt;SNOD_RS28625&lt;/b&gt;&lt;br&gt;transporter integral membrane protein&lt;br&gt;Location: 6645370 - 6646230" locus_tag="SNOD_RS28625" class="clusterblast-orf" id="dummy-1_h1_10_67"  />
</g>
<g id="a1_0068"  >
<polygon points="453,90 458,90 463,85 458,80 453,80 453,90 " style="fill:#1551d8; stroke-width:1; stroke:black; " description="&lt;b&gt;SNOD_RS28630&lt;/b&gt;&lt;br&gt;ABC transporter ATP-binding protein&lt;br&gt;Location: 6646227 - 6647816&lt;br&gt;&lt;br&gt;&lt;b&gt;BlastP hit with ctg95_7&lt;/b&gt;&lt;br&gt;Percentage identity: 44&lt;br&gt;Percentage coverage: 82&lt;br&gt;BLAST bit score: 154&lt;br&gt;E-value: 1.7e-35&lt;br&gt;&lt;br&gt;&lt;b&gt;BlastP hit with ctg95_8&lt;/b&gt;&lt;br&gt;Percentage identity: 36&lt;br&gt;Percentage coverage: 45&lt;br&gt;BLAST bit score: 127&lt;br&gt;E-value: 6.1e-27" locus_tag="SNOD_RS28630" class="clusterblast-orf" id="dummy-1_h1_10_68"  />
</g>
<g id="a1_0069"  >
<polygon points="463,85 468,80 473,80 473,90 468,90 463,85 " style="fill:white; stroke-width:1; stroke:black; " description="&lt;b&gt;SNOD_RS28635&lt;/b&gt;&lt;br&gt;2,3-dihydroxybenzoate-AMP ligase&lt;br&gt;Location: 6647883 - 6649538" locus_tag="SNOD_RS28635" class="clusterblast-orf" id="dummy-1_h1_10_69"  />
</g>
<g id="a1_0070"  >
<polygon points="474,90 509,90 514,85 509,80 474,80 474,90 " style="fill:white; stroke-width:1; stroke:black; " description="&lt;b&gt;SNOD_RS28640&lt;/b&gt;&lt;br&gt;non-ribosomal peptide synthetase&lt;br&gt;Location: 6649727 - 6656528" locus_tag="SNOD_RS28640" class="clusterblast-orf" id="dummy-1_h1_10_70"  />
</g>
<g id="a1_0071"  >
<polygon points="514,90 542,90 547,85 542,80 514,80 514,90 " style="fill:white; stroke-width:1; stroke:black; " description="&lt;b&gt;SNOD_RS28645&lt;/b&gt;&lt;br&gt;non-ribosomal peptide synthetase&lt;br&gt;Location: 6656525 - 6662098" locus_tag="SNOD_RS28645" class="clusterblast-orf" id="dummy-1_h1_10_71"  />
</g>
<g id="a1_0072"  >
<polygon points="547,90 549,90 554,85 549,80 547,80 547,90 " style="fill:white; stroke-width:1; stroke:black; " description="&lt;b&gt;SNOD_RS28650&lt;/b&gt;&lt;br&gt;epimerase&lt;br&gt;Location: 6662110 - 6663291" locus_tag="SNOD_RS28650" class="clusterblast-orf" id="dummy-1_h1_10_72"  />
</g>
<g id="a1_0073"  >
<polygon points="554,90 562,90 567,85 562,80 554,80 554,90 " style="fill:white; stroke-width:1; stroke:black; " description="&lt;b&gt;SNOD_RS28655&lt;/b&gt;&lt;br&gt;thiazolinyl imide reductase&lt;br&gt;Location: 6663288 - 6665354" locus_tag="SNOD_RS28655" class="clusterblast-orf" id="dummy-1_h1_10_73"  />
</g>
<g id="a1_0074"  >
<polygon points="567,90 570,90 575,85 570,80 567,80 567,90 " style="fill:#3315d8; stroke-width:1; stroke:black; " description="&lt;b&gt;SNOD_RS28660&lt;/b&gt;&lt;br&gt;cytochrome P450&lt;br&gt;Location: 6665457 - 6666722&lt;br&gt;&lt;br&gt;&lt;b&gt;BlastP hit with ctg95_12&lt;/b&gt;&lt;br&gt;Percentage identity: 33&lt;br&gt;Percentage coverage: 100&lt;br&gt;BLAST bit score: 186&lt;br&gt;E-value: 4.3e-45" locus_tag="SNOD_RS28660" class="clusterblast-orf" id="dummy-1_h1_10_74"  />
</g>
<g id="a1_0075"  >
<polygon points="575,90 575,90 580,85 575,80 575,80 575,90 " style="fill:white; stroke-width:1; stroke:black; " description="&lt;b&gt;SNOD_RS28665&lt;/b&gt;&lt;br&gt;thioesterase&lt;br&gt;Location: 6666716 - 6667543" locus_tag="SNOD_RS28665" class="clusterblast-orf" id="dummy-1_h1_10_75"  />
</g>
<g id="a1_0076"  >
<polygon points="580,90 584,85 580,80 580,90 " style="fill:white; stroke-width:1; stroke:black; " description="&lt;b&gt;SNOD_RS28670&lt;/b&gt;&lt;br&gt;class I SAM-dependent methyltransferase&lt;br&gt;Location: 6667581 - 6668309" locus_tag="SNOD_RS28670" class="clusterblast-orf" id="dummy-1_h1_10_76"  />
</g>
<g id="a1_0077"  >
<polygon points="584,90 590,90 595,85 590,80 584,80 584,90 " style="fill:white; stroke-width:1; stroke:black; " description="&lt;b&gt;SNOD_RS28675&lt;/b&gt;&lt;br&gt;ABC transporter ATP-binding protein&lt;br&gt;Location: 6668306 - 6670192" locus_tag="SNOD_RS28675" class="clusterblast-orf" id="dummy-1_h1_10_77"  />
</g>
<g id="a1_0078"  >
<polygon points="595,90 601,90 606,85 601,80 595,80 595,90 " style="fill:white; stroke-width:1; stroke:black; " description="&lt;b&gt;SNOD_RS28680&lt;/b&gt;&lt;br&gt;ABC transporter ATP-binding protein&lt;br&gt;Location: 6670189 - 6671946" locus_tag="SNOD_RS28680" class="clusterblast-orf" id="dummy-1_h1_10_78"  />
</g>
<g id="a1_0079"  >
<polygon points="606,90 609,90 614,85 609,80 606,80 606,90 " style="fill:white; stroke-width:1; stroke:black; " description="&lt;b&gt;SNOD_RS28685&lt;/b&gt;&lt;br&gt;salicylate synthase&lt;br&gt;Location: 6672005 - 6673402" locus_tag="SNOD_RS28685" class="clusterblast-orf" id="dummy-1_h1_10_79"  />
</g>
<g id="a1_0080"  >
<polygon points="615,85 619,80 619,90 615,85 " style="fill:white; stroke-width:1; stroke:black; " description="&lt;b&gt;SNOD_RS28690&lt;/b&gt;&lt;br&gt;class I SAM-dependent methyltransferase&lt;br&gt;Location: 6673497 - 6674168" locus_tag="SNOD_RS28690" class="clusterblast-orf" id="dummy-1_h1_10_80"  />
</g>
<g id="a1_0081"  >
<polygon points="620,85 625,80 626,80 626,90 625,90 620,85 " style="fill:white; stroke-width:1; stroke:black; " description="&lt;b&gt;SNOD_RS28695&lt;/b&gt;&lt;br&gt;hypothetical protein&lt;br&gt;Location: 6674332 - 6675279" locus_tag="SNOD_RS28695" class="clusterblast-orf" id="dummy-1_h1_10_81"  />
</g>
<g id="a1_0082"  >
<polygon points="628,90 630,90 635,85 630,80 628,80 628,90 " style="fill:white; stroke-width:1; stroke:black; " description="&lt;b&gt;SNOD_RS28700&lt;/b&gt;&lt;br&gt;serine/threonine-protein phosphatase&lt;br&gt;Location: 6675604 - 6676856" locus_tag="SNOD_RS28700" class="clusterblast-orf" id="dummy-1_h1_10_82"  />
</g>
<g id="a1_0083"  >
<polygon points="635,85 637,80 637,90 635,85 " style="fill:white; stroke-width:1; stroke:black; " description="&lt;b&gt;SNOD_RS35375&lt;/b&gt;&lt;br&gt;hypothetical protein&lt;br&gt;Location: 6676890 - 6677271" locus_tag="SNOD_RS35375" class="clusterblast-orf" id="dummy-1_h1_10_83"  />
</g>
<g id="a1_0084"  >
<polygon points="638,90 643,90 648,85 643,80 638,80 638,90 " style="fill:white; stroke-width:1; stroke:black; " description="&lt;b&gt;SNOD_RS28710&lt;/b&gt;&lt;br&gt;sensor histidine kinase&lt;br&gt;Location: 6677425 - 6679116" locus_tag="SNOD_RS28710" class="clusterblast-orf" id="dummy-1_h1_10_84"  />
</g>
<g id="a1_0085"  >
<polygon points="648,90 651,85 648,80 648,90 " style="fill:white; stroke-width:1; stroke:black; " description="&lt;b&gt;SNOD_RS28715&lt;/b&gt;&lt;br&gt;multi-component regulatory system-10&lt;br&gt;Location: 6679119 - 6679532" locus_tag="SNOD_RS28715" class="clusterblast-orf" id="dummy-1_h1_10_85"  />
</g>
<g id="a1_0086"  >
<polygon points="651,90 653,85 651,80 651,90 " style="fill:white; stroke-width:1; stroke:black; " description="&lt;b&gt;SNOD_RS28720&lt;/b&gt;&lt;br&gt;DUF742 domain-containing protein&lt;br&gt;Location: 6679529 - 6679900" locus_tag="SNOD_RS28720" class="clusterblast-orf" id="dummy-1_h1_10_86"  />
</g>
<g id="a1_0087"  >
<polygon points="653,90 657,85 653,80 653,90 " style="fill:white; stroke-width:1; stroke:black; " description="&lt;b&gt;SNOD_RS28725&lt;/b&gt;&lt;br&gt;ATP-binding protein&lt;br&gt;Location: 6679881 - 6680486" locus_tag="SNOD_RS28725" class="clusterblast-orf" id="dummy-1_h1_10_87"  />
</g>
<g id="a1_0088"  >
<polygon points="657,90 659,90 664,85 659,80 657,80 657,90 " style="fill:white; stroke-width:1; stroke:black; " description="&lt;b&gt;SNOD_RS28730&lt;/b&gt;&lt;br&gt;cytochrome P450&lt;br&gt;Location: 6680483 - 6681736" locus_tag="SNOD_RS28730" class="clusterblast-orf" id="dummy-1_h1_10_88"  />
</g>
<g id="a1_0089"  >
<polygon points="664,85 669,80 671,80 671,90 669,90 664,85 " style="fill:white; stroke-width:1; stroke:black; " description="&lt;b&gt;SNOD_RS28735&lt;/b&gt;&lt;br&gt;terpene cyclase&lt;br&gt;Location: 6681808 - 6682839" locus_tag="SNOD_RS28735" class="clusterblast-orf" id="dummy-1_h1_10_89"  />
</g>
<g id="a1_0090"  >
<polygon points="672,90 676,90 681,85 676,80 672,80 672,90 " style="fill:white; stroke-width:1; stroke:black; " description="&lt;b&gt;SNOD_RS28740&lt;/b&gt;&lt;br&gt;cytochrome P450&lt;br&gt;Location: 6683140 - 6684622" locus_tag="SNOD_RS28740" class="clusterblast-orf" id="dummy-1_h1_10_90"  />
</g>
<g id="a1_0091"  >
<polygon points="681,85 686,80 690,80 690,90 686,90 681,85 " style="fill:white; stroke-width:1; stroke:black; " description="&lt;b&gt;SNOD_RS28745&lt;/b&gt;&lt;br&gt;APC family permease&lt;br&gt;Location: 6684671 - 6686188" locus_tag="SNOD_RS28745" class="clusterblast-orf" id="dummy-1_h1_10_91"  />
</g>
<g id="a1_0092"  >
<polygon points="691,85 696,80 699,80 699,90 696,90 691,85 " style="fill:white; stroke-width:1; stroke:black; " description="&lt;b&gt;SNOD_RS28750&lt;/b&gt;&lt;br&gt;cytosine deaminase&lt;br&gt;Location: 6686317 - 6687582" locus_tag="SNOD_RS28750" class="clusterblast-orf" id="dummy-1_h1_10_92"  />
</g>
<g id="a1_0093"  >
<polygon points="700,90 704,85 700,80 700,90 " style="fill:white; stroke-width:1; stroke:black; " description="&lt;b&gt;SNOD_RS28755&lt;/b&gt;&lt;br&gt;GntR family transcriptional regulator&lt;br&gt;Location: 6687777 - 6688496" locus_tag="SNOD_RS28755" class="clusterblast-orf" id="dummy-1_h1_10_93"  />
</g>
<g id="a1_0094"  >
<polygon points="705,85 710,80 719,80 719,90 710,90 705,85 " style="fill:#15d851; stroke-width:1; stroke:black; " description="&lt;b&gt;SNOD_RS28760&lt;/b&gt;&lt;br&gt;glycoside hydrolase family 2 protein&lt;br&gt;Location: 6688581 - 6691010&lt;br&gt;&lt;br&gt;&lt;b&gt;BlastP hit with ctg95_6&lt;/b&gt;&lt;br&gt;Percentage identity: 50&lt;br&gt;Percentage coverage: 99&lt;br&gt;BLAST bit score: 762&lt;br&gt;E-value: 5.1e-218" locus_tag="SNOD_RS28760" class="clusterblast-orf" id="dummy-1_h1_10_94"  />
</g>
<g id="a1_0095"  >
<polygon points="719,85 724,80 724,80 724,90 724,90 719,85 " style="fill:#1551d8; stroke-width:1; stroke:black; " description="&lt;b&gt;SNOD_RS28765&lt;/b&gt;&lt;br&gt;ABC transporter ATP-binding protein&lt;br&gt;Location: 6690989 - 6691879&lt;br&gt;&lt;br&gt;&lt;b&gt;BlastP hit with ctg95_7&lt;/b&gt;&lt;br&gt;Percentage identity: 43&lt;br&gt;Percentage coverage: 79&lt;br&gt;BLAST bit score: 152&lt;br&gt;E-value: 6.5e-35&lt;br&gt;&lt;br&gt;&lt;b&gt;BlastP hit with ctg95_8&lt;/b&gt;&lt;br&gt;Percentage identity: 34&lt;br&gt;Percentage coverage: 43&lt;br&gt;BLAST bit score: 123&lt;br&gt;E-value: 6.8e-26" locus_tag="SNOD_RS28765" class="clusterblast-orf" id="dummy-1_h1_10_95"  />
</g>
<g id="a1_0096"  >
<polygon points="724,85 729,80 730,80 730,90 729,90 724,85 " style="fill:#1551d8; stroke-width:1; stroke:black; " description="&lt;b&gt;SNOD_RS28770&lt;/b&gt;&lt;br&gt;ABC transporter ATP-binding protein&lt;br&gt;Location: 6691879 - 6692820&lt;br&gt;&lt;br&gt;&lt;b&gt;BlastP hit with ctg95_7&lt;/b&gt;&lt;br&gt;Percentage identity: 37&lt;br&gt;Percentage coverage: 91&lt;br&gt;BLAST bit score: 123&lt;br&gt;E-value: 3.2e-26&lt;br&gt;&lt;br&gt;&lt;b&gt;BlastP hit with ctg95_8&lt;/b&gt;&lt;br&gt;Percentage identity: 40&lt;br&gt;Percentage coverage: 43&lt;br&gt;BLAST bit score: 163&lt;br&gt;E-value: 1e-37" locus_tag="SNOD_RS28770" class="clusterblast-orf" id="dummy-1_h1_10_96"  />
</g>
<g id="a1_0097"  >
<polygon points="730,85 735,80 735,80 735,90 735,90 730,85 " style="fill:#1551d8; stroke-width:1; stroke:black; " description="&lt;b&gt;SNOD_RS28775&lt;/b&gt;&lt;br&gt;ABC transporter permease&lt;br&gt;Location: 6692826 - 6693764&lt;br&gt;&lt;br&gt;&lt;b&gt;BlastP hit with ctg95_8&lt;/b&gt;&lt;br&gt;Percentage identity: 36&lt;br&gt;Percentage coverage: 44&lt;br&gt;BLAST bit score: 158&lt;br&gt;E-value: 1.9e-36" locus_tag="SNOD_RS28775" class="clusterblast-orf" id="dummy-1_h1_10_97"  />
</g>
<g id="a1_0098"  >
<polygon points="735,85 740,80 741,80 741,90 740,90 735,85 " style="fill:#d815c9; stroke-width:1; stroke:black; " description="&lt;b&gt;SNOD_RS28780&lt;/b&gt;&lt;br&gt;ABC transporter permease&lt;br&gt;Location: 6693761 - 6694756&lt;br&gt;&lt;br&gt;&lt;b&gt;BlastP hit with ctg95_9&lt;/b&gt;&lt;br&gt;Percentage identity: 42&lt;br&gt;Percentage coverage: 99&lt;br&gt;BLAST bit score: 255&lt;br&gt;E-value: 1e-65" locus_tag="SNOD_RS28780" class="clusterblast-orf" id="dummy-1_h1_10_98"  />
</g>
<g id="a1_0099"  >
<polygon points="743,85 748,80 753,80 753,90 748,90 743,85 " style="fill:white; stroke-width:1; stroke:black; " description="&lt;b&gt;SNOD_RS28785&lt;/b&gt;&lt;br&gt;ABC transporter substrate-binding protein&lt;br&gt;Location: 6694965 - 6696692" locus_tag="SNOD_RS28785" class="clusterblast-orf" id="dummy-1_h1_10_99"  />
</g>
<g id="a1_00100"  >
<polygon points="754,90 755,90 760,85 755,80 754,80 754,90 " style="fill:#d86f15; stroke-width:1; stroke:black; " description="&lt;b&gt;SNOD_RS28790&lt;/b&gt;&lt;br&gt;LacI family transcriptional regulator&lt;br&gt;Location: 6696917 - 6697972&lt;br&gt;&lt;br&gt;&lt;b&gt;BlastP hit with ctg95_5&lt;/b&gt;&lt;br&gt;Percentage identity: 46&lt;br&gt;Percentage coverage: 98&lt;br&gt;BLAST bit score: 221&lt;br&gt;E-value: 1.4e-55" locus_tag="SNOD_RS28790" class="clusterblast-orf" id="dummy-1_h1_10_100"  />
</g>
<g id="a1_00101"  >
<polygon points="761,85 766,80 767,80 767,90 766,90 761,85 " style="fill:white; stroke-width:1; stroke:black; " description="&lt;b&gt;SNOD_RS28795&lt;/b&gt;&lt;br&gt;methylmalonyl Co-A mutase-associated GTPase MeaB&lt;br&gt;Location: 6698021 - 6699016" locus_tag="SNOD_RS28795" class="clusterblast-orf" id="dummy-1_h1_10_101"  />
</g>
<g id="a1_00102"  >
<polygon points="767,85 772,80 780,80 780,90 772,90 767,85 " style="fill:white; stroke-width:1; stroke:black; " description="&lt;b&gt;SNOD_RS28800&lt;/b&gt;&lt;br&gt;methylmalonyl-CoA mutase&lt;br&gt;Location: 6699022 - 6701196" locus_tag="SNOD_RS28800" class="clusterblast-orf" id="dummy-1_h1_10_102"  />
</g>
</svg>
