<svg xmlns="http://www.w3.org/2000/svg" xmlns:xlink="http://www.w3.org/1999/xlink" version="1.1" x="0" y="0" height="230" width="800" viewBox="0 0 800 230" preserveAspectRatio="none"  >
<g label="Query sequence" class="clusterblast-cluster"  >
<text x="5" y="20" class="clusterblast-acc"  >
Query sequence</text>
<line x1="10" y1="35" x2="778.0" y2="35" style="stroke-width:1; stroke:grey; "  />
<polygon points="94,40 104,40 109,35 104,30 94,30 94,40 " style="fill:#d81515; stroke-width:1; stroke:black; " description="&lt;b&gt;ctg8_1&lt;/b&gt;&lt;br&gt;ctg8 1&lt;br&gt;Location: 34 - 1228" locus_tag="ctg8_1" class="clusterblast-orf" id="dummy-1_q0_0_all"  />
<polygon points="110,40 112,35 110,30 110,40 " style="fill:#54d815; stroke-width:1; stroke:black; " description="&lt;b&gt;ctg8_2&lt;/b&gt;&lt;br&gt;ctg8 2&lt;br&gt;Location: 1247 - 1463" locus_tag="ctg8_2" class="clusterblast-orf" id="dummy-1_q1_0_all"  />
<polygon points="112,40 122,40 127,35 122,30 112,30 112,40 " style="fill:#15c1d8; stroke-width:1; stroke:black; " description="&lt;b&gt;ctg8_3&lt;/b&gt;&lt;br&gt;ctg8 3&lt;br&gt;Location: 1459 - 2614" locus_tag="ctg8_3" class="clusterblast-orf" id="dummy-1_q2_0_all"  />
<polygon points="128,40 146,40 151,35 146,30 128,30 128,40 " style="fill:#8215d8; stroke-width:1; stroke:black; " description="&lt;b&gt;ctg8_4&lt;/b&gt;&lt;br&gt;ctg8 4&lt;br&gt;Location: 2687 - 4496" locus_tag="ctg8_4" class="clusterblast-orf" id="dummy-1_q3_0_all"  />
<polygon points="151,40 151,40 156,35 151,30 151,30 151,40 " style="fill:#d84415; stroke-width:1; stroke:black; " description="&lt;b&gt;ctg8_5&lt;/b&gt;&lt;br&gt;ctg8 5&lt;br&gt;Location: 4492 - 4885" locus_tag="ctg8_5" class="clusterblast-orf" id="dummy-1_q4_0_all"  />
<polygon points="156,40 167,40 172,35 167,30 156,30 156,40 " style="fill:#25d815; stroke-width:1; stroke:black; " description="&lt;b&gt;ctg8_6&lt;/b&gt;&lt;br&gt;ctg8 6&lt;br&gt;Location: 4895 - 6089" locus_tag="ctg8_6" class="clusterblast-orf" id="dummy-1_q5_0_all"  />
<polygon points="172,40 178,40 183,35 178,30 172,30 172,40 " style="fill:#1592d8; stroke-width:1; stroke:black; " description="&lt;b&gt;ctg8_7&lt;/b&gt;&lt;br&gt;ctg8 7&lt;br&gt;Location: 6134 - 6944" locus_tag="ctg8_7" class="clusterblast-orf" id="dummy-1_q6_0_all"  />
<polygon points="182,35 187,30 189,30 189,40 187,40 182,35 " style="fill:#b115d8; stroke-width:1; stroke:black; " description="&lt;b&gt;ctg8_8&lt;/b&gt;&lt;br&gt;ctg8 8&lt;br&gt;Location: 6923 - 7457" locus_tag="ctg8_8" class="clusterblast-orf" id="dummy-1_q7_0_all"  />
<polygon points="189,40 192,35 189,30 189,40 " style="fill:white; stroke-width:1; stroke:black; " description="&lt;b&gt;ctg8_9&lt;/b&gt;&lt;br&gt;ctg8 9&lt;br&gt;Location: 7481 - 7646" locus_tag="ctg8_9" class="clusterblast-orf" id="dummy-1_q8_0_all"  />
<polygon points="195,35 200,30 210,30 210,40 200,40 195,35 " style="fill:#d87315; stroke-width:1; stroke:black; " description="&lt;b&gt;ctg8_10&lt;/b&gt;&lt;br&gt;ctg8 10&lt;br&gt;Location: 7953 - 9105" locus_tag="ctg8_10" class="clusterblast-orf" id="dummy-1_q9_0_all"  />
<polygon points="210,35 215,30 233,30 233,40 215,40 210,35 " style="fill:#15d834; stroke-width:1; stroke:black; " description="&lt;b&gt;ctg8_11&lt;/b&gt;&lt;br&gt;ctg8 11&lt;br&gt;Location: 9101 - 10916" locus_tag="ctg8_11" class="clusterblast-orf" id="dummy-1_q10_0_all"  />
<polygon points="234,35 239,30 246,30 246,40 239,40 234,35 " style="fill:#1563d8; stroke-width:1; stroke:black; " description="&lt;b&gt;ctg8_12&lt;/b&gt;&lt;br&gt;ctg8 12&lt;br&gt;Location: 10927 - 11929" locus_tag="ctg8_12" class="clusterblast-orf" id="dummy-1_q11_0_all"  />
<polygon points="249,40 254,40 259,35 254,30 249,30 249,40 " style="fill:#d815d0; stroke-width:1; stroke:black; " description="&lt;b&gt;ctg8_13&lt;/b&gt;&lt;br&gt;ctg8 13&lt;br&gt;Location: 12135 - 12939" locus_tag="ctg8_13" class="clusterblast-orf" id="dummy-1_q12_0_all"  />
<polygon points="260,35 265,30 268,30 268,40 265,40 260,35 " style="fill:white; stroke-width:1; stroke:black; " description="&lt;b&gt;ctg8_14&lt;/b&gt;&lt;br&gt;ctg8 14&lt;br&gt;Location: 12961 - 13627" locus_tag="ctg8_14" class="clusterblast-orf" id="dummy-1_q13_0_all"  />
<polygon points="270,40 301,40 306,35 301,30 270,30 270,40 " style="fill:#d8a215; stroke-width:1; stroke:black; " description="&lt;b&gt;ctg8_15&lt;/b&gt;&lt;br&gt;ctg8 15&lt;br&gt;Location: 13762 - 16624" locus_tag="ctg8_15" class="clusterblast-orf" id="dummy-1_q14_0_all"  />
<polygon points="307,40 307,40 312,35 307,30 307,30 307,40 " style="fill:white; stroke-width:1; stroke:black; " description="&lt;b&gt;ctg8_16&lt;/b&gt;&lt;br&gt;ctg8 16&lt;br&gt;Location: 16678 - 17080" locus_tag="ctg8_16" class="clusterblast-orf" id="dummy-1_q15_0_all"  />
<polygon points="312,40 317,40 322,35 317,30 312,30 312,40 " style="fill:white; stroke-width:1; stroke:black; " description="&lt;b&gt;ctg8_17&lt;/b&gt;&lt;br&gt;ctg8 17&lt;br&gt;Location: 17081 - 17846" locus_tag="ctg8_17" class="clusterblast-orf" id="dummy-1_q16_0_all"  />
<polygon points="323,35 328,30 344,30 344,40 328,40 323,35 " style="fill:#15d863; stroke-width:1; stroke:black; " description="&lt;b&gt;ctg8_18&lt;/b&gt;&lt;br&gt;ctg8 18&lt;br&gt;Location: 17897 - 19535" locus_tag="ctg8_18" class="clusterblast-orf" id="dummy-1_q17_0_all"  />
<polygon points="344,35 349,30 350,30 350,40 349,40 344,35 " style="fill:#1534d8; stroke-width:1; stroke:black; " description="&lt;b&gt;ctg8_19&lt;/b&gt;&lt;br&gt;ctg8 19&lt;br&gt;Location: 19531 - 20044" locus_tag="ctg8_19" class="clusterblast-orf" id="dummy-1_q18_0_all"  />
<polygon points="350,35 355,30 358,30 358,40 355,40 350,35 " style="fill:#d815a2; stroke-width:1; stroke:black; " description="&lt;b&gt;ctg8_20&lt;/b&gt;&lt;br&gt;ctg8 20&lt;br&gt;Location: 20040 - 20667" locus_tag="ctg8_20" class="clusterblast-orf" id="dummy-1_q19_0_all"  />
<polygon points="360,35 365,30 372,30 372,40 365,40 360,35 " style="fill:#d8d015; stroke-width:1; stroke:black; " description="&lt;b&gt;ctg8_21&lt;/b&gt;&lt;br&gt;ctg8 21&lt;br&gt;Location: 20806 - 21709" locus_tag="ctg8_21" class="clusterblast-orf" id="dummy-1_q20_0_all"  />
<polygon points="377,40 404,40 409,35 404,30 377,30 377,40 " style="fill:#15d892; stroke-width:1; stroke:black; " description="&lt;b&gt;ctg8_22&lt;/b&gt;&lt;br&gt;ctg8 22&lt;br&gt;Location: 22167 - 24606" locus_tag="ctg8_22" class="clusterblast-orf" id="dummy-1_q21_0_all"  />
<polygon points="409,40 432,40 437,35 432,30 409,30 409,40 " style="fill:#2515d8; stroke-width:1; stroke:black; " description="&lt;b&gt;ctg8_23&lt;/b&gt;&lt;br&gt;ctg8 23&lt;br&gt;Location: 24606 - 26832" locus_tag="ctg8_23" class="clusterblast-orf" id="dummy-1_q22_0_all"  />
<polygon points="439,40 447,40 452,35 447,30 439,30 439,40 " style="fill:#d81573; stroke-width:1; stroke:black; " description="&lt;b&gt;ctg8_24&lt;/b&gt;&lt;br&gt;ctg8 24&lt;br&gt;Location: 26957 - 28010" locus_tag="ctg8_24" class="clusterblast-orf" id="dummy-1_q23_0_all"  />
<polygon points="452,40 461,40 466,35 461,30 452,30 452,40 " style="fill:#b1d815; stroke-width:1; stroke:black; " description="&lt;b&gt;ctg8_25&lt;/b&gt;&lt;br&gt;ctg8 25&lt;br&gt;Location: 28006 - 29050" locus_tag="ctg8_25" class="clusterblast-orf" id="dummy-1_q24_0_all"  />
<polygon points="466,40 474,40 479,35 474,30 466,30 466,40 " style="fill:#15d8c1; stroke-width:1; stroke:black; " description="&lt;b&gt;ctg8_26&lt;/b&gt;&lt;br&gt;ctg8 26&lt;br&gt;Location: 29061 - 30072" locus_tag="ctg8_26" class="clusterblast-orf" id="dummy-1_q25_0_all"  />
<polygon points="479,35 484,30 485,30 485,40 484,40 479,35 " style="fill:#5415d8; stroke-width:1; stroke:black; " description="&lt;b&gt;ctg8_27&lt;/b&gt;&lt;br&gt;ctg8 27&lt;br&gt;Location: 30084 - 30567" locus_tag="ctg8_27" class="clusterblast-orf" id="dummy-1_q26_0_all"  />
<polygon points="487,40 498,40 503,35 498,30 487,30 487,40 " style="fill:#d81515; stroke-width:1; stroke:black; " description="&lt;b&gt;ctg8_28&lt;/b&gt;&lt;br&gt;ctg8 28&lt;br&gt;Location: 30746 - 31988" locus_tag="ctg8_28" class="clusterblast-orf" id="dummy-1_q27_0_all"  />
<polygon points="503,40 506,35 503,30 503,40 " style="fill:#54d815; stroke-width:1; stroke:black; " description="&lt;b&gt;ctg8_29&lt;/b&gt;&lt;br&gt;ctg8 29&lt;br&gt;Location: 31984 - 32185" locus_tag="ctg8_29" class="clusterblast-orf" id="dummy-1_q28_0_all"  />
<polygon points="506,35 511,30 523,30 523,40 511,40 506,35 " style="fill:#d81544; stroke-width:1; stroke:black; " description="&lt;b&gt;ctg8_30&lt;/b&gt;&lt;br&gt;ctg8 30&lt;br&gt;Location: 32242 - 33541" locus_tag="ctg8_30" class="clusterblast-orf" id="dummy-1_q29_0_all"  />
<polygon points="524,35 527,30 527,40 524,35 " style="fill:#82d815; stroke-width:1; stroke:black; " description="&lt;b&gt;ctg8_31&lt;/b&gt;&lt;br&gt;ctg8 31&lt;br&gt;Location: 33610 - 33826" locus_tag="ctg8_31" class="clusterblast-orf" id="dummy-1_q30_0_all"  />
<polygon points="527,35 532,30 546,30 546,40 532,40 527,35 " style="fill:#d8a215; stroke-width:1; stroke:black; " description="&lt;b&gt;ctg8_32&lt;/b&gt;&lt;br&gt;ctg8 32&lt;br&gt;Location: 33822 - 35376" locus_tag="ctg8_32" class="clusterblast-orf" id="dummy-1_q31_0_all"  />
<polygon points="546,35 551,30 589,30 589,40 551,40 546,35 " style="fill:#d8a215; stroke-width:1; stroke:black; " description="&lt;b&gt;ctg8_33&lt;/b&gt;&lt;br&gt;ctg8 33&lt;br&gt;Location: 35359 - 38725" locus_tag="ctg8_33" class="clusterblast-orf" id="dummy-1_q32_0_all"  />
<polygon points="589,35 594,30 612,30 612,40 594,40 589,35 " style="fill:#d8a215; stroke-width:1; stroke:black; " description="&lt;b&gt;ctg8_34&lt;/b&gt;&lt;br&gt;ctg8 34&lt;br&gt;Location: 38721 - 40512" locus_tag="ctg8_34" class="clusterblast-orf" id="dummy-1_q33_0_all"  />
<polygon points="612,35 617,30 685,30 685,40 617,40 612,35 " style="fill:#d8a215; stroke-width:1; stroke:black; " description="&lt;b&gt;ctg8_35&lt;/b&gt;&lt;br&gt;ctg8 35&lt;br&gt;Location: 40511 - 46208" locus_tag="ctg8_35" class="clusterblast-orf" id="dummy-1_q34_0_all"  />
</g>
<g label="NZ_CP003987" description="NZ_CP003987_c31: Streptomyces sp. 769, complete genome (16% of genes show similarity), nrps" class="clusterblast-cluster"  >
<text x="5" y="70" class="clusterblast-acc"  >
<a xlink:href="https://antismash-db.secondarymetabolites.org/go/NZ_CP003987/31" target="_blank">NZ_CP003987_c31</a>: Streptomyces sp. 769, complete genome (16% of genes show similarity), nrps</text>
<line x1="10" y1="85" x2="778.0" y2="85" style="stroke-width:1; stroke:grey; "  />
</g>
<g id="a1_000"  >
<polygon points="0,85 5,80 15,80 15,90 5,90 0,85 " style="fill:white; stroke-width:1; stroke:black; " description="&lt;b&gt;GZL_RS37980&lt;/b&gt;&lt;br&gt;glycosyl transferase&lt;br&gt;Location: 8883846 - 8885069" locus_tag="GZL_RS37980" class="clusterblast-orf" id="dummy-1_h1_10_0"  />
</g>
<g id="a1_001"  >
<polygon points="15,85 20,80 32,80 32,90 20,90 15,85 " style="fill:white; stroke-width:1; stroke:black; " description="&lt;b&gt;GZL_RS37985&lt;/b&gt;&lt;br&gt;membrane protein&lt;br&gt;Location: 8885072 - 8886376" locus_tag="GZL_RS37985" class="clusterblast-orf" id="dummy-1_h1_10_1"  />
</g>
<g id="a1_002"  >
<polygon points="32,85 37,80 52,80 52,90 37,90 32,85 " style="fill:white; stroke-width:1; stroke:black; " description="&lt;b&gt;GZL_RS37990&lt;/b&gt;&lt;br&gt;right-handed parallel beta-helix repeat-containing protein&lt;br&gt;Location: 8886378 - 8887916" locus_tag="GZL_RS37990" class="clusterblast-orf" id="dummy-1_h1_10_2"  />
</g>
<g id="a1_003"  >
<polygon points="52,85 57,80 77,80 77,90 57,90 52,85 " style="fill:white; stroke-width:1; stroke:black; " description="&lt;b&gt;GZL_RS37995&lt;/b&gt;&lt;br&gt;heparinase&lt;br&gt;Location: 8887925 - 8889931" locus_tag="GZL_RS37995" class="clusterblast-orf" id="dummy-1_h1_10_3"  />
</g>
<g id="a1_004"  >
<polygon points="77,85 82,80 105,80 105,90 82,90 77,85 " style="fill:white; stroke-width:1; stroke:black; " description="&lt;b&gt;GZL_RS38000&lt;/b&gt;&lt;br&gt;oxidoreductase&lt;br&gt;Location: 8889928 - 8892123" locus_tag="GZL_RS38000" class="clusterblast-orf" id="dummy-1_h1_10_4"  />
</g>
<g id="a1_005"  >
<polygon points="106,85 111,80 131,80 131,90 111,90 106,85 " style="fill:white; stroke-width:1; stroke:black; " description="&lt;b&gt;GZL_RS38005&lt;/b&gt;&lt;br&gt;asparagine synthase (glutamine-hydrolyzing)&lt;br&gt;Location: 8892153 - 8894087" locus_tag="GZL_RS38005" class="clusterblast-orf" id="dummy-1_h1_10_5"  />
</g>
<g id="a1_006"  >
<polygon points="131,85 136,80 151,80 151,90 136,90 131,85 " style="fill:white; stroke-width:1; stroke:black; " description="&lt;b&gt;GZL_RS38010&lt;/b&gt;&lt;br&gt;polysaccharide biosynthesis protein&lt;br&gt;Location: 8894091 - 8895710" locus_tag="GZL_RS38010" class="clusterblast-orf" id="dummy-1_h1_10_6"  />
</g>
<g id="a1_007"  >
<polygon points="151,85 156,80 169,80 169,90 156,90 151,85 " style="fill:white; stroke-width:1; stroke:black; " description="&lt;b&gt;GZL_RS38015&lt;/b&gt;&lt;br&gt;membrane-bound polysaccharide biosynthesis protein&lt;br&gt;Location: 8895707 - 8897104" locus_tag="GZL_RS38015" class="clusterblast-orf" id="dummy-1_h1_10_7"  />
</g>
<g id="a1_008"  >
<polygon points="169,85 174,80 186,80 186,90 174,90 169,85 " style="fill:white; stroke-width:1; stroke:black; " description="&lt;b&gt;GZL_RS38020&lt;/b&gt;&lt;br&gt;glycosyltransferase WbuB&lt;br&gt;Location: 8897101 - 8898396" locus_tag="GZL_RS38020" class="clusterblast-orf" id="dummy-1_h1_10_8"  />
</g>
<g id="a1_009"  >
<polygon points="186,85 191,80 203,80 203,90 191,90 186,85 " style="fill:white; stroke-width:1; stroke:black; " description="&lt;b&gt;GZL_RS38025&lt;/b&gt;&lt;br&gt;nucleotide sugar dehydrogenase&lt;br&gt;Location: 8898386 - 8899708" locus_tag="GZL_RS38025" class="clusterblast-orf" id="dummy-1_h1_10_9"  />
</g>
<g id="a1_0010"  >
<polygon points="204,85 209,80 222,80 222,90 209,90 204,85 " style="fill:white; stroke-width:1; stroke:black; " description="&lt;b&gt;GZL_RS38030&lt;/b&gt;&lt;br&gt;sugar transferase&lt;br&gt;Location: 8899788 - 8901266" locus_tag="GZL_RS38030" class="clusterblast-orf" id="dummy-1_h1_10_10"  />
</g>
<g id="a1_0011"  >
<polygon points="241,90 244,85 241,80 241,90 " style="fill:#82d815; stroke-width:1; stroke:black; " description="&lt;b&gt;GZL_RS38035&lt;/b&gt;&lt;br&gt;hypothetical protein&lt;br&gt;Location: 8902732 - 8902950&lt;br&gt;&lt;br&gt;&lt;b&gt;BlastP hit with ctg8_31&lt;/b&gt;&lt;br&gt;Percentage identity: 50&lt;br&gt;Percentage coverage: 93&lt;br&gt;BLAST bit score: 74&lt;br&gt;E-value: 4.2e-12" locus_tag="GZL_RS38035" class="clusterblast-orf" id="dummy-1_h1_10_11"  />
</g>
<g id="a1_0012"  >
<polygon points="248,90 427,90 432,85 427,80 248,80 248,90 " style="fill:#d8a215; stroke-width:1; stroke:black; " description="&lt;b&gt;GZL_RS38040&lt;/b&gt;&lt;br&gt;non-ribosomal peptide synthetase&lt;br&gt;Location: 8903288 - 8917616&lt;br&gt;&lt;br&gt;&lt;b&gt;BlastP hit with ctg8_32&lt;/b&gt;&lt;br&gt;Percentage identity: 39&lt;br&gt;Percentage coverage: 100&lt;br&gt;BLAST bit score: 230&lt;br&gt;E-value: 5.7e-58" locus_tag="GZL_RS38040" class="clusterblast-orf" id="dummy-1_h1_10_12"  />
</g>
<g id="a1_0013"  >
<polygon points="432,90 524,90 529,85 524,80 432,80 432,90 " style="fill:#d8a215; stroke-width:1; stroke:black; " description="&lt;b&gt;GZL_RS38045&lt;/b&gt;&lt;br&gt;non-ribosomal peptide synthetase&lt;br&gt;Location: 8917613 - 8925199&lt;br&gt;&lt;br&gt;&lt;b&gt;BlastP hit with ctg8_33&lt;/b&gt;&lt;br&gt;Percentage identity: 33&lt;br&gt;Percentage coverage: 103&lt;br&gt;BLAST bit score: 393&lt;br&gt;E-value: 8.4e-107&lt;br&gt;&lt;br&gt;&lt;b&gt;BlastP hit with ctg8_35&lt;/b&gt;&lt;br&gt;Percentage identity: 38&lt;br&gt;Percentage coverage: 87&lt;br&gt;BLAST bit score: 789&lt;br&gt;E-value: 1.2e-225" locus_tag="GZL_RS38045" class="clusterblast-orf" id="dummy-1_h1_10_13"  />
</g>
<g id="a1_0014"  >
<polygon points="532,90 539,90 544,85 539,80 532,80 532,90 " style="fill:white; stroke-width:1; stroke:black; " description="&lt;b&gt;GZL_RS38050&lt;/b&gt;&lt;br&gt;hypothetical protein&lt;br&gt;Location: 8925413 - 8926372" locus_tag="GZL_RS38050" class="clusterblast-orf" id="dummy-1_h1_10_14"  />
</g>
<g id="a1_0015"  >
<polygon points="544,85 549,80 552,80 552,90 549,90 544,85 " style="fill:white; stroke-width:1; stroke:black; " description="&lt;b&gt;GZL_RS38055&lt;/b&gt;&lt;br&gt;hypothetical protein&lt;br&gt;Location: 8926369 - 8926977" locus_tag="GZL_RS38055" class="clusterblast-orf" id="dummy-1_h1_10_15"  />
</g>
<g id="a1_0016"  >
<polygon points="557,90 560,90 565,85 560,80 557,80 557,90 " style="fill:white; stroke-width:1; stroke:black; " description="&lt;b&gt;GZL_RS38060&lt;/b&gt;&lt;br&gt;molybdenum cofactor guanylyltransferase&lt;br&gt;Location: 8927398 - 8927994" locus_tag="GZL_RS38060" class="clusterblast-orf" id="dummy-1_h1_10_16"  />
</g>
<g id="a1_0017"  >
<polygon points="566,90 577,90 582,85 577,80 566,80 566,90 " style="fill:white; stroke-width:1; stroke:black; " description="&lt;b&gt;GZL_RS38065&lt;/b&gt;&lt;br&gt;folylpolyglutamate synthase&lt;br&gt;Location: 8928125 - 8929363" locus_tag="GZL_RS38065" class="clusterblast-orf" id="dummy-1_h1_10_17"  />
</g>
<g id="a1_0018"  >
<polygon points="584,85 589,80 595,80 595,90 589,90 584,85 " style="fill:white; stroke-width:1; stroke:black; " description="&lt;b&gt;GZL_RS38070&lt;/b&gt;&lt;br&gt;TIGR03620 family F420-dependent LLM class oxidoreductase&lt;br&gt;Location: 8929469 - 8930335" locus_tag="GZL_RS38070" class="clusterblast-orf" id="dummy-1_h1_10_18"  />
</g>
<g id="a1_0019"  >
<polygon points="596,90 601,90 606,85 601,80 596,80 596,90 " style="fill:white; stroke-width:1; stroke:black; " description="&lt;b&gt;GZL_RS38075&lt;/b&gt;&lt;br&gt;AraC family transcriptional regulator&lt;br&gt;Location: 8930430 - 8931215" locus_tag="GZL_RS38075" class="clusterblast-orf" id="dummy-1_h1_10_19"  />
</g>
<g id="a1_0020"  >
<polygon points="608,90 615,90 620,85 615,80 608,80 608,90 " style="fill:white; stroke-width:1; stroke:black; " description="&lt;b&gt;GZL_RS46920&lt;/b&gt;&lt;br&gt;hypothetical protein&lt;br&gt;Location: 8931414 - 8932304" locus_tag="GZL_RS46920" class="clusterblast-orf" id="dummy-1_h1_10_20"  />
</g>
<g id="a1_0021"  >
<polygon points="621,85 626,80 632,80 632,90 626,90 621,85 " style="fill:white; stroke-width:1; stroke:black; " description="&lt;b&gt;GZL_RS38085&lt;/b&gt;&lt;br&gt;haloalkane dehalogenase&lt;br&gt;Location: 8932363 - 8933223" locus_tag="GZL_RS38085" class="clusterblast-orf" id="dummy-1_h1_10_21"  />
</g>
<g id="a1_0022"  >
<polygon points="635,85 640,80 642,80 642,90 640,90 635,85 " style="fill:white; stroke-width:1; stroke:black; " description="&lt;b&gt;GZL_RS38090&lt;/b&gt;&lt;br&gt;TetR family transcriptional regulator&lt;br&gt;Location: 8933467 - 8934045" locus_tag="GZL_RS38090" class="clusterblast-orf" id="dummy-1_h1_10_22"  />
</g>
<g id="a1_0023"  >
<polygon points="643,90 644,90 649,85 644,80 643,80 643,90 " style="fill:white; stroke-width:1; stroke:black; " description="&lt;b&gt;GZL_RS38095&lt;/b&gt;&lt;br&gt;DUF1772 domain-containing protein&lt;br&gt;Location: 8934137 - 8934583" locus_tag="GZL_RS38095" class="clusterblast-orf" id="dummy-1_h1_10_23"  />
</g>
<g id="a1_0024"  >
<polygon points="649,85 652,80 652,90 649,85 " style="fill:white; stroke-width:1; stroke:black; " description="&lt;b&gt;GZL_RS38100&lt;/b&gt;&lt;br&gt;IS5/IS1182 family transposase&lt;br&gt;Location: 8934618 - 8934848" locus_tag="GZL_RS38100" class="clusterblast-orf" id="dummy-1_h1_10_24"  />
</g>
<g id="a1_0025"  >
<polygon points="655,90 659,90 664,85 659,80 655,80 655,90 " style="fill:white; stroke-width:1; stroke:black; " description="&lt;b&gt;GZL_RS38105&lt;/b&gt;&lt;br&gt;GPP34 family phosphoprotein&lt;br&gt;Location: 8935083 - 8935745" locus_tag="GZL_RS38105" class="clusterblast-orf" id="dummy-1_h1_10_25"  />
</g>
<g id="a1_0026"  >
<polygon points="666,90 668,90 673,85 668,80 666,80 666,90 " style="fill:white; stroke-width:1; stroke:black; " description="&lt;b&gt;GZL_RS38110&lt;/b&gt;&lt;br&gt;alpha/beta hydrolase&lt;br&gt;Location: 8935875 - 8936474" locus_tag="GZL_RS38110" class="clusterblast-orf" id="dummy-1_h1_10_26"  />
</g>
<g id="a1_0027"  >
<polygon points="681,85 685,80 685,90 681,85 " style="fill:white; stroke-width:1; stroke:black; " description="&lt;b&gt;GZL_RS38115&lt;/b&gt;&lt;br&gt;hypothetical protein&lt;br&gt;Location: 8937066 - 8937389" locus_tag="GZL_RS38115" class="clusterblast-orf" id="dummy-1_h1_10_27"  />
</g>
<g id="a1_0028"  >
<polygon points="692,90 694,85 692,80 692,90 " style="fill:white; stroke-width:1; stroke:black; " description="&lt;b&gt;GZL_RS48125&lt;/b&gt;&lt;br&gt;HNH endonuclease&lt;br&gt;Location: 8937951 - 8938100" locus_tag="GZL_RS48125" class="clusterblast-orf" id="dummy-1_h1_10_28"  />
</g>
<g id="a1_0029"  >
<polygon points="696,85 701,80 702,80 702,90 701,90 696,85 " style="fill:white; stroke-width:1; stroke:black; " description="&lt;b&gt;GZL_RS38120&lt;/b&gt;&lt;br&gt;ATP-binding protein&lt;br&gt;Location: 8938278 - 8938763" locus_tag="GZL_RS38120" class="clusterblast-orf" id="dummy-1_h1_10_29"  />
</g>
<g id="a1_0030"  >
<polygon points="704,90 705,90 710,85 705,80 704,80 704,90 " style="fill:white; stroke-width:1; stroke:black; " description="&lt;b&gt;GZL_RS38125&lt;/b&gt;&lt;br&gt;MarR family transcriptional regulator&lt;br&gt;Location: 8938882 - 8939364" locus_tag="GZL_RS38125" class="clusterblast-orf" id="dummy-1_h1_10_30"  />
</g>
<g id="a1_0031"  >
<polygon points="712,90 723,90 728,85 723,80 712,80 712,90 " style="fill:#d81515; stroke-width:1; stroke:black; " description="&lt;b&gt;GZL_RS38130&lt;/b&gt;&lt;br&gt;cytochrome P450&lt;br&gt;Location: 8939543 - 8940782&lt;br&gt;&lt;br&gt;&lt;b&gt;BlastP hit with ctg8_1&lt;/b&gt;&lt;br&gt;Percentage identity: 39&lt;br&gt;Percentage coverage: 26&lt;br&gt;BLAST bit score: 71&lt;br&gt;E-value: 3.4e-10" locus_tag="GZL_RS38130" class="clusterblast-orf" id="dummy-1_h1_10_31"  />
</g>
<g id="a1_0032"  >
<polygon points="729,90 732,85 729,80 729,90 " style="fill:#54d815; stroke-width:1; stroke:black; " description="&lt;b&gt;GZL_RS38135&lt;/b&gt;&lt;br&gt;ferredoxin&lt;br&gt;Location: 8940818 - 8941045&lt;br&gt;&lt;br&gt;&lt;b&gt;BlastP hit with ctg8_2&lt;/b&gt;&lt;br&gt;Percentage identity: 59&lt;br&gt;Percentage coverage: 97&lt;br&gt;BLAST bit score: 83&lt;br&gt;E-value: 9e-15&lt;br&gt;&lt;br&gt;&lt;b&gt;BlastP hit with ctg8_29&lt;/b&gt;&lt;br&gt;Percentage identity: 58&lt;br&gt;Percentage coverage: 97&lt;br&gt;BLAST bit score: 75&lt;br&gt;E-value: 3e-12" locus_tag="GZL_RS38135" class="clusterblast-orf" id="dummy-1_h1_10_32"  />
</g>
<g id="a1_0033"  >
<polygon points="732,90 742,90 747,85 742,80 732,80 732,90 " style="fill:#15c1d8; stroke-width:1; stroke:black; " description="&lt;b&gt;GZL_RS38140&lt;/b&gt;&lt;br&gt;FAD-dependent oxidoreductase&lt;br&gt;Location: 8941072 - 8942262&lt;br&gt;&lt;br&gt;&lt;b&gt;BlastP hit with ctg8_3&lt;/b&gt;&lt;br&gt;Percentage identity: 53&lt;br&gt;Percentage coverage: 98&lt;br&gt;BLAST bit score: 371&lt;br&gt;E-value: 9e-101" locus_tag="GZL_RS38140" class="clusterblast-orf" id="dummy-1_h1_10_33"  />
</g>
<g id="a1_0034"  >
<polygon points="750,90 753,90 758,85 753,80 750,80 750,90 " style="fill:white; stroke-width:1; stroke:black; " description="&lt;b&gt;GZL_RS38145&lt;/b&gt;&lt;br&gt;ABC transporter ATP-binding protein&lt;br&gt;Location: 8942454 - 8943110" locus_tag="GZL_RS38145" class="clusterblast-orf" id="dummy-1_h1_10_34"  />
</g>
<g id="a1_0035"  >
<polygon points="758,90 765,90 770,85 765,80 758,80 758,90 " style="fill:white; stroke-width:1; stroke:black; " description="&lt;b&gt;GZL_RS38150&lt;/b&gt;&lt;br&gt;ABC transporter&lt;br&gt;Location: 8943107 - 8944012" locus_tag="GZL_RS38150" class="clusterblast-orf" id="dummy-1_h1_10_35"  />
</g>
<g id="a1_0036"  >
<polygon points="770,90 775,90 780,85 775,80 770,80 770,90 " style="fill:white; stroke-width:1; stroke:black; " description="&lt;b&gt;GZL_RS38155&lt;/b&gt;&lt;br&gt;ABC transporter substrate-binding protein&lt;br&gt;Location: 8944000 - 8944779" locus_tag="GZL_RS38155" class="clusterblast-orf" id="dummy-1_h1_10_36"  />
</g>
</svg>
