<svg xmlns="http://www.w3.org/2000/svg" xmlns:xlink="http://www.w3.org/1999/xlink" version="1.1" x="0" y="0" height="230" width="800" viewBox="0 0 800 230" preserveAspectRatio="none"  >
<g label="Query sequence" class="clusterblast-cluster"  >
<text x="5" y="20" class="clusterblast-acc"  >
Query sequence</text>
<line x1="10" y1="35" x2="778.0" y2="35" style="stroke-width:1; stroke:grey; "  />
<polygon points="173,40 199,40 204,35 199,30 173,30 173,40 " style="fill:#d81515; stroke-width:1; stroke:black; " description="&lt;b&gt;ctg169_1&lt;/b&gt;&lt;br&gt;ctg169 1&lt;br&gt;Location: 1 - 796" locus_tag="ctg169_1" class="clusterblast-orf" id="dummy-1_q0_0_all"  />
<polygon points="204,35 209,30 276,30 276,40 209,40 204,35 " style="fill:#77d815; stroke-width:1; stroke:black; " description="&lt;b&gt;ctg169_2&lt;/b&gt;&lt;br&gt;ctg169 2&lt;br&gt;Location: 802 - 2665" locus_tag="ctg169_2" class="clusterblast-orf" id="dummy-1_q1_0_all"  />
<polygon points="277,35 282,30 306,30 306,40 282,40 277,35 " style="fill:#15d8d8; stroke-width:1; stroke:black; " description="&lt;b&gt;ctg169_3&lt;/b&gt;&lt;br&gt;ctg169 3&lt;br&gt;Location: 2677 - 3433" locus_tag="ctg169_3" class="clusterblast-orf" id="dummy-1_q2_0_all"  />
<polygon points="307,35 312,30 342,30 342,40 312,40 307,35 " style="fill:#7715d8; stroke-width:1; stroke:black; " description="&lt;b&gt;ctg169_4&lt;/b&gt;&lt;br&gt;ctg169 4&lt;br&gt;Location: 3452 - 4358" locus_tag="ctg169_4" class="clusterblast-orf" id="dummy-1_q3_0_all"  />
<polygon points="342,35 347,30 385,30 385,40 347,40 342,35 " style="fill:#d8a715; stroke-width:1; stroke:black; " description="&lt;b&gt;ctg169_5&lt;/b&gt;&lt;br&gt;ctg169 5&lt;br&gt;Location: 4369 - 5482" locus_tag="ctg169_5" class="clusterblast-orf" id="dummy-1_q4_0_all"  />
<polygon points="385,35 390,30 425,30 425,40 390,40 385,35 " style="fill:#15d846; stroke-width:1; stroke:black; " description="&lt;b&gt;ctg169_6&lt;/b&gt;&lt;br&gt;ctg169 6&lt;br&gt;Location: 5478 - 6519" locus_tag="ctg169_6" class="clusterblast-orf" id="dummy-1_q5_0_all"  />
<polygon points="425,35 430,30 530,30 530,40 430,40 425,35 " style="fill:#1546d8; stroke-width:1; stroke:black; " description="&lt;b&gt;ctg169_7&lt;/b&gt;&lt;br&gt;ctg169 7&lt;br&gt;Location: 6518 - 9233" locus_tag="ctg169_7" class="clusterblast-orf" id="dummy-1_q6_0_all"  />
<polygon points="544,35 549,30 606,30 606,40 549,40 544,35 " style="fill:#d815a7; stroke-width:1; stroke:black; " description="&lt;b&gt;ctg169_8&lt;/b&gt;&lt;br&gt;ctg169 8&lt;br&gt;Location: 9583 - 11200" locus_tag="ctg169_8" class="clusterblast-orf" id="dummy-1_q7_0_all"  />
</g>
<g label="NZ_JNYP01000018" description="NZ_JNYP01000018_c23: Streptomyces vinaceus strain NRRL ISP-5257 contig18.1, w... (43% of genes show similarity), thiopeptide" class="clusterblast-cluster"  >
<text x="5" y="70" class="clusterblast-acc"  >
<a xlink:href="https://antismash-db.secondarymetabolites.org/go/NZ_JNYP01000018/23" target="_blank">NZ_JNYP01000018_c23</a>: Streptomyces vinaceus strain NRRL ISP-5257 contig18.1, w... (43% of genes show similarity), thiopeptide</text>
<line x1="10" y1="85" x2="778.0" y2="85" style="stroke-width:1; stroke:grey; "  />
</g>
<g id="a1_000"  >
<polygon points="0,85 5,80 30,80 30,90 5,90 0,85 " style="fill:white; stroke-width:1; stroke:black; " description="&lt;b&gt;NF36_RS28020&lt;/b&gt;&lt;br&gt;GntR family transcriptional regulator&lt;br&gt;Location: 109689 - 110474" locus_tag="NF36_RS28020" class="clusterblast-orf" id="dummy-1_h1_7_0"  />
</g>
<g id="a1_001"  >
<polygon points="30,85 35,80 51,80 51,90 35,90 30,85 " style="fill:white; stroke-width:1; stroke:black; " description="&lt;b&gt;NF36_RS28025&lt;/b&gt;&lt;br&gt;UTRA domain-containing protein&lt;br&gt;Location: 110471 - 111010" locus_tag="NF36_RS28025" class="clusterblast-orf" id="dummy-1_h1_7_1"  />
</g>
<g id="a1_002"  >
<polygon points="56,90 66,90 71,85 66,80 56,80 56,90 " style="fill:white; stroke-width:1; stroke:black; " description="&lt;b&gt;NF36_RS36675&lt;/b&gt;&lt;br&gt;ATP-binding protein&lt;br&gt;Location: 111154 - 111546" locus_tag="NF36_RS36675" class="clusterblast-orf" id="dummy-1_h1_7_2"  />
</g>
<g id="a1_003"  >
<polygon points="74,85 79,80 211,80 211,90 79,90 74,85 " style="fill:white; stroke-width:1; stroke:black; " description="&lt;b&gt;NF36_RS28035&lt;/b&gt;&lt;br&gt;transcription-repair coupling factor&lt;br&gt;Location: 111620 - 115153" locus_tag="NF36_RS28035" class="clusterblast-orf" id="dummy-1_h1_7_3"  />
</g>
<g id="a1_004"  >
<polygon points="232,90 266,90 271,85 266,80 232,80 232,90 " style="fill:white; stroke-width:1; stroke:black; " description="&lt;b&gt;NF36_RS28040&lt;/b&gt;&lt;br&gt;hypothetical protein&lt;br&gt;Location: 115704 - 116711" locus_tag="NF36_RS28040" class="clusterblast-orf" id="dummy-1_h1_7_4"  />
</g>
<g id="a1_005"  >
<polygon points="271,85 275,80 275,90 271,85 " style="fill:white; stroke-width:1; stroke:black; " description="&lt;b&gt;NF36_RS37510&lt;/b&gt;&lt;br&gt;energy transducer TonB&lt;br&gt;Location: 116716 - 116802" locus_tag="NF36_RS37510" class="clusterblast-orf" id="dummy-1_h1_7_5"  />
</g>
<g id="a1_006"  >
<polygon points="277,85 282,80 288,80 288,90 282,90 277,85 " style="fill:white; stroke-width:1; stroke:black; " description="&lt;b&gt;NF36_RS28045&lt;/b&gt;&lt;br&gt;hypothetical protein&lt;br&gt;Location: 116873 - 117145" locus_tag="NF36_RS28045" class="clusterblast-orf" id="dummy-1_h1_7_6"  />
</g>
<g id="a1_007"  >
<polygon points="288,85 293,80 337,80 337,90 293,90 288,85 " style="fill:white; stroke-width:1; stroke:black; " description="&lt;b&gt;NF36_RS28050&lt;/b&gt;&lt;br&gt;amidohydrolase&lt;br&gt;Location: 117142 - 118407" locus_tag="NF36_RS28050" class="clusterblast-orf" id="dummy-1_h1_7_7"  />
</g>
<g id="a1_008"  >
<polygon points="355,90 357,90 362,85 357,80 355,80 355,90 " style="fill:white; stroke-width:1; stroke:black; " description="&lt;b&gt;NF36_RS28055&lt;/b&gt;&lt;br&gt;thiazolylpeptide-type bacteriocin&lt;br&gt;Location: 118883 - 119059" locus_tag="NF36_RS28055" class="clusterblast-orf" id="dummy-1_h1_7_8"  />
</g>
<g id="a1_009"  >
<polygon points="367,85 372,80 449,80 449,90 372,90 367,85 " style="fill:#77d815; stroke-width:1; stroke:black; " description="&lt;b&gt;NF36_RS28060&lt;/b&gt;&lt;br&gt;cyclodehydratase&lt;br&gt;Location: 119180 - 121303&lt;br&gt;&lt;br&gt;&lt;b&gt;BlastP hit with ctg169_2&lt;/b&gt;&lt;br&gt;Percentage identity: 57&lt;br&gt;Percentage coverage: 114&lt;br&gt;BLAST bit score: 732&lt;br&gt;E-value: 3.2e-209" locus_tag="NF36_RS28060" class="clusterblast-orf" id="dummy-1_h1_7_9"  />
</g>
<g id="a1_0010"  >
<polygon points="449,85 454,80 478,80 478,90 454,90 449,85 " style="fill:#15d8d8; stroke-width:1; stroke:black; " description="&lt;b&gt;NF36_RS28065&lt;/b&gt;&lt;br&gt;ABC transporter permease&lt;br&gt;Location: 121300 - 122055&lt;br&gt;&lt;br&gt;&lt;b&gt;BlastP hit with ctg169_3&lt;/b&gt;&lt;br&gt;Percentage identity: 79&lt;br&gt;Percentage coverage: 100&lt;br&gt;BLAST bit score: 384&lt;br&gt;E-value: 1.1e-104" locus_tag="NF36_RS28065" class="clusterblast-orf" id="dummy-1_h1_7_10"  />
</g>
<g id="a1_0011"  >
<polygon points="483,85 488,80 520,80 520,90 488,90 483,85 " style="fill:#7715d8; stroke-width:1; stroke:black; " description="&lt;b&gt;NF36_RS28070&lt;/b&gt;&lt;br&gt;ABC transporter ATP-binding protein&lt;br&gt;Location: 122194 - 123156&lt;br&gt;&lt;br&gt;&lt;b&gt;BlastP hit with ctg169_4&lt;/b&gt;&lt;br&gt;Percentage identity: 76&lt;br&gt;Percentage coverage: 99&lt;br&gt;BLAST bit score: 439&lt;br&gt;E-value: 3.6e-121" locus_tag="NF36_RS28070" class="clusterblast-orf" id="dummy-1_h1_7_11"  />
</g>
<g id="a1_0012"  >
<polygon points="522,85 527,80 568,80 568,90 527,90 522,85 " style="fill:#d8a715; stroke-width:1; stroke:black; " description="&lt;b&gt;NF36_RS28075&lt;/b&gt;&lt;br&gt;peptidase M50&lt;br&gt;Location: 123200 - 124375&lt;br&gt;&lt;br&gt;&lt;b&gt;BlastP hit with ctg169_5&lt;/b&gt;&lt;br&gt;Percentage identity: 56&lt;br&gt;Percentage coverage: 92&lt;br&gt;BLAST bit score: 317&lt;br&gt;E-value: 2.5e-84" locus_tag="NF36_RS28075" class="clusterblast-orf" id="dummy-1_h1_7_12"  />
</g>
<g id="a1_0013"  >
<polygon points="567,85 572,80 608,80 608,90 572,90 567,85 " style="fill:#15d846; stroke-width:1; stroke:black; " description="&lt;b&gt;NF36_RS28080&lt;/b&gt;&lt;br&gt;lantibiotic biosynthesis protein&lt;br&gt;Location: 124372 - 125433&lt;br&gt;&lt;br&gt;&lt;b&gt;BlastP hit with ctg169_6&lt;/b&gt;&lt;br&gt;Percentage identity: 73&lt;br&gt;Percentage coverage: 99&lt;br&gt;BLAST bit score: 503&lt;br&gt;E-value: 1.4e-140" locus_tag="NF36_RS28080" class="clusterblast-orf" id="dummy-1_h1_7_13"  />
</g>
<g id="a1_0014"  >
<polygon points="608,85 613,80 718,80 718,90 613,90 608,85 " style="fill:#1546d8; stroke-width:1; stroke:black; " description="&lt;b&gt;NF36_RS28085&lt;/b&gt;&lt;br&gt;lantibiotic dehydratase&lt;br&gt;Location: 125430 - 128252&lt;br&gt;&lt;br&gt;&lt;b&gt;BlastP hit with ctg169_7&lt;/b&gt;&lt;br&gt;Percentage identity: 60&lt;br&gt;Percentage coverage: 104&lt;br&gt;BLAST bit score: 994&lt;br&gt;E-value: 6.6e-288" locus_tag="NF36_RS28085" class="clusterblast-orf" id="dummy-1_h1_7_14"  />
</g>
<g id="a1_0015"  >
<polygon points="718,85 723,80 780,80 780,90 723,90 718,85 " style="fill:#d815a7; stroke-width:1; stroke:black; " description="&lt;b&gt;NF36_RS28090&lt;/b&gt;&lt;br&gt;nitroreductase&lt;br&gt;Location: 128265 - 129854&lt;br&gt;&lt;br&gt;&lt;b&gt;BlastP hit with ctg169_8&lt;/b&gt;&lt;br&gt;Percentage identity: 68&lt;br&gt;Percentage coverage: 100&lt;br&gt;BLAST bit score: 664&lt;br&gt;E-value: 1.2e-188" locus_tag="NF36_RS28090" class="clusterblast-orf" id="dummy-1_h1_7_15"  />
</g>
</svg>
