<svg xmlns="http://www.w3.org/2000/svg" xmlns:xlink="http://www.w3.org/1999/xlink" version="1.1" x="0" y="0" height="230" width="800" viewBox="0 0 800 230" preserveAspectRatio="none"  >
<g label="Query sequence" class="clusterblast-cluster"  >
<text x="5" y="20" class="clusterblast-acc"  >
Query sequence</text>
<line x1="10" y1="35" x2="778.0" y2="35" style="stroke-width:1; stroke:grey; "  />
<polygon points="71,35 76,30 91,30 91,40 76,40 71,35 " style="fill:#d81515; stroke-width:1; stroke:black; " description="&lt;b&gt;ctg77_1&lt;/b&gt;&lt;br&gt;ctg77 1&lt;br&gt;Location: 0 - 627" locus_tag="ctg77_1" class="clusterblast-orf" id="dummy-1_q0_0_all"  />
<polygon points="94,40 98,40 103,35 98,30 94,30 94,40 " style="fill:#33d815; stroke-width:1; stroke:black; " description="&lt;b&gt;ctg77_2&lt;/b&gt;&lt;br&gt;ctg77 2&lt;br&gt;Location: 718 - 994" locus_tag="ctg77_2" class="clusterblast-orf" id="dummy-1_q1_0_all"  />
<polygon points="105,35 110,30 152,30 152,40 110,40 105,35 " style="fill:#15abd8; stroke-width:1; stroke:black; " description="&lt;b&gt;ctg77_3&lt;/b&gt;&lt;br&gt;ctg77 3&lt;br&gt;Location: 1063 - 2500" locus_tag="ctg77_3" class="clusterblast-orf" id="dummy-1_q2_0_all"  />
<polygon points="156,40 192,40 197,35 192,30 156,30 156,40 " style="fill:#8d15d8; stroke-width:1; stroke:black; " description="&lt;b&gt;ctg77_4&lt;/b&gt;&lt;br&gt;ctg77 4&lt;br&gt;Location: 2630 - 3875" locus_tag="ctg77_4" class="clusterblast-orf" id="dummy-1_q3_0_all"  />
<polygon points="199,35 204,30 327,30 327,40 204,40 199,35 " style="fill:#d86f15; stroke-width:1; stroke:black; " description="&lt;b&gt;ctg77_5&lt;/b&gt;&lt;br&gt;ctg77 5&lt;br&gt;Location: 3942 - 7899" locus_tag="ctg77_5" class="clusterblast-orf" id="dummy-1_q4_0_all"  />
<polygon points="343,35 348,30 352,30 352,40 348,40 343,35 " style="fill:#15d851; stroke-width:1; stroke:black; " description="&lt;b&gt;ctg77_6&lt;/b&gt;&lt;br&gt;ctg77 6&lt;br&gt;Location: 8371 - 8653" locus_tag="ctg77_6" class="clusterblast-orf" id="dummy-1_q5_0_all"  />
<polygon points="370,40 393,40 398,35 393,30 370,30 370,40 " style="fill:#1551d8; stroke-width:1; stroke:black; " description="&lt;b&gt;ctg77_7&lt;/b&gt;&lt;br&gt;ctg77 7&lt;br&gt;Location: 9202 - 10090" locus_tag="ctg77_7" class="clusterblast-orf" id="dummy-1_q6_0_all"  />
<polygon points="400,35 405,30 446,30 446,40 405,40 400,35 " style="fill:#d815c9; stroke-width:1; stroke:black; " description="&lt;b&gt;ctg77_8&lt;/b&gt;&lt;br&gt;ctg77 8&lt;br&gt;Location: 10124 - 11552" locus_tag="ctg77_8" class="clusterblast-orf" id="dummy-1_q7_0_all"  />
<polygon points="456,40 494,40 499,35 494,30 456,30 456,40 " style="fill:#d8c915; stroke-width:1; stroke:black; " description="&lt;b&gt;ctg77_9&lt;/b&gt;&lt;br&gt;ctg77 9&lt;br&gt;Location: 11875 - 13174" locus_tag="ctg77_9" class="clusterblast-orf" id="dummy-1_q8_0_all"  />
<polygon points="500,35 505,30 574,30 574,40 505,40 500,35 " style="fill:#15d8ab; stroke-width:1; stroke:black; " description="&lt;b&gt;ctg77_10&lt;/b&gt;&lt;br&gt;ctg77 10&lt;br&gt;Location: 13232 - 15488" locus_tag="ctg77_10" class="clusterblast-orf" id="dummy-1_q9_0_all"  />
<polygon points="578,35 583,30 605,30 605,40 583,40 578,35 " style="fill:#3315d8; stroke-width:1; stroke:black; " description="&lt;b&gt;ctg77_11&lt;/b&gt;&lt;br&gt;ctg77 11&lt;br&gt;Location: 15623 - 16448" locus_tag="ctg77_11" class="clusterblast-orf" id="dummy-1_q10_0_all"  />
<polygon points="605,35 610,30 640,30 640,40 610,40 605,35 " style="fill:#d8156f; stroke-width:1; stroke:black; " description="&lt;b&gt;ctg77_12&lt;/b&gt;&lt;br&gt;ctg77 12&lt;br&gt;Location: 16444 - 17536" locus_tag="ctg77_12" class="clusterblast-orf" id="dummy-1_q11_0_all"  />
<polygon points="640,35 645,30 674,30 674,40 645,40 640,35 " style="fill:#d8156f; stroke-width:1; stroke:black; " description="&lt;b&gt;ctg77_13&lt;/b&gt;&lt;br&gt;ctg77 13&lt;br&gt;Location: 17532 - 18573" locus_tag="ctg77_13" class="clusterblast-orf" id="dummy-1_q12_0_all"  />
<polygon points="675,35 680,30 709,30 709,40 680,40 675,35 " style="fill:#8dd815; stroke-width:1; stroke:black; " description="&lt;b&gt;ctg77_14&lt;/b&gt;&lt;br&gt;ctg77 14&lt;br&gt;Location: 18593 - 19649" locus_tag="ctg77_14" class="clusterblast-orf" id="dummy-1_q13_0_all"  />
</g>
<g label="NZ_JOGN01000004" description="NZ_JOGN01000004_c6: Streptomyces griseus subsp. griseus strain NRRL F-5618 co... (35% of genes show similarity), nrps" class="clusterblast-cluster"  >
<text x="5" y="70" class="clusterblast-acc"  >
<a xlink:href="https://antismash-db.secondarymetabolites.org/go/NZ_JOGN01000004/6" target="_blank">NZ_JOGN01000004_c6</a>: Streptomyces griseus subsp. griseus strain NRRL F-5618 co... (35% of genes show similarity), nrps</text>
<line x1="10" y1="85" x2="778.0" y2="85" style="stroke-width:1; stroke:grey; "  />
</g>
<g id="a1_000"  >
<polygon points="0,90 27,90 32,85 27,80 0,80 0,90 " style="fill:white; stroke-width:1; stroke:black; " description="&lt;b&gt;IG12_RS0104080&lt;/b&gt;&lt;br&gt;transporter&lt;br&gt;Location: 181261 - 182277" locus_tag="IG12_RS0104080" class="clusterblast-orf" id="dummy-1_h1_5_0"  />
</g>
<g id="a1_001"  >
<polygon points="37,85 42,80 89,80 89,90 42,90 37,85 " style="fill:white; stroke-width:1; stroke:black; " description="&lt;b&gt;IG12_RS0104085&lt;/b&gt;&lt;br&gt;malate synthase A&lt;br&gt;Location: 182408 - 184006" locus_tag="IG12_RS0104085" class="clusterblast-orf" id="dummy-1_h1_5_1"  />
</g>
<g id="a1_002"  >
<polygon points="96,85 101,80 137,80 137,90 101,90 96,85 " style="fill:#d8c915; stroke-width:1; stroke:black; " description="&lt;b&gt;IG12_RS0104090&lt;/b&gt;&lt;br&gt;isocitrate lyase&lt;br&gt;Location: 184221 - 185504&lt;br&gt;&lt;br&gt;&lt;b&gt;BlastP hit with ctg77_9&lt;/b&gt;&lt;br&gt;Percentage identity: 84&lt;br&gt;Percentage coverage: 97&lt;br&gt;BLAST bit score: 722&lt;br&gt;E-value: 2.3e-206" locus_tag="IG12_RS0104090" class="clusterblast-orf" id="dummy-1_h1_5_2"  />
</g>
<g id="a1_003"  >
<polygon points="153,90 194,90 199,85 194,80 153,80 153,90 " style="fill:#d815c9; stroke-width:1; stroke:black; " description="&lt;b&gt;IG12_RS0104095&lt;/b&gt;&lt;br&gt;XRE family transcriptional regulator&lt;br&gt;Location: 185982 - 187394&lt;br&gt;&lt;br&gt;&lt;b&gt;BlastP hit with ctg77_8&lt;/b&gt;&lt;br&gt;Percentage identity: 72&lt;br&gt;Percentage coverage: 99&lt;br&gt;BLAST bit score: 687&lt;br&gt;E-value: 1.2e-195" locus_tag="IG12_RS0104095" class="clusterblast-orf" id="dummy-1_h1_5_3"  />
</g>
<g id="a1_004"  >
<polygon points="199,85 204,80 213,80 213,90 204,90 199,85 " style="fill:white; stroke-width:1; stroke:black; " description="&lt;b&gt;IG12_RS0104100&lt;/b&gt;&lt;br&gt;hypothetical protein&lt;br&gt;Location: 187413 - 187835" locus_tag="IG12_RS0104100" class="clusterblast-orf" id="dummy-1_h1_5_4"  />
</g>
<g id="a1_005"  >
<polygon points="219,85 224,80 252,80 252,90 224,90 219,85 " style="fill:white; stroke-width:1; stroke:black; " description="&lt;b&gt;IG12_RS0104105&lt;/b&gt;&lt;br&gt;iron-siderophore ABC transporter substrate-binding protein&lt;br&gt;Location: 188006 - 189040" locus_tag="IG12_RS0104105" class="clusterblast-orf" id="dummy-1_h1_5_5"  />
</g>
<g id="a1_006"  >
<polygon points="261,90 364,90 369,85 364,80 261,80 261,90 " style="fill:white; stroke-width:1; stroke:black; " description="&lt;b&gt;IG12_RS0104110&lt;/b&gt;&lt;br&gt;peptidase S8&lt;br&gt;Location: 189319 - 192645" locus_tag="IG12_RS0104110" class="clusterblast-orf" id="dummy-1_h1_5_6"  />
</g>
<g id="a1_007"  >
<polygon points="373,85 378,80 399,80 399,90 378,90 373,85 " style="fill:#3315d8; stroke-width:1; stroke:black; " description="&lt;b&gt;IG12_RS0104115&lt;/b&gt;&lt;br&gt;ABC transporter ATP-binding protein&lt;br&gt;Location: 192759 - 193556&lt;br&gt;&lt;br&gt;&lt;b&gt;BlastP hit with ctg77_11&lt;/b&gt;&lt;br&gt;Percentage identity: 58&lt;br&gt;Percentage coverage: 93&lt;br&gt;BLAST bit score: 299&lt;br&gt;E-value: 5.3e-79" locus_tag="IG12_RS0104115" class="clusterblast-orf" id="dummy-1_h1_5_7"  />
</g>
<g id="a1_008"  >
<polygon points="401,85 406,80 438,80 438,90 406,90 401,85 " style="fill:#d8156f; stroke-width:1; stroke:black; " description="&lt;b&gt;IG12_RS0104120&lt;/b&gt;&lt;br&gt;iron-siderophore uptake system protein&lt;br&gt;Location: 193626 - 194759&lt;br&gt;&lt;br&gt;&lt;b&gt;BlastP hit with ctg77_12&lt;/b&gt;&lt;br&gt;Percentage identity: 35&lt;br&gt;Percentage coverage: 98&lt;br&gt;BLAST bit score: 143&lt;br&gt;E-value: 4.9e-32&lt;br&gt;&lt;br&gt;&lt;b&gt;BlastP hit with ctg77_13&lt;/b&gt;&lt;br&gt;Percentage identity: 31&lt;br&gt;Percentage coverage: 88&lt;br&gt;BLAST bit score: 93&lt;br&gt;E-value: 4.2e-17" locus_tag="IG12_RS0104120" class="clusterblast-orf" id="dummy-1_h1_5_8"  />
</g>
<g id="a1_009"  >
<polygon points="438,85 443,80 475,80 475,90 443,90 438,85 " style="fill:#d8156f; stroke-width:1; stroke:black; " description="&lt;b&gt;IG12_RS0104125&lt;/b&gt;&lt;br&gt;iron ABC transporter permease&lt;br&gt;Location: 194756 - 195910&lt;br&gt;&lt;br&gt;&lt;b&gt;BlastP hit with ctg77_13&lt;/b&gt;&lt;br&gt;Percentage identity: 38&lt;br&gt;Percentage coverage: 88&lt;br&gt;BLAST bit score: 177&lt;br&gt;E-value: 2.9e-42" locus_tag="IG12_RS0104125" class="clusterblast-orf" id="dummy-1_h1_5_9"  />
</g>
<g id="a1_0010"  >
<polygon points="484,90 501,90 506,85 501,80 484,80 484,90 " style="fill:white; stroke-width:1; stroke:black; " description="&lt;b&gt;IG12_RS0104130&lt;/b&gt;&lt;br&gt;pyridoxamine 5'-phosphate oxidase&lt;br&gt;Location: 196170 - 196859" locus_tag="IG12_RS0104130" class="clusterblast-orf" id="dummy-1_h1_5_10"  />
</g>
<g id="a1_0011"  >
<polygon points="512,90 547,90 552,85 547,80 512,80 512,90 " style="fill:white; stroke-width:1; stroke:black; " description="&lt;b&gt;IG12_RS0104135&lt;/b&gt;&lt;br&gt;membrane protein&lt;br&gt;Location: 197040 - 198269" locus_tag="IG12_RS0104135" class="clusterblast-orf" id="dummy-1_h1_5_11"  />
</g>
<g id="a1_0012"  >
<polygon points="551,85 556,80 563,80 563,90 556,90 551,85 " style="fill:white; stroke-width:1; stroke:black; " description="&lt;b&gt;IG12_RS0104140&lt;/b&gt;&lt;br&gt;PH domain-containing protein&lt;br&gt;Location: 198247 - 198612" locus_tag="IG12_RS0104140" class="clusterblast-orf" id="dummy-1_h1_5_12"  />
</g>
<g id="a1_0013"  >
<polygon points="567,85 572,80 579,80 579,90 572,90 567,85 " style="fill:white; stroke-width:1; stroke:black; " description="&lt;b&gt;IG12_RS0104145&lt;/b&gt;&lt;br&gt;PRC-barrel domain containing protein&lt;br&gt;Location: 198749 - 199102" locus_tag="IG12_RS0104145" class="clusterblast-orf" id="dummy-1_h1_5_13"  />
</g>
<g id="a1_0014"  >
<polygon points="589,90 597,90 602,85 597,80 589,80 589,90 " style="fill:white; stroke-width:1; stroke:black; " description="&lt;b&gt;IG12_RS0104150&lt;/b&gt;&lt;br&gt;hypothetical protein&lt;br&gt;Location: 199403 - 199801" locus_tag="IG12_RS0104150" class="clusterblast-orf" id="dummy-1_h1_5_14"  />
</g>
<g id="a1_0015"  >
<polygon points="605,85 610,80 613,80 613,90 610,90 605,85 " style="fill:white; stroke-width:1; stroke:black; " description="&lt;b&gt;IG12_RS0104155&lt;/b&gt;&lt;br&gt;hypothetical protein&lt;br&gt;Location: 199892 - 200155" locus_tag="IG12_RS0104155" class="clusterblast-orf" id="dummy-1_h1_5_15"  />
</g>
<g id="a1_0016"  >
<polygon points="623,90 775,90 780,85 775,80 623,80 623,90 " style="fill:#d86f15; stroke-width:1; stroke:black; " description="&lt;b&gt;IG12_RS0104160&lt;/b&gt;&lt;br&gt;non-ribosomal peptide synthetase&lt;br&gt;Location: 200467 - 205280&lt;br&gt;&lt;br&gt;&lt;b&gt;BlastP hit with ctg77_5&lt;/b&gt;&lt;br&gt;Percentage identity: 38&lt;br&gt;Percentage coverage: 50&lt;br&gt;BLAST bit score: 267&lt;br&gt;E-value: 1.1e-68" locus_tag="IG12_RS0104160" class="clusterblast-orf" id="dummy-1_h1_5_16"  />
</g>
</svg>
