<svg xmlns="http://www.w3.org/2000/svg" xmlns:xlink="http://www.w3.org/1999/xlink" version="1.1" x="0" y="0" height="230" width="800" viewBox="0 0 800 230" preserveAspectRatio="none"  >
<g label="Query sequence" class="clusterblast-cluster"  >
<text x="5" y="20" class="clusterblast-acc"  >
Query sequence</text>
<line x1="10" y1="35" x2="778.0" y2="35" style="stroke-width:1; stroke:grey; "  />
<polygon points="0,40 53,40 58,35 53,30 0,30 0,40 " style="fill:#d81515; stroke-width:1; stroke:black; " description="&lt;b&gt;ctg13_2&lt;/b&gt;&lt;br&gt;ctg13 2&lt;br&gt;Location: 1336 - 2245" locus_tag="ctg13_2" class="clusterblast-orf" id="dummy-1_q0_0_all"  />
<polygon points="57,40 110,40 115,35 110,30 57,30 57,40 " style="fill:#3cd815; stroke-width:1; stroke:black; " description="&lt;b&gt;ctg13_3&lt;/b&gt;&lt;br&gt;ctg13 3&lt;br&gt;Location: 2234 - 3140" locus_tag="ctg13_3" class="clusterblast-orf" id="dummy-1_q1_0_all"  />
<polygon points="131,40 153,40 158,35 153,30 131,30 131,40 " style="fill:#1563d8; stroke-width:1; stroke:black; " description="&lt;b&gt;ctg13_4&lt;/b&gt;&lt;br&gt;ctg13 4&lt;br&gt;Location: 3396 - 3819" locus_tag="ctg13_4" class="clusterblast-orf" id="dummy-1_q2_0_all"  />
<polygon points="164,35 169,30 236,30 236,40 169,40 164,35 " style="fill:#b115d8; stroke-width:1; stroke:black; " description="&lt;b&gt;ctg13_5&lt;/b&gt;&lt;br&gt;ctg13 5&lt;br&gt;Location: 3904 - 5038" locus_tag="ctg13_5" class="clusterblast-orf" id="dummy-1_q3_0_all"  />
<polygon points="259,40 378,40 383,35 378,30 259,30 259,40 " style="fill:#d88a15; stroke-width:1; stroke:black; " description="&lt;b&gt;ctg13_6&lt;/b&gt;&lt;br&gt;ctg13 6&lt;br&gt;Location: 5394 - 7341" locus_tag="ctg13_6" class="clusterblast-orf" id="dummy-1_q4_0_all"  />
<polygon points="383,40 418,40 423,35 418,30 383,30 383,40 " style="fill:#15d863; stroke-width:1; stroke:black; " description="&lt;b&gt;ctg13_7&lt;/b&gt;&lt;br&gt;ctg13 7&lt;br&gt;Location: 7349 - 7970" locus_tag="ctg13_7" class="clusterblast-orf" id="dummy-1_q5_0_all"  />
<polygon points="426,40 532,40 537,35 532,30 426,30 426,40 " style="fill:#3c15d8; stroke-width:1; stroke:black; " description="&lt;b&gt;ctg13_8&lt;/b&gt;&lt;br&gt;ctg13 8&lt;br&gt;Location: 8020 - 9766" locus_tag="ctg13_8" class="clusterblast-orf" id="dummy-1_q6_0_all"  />
<polygon points="540,40 662,40 667,35 662,30 540,30 540,40 " style="fill:#d8158a; stroke-width:1; stroke:black; " description="&lt;b&gt;ctg13_9&lt;/b&gt;&lt;br&gt;ctg13 9&lt;br&gt;Location: 9816 - 11814" locus_tag="ctg13_9" class="clusterblast-orf" id="dummy-1_q7_0_all"  />
<polygon points="670,35 675,30 724,30 724,40 675,40 670,35 " style="fill:#b1d815; stroke-width:1; stroke:black; " description="&lt;b&gt;ctg13_10&lt;/b&gt;&lt;br&gt;ctg13 10&lt;br&gt;Location: 11854 - 12697" locus_tag="ctg13_10" class="clusterblast-orf" id="dummy-1_q8_0_all"  />
<polygon points="747,40 775,40 780,35 775,30 747,30 747,40 " style="fill:#15d8d8; stroke-width:1; stroke:black; " description="&lt;b&gt;ctg13_11&lt;/b&gt;&lt;br&gt;ctg13 11&lt;br&gt;Location: 13070 - 13583" locus_tag="ctg13_11" class="clusterblast-orf" id="dummy-1_q9_0_all"  />
</g>
<g label="NZ_ALNP01000019" description="NZ_ALNP01000019_c16: Streptomyces sp. AA0539 contig00019, whole genome shotgu... (100% of genes show similarity), siderophore" class="clusterblast-cluster"  >
<text x="5" y="70" class="clusterblast-acc"  >
<a xlink:href="https://antismash-db.secondarymetabolites.org/go/NZ_ALNP01000019/16" target="_blank">NZ_ALNP01000019_c16</a>: Streptomyces sp. AA0539 contig00019, whole genome shotgu... (100% of genes show similarity), siderophore</text>
<line x1="10" y1="85" x2="778.0" y2="85" style="stroke-width:1; stroke:grey; "  />
</g>
<g id="a1_000"  >
<polygon points="0,90 53,90 58,85 53,80 0,80 0,90 " style="fill:#d81515; stroke-width:1; stroke:black; " description="&lt;b&gt;B311_RS0119000&lt;/b&gt;&lt;br&gt;sugar ABC transporter permease&lt;br&gt;Location: 47054 - 47962&lt;br&gt;&lt;br&gt;&lt;b&gt;BlastP hit with ctg13_2&lt;/b&gt;&lt;br&gt;Percentage identity: 100&lt;br&gt;Percentage coverage: 100&lt;br&gt;BLAST bit score: 594&lt;br&gt;E-value: 8.7e-168" locus_tag="B311_RS0119000" class="clusterblast-orf" id="dummy-1_h1_2_0"  />
</g>
<g id="a1_001"  >
<polygon points="57,90 110,90 115,85 110,80 57,80 57,90 " style="fill:#3cd815; stroke-width:1; stroke:black; " description="&lt;b&gt;B311_RS0119005&lt;/b&gt;&lt;br&gt;carbohydrate ABC transporter permease&lt;br&gt;Location: 47952 - 48857&lt;br&gt;&lt;br&gt;&lt;b&gt;BlastP hit with ctg13_3&lt;/b&gt;&lt;br&gt;Percentage identity: 100&lt;br&gt;Percentage coverage: 100&lt;br&gt;BLAST bit score: 596&lt;br&gt;E-value: 1.8e-168" locus_tag="B311_RS0119005" class="clusterblast-orf" id="dummy-1_h1_2_1"  />
</g>
<g id="a1_002"  >
<polygon points="131,90 153,90 158,85 153,80 131,80 131,90 " style="fill:#1563d8; stroke-width:1; stroke:black; " description="&lt;b&gt;B311_RS0119010&lt;/b&gt;&lt;br&gt;aspartate 1-decarboxylase&lt;br&gt;Location: 49114 - 49536&lt;br&gt;&lt;br&gt;&lt;b&gt;BlastP hit with ctg13_4&lt;/b&gt;&lt;br&gt;Percentage identity: 100&lt;br&gt;Percentage coverage: 100&lt;br&gt;BLAST bit score: 269&lt;br&gt;E-value: 3e-70" locus_tag="B311_RS0119010" class="clusterblast-orf" id="dummy-1_h1_2_2"  />
</g>
<g id="a1_003"  >
<polygon points="163,85 168,80 239,80 239,90 168,90 163,85 " style="fill:#b115d8; stroke-width:1; stroke:black; " description="&lt;b&gt;B311_RS0119015&lt;/b&gt;&lt;br&gt;hypothetical protein&lt;br&gt;Location: 49622 - 50812&lt;br&gt;&lt;br&gt;&lt;b&gt;BlastP hit with ctg13_5&lt;/b&gt;&lt;br&gt;Percentage identity: 99&lt;br&gt;Percentage coverage: 100&lt;br&gt;BLAST bit score: 780&lt;br&gt;E-value: 6.3e-224" locus_tag="B311_RS0119015" class="clusterblast-orf" id="dummy-1_h1_2_3"  />
</g>
<g id="a1_004"  >
<polygon points="258,90 377,90 382,85 377,80 258,80 258,90 " style="fill:#d88a15; stroke-width:1; stroke:black; " description="&lt;b&gt;B311_RS0119020&lt;/b&gt;&lt;br&gt;iron transporter&lt;br&gt;Location: 51112 - 53058&lt;br&gt;&lt;br&gt;&lt;b&gt;BlastP hit with ctg13_6&lt;/b&gt;&lt;br&gt;Percentage identity: 100&lt;br&gt;Percentage coverage: 100&lt;br&gt;BLAST bit score: 1304&lt;br&gt;E-value: 0.0" locus_tag="B311_RS0119020" class="clusterblast-orf" id="dummy-1_h1_2_4"  />
</g>
<g id="a1_005"  >
<polygon points="375,90 417,90 422,85 417,80 375,80 375,90 " style="fill:#15d863; stroke-width:1; stroke:black; " description="&lt;b&gt;B311_RS0119025&lt;/b&gt;&lt;br&gt;GNAT family N-acetyltransferase&lt;br&gt;Location: 52950 - 53687&lt;br&gt;&lt;br&gt;&lt;b&gt;BlastP hit with ctg13_7&lt;/b&gt;&lt;br&gt;Percentage identity: 100&lt;br&gt;Percentage coverage: 100&lt;br&gt;BLAST bit score: 419&lt;br&gt;E-value: 2.6e-115" locus_tag="B311_RS0119025" class="clusterblast-orf" id="dummy-1_h1_2_5"  />
</g>
<g id="a1_006"  >
<polygon points="429,90 532,90 537,85 532,80 429,80 429,90 " style="fill:#3c15d8; stroke-width:1; stroke:black; " description="&lt;b&gt;B311_RS0119030&lt;/b&gt;&lt;br&gt;IucA/IucC family siderophore biosynthesis protein&lt;br&gt;Location: 53792 - 55483&lt;br&gt;&lt;br&gt;&lt;b&gt;BlastP hit with ctg13_8&lt;/b&gt;&lt;br&gt;Percentage identity: 100&lt;br&gt;Percentage coverage: 97&lt;br&gt;BLAST bit score: 1143&lt;br&gt;E-value: 0.0" locus_tag="B311_RS0119030" class="clusterblast-orf" id="dummy-1_h1_2_6"  />
</g>
<g id="a1_007"  >
<polygon points="540,90 662,90 667,85 662,80 540,80 540,90 " style="fill:#d8158a; stroke-width:1; stroke:black; " description="&lt;b&gt;B311_RS0119035&lt;/b&gt;&lt;br&gt;ATP-dependent DNA helicase&lt;br&gt;Location: 55534 - 57531&lt;br&gt;&lt;br&gt;&lt;b&gt;BlastP hit with ctg13_9&lt;/b&gt;&lt;br&gt;Percentage identity: 100&lt;br&gt;Percentage coverage: 100&lt;br&gt;BLAST bit score: 1265&lt;br&gt;E-value: 0.0" locus_tag="B311_RS0119035" class="clusterblast-orf" id="dummy-1_h1_2_7"  />
</g>
<g id="a1_008"  >
<polygon points="670,85 675,80 719,80 719,90 675,90 670,85 " style="fill:#b1d815; stroke-width:1; stroke:black; " description="&lt;b&gt;B311_RS0119040&lt;/b&gt;&lt;br&gt;transcriptional repressor LexA&lt;br&gt;Location: 57572 - 58342&lt;br&gt;&lt;br&gt;&lt;b&gt;BlastP hit with ctg13_10&lt;/b&gt;&lt;br&gt;Percentage identity: 100&lt;br&gt;Percentage coverage: 91&lt;br&gt;BLAST bit score: 503&lt;br&gt;E-value: 1.4e-140" locus_tag="B311_RS0119040" class="clusterblast-orf" id="dummy-1_h1_2_8"  />
</g>
<g id="a1_009"  >
<polygon points="747,90 774,90 779,85 774,80 747,80 747,90 " style="fill:#15d8d8; stroke-width:1; stroke:black; " description="&lt;b&gt;B311_RS0119045&lt;/b&gt;&lt;br&gt;transcriptional repressor NrdR&lt;br&gt;Location: 58778 - 59290&lt;br&gt;&lt;br&gt;&lt;b&gt;BlastP hit with ctg13_11&lt;/b&gt;&lt;br&gt;Percentage identity: 99&lt;br&gt;Percentage coverage: 100&lt;br&gt;BLAST bit score: 334&lt;br&gt;E-value: 5.4e-90" locus_tag="B311_RS0119045" class="clusterblast-orf" id="dummy-1_h1_2_9"  />
</g>
</svg>
