<svg xmlns="http://www.w3.org/2000/svg" xmlns:xlink="http://www.w3.org/1999/xlink" version="1.1" x="0" y="0" height="230" width="800" viewBox="0 0 800 230" preserveAspectRatio="none"  >
<g label="Query sequence" class="clusterblast-cluster"  >
<text x="5" y="20" class="clusterblast-acc"  >
Query sequence</text>
<line x1="10" y1="35" x2="778.0" y2="35" style="stroke-width:1; stroke:grey; "  />
<polygon points="40,40 53,40 58,35 53,30 40,30 40,40 " style="fill:white; stroke-width:1; stroke:black; " description="&lt;b&gt;ctg1_19&lt;/b&gt;&lt;br&gt;ctg1 19&lt;br&gt;Location: 20789 - 22121" locus_tag="ctg1_19" class="clusterblast-orf" id="dummy-1_q0_0_all"  />
<polygon points="58,40 61,35 58,30 58,40 " style="fill:#d81515; stroke-width:1; stroke:black; " description="&lt;b&gt;ctg1_20&lt;/b&gt;&lt;br&gt;ctg1 20&lt;br&gt;Location: 22126 - 22333" locus_tag="ctg1_20" class="clusterblast-orf" id="dummy-1_q1_0_all"  />
<polygon points="63,40 66,40 71,35 66,30 63,30 63,40 " style="fill:white; stroke-width:1; stroke:black; " description="&lt;b&gt;ctg1_21&lt;/b&gt;&lt;br&gt;ctg1 21&lt;br&gt;Location: 22451 - 23111" locus_tag="ctg1_21" class="clusterblast-orf" id="dummy-1_q2_0_all"  />
<polygon points="72,35 77,30 86,30 86,40 77,40 72,35 " style="fill:#4dd815; stroke-width:1; stroke:black; " description="&lt;b&gt;ctg1_22&lt;/b&gt;&lt;br&gt;ctg1 22&lt;br&gt;Location: 23130 - 24201" locus_tag="ctg1_22" class="clusterblast-orf" id="dummy-1_q3_0_all"  />
<polygon points="86,35 91,30 101,30 101,40 91,40 86,35 " style="fill:#1585d8; stroke-width:1; stroke:black; " description="&lt;b&gt;ctg1_23&lt;/b&gt;&lt;br&gt;ctg1 23&lt;br&gt;Location: 24197 - 25307" locus_tag="ctg1_23" class="clusterblast-orf" id="dummy-1_q4_0_all"  />
<polygon points="101,35 106,30 119,30 119,40 106,40 101,35 " style="fill:#a115d8; stroke-width:1; stroke:black; " description="&lt;b&gt;ctg1_24&lt;/b&gt;&lt;br&gt;ctg1 24&lt;br&gt;Location: 25334 - 26705" locus_tag="ctg1_24" class="clusterblast-orf" id="dummy-1_q5_0_all"  />
<polygon points="119,35 124,30 130,30 130,40 124,40 119,35 " style="fill:#d86915; stroke-width:1; stroke:black; " description="&lt;b&gt;ctg1_25&lt;/b&gt;&lt;br&gt;ctg1 25&lt;br&gt;Location: 26701 - 27508" locus_tag="ctg1_25" class="clusterblast-orf" id="dummy-1_q6_0_all"  />
<polygon points="130,35 135,30 141,30 141,40 135,40 130,35 " style="fill:#15d831; stroke-width:1; stroke:black; " description="&lt;b&gt;ctg1_26&lt;/b&gt;&lt;br&gt;ctg1 26&lt;br&gt;Location: 27507 - 28320" locus_tag="ctg1_26" class="clusterblast-orf" id="dummy-1_q7_0_all"  />
<polygon points="141,35 146,30 147,30 147,40 146,40 141,35 " style="fill:#1531d8; stroke-width:1; stroke:black; " description="&lt;b&gt;ctg1_27&lt;/b&gt;&lt;br&gt;ctg1 27&lt;br&gt;Location: 28316 - 28772" locus_tag="ctg1_27" class="clusterblast-orf" id="dummy-1_q8_0_all"  />
<polygon points="147,35 152,30 162,30 162,40 152,40 147,35 " style="fill:#d815bc; stroke-width:1; stroke:black; " description="&lt;b&gt;ctg1_28&lt;/b&gt;&lt;br&gt;ctg1 28&lt;br&gt;Location: 28768 - 29938" locus_tag="ctg1_28" class="clusterblast-orf" id="dummy-1_q9_0_all"  />
<polygon points="162,35 166,30 166,40 162,35 " style="fill:#d8bc15; stroke-width:1; stroke:black; " description="&lt;b&gt;ctg1_29&lt;/b&gt;&lt;br&gt;ctg1 29&lt;br&gt;Location: 29934 - 30219" locus_tag="ctg1_29" class="clusterblast-orf" id="dummy-1_q10_0_all"  />
<polygon points="166,35 171,30 197,30 197,40 171,40 166,35 " style="fill:#15d885; stroke-width:1; stroke:black; " description="&lt;b&gt;ctg1_30&lt;/b&gt;&lt;br&gt;ctg1 30&lt;br&gt;Location: 30191 - 32564" locus_tag="ctg1_30" class="clusterblast-orf" id="dummy-1_q11_0_all"  />
<polygon points="197,35 202,30 204,30 204,40 202,40 197,35 " style="fill:#4d15d8; stroke-width:1; stroke:black; " description="&lt;b&gt;ctg1_31&lt;/b&gt;&lt;br&gt;ctg1 31&lt;br&gt;Location: 32556 - 33078" locus_tag="ctg1_31" class="clusterblast-orf" id="dummy-1_q12_0_all"  />
<polygon points="207,40 234,40 239,35 234,30 207,30 207,40 " style="fill:white; stroke-width:1; stroke:black; " description="&lt;b&gt;ctg1_32&lt;/b&gt;&lt;br&gt;ctg1 32&lt;br&gt;Location: 33274 - 35701" locus_tag="ctg1_32" class="clusterblast-orf" id="dummy-1_q13_0_all"  />
<polygon points="243,35 248,30 263,30 263,40 248,40 243,35 " style="fill:white; stroke-width:1; stroke:black; " description="&lt;b&gt;ctg1_33&lt;/b&gt;&lt;br&gt;ctg1 33&lt;br&gt;Location: 36030 - 37515" locus_tag="ctg1_33" class="clusterblast-orf" id="dummy-1_q14_0_all"  />
<polygon points="268,35 273,30 279,30 279,40 273,40 268,35 " style="fill:#d81569; stroke-width:1; stroke:black; " description="&lt;b&gt;ctg1_34&lt;/b&gt;&lt;br&gt;ctg1 34&lt;br&gt;Location: 37865 - 38705" locus_tag="ctg1_34" class="clusterblast-orf" id="dummy-1_q15_0_all"  />
<polygon points="284,35 289,30 302,30 302,40 289,40 284,35 " style="fill:white; stroke-width:1; stroke:black; " description="&lt;b&gt;ctg1_35&lt;/b&gt;&lt;br&gt;ctg1 35&lt;br&gt;Location: 39094 - 40438" locus_tag="ctg1_35" class="clusterblast-orf" id="dummy-1_q16_0_all"  />
<polygon points="303,35 308,30 335,30 335,40 308,40 303,35 " style="fill:#a1d815; stroke-width:1; stroke:black; " description="&lt;b&gt;ctg1_36&lt;/b&gt;&lt;br&gt;ctg1 36&lt;br&gt;Location: 40484 - 42905" locus_tag="ctg1_36" class="clusterblast-orf" id="dummy-1_q17_0_all"  />
<polygon points="335,35 340,30 485,30 485,40 340,40 335,35 " style="fill:#a1d815; stroke-width:1; stroke:black; " description="&lt;b&gt;ctg1_37&lt;/b&gt;&lt;br&gt;ctg1 37&lt;br&gt;Location: 42901 - 54178" locus_tag="ctg1_37" class="clusterblast-orf" id="dummy-1_q18_0_all"  />
<polygon points="485,35 487,30 487,40 485,35 " style="fill:white; stroke-width:1; stroke:black; " description="&lt;b&gt;ctg1_38&lt;/b&gt;&lt;br&gt;ctg1 38&lt;br&gt;Location: 54170 - 54281" locus_tag="ctg1_38" class="clusterblast-orf" id="dummy-1_q19_0_all"  />
<polygon points="500,40 519,40 524,35 519,30 500,30 500,40 " style="fill:white; stroke-width:1; stroke:black; " description="&lt;b&gt;ctg1_39&lt;/b&gt;&lt;br&gt;ctg1 39&lt;br&gt;Location: 55265 - 57056" locus_tag="ctg1_39" class="clusterblast-orf" id="dummy-1_q20_0_all"  />
<polygon points="524,40 532,40 537,35 532,30 524,30 524,40 " style="fill:white; stroke-width:1; stroke:black; " description="&lt;b&gt;ctg1_40&lt;/b&gt;&lt;br&gt;ctg1 40&lt;br&gt;Location: 57055 - 58054" locus_tag="ctg1_40" class="clusterblast-orf" id="dummy-1_q21_0_all"  />
<polygon points="541,35 546,30 546,30 546,40 546,40 541,35 " style="fill:white; stroke-width:1; stroke:black; " description="&lt;b&gt;ctg1_41&lt;/b&gt;&lt;br&gt;ctg1 41&lt;br&gt;Location: 58327 - 58720" locus_tag="ctg1_41" class="clusterblast-orf" id="dummy-1_q22_0_all"  />
<polygon points="546,35 547,30 547,40 546,35 " style="fill:white; stroke-width:1; stroke:black; " description="&lt;b&gt;ctg1_42&lt;/b&gt;&lt;br&gt;ctg1 42&lt;br&gt;Location: 58716 - 58809" locus_tag="ctg1_42" class="clusterblast-orf" id="dummy-1_q23_0_all"  />
<polygon points="547,40 550,40 555,35 550,30 547,30 547,40 " style="fill:white; stroke-width:1; stroke:black; " description="&lt;b&gt;ctg1_43&lt;/b&gt;&lt;br&gt;ctg1 43&lt;br&gt;Location: 58839 - 59445" locus_tag="ctg1_43" class="clusterblast-orf" id="dummy-1_q24_0_all"  />
<polygon points="555,40 562,40 567,35 562,30 555,30 555,40 " style="fill:white; stroke-width:1; stroke:black; " description="&lt;b&gt;ctg1_44&lt;/b&gt;&lt;br&gt;ctg1 44&lt;br&gt;Location: 59441 - 60344" locus_tag="ctg1_44" class="clusterblast-orf" id="dummy-1_q25_0_all"  />
<polygon points="567,40 599,40 604,35 599,30 567,30 567,40 " style="fill:white; stroke-width:1; stroke:black; " description="&lt;b&gt;ctg1_45&lt;/b&gt;&lt;br&gt;ctg1 45&lt;br&gt;Location: 60340 - 63115" locus_tag="ctg1_45" class="clusterblast-orf" id="dummy-1_q26_0_all"  />
<polygon points="612,35 617,30 627,30 627,40 617,40 612,35 " style="fill:white; stroke-width:1; stroke:black; " description="&lt;b&gt;ctg1_46&lt;/b&gt;&lt;br&gt;ctg1 46&lt;br&gt;Location: 63678 - 64821" locus_tag="ctg1_46" class="clusterblast-orf" id="dummy-1_q27_0_all"  />
<polygon points="629,35 634,30 634,30 634,40 634,40 629,35 " style="fill:white; stroke-width:1; stroke:black; " description="&lt;b&gt;ctg1_47&lt;/b&gt;&lt;br&gt;ctg1 47&lt;br&gt;Location: 64988 - 65348" locus_tag="ctg1_47" class="clusterblast-orf" id="dummy-1_q28_0_all"  />
<polygon points="636,40 637,35 636,30 636,40 " style="fill:white; stroke-width:1; stroke:black; " description="&lt;b&gt;ctg1_48&lt;/b&gt;&lt;br&gt;ctg1 48&lt;br&gt;Location: 65498 - 65594" locus_tag="ctg1_48" class="clusterblast-orf" id="dummy-1_q29_0_all"  />
<polygon points="640,35 645,30 652,30 652,40 645,40 640,35 " style="fill:white; stroke-width:1; stroke:black; " description="&lt;b&gt;ctg1_49&lt;/b&gt;&lt;br&gt;ctg1 49&lt;br&gt;Location: 65762 - 66668" locus_tag="ctg1_49" class="clusterblast-orf" id="dummy-1_q30_0_all"  />
<polygon points="652,35 657,30 667,30 667,40 657,40 652,35 " style="fill:white; stroke-width:1; stroke:black; " description="&lt;b&gt;ctg1_50&lt;/b&gt;&lt;br&gt;ctg1 50&lt;br&gt;Location: 66720 - 67803" locus_tag="ctg1_50" class="clusterblast-orf" id="dummy-1_q31_0_all"  />
<polygon points="667,35 672,30 681,30 681,40 672,40 667,35 " style="fill:white; stroke-width:1; stroke:black; " description="&lt;b&gt;ctg1_51&lt;/b&gt;&lt;br&gt;ctg1 51&lt;br&gt;Location: 67850 - 68861" locus_tag="ctg1_51" class="clusterblast-orf" id="dummy-1_q32_0_all"  />
<polygon points="686,35 689,30 689,40 686,35 " style="fill:white; stroke-width:1; stroke:black; " description="&lt;b&gt;ctg1_52&lt;/b&gt;&lt;br&gt;ctg1 52&lt;br&gt;Location: 69275 - 69461" locus_tag="ctg1_52" class="clusterblast-orf" id="dummy-1_q33_0_all"  />
<polygon points="691,35 696,30 701,30 701,40 696,40 691,35 " style="fill:white; stroke-width:1; stroke:black; " description="&lt;b&gt;ctg1_53&lt;/b&gt;&lt;br&gt;ctg1 53&lt;br&gt;Location: 69605 - 70400" locus_tag="ctg1_53" class="clusterblast-orf" id="dummy-1_q34_0_all"  />
<polygon points="703,40 709,40 714,35 709,30 703,30 703,40 " style="fill:white; stroke-width:1; stroke:black; " description="&lt;b&gt;ctg1_54&lt;/b&gt;&lt;br&gt;ctg1 54&lt;br&gt;Location: 70523 - 71357" locus_tag="ctg1_54" class="clusterblast-orf" id="dummy-1_q35_0_all"  />
<polygon points="714,40 728,40 733,35 728,30 714,30 714,40 " style="fill:#15d8d8; stroke-width:1; stroke:black; " description="&lt;b&gt;ctg1_55&lt;/b&gt;&lt;br&gt;ctg1 55&lt;br&gt;Location: 71317 - 72736" locus_tag="ctg1_55" class="clusterblast-orf" id="dummy-1_q36_0_all"  />
<polygon points="732,40 734,40 739,35 734,30 732,30 732,40 " style="fill:white; stroke-width:1; stroke:black; " description="&lt;b&gt;ctg1_56&lt;/b&gt;&lt;br&gt;ctg1 56&lt;br&gt;Location: 72725 - 73211" locus_tag="ctg1_56" class="clusterblast-orf" id="dummy-1_q37_0_all"  />
</g>
<g label="NZ_JOBO01000029" description="NZ_JOBO01000029_c29: Streptomyces rimosus subsp. rimosus strain NRRL WC-3927 ... (27% of genes show similarity), t1pks" class="clusterblast-cluster"  >
<text x="5" y="70" class="clusterblast-acc"  >
<a xlink:href="https://antismash-db.secondarymetabolites.org/go/NZ_JOBO01000029/29" target="_blank">NZ_JOBO01000029_c29</a>: Streptomyces rimosus subsp. rimosus strain NRRL WC-3927 ... (27% of genes show similarity), t1pks</text>
<line x1="10" y1="85" x2="778.0" y2="85" style="stroke-width:1; stroke:grey; "  />
</g>
<g id="a1_000"  >
<polygon points="0,85 5,80 14,80 14,90 5,90 0,85 " style="fill:#1585d8; stroke-width:1; stroke:black; " description="&lt;b&gt;IG76_RS0129620&lt;/b&gt;&lt;br&gt;hydrogenase formation protein HypD&lt;br&gt;Location: 43452 - 44564&lt;br&gt;&lt;br&gt;&lt;b&gt;BlastP hit with ctg1_23&lt;/b&gt;&lt;br&gt;Percentage identity: 79&lt;br&gt;Percentage coverage: 100&lt;br&gt;BLAST bit score: 577&lt;br&gt;E-value: 7.9e-163" locus_tag="IG76_RS0129620" class="clusterblast-orf" id="dummy-1_h1_3_0"  />
</g>
<g id="a1_001"  >
<polygon points="14,85 19,80 24,80 24,90 19,90 14,85 " style="fill:white; stroke-width:1; stroke:black; " description="&lt;b&gt;IG76_RS0129625&lt;/b&gt;&lt;br&gt;CBS domain-containing protein&lt;br&gt;Location: 44564 - 45262" locus_tag="IG76_RS0129625" class="clusterblast-orf" id="dummy-1_h1_3_1"  />
</g>
<g id="a1_002"  >
<polygon points="23,85 28,80 42,80 42,90 28,90 23,85 " style="fill:#a115d8; stroke-width:1; stroke:black; " description="&lt;b&gt;IG76_RS0129630&lt;/b&gt;&lt;br&gt;dehydrogenase&lt;br&gt;Location: 45253 - 46653&lt;br&gt;&lt;br&gt;&lt;b&gt;BlastP hit with ctg1_24&lt;/b&gt;&lt;br&gt;Percentage identity: 75&lt;br&gt;Percentage coverage: 100&lt;br&gt;BLAST bit score: 686&lt;br&gt;E-value: 2.5e-195" locus_tag="IG76_RS0129630" class="clusterblast-orf" id="dummy-1_h1_3_2"  />
</g>
<g id="a1_003"  >
<polygon points="42,85 47,80 53,80 53,90 47,90 42,85 " style="fill:#d86915; stroke-width:1; stroke:black; " description="&lt;b&gt;IG76_RS0129635&lt;/b&gt;&lt;br&gt;oxidoreductase&lt;br&gt;Location: 46650 - 47435&lt;br&gt;&lt;br&gt;&lt;b&gt;BlastP hit with ctg1_25&lt;/b&gt;&lt;br&gt;Percentage identity: 81&lt;br&gt;Percentage coverage: 91&lt;br&gt;BLAST bit score: 413&lt;br&gt;E-value: 2.4e-113" locus_tag="IG76_RS0129635" class="clusterblast-orf" id="dummy-1_h1_3_3"  />
</g>
<g id="a1_004"  >
<polygon points="53,85 58,80 63,80 63,90 58,90 53,85 " style="fill:#15d831; stroke-width:1; stroke:black; " description="&lt;b&gt;IG76_RS0129640&lt;/b&gt;&lt;br&gt;oxidoreductase&lt;br&gt;Location: 47437 - 48255&lt;br&gt;&lt;br&gt;&lt;b&gt;BlastP hit with ctg1_26&lt;/b&gt;&lt;br&gt;Percentage identity: 60&lt;br&gt;Percentage coverage: 99&lt;br&gt;BLAST bit score: 319&lt;br&gt;E-value: 4.8e-85" locus_tag="IG76_RS0129640" class="clusterblast-orf" id="dummy-1_h1_3_4"  />
</g>
<g id="a1_005"  >
<polygon points="63,85 68,80 70,80 70,90 68,90 63,85 " style="fill:#1531d8; stroke-width:1; stroke:black; " description="&lt;b&gt;IG76_RS0129645&lt;/b&gt;&lt;br&gt;cyclic nucleotide-binding domain-containing protein&lt;br&gt;Location: 48252 - 48728&lt;br&gt;&lt;br&gt;&lt;b&gt;BlastP hit with ctg1_27&lt;/b&gt;&lt;br&gt;Percentage identity: 56&lt;br&gt;Percentage coverage: 94&lt;br&gt;BLAST bit score: 162&lt;br&gt;E-value: 4.2e-38" locus_tag="IG76_RS0129645" class="clusterblast-orf" id="dummy-1_h1_3_5"  />
</g>
<g id="a1_006"  >
<polygon points="70,85 75,80 86,80 86,90 75,90 70,85 " style="fill:#d815bc; stroke-width:1; stroke:black; " description="&lt;b&gt;IG76_RS0129650&lt;/b&gt;&lt;br&gt;4Fe-4S ferredoxin&lt;br&gt;Location: 48725 - 49933&lt;br&gt;&lt;br&gt;&lt;b&gt;BlastP hit with ctg1_28&lt;/b&gt;&lt;br&gt;Percentage identity: 68&lt;br&gt;Percentage coverage: 97&lt;br&gt;BLAST bit score: 527&lt;br&gt;E-value: 9.9e-148" locus_tag="IG76_RS0129650" class="clusterblast-orf" id="dummy-1_h1_3_6"  />
</g>
<g id="a1_007"  >
<polygon points="88,85 93,80 98,80 98,90 93,90 88,85 " style="fill:white; stroke-width:1; stroke:black; " description="&lt;b&gt;IG76_RS0129655&lt;/b&gt;&lt;br&gt;polyphosphate kinase 2&lt;br&gt;Location: 50064 - 50858" locus_tag="IG76_RS0129655" class="clusterblast-orf" id="dummy-1_h1_3_7"  />
</g>
<g id="a1_008"  >
<polygon points="103,90 117,90 122,85 117,80 103,80 103,90 " style="fill:white; stroke-width:1; stroke:black; " description="&lt;b&gt;IG76_RS0129660&lt;/b&gt;&lt;br&gt;serine hydrolase&lt;br&gt;Location: 51203 - 52627" locus_tag="IG76_RS0129660" class="clusterblast-orf" id="dummy-1_h1_3_8"  />
</g>
<g id="a1_009"  >
<polygon points="123,90 146,90 151,85 146,80 123,80 123,90 " style="fill:white; stroke-width:1; stroke:black; " description="&lt;b&gt;IG76_RS0129665&lt;/b&gt;&lt;br&gt;APC family permease&lt;br&gt;Location: 52738 - 54786" locus_tag="IG76_RS0129665" class="clusterblast-orf" id="dummy-1_h1_3_9"  />
</g>
<g id="a1_0010"  >
<polygon points="154,90 170,90 175,85 170,80 154,80 154,90 " style="fill:white; stroke-width:1; stroke:black; " description="&lt;b&gt;IG76_RS0129670&lt;/b&gt;&lt;br&gt;histidine kinase&lt;br&gt;Location: 55014 - 56624" locus_tag="IG76_RS0129670" class="clusterblast-orf" id="dummy-1_h1_3_10"  />
</g>
<g id="a1_0011"  >
<polygon points="189,90 189,90 194,85 189,80 189,80 189,90 " style="fill:white; stroke-width:1; stroke:black; " description="&lt;b&gt;IG76_RS0129675&lt;/b&gt;&lt;br&gt;NIPSNAP family protein&lt;br&gt;Location: 57691 - 58023" locus_tag="IG76_RS0129675" class="clusterblast-orf" id="dummy-1_h1_3_11"  />
</g>
<g id="a1_0012"  >
<polygon points="199,90 205,90 210,85 205,80 199,80 199,90 " style="fill:white; stroke-width:1; stroke:black; " description="&lt;b&gt;IG76_RS0129685&lt;/b&gt;&lt;br&gt;hypothetical protein&lt;br&gt;Location: 58457 - 59218" locus_tag="IG76_RS0129685" class="clusterblast-orf" id="dummy-1_h1_3_12"  />
</g>
<g id="a1_0013"  >
<polygon points="217,85 222,80 226,80 226,90 222,90 217,85 " style="fill:white; stroke-width:1; stroke:black; " description="&lt;b&gt;IG76_RS0129690&lt;/b&gt;&lt;br&gt;SDR family NAD(P)-dependent oxidoreductase&lt;br&gt;Location: 59751 - 60470" locus_tag="IG76_RS0129690" class="clusterblast-orf" id="dummy-1_h1_3_13"  />
</g>
<g id="a1_0014"  >
<polygon points="233,90 244,90 249,85 244,80 233,80 233,90 " style="fill:white; stroke-width:1; stroke:black; " description="&lt;b&gt;IG76_RS0129695&lt;/b&gt;&lt;br&gt;cytochrome P450&lt;br&gt;Location: 60991 - 62196" locus_tag="IG76_RS0129695" class="clusterblast-orf" id="dummy-1_h1_3_14"  />
</g>
<g id="a1_0015"  >
<polygon points="254,90 376,90 381,85 376,80 254,80 254,90 " style="fill:#a1d815; stroke-width:1; stroke:black; " description="&lt;b&gt;IG76_RS1000000139800&lt;/b&gt;&lt;br&gt;polyketide synthase&lt;br&gt;Location: 62555 - 72076&lt;br&gt;&lt;br&gt;&lt;b&gt;BlastP hit with ctg1_36&lt;/b&gt;&lt;br&gt;Percentage identity: 50&lt;br&gt;Percentage coverage: 83&lt;br&gt;BLAST bit score: 584&lt;br&gt;E-value: 1.8e-164&lt;br&gt;&lt;br&gt;&lt;b&gt;BlastP hit with ctg1_37&lt;/b&gt;&lt;br&gt;Percentage identity: 49&lt;br&gt;Percentage coverage: 46&lt;br&gt;BLAST bit score: 1420&lt;br&gt;E-value: 0.0" locus_tag="IG76_RS1000000139800" class="clusterblast-orf" id="dummy-1_h1_3_15"  />
</g>
<g id="a1_0016"  >
<polygon points="381,90 393,90 398,85 393,80 381,80 381,90 " style="fill:white; stroke-width:1; stroke:black; " description="&lt;b&gt;IG76_RS0129705&lt;/b&gt;&lt;br&gt;cytochrome P450&lt;br&gt;Location: 72080 - 73342" locus_tag="IG76_RS0129705" class="clusterblast-orf" id="dummy-1_h1_3_16"  />
</g>
<g id="a1_0017"  >
<polygon points="398,90 468,90 473,85 468,80 398,80 398,90 " style="fill:#a1d815; stroke-width:1; stroke:black; " description="&lt;b&gt;IG76_RS0129710&lt;/b&gt;&lt;br&gt;type I polyketide synthase&lt;br&gt;Location: 73370 - 78952&lt;br&gt;&lt;br&gt;&lt;b&gt;BlastP hit with ctg1_36&lt;/b&gt;&lt;br&gt;Percentage identity: 41&lt;br&gt;Percentage coverage: 114&lt;br&gt;BLAST bit score: 602&lt;br&gt;E-value: 8.5e-170&lt;br&gt;&lt;br&gt;&lt;b&gt;BlastP hit with ctg1_37&lt;/b&gt;&lt;br&gt;Percentage identity: 46&lt;br&gt;Percentage coverage: 48&lt;br&gt;BLAST bit score: 1253&lt;br&gt;E-value: 0.0" locus_tag="IG76_RS0129710" class="clusterblast-orf" id="dummy-1_h1_3_17"  />
</g>
<g id="a1_0018"  >
<polygon points="472,90 519,90 524,85 519,80 472,80 472,90 " style="fill:#a1d815; stroke-width:1; stroke:black; " description="&lt;b&gt;IG76_RS0129715&lt;/b&gt;&lt;br&gt;hypothetical protein&lt;br&gt;Location: 78945 - 82784&lt;br&gt;&lt;br&gt;&lt;b&gt;BlastP hit with ctg1_36&lt;/b&gt;&lt;br&gt;Percentage identity: 43&lt;br&gt;Percentage coverage: 103&lt;br&gt;BLAST bit score: 581&lt;br&gt;E-value: 1.6e-163" locus_tag="IG76_RS0129715" class="clusterblast-orf" id="dummy-1_h1_3_18"  />
</g>
<g id="a1_0019"  >
<polygon points="524,90 526,85 524,80 524,90 " style="fill:white; stroke-width:1; stroke:black; " description="&lt;b&gt;IG76_RS1000000139805&lt;/b&gt;&lt;br&gt;integrase&lt;br&gt;Location: 82799 - 82934" locus_tag="IG76_RS1000000139805" class="clusterblast-orf" id="dummy-1_h1_3_19"  />
</g>
<g id="a1_0020"  >
<polygon points="529,85 534,80 538,80 538,90 534,90 529,85 " style="fill:white; stroke-width:1; stroke:black; " description="&lt;b&gt;IG76_RS0129720&lt;/b&gt;&lt;br&gt;hypothetical protein&lt;br&gt;Location: 83167 - 83832" locus_tag="IG76_RS0129720" class="clusterblast-orf" id="dummy-1_h1_3_20"  />
</g>
<g id="a1_0021"  >
<polygon points="538,85 543,80 550,80 550,90 543,90 538,85 " style="fill:white; stroke-width:1; stroke:black; " description="&lt;b&gt;IG76_RS0129725&lt;/b&gt;&lt;br&gt;hypothetical protein&lt;br&gt;Location: 83882 - 84799" locus_tag="IG76_RS0129725" class="clusterblast-orf" id="dummy-1_h1_3_21"  />
</g>
<g id="a1_0022"  >
<polygon points="550,85 555,80 573,80 573,90 555,90 550,85 " style="fill:white; stroke-width:1; stroke:black; " description="&lt;b&gt;IG76_RS0129730&lt;/b&gt;&lt;br&gt;hypothetical protein&lt;br&gt;Location: 84802 - 86469" locus_tag="IG76_RS0129730" class="clusterblast-orf" id="dummy-1_h1_3_22"  />
</g>
<g id="a1_0023"  >
<polygon points="575,90 580,90 585,85 580,80 575,80 575,90 " style="fill:white; stroke-width:1; stroke:black; " description="&lt;b&gt;IG76_RS0129735&lt;/b&gt;&lt;br&gt;NUDIX domain-containing protein&lt;br&gt;Location: 86640 - 87362" locus_tag="IG76_RS0129735" class="clusterblast-orf" id="dummy-1_h1_3_23"  />
</g>
<g id="a1_0024"  >
<polygon points="591,90 594,90 599,85 594,80 591,80 591,90 " style="fill:white; stroke-width:1; stroke:black; " description="&lt;b&gt;IG76_RS1000000138975&lt;/b&gt;&lt;br&gt;hypothetical protein&lt;br&gt;Location: 87829 - 88464" locus_tag="IG76_RS1000000138975" class="clusterblast-orf" id="dummy-1_h1_3_24"  />
</g>
<g id="a1_0025"  >
<polygon points="610,90 623,90 628,85 623,80 610,80 610,90 " style="fill:white; stroke-width:1; stroke:black; " description="&lt;b&gt;IG76_RS0129740&lt;/b&gt;&lt;br&gt;hypothetical protein&lt;br&gt;Location: 89248 - 90627" locus_tag="IG76_RS0129740" class="clusterblast-orf" id="dummy-1_h1_3_25"  />
</g>
<g id="a1_0026"  >
<polygon points="628,85 633,80 636,80 636,90 633,90 628,85 " style="fill:white; stroke-width:1; stroke:black; " description="&lt;b&gt;IG76_RS1000000138980&lt;/b&gt;&lt;br&gt;hypothetical protein&lt;br&gt;Location: 90611 - 91192" locus_tag="IG76_RS1000000138980" class="clusterblast-orf" id="dummy-1_h1_3_26"  />
</g>
<g id="a1_0027"  >
<polygon points="638,90 642,85 638,80 638,90 " style="fill:white; stroke-width:1; stroke:black; " description="&lt;b&gt;IG76_RS0129745&lt;/b&gt;&lt;br&gt;SHOCT domain-containing protein&lt;br&gt;Location: 91408 - 91692" locus_tag="IG76_RS0129745" class="clusterblast-orf" id="dummy-1_h1_3_27"  />
</g>
<g id="a1_0028"  >
<polygon points="650,90 655,90 660,85 655,80 650,80 650,90 " style="fill:white; stroke-width:1; stroke:black; " description="&lt;b&gt;IG76_RS0129750&lt;/b&gt;&lt;br&gt;rubrerythrin family protein&lt;br&gt;Location: 92254 - 93054" locus_tag="IG76_RS0129750" class="clusterblast-orf" id="dummy-1_h1_3_28"  />
</g>
<g id="a1_0029"  >
<polygon points="663,90 665,90 670,85 665,80 663,80 663,90 " style="fill:white; stroke-width:1; stroke:black; " description="&lt;b&gt;IG76_RS0129755&lt;/b&gt;&lt;br&gt;hypothetical protein&lt;br&gt;Location: 93266 - 93778" locus_tag="IG76_RS0129755" class="clusterblast-orf" id="dummy-1_h1_3_29"  />
</g>
<g id="a1_0030"  >
<polygon points="676,90 680,85 676,80 676,90 " style="fill:white; stroke-width:1; stroke:black; " description="&lt;b&gt;IG76_RS0129760&lt;/b&gt;&lt;br&gt;hypothetical protein&lt;br&gt;Location: 94217 - 94513" locus_tag="IG76_RS0129760" class="clusterblast-orf" id="dummy-1_h1_3_30"  />
</g>
<g id="a1_0031"  >
<polygon points="688,90 697,90 702,85 697,80 688,80 688,90 " style="fill:white; stroke-width:1; stroke:black; " description="&lt;b&gt;IG76_RS0129765&lt;/b&gt;&lt;br&gt;type I glyceraldehyde-3-phosphate dehydrogenase&lt;br&gt;Location: 95126 - 96142" locus_tag="IG76_RS0129765" class="clusterblast-orf" id="dummy-1_h1_3_31"  />
</g>
<g id="a1_0032"  >
<polygon points="702,90 730,90 735,85 730,80 702,80 702,90 " style="fill:white; stroke-width:1; stroke:black; " description="&lt;b&gt;IG76_RS0129770&lt;/b&gt;&lt;br&gt;glycoside hydrolase family 65 protein&lt;br&gt;Location: 96202 - 98649" locus_tag="IG76_RS0129770" class="clusterblast-orf" id="dummy-1_h1_3_32"  />
</g>
<g id="a1_0033"  >
<polygon points="735,90 744,90 749,85 744,80 735,80 735,90 " style="fill:white; stroke-width:1; stroke:black; " description="&lt;b&gt;IG76_RS0129775&lt;/b&gt;&lt;br&gt;universal stress protein&lt;br&gt;Location: 98646 - 99674" locus_tag="IG76_RS0129775" class="clusterblast-orf" id="dummy-1_h1_3_33"  />
</g>
<g id="a1_0034"  >
<polygon points="749,85 754,80 769,80 769,90 754,90 749,85 " style="fill:#15d8d8; stroke-width:1; stroke:black; " description="&lt;b&gt;IG76_RS0129780&lt;/b&gt;&lt;br&gt;sensor histidine kinase&lt;br&gt;Location: 99716 - 101194&lt;br&gt;&lt;br&gt;&lt;b&gt;BlastP hit with ctg1_55&lt;/b&gt;&lt;br&gt;Percentage identity: 31&lt;br&gt;Percentage coverage: 68&lt;br&gt;BLAST bit score: 102&lt;br&gt;E-value: 9.5e-20" locus_tag="IG76_RS0129780" class="clusterblast-orf" id="dummy-1_h1_3_34"  />
</g>
<g id="a1_0035"  >
<polygon points="769,85 774,80 780,80 780,90 774,90 769,85 " style="fill:white; stroke-width:1; stroke:black; " description="&lt;b&gt;IG76_RS0129785&lt;/b&gt;&lt;br&gt;DNA-binding response regulator&lt;br&gt;Location: 101191 - 101991" locus_tag="IG76_RS0129785" class="clusterblast-orf" id="dummy-1_h1_3_35"  />
</g>
</svg>
