<svg xmlns="http://www.w3.org/2000/svg" xmlns:xlink="http://www.w3.org/1999/xlink" version="1.1" x="0" y="0" height="230" width="800" viewBox="0 0 800 230" preserveAspectRatio="none"  >
<g label="Query sequence" class="clusterblast-cluster"  >
<text x="5" y="20" class="clusterblast-acc"  >
Query sequence</text>
<line x1="10" y1="35" x2="778.0" y2="35" style="stroke-width:1; stroke:grey; "  />
<polygon points="225,40 226,35 225,30 225,40 " style="fill:#d81515; stroke-width:1; stroke:black; " description="&lt;b&gt;ctg14_1&lt;/b&gt;&lt;br&gt;ctg14 1&lt;br&gt;Location: 2 - 119" locus_tag="ctg14_1" class="clusterblast-orf" id="dummy-1_q0_0_all"  />
<polygon points="226,35 231,30 238,30 238,40 231,40 226,35 " style="fill:#77d815; stroke-width:1; stroke:black; " description="&lt;b&gt;ctg14_2&lt;/b&gt;&lt;br&gt;ctg14 2&lt;br&gt;Location: 186 - 1635" locus_tag="ctg14_2" class="clusterblast-orf" id="dummy-1_q1_0_all"  />
<polygon points="240,40 245,40 250,35 245,30 240,30 240,40 " style="fill:#15d8d8; stroke-width:1; stroke:black; " description="&lt;b&gt;ctg14_3&lt;/b&gt;&lt;br&gt;ctg14 3&lt;br&gt;Location: 1828 - 3061" locus_tag="ctg14_3" class="clusterblast-orf" id="dummy-1_q2_0_all"  />
<polygon points="250,40 254,35 250,30 250,40 " style="fill:#7715d8; stroke-width:1; stroke:black; " description="&lt;b&gt;ctg14_4&lt;/b&gt;&lt;br&gt;ctg14 4&lt;br&gt;Location: 3057 - 3471" locus_tag="ctg14_4" class="clusterblast-orf" id="dummy-1_q3_0_all"  />
<polygon points="254,35 259,30 259,30 259,40 259,40 254,35 " style="fill:#7715d8; stroke-width:1; stroke:black; " description="&lt;b&gt;ctg14_5&lt;/b&gt;&lt;br&gt;ctg14 5&lt;br&gt;Location: 3481 - 4162" locus_tag="ctg14_5" class="clusterblast-orf" id="dummy-1_q4_0_all"  />
<polygon points="265,40 265,40 270,35 265,30 265,30 265,40 " style="fill:#7715d8; stroke-width:1; stroke:black; " description="&lt;b&gt;ctg14_6&lt;/b&gt;&lt;br&gt;ctg14 6&lt;br&gt;Location: 4786 - 5452" locus_tag="ctg14_6" class="clusterblast-orf" id="dummy-1_q5_0_all"  />
<polygon points="271,40 272,40 277,35 272,30 271,30 271,40 " style="fill:#d83f15; stroke-width:1; stroke:black; " description="&lt;b&gt;ctg14_7&lt;/b&gt;&lt;br&gt;ctg14 7&lt;br&gt;Location: 5599 - 6319" locus_tag="ctg14_7" class="clusterblast-orf" id="dummy-1_q6_0_all"  />
<polygon points="277,40 282,40 287,35 282,30 277,30 277,40 " style="fill:#4dd815; stroke-width:1; stroke:black; " description="&lt;b&gt;ctg14_8&lt;/b&gt;&lt;br&gt;ctg14 8&lt;br&gt;Location: 6315 - 7548" locus_tag="ctg14_8" class="clusterblast-orf" id="dummy-1_q7_0_all"  />
<polygon points="287,40 288,40 293,35 288,30 287,30 287,40 " style="fill:#15aed8; stroke-width:1; stroke:black; " description="&lt;b&gt;ctg14_9&lt;/b&gt;&lt;br&gt;ctg14 9&lt;br&gt;Location: 7535 - 8180" locus_tag="ctg14_9" class="clusterblast-orf" id="dummy-1_q8_0_all"  />
<polygon points="293,40 294,40 299,35 294,30 293,30 293,40 " style="fill:#a115d8; stroke-width:1; stroke:black; " description="&lt;b&gt;ctg14_10&lt;/b&gt;&lt;br&gt;ctg14 10&lt;br&gt;Location: 8176 - 8989" locus_tag="ctg14_10" class="clusterblast-orf" id="dummy-1_q9_0_all"  />
<polygon points="301,40 308,40 313,35 308,30 301,30 301,40 " style="fill:#d86915; stroke-width:1; stroke:black; " description="&lt;b&gt;ctg14_11&lt;/b&gt;&lt;br&gt;ctg14 11&lt;br&gt;Location: 9218 - 10688" locus_tag="ctg14_11" class="clusterblast-orf" id="dummy-1_q10_0_all"  />
<polygon points="314,40 317,40 322,35 317,30 314,30 314,40 " style="fill:#23d815; stroke-width:1; stroke:black; " description="&lt;b&gt;ctg14_12&lt;/b&gt;&lt;br&gt;ctg14 12&lt;br&gt;Location: 10766 - 11747" locus_tag="ctg14_12" class="clusterblast-orf" id="dummy-1_q11_0_all"  />
<polygon points="322,40 328,40 333,35 328,30 322,30 322,40 " style="fill:#1585d8; stroke-width:1; stroke:black; " description="&lt;b&gt;ctg14_13&lt;/b&gt;&lt;br&gt;ctg14 13&lt;br&gt;Location: 11757 - 13005" locus_tag="ctg14_13" class="clusterblast-orf" id="dummy-1_q12_0_all"  />
<polygon points="333,35 338,30 338,30 338,40 338,40 333,35 " style="fill:#ca15d8; stroke-width:1; stroke:black; " description="&lt;b&gt;ctg14_14&lt;/b&gt;&lt;br&gt;ctg14 14&lt;br&gt;Location: 13041 - 13641" locus_tag="ctg14_14" class="clusterblast-orf" id="dummy-1_q13_0_all"  />
<polygon points="340,35 342,30 342,40 340,35 " style="fill:#d89315; stroke-width:1; stroke:black; " description="&lt;b&gt;ctg14_15&lt;/b&gt;&lt;br&gt;ctg14 15&lt;br&gt;Location: 13871 - 14120" locus_tag="ctg14_15" class="clusterblast-orf" id="dummy-1_q14_0_all"  />
<polygon points="342,35 347,30 350,30 350,40 347,40 342,35 " style="fill:#15d831; stroke-width:1; stroke:black; " description="&lt;b&gt;ctg14_16&lt;/b&gt;&lt;br&gt;ctg14 16&lt;br&gt;Location: 14152 - 15067" locus_tag="ctg14_16" class="clusterblast-orf" id="dummy-1_q15_0_all"  />
<polygon points="350,35 355,30 360,30 360,40 355,40 350,35 " style="fill:#155bd8; stroke-width:1; stroke:black; " description="&lt;b&gt;ctg14_17&lt;/b&gt;&lt;br&gt;ctg14 17&lt;br&gt;Location: 15063 - 16251" locus_tag="ctg14_17" class="clusterblast-orf" id="dummy-1_q16_0_all"  />
<polygon points="360,35 361,30 361,40 360,35 " style="fill:white; stroke-width:1; stroke:black; " description="&lt;b&gt;ctg14_18&lt;/b&gt;&lt;br&gt;ctg14 18&lt;br&gt;Location: 16256 - 16418" locus_tag="ctg14_18" class="clusterblast-orf" id="dummy-1_q17_0_all"  />
<polygon points="363,40 372,40 377,35 372,30 363,30 363,40 " style="fill:#d815bc; stroke-width:1; stroke:black; " description="&lt;b&gt;ctg14_19&lt;/b&gt;&lt;br&gt;ctg14 19&lt;br&gt;Location: 16709 - 18401" locus_tag="ctg14_19" class="clusterblast-orf" id="dummy-1_q18_0_all"  />
<polygon points="377,40 450,40 455,35 450,30 377,30 377,40 " style="fill:#d8bc15; stroke-width:1; stroke:black; " description="&lt;b&gt;ctg14_20&lt;/b&gt;&lt;br&gt;ctg14 20&lt;br&gt;Location: 18381 - 27747" locus_tag="ctg14_20" class="clusterblast-orf" id="dummy-1_q19_0_all"  />
<polygon points="455,40 457,40 462,35 457,30 455,30 455,40 " style="fill:#15d85b; stroke-width:1; stroke:black; " description="&lt;b&gt;ctg14_21&lt;/b&gt;&lt;br&gt;ctg14 21&lt;br&gt;Location: 27749 - 28601" locus_tag="ctg14_21" class="clusterblast-orf" id="dummy-1_q20_0_all"  />
<polygon points="462,40 464,35 462,30 462,40 " style="fill:#1531d8; stroke-width:1; stroke:black; " description="&lt;b&gt;ctg14_22&lt;/b&gt;&lt;br&gt;ctg14 22&lt;br&gt;Location: 28647 - 28914" locus_tag="ctg14_22" class="clusterblast-orf" id="dummy-1_q21_0_all"  />
<polygon points="464,40 469,40 474,35 469,30 464,30 464,40 " style="fill:#d81593; stroke-width:1; stroke:black; " description="&lt;b&gt;ctg14_23&lt;/b&gt;&lt;br&gt;ctg14 23&lt;br&gt;Location: 28910 - 30050" locus_tag="ctg14_23" class="clusterblast-orf" id="dummy-1_q22_0_all"  />
<polygon points="474,40 477,40 482,35 477,30 474,30 474,40 " style="fill:#cad815; stroke-width:1; stroke:black; " description="&lt;b&gt;ctg14_24&lt;/b&gt;&lt;br&gt;ctg14 24&lt;br&gt;Location: 30046 - 31087" locus_tag="ctg14_24" class="clusterblast-orf" id="dummy-1_q23_0_all"  />
<polygon points="483,40 486,40 491,35 486,30 483,30 483,40 " style="fill:#15d885; stroke-width:1; stroke:black; " description="&lt;b&gt;ctg14_25&lt;/b&gt;&lt;br&gt;ctg14 25&lt;br&gt;Location: 31119 - 32100" locus_tag="ctg14_25" class="clusterblast-orf" id="dummy-1_q24_0_all"  />
<polygon points="491,40 492,40 497,35 492,30 491,30 491,40 " style="fill:#2315d8; stroke-width:1; stroke:black; " description="&lt;b&gt;ctg14_26&lt;/b&gt;&lt;br&gt;ctg14 26&lt;br&gt;Location: 32101 - 32866" locus_tag="ctg14_26" class="clusterblast-orf" id="dummy-1_q25_0_all"  />
<polygon points="497,40 499,40 504,35 499,30 497,30 497,40 " style="fill:#d81569; stroke-width:1; stroke:black; " description="&lt;b&gt;ctg14_27&lt;/b&gt;&lt;br&gt;ctg14 27&lt;br&gt;Location: 32862 - 33636" locus_tag="ctg14_27" class="clusterblast-orf" id="dummy-1_q26_0_all"  />
<polygon points="503,40 512,40 517,35 512,30 503,30 503,40 " style="fill:#a1d815; stroke-width:1; stroke:black; " description="&lt;b&gt;ctg14_28&lt;/b&gt;&lt;br&gt;ctg14 28&lt;br&gt;Location: 33628 - 35236" locus_tag="ctg14_28" class="clusterblast-orf" id="dummy-1_q27_0_all"  />
<polygon points="517,40 518,40 523,35 518,30 517,30 517,40 " style="fill:#15d8ae; stroke-width:1; stroke:black; " description="&lt;b&gt;ctg14_29&lt;/b&gt;&lt;br&gt;ctg14 29&lt;br&gt;Location: 35232 - 35937" locus_tag="ctg14_29" class="clusterblast-orf" id="dummy-1_q28_0_all"  />
<polygon points="523,40 528,40 533,35 528,30 523,30 523,40 " style="fill:#15d8ae; stroke-width:1; stroke:black; " description="&lt;b&gt;ctg14_30&lt;/b&gt;&lt;br&gt;ctg14 30&lt;br&gt;Location: 35933 - 37217" locus_tag="ctg14_30" class="clusterblast-orf" id="dummy-1_q29_0_all"  />
<polygon points="534,40 539,40 544,35 539,30 534,30 534,40 " style="fill:#4d15d8; stroke-width:1; stroke:black; " description="&lt;b&gt;ctg14_31&lt;/b&gt;&lt;br&gt;ctg14 31&lt;br&gt;Location: 37290 - 38529" locus_tag="ctg14_31" class="clusterblast-orf" id="dummy-1_q30_0_all"  />
<polygon points="544,35 549,30 554,30 554,40 549,40 544,35 " style="fill:#d8153f; stroke-width:1; stroke:black; " description="&lt;b&gt;ctg14_32&lt;/b&gt;&lt;br&gt;ctg14 32&lt;br&gt;Location: 38461 - 39754" locus_tag="ctg14_32" class="clusterblast-orf" id="dummy-1_q31_0_all"  />
</g>
<g label="NZ_BCML01000009" description="NZ_BCML01000009_c11: Streptomyces acidiscabies strain a2, whole genome shotgu... (15% of genes show similarity), t2pks-t1pks-nrps" class="clusterblast-cluster"  >
<text x="5" y="70" class="clusterblast-acc"  >
<a xlink:href="https://antismash-db.secondarymetabolites.org/go/NZ_BCML01000009/11" target="_blank">NZ_BCML01000009_c11</a>: Streptomyces acidiscabies strain a2, whole genome shotgu... (15% of genes show similarity), t2pks-t1pks-nrps</text>
<line x1="10" y1="85" x2="778.0" y2="85" style="stroke-width:1; stroke:grey; "  />
</g>
<g id="a1_000"  >
<polygon points="0,90 2,85 0,80 0,90 " style="fill:white; stroke-width:1; stroke:black; " description="&lt;b&gt;AV141_RS08855&lt;/b&gt;&lt;br&gt;hypothetical protein&lt;br&gt;Location: 41996 - 42358" locus_tag="AV141_RS08855" class="clusterblast-orf" id="dummy-1_h1_5_0"  />
</g>
<g id="a1_001"  >
<polygon points="6,85 10,80 10,90 6,85 " style="fill:white; stroke-width:1; stroke:black; " description="&lt;b&gt;AV141_RS08860&lt;/b&gt;&lt;br&gt;hypothetical protein&lt;br&gt;Location: 42764 - 43294" locus_tag="AV141_RS08860" class="clusterblast-orf" id="dummy-1_h1_5_1"  />
</g>
<g id="a1_002"  >
<polygon points="10,85 15,80 49,80 49,90 15,90 10,85 " style="fill:white; stroke-width:1; stroke:black; " description="&lt;b&gt;AV141_RS08865&lt;/b&gt;&lt;br&gt;type IV secretion protein Rhs&lt;br&gt;Location: 43314 - 48005" locus_tag="AV141_RS08865" class="clusterblast-orf" id="dummy-1_h1_5_2"  />
</g>
<g id="a1_003"  >
<polygon points="55,85 57,80 57,90 55,85 " style="fill:white; stroke-width:1; stroke:black; " description="&lt;b&gt;AV141_RS48495&lt;/b&gt;&lt;br&gt;peptidoglycan endopeptidase&lt;br&gt;Location: 48642 - 48920" locus_tag="AV141_RS48495" class="clusterblast-orf" id="dummy-1_h1_5_3"  />
</g>
<g id="a1_004"  >
<polygon points="57,85 59,80 59,90 57,85 " style="fill:white; stroke-width:1; stroke:black; " description="&lt;b&gt;AV141_RS48500&lt;/b&gt;&lt;br&gt;hypothetical protein&lt;br&gt;Location: 48993 - 49226" locus_tag="AV141_RS48500" class="clusterblast-orf" id="dummy-1_h1_5_4"  />
</g>
<g id="a1_005"  >
<polygon points="64,85 68,80 68,90 64,85 " style="fill:white; stroke-width:1; stroke:black; " description="&lt;b&gt;AV141_RS48505&lt;/b&gt;&lt;br&gt;hypothetical protein&lt;br&gt;Location: 49776 - 50294" locus_tag="AV141_RS48505" class="clusterblast-orf" id="dummy-1_h1_5_5"  />
</g>
<g id="a1_006"  >
<polygon points="75,85 80,80 88,80 88,90 80,90 75,85 " style="fill:white; stroke-width:1; stroke:black; " description="&lt;b&gt;AV141_RS08875&lt;/b&gt;&lt;br&gt;AMP-dependent synthetase&lt;br&gt;Location: 51115 - 52659" locus_tag="AV141_RS08875" class="clusterblast-orf" id="dummy-1_h1_5_6"  />
</g>
<g id="a1_007"  >
<polygon points="89,90 90,90 95,85 90,80 89,80 89,90 " style="fill:white; stroke-width:1; stroke:black; " description="&lt;b&gt;AV141_RS08880&lt;/b&gt;&lt;br&gt;LysE family translocator&lt;br&gt;Location: 52844 - 53482" locus_tag="AV141_RS08880" class="clusterblast-orf" id="dummy-1_h1_5_7"  />
</g>
<g id="a1_008"  >
<polygon points="98,90 98,90 103,85 98,80 98,80 98,90 " style="fill:white; stroke-width:1; stroke:black; " description="&lt;b&gt;AV141_RS08885&lt;/b&gt;&lt;br&gt;GTP cyclohydrolase II&lt;br&gt;Location: 53835 - 54494" locus_tag="AV141_RS08885" class="clusterblast-orf" id="dummy-1_h1_5_8"  />
</g>
<g id="a1_009"  >
<polygon points="103,90 112,90 117,85 112,80 103,80 103,90 " style="fill:white; stroke-width:1; stroke:black; " description="&lt;b&gt;AV141_RS08890&lt;/b&gt;&lt;br&gt;WD40 repeat domain-containing protein&lt;br&gt;Location: 54510 - 56207" locus_tag="AV141_RS08890" class="clusterblast-orf" id="dummy-1_h1_5_9"  />
</g>
<g id="a1_0010"  >
<polygon points="117,90 121,90 126,85 121,80 117,80 117,90 " style="fill:white; stroke-width:1; stroke:black; " description="&lt;b&gt;AV141_RS08895&lt;/b&gt;&lt;br&gt;serine/threonine protein kinase&lt;br&gt;Location: 56237 - 57208" locus_tag="AV141_RS08895" class="clusterblast-orf" id="dummy-1_h1_5_10"  />
</g>
<g id="a1_0011"  >
<polygon points="126,90 129,90 134,85 129,80 126,80 126,90 " style="fill:white; stroke-width:1; stroke:black; " description="&lt;b&gt;AV141_RS08900&lt;/b&gt;&lt;br&gt;serine/threonine protein kinase&lt;br&gt;Location: 57229 - 58239" locus_tag="AV141_RS08900" class="clusterblast-orf" id="dummy-1_h1_5_11"  />
</g>
<g id="a1_0012"  >
<polygon points="134,90 139,90 144,85 139,80 134,80 134,90 " style="fill:white; stroke-width:1; stroke:black; " description="&lt;b&gt;AV141_RS47550&lt;/b&gt;&lt;br&gt;hypothetical protein&lt;br&gt;Location: 58249 - 59388" locus_tag="AV141_RS47550" class="clusterblast-orf" id="dummy-1_h1_5_12"  />
</g>
<g id="a1_0013"  >
<polygon points="144,90 151,90 156,85 151,80 144,80 144,90 " style="fill:white; stroke-width:1; stroke:black; " description="&lt;b&gt;AV141_RS08915&lt;/b&gt;&lt;br&gt;AMP-dependent synthetase&lt;br&gt;Location: 59424 - 60944" locus_tag="AV141_RS08915" class="clusterblast-orf" id="dummy-1_h1_5_13"  />
</g>
<g id="a1_0014"  >
<polygon points="159,90 200,90 205,85 200,80 159,80 159,90 " style="fill:#d8bc15; stroke-width:1; stroke:black; " description="&lt;b&gt;AV141_RS08920&lt;/b&gt;&lt;br&gt;KR domain-containing protein&lt;br&gt;Location: 61307 - 66826&lt;br&gt;&lt;br&gt;&lt;b&gt;BlastP hit with ctg14_20&lt;/b&gt;&lt;br&gt;Percentage identity: 42&lt;br&gt;Percentage coverage: 44&lt;br&gt;BLAST bit score: 848&lt;br&gt;E-value: 2.7e-243" locus_tag="AV141_RS08920" class="clusterblast-orf" id="dummy-1_h1_5_14"  />
</g>
<g id="a1_0015"  >
<polygon points="205,90 207,90 212,85 207,80 205,80 205,90 " style="fill:#15d85b; stroke-width:1; stroke:black; " description="&lt;b&gt;AV141_RS08925&lt;/b&gt;&lt;br&gt;3-hydroxyacyl-CoA dehydrogenase family protein&lt;br&gt;Location: 66823 - 67683&lt;br&gt;&lt;br&gt;&lt;b&gt;BlastP hit with ctg14_21&lt;/b&gt;&lt;br&gt;Percentage identity: 65&lt;br&gt;Percentage coverage: 100&lt;br&gt;BLAST bit score: 376&lt;br&gt;E-value: 2.7e-102" locus_tag="AV141_RS08925" class="clusterblast-orf" id="dummy-1_h1_5_15"  />
</g>
<g id="a1_0016"  >
<polygon points="212,90 214,85 212,80 212,90 " style="fill:#1531d8; stroke-width:1; stroke:black; " description="&lt;b&gt;AV141_RS08930&lt;/b&gt;&lt;br&gt;hypothetical protein&lt;br&gt;Location: 67685 - 67939&lt;br&gt;&lt;br&gt;&lt;b&gt;BlastP hit with ctg14_22&lt;/b&gt;&lt;br&gt;Percentage identity: 52&lt;br&gt;Percentage coverage: 88&lt;br&gt;BLAST bit score: 86&lt;br&gt;E-value: 1.3e-15" locus_tag="AV141_RS08930" class="clusterblast-orf" id="dummy-1_h1_5_16"  />
</g>
<g id="a1_0017"  >
<polygon points="214,90 219,90 224,85 219,80 214,80 214,90 " style="fill:#d81593; stroke-width:1; stroke:black; " description="&lt;b&gt;AV141_RS08935&lt;/b&gt;&lt;br&gt;acyl-CoA dehydrogenase&lt;br&gt;Location: 67932 - 69059&lt;br&gt;&lt;br&gt;&lt;b&gt;BlastP hit with ctg14_23&lt;/b&gt;&lt;br&gt;Percentage identity: 56&lt;br&gt;Percentage coverage: 96&lt;br&gt;BLAST bit score: 377&lt;br&gt;E-value: 2.1e-102" locus_tag="AV141_RS08935" class="clusterblast-orf" id="dummy-1_h1_5_17"  />
</g>
<g id="a1_0018"  >
<polygon points="224,90 228,90 233,85 228,80 224,80 224,90 " style="fill:#cad815; stroke-width:1; stroke:black; " description="&lt;b&gt;AV141_RS08940&lt;/b&gt;&lt;br&gt;HAD-IIIC family phosphatase&lt;br&gt;Location: 69044 - 70144&lt;br&gt;&lt;br&gt;&lt;b&gt;BlastP hit with ctg14_24&lt;/b&gt;&lt;br&gt;Percentage identity: 66&lt;br&gt;Percentage coverage: 97&lt;br&gt;BLAST bit score: 436&lt;br&gt;E-value: 2e-120" locus_tag="AV141_RS08940" class="clusterblast-orf" id="dummy-1_h1_5_18"  />
</g>
<g id="a1_0019"  >
<polygon points="233,90 234,90 239,85 234,80 233,80 233,90 " style="fill:white; stroke-width:1; stroke:black; " description="&lt;b&gt;AV141_RS08945&lt;/b&gt;&lt;br&gt;alpha/beta hydrolase&lt;br&gt;Location: 70196 - 70897" locus_tag="AV141_RS08945" class="clusterblast-orf" id="dummy-1_h1_5_19"  />
</g>
<g id="a1_0020"  >
<polygon points="239,90 241,90 246,85 241,80 239,80 239,90 " style="fill:white; stroke-width:1; stroke:black; " description="&lt;b&gt;AV141_RS08950&lt;/b&gt;&lt;br&gt;hypothetical protein&lt;br&gt;Location: 70918 - 71778" locus_tag="AV141_RS08950" class="clusterblast-orf" id="dummy-1_h1_5_20"  />
</g>
<g id="a1_0021"  >
<polygon points="246,85 251,80 256,80 256,90 251,90 246,85 " style="fill:white; stroke-width:1; stroke:black; " description="&lt;b&gt;AV141_RS08955&lt;/b&gt;&lt;br&gt;putative succinyldiaminopimelate transaminase DapC&lt;br&gt;Location: 71798 - 72985" locus_tag="AV141_RS08955" class="clusterblast-orf" id="dummy-1_h1_5_21"  />
</g>
<g id="a1_0022"  >
<polygon points="257,85 262,80 270,80 270,90 262,90 257,85 " style="fill:white; stroke-width:1; stroke:black; " description="&lt;b&gt;AV141_RS08960&lt;/b&gt;&lt;br&gt;hypothetical protein&lt;br&gt;Location: 73036 - 74655" locus_tag="AV141_RS08960" class="clusterblast-orf" id="dummy-1_h1_5_22"  />
</g>
<g id="a1_0023"  >
<polygon points="274,90 275,90 280,85 275,80 274,80 274,90 " style="fill:white; stroke-width:1; stroke:black; " description="&lt;b&gt;AV141_RS08965&lt;/b&gt;&lt;br&gt;DUF4142 domain-containing protein&lt;br&gt;Location: 75108 - 75851" locus_tag="AV141_RS08965" class="clusterblast-orf" id="dummy-1_h1_5_23"  />
</g>
<g id="a1_0024"  >
<polygon points="281,90 286,90 291,85 286,80 281,80 281,90 " style="fill:#15d8d8; stroke-width:1; stroke:black; " description="&lt;b&gt;AV141_RS08970&lt;/b&gt;&lt;br&gt;hypothetical protein&lt;br&gt;Location: 75986 - 77203&lt;br&gt;&lt;br&gt;&lt;b&gt;BlastP hit with ctg14_3&lt;/b&gt;&lt;br&gt;Percentage identity: 35&lt;br&gt;Percentage coverage: 85&lt;br&gt;BLAST bit score: 115&lt;br&gt;E-value: 1.6e-23" locus_tag="AV141_RS08970" class="clusterblast-orf" id="dummy-1_h1_5_24"  />
</g>
<g id="a1_0025"  >
<polygon points="292,90 298,90 303,85 298,80 292,80 292,90 " style="fill:#155bd8; stroke-width:1; stroke:black; " description="&lt;b&gt;AV141_RS08975&lt;/b&gt;&lt;br&gt;beta-ketoacyl-[acyl-carrier-protein] synthase family protein&lt;br&gt;Location: 77361 - 78626&lt;br&gt;&lt;br&gt;&lt;b&gt;BlastP hit with ctg14_17&lt;/b&gt;&lt;br&gt;Percentage identity: 36&lt;br&gt;Percentage coverage: 100&lt;br&gt;BLAST bit score: 200&lt;br&gt;E-value: 4.8e-49" locus_tag="AV141_RS08975" class="clusterblast-orf" id="dummy-1_h1_5_25"  />
</g>
<g id="a1_0026"  >
<polygon points="303,90 308,90 313,85 308,80 303,80 303,90 " style="fill:white; stroke-width:1; stroke:black; " description="&lt;b&gt;AV141_RS08980&lt;/b&gt;&lt;br&gt;ketosynthase chain-length factor&lt;br&gt;Location: 78623 - 79828" locus_tag="AV141_RS08980" class="clusterblast-orf" id="dummy-1_h1_5_26"  />
</g>
<g id="a1_0027"  >
<polygon points="313,90 317,90 322,85 317,80 313,80 313,90 " style="fill:white; stroke-width:1; stroke:black; " description="&lt;b&gt;AV141_RS08985&lt;/b&gt;&lt;br&gt;methyltransferase&lt;br&gt;Location: 79881 - 80927" locus_tag="AV141_RS08985" class="clusterblast-orf" id="dummy-1_h1_5_27"  />
</g>
<g id="a1_0028"  >
<polygon points="323,90 326,90 331,85 326,80 323,80 323,90 " style="fill:white; stroke-width:1; stroke:black; " description="&lt;b&gt;AV141_RS08990&lt;/b&gt;&lt;br&gt;methyltransferase&lt;br&gt;Location: 80996 - 82045" locus_tag="AV141_RS08990" class="clusterblast-orf" id="dummy-1_h1_5_28"  />
</g>
<g id="a1_0029"  >
<polygon points="331,90 334,85 331,80 331,90 " style="fill:white; stroke-width:1; stroke:black; " description="&lt;b&gt;AV141_RS08995&lt;/b&gt;&lt;br&gt;acyl carrier protein&lt;br&gt;Location: 82066 - 82329" locus_tag="AV141_RS08995" class="clusterblast-orf" id="dummy-1_h1_5_29"  />
</g>
<g id="a1_0030"  >
<polygon points="334,90 337,90 342,85 337,80 334,80 334,90 " style="fill:white; stroke-width:1; stroke:black; " description="&lt;b&gt;AV141_RS09000&lt;/b&gt;&lt;br&gt;hypothetical protein&lt;br&gt;Location: 82373 - 83326" locus_tag="AV141_RS09000" class="clusterblast-orf" id="dummy-1_h1_5_30"  />
</g>
<g id="a1_0031"  >
<polygon points="338,90 345,90 350,85 345,80 338,80 338,90 " style="fill:white; stroke-width:1; stroke:black; " description="&lt;b&gt;AV141_RS09005&lt;/b&gt;&lt;br&gt;hypothetical protein&lt;br&gt;Location: 82921 - 84252" locus_tag="AV141_RS09005" class="clusterblast-orf" id="dummy-1_h1_5_31"  />
</g>
<g id="a1_0032"  >
<polygon points="350,90 354,85 350,80 350,90 " style="fill:white; stroke-width:1; stroke:black; " description="&lt;b&gt;AV141_RS48510&lt;/b&gt;&lt;br&gt;hypothetical protein&lt;br&gt;Location: 84263 - 84739" locus_tag="AV141_RS48510" class="clusterblast-orf" id="dummy-1_h1_5_32"  />
</g>
<g id="a1_0033"  >
<polygon points="354,90 358,85 354,80 354,90 " style="fill:white; stroke-width:1; stroke:black; " description="&lt;b&gt;AV141_RS48515&lt;/b&gt;&lt;br&gt;hydroxylacyl-CoA dehydrogenase&lt;br&gt;Location: 84751 - 85230" locus_tag="AV141_RS48515" class="clusterblast-orf" id="dummy-1_h1_5_33"  />
</g>
<g id="a1_0034"  >
<polygon points="358,90 364,90 369,85 364,80 358,80 358,90 " style="fill:white; stroke-width:1; stroke:black; " description="&lt;b&gt;AV141_RS09020&lt;/b&gt;&lt;br&gt;FAD-binding oxidoreductase&lt;br&gt;Location: 85227 - 86654" locus_tag="AV141_RS09020" class="clusterblast-orf" id="dummy-1_h1_5_34"  />
</g>
<g id="a1_0035"  >
<polygon points="370,90 372,90 377,85 372,80 370,80 370,90 " style="fill:white; stroke-width:1; stroke:black; " description="&lt;b&gt;AV141_RS09025&lt;/b&gt;&lt;br&gt;hypothetical protein&lt;br&gt;Location: 86732 - 87595" locus_tag="AV141_RS09025" class="clusterblast-orf" id="dummy-1_h1_5_35"  />
</g>
<g id="a1_0036"  >
<polygon points="378,85 383,80 384,80 384,90 383,90 378,85 " style="fill:white; stroke-width:1; stroke:black; " description="&lt;b&gt;AV141_RS09030&lt;/b&gt;&lt;br&gt;3-oxoacyl-ACP reductase FabG&lt;br&gt;Location: 87645 - 88430" locus_tag="AV141_RS09030" class="clusterblast-orf" id="dummy-1_h1_5_36"  />
</g>
<g id="a1_0037"  >
<polygon points="386,90 389,90 394,85 389,80 386,80 386,90 " style="fill:white; stroke-width:1; stroke:black; " description="&lt;b&gt;AV141_RS09035&lt;/b&gt;&lt;br&gt;methyltransferase&lt;br&gt;Location: 88617 - 89651" locus_tag="AV141_RS09035" class="clusterblast-orf" id="dummy-1_h1_5_37"  />
</g>
<g id="a1_0038"  >
<polygon points="394,90 404,90 409,85 404,80 394,80 394,90 " style="fill:white; stroke-width:1; stroke:black; " description="&lt;b&gt;AV141_RS09040&lt;/b&gt;&lt;br&gt;acetyl-CoA carboxylase carboxyl transferase subunit alpha&lt;br&gt;Location: 89648 - 91402" locus_tag="AV141_RS09040" class="clusterblast-orf" id="dummy-1_h1_5_38"  />
</g>
<g id="a1_0039"  >
<polygon points="409,90 413,85 409,80 409,90 " style="fill:white; stroke-width:1; stroke:black; " description="&lt;b&gt;AV141_RS09045&lt;/b&gt;&lt;br&gt;hypothetical protein&lt;br&gt;Location: 91399 - 91902" locus_tag="AV141_RS09045" class="clusterblast-orf" id="dummy-1_h1_5_39"  />
</g>
<g id="a1_0040"  >
<polygon points="413,90 419,90 424,85 419,80 413,80 413,90 " style="fill:white; stroke-width:1; stroke:black; " description="&lt;b&gt;AV141_RS09050&lt;/b&gt;&lt;br&gt;acetyl-CoA carboxylase biotin carboxylase subunit&lt;br&gt;Location: 91905 - 93248" locus_tag="AV141_RS09050" class="clusterblast-orf" id="dummy-1_h1_5_40"  />
</g>
<g id="a1_0041"  >
<polygon points="424,85 429,80 431,80 431,90 429,90 424,85 " style="fill:white; stroke-width:1; stroke:black; " description="&lt;b&gt;AV141_RS09055&lt;/b&gt;&lt;br&gt;hypothetical protein&lt;br&gt;Location: 93238 - 94101" locus_tag="AV141_RS09055" class="clusterblast-orf" id="dummy-1_h1_5_41"  />
</g>
<g id="a1_0042"  >
<polygon points="431,85 436,80 450,80 450,90 436,90 431,85 " style="fill:white; stroke-width:1; stroke:black; " description="&lt;b&gt;AV141_RS09060&lt;/b&gt;&lt;br&gt;MMPL family transporter&lt;br&gt;Location: 94107 - 96341" locus_tag="AV141_RS09060" class="clusterblast-orf" id="dummy-1_h1_5_42"  />
</g>
<g id="a1_0043"  >
<polygon points="453,90 453,90 458,85 453,80 453,80 453,90 " style="fill:#7715d8; stroke-width:1; stroke:black; " description="&lt;b&gt;AV141_RS09065&lt;/b&gt;&lt;br&gt;DNA-binding response regulator&lt;br&gt;Location: 96710 - 97408&lt;br&gt;&lt;br&gt;&lt;b&gt;BlastP hit with ctg14_4&lt;/b&gt;&lt;br&gt;Percentage identity: 39&lt;br&gt;Percentage coverage: 88&lt;br&gt;BLAST bit score: 79&lt;br&gt;E-value: 3.3e-13&lt;br&gt;&lt;br&gt;&lt;b&gt;BlastP hit with ctg14_5&lt;/b&gt;&lt;br&gt;Percentage identity: 43&lt;br&gt;Percentage coverage: 99&lt;br&gt;BLAST bit score: 153&lt;br&gt;E-value: 2.3e-35" locus_tag="AV141_RS09065" class="clusterblast-orf" id="dummy-1_h1_5_43"  />
</g>
<g id="a1_0044"  >
<polygon points="459,85 464,80 469,80 469,90 464,90 459,85 " style="fill:white; stroke-width:1; stroke:black; " description="&lt;b&gt;AV141_RS09070&lt;/b&gt;&lt;br&gt;hypothetical protein&lt;br&gt;Location: 97413 - 98630" locus_tag="AV141_RS09070" class="clusterblast-orf" id="dummy-1_h1_5_44"  />
</g>
<g id="a1_0045"  >
<polygon points="467,85 472,80 487,80 487,90 472,90 467,85 " style="fill:white; stroke-width:1; stroke:black; " description="&lt;b&gt;AV141_RS09075&lt;/b&gt;&lt;br&gt;penicillin acylase family protein&lt;br&gt;Location: 98474 - 100801" locus_tag="AV141_RS09075" class="clusterblast-orf" id="dummy-1_h1_5_45"  />
</g>
<g id="a1_0046"  >
<polygon points="486,85 491,80 497,80 497,90 491,90 486,85 " style="fill:white; stroke-width:1; stroke:black; " description="&lt;b&gt;AV141_RS09080&lt;/b&gt;&lt;br&gt;MFS transporter&lt;br&gt;Location: 100788 - 102032" locus_tag="AV141_RS09080" class="clusterblast-orf" id="dummy-1_h1_5_46"  />
</g>
<g id="a1_0047"  >
<polygon points="497,85 502,80 530,80 530,90 502,90 497,85 " style="fill:white; stroke-width:1; stroke:black; " description="&lt;b&gt;AV141_RS09085&lt;/b&gt;&lt;br&gt;non-ribosomal peptide synthetase&lt;br&gt;Location: 102029 - 106039" locus_tag="AV141_RS09085" class="clusterblast-orf" id="dummy-1_h1_5_47"  />
</g>
<g id="a1_0048"  >
<polygon points="530,85 535,80 586,80 586,90 535,90 530,85 " style="fill:white; stroke-width:1; stroke:black; " description="&lt;b&gt;AV141_RS09090&lt;/b&gt;&lt;br&gt;non-ribosomal peptide synthetase&lt;br&gt;Location: 106057 - 112755" locus_tag="AV141_RS09090" class="clusterblast-orf" id="dummy-1_h1_5_48"  />
</g>
<g id="a1_0049"  >
<polygon points="586,85 591,80 617,80 617,90 591,90 586,85 " style="fill:#d815bc; stroke-width:1; stroke:black; " description="&lt;b&gt;AV141_RS09095&lt;/b&gt;&lt;br&gt;hypothetical protein&lt;br&gt;Location: 112758 - 116510&lt;br&gt;&lt;br&gt;&lt;b&gt;BlastP hit with ctg14_19&lt;/b&gt;&lt;br&gt;Percentage identity: 41&lt;br&gt;Percentage coverage: 97&lt;br&gt;BLAST bit score: 364&lt;br&gt;E-value: 1.6e-98" locus_tag="AV141_RS09095" class="clusterblast-orf" id="dummy-1_h1_5_49"  />
</g>
<g id="a1_0050"  >
<polygon points="617,85 622,80 625,80 625,90 622,90 617,85 " style="fill:white; stroke-width:1; stroke:black; " description="&lt;b&gt;AV141_RS09100&lt;/b&gt;&lt;br&gt;threonine aldolase&lt;br&gt;Location: 116491 - 117558" locus_tag="AV141_RS09100" class="clusterblast-orf" id="dummy-1_h1_5_50"  />
</g>
<g id="a1_0051"  >
<polygon points="625,85 630,80 644,80 644,90 630,90 625,85 " style="fill:white; stroke-width:1; stroke:black; " description="&lt;b&gt;AV141_RS09105&lt;/b&gt;&lt;br&gt;ATP-grasp domain-containing protein&lt;br&gt;Location: 117555 - 119837" locus_tag="AV141_RS09105" class="clusterblast-orf" id="dummy-1_h1_5_51"  />
</g>
<g id="a1_0052"  >
<polygon points="645,85 650,80 652,80 652,90 650,90 645,85 " style="fill:white; stroke-width:1; stroke:black; " description="&lt;b&gt;AV141_RS09110&lt;/b&gt;&lt;br&gt;kinase&lt;br&gt;Location: 119895 - 120815" locus_tag="AV141_RS09110" class="clusterblast-orf" id="dummy-1_h1_5_52"  />
</g>
<g id="a1_0053"  >
<polygon points="652,85 657,80 665,80 665,90 657,90 652,85 " style="fill:white; stroke-width:1; stroke:black; " description="&lt;b&gt;AV141_RS09115&lt;/b&gt;&lt;br&gt;argininosuccinate lyase&lt;br&gt;Location: 120812 - 122290" locus_tag="AV141_RS09115" class="clusterblast-orf" id="dummy-1_h1_5_53"  />
</g>
<g id="a1_0054"  >
<polygon points="670,85 675,80 680,80 680,90 675,90 670,85 " style="fill:white; stroke-width:1; stroke:black; " description="&lt;b&gt;AV141_RS09120&lt;/b&gt;&lt;br&gt;cytochrome P450&lt;br&gt;Location: 122900 - 124102" locus_tag="AV141_RS09120" class="clusterblast-orf" id="dummy-1_h1_5_54"  />
</g>
<g id="a1_0055"  >
<polygon points="681,85 686,80 694,80 694,90 686,90 681,85 " style="fill:white; stroke-width:1; stroke:black; " description="&lt;b&gt;AV141_RS09125&lt;/b&gt;&lt;br&gt;allantoin permease&lt;br&gt;Location: 124244 - 125890" locus_tag="AV141_RS09125" class="clusterblast-orf" id="dummy-1_h1_5_55"  />
</g>
<g id="a1_0056"  >
<polygon points="696,85 701,80 715,80 715,90 701,90 696,85 " style="fill:white; stroke-width:1; stroke:black; " description="&lt;b&gt;AV141_RS09130&lt;/b&gt;&lt;br&gt;5-methyltetrahydropteroyltriglutamate-- homocysteine S-methyltransferase&lt;br&gt;Location: 126057 - 128348" locus_tag="AV141_RS09130" class="clusterblast-orf" id="dummy-1_h1_5_56"  />
</g>
<g id="a1_0057"  >
<polygon points="719,90 727,90 732,85 727,80 719,80 719,90 " style="fill:#d86915; stroke-width:1; stroke:black; " description="&lt;b&gt;AV141_RS09135&lt;/b&gt;&lt;br&gt;MFS transporter&lt;br&gt;Location: 128890 - 130392&lt;br&gt;&lt;br&gt;&lt;b&gt;BlastP hit with ctg14_11&lt;/b&gt;&lt;br&gt;Percentage identity: 34&lt;br&gt;Percentage coverage: 86&lt;br&gt;BLAST bit score: 173&lt;br&gt;E-value: 4.6e-41" locus_tag="AV141_RS09135" class="clusterblast-orf" id="dummy-1_h1_5_57"  />
</g>
<g id="a1_0058"  >
<polygon points="735,90 744,90 749,85 744,80 735,80 735,90 " style="fill:white; stroke-width:1; stroke:black; " description="&lt;b&gt;AV141_RS09140&lt;/b&gt;&lt;br&gt;sulfonate ABC transporter permease&lt;br&gt;Location: 130768 - 132489" locus_tag="AV141_RS09140" class="clusterblast-orf" id="dummy-1_h1_5_58"  />
</g>
<g id="a1_0059"  >
<polygon points="750,90 755,90 760,85 755,80 750,80 750,90 " style="fill:white; stroke-width:1; stroke:black; " description="&lt;b&gt;AV141_RS09145&lt;/b&gt;&lt;br&gt;nitrate ABC transporter ATP-binding protein&lt;br&gt;Location: 132546 - 133856" locus_tag="AV141_RS09145" class="clusterblast-orf" id="dummy-1_h1_5_59"  />
</g>
<g id="a1_0060"  >
<polygon points="761,90 765,85 761,80 761,90 " style="fill:white; stroke-width:1; stroke:black; " description="&lt;b&gt;AV141_RS09150&lt;/b&gt;&lt;br&gt;DinB family protein&lt;br&gt;Location: 133870 - 134382" locus_tag="AV141_RS09150" class="clusterblast-orf" id="dummy-1_h1_5_60"  />
</g>
<g id="a1_0061"  >
<polygon points="765,85 768,80 768,90 765,85 " style="fill:white; stroke-width:1; stroke:black; " description="&lt;b&gt;AV141_RS09155&lt;/b&gt;&lt;br&gt;transcriptional regulator&lt;br&gt;Location: 134387 - 134779" locus_tag="AV141_RS09155" class="clusterblast-orf" id="dummy-1_h1_5_61"  />
</g>
<g id="a1_0062"  >
<polygon points="768,85 773,80 780,80 780,90 773,90 768,85 " style="fill:white; stroke-width:1; stroke:black; " description="&lt;b&gt;AV141_RS09160&lt;/b&gt;&lt;br&gt;FAD-dependent oxidoreductase&lt;br&gt;Location: 134805 - 136163" locus_tag="AV141_RS09160" class="clusterblast-orf" id="dummy-1_h1_5_62"  />
</g>
</svg>
