<svg xmlns="http://www.w3.org/2000/svg" xmlns:xlink="http://www.w3.org/1999/xlink" version="1.1" x="0" y="0" height="230" width="800" viewBox="0 0 800 230" preserveAspectRatio="none"  >
<g label="Query sequence" class="clusterblast-cluster"  >
<text x="5" y="20" class="clusterblast-acc"  >
Query sequence</text>
<line x1="10" y1="35" x2="778.0" y2="35" style="stroke-width:1; stroke:grey; "  />
<polygon points="216,40 393,40 398,35 393,30 216,30 216,40 " style="fill:#d81515; stroke-width:1; stroke:black; " description="&lt;b&gt;ctg400_1&lt;/b&gt;&lt;br&gt;ctg400 1&lt;br&gt;Location: 0 - 1851" locus_tag="ctg400_1" class="clusterblast-orf" id="dummy-1_q0_0_all"  />
<polygon points="406,35 411,30 469,30 469,40 411,40 406,35 " style="fill:#15d8d8; stroke-width:1; stroke:black; " description="&lt;b&gt;ctg400_2&lt;/b&gt;&lt;br&gt;ctg400 2&lt;br&gt;Location: 1937 - 2579" locus_tag="ctg400_2" class="clusterblast-orf" id="dummy-1_q1_0_all"  />
<polygon points="469,35 474,30 565,30 565,40 474,40 469,35 " style="fill:white; stroke-width:1; stroke:black; " description="&lt;b&gt;ctg400_3&lt;/b&gt;&lt;br&gt;ctg400 3&lt;br&gt;Location: 2578 - 3556" locus_tag="ctg400_3" class="clusterblast-orf" id="dummy-1_q2_0_all"  />
</g>
<g label="NZ_CP009922" description="NZ_CP009922_c2: Streptomyces xiamenensis strain 318, complete genome (25% of genes show similarity), siderophore" class="clusterblast-cluster"  >
<text x="5" y="70" class="clusterblast-acc"  >
<a xlink:href="https://antismash-db.secondarymetabolites.org/go/NZ_CP009922/2" target="_blank">NZ_CP009922_c2</a>: Streptomyces xiamenensis strain 318, complete genome (25% of genes show similarity), siderophore</text>
<line x1="10" y1="85" x2="778.0" y2="85" style="stroke-width:1; stroke:grey; "  />
</g>
<g id="a1_000"  >
<polygon points="0,90 77,90 82,85 77,80 0,80 0,90 " style="fill:white; stroke-width:1; stroke:black; " description="&lt;b&gt;SXIM_RS03750&lt;/b&gt;&lt;br&gt;siderophore-interacting protein&lt;br&gt;Location: 857646 - 858488" locus_tag="SXIM_RS03750" class="clusterblast-orf" id="dummy-1_h1_4_0"  />
</g>
<g id="a1_001"  >
<polygon points="92,85 97,80 113,80 113,90 97,90 92,85 " style="fill:white; stroke-width:1; stroke:black; " description="&lt;b&gt;SXIM_RS03755&lt;/b&gt;&lt;br&gt;hypothetical protein&lt;br&gt;Location: 858584 - 858798" locus_tag="SXIM_RS03755" class="clusterblast-orf" id="dummy-1_h1_4_1"  />
</g>
<g id="a1_002"  >
<polygon points="118,85 123,80 223,80 223,90 123,90 118,85 " style="fill:white; stroke-width:1; stroke:black; " description="&lt;b&gt;SXIM_RS03760&lt;/b&gt;&lt;br&gt;haloacid dehalogenase&lt;br&gt;Location: 858852 - 859919" locus_tag="SXIM_RS03760" class="clusterblast-orf" id="dummy-1_h1_4_2"  />
</g>
<g id="a1_003"  >
<polygon points="230,90 355,90 360,85 355,80 230,80 230,90 " style="fill:white; stroke-width:1; stroke:black; " description="&lt;b&gt;SXIM_RS03765&lt;/b&gt;&lt;br&gt;DUF1015 domain-containing protein&lt;br&gt;Location: 859997 - 861313" locus_tag="SXIM_RS03765" class="clusterblast-orf" id="dummy-1_h1_4_3"  />
</g>
<g id="a1_004"  >
<polygon points="365,90 417,90 422,85 417,80 365,80 365,90 " style="fill:white; stroke-width:1; stroke:black; " description="&lt;b&gt;SXIM_RS03770&lt;/b&gt;&lt;br&gt;N-acetyltransferase&lt;br&gt;Location: 861362 - 861946" locus_tag="SXIM_RS03770" class="clusterblast-orf" id="dummy-1_h1_4_4"  />
</g>
<g id="a1_005"  >
<polygon points="423,90 597,90 602,85 597,80 423,80 423,90 " style="fill:#d81515; stroke-width:1; stroke:black; " description="&lt;b&gt;SXIM_RS03775&lt;/b&gt;&lt;br&gt;IucA/IucC family siderophore biosynthesis protein&lt;br&gt;Location: 861962 - 863779&lt;br&gt;&lt;br&gt;&lt;b&gt;BlastP hit with ctg400_1&lt;/b&gt;&lt;br&gt;Percentage identity: 83&lt;br&gt;Percentage coverage: 99&lt;br&gt;BLAST bit score: 1039&lt;br&gt;E-value: 1.6e-301" locus_tag="SXIM_RS03775" class="clusterblast-orf" id="dummy-1_h1_4_5"  />
</g>
<g id="a1_006"  >
<polygon points="608,85 613,80 671,80 671,90 613,90 608,85 " style="fill:#15d8d8; stroke-width:1; stroke:black; " description="&lt;b&gt;SXIM_RS03780&lt;/b&gt;&lt;br&gt;hypothetical protein&lt;br&gt;Location: 863840 - 864481&lt;br&gt;&lt;br&gt;&lt;b&gt;BlastP hit with ctg400_2&lt;/b&gt;&lt;br&gt;Percentage identity: 99&lt;br&gt;Percentage coverage: 100&lt;br&gt;BLAST bit score: 400&lt;br&gt;E-value: 1e-109" locus_tag="SXIM_RS03780" class="clusterblast-orf" id="dummy-1_h1_4_6"  />
</g>
<g id="a1_007"  >
<polygon points="675,85 680,80 780,80 780,90 680,90 675,85 " style="fill:white; stroke-width:1; stroke:black; " description="&lt;b&gt;SXIM_RS03785&lt;/b&gt;&lt;br&gt;hypothetical protein&lt;br&gt;Location: 864520 - 865587" locus_tag="SXIM_RS03785" class="clusterblast-orf" id="dummy-1_h1_4_7"  />
</g>
</svg>
