<svg xmlns="http://www.w3.org/2000/svg" xmlns:xlink="http://www.w3.org/1999/xlink" version="1.1" x="0" y="0" height="230" width="800" viewBox="0 0 800 230" preserveAspectRatio="none"  >
<g label="Query sequence" class="clusterblast-cluster"  >
<text x="5" y="20" class="clusterblast-acc"  >
Query sequence</text>
<line x1="10" y1="35" x2="778.0" y2="35" style="stroke-width:1; stroke:grey; "  />
<polygon points="159,40 161,35 159,30 159,40 " style="fill:white; stroke-width:1; stroke:black; " description="&lt;b&gt;ctg63_1&lt;/b&gt;&lt;br&gt;ctg63 1&lt;br&gt;Location: 0 - 69" locus_tag="ctg63_1" class="clusterblast-orf" id="dummy-1_q0_0_all"  />
<polygon points="161,40 181,40 186,35 181,30 161,30 161,40 " style="fill:#d81515; stroke-width:1; stroke:black; " description="&lt;b&gt;ctg63_2&lt;/b&gt;&lt;br&gt;ctg63 2&lt;br&gt;Location: 76 - 1276" locus_tag="ctg63_2" class="clusterblast-orf" id="dummy-1_q1_0_all"  />
<polygon points="193,40 219,40 224,35 219,30 193,30 193,40 " style="fill:#5cd815; stroke-width:1; stroke:black; " description="&lt;b&gt;ctg63_3&lt;/b&gt;&lt;br&gt;ctg63 3&lt;br&gt;Location: 1576 - 3019" locus_tag="ctg63_3" class="clusterblast-orf" id="dummy-1_q2_0_all"  />
<polygon points="223,40 232,40 237,35 232,30 223,30 223,40 " style="fill:white; stroke-width:1; stroke:black; " description="&lt;b&gt;ctg63_4&lt;/b&gt;&lt;br&gt;ctg63 4&lt;br&gt;Location: 3003 - 3627" locus_tag="ctg63_4" class="clusterblast-orf" id="dummy-1_q3_0_all"  />
<polygon points="243,35 248,30 250,30 250,40 248,40 243,35 " style="fill:white; stroke-width:1; stroke:black; " description="&lt;b&gt;ctg63_5&lt;/b&gt;&lt;br&gt;ctg63 5&lt;br&gt;Location: 3930 - 4236" locus_tag="ctg63_5" class="clusterblast-orf" id="dummy-1_q4_0_all"  />
<polygon points="254,40 255,40 260,35 255,30 254,30 254,40 " style="fill:#15a3d8; stroke-width:1; stroke:black; " description="&lt;b&gt;ctg63_6&lt;/b&gt;&lt;br&gt;ctg63 6&lt;br&gt;Location: 4460 - 4730" locus_tag="ctg63_6" class="clusterblast-orf" id="dummy-1_q5_0_all"  />
<polygon points="270,40 280,40 285,35 280,30 270,30 270,40 " style="fill:#c715d8; stroke-width:1; stroke:black; " description="&lt;b&gt;ctg63_7&lt;/b&gt;&lt;br&gt;ctg63 7&lt;br&gt;Location: 5188 - 5872" locus_tag="ctg63_7" class="clusterblast-orf" id="dummy-1_q6_0_all"  />
<polygon points="289,35 294,30 312,30 312,40 294,40 289,35 " style="fill:#d88015; stroke-width:1; stroke:black; " description="&lt;b&gt;ctg63_8&lt;/b&gt;&lt;br&gt;ctg63 8&lt;br&gt;Location: 6097 - 7162" locus_tag="ctg63_8" class="clusterblast-orf" id="dummy-1_q7_0_all"  />
<polygon points="312,35 317,30 350,30 350,40 317,40 312,35 " style="fill:#15d839; stroke-width:1; stroke:black; " description="&lt;b&gt;ctg63_9&lt;/b&gt;&lt;br&gt;ctg63 9&lt;br&gt;Location: 7161 - 8943" locus_tag="ctg63_9" class="clusterblast-orf" id="dummy-1_q8_0_all"  />
<polygon points="351,35 356,30 556,30 556,40 356,40 351,35 " style="fill:#1539d8; stroke-width:1; stroke:black; " description="&lt;b&gt;ctg63_10&lt;/b&gt;&lt;br&gt;ctg63 10&lt;br&gt;Location: 8984 - 18578" locus_tag="ctg63_10" class="clusterblast-orf" id="dummy-1_q9_0_all"  />
<polygon points="560,35 565,30 574,30 574,40 565,40 560,35 " style="fill:#d81580; stroke-width:1; stroke:black; " description="&lt;b&gt;ctg63_11&lt;/b&gt;&lt;br&gt;ctg63 11&lt;br&gt;Location: 18757 - 19402" locus_tag="ctg63_11" class="clusterblast-orf" id="dummy-1_q10_0_all"  />
<polygon points="574,35 579,30 583,30 583,40 579,40 574,35 " style="fill:#c7d815; stroke-width:1; stroke:black; " description="&lt;b&gt;ctg63_12&lt;/b&gt;&lt;br&gt;ctg63 12&lt;br&gt;Location: 19404 - 19860" locus_tag="ctg63_12" class="clusterblast-orf" id="dummy-1_q11_0_all"  />
<polygon points="584,40 595,40 600,35 595,30 584,30 584,40 " style="fill:#15d8a3; stroke-width:1; stroke:black; " description="&lt;b&gt;ctg63_13&lt;/b&gt;&lt;br&gt;ctg63 13&lt;br&gt;Location: 19877 - 20636" locus_tag="ctg63_13" class="clusterblast-orf" id="dummy-1_q12_0_all"  />
<polygon points="602,40 614,40 619,35 614,30 602,30 602,40 " style="fill:#5c15d8; stroke-width:1; stroke:black; " description="&lt;b&gt;ctg63_14&lt;/b&gt;&lt;br&gt;ctg63 14&lt;br&gt;Location: 20707 - 21499" locus_tag="ctg63_14" class="clusterblast-orf" id="dummy-1_q13_0_all"  />
<polygon points="619,35 620,30 620,40 619,35 " style="fill:white; stroke-width:1; stroke:black; " description="&lt;b&gt;ctg63_15&lt;/b&gt;&lt;br&gt;ctg63 15&lt;br&gt;Location: 21517 - 21586" locus_tag="ctg63_15" class="clusterblast-orf" id="dummy-1_q14_0_all"  />
</g>
<g label="NZ_FPAB01000005" description="NZ_FPAB01000005_c18: Streptomyces harbinensis strain CGMCC 4.7047, whole geno... (42% of genes show similarity), t1pks-nrps" class="clusterblast-cluster"  >
<text x="5" y="70" class="clusterblast-acc"  >
<a xlink:href="https://antismash-db.secondarymetabolites.org/go/NZ_FPAB01000005/18" target="_blank">NZ_FPAB01000005_c18</a>: Streptomyces harbinensis strain CGMCC 4.7047, whole geno... (42% of genes show similarity), t1pks-nrps</text>
<line x1="10" y1="85" x2="778.0" y2="85" style="stroke-width:1; stroke:grey; "  />
</g>
<g id="a1_000"  >
<polygon points="0,90 19,90 24,85 19,80 0,80 0,90 " style="fill:white; stroke-width:1; stroke:black; " description="&lt;b&gt;BM385_RS17560&lt;/b&gt;&lt;br&gt;hypothetical protein&lt;br&gt;Location: 559955 - 561088" locus_tag="BM385_RS17560" class="clusterblast-orf" id="dummy-1_h1_1_0"  />
</g>
<g id="a1_001"  >
<polygon points="23,85 28,80 43,80 43,90 28,90 23,85 " style="fill:white; stroke-width:1; stroke:black; " description="&lt;b&gt;BM385_RS17565&lt;/b&gt;&lt;br&gt;DUF3152 domain-containing protein&lt;br&gt;Location: 561048 - 562010" locus_tag="BM385_RS17565" class="clusterblast-orf" id="dummy-1_h1_1_1"  />
</g>
<g id="a1_002"  >
<polygon points="43,85 48,80 60,80 60,90 48,90 43,85 " style="fill:white; stroke-width:1; stroke:black; " description="&lt;b&gt;BM385_RS17570&lt;/b&gt;&lt;br&gt;hypothetical protein&lt;br&gt;Location: 561982 - 562797" locus_tag="BM385_RS17570" class="clusterblast-orf" id="dummy-1_h1_1_2"  />
</g>
<g id="a1_003"  >
<polygon points="60,85 65,80 72,80 72,90 65,90 60,85 " style="fill:white; stroke-width:1; stroke:black; " description="&lt;b&gt;BM385_RS17575&lt;/b&gt;&lt;br&gt;SigE family RNA polymerase sigma factor&lt;br&gt;Location: 562794 - 563348" locus_tag="BM385_RS17575" class="clusterblast-orf" id="dummy-1_h1_1_3"  />
</g>
<g id="a1_004"  >
<polygon points="75,85 80,80 96,80 96,90 80,90 75,85 " style="fill:white; stroke-width:1; stroke:black; " description="&lt;b&gt;BM385_RS17580&lt;/b&gt;&lt;br&gt;NAD-dependent epimerase&lt;br&gt;Location: 563470 - 564459" locus_tag="BM385_RS17580" class="clusterblast-orf" id="dummy-1_h1_1_4"  />
</g>
<g id="a1_005"  >
<polygon points="98,90 104,90 109,85 104,80 98,80 98,90 " style="fill:white; stroke-width:1; stroke:black; " description="&lt;b&gt;BM385_RS17585&lt;/b&gt;&lt;br&gt;hypothetical protein&lt;br&gt;Location: 564552 - 565073" locus_tag="BM385_RS17585" class="clusterblast-orf" id="dummy-1_h1_1_5"  />
</g>
<g id="a1_006"  >
<polygon points="112,90 126,90 131,85 126,80 112,80 112,90 " style="fill:white; stroke-width:1; stroke:black; " description="&lt;b&gt;BM385_RS17590&lt;/b&gt;&lt;br&gt;XRE family transcriptional regulator&lt;br&gt;Location: 565229 - 566107" locus_tag="BM385_RS17590" class="clusterblast-orf" id="dummy-1_h1_1_6"  />
</g>
<g id="a1_007"  >
<polygon points="132,85 137,80 183,80 183,90 137,90 132,85 " style="fill:white; stroke-width:1; stroke:black; " description="&lt;b&gt;BM385_RS17595&lt;/b&gt;&lt;br&gt;phosphoketolase family protein&lt;br&gt;Location: 566138 - 568534" locus_tag="BM385_RS17595" class="clusterblast-orf" id="dummy-1_h1_1_7"  />
</g>
<g id="a1_008"  >
<polygon points="186,90 222,90 227,85 222,80 186,80 186,90 " style="fill:white; stroke-width:1; stroke:black; " description="&lt;b&gt;BM385_RS17600&lt;/b&gt;&lt;br&gt;hypothetical protein&lt;br&gt;Location: 568671 - 570620" locus_tag="BM385_RS17600" class="clusterblast-orf" id="dummy-1_h1_1_8"  />
</g>
<g id="a1_009"  >
<polygon points="232,90 253,90 258,85 253,80 232,80 232,90 " style="fill:#d81515; stroke-width:1; stroke:black; " description="&lt;b&gt;BM385_RS17605&lt;/b&gt;&lt;br&gt;cytochrome P450&lt;br&gt;Location: 570852 - 572051&lt;br&gt;&lt;br&gt;&lt;b&gt;BlastP hit with ctg63_2&lt;/b&gt;&lt;br&gt;Percentage identity: 100&lt;br&gt;Percentage coverage: 100&lt;br&gt;BLAST bit score: 814&lt;br&gt;E-value: 5.4e-234" locus_tag="BM385_RS17605" class="clusterblast-orf" id="dummy-1_h1_1_9"  />
</g>
<g id="a1_0010"  >
<polygon points="269,90 290,90 295,85 290,80 269,80 269,90 " style="fill:#5cd815; stroke-width:1; stroke:black; " description="&lt;b&gt;BM385_RS17610&lt;/b&gt;&lt;br&gt;XRE family transcriptional regulator&lt;br&gt;Location: 572562 - 573794&lt;br&gt;&lt;br&gt;&lt;b&gt;BlastP hit with ctg63_3&lt;/b&gt;&lt;br&gt;Percentage identity: 99&lt;br&gt;Percentage coverage: 85&lt;br&gt;BLAST bit score: 772&lt;br&gt;E-value: 3.7e-221" locus_tag="BM385_RS17610" class="clusterblast-orf" id="dummy-1_h1_1_10"  />
</g>
<g id="a1_0011"  >
<polygon points="308,90 312,85 308,80 308,90 " style="fill:white; stroke-width:1; stroke:black; " description="&lt;b&gt;BM385_RS17620&lt;/b&gt;&lt;br&gt;hypothetical protein&lt;br&gt;Location: 574399 - 574596" locus_tag="BM385_RS17620" class="clusterblast-orf" id="dummy-1_h1_1_11"  />
</g>
<g id="a1_0012"  >
<polygon points="312,90 313,90 318,85 313,80 312,80 312,90 " style="fill:white; stroke-width:1; stroke:black; " description="&lt;b&gt;BM385_RS17625&lt;/b&gt;&lt;br&gt;hypothetical protein&lt;br&gt;Location: 574596 - 574853" locus_tag="BM385_RS17625" class="clusterblast-orf" id="dummy-1_h1_1_12"  />
</g>
<g id="a1_0013"  >
<polygon points="318,90 318,90 323,85 318,80 318,80 318,90 " style="fill:white; stroke-width:1; stroke:black; " description="&lt;b&gt;BM385_RS17630&lt;/b&gt;&lt;br&gt;hypothetical protein&lt;br&gt;Location: 574850 - 575110" locus_tag="BM385_RS17630" class="clusterblast-orf" id="dummy-1_h1_1_13"  />
</g>
<g id="a1_0014"  >
<polygon points="327,90 327,90 332,85 327,80 327,80 327,90 " style="fill:#15a3d8; stroke-width:1; stroke:black; " description="&lt;b&gt;BM385_RS17635&lt;/b&gt;&lt;br&gt;hypothetical protein&lt;br&gt;Location: 575269 - 575505&lt;br&gt;&lt;br&gt;&lt;b&gt;BlastP hit with ctg63_6&lt;/b&gt;&lt;br&gt;Percentage identity: 99&lt;br&gt;Percentage coverage: 88&lt;br&gt;BLAST bit score: 169&lt;br&gt;E-value: 1.6e-40" locus_tag="BM385_RS17635" class="clusterblast-orf" id="dummy-1_h1_1_14"  />
</g>
<g id="a1_0015"  >
<polygon points="339,90 351,90 356,85 351,80 339,80 339,90 " style="fill:#c715d8; stroke-width:1; stroke:black; " description="&lt;b&gt;BM385_RS17640&lt;/b&gt;&lt;br&gt;XRE family transcriptional regulator&lt;br&gt;Location: 575820 - 576647&lt;br&gt;&lt;br&gt;&lt;b&gt;BlastP hit with ctg63_7&lt;/b&gt;&lt;br&gt;Percentage identity: 100&lt;br&gt;Percentage coverage: 100&lt;br&gt;BLAST bit score: 431&lt;br&gt;E-value: 5.6e-119" locus_tag="BM385_RS17640" class="clusterblast-orf" id="dummy-1_h1_1_15"  />
</g>
<g id="a1_0016"  >
<polygon points="361,85 366,80 384,80 384,90 366,90 361,85 " style="fill:#d88015; stroke-width:1; stroke:black; " description="&lt;b&gt;BM385_RS17645&lt;/b&gt;&lt;br&gt;NADP-dependent oxidoreductase&lt;br&gt;Location: 576871 - 577935&lt;br&gt;&lt;br&gt;&lt;b&gt;BlastP hit with ctg63_8&lt;/b&gt;&lt;br&gt;Percentage identity: 100&lt;br&gt;Percentage coverage: 100&lt;br&gt;BLAST bit score: 718&lt;br&gt;E-value: 2.8e-205" locus_tag="BM385_RS17645" class="clusterblast-orf" id="dummy-1_h1_1_16"  />
</g>
<g id="a1_0017"  >
<polygon points="384,85 389,80 421,80 421,90 389,90 384,85 " style="fill:#15d839; stroke-width:1; stroke:black; " description="&lt;b&gt;BM385_RS17650&lt;/b&gt;&lt;br&gt;NAD(P)/FAD-dependent oxidoreductase&lt;br&gt;Location: 577935 - 579671&lt;br&gt;&lt;br&gt;&lt;b&gt;BlastP hit with ctg63_9&lt;/b&gt;&lt;br&gt;Percentage identity: 100&lt;br&gt;Percentage coverage: 97&lt;br&gt;BLAST bit score: 1195&lt;br&gt;E-value: 0.0" locus_tag="BM385_RS17650" class="clusterblast-orf" id="dummy-1_h1_1_17"  />
</g>
<g id="a1_0018"  >
<polygon points="423,85 428,80 623,80 623,90 428,90 423,85 " style="fill:#1539d8; stroke-width:1; stroke:black; " description="&lt;b&gt;BM385_RS17655&lt;/b&gt;&lt;br&gt;amino acid adenylation domain-containing protein&lt;br&gt;Location: 579758 - 589141&lt;br&gt;&lt;br&gt;&lt;b&gt;BlastP hit with ctg63_10&lt;/b&gt;&lt;br&gt;Percentage identity: 100&lt;br&gt;Percentage coverage: 98&lt;br&gt;BLAST bit score: 6135&lt;br&gt;E-value: 0.0" locus_tag="BM385_RS17655" class="clusterblast-orf" id="dummy-1_h1_1_18"  />
</g>
<g id="a1_0019"  >
<polygon points="632,85 637,80 644,80 644,90 637,90 632,85 " style="fill:#d81580; stroke-width:1; stroke:black; " description="&lt;b&gt;BM385_RS17660&lt;/b&gt;&lt;br&gt;DUF305 domain-containing protein&lt;br&gt;Location: 589531 - 590112&lt;br&gt;&lt;br&gt;&lt;b&gt;BlastP hit with ctg63_11&lt;/b&gt;&lt;br&gt;Percentage identity: 100&lt;br&gt;Percentage coverage: 90&lt;br&gt;BLAST bit score: 363&lt;br&gt;E-value: 1.4e-98" locus_tag="BM385_RS17660" class="clusterblast-orf" id="dummy-1_h1_1_19"  />
</g>
<g id="a1_0020"  >
<polygon points="645,85 650,80 653,80 653,90 650,90 645,85 " style="fill:#c7d815; stroke-width:1; stroke:black; " description="&lt;b&gt;BM385_RS17665&lt;/b&gt;&lt;br&gt;hypothetical protein&lt;br&gt;Location: 590178 - 590519&lt;br&gt;&lt;br&gt;&lt;b&gt;BlastP hit with ctg63_12&lt;/b&gt;&lt;br&gt;Percentage identity: 100&lt;br&gt;Percentage coverage: 75&lt;br&gt;BLAST bit score: 218&lt;br&gt;E-value: 3.8e-55" locus_tag="BM385_RS17665" class="clusterblast-orf" id="dummy-1_h1_1_20"  />
</g>
<g id="a1_0021"  >
<polygon points="656,90 667,90 672,85 667,80 656,80 656,90 " style="fill:#15d8a3; stroke-width:1; stroke:black; " description="&lt;b&gt;BM385_RS17670&lt;/b&gt;&lt;br&gt;polysaccharide deacetylase family protein&lt;br&gt;Location: 590651 - 591409&lt;br&gt;&lt;br&gt;&lt;b&gt;BlastP hit with ctg63_13&lt;/b&gt;&lt;br&gt;Percentage identity: 99&lt;br&gt;Percentage coverage: 100&lt;br&gt;BLAST bit score: 494&lt;br&gt;E-value: 6e-138" locus_tag="BM385_RS17670" class="clusterblast-orf" id="dummy-1_h1_1_21"  />
</g>
<g id="a1_0022"  >
<polygon points="673,90 685,90 690,85 685,80 673,80 673,90 " style="fill:#5c15d8; stroke-width:1; stroke:black; " description="&lt;b&gt;BM385_RS17675&lt;/b&gt;&lt;br&gt;VOC family protein&lt;br&gt;Location: 591481 - 592272&lt;br&gt;&lt;br&gt;&lt;b&gt;BlastP hit with ctg63_14&lt;/b&gt;&lt;br&gt;Percentage identity: 100&lt;br&gt;Percentage coverage: 100&lt;br&gt;BLAST bit score: 545&lt;br&gt;E-value: 3.1e-153" locus_tag="BM385_RS17675" class="clusterblast-orf" id="dummy-1_h1_1_22"  />
</g>
<g id="a1_0023"  >
<polygon points="692,85 697,80 699,80 699,90 697,90 692,85 " style="fill:white; stroke-width:1; stroke:black; " description="&lt;b&gt;BM385_RS17680&lt;/b&gt;&lt;br&gt;hypothetical protein&lt;br&gt;Location: 592335 - 592664" locus_tag="BM385_RS17680" class="clusterblast-orf" id="dummy-1_h1_1_23"  />
</g>
<g id="a1_0024"  >
<polygon points="708,85 713,80 752,80 752,90 713,90 708,85 " style="fill:white; stroke-width:1; stroke:black; " description="&lt;b&gt;BM385_RS17685&lt;/b&gt;&lt;br&gt;hypothetical protein&lt;br&gt;Location: 593105 - 595147" locus_tag="BM385_RS17685" class="clusterblast-orf" id="dummy-1_h1_1_24"  />
</g>
<g id="a1_0025"  >
<polygon points="775,90 775,90 780,85 775,80 775,80 775,90 " style="fill:white; stroke-width:1; stroke:black; " description="&lt;b&gt;BM385_RS17690&lt;/b&gt;&lt;br&gt;IS5/IS1182 family transposase&lt;br&gt;Location: 596227 - 596451" locus_tag="BM385_RS17690" class="clusterblast-orf" id="dummy-1_h1_1_25"  />
</g>
</svg>
