<svg xmlns="http://www.w3.org/2000/svg" xmlns:xlink="http://www.w3.org/1999/xlink" version="1.1" x="0" y="0" height="230" width="800" viewBox="0 0 800 230" preserveAspectRatio="none"  >
<g label="Query sequence" class="clusterblast-cluster"  >
<text x="5" y="20" class="clusterblast-acc"  >
Query sequence</text>
<line x1="10" y1="35" x2="778.0" y2="35" style="stroke-width:1; stroke:grey; "  />
<polygon points="296,35 301,30 302,30 302,40 301,40 296,35 " style="fill:#d81515; stroke-width:1; stroke:black; " description="&lt;b&gt;ctg53_1&lt;/b&gt;&lt;br&gt;ctg53 1&lt;br&gt;Location: 2 - 479" locus_tag="ctg53_1" class="clusterblast-orf" id="dummy-1_q0_0_all"  />
<polygon points="302,35 306,30 306,40 302,35 " style="fill:#4dd815; stroke-width:1; stroke:black; " description="&lt;b&gt;ctg53_2&lt;/b&gt;&lt;br&gt;ctg53 2&lt;br&gt;Location: 468 - 798" locus_tag="ctg53_2" class="clusterblast-orf" id="dummy-1_q1_0_all"  />
<polygon points="306,40 306,40 311,35 306,30 306,30 306,40 " style="fill:white; stroke-width:1; stroke:black; " description="&lt;b&gt;ctg53_3&lt;/b&gt;&lt;br&gt;ctg53 3&lt;br&gt;Location: 799 - 1153" locus_tag="ctg53_3" class="clusterblast-orf" id="dummy-1_q2_0_all"  />
<polygon points="314,40 317,40 322,35 317,30 314,30 314,40 " style="fill:white; stroke-width:1; stroke:black; " description="&lt;b&gt;ctg53_4&lt;/b&gt;&lt;br&gt;ctg53 4&lt;br&gt;Location: 1405 - 2044" locus_tag="ctg53_4" class="clusterblast-orf" id="dummy-1_q3_0_all"  />
<polygon points="326,35 331,30 338,30 338,40 331,40 326,35 " style="fill:#1585d8; stroke-width:1; stroke:black; " description="&lt;b&gt;ctg53_5&lt;/b&gt;&lt;br&gt;ctg53 5&lt;br&gt;Location: 2330 - 3284" locus_tag="ctg53_5" class="clusterblast-orf" id="dummy-1_q4_0_all"  />
<polygon points="339,35 344,30 356,30 356,40 344,40 339,35 " style="fill:#a115d8; stroke-width:1; stroke:black; " description="&lt;b&gt;ctg53_6&lt;/b&gt;&lt;br&gt;ctg53 6&lt;br&gt;Location: 3344 - 4661" locus_tag="ctg53_6" class="clusterblast-orf" id="dummy-1_q5_0_all"  />
<polygon points="356,40 359,40 364,35 359,30 356,30 356,40 " style="fill:#d86915; stroke-width:1; stroke:black; " description="&lt;b&gt;ctg53_7&lt;/b&gt;&lt;br&gt;ctg53 7&lt;br&gt;Location: 4707 - 5343" locus_tag="ctg53_7" class="clusterblast-orf" id="dummy-1_q6_0_all"  />
<polygon points="366,40 378,40 383,35 378,30 366,30 366,40 " style="fill:#15d831; stroke-width:1; stroke:black; " description="&lt;b&gt;ctg53_8&lt;/b&gt;&lt;br&gt;ctg53 8&lt;br&gt;Location: 5479 - 6817" locus_tag="ctg53_8" class="clusterblast-orf" id="dummy-1_q7_0_all"  />
<polygon points="384,35 389,30 406,30 406,40 389,40 384,35 " style="fill:#1531d8; stroke-width:1; stroke:black; " description="&lt;b&gt;ctg53_9&lt;/b&gt;&lt;br&gt;ctg53 9&lt;br&gt;Location: 6862 - 8560" locus_tag="ctg53_9" class="clusterblast-orf" id="dummy-1_q8_0_all"  />
<polygon points="407,35 411,30 411,40 407,35 " style="fill:#d815bc; stroke-width:1; stroke:black; " description="&lt;b&gt;ctg53_10&lt;/b&gt;&lt;br&gt;ctg53 10&lt;br&gt;Location: 8639 - 8948" locus_tag="ctg53_10" class="clusterblast-orf" id="dummy-1_q9_0_all"  />
<polygon points="412,35 417,30 417,30 417,40 417,40 412,35 " style="fill:#d8bc15; stroke-width:1; stroke:black; " description="&lt;b&gt;ctg53_11&lt;/b&gt;&lt;br&gt;ctg53 11&lt;br&gt;Location: 9046 - 9472" locus_tag="ctg53_11" class="clusterblast-orf" id="dummy-1_q10_0_all"  />
<polygon points="419,35 424,30 430,30 430,40 424,40 419,35 " style="fill:#15d885; stroke-width:1; stroke:black; " description="&lt;b&gt;ctg53_12&lt;/b&gt;&lt;br&gt;ctg53 12&lt;br&gt;Location: 9598 - 10483" locus_tag="ctg53_12" class="clusterblast-orf" id="dummy-1_q11_0_all"  />
<polygon points="430,35 435,30 438,30 438,40 435,40 430,35 " style="fill:#4d15d8; stroke-width:1; stroke:black; " description="&lt;b&gt;ctg53_13&lt;/b&gt;&lt;br&gt;ctg53 13&lt;br&gt;Location: 10479 - 11058" locus_tag="ctg53_13" class="clusterblast-orf" id="dummy-1_q12_0_all"  />
<polygon points="438,35 443,30 460,30 460,40 443,40 438,35 " style="fill:#d81569; stroke-width:1; stroke:black; " description="&lt;b&gt;ctg53_14&lt;/b&gt;&lt;br&gt;ctg53 14&lt;br&gt;Location: 11104 - 12817" locus_tag="ctg53_14" class="clusterblast-orf" id="dummy-1_q13_0_all"  />
<polygon points="462,40 473,40 478,35 473,30 462,30 462,40 " style="fill:#a1d815; stroke-width:1; stroke:black; " description="&lt;b&gt;ctg53_15&lt;/b&gt;&lt;br&gt;ctg53 15&lt;br&gt;Location: 12945 - 14220" locus_tag="ctg53_15" class="clusterblast-orf" id="dummy-1_q14_0_all"  />
<polygon points="479,35 483,30 483,40 479,35 " style="fill:#15d8d8; stroke-width:1; stroke:black; " description="&lt;b&gt;ctg53_16&lt;/b&gt;&lt;br&gt;ctg53 16&lt;br&gt;Location: 14277 - 14622" locus_tag="ctg53_16" class="clusterblast-orf" id="dummy-1_q15_0_all"  />
</g>
<g label="NZ_KE384522" description="NZ_KE384522_c6: Streptomyces sp. CNS606 K304DRAFT scaffold00002.2, whole geno... (15% of genes show similarity), t1pks-nrps" class="clusterblast-cluster"  >
<text x="5" y="70" class="clusterblast-acc"  >
<a xlink:href="https://antismash-db.secondarymetabolites.org/go/NZ_KE384522/6" target="_blank">NZ_KE384522_c6</a>: Streptomyces sp. CNS606 K304DRAFT scaffold00002.2, whole geno... (15% of genes show similarity), t1pks-nrps</text>
<line x1="10" y1="85" x2="778.0" y2="85" style="stroke-width:1; stroke:grey; "  />
</g>
<g id="a1_000"  >
<polygon points="0,85 5,80 20,80 20,90 5,90 0,85 " style="fill:white; stroke-width:1; stroke:black; " description="&lt;b&gt;K304_RS0125140&lt;/b&gt;&lt;br&gt;alkaline phosphatase&lt;br&gt;Location: 95137 - 96741" locus_tag="K304_RS0125140" class="clusterblast-orf" id="dummy-1_h1_5_0"  />
</g>
<g id="a1_001"  >
<polygon points="26,90 48,90 53,85 48,80 26,80 26,90 " style="fill:white; stroke-width:1; stroke:black; " description="&lt;b&gt;K304_RS0125145&lt;/b&gt;&lt;br&gt;alpha-1,4-glucan--maltose-1-phosphate maltosyltransferase&lt;br&gt;Location: 97222 - 99276" locus_tag="K304_RS0125145" class="clusterblast-orf" id="dummy-1_h1_5_1"  />
</g>
<g id="a1_002"  >
<polygon points="53,90 69,90 74,85 69,80 53,80 53,90 " style="fill:white; stroke-width:1; stroke:black; " description="&lt;b&gt;K304_RS31250&lt;/b&gt;&lt;br&gt;maltose alpha-D-glucosyltransferase&lt;br&gt;Location: 99273 - 100955" locus_tag="K304_RS31250" class="clusterblast-orf" id="dummy-1_h1_5_2"  />
</g>
<g id="a1_003"  >
<polygon points="78,90 92,90 97,85 92,80 78,80 78,90 " style="fill:white; stroke-width:1; stroke:black; " description="&lt;b&gt;K304_RS0125155&lt;/b&gt;&lt;br&gt;maltokinase&lt;br&gt;Location: 101254 - 102741" locus_tag="K304_RS0125155" class="clusterblast-orf" id="dummy-1_h1_5_3"  />
</g>
<g id="a1_004"  >
<polygon points="105,90 129,90 134,85 129,80 105,80 105,90 " style="fill:white; stroke-width:1; stroke:black; " description="&lt;b&gt;K304_RS0125160&lt;/b&gt;&lt;br&gt;1,4-alpha-glucan branching enzyme&lt;br&gt;Location: 103357 - 105606" locus_tag="K304_RS0125160" class="clusterblast-orf" id="dummy-1_h1_5_4"  />
</g>
<g id="a1_005"  >
<polygon points="134,85 139,80 142,80 142,90 139,90 134,85 " style="fill:white; stroke-width:1; stroke:black; " description="&lt;b&gt;K304_RS0125165&lt;/b&gt;&lt;br&gt;DinB family protein&lt;br&gt;Location: 105649 - 106263" locus_tag="K304_RS0125165" class="clusterblast-orf" id="dummy-1_h1_5_5"  />
</g>
<g id="a1_006"  >
<polygon points="143,85 148,80 151,80 151,90 148,90 143,85 " style="fill:white; stroke-width:1; stroke:black; " description="&lt;b&gt;K304_RS0125170&lt;/b&gt;&lt;br&gt;hypothetical protein&lt;br&gt;Location: 106330 - 106953" locus_tag="K304_RS0125170" class="clusterblast-orf" id="dummy-1_h1_5_6"  />
</g>
<g id="a1_007"  >
<polygon points="153,85 158,80 171,80 171,90 158,90 153,85 " style="fill:white; stroke-width:1; stroke:black; " description="&lt;b&gt;K304_RS31255&lt;/b&gt;&lt;br&gt;C4-dicarboxylate transporter DctA&lt;br&gt;Location: 107069 - 108505" locus_tag="K304_RS31255" class="clusterblast-orf" id="dummy-1_h1_5_7"  />
</g>
<g id="a1_008"  >
<polygon points="174,90 193,90 198,85 193,80 174,80 174,90 " style="fill:white; stroke-width:1; stroke:black; " description="&lt;b&gt;K304_RS31260&lt;/b&gt;&lt;br&gt;sensor histidine kinase&lt;br&gt;Location: 108721 - 110640" locus_tag="K304_RS31260" class="clusterblast-orf" id="dummy-1_h1_5_8"  />
</g>
<g id="a1_009"  >
<polygon points="199,90 203,90 208,85 203,80 199,80 199,90 " style="fill:white; stroke-width:1; stroke:black; " description="&lt;b&gt;K304_RS0125185&lt;/b&gt;&lt;br&gt;response regulator&lt;br&gt;Location: 110688 - 111377" locus_tag="K304_RS0125185" class="clusterblast-orf" id="dummy-1_h1_5_9"  />
</g>
<g id="a1_0010"  >
<polygon points="209,90 222,90 227,85 222,80 209,80 209,90 " style="fill:white; stroke-width:1; stroke:black; " description="&lt;b&gt;K304_RS0125190&lt;/b&gt;&lt;br&gt;sugar ABC transporter substrate-binding protein&lt;br&gt;Location: 111478 - 112836" locus_tag="K304_RS0125190" class="clusterblast-orf" id="dummy-1_h1_5_10"  />
</g>
<g id="a1_0011"  >
<polygon points="228,90 234,90 239,85 234,80 228,80 228,90 " style="fill:white; stroke-width:1; stroke:black; " description="&lt;b&gt;K304_RS0125195&lt;/b&gt;&lt;br&gt;sugar ABC transporter permease&lt;br&gt;Location: 112959 - 113768" locus_tag="K304_RS0125195" class="clusterblast-orf" id="dummy-1_h1_5_11"  />
</g>
<g id="a1_0012"  >
<polygon points="240,90 246,90 251,85 246,80 240,80 240,90 " style="fill:white; stroke-width:1; stroke:black; " description="&lt;b&gt;K304_RS0125200&lt;/b&gt;&lt;br&gt;carbohydrate ABC transporter permease&lt;br&gt;Location: 113880 - 114764" locus_tag="K304_RS0125200" class="clusterblast-orf" id="dummy-1_h1_5_12"  />
</g>
<g id="a1_0013"  >
<polygon points="252,90 353,90 358,85 353,80 252,80 252,90 " style="fill:white; stroke-width:1; stroke:black; " description="&lt;b&gt;K304_RS31265&lt;/b&gt;&lt;br&gt;type I polyketide synthase&lt;br&gt;Location: 114850 - 123042" locus_tag="K304_RS31265" class="clusterblast-orf" id="dummy-1_h1_5_13"  />
</g>
<g id="a1_0014"  >
<polygon points="358,90 378,90 383,85 378,80 358,80 358,90 " style="fill:white; stroke-width:1; stroke:black; " description="&lt;b&gt;K304_RS31270&lt;/b&gt;&lt;br&gt;hypothetical protein&lt;br&gt;Location: 123054 - 125021" locus_tag="K304_RS31270" class="clusterblast-orf" id="dummy-1_h1_5_14"  />
</g>
<g id="a1_0015"  >
<polygon points="383,90 388,90 393,85 388,80 383,80 383,90 " style="fill:white; stroke-width:1; stroke:black; " description="&lt;b&gt;K304_RS31275&lt;/b&gt;&lt;br&gt;aspartate/glutamate racemase family protein&lt;br&gt;Location: 125018 - 125830" locus_tag="K304_RS31275" class="clusterblast-orf" id="dummy-1_h1_5_15"  />
</g>
<g id="a1_0016"  >
<polygon points="394,90 422,90 427,85 422,80 394,80 394,90 " style="fill:white; stroke-width:1; stroke:black; " description="&lt;b&gt;K304_RS31280&lt;/b&gt;&lt;br&gt;non-ribosomal peptide synthetase&lt;br&gt;Location: 125842 - 128466" locus_tag="K304_RS31280" class="clusterblast-orf" id="dummy-1_h1_5_16"  />
</g>
<g id="a1_0017"  >
<polygon points="427,90 526,90 531,85 526,80 427,80 427,90 " style="fill:white; stroke-width:1; stroke:black; " description="&lt;b&gt;K304_RS31285&lt;/b&gt;&lt;br&gt;non-ribosomal peptide synthetase&lt;br&gt;Location: 128463 - 136586" locus_tag="K304_RS31285" class="clusterblast-orf" id="dummy-1_h1_5_17"  />
</g>
<g id="a1_0018"  >
<polygon points="531,90 543,90 548,85 543,80 531,80 531,90 " style="fill:white; stroke-width:1; stroke:black; " description="&lt;b&gt;K304_RS0125220&lt;/b&gt;&lt;br&gt;MFS transporter&lt;br&gt;Location: 136583 - 137875" locus_tag="K304_RS0125220" class="clusterblast-orf" id="dummy-1_h1_5_18"  />
</g>
<g id="a1_0019"  >
<polygon points="549,90 552,85 549,80 549,90 " style="fill:white; stroke-width:1; stroke:black; " description="&lt;b&gt;K304_RS0125225&lt;/b&gt;&lt;br&gt;antibiotic synthesis protein MbtH&lt;br&gt;Location: 137971 - 138183" locus_tag="K304_RS0125225" class="clusterblast-orf" id="dummy-1_h1_5_19"  />
</g>
<g id="a1_0020"  >
<polygon points="553,90 557,90 562,85 557,80 553,80 553,90 " style="fill:white; stroke-width:1; stroke:black; " description="&lt;b&gt;K304_RS0125230&lt;/b&gt;&lt;br&gt;XRE family transcriptional regulator&lt;br&gt;Location: 138285 - 139004" locus_tag="K304_RS0125230" class="clusterblast-orf" id="dummy-1_h1_5_20"  />
</g>
<g id="a1_0021"  >
<polygon points="563,90 563,90 568,85 563,80 563,80 563,90 " style="fill:white; stroke-width:1; stroke:black; " description="&lt;b&gt;K304_RS0125235&lt;/b&gt;&lt;br&gt;hypothetical protein&lt;br&gt;Location: 139012 - 139425" locus_tag="K304_RS0125235" class="clusterblast-orf" id="dummy-1_h1_5_21"  />
</g>
<g id="a1_0022"  >
<polygon points="568,85 573,80 578,80 578,90 573,90 568,85 " style="fill:white; stroke-width:1; stroke:black; " description="&lt;b&gt;K304_RS0125240&lt;/b&gt;&lt;br&gt;SDR family NAD(P)-dependent oxidoreductase&lt;br&gt;Location: 139454 - 140224" locus_tag="K304_RS0125240" class="clusterblast-orf" id="dummy-1_h1_5_22"  />
</g>
<g id="a1_0023"  >
<polygon points="578,85 583,80 583,80 583,90 583,90 578,85 " style="fill:white; stroke-width:1; stroke:black; " description="&lt;b&gt;K304_RS0125245&lt;/b&gt;&lt;br&gt;phenylacetic acid degradation protein PaaD&lt;br&gt;Location: 140227 - 140637" locus_tag="K304_RS0125245" class="clusterblast-orf" id="dummy-1_h1_5_23"  />
</g>
<g id="a1_0024"  >
<polygon points="584,85 589,80 598,80 598,90 589,90 584,85 " style="fill:white; stroke-width:1; stroke:black; " description="&lt;b&gt;K304_RS0125250&lt;/b&gt;&lt;br&gt;6-phosphofructokinase&lt;br&gt;Location: 140711 - 141736" locus_tag="K304_RS0125250" class="clusterblast-orf" id="dummy-1_h1_5_24"  />
</g>
<g id="a1_0025"  >
<polygon points="601,90 624,90 629,85 624,80 601,80 601,90 " style="fill:white; stroke-width:1; stroke:black; " description="&lt;b&gt;K304_RS0125255&lt;/b&gt;&lt;br&gt;phosphate acetyltransferase&lt;br&gt;Location: 142001 - 144157" locus_tag="K304_RS0125255" class="clusterblast-orf" id="dummy-1_h1_5_25"  />
</g>
<g id="a1_0026"  >
<polygon points="629,90 640,90 645,85 640,80 629,80 629,90 " style="fill:white; stroke-width:1; stroke:black; " description="&lt;b&gt;K304_RS0125260&lt;/b&gt;&lt;br&gt;acetate kinase&lt;br&gt;Location: 144154 - 145416" locus_tag="K304_RS0125260" class="clusterblast-orf" id="dummy-1_h1_5_26"  />
</g>
<g id="a1_0027"  >
<polygon points="646,90 659,90 664,85 659,80 646,80 646,90 " style="fill:white; stroke-width:1; stroke:black; " description="&lt;b&gt;K304_RS0125265&lt;/b&gt;&lt;br&gt;pyruvate kinase&lt;br&gt;Location: 145490 - 146926" locus_tag="K304_RS0125265" class="clusterblast-orf" id="dummy-1_h1_5_27"  />
</g>
<g id="a1_0028"  >
<polygon points="665,85 670,80 682,80 682,90 670,90 665,85 " style="fill:#d81515; stroke-width:1; stroke:black; " description="&lt;b&gt;K304_RS0125270&lt;/b&gt;&lt;br&gt;hypothetical protein&lt;br&gt;Location: 147017 - 148342&lt;br&gt;&lt;br&gt;&lt;b&gt;BlastP hit with ctg53_1&lt;/b&gt;&lt;br&gt;Percentage identity: 50&lt;br&gt;Percentage coverage: 39&lt;br&gt;BLAST bit score: 57&lt;br&gt;E-value: 2e-06" locus_tag="K304_RS0125270" class="clusterblast-orf" id="dummy-1_h1_5_28"  />
</g>
<g id="a1_0029"  >
<polygon points="682,85 687,80 690,80 690,90 687,90 682,85 " style="fill:#4dd815; stroke-width:1; stroke:black; " description="&lt;b&gt;K304_RS0125275&lt;/b&gt;&lt;br&gt;hypothetical protein&lt;br&gt;Location: 148332 - 148910&lt;br&gt;&lt;br&gt;&lt;b&gt;BlastP hit with ctg53_2&lt;/b&gt;&lt;br&gt;Percentage identity: 58&lt;br&gt;Percentage coverage: 41&lt;br&gt;BLAST bit score: 55&lt;br&gt;E-value: 5.3e-06" locus_tag="K304_RS0125275" class="clusterblast-orf" id="dummy-1_h1_5_29"  />
</g>
<g id="a1_0030"  >
<polygon points="691,85 696,80 699,80 699,90 696,90 691,85 " style="fill:white; stroke-width:1; stroke:black; " description="&lt;b&gt;K304_RS0125280&lt;/b&gt;&lt;br&gt;hypothetical protein&lt;br&gt;Location: 149003 - 149614" locus_tag="K304_RS0125280" class="clusterblast-orf" id="dummy-1_h1_5_30"  />
</g>
<g id="a1_0031"  >
<polygon points="699,90 703,85 699,80 699,90 " style="fill:white; stroke-width:1; stroke:black; " description="&lt;b&gt;K304_RS33175&lt;/b&gt;&lt;br&gt;hypothetical protein&lt;br&gt;Location: 149654 - 149988" locus_tag="K304_RS33175" class="clusterblast-orf" id="dummy-1_h1_5_31"  />
</g>
<g id="a1_0032"  >
<polygon points="706,85 711,80 718,80 718,90 711,90 706,85 " style="fill:#1585d8; stroke-width:1; stroke:black; " description="&lt;b&gt;K304_RS0125285&lt;/b&gt;&lt;br&gt;co-chaperone YbbN&lt;br&gt;Location: 150203 - 151147&lt;br&gt;&lt;br&gt;&lt;b&gt;BlastP hit with ctg53_5&lt;/b&gt;&lt;br&gt;Percentage identity: 69&lt;br&gt;Percentage coverage: 100&lt;br&gt;BLAST bit score: 387&lt;br&gt;E-value: 1.7e-105" locus_tag="K304_RS0125285" class="clusterblast-orf" id="dummy-1_h1_5_32"  />
</g>
<g id="a1_0033"  >
<polygon points="720,90 723,90 728,85 723,80 720,80 720,90 " style="fill:white; stroke-width:1; stroke:black; " description="&lt;b&gt;K304_RS0125290&lt;/b&gt;&lt;br&gt;TetR family transcriptional regulator&lt;br&gt;Location: 151291 - 151881" locus_tag="K304_RS0125290" class="clusterblast-orf" id="dummy-1_h1_5_33"  />
</g>
<g id="a1_0034"  >
<polygon points="728,85 733,80 750,80 750,90 733,90 728,85 " style="fill:#1531d8; stroke-width:1; stroke:black; " description="&lt;b&gt;K304_RS0125295&lt;/b&gt;&lt;br&gt;methylmalonyl-CoA mutase&lt;br&gt;Location: 151923 - 153623&lt;br&gt;&lt;br&gt;&lt;b&gt;BlastP hit with ctg53_9&lt;/b&gt;&lt;br&gt;Percentage identity: 86&lt;br&gt;Percentage coverage: 100&lt;br&gt;BLAST bit score: 1003&lt;br&gt;E-value: 6.8e-291" locus_tag="K304_RS0125295" class="clusterblast-orf" id="dummy-1_h1_5_34"  />
</g>
<g id="a1_0035"  >
<polygon points="752,85 757,80 757,80 757,90 757,90 752,85 " style="fill:#d815bc; stroke-width:1; stroke:black; " description="&lt;b&gt;K304_RS0125300&lt;/b&gt;&lt;br&gt;DUF3817 domain-containing protein&lt;br&gt;Location: 153802 - 154134&lt;br&gt;&lt;br&gt;&lt;b&gt;BlastP hit with ctg53_10&lt;/b&gt;&lt;br&gt;Percentage identity: 72&lt;br&gt;Percentage coverage: 80&lt;br&gt;BLAST bit score: 132&lt;br&gt;E-value: 3.2e-29" locus_tag="K304_RS0125300" class="clusterblast-orf" id="dummy-1_h1_5_35"  />
</g>
<g id="a1_0036"  >
<polygon points="758,85 763,80 764,80 764,90 763,90 758,85 " style="fill:#d8bc15; stroke-width:1; stroke:black; " description="&lt;b&gt;K304_RS0125305&lt;/b&gt;&lt;br&gt;MarR family transcriptional regulator&lt;br&gt;Location: 154221 - 154733&lt;br&gt;&lt;br&gt;&lt;b&gt;BlastP hit with ctg53_11&lt;/b&gt;&lt;br&gt;Percentage identity: 84&lt;br&gt;Percentage coverage: 98&lt;br&gt;BLAST bit score: 231&lt;br&gt;E-value: 5.3e-59" locus_tag="K304_RS0125305" class="clusterblast-orf" id="dummy-1_h1_5_36"  />
</g>
<g id="a1_0037"  >
<polygon points="767,90 775,90 780,85 775,80 767,80 767,90 " style="fill:white; stroke-width:1; stroke:black; " description="&lt;b&gt;K304_RS0125310&lt;/b&gt;&lt;br&gt;ArsR family transcriptional regulator&lt;br&gt;Location: 154916 - 155914" locus_tag="K304_RS0125310" class="clusterblast-orf" id="dummy-1_h1_5_37"  />
</g>
</svg>
