<svg xmlns="http://www.w3.org/2000/svg" xmlns:xlink="http://www.w3.org/1999/xlink" version="1.1" x="0" y="0" height="230" width="800" viewBox="0 0 800 230" preserveAspectRatio="none"  >
<g label="Query sequence" class="clusterblast-cluster"  >
<text x="5" y="20" class="clusterblast-acc"  >
Query sequence</text>
<line x1="10" y1="35" x2="778.0" y2="35" style="stroke-width:1; stroke:grey; "  />
<polygon points="217,35 222,30 233,30 233,40 222,40 217,35 " style="fill:#d81515; stroke-width:1; stroke:black; " description="&lt;b&gt;ctg95_1&lt;/b&gt;&lt;br&gt;ctg95 1&lt;br&gt;Location: 202 - 970" locus_tag="ctg95_1" class="clusterblast-orf" id="dummy-1_q0_0_all"  />
<polygon points="236,40 259,40 264,35 259,30 236,30 236,40 " style="fill:#33d815; stroke-width:1; stroke:black; " description="&lt;b&gt;ctg95_2&lt;/b&gt;&lt;br&gt;ctg95 2&lt;br&gt;Location: 1127 - 2561" locus_tag="ctg95_2" class="clusterblast-orf" id="dummy-1_q1_0_all"  />
<polygon points="265,40 282,40 287,35 282,30 265,30 265,40 " style="fill:#15abd8; stroke-width:1; stroke:black; " description="&lt;b&gt;ctg95_3&lt;/b&gt;&lt;br&gt;ctg95 3&lt;br&gt;Location: 2612 - 3731" locus_tag="ctg95_3" class="clusterblast-orf" id="dummy-1_q2_0_all"  />
<polygon points="289,40 295,40 300,35 295,30 289,30 289,40 " style="fill:#8d15d8; stroke-width:1; stroke:black; " description="&lt;b&gt;ctg95_4&lt;/b&gt;&lt;br&gt;ctg95 4&lt;br&gt;Location: 3847 - 4414" locus_tag="ctg95_4" class="clusterblast-orf" id="dummy-1_q3_0_all"  />
<polygon points="301,35 306,30 317,30 317,40 306,40 301,35 " style="fill:#d86f15; stroke-width:1; stroke:black; " description="&lt;b&gt;ctg95_5&lt;/b&gt;&lt;br&gt;ctg95 5&lt;br&gt;Location: 4429 - 5278" locus_tag="ctg95_5" class="clusterblast-orf" id="dummy-1_q4_0_all"  />
<polygon points="317,35 322,30 367,30 367,40 322,40 317,35 " style="fill:#15d851; stroke-width:1; stroke:black; " description="&lt;b&gt;ctg95_6&lt;/b&gt;&lt;br&gt;ctg95 6&lt;br&gt;Location: 5278 - 7786" locus_tag="ctg95_6" class="clusterblast-orf" id="dummy-1_q5_0_all"  />
<polygon points="369,35 374,30 387,30 387,40 374,40 369,35 " style="fill:#1551d8; stroke-width:1; stroke:black; " description="&lt;b&gt;ctg95_7&lt;/b&gt;&lt;br&gt;ctg95 7&lt;br&gt;Location: 7916 - 8792" locus_tag="ctg95_7" class="clusterblast-orf" id="dummy-1_q6_0_all"  />
<polygon points="387,35 392,30 423,30 423,40 392,40 387,35 " style="fill:#1551d8; stroke-width:1; stroke:black; " description="&lt;b&gt;ctg95_8&lt;/b&gt;&lt;br&gt;ctg95 8&lt;br&gt;Location: 8788 - 10627" locus_tag="ctg95_8" class="clusterblast-orf" id="dummy-1_q7_0_all"  />
<polygon points="423,35 428,30 443,30 443,40 428,40 423,35 " style="fill:#d815c9; stroke-width:1; stroke:black; " description="&lt;b&gt;ctg95_9&lt;/b&gt;&lt;br&gt;ctg95 9&lt;br&gt;Location: 10643 - 11633" locus_tag="ctg95_9" class="clusterblast-orf" id="dummy-1_q8_0_all"  />
<polygon points="443,35 448,30 477,30 477,40 448,40 443,35 " style="fill:#d8c915; stroke-width:1; stroke:black; " description="&lt;b&gt;ctg95_10&lt;/b&gt;&lt;br&gt;ctg95 10&lt;br&gt;Location: 11664 - 13362" locus_tag="ctg95_10" class="clusterblast-orf" id="dummy-1_q9_0_all"  />
<polygon points="480,40 500,40 505,35 500,30 480,30 480,40 " style="fill:#15d8ab; stroke-width:1; stroke:black; " description="&lt;b&gt;ctg95_11&lt;/b&gt;&lt;br&gt;ctg95 11&lt;br&gt;Location: 13533 - 14811" locus_tag="ctg95_11" class="clusterblast-orf" id="dummy-1_q10_0_all"  />
<polygon points="510,40 529,40 534,35 529,30 510,30 510,40 " style="fill:#3315d8; stroke-width:1; stroke:black; " description="&lt;b&gt;ctg95_12&lt;/b&gt;&lt;br&gt;ctg95 12&lt;br&gt;Location: 15050 - 16256" locus_tag="ctg95_12" class="clusterblast-orf" id="dummy-1_q11_0_all"  />
<polygon points="535,40 552,40 557,35 552,30 535,30 535,40 " style="fill:#d8156f; stroke-width:1; stroke:black; " description="&lt;b&gt;ctg95_13&lt;/b&gt;&lt;br&gt;ctg95 13&lt;br&gt;Location: 16336 - 17458" locus_tag="ctg95_13" class="clusterblast-orf" id="dummy-1_q12_0_all"  />
<polygon points="559,35 562,30 562,40 559,35 " style="fill:#8dd815; stroke-width:1; stroke:black; " description="&lt;b&gt;ctg95_14&lt;/b&gt;&lt;br&gt;ctg95 14&lt;br&gt;Location: 17536 - 17698" locus_tag="ctg95_14" class="clusterblast-orf" id="dummy-1_q13_0_all"  />
</g>
<g label="NZ_LZNS01000001" description="NZ_LZNS01000001_c6: Streptomyces sp. MP131-18 scaf 01, whole genome shotgun s... (30% of genes show similarity), t3pks" class="clusterblast-cluster"  >
<text x="5" y="70" class="clusterblast-acc"  >
<a xlink:href="https://antismash-db.secondarymetabolites.org/go/NZ_LZNS01000001/6" target="_blank">NZ_LZNS01000001_c6</a>: Streptomyces sp. MP131-18 scaf 01, whole genome shotgun s... (30% of genes show similarity), t3pks</text>
<line x1="10" y1="85" x2="778.0" y2="85" style="stroke-width:1; stroke:grey; "  />
</g>
<g id="a1_000"  >
<polygon points="0,85 5,80 16,80 16,90 5,90 0,85 " style="fill:#d86f15; stroke-width:1; stroke:black; " description="&lt;b&gt;STBA_RS03270&lt;/b&gt;&lt;br&gt;LacI family transcriptional regulator&lt;br&gt;Location: 751316 - 752164&lt;br&gt;&lt;br&gt;&lt;b&gt;BlastP hit with ctg95_5&lt;/b&gt;&lt;br&gt;Percentage identity: 69&lt;br&gt;Percentage coverage: 99&lt;br&gt;BLAST bit score: 366&lt;br&gt;E-value: 2.8e-99" locus_tag="STBA_RS03270" class="clusterblast-orf" id="dummy-1_h1_7_0"  />
</g>
<g id="a1_001"  >
<polygon points="16,85 21,80 65,80 65,90 21,90 16,85 " style="fill:#15d851; stroke-width:1; stroke:black; " description="&lt;b&gt;STBA_RS03275&lt;/b&gt;&lt;br&gt;glycoside hydrolase family 2 protein&lt;br&gt;Location: 752165 - 754642&lt;br&gt;&lt;br&gt;&lt;b&gt;BlastP hit with ctg95_6&lt;/b&gt;&lt;br&gt;Percentage identity: 71&lt;br&gt;Percentage coverage: 98&lt;br&gt;BLAST bit score: 1201&lt;br&gt;E-value: 0.0" locus_tag="STBA_RS03275" class="clusterblast-orf" id="dummy-1_h1_7_1"  />
</g>
<g id="a1_002"  >
<polygon points="67,90 105,90 110,85 105,80 67,80 67,90 " style="fill:white; stroke-width:1; stroke:black; " description="&lt;b&gt;STBA_RS03280&lt;/b&gt;&lt;br&gt;alpha-galactosidase&lt;br&gt;Location: 754760 - 756940" locus_tag="STBA_RS03280" class="clusterblast-orf" id="dummy-1_h1_7_2"  />
</g>
<g id="a1_003"  >
<polygon points="112,85 117,80 154,80 154,90 117,90 112,85 " style="fill:white; stroke-width:1; stroke:black; " description="&lt;b&gt;STBA_RS03285&lt;/b&gt;&lt;br&gt;alpha-galactosidase&lt;br&gt;Location: 757009 - 759141" locus_tag="STBA_RS03285" class="clusterblast-orf" id="dummy-1_h1_7_3"  />
</g>
<g id="a1_004"  >
<polygon points="154,85 159,80 172,80 172,90 159,90 154,85 " style="fill:#1551d8; stroke-width:1; stroke:black; " description="&lt;b&gt;STBA_RS03290&lt;/b&gt;&lt;br&gt;ABC transporter ATP-binding protein&lt;br&gt;Location: 759141 - 760067&lt;br&gt;&lt;br&gt;&lt;b&gt;BlastP hit with ctg95_7&lt;/b&gt;&lt;br&gt;Percentage identity: 79&lt;br&gt;Percentage coverage: 99&lt;br&gt;BLAST bit score: 446&lt;br&gt;E-value: 1.7e-123&lt;br&gt;&lt;br&gt;&lt;b&gt;BlastP hit with ctg95_8&lt;/b&gt;&lt;br&gt;Percentage identity: 39&lt;br&gt;Percentage coverage: 40&lt;br&gt;BLAST bit score: 144&lt;br&gt;E-value: 4.8e-32" locus_tag="STBA_RS03290" class="clusterblast-orf" id="dummy-1_h1_7_4"  />
</g>
<g id="a1_005"  >
<polygon points="172,85 177,80 207,80 207,90 177,90 172,85 " style="fill:#1551d8; stroke-width:1; stroke:black; " description="&lt;b&gt;STBA_RS03295&lt;/b&gt;&lt;br&gt;peptide ABC transporter ATP-binding protein&lt;br&gt;Location: 760064 - 761872&lt;br&gt;&lt;br&gt;&lt;b&gt;BlastP hit with ctg95_7&lt;/b&gt;&lt;br&gt;Percentage identity: 36&lt;br&gt;Percentage coverage: 96&lt;br&gt;BLAST bit score: 134&lt;br&gt;E-value: 2.4e-29&lt;br&gt;&lt;br&gt;&lt;b&gt;BlastP hit with ctg95_8&lt;/b&gt;&lt;br&gt;Percentage identity: 73&lt;br&gt;Percentage coverage: 97&lt;br&gt;BLAST bit score: 818&lt;br&gt;E-value: 4.4e-235" locus_tag="STBA_RS03295" class="clusterblast-orf" id="dummy-1_h1_7_5"  />
</g>
<g id="a1_006"  >
<polygon points="210,85 215,80 229,80 229,90 215,90 210,85 " style="fill:#d815c9; stroke-width:1; stroke:black; " description="&lt;b&gt;STBA_RS03300&lt;/b&gt;&lt;br&gt;ABC transporter permease&lt;br&gt;Location: 761994 - 762983&lt;br&gt;&lt;br&gt;&lt;b&gt;BlastP hit with ctg95_9&lt;/b&gt;&lt;br&gt;Percentage identity: 84&lt;br&gt;Percentage coverage: 99&lt;br&gt;BLAST bit score: 548&lt;br&gt;E-value: 4.6e-154" locus_tag="STBA_RS03300" class="clusterblast-orf" id="dummy-1_h1_7_6"  />
</g>
<g id="a1_007"  >
<polygon points="229,85 234,80 263,80 263,90 234,90 229,85 " style="fill:#d8c915; stroke-width:1; stroke:black; " description="&lt;b&gt;STBA_RS03305&lt;/b&gt;&lt;br&gt;ABC transporter substrate-binding protein&lt;br&gt;Location: 762993 - 764681&lt;br&gt;&lt;br&gt;&lt;b&gt;BlastP hit with ctg95_10&lt;/b&gt;&lt;br&gt;Percentage identity: 66&lt;br&gt;Percentage coverage: 100&lt;br&gt;BLAST bit score: 759&lt;br&gt;E-value: 2.2e-217" locus_tag="STBA_RS03305" class="clusterblast-orf" id="dummy-1_h1_7_7"  />
</g>
<g id="a1_008"  >
<polygon points="269,90 289,90 294,85 289,80 269,80 269,90 " style="fill:#15d8ab; stroke-width:1; stroke:black; " description="&lt;b&gt;STBA_RS03310&lt;/b&gt;&lt;br&gt;ROK family transcriptional regulator&lt;br&gt;Location: 764995 - 766269&lt;br&gt;&lt;br&gt;&lt;b&gt;BlastP hit with ctg95_11&lt;/b&gt;&lt;br&gt;Percentage identity: 74&lt;br&gt;Percentage coverage: 100&lt;br&gt;BLAST bit score: 566&lt;br&gt;E-value: 2.1e-159" locus_tag="STBA_RS03310" class="clusterblast-orf" id="dummy-1_h1_7_8"  />
</g>
<g id="a1_009"  >
<polygon points="305,90 341,90 346,85 341,80 305,80 305,90 " style="fill:white; stroke-width:1; stroke:black; " description="&lt;b&gt;STBA_RS03315&lt;/b&gt;&lt;br&gt;hypothetical protein&lt;br&gt;Location: 766838 - 768910" locus_tag="STBA_RS03315" class="clusterblast-orf" id="dummy-1_h1_7_9"  />
</g>
<g id="a1_0010"  >
<polygon points="354,90 371,90 376,85 371,80 354,80 354,90 " style="fill:#3315d8; stroke-width:1; stroke:black; " description="&lt;b&gt;STBA_RS03320&lt;/b&gt;&lt;br&gt;cytochrome P450&lt;br&gt;Location: 769313 - 770437&lt;br&gt;&lt;br&gt;&lt;b&gt;BlastP hit with ctg95_12&lt;/b&gt;&lt;br&gt;Percentage identity: 79&lt;br&gt;Percentage coverage: 93&lt;br&gt;BLAST bit score: 594&lt;br&gt;E-value: 8.9e-168" locus_tag="STBA_RS03320" class="clusterblast-orf" id="dummy-1_h1_7_10"  />
</g>
<g id="a1_0011"  >
<polygon points="377,90 394,90 399,85 394,80 377,80 377,90 " style="fill:#d8156f; stroke-width:1; stroke:black; " description="&lt;b&gt;STBA_RS03325&lt;/b&gt;&lt;br&gt;type III polyketide synthase&lt;br&gt;Location: 770513 - 771616&lt;br&gt;&lt;br&gt;&lt;b&gt;BlastP hit with ctg95_13&lt;/b&gt;&lt;br&gt;Percentage identity: 79&lt;br&gt;Percentage coverage: 100&lt;br&gt;BLAST bit score: 595&lt;br&gt;E-value: 3.7e-168" locus_tag="STBA_RS03325" class="clusterblast-orf" id="dummy-1_h1_7_11"  />
</g>
<g id="a1_0012"  >
<polygon points="400,85 405,80 410,80 410,90 405,90 400,85 " style="fill:white; stroke-width:1; stroke:black; " description="&lt;b&gt;STBA_RS03330&lt;/b&gt;&lt;br&gt;NUDIX domain-containing protein&lt;br&gt;Location: 771644 - 772153" locus_tag="STBA_RS03330" class="clusterblast-orf" id="dummy-1_h1_7_12"  />
</g>
<g id="a1_0013"  >
<polygon points="415,85 420,80 431,80 431,90 420,90 415,85 " style="fill:white; stroke-width:1; stroke:black; " description="&lt;b&gt;STBA_RS03335&lt;/b&gt;&lt;br&gt;S-adenosyl methyltransferase&lt;br&gt;Location: 772426 - 773211" locus_tag="STBA_RS03335" class="clusterblast-orf" id="dummy-1_h1_7_13"  />
</g>
<g id="a1_0014"  >
<polygon points="436,85 441,80 458,80 458,90 441,90 436,85 " style="fill:white; stroke-width:1; stroke:black; " description="&lt;b&gt;STBA_RS03340&lt;/b&gt;&lt;br&gt;NAD(P)/FAD-dependent oxidoreductase&lt;br&gt;Location: 773479 - 774585" locus_tag="STBA_RS03340" class="clusterblast-orf" id="dummy-1_h1_7_14"  />
</g>
<g id="a1_0015"  >
<polygon points="459,90 462,90 467,85 462,80 459,80 459,90 " style="fill:white; stroke-width:1; stroke:black; " description="&lt;b&gt;STBA_RS03345&lt;/b&gt;&lt;br&gt;HIT family protein&lt;br&gt;Location: 774649 - 775077" locus_tag="STBA_RS03345" class="clusterblast-orf" id="dummy-1_h1_7_15"  />
</g>
<g id="a1_0016"  >
<polygon points="467,85 472,80 488,80 488,90 472,90 467,85 " style="fill:white; stroke-width:1; stroke:black; " description="&lt;b&gt;STBA_RS03350&lt;/b&gt;&lt;br&gt;ATP-dependent DNA ligase&lt;br&gt;Location: 775052 - 776128" locus_tag="STBA_RS03350" class="clusterblast-orf" id="dummy-1_h1_7_16"  />
</g>
<g id="a1_0017"  >
<polygon points="490,90 505,90 510,85 505,80 490,80 490,90 " style="fill:white; stroke-width:1; stroke:black; " description="&lt;b&gt;STBA_RS03355&lt;/b&gt;&lt;br&gt;ATP-dependent DNA ligase&lt;br&gt;Location: 776206 - 777252" locus_tag="STBA_RS03355" class="clusterblast-orf" id="dummy-1_h1_7_17"  />
</g>
<g id="a1_0018"  >
<polygon points="510,85 515,80 532,80 532,90 515,90 510,85 " style="fill:white; stroke-width:1; stroke:black; " description="&lt;b&gt;STBA_RS03360&lt;/b&gt;&lt;br&gt;transcription termination factor Rho&lt;br&gt;Location: 777227 - 778381" locus_tag="STBA_RS03360" class="clusterblast-orf" id="dummy-1_h1_7_18"  />
</g>
<g id="a1_0019"  >
<polygon points="538,85 543,80 554,80 554,90 543,90 538,85 " style="fill:white; stroke-width:1; stroke:black; " description="&lt;b&gt;STBA_RS03365&lt;/b&gt;&lt;br&gt;S-adenosyl methyltransferase&lt;br&gt;Location: 778671 - 779504" locus_tag="STBA_RS03365" class="clusterblast-orf" id="dummy-1_h1_7_19"  />
</g>
<g id="a1_0020"  >
<polygon points="557,90 576,90 581,85 576,80 557,80 557,90 " style="fill:white; stroke-width:1; stroke:black; " description="&lt;b&gt;STBA_RS03370&lt;/b&gt;&lt;br&gt;acetyl-CoA C-acyltransferase&lt;br&gt;Location: 779656 - 780840" locus_tag="STBA_RS03370" class="clusterblast-orf" id="dummy-1_h1_7_20"  />
</g>
<g id="a1_0021"  >
<polygon points="581,85 586,80 605,80 605,90 586,90 581,85 " style="fill:white; stroke-width:1; stroke:black; " description="&lt;b&gt;STBA_RS03375&lt;/b&gt;&lt;br&gt;8-amino-7-oxononanoate synthase&lt;br&gt;Location: 780850 - 782067" locus_tag="STBA_RS03375" class="clusterblast-orf" id="dummy-1_h1_7_21"  />
</g>
<g id="a1_0022"  >
<polygon points="607,90 623,90 628,85 623,80 607,80 607,90 " style="fill:white; stroke-width:1; stroke:black; " description="&lt;b&gt;STBA_RS03380&lt;/b&gt;&lt;br&gt;biotin synthase BioB&lt;br&gt;Location: 782181 - 783242" locus_tag="STBA_RS03380" class="clusterblast-orf" id="dummy-1_h1_7_22"  />
</g>
<g id="a1_0023"  >
<polygon points="628,90 649,90 654,85 649,80 628,80 628,90 " style="fill:white; stroke-width:1; stroke:black; " description="&lt;b&gt;STBA_RS03385&lt;/b&gt;&lt;br&gt;adenosylmethionine--8-amino-7-oxononanoate transaminase&lt;br&gt;Location: 783235 - 784557" locus_tag="STBA_RS03385" class="clusterblast-orf" id="dummy-1_h1_7_23"  />
</g>
<g id="a1_0024"  >
<polygon points="654,90 663,90 668,85 663,80 654,80 654,90 " style="fill:white; stroke-width:1; stroke:black; " description="&lt;b&gt;STBA_RS03390&lt;/b&gt;&lt;br&gt;ATP-dependent dethiobiotin synthetase BioD&lt;br&gt;Location: 784581 - 785273" locus_tag="STBA_RS03390" class="clusterblast-orf" id="dummy-1_h1_7_24"  />
</g>
<g id="a1_0025"  >
<polygon points="671,90 687,90 692,85 687,80 671,80 671,90 " style="fill:white; stroke-width:1; stroke:black; " description="&lt;b&gt;STBA_RS03395&lt;/b&gt;&lt;br&gt;LacI family transcriptional regulator&lt;br&gt;Location: 785441 - 786502" locus_tag="STBA_RS03395" class="clusterblast-orf" id="dummy-1_h1_7_25"  />
</g>
<g id="a1_0026"  >
<polygon points="692,90 711,90 716,85 711,80 692,80 692,90 " style="fill:white; stroke-width:1; stroke:black; " description="&lt;b&gt;STBA_RS03400&lt;/b&gt;&lt;br&gt;sugar ABC transporter substrate-binding protein&lt;br&gt;Location: 786493 - 787731" locus_tag="STBA_RS03400" class="clusterblast-orf" id="dummy-1_h1_7_26"  />
</g>
<g id="a1_0027"  >
<polygon points="717,90 730,90 735,85 730,80 717,80 717,90 " style="fill:white; stroke-width:1; stroke:black; " description="&lt;b&gt;STBA_RS03405&lt;/b&gt;&lt;br&gt;sugar ABC transporter permease&lt;br&gt;Location: 787742 - 788689" locus_tag="STBA_RS03405" class="clusterblast-orf" id="dummy-1_h1_7_27"  />
</g>
<g id="a1_0028"  >
<polygon points="735,90 747,90 752,85 747,80 735,80 735,90 " style="fill:white; stroke-width:1; stroke:black; " description="&lt;b&gt;STBA_RS03410&lt;/b&gt;&lt;br&gt;carbohydrate ABC transporter permease&lt;br&gt;Location: 788694 - 789521" locus_tag="STBA_RS03410" class="clusterblast-orf" id="dummy-1_h1_7_28"  />
</g>
<g id="a1_0029"  >
<polygon points="752,90 774,90 779,85 774,80 752,80 752,90 " style="fill:white; stroke-width:1; stroke:black; " description="&lt;b&gt;STBA_RS03415&lt;/b&gt;&lt;br&gt;beta-glucosidase&lt;br&gt;Location: 789537 - 790934" locus_tag="STBA_RS03415" class="clusterblast-orf" id="dummy-1_h1_7_29"  />
</g>
</svg>
