<svg xmlns="http://www.w3.org/2000/svg" xmlns:xlink="http://www.w3.org/1999/xlink" version="1.1" x="0" y="0" height="230" width="800" viewBox="0 0 800 230" preserveAspectRatio="none"  >
<g label="Query sequence" class="clusterblast-cluster"  >
<text x="5" y="20" class="clusterblast-acc"  >
Query sequence</text>
<line x1="10" y1="35" x2="778.0" y2="35" style="stroke-width:1; stroke:grey; "  />
<polygon points="264,35 269,30 272,30 272,40 269,40 264,35 " style="fill:#d81515; stroke-width:1; stroke:black; " description="&lt;b&gt;ctg77_1&lt;/b&gt;&lt;br&gt;ctg77 1&lt;br&gt;Location: 0 - 627" locus_tag="ctg77_1" class="clusterblast-orf" id="dummy-1_q0_0_all"  />
<polygon points="273,40 277,35 273,30 273,40 " style="fill:#33d815; stroke-width:1; stroke:black; " description="&lt;b&gt;ctg77_2&lt;/b&gt;&lt;br&gt;ctg77 2&lt;br&gt;Location: 718 - 994" locus_tag="ctg77_2" class="clusterblast-orf" id="dummy-1_q1_0_all"  />
<polygon points="278,35 283,30 296,30 296,40 283,40 278,35 " style="fill:#15abd8; stroke-width:1; stroke:black; " description="&lt;b&gt;ctg77_3&lt;/b&gt;&lt;br&gt;ctg77 3&lt;br&gt;Location: 1063 - 2500" locus_tag="ctg77_3" class="clusterblast-orf" id="dummy-1_q2_0_all"  />
<polygon points="298,40 309,40 314,35 309,30 298,30 298,40 " style="fill:#8d15d8; stroke-width:1; stroke:black; " description="&lt;b&gt;ctg77_4&lt;/b&gt;&lt;br&gt;ctg77 4&lt;br&gt;Location: 2630 - 3875" locus_tag="ctg77_4" class="clusterblast-orf" id="dummy-1_q3_0_all"  />
<polygon points="314,35 319,30 365,30 365,40 319,40 314,35 " style="fill:#d86f15; stroke-width:1; stroke:black; " description="&lt;b&gt;ctg77_5&lt;/b&gt;&lt;br&gt;ctg77 5&lt;br&gt;Location: 3942 - 7899" locus_tag="ctg77_5" class="clusterblast-orf" id="dummy-1_q4_0_all"  />
<polygon points="371,35 375,30 375,40 371,35 " style="fill:#15d851; stroke-width:1; stroke:black; " description="&lt;b&gt;ctg77_6&lt;/b&gt;&lt;br&gt;ctg77 6&lt;br&gt;Location: 8371 - 8653" locus_tag="ctg77_6" class="clusterblast-orf" id="dummy-1_q5_0_all"  />
<polygon points="382,40 388,40 393,35 388,30 382,30 382,40 " style="fill:#1551d8; stroke-width:1; stroke:black; " description="&lt;b&gt;ctg77_7&lt;/b&gt;&lt;br&gt;ctg77 7&lt;br&gt;Location: 9202 - 10090" locus_tag="ctg77_7" class="clusterblast-orf" id="dummy-1_q6_0_all"  />
<polygon points="393,35 398,30 412,30 412,40 398,40 393,35 " style="fill:#d815c9; stroke-width:1; stroke:black; " description="&lt;b&gt;ctg77_8&lt;/b&gt;&lt;br&gt;ctg77 8&lt;br&gt;Location: 10124 - 11552" locus_tag="ctg77_8" class="clusterblast-orf" id="dummy-1_q7_0_all"  />
<polygon points="416,40 427,40 432,35 427,30 416,30 416,40 " style="fill:#d8c915; stroke-width:1; stroke:black; " description="&lt;b&gt;ctg77_9&lt;/b&gt;&lt;br&gt;ctg77 9&lt;br&gt;Location: 11875 - 13174" locus_tag="ctg77_9" class="clusterblast-orf" id="dummy-1_q8_0_all"  />
<polygon points="433,35 438,30 462,30 462,40 438,40 433,35 " style="fill:#15d8ab; stroke-width:1; stroke:black; " description="&lt;b&gt;ctg77_10&lt;/b&gt;&lt;br&gt;ctg77 10&lt;br&gt;Location: 13232 - 15488" locus_tag="ctg77_10" class="clusterblast-orf" id="dummy-1_q9_0_all"  />
<polygon points="464,35 469,30 474,30 474,40 469,40 464,35 " style="fill:#3315d8; stroke-width:1; stroke:black; " description="&lt;b&gt;ctg77_11&lt;/b&gt;&lt;br&gt;ctg77 11&lt;br&gt;Location: 15623 - 16448" locus_tag="ctg77_11" class="clusterblast-orf" id="dummy-1_q10_0_all"  />
<polygon points="474,35 479,30 488,30 488,40 479,40 474,35 " style="fill:#d8156f; stroke-width:1; stroke:black; " description="&lt;b&gt;ctg77_12&lt;/b&gt;&lt;br&gt;ctg77 12&lt;br&gt;Location: 16444 - 17536" locus_tag="ctg77_12" class="clusterblast-orf" id="dummy-1_q11_0_all"  />
<polygon points="488,35 493,30 501,30 501,40 493,40 488,35 " style="fill:#d8156f; stroke-width:1; stroke:black; " description="&lt;b&gt;ctg77_13&lt;/b&gt;&lt;br&gt;ctg77 13&lt;br&gt;Location: 17532 - 18573" locus_tag="ctg77_13" class="clusterblast-orf" id="dummy-1_q12_0_all"  />
<polygon points="502,35 507,30 515,30 515,40 507,40 502,35 " style="fill:#8dd815; stroke-width:1; stroke:black; " description="&lt;b&gt;ctg77_14&lt;/b&gt;&lt;br&gt;ctg77 14&lt;br&gt;Location: 18593 - 19649" locus_tag="ctg77_14" class="clusterblast-orf" id="dummy-1_q13_0_all"  />
</g>
<g label="NZ_FPAB01000009" description="NZ_FPAB01000009_c1: Streptomyces harbinensis strain CGMCC 4.7047, whole genom... (26% of genes show similarity), terpene" class="clusterblast-cluster"  >
<text x="5" y="70" class="clusterblast-acc"  >
<a xlink:href="https://antismash-db.secondarymetabolites.org/go/NZ_FPAB01000009/1" target="_blank">NZ_FPAB01000009_c1</a>: Streptomyces harbinensis strain CGMCC 4.7047, whole genom... (26% of genes show similarity), terpene</text>
<line x1="10" y1="85" x2="778.0" y2="85" style="stroke-width:1; stroke:grey; "  />
</g>
<g id="a1_000"  >
<polygon points="0,90 12,90 17,85 12,80 0,80 0,90 " style="fill:white; stroke-width:1; stroke:black; " description="&lt;b&gt;BM385_RS22115&lt;/b&gt;&lt;br&gt;sugar ABC transporter substrate-binding protein&lt;br&gt;Location: 76553 - 75168" locus_tag="BM385_RS22115" class="clusterblast-orf" id="dummy-1_h1_2_0"  />
</g>
<g id="a1_001"  >
<polygon points="17,90 24,90 29,85 24,80 17,80 17,90 " style="fill:white; stroke-width:1; stroke:black; " description="&lt;b&gt;BM385_RS22110&lt;/b&gt;&lt;br&gt;sugar ABC transporter permease&lt;br&gt;Location: 75171 - 74209" locus_tag="BM385_RS22110" class="clusterblast-orf" id="dummy-1_h1_2_1"  />
</g>
<g id="a1_002"  >
<polygon points="29,90 35,90 40,85 35,80 29,80 29,90 " style="fill:white; stroke-width:1; stroke:black; " description="&lt;b&gt;BM385_RS22105&lt;/b&gt;&lt;br&gt;carbohydrate ABC transporter permease&lt;br&gt;Location: 74212 - 73352" locus_tag="BM385_RS22105" class="clusterblast-orf" id="dummy-1_h1_2_2"  />
</g>
<g id="a1_003"  >
<polygon points="40,90 61,90 66,85 61,80 40,80 40,90 " style="fill:white; stroke-width:1; stroke:black; " description="&lt;b&gt;BM385_RS22100&lt;/b&gt;&lt;br&gt;DUF2264 domain-containing protein&lt;br&gt;Location: 73355 - 71322" locus_tag="BM385_RS22100" class="clusterblast-orf" id="dummy-1_h1_2_3"  />
</g>
<g id="a1_004"  >
<polygon points="68,90 73,90 78,85 73,80 68,80 68,90 " style="fill:white; stroke-width:1; stroke:black; " description="&lt;b&gt;BM385_RS22095&lt;/b&gt;&lt;br&gt;hypothetical protein&lt;br&gt;Location: 71195 - 70425" locus_tag="BM385_RS22095" class="clusterblast-orf" id="dummy-1_h1_2_4"  />
</g>
<g id="a1_005"  >
<polygon points="80,90 99,90 104,85 99,80 80,80 80,90 " style="fill:white; stroke-width:1; stroke:black; " description="&lt;b&gt;BM385_RS22090&lt;/b&gt;&lt;br&gt;peroxidase&lt;br&gt;Location: 70294 - 68390" locus_tag="BM385_RS22090" class="clusterblast-orf" id="dummy-1_h1_2_5"  />
</g>
<g id="a1_006"  >
<polygon points="105,85 110,80 132,80 132,90 110,90 105,85 " style="fill:white; stroke-width:1; stroke:black; " description="&lt;b&gt;BM385_RS22085&lt;/b&gt;&lt;br&gt;amylo-alpha-1,6-glucosidase&lt;br&gt;Location: 68329 - 66230" locus_tag="BM385_RS22085" class="clusterblast-orf" id="dummy-1_h1_2_6"  />
</g>
<g id="a1_007"  >
<polygon points="133,90 142,90 147,85 142,80 133,80 133,90 " style="fill:white; stroke-width:1; stroke:black; " description="&lt;b&gt;BM385_RS22080&lt;/b&gt;&lt;br&gt;LacI family transcriptional regulator&lt;br&gt;Location: 66107 - 65046" locus_tag="BM385_RS22080" class="clusterblast-orf" id="dummy-1_h1_2_7"  />
</g>
<g id="a1_008"  >
<polygon points="148,90 158,90 163,85 158,80 148,80 148,90 " style="fill:white; stroke-width:1; stroke:black; " description="&lt;b&gt;BM385_RS22075&lt;/b&gt;&lt;br&gt;ABC transporter substrate-binding protein&lt;br&gt;Location: 64978 - 63731" locus_tag="BM385_RS22075" class="clusterblast-orf" id="dummy-1_h1_2_8"  />
</g>
<g id="a1_009"  >
<polygon points="163,90 172,90 177,85 172,80 163,80 163,90 " style="fill:white; stroke-width:1; stroke:black; " description="&lt;b&gt;BM385_RS22070&lt;/b&gt;&lt;br&gt;sugar ABC transporter permease&lt;br&gt;Location: 63731 - 62682" locus_tag="BM385_RS22070" class="clusterblast-orf" id="dummy-1_h1_2_9"  />
</g>
<g id="a1_0010"  >
<polygon points="178,90 184,90 189,85 184,80 178,80 178,90 " style="fill:white; stroke-width:1; stroke:black; " description="&lt;b&gt;BM385_RS22065&lt;/b&gt;&lt;br&gt;carbohydrate ABC transporter permease&lt;br&gt;Location: 62571 - 61732" locus_tag="BM385_RS22065" class="clusterblast-orf" id="dummy-1_h1_2_10"  />
</g>
<g id="a1_0011"  >
<polygon points="189,85 194,80 201,80 201,90 194,90 189,85 " style="fill:#d81515; stroke-width:1; stroke:black; " description="&lt;b&gt;BM385_RS22060&lt;/b&gt;&lt;br&gt;DNA ligase&lt;br&gt;Location: 61742 - 60780&lt;br&gt;&lt;br&gt;&lt;b&gt;BlastP hit with ctg77_1&lt;/b&gt;&lt;br&gt;Percentage identity: 100&lt;br&gt;Percentage coverage: 100&lt;br&gt;BLAST bit score: 439&lt;br&gt;E-value: 2.5e-121" locus_tag="BM385_RS22060" class="clusterblast-orf" id="dummy-1_h1_2_11"  />
</g>
<g id="a1_0012"  >
<polygon points="202,90 206,85 202,80 202,90 " style="fill:#33d815; stroke-width:1; stroke:black; " description="&lt;b&gt;BM385_RS22055&lt;/b&gt;&lt;br&gt;DUF2087 domain-containing protein&lt;br&gt;Location: 60703 - 60428&lt;br&gt;&lt;br&gt;&lt;b&gt;BlastP hit with ctg77_2&lt;/b&gt;&lt;br&gt;Percentage identity: 100&lt;br&gt;Percentage coverage: 100&lt;br&gt;BLAST bit score: 185&lt;br&gt;E-value: 2.8e-45" locus_tag="BM385_RS22055" class="clusterblast-orf" id="dummy-1_h1_2_12"  />
</g>
<g id="a1_0013"  >
<polygon points="207,85 212,80 225,80 225,90 212,90 207,85 " style="fill:#15abd8; stroke-width:1; stroke:black; " description="&lt;b&gt;BM385_RS22050&lt;/b&gt;&lt;br&gt;NADP-dependent phosphogluconate dehydrogenase&lt;br&gt;Location: 60358 - 58922&lt;br&gt;&lt;br&gt;&lt;b&gt;BlastP hit with ctg77_3&lt;/b&gt;&lt;br&gt;Percentage identity: 100&lt;br&gt;Percentage coverage: 100&lt;br&gt;BLAST bit score: 954&lt;br&gt;E-value: 5.3e-276" locus_tag="BM385_RS22050" class="clusterblast-orf" id="dummy-1_h1_2_13"  />
</g>
<g id="a1_0014"  >
<polygon points="227,90 238,90 243,85 238,80 227,80 227,90 " style="fill:#8d15d8; stroke-width:1; stroke:black; " description="&lt;b&gt;BM385_RS22045&lt;/b&gt;&lt;br&gt;DUF4032 domain-containing protein&lt;br&gt;Location: 58791 - 57547&lt;br&gt;&lt;br&gt;&lt;b&gt;BlastP hit with ctg77_4&lt;/b&gt;&lt;br&gt;Percentage identity: 100&lt;br&gt;Percentage coverage: 100&lt;br&gt;BLAST bit score: 834&lt;br&gt;E-value: 6.9e-240" locus_tag="BM385_RS22045" class="clusterblast-orf" id="dummy-1_h1_2_14"  />
</g>
<g id="a1_0015"  >
<polygon points="243,85 248,80 292,80 292,90 248,90 243,85 " style="fill:#d86f15; stroke-width:1; stroke:black; " description="&lt;b&gt;BM385_RS22040&lt;/b&gt;&lt;br&gt;amino acid adenylation domain-containing protein&lt;br&gt;Location: 57480 - 53650&lt;br&gt;&lt;br&gt;&lt;b&gt;BlastP hit with ctg77_5&lt;/b&gt;&lt;br&gt;Percentage identity: 99&lt;br&gt;Percentage coverage: 97&lt;br&gt;BLAST bit score: 2357&lt;br&gt;E-value: 0.0" locus_tag="BM385_RS22040" class="clusterblast-orf" id="dummy-1_h1_2_15"  />
</g>
<g id="a1_0016"  >
<polygon points="300,85 304,80 304,90 300,85 " style="fill:#15d851; stroke-width:1; stroke:black; " description="&lt;b&gt;BM385_RS22035&lt;/b&gt;&lt;br&gt;transcriptional regulator&lt;br&gt;Location: 53037 - 52756&lt;br&gt;&lt;br&gt;&lt;b&gt;BlastP hit with ctg77_6&lt;/b&gt;&lt;br&gt;Percentage identity: 98&lt;br&gt;Percentage coverage: 100&lt;br&gt;BLAST bit score: 191&lt;br&gt;E-value: 4e-47" locus_tag="BM385_RS22035" class="clusterblast-orf" id="dummy-1_h1_2_16"  />
</g>
<g id="a1_0017"  >
<polygon points="311,90 317,90 322,85 317,80 311,80 311,90 " style="fill:#1551d8; stroke-width:1; stroke:black; " description="&lt;b&gt;BM385_RS22030&lt;/b&gt;&lt;br&gt;NAD(P)-dependent oxidoreductase&lt;br&gt;Location: 52162 - 51320&lt;br&gt;&lt;br&gt;&lt;b&gt;BlastP hit with ctg77_7&lt;/b&gt;&lt;br&gt;Percentage identity: 98&lt;br&gt;Percentage coverage: 95&lt;br&gt;BLAST bit score: 533&lt;br&gt;E-value: 1.4e-149" locus_tag="BM385_RS22030" class="clusterblast-orf" id="dummy-1_h1_2_17"  />
</g>
<g id="a1_0018"  >
<polygon points="323,85 328,80 341,80 341,90 328,90 323,85 " style="fill:#d815c9; stroke-width:1; stroke:black; " description="&lt;b&gt;BM385_RS22025&lt;/b&gt;&lt;br&gt;XRE family transcriptional regulator&lt;br&gt;Location: 51283 - 49856&lt;br&gt;&lt;br&gt;&lt;b&gt;BlastP hit with ctg77_8&lt;/b&gt;&lt;br&gt;Percentage identity: 99&lt;br&gt;Percentage coverage: 100&lt;br&gt;BLAST bit score: 935&lt;br&gt;E-value: 2.5e-270" locus_tag="BM385_RS22025" class="clusterblast-orf" id="dummy-1_h1_2_18"  />
</g>
<g id="a1_0019"  >
<polygon points="345,90 357,90 362,85 357,80 345,80 345,90 " style="fill:#d8c915; stroke-width:1; stroke:black; " description="&lt;b&gt;BM385_RS22020&lt;/b&gt;&lt;br&gt;isocitrate lyase&lt;br&gt;Location: 49532 - 48234&lt;br&gt;&lt;br&gt;&lt;b&gt;BlastP hit with ctg77_9&lt;/b&gt;&lt;br&gt;Percentage identity: 100&lt;br&gt;Percentage coverage: 100&lt;br&gt;BLAST bit score: 860&lt;br&gt;E-value: 9.3e-248" locus_tag="BM385_RS22020" class="clusterblast-orf" id="dummy-1_h1_2_19"  />
</g>
<g id="a1_0020"  >
<polygon points="362,85 367,80 391,80 391,90 367,90 362,85 " style="fill:#15d8ab; stroke-width:1; stroke:black; " description="&lt;b&gt;BM385_RS22015&lt;/b&gt;&lt;br&gt;germacradienol/geosmin synthase&lt;br&gt;Location: 48176 - 45921&lt;br&gt;&lt;br&gt;&lt;b&gt;BlastP hit with ctg77_10&lt;/b&gt;&lt;br&gt;Percentage identity: 100&lt;br&gt;Percentage coverage: 100&lt;br&gt;BLAST bit score: 1543&lt;br&gt;E-value: 0.0" locus_tag="BM385_RS22015" class="clusterblast-orf" id="dummy-1_h1_2_20"  />
</g>
<g id="a1_0021"  >
<polygon points="393,85 398,80 404,80 404,90 398,90 393,85 " style="fill:#3315d8; stroke-width:1; stroke:black; " description="&lt;b&gt;BM385_RS22010&lt;/b&gt;&lt;br&gt;ABC transporter ATP-binding protein&lt;br&gt;Location: 45785 - 44958&lt;br&gt;&lt;br&gt;&lt;b&gt;BlastP hit with ctg77_11&lt;/b&gt;&lt;br&gt;Percentage identity: 98&lt;br&gt;Percentage coverage: 100&lt;br&gt;BLAST bit score: 540&lt;br&gt;E-value: 1.4e-151" locus_tag="BM385_RS22010" class="clusterblast-orf" id="dummy-1_h1_2_21"  />
</g>
<g id="a1_0022"  >
<polygon points="403,85 408,80 417,80 417,90 408,90 403,85 " style="fill:#d8156f; stroke-width:1; stroke:black; " description="&lt;b&gt;BM385_RS22005&lt;/b&gt;&lt;br&gt;hypothetical protein&lt;br&gt;Location: 44961 - 43870&lt;br&gt;&lt;br&gt;&lt;b&gt;BlastP hit with ctg77_12&lt;/b&gt;&lt;br&gt;Percentage identity: 100&lt;br&gt;Percentage coverage: 100&lt;br&gt;BLAST bit score: 581&lt;br&gt;E-value: 9.2e-164" locus_tag="BM385_RS22005" class="clusterblast-orf" id="dummy-1_h1_2_22"  />
</g>
<g id="a1_0023"  >
<polygon points="417,85 422,80 431,80 431,90 422,90 417,85 " style="fill:#d8156f; stroke-width:1; stroke:black; " description="&lt;b&gt;BM385_RS22000&lt;/b&gt;&lt;br&gt;iron ABC transporter permease&lt;br&gt;Location: 43873 - 42833&lt;br&gt;&lt;br&gt;&lt;b&gt;BlastP hit with ctg77_13&lt;/b&gt;&lt;br&gt;Percentage identity: 99&lt;br&gt;Percentage coverage: 100&lt;br&gt;BLAST bit score: 490&lt;br&gt;E-value: 1.6e-136" locus_tag="BM385_RS22000" class="clusterblast-orf" id="dummy-1_h1_2_23"  />
</g>
<g id="a1_0024"  >
<polygon points="431,85 436,80 444,80 444,90 436,90 431,85 " style="fill:#8dd815; stroke-width:1; stroke:black; " description="&lt;b&gt;BM385_RS21995&lt;/b&gt;&lt;br&gt;iron-siderophore ABC transporter substrate-binding protein&lt;br&gt;Location: 42812 - 41757&lt;br&gt;&lt;br&gt;&lt;b&gt;BlastP hit with ctg77_14&lt;/b&gt;&lt;br&gt;Percentage identity: 99&lt;br&gt;Percentage coverage: 100&lt;br&gt;BLAST bit score: 619&lt;br&gt;E-value: 2.3e-175" locus_tag="BM385_RS21995" class="clusterblast-orf" id="dummy-1_h1_2_24"  />
</g>
<g id="a1_0025"  >
<polygon points="448,90 457,90 462,85 457,80 448,80 448,90 " style="fill:white; stroke-width:1; stroke:black; " description="&lt;b&gt;BM385_RS21990&lt;/b&gt;&lt;br&gt;4-hydroxyphenylpyruvate dioxygenase&lt;br&gt;Location: 41473 - 40358" locus_tag="BM385_RS21990" class="clusterblast-orf" id="dummy-1_h1_2_25"  />
</g>
<g id="a1_0026"  >
<polygon points="462,90 474,90 479,85 474,80 462,80 462,90 " style="fill:white; stroke-width:1; stroke:black; " description="&lt;b&gt;BM385_RS21985&lt;/b&gt;&lt;br&gt;acyltransferase&lt;br&gt;Location: 40361 - 39093" locus_tag="BM385_RS21985" class="clusterblast-orf" id="dummy-1_h1_2_26"  />
</g>
<g id="a1_0027"  >
<polygon points="477,90 485,90 490,85 485,80 477,80 477,90 " style="fill:white; stroke-width:1; stroke:black; " description="&lt;b&gt;BM385_RS21980&lt;/b&gt;&lt;br&gt;prenyltransferase&lt;br&gt;Location: 39223 - 38159" locus_tag="BM385_RS21980" class="clusterblast-orf" id="dummy-1_h1_2_27"  />
</g>
<g id="a1_0028"  >
<polygon points="489,90 499,90 504,85 499,80 489,80 489,90 " style="fill:white; stroke-width:1; stroke:black; " description="&lt;b&gt;BM385_RS21975&lt;/b&gt;&lt;br&gt;polyprenyl synthetase family protein&lt;br&gt;Location: 38267 - 37116" locus_tag="BM385_RS21975" class="clusterblast-orf" id="dummy-1_h1_2_28"  />
</g>
<g id="a1_0029"  >
<polygon points="504,90 521,90 526,85 521,80 504,80 504,90 " style="fill:white; stroke-width:1; stroke:black; " description="&lt;b&gt;BM385_RS21970&lt;/b&gt;&lt;br&gt;hypothetical protein&lt;br&gt;Location: 37098 - 35410" locus_tag="BM385_RS21970" class="clusterblast-orf" id="dummy-1_h1_2_29"  />
</g>
<g id="a1_0030"  >
<polygon points="526,90 537,90 542,85 537,80 526,80 526,90 " style="fill:white; stroke-width:1; stroke:black; " description="&lt;b&gt;BM385_RS21965&lt;/b&gt;&lt;br&gt;FAD-dependent monooxygenase&lt;br&gt;Location: 35413 - 34160" locus_tag="BM385_RS21965" class="clusterblast-orf" id="dummy-1_h1_2_30"  />
</g>
<g id="a1_0031"  >
<polygon points="544,90 548,85 544,80 544,90 " style="fill:white; stroke-width:1; stroke:black; " description="&lt;b&gt;BM385_RS21960&lt;/b&gt;&lt;br&gt;hypothetical protein&lt;br&gt;Location: 33996 - 33694" locus_tag="BM385_RS21960" class="clusterblast-orf" id="dummy-1_h1_2_31"  />
</g>
<g id="a1_0032"  >
<polygon points="549,85 554,80 560,80 560,90 554,90 549,85 " style="fill:white; stroke-width:1; stroke:black; " description="&lt;b&gt;BM385_RS21955&lt;/b&gt;&lt;br&gt;siderophore-interacting protein&lt;br&gt;Location: 33565 - 32726" locus_tag="BM385_RS21955" class="clusterblast-orf" id="dummy-1_h1_2_32"  />
</g>
<g id="a1_0033"  >
<polygon points="560,85 565,80 572,80 572,90 565,90 560,85 " style="fill:white; stroke-width:1; stroke:black; " description="&lt;b&gt;BM385_RS21950&lt;/b&gt;&lt;br&gt;hypothetical protein&lt;br&gt;Location: 32708 - 31812" locus_tag="BM385_RS21950" class="clusterblast-orf" id="dummy-1_h1_2_33"  />
</g>
<g id="a1_0034"  >
<polygon points="576,90 581,90 586,85 581,80 576,80 576,90 " style="fill:white; stroke-width:1; stroke:black; " description="&lt;b&gt;BM385_RS21945&lt;/b&gt;&lt;br&gt;hypothetical protein&lt;br&gt;Location: 31465 - 30698" locus_tag="BM385_RS21945" class="clusterblast-orf" id="dummy-1_h1_2_34"  />
</g>
<g id="a1_0035"  >
<polygon points="587,85 592,80 599,80 599,90 592,90 587,85 " style="fill:white; stroke-width:1; stroke:black; " description="&lt;b&gt;BM385_RS21940&lt;/b&gt;&lt;br&gt;MBL fold metallo-hydrolase&lt;br&gt;Location: 30595 - 29654" locus_tag="BM385_RS21940" class="clusterblast-orf" id="dummy-1_h1_2_35"  />
</g>
<g id="a1_0036"  >
<polygon points="604,85 609,80 614,80 614,90 609,90 604,85 " style="fill:white; stroke-width:1; stroke:black; " description="&lt;b&gt;BM385_RS21935&lt;/b&gt;&lt;br&gt;hypothetical protein&lt;br&gt;Location: 29243 - 28497" locus_tag="BM385_RS21935" class="clusterblast-orf" id="dummy-1_h1_2_36"  />
</g>
<g id="a1_0037"  >
<polygon points="614,85 619,80 621,80 621,90 619,90 614,85 " style="fill:white; stroke-width:1; stroke:black; " description="&lt;b&gt;BM385_RS21930&lt;/b&gt;&lt;br&gt;SigE family RNA polymerase sigma factor&lt;br&gt;Location: 28531 - 27962" locus_tag="BM385_RS21930" class="clusterblast-orf" id="dummy-1_h1_2_37"  />
</g>
<g id="a1_0038"  >
<polygon points="621,85 626,80 628,80 628,90 626,90 621,85 " style="fill:white; stroke-width:1; stroke:black; " description="&lt;b&gt;BM385_RS21925&lt;/b&gt;&lt;br&gt;hypothetical protein&lt;br&gt;Location: 27941 - 27396" locus_tag="BM385_RS21925" class="clusterblast-orf" id="dummy-1_h1_2_38"  />
</g>
<g id="a1_0039"  >
<polygon points="633,90 637,85 633,80 633,90 " style="fill:white; stroke-width:1; stroke:black; " description="&lt;b&gt;BM385_RS21920&lt;/b&gt;&lt;br&gt;hypothetical protein&lt;br&gt;Location: 27029 - 26703" locus_tag="BM385_RS21920" class="clusterblast-orf" id="dummy-1_h1_2_39"  />
</g>
<g id="a1_0040"  >
<polygon points="638,90 639,90 644,85 639,80 638,80 638,90 " style="fill:white; stroke-width:1; stroke:black; " description="&lt;b&gt;BM385_RS21915&lt;/b&gt;&lt;br&gt;hypothetical protein&lt;br&gt;Location: 26638 - 26126" locus_tag="BM385_RS21915" class="clusterblast-orf" id="dummy-1_h1_2_40"  />
</g>
<g id="a1_0041"  >
<polygon points="651,85 656,80 656,80 656,90 656,90 651,85 " style="fill:white; stroke-width:1; stroke:black; " description="&lt;b&gt;BM385_RS21910&lt;/b&gt;&lt;br&gt;CBS domain-containing protein&lt;br&gt;Location: 25631 - 25215" locus_tag="BM385_RS21910" class="clusterblast-orf" id="dummy-1_h1_2_41"  />
</g>
<g id="a1_0042"  >
<polygon points="659,85 663,80 663,90 659,85 " style="fill:white; stroke-width:1; stroke:black; " description="&lt;b&gt;BM385_RS21905&lt;/b&gt;&lt;br&gt;hypothetical protein&lt;br&gt;Location: 25006 - 24656" locus_tag="BM385_RS21905" class="clusterblast-orf" id="dummy-1_h1_2_42"  />
</g>
<g id="a1_0043"  >
<polygon points="672,90 687,90 692,85 687,80 672,80 672,90 " style="fill:white; stroke-width:1; stroke:black; " description="&lt;b&gt;BM385_RS21900&lt;/b&gt;&lt;br&gt;XRE family transcriptional regulator&lt;br&gt;Location: 23933 - 22392" locus_tag="BM385_RS21900" class="clusterblast-orf" id="dummy-1_h1_2_43"  />
</g>
<g id="a1_0044"  >
<polygon points="692,90 695,90 700,85 695,80 692,80 692,90 " style="fill:white; stroke-width:1; stroke:black; " description="&lt;b&gt;BM385_RS21895&lt;/b&gt;&lt;br&gt;hypothetical protein&lt;br&gt;Location: 22392 - 21796" locus_tag="BM385_RS21895" class="clusterblast-orf" id="dummy-1_h1_2_44"  />
</g>
<g id="a1_0045"  >
<polygon points="702,90 708,90 713,85 708,80 702,80 702,90 " style="fill:white; stroke-width:1; stroke:black; " description="&lt;b&gt;BM385_RS21890&lt;/b&gt;&lt;br&gt;alpha/beta hydrolase&lt;br&gt;Location: 21596 - 20745" locus_tag="BM385_RS21890" class="clusterblast-orf" id="dummy-1_h1_2_45"  />
</g>
<g id="a1_0046"  >
<polygon points="713,90 715,90 720,85 715,80 713,80 713,90 " style="fill:white; stroke-width:1; stroke:black; " description="&lt;b&gt;BM385_RS21885&lt;/b&gt;&lt;br&gt;TetR/AcrR family transcriptional regulator&lt;br&gt;Location: 20722 - 20189" locus_tag="BM385_RS21885" class="clusterblast-orf" id="dummy-1_h1_2_46"  />
</g>
<g id="a1_0047"  >
<polygon points="722,85 727,80 741,80 741,90 727,90 722,85 " style="fill:white; stroke-width:1; stroke:black; " description="&lt;b&gt;BM385_RS21880&lt;/b&gt;&lt;br&gt;monooxygenase&lt;br&gt;Location: 20015 - 18543" locus_tag="BM385_RS21880" class="clusterblast-orf" id="dummy-1_h1_2_47"  />
</g>
<g id="a1_0048"  >
<polygon points="742,90 745,90 750,85 745,80 742,80 742,90 " style="fill:white; stroke-width:1; stroke:black; " description="&lt;b&gt;BM385_RS21875&lt;/b&gt;&lt;br&gt;TetR family transcriptional regulator&lt;br&gt;Location: 18479 - 17853" locus_tag="BM385_RS21875" class="clusterblast-orf" id="dummy-1_h1_2_48"  />
</g>
<g id="a1_0049"  >
<polygon points="752,90 755,90 760,85 755,80 752,80 752,90 " style="fill:white; stroke-width:1; stroke:black; " description="&lt;b&gt;BM385_RS21870&lt;/b&gt;&lt;br&gt;HEAT repeat domain-containing protein&lt;br&gt;Location: 17736 - 17065" locus_tag="BM385_RS21870" class="clusterblast-orf" id="dummy-1_h1_2_49"  />
</g>
<g id="a1_0050"  >
<polygon points="760,90 768,90 773,85 768,80 760,80 760,90 " style="fill:white; stroke-width:1; stroke:black; " description="&lt;b&gt;BM385_RS21865&lt;/b&gt;&lt;br&gt;MerR family DNA-binding transcriptional regulator&lt;br&gt;Location: 17061 - 16057" locus_tag="BM385_RS21865" class="clusterblast-orf" id="dummy-1_h1_2_50"  />
</g>
<g id="a1_0051"  >
<polygon points="774,85 779,80 780,80 780,90 779,90 774,85 " style="fill:white; stroke-width:1; stroke:black; " description="&lt;b&gt;BM385_RS21860&lt;/b&gt;&lt;br&gt;hypothetical protein&lt;br&gt;Location: 16006 - 15557" locus_tag="BM385_RS21860" class="clusterblast-orf" id="dummy-1_h1_2_51"  />
</g>
</svg>
