<svg xmlns="http://www.w3.org/2000/svg" xmlns:xlink="http://www.w3.org/1999/xlink" version="1.1" x="0" y="0" height="230" width="800" viewBox="0 0 800 230" preserveAspectRatio="none"  >
<g label="Query sequence" class="clusterblast-cluster"  >
<text x="5" y="20" class="clusterblast-acc"  >
Query sequence</text>
<line x1="10" y1="35" x2="778.0" y2="35" style="stroke-width:1; stroke:grey; "  />
<polygon points="32,40 54,40 59,35 54,30 32,30 32,40 " style="fill:#d81515; stroke-width:1; stroke:black; " description="&lt;b&gt;ctg39_1&lt;/b&gt;&lt;br&gt;ctg39 1&lt;br&gt;Location: 2 - 641" locus_tag="ctg39_1" class="clusterblast-orf" id="dummy-1_q0_0_all"  />
<polygon points="60,40 64,40 69,35 64,30 60,30 60,40 " style="fill:#77d815; stroke-width:1; stroke:black; " description="&lt;b&gt;ctg39_2&lt;/b&gt;&lt;br&gt;ctg39 2&lt;br&gt;Location: 664 - 877" locus_tag="ctg39_2" class="clusterblast-orf" id="dummy-1_q1_0_all"  />
<polygon points="70,35 75,30 105,30 105,40 75,40 70,35 " style="fill:#15d8d8; stroke-width:1; stroke:black; " description="&lt;b&gt;ctg39_3&lt;/b&gt;&lt;br&gt;ctg39 3&lt;br&gt;Location: 917 - 1754" locus_tag="ctg39_3" class="clusterblast-orf" id="dummy-1_q2_0_all"  />
<polygon points="105,35 110,30 147,30 147,40 110,40 105,35 " style="fill:#7715d8; stroke-width:1; stroke:black; " description="&lt;b&gt;ctg39_4&lt;/b&gt;&lt;br&gt;ctg39 4&lt;br&gt;Location: 1750 - 2785" locus_tag="ctg39_4" class="clusterblast-orf" id="dummy-1_q3_0_all"  />
<polygon points="149,35 154,30 185,30 185,40 154,40 149,35 " style="fill:#d85e15; stroke-width:1; stroke:black; " description="&lt;b&gt;ctg39_5&lt;/b&gt;&lt;br&gt;ctg39 5&lt;br&gt;Location: 2836 - 3700" locus_tag="ctg39_5" class="clusterblast-orf" id="dummy-1_q4_0_all"  />
<polygon points="195,40 231,40 236,35 231,30 195,30 195,40 " style="fill:#2ed815; stroke-width:1; stroke:black; " description="&lt;b&gt;ctg39_6&lt;/b&gt;&lt;br&gt;ctg39 6&lt;br&gt;Location: 3933 - 4938" locus_tag="ctg39_6" class="clusterblast-orf" id="dummy-1_q5_0_all"  />
<polygon points="243,40 275,40 280,35 275,30 243,30 243,40 " style="fill:#158fd8; stroke-width:1; stroke:black; " description="&lt;b&gt;ctg39_7&lt;/b&gt;&lt;br&gt;ctg39 7&lt;br&gt;Location: 5099 - 5999" locus_tag="ctg39_7" class="clusterblast-orf" id="dummy-1_q6_0_all"  />
<polygon points="282,40 302,40 307,35 302,30 282,30 282,40 " style="fill:#c015d8; stroke-width:1; stroke:black; " description="&lt;b&gt;ctg39_8&lt;/b&gt;&lt;br&gt;ctg39 8&lt;br&gt;Location: 6054 - 6639" locus_tag="ctg39_8" class="clusterblast-orf" id="dummy-1_q7_0_all"  />
<polygon points="309,35 313,30 313,40 309,35 " style="fill:white; stroke-width:1; stroke:black; " description="&lt;b&gt;ctg39_9&lt;/b&gt;&lt;br&gt;ctg39 9&lt;br&gt;Location: 6695 - 6806" locus_tag="ctg39_9" class="clusterblast-orf" id="dummy-1_q8_0_all"  />
<polygon points="314,40 354,40 359,35 354,30 314,30 314,40 " style="fill:#d8a715; stroke-width:1; stroke:black; " description="&lt;b&gt;ctg39_10&lt;/b&gt;&lt;br&gt;ctg39 10&lt;br&gt;Location: 6815 - 7913" locus_tag="ctg39_10" class="clusterblast-orf" id="dummy-1_q9_0_all"  />
<polygon points="357,35 362,30 422,30 422,40 362,40 357,35 " style="fill:#15d846; stroke-width:1; stroke:black; " description="&lt;b&gt;ctg39_11&lt;/b&gt;&lt;br&gt;ctg39 11&lt;br&gt;Location: 7866 - 9432" locus_tag="ctg39_11" class="clusterblast-orf" id="dummy-1_q10_0_all"  />
<polygon points="422,35 427,30 448,30 448,40 427,40 422,35 " style="fill:#1546d8; stroke-width:1; stroke:black; " description="&lt;b&gt;ctg39_12&lt;/b&gt;&lt;br&gt;ctg39 12&lt;br&gt;Location: 9428 - 10058" locus_tag="ctg39_12" class="clusterblast-orf" id="dummy-1_q11_0_all"  />
<polygon points="447,35 452,30 464,30 464,40 452,40 447,35 " style="fill:#d815a7; stroke-width:1; stroke:black; " description="&lt;b&gt;ctg39_13&lt;/b&gt;&lt;br&gt;ctg39 13&lt;br&gt;Location: 10038 - 10437" locus_tag="ctg39_13" class="clusterblast-orf" id="dummy-1_q12_0_all"  />
<polygon points="463,35 468,30 480,30 480,40 468,40 463,35 " style="fill:#c0d815; stroke-width:1; stroke:black; " description="&lt;b&gt;ctg39_14&lt;/b&gt;&lt;br&gt;ctg39 14&lt;br&gt;Location: 10433 - 10844" locus_tag="ctg39_14" class="clusterblast-orf" id="dummy-1_q13_0_all"  />
<polygon points="481,35 486,30 542,30 542,40 486,40 481,35 " style="fill:#15d88f; stroke-width:1; stroke:black; " description="&lt;b&gt;ctg39_15&lt;/b&gt;&lt;br&gt;ctg39 15&lt;br&gt;Location: 10868 - 12326" locus_tag="ctg39_15" class="clusterblast-orf" id="dummy-1_q14_0_all"  />
<polygon points="549,35 554,30 557,30 557,40 554,40 549,35 " style="fill:white; stroke-width:1; stroke:black; " description="&lt;b&gt;ctg39_16&lt;/b&gt;&lt;br&gt;ctg39 16&lt;br&gt;Location: 12510 - 12690" locus_tag="ctg39_16" class="clusterblast-orf" id="dummy-1_q15_0_all"  />
<polygon points="567,40 617,40 622,35 617,30 567,30 567,40 " style="fill:#2e15d8; stroke-width:1; stroke:black; " description="&lt;b&gt;ctg39_17&lt;/b&gt;&lt;br&gt;ctg39 17&lt;br&gt;Location: 12934 - 14275" locus_tag="ctg39_17" class="clusterblast-orf" id="dummy-1_q16_0_all"  />
<polygon points="622,40 742,40 747,35 742,30 622,30 622,40 " style="fill:#d8155e; stroke-width:1; stroke:black; " description="&lt;b&gt;ctg39_18&lt;/b&gt;&lt;br&gt;ctg39 18&lt;br&gt;Location: 14271 - 17310" locus_tag="ctg39_18" class="clusterblast-orf" id="dummy-1_q17_0_all"  />
</g>
<g label="NZ_BCMN01000007" description="NZ_BCMN01000007_c11: Streptomyces turgidiscabies strain T45, whole genome sho... (35% of genes show similarity), terpene" class="clusterblast-cluster"  >
<text x="5" y="70" class="clusterblast-acc"  >
<a xlink:href="https://antismash-db.secondarymetabolites.org/go/NZ_BCMN01000007/11" target="_blank">NZ_BCMN01000007_c11</a>: Streptomyces turgidiscabies strain T45, whole genome sho... (35% of genes show similarity), terpene</text>
<line x1="10" y1="85" x2="778.0" y2="85" style="stroke-width:1; stroke:grey; "  />
</g>
<g id="a1_000"  >
<polygon points="0,85 5,80 30,80 30,90 5,90 0,85 " style="fill:white; stroke-width:1; stroke:black; " description="&lt;b&gt;AV140_RS16300&lt;/b&gt;&lt;br&gt;cobalamin-binding protein&lt;br&gt;Location: 81234 - 81977" locus_tag="AV140_RS16300" class="clusterblast-orf" id="dummy-1_h1_10_0"  />
</g>
<g id="a1_001"  >
<polygon points="34,85 39,80 57,80 57,90 39,90 34,85 " style="fill:white; stroke-width:1; stroke:black; " description="&lt;b&gt;AV140_RS16305&lt;/b&gt;&lt;br&gt;helix-turn-helix domain-containing protein&lt;br&gt;Location: 82066 - 82635" locus_tag="AV140_RS16305" class="clusterblast-orf" id="dummy-1_h1_10_1"  />
</g>
<g id="a1_002"  >
<polygon points="77,85 82,80 153,80 153,90 82,90 77,85 " style="fill:white; stroke-width:1; stroke:black; " description="&lt;b&gt;AV140_RS16310&lt;/b&gt;&lt;br&gt;ABC transporter substrate-binding protein&lt;br&gt;Location: 83106 - 84944" locus_tag="AV140_RS16310" class="clusterblast-orf" id="dummy-1_h1_10_2"  />
</g>
<g id="a1_003"  >
<polygon points="153,85 158,80 198,80 198,90 158,90 153,85 " style="fill:white; stroke-width:1; stroke:black; " description="&lt;b&gt;AV140_RS16315&lt;/b&gt;&lt;br&gt;glycine/betaine ABC transporter ATP-binding protein&lt;br&gt;Location: 84937 - 86031" locus_tag="AV140_RS16315" class="clusterblast-orf" id="dummy-1_h1_10_3"  />
</g>
<g id="a1_004"  >
<polygon points="207,90 241,90 246,85 241,80 207,80 207,90 " style="fill:white; stroke-width:1; stroke:black; " description="&lt;b&gt;AV140_RS16320&lt;/b&gt;&lt;br&gt;5'-3' exonuclease&lt;br&gt;Location: 86259 - 87203" locus_tag="AV140_RS16320" class="clusterblast-orf" id="dummy-1_h1_10_4"  />
</g>
<g id="a1_005"  >
<polygon points="254,90 284,90 289,85 284,80 254,80 254,90 " style="fill:white; stroke-width:1; stroke:black; " description="&lt;b&gt;AV140_RS16325&lt;/b&gt;&lt;br&gt;siderophore-interacting protein&lt;br&gt;Location: 87403 - 88251" locus_tag="AV140_RS16325" class="clusterblast-orf" id="dummy-1_h1_10_5"  />
</g>
<g id="a1_006"  >
<polygon points="305,90 363,90 368,85 363,80 305,80 305,90 " style="fill:white; stroke-width:1; stroke:black; " description="&lt;b&gt;AV140_RS16330&lt;/b&gt;&lt;br&gt;amino acid permease&lt;br&gt;Location: 88625 - 90157" locus_tag="AV140_RS16330" class="clusterblast-orf" id="dummy-1_h1_10_6"  />
</g>
<g id="a1_007"  >
<polygon points="393,90 425,90 430,85 425,80 393,80 393,90 " style="fill:#d8a715; stroke-width:1; stroke:black; " description="&lt;b&gt;AV140_RS16335&lt;/b&gt;&lt;br&gt;terpene synthase&lt;br&gt;Location: 90754 - 91647&lt;br&gt;&lt;br&gt;&lt;b&gt;BlastP hit with ctg39_10&lt;/b&gt;&lt;br&gt;Percentage identity: 32&lt;br&gt;Percentage coverage: 45&lt;br&gt;BLAST bit score: 78&lt;br&gt;E-value: 1.9e-12" locus_tag="AV140_RS16335" class="clusterblast-orf" id="dummy-1_h1_10_7"  />
</g>
<g id="a1_008"  >
<polygon points="434,90 468,90 473,85 468,80 434,80 434,90 " style="fill:white; stroke-width:1; stroke:black; " description="&lt;b&gt;AV140_RS16340&lt;/b&gt;&lt;br&gt;pseudouridylate synthase&lt;br&gt;Location: 91754 - 92695" locus_tag="AV140_RS16340" class="clusterblast-orf" id="dummy-1_h1_10_8"  />
</g>
<g id="a1_009"  >
<polygon points="474,85 479,80 535,80 535,90 479,90 474,85 " style="fill:#15d846; stroke-width:1; stroke:black; " description="&lt;b&gt;AV140_RS16345&lt;/b&gt;&lt;br&gt;hypothetical protein&lt;br&gt;Location: 92714 - 94204&lt;br&gt;&lt;br&gt;&lt;b&gt;BlastP hit with ctg39_11&lt;/b&gt;&lt;br&gt;Percentage identity: 47&lt;br&gt;Percentage coverage: 82&lt;br&gt;BLAST bit score: 389&lt;br&gt;E-value: 7.4e-106" locus_tag="AV140_RS16345" class="clusterblast-orf" id="dummy-1_h1_10_9"  />
</g>
<g id="a1_0010"  >
<polygon points="538,85 543,80 564,80 564,90 543,90 538,85 " style="fill:#1546d8; stroke-width:1; stroke:black; " description="&lt;b&gt;AV140_RS16350&lt;/b&gt;&lt;br&gt;hypothetical protein&lt;br&gt;Location: 94279 - 94899&lt;br&gt;&lt;br&gt;&lt;b&gt;BlastP hit with ctg39_12&lt;/b&gt;&lt;br&gt;Percentage identity: 69&lt;br&gt;Percentage coverage: 95&lt;br&gt;BLAST bit score: 279&lt;br&gt;E-value: 3.3e-73" locus_tag="AV140_RS16350" class="clusterblast-orf" id="dummy-1_h1_10_10"  />
</g>
<g id="a1_0011"  >
<polygon points="563,85 568,80 583,80 583,90 568,90 563,85 " style="fill:#d815a7; stroke-width:1; stroke:black; " description="&lt;b&gt;AV140_RS16355&lt;/b&gt;&lt;br&gt;DUF742 domain-containing protein&lt;br&gt;Location: 94880 - 95353&lt;br&gt;&lt;br&gt;&lt;b&gt;BlastP hit with ctg39_13&lt;/b&gt;&lt;br&gt;Percentage identity: 42&lt;br&gt;Percentage coverage: 86&lt;br&gt;BLAST bit score: 74&lt;br&gt;E-value: 1.3e-11" locus_tag="AV140_RS16355" class="clusterblast-orf" id="dummy-1_h1_10_11"  />
</g>
<g id="a1_0012"  >
<polygon points="583,85 588,80 600,80 600,90 588,90 583,85 " style="fill:#c0d815; stroke-width:1; stroke:black; " description="&lt;b&gt;AV140_RS16360&lt;/b&gt;&lt;br&gt;roadblock/LC7 domain-containing protein&lt;br&gt;Location: 95350 - 95757&lt;br&gt;&lt;br&gt;&lt;b&gt;BlastP hit with ctg39_14&lt;/b&gt;&lt;br&gt;Percentage identity: 55&lt;br&gt;Percentage coverage: 95&lt;br&gt;BLAST bit score: 137&lt;br&gt;E-value: 1.3e-30" locus_tag="AV140_RS16360" class="clusterblast-orf" id="dummy-1_h1_10_12"  />
</g>
<g id="a1_0013"  >
<polygon points="599,85 604,80 672,80 672,90 604,90 599,85 " style="fill:#15d88f; stroke-width:1; stroke:black; " description="&lt;b&gt;AV140_RS16365&lt;/b&gt;&lt;br&gt;sensor histidine kinase&lt;br&gt;Location: 95754 - 97499&lt;br&gt;&lt;br&gt;&lt;b&gt;BlastP hit with ctg39_15&lt;/b&gt;&lt;br&gt;Percentage identity: 34&lt;br&gt;Percentage coverage: 101&lt;br&gt;BLAST bit score: 224&lt;br&gt;E-value: 2.2e-56" locus_tag="AV140_RS16365" class="clusterblast-orf" id="dummy-1_h1_10_13"  />
</g>
<g id="a1_0014"  >
<polygon points="685,85 690,80 711,80 711,90 690,90 685,85 " style="fill:white; stroke-width:1; stroke:black; " description="&lt;b&gt;AV140_RS16370&lt;/b&gt;&lt;br&gt;TetR/AcrR family transcriptional regulator&lt;br&gt;Location: 97827 - 98462" locus_tag="AV140_RS16370" class="clusterblast-orf" id="dummy-1_h1_10_14"  />
</g>
<g id="a1_0015"  >
<polygon points="720,90 749,90 754,85 749,80 720,80 720,90 " style="fill:white; stroke-width:1; stroke:black; " description="&lt;b&gt;AV140_RS16375&lt;/b&gt;&lt;br&gt;DUF1989 domain-containing protein&lt;br&gt;Location: 98671 - 99495" locus_tag="AV140_RS16375" class="clusterblast-orf" id="dummy-1_h1_10_15"  />
</g>
<g id="a1_0016"  >
<polygon points="754,90 775,90 780,85 775,80 754,80 754,90 " style="fill:white; stroke-width:1; stroke:black; " description="&lt;b&gt;AV140_RS16380&lt;/b&gt;&lt;br&gt;DUF1989 domain-containing protein&lt;br&gt;Location: 99492 - 100112" locus_tag="AV140_RS16380" class="clusterblast-orf" id="dummy-1_h1_10_16"  />
</g>
</svg>
