<svg xmlns="http://www.w3.org/2000/svg" xmlns:xlink="http://www.w3.org/1999/xlink" version="1.1" x="0" y="0" height="230" width="800" viewBox="0 0 800 230" preserveAspectRatio="none"  >
<g label="Query sequence" class="clusterblast-cluster"  >
<text x="5" y="20" class="clusterblast-acc"  >
Query sequence</text>
<line x1="10" y1="35" x2="778.0" y2="35" style="stroke-width:1; stroke:grey; "  />
<polygon points="301,40 301,40 306,35 301,30 301,30 301,40 " style="fill:#d81515; stroke-width:1; stroke:black; " description="&lt;b&gt;ctg8_1&lt;/b&gt;&lt;br&gt;ctg8 1&lt;br&gt;Location: 34 - 1228" locus_tag="ctg8_1" class="clusterblast-orf" id="dummy-1_q0_0_all"  />
<polygon points="306,40 307,35 306,30 306,40 " style="fill:#54d815; stroke-width:1; stroke:black; " description="&lt;b&gt;ctg8_2&lt;/b&gt;&lt;br&gt;ctg8 2&lt;br&gt;Location: 1247 - 1463" locus_tag="ctg8_2" class="clusterblast-orf" id="dummy-1_q1_0_all"  />
<polygon points="307,40 311,35 307,30 307,40 " style="fill:#15c1d8; stroke-width:1; stroke:black; " description="&lt;b&gt;ctg8_3&lt;/b&gt;&lt;br&gt;ctg8 3&lt;br&gt;Location: 1459 - 2614" locus_tag="ctg8_3" class="clusterblast-orf" id="dummy-1_q2_0_all"  />
<polygon points="312,40 313,40 318,35 313,30 312,30 312,40 " style="fill:#8215d8; stroke-width:1; stroke:black; " description="&lt;b&gt;ctg8_4&lt;/b&gt;&lt;br&gt;ctg8 4&lt;br&gt;Location: 2687 - 4496" locus_tag="ctg8_4" class="clusterblast-orf" id="dummy-1_q3_0_all"  />
<polygon points="318,40 320,35 318,30 318,40 " style="fill:#d84415; stroke-width:1; stroke:black; " description="&lt;b&gt;ctg8_5&lt;/b&gt;&lt;br&gt;ctg8 5&lt;br&gt;Location: 4492 - 4885" locus_tag="ctg8_5" class="clusterblast-orf" id="dummy-1_q4_0_all"  />
<polygon points="320,40 320,40 325,35 320,30 320,30 320,40 " style="fill:#25d815; stroke-width:1; stroke:black; " description="&lt;b&gt;ctg8_6&lt;/b&gt;&lt;br&gt;ctg8 6&lt;br&gt;Location: 4895 - 6089" locus_tag="ctg8_6" class="clusterblast-orf" id="dummy-1_q5_0_all"  />
<polygon points="325,40 328,35 325,30 325,40 " style="fill:#1592d8; stroke-width:1; stroke:black; " description="&lt;b&gt;ctg8_7&lt;/b&gt;&lt;br&gt;ctg8 7&lt;br&gt;Location: 6134 - 6944" locus_tag="ctg8_7" class="clusterblast-orf" id="dummy-1_q6_0_all"  />
<polygon points="328,35 330,30 330,40 328,35 " style="fill:#b115d8; stroke-width:1; stroke:black; " description="&lt;b&gt;ctg8_8&lt;/b&gt;&lt;br&gt;ctg8 8&lt;br&gt;Location: 6923 - 7457" locus_tag="ctg8_8" class="clusterblast-orf" id="dummy-1_q7_0_all"  />
<polygon points="330,40 330,35 330,30 330,40 " style="fill:white; stroke-width:1; stroke:black; " description="&lt;b&gt;ctg8_9&lt;/b&gt;&lt;br&gt;ctg8 9&lt;br&gt;Location: 7481 - 7646" locus_tag="ctg8_9" class="clusterblast-orf" id="dummy-1_q8_0_all"  />
<polygon points="332,35 336,30 336,40 332,35 " style="fill:#d87315; stroke-width:1; stroke:black; " description="&lt;b&gt;ctg8_10&lt;/b&gt;&lt;br&gt;ctg8 10&lt;br&gt;Location: 7953 - 9105" locus_tag="ctg8_10" class="clusterblast-orf" id="dummy-1_q9_0_all"  />
<polygon points="336,35 341,30 343,30 343,40 341,40 336,35 " style="fill:#15d834; stroke-width:1; stroke:black; " description="&lt;b&gt;ctg8_11&lt;/b&gt;&lt;br&gt;ctg8 11&lt;br&gt;Location: 9101 - 10916" locus_tag="ctg8_11" class="clusterblast-orf" id="dummy-1_q10_0_all"  />
<polygon points="343,35 347,30 347,40 343,35 " style="fill:#1563d8; stroke-width:1; stroke:black; " description="&lt;b&gt;ctg8_12&lt;/b&gt;&lt;br&gt;ctg8 12&lt;br&gt;Location: 10927 - 11929" locus_tag="ctg8_12" class="clusterblast-orf" id="dummy-1_q11_0_all"  />
<polygon points="348,40 351,35 348,30 348,40 " style="fill:#d815d0; stroke-width:1; stroke:black; " description="&lt;b&gt;ctg8_13&lt;/b&gt;&lt;br&gt;ctg8 13&lt;br&gt;Location: 12135 - 12939" locus_tag="ctg8_13" class="clusterblast-orf" id="dummy-1_q12_0_all"  />
<polygon points="351,35 353,30 353,40 351,35 " style="fill:white; stroke-width:1; stroke:black; " description="&lt;b&gt;ctg8_14&lt;/b&gt;&lt;br&gt;ctg8 14&lt;br&gt;Location: 12961 - 13627" locus_tag="ctg8_14" class="clusterblast-orf" id="dummy-1_q13_0_all"  />
<polygon points="354,40 360,40 365,35 360,30 354,30 354,40 " style="fill:#d8a215; stroke-width:1; stroke:black; " description="&lt;b&gt;ctg8_15&lt;/b&gt;&lt;br&gt;ctg8 15&lt;br&gt;Location: 13762 - 16624" locus_tag="ctg8_15" class="clusterblast-orf" id="dummy-1_q14_0_all"  />
<polygon points="365,40 366,35 365,30 365,40 " style="fill:white; stroke-width:1; stroke:black; " description="&lt;b&gt;ctg8_16&lt;/b&gt;&lt;br&gt;ctg8 16&lt;br&gt;Location: 16678 - 17080" locus_tag="ctg8_16" class="clusterblast-orf" id="dummy-1_q15_0_all"  />
<polygon points="366,40 369,35 366,30 366,40 " style="fill:white; stroke-width:1; stroke:black; " description="&lt;b&gt;ctg8_17&lt;/b&gt;&lt;br&gt;ctg8 17&lt;br&gt;Location: 17081 - 17846" locus_tag="ctg8_17" class="clusterblast-orf" id="dummy-1_q16_0_all"  />
<polygon points="370,35 375,30 376,30 376,40 375,40 370,35 " style="fill:#15d863; stroke-width:1; stroke:black; " description="&lt;b&gt;ctg8_18&lt;/b&gt;&lt;br&gt;ctg8 18&lt;br&gt;Location: 17897 - 19535" locus_tag="ctg8_18" class="clusterblast-orf" id="dummy-1_q17_0_all"  />
<polygon points="376,35 378,30 378,40 376,35 " style="fill:#1534d8; stroke-width:1; stroke:black; " description="&lt;b&gt;ctg8_19&lt;/b&gt;&lt;br&gt;ctg8 19&lt;br&gt;Location: 19531 - 20044" locus_tag="ctg8_19" class="clusterblast-orf" id="dummy-1_q18_0_all"  />
<polygon points="378,35 380,30 380,40 378,35 " style="fill:#d815a2; stroke-width:1; stroke:black; " description="&lt;b&gt;ctg8_20&lt;/b&gt;&lt;br&gt;ctg8 20&lt;br&gt;Location: 20040 - 20667" locus_tag="ctg8_20" class="clusterblast-orf" id="dummy-1_q19_0_all"  />
<polygon points="381,35 384,30 384,40 381,35 " style="fill:#d8d015; stroke-width:1; stroke:black; " description="&lt;b&gt;ctg8_21&lt;/b&gt;&lt;br&gt;ctg8 21&lt;br&gt;Location: 20806 - 21709" locus_tag="ctg8_21" class="clusterblast-orf" id="dummy-1_q20_0_all"  />
<polygon points="386,40 390,40 395,35 390,30 386,30 386,40 " style="fill:#15d892; stroke-width:1; stroke:black; " description="&lt;b&gt;ctg8_22&lt;/b&gt;&lt;br&gt;ctg8 22&lt;br&gt;Location: 22167 - 24606" locus_tag="ctg8_22" class="clusterblast-orf" id="dummy-1_q21_0_all"  />
<polygon points="395,40 399,40 404,35 399,30 395,30 395,40 " style="fill:#2515d8; stroke-width:1; stroke:black; " description="&lt;b&gt;ctg8_23&lt;/b&gt;&lt;br&gt;ctg8 23&lt;br&gt;Location: 24606 - 26832" locus_tag="ctg8_23" class="clusterblast-orf" id="dummy-1_q22_0_all"  />
<polygon points="404,40 408,35 404,30 404,40 " style="fill:#d81573; stroke-width:1; stroke:black; " description="&lt;b&gt;ctg8_24&lt;/b&gt;&lt;br&gt;ctg8 24&lt;br&gt;Location: 26957 - 28010" locus_tag="ctg8_24" class="clusterblast-orf" id="dummy-1_q23_0_all"  />
<polygon points="408,40 412,35 408,30 408,40 " style="fill:#b1d815; stroke-width:1; stroke:black; " description="&lt;b&gt;ctg8_25&lt;/b&gt;&lt;br&gt;ctg8 25&lt;br&gt;Location: 28006 - 29050" locus_tag="ctg8_25" class="clusterblast-orf" id="dummy-1_q24_0_all"  />
<polygon points="412,40 416,35 412,30 412,40 " style="fill:#15d8c1; stroke-width:1; stroke:black; " description="&lt;b&gt;ctg8_26&lt;/b&gt;&lt;br&gt;ctg8 26&lt;br&gt;Location: 29061 - 30072" locus_tag="ctg8_26" class="clusterblast-orf" id="dummy-1_q25_0_all"  />
<polygon points="416,35 418,30 418,40 416,35 " style="fill:#5415d8; stroke-width:1; stroke:black; " description="&lt;b&gt;ctg8_27&lt;/b&gt;&lt;br&gt;ctg8 27&lt;br&gt;Location: 30084 - 30567" locus_tag="ctg8_27" class="clusterblast-orf" id="dummy-1_q26_0_all"  />
<polygon points="419,40 423,35 419,30 419,40 " style="fill:#d81515; stroke-width:1; stroke:black; " description="&lt;b&gt;ctg8_28&lt;/b&gt;&lt;br&gt;ctg8 28&lt;br&gt;Location: 30746 - 31988" locus_tag="ctg8_28" class="clusterblast-orf" id="dummy-1_q27_0_all"  />
<polygon points="423,40 424,35 423,30 423,40 " style="fill:#54d815; stroke-width:1; stroke:black; " description="&lt;b&gt;ctg8_29&lt;/b&gt;&lt;br&gt;ctg8 29&lt;br&gt;Location: 31984 - 32185" locus_tag="ctg8_29" class="clusterblast-orf" id="dummy-1_q28_0_all"  />
<polygon points="424,35 429,30 429,30 429,40 429,40 424,35 " style="fill:#d81544; stroke-width:1; stroke:black; " description="&lt;b&gt;ctg8_30&lt;/b&gt;&lt;br&gt;ctg8 30&lt;br&gt;Location: 32242 - 33541" locus_tag="ctg8_30" class="clusterblast-orf" id="dummy-1_q29_0_all"  />
<polygon points="430,35 430,30 430,40 430,35 " style="fill:#82d815; stroke-width:1; stroke:black; " description="&lt;b&gt;ctg8_31&lt;/b&gt;&lt;br&gt;ctg8 31&lt;br&gt;Location: 33610 - 33826" locus_tag="ctg8_31" class="clusterblast-orf" id="dummy-1_q30_0_all"  />
<polygon points="430,35 435,30 436,30 436,40 435,40 430,35 " style="fill:#d8a215; stroke-width:1; stroke:black; " description="&lt;b&gt;ctg8_32&lt;/b&gt;&lt;br&gt;ctg8 32&lt;br&gt;Location: 33822 - 35376" locus_tag="ctg8_32" class="clusterblast-orf" id="dummy-1_q31_0_all"  />
<polygon points="436,35 441,30 449,30 449,40 441,40 436,35 " style="fill:#d8a215; stroke-width:1; stroke:black; " description="&lt;b&gt;ctg8_33&lt;/b&gt;&lt;br&gt;ctg8 33&lt;br&gt;Location: 35359 - 38725" locus_tag="ctg8_33" class="clusterblast-orf" id="dummy-1_q32_0_all"  />
<polygon points="449,35 454,30 456,30 456,40 454,40 449,35 " style="fill:#d8a215; stroke-width:1; stroke:black; " description="&lt;b&gt;ctg8_34&lt;/b&gt;&lt;br&gt;ctg8 34&lt;br&gt;Location: 38721 - 40512" locus_tag="ctg8_34" class="clusterblast-orf" id="dummy-1_q33_0_all"  />
<polygon points="456,35 461,30 478,30 478,40 461,40 456,35 " style="fill:#d8a215; stroke-width:1; stroke:black; " description="&lt;b&gt;ctg8_35&lt;/b&gt;&lt;br&gt;ctg8 35&lt;br&gt;Location: 40511 - 46208" locus_tag="ctg8_35" class="clusterblast-orf" id="dummy-1_q34_0_all"  />
</g>
<g label="NZ_FNTD01000004" description="NZ_FNTD01000004_c25: Streptomyces misionensis strain DSM 40306, whole genome ... (18% of genes show similarity), t1pks-lantipeptide-terpene-nrps" class="clusterblast-cluster"  >
<text x="5" y="70" class="clusterblast-acc"  >
<a xlink:href="https://antismash-db.secondarymetabolites.org/go/NZ_FNTD01000004/25" target="_blank">NZ_FNTD01000004_c25</a>: Streptomyces misionensis strain DSM 40306, whole genome ... (18% of genes show similarity), t1pks-lantipeptide-terpene-nrps</text>
<line x1="10" y1="85" x2="778.0" y2="85" style="stroke-width:1; stroke:grey; "  />
</g>
<g id="a1_000"  >
<polygon points="0,90 3,85 0,80 0,90 " style="fill:white; stroke-width:1; stroke:black; " description="&lt;b&gt;BLW85_RS34405&lt;/b&gt;&lt;br&gt;hypothetical protein&lt;br&gt;Location: 7397087 - 7396050" locus_tag="BLW85_RS34405" class="clusterblast-orf" id="dummy-1_h1_8_0"  />
</g>
<g id="a1_001"  >
<polygon points="4,85 5,80 5,90 4,85 " style="fill:white; stroke-width:1; stroke:black; " description="&lt;b&gt;BLW85_RS34400&lt;/b&gt;&lt;br&gt;hypothetical protein&lt;br&gt;Location: 7396012 - 7395602" locus_tag="BLW85_RS34400" class="clusterblast-orf" id="dummy-1_h1_8_1"  />
</g>
<g id="a1_002"  >
<polygon points="5,85 10,80 13,80 13,90 10,90 5,85 " style="fill:white; stroke-width:1; stroke:black; " description="&lt;b&gt;BLW85_RS34395&lt;/b&gt;&lt;br&gt;heavy metal translocating P-type ATPase&lt;br&gt;Location: 7395605 - 7393623" locus_tag="BLW85_RS34395" class="clusterblast-orf" id="dummy-1_h1_8_2"  />
</g>
<g id="a1_003"  >
<polygon points="13,90 15,85 13,80 13,90 " style="fill:white; stroke-width:1; stroke:black; " description="&lt;b&gt;BLW85_RS34390&lt;/b&gt;&lt;br&gt;ArsR family transcriptional regulator&lt;br&gt;Location: 7393519 - 7393118" locus_tag="BLW85_RS34390" class="clusterblast-orf" id="dummy-1_h1_8_3"  />
</g>
<g id="a1_004"  >
<polygon points="15,90 16,85 15,80 15,90 " style="fill:white; stroke-width:1; stroke:black; " description="&lt;b&gt;BLW85_RS34385&lt;/b&gt;&lt;br&gt;hypothetical protein&lt;br&gt;Location: 7393035 - 7392655" locus_tag="BLW85_RS34385" class="clusterblast-orf" id="dummy-1_h1_8_4"  />
</g>
<g id="a1_005"  >
<polygon points="17,90 21,85 17,80 17,90 " style="fill:white; stroke-width:1; stroke:black; " description="&lt;b&gt;BLW85_RS34380&lt;/b&gt;&lt;br&gt;PLP-dependent cysteine synthase family protein&lt;br&gt;Location: 7392540 - 7391446" locus_tag="BLW85_RS34380" class="clusterblast-orf" id="dummy-1_h1_8_5"  />
</g>
<g id="a1_006"  >
<polygon points="21,90 21,90 26,85 21,80 21,80 21,90 " style="fill:white; stroke-width:1; stroke:black; " description="&lt;b&gt;BLW85_RS34375&lt;/b&gt;&lt;br&gt;MFS transporter&lt;br&gt;Location: 7391449 - 7390193" locus_tag="BLW85_RS34375" class="clusterblast-orf" id="dummy-1_h1_8_6"  />
</g>
<g id="a1_007"  >
<polygon points="26,90 27,90 32,85 27,80 26,80 26,90 " style="fill:white; stroke-width:1; stroke:black; " description="&lt;b&gt;BLW85_RS34370&lt;/b&gt;&lt;br&gt;alkaline phosphatase&lt;br&gt;Location: 7390014 - 7388650" locus_tag="BLW85_RS34370" class="clusterblast-orf" id="dummy-1_h1_8_7"  />
</g>
<g id="a1_008"  >
<polygon points="32,85 35,80 35,90 32,85 " style="fill:white; stroke-width:1; stroke:black; " description="&lt;b&gt;BLW85_RS34365&lt;/b&gt;&lt;br&gt;thioesterase&lt;br&gt;Location: 7388632 - 7387865" locus_tag="BLW85_RS34365" class="clusterblast-orf" id="dummy-1_h1_8_8"  />
</g>
<g id="a1_009"  >
<polygon points="35,85 40,80 41,80 41,90 40,90 35,85 " style="fill:white; stroke-width:1; stroke:black; " description="&lt;b&gt;BLW85_RS34360&lt;/b&gt;&lt;br&gt;GMC family oxidoreductase&lt;br&gt;Location: 7387760 - 7386150" locus_tag="BLW85_RS34360" class="clusterblast-orf" id="dummy-1_h1_8_9"  />
</g>
<g id="a1_0010"  >
<polygon points="42,85 45,80 45,90 42,85 " style="fill:white; stroke-width:1; stroke:black; " description="&lt;b&gt;BLW85_RS34355&lt;/b&gt;&lt;br&gt;helix-turn-helix transcriptional regulator&lt;br&gt;Location: 7385832 - 7385134" locus_tag="BLW85_RS34355" class="clusterblast-orf" id="dummy-1_h1_8_10"  />
</g>
<g id="a1_0011"  >
<polygon points="46,90 54,90 59,85 54,80 46,80 46,90 " style="fill:white; stroke-width:1; stroke:black; " description="&lt;b&gt;BLW85_RS34350&lt;/b&gt;&lt;br&gt;transcriptional regulator&lt;br&gt;Location: 7384878 - 7381426" locus_tag="BLW85_RS34350" class="clusterblast-orf" id="dummy-1_h1_8_11"  />
</g>
<g id="a1_0012"  >
<polygon points="60,85 60,80 60,90 60,85 " style="fill:white; stroke-width:1; stroke:black; " description="&lt;b&gt;BLW85_RS34345&lt;/b&gt;&lt;br&gt;ferredoxin&lt;br&gt;Location: 7381338 - 7381144" locus_tag="BLW85_RS34345" class="clusterblast-orf" id="dummy-1_h1_8_12"  />
</g>
<g id="a1_0013"  >
<polygon points="60,85 65,80 65,80 65,90 65,90 60,85 " style="fill:#d81515; stroke-width:1; stroke:black; " description="&lt;b&gt;BLW85_RS34340&lt;/b&gt;&lt;br&gt;cytochrome P450&lt;br&gt;Location: 7381100 - 7379886&lt;br&gt;&lt;br&gt;&lt;b&gt;BlastP hit with ctg8_1&lt;/b&gt;&lt;br&gt;Percentage identity: 40&lt;br&gt;Percentage coverage: 98&lt;br&gt;BLAST bit score: 237&lt;br&gt;E-value: 2.7e-60&lt;br&gt;&lt;br&gt;&lt;b&gt;BlastP hit with ctg8_28&lt;/b&gt;&lt;br&gt;Percentage identity: 34&lt;br&gt;Percentage coverage: 95&lt;br&gt;BLAST bit score: 185&lt;br&gt;E-value: 1.3e-44" locus_tag="BLW85_RS34340" class="clusterblast-orf" id="dummy-1_h1_8_13"  />
</g>
<g id="a1_0014"  >
<polygon points="65,85 70,80 70,80 70,90 70,90 65,85 " style="fill:#d81515; stroke-width:1; stroke:black; " description="&lt;b&gt;BLW85_RS34335&lt;/b&gt;&lt;br&gt;cytochrome P450&lt;br&gt;Location: 7379813 - 7378623&lt;br&gt;&lt;br&gt;&lt;b&gt;BlastP hit with ctg8_1&lt;/b&gt;&lt;br&gt;Percentage identity: 39&lt;br&gt;Percentage coverage: 102&lt;br&gt;BLAST bit score: 258&lt;br&gt;E-value: 1.5e-66&lt;br&gt;&lt;br&gt;&lt;b&gt;BlastP hit with ctg8_28&lt;/b&gt;&lt;br&gt;Percentage identity: 37&lt;br&gt;Percentage coverage: 99&lt;br&gt;BLAST bit score: 215&lt;br&gt;E-value: 8.8e-54" locus_tag="BLW85_RS34335" class="clusterblast-orf" id="dummy-1_h1_8_14"  />
</g>
<g id="a1_0015"  >
<polygon points="70,85 75,80 75,80 75,90 75,90 70,85 " style="fill:white; stroke-width:1; stroke:black; " description="&lt;b&gt;BLW85_RS34330&lt;/b&gt;&lt;br&gt;crotonyl-CoA carboxylase/reductase&lt;br&gt;Location: 7378580 - 7377324" locus_tag="BLW85_RS34330" class="clusterblast-orf" id="dummy-1_h1_8_15"  />
</g>
<g id="a1_0016"  >
<polygon points="75,85 80,80 114,80 114,90 80,90 75,85 " style="fill:white; stroke-width:1; stroke:black; " description="&lt;b&gt;BLW85_RS34325&lt;/b&gt;&lt;br&gt;KR domain-containing protein&lt;br&gt;Location: 7377262 - 7367099" locus_tag="BLW85_RS34325" class="clusterblast-orf" id="dummy-1_h1_8_16"  />
</g>
<g id="a1_0017"  >
<polygon points="114,85 119,80 185,80 185,90 119,90 114,85 " style="fill:white; stroke-width:1; stroke:black; " description="&lt;b&gt;BLW85_RS34320&lt;/b&gt;&lt;br&gt;KR domain-containing protein&lt;br&gt;Location: 7367052 - 7348537" locus_tag="BLW85_RS34320" class="clusterblast-orf" id="dummy-1_h1_8_17"  />
</g>
<g id="a1_0018"  >
<polygon points="185,85 190,80 206,80 206,90 190,90 185,85 " style="fill:white; stroke-width:1; stroke:black; " description="&lt;b&gt;BLW85_RS34315&lt;/b&gt;&lt;br&gt;KR domain-containing protein&lt;br&gt;Location: 7348502 - 7343031" locus_tag="BLW85_RS34315" class="clusterblast-orf" id="dummy-1_h1_8_18"  />
</g>
<g id="a1_0019"  >
<polygon points="206,85 211,80 247,80 247,90 211,90 206,85 " style="fill:white; stroke-width:1; stroke:black; " description="&lt;b&gt;BLW85_RS34310&lt;/b&gt;&lt;br&gt;KR domain-containing protein&lt;br&gt;Location: 7342996 - 7332305" locus_tag="BLW85_RS34310" class="clusterblast-orf" id="dummy-1_h1_8_19"  />
</g>
<g id="a1_0020"  >
<polygon points="247,85 252,80 335,80 335,90 252,90 247,85 " style="fill:white; stroke-width:1; stroke:black; " description="&lt;b&gt;BLW85_RS34305&lt;/b&gt;&lt;br&gt;KR domain-containing protein&lt;br&gt;Location: 7332233 - 7309023" locus_tag="BLW85_RS34305" class="clusterblast-orf" id="dummy-1_h1_8_20"  />
</g>
<g id="a1_0021"  >
<polygon points="337,90 341,85 337,80 337,90 " style="fill:#d81515; stroke-width:1; stroke:black; " description="&lt;b&gt;BLW85_RS34300&lt;/b&gt;&lt;br&gt;cytochrome P450&lt;br&gt;Location: 7308707 - 7307490&lt;br&gt;&lt;br&gt;&lt;b&gt;BlastP hit with ctg8_1&lt;/b&gt;&lt;br&gt;Percentage identity: 40&lt;br&gt;Percentage coverage: 102&lt;br&gt;BLAST bit score: 257&lt;br&gt;E-value: 2.5e-66&lt;br&gt;&lt;br&gt;&lt;b&gt;BlastP hit with ctg8_28&lt;/b&gt;&lt;br&gt;Percentage identity: 37&lt;br&gt;Percentage coverage: 95&lt;br&gt;BLAST bit score: 218&lt;br&gt;E-value: 1e-54" locus_tag="BLW85_RS34300" class="clusterblast-orf" id="dummy-1_h1_8_21"  />
</g>
<g id="a1_0022"  >
<polygon points="341,90 342,85 341,80 341,90 " style="fill:#54d815; stroke-width:1; stroke:black; " description="&lt;b&gt;BLW85_RS34295&lt;/b&gt;&lt;br&gt;ferredoxin&lt;br&gt;Location: 7307476 - 7307285&lt;br&gt;&lt;br&gt;&lt;b&gt;BlastP hit with ctg8_29&lt;/b&gt;&lt;br&gt;Percentage identity: 63&lt;br&gt;Percentage coverage: 94&lt;br&gt;BLAST bit score: 77&lt;br&gt;E-value: 4.6e-13" locus_tag="BLW85_RS34295" class="clusterblast-orf" id="dummy-1_h1_8_22"  />
</g>
<g id="a1_0023"  >
<polygon points="342,85 347,80 352,80 352,90 347,90 342,85 " style="fill:white; stroke-width:1; stroke:black; " description="&lt;b&gt;BLW85_RS34290&lt;/b&gt;&lt;br&gt;hypothetical protein&lt;br&gt;Location: 7307218 - 7304579" locus_tag="BLW85_RS34290" class="clusterblast-orf" id="dummy-1_h1_8_23"  />
</g>
<g id="a1_0024"  >
<polygon points="353,85 356,80 356,90 353,85 " style="fill:white; stroke-width:1; stroke:black; " description="&lt;b&gt;BLW85_RS34285&lt;/b&gt;&lt;br&gt;hypothetical protein&lt;br&gt;Location: 7304450 - 7303527" locus_tag="BLW85_RS34285" class="clusterblast-orf" id="dummy-1_h1_8_24"  />
</g>
<g id="a1_0025"  >
<polygon points="356,85 360,80 360,90 356,85 " style="fill:white; stroke-width:1; stroke:black; " description="&lt;b&gt;BLW85_RS34280&lt;/b&gt;&lt;br&gt;hypothetical protein&lt;br&gt;Location: 7303527 - 7302568" locus_tag="BLW85_RS34280" class="clusterblast-orf" id="dummy-1_h1_8_25"  />
</g>
<g id="a1_0026"  >
<polygon points="360,85 365,80 365,80 365,90 365,90 360,85 " style="fill:white; stroke-width:1; stroke:black; " description="&lt;b&gt;BLW85_RS38595&lt;/b&gt;&lt;br&gt;MFS transporter&lt;br&gt;Location: 7302566 - 7301298" locus_tag="BLW85_RS38595" class="clusterblast-orf" id="dummy-1_h1_8_26"  />
</g>
<g id="a1_0027"  >
<polygon points="365,85 369,80 369,90 365,85 " style="fill:white; stroke-width:1; stroke:black; " description="&lt;b&gt;BLW85_RS38590&lt;/b&gt;&lt;br&gt;hypothetical protein&lt;br&gt;Location: 7301295 - 7300162" locus_tag="BLW85_RS38590" class="clusterblast-orf" id="dummy-1_h1_8_27"  />
</g>
<g id="a1_0028"  >
<polygon points="371,85 376,80 379,80 379,90 376,90 371,85 " style="fill:white; stroke-width:1; stroke:black; " description="&lt;b&gt;BLW85_RS34270&lt;/b&gt;&lt;br&gt;lantibiotic dehydratase&lt;br&gt;Location: 7299781 - 7297493" locus_tag="BLW85_RS34270" class="clusterblast-orf" id="dummy-1_h1_8_28"  />
</g>
<g id="a1_0029"  >
<polygon points="380,85 381,80 381,90 380,85 " style="fill:white; stroke-width:1; stroke:black; " description="&lt;b&gt;BLW85_RS34265&lt;/b&gt;&lt;br&gt;acyl carrier protein&lt;br&gt;Location: 7297439 - 7297173" locus_tag="BLW85_RS34265" class="clusterblast-orf" id="dummy-1_h1_8_29"  />
</g>
<g id="a1_0030"  >
<polygon points="381,85 385,80 385,90 381,85 " style="fill:white; stroke-width:1; stroke:black; " description="&lt;b&gt;BLW85_RS34260&lt;/b&gt;&lt;br&gt;pyridoxal-5'-phosphate-dependent protein subunit beta&lt;br&gt;Location: 7297176 - 7296124" locus_tag="BLW85_RS34260" class="clusterblast-orf" id="dummy-1_h1_8_30"  />
</g>
<g id="a1_0031"  >
<polygon points="385,85 390,80 391,80 391,90 390,90 385,85 " style="fill:white; stroke-width:1; stroke:black; " description="&lt;b&gt;BLW85_RS34255&lt;/b&gt;&lt;br&gt;amino acid adenylation domain-containing protein&lt;br&gt;Location: 7295986 - 7294493" locus_tag="BLW85_RS34255" class="clusterblast-orf" id="dummy-1_h1_8_31"  />
</g>
<g id="a1_0032"  >
<polygon points="391,85 396,80 400,80 400,90 396,90 391,85 " style="fill:white; stroke-width:1; stroke:black; " description="&lt;b&gt;BLW85_RS34250&lt;/b&gt;&lt;br&gt;lantibiotic dehydratase&lt;br&gt;Location: 7294493 - 7292169" locus_tag="BLW85_RS34250" class="clusterblast-orf" id="dummy-1_h1_8_32"  />
</g>
<g id="a1_0033"  >
<polygon points="401,90 402,85 401,80 401,90 " style="fill:#82d815; stroke-width:1; stroke:black; " description="&lt;b&gt;BLW85_RS34245&lt;/b&gt;&lt;br&gt;hypothetical protein&lt;br&gt;Location: 7291924 - 7291676&lt;br&gt;&lt;br&gt;&lt;b&gt;BlastP hit with ctg8_31&lt;/b&gt;&lt;br&gt;Percentage identity: 63&lt;br&gt;Percentage coverage: 87&lt;br&gt;BLAST bit score: 87&lt;br&gt;E-value: 6.2e-16" locus_tag="BLW85_RS34245" class="clusterblast-orf" id="dummy-1_h1_8_33"  />
</g>
<g id="a1_0034"  >
<polygon points="402,90 405,85 402,80 402,90 " style="fill:white; stroke-width:1; stroke:black; " description="&lt;b&gt;BLW85_RS34240&lt;/b&gt;&lt;br&gt;hypothetical protein&lt;br&gt;Location: 7291683 - 7290772" locus_tag="BLW85_RS34240" class="clusterblast-orf" id="dummy-1_h1_8_34"  />
</g>
<g id="a1_0035"  >
<polygon points="406,90 408,85 406,80 406,90 " style="fill:white; stroke-width:1; stroke:black; " description="&lt;b&gt;BLW85_RS34235&lt;/b&gt;&lt;br&gt;peptidase E&lt;br&gt;Location: 7290632 - 7289892" locus_tag="BLW85_RS34235" class="clusterblast-orf" id="dummy-1_h1_8_35"  />
</g>
<g id="a1_0036"  >
<polygon points="409,85 411,80 411,90 409,85 " style="fill:white; stroke-width:1; stroke:black; " description="&lt;b&gt;BLW85_RS34230&lt;/b&gt;&lt;br&gt;DNA-binding response regulator&lt;br&gt;Location: 7289860 - 7289249" locus_tag="BLW85_RS34230" class="clusterblast-orf" id="dummy-1_h1_8_36"  />
</g>
<g id="a1_0037"  >
<polygon points="411,85 413,80 413,90 411,85 " style="fill:#b115d8; stroke-width:1; stroke:black; " description="&lt;b&gt;BLW85_RS34225&lt;/b&gt;&lt;br&gt;DNA-binding response regulator&lt;br&gt;Location: 7289252 - 7288650&lt;br&gt;&lt;br&gt;&lt;b&gt;BlastP hit with ctg8_8&lt;/b&gt;&lt;br&gt;Percentage identity: 37&lt;br&gt;Percentage coverage: 94&lt;br&gt;BLAST bit score: 85&lt;br&gt;E-value: 5.9e-15" locus_tag="BLW85_RS34225" class="clusterblast-orf" id="dummy-1_h1_8_37"  />
</g>
<g id="a1_0038"  >
<polygon points="415,90 422,90 427,85 422,80 415,80 415,90 " style="fill:white; stroke-width:1; stroke:black; " description="&lt;b&gt;BLW85_RS34220&lt;/b&gt;&lt;br&gt;type 2 lantipeptide synthetase LanM&lt;br&gt;Location: 7288207 - 7285055" locus_tag="BLW85_RS34220" class="clusterblast-orf" id="dummy-1_h1_8_38"  />
</g>
<g id="a1_0039"  >
<polygon points="427,90 428,85 427,80 427,90 " style="fill:white; stroke-width:1; stroke:black; " description="&lt;b&gt;BLW85_RS34215&lt;/b&gt;&lt;br&gt;hypothetical protein&lt;br&gt;Location: 7284963 - 7284766" locus_tag="BLW85_RS34215" class="clusterblast-orf" id="dummy-1_h1_8_39"  />
</g>
<g id="a1_0040"  >
<polygon points="429,90 435,90 440,85 435,80 429,80 429,90 " style="fill:white; stroke-width:1; stroke:black; " description="&lt;b&gt;BLW85_RS34210&lt;/b&gt;&lt;br&gt;LuxR family transcriptional regulator&lt;br&gt;Location: 7284628 - 7281713" locus_tag="BLW85_RS34210" class="clusterblast-orf" id="dummy-1_h1_8_40"  />
</g>
<g id="a1_0041"  >
<polygon points="440,85 444,80 444,90 440,85 " style="fill:white; stroke-width:1; stroke:black; " description="&lt;b&gt;BLW85_RS34205&lt;/b&gt;&lt;br&gt;MFS transporter&lt;br&gt;Location: 7281716 - 7280469" locus_tag="BLW85_RS34205" class="clusterblast-orf" id="dummy-1_h1_8_41"  />
</g>
<g id="a1_0042"  >
<polygon points="445,85 449,80 449,90 445,85 " style="fill:white; stroke-width:1; stroke:black; " description="&lt;b&gt;BLW85_RS34200&lt;/b&gt;&lt;br&gt;cytochrome P450&lt;br&gt;Location: 7280428 - 7279202" locus_tag="BLW85_RS34200" class="clusterblast-orf" id="dummy-1_h1_8_42"  />
</g>
<g id="a1_0043"  >
<polygon points="449,85 454,80 477,80 477,90 454,90 449,85 " style="fill:#d8a215; stroke-width:1; stroke:black; " description="&lt;b&gt;BLW85_RS34195&lt;/b&gt;&lt;br&gt;amino acid adenylation domain-containing protein&lt;br&gt;Location: 7279205 - 7271937&lt;br&gt;&lt;br&gt;&lt;b&gt;BlastP hit with ctg8_32&lt;/b&gt;&lt;br&gt;Percentage identity: 38&lt;br&gt;Percentage coverage: 102&lt;br&gt;BLAST bit score: 215&lt;br&gt;E-value: 1.1e-53&lt;br&gt;&lt;br&gt;&lt;b&gt;BlastP hit with ctg8_33&lt;/b&gt;&lt;br&gt;Percentage identity: 37&lt;br&gt;Percentage coverage: 96&lt;br&gt;BLAST bit score: 450&lt;br&gt;E-value: 4.4e-124&lt;br&gt;&lt;br&gt;&lt;b&gt;BlastP hit with ctg8_35&lt;/b&gt;&lt;br&gt;Percentage identity: 33&lt;br&gt;Percentage coverage: 101&lt;br&gt;BLAST bit score: 637&lt;br&gt;E-value: 4.3e-180" locus_tag="BLW85_RS34195" class="clusterblast-orf" id="dummy-1_h1_8_43"  />
</g>
<g id="a1_0044"  >
<polygon points="477,85 482,80 501,80 501,90 482,90 477,85 " style="fill:#d8a215; stroke-width:1; stroke:black; " description="&lt;b&gt;BLW85_RS34190&lt;/b&gt;&lt;br&gt;amino acid adenylation domain-containing protein&lt;br&gt;Location: 7271878 - 7265585&lt;br&gt;&lt;br&gt;&lt;b&gt;BlastP hit with ctg8_32&lt;/b&gt;&lt;br&gt;Percentage identity: 36&lt;br&gt;Percentage coverage: 97&lt;br&gt;BLAST bit score: 221&lt;br&gt;E-value: 2e-55&lt;br&gt;&lt;br&gt;&lt;b&gt;BlastP hit with ctg8_33&lt;/b&gt;&lt;br&gt;Percentage identity: 36&lt;br&gt;Percentage coverage: 103&lt;br&gt;BLAST bit score: 429&lt;br&gt;E-value: 1.4e-117&lt;br&gt;&lt;br&gt;&lt;b&gt;BlastP hit with ctg8_35&lt;/b&gt;&lt;br&gt;Percentage identity: 39&lt;br&gt;Percentage coverage: 84&lt;br&gt;BLAST bit score: 787&lt;br&gt;E-value: 4.4e-225" locus_tag="BLW85_RS34190" class="clusterblast-orf" id="dummy-1_h1_8_44"  />
</g>
<g id="a1_0045"  >
<polygon points="502,85 506,80 506,90 502,85 " style="fill:white; stroke-width:1; stroke:black; " description="&lt;b&gt;BLW85_RS34185&lt;/b&gt;&lt;br&gt;branched-chain amino acid aminotransferase&lt;br&gt;Location: 7265342 - 7264299" locus_tag="BLW85_RS34185" class="clusterblast-orf" id="dummy-1_h1_8_45"  />
</g>
<g id="a1_0046"  >
<polygon points="506,85 508,80 508,90 506,85 " style="fill:white; stroke-width:1; stroke:black; " description="&lt;b&gt;BLW85_RS34180&lt;/b&gt;&lt;br&gt;DUF4440 domain-containing protein&lt;br&gt;Location: 7264282 - 7263929" locus_tag="BLW85_RS34180" class="clusterblast-orf" id="dummy-1_h1_8_46"  />
</g>
<g id="a1_0047"  >
<polygon points="508,85 512,80 512,90 508,85 " style="fill:#d87315; stroke-width:1; stroke:black; " description="&lt;b&gt;BLW85_RS34175&lt;/b&gt;&lt;br&gt;flavodoxin-dependent (E)-4-hydroxy-3-methylbut-2-enyl-diphosphate synthase&lt;br&gt;Location: 7263911 - 7262772&lt;br&gt;&lt;br&gt;&lt;b&gt;BlastP hit with ctg8_10&lt;/b&gt;&lt;br&gt;Percentage identity: 84&lt;br&gt;Percentage coverage: 98&lt;br&gt;BLAST bit score: 618&lt;br&gt;E-value: 7.2e-175" locus_tag="BLW85_RS34175" class="clusterblast-orf" id="dummy-1_h1_8_47"  />
</g>
<g id="a1_0048"  >
<polygon points="512,85 517,80 519,80 519,90 517,90 512,85 " style="fill:#15d834; stroke-width:1; stroke:black; " description="&lt;b&gt;BLW85_RS34170&lt;/b&gt;&lt;br&gt;1-deoxy-D-xylulose-5-phosphate synthase&lt;br&gt;Location: 7262723 - 7260909&lt;br&gt;&lt;br&gt;&lt;b&gt;BlastP hit with ctg8_11&lt;/b&gt;&lt;br&gt;Percentage identity: 61&lt;br&gt;Percentage coverage: 95&lt;br&gt;BLAST bit score: 676&lt;br&gt;E-value: 2.7e-192" locus_tag="BLW85_RS34170" class="clusterblast-orf" id="dummy-1_h1_8_48"  />
</g>
<g id="a1_0049"  >
<polygon points="519,85 523,80 523,90 519,85 " style="fill:#1563d8; stroke-width:1; stroke:black; " description="&lt;b&gt;BLW85_RS34165&lt;/b&gt;&lt;br&gt;4-hydroxy-3-methylbut-2-enyl diphosphate reductase&lt;br&gt;Location: 7260891 - 7259857&lt;br&gt;&lt;br&gt;&lt;b&gt;BlastP hit with ctg8_12&lt;/b&gt;&lt;br&gt;Percentage identity: 56&lt;br&gt;Percentage coverage: 96&lt;br&gt;BLAST bit score: 321&lt;br&gt;E-value: 1.2e-85" locus_tag="BLW85_RS34165" class="clusterblast-orf" id="dummy-1_h1_8_49"  />
</g>
<g id="a1_0050"  >
<polygon points="524,85 524,80 524,90 524,85 " style="fill:#82d815; stroke-width:1; stroke:black; " description="&lt;b&gt;BLW85_RS34160&lt;/b&gt;&lt;br&gt;MbtH family protein&lt;br&gt;Location: 7259744 - 7259535&lt;br&gt;&lt;br&gt;&lt;b&gt;BlastP hit with ctg8_31&lt;/b&gt;&lt;br&gt;Percentage identity: 52&lt;br&gt;Percentage coverage: 82&lt;br&gt;BLAST bit score: 65&lt;br&gt;E-value: 3.3e-09" locus_tag="BLW85_RS34160" class="clusterblast-orf" id="dummy-1_h1_8_50"  />
</g>
<g id="a1_0051"  >
<polygon points="524,85 529,80 529,80 529,90 529,90 524,85 " style="fill:white; stroke-width:1; stroke:black; " description="&lt;b&gt;BLW85_RS34155&lt;/b&gt;&lt;br&gt;crotonyl-CoA carboxylase/reductase&lt;br&gt;Location: 7259496 - 7258252" locus_tag="BLW85_RS34155" class="clusterblast-orf" id="dummy-1_h1_8_51"  />
</g>
<g id="a1_0052"  >
<polygon points="529,85 534,80 593,80 593,90 534,90 529,85 " style="fill:#d8a215; stroke-width:1; stroke:black; " description="&lt;b&gt;BLW85_RS34150&lt;/b&gt;&lt;br&gt;amino acid adenylation domain-containing protein&lt;br&gt;Location: 7258252 - 7241537&lt;br&gt;&lt;br&gt;&lt;b&gt;BlastP hit with ctg8_15&lt;/b&gt;&lt;br&gt;Percentage identity: 31&lt;br&gt;Percentage coverage: 54&lt;br&gt;BLAST bit score: 151&lt;br&gt;E-value: 3.6e-34&lt;br&gt;&lt;br&gt;&lt;b&gt;BlastP hit with ctg8_32&lt;/b&gt;&lt;br&gt;Percentage identity: 39&lt;br&gt;Percentage coverage: 94&lt;br&gt;BLAST bit score: 239&lt;br&gt;E-value: 7.1e-61&lt;br&gt;&lt;br&gt;&lt;b&gt;BlastP hit with ctg8_33&lt;/b&gt;&lt;br&gt;Percentage identity: 34&lt;br&gt;Percentage coverage: 102&lt;br&gt;BLAST bit score: 415&lt;br&gt;E-value: 1.6e-113&lt;br&gt;&lt;br&gt;&lt;b&gt;BlastP hit with ctg8_35&lt;/b&gt;&lt;br&gt;Percentage identity: 36&lt;br&gt;Percentage coverage: 86&lt;br&gt;BLAST bit score: 747&lt;br&gt;E-value: 3e-213" locus_tag="BLW85_RS34150" class="clusterblast-orf" id="dummy-1_h1_8_52"  />
</g>
<g id="a1_0053"  >
<polygon points="592,85 597,80 627,80 627,90 597,90 592,85 " style="fill:#d8a215; stroke-width:1; stroke:black; " description="&lt;b&gt;BLW85_RS34145&lt;/b&gt;&lt;br&gt;amino acid adenylation domain-containing protein&lt;br&gt;Location: 7241693 - 7232658&lt;br&gt;&lt;br&gt;&lt;b&gt;BlastP hit with ctg8_33&lt;/b&gt;&lt;br&gt;Percentage identity: 33&lt;br&gt;Percentage coverage: 103&lt;br&gt;BLAST bit score: 395&lt;br&gt;E-value: 2.2e-107&lt;br&gt;&lt;br&gt;&lt;b&gt;BlastP hit with ctg8_35&lt;/b&gt;&lt;br&gt;Percentage identity: 38&lt;br&gt;Percentage coverage: 76&lt;br&gt;BLAST bit score: 676&lt;br&gt;E-value: 1.1e-191" locus_tag="BLW85_RS34145" class="clusterblast-orf" id="dummy-1_h1_8_53"  />
</g>
<g id="a1_0054"  >
<polygon points="627,85 632,80 647,80 647,90 632,90 627,85 " style="fill:#d8a215; stroke-width:1; stroke:black; " description="&lt;b&gt;BLW85_RS34140&lt;/b&gt;&lt;br&gt;amino acid adenylation domain-containing protein&lt;br&gt;Location: 7232634 - 7227478&lt;br&gt;&lt;br&gt;&lt;b&gt;BlastP hit with ctg8_32&lt;/b&gt;&lt;br&gt;Percentage identity: 39&lt;br&gt;Percentage coverage: 97&lt;br&gt;BLAST bit score: 226&lt;br&gt;E-value: 8.2e-57" locus_tag="BLW85_RS34140" class="clusterblast-orf" id="dummy-1_h1_8_54"  />
</g>
<g id="a1_0055"  >
<polygon points="647,90 647,90 652,85 647,80 647,80 647,90 " style="fill:white; stroke-width:1; stroke:black; " description="&lt;b&gt;BLW85_RS34135&lt;/b&gt;&lt;br&gt;polyprenyl synthetase family protein&lt;br&gt;Location: 7227248 - 7226181" locus_tag="BLW85_RS34135" class="clusterblast-orf" id="dummy-1_h1_8_55"  />
</g>
<g id="a1_0056"  >
<polygon points="652,90 656,85 652,80 652,90 " style="fill:white; stroke-width:1; stroke:black; " description="&lt;b&gt;BLW85_RS34130&lt;/b&gt;&lt;br&gt;glycosyltransferase&lt;br&gt;Location: 7226087 - 7224936" locus_tag="BLW85_RS34130" class="clusterblast-orf" id="dummy-1_h1_8_56"  />
</g>
<g id="a1_0057"  >
<polygon points="657,85 660,80 660,90 657,85 " style="fill:white; stroke-width:1; stroke:black; " description="&lt;b&gt;BLW85_RS34125&lt;/b&gt;&lt;br&gt;hypothetical protein&lt;br&gt;Location: 7224864 - 7223905" locus_tag="BLW85_RS34125" class="clusterblast-orf" id="dummy-1_h1_8_57"  />
</g>
<g id="a1_0058"  >
<polygon points="660,85 664,80 664,90 660,85 " style="fill:white; stroke-width:1; stroke:black; " description="&lt;b&gt;BLW85_RS34120&lt;/b&gt;&lt;br&gt;hypothetical protein&lt;br&gt;Location: 7223908 - 7223033" locus_tag="BLW85_RS34120" class="clusterblast-orf" id="dummy-1_h1_8_58"  />
</g>
<g id="a1_0059"  >
<polygon points="664,85 667,80 667,90 664,85 " style="fill:white; stroke-width:1; stroke:black; " description="&lt;b&gt;BLW85_RS34115&lt;/b&gt;&lt;br&gt;thioesterase&lt;br&gt;Location: 7222925 - 7222176" locus_tag="BLW85_RS34115" class="clusterblast-orf" id="dummy-1_h1_8_59"  />
</g>
<g id="a1_0060"  >
<polygon points="668,90 668,90 673,85 668,80 668,80 668,90 " style="fill:white; stroke-width:1; stroke:black; " description="&lt;b&gt;BLW85_RS34110&lt;/b&gt;&lt;br&gt;aldehyde dehydrogenase family protein&lt;br&gt;Location: 7221938 - 7220508" locus_tag="BLW85_RS34110" class="clusterblast-orf" id="dummy-1_h1_8_60"  />
</g>
<g id="a1_0061"  >
<polygon points="674,90 677,85 674,80 674,90 " style="fill:white; stroke-width:1; stroke:black; " description="&lt;b&gt;BLW85_RS34105&lt;/b&gt;&lt;br&gt;hypothetical protein&lt;br&gt;Location: 7220429 - 7219425" locus_tag="BLW85_RS34105" class="clusterblast-orf" id="dummy-1_h1_8_61"  />
</g>
<g id="a1_0062"  >
<polygon points="677,90 681,85 677,80 677,90 " style="fill:white; stroke-width:1; stroke:black; " description="&lt;b&gt;BLW85_RS34100&lt;/b&gt;&lt;br&gt;DUF2236 domain-containing protein&lt;br&gt;Location: 7219396 - 7218494" locus_tag="BLW85_RS34100" class="clusterblast-orf" id="dummy-1_h1_8_62"  />
</g>
<g id="a1_0063"  >
<polygon points="681,90 685,85 681,80 681,90 " style="fill:white; stroke-width:1; stroke:black; " description="&lt;b&gt;BLW85_RS34095&lt;/b&gt;&lt;br&gt;cysteine synthase family protein&lt;br&gt;Location: 7218487 - 7217453" locus_tag="BLW85_RS34095" class="clusterblast-orf" id="dummy-1_h1_8_63"  />
</g>
<g id="a1_0064"  >
<polygon points="685,90 689,85 685,80 685,90 " style="fill:white; stroke-width:1; stroke:black; " description="&lt;b&gt;BLW85_RS34090&lt;/b&gt;&lt;br&gt;ornithine cyclodeaminase&lt;br&gt;Location: 7217456 - 7216425" locus_tag="BLW85_RS34090" class="clusterblast-orf" id="dummy-1_h1_8_64"  />
</g>
<g id="a1_0065"  >
<polygon points="689,85 694,80 694,80 694,90 694,90 689,85 " style="fill:white; stroke-width:1; stroke:black; " description="&lt;b&gt;BLW85_RS34085&lt;/b&gt;&lt;br&gt;acyl-CoA dehydrogenase&lt;br&gt;Location: 7216359 - 7215190" locus_tag="BLW85_RS34085" class="clusterblast-orf" id="dummy-1_h1_8_65"  />
</g>
<g id="a1_0066"  >
<polygon points="693,85 698,80 698,80 698,90 698,90 693,85 " style="fill:white; stroke-width:1; stroke:black; " description="&lt;b&gt;BLW85_RS34080&lt;/b&gt;&lt;br&gt;CoA transferase&lt;br&gt;Location: 7215193 - 7214009" locus_tag="BLW85_RS34080" class="clusterblast-orf" id="dummy-1_h1_8_66"  />
</g>
<g id="a1_0067"  >
<polygon points="699,90 700,90 705,85 700,80 699,80 699,90 " style="fill:#d8a215; stroke-width:1; stroke:black; " description="&lt;b&gt;BLW85_RS34075&lt;/b&gt;&lt;br&gt;long-chain fatty acid--CoA ligase&lt;br&gt;Location: 7213765 - 7212101&lt;br&gt;&lt;br&gt;&lt;b&gt;BlastP hit with ctg8_15&lt;/b&gt;&lt;br&gt;Percentage identity: 31&lt;br&gt;Percentage coverage: 56&lt;br&gt;BLAST bit score: 189&lt;br&gt;E-value: 2e-45" locus_tag="BLW85_RS34075" class="clusterblast-orf" id="dummy-1_h1_8_67"  />
</g>
<g id="a1_0068"  >
<polygon points="705,90 709,85 705,80 705,90 " style="fill:white; stroke-width:1; stroke:black; " description="&lt;b&gt;BLW85_RS34070&lt;/b&gt;&lt;br&gt;LLM class F420-dependent oxidoreductase&lt;br&gt;Location: 7212067 - 7211024" locus_tag="BLW85_RS34070" class="clusterblast-orf" id="dummy-1_h1_8_68"  />
</g>
<g id="a1_0069"  >
<polygon points="709,85 712,80 712,90 709,85 " style="fill:white; stroke-width:1; stroke:black; " description="&lt;b&gt;BLW85_RS34065&lt;/b&gt;&lt;br&gt;DNA-binding response regulator&lt;br&gt;Location: 7211015 - 7210365" locus_tag="BLW85_RS34065" class="clusterblast-orf" id="dummy-1_h1_8_69"  />
</g>
<g id="a1_0070"  >
<polygon points="712,85 717,80 717,80 717,90 717,90 712,85 " style="fill:white; stroke-width:1; stroke:black; " description="&lt;b&gt;BLW85_RS34060&lt;/b&gt;&lt;br&gt;hypothetical protein&lt;br&gt;Location: 7210359 - 7209148" locus_tag="BLW85_RS34060" class="clusterblast-orf" id="dummy-1_h1_8_70"  />
</g>
<g id="a1_0071"  >
<polygon points="717,90 721,85 717,80 717,90 " style="fill:white; stroke-width:1; stroke:black; " description="&lt;b&gt;BLW85_RS34055&lt;/b&gt;&lt;br&gt;multidrug ABC transporter ATP-binding protein&lt;br&gt;Location: 7209049 - 7208084" locus_tag="BLW85_RS34055" class="clusterblast-orf" id="dummy-1_h1_8_71"  />
</g>
<g id="a1_0072"  >
<polygon points="721,90 723,85 721,80 721,90 " style="fill:white; stroke-width:1; stroke:black; " description="&lt;b&gt;BLW85_RS34050&lt;/b&gt;&lt;br&gt;hypothetical protein&lt;br&gt;Location: 7208081 - 7207332" locus_tag="BLW85_RS34050" class="clusterblast-orf" id="dummy-1_h1_8_72"  />
</g>
<g id="a1_0073"  >
<polygon points="724,85 728,80 728,90 724,85 " style="fill:white; stroke-width:1; stroke:black; " description="&lt;b&gt;BLW85_RS34045&lt;/b&gt;&lt;br&gt;helix-turn-helix domain-containing protein&lt;br&gt;Location: 7207306 - 7206206" locus_tag="BLW85_RS34045" class="clusterblast-orf" id="dummy-1_h1_8_73"  />
</g>
<g id="a1_0074"  >
<polygon points="728,85 729,80 729,90 728,85 " style="fill:white; stroke-width:1; stroke:black; " description="&lt;b&gt;BLW85_RS34040&lt;/b&gt;&lt;br&gt;hypothetical protein&lt;br&gt;Location: 7206195 - 7206004" locus_tag="BLW85_RS34040" class="clusterblast-orf" id="dummy-1_h1_8_74"  />
</g>
<g id="a1_0075"  >
<polygon points="729,85 734,80 741,80 741,90 734,90 729,85 " style="fill:white; stroke-width:1; stroke:black; " description="&lt;b&gt;BLW85_RS34035&lt;/b&gt;&lt;br&gt;tetratricopeptide repeat protein&lt;br&gt;Location: 7205757 - 7202845" locus_tag="BLW85_RS34035" class="clusterblast-orf" id="dummy-1_h1_8_75"  />
</g>
<g id="a1_0076"  >
<polygon points="741,85 746,80 748,80 748,90 746,90 741,85 " style="fill:white; stroke-width:1; stroke:black; " description="&lt;b&gt;BLW85_RS34030&lt;/b&gt;&lt;br&gt;hypothetical protein&lt;br&gt;Location: 7202656 - 7200935" locus_tag="BLW85_RS34030" class="clusterblast-orf" id="dummy-1_h1_8_76"  />
</g>
<g id="a1_0077"  >
<polygon points="750,85 752,80 752,90 750,85 " style="fill:white; stroke-width:1; stroke:black; " description="&lt;b&gt;BLW85_RS34025&lt;/b&gt;&lt;br&gt;hemerythrin&lt;br&gt;Location: 7200466 - 7199891" locus_tag="BLW85_RS34025" class="clusterblast-orf" id="dummy-1_h1_8_77"  />
</g>
<g id="a1_0078"  >
<polygon points="753,90 754,85 753,80 753,90 " style="fill:white; stroke-width:1; stroke:black; " description="&lt;b&gt;BLW85_RS34020&lt;/b&gt;&lt;br&gt;hypothetical protein&lt;br&gt;Location: 7199653 - 7199228" locus_tag="BLW85_RS34020" class="clusterblast-orf" id="dummy-1_h1_8_78"  />
</g>
<g id="a1_0079"  >
<polygon points="755,90 757,85 755,80 755,90 " style="fill:white; stroke-width:1; stroke:black; " description="&lt;b&gt;BLW85_RS34015&lt;/b&gt;&lt;br&gt;NUDIX hydrolase&lt;br&gt;Location: 7199100 - 7198615" locus_tag="BLW85_RS34015" class="clusterblast-orf" id="dummy-1_h1_8_79"  />
</g>
<g id="a1_0080"  >
<polygon points="758,90 760,85 758,80 758,90 " style="fill:white; stroke-width:1; stroke:black; " description="&lt;b&gt;BLW85_RS34010&lt;/b&gt;&lt;br&gt;alpha/beta hydrolase&lt;br&gt;Location: 7198398 - 7197631" locus_tag="BLW85_RS34010" class="clusterblast-orf" id="dummy-1_h1_8_80"  />
</g>
<g id="a1_0081"  >
<polygon points="761,85 766,80 769,80 769,90 766,90 761,85 " style="fill:white; stroke-width:1; stroke:black; " description="&lt;b&gt;BLW85_RS34005&lt;/b&gt;&lt;br&gt;molecular chaperone HtpG&lt;br&gt;Location: 7197433 - 7195532" locus_tag="BLW85_RS34005" class="clusterblast-orf" id="dummy-1_h1_8_81"  />
</g>
<g id="a1_0082"  >
<polygon points="769,85 770,80 770,90 769,85 " style="fill:white; stroke-width:1; stroke:black; " description="&lt;b&gt;BLW85_RS34000&lt;/b&gt;&lt;br&gt;fluoride efflux transporter CrcB&lt;br&gt;Location: 7195451 - 7195077" locus_tag="BLW85_RS34000" class="clusterblast-orf" id="dummy-1_h1_8_82"  />
</g>
<g id="a1_0083"  >
<polygon points="771,85 773,80 773,90 771,85 " style="fill:white; stroke-width:1; stroke:black; " description="&lt;b&gt;BLW85_RS33995&lt;/b&gt;&lt;br&gt;CrcB family protein&lt;br&gt;Location: 7194940 - 7194479" locus_tag="BLW85_RS33995" class="clusterblast-orf" id="dummy-1_h1_8_83"  />
</g>
<g id="a1_0084"  >
<polygon points="774,90 777,85 774,80 774,90 " style="fill:white; stroke-width:1; stroke:black; " description="&lt;b&gt;BLW85_RS33990&lt;/b&gt;&lt;br&gt;LLM class flavin-dependent oxidoreductase&lt;br&gt;Location: 7194220 - 7193363" locus_tag="BLW85_RS33990" class="clusterblast-orf" id="dummy-1_h1_8_84"  />
</g>
<g id="a1_0085"  >
<polygon points="777,85 780,80 780,90 777,85 " style="fill:white; stroke-width:1; stroke:black; " description="&lt;b&gt;BLW85_RS33985&lt;/b&gt;&lt;br&gt;hypothetical protein&lt;br&gt;Location: 7193187 - 7192651" locus_tag="BLW85_RS33985" class="clusterblast-orf" id="dummy-1_h1_8_85"  />
</g>
</svg>
