<svg xmlns="http://www.w3.org/2000/svg" xmlns:xlink="http://www.w3.org/1999/xlink" version="1.1" x="0" y="0" height="230" width="800" viewBox="0 0 800 230" preserveAspectRatio="none"  >
<g label="Query sequence" class="clusterblast-cluster"  >
<text x="5" y="20" class="clusterblast-acc"  >
Query sequence</text>
<line x1="10" y1="35" x2="778.0" y2="35" style="stroke-width:1; stroke:grey; "  />
<polygon points="258,35 263,30 263,30 263,40 263,40 258,35 " style="fill:white; stroke-width:1; stroke:black; " description="&lt;b&gt;ctg305_1&lt;/b&gt;&lt;br&gt;ctg305 1&lt;br&gt;Location: 0 - 123" locus_tag="ctg305_1" class="clusterblast-orf" id="dummy-1_q0_0_all"  />
<polygon points="264,40 278,40 283,35 278,30 264,30 264,40 " style="fill:#d81515; stroke-width:1; stroke:black; " description="&lt;b&gt;ctg305_2&lt;/b&gt;&lt;br&gt;ctg305 2&lt;br&gt;Location: 144 - 609" locus_tag="ctg305_2" class="clusterblast-orf" id="dummy-1_q1_0_all"  />
<polygon points="283,40 313,40 318,35 313,30 283,30 283,40 " style="fill:#4dd815; stroke-width:1; stroke:black; " description="&lt;b&gt;ctg305_3&lt;/b&gt;&lt;br&gt;ctg305 3&lt;br&gt;Location: 605 - 1460" locus_tag="ctg305_3" class="clusterblast-orf" id="dummy-1_q2_0_all"  />
<polygon points="317,40 387,40 392,35 387,30 317,30 317,40 " style="fill:#1585d8; stroke-width:1; stroke:black; " description="&lt;b&gt;ctg305_4&lt;/b&gt;&lt;br&gt;ctg305 4&lt;br&gt;Location: 1437 - 3264" locus_tag="ctg305_4" class="clusterblast-orf" id="dummy-1_q3_0_all"  />
<polygon points="398,40 410,40 415,35 410,30 398,30 398,40 " style="fill:#d815bc; stroke-width:1; stroke:black; " description="&lt;b&gt;ctg305_5&lt;/b&gt;&lt;br&gt;ctg305 5&lt;br&gt;Location: 3403 - 3817" locus_tag="ctg305_5" class="clusterblast-orf" id="dummy-1_q4_0_all"  />
<polygon points="416,40 471,40 476,35 471,30 416,30 416,40 " style="fill:#d8bc15; stroke-width:1; stroke:black; " description="&lt;b&gt;ctg305_6&lt;/b&gt;&lt;br&gt;ctg305 6&lt;br&gt;Location: 3837 - 5298" locus_tag="ctg305_6" class="clusterblast-orf" id="dummy-1_q5_0_all"  />
<polygon points="475,40 482,40 487,35 482,30 475,30 475,40 " style="fill:#15d885; stroke-width:1; stroke:black; " description="&lt;b&gt;ctg305_7&lt;/b&gt;&lt;br&gt;ctg305 7&lt;br&gt;Location: 5294 - 5567" locus_tag="ctg305_7" class="clusterblast-orf" id="dummy-1_q6_0_all"  />
<polygon points="487,35 492,30 522,30 522,40 492,40 487,35 " style="fill:#4d15d8; stroke-width:1; stroke:black; " description="&lt;b&gt;ctg305_8&lt;/b&gt;&lt;br&gt;ctg305 8&lt;br&gt;Location: 5578 - 6421" locus_tag="ctg305_8" class="clusterblast-orf" id="dummy-1_q7_0_all"  />
</g>
<g label="NZ_LIVW01000003" description="NZ_LIVW01000003_c18: Streptomyces sp. CB02115 scaffold3, whole genome shotgun... (26% of genes show similarity), linaridin" class="clusterblast-cluster"  >
<text x="5" y="70" class="clusterblast-acc"  >
<a xlink:href="https://antismash-db.secondarymetabolites.org/go/NZ_LIVW01000003/18" target="_blank">NZ_LIVW01000003_c18</a>: Streptomyces sp. CB02115 scaffold3, whole genome shotgun... (26% of genes show similarity), linaridin</text>
<line x1="10" y1="85" x2="778.0" y2="85" style="stroke-width:1; stroke:grey; "  />
</g>
<g id="a1_000"  >
<polygon points="0,85 5,80 20,80 20,90 5,90 0,85 " style="fill:white; stroke-width:1; stroke:black; " description="&lt;b&gt;AMK28_RS19950&lt;/b&gt;&lt;br&gt;hypothetical protein&lt;br&gt;Location: 596808 - 596308" locus_tag="AMK28_RS19950" class="clusterblast-orf" id="dummy-1_h1_7_0"  />
</g>
<g id="a1_001"  >
<polygon points="24,85 29,80 43,80 43,90 29,90 24,85 " style="fill:white; stroke-width:1; stroke:black; " description="&lt;b&gt;AMK28_RS19945&lt;/b&gt;&lt;br&gt;DUF309 domain-containing protein&lt;br&gt;Location: 596217 - 595738" locus_tag="AMK28_RS19945" class="clusterblast-orf" id="dummy-1_h1_7_1"  />
</g>
<g id="a1_002"  >
<polygon points="48,90 152,90 157,85 152,80 48,80 48,90 " style="fill:white; stroke-width:1; stroke:black; " description="&lt;b&gt;AMK28_RS19940&lt;/b&gt;&lt;br&gt;hypothetical protein&lt;br&gt;Location: 595627 - 592972" locus_tag="AMK28_RS19940" class="clusterblast-orf" id="dummy-1_h1_7_2"  />
</g>
<g id="a1_003"  >
<polygon points="171,85 176,80 178,80 178,90 176,90 171,85 " style="fill:white; stroke-width:1; stroke:black; " description="&lt;b&gt;AMK28_RS38820&lt;/b&gt;&lt;br&gt;serine/threonine protein kinase&lt;br&gt;Location: 592621 - 592460" locus_tag="AMK28_RS38820" class="clusterblast-orf" id="dummy-1_h1_7_3"  />
</g>
<g id="a1_004"  >
<polygon points="177,90 183,90 188,85 183,80 177,80 177,90 " style="fill:white; stroke-width:1; stroke:black; " description="&lt;b&gt;AMK28_RS19930&lt;/b&gt;&lt;br&gt;hypothetical protein&lt;br&gt;Location: 592488 - 592211" locus_tag="AMK28_RS19930" class="clusterblast-orf" id="dummy-1_h1_7_4"  />
</g>
<g id="a1_005"  >
<polygon points="188,85 193,80 208,80 208,90 193,90 188,85 " style="fill:white; stroke-width:1; stroke:black; " description="&lt;b&gt;AMK28_RS19925&lt;/b&gt;&lt;br&gt;N-acetyltransferase&lt;br&gt;Location: 592207 - 591737" locus_tag="AMK28_RS19925" class="clusterblast-orf" id="dummy-1_h1_7_5"  />
</g>
<g id="a1_006"  >
<polygon points="219,90 223,85 219,80 219,90 " style="fill:white; stroke-width:1; stroke:black; " description="&lt;b&gt;AMK28_RS38815&lt;/b&gt;&lt;br&gt;IS5/IS1182 family transposase&lt;br&gt;Location: 591475 - 591374" locus_tag="AMK28_RS38815" class="clusterblast-orf" id="dummy-1_h1_7_6"  />
</g>
<g id="a1_007"  >
<polygon points="233,90 237,90 242,85 237,80 233,80 233,90 " style="fill:white; stroke-width:1; stroke:black; " description="&lt;b&gt;AMK28_RS19915&lt;/b&gt;&lt;br&gt;hypothetical protein&lt;br&gt;Location: 591116 - 590913" locus_tag="AMK28_RS19915" class="clusterblast-orf" id="dummy-1_h1_7_7"  />
</g>
<g id="a1_008"  >
<polygon points="264,90 267,90 272,85 267,80 264,80 264,90 " style="fill:white; stroke-width:1; stroke:black; " description="&lt;b&gt;AMK28_RS19910&lt;/b&gt;&lt;br&gt;hypothetical protein&lt;br&gt;Location: 590374 - 590180" locus_tag="AMK28_RS19910" class="clusterblast-orf" id="dummy-1_h1_7_8"  />
</g>
<g id="a1_009"  >
<polygon points="274,90 277,90 282,85 277,80 274,80 274,90 " style="fill:white; stroke-width:1; stroke:black; " description="&lt;b&gt;AMK28_RS19905&lt;/b&gt;&lt;br&gt;hypothetical protein&lt;br&gt;Location: 590119 - 589922" locus_tag="AMK28_RS19905" class="clusterblast-orf" id="dummy-1_h1_7_9"  />
</g>
<g id="a1_0010"  >
<polygon points="305,90 376,90 381,85 376,80 305,80 305,90 " style="fill:white; stroke-width:1; stroke:black; " description="&lt;b&gt;AMK28_RS19900&lt;/b&gt;&lt;br&gt;thioesterase&lt;br&gt;Location: 589379 - 587529" locus_tag="AMK28_RS19900" class="clusterblast-orf" id="dummy-1_h1_7_10"  />
</g>
<g id="a1_0011"  >
<polygon points="381,90 400,90 405,85 400,80 381,80 381,90 " style="fill:#d81515; stroke-width:1; stroke:black; " description="&lt;b&gt;AMK28_RS19895&lt;/b&gt;&lt;br&gt;hypothetical protein&lt;br&gt;Location: 587532 - 586924&lt;br&gt;&lt;br&gt;&lt;b&gt;BlastP hit with ctg305_2&lt;/b&gt;&lt;br&gt;Percentage identity: 58&lt;br&gt;Percentage coverage: 99&lt;br&gt;BLAST bit score: 190&lt;br&gt;E-value: 1.5e-46" locus_tag="AMK28_RS19895" class="clusterblast-orf" id="dummy-1_h1_7_11"  />
</g>
<g id="a1_0012"  >
<polygon points="405,90 434,90 439,85 434,80 405,80 405,90 " style="fill:#4dd815; stroke-width:1; stroke:black; " description="&lt;b&gt;AMK28_RS19890&lt;/b&gt;&lt;br&gt;class I SAM-dependent methyltransferase&lt;br&gt;Location: 586927 - 586115&lt;br&gt;&lt;br&gt;&lt;b&gt;BlastP hit with ctg305_3&lt;/b&gt;&lt;br&gt;Percentage identity: 66&lt;br&gt;Percentage coverage: 86&lt;br&gt;BLAST bit score: 328&lt;br&gt;E-value: 6.4e-88" locus_tag="AMK28_RS19890" class="clusterblast-orf" id="dummy-1_h1_7_12"  />
</g>
<g id="a1_0013"  >
<polygon points="439,90 512,90 517,85 512,80 439,80 439,90 " style="fill:#1585d8; stroke-width:1; stroke:black; " description="&lt;b&gt;AMK28_RS19885&lt;/b&gt;&lt;br&gt;ABC transporter ATP-binding protein&lt;br&gt;Location: 586118 - 584217&lt;br&gt;&lt;br&gt;&lt;b&gt;BlastP hit with ctg305_4&lt;/b&gt;&lt;br&gt;Percentage identity: 66&lt;br&gt;Percentage coverage: 100&lt;br&gt;BLAST bit score: 703&lt;br&gt;E-value: 1.6e-200" locus_tag="AMK28_RS19885" class="clusterblast-orf" id="dummy-1_h1_7_13"  />
</g>
<g id="a1_0014"  >
<polygon points="517,90 572,90 577,85 572,80 517,80 517,90 " style="fill:#d8bc15; stroke-width:1; stroke:black; " description="&lt;b&gt;AMK28_RS19880&lt;/b&gt;&lt;br&gt;NAD(P)/FAD-dependent oxidoreductase&lt;br&gt;Location: 584211 - 582751&lt;br&gt;&lt;br&gt;&lt;b&gt;BlastP hit with ctg305_6&lt;/b&gt;&lt;br&gt;Percentage identity: 73&lt;br&gt;Percentage coverage: 99&lt;br&gt;BLAST bit score: 692&lt;br&gt;E-value: 2.9e-197" locus_tag="AMK28_RS19880" class="clusterblast-orf" id="dummy-1_h1_7_14"  />
</g>
<g id="a1_0015"  >
<polygon points="579,85 584,80 621,80 621,90 584,90 579,85 " style="fill:#4d15d8; stroke-width:1; stroke:black; " description="&lt;b&gt;AMK28_RS19875&lt;/b&gt;&lt;br&gt;LuxR family transcriptional regulator&lt;br&gt;Location: 582697 - 581684&lt;br&gt;&lt;br&gt;&lt;b&gt;BlastP hit with ctg305_8&lt;/b&gt;&lt;br&gt;Percentage identity: 48&lt;br&gt;Percentage coverage: 102&lt;br&gt;BLAST bit score: 242&lt;br&gt;E-value: 7.8e-62" locus_tag="AMK28_RS19875" class="clusterblast-orf" id="dummy-1_h1_7_15"  />
</g>
<g id="a1_0016"  >
<polygon points="629,90 700,90 705,85 700,80 629,80 629,90 " style="fill:white; stroke-width:1; stroke:black; " description="&lt;b&gt;AMK28_RS19870&lt;/b&gt;&lt;br&gt;hypothetical protein&lt;br&gt;Location: 581494 - 579641" locus_tag="AMK28_RS19870" class="clusterblast-orf" id="dummy-1_h1_7_16"  />
</g>
<g id="a1_0017"  >
<polygon points="731,85 736,80 746,80 746,90 736,90 731,85 " style="fill:white; stroke-width:1; stroke:black; " description="&lt;b&gt;AMK28_RS38810&lt;/b&gt;&lt;br&gt;hypothetical protein&lt;br&gt;Location: 578991 - 578644" locus_tag="AMK28_RS38810" class="clusterblast-orf" id="dummy-1_h1_7_17"  />
</g>
<g id="a1_0018"  >
<polygon points="766,90 775,90 780,85 775,80 766,80 766,90 " style="fill:white; stroke-width:1; stroke:black; " description="&lt;b&gt;AMK28_RS19860&lt;/b&gt;&lt;br&gt;hypothetical protein&lt;br&gt;Location: 578136 - 577819" locus_tag="AMK28_RS19860" class="clusterblast-orf" id="dummy-1_h1_7_18"  />
</g>
</svg>
