<svg xmlns="http://www.w3.org/2000/svg" xmlns:xlink="http://www.w3.org/1999/xlink" version="1.1" x="0" y="0" height="230" width="800" viewBox="0 0 800 230" preserveAspectRatio="none"  >
<g label="Query sequence" class="clusterblast-cluster"  >
<text x="5" y="20" class="clusterblast-acc"  >
Query sequence</text>
<line x1="10" y1="35" x2="778.0" y2="35" style="stroke-width:1; stroke:grey; "  />
<polygon points="303,40 310,40 315,35 310,30 303,30 303,40 " style="fill:#d81515; stroke-width:1; stroke:black; " description="&lt;b&gt;ctg114_1&lt;/b&gt;&lt;br&gt;ctg114 1&lt;br&gt;Location: 82 - 1120" locus_tag="ctg114_1" class="clusterblast-orf" id="dummy-1_q0_0_all"  />
<polygon points="322,40 325,40 330,35 325,30 322,30 322,40 " style="fill:#15d815; stroke-width:1; stroke:black; " description="&lt;b&gt;ctg114_2&lt;/b&gt;&lt;br&gt;ctg114 2&lt;br&gt;Location: 1749 - 2454" locus_tag="ctg114_2" class="clusterblast-orf" id="dummy-1_q1_0_all"  />
<polygon points="330,40 440,40 445,35 440,30 330,30 330,40 " style="fill:#1515d8; stroke-width:1; stroke:black; " description="&lt;b&gt;ctg114_3&lt;/b&gt;&lt;br&gt;ctg114 3&lt;br&gt;Location: 2480 - 12737" locus_tag="ctg114_3" class="clusterblast-orf" id="dummy-1_q2_0_all"  />
<polygon points="445,40 471,40 476,35 471,30 445,30 445,40 " style="fill:#1515d8; stroke-width:1; stroke:black; " description="&lt;b&gt;ctg114_4&lt;/b&gt;&lt;br&gt;ctg114 4&lt;br&gt;Location: 12759 - 15555" locus_tag="ctg114_4" class="clusterblast-orf" id="dummy-1_q3_0_all"  />
</g>
<g label="NZ_GG657754" description="NZ_GG657754_c30: Streptomyces himastatinicus ATCC 53653 supercont1.1, whole g... (10% of genes show similarity), nrps" class="clusterblast-cluster"  >
<text x="5" y="70" class="clusterblast-acc"  >
<a xlink:href="https://antismash-db.secondarymetabolites.org/go/NZ_GG657754/30" target="_blank">NZ_GG657754_c30</a>: Streptomyces himastatinicus ATCC 53653 supercont1.1, whole g... (10% of genes show similarity), nrps</text>
<line x1="10" y1="85" x2="778.0" y2="85" style="stroke-width:1; stroke:grey; "  />
</g>
<g id="a1_000"  >
<polygon points="0,85 5,80 10,80 10,90 5,90 0,85 " style="fill:white; stroke-width:1; stroke:black; " description="&lt;b&gt;SSOG_RS38325&lt;/b&gt;&lt;br&gt;putative myo-inositol catabolism protein&lt;br&gt;Location: 8994952 - 8995896" locus_tag="SSOG_RS38325" class="clusterblast-orf" id="dummy-1_h1_4_0"  />
</g>
<g id="a1_001"  >
<polygon points="10,85 15,80 23,80 23,90 15,90 10,85 " style="fill:white; stroke-width:1; stroke:black; " description="&lt;b&gt;SSOG_RS38330&lt;/b&gt;&lt;br&gt;gfo/Idh/MocA family oxidoreductase&lt;br&gt;Location: 8995919 - 8997094" locus_tag="SSOG_RS38330" class="clusterblast-orf" id="dummy-1_h1_4_1"  />
</g>
<g id="a1_002"  >
<polygon points="26,90 32,90 37,85 32,80 26,80 26,90 " style="fill:white; stroke-width:1; stroke:black; " description="&lt;b&gt;SSOG_RS38335&lt;/b&gt;&lt;br&gt;LacI family transcriptional regulator&lt;br&gt;Location: 8997304 - 8998287" locus_tag="SSOG_RS38335" class="clusterblast-orf" id="dummy-1_h1_4_2"  />
</g>
<g id="a1_003"  >
<polygon points="37,85 42,80 59,80 59,90 42,90 37,85 " style="fill:white; stroke-width:1; stroke:black; " description="&lt;b&gt;SSOG_RS38340&lt;/b&gt;&lt;br&gt;APC family permease&lt;br&gt;Location: 8998300 - 9000270" locus_tag="SSOG_RS38340" class="clusterblast-orf" id="dummy-1_h1_4_3"  />
</g>
<g id="a1_004"  >
<polygon points="62,90 63,90 68,85 63,80 62,80 62,90 " style="fill:white; stroke-width:1; stroke:black; " description="&lt;b&gt;SSOG_RS38345&lt;/b&gt;&lt;br&gt;TetR family transcriptional regulator&lt;br&gt;Location: 9000555 - 9001115" locus_tag="SSOG_RS38345" class="clusterblast-orf" id="dummy-1_h1_4_4"  />
</g>
<g id="a1_005"  >
<polygon points="70,90 74,90 79,85 74,80 70,80 70,90 " style="fill:white; stroke-width:1; stroke:black; " description="&lt;b&gt;SSOG_RS49705&lt;/b&gt;&lt;br&gt;hypothetical protein&lt;br&gt;Location: 9001237 - 9002071" locus_tag="SSOG_RS49705" class="clusterblast-orf" id="dummy-1_h1_4_5"  />
</g>
<g id="a1_006"  >
<polygon points="80,90 83,90 88,85 83,80 80,80 80,90 " style="fill:white; stroke-width:1; stroke:black; " description="&lt;b&gt;SSOG_RS38355&lt;/b&gt;&lt;br&gt;aminopeptidase&lt;br&gt;Location: 9002172 - 9002864" locus_tag="SSOG_RS38355" class="clusterblast-orf" id="dummy-1_h1_4_6"  />
</g>
<g id="a1_007"  >
<polygon points="90,85 95,80 100,80 100,90 95,90 90,85 " style="fill:white; stroke-width:1; stroke:black; " description="&lt;b&gt;SSOG_RS38360&lt;/b&gt;&lt;br&gt;AraC family transcriptional regulator&lt;br&gt;Location: 9002997 - 9003950" locus_tag="SSOG_RS38360" class="clusterblast-orf" id="dummy-1_h1_4_7"  />
</g>
<g id="a1_008"  >
<polygon points="101,90 106,90 111,85 106,80 101,80 101,90 " style="fill:white; stroke-width:1; stroke:black; " description="&lt;b&gt;SSOG_RS38365&lt;/b&gt;&lt;br&gt;hypothetical protein&lt;br&gt;Location: 9004047 - 9004880" locus_tag="SSOG_RS38365" class="clusterblast-orf" id="dummy-1_h1_4_8"  />
</g>
<g id="a1_009"  >
<polygon points="113,85 118,80 119,80 119,90 118,90 113,85 " style="fill:white; stroke-width:1; stroke:black; " description="&lt;b&gt;SSOG_RS38370&lt;/b&gt;&lt;br&gt;hypothetical protein&lt;br&gt;Location: 9005057 - 9005584" locus_tag="SSOG_RS38370" class="clusterblast-orf" id="dummy-1_h1_4_9"  />
</g>
<g id="a1_0010"  >
<polygon points="120,90 126,90 131,85 126,80 120,80 120,90 " style="fill:white; stroke-width:1; stroke:black; " description="&lt;b&gt;SSOG_RS38375&lt;/b&gt;&lt;br&gt;nucleoside hydrolase&lt;br&gt;Location: 9005754 - 9006682" locus_tag="SSOG_RS38375" class="clusterblast-orf" id="dummy-1_h1_4_10"  />
</g>
<g id="a1_0011"  >
<polygon points="133,90 143,90 148,85 143,80 133,80 133,90 " style="fill:white; stroke-width:1; stroke:black; " description="&lt;b&gt;SSOG_RS38380&lt;/b&gt;&lt;br&gt;MFS transporter&lt;br&gt;Location: 9006888 - 9008220" locus_tag="SSOG_RS38380" class="clusterblast-orf" id="dummy-1_h1_4_11"  />
</g>
<g id="a1_0012"  >
<polygon points="148,90 150,85 148,80 148,90 " style="fill:white; stroke-width:1; stroke:black; " description="&lt;b&gt;SSOG_RS38385&lt;/b&gt;&lt;br&gt;hypothetical protein&lt;br&gt;Location: 9008217 - 9008399" locus_tag="SSOG_RS38385" class="clusterblast-orf" id="dummy-1_h1_4_12"  />
</g>
<g id="a1_0013"  >
<polygon points="151,90 155,90 160,85 155,80 151,80 151,90 " style="fill:white; stroke-width:1; stroke:black; " description="&lt;b&gt;SSOG_RS38390&lt;/b&gt;&lt;br&gt;nucleotidyltransferase domain-containing protein&lt;br&gt;Location: 9008477 - 9009283" locus_tag="SSOG_RS38390" class="clusterblast-orf" id="dummy-1_h1_4_13"  />
</g>
<g id="a1_0014"  >
<polygon points="160,85 165,80 167,80 167,90 165,90 160,85 " style="fill:white; stroke-width:1; stroke:black; " description="&lt;b&gt;SSOG_RS38395&lt;/b&gt;&lt;br&gt;TetR/AcrR family transcriptional regulator&lt;br&gt;Location: 9009297 - 9009893" locus_tag="SSOG_RS38395" class="clusterblast-orf" id="dummy-1_h1_4_14"  />
</g>
<g id="a1_0015"  >
<polygon points="167,90 172,90 177,85 172,80 167,80 167,90 " style="fill:white; stroke-width:1; stroke:black; " description="&lt;b&gt;SSOG_RS38400&lt;/b&gt;&lt;br&gt;class I SAM-dependent methyltransferase&lt;br&gt;Location: 9009927 - 9010781" locus_tag="SSOG_RS38400" class="clusterblast-orf" id="dummy-1_h1_4_15"  />
</g>
<g id="a1_0016"  >
<polygon points="177,90 181,90 186,85 181,80 177,80 177,90 " style="fill:white; stroke-width:1; stroke:black; " description="&lt;b&gt;SSOG_RS38405&lt;/b&gt;&lt;br&gt;methyltransferase domain-containing protein&lt;br&gt;Location: 9010837 - 9011580" locus_tag="SSOG_RS38405" class="clusterblast-orf" id="dummy-1_h1_4_16"  />
</g>
<g id="a1_0017"  >
<polygon points="185,85 189,80 189,90 185,85 " style="fill:white; stroke-width:1; stroke:black; " description="&lt;b&gt;SSOG_RS38410&lt;/b&gt;&lt;br&gt;hypothetical protein&lt;br&gt;Location: 9011560 - 9011916" locus_tag="SSOG_RS38410" class="clusterblast-orf" id="dummy-1_h1_4_17"  />
</g>
<g id="a1_0018"  >
<polygon points="190,85 195,80 200,80 200,90 195,90 190,85 " style="fill:white; stroke-width:1; stroke:black; " description="&lt;b&gt;SSOG_RS38415&lt;/b&gt;&lt;br&gt;acetylglutamate kinase&lt;br&gt;Location: 9011949 - 9012821" locus_tag="SSOG_RS38415" class="clusterblast-orf" id="dummy-1_h1_4_18"  />
</g>
<g id="a1_0019"  >
<polygon points="203,90 205,90 210,85 205,80 203,80 203,90 " style="fill:white; stroke-width:1; stroke:black; " description="&lt;b&gt;SSOG_RS38420&lt;/b&gt;&lt;br&gt;FMN-binding negative transcriptional regulator&lt;br&gt;Location: 9013156 - 9013800" locus_tag="SSOG_RS38420" class="clusterblast-orf" id="dummy-1_h1_4_19"  />
</g>
<g id="a1_0020"  >
<polygon points="211,85 216,80 219,80 219,90 216,90 211,85 " style="fill:white; stroke-width:1; stroke:black; " description="&lt;b&gt;SSOG_RS47805&lt;/b&gt;&lt;br&gt;antibiotic biosynthesis protein&lt;br&gt;Location: 9013872 - 9014563" locus_tag="SSOG_RS47805" class="clusterblast-orf" id="dummy-1_h1_4_20"  />
</g>
<g id="a1_0021"  >
<polygon points="225,85 230,80 232,80 232,90 230,90 225,85 " style="fill:white; stroke-width:1; stroke:black; " description="&lt;b&gt;SSOG_RS38430&lt;/b&gt;&lt;br&gt;hypothetical protein&lt;br&gt;Location: 9015121 - 9015678" locus_tag="SSOG_RS38430" class="clusterblast-orf" id="dummy-1_h1_4_21"  />
</g>
<g id="a1_0022"  >
<polygon points="232,85 237,80 266,80 266,90 237,90 232,85 " style="fill:white; stroke-width:1; stroke:black; " description="&lt;b&gt;SSOG_RS38435&lt;/b&gt;&lt;br&gt;peptide synthetase&lt;br&gt;Location: 9015744 - 9018731" locus_tag="SSOG_RS38435" class="clusterblast-orf" id="dummy-1_h1_4_22"  />
</g>
<g id="a1_0023"  >
<polygon points="267,85 272,80 276,80 276,90 272,90 267,85 " style="fill:white; stroke-width:1; stroke:black; " description="&lt;b&gt;SSOG_RS38440&lt;/b&gt;&lt;br&gt;NAD(P)-dependent oxidoreductase&lt;br&gt;Location: 9018814 - 9019644" locus_tag="SSOG_RS38440" class="clusterblast-orf" id="dummy-1_h1_4_23"  />
</g>
<g id="a1_0024"  >
<polygon points="276,85 281,80 284,80 284,90 281,90 276,85 " style="fill:#15d815; stroke-width:1; stroke:black; " description="&lt;b&gt;SSOG_RS38445&lt;/b&gt;&lt;br&gt;thioesterase&lt;br&gt;Location: 9019659 - 9020357&lt;br&gt;&lt;br&gt;&lt;b&gt;BlastP hit with ctg114_2&lt;/b&gt;&lt;br&gt;Percentage identity: 32&lt;br&gt;Percentage coverage: 99&lt;br&gt;BLAST bit score: 110&lt;br&gt;E-value: 2.3e-22" locus_tag="SSOG_RS38445" class="clusterblast-orf" id="dummy-1_h1_4_24"  />
</g>
<g id="a1_0025"  >
<polygon points="289,90 353,90 358,85 353,80 289,80 289,90 " style="fill:#1515d8; stroke-width:1; stroke:black; " description="&lt;b&gt;SSOG_RS38450&lt;/b&gt;&lt;br&gt;non-ribosomal peptide synthetase&lt;br&gt;Location: 9020792 - 9026968&lt;br&gt;&lt;br&gt;&lt;b&gt;BlastP hit with ctg114_3&lt;/b&gt;&lt;br&gt;Percentage identity: 34&lt;br&gt;Percentage coverage: 47&lt;br&gt;BLAST bit score: 580&lt;br&gt;E-value: 1.5e-162" locus_tag="SSOG_RS38450" class="clusterblast-orf" id="dummy-1_h1_4_25"  />
</g>
<g id="a1_0026"  >
<polygon points="358,90 362,90 367,85 362,80 358,80 358,90 " style="fill:#15d815; stroke-width:1; stroke:black; " description="&lt;b&gt;SSOG_RS38455&lt;/b&gt;&lt;br&gt;thioesterase&lt;br&gt;Location: 9026984 - 9027763&lt;br&gt;&lt;br&gt;&lt;b&gt;BlastP hit with ctg114_2&lt;/b&gt;&lt;br&gt;Percentage identity: 34&lt;br&gt;Percentage coverage: 100&lt;br&gt;BLAST bit score: 123&lt;br&gt;E-value: 4.4e-26" locus_tag="SSOG_RS38455" class="clusterblast-orf" id="dummy-1_h1_4_26"  />
</g>
<g id="a1_0027"  >
<polygon points="370,85 374,80 374,90 370,85 " style="fill:white; stroke-width:1; stroke:black; " description="&lt;b&gt;SSOG_RS50570&lt;/b&gt;&lt;br&gt;hypothetical protein&lt;br&gt;Location: 9028068 - 9028391" locus_tag="SSOG_RS50570" class="clusterblast-orf" id="dummy-1_h1_4_27"  />
</g>
<g id="a1_0028"  >
<polygon points="375,90 404,90 409,85 404,80 375,80 375,90 " style="fill:#1515d8; stroke-width:1; stroke:black; " description="&lt;b&gt;SSOG_RS38460&lt;/b&gt;&lt;br&gt;KR domain-containing protein&lt;br&gt;Location: 9028454 - 9031546&lt;br&gt;&lt;br&gt;&lt;b&gt;BlastP hit with ctg114_4&lt;/b&gt;&lt;br&gt;Percentage identity: 35&lt;br&gt;Percentage coverage: 68&lt;br&gt;BLAST bit score: 297&lt;br&gt;E-value: 4e-78" locus_tag="SSOG_RS38460" class="clusterblast-orf" id="dummy-1_h1_4_28"  />
</g>
<g id="a1_0029"  >
<polygon points="412,90 463,90 468,85 463,80 412,80 412,90 " style="fill:#1515d8; stroke-width:1; stroke:black; " description="&lt;b&gt;SSOG_RS47205&lt;/b&gt;&lt;br&gt;non-ribosomal peptide synthetase&lt;br&gt;Location: 9031844 - 9036844&lt;br&gt;&lt;br&gt;&lt;b&gt;BlastP hit with ctg114_3&lt;/b&gt;&lt;br&gt;Percentage identity: 32&lt;br&gt;Percentage coverage: 49&lt;br&gt;BLAST bit score: 578&lt;br&gt;E-value: 5.6e-162" locus_tag="SSOG_RS47205" class="clusterblast-orf" id="dummy-1_h1_4_29"  />
</g>
<g id="a1_0030"  >
<polygon points="468,90 491,90 496,85 491,80 468,80 468,90 " style="fill:white; stroke-width:1; stroke:black; " description="&lt;b&gt;SSOG_RS38465&lt;/b&gt;&lt;br&gt;non-ribosomal peptide synthetase&lt;br&gt;Location: 9036841 - 9039297" locus_tag="SSOG_RS38465" class="clusterblast-orf" id="dummy-1_h1_4_30"  />
</g>
<g id="a1_0031"  >
<polygon points="521,90 562,90 567,85 562,80 521,80 521,90 " style="fill:white; stroke-width:1; stroke:black; " description="&lt;b&gt;SSOG_RS38470&lt;/b&gt;&lt;br&gt;hypothetical protein&lt;br&gt;Location: 9041513 - 9045678" locus_tag="SSOG_RS38470" class="clusterblast-orf" id="dummy-1_h1_4_31"  />
</g>
<g id="a1_0032"  >
<polygon points="569,90 576,90 581,85 576,80 569,80 569,90 " style="fill:white; stroke-width:1; stroke:black; " description="&lt;b&gt;SSOG_RS38475&lt;/b&gt;&lt;br&gt;non-ribosomal peptide synthetase&lt;br&gt;Location: 9045867 - 9046874" locus_tag="SSOG_RS38475" class="clusterblast-orf" id="dummy-1_h1_4_32"  />
</g>
<g id="a1_0033"  >
<polygon points="581,90 591,90 596,85 591,80 581,80 581,90 " style="fill:white; stroke-width:1; stroke:black; " description="&lt;b&gt;SSOG_RS38480&lt;/b&gt;&lt;br&gt;L-ornithine 5-monooxygenase&lt;br&gt;Location: 9046940 - 9048238" locus_tag="SSOG_RS38480" class="clusterblast-orf" id="dummy-1_h1_4_33"  />
</g>
<g id="a1_0034"  >
<polygon points="596,90 598,85 596,80 596,90 " style="fill:white; stroke-width:1; stroke:black; " description="&lt;b&gt;SSOG_RS38485&lt;/b&gt;&lt;br&gt;MbtH family protein&lt;br&gt;Location: 9048235 - 9048450" locus_tag="SSOG_RS38485" class="clusterblast-orf" id="dummy-1_h1_4_34"  />
</g>
<g id="a1_0035"  >
<polygon points="599,90 607,90 612,85 607,80 599,80 599,90 " style="fill:white; stroke-width:1; stroke:black; " description="&lt;b&gt;SSOG_RS38490&lt;/b&gt;&lt;br&gt;cytochrome P450&lt;br&gt;Location: 9048473 - 9049672" locus_tag="SSOG_RS38490" class="clusterblast-orf" id="dummy-1_h1_4_35"  />
</g>
<g id="a1_0036"  >
<polygon points="614,90 615,90 620,85 615,80 614,80 614,90 " style="fill:white; stroke-width:1; stroke:black; " description="&lt;b&gt;SSOG_RS38495&lt;/b&gt;&lt;br&gt;histidine kinase&lt;br&gt;Location: 9049852 - 9050355" locus_tag="SSOG_RS38495" class="clusterblast-orf" id="dummy-1_h1_4_36"  />
</g>
<g id="a1_0037"  >
<polygon points="620,90 625,90 630,85 625,80 620,80 620,90 " style="fill:white; stroke-width:1; stroke:black; " description="&lt;b&gt;SSOG_RS38500&lt;/b&gt;&lt;br&gt;hypothetical protein&lt;br&gt;Location: 9050396 - 9051247" locus_tag="SSOG_RS38500" class="clusterblast-orf" id="dummy-1_h1_4_37"  />
</g>
<g id="a1_0038"  >
<polygon points="631,90 636,90 641,85 636,80 631,80 631,90 " style="fill:white; stroke-width:1; stroke:black; " description="&lt;b&gt;SSOG_RS38505&lt;/b&gt;&lt;br&gt;ABC transporter ATP-binding protein&lt;br&gt;Location: 9051352 - 9052260" locus_tag="SSOG_RS38505" class="clusterblast-orf" id="dummy-1_h1_4_38"  />
</g>
<g id="a1_0039"  >
<polygon points="641,90 645,90 650,85 645,80 641,80 641,90 " style="fill:white; stroke-width:1; stroke:black; " description="&lt;b&gt;SSOG_RS38510&lt;/b&gt;&lt;br&gt;ABC transporter permease&lt;br&gt;Location: 9052257 - 9053099" locus_tag="SSOG_RS38510" class="clusterblast-orf" id="dummy-1_h1_4_39"  />
</g>
<g id="a1_0040"  >
<polygon points="652,90 661,90 666,85 661,80 652,80 652,90 " style="fill:white; stroke-width:1; stroke:black; " description="&lt;b&gt;SSOG_RS38515&lt;/b&gt;&lt;br&gt;cytochrome P450&lt;br&gt;Location: 9053252 - 9054484" locus_tag="SSOG_RS38515" class="clusterblast-orf" id="dummy-1_h1_4_40"  />
</g>
<g id="a1_0041"  >
<polygon points="666,90 675,90 680,85 675,80 666,80 666,90 " style="fill:white; stroke-width:1; stroke:black; " description="&lt;b&gt;SSOG_RS38520&lt;/b&gt;&lt;br&gt;cytochrome P450&lt;br&gt;Location: 9054532 - 9055725" locus_tag="SSOG_RS38520" class="clusterblast-orf" id="dummy-1_h1_4_41"  />
</g>
<g id="a1_0042"  >
<polygon points="680,90 687,90 692,85 687,80 680,80 680,90 " style="fill:white; stroke-width:1; stroke:black; " description="&lt;b&gt;SSOG_RS38525&lt;/b&gt;&lt;br&gt;hypothetical protein&lt;br&gt;Location: 9055739 - 9056812" locus_tag="SSOG_RS38525" class="clusterblast-orf" id="dummy-1_h1_4_42"  />
</g>
<g id="a1_0043"  >
<polygon points="692,85 697,80 728,80 728,90 697,90 692,85 " style="fill:white; stroke-width:1; stroke:black; " description="&lt;b&gt;SSOG_RS38530&lt;/b&gt;&lt;br&gt;AfsR family transcriptional regulator&lt;br&gt;Location: 9056828 - 9060040" locus_tag="SSOG_RS38530" class="clusterblast-orf" id="dummy-1_h1_4_43"  />
</g>
<g id="a1_0044"  >
<polygon points="729,85 734,80 745,80 745,90 734,90 729,85 " style="fill:white; stroke-width:1; stroke:black; " description="&lt;b&gt;SSOG_RS38535&lt;/b&gt;&lt;br&gt;gluconate transporter&lt;br&gt;Location: 9060089 - 9061534" locus_tag="SSOG_RS38535" class="clusterblast-orf" id="dummy-1_h1_4_44"  />
</g>
<g id="a1_0045"  >
<polygon points="745,85 750,80 760,80 760,90 750,90 745,85 " style="fill:white; stroke-width:1; stroke:black; " description="&lt;b&gt;SSOG_RS38540&lt;/b&gt;&lt;br&gt;MFS transporter&lt;br&gt;Location: 9061590 - 9062867" locus_tag="SSOG_RS38540" class="clusterblast-orf" id="dummy-1_h1_4_45"  />
</g>
<g id="a1_0046"  >
<polygon points="760,85 765,80 769,80 769,90 765,90 760,85 " style="fill:white; stroke-width:1; stroke:black; " description="&lt;b&gt;SSOG_RS38545&lt;/b&gt;&lt;br&gt;GntR family transcriptional regulator&lt;br&gt;Location: 9062914 - 9063687" locus_tag="SSOG_RS38545" class="clusterblast-orf" id="dummy-1_h1_4_46"  />
</g>
<g id="a1_0047"  >
<polygon points="770,90 775,90 780,85 775,80 770,80 770,90 " style="fill:white; stroke-width:1; stroke:black; " description="&lt;b&gt;SSOG_RS38550&lt;/b&gt;&lt;br&gt;hypothetical protein&lt;br&gt;Location: 9063806 - 9064633" locus_tag="SSOG_RS38550" class="clusterblast-orf" id="dummy-1_h1_4_47"  />
</g>
</svg>
