<svg xmlns="http://www.w3.org/2000/svg" xmlns:xlink="http://www.w3.org/1999/xlink" version="1.1" x="0" y="0" height="230" width="800" viewBox="0 0 800 230" preserveAspectRatio="none"  >
<g label="Query sequence" class="clusterblast-cluster"  >
<text x="5" y="20" class="clusterblast-acc"  >
Query sequence</text>
<line x1="10" y1="35" x2="778.0" y2="35" style="stroke-width:1; stroke:grey; "  />
<polygon points="70,40 72,35 70,30 70,40 " style="fill:#d81515; stroke-width:1; stroke:black; " description="&lt;b&gt;ctg14_1&lt;/b&gt;&lt;br&gt;ctg14 1&lt;br&gt;Location: 2 - 119" locus_tag="ctg14_1" class="clusterblast-orf" id="dummy-1_q0_0_all"  />
<polygon points="73,35 78,30 96,30 96,40 78,40 73,35 " style="fill:#77d815; stroke-width:1; stroke:black; " description="&lt;b&gt;ctg14_2&lt;/b&gt;&lt;br&gt;ctg14 2&lt;br&gt;Location: 186 - 1635" locus_tag="ctg14_2" class="clusterblast-orf" id="dummy-1_q1_0_all"  />
<polygon points="100,40 114,40 119,35 114,30 100,30 100,40 " style="fill:#15d8d8; stroke-width:1; stroke:black; " description="&lt;b&gt;ctg14_3&lt;/b&gt;&lt;br&gt;ctg14 3&lt;br&gt;Location: 1828 - 3061" locus_tag="ctg14_3" class="clusterblast-orf" id="dummy-1_q2_0_all"  />
<polygon points="119,40 121,40 126,35 121,30 119,30 119,40 " style="fill:#7715d8; stroke-width:1; stroke:black; " description="&lt;b&gt;ctg14_4&lt;/b&gt;&lt;br&gt;ctg14 4&lt;br&gt;Location: 3057 - 3471" locus_tag="ctg14_4" class="clusterblast-orf" id="dummy-1_q3_0_all"  />
<polygon points="126,35 131,30 137,30 137,40 131,40 126,35 " style="fill:#7715d8; stroke-width:1; stroke:black; " description="&lt;b&gt;ctg14_5&lt;/b&gt;&lt;br&gt;ctg14 5&lt;br&gt;Location: 3481 - 4162" locus_tag="ctg14_5" class="clusterblast-orf" id="dummy-1_q4_0_all"  />
<polygon points="147,40 153,40 158,35 153,30 147,30 147,40 " style="fill:#7715d8; stroke-width:1; stroke:black; " description="&lt;b&gt;ctg14_6&lt;/b&gt;&lt;br&gt;ctg14 6&lt;br&gt;Location: 4786 - 5452" locus_tag="ctg14_6" class="clusterblast-orf" id="dummy-1_q5_0_all"  />
<polygon points="160,40 167,40 172,35 167,30 160,30 160,40 " style="fill:#d83f15; stroke-width:1; stroke:black; " description="&lt;b&gt;ctg14_7&lt;/b&gt;&lt;br&gt;ctg14 7&lt;br&gt;Location: 5599 - 6319" locus_tag="ctg14_7" class="clusterblast-orf" id="dummy-1_q6_0_all"  />
<polygon points="172,40 187,40 192,35 187,30 172,30 172,40 " style="fill:#4dd815; stroke-width:1; stroke:black; " description="&lt;b&gt;ctg14_8&lt;/b&gt;&lt;br&gt;ctg14 8&lt;br&gt;Location: 6315 - 7548" locus_tag="ctg14_8" class="clusterblast-orf" id="dummy-1_q7_0_all"  />
<polygon points="191,40 197,40 202,35 197,30 191,30 191,40 " style="fill:#15aed8; stroke-width:1; stroke:black; " description="&lt;b&gt;ctg14_9&lt;/b&gt;&lt;br&gt;ctg14 9&lt;br&gt;Location: 7535 - 8180" locus_tag="ctg14_9" class="clusterblast-orf" id="dummy-1_q8_0_all"  />
<polygon points="202,40 210,40 215,35 210,30 202,30 202,40 " style="fill:#a115d8; stroke-width:1; stroke:black; " description="&lt;b&gt;ctg14_10&lt;/b&gt;&lt;br&gt;ctg14 10&lt;br&gt;Location: 8176 - 8989" locus_tag="ctg14_10" class="clusterblast-orf" id="dummy-1_q9_0_all"  />
<polygon points="218,40 237,40 242,35 237,30 218,30 218,40 " style="fill:#d86915; stroke-width:1; stroke:black; " description="&lt;b&gt;ctg14_11&lt;/b&gt;&lt;br&gt;ctg14 11&lt;br&gt;Location: 9218 - 10688" locus_tag="ctg14_11" class="clusterblast-orf" id="dummy-1_q10_0_all"  />
<polygon points="243,40 254,40 259,35 254,30 243,30 243,40 " style="fill:#23d815; stroke-width:1; stroke:black; " description="&lt;b&gt;ctg14_12&lt;/b&gt;&lt;br&gt;ctg14 12&lt;br&gt;Location: 10766 - 11747" locus_tag="ctg14_12" class="clusterblast-orf" id="dummy-1_q11_0_all"  />
<polygon points="259,40 274,40 279,35 274,30 259,30 259,40 " style="fill:#1585d8; stroke-width:1; stroke:black; " description="&lt;b&gt;ctg14_13&lt;/b&gt;&lt;br&gt;ctg14 13&lt;br&gt;Location: 11757 - 13005" locus_tag="ctg14_13" class="clusterblast-orf" id="dummy-1_q12_0_all"  />
<polygon points="280,35 285,30 289,30 289,40 285,40 280,35 " style="fill:#ca15d8; stroke-width:1; stroke:black; " description="&lt;b&gt;ctg14_14&lt;/b&gt;&lt;br&gt;ctg14 14&lt;br&gt;Location: 13041 - 13641" locus_tag="ctg14_14" class="clusterblast-orf" id="dummy-1_q13_0_all"  />
<polygon points="293,35 297,30 297,40 293,35 " style="fill:#d89315; stroke-width:1; stroke:black; " description="&lt;b&gt;ctg14_15&lt;/b&gt;&lt;br&gt;ctg14 15&lt;br&gt;Location: 13871 - 14120" locus_tag="ctg14_15" class="clusterblast-orf" id="dummy-1_q14_0_all"  />
<polygon points="298,35 303,30 312,30 312,40 303,40 298,35 " style="fill:#15d831; stroke-width:1; stroke:black; " description="&lt;b&gt;ctg14_16&lt;/b&gt;&lt;br&gt;ctg14 16&lt;br&gt;Location: 14152 - 15067" locus_tag="ctg14_16" class="clusterblast-orf" id="dummy-1_q15_0_all"  />
<polygon points="312,35 317,30 331,30 331,40 317,40 312,35 " style="fill:#155bd8; stroke-width:1; stroke:black; " description="&lt;b&gt;ctg14_17&lt;/b&gt;&lt;br&gt;ctg14 17&lt;br&gt;Location: 15063 - 16251" locus_tag="ctg14_17" class="clusterblast-orf" id="dummy-1_q16_0_all"  />
<polygon points="331,35 334,30 334,40 331,35 " style="fill:white; stroke-width:1; stroke:black; " description="&lt;b&gt;ctg14_18&lt;/b&gt;&lt;br&gt;ctg14 18&lt;br&gt;Location: 16256 - 16418" locus_tag="ctg14_18" class="clusterblast-orf" id="dummy-1_q17_0_all"  />
<polygon points="339,40 361,40 366,35 361,30 339,30 339,40 " style="fill:#d815bc; stroke-width:1; stroke:black; " description="&lt;b&gt;ctg14_19&lt;/b&gt;&lt;br&gt;ctg14 19&lt;br&gt;Location: 16709 - 18401" locus_tag="ctg14_19" class="clusterblast-orf" id="dummy-1_q18_0_all"  />
<polygon points="366,40 511,40 516,35 511,30 366,30 366,40 " style="fill:#d8bc15; stroke-width:1; stroke:black; " description="&lt;b&gt;ctg14_20&lt;/b&gt;&lt;br&gt;ctg14 20&lt;br&gt;Location: 18381 - 27747" locus_tag="ctg14_20" class="clusterblast-orf" id="dummy-1_q19_0_all"  />
<polygon points="516,40 525,40 530,35 525,30 516,30 516,40 " style="fill:#15d85b; stroke-width:1; stroke:black; " description="&lt;b&gt;ctg14_21&lt;/b&gt;&lt;br&gt;ctg14 21&lt;br&gt;Location: 27749 - 28601" locus_tag="ctg14_21" class="clusterblast-orf" id="dummy-1_q20_0_all"  />
<polygon points="531,40 535,35 531,30 531,40 " style="fill:#1531d8; stroke-width:1; stroke:black; " description="&lt;b&gt;ctg14_22&lt;/b&gt;&lt;br&gt;ctg14 22&lt;br&gt;Location: 28647 - 28914" locus_tag="ctg14_22" class="clusterblast-orf" id="dummy-1_q21_0_all"  />
<polygon points="535,40 548,40 553,35 548,30 535,30 535,40 " style="fill:#d81593; stroke-width:1; stroke:black; " description="&lt;b&gt;ctg14_23&lt;/b&gt;&lt;br&gt;ctg14 23&lt;br&gt;Location: 28910 - 30050" locus_tag="ctg14_23" class="clusterblast-orf" id="dummy-1_q22_0_all"  />
<polygon points="553,40 565,40 570,35 565,30 553,30 553,40 " style="fill:#cad815; stroke-width:1; stroke:black; " description="&lt;b&gt;ctg14_24&lt;/b&gt;&lt;br&gt;ctg14 24&lt;br&gt;Location: 30046 - 31087" locus_tag="ctg14_24" class="clusterblast-orf" id="dummy-1_q23_0_all"  />
<polygon points="570,40 581,40 586,35 581,30 570,30 570,40 " style="fill:#15d885; stroke-width:1; stroke:black; " description="&lt;b&gt;ctg14_25&lt;/b&gt;&lt;br&gt;ctg14 25&lt;br&gt;Location: 31119 - 32100" locus_tag="ctg14_25" class="clusterblast-orf" id="dummy-1_q24_0_all"  />
<polygon points="586,40 593,40 598,35 593,30 586,30 586,40 " style="fill:#2315d8; stroke-width:1; stroke:black; " description="&lt;b&gt;ctg14_26&lt;/b&gt;&lt;br&gt;ctg14 26&lt;br&gt;Location: 32101 - 32866" locus_tag="ctg14_26" class="clusterblast-orf" id="dummy-1_q25_0_all"  />
<polygon points="598,40 606,40 611,35 606,30 598,30 598,40 " style="fill:#d81569; stroke-width:1; stroke:black; " description="&lt;b&gt;ctg14_27&lt;/b&gt;&lt;br&gt;ctg14 27&lt;br&gt;Location: 32862 - 33636" locus_tag="ctg14_27" class="clusterblast-orf" id="dummy-1_q26_0_all"  />
<polygon points="611,40 631,40 636,35 631,30 611,30 611,40 " style="fill:#a1d815; stroke-width:1; stroke:black; " description="&lt;b&gt;ctg14_28&lt;/b&gt;&lt;br&gt;ctg14 28&lt;br&gt;Location: 33628 - 35236" locus_tag="ctg14_28" class="clusterblast-orf" id="dummy-1_q27_0_all"  />
<polygon points="636,40 643,40 648,35 643,30 636,30 636,40 " style="fill:#15d8ae; stroke-width:1; stroke:black; " description="&lt;b&gt;ctg14_29&lt;/b&gt;&lt;br&gt;ctg14 29&lt;br&gt;Location: 35232 - 35937" locus_tag="ctg14_29" class="clusterblast-orf" id="dummy-1_q28_0_all"  />
<polygon points="648,40 663,40 668,35 663,30 648,30 648,40 " style="fill:#15d8ae; stroke-width:1; stroke:black; " description="&lt;b&gt;ctg14_30&lt;/b&gt;&lt;br&gt;ctg14 30&lt;br&gt;Location: 35933 - 37217" locus_tag="ctg14_30" class="clusterblast-orf" id="dummy-1_q29_0_all"  />
<polygon points="669,40 684,40 689,35 684,30 669,30 669,40 " style="fill:#4d15d8; stroke-width:1; stroke:black; " description="&lt;b&gt;ctg14_31&lt;/b&gt;&lt;br&gt;ctg14 31&lt;br&gt;Location: 37290 - 38529" locus_tag="ctg14_31" class="clusterblast-orf" id="dummy-1_q30_0_all"  />
<polygon points="688,35 693,30 709,30 709,40 693,40 688,35 " style="fill:#d8153f; stroke-width:1; stroke:black; " description="&lt;b&gt;ctg14_32&lt;/b&gt;&lt;br&gt;ctg14 32&lt;br&gt;Location: 38461 - 39754" locus_tag="ctg14_32" class="clusterblast-orf" id="dummy-1_q31_0_all"  />
</g>
<g label="NZ_ALNP01000022" description="NZ_ALNP01000022_c17: Streptomyces sp. AA0539 contig00022, whole genome shotgu... (81% of genes show similarity), t1pks" class="clusterblast-cluster"  >
<text x="5" y="70" class="clusterblast-acc"  >
<a xlink:href="https://antismash-db.secondarymetabolites.org/go/NZ_ALNP01000022/17" target="_blank">NZ_ALNP01000022_c17</a>: Streptomyces sp. AA0539 contig00022, whole genome shotgu... (81% of genes show similarity), t1pks</text>
<line x1="10" y1="85" x2="778.0" y2="85" style="stroke-width:1; stroke:grey; "  />
</g>
<g id="a1_000"  >
<polygon points="0,90 9,90 14,85 9,80 0,80 0,90 " style="fill:white; stroke-width:1; stroke:black; " description="&lt;b&gt;B311_RS0120515&lt;/b&gt;&lt;br&gt;IclR family transcriptional regulator&lt;br&gt;Location: 11535 - 12422" locus_tag="B311_RS0120515" class="clusterblast-orf" id="dummy-1_h1_2_0"  />
</g>
<g id="a1_001"  >
<polygon points="15,90 21,90 26,85 21,80 15,80 15,90 " style="fill:#d81515; stroke-width:1; stroke:black; " description="&lt;b&gt;B311_RS0120520&lt;/b&gt;&lt;br&gt;dipeptidase PepE&lt;br&gt;Location: 12469 - 13200&lt;br&gt;&lt;br&gt;&lt;b&gt;BlastP hit with ctg14_1&lt;/b&gt;&lt;br&gt;Percentage identity: 100&lt;br&gt;Percentage coverage: 100&lt;br&gt;BLAST bit score: 80&lt;br&gt;E-value: 4.1e-14" locus_tag="B311_RS0120520" class="clusterblast-orf" id="dummy-1_h1_2_1"  />
</g>
<g id="a1_002"  >
<polygon points="27,85 32,80 51,80 51,90 32,90 27,85 " style="fill:#77d815; stroke-width:1; stroke:black; " description="&lt;b&gt;B311_RS0120525&lt;/b&gt;&lt;br&gt;argininosuccinate synthase&lt;br&gt;Location: 13268 - 14716&lt;br&gt;&lt;br&gt;&lt;b&gt;BlastP hit with ctg14_2&lt;/b&gt;&lt;br&gt;Percentage identity: 100&lt;br&gt;Percentage coverage: 100&lt;br&gt;BLAST bit score: 964&lt;br&gt;E-value: 5.1e-279" locus_tag="B311_RS0120525" class="clusterblast-orf" id="dummy-1_h1_2_2"  />
</g>
<g id="a1_003"  >
<polygon points="55,90 69,90 74,85 69,80 55,80 55,90 " style="fill:#15d8d8; stroke-width:1; stroke:black; " description="&lt;b&gt;B311_RS0120530&lt;/b&gt;&lt;br&gt;two-component sensor histidine kinase&lt;br&gt;Location: 14978 - 16174&lt;br&gt;&lt;br&gt;&lt;b&gt;BlastP hit with ctg14_3&lt;/b&gt;&lt;br&gt;Percentage identity: 100&lt;br&gt;Percentage coverage: 97&lt;br&gt;BLAST bit score: 758&lt;br&gt;E-value: 2.8e-217" locus_tag="B311_RS0120530" class="clusterblast-orf" id="dummy-1_h1_2_3"  />
</g>
<g id="a1_004"  >
<polygon points="74,90 76,90 81,85 76,80 74,80 74,90 " style="fill:#7715d8; stroke-width:1; stroke:black; " description="&lt;b&gt;B311_RS28815&lt;/b&gt;&lt;br&gt;DNA-binding response regulator&lt;br&gt;Location: 16180 - 16584&lt;br&gt;&lt;br&gt;&lt;b&gt;BlastP hit with ctg14_4&lt;/b&gt;&lt;br&gt;Percentage identity: 99&lt;br&gt;Percentage coverage: 98&lt;br&gt;BLAST bit score: 263&lt;br&gt;E-value: 1.2e-68&lt;br&gt;&lt;br&gt;&lt;b&gt;BlastP hit with ctg14_5&lt;/b&gt;&lt;br&gt;Percentage identity: 61&lt;br&gt;Percentage coverage: 54&lt;br&gt;BLAST bit score: 133&lt;br&gt;E-value: 4.1e-29" locus_tag="B311_RS28815" class="clusterblast-orf" id="dummy-1_h1_2_4"  />
</g>
<g id="a1_005"  >
<polygon points="81,85 86,80 92,80 92,90 86,90 81,85 " style="fill:#7715d8; stroke-width:1; stroke:black; " description="&lt;b&gt;B311_RS0120540&lt;/b&gt;&lt;br&gt;DNA-binding response regulator&lt;br&gt;Location: 16595 - 17275&lt;br&gt;&lt;br&gt;&lt;b&gt;BlastP hit with ctg14_4&lt;/b&gt;&lt;br&gt;Percentage identity: 61&lt;br&gt;Percentage coverage: 89&lt;br&gt;BLAST bit score: 129&lt;br&gt;E-value: 2.1e-28&lt;br&gt;&lt;br&gt;&lt;b&gt;BlastP hit with ctg14_5&lt;/b&gt;&lt;br&gt;Percentage identity: 100&lt;br&gt;Percentage coverage: 100&lt;br&gt;BLAST bit score: 438&lt;br&gt;E-value: 4.6e-121&lt;br&gt;&lt;br&gt;&lt;b&gt;BlastP hit with ctg14_6&lt;/b&gt;&lt;br&gt;Percentage identity: 31&lt;br&gt;Percentage coverage: 101&lt;br&gt;BLAST bit score: 109&lt;br&gt;E-value: 3.7e-22" locus_tag="B311_RS0120540" class="clusterblast-orf" id="dummy-1_h1_2_5"  />
</g>
<g id="a1_006"  >
<polygon points="102,90 107,90 112,85 107,80 102,80 102,90 " style="fill:#7715d8; stroke-width:1; stroke:black; " description="&lt;b&gt;B311_RS0120545&lt;/b&gt;&lt;br&gt;DNA-binding response regulator&lt;br&gt;Location: 17899 - 18564&lt;br&gt;&lt;br&gt;&lt;b&gt;BlastP hit with ctg14_5&lt;/b&gt;&lt;br&gt;Percentage identity: 31&lt;br&gt;Percentage coverage: 99&lt;br&gt;BLAST bit score: 109&lt;br&gt;E-value: 4.9e-22&lt;br&gt;&lt;br&gt;&lt;b&gt;BlastP hit with ctg14_6&lt;/b&gt;&lt;br&gt;Percentage identity: 100&lt;br&gt;Percentage coverage: 100&lt;br&gt;BLAST bit score: 425&lt;br&gt;E-value: 5.1e-117" locus_tag="B311_RS0120545" class="clusterblast-orf" id="dummy-1_h1_2_6"  />
</g>
<g id="a1_007"  >
<polygon points="113,90 121,90 126,85 121,80 113,80 113,90 " style="fill:#d83f15; stroke-width:1; stroke:black; " description="&lt;b&gt;B311_RS30035&lt;/b&gt;&lt;br&gt;hypothetical protein&lt;br&gt;Location: 18571 - 19431&lt;br&gt;&lt;br&gt;&lt;b&gt;BlastP hit with ctg14_7&lt;/b&gt;&lt;br&gt;Percentage identity: 100&lt;br&gt;Percentage coverage: 100&lt;br&gt;BLAST bit score: 355&lt;br&gt;E-value: 5.4e-96" locus_tag="B311_RS30035" class="clusterblast-orf" id="dummy-1_h1_2_7"  />
</g>
<g id="a1_008"  >
<polygon points="126,90 141,90 146,85 141,80 126,80 126,90 " style="fill:#4dd815; stroke-width:1; stroke:black; " description="&lt;b&gt;B311_RS28825&lt;/b&gt;&lt;br&gt;hypothetical protein&lt;br&gt;Location: 19428 - 20660&lt;br&gt;&lt;br&gt;&lt;b&gt;BlastP hit with ctg14_8&lt;/b&gt;&lt;br&gt;Percentage identity: 97&lt;br&gt;Percentage coverage: 100&lt;br&gt;BLAST bit score: 692&lt;br&gt;E-value: 3.2e-197" locus_tag="B311_RS28825" class="clusterblast-orf" id="dummy-1_h1_2_8"  />
</g>
<g id="a1_009"  >
<polygon points="146,90 151,90 156,85 151,80 146,80 146,90 " style="fill:#15aed8; stroke-width:1; stroke:black; " description="&lt;b&gt;B311_RS0120560&lt;/b&gt;&lt;br&gt;DNA-binding response regulator&lt;br&gt;Location: 20648 - 21292&lt;br&gt;&lt;br&gt;&lt;b&gt;BlastP hit with ctg14_9&lt;/b&gt;&lt;br&gt;Percentage identity: 100&lt;br&gt;Percentage coverage: 100&lt;br&gt;BLAST bit score: 409&lt;br&gt;E-value: 2.2e-112" locus_tag="B311_RS0120560" class="clusterblast-orf" id="dummy-1_h1_2_9"  />
</g>
<g id="a1_0010"  >
<polygon points="156,90 164,90 169,85 164,80 156,80 156,90 " style="fill:#a115d8; stroke-width:1; stroke:black; " description="&lt;b&gt;B311_RS0120565&lt;/b&gt;&lt;br&gt;hypothetical protein&lt;br&gt;Location: 21289 - 22101&lt;br&gt;&lt;br&gt;&lt;b&gt;BlastP hit with ctg14_10&lt;/b&gt;&lt;br&gt;Percentage identity: 99&lt;br&gt;Percentage coverage: 100&lt;br&gt;BLAST bit score: 353&lt;br&gt;E-value: 2.3e-95" locus_tag="B311_RS0120565" class="clusterblast-orf" id="dummy-1_h1_2_10"  />
</g>
<g id="a1_0011"  >
<polygon points="173,90 192,90 197,85 192,80 173,80 173,90 " style="fill:#d86915; stroke-width:1; stroke:black; " description="&lt;b&gt;B311_RS28830&lt;/b&gt;&lt;br&gt;MFS transporter&lt;br&gt;Location: 22331 - 23800&lt;br&gt;&lt;br&gt;&lt;b&gt;BlastP hit with ctg14_11&lt;/b&gt;&lt;br&gt;Percentage identity: 100&lt;br&gt;Percentage coverage: 100&lt;br&gt;BLAST bit score: 926&lt;br&gt;E-value: 9.2e-268" locus_tag="B311_RS28830" class="clusterblast-orf" id="dummy-1_h1_2_11"  />
</g>
<g id="a1_0012"  >
<polygon points="198,90 209,90 214,85 209,80 198,80 198,90 " style="fill:#23d815; stroke-width:1; stroke:black; " description="&lt;b&gt;B311_RS0120575&lt;/b&gt;&lt;br&gt;phosphotriesterase&lt;br&gt;Location: 23879 - 24859&lt;br&gt;&lt;br&gt;&lt;b&gt;BlastP hit with ctg14_12&lt;/b&gt;&lt;br&gt;Percentage identity: 99&lt;br&gt;Percentage coverage: 100&lt;br&gt;BLAST bit score: 648&lt;br&gt;E-value: 4.2e-184" locus_tag="B311_RS0120575" class="clusterblast-orf" id="dummy-1_h1_2_12"  />
</g>
<g id="a1_0013"  >
<polygon points="214,90 229,90 234,85 229,80 214,80 214,90 " style="fill:#1585d8; stroke-width:1; stroke:black; " description="&lt;b&gt;B311_RS0120580&lt;/b&gt;&lt;br&gt;divalent metal cation transporter MntH&lt;br&gt;Location: 24870 - 26117&lt;br&gt;&lt;br&gt;&lt;b&gt;BlastP hit with ctg14_13&lt;/b&gt;&lt;br&gt;Percentage identity: 100&lt;br&gt;Percentage coverage: 100&lt;br&gt;BLAST bit score: 758&lt;br&gt;E-value: 2.8e-217" locus_tag="B311_RS0120580" class="clusterblast-orf" id="dummy-1_h1_2_13"  />
</g>
<g id="a1_0014"  >
<polygon points="234,85 239,80 244,80 244,90 239,90 234,85 " style="fill:#ca15d8; stroke-width:1; stroke:black; " description="&lt;b&gt;B311_RS28835&lt;/b&gt;&lt;br&gt;hypothetical protein&lt;br&gt;Location: 26154 - 26723&lt;br&gt;&lt;br&gt;&lt;b&gt;BlastP hit with ctg14_14&lt;/b&gt;&lt;br&gt;Percentage identity: 100&lt;br&gt;Percentage coverage: 95&lt;br&gt;BLAST bit score: 352&lt;br&gt;E-value: 2.2e-95" locus_tag="B311_RS28835" class="clusterblast-orf" id="dummy-1_h1_2_14"  />
</g>
<g id="a1_0015"  >
<polygon points="248,85 252,80 252,90 248,85 " style="fill:#d89315; stroke-width:1; stroke:black; " description="&lt;b&gt;B311_RS0120590&lt;/b&gt;&lt;br&gt;acyl carrier protein&lt;br&gt;Location: 26985 - 27233&lt;br&gt;&lt;br&gt;&lt;b&gt;BlastP hit with ctg14_15&lt;/b&gt;&lt;br&gt;Percentage identity: 100&lt;br&gt;Percentage coverage: 100&lt;br&gt;BLAST bit score: 154&lt;br&gt;E-value: 4.8e-36" locus_tag="B311_RS0120590" class="clusterblast-orf" id="dummy-1_h1_2_15"  />
</g>
<g id="a1_0016"  >
<polygon points="252,85 257,80 267,80 267,90 257,90 252,85 " style="fill:#15d831; stroke-width:1; stroke:black; " description="&lt;b&gt;B311_RS0120595&lt;/b&gt;&lt;br&gt;acyl-ACP desaturase&lt;br&gt;Location: 27266 - 28183&lt;br&gt;&lt;br&gt;&lt;b&gt;BlastP hit with ctg14_16&lt;/b&gt;&lt;br&gt;Percentage identity: 100&lt;br&gt;Percentage coverage: 100&lt;br&gt;BLAST bit score: 613&lt;br&gt;E-value: 1.4e-173" locus_tag="B311_RS0120595" class="clusterblast-orf" id="dummy-1_h1_2_16"  />
</g>
<g id="a1_0017"  >
<polygon points="267,85 272,80 289,80 289,90 272,90 267,85 " style="fill:#155bd8; stroke-width:1; stroke:black; " description="&lt;b&gt;B311_RS0120600&lt;/b&gt;&lt;br&gt;beta-ketoacyl-ACP synthase II&lt;br&gt;Location: 28177 - 29544&lt;br&gt;&lt;br&gt;&lt;b&gt;BlastP hit with ctg14_17&lt;/b&gt;&lt;br&gt;Percentage identity: 100&lt;br&gt;Percentage coverage: 100&lt;br&gt;BLAST bit score: 748&lt;br&gt;E-value: 3.6e-214" locus_tag="B311_RS0120600" class="clusterblast-orf" id="dummy-1_h1_2_17"  />
</g>
<g id="a1_0018"  >
<polygon points="291,90 316,90 321,85 316,80 291,80 291,90 " style="fill:#d815bc; stroke-width:1; stroke:black; " description="&lt;b&gt;B311_RS28840&lt;/b&gt;&lt;br&gt;hypothetical protein&lt;br&gt;Location: 29676 - 31514&lt;br&gt;&lt;br&gt;&lt;b&gt;BlastP hit with ctg14_19&lt;/b&gt;&lt;br&gt;Percentage identity: 99&lt;br&gt;Percentage coverage: 100&lt;br&gt;BLAST bit score: 1120&lt;br&gt;E-value: 0.0" locus_tag="B311_RS28840" class="clusterblast-orf" id="dummy-1_h1_2_18"  />
</g>
<g id="a1_0019"  >
<polygon points="320,90 466,90 471,85 466,80 320,80 320,90 " style="fill:#d8bc15; stroke-width:1; stroke:black; " description="&lt;b&gt;B311_RS28845&lt;/b&gt;&lt;br&gt;type I polyketide synthase&lt;br&gt;Location: 31495 - 40866&lt;br&gt;&lt;br&gt;&lt;b&gt;BlastP hit with ctg14_20&lt;/b&gt;&lt;br&gt;Percentage identity: 99&lt;br&gt;Percentage coverage: 100&lt;br&gt;BLAST bit score: 5674&lt;br&gt;E-value: 0.0" locus_tag="B311_RS28845" class="clusterblast-orf" id="dummy-1_h1_2_19"  />
</g>
<g id="a1_0020"  >
<polygon points="471,90 480,90 485,85 480,80 471,80 471,90 " style="fill:#15d85b; stroke-width:1; stroke:black; " description="&lt;b&gt;B311_RS0120615&lt;/b&gt;&lt;br&gt;3-hydroxybutyryl-CoA dehydrogenase&lt;br&gt;Location: 40863 - 41720&lt;br&gt;&lt;br&gt;&lt;b&gt;BlastP hit with ctg14_21&lt;/b&gt;&lt;br&gt;Percentage identity: 99&lt;br&gt;Percentage coverage: 100&lt;br&gt;BLAST bit score: 563&lt;br&gt;E-value: 1.5e-158" locus_tag="B311_RS0120615" class="clusterblast-orf" id="dummy-1_h1_2_20"  />
</g>
<g id="a1_0021"  >
<polygon points="485,90 485,90 490,85 485,80 485,80 485,90 " style="fill:#1531d8; stroke-width:1; stroke:black; " description="&lt;b&gt;B311_RS0120620&lt;/b&gt;&lt;br&gt;acyl carrier protein&lt;br&gt;Location: 41767 - 42033&lt;br&gt;&lt;br&gt;&lt;b&gt;BlastP hit with ctg14_22&lt;/b&gt;&lt;br&gt;Percentage identity: 100&lt;br&gt;Percentage coverage: 100&lt;br&gt;BLAST bit score: 173&lt;br&gt;E-value: 1.1e-41" locus_tag="B311_RS0120620" class="clusterblast-orf" id="dummy-1_h1_2_21"  />
</g>
<g id="a1_0022"  >
<polygon points="490,90 503,90 508,85 503,80 490,80 490,90 " style="fill:#d81593; stroke-width:1; stroke:black; " description="&lt;b&gt;B311_RS0120625&lt;/b&gt;&lt;br&gt;hypothetical protein&lt;br&gt;Location: 42030 - 43169&lt;br&gt;&lt;br&gt;&lt;b&gt;BlastP hit with ctg14_23&lt;/b&gt;&lt;br&gt;Percentage identity: 100&lt;br&gt;Percentage coverage: 100&lt;br&gt;BLAST bit score: 727&lt;br&gt;E-value: 6.3e-208" locus_tag="B311_RS0120625" class="clusterblast-orf" id="dummy-1_h1_2_22"  />
</g>
<g id="a1_0023"  >
<polygon points="508,90 520,90 525,85 520,80 508,80 508,90 " style="fill:#cad815; stroke-width:1; stroke:black; " description="&lt;b&gt;B311_RS0120630&lt;/b&gt;&lt;br&gt;hypothetical protein&lt;br&gt;Location: 43166 - 44206&lt;br&gt;&lt;br&gt;&lt;b&gt;BlastP hit with ctg14_24&lt;/b&gt;&lt;br&gt;Percentage identity: 100&lt;br&gt;Percentage coverage: 100&lt;br&gt;BLAST bit score: 683&lt;br&gt;E-value: 9.6e-195" locus_tag="B311_RS0120630" class="clusterblast-orf" id="dummy-1_h1_2_23"  />
</g>
<g id="a1_0024"  >
<polygon points="525,90 536,90 541,85 536,80 525,80 525,90 " style="fill:#15d885; stroke-width:1; stroke:black; " description="&lt;b&gt;B311_RS0120635&lt;/b&gt;&lt;br&gt;R2-like ligand-binding oxidase&lt;br&gt;Location: 44239 - 45219&lt;br&gt;&lt;br&gt;&lt;b&gt;BlastP hit with ctg14_25&lt;/b&gt;&lt;br&gt;Percentage identity: 99&lt;br&gt;Percentage coverage: 100&lt;br&gt;BLAST bit score: 664&lt;br&gt;E-value: 7.4e-189" locus_tag="B311_RS0120635" class="clusterblast-orf" id="dummy-1_h1_2_24"  />
</g>
<g id="a1_0025"  >
<polygon points="541,90 548,90 553,85 548,80 541,80 541,90 " style="fill:#2315d8; stroke-width:1; stroke:black; " description="&lt;b&gt;B311_RS0120640&lt;/b&gt;&lt;br&gt;thioesterase&lt;br&gt;Location: 45221 - 45985&lt;br&gt;&lt;br&gt;&lt;b&gt;BlastP hit with ctg14_26&lt;/b&gt;&lt;br&gt;Percentage identity: 100&lt;br&gt;Percentage coverage: 100&lt;br&gt;BLAST bit score: 528&lt;br&gt;E-value: 4.9e-148" locus_tag="B311_RS0120640" class="clusterblast-orf" id="dummy-1_h1_2_25"  />
</g>
<g id="a1_0026"  >
<polygon points="553,90 560,90 565,85 560,80 553,80 553,90 " style="fill:#d81569; stroke-width:1; stroke:black; " description="&lt;b&gt;B311_RS30040&lt;/b&gt;&lt;br&gt;hypothetical protein&lt;br&gt;Location: 45982 - 46755&lt;br&gt;&lt;br&gt;&lt;b&gt;BlastP hit with ctg14_27&lt;/b&gt;&lt;br&gt;Percentage identity: 99&lt;br&gt;Percentage coverage: 100&lt;br&gt;BLAST bit score: 508&lt;br&gt;E-value: 3.1e-142" locus_tag="B311_RS30040" class="clusterblast-orf" id="dummy-1_h1_2_26"  />
</g>
<g id="a1_0027"  >
<polygon points="565,90 586,90 591,85 586,80 565,80 565,90 " style="fill:#a1d815; stroke-width:1; stroke:black; " description="&lt;b&gt;B311_RS28855&lt;/b&gt;&lt;br&gt;hypothetical protein&lt;br&gt;Location: 46748 - 48355&lt;br&gt;&lt;br&gt;&lt;b&gt;BlastP hit with ctg14_28&lt;/b&gt;&lt;br&gt;Percentage identity: 99&lt;br&gt;Percentage coverage: 100&lt;br&gt;BLAST bit score: 1050&lt;br&gt;E-value: 4.6e-305" locus_tag="B311_RS28855" class="clusterblast-orf" id="dummy-1_h1_2_27"  />
</g>
<g id="a1_0028"  >
<polygon points="596,90 597,90 602,85 597,80 596,80 596,90 " style="fill:#15d8ae; stroke-width:1; stroke:black; " description="&lt;b&gt;B311_RS28860&lt;/b&gt;&lt;br&gt;hypothetical protein&lt;br&gt;Location: 48624 - 49055&lt;br&gt;&lt;br&gt;&lt;b&gt;BlastP hit with ctg14_29&lt;/b&gt;&lt;br&gt;Percentage identity: 99&lt;br&gt;Percentage coverage: 61&lt;br&gt;BLAST bit score: 295&lt;br&gt;E-value: 6.5e-78&lt;br&gt;&lt;br&gt;&lt;b&gt;BlastP hit with ctg14_30&lt;/b&gt;&lt;br&gt;Percentage identity: 62&lt;br&gt;Percentage coverage: 25&lt;br&gt;BLAST bit score: 141&lt;br&gt;E-value: 2.9e-31" locus_tag="B311_RS28860" class="clusterblast-orf" id="dummy-1_h1_2_28"  />
</g>
<g id="a1_0029"  >
<polygon points="602,90 618,90 623,85 618,80 602,80 602,90 " style="fill:#15d8ae; stroke-width:1; stroke:black; " description="&lt;b&gt;B311_RS28865&lt;/b&gt;&lt;br&gt;SGNH/GDSL hydrolase family protein&lt;br&gt;Location: 49052 - 50335&lt;br&gt;&lt;br&gt;&lt;b&gt;BlastP hit with ctg14_29&lt;/b&gt;&lt;br&gt;Percentage identity: 63&lt;br&gt;Percentage coverage: 46&lt;br&gt;BLAST bit score: 139&lt;br&gt;E-value: 6e-31&lt;br&gt;&lt;br&gt;&lt;b&gt;BlastP hit with ctg14_30&lt;/b&gt;&lt;br&gt;Percentage identity: 99&lt;br&gt;Percentage coverage: 100&lt;br&gt;BLAST bit score: 835&lt;br&gt;E-value: 3.2e-240" locus_tag="B311_RS28865" class="clusterblast-orf" id="dummy-1_h1_2_29"  />
</g>
<g id="a1_0030"  >
<polygon points="624,90 639,90 644,85 639,80 624,80 624,90 " style="fill:#4d15d8; stroke-width:1; stroke:black; " description="&lt;b&gt;B311_RS0120665&lt;/b&gt;&lt;br&gt;acyltransferase&lt;br&gt;Location: 50409 - 51647&lt;br&gt;&lt;br&gt;&lt;b&gt;BlastP hit with ctg14_31&lt;/b&gt;&lt;br&gt;Percentage identity: 100&lt;br&gt;Percentage coverage: 100&lt;br&gt;BLAST bit score: 810&lt;br&gt;E-value: 8.1e-233" locus_tag="B311_RS0120665" class="clusterblast-orf" id="dummy-1_h1_2_30"  />
</g>
<g id="a1_0031"  >
<polygon points="643,85 648,80 664,80 664,90 648,90 643,85 " style="fill:#d8153f; stroke-width:1; stroke:black; " description="&lt;b&gt;B311_RS28870&lt;/b&gt;&lt;br&gt;DUF2029 domain-containing protein&lt;br&gt;Location: 51580 - 52881&lt;br&gt;&lt;br&gt;&lt;b&gt;BlastP hit with ctg14_32&lt;/b&gt;&lt;br&gt;Percentage identity: 100&lt;br&gt;Percentage coverage: 100&lt;br&gt;BLAST bit score: 832&lt;br&gt;E-value: 1.6e-239" locus_tag="B311_RS28870" class="clusterblast-orf" id="dummy-1_h1_2_31"  />
</g>
<g id="a1_0032"  >
<polygon points="678,90 681,90 686,85 681,80 678,80 678,90 " style="fill:white; stroke-width:1; stroke:black; " description="&lt;b&gt;B311_RS0120680&lt;/b&gt;&lt;br&gt;sigma-70 family RNA polymerase sigma factor&lt;br&gt;Location: 53750 - 54259" locus_tag="B311_RS0120680" class="clusterblast-orf" id="dummy-1_h1_2_32"  />
</g>
<g id="a1_0033"  >
<polygon points="692,90 693,90 698,85 693,80 692,80 692,90 " style="fill:white; stroke-width:1; stroke:black; " description="&lt;b&gt;B311_RS0120690&lt;/b&gt;&lt;br&gt;DUF2255 domain-containing protein&lt;br&gt;Location: 54615 - 54992" locus_tag="B311_RS0120690" class="clusterblast-orf" id="dummy-1_h1_2_33"  />
</g>
<g id="a1_0034"  >
<polygon points="699,90 720,90 725,85 720,80 699,80 699,90 " style="fill:white; stroke-width:1; stroke:black; " description="&lt;b&gt;B311_RS0120695&lt;/b&gt;&lt;br&gt;Na+/H+ antiporter&lt;br&gt;Location: 55089 - 56681" locus_tag="B311_RS0120695" class="clusterblast-orf" id="dummy-1_h1_2_34"  />
</g>
<g id="a1_0035"  >
<polygon points="725,85 730,80 743,80 743,90 730,90 725,85 " style="fill:white; stroke-width:1; stroke:black; " description="&lt;b&gt;B311_RS0120700&lt;/b&gt;&lt;br&gt;NAD(P)-dependent alcohol dehydrogenase&lt;br&gt;Location: 56685 - 57809" locus_tag="B311_RS0120700" class="clusterblast-orf" id="dummy-1_h1_2_35"  />
</g>
<g id="a1_0036"  >
<polygon points="746,85 751,80 763,80 763,90 751,90 746,85 " style="fill:white; stroke-width:1; stroke:black; " description="&lt;b&gt;B311_RS28875&lt;/b&gt;&lt;br&gt;rhamnose ABC transporter substrate-binding protein&lt;br&gt;Location: 57979 - 59061" locus_tag="B311_RS28875" class="clusterblast-orf" id="dummy-1_h1_2_36"  />
</g>
<g id="a1_0037"  >
<polygon points="764,85 769,80 780,80 780,90 769,90 764,85 " style="fill:white; stroke-width:1; stroke:black; " description="&lt;b&gt;B311_RS0120710&lt;/b&gt;&lt;br&gt;ABC transporter permease&lt;br&gt;Location: 59086 - 60072" locus_tag="B311_RS0120710" class="clusterblast-orf" id="dummy-1_h1_2_37"  />
</g>
</svg>
