<svg xmlns="http://www.w3.org/2000/svg" xmlns:xlink="http://www.w3.org/1999/xlink" version="1.1" x="0" y="0" height="230" width="800" viewBox="0 0 800 230" preserveAspectRatio="none"  >
<g label="Query sequence" class="clusterblast-cluster"  >
<text x="5" y="20" class="clusterblast-acc"  >
Query sequence</text>
<line x1="10" y1="35" x2="778.0" y2="35" style="stroke-width:1; stroke:grey; "  />
<polygon points="180,40 180,40 185,35 180,30 180,30 180,40 " style="fill:white; stroke-width:1; stroke:black; " description="&lt;b&gt;ctg2_1&lt;/b&gt;&lt;br&gt;ctg2 1&lt;br&gt;Location: 2 - 317" locus_tag="ctg2_1" class="clusterblast-orf" id="dummy-1_q0_0_all"  />
<polygon points="185,35 190,30 207,30 207,40 190,40 185,35 " style="fill:#d81515; stroke-width:1; stroke:black; " description="&lt;b&gt;ctg2_2&lt;/b&gt;&lt;br&gt;ctg2 2&lt;br&gt;Location: 345 - 1809" locus_tag="ctg2_2" class="clusterblast-orf" id="dummy-1_q1_0_all"  />
<polygon points="207,35 212,30 273,30 273,40 212,40 207,35 " style="fill:#56d815; stroke-width:1; stroke:black; " description="&lt;b&gt;ctg2_3&lt;/b&gt;&lt;br&gt;ctg2 3&lt;br&gt;Location: 1805 - 6122" locus_tag="ctg2_3" class="clusterblast-orf" id="dummy-1_q2_0_all"  />
<polygon points="273,35 276,30 276,40 273,35 " style="fill:#1597d8; stroke-width:1; stroke:black; " description="&lt;b&gt;ctg2_4&lt;/b&gt;&lt;br&gt;ctg2 4&lt;br&gt;Location: 6114 - 6354" locus_tag="ctg2_4" class="clusterblast-orf" id="dummy-1_q3_0_all"  />
<polygon points="280,35 285,30 305,30 305,40 285,40 280,35 " style="fill:#9715d8; stroke-width:1; stroke:black; " description="&lt;b&gt;ctg2_5&lt;/b&gt;&lt;br&gt;ctg2 5&lt;br&gt;Location: 6627 - 8220" locus_tag="ctg2_5" class="clusterblast-orf" id="dummy-1_q4_0_all"  />
<polygon points="304,35 309,30 312,30 312,40 309,40 304,35 " style="fill:#d85615; stroke-width:1; stroke:black; " description="&lt;b&gt;ctg2_6&lt;/b&gt;&lt;br&gt;ctg2 6&lt;br&gt;Location: 8185 - 8728" locus_tag="ctg2_6" class="clusterblast-orf" id="dummy-1_q5_0_all"  />
<polygon points="312,35 317,30 325,30 325,40 317,40 312,35 " style="fill:#15d815; stroke-width:1; stroke:black; " description="&lt;b&gt;ctg2_7&lt;/b&gt;&lt;br&gt;ctg2 7&lt;br&gt;Location: 8724 - 9585" locus_tag="ctg2_7" class="clusterblast-orf" id="dummy-1_q6_0_all"  />
<polygon points="327,35 330,30 330,40 327,35 " style="fill:#1556d8; stroke-width:1; stroke:black; " description="&lt;b&gt;ctg2_8&lt;/b&gt;&lt;br&gt;ctg2 8&lt;br&gt;Location: 9670 - 9913" locus_tag="ctg2_8" class="clusterblast-orf" id="dummy-1_q7_0_all"  />
<polygon points="330,35 335,30 346,30 346,40 335,40 330,35 " style="fill:#d815d8; stroke-width:1; stroke:black; " description="&lt;b&gt;ctg2_9&lt;/b&gt;&lt;br&gt;ctg2 9&lt;br&gt;Location: 9909 - 10923" locus_tag="ctg2_9" class="clusterblast-orf" id="dummy-1_q8_0_all"  />
<polygon points="347,40 358,40 363,35 358,30 347,30 347,40 " style="fill:#d89715; stroke-width:1; stroke:black; " description="&lt;b&gt;ctg2_10&lt;/b&gt;&lt;br&gt;ctg2 10&lt;br&gt;Location: 11023 - 12100" locus_tag="ctg2_10" class="clusterblast-orf" id="dummy-1_q9_0_all"  />
<polygon points="363,40 374,40 379,35 374,30 363,30 363,40 " style="fill:#15d856; stroke-width:1; stroke:black; " description="&lt;b&gt;ctg2_11&lt;/b&gt;&lt;br&gt;ctg2 11&lt;br&gt;Location: 12077 - 13133" locus_tag="ctg2_11" class="clusterblast-orf" id="dummy-1_q10_0_all"  />
<polygon points="379,40 386,40 391,35 386,30 379,30 379,40 " style="fill:#1515d8; stroke-width:1; stroke:black; " description="&lt;b&gt;ctg2_12&lt;/b&gt;&lt;br&gt;ctg2 12&lt;br&gt;Location: 13129 - 13927" locus_tag="ctg2_12" class="clusterblast-orf" id="dummy-1_q11_0_all"  />
<polygon points="393,35 398,30 414,30 414,40 398,40 393,35 " style="fill:#d81597; stroke-width:1; stroke:black; " description="&lt;b&gt;ctg2_13&lt;/b&gt;&lt;br&gt;ctg2 13&lt;br&gt;Location: 14040 - 15462" locus_tag="ctg2_13" class="clusterblast-orf" id="dummy-1_q12_0_all"  />
<polygon points="418,40 425,40 430,35 425,30 418,30 418,40 " style="fill:#d8d815; stroke-width:1; stroke:black; " description="&lt;b&gt;ctg2_14&lt;/b&gt;&lt;br&gt;ctg2 14&lt;br&gt;Location: 15729 - 16473" locus_tag="ctg2_14" class="clusterblast-orf" id="dummy-1_q13_0_all"  />
<polygon points="432,40 437,40 442,35 437,30 432,30 432,40 " style="fill:#15d897; stroke-width:1; stroke:black; " description="&lt;b&gt;ctg2_15&lt;/b&gt;&lt;br&gt;ctg2 15&lt;br&gt;Location: 16596 - 17250" locus_tag="ctg2_15" class="clusterblast-orf" id="dummy-1_q14_0_all"  />
<polygon points="442,35 447,30 451,30 451,40 447,40 442,35 " style="fill:#5615d8; stroke-width:1; stroke:black; " description="&lt;b&gt;ctg2_16&lt;/b&gt;&lt;br&gt;ctg2 16&lt;br&gt;Location: 17309 - 17846" locus_tag="ctg2_16" class="clusterblast-orf" id="dummy-1_q15_0_all"  />
<polygon points="451,35 456,30 485,30 485,40 456,40 451,35 " style="fill:#d81556; stroke-width:1; stroke:black; " description="&lt;b&gt;ctg2_17&lt;/b&gt;&lt;br&gt;ctg2 17&lt;br&gt;Location: 17842 - 20098" locus_tag="ctg2_17" class="clusterblast-orf" id="dummy-1_q16_0_all"  />
<polygon points="485,35 488,30 488,40 485,35 " style="fill:#97d815; stroke-width:1; stroke:black; " description="&lt;b&gt;ctg2_18&lt;/b&gt;&lt;br&gt;ctg2 18&lt;br&gt;Location: 20094 - 20307" locus_tag="ctg2_18" class="clusterblast-orf" id="dummy-1_q17_0_all"  />
<polygon points="492,35 497,30 533,30 533,40 497,40 492,35 " style="fill:white; stroke-width:1; stroke:black; " description="&lt;b&gt;ctg2_19&lt;/b&gt;&lt;br&gt;ctg2 19&lt;br&gt;Location: 20604 - 23250" locus_tag="ctg2_19" class="clusterblast-orf" id="dummy-1_q18_0_all"  />
<polygon points="535,35 540,30 549,30 549,40 540,40 535,35 " style="fill:#15d8d8; stroke-width:1; stroke:black; " description="&lt;b&gt;ctg2_20&lt;/b&gt;&lt;br&gt;ctg2 20&lt;br&gt;Location: 23381 - 24332" locus_tag="ctg2_20" class="clusterblast-orf" id="dummy-1_q19_0_all"  />
<polygon points="553,40 561,40 566,35 561,30 553,30 553,40 " style="fill:white; stroke-width:1; stroke:black; " description="&lt;b&gt;ctg2_21&lt;/b&gt;&lt;br&gt;ctg2 21&lt;br&gt;Location: 24626 - 25457" locus_tag="ctg2_21" class="clusterblast-orf" id="dummy-1_q20_0_all"  />
<polygon points="572,40 575,40 580,35 575,30 572,30 572,40 " style="fill:white; stroke-width:1; stroke:black; " description="&lt;b&gt;ctg2_22&lt;/b&gt;&lt;br&gt;ctg2 22&lt;br&gt;Location: 25860 - 26349" locus_tag="ctg2_22" class="clusterblast-orf" id="dummy-1_q21_0_all"  />
<polygon points="580,35 585,30 586,30 586,40 585,40 580,35 " style="fill:white; stroke-width:1; stroke:black; " description="&lt;b&gt;ctg2_23&lt;/b&gt;&lt;br&gt;ctg2 23&lt;br&gt;Location: 26373 - 26781" locus_tag="ctg2_23" class="clusterblast-orf" id="dummy-1_q22_0_all"  />
<polygon points="586,35 591,30 599,30 599,40 591,40 586,35 " style="fill:white; stroke-width:1; stroke:black; " description="&lt;b&gt;ctg2_24&lt;/b&gt;&lt;br&gt;ctg2 24&lt;br&gt;Location: 26793 - 27654" locus_tag="ctg2_24" class="clusterblast-orf" id="dummy-1_q23_0_all"  />
</g>
<g label="NZ_KQ949098" description="NZ_KQ949098_c20: Streptomyces sp. RV15 PRJNA299236 s024, whole genome shotgun... (27% of genes show similarity), nrps" class="clusterblast-cluster"  >
<text x="5" y="70" class="clusterblast-acc"  >
<a xlink:href="https://antismash-db.secondarymetabolites.org/go/NZ_KQ949098/20" target="_blank">NZ_KQ949098_c20</a>: Streptomyces sp. RV15 PRJNA299236 s024, whole genome shotgun... (27% of genes show similarity), nrps</text>
<line x1="10" y1="85" x2="778.0" y2="85" style="stroke-width:1; stroke:grey; "  />
</g>
<g id="a1_000"  >
<polygon points="0,90 6,90 11,85 6,80 0,80 0,90 " style="fill:white; stroke-width:1; stroke:black; " description="&lt;b&gt;AQJ91_RS31015&lt;/b&gt;&lt;br&gt;Clp protease&lt;br&gt;Location: 51505 - 50738" locus_tag="AQJ91_RS31015" class="clusterblast-orf" id="dummy-1_h1_5_0"  />
</g>
<g id="a1_001"  >
<polygon points="12,90 33,90 38,85 33,80 12,80 12,90 " style="fill:white; stroke-width:1; stroke:black; " description="&lt;b&gt;AQJ91_RS31010&lt;/b&gt;&lt;br&gt;bifunctional 3'-5' exonuclease/DNA polymerase&lt;br&gt;Location: 50673 - 48982" locus_tag="AQJ91_RS31010" class="clusterblast-orf" id="dummy-1_h1_5_1"  />
</g>
<g id="a1_002"  >
<polygon points="43,90 69,90 74,85 69,80 43,80 43,90 " style="fill:white; stroke-width:1; stroke:black; " description="&lt;b&gt;AQJ91_RS31005&lt;/b&gt;&lt;br&gt;PAS sensor protein&lt;br&gt;Location: 48640 - 46619" locus_tag="AQJ91_RS31005" class="clusterblast-orf" id="dummy-1_h1_5_2"  />
</g>
<g id="a1_003"  >
<polygon points="82,90 90,90 95,85 90,80 82,80 82,90 " style="fill:white; stroke-width:1; stroke:black; " description="&lt;b&gt;AQJ91_RS31000&lt;/b&gt;&lt;br&gt;LacI family transcriptional regulator&lt;br&gt;Location: 46076 - 45237" locus_tag="AQJ91_RS31000" class="clusterblast-orf" id="dummy-1_h1_5_3"  />
</g>
<g id="a1_004"  >
<polygon points="95,90 95,90 100,85 95,80 95,80 95,90 " style="fill:white; stroke-width:1; stroke:black; " description="&lt;b&gt;AQJ91_RS50315&lt;/b&gt;&lt;br&gt;sugar ABC transporter substrate-binding protein&lt;br&gt;Location: 45183 - 44857" locus_tag="AQJ91_RS50315" class="clusterblast-orf" id="dummy-1_h1_5_4"  />
</g>
<g id="a1_005"  >
<polygon points="101,85 106,80 122,80 122,90 106,90 101,85 " style="fill:white; stroke-width:1; stroke:black; " description="&lt;b&gt;AQJ91_RS30995&lt;/b&gt;&lt;br&gt;Tat pathway signal sequence domain protein&lt;br&gt;Location: 44804 - 43428" locus_tag="AQJ91_RS30995" class="clusterblast-orf" id="dummy-1_h1_5_5"  />
</g>
<g id="a1_006"  >
<polygon points="125,90 131,90 136,85 131,80 125,80 125,90 " style="fill:#d8d815; stroke-width:1; stroke:black; " description="&lt;b&gt;AQJ91_RS52565&lt;/b&gt;&lt;br&gt;hypothetical protein&lt;br&gt;Location: 43253 - 42486&lt;br&gt;&lt;br&gt;&lt;b&gt;BlastP hit with ctg2_14&lt;/b&gt;&lt;br&gt;Percentage identity: 32&lt;br&gt;Percentage coverage: 104&lt;br&gt;BLAST bit score: 76&lt;br&gt;E-value: 5e-12" locus_tag="AQJ91_RS52565" class="clusterblast-orf" id="dummy-1_h1_5_6"  />
</g>
<g id="a1_007"  >
<polygon points="140,90 144,90 149,85 144,80 140,80 140,90 " style="fill:#15d897; stroke-width:1; stroke:black; " description="&lt;b&gt;AQJ91_RS30985&lt;/b&gt;&lt;br&gt;RNA polymerase subunit sigma&lt;br&gt;Location: 42264 - 41656&lt;br&gt;&lt;br&gt;&lt;b&gt;BlastP hit with ctg2_15&lt;/b&gt;&lt;br&gt;Percentage identity: 51&lt;br&gt;Percentage coverage: 76&lt;br&gt;BLAST bit score: 149&lt;br&gt;E-value: 3.1e-34" locus_tag="AQJ91_RS30985" class="clusterblast-orf" id="dummy-1_h1_5_7"  />
</g>
<g id="a1_008"  >
<polygon points="153,90 160,90 165,85 160,80 153,80 153,90 " style="fill:white; stroke-width:1; stroke:black; " description="&lt;b&gt;AQJ91_RS30980&lt;/b&gt;&lt;br&gt;aspartyl/asparaginyl beta-hydroxylase domain-containing protein&lt;br&gt;Location: 41358 - 40606" locus_tag="AQJ91_RS30980" class="clusterblast-orf" id="dummy-1_h1_5_8"  />
</g>
<g id="a1_009"  >
<polygon points="165,85 170,80 173,80 173,90 170,90 165,85 " style="fill:#5615d8; stroke-width:1; stroke:black; " description="&lt;b&gt;AQJ91_RS30975&lt;/b&gt;&lt;br&gt;copper chaperone PCu(A)C&lt;br&gt;Location: 40601 - 40068&lt;br&gt;&lt;br&gt;&lt;b&gt;BlastP hit with ctg2_16&lt;/b&gt;&lt;br&gt;Percentage identity: 39&lt;br&gt;Percentage coverage: 95&lt;br&gt;BLAST bit score: 84&lt;br&gt;E-value: 1.3e-14" locus_tag="AQJ91_RS30975" class="clusterblast-orf" id="dummy-1_h1_5_9"  />
</g>
<g id="a1_0010"  >
<polygon points="175,85 180,80 211,80 211,90 180,90 175,85 " style="fill:#d81556; stroke-width:1; stroke:black; " description="&lt;b&gt;AQJ91_RS30970&lt;/b&gt;&lt;br&gt;copper-translocating P-type ATPase&lt;br&gt;Location: 39899 - 37545&lt;br&gt;&lt;br&gt;&lt;b&gt;BlastP hit with ctg2_17&lt;/b&gt;&lt;br&gt;Percentage identity: 63&lt;br&gt;Percentage coverage: 99&lt;br&gt;BLAST bit score: 769&lt;br&gt;E-value: 3.8e-220" locus_tag="AQJ91_RS30970" class="clusterblast-orf" id="dummy-1_h1_5_10"  />
</g>
<g id="a1_0011"  >
<polygon points="211,85 215,80 215,90 211,85 " style="fill:white; stroke-width:1; stroke:black; " description="&lt;b&gt;AQJ91_RS30965&lt;/b&gt;&lt;br&gt;hypothetical protein&lt;br&gt;Location: 37548 - 37315" locus_tag="AQJ91_RS30965" class="clusterblast-orf" id="dummy-1_h1_5_11"  />
</g>
<g id="a1_0012"  >
<polygon points="221,90 237,90 242,85 237,80 221,80 221,90 " style="fill:#d81515; stroke-width:1; stroke:black; " description="&lt;b&gt;AQJ91_RS30960&lt;/b&gt;&lt;br&gt;MFS transporter&lt;br&gt;Location: 36909 - 35503&lt;br&gt;&lt;br&gt;&lt;b&gt;BlastP hit with ctg2_2&lt;/b&gt;&lt;br&gt;Percentage identity: 33&lt;br&gt;Percentage coverage: 85&lt;br&gt;BLAST bit score: 138&lt;br&gt;E-value: 2.1e-30" locus_tag="AQJ91_RS30960" class="clusterblast-orf" id="dummy-1_h1_5_12"  />
</g>
<g id="a1_0013"  >
<polygon points="244,90 256,90 261,85 256,80 244,80 244,90 " style="fill:#d815d8; stroke-width:1; stroke:black; " description="&lt;b&gt;AQJ91_RS30955&lt;/b&gt;&lt;br&gt;ketoacyl-ACP synthase III&lt;br&gt;Location: 35384 - 34281&lt;br&gt;&lt;br&gt;&lt;b&gt;BlastP hit with ctg2_9&lt;/b&gt;&lt;br&gt;Percentage identity: 58&lt;br&gt;Percentage coverage: 96&lt;br&gt;BLAST bit score: 334&lt;br&gt;E-value: 1.4e-89" locus_tag="AQJ91_RS30955" class="clusterblast-orf" id="dummy-1_h1_5_13"  />
</g>
<g id="a1_0014"  >
<polygon points="261,90 264,85 261,80 261,90 " style="fill:white; stroke-width:1; stroke:black; " description="&lt;b&gt;AQJ91_RS30950&lt;/b&gt;&lt;br&gt;acyl carrier protein&lt;br&gt;Location: 34284 - 34048" locus_tag="AQJ91_RS30950" class="clusterblast-orf" id="dummy-1_h1_5_14"  />
</g>
<g id="a1_0015"  >
<polygon points="265,90 273,90 278,85 273,80 265,80 265,90 " style="fill:#15d815; stroke-width:1; stroke:black; " description="&lt;b&gt;AQJ91_RS30945&lt;/b&gt;&lt;br&gt;TauD/TfdA family dioxygenase&lt;br&gt;Location: 33994 - 33107&lt;br&gt;&lt;br&gt;&lt;b&gt;BlastP hit with ctg2_7&lt;/b&gt;&lt;br&gt;Percentage identity: 60&lt;br&gt;Percentage coverage: 100&lt;br&gt;BLAST bit score: 358&lt;br&gt;E-value: 7.6e-97" locus_tag="AQJ91_RS30945" class="clusterblast-orf" id="dummy-1_h1_5_15"  />
</g>
<g id="a1_0016"  >
<polygon points="278,90 282,90 287,85 282,80 278,80 278,90 " style="fill:#d85615; stroke-width:1; stroke:black; " description="&lt;b&gt;AQJ91_RS30940&lt;/b&gt;&lt;br&gt;hypothetical protein&lt;br&gt;Location: 33110 - 32568&lt;br&gt;&lt;br&gt;&lt;b&gt;BlastP hit with ctg2_6&lt;/b&gt;&lt;br&gt;Percentage identity: 45&lt;br&gt;Percentage coverage: 90&lt;br&gt;BLAST bit score: 148&lt;br&gt;E-value: 9.9e-34" locus_tag="AQJ91_RS30940" class="clusterblast-orf" id="dummy-1_h1_5_16"  />
</g>
<g id="a1_0017"  >
<polygon points="288,90 307,90 312,85 307,80 288,80 288,90 " style="fill:#9715d8; stroke-width:1; stroke:black; " description="&lt;b&gt;AQJ91_RS30935&lt;/b&gt;&lt;br&gt;fatty acid--CoA ligase&lt;br&gt;Location: 32490 - 30898&lt;br&gt;&lt;br&gt;&lt;b&gt;BlastP hit with ctg2_5&lt;/b&gt;&lt;br&gt;Percentage identity: 57&lt;br&gt;Percentage coverage: 97&lt;br&gt;BLAST bit score: 595&lt;br&gt;E-value: 6.9e-168" locus_tag="AQJ91_RS30935" class="clusterblast-orf" id="dummy-1_h1_5_17"  />
</g>
<g id="a1_0018"  >
<polygon points="313,90 316,85 313,80 313,90 " style="fill:white; stroke-width:1; stroke:black; " description="&lt;b&gt;AQJ91_RS30930&lt;/b&gt;&lt;br&gt;phosphopantetheine attachment domain protein&lt;br&gt;Location: 30857 - 30600" locus_tag="AQJ91_RS30930" class="clusterblast-orf" id="dummy-1_h1_5_18"  />
</g>
<g id="a1_0019"  >
<polygon points="316,90 377,90 382,85 377,80 316,80 316,90 " style="fill:#56d815; stroke-width:1; stroke:black; " description="&lt;b&gt;AQJ91_RS30925&lt;/b&gt;&lt;br&gt;non-ribosomal peptide synthetase&lt;br&gt;Location: 30613 - 26312&lt;br&gt;&lt;br&gt;&lt;b&gt;BlastP hit with ctg2_3&lt;/b&gt;&lt;br&gt;Percentage identity: 39&lt;br&gt;Percentage coverage: 102&lt;br&gt;BLAST bit score: 802&lt;br&gt;E-value: 5.9e-230" locus_tag="AQJ91_RS30925" class="clusterblast-orf" id="dummy-1_h1_5_19"  />
</g>
<g id="a1_0020"  >
<polygon points="383,90 393,90 398,85 393,80 383,80 383,90 " style="fill:#d89715; stroke-width:1; stroke:black; " description="&lt;b&gt;AQJ91_RS30920&lt;/b&gt;&lt;br&gt;iron ABC transporter substrate-binding protein&lt;br&gt;Location: 26230 - 25202&lt;br&gt;&lt;br&gt;&lt;b&gt;BlastP hit with ctg2_10&lt;/b&gt;&lt;br&gt;Percentage identity: 41&lt;br&gt;Percentage coverage: 98&lt;br&gt;BLAST bit score: 250&lt;br&gt;E-value: 2.8e-64" locus_tag="AQJ91_RS30920" class="clusterblast-orf" id="dummy-1_h1_5_20"  />
</g>
<g id="a1_0021"  >
<polygon points="400,90 409,90 414,85 409,80 400,80 400,90 " style="fill:#15d856; stroke-width:1; stroke:black; " description="&lt;b&gt;AQJ91_RS30915&lt;/b&gt;&lt;br&gt;iron ABC transporter permease&lt;br&gt;Location: 25124 - 24159&lt;br&gt;&lt;br&gt;&lt;b&gt;BlastP hit with ctg2_11&lt;/b&gt;&lt;br&gt;Percentage identity: 54&lt;br&gt;Percentage coverage: 89&lt;br&gt;BLAST bit score: 316&lt;br&gt;E-value: 3.1e-84" locus_tag="AQJ91_RS30915" class="clusterblast-orf" id="dummy-1_h1_5_21"  />
</g>
<g id="a1_0022"  >
<polygon points="414,90 421,90 426,85 421,80 414,80 414,90 " style="fill:#1515d8; stroke-width:1; stroke:black; " description="&lt;b&gt;AQJ91_RS30910&lt;/b&gt;&lt;br&gt;ABC transporter ATP-binding protein&lt;br&gt;Location: 24162 - 23359&lt;br&gt;&lt;br&gt;&lt;b&gt;BlastP hit with ctg2_12&lt;/b&gt;&lt;br&gt;Percentage identity: 52&lt;br&gt;Percentage coverage: 92&lt;br&gt;BLAST bit score: 233&lt;br&gt;E-value: 2e-59" locus_tag="AQJ91_RS30910" class="clusterblast-orf" id="dummy-1_h1_5_22"  />
</g>
<g id="a1_0023"  >
<polygon points="427,85 431,80 431,90 427,85 " style="fill:white; stroke-width:1; stroke:black; " description="&lt;b&gt;AQJ91_RS50305&lt;/b&gt;&lt;br&gt;hypothetical protein&lt;br&gt;Location: 23284 - 23078" locus_tag="AQJ91_RS50305" class="clusterblast-orf" id="dummy-1_h1_5_23"  />
</g>
<g id="a1_0024"  >
<polygon points="431,85 436,80 440,80 440,90 436,90 431,85 " style="fill:white; stroke-width:1; stroke:black; " description="&lt;b&gt;AQJ91_RS30900&lt;/b&gt;&lt;br&gt;copper chaperone PCu(A)C&lt;br&gt;Location: 23022 - 22477" locus_tag="AQJ91_RS30900" class="clusterblast-orf" id="dummy-1_h1_5_24"  />
</g>
<g id="a1_0025"  >
<polygon points="443,85 448,80 451,80 451,90 448,90 443,85 " style="fill:white; stroke-width:1; stroke:black; " description="&lt;b&gt;AQJ91_RS30895&lt;/b&gt;&lt;br&gt;hypothetical protein&lt;br&gt;Location: 22261 - 21752" locus_tag="AQJ91_RS30895" class="clusterblast-orf" id="dummy-1_h1_5_25"  />
</g>
<g id="a1_0026"  >
<polygon points="454,85 459,80 474,80 474,90 459,90 454,85 " style="fill:white; stroke-width:1; stroke:black; " description="&lt;b&gt;AQJ91_RS30890&lt;/b&gt;&lt;br&gt;FAD-dependent oxidoreductase&lt;br&gt;Location: 21537 - 20206" locus_tag="AQJ91_RS30890" class="clusterblast-orf" id="dummy-1_h1_5_26"  />
</g>
<g id="a1_0027"  >
<polygon points="475,85 480,80 500,80 500,90 480,90 475,85 " style="fill:white; stroke-width:1; stroke:black; " description="&lt;b&gt;AQJ91_RS30885&lt;/b&gt;&lt;br&gt;long-chain fatty acid--CoA ligase&lt;br&gt;Location: 20119 - 18506" locus_tag="AQJ91_RS30885" class="clusterblast-orf" id="dummy-1_h1_5_27"  />
</g>
<g id="a1_0028"  >
<polygon points="501,85 506,80 516,80 516,90 506,90 501,85 " style="fill:white; stroke-width:1; stroke:black; " description="&lt;b&gt;AQJ91_RS30880&lt;/b&gt;&lt;br&gt;hypothetical protein&lt;br&gt;Location: 18454 - 17453" locus_tag="AQJ91_RS30880" class="clusterblast-orf" id="dummy-1_h1_5_28"  />
</g>
<g id="a1_0029"  >
<polygon points="516,85 521,80 538,80 538,90 521,90 516,85 " style="fill:white; stroke-width:1; stroke:black; " description="&lt;b&gt;AQJ91_RS30875&lt;/b&gt;&lt;br&gt;hypothetical protein&lt;br&gt;Location: 17463 - 16012" locus_tag="AQJ91_RS30875" class="clusterblast-orf" id="dummy-1_h1_5_29"  />
</g>
<g id="a1_0030"  >
<polygon points="538,85 543,80 563,80 563,90 543,90 538,85 " style="fill:white; stroke-width:1; stroke:black; " description="&lt;b&gt;AQJ91_RS30870&lt;/b&gt;&lt;br&gt;AMP-dependent synthetase&lt;br&gt;Location: 16015 - 14321" locus_tag="AQJ91_RS30870" class="clusterblast-orf" id="dummy-1_h1_5_30"  />
</g>
<g id="a1_0031"  >
<polygon points="563,85 568,80 587,80 587,90 568,90 563,85 " style="fill:white; stroke-width:1; stroke:black; " description="&lt;b&gt;AQJ91_RS30865&lt;/b&gt;&lt;br&gt;hypothetical protein&lt;br&gt;Location: 14324 - 12747" locus_tag="AQJ91_RS30865" class="clusterblast-orf" id="dummy-1_h1_5_31"  />
</g>
<g id="a1_0032"  >
<polygon points="589,85 594,80 602,80 602,90 594,90 589,85 " style="fill:white; stroke-width:1; stroke:black; " description="&lt;b&gt;AQJ91_RS30860&lt;/b&gt;&lt;br&gt;class I SAM-dependent methyltransferase&lt;br&gt;Location: 12624 - 11797" locus_tag="AQJ91_RS30860" class="clusterblast-orf" id="dummy-1_h1_5_32"  />
</g>
<g id="a1_0033"  >
<polygon points="603,85 607,80 607,90 603,85 " style="fill:white; stroke-width:1; stroke:black; " description="&lt;b&gt;AQJ91_RS30855&lt;/b&gt;&lt;br&gt;hypothetical protein&lt;br&gt;Location: 11703 - 11437" locus_tag="AQJ91_RS30855" class="clusterblast-orf" id="dummy-1_h1_5_33"  />
</g>
<g id="a1_0034"  >
<polygon points="609,85 614,80 616,80 616,90 614,90 609,85 " style="fill:white; stroke-width:1; stroke:black; " description="&lt;b&gt;AQJ91_RS30850&lt;/b&gt;&lt;br&gt;hypothetical protein&lt;br&gt;Location: 11301 - 10828" locus_tag="AQJ91_RS30850" class="clusterblast-orf" id="dummy-1_h1_5_34"  />
</g>
<g id="a1_0035"  >
<polygon points="623,90 626,85 623,80 623,90 " style="fill:white; stroke-width:1; stroke:black; " description="&lt;b&gt;AQJ91_RS50300&lt;/b&gt;&lt;br&gt;nucleotide sugar dehydrogenase&lt;br&gt;Location: 10373 - 10163" locus_tag="AQJ91_RS50300" class="clusterblast-orf" id="dummy-1_h1_5_35"  />
</g>
<g id="a1_0036"  >
<polygon points="630,85 635,80 647,80 647,90 635,90 630,85 " style="fill:white; stroke-width:1; stroke:black; " description="&lt;b&gt;AQJ91_RS30845&lt;/b&gt;&lt;br&gt;DegT/DnrJ/EryC1/StrS family aminotransferase&lt;br&gt;Location: 9915 - 8785" locus_tag="AQJ91_RS30845" class="clusterblast-orf" id="dummy-1_h1_5_36"  />
</g>
<g id="a1_0037"  >
<polygon points="647,85 652,80 666,80 666,90 652,90 647,85 " style="fill:white; stroke-width:1; stroke:black; " description="&lt;b&gt;AQJ91_RS30840&lt;/b&gt;&lt;br&gt;DegT/DnrJ/EryC1/StrS family aminotransferase&lt;br&gt;Location: 8788 - 7580" locus_tag="AQJ91_RS30840" class="clusterblast-orf" id="dummy-1_h1_5_37"  />
</g>
<g id="a1_0038"  >
<polygon points="670,90 680,90 685,85 680,80 670,80 670,90 " style="fill:white; stroke-width:1; stroke:black; " description="&lt;b&gt;AQJ91_RS30835&lt;/b&gt;&lt;br&gt;hypothetical protein&lt;br&gt;Location: 7300 - 6272" locus_tag="AQJ91_RS30835" class="clusterblast-orf" id="dummy-1_h1_5_38"  />
</g>
<g id="a1_0039"  >
<polygon points="685,90 694,90 699,85 694,80 685,80 685,90 " style="fill:white; stroke-width:1; stroke:black; " description="&lt;b&gt;AQJ91_RS30830&lt;/b&gt;&lt;br&gt;sugar phosphate isomerase/epimerase&lt;br&gt;Location: 6282 - 5383" locus_tag="AQJ91_RS30830" class="clusterblast-orf" id="dummy-1_h1_5_39"  />
</g>
<g id="a1_0040"  >
<polygon points="699,90 714,90 719,85 714,80 699,80 699,90 " style="fill:white; stroke-width:1; stroke:black; " description="&lt;b&gt;AQJ91_RS30825&lt;/b&gt;&lt;br&gt;peptidase M20&lt;br&gt;Location: 5386 - 4073" locus_tag="AQJ91_RS30825" class="clusterblast-orf" id="dummy-1_h1_5_40"  />
</g>
<g id="a1_0041"  >
<polygon points="719,90 731,90 736,85 731,80 719,80 719,90 " style="fill:white; stroke-width:1; stroke:black; " description="&lt;b&gt;AQJ91_RS30820&lt;/b&gt;&lt;br&gt;Ldh family oxidoreductase&lt;br&gt;Location: 4076 - 2958" locus_tag="AQJ91_RS30820" class="clusterblast-orf" id="dummy-1_h1_5_41"  />
</g>
<g id="a1_0042"  >
<polygon points="736,90 745,90 750,85 745,80 736,80 736,90 " style="fill:white; stroke-width:1; stroke:black; " description="&lt;b&gt;AQJ91_RS30815&lt;/b&gt;&lt;br&gt;gfo/Idh/MocA family oxidoreductase&lt;br&gt;Location: 2958 - 2005" locus_tag="AQJ91_RS30815" class="clusterblast-orf" id="dummy-1_h1_5_42"  />
</g>
<g id="a1_0043"  >
<polygon points="750,90 751,90 756,85 751,80 750,80 750,90 " style="fill:white; stroke-width:1; stroke:black; " description="&lt;b&gt;AQJ91_RS30810&lt;/b&gt;&lt;br&gt;hypothetical protein&lt;br&gt;Location: 2008 - 1610" locus_tag="AQJ91_RS30810" class="clusterblast-orf" id="dummy-1_h1_5_43"  />
</g>
<g id="a1_0044"  >
<polygon points="757,90 760,90 765,85 760,80 757,80 757,90 " style="fill:white; stroke-width:1; stroke:black; " description="&lt;b&gt;AQJ91_RS30805&lt;/b&gt;&lt;br&gt;carboxymuconolactone decarboxylase family protein&lt;br&gt;Location: 1526 - 1053" locus_tag="AQJ91_RS30805" class="clusterblast-orf" id="dummy-1_h1_5_44"  />
</g>
<g id="a1_0045"  >
<polygon points="764,85 769,80 771,80 771,90 769,90 764,85 " style="fill:white; stroke-width:1; stroke:black; " description="&lt;b&gt;AQJ91_RS30800&lt;/b&gt;&lt;br&gt;hypothetical protein&lt;br&gt;Location: 1064 - 651" locus_tag="AQJ91_RS30800" class="clusterblast-orf" id="dummy-1_h1_5_45"  />
</g>
<g id="a1_0046"  >
<polygon points="774,90 775,90 780,85 775,80 774,80 774,90 " style="fill:white; stroke-width:1; stroke:black; " description="&lt;b&gt;AQJ91_RS30795&lt;/b&gt;&lt;br&gt;hypothetical protein&lt;br&gt;Location: 401 - 66" locus_tag="AQJ91_RS30795" class="clusterblast-orf" id="dummy-1_h1_5_46"  />
</g>
</svg>
