<svg xmlns="http://www.w3.org/2000/svg" xmlns:xlink="http://www.w3.org/1999/xlink" version="1.1" x="0" y="0" height="230" width="800" viewBox="0 0 800 230" preserveAspectRatio="none"  >
<g label="Query sequence" class="clusterblast-cluster"  >
<text x="5" y="20" class="clusterblast-acc"  >
Query sequence</text>
<line x1="10" y1="35" x2="778.0" y2="35" style="stroke-width:1; stroke:grey; "  />
<polygon points="241,35 243,30 243,40 241,35 " style="fill:#d81515; stroke-width:1; stroke:black; " description="&lt;b&gt;ctg28_1&lt;/b&gt;&lt;br&gt;ctg28 1&lt;br&gt;Location: 1 - 268" locus_tag="ctg28_1" class="clusterblast-orf" id="dummy-1_q0_0_all"  />
<polygon points="243,35 248,30 248,30 248,40 248,40 243,35 " style="fill:#6cd815; stroke-width:1; stroke:black; " description="&lt;b&gt;ctg28_2&lt;/b&gt;&lt;br&gt;ctg28 2&lt;br&gt;Location: 267 - 792" locus_tag="ctg28_2" class="clusterblast-orf" id="dummy-1_q1_0_all"  />
<polygon points="249,35 251,30 251,40 249,35 " style="fill:#15c3d8; stroke-width:1; stroke:black; " description="&lt;b&gt;ctg28_3&lt;/b&gt;&lt;br&gt;ctg28 3&lt;br&gt;Location: 825 - 1089" locus_tag="ctg28_3" class="clusterblast-orf" id="dummy-1_q2_0_all"  />
<polygon points="251,35 256,30 259,30 259,40 256,40 251,35 " style="fill:#9715d8; stroke-width:1; stroke:black; " description="&lt;b&gt;ctg28_4&lt;/b&gt;&lt;br&gt;ctg28 4&lt;br&gt;Location: 1090 - 1858" locus_tag="ctg28_4" class="clusterblast-orf" id="dummy-1_q3_0_all"  />
<polygon points="259,35 263,30 263,40 259,35 " style="fill:#d84115; stroke-width:1; stroke:black; " description="&lt;b&gt;ctg28_5&lt;/b&gt;&lt;br&gt;ctg28 5&lt;br&gt;Location: 1859 - 2303" locus_tag="ctg28_5" class="clusterblast-orf" id="dummy-1_q4_0_all"  />
<polygon points="263,35 266,30 266,40 263,35 " style="fill:#41d815; stroke-width:1; stroke:black; " description="&lt;b&gt;ctg28_6&lt;/b&gt;&lt;br&gt;ctg28 6&lt;br&gt;Location: 2325 - 2616" locus_tag="ctg28_6" class="clusterblast-orf" id="dummy-1_q5_0_all"  />
<polygon points="272,40 274,35 272,30 272,40 " style="fill:white; stroke-width:1; stroke:black; " description="&lt;b&gt;ctg28_7&lt;/b&gt;&lt;br&gt;ctg28 7&lt;br&gt;Location: 3262 - 3430" locus_tag="ctg28_7" class="clusterblast-orf" id="dummy-1_q6_0_all"  />
<polygon points="275,40 279,40 284,35 279,30 275,30 275,40 " style="fill:#1597d8; stroke-width:1; stroke:black; " description="&lt;b&gt;ctg28_8&lt;/b&gt;&lt;br&gt;ctg28 8&lt;br&gt;Location: 3562 - 4429" locus_tag="ctg28_8" class="clusterblast-orf" id="dummy-1_q7_0_all"  />
<polygon points="285,35 289,30 289,40 285,35 " style="fill:#c315d8; stroke-width:1; stroke:black; " description="&lt;b&gt;ctg28_9&lt;/b&gt;&lt;br&gt;ctg28 9&lt;br&gt;Location: 4518 - 4956" locus_tag="ctg28_9" class="clusterblast-orf" id="dummy-1_q8_0_all"  />
<polygon points="290,35 295,30 306,30 306,40 295,40 290,35 " style="fill:#d86c15; stroke-width:1; stroke:black; " description="&lt;b&gt;ctg28_10&lt;/b&gt;&lt;br&gt;ctg28 10&lt;br&gt;Location: 5075 - 6770" locus_tag="ctg28_10" class="clusterblast-orf" id="dummy-1_q9_0_all"  />
<polygon points="307,35 312,30 316,30 316,40 312,40 307,35 " style="fill:#15d815; stroke-width:1; stroke:black; " description="&lt;b&gt;ctg28_11&lt;/b&gt;&lt;br&gt;ctg28 11&lt;br&gt;Location: 6854 - 7814" locus_tag="ctg28_11" class="clusterblast-orf" id="dummy-1_q10_0_all"  />
<polygon points="316,35 321,30 330,30 330,40 321,40 316,35 " style="fill:#156cd8; stroke-width:1; stroke:black; " description="&lt;b&gt;ctg28_12&lt;/b&gt;&lt;br&gt;ctg28 12&lt;br&gt;Location: 7810 - 9211" locus_tag="ctg28_12" class="clusterblast-orf" id="dummy-1_q11_0_all"  />
<polygon points="331,35 336,30 340,30 340,40 336,40 331,35 " style="fill:#d815c3; stroke-width:1; stroke:black; " description="&lt;b&gt;ctg28_13&lt;/b&gt;&lt;br&gt;ctg28 13&lt;br&gt;Location: 9281 - 10226" locus_tag="ctg28_13" class="clusterblast-orf" id="dummy-1_q12_0_all"  />
<polygon points="341,35 346,30 353,30 353,40 346,40 341,35 " style="fill:#d89715; stroke-width:1; stroke:black; " description="&lt;b&gt;ctg28_14&lt;/b&gt;&lt;br&gt;ctg28 14&lt;br&gt;Location: 10298 - 11603" locus_tag="ctg28_14" class="clusterblast-orf" id="dummy-1_q13_0_all"  />
<polygon points="353,35 358,30 364,30 364,40 358,40 353,35 " style="fill:#15d841; stroke-width:1; stroke:black; " description="&lt;b&gt;ctg28_15&lt;/b&gt;&lt;br&gt;ctg28 15&lt;br&gt;Location: 11599 - 12679" locus_tag="ctg28_15" class="clusterblast-orf" id="dummy-1_q14_0_all"  />
<polygon points="363,35 368,30 373,30 373,40 368,40 363,35 " style="fill:#1541d8; stroke-width:1; stroke:black; " description="&lt;b&gt;ctg28_16&lt;/b&gt;&lt;br&gt;ctg28 16&lt;br&gt;Location: 12650 - 13634" locus_tag="ctg28_16" class="clusterblast-orf" id="dummy-1_q15_0_all"  />
<polygon points="373,35 378,30 383,30 383,40 378,40 373,35 " style="fill:#d81597; stroke-width:1; stroke:black; " description="&lt;b&gt;ctg28_17&lt;/b&gt;&lt;br&gt;ctg28 17&lt;br&gt;Location: 13630 - 14698" locus_tag="ctg28_17" class="clusterblast-orf" id="dummy-1_q16_0_all"  />
<polygon points="383,35 388,30 394,30 394,40 388,40 383,35 " style="fill:#d8c315; stroke-width:1; stroke:black; " description="&lt;b&gt;ctg28_18&lt;/b&gt;&lt;br&gt;ctg28 18&lt;br&gt;Location: 14723 - 15863" locus_tag="ctg28_18" class="clusterblast-orf" id="dummy-1_q17_0_all"  />
<polygon points="394,35 399,30 400,30 400,40 399,40 394,35 " style="fill:#15d86c; stroke-width:1; stroke:black; " description="&lt;b&gt;ctg28_19&lt;/b&gt;&lt;br&gt;ctg28 19&lt;br&gt;Location: 15859 - 16441" locus_tag="ctg28_19" class="clusterblast-orf" id="dummy-1_q18_0_all"  />
<polygon points="400,35 405,30 412,30 412,40 405,40 400,35 " style="fill:#d8c315; stroke-width:1; stroke:black; " description="&lt;b&gt;ctg28_20&lt;/b&gt;&lt;br&gt;ctg28 20&lt;br&gt;Location: 16440 - 17637" locus_tag="ctg28_20" class="clusterblast-orf" id="dummy-1_q19_0_all"  />
<polygon points="412,35 417,30 424,30 424,40 417,40 412,35 " style="fill:#d8c315; stroke-width:1; stroke:black; " description="&lt;b&gt;ctg28_21&lt;/b&gt;&lt;br&gt;ctg28 21&lt;br&gt;Location: 17665 - 18958" locus_tag="ctg28_21" class="clusterblast-orf" id="dummy-1_q20_0_all"  />
<polygon points="425,35 430,30 437,30 437,40 430,40 425,35 " style="fill:#1515d8; stroke-width:1; stroke:black; " description="&lt;b&gt;ctg28_22&lt;/b&gt;&lt;br&gt;ctg28 22&lt;br&gt;Location: 19016 - 20237" locus_tag="ctg28_22" class="clusterblast-orf" id="dummy-1_q21_0_all"  />
<polygon points="437,35 442,30 456,30 456,40 442,40 437,35 " style="fill:#d8156c; stroke-width:1; stroke:black; " description="&lt;b&gt;ctg28_23&lt;/b&gt;&lt;br&gt;ctg28 23&lt;br&gt;Location: 20245 - 22225" locus_tag="ctg28_23" class="clusterblast-orf" id="dummy-1_q22_0_all"  />
<polygon points="456,35 461,30 465,30 465,40 461,40 456,35 " style="fill:#c3d815; stroke-width:1; stroke:black; " description="&lt;b&gt;ctg28_24&lt;/b&gt;&lt;br&gt;ctg28 24&lt;br&gt;Location: 22227 - 23163" locus_tag="ctg28_24" class="clusterblast-orf" id="dummy-1_q23_0_all"  />
<polygon points="465,35 470,30 473,30 473,40 470,40 465,35 " style="fill:#15d897; stroke-width:1; stroke:black; " description="&lt;b&gt;ctg28_25&lt;/b&gt;&lt;br&gt;ctg28 25&lt;br&gt;Location: 23182 - 23968" locus_tag="ctg28_25" class="clusterblast-orf" id="dummy-1_q24_0_all"  />
<polygon points="474,35 477,30 477,40 474,35 " style="fill:#4115d8; stroke-width:1; stroke:black; " description="&lt;b&gt;ctg28_26&lt;/b&gt;&lt;br&gt;ctg28 26&lt;br&gt;Location: 24103 - 24373" locus_tag="ctg28_26" class="clusterblast-orf" id="dummy-1_q25_0_all"  />
<polygon points="478,35 483,30 490,30 490,40 483,40 478,35 " style="fill:#d81541; stroke-width:1; stroke:black; " description="&lt;b&gt;ctg28_27&lt;/b&gt;&lt;br&gt;ctg28 27&lt;br&gt;Location: 24460 - 25684" locus_tag="ctg28_27" class="clusterblast-orf" id="dummy-1_q26_0_all"  />
<polygon points="490,35 495,30 502,30 502,40 495,40 490,35 " style="fill:#d81541; stroke-width:1; stroke:black; " description="&lt;b&gt;ctg28_28&lt;/b&gt;&lt;br&gt;ctg28 28&lt;br&gt;Location: 25680 - 26961" locus_tag="ctg28_28" class="clusterblast-orf" id="dummy-1_q27_0_all"  />
<polygon points="502,35 504,30 504,40 502,35 " style="fill:#97d815; stroke-width:1; stroke:black; " description="&lt;b&gt;ctg28_29&lt;/b&gt;&lt;br&gt;ctg28 29&lt;br&gt;Location: 26957 - 27185" locus_tag="ctg28_29" class="clusterblast-orf" id="dummy-1_q28_0_all"  />
<polygon points="505,35 510,30 520,30 520,40 510,40 505,35 " style="fill:#d8156c; stroke-width:1; stroke:black; " description="&lt;b&gt;ctg28_30&lt;/b&gt;&lt;br&gt;ctg28 30&lt;br&gt;Location: 27295 - 28783" locus_tag="ctg28_30" class="clusterblast-orf" id="dummy-1_q29_0_all"  />
<polygon points="520,40 523,35 520,30 520,40 " style="fill:white; stroke-width:1; stroke:black; " description="&lt;b&gt;ctg28_31&lt;/b&gt;&lt;br&gt;ctg28 31&lt;br&gt;Location: 28868 - 29126" locus_tag="ctg28_31" class="clusterblast-orf" id="dummy-1_q30_0_all"  />
<polygon points="523,35 528,30 529,30 529,40 528,40 523,35 " style="fill:#15d8c3; stroke-width:1; stroke:black; " description="&lt;b&gt;ctg28_32&lt;/b&gt;&lt;br&gt;ctg28 32&lt;br&gt;Location: 29105 - 29753" locus_tag="ctg28_32" class="clusterblast-orf" id="dummy-1_q31_0_all"  />
<polygon points="532,35 537,30 538,30 538,40 537,40 532,35 " style="fill:#6c15d8; stroke-width:1; stroke:black; " description="&lt;b&gt;ctg28_33&lt;/b&gt;&lt;br&gt;ctg28 33&lt;br&gt;Location: 30087 - 30720" locus_tag="ctg28_33" class="clusterblast-orf" id="dummy-1_q32_0_all"  />
</g>
<g label="NZ_KB891297" description="NZ_KB891297_c7: Streptomyces sp. ScaeMP-e10 B061DRAFT scaffold 1.2, whole gen... (43% of genes show similarity), t2pks-oligosaccharide" class="clusterblast-cluster"  >
<text x="5" y="70" class="clusterblast-acc"  >
<a xlink:href="https://antismash-db.secondarymetabolites.org/go/NZ_KB891297/7" target="_blank">NZ_KB891297_c7</a>: Streptomyces sp. ScaeMP-e10 B061DRAFT scaffold 1.2, whole gen... (43% of genes show similarity), t2pks-oligosaccharide</text>
<line x1="10" y1="85" x2="778.0" y2="85" style="stroke-width:1; stroke:grey; "  />
</g>
<g id="a1_000"  >
<polygon points="0,90 5,90 10,85 5,80 0,80 0,90 " style="fill:#d8c315; stroke-width:1; stroke:black; " description="&lt;b&gt;B061_RS0110040&lt;/b&gt;&lt;br&gt;DUF1205 domain-containing protein&lt;br&gt;Location: 268142 - 267009&lt;br&gt;&lt;br&gt;&lt;b&gt;BlastP hit with ctg28_18&lt;/b&gt;&lt;br&gt;Percentage identity: 47&lt;br&gt;Percentage coverage: 99&lt;br&gt;BLAST bit score: 337&lt;br&gt;E-value: 1.4e-90&lt;br&gt;&lt;br&gt;&lt;b&gt;BlastP hit with ctg28_20&lt;/b&gt;&lt;br&gt;Percentage identity: 31&lt;br&gt;Percentage coverage: 99&lt;br&gt;BLAST bit score: 143&lt;br&gt;E-value: 5.4e-32" locus_tag="B061_RS0110040" class="clusterblast-orf" id="dummy-1_h1_6_0"  />
</g>
<g id="a1_001"  >
<polygon points="11,85 16,80 20,80 20,90 16,90 11,85 " style="fill:white; stroke-width:1; stroke:black; " description="&lt;b&gt;B061_RS0110035&lt;/b&gt;&lt;br&gt;alpha/beta hydrolase&lt;br&gt;Location: 266980 - 266048" locus_tag="B061_RS0110035" class="clusterblast-orf" id="dummy-1_h1_6_1"  />
</g>
<g id="a1_002"  >
<polygon points="20,85 25,80 34,80 34,90 25,90 20,85 " style="fill:#156cd8; stroke-width:1; stroke:black; " description="&lt;b&gt;B061_RS0110030&lt;/b&gt;&lt;br&gt;hypothetical protein&lt;br&gt;Location: 265976 - 264567&lt;br&gt;&lt;br&gt;&lt;b&gt;BlastP hit with ctg28_12&lt;/b&gt;&lt;br&gt;Percentage identity: 72&lt;br&gt;Percentage coverage: 96&lt;br&gt;BLAST bit score: 666&lt;br&gt;E-value: 2.1e-189" locus_tag="B061_RS0110030" class="clusterblast-orf" id="dummy-1_h1_6_2"  />
</g>
<g id="a1_003"  >
<polygon points="35,85 40,80 47,80 47,90 40,90 35,85 " style="fill:#d89715; stroke-width:1; stroke:black; " description="&lt;b&gt;B061_RS0110025&lt;/b&gt;&lt;br&gt;lipopolysaccharide biosynthesis protein RfbH&lt;br&gt;Location: 264525 - 263221&lt;br&gt;&lt;br&gt;&lt;b&gt;BlastP hit with ctg28_14&lt;/b&gt;&lt;br&gt;Percentage identity: 82&lt;br&gt;Percentage coverage: 100&lt;br&gt;BLAST bit score: 750&lt;br&gt;E-value: 8e-215" locus_tag="B061_RS0110025" class="clusterblast-orf" id="dummy-1_h1_6_3"  />
</g>
<g id="a1_004"  >
<polygon points="48,85 53,80 57,80 57,90 53,90 48,85 " style="fill:#15d841; stroke-width:1; stroke:black; " description="&lt;b&gt;B061_RS36420&lt;/b&gt;&lt;br&gt;NAD(P)-dependent oxidoreductase&lt;br&gt;Location: 263184 - 262231&lt;br&gt;&lt;br&gt;&lt;b&gt;BlastP hit with ctg28_15&lt;/b&gt;&lt;br&gt;Percentage identity: 50&lt;br&gt;Percentage coverage: 92&lt;br&gt;BLAST bit score: 264&lt;br&gt;E-value: 2.5e-68" locus_tag="B061_RS36420" class="clusterblast-orf" id="dummy-1_h1_6_4"  />
</g>
<g id="a1_005"  >
<polygon points="57,85 62,80 66,80 66,90 62,90 57,85 " style="fill:#1541d8; stroke-width:1; stroke:black; " description="&lt;b&gt;B061_RS0110015&lt;/b&gt;&lt;br&gt;dTDP-glucose 4,6-dehydratase&lt;br&gt;Location: 262234 - 261251&lt;br&gt;&lt;br&gt;&lt;b&gt;BlastP hit with ctg28_16&lt;/b&gt;&lt;br&gt;Percentage identity: 77&lt;br&gt;Percentage coverage: 97&lt;br&gt;BLAST bit score: 527&lt;br&gt;E-value: 1.4e-147" locus_tag="B061_RS0110015" class="clusterblast-orf" id="dummy-1_h1_6_5"  />
</g>
<g id="a1_006"  >
<polygon points="66,85 71,80 77,80 77,90 71,90 66,85 " style="fill:#d81597; stroke-width:1; stroke:black; " description="&lt;b&gt;B061_RS0110010&lt;/b&gt;&lt;br&gt;glucose-1-phosphate thymidylyltransferase&lt;br&gt;Location: 261254 - 260187&lt;br&gt;&lt;br&gt;&lt;b&gt;BlastP hit with ctg28_17&lt;/b&gt;&lt;br&gt;Percentage identity: 62&lt;br&gt;Percentage coverage: 100&lt;br&gt;BLAST bit score: 431&lt;br&gt;E-value: 8.8e-119" locus_tag="B061_RS0110010" class="clusterblast-orf" id="dummy-1_h1_6_6"  />
</g>
<g id="a1_007"  >
<polygon points="77,85 82,80 82,80 82,90 82,90 77,85 " style="fill:#15d86c; stroke-width:1; stroke:black; " description="&lt;b&gt;B061_RS0110005&lt;/b&gt;&lt;br&gt;dTDP-4-keto-6-deoxy-D-glucose epimerase&lt;br&gt;Location: 260190 - 259615&lt;br&gt;&lt;br&gt;&lt;b&gt;BlastP hit with ctg28_19&lt;/b&gt;&lt;br&gt;Percentage identity: 67&lt;br&gt;Percentage coverage: 95&lt;br&gt;BLAST bit score: 266&lt;br&gt;E-value: 2e-69" locus_tag="B061_RS0110005" class="clusterblast-orf" id="dummy-1_h1_6_7"  />
</g>
<g id="a1_008"  >
<polygon points="82,85 87,80 91,80 91,90 87,90 82,85 " style="fill:white; stroke-width:1; stroke:black; " description="&lt;b&gt;B061_RS38925&lt;/b&gt;&lt;br&gt;SAM-dependent methyltransferase&lt;br&gt;Location: 259611 - 258694" locus_tag="B061_RS38925" class="clusterblast-orf" id="dummy-1_h1_6_8"  />
</g>
<g id="a1_009"  >
<polygon points="97,85 102,80 105,80 105,90 102,90 97,85 " style="fill:white; stroke-width:1; stroke:black; " description="&lt;b&gt;B061_RS0109995&lt;/b&gt;&lt;br&gt;nucleoside-diphosphate sugar epimerase&lt;br&gt;Location: 258125 - 257262" locus_tag="B061_RS0109995" class="clusterblast-orf" id="dummy-1_h1_6_9"  />
</g>
<g id="a1_0010"  >
<polygon points="107,85 109,80 109,90 107,85 " style="fill:white; stroke-width:1; stroke:black; " description="&lt;b&gt;B061_RS0109990&lt;/b&gt;&lt;br&gt;hypothetical protein&lt;br&gt;Location: 257073 - 256864" locus_tag="B061_RS0109990" class="clusterblast-orf" id="dummy-1_h1_6_10"  />
</g>
<g id="a1_0011"  >
<polygon points="109,85 114,80 124,80 124,90 114,90 109,85 " style="fill:white; stroke-width:1; stroke:black; " description="&lt;b&gt;B061_RS0109985&lt;/b&gt;&lt;br&gt;acyl-CoA carboxylase subunit beta&lt;br&gt;Location: 256843 - 255290" locus_tag="B061_RS0109985" class="clusterblast-orf" id="dummy-1_h1_6_11"  />
</g>
<g id="a1_0012"  >
<polygon points="125,85 130,80 132,80 132,90 130,90 125,85 " style="fill:white; stroke-width:1; stroke:black; " description="&lt;b&gt;B061_RS0109980&lt;/b&gt;&lt;br&gt;hypothetical protein&lt;br&gt;Location: 255238 - 254501" locus_tag="B061_RS0109980" class="clusterblast-orf" id="dummy-1_h1_6_12"  />
</g>
<g id="a1_0013"  >
<polygon points="132,85 137,80 146,80 146,90 137,90 132,85 " style="fill:#1515d8; stroke-width:1; stroke:black; " description="&lt;b&gt;B061_RS0109975&lt;/b&gt;&lt;br&gt;MFS transporter&lt;br&gt;Location: 254504 - 253065&lt;br&gt;&lt;br&gt;&lt;b&gt;BlastP hit with ctg28_22&lt;/b&gt;&lt;br&gt;Percentage identity: 45&lt;br&gt;Percentage coverage: 109&lt;br&gt;BLAST bit score: 288&lt;br&gt;E-value: 1.1e-75" locus_tag="B061_RS0109975" class="clusterblast-orf" id="dummy-1_h1_6_13"  />
</g>
<g id="a1_0014"  >
<polygon points="146,85 151,80 168,80 168,90 151,90 146,85 " style="fill:#d8156c; stroke-width:1; stroke:black; " description="&lt;b&gt;B061_RS0109970&lt;/b&gt;&lt;br&gt;KR domain-containing protein&lt;br&gt;Location: 252980 - 250710&lt;br&gt;&lt;br&gt;&lt;b&gt;BlastP hit with ctg28_23&lt;/b&gt;&lt;br&gt;Percentage identity: 53&lt;br&gt;Percentage coverage: 115&lt;br&gt;BLAST bit score: 691&lt;br&gt;E-value: 6.7e-197&lt;br&gt;&lt;br&gt;&lt;b&gt;BlastP hit with ctg28_30&lt;/b&gt;&lt;br&gt;Percentage identity: 49&lt;br&gt;Percentage coverage: 101&lt;br&gt;BLAST bit score: 435&lt;br&gt;E-value: 8.5e-120" locus_tag="B061_RS0109970" class="clusterblast-orf" id="dummy-1_h1_6_14"  />
</g>
<g id="a1_0015"  >
<polygon points="169,85 174,80 178,80 178,90 174,90 169,85 " style="fill:#c3d815; stroke-width:1; stroke:black; " description="&lt;b&gt;B061_RS0109965&lt;/b&gt;&lt;br&gt;cyclase&lt;br&gt;Location: 250647 - 249712&lt;br&gt;&lt;br&gt;&lt;b&gt;BlastP hit with ctg28_24&lt;/b&gt;&lt;br&gt;Percentage identity: 71&lt;br&gt;Percentage coverage: 99&lt;br&gt;BLAST bit score: 435&lt;br&gt;E-value: 4.1e-120" locus_tag="B061_RS0109965" class="clusterblast-orf" id="dummy-1_h1_6_15"  />
</g>
<g id="a1_0016"  >
<polygon points="178,85 183,80 186,80 186,90 183,90 178,85 " style="fill:#15d897; stroke-width:1; stroke:black; " description="&lt;b&gt;B061_RS0109960&lt;/b&gt;&lt;br&gt;3-oxoacyl-ACP reductase FabG&lt;br&gt;Location: 249670 - 248885&lt;br&gt;&lt;br&gt;&lt;b&gt;BlastP hit with ctg28_25&lt;/b&gt;&lt;br&gt;Percentage identity: 84&lt;br&gt;Percentage coverage: 100&lt;br&gt;BLAST bit score: 419&lt;br&gt;E-value: 2.5e-115" locus_tag="B061_RS0109960" class="clusterblast-orf" id="dummy-1_h1_6_16"  />
</g>
<g id="a1_0017"  >
<polygon points="187,85 189,80 189,90 187,85 " style="fill:#4115d8; stroke-width:1; stroke:black; " description="&lt;b&gt;B061_RS0109955&lt;/b&gt;&lt;br&gt;acyl carrier protein&lt;br&gt;Location: 248831 - 248562&lt;br&gt;&lt;br&gt;&lt;b&gt;BlastP hit with ctg28_26&lt;/b&gt;&lt;br&gt;Percentage identity: 66&lt;br&gt;Percentage coverage: 93&lt;br&gt;BLAST bit score: 105&lt;br&gt;E-value: 3.6e-21" locus_tag="B061_RS0109955" class="clusterblast-orf" id="dummy-1_h1_6_17"  />
</g>
<g id="a1_0018"  >
<polygon points="189,85 194,80 202,80 202,90 194,90 189,85 " style="fill:#d81541; stroke-width:1; stroke:black; " description="&lt;b&gt;B061_RS0109950&lt;/b&gt;&lt;br&gt;ketosynthase chain-length factor&lt;br&gt;Location: 248559 - 247291&lt;br&gt;&lt;br&gt;&lt;b&gt;BlastP hit with ctg28_27&lt;/b&gt;&lt;br&gt;Percentage identity: 71&lt;br&gt;Percentage coverage: 97&lt;br&gt;BLAST bit score: 579&lt;br&gt;E-value: 3.9e-163&lt;br&gt;&lt;br&gt;&lt;b&gt;BlastP hit with ctg28_28&lt;/b&gt;&lt;br&gt;Percentage identity: 35&lt;br&gt;Percentage coverage: 97&lt;br&gt;BLAST bit score: 184&lt;br&gt;E-value: 2.9e-44" locus_tag="B061_RS0109950" class="clusterblast-orf" id="dummy-1_h1_6_18"  />
</g>
<g id="a1_0019"  >
<polygon points="202,85 207,80 214,80 214,90 207,90 202,85 " style="fill:#d81541; stroke-width:1; stroke:black; " description="&lt;b&gt;B061_RS0109945&lt;/b&gt;&lt;br&gt;beta-ketoacyl-[acyl-carrier-protein] synthase family protein&lt;br&gt;Location: 247294 - 245999&lt;br&gt;&lt;br&gt;&lt;b&gt;BlastP hit with ctg28_27&lt;/b&gt;&lt;br&gt;Percentage identity: 32&lt;br&gt;Percentage coverage: 102&lt;br&gt;BLAST bit score: 177&lt;br&gt;E-value: 3.4e-42&lt;br&gt;&lt;br&gt;&lt;b&gt;BlastP hit with ctg28_28&lt;/b&gt;&lt;br&gt;Percentage identity: 83&lt;br&gt;Percentage coverage: 99&lt;br&gt;BLAST bit score: 695&lt;br&gt;E-value: 3.9e-198" locus_tag="B061_RS0109945" class="clusterblast-orf" id="dummy-1_h1_6_19"  />
</g>
<g id="a1_0020"  >
<polygon points="214,85 217,80 217,90 214,85 " style="fill:#97d815; stroke-width:1; stroke:black; " description="&lt;b&gt;B061_RS0109940&lt;/b&gt;&lt;br&gt;TcmI family type II polyketide cyclase&lt;br&gt;Location: 246002 - 245673&lt;br&gt;&lt;br&gt;&lt;b&gt;BlastP hit with ctg28_29&lt;/b&gt;&lt;br&gt;Percentage identity: 80&lt;br&gt;Percentage coverage: 99&lt;br&gt;BLAST bit score: 126&lt;br&gt;E-value: 9.8e-28" locus_tag="B061_RS0109940" class="clusterblast-orf" id="dummy-1_h1_6_20"  />
</g>
<g id="a1_0021"  >
<polygon points="218,85 223,80 232,80 232,90 223,90 218,85 " style="fill:#d8156c; stroke-width:1; stroke:black; " description="&lt;b&gt;B061_RS0109935&lt;/b&gt;&lt;br&gt;monooxygenase&lt;br&gt;Location: 245621 - 244140&lt;br&gt;&lt;br&gt;&lt;b&gt;BlastP hit with ctg28_23&lt;/b&gt;&lt;br&gt;Percentage identity: 39&lt;br&gt;Percentage coverage: 75&lt;br&gt;BLAST bit score: 282&lt;br&gt;E-value: 1.6e-73&lt;br&gt;&lt;br&gt;&lt;b&gt;BlastP hit with ctg28_30&lt;/b&gt;&lt;br&gt;Percentage identity: 77&lt;br&gt;Percentage coverage: 99&lt;br&gt;BLAST bit score: 766&lt;br&gt;E-value: 2.1e-219" locus_tag="B061_RS0109935" class="clusterblast-orf" id="dummy-1_h1_6_21"  />
</g>
<g id="a1_0022"  >
<polygon points="237,85 242,80 244,80 244,90 242,90 237,85 " style="fill:#1597d8; stroke-width:1; stroke:black; " description="&lt;b&gt;B061_RS0109930&lt;/b&gt;&lt;br&gt;DNA-binding response regulator&lt;br&gt;Location: 243652 - 242873&lt;br&gt;&lt;br&gt;&lt;b&gt;BlastP hit with ctg28_8&lt;/b&gt;&lt;br&gt;Percentage identity: 64&lt;br&gt;Percentage coverage: 76&lt;br&gt;BLAST bit score: 267&lt;br&gt;E-value: 1.8e-69" locus_tag="B061_RS0109930" class="clusterblast-orf" id="dummy-1_h1_6_22"  />
</g>
<g id="a1_0023"  >
<polygon points="248,85 253,80 253,80 253,90 253,90 248,85 " style="fill:white; stroke-width:1; stroke:black; " description="&lt;b&gt;B061_RS0109925&lt;/b&gt;&lt;br&gt;NADPH-dependent oxidoreductase&lt;br&gt;Location: 242522 - 241962" locus_tag="B061_RS0109925" class="clusterblast-orf" id="dummy-1_h1_6_23"  />
</g>
<g id="a1_0024"  >
<polygon points="255,90 259,90 264,85 259,80 255,80 255,90 " style="fill:white; stroke-width:1; stroke:black; " description="&lt;b&gt;B061_RS0109920&lt;/b&gt;&lt;br&gt;AraC family transcriptional regulator&lt;br&gt;Location: 241807 - 240851" locus_tag="B061_RS0109920" class="clusterblast-orf" id="dummy-1_h1_6_24"  />
</g>
<g id="a1_0025"  >
<polygon points="264,85 269,80 282,80 282,90 269,90 264,85 " style="fill:white; stroke-width:1; stroke:black; " description="&lt;b&gt;B061_RS0109915&lt;/b&gt;&lt;br&gt;ABC transporter ATP-binding protein&lt;br&gt;Location: 240842 - 238968" locus_tag="B061_RS0109915" class="clusterblast-orf" id="dummy-1_h1_6_25"  />
</g>
<g id="a1_0026"  >
<polygon points="282,85 287,80 299,80 299,90 287,90 282,85 " style="fill:white; stroke-width:1; stroke:black; " description="&lt;b&gt;B061_RS0109910&lt;/b&gt;&lt;br&gt;ABC transporter ATP-binding protein&lt;br&gt;Location: 238971 - 237238" locus_tag="B061_RS0109910" class="clusterblast-orf" id="dummy-1_h1_6_26"  />
</g>
<g id="a1_0027"  >
<polygon points="300,85 305,80 310,80 310,90 305,90 300,85 " style="fill:white; stroke-width:1; stroke:black; " description="&lt;b&gt;B061_RS0109905&lt;/b&gt;&lt;br&gt;NAD-dependent epimerase/dehydratase&lt;br&gt;Location: 237161 - 236124" locus_tag="B061_RS0109905" class="clusterblast-orf" id="dummy-1_h1_6_27"  />
</g>
<g id="a1_0028"  >
<polygon points="310,85 315,80 322,80 322,90 315,90 310,85 " style="fill:#d8c315; stroke-width:1; stroke:black; " description="&lt;b&gt;B061_RS0109900&lt;/b&gt;&lt;br&gt;DUF1205 domain-containing protein&lt;br&gt;Location: 236127 - 234808&lt;br&gt;&lt;br&gt;&lt;b&gt;BlastP hit with ctg28_20&lt;/b&gt;&lt;br&gt;Percentage identity: 33&lt;br&gt;Percentage coverage: 107&lt;br&gt;BLAST bit score: 132&lt;br&gt;E-value: 1.2e-28" locus_tag="B061_RS0109900" class="clusterblast-orf" id="dummy-1_h1_6_28"  />
</g>
<g id="a1_0029"  >
<polygon points="323,85 328,80 335,80 335,90 328,90 323,85 " style="fill:#d8c315; stroke-width:1; stroke:black; " description="&lt;b&gt;B061_RS0109895&lt;/b&gt;&lt;br&gt;DUF1205 domain-containing protein&lt;br&gt;Location: 234707 - 233505&lt;br&gt;&lt;br&gt;&lt;b&gt;BlastP hit with ctg28_20&lt;/b&gt;&lt;br&gt;Percentage identity: 53&lt;br&gt;Percentage coverage: 101&lt;br&gt;BLAST bit score: 380&lt;br&gt;E-value: 2e-103&lt;br&gt;&lt;br&gt;&lt;b&gt;BlastP hit with ctg28_21&lt;/b&gt;&lt;br&gt;Percentage identity: 32&lt;br&gt;Percentage coverage: 106&lt;br&gt;BLAST bit score: 157&lt;br&gt;E-value: 3.9e-36" locus_tag="B061_RS0109895" class="clusterblast-orf" id="dummy-1_h1_6_29"  />
</g>
<g id="a1_0030"  >
<polygon points="336,85 341,80 344,80 344,90 341,90 336,85 " style="fill:white; stroke-width:1; stroke:black; " description="&lt;b&gt;B061_RS0109890&lt;/b&gt;&lt;br&gt;nucleoside-diphosphate sugar epimerase&lt;br&gt;Location: 233401 - 232559" locus_tag="B061_RS0109890" class="clusterblast-orf" id="dummy-1_h1_6_30"  />
</g>
<g id="a1_0031"  >
<polygon points="346,90 348,90 353,85 348,80 346,80 346,90 " style="fill:#6c15d8; stroke-width:1; stroke:black; " description="&lt;b&gt;B061_RS0109885&lt;/b&gt;&lt;br&gt;TetR/AcrR family transcriptional regulator&lt;br&gt;Location: 232359 - 231658&lt;br&gt;&lt;br&gt;&lt;b&gt;BlastP hit with ctg28_33&lt;/b&gt;&lt;br&gt;Percentage identity: 36&lt;br&gt;Percentage coverage: 105&lt;br&gt;BLAST bit score: 120&lt;br&gt;E-value: 2e-25" locus_tag="B061_RS0109885" class="clusterblast-orf" id="dummy-1_h1_6_31"  />
</g>
<g id="a1_0032"  >
<polygon points="353,85 358,80 363,80 363,90 358,90 353,85 " style="fill:#15d841; stroke-width:1; stroke:black; " description="&lt;b&gt;B061_RS0109880&lt;/b&gt;&lt;br&gt;NAD(P)-dependent oxidoreductase&lt;br&gt;Location: 231678 - 230677&lt;br&gt;&lt;br&gt;&lt;b&gt;BlastP hit with ctg28_15&lt;/b&gt;&lt;br&gt;Percentage identity: 37&lt;br&gt;Percentage coverage: 93&lt;br&gt;BLAST bit score: 143&lt;br&gt;E-value: 6.3e-32" locus_tag="B061_RS0109880" class="clusterblast-orf" id="dummy-1_h1_6_32"  />
</g>
<g id="a1_0033"  >
<polygon points="363,85 368,80 369,80 369,90 368,90 363,85 " style="fill:white; stroke-width:1; stroke:black; " description="&lt;b&gt;B061_RS0109875&lt;/b&gt;&lt;br&gt;dTDP-4-keto-6-deoxy-D-glucose epimerase&lt;br&gt;Location: 230673 - 230038" locus_tag="B061_RS0109875" class="clusterblast-orf" id="dummy-1_h1_6_33"  />
</g>
<g id="a1_0034"  >
<polygon points="369,85 374,80 379,80 379,90 374,90 369,85 " style="fill:white; stroke-width:1; stroke:black; " description="&lt;b&gt;B061_RS36415&lt;/b&gt;&lt;br&gt;SDR family NAD-dependent epimerase/dehydratase&lt;br&gt;Location: 230023 - 228962" locus_tag="B061_RS36415" class="clusterblast-orf" id="dummy-1_h1_6_34"  />
</g>
<g id="a1_0035"  >
<polygon points="379,85 384,80 385,80 385,90 384,90 379,85 " style="fill:#15d86c; stroke-width:1; stroke:black; " description="&lt;b&gt;B061_RS0109865&lt;/b&gt;&lt;br&gt;dTDP-4-keto-6-deoxy-D-glucose epimerase&lt;br&gt;Location: 228965 - 228339&lt;br&gt;&lt;br&gt;&lt;b&gt;BlastP hit with ctg28_19&lt;/b&gt;&lt;br&gt;Percentage identity: 41&lt;br&gt;Percentage coverage: 102&lt;br&gt;BLAST bit score: 154&lt;br&gt;E-value: 1.1e-35" locus_tag="B061_RS0109865" class="clusterblast-orf" id="dummy-1_h1_6_35"  />
</g>
<g id="a1_0036"  >
<polygon points="386,85 391,80 398,80 398,90 391,90 386,85 " style="fill:#d8c315; stroke-width:1; stroke:black; " description="&lt;b&gt;B061_RS0109860&lt;/b&gt;&lt;br&gt;DUF1205 domain-containing protein&lt;br&gt;Location: 228277 - 227003&lt;br&gt;&lt;br&gt;&lt;b&gt;BlastP hit with ctg28_21&lt;/b&gt;&lt;br&gt;Percentage identity: 45&lt;br&gt;Percentage coverage: 100&lt;br&gt;BLAST bit score: 337&lt;br&gt;E-value: 2.7e-90" locus_tag="B061_RS0109860" class="clusterblast-orf" id="dummy-1_h1_6_36"  />
</g>
<g id="a1_0037"  >
<polygon points="399,85 404,80 410,80 410,90 404,90 399,85 " style="fill:#d8c315; stroke-width:1; stroke:black; " description="&lt;b&gt;B061_RS0109855&lt;/b&gt;&lt;br&gt;DUF1205 domain-containing protein&lt;br&gt;Location: 226914 - 225736&lt;br&gt;&lt;br&gt;&lt;b&gt;BlastP hit with ctg28_18&lt;/b&gt;&lt;br&gt;Percentage identity: 44&lt;br&gt;Percentage coverage: 103&lt;br&gt;BLAST bit score: 319&lt;br&gt;E-value: 5.2e-85&lt;br&gt;&lt;br&gt;&lt;b&gt;BlastP hit with ctg28_20&lt;/b&gt;&lt;br&gt;Percentage identity: 35&lt;br&gt;Percentage coverage: 103&lt;br&gt;BLAST bit score: 151&lt;br&gt;E-value: 2.6e-34" locus_tag="B061_RS0109855" class="clusterblast-orf" id="dummy-1_h1_6_37"  />
</g>
<g id="a1_0038"  >
<polygon points="411,85 416,80 423,80 423,90 416,90 411,85 " style="fill:#d8c315; stroke-width:1; stroke:black; " description="&lt;b&gt;B061_RS0109850&lt;/b&gt;&lt;br&gt;DUF1205 domain-containing protein&lt;br&gt;Location: 225647 - 224427&lt;br&gt;&lt;br&gt;&lt;b&gt;BlastP hit with ctg28_20&lt;/b&gt;&lt;br&gt;Percentage identity: 52&lt;br&gt;Percentage coverage: 102&lt;br&gt;BLAST bit score: 374&lt;br&gt;E-value: 1.1e-101" locus_tag="B061_RS0109850" class="clusterblast-orf" id="dummy-1_h1_6_38"  />
</g>
<g id="a1_0039"  >
<polygon points="424,85 429,80 436,80 436,90 429,90 424,85 " style="fill:#d8c315; stroke-width:1; stroke:black; " description="&lt;b&gt;B061_RS0109845&lt;/b&gt;&lt;br&gt;activator-dependent family glycosyltransferase&lt;br&gt;Location: 224377 - 223097&lt;br&gt;&lt;br&gt;&lt;b&gt;BlastP hit with ctg28_21&lt;/b&gt;&lt;br&gt;Percentage identity: 48&lt;br&gt;Percentage coverage: 103&lt;br&gt;BLAST bit score: 372&lt;br&gt;E-value: 5.9e-101" locus_tag="B061_RS0109845" class="clusterblast-orf" id="dummy-1_h1_6_39"  />
</g>
<g id="a1_0040"  >
<polygon points="437,85 442,80 445,80 445,90 442,90 437,85 " style="fill:#d815c3; stroke-width:1; stroke:black; " description="&lt;b&gt;B061_RS0109840&lt;/b&gt;&lt;br&gt;hypothetical protein&lt;br&gt;Location: 223041 - 222211&lt;br&gt;&lt;br&gt;&lt;b&gt;BlastP hit with ctg28_13&lt;/b&gt;&lt;br&gt;Percentage identity: 44&lt;br&gt;Percentage coverage: 98&lt;br&gt;BLAST bit score: 215&lt;br&gt;E-value: 6.7e-54" locus_tag="B061_RS0109840" class="clusterblast-orf" id="dummy-1_h1_6_40"  />
</g>
<g id="a1_0041"  >
<polygon points="445,85 450,80 452,80 452,90 450,90 445,85 " style="fill:white; stroke-width:1; stroke:black; " description="&lt;b&gt;B061_RS0109835&lt;/b&gt;&lt;br&gt;class I SAM-dependent methyltransferase&lt;br&gt;Location: 222174 - 221425" locus_tag="B061_RS0109835" class="clusterblast-orf" id="dummy-1_h1_6_41"  />
</g>
<g id="a1_0042"  >
<polygon points="453,85 458,80 463,80 463,90 458,90 453,85 " style="fill:white; stroke-width:1; stroke:black; " description="&lt;b&gt;B061_RS0109830&lt;/b&gt;&lt;br&gt;DegT/DnrJ/EryC1/StrS family aminotransferase&lt;br&gt;Location: 221386 - 220265" locus_tag="B061_RS0109830" class="clusterblast-orf" id="dummy-1_h1_6_42"  />
</g>
<g id="a1_0043"  >
<polygon points="464,85 469,80 478,80 478,90 469,90 464,85 " style="fill:white; stroke-width:1; stroke:black; " description="&lt;b&gt;B061_RS0109825&lt;/b&gt;&lt;br&gt;dTDP-4-amino-4,6-dideoxy-D-glucose ammonia-lyase&lt;br&gt;Location: 220210 - 218759" locus_tag="B061_RS0109825" class="clusterblast-orf" id="dummy-1_h1_6_43"  />
</g>
<g id="a1_0044"  >
<polygon points="478,85 483,80 490,80 490,90 483,90 478,85 " style="fill:white; stroke-width:1; stroke:black; " description="&lt;b&gt;B061_RS0109820&lt;/b&gt;&lt;br&gt;dTDP-4-dehydro-6-deoxyglucose aminotransferase&lt;br&gt;Location: 218762 - 217557" locus_tag="B061_RS0109820" class="clusterblast-orf" id="dummy-1_h1_6_44"  />
</g>
<g id="a1_0045"  >
<polygon points="491,85 496,80 500,80 500,90 496,90 491,85 " style="fill:#15d815; stroke-width:1; stroke:black; " description="&lt;b&gt;B061_RS0109815&lt;/b&gt;&lt;br&gt;gfo/Idh/MocA family oxidoreductase&lt;br&gt;Location: 217421 - 216441&lt;br&gt;&lt;br&gt;&lt;b&gt;BlastP hit with ctg28_11&lt;/b&gt;&lt;br&gt;Percentage identity: 64&lt;br&gt;Percentage coverage: 99&lt;br&gt;BLAST bit score: 382&lt;br&gt;E-value: 5.5e-104" locus_tag="B061_RS0109815" class="clusterblast-orf" id="dummy-1_h1_6_45"  />
</g>
<g id="a1_0046"  >
<polygon points="505,90 508,90 513,85 508,80 505,80 505,90 " style="fill:#15d8c3; stroke-width:1; stroke:black; " description="&lt;b&gt;B061_RS37740&lt;/b&gt;&lt;br&gt;DNA-binding protein&lt;br&gt;Location: 215998 - 215147&lt;br&gt;&lt;br&gt;&lt;b&gt;BlastP hit with ctg28_32&lt;/b&gt;&lt;br&gt;Percentage identity: 49&lt;br&gt;Percentage coverage: 102&lt;br&gt;BLAST bit score: 196&lt;br&gt;E-value: 2.2e-48" locus_tag="B061_RS37740" class="clusterblast-orf" id="dummy-1_h1_6_46"  />
</g>
<g id="a1_0047"  >
<polygon points="514,85 519,80 521,80 521,90 519,90 514,85 " style="fill:#1597d8; stroke-width:1; stroke:black; " description="&lt;b&gt;B061_RS36405&lt;/b&gt;&lt;br&gt;DNA-binding response regulator&lt;br&gt;Location: 215076 - 214342&lt;br&gt;&lt;br&gt;&lt;b&gt;BlastP hit with ctg28_8&lt;/b&gt;&lt;br&gt;Percentage identity: 51&lt;br&gt;Percentage coverage: 76&lt;br&gt;BLAST bit score: 205&lt;br&gt;E-value: 8.3e-51" locus_tag="B061_RS36405" class="clusterblast-orf" id="dummy-1_h1_6_47"  />
</g>
<g id="a1_0048"  >
<polygon points="526,85 530,80 530,90 526,85 " style="fill:white; stroke-width:1; stroke:black; " description="&lt;b&gt;B061_RS36400&lt;/b&gt;&lt;br&gt;DNA-binding response regulator&lt;br&gt;Location: 213796 - 213362" locus_tag="B061_RS36400" class="clusterblast-orf" id="dummy-1_h1_6_48"  />
</g>
<g id="a1_0049"  >
<polygon points="530,85 535,80 539,80 539,90 535,90 530,85 " style="fill:white; stroke-width:1; stroke:black; " description="&lt;b&gt;B061_RS0109790&lt;/b&gt;&lt;br&gt;histidine kinase&lt;br&gt;Location: 213365 - 212472" locus_tag="B061_RS0109790" class="clusterblast-orf" id="dummy-1_h1_6_49"  />
</g>
<g id="a1_0050"  >
<polygon points="543,90 546,90 551,85 546,80 543,80 543,90 " style="fill:white; stroke-width:1; stroke:black; " description="&lt;b&gt;B061_RS0109785&lt;/b&gt;&lt;br&gt;N-acetylmuramoyl-L-alanine amidase&lt;br&gt;Location: 212090 - 211215" locus_tag="B061_RS0109785" class="clusterblast-orf" id="dummy-1_h1_6_50"  />
</g>
<g id="a1_0051"  >
<polygon points="551,85 556,80 556,80 556,90 556,90 551,85 " style="fill:white; stroke-width:1; stroke:black; " description="&lt;b&gt;B061_RS0109780&lt;/b&gt;&lt;br&gt;DUF1772 domain-containing protein&lt;br&gt;Location: 211196 - 210729" locus_tag="B061_RS0109780" class="clusterblast-orf" id="dummy-1_h1_6_51"  />
</g>
<g id="a1_0052"  >
<polygon points="556,85 561,80 572,80 572,90 561,90 556,85 " style="fill:white; stroke-width:1; stroke:black; " description="&lt;b&gt;B061_RS0109775&lt;/b&gt;&lt;br&gt;DUF3520 domain-containing protein&lt;br&gt;Location: 210663 - 209014" locus_tag="B061_RS0109775" class="clusterblast-orf" id="dummy-1_h1_6_52"  />
</g>
<g id="a1_0053"  >
<polygon points="574,85 579,80 583,80 583,90 579,90 574,85 " style="fill:white; stroke-width:1; stroke:black; " description="&lt;b&gt;B061_RS0109770&lt;/b&gt;&lt;br&gt;ABC transporter permease&lt;br&gt;Location: 208822 - 207911" locus_tag="B061_RS0109770" class="clusterblast-orf" id="dummy-1_h1_6_53"  />
</g>
<g id="a1_0054"  >
<polygon points="583,85 588,80 608,80 608,90 588,90 583,85 " style="fill:white; stroke-width:1; stroke:black; " description="&lt;b&gt;B061_RS0109765&lt;/b&gt;&lt;br&gt;ABC transporter ATP-binding protein&lt;br&gt;Location: 207914 - 205341" locus_tag="B061_RS0109765" class="clusterblast-orf" id="dummy-1_h1_6_54"  />
</g>
<g id="a1_0055"  >
<polygon points="611,85 616,80 617,80 617,90 616,90 611,85 " style="fill:white; stroke-width:1; stroke:black; " description="&lt;b&gt;B061_RS0109760&lt;/b&gt;&lt;br&gt;DUF4291 domain-containing protein&lt;br&gt;Location: 205052 - 204447" locus_tag="B061_RS0109760" class="clusterblast-orf" id="dummy-1_h1_6_55"  />
</g>
<g id="a1_0056"  >
<polygon points="617,85 622,80 632,80 632,90 622,90 617,85 " style="fill:white; stroke-width:1; stroke:black; " description="&lt;b&gt;B061_RS0109755&lt;/b&gt;&lt;br&gt;methylmalonate-semialdehyde dehydrogenase (CoA acylating)&lt;br&gt;Location: 204365 - 202863" locus_tag="B061_RS0109755" class="clusterblast-orf" id="dummy-1_h1_6_56"  />
</g>
<g id="a1_0057"  >
<polygon points="632,85 637,80 651,80 651,90 637,90 632,85 " style="fill:white; stroke-width:1; stroke:black; " description="&lt;b&gt;B061_RS0109750&lt;/b&gt;&lt;br&gt;3D-(3,5/4)-trihydroxycyclohexane-1,2-dione acylhydrolase (decyclizing)&lt;br&gt;Location: 202821 - 200869" locus_tag="B061_RS0109750" class="clusterblast-orf" id="dummy-1_h1_6_57"  />
</g>
<g id="a1_0058"  >
<polygon points="651,85 656,80 661,80 661,90 656,90 651,85 " style="fill:white; stroke-width:1; stroke:black; " description="&lt;b&gt;B061_RS0109745&lt;/b&gt;&lt;br&gt;5-deoxy-glucuronate isomerase&lt;br&gt;Location: 200872 - 199904" locus_tag="B061_RS0109745" class="clusterblast-orf" id="dummy-1_h1_6_58"  />
</g>
<g id="a1_0059"  >
<polygon points="661,85 666,80 670,80 670,90 666,90 661,85 " style="fill:white; stroke-width:1; stroke:black; " description="&lt;b&gt;B061_RS0109740&lt;/b&gt;&lt;br&gt;hypothetical protein&lt;br&gt;Location: 199886 - 198963" locus_tag="B061_RS0109740" class="clusterblast-orf" id="dummy-1_h1_6_59"  />
</g>
<g id="a1_0060"  >
<polygon points="670,85 675,80 680,80 680,90 675,90 670,85 " style="fill:white; stroke-width:1; stroke:black; " description="&lt;b&gt;B061_RS0109735&lt;/b&gt;&lt;br&gt;5-dehydro-2-deoxygluconokinase&lt;br&gt;Location: 198966 - 197947" locus_tag="B061_RS0109735" class="clusterblast-orf" id="dummy-1_h1_6_60"  />
</g>
<g id="a1_0061"  >
<polygon points="682,90 685,90 690,85 685,80 682,80 682,90 " style="fill:white; stroke-width:1; stroke:black; " description="&lt;b&gt;B061_RS0109730&lt;/b&gt;&lt;br&gt;myo-inosose-2 dehydratase&lt;br&gt;Location: 197754 - 196840" locus_tag="B061_RS0109730" class="clusterblast-orf" id="dummy-1_h1_6_61"  />
</g>
<g id="a1_0062"  >
<polygon points="691,85 696,80 696,80 696,90 696,90 691,85 " style="fill:white; stroke-width:1; stroke:black; " description="&lt;b&gt;B061_RS0109725&lt;/b&gt;&lt;br&gt;DinB family protein&lt;br&gt;Location: 196808 - 196299" locus_tag="B061_RS0109725" class="clusterblast-orf" id="dummy-1_h1_6_62"  />
</g>
<g id="a1_0063"  >
<polygon points="698,90 700,85 698,80 698,90 " style="fill:white; stroke-width:1; stroke:black; " description="&lt;b&gt;B061_RS0109720&lt;/b&gt;&lt;br&gt;MarR family transcriptional regulator&lt;br&gt;Location: 196034 - 195843" locus_tag="B061_RS0109720" class="clusterblast-orf" id="dummy-1_h1_6_63"  />
</g>
<g id="a1_0064"  >
<polygon points="702,85 707,80 724,80 724,90 707,90 702,85 " style="fill:white; stroke-width:1; stroke:black; " description="&lt;b&gt;B061_RS0109715&lt;/b&gt;&lt;br&gt;MMPL family transporter&lt;br&gt;Location: 195678 - 193360" locus_tag="B061_RS0109715" class="clusterblast-orf" id="dummy-1_h1_6_64"  />
</g>
<g id="a1_0065"  >
<polygon points="726,90 728,90 733,85 728,80 726,80 726,90 " style="fill:white; stroke-width:1; stroke:black; " description="&lt;b&gt;B061_RS0109710&lt;/b&gt;&lt;br&gt;TetR/AcrR family transcriptional regulator&lt;br&gt;Location: 193202 - 192444" locus_tag="B061_RS0109710" class="clusterblast-orf" id="dummy-1_h1_6_65"  />
</g>
<g id="a1_0066"  >
<polygon points="734,90 737,85 734,80 734,90 " style="fill:white; stroke-width:1; stroke:black; " description="&lt;b&gt;B061_RS0109705&lt;/b&gt;&lt;br&gt;copper chaperone&lt;br&gt;Location: 192304 - 191981" locus_tag="B061_RS0109705" class="clusterblast-orf" id="dummy-1_h1_6_66"  />
</g>
<g id="a1_0067"  >
<polygon points="738,90 756,90 761,85 756,80 738,80 738,90 " style="fill:white; stroke-width:1; stroke:black; " description="&lt;b&gt;B061_RS0109700&lt;/b&gt;&lt;br&gt;Cu(2+)-exporting ATPase&lt;br&gt;Location: 191888 - 189528" locus_tag="B061_RS0109700" class="clusterblast-orf" id="dummy-1_h1_6_67"  />
</g>
<g id="a1_0068"  >
<polygon points="767,85 772,80 780,80 780,90 772,90 767,85 " style="fill:white; stroke-width:1; stroke:black; " description="&lt;b&gt;B061_RS0109695&lt;/b&gt;&lt;br&gt;citrate synthase&lt;br&gt;Location: 188932 - 187643" locus_tag="B061_RS0109695" class="clusterblast-orf" id="dummy-1_h1_6_68"  />
</g>
</svg>
