<svg xmlns="http://www.w3.org/2000/svg" xmlns:xlink="http://www.w3.org/1999/xlink" version="1.1" x="0" y="0" height="230" width="800" viewBox="0 0 800 230" preserveAspectRatio="none"  >
<g label="Query sequence" class="clusterblast-cluster"  >
<text x="5" y="20" class="clusterblast-acc"  >
Query sequence</text>
<line x1="10" y1="35" x2="778.0" y2="35" style="stroke-width:1; stroke:grey; "  />
<polygon points="0,40 40,40 45,35 40,30 0,30 0,40 " style="fill:#d81515; stroke-width:1; stroke:black; " description="&lt;b&gt;ctg85_1&lt;/b&gt;&lt;br&gt;ctg85 1&lt;br&gt;Location: 35 - 914" locus_tag="ctg85_1" class="clusterblast-orf" id="dummy-1_q0_0_all"  />
<polygon points="45,35 50,30 97,30 97,40 50,40 45,35 " style="fill:#4dd815; stroke-width:1; stroke:black; " description="&lt;b&gt;ctg85_2&lt;/b&gt;&lt;br&gt;ctg85 2&lt;br&gt;Location: 906 - 1926" locus_tag="ctg85_2" class="clusterblast-orf" id="dummy-1_q1_0_all"  />
<polygon points="102,40 163,40 168,35 163,30 102,30 102,40 " style="fill:#1585d8; stroke-width:1; stroke:black; " description="&lt;b&gt;ctg85_3&lt;/b&gt;&lt;br&gt;ctg85 3&lt;br&gt;Location: 2017 - 3295" locus_tag="ctg85_3" class="clusterblast-orf" id="dummy-1_q2_0_all"  />
<polygon points="168,40 205,40 210,35 205,30 168,30 168,40 " style="fill:#a115d8; stroke-width:1; stroke:black; " description="&lt;b&gt;ctg85_4&lt;/b&gt;&lt;br&gt;ctg85 4&lt;br&gt;Location: 3294 - 4113" locus_tag="ctg85_4" class="clusterblast-orf" id="dummy-1_q3_0_all"  />
<polygon points="218,40 353,40 358,35 353,30 218,30 218,40 " style="fill:#d86915; stroke-width:1; stroke:black; " description="&lt;b&gt;ctg85_5&lt;/b&gt;&lt;br&gt;ctg85 5&lt;br&gt;Location: 4265 - 6974" locus_tag="ctg85_5" class="clusterblast-orf" id="dummy-1_q4_0_all"  />
<polygon points="360,40 374,40 379,35 374,30 360,30 360,40 " style="fill:#15d831; stroke-width:1; stroke:black; " description="&lt;b&gt;ctg85_6&lt;/b&gt;&lt;br&gt;ctg85 6&lt;br&gt;Location: 7020 - 7389" locus_tag="ctg85_6" class="clusterblast-orf" id="dummy-1_q5_0_all"  />
<polygon points="385,40 429,40 434,35 429,30 385,30 385,40 " style="fill:#1531d8; stroke-width:1; stroke:black; " description="&lt;b&gt;ctg85_7&lt;/b&gt;&lt;br&gt;ctg85 7&lt;br&gt;Location: 7503 - 8463" locus_tag="ctg85_7" class="clusterblast-orf" id="dummy-1_q6_0_all"  />
<polygon points="452,40 486,40 491,35 486,30 452,30 452,40 " style="fill:#d815bc; stroke-width:1; stroke:black; " description="&lt;b&gt;ctg85_8&lt;/b&gt;&lt;br&gt;ctg85 8&lt;br&gt;Location: 8803 - 9571" locus_tag="ctg85_8" class="clusterblast-orf" id="dummy-1_q7_0_all"  />
<polygon points="499,35 504,30 521,30 521,40 504,40 499,35 " style="fill:#d8bc15; stroke-width:1; stroke:black; " description="&lt;b&gt;ctg85_9&lt;/b&gt;&lt;br&gt;ctg85 9&lt;br&gt;Location: 9722 - 10142" locus_tag="ctg85_9" class="clusterblast-orf" id="dummy-1_q8_0_all"  />
<polygon points="528,35 533,30 602,30 602,40 533,40 528,35 " style="fill:#15d885; stroke-width:1; stroke:black; " description="&lt;b&gt;ctg85_10&lt;/b&gt;&lt;br&gt;ctg85 10&lt;br&gt;Location: 10287 - 11724" locus_tag="ctg85_10" class="clusterblast-orf" id="dummy-1_q9_0_all"  />
<polygon points="607,40 625,40 630,35 625,30 607,30 607,40 " style="fill:#4d15d8; stroke-width:1; stroke:black; " description="&lt;b&gt;ctg85_11&lt;/b&gt;&lt;br&gt;ctg85 11&lt;br&gt;Location: 11816 - 12260" locus_tag="ctg85_11" class="clusterblast-orf" id="dummy-1_q10_0_all"  />
<polygon points="636,40 671,40 676,35 671,30 636,30 636,40 " style="fill:#d81569; stroke-width:1; stroke:black; " description="&lt;b&gt;ctg85_12&lt;/b&gt;&lt;br&gt;ctg85 12&lt;br&gt;Location: 12385 - 13150" locus_tag="ctg85_12" class="clusterblast-orf" id="dummy-1_q11_0_all"  />
<polygon points="695,40 723,40 728,35 723,30 695,30 695,40 " style="fill:#a1d815; stroke-width:1; stroke:black; " description="&lt;b&gt;ctg85_13&lt;/b&gt;&lt;br&gt;ctg85 13&lt;br&gt;Location: 13519 - 14161" locus_tag="ctg85_13" class="clusterblast-orf" id="dummy-1_q12_0_all"  />
<polygon points="733,35 738,30 780,30 780,40 738,40 733,35 " style="fill:#15d8d8; stroke-width:1; stroke:black; " description="&lt;b&gt;ctg85_14&lt;/b&gt;&lt;br&gt;ctg85 14&lt;br&gt;Location: 14267 - 15173" locus_tag="ctg85_14" class="clusterblast-orf" id="dummy-1_q13_0_all"  />
</g>
<g label="NZ_JOCF01000137" description="NZ_JOCF01000137_c42: Streptomyces sp. NRRL WC-3742 contig137.1, whole genome ... (40% of genes show similarity), nucleoside" class="clusterblast-cluster"  >
<text x="5" y="70" class="clusterblast-acc"  >
<a xlink:href="https://antismash-db.secondarymetabolites.org/go/NZ_JOCF01000137/42" target="_blank">NZ_JOCF01000137_c42</a>: Streptomyces sp. NRRL WC-3742 contig137.1, whole genome ... (40% of genes show similarity), nucleoside</text>
<line x1="10" y1="85" x2="778.0" y2="85" style="stroke-width:1; stroke:grey; "  />
</g>
<g id="a1_000"  >
<polygon points="227,90 230,90 235,85 230,80 227,80 227,90 " style="fill:white; stroke-width:1; stroke:black; " description="&lt;b&gt;IH61_RS45400&lt;/b&gt;&lt;br&gt;endonuclease III&lt;br&gt;Location: 6499 - 6344" locus_tag="IH61_RS45400" class="clusterblast-orf" id="dummy-1_h1_4_0"  />
</g>
<g id="a1_001"  >
<polygon points="250,90 383,90 388,85 383,80 250,80 250,90 " style="fill:#d86915; stroke-width:1; stroke:black; " description="&lt;b&gt;IH61_RS0139390&lt;/b&gt;&lt;br&gt;hypothetical protein&lt;br&gt;Location: 6064 - 3383&lt;br&gt;&lt;br&gt;&lt;b&gt;BlastP hit with ctg85_5&lt;/b&gt;&lt;br&gt;Percentage identity: 53&lt;br&gt;Percentage coverage: 101&lt;br&gt;BLAST bit score: 760&lt;br&gt;E-value: 1.6e-217" locus_tag="IH61_RS0139390" class="clusterblast-orf" id="dummy-1_h1_4_1"  />
</g>
<g id="a1_002"  >
<polygon points="391,90 406,90 411,85 406,80 391,80 391,90 " style="fill:#15d831; stroke-width:1; stroke:black; " description="&lt;b&gt;IH61_RS0139385&lt;/b&gt;&lt;br&gt;6-carboxytetrahydropterin synthase&lt;br&gt;Location: 3326 - 2925&lt;br&gt;&lt;br&gt;&lt;b&gt;BlastP hit with ctg85_6&lt;/b&gt;&lt;br&gt;Percentage identity: 79&lt;br&gt;Percentage coverage: 99&lt;br&gt;BLAST bit score: 214&lt;br&gt;E-value: 5.8e-54" locus_tag="IH61_RS0139385" class="clusterblast-orf" id="dummy-1_h1_4_2"  />
</g>
<g id="a1_003"  >
<polygon points="427,90 507,90 512,85 507,80 427,80 427,90 " style="fill:white; stroke-width:1; stroke:black; " description="&lt;b&gt;IH61_RS0139380&lt;/b&gt;&lt;br&gt;hypothetical protein&lt;br&gt;Location: 2628 - 979" locus_tag="IH61_RS0139380" class="clusterblast-orf" id="dummy-1_h1_4_3"  />
</g>
<g id="a1_004"  >
<polygon points="508,85 513,80 552,80 552,90 513,90 508,85 " style="fill:white; stroke-width:1; stroke:black; " description="&lt;b&gt;IH61_RS0139375&lt;/b&gt;&lt;br&gt;hypothetical protein&lt;br&gt;Location: 1049 - 204" locus_tag="IH61_RS0139375" class="clusterblast-orf" id="dummy-1_h1_4_4"  />
</g>
</svg>
