<svg xmlns="http://www.w3.org/2000/svg" xmlns:xlink="http://www.w3.org/1999/xlink" version="1.1" x="0" y="0" height="230" width="800" viewBox="0 0 800 230" preserveAspectRatio="none"  >
<g label="Query sequence" class="clusterblast-cluster"  >
<text x="5" y="20" class="clusterblast-acc"  >
Query sequence</text>
<line x1="10" y1="35" x2="778.0" y2="35" style="stroke-width:1; stroke:grey; "  />
<polygon points="204,40 232,40 237,35 232,30 204,30 204,40 " style="fill:#d81515; stroke-width:1; stroke:black; " description="&lt;b&gt;ctg19_20&lt;/b&gt;&lt;br&gt;ctg19 20&lt;br&gt;Location: 25668 - 26610" locus_tag="ctg19_20" class="clusterblast-orf" id="dummy-1_q0_0_all"  />
<polygon points="240,40 246,40 251,35 246,30 240,30 240,40 " style="fill:#3cd815; stroke-width:1; stroke:black; " description="&lt;b&gt;ctg19_21&lt;/b&gt;&lt;br&gt;ctg19 21&lt;br&gt;Location: 26677 - 26998" locus_tag="ctg19_21" class="clusterblast-orf" id="dummy-1_q1_0_all"  />
<polygon points="249,40 284,40 289,35 284,30 249,30 249,40 " style="fill:#1563d8; stroke-width:1; stroke:black; " description="&lt;b&gt;ctg19_22&lt;/b&gt;&lt;br&gt;ctg19 22&lt;br&gt;Location: 26949 - 28083" locus_tag="ctg19_22" class="clusterblast-orf" id="dummy-1_q2_0_all"  />
<polygon points="289,35 294,30 323,30 323,40 294,40 289,35 " style="fill:#b115d8; stroke-width:1; stroke:black; " description="&lt;b&gt;ctg19_23&lt;/b&gt;&lt;br&gt;ctg19 23&lt;br&gt;Location: 28070 - 29060" locus_tag="ctg19_23" class="clusterblast-orf" id="dummy-1_q3_0_all"  />
<polygon points="325,35 330,30 355,30 355,40 330,40 325,35 " style="fill:#d88a15; stroke-width:1; stroke:black; " description="&lt;b&gt;ctg19_24&lt;/b&gt;&lt;br&gt;ctg19 24&lt;br&gt;Location: 29114 - 29960" locus_tag="ctg19_24" class="clusterblast-orf" id="dummy-1_q4_0_all"  />
<polygon points="355,35 360,30 394,30 394,40 360,40 355,35 " style="fill:#15d863; stroke-width:1; stroke:black; " description="&lt;b&gt;ctg19_25&lt;/b&gt;&lt;br&gt;ctg19 25&lt;br&gt;Location: 29956 - 31087" locus_tag="ctg19_25" class="clusterblast-orf" id="dummy-1_q5_0_all"  />
<polygon points="395,40 438,40 443,35 438,30 395,30 395,40 " style="fill:#3c15d8; stroke-width:1; stroke:black; " description="&lt;b&gt;ctg19_26&lt;/b&gt;&lt;br&gt;ctg19 26&lt;br&gt;Location: 31121 - 32492" locus_tag="ctg19_26" class="clusterblast-orf" id="dummy-1_q6_0_all"  />
<polygon points="443,40 454,40 459,35 454,30 443,30 443,40 " style="fill:#d8158a; stroke-width:1; stroke:black; " description="&lt;b&gt;ctg19_27&lt;/b&gt;&lt;br&gt;ctg19 27&lt;br&gt;Location: 32488 - 32944" locus_tag="ctg19_27" class="clusterblast-orf" id="dummy-1_q7_0_all"  />
<polygon points="460,40 489,40 494,35 489,30 460,30 460,40 " style="fill:#b1d815; stroke-width:1; stroke:black; " description="&lt;b&gt;ctg19_28&lt;/b&gt;&lt;br&gt;ctg19 28&lt;br&gt;Location: 32956 - 33949" locus_tag="ctg19_28" class="clusterblast-orf" id="dummy-1_q8_0_all"  />
<polygon points="496,40 570,40 575,35 570,30 496,30 496,40 " style="fill:#15d8d8; stroke-width:1; stroke:black; " description="&lt;b&gt;ctg19_29&lt;/b&gt;&lt;br&gt;ctg19 29&lt;br&gt;Location: 33997 - 36259" locus_tag="ctg19_29" class="clusterblast-orf" id="dummy-1_q9_0_all"  />
</g>
<g label="NZ_JOHT01000003" description="NZ_JOHT01000003_c7: Streptomyces sp. NRRL F-5053 contig3.1, whole genome shot... (25% of genes show similarity), nucleoside" class="clusterblast-cluster"  >
<text x="5" y="70" class="clusterblast-acc"  >
<a xlink:href="https://antismash-db.secondarymetabolites.org/go/NZ_JOHT01000003/7" target="_blank">NZ_JOHT01000003_c7</a>: Streptomyces sp. NRRL F-5053 contig3.1, whole genome shot... (25% of genes show similarity), nucleoside</text>
<line x1="10" y1="85" x2="778.0" y2="85" style="stroke-width:1; stroke:grey; "  />
</g>
<g id="a1_000"  >
<polygon points="0,85 5,80 24,80 24,90 5,90 0,85 " style="fill:white; stroke-width:1; stroke:black; " description="&lt;b&gt;IH57_RS0103850&lt;/b&gt;&lt;br&gt;GntR family transcriptional regulator&lt;br&gt;Location: 46461 - 47162" locus_tag="IH57_RS0103850" class="clusterblast-orf" id="dummy-1_h1_7_0"  />
</g>
<g id="a1_001"  >
<polygon points="39,90 107,90 112,85 107,80 39,80 39,90 " style="fill:white; stroke-width:1; stroke:black; " description="&lt;b&gt;IH57_RS0103855&lt;/b&gt;&lt;br&gt;protease&lt;br&gt;Location: 47595 - 49664" locus_tag="IH57_RS0103855" class="clusterblast-orf" id="dummy-1_h1_7_1"  />
</g>
<g id="a1_002"  >
<polygon points="118,90 166,90 171,85 166,80 118,80 118,90 " style="fill:white; stroke-width:1; stroke:black; " description="&lt;b&gt;IH57_RS0103860&lt;/b&gt;&lt;br&gt;MFS transporter&lt;br&gt;Location: 49839 - 51371" locus_tag="IH57_RS0103860" class="clusterblast-orf" id="dummy-1_h1_7_2"  />
</g>
<g id="a1_003"  >
<polygon points="175,90 204,90 209,85 204,80 175,80 175,90 " style="fill:white; stroke-width:1; stroke:black; " description="&lt;b&gt;IH57_RS0103865&lt;/b&gt;&lt;br&gt;LysR family transcriptional regulator&lt;br&gt;Location: 51470 - 52447" locus_tag="IH57_RS0103865" class="clusterblast-orf" id="dummy-1_h1_7_3"  />
</g>
<g id="a1_004"  >
<polygon points="220,90 274,90 279,85 274,80 220,80 220,90 " style="fill:#3c15d8; stroke-width:1; stroke:black; " description="&lt;b&gt;IH57_RS0103870&lt;/b&gt;&lt;br&gt;amidohydrolase&lt;br&gt;Location: 52746 - 54443&lt;br&gt;&lt;br&gt;&lt;b&gt;BlastP hit with ctg19_26&lt;/b&gt;&lt;br&gt;Percentage identity: 58&lt;br&gt;Percentage coverage: 94&lt;br&gt;BLAST bit score: 455&lt;br&gt;E-value: 7.3e-126" locus_tag="IH57_RS0103870" class="clusterblast-orf" id="dummy-1_h1_7_4"  />
</g>
<g id="a1_005"  >
<polygon points="278,90 290,90 295,85 290,80 278,80 278,90 " style="fill:#d8158a; stroke-width:1; stroke:black; " description="&lt;b&gt;IH57_RS0103875&lt;/b&gt;&lt;br&gt;NUDIX domain-containing protein&lt;br&gt;Location: 54427 - 54903&lt;br&gt;&lt;br&gt;&lt;b&gt;BlastP hit with ctg19_27&lt;/b&gt;&lt;br&gt;Percentage identity: 68&lt;br&gt;Percentage coverage: 99&lt;br&gt;BLAST bit score: 206&lt;br&gt;E-value: 2.6e-51" locus_tag="IH57_RS0103875" class="clusterblast-orf" id="dummy-1_h1_7_5"  />
</g>
<g id="a1_006"  >
<polygon points="304,90 333,90 338,85 333,80 304,80 304,90 " style="fill:#b1d815; stroke-width:1; stroke:black; " description="&lt;b&gt;IH57_RS0103880&lt;/b&gt;&lt;br&gt;gfo/Idh/MocA family oxidoreductase&lt;br&gt;Location: 55148 - 56116&lt;br&gt;&lt;br&gt;&lt;b&gt;BlastP hit with ctg19_28&lt;/b&gt;&lt;br&gt;Percentage identity: 65&lt;br&gt;Percentage coverage: 94&lt;br&gt;BLAST bit score: 406&lt;br&gt;E-value: 2.2e-111" locus_tag="IH57_RS0103880" class="clusterblast-orf" id="dummy-1_h1_7_6"  />
</g>
<g id="a1_007"  >
<polygon points="339,90 425,90 430,85 425,80 339,80 339,90 " style="fill:#15d8d8; stroke-width:1; stroke:black; " description="&lt;b&gt;IH57_RS0103885&lt;/b&gt;&lt;br&gt;hypothetical protein&lt;br&gt;Location: 56151 - 58748&lt;br&gt;&lt;br&gt;&lt;b&gt;BlastP hit with ctg19_29&lt;/b&gt;&lt;br&gt;Percentage identity: 55&lt;br&gt;Percentage coverage: 111&lt;br&gt;BLAST bit score: 782&lt;br&gt;E-value: 5.6e-224" locus_tag="IH57_RS0103885" class="clusterblast-orf" id="dummy-1_h1_7_7"  />
</g>
<g id="a1_008"  >
<polygon points="429,90 469,90 474,85 469,80 429,80 429,90 " style="fill:white; stroke-width:1; stroke:black; " description="&lt;b&gt;IH57_RS0103890&lt;/b&gt;&lt;br&gt;DegT/DnrJ/EryC1/StrS family aminotransferase&lt;br&gt;Location: 58738 - 60021" locus_tag="IH57_RS0103890" class="clusterblast-orf" id="dummy-1_h1_7_8"  />
</g>
<g id="a1_009"  >
<polygon points="480,90 500,90 505,85 500,80 480,80 480,90 " style="fill:white; stroke-width:1; stroke:black; " description="&lt;b&gt;IH57_RS0103895&lt;/b&gt;&lt;br&gt;methyltransferase domain-containing protein&lt;br&gt;Location: 60198 - 60887" locus_tag="IH57_RS0103895" class="clusterblast-orf" id="dummy-1_h1_7_9"  />
</g>
<g id="a1_0010"  >
<polygon points="513,90 563,90 568,85 563,80 513,80 513,90 " style="fill:white; stroke-width:1; stroke:black; " description="&lt;b&gt;IH57_RS40360&lt;/b&gt;&lt;br&gt;histidinol-phosphatase&lt;br&gt;Location: 61138 - 62691" locus_tag="IH57_RS40360" class="clusterblast-orf" id="dummy-1_h1_7_10"  />
</g>
<g id="a1_0011"  >
<polygon points="568,90 605,90 610,85 605,80 568,80 568,90 " style="fill:white; stroke-width:1; stroke:black; " description="&lt;b&gt;IH57_RS0103905&lt;/b&gt;&lt;br&gt;hypothetical protein&lt;br&gt;Location: 62709 - 63887" locus_tag="IH57_RS0103905" class="clusterblast-orf" id="dummy-1_h1_7_11"  />
</g>
<g id="a1_0012"  >
<polygon points="624,90 678,90 683,85 678,80 624,80 624,90 " style="fill:white; stroke-width:1; stroke:black; " description="&lt;b&gt;IH57_RS0103910&lt;/b&gt;&lt;br&gt;serine/threonine protein phosphatase&lt;br&gt;Location: 64306 - 65976" locus_tag="IH57_RS0103910" class="clusterblast-orf" id="dummy-1_h1_7_12"  />
</g>
<g id="a1_0013"  >
<polygon points="687,90 710,90 715,85 710,80 687,80 687,90 " style="fill:white; stroke-width:1; stroke:black; " description="&lt;b&gt;IH57_RS0103915&lt;/b&gt;&lt;br&gt;DUF4232 domain-containing protein&lt;br&gt;Location: 66104 - 66892" locus_tag="IH57_RS0103915" class="clusterblast-orf" id="dummy-1_h1_7_13"  />
</g>
<g id="a1_0014"  >
<polygon points="717,85 722,80 732,80 732,90 722,90 717,85 " style="fill:white; stroke-width:1; stroke:black; " description="&lt;b&gt;IH57_RS37130&lt;/b&gt;&lt;br&gt;DUF3592 domain-containing protein&lt;br&gt;Location: 66952 - 67386" locus_tag="IH57_RS37130" class="clusterblast-orf" id="dummy-1_h1_7_14"  />
</g>
<g id="a1_0015"  >
<polygon points="742,85 747,80 780,80 780,90 747,90 742,85 " style="fill:white; stroke-width:1; stroke:black; " description="&lt;b&gt;IH57_RS0103930&lt;/b&gt;&lt;br&gt;glycosyltransferase family 2 protein&lt;br&gt;Location: 67679 - 68740" locus_tag="IH57_RS0103930" class="clusterblast-orf" id="dummy-1_h1_7_15"  />
</g>
</svg>
