<svg xmlns="http://www.w3.org/2000/svg" xmlns:xlink="http://www.w3.org/1999/xlink" version="1.1" x="0" y="0" height="230" width="800" viewBox="0 0 800 230" preserveAspectRatio="none"  >
<g label="Query sequence" class="clusterblast-cluster"  >
<text x="5" y="20" class="clusterblast-acc"  >
Query sequence</text>
<line x1="10" y1="35" x2="778.0" y2="35" style="stroke-width:1; stroke:grey; "  />
<polygon points="216,40 393,40 398,35 393,30 216,30 216,40 " style="fill:#d81515; stroke-width:1; stroke:black; " description="&lt;b&gt;ctg400_1&lt;/b&gt;&lt;br&gt;ctg400 1&lt;br&gt;Location: 0 - 1851" locus_tag="ctg400_1" class="clusterblast-orf" id="dummy-1_q0_0_all"  />
<polygon points="406,35 411,30 469,30 469,40 411,40 406,35 " style="fill:#15d8d8; stroke-width:1; stroke:black; " description="&lt;b&gt;ctg400_2&lt;/b&gt;&lt;br&gt;ctg400 2&lt;br&gt;Location: 1937 - 2579" locus_tag="ctg400_2" class="clusterblast-orf" id="dummy-1_q1_0_all"  />
<polygon points="469,35 474,30 564,30 564,40 474,40 469,35 " style="fill:white; stroke-width:1; stroke:black; " description="&lt;b&gt;ctg400_3&lt;/b&gt;&lt;br&gt;ctg400 3&lt;br&gt;Location: 2578 - 3556" locus_tag="ctg400_3" class="clusterblast-orf" id="dummy-1_q2_0_all"  />
</g>
<g label="NZ_JOIG01000002" description="NZ_JOIG01000002_c2: Streptomyces sp. NRRL F-2890 contig2.1, whole genome shot... (25% of genes show similarity), siderophore" class="clusterblast-cluster"  >
<text x="5" y="70" class="clusterblast-acc"  >
<a xlink:href="https://antismash-db.secondarymetabolites.org/go/NZ_JOIG01000002/2" target="_blank">NZ_JOIG01000002_c2</a>: Streptomyces sp. NRRL F-2890 contig2.1, whole genome shot... (25% of genes show similarity), siderophore</text>
<line x1="10" y1="85" x2="778.0" y2="85" style="stroke-width:1; stroke:grey; "  />
</g>
<g id="a1_000"  >
<polygon points="0,90 77,90 82,85 77,80 0,80 0,90 " style="fill:white; stroke-width:1; stroke:black; " description="&lt;b&gt;IF79_RS0105980&lt;/b&gt;&lt;br&gt;siderophore-interacting protein&lt;br&gt;Location: 632123 - 632965" locus_tag="IF79_RS0105980" class="clusterblast-orf" id="dummy-1_h1_3_0"  />
</g>
<g id="a1_001"  >
<polygon points="91,85 96,80 112,80 112,90 96,90 91,85 " style="fill:white; stroke-width:1; stroke:black; " description="&lt;b&gt;IF79_RS0105985&lt;/b&gt;&lt;br&gt;hypothetical protein&lt;br&gt;Location: 633061 - 633275" locus_tag="IF79_RS0105985" class="clusterblast-orf" id="dummy-1_h1_3_1"  />
</g>
<g id="a1_002"  >
<polygon points="118,85 123,80 222,80 222,90 123,90 118,85 " style="fill:white; stroke-width:1; stroke:black; " description="&lt;b&gt;IF79_RS0105990&lt;/b&gt;&lt;br&gt;haloacid dehalogenase&lt;br&gt;Location: 633329 - 634396" locus_tag="IF79_RS0105990" class="clusterblast-orf" id="dummy-1_h1_3_2"  />
</g>
<g id="a1_003"  >
<polygon points="230,90 353,90 358,85 353,80 230,80 230,90 " style="fill:white; stroke-width:1; stroke:black; " description="&lt;b&gt;IF79_RS0105995&lt;/b&gt;&lt;br&gt;DUF1015 domain-containing protein&lt;br&gt;Location: 634474 - 635790" locus_tag="IF79_RS0105995" class="clusterblast-orf" id="dummy-1_h1_3_3"  />
</g>
<g id="a1_004"  >
<polygon points="363,90 415,90 420,85 415,80 363,80 363,90 " style="fill:white; stroke-width:1; stroke:black; " description="&lt;b&gt;IF79_RS0106000&lt;/b&gt;&lt;br&gt;N-acetyltransferase&lt;br&gt;Location: 635839 - 636423" locus_tag="IF79_RS0106000" class="clusterblast-orf" id="dummy-1_h1_3_4"  />
</g>
<g id="a1_005"  >
<polygon points="422,90 595,90 600,85 595,80 422,80 422,90 " style="fill:#d81515; stroke-width:1; stroke:black; " description="&lt;b&gt;IF79_RS0106005&lt;/b&gt;&lt;br&gt;IucA/IucC family siderophore biosynthesis protein&lt;br&gt;Location: 636439 - 638256&lt;br&gt;&lt;br&gt;&lt;b&gt;BlastP hit with ctg400_1&lt;/b&gt;&lt;br&gt;Percentage identity: 83&lt;br&gt;Percentage coverage: 99&lt;br&gt;BLAST bit score: 1040&lt;br&gt;E-value: 9.4e-302" locus_tag="IF79_RS0106005" class="clusterblast-orf" id="dummy-1_h1_3_5"  />
</g>
<g id="a1_006"  >
<polygon points="606,85 611,80 668,80 668,90 611,90 606,85 " style="fill:#15d8d8; stroke-width:1; stroke:black; " description="&lt;b&gt;IF79_RS0106010&lt;/b&gt;&lt;br&gt;hypothetical protein&lt;br&gt;Location: 638317 - 638958&lt;br&gt;&lt;br&gt;&lt;b&gt;BlastP hit with ctg400_2&lt;/b&gt;&lt;br&gt;Percentage identity: 99&lt;br&gt;Percentage coverage: 100&lt;br&gt;BLAST bit score: 400&lt;br&gt;E-value: 1e-109" locus_tag="IF79_RS0106010" class="clusterblast-orf" id="dummy-1_h1_3_6"  />
</g>
<g id="a1_007"  >
<polygon points="672,85 677,80 780,80 780,90 677,90 672,85 " style="fill:white; stroke-width:1; stroke:black; " description="&lt;b&gt;IF79_RS0106015&lt;/b&gt;&lt;br&gt;hypothetical protein&lt;br&gt;Location: 638997 - 640094" locus_tag="IF79_RS0106015" class="clusterblast-orf" id="dummy-1_h1_3_7"  />
</g>
</svg>
