<svg xmlns="http://www.w3.org/2000/svg" xmlns:xlink="http://www.w3.org/1999/xlink" version="1.1" x="0" y="0" height="230" width="800" viewBox="0 0 800 230" preserveAspectRatio="none"  >
<g label="Query sequence" class="clusterblast-cluster"  >
<text x="5" y="20" class="clusterblast-acc"  >
Query sequence</text>
<line x1="10" y1="35" x2="778.0" y2="35" style="stroke-width:1; stroke:grey; "  />
<polygon points="218,35 223,30 233,30 233,40 223,40 218,35 " style="fill:#d81515; stroke-width:1; stroke:black; " description="&lt;b&gt;ctg95_1&lt;/b&gt;&lt;br&gt;ctg95 1&lt;br&gt;Location: 202 - 970" locus_tag="ctg95_1" class="clusterblast-orf" id="dummy-1_q0_0_all"  />
<polygon points="236,40 259,40 264,35 259,30 236,30 236,40 " style="fill:#33d815; stroke-width:1; stroke:black; " description="&lt;b&gt;ctg95_2&lt;/b&gt;&lt;br&gt;ctg95 2&lt;br&gt;Location: 1127 - 2561" locus_tag="ctg95_2" class="clusterblast-orf" id="dummy-1_q1_0_all"  />
<polygon points="265,40 282,40 287,35 282,30 265,30 265,40 " style="fill:#15abd8; stroke-width:1; stroke:black; " description="&lt;b&gt;ctg95_3&lt;/b&gt;&lt;br&gt;ctg95 3&lt;br&gt;Location: 2612 - 3731" locus_tag="ctg95_3" class="clusterblast-orf" id="dummy-1_q2_0_all"  />
<polygon points="290,40 296,40 301,35 296,30 290,30 290,40 " style="fill:#8d15d8; stroke-width:1; stroke:black; " description="&lt;b&gt;ctg95_4&lt;/b&gt;&lt;br&gt;ctg95 4&lt;br&gt;Location: 3847 - 4414" locus_tag="ctg95_4" class="clusterblast-orf" id="dummy-1_q3_0_all"  />
<polygon points="301,35 306,30 318,30 318,40 306,40 301,35 " style="fill:#d86f15; stroke-width:1; stroke:black; " description="&lt;b&gt;ctg95_5&lt;/b&gt;&lt;br&gt;ctg95 5&lt;br&gt;Location: 4429 - 5278" locus_tag="ctg95_5" class="clusterblast-orf" id="dummy-1_q4_0_all"  />
<polygon points="318,35 323,30 367,30 367,40 323,40 318,35 " style="fill:#15d851; stroke-width:1; stroke:black; " description="&lt;b&gt;ctg95_6&lt;/b&gt;&lt;br&gt;ctg95 6&lt;br&gt;Location: 5278 - 7786" locus_tag="ctg95_6" class="clusterblast-orf" id="dummy-1_q5_0_all"  />
<polygon points="369,35 374,30 387,30 387,40 374,40 369,35 " style="fill:#1551d8; stroke-width:1; stroke:black; " description="&lt;b&gt;ctg95_7&lt;/b&gt;&lt;br&gt;ctg95 7&lt;br&gt;Location: 7916 - 8792" locus_tag="ctg95_7" class="clusterblast-orf" id="dummy-1_q6_0_all"  />
<polygon points="387,35 392,30 423,30 423,40 392,40 387,35 " style="fill:#1551d8; stroke-width:1; stroke:black; " description="&lt;b&gt;ctg95_8&lt;/b&gt;&lt;br&gt;ctg95 8&lt;br&gt;Location: 8788 - 10627" locus_tag="ctg95_8" class="clusterblast-orf" id="dummy-1_q7_0_all"  />
<polygon points="423,35 428,30 442,30 442,40 428,40 423,35 " style="fill:#d815c9; stroke-width:1; stroke:black; " description="&lt;b&gt;ctg95_9&lt;/b&gt;&lt;br&gt;ctg95 9&lt;br&gt;Location: 10643 - 11633" locus_tag="ctg95_9" class="clusterblast-orf" id="dummy-1_q8_0_all"  />
<polygon points="443,35 448,30 476,30 476,40 448,40 443,35 " style="fill:#d8c915; stroke-width:1; stroke:black; " description="&lt;b&gt;ctg95_10&lt;/b&gt;&lt;br&gt;ctg95 10&lt;br&gt;Location: 11664 - 13362" locus_tag="ctg95_10" class="clusterblast-orf" id="dummy-1_q9_0_all"  />
<polygon points="480,40 500,40 505,35 500,30 480,30 480,40 " style="fill:#15d8ab; stroke-width:1; stroke:black; " description="&lt;b&gt;ctg95_11&lt;/b&gt;&lt;br&gt;ctg95 11&lt;br&gt;Location: 13533 - 14811" locus_tag="ctg95_11" class="clusterblast-orf" id="dummy-1_q10_0_all"  />
<polygon points="509,40 528,40 533,35 528,30 509,30 509,40 " style="fill:#3315d8; stroke-width:1; stroke:black; " description="&lt;b&gt;ctg95_12&lt;/b&gt;&lt;br&gt;ctg95 12&lt;br&gt;Location: 15050 - 16256" locus_tag="ctg95_12" class="clusterblast-orf" id="dummy-1_q11_0_all"  />
<polygon points="535,40 552,40 557,35 552,30 535,30 535,40 " style="fill:#d8156f; stroke-width:1; stroke:black; " description="&lt;b&gt;ctg95_13&lt;/b&gt;&lt;br&gt;ctg95 13&lt;br&gt;Location: 16336 - 17458" locus_tag="ctg95_13" class="clusterblast-orf" id="dummy-1_q12_0_all"  />
<polygon points="558,35 561,30 561,40 558,35 " style="fill:#8dd815; stroke-width:1; stroke:black; " description="&lt;b&gt;ctg95_14&lt;/b&gt;&lt;br&gt;ctg95 14&lt;br&gt;Location: 17536 - 17698" locus_tag="ctg95_14" class="clusterblast-orf" id="dummy-1_q13_0_all"  />
</g>
<g label="NZ_JOEK01000009" description="NZ_JOEK01000009_c9: Streptomyces avicenniae strain NRRL B-24776 contig9.1, wh... (21% of genes show similarity), t3pks" class="clusterblast-cluster"  >
<text x="5" y="70" class="clusterblast-acc"  >
<a xlink:href="https://antismash-db.secondarymetabolites.org/go/NZ_JOEK01000009/9" target="_blank">NZ_JOEK01000009_c9</a>: Streptomyces avicenniae strain NRRL B-24776 contig9.1, wh... (21% of genes show similarity), t3pks</text>
<line x1="10" y1="85" x2="778.0" y2="85" style="stroke-width:1; stroke:grey; "  />
</g>
<g id="a1_000"  >
<polygon points="0,85 5,80 18,80 18,90 5,90 0,85 " style="fill:white; stroke-width:1; stroke:black; " description="&lt;b&gt;IF27_RS16205&lt;/b&gt;&lt;br&gt;ATP-dependent DNA ligase&lt;br&gt;Location: 264751 - 265695" locus_tag="IF27_RS16205" class="clusterblast-orf" id="dummy-1_h1_8_0"  />
</g>
<g id="a1_001"  >
<polygon points="22,90 28,90 33,85 28,80 22,80 22,90 " style="fill:white; stroke-width:1; stroke:black; " description="&lt;b&gt;IF27_RS16210&lt;/b&gt;&lt;br&gt;type 1 glutamine amidotransferase&lt;br&gt;Location: 265897 - 266439" locus_tag="IF27_RS16210" class="clusterblast-orf" id="dummy-1_h1_8_1"  />
</g>
<g id="a1_002"  >
<polygon points="33,90 51,90 56,85 51,80 33,80 33,90 " style="fill:white; stroke-width:1; stroke:black; " description="&lt;b&gt;IF27_RS16215&lt;/b&gt;&lt;br&gt;hypothetical protein&lt;br&gt;Location: 266436 - 267632" locus_tag="IF27_RS16215" class="clusterblast-orf" id="dummy-1_h1_8_2"  />
</g>
<g id="a1_003"  >
<polygon points="58,90 89,90 94,85 89,80 58,80 58,90 " style="fill:white; stroke-width:1; stroke:black; " description="&lt;b&gt;IF27_RS16220&lt;/b&gt;&lt;br&gt;transketolase&lt;br&gt;Location: 267712 - 269577" locus_tag="IF27_RS16220" class="clusterblast-orf" id="dummy-1_h1_8_3"  />
</g>
<g id="a1_004"  >
<polygon points="94,85 99,80 115,80 115,90 99,90 94,85 " style="fill:white; stroke-width:1; stroke:black; " description="&lt;b&gt;IF27_RS16225&lt;/b&gt;&lt;br&gt;hypothetical protein&lt;br&gt;Location: 269591 - 270658" locus_tag="IF27_RS16225" class="clusterblast-orf" id="dummy-1_h1_8_4"  />
</g>
<g id="a1_005"  >
<polygon points="115,85 120,80 123,80 123,90 120,90 115,85 " style="fill:white; stroke-width:1; stroke:black; " description="&lt;b&gt;IF27_RS16230&lt;/b&gt;&lt;br&gt;hypothetical protein&lt;br&gt;Location: 270663 - 271031" locus_tag="IF27_RS16230" class="clusterblast-orf" id="dummy-1_h1_8_5"  />
</g>
<g id="a1_006"  >
<polygon points="126,85 131,80 133,80 133,90 131,90 126,85 " style="fill:white; stroke-width:1; stroke:black; " description="&lt;b&gt;IF27_RS16235&lt;/b&gt;&lt;br&gt;glyoxalase/bleomycin resistance/dioxygenase family protein&lt;br&gt;Location: 271180 - 271572" locus_tag="IF27_RS16235" class="clusterblast-orf" id="dummy-1_h1_8_6"  />
</g>
<g id="a1_007"  >
<polygon points="133,85 138,80 140,80 140,90 138,90 133,85 " style="fill:white; stroke-width:1; stroke:black; " description="&lt;b&gt;IF27_RS16240&lt;/b&gt;&lt;br&gt;transcriptional regulator&lt;br&gt;Location: 271569 - 271913" locus_tag="IF27_RS16240" class="clusterblast-orf" id="dummy-1_h1_8_7"  />
</g>
<g id="a1_008"  >
<polygon points="140,85 145,80 148,80 148,90 145,90 140,85 " style="fill:white; stroke-width:1; stroke:black; " description="&lt;b&gt;IF27_RS16245&lt;/b&gt;&lt;br&gt;ATPase&lt;br&gt;Location: 271906 - 272337" locus_tag="IF27_RS16245" class="clusterblast-orf" id="dummy-1_h1_8_8"  />
</g>
<g id="a1_009"  >
<polygon points="151,90 174,90 179,85 174,80 151,80 151,90 " style="fill:#33d815; stroke-width:1; stroke:black; " description="&lt;b&gt;IF27_RS16250&lt;/b&gt;&lt;br&gt;MFS transporter&lt;br&gt;Location: 272488 - 273915&lt;br&gt;&lt;br&gt;&lt;b&gt;BlastP hit with ctg95_2&lt;/b&gt;&lt;br&gt;Percentage identity: 67&lt;br&gt;Percentage coverage: 99&lt;br&gt;BLAST bit score: 599&lt;br&gt;E-value: 4.3e-169" locus_tag="IF27_RS16250" class="clusterblast-orf" id="dummy-1_h1_8_9"  />
</g>
<g id="a1_0010"  >
<polygon points="184,90 200,90 205,85 200,80 184,80 184,90 " style="fill:#15abd8; stroke-width:1; stroke:black; " description="&lt;b&gt;IF27_RS16255&lt;/b&gt;&lt;br&gt;hypothetical protein&lt;br&gt;Location: 274142 - 275254&lt;br&gt;&lt;br&gt;&lt;b&gt;BlastP hit with ctg95_3&lt;/b&gt;&lt;br&gt;Percentage identity: 77&lt;br&gt;Percentage coverage: 92&lt;br&gt;BLAST bit score: 522&lt;br&gt;E-value: 4e-146" locus_tag="IF27_RS16255" class="clusterblast-orf" id="dummy-1_h1_8_10"  />
</g>
<g id="a1_0011"  >
<polygon points="207,85 212,80 223,80 223,90 212,90 207,85 " style="fill:#d86f15; stroke-width:1; stroke:black; " description="&lt;b&gt;IF27_RS16260&lt;/b&gt;&lt;br&gt;LacI family transcriptional regulator&lt;br&gt;Location: 275308 - 276150&lt;br&gt;&lt;br&gt;&lt;b&gt;BlastP hit with ctg95_5&lt;/b&gt;&lt;br&gt;Percentage identity: 64&lt;br&gt;Percentage coverage: 97&lt;br&gt;BLAST bit score: 337&lt;br&gt;E-value: 1.8e-90" locus_tag="IF27_RS16260" class="clusterblast-orf" id="dummy-1_h1_8_11"  />
</g>
<g id="a1_0012"  >
<polygon points="223,85 228,80 272,80 272,90 228,90 223,85 " style="fill:#15d851; stroke-width:1; stroke:black; " description="&lt;b&gt;IF27_RS16265&lt;/b&gt;&lt;br&gt;glycoside hydrolase family 2 protein&lt;br&gt;Location: 276147 - 278627&lt;br&gt;&lt;br&gt;&lt;b&gt;BlastP hit with ctg95_6&lt;/b&gt;&lt;br&gt;Percentage identity: 71&lt;br&gt;Percentage coverage: 99&lt;br&gt;BLAST bit score: 1210&lt;br&gt;E-value: 0.0" locus_tag="IF27_RS16265" class="clusterblast-orf" id="dummy-1_h1_8_12"  />
</g>
<g id="a1_0013"  >
<polygon points="276,85 281,80 309,80 309,90 281,90 276,85 " style="fill:#d8c915; stroke-width:1; stroke:black; " description="&lt;b&gt;IF27_RS16270&lt;/b&gt;&lt;br&gt;ABC transporter substrate-binding protein&lt;br&gt;Location: 278833 - 280512&lt;br&gt;&lt;br&gt;&lt;b&gt;BlastP hit with ctg95_10&lt;/b&gt;&lt;br&gt;Percentage identity: 55&lt;br&gt;Percentage coverage: 93&lt;br&gt;BLAST bit score: 613&lt;br&gt;E-value: 2.6e-173" locus_tag="IF27_RS16270" class="clusterblast-orf" id="dummy-1_h1_8_13"  />
</g>
<g id="a1_0014"  >
<polygon points="313,90 333,90 338,85 333,80 313,80 313,90 " style="fill:#15d8ab; stroke-width:1; stroke:black; " description="&lt;b&gt;IF27_RS16275&lt;/b&gt;&lt;br&gt;ROK family transcriptional regulator&lt;br&gt;Location: 280756 - 282009&lt;br&gt;&lt;br&gt;&lt;b&gt;BlastP hit with ctg95_11&lt;/b&gt;&lt;br&gt;Percentage identity: 71&lt;br&gt;Percentage coverage: 96&lt;br&gt;BLAST bit score: 533&lt;br&gt;E-value: 2e-149" locus_tag="IF27_RS16275" class="clusterblast-orf" id="dummy-1_h1_8_14"  />
</g>
<g id="a1_0015"  >
<polygon points="343,90 362,90 367,85 362,80 343,80 343,90 " style="fill:#3315d8; stroke-width:1; stroke:black; " description="&lt;b&gt;IF27_RS16280&lt;/b&gt;&lt;br&gt;cytochrome P450&lt;br&gt;Location: 282256 - 283494&lt;br&gt;&lt;br&gt;&lt;b&gt;BlastP hit with ctg95_12&lt;/b&gt;&lt;br&gt;Percentage identity: 77&lt;br&gt;Percentage coverage: 100&lt;br&gt;BLAST bit score: 634&lt;br&gt;E-value: 7.7e-180" locus_tag="IF27_RS16280" class="clusterblast-orf" id="dummy-1_h1_8_15"  />
</g>
<g id="a1_0016"  >
<polygon points="369,90 385,90 390,85 385,80 369,80 369,90 " style="fill:#d8156f; stroke-width:1; stroke:black; " description="&lt;b&gt;IF27_RS16285&lt;/b&gt;&lt;br&gt;type III polyketide synthase&lt;br&gt;Location: 283589 - 284689&lt;br&gt;&lt;br&gt;&lt;b&gt;BlastP hit with ctg95_13&lt;/b&gt;&lt;br&gt;Percentage identity: 83&lt;br&gt;Percentage coverage: 93&lt;br&gt;BLAST bit score: 601&lt;br&gt;E-value: 8.8e-170" locus_tag="IF27_RS16285" class="clusterblast-orf" id="dummy-1_h1_8_16"  />
</g>
<g id="a1_0017"  >
<polygon points="391,85 396,80 401,80 401,90 396,90 391,85 " style="fill:white; stroke-width:1; stroke:black; " description="&lt;b&gt;IF27_RS16290&lt;/b&gt;&lt;br&gt;NUDIX domain-containing protein&lt;br&gt;Location: 284693 - 285232" locus_tag="IF27_RS16290" class="clusterblast-orf" id="dummy-1_h1_8_17"  />
</g>
<g id="a1_0018"  >
<polygon points="403,85 408,80 418,80 418,90 408,90 403,85 " style="fill:white; stroke-width:1; stroke:black; " description="&lt;b&gt;IF27_RS16295&lt;/b&gt;&lt;br&gt;S-adenosyl methyltransferase&lt;br&gt;Location: 285320 - 286096" locus_tag="IF27_RS16295" class="clusterblast-orf" id="dummy-1_h1_8_18"  />
</g>
<g id="a1_0019"  >
<polygon points="421,85 426,80 444,80 444,90 426,90 421,85 " style="fill:white; stroke-width:1; stroke:black; " description="&lt;b&gt;IF27_RS16300&lt;/b&gt;&lt;br&gt;NAD(P)/FAD-dependent oxidoreductase&lt;br&gt;Location: 286268 - 287404" locus_tag="IF27_RS16300" class="clusterblast-orf" id="dummy-1_h1_8_19"  />
</g>
<g id="a1_0020"  >
<polygon points="445,90 449,90 454,85 449,80 445,80 445,90 " style="fill:white; stroke-width:1; stroke:black; " description="&lt;b&gt;IF27_RS16305&lt;/b&gt;&lt;br&gt;HIT domain-containing protein&lt;br&gt;Location: 287468 - 287905" locus_tag="IF27_RS16305" class="clusterblast-orf" id="dummy-1_h1_8_20"  />
</g>
<g id="a1_0021"  >
<polygon points="453,85 458,80 474,80 474,90 458,90 453,85 " style="fill:white; stroke-width:1; stroke:black; " description="&lt;b&gt;IF27_RS16310&lt;/b&gt;&lt;br&gt;ATP-dependent DNA ligase&lt;br&gt;Location: 287886 - 288947" locus_tag="IF27_RS16310" class="clusterblast-orf" id="dummy-1_h1_8_21"  />
</g>
<g id="a1_0022"  >
<polygon points="475,90 490,90 495,85 490,80 475,80 475,90 " style="fill:white; stroke-width:1; stroke:black; " description="&lt;b&gt;IF27_RS16315&lt;/b&gt;&lt;br&gt;ATP-dependent DNA ligase&lt;br&gt;Location: 289024 - 290040" locus_tag="IF27_RS16315" class="clusterblast-orf" id="dummy-1_h1_8_22"  />
</g>
<g id="a1_0023"  >
<polygon points="498,90 514,90 519,85 514,80 498,80 498,90 " style="fill:white; stroke-width:1; stroke:black; " description="&lt;b&gt;IF27_RS16320&lt;/b&gt;&lt;br&gt;DUF3068 domain-containing protein&lt;br&gt;Location: 290192 - 291235" locus_tag="IF27_RS16320" class="clusterblast-orf" id="dummy-1_h1_8_23"  />
</g>
<g id="a1_0024"  >
<polygon points="520,85 525,80 536,80 536,90 525,90 520,85 " style="fill:white; stroke-width:1; stroke:black; " description="&lt;b&gt;IF27_RS16325&lt;/b&gt;&lt;br&gt;S-adenosyl methyltransferase&lt;br&gt;Location: 291288 - 292106" locus_tag="IF27_RS16325" class="clusterblast-orf" id="dummy-1_h1_8_24"  />
</g>
<g id="a1_0025"  >
<polygon points="537,85 542,80 560,80 560,90 542,90 537,85 " style="fill:white; stroke-width:1; stroke:black; " description="&lt;b&gt;IF27_RS16330&lt;/b&gt;&lt;br&gt;8-amino-7-oxononanoate synthase&lt;br&gt;Location: 292180 - 293355" locus_tag="IF27_RS16330" class="clusterblast-orf" id="dummy-1_h1_8_25"  />
</g>
<g id="a1_0026"  >
<polygon points="564,90 580,90 585,85 580,80 564,80 564,90 " style="fill:white; stroke-width:1; stroke:black; " description="&lt;b&gt;IF27_RS16335&lt;/b&gt;&lt;br&gt;biotin synthase BioB&lt;br&gt;Location: 293520 - 294593" locus_tag="IF27_RS16335" class="clusterblast-orf" id="dummy-1_h1_8_26"  />
</g>
<g id="a1_0027"  >
<polygon points="585,90 605,90 610,85 605,80 585,80 585,90 " style="fill:white; stroke-width:1; stroke:black; " description="&lt;b&gt;IF27_RS16340&lt;/b&gt;&lt;br&gt;adenosylmethionine--8-amino-7-oxononanoate transaminase&lt;br&gt;Location: 294586 - 295890" locus_tag="IF27_RS16340" class="clusterblast-orf" id="dummy-1_h1_8_27"  />
</g>
<g id="a1_0028"  >
<polygon points="611,90 621,90 626,85 621,80 611,80 611,90 " style="fill:white; stroke-width:1; stroke:black; " description="&lt;b&gt;IF27_RS16345&lt;/b&gt;&lt;br&gt;dethiobiotin synthase&lt;br&gt;Location: 295940 - 296674" locus_tag="IF27_RS16345" class="clusterblast-orf" id="dummy-1_h1_8_28"  />
</g>
<g id="a1_0029"  >
<polygon points="632,90 640,90 645,85 640,80 632,80 632,90 " style="fill:white; stroke-width:1; stroke:black; " description="&lt;b&gt;IF27_RS16350&lt;/b&gt;&lt;br&gt;endonuclease&lt;br&gt;Location: 297000 - 297653" locus_tag="IF27_RS16350" class="clusterblast-orf" id="dummy-1_h1_8_29"  />
</g>
<g id="a1_0030"  >
<polygon points="646,90 648,90 653,85 648,80 646,80 646,90 " style="fill:white; stroke-width:1; stroke:black; " description="&lt;b&gt;IF27_RS16355&lt;/b&gt;&lt;br&gt;DUF3140 domain-containing protein&lt;br&gt;Location: 297737 - 298084" locus_tag="IF27_RS16355" class="clusterblast-orf" id="dummy-1_h1_8_30"  />
</g>
<g id="a1_0031"  >
<polygon points="654,85 659,80 674,80 674,90 659,90 654,85 " style="fill:white; stroke-width:1; stroke:black; " description="&lt;b&gt;IF27_RS16360&lt;/b&gt;&lt;br&gt;aldo/keto reductase&lt;br&gt;Location: 298140 - 299144" locus_tag="IF27_RS16360" class="clusterblast-orf" id="dummy-1_h1_8_31"  />
</g>
<g id="a1_0032"  >
<polygon points="678,85 683,80 702,80 702,90 683,90 678,85 " style="fill:white; stroke-width:1; stroke:black; " description="&lt;b&gt;IF27_RS16365&lt;/b&gt;&lt;br&gt;MBL fold metallo-hydrolase&lt;br&gt;Location: 299370 - 300590" locus_tag="IF27_RS16365" class="clusterblast-orf" id="dummy-1_h1_8_32"  />
</g>
<g id="a1_0033"  >
<polygon points="705,85 710,80 722,80 722,90 710,90 705,85 " style="fill:white; stroke-width:1; stroke:black; " description="&lt;b&gt;IF27_RS16370&lt;/b&gt;&lt;br&gt;ABC transporter permease&lt;br&gt;Location: 300703 - 301572" locus_tag="IF27_RS16370" class="clusterblast-orf" id="dummy-1_h1_8_33"  />
</g>
<g id="a1_0034"  >
<polygon points="721,85 726,80 739,80 739,90 726,90 721,85 " style="fill:white; stroke-width:1; stroke:black; " description="&lt;b&gt;IF27_RS16375&lt;/b&gt;&lt;br&gt;ATP-binding cassette domain-containing protein&lt;br&gt;Location: 301569 - 302480" locus_tag="IF27_RS16375" class="clusterblast-orf" id="dummy-1_h1_8_34"  />
</g>
<g id="a1_0035"  >
<polygon points="742,90 761,90 766,85 761,80 742,80 742,90 " style="fill:white; stroke-width:1; stroke:black; " description="&lt;b&gt;IF27_RS16380&lt;/b&gt;&lt;br&gt;sensor histidine kinase&lt;br&gt;Location: 302613 - 303818" locus_tag="IF27_RS16380" class="clusterblast-orf" id="dummy-1_h1_8_35"  />
</g>
<g id="a1_0036"  >
<polygon points="768,85 773,80 780,80 780,90 773,90 768,85 " style="fill:white; stroke-width:1; stroke:black; " description="&lt;b&gt;IF27_RS30355&lt;/b&gt;&lt;br&gt;hypothetical protein&lt;br&gt;Location: 303919 - 304527" locus_tag="IF27_RS30355" class="clusterblast-orf" id="dummy-1_h1_8_36"  />
</g>
</svg>
