<svg xmlns="http://www.w3.org/2000/svg" xmlns:xlink="http://www.w3.org/1999/xlink" version="1.1" x="0" y="0" height="230" width="800" viewBox="0 0 800 230" preserveAspectRatio="none"  >
<g label="Query sequence" class="clusterblast-cluster"  >
<text x="5" y="20" class="clusterblast-acc"  >
Query sequence</text>
<line x1="10" y1="35" x2="778.0" y2="35" style="stroke-width:1; stroke:grey; "  />
<polygon points="233,40 392,40 397,35 392,30 233,30 233,40 " style="fill:#d81515; stroke-width:1; stroke:black; " description="&lt;b&gt;ctg400_1&lt;/b&gt;&lt;br&gt;ctg400 1&lt;br&gt;Location: 0 - 1851" locus_tag="ctg400_1" class="clusterblast-orf" id="dummy-1_q0_0_all"  />
<polygon points="404,35 409,30 461,30 461,40 409,40 404,35 " style="fill:#15d8d8; stroke-width:1; stroke:black; " description="&lt;b&gt;ctg400_2&lt;/b&gt;&lt;br&gt;ctg400 2&lt;br&gt;Location: 1937 - 2579" locus_tag="ctg400_2" class="clusterblast-orf" id="dummy-1_q1_0_all"  />
<polygon points="461,35 466,30 548,30 548,40 466,40 461,35 " style="fill:white; stroke-width:1; stroke:black; " description="&lt;b&gt;ctg400_3&lt;/b&gt;&lt;br&gt;ctg400 3&lt;br&gt;Location: 2578 - 3556" locus_tag="ctg400_3" class="clusterblast-orf" id="dummy-1_q2_0_all"  />
</g>
<g label="NZ_CP017157" description="NZ_CP017157_c6: Streptomyces lydicus strain 103 chromosome, complete genome (33% of genes show similarity), siderophore" class="clusterblast-cluster"  >
<text x="5" y="70" class="clusterblast-acc"  >
<a xlink:href="https://antismash-db.secondarymetabolites.org/go/NZ_CP017157/6" target="_blank">NZ_CP017157_c6</a>: Streptomyces lydicus strain 103 chromosome, complete genome (33% of genes show similarity), siderophore</text>
<line x1="10" y1="85" x2="778.0" y2="85" style="stroke-width:1; stroke:grey; "  />
</g>
<g id="a1_000"  >
<polygon points="0,90 106,90 111,85 106,80 0,80 0,90 " style="fill:white; stroke-width:1; stroke:black; " description="&lt;b&gt;SL103_RS10285&lt;/b&gt;&lt;br&gt;DUF1015 domain-containing protein&lt;br&gt;Location: 2392804 - 2391542" locus_tag="SL103_RS10285" class="clusterblast-orf" id="dummy-1_h1_6_0"  />
</g>
<g id="a1_001"  >
<polygon points="125,90 256,90 261,85 256,80 125,80 125,90 " style="fill:white; stroke-width:1; stroke:black; " description="&lt;b&gt;SL103_RS10280&lt;/b&gt;&lt;br&gt;pyridoxal-dependent decarboxylase&lt;br&gt;Location: 2391386 - 2389854" locus_tag="SL103_RS10280" class="clusterblast-orf" id="dummy-1_h1_6_1"  />
</g>
<g id="a1_002"  >
<polygon points="269,90 381,90 386,85 381,80 269,80 269,90 " style="fill:white; stroke-width:1; stroke:black; " description="&lt;b&gt;SL103_RS10275&lt;/b&gt;&lt;br&gt;alcaligin biosynthesis protein&lt;br&gt;Location: 2389765 - 2388446" locus_tag="SL103_RS10275" class="clusterblast-orf" id="dummy-1_h1_6_2"  />
</g>
<g id="a1_003"  >
<polygon points="386,90 431,90 436,85 431,80 386,80 386,90 " style="fill:white; stroke-width:1; stroke:black; " description="&lt;b&gt;SL103_RS10270&lt;/b&gt;&lt;br&gt;N-acetyltransferase&lt;br&gt;Location: 2388449 - 2387880" locus_tag="SL103_RS10270" class="clusterblast-orf" id="dummy-1_h1_6_3"  />
</g>
<g id="a1_004"  >
<polygon points="436,90 591,90 596,85 591,80 436,80 436,90 " style="fill:#d81515; stroke-width:1; stroke:black; " description="&lt;b&gt;SL103_RS10265&lt;/b&gt;&lt;br&gt;IucA/IucC family siderophore biosynthesis protein&lt;br&gt;Location: 2387883 - 2386075&lt;br&gt;&lt;br&gt;&lt;b&gt;BlastP hit with ctg400_1&lt;/b&gt;&lt;br&gt;Percentage identity: 69&lt;br&gt;Percentage coverage: 98&lt;br&gt;BLAST bit score: 843&lt;br&gt;E-value: 1.3e-242" locus_tag="SL103_RS10265" class="clusterblast-orf" id="dummy-1_h1_6_4"  />
</g>
<g id="a1_005"  >
<polygon points="603,85 608,80 780,80 780,90 608,90 603,85 " style="fill:#15d8d8; stroke-width:1; stroke:black; " description="&lt;b&gt;SL103_RS35865&lt;/b&gt;&lt;br&gt;tetratricopeptide repeat protein&lt;br&gt;Location: 2386003 - 2384012&lt;br&gt;&lt;br&gt;&lt;b&gt;BlastP hit with ctg400_2&lt;/b&gt;&lt;br&gt;Percentage identity: 81&lt;br&gt;Percentage coverage: 97&lt;br&gt;BLAST bit score: 324&lt;br&gt;E-value: 1.2e-86" locus_tag="SL103_RS35865" class="clusterblast-orf" id="dummy-1_h1_6_5"  />
</g>
</svg>
