<svg xmlns="http://www.w3.org/2000/svg" xmlns:xlink="http://www.w3.org/1999/xlink" version="1.1" x="0" y="0" height="230" width="800" viewBox="0 0 800 230" preserveAspectRatio="none"  >
<g label="Query sequence" class="clusterblast-cluster"  >
<text x="5" y="20" class="clusterblast-acc"  >
Query sequence</text>
<line x1="10" y1="35" x2="778.0" y2="35" style="stroke-width:1; stroke:grey; "  />
<polygon points="245,35 248,30 248,40 245,35 " style="fill:#d81515; stroke-width:1; stroke:black; " description="&lt;b&gt;ctg28_1&lt;/b&gt;&lt;br&gt;ctg28 1&lt;br&gt;Location: 1 - 268" locus_tag="ctg28_1" class="clusterblast-orf" id="dummy-1_q0_0_all"  />
<polygon points="248,35 253,30 253,30 253,40 253,40 248,35 " style="fill:#6cd815; stroke-width:1; stroke:black; " description="&lt;b&gt;ctg28_2&lt;/b&gt;&lt;br&gt;ctg28 2&lt;br&gt;Location: 267 - 792" locus_tag="ctg28_2" class="clusterblast-orf" id="dummy-1_q1_0_all"  />
<polygon points="253,35 256,30 256,40 253,35 " style="fill:#15c3d8; stroke-width:1; stroke:black; " description="&lt;b&gt;ctg28_3&lt;/b&gt;&lt;br&gt;ctg28 3&lt;br&gt;Location: 825 - 1089" locus_tag="ctg28_3" class="clusterblast-orf" id="dummy-1_q2_0_all"  />
<polygon points="256,35 261,30 263,30 263,40 261,40 256,35 " style="fill:#9715d8; stroke-width:1; stroke:black; " description="&lt;b&gt;ctg28_4&lt;/b&gt;&lt;br&gt;ctg28 4&lt;br&gt;Location: 1090 - 1858" locus_tag="ctg28_4" class="clusterblast-orf" id="dummy-1_q3_0_all"  />
<polygon points="263,35 267,30 267,40 263,35 " style="fill:#d84115; stroke-width:1; stroke:black; " description="&lt;b&gt;ctg28_5&lt;/b&gt;&lt;br&gt;ctg28 5&lt;br&gt;Location: 1859 - 2303" locus_tag="ctg28_5" class="clusterblast-orf" id="dummy-1_q4_0_all"  />
<polygon points="267,35 270,30 270,40 267,35 " style="fill:#41d815; stroke-width:1; stroke:black; " description="&lt;b&gt;ctg28_6&lt;/b&gt;&lt;br&gt;ctg28 6&lt;br&gt;Location: 2325 - 2616" locus_tag="ctg28_6" class="clusterblast-orf" id="dummy-1_q5_0_all"  />
<polygon points="276,40 277,35 276,30 276,40 " style="fill:white; stroke-width:1; stroke:black; " description="&lt;b&gt;ctg28_7&lt;/b&gt;&lt;br&gt;ctg28 7&lt;br&gt;Location: 3262 - 3430" locus_tag="ctg28_7" class="clusterblast-orf" id="dummy-1_q6_0_all"  />
<polygon points="279,40 282,40 287,35 282,30 279,30 279,40 " style="fill:#1597d8; stroke-width:1; stroke:black; " description="&lt;b&gt;ctg28_8&lt;/b&gt;&lt;br&gt;ctg28 8&lt;br&gt;Location: 3562 - 4429" locus_tag="ctg28_8" class="clusterblast-orf" id="dummy-1_q7_0_all"  />
<polygon points="288,35 292,30 292,40 288,35 " style="fill:#c315d8; stroke-width:1; stroke:black; " description="&lt;b&gt;ctg28_9&lt;/b&gt;&lt;br&gt;ctg28 9&lt;br&gt;Location: 4518 - 4956" locus_tag="ctg28_9" class="clusterblast-orf" id="dummy-1_q8_0_all"  />
<polygon points="293,35 298,30 309,30 309,40 298,40 293,35 " style="fill:#d86c15; stroke-width:1; stroke:black; " description="&lt;b&gt;ctg28_10&lt;/b&gt;&lt;br&gt;ctg28 10&lt;br&gt;Location: 5075 - 6770" locus_tag="ctg28_10" class="clusterblast-orf" id="dummy-1_q9_0_all"  />
<polygon points="310,35 315,30 319,30 319,40 315,40 310,35 " style="fill:#15d815; stroke-width:1; stroke:black; " description="&lt;b&gt;ctg28_11&lt;/b&gt;&lt;br&gt;ctg28 11&lt;br&gt;Location: 6854 - 7814" locus_tag="ctg28_11" class="clusterblast-orf" id="dummy-1_q10_0_all"  />
<polygon points="319,35 324,30 332,30 332,40 324,40 319,35 " style="fill:#156cd8; stroke-width:1; stroke:black; " description="&lt;b&gt;ctg28_12&lt;/b&gt;&lt;br&gt;ctg28 12&lt;br&gt;Location: 7810 - 9211" locus_tag="ctg28_12" class="clusterblast-orf" id="dummy-1_q11_0_all"  />
<polygon points="332,35 337,30 341,30 341,40 337,40 332,35 " style="fill:#d815c3; stroke-width:1; stroke:black; " description="&lt;b&gt;ctg28_13&lt;/b&gt;&lt;br&gt;ctg28 13&lt;br&gt;Location: 9281 - 10226" locus_tag="ctg28_13" class="clusterblast-orf" id="dummy-1_q12_0_all"  />
<polygon points="342,35 347,30 354,30 354,40 347,40 342,35 " style="fill:#d89715; stroke-width:1; stroke:black; " description="&lt;b&gt;ctg28_14&lt;/b&gt;&lt;br&gt;ctg28 14&lt;br&gt;Location: 10298 - 11603" locus_tag="ctg28_14" class="clusterblast-orf" id="dummy-1_q13_0_all"  />
<polygon points="354,35 359,30 364,30 364,40 359,40 354,35 " style="fill:#15d841; stroke-width:1; stroke:black; " description="&lt;b&gt;ctg28_15&lt;/b&gt;&lt;br&gt;ctg28 15&lt;br&gt;Location: 11599 - 12679" locus_tag="ctg28_15" class="clusterblast-orf" id="dummy-1_q14_0_all"  />
<polygon points="364,35 369,30 373,30 373,40 369,40 364,35 " style="fill:#1541d8; stroke-width:1; stroke:black; " description="&lt;b&gt;ctg28_16&lt;/b&gt;&lt;br&gt;ctg28 16&lt;br&gt;Location: 12650 - 13634" locus_tag="ctg28_16" class="clusterblast-orf" id="dummy-1_q15_0_all"  />
<polygon points="373,35 378,30 383,30 383,40 378,40 373,35 " style="fill:#d81597; stroke-width:1; stroke:black; " description="&lt;b&gt;ctg28_17&lt;/b&gt;&lt;br&gt;ctg28 17&lt;br&gt;Location: 13630 - 14698" locus_tag="ctg28_17" class="clusterblast-orf" id="dummy-1_q16_0_all"  />
<polygon points="384,35 389,30 394,30 394,40 389,40 384,35 " style="fill:#d8c315; stroke-width:1; stroke:black; " description="&lt;b&gt;ctg28_18&lt;/b&gt;&lt;br&gt;ctg28 18&lt;br&gt;Location: 14723 - 15863" locus_tag="ctg28_18" class="clusterblast-orf" id="dummy-1_q17_0_all"  />
<polygon points="394,35 399,30 400,30 400,40 399,40 394,35 " style="fill:#15d86c; stroke-width:1; stroke:black; " description="&lt;b&gt;ctg28_19&lt;/b&gt;&lt;br&gt;ctg28 19&lt;br&gt;Location: 15859 - 16441" locus_tag="ctg28_19" class="clusterblast-orf" id="dummy-1_q18_0_all"  />
<polygon points="400,35 405,30 411,30 411,40 405,40 400,35 " style="fill:#d8c315; stroke-width:1; stroke:black; " description="&lt;b&gt;ctg28_20&lt;/b&gt;&lt;br&gt;ctg28 20&lt;br&gt;Location: 16440 - 17637" locus_tag="ctg28_20" class="clusterblast-orf" id="dummy-1_q19_0_all"  />
<polygon points="411,35 416,30 423,30 423,40 416,40 411,35 " style="fill:#d8c315; stroke-width:1; stroke:black; " description="&lt;b&gt;ctg28_21&lt;/b&gt;&lt;br&gt;ctg28 21&lt;br&gt;Location: 17665 - 18958" locus_tag="ctg28_21" class="clusterblast-orf" id="dummy-1_q20_0_all"  />
<polygon points="424,35 429,30 435,30 435,40 429,40 424,35 " style="fill:#1515d8; stroke-width:1; stroke:black; " description="&lt;b&gt;ctg28_22&lt;/b&gt;&lt;br&gt;ctg28 22&lt;br&gt;Location: 19016 - 20237" locus_tag="ctg28_22" class="clusterblast-orf" id="dummy-1_q21_0_all"  />
<polygon points="435,35 440,30 454,30 454,40 440,40 435,35 " style="fill:#d8156c; stroke-width:1; stroke:black; " description="&lt;b&gt;ctg28_23&lt;/b&gt;&lt;br&gt;ctg28 23&lt;br&gt;Location: 20245 - 22225" locus_tag="ctg28_23" class="clusterblast-orf" id="dummy-1_q22_0_all"  />
<polygon points="454,35 459,30 463,30 463,40 459,40 454,35 " style="fill:#c3d815; stroke-width:1; stroke:black; " description="&lt;b&gt;ctg28_24&lt;/b&gt;&lt;br&gt;ctg28 24&lt;br&gt;Location: 22227 - 23163" locus_tag="ctg28_24" class="clusterblast-orf" id="dummy-1_q23_0_all"  />
<polygon points="463,35 468,30 470,30 470,40 468,40 463,35 " style="fill:#15d897; stroke-width:1; stroke:black; " description="&lt;b&gt;ctg28_25&lt;/b&gt;&lt;br&gt;ctg28 25&lt;br&gt;Location: 23182 - 23968" locus_tag="ctg28_25" class="clusterblast-orf" id="dummy-1_q24_0_all"  />
<polygon points="472,35 474,30 474,40 472,35 " style="fill:#4115d8; stroke-width:1; stroke:black; " description="&lt;b&gt;ctg28_26&lt;/b&gt;&lt;br&gt;ctg28 26&lt;br&gt;Location: 24103 - 24373" locus_tag="ctg28_26" class="clusterblast-orf" id="dummy-1_q25_0_all"  />
<polygon points="475,35 480,30 487,30 487,40 480,40 475,35 " style="fill:#d81541; stroke-width:1; stroke:black; " description="&lt;b&gt;ctg28_27&lt;/b&gt;&lt;br&gt;ctg28 27&lt;br&gt;Location: 24460 - 25684" locus_tag="ctg28_27" class="clusterblast-orf" id="dummy-1_q26_0_all"  />
<polygon points="487,35 492,30 499,30 499,40 492,40 487,35 " style="fill:#d81541; stroke-width:1; stroke:black; " description="&lt;b&gt;ctg28_28&lt;/b&gt;&lt;br&gt;ctg28 28&lt;br&gt;Location: 25680 - 26961" locus_tag="ctg28_28" class="clusterblast-orf" id="dummy-1_q27_0_all"  />
<polygon points="499,35 501,30 501,40 499,35 " style="fill:#97d815; stroke-width:1; stroke:black; " description="&lt;b&gt;ctg28_29&lt;/b&gt;&lt;br&gt;ctg28 29&lt;br&gt;Location: 26957 - 27185" locus_tag="ctg28_29" class="clusterblast-orf" id="dummy-1_q28_0_all"  />
<polygon points="502,35 507,30 516,30 516,40 507,40 502,35 " style="fill:#d8156c; stroke-width:1; stroke:black; " description="&lt;b&gt;ctg28_30&lt;/b&gt;&lt;br&gt;ctg28 30&lt;br&gt;Location: 27295 - 28783" locus_tag="ctg28_30" class="clusterblast-orf" id="dummy-1_q29_0_all"  />
<polygon points="517,40 519,35 517,30 517,40 " style="fill:white; stroke-width:1; stroke:black; " description="&lt;b&gt;ctg28_31&lt;/b&gt;&lt;br&gt;ctg28 31&lt;br&gt;Location: 28868 - 29126" locus_tag="ctg28_31" class="clusterblast-orf" id="dummy-1_q30_0_all"  />
<polygon points="519,35 524,30 525,30 525,40 524,40 519,35 " style="fill:#15d8c3; stroke-width:1; stroke:black; " description="&lt;b&gt;ctg28_32&lt;/b&gt;&lt;br&gt;ctg28 32&lt;br&gt;Location: 29105 - 29753" locus_tag="ctg28_32" class="clusterblast-orf" id="dummy-1_q31_0_all"  />
<polygon points="528,35 533,30 534,30 534,40 533,40 528,35 " style="fill:#6c15d8; stroke-width:1; stroke:black; " description="&lt;b&gt;ctg28_33&lt;/b&gt;&lt;br&gt;ctg28 33&lt;br&gt;Location: 30087 - 30720" locus_tag="ctg28_33" class="clusterblast-orf" id="dummy-1_q32_0_all"  />
</g>
<g label="NZ_LISY01000003" description="NZ_LISY01000003_c18: Streptomyces sp. TSRI0261 scaffold3, whole genome shotgu... (32% of genes show similarity), t2pks-oligosaccharide-butyrolactone" class="clusterblast-cluster"  >
<text x="5" y="70" class="clusterblast-acc"  >
<a xlink:href="https://antismash-db.secondarymetabolites.org/go/NZ_LISY01000003/18" target="_blank">NZ_LISY01000003_c18</a>: Streptomyces sp. TSRI0261 scaffold3, whole genome shotgu... (32% of genes show similarity), t2pks-oligosaccharide-butyrolactone</text>
<line x1="10" y1="85" x2="778.0" y2="85" style="stroke-width:1; stroke:grey; "  />
</g>
<g id="a1_000"  >
<polygon points="0,90 7,90 12,85 7,80 0,80 0,90 " style="fill:white; stroke-width:1; stroke:black; " description="&lt;b&gt;AMK20_RS15760&lt;/b&gt;&lt;br&gt;sensor histidine kinase&lt;br&gt;Location: 518858 - 517548" locus_tag="AMK20_RS15760" class="clusterblast-orf" id="dummy-1_h1_8_0"  />
</g>
<g id="a1_001"  >
<polygon points="12,90 13,90 18,85 13,80 12,80 12,90 " style="fill:white; stroke-width:1; stroke:black; " description="&lt;b&gt;AMK20_RS15755&lt;/b&gt;&lt;br&gt;DNA-binding response regulator&lt;br&gt;Location: 517551 - 516874" locus_tag="AMK20_RS15755" class="clusterblast-orf" id="dummy-1_h1_8_1"  />
</g>
<g id="a1_002"  >
<polygon points="19,90 25,90 30,85 25,80 19,80 19,90 " style="fill:white; stroke-width:1; stroke:black; " description="&lt;b&gt;AMK20_RS15750&lt;/b&gt;&lt;br&gt;DUF1266 domain-containing protein&lt;br&gt;Location: 516830 - 515652" locus_tag="AMK20_RS15750" class="clusterblast-orf" id="dummy-1_h1_8_2"  />
</g>
<g id="a1_003"  >
<polygon points="30,90 36,90 41,85 36,80 30,80 30,90 " style="fill:white; stroke-width:1; stroke:black; " description="&lt;b&gt;AMK20_RS15745&lt;/b&gt;&lt;br&gt;DUF1266 domain-containing protein&lt;br&gt;Location: 515655 - 514471" locus_tag="AMK20_RS15745" class="clusterblast-orf" id="dummy-1_h1_8_3"  />
</g>
<g id="a1_004"  >
<polygon points="41,85 46,80 49,80 49,90 46,90 41,85 " style="fill:white; stroke-width:1; stroke:black; " description="&lt;b&gt;AMK20_RS15740&lt;/b&gt;&lt;br&gt;SDR family NAD(P)-dependent oxidoreductase&lt;br&gt;Location: 514420 - 513539" locus_tag="AMK20_RS15740" class="clusterblast-orf" id="dummy-1_h1_8_4"  />
</g>
<g id="a1_005"  >
<polygon points="49,85 53,80 53,90 49,85 " style="fill:white; stroke-width:1; stroke:black; " description="&lt;b&gt;AMK20_RS15735&lt;/b&gt;&lt;br&gt;DUF952 domain-containing protein&lt;br&gt;Location: 513542 - 513192" locus_tag="AMK20_RS15735" class="clusterblast-orf" id="dummy-1_h1_8_5"  />
</g>
<g id="a1_006"  >
<polygon points="53,85 58,80 69,80 69,90 58,90 53,85 " style="fill:white; stroke-width:1; stroke:black; " description="&lt;b&gt;AMK20_RS15730&lt;/b&gt;&lt;br&gt;choice-of-anchor A family protein&lt;br&gt;Location: 513120 - 511459" locus_tag="AMK20_RS15730" class="clusterblast-orf" id="dummy-1_h1_8_6"  />
</g>
<g id="a1_007"  >
<polygon points="71,85 76,80 80,80 80,90 76,90 71,85 " style="fill:white; stroke-width:1; stroke:black; " description="&lt;b&gt;AMK20_RS15725&lt;/b&gt;&lt;br&gt;reductase&lt;br&gt;Location: 511293 - 510307" locus_tag="AMK20_RS15725" class="clusterblast-orf" id="dummy-1_h1_8_7"  />
</g>
<g id="a1_008"  >
<polygon points="81,85 86,80 90,80 90,90 86,90 81,85 " style="fill:white; stroke-width:1; stroke:black; " description="&lt;b&gt;AMK20_RS15720&lt;/b&gt;&lt;br&gt;LysR family transcriptional regulator&lt;br&gt;Location: 510179 - 509226" locus_tag="AMK20_RS15720" class="clusterblast-orf" id="dummy-1_h1_8_8"  />
</g>
<g id="a1_009"  >
<polygon points="93,90 94,90 99,85 94,80 93,80 93,90 " style="fill:white; stroke-width:1; stroke:black; " description="&lt;b&gt;AMK20_RS15715&lt;/b&gt;&lt;br&gt;ABC transporter substrate-binding protein&lt;br&gt;Location: 508910 - 508257" locus_tag="AMK20_RS15715" class="clusterblast-orf" id="dummy-1_h1_8_9"  />
</g>
<g id="a1_0010"  >
<polygon points="100,85 104,80 104,90 100,85 " style="fill:white; stroke-width:1; stroke:black; " description="&lt;b&gt;AMK20_RS15710&lt;/b&gt;&lt;br&gt;GntR family transcriptional regulator&lt;br&gt;Location: 508124 - 507768" locus_tag="AMK20_RS15710" class="clusterblast-orf" id="dummy-1_h1_8_10"  />
</g>
<g id="a1_0011"  >
<polygon points="104,85 109,80 113,80 113,90 109,90 104,85 " style="fill:white; stroke-width:1; stroke:black; " description="&lt;b&gt;AMK20_RS15705&lt;/b&gt;&lt;br&gt;DUF1648 domain-containing protein&lt;br&gt;Location: 507765 - 506797" locus_tag="AMK20_RS15705" class="clusterblast-orf" id="dummy-1_h1_8_11"  />
</g>
<g id="a1_0012"  >
<polygon points="115,85 120,80 124,80 124,90 120,90 115,85 " style="fill:white; stroke-width:1; stroke:black; " description="&lt;b&gt;AMK20_RS15700&lt;/b&gt;&lt;br&gt;alpha/beta hydrolase&lt;br&gt;Location: 506578 - 505658" locus_tag="AMK20_RS15700" class="clusterblast-orf" id="dummy-1_h1_8_12"  />
</g>
<g id="a1_0013"  >
<polygon points="127,85 132,80 137,80 137,90 132,90 127,85 " style="fill:white; stroke-width:1; stroke:black; " description="&lt;b&gt;AMK20_RS15695&lt;/b&gt;&lt;br&gt;2-oxoacid:ferredoxin oxidoreductase subunit beta&lt;br&gt;Location: 505317 - 504238" locus_tag="AMK20_RS15695" class="clusterblast-orf" id="dummy-1_h1_8_13"  />
</g>
<g id="a1_0014"  >
<polygon points="137,85 142,80 154,80 154,90 142,90 137,85 " style="fill:white; stroke-width:1; stroke:black; " description="&lt;b&gt;AMK20_RS15690&lt;/b&gt;&lt;br&gt;2-oxoglutarate ferredoxin oxidoreductase subunit alpha&lt;br&gt;Location: 504245 - 502368" locus_tag="AMK20_RS15690" class="clusterblast-orf" id="dummy-1_h1_8_14"  />
</g>
<g id="a1_0015"  >
<polygon points="158,85 163,80 163,80 163,90 163,90 158,85 " style="fill:white; stroke-width:1; stroke:black; " description="&lt;b&gt;AMK20_RS15685&lt;/b&gt;&lt;br&gt;DsbA family oxidoreductase&lt;br&gt;Location: 502039 - 501413" locus_tag="AMK20_RS15685" class="clusterblast-orf" id="dummy-1_h1_8_15"  />
</g>
<g id="a1_0016"  >
<polygon points="164,85 169,80 179,80 179,90 169,90 164,85 " style="fill:white; stroke-width:1; stroke:black; " description="&lt;b&gt;AMK20_RS15680&lt;/b&gt;&lt;br&gt;MFS transporter&lt;br&gt;Location: 501318 - 499735" locus_tag="AMK20_RS15680" class="clusterblast-orf" id="dummy-1_h1_8_16"  />
</g>
<g id="a1_0017"  >
<polygon points="180,85 185,80 191,80 191,90 185,90 180,85 " style="fill:#d8c315; stroke-width:1; stroke:black; " description="&lt;b&gt;AMK20_RS15675&lt;/b&gt;&lt;br&gt;DUF1205 domain-containing protein&lt;br&gt;Location: 499690 - 498428&lt;br&gt;&lt;br&gt;&lt;b&gt;BlastP hit with ctg28_21&lt;/b&gt;&lt;br&gt;Percentage identity: 44&lt;br&gt;Percentage coverage: 103&lt;br&gt;BLAST bit score: 329&lt;br&gt;E-value: 5.7e-88" locus_tag="AMK20_RS15675" class="clusterblast-orf" id="dummy-1_h1_8_17"  />
</g>
<g id="a1_0018"  >
<polygon points="192,85 197,80 201,80 201,90 197,90 192,85 " style="fill:#15d815; stroke-width:1; stroke:black; " description="&lt;b&gt;AMK20_RS15670&lt;/b&gt;&lt;br&gt;gfo/Idh/MocA family oxidoreductase&lt;br&gt;Location: 498357 - 497395&lt;br&gt;&lt;br&gt;&lt;b&gt;BlastP hit with ctg28_11&lt;/b&gt;&lt;br&gt;Percentage identity: 62&lt;br&gt;Percentage coverage: 100&lt;br&gt;BLAST bit score: 384&lt;br&gt;E-value: 1.4e-104" locus_tag="AMK20_RS15670" class="clusterblast-orf" id="dummy-1_h1_8_18"  />
</g>
<g id="a1_0019"  >
<polygon points="201,85 206,80 214,80 214,90 206,90 201,85 " style="fill:#156cd8; stroke-width:1; stroke:black; " description="&lt;b&gt;AMK20_RS15665&lt;/b&gt;&lt;br&gt;NDP-hexose 2,3-dehydratase&lt;br&gt;Location: 497398 - 496004&lt;br&gt;&lt;br&gt;&lt;b&gt;BlastP hit with ctg28_12&lt;/b&gt;&lt;br&gt;Percentage identity: 70&lt;br&gt;Percentage coverage: 98&lt;br&gt;BLAST bit score: 660&lt;br&gt;E-value: 1.2e-187" locus_tag="AMK20_RS15665" class="clusterblast-orf" id="dummy-1_h1_8_19"  />
</g>
<g id="a1_0020"  >
<polygon points="214,85 219,80 226,80 226,90 219,90 214,85 " style="fill:#d89715; stroke-width:1; stroke:black; " description="&lt;b&gt;AMK20_RS15660&lt;/b&gt;&lt;br&gt;lipopolysaccharide biosynthesis protein RfbH&lt;br&gt;Location: 496007 - 494703&lt;br&gt;&lt;br&gt;&lt;b&gt;BlastP hit with ctg28_14&lt;/b&gt;&lt;br&gt;Percentage identity: 79&lt;br&gt;Percentage coverage: 100&lt;br&gt;BLAST bit score: 714&lt;br&gt;E-value: 6.4e-204" locus_tag="AMK20_RS15660" class="clusterblast-orf" id="dummy-1_h1_8_20"  />
</g>
<g id="a1_0021"  >
<polygon points="226,85 231,80 236,80 236,90 231,90 226,85 " style="fill:#1541d8; stroke-width:1; stroke:black; " description="&lt;b&gt;AMK20_RS15655&lt;/b&gt;&lt;br&gt;dTDP-glucose 4,6-dehydratase&lt;br&gt;Location: 494699 - 493710&lt;br&gt;&lt;br&gt;&lt;b&gt;BlastP hit with ctg28_16&lt;/b&gt;&lt;br&gt;Percentage identity: 73&lt;br&gt;Percentage coverage: 98&lt;br&gt;BLAST bit score: 522&lt;br&gt;E-value: 4.6e-146" locus_tag="AMK20_RS15655" class="clusterblast-orf" id="dummy-1_h1_8_21"  />
</g>
<g id="a1_0022"  >
<polygon points="236,85 241,80 246,80 246,90 241,90 236,85 " style="fill:#d81597; stroke-width:1; stroke:black; " description="&lt;b&gt;AMK20_RS15650&lt;/b&gt;&lt;br&gt;glucose-1-phosphate thymidylyltransferase&lt;br&gt;Location: 493713 - 492646&lt;br&gt;&lt;br&gt;&lt;b&gt;BlastP hit with ctg28_17&lt;/b&gt;&lt;br&gt;Percentage identity: 64&lt;br&gt;Percentage coverage: 100&lt;br&gt;BLAST bit score: 468&lt;br&gt;E-value: 8.5e-130" locus_tag="AMK20_RS15650" class="clusterblast-orf" id="dummy-1_h1_8_22"  />
</g>
<g id="a1_0023"  >
<polygon points="247,90 251,85 247,80 247,90 " style="fill:white; stroke-width:1; stroke:black; " description="&lt;b&gt;AMK20_RS15645&lt;/b&gt;&lt;br&gt;redox-sensitive transcriptional activator SoxR&lt;br&gt;Location: 492493 - 492041" locus_tag="AMK20_RS15645" class="clusterblast-orf" id="dummy-1_h1_8_23"  />
</g>
<g id="a1_0024"  >
<polygon points="254,85 259,80 259,80 259,90 259,90 254,85 " style="fill:white; stroke-width:1; stroke:black; " description="&lt;b&gt;AMK20_RS15640&lt;/b&gt;&lt;br&gt;NADPH-dependent oxidoreductase&lt;br&gt;Location: 491812 - 491219" locus_tag="AMK20_RS15640" class="clusterblast-orf" id="dummy-1_h1_8_24"  />
</g>
<g id="a1_0025"  >
<polygon points="260,85 265,80 273,80 273,90 265,90 260,85 " style="fill:#d8c315; stroke-width:1; stroke:black; " description="&lt;b&gt;AMK20_RS15635&lt;/b&gt;&lt;br&gt;activator-dependent family glycosyltransferase&lt;br&gt;Location: 491142 - 489781&lt;br&gt;&lt;br&gt;&lt;b&gt;BlastP hit with ctg28_20&lt;/b&gt;&lt;br&gt;Percentage identity: 31&lt;br&gt;Percentage coverage: 115&lt;br&gt;BLAST bit score: 134&lt;br&gt;E-value: 3.3e-29&lt;br&gt;&lt;br&gt;&lt;b&gt;BlastP hit with ctg28_21&lt;/b&gt;&lt;br&gt;Percentage identity: 47&lt;br&gt;Percentage coverage: 103&lt;br&gt;BLAST bit score: 375&lt;br&gt;E-value: 9.1e-102" locus_tag="AMK20_RS15635" class="clusterblast-orf" id="dummy-1_h1_8_25"  />
</g>
<g id="a1_0026"  >
<polygon points="273,85 278,80 285,80 285,90 278,90 273,85 " style="fill:#d8c315; stroke-width:1; stroke:black; " description="&lt;b&gt;AMK20_RS15630&lt;/b&gt;&lt;br&gt;DUF1205 domain-containing protein&lt;br&gt;Location: 489725 - 488490&lt;br&gt;&lt;br&gt;&lt;b&gt;BlastP hit with ctg28_20&lt;/b&gt;&lt;br&gt;Percentage identity: 33&lt;br&gt;Percentage coverage: 108&lt;br&gt;BLAST bit score: 122&lt;br&gt;E-value: 1.3e-25&lt;br&gt;&lt;br&gt;&lt;b&gt;BlastP hit with ctg28_21&lt;/b&gt;&lt;br&gt;Percentage identity: 45&lt;br&gt;Percentage coverage: 100&lt;br&gt;BLAST bit score: 349&lt;br&gt;E-value: 4.1e-94" locus_tag="AMK20_RS15630" class="clusterblast-orf" id="dummy-1_h1_8_26"  />
</g>
<g id="a1_0027"  >
<polygon points="285,85 290,80 296,80 296,90 290,90 285,85 " style="fill:#d8c315; stroke-width:1; stroke:black; " description="&lt;b&gt;AMK20_RS15625&lt;/b&gt;&lt;br&gt;DUF1205 domain-containing protein&lt;br&gt;Location: 488457 - 487303&lt;br&gt;&lt;br&gt;&lt;b&gt;BlastP hit with ctg28_20&lt;/b&gt;&lt;br&gt;Percentage identity: 54&lt;br&gt;Percentage coverage: 96&lt;br&gt;BLAST bit score: 400&lt;br&gt;E-value: 2.4e-109&lt;br&gt;&lt;br&gt;&lt;b&gt;BlastP hit with ctg28_21&lt;/b&gt;&lt;br&gt;Percentage identity: 31&lt;br&gt;Percentage coverage: 101&lt;br&gt;BLAST bit score: 143&lt;br&gt;E-value: 7.6e-32" locus_tag="AMK20_RS15625" class="clusterblast-orf" id="dummy-1_h1_8_27"  />
</g>
<g id="a1_0028"  >
<polygon points="296,85 301,80 303,80 303,90 301,90 296,85 " style="fill:white; stroke-width:1; stroke:black; " description="&lt;b&gt;AMK20_RS15620&lt;/b&gt;&lt;br&gt;NAD-dependent epimerase/dehydratase&lt;br&gt;Location: 487303 - 486524" locus_tag="AMK20_RS15620" class="clusterblast-orf" id="dummy-1_h1_8_28"  />
</g>
<g id="a1_0029"  >
<polygon points="303,85 308,80 315,80 315,90 308,90 303,85 " style="fill:#d8c315; stroke-width:1; stroke:black; " description="&lt;b&gt;AMK20_RS15615&lt;/b&gt;&lt;br&gt;DUF1205 domain-containing protein&lt;br&gt;Location: 486540 - 485302&lt;br&gt;&lt;br&gt;&lt;b&gt;BlastP hit with ctg28_20&lt;/b&gt;&lt;br&gt;Percentage identity: 35&lt;br&gt;Percentage coverage: 101&lt;br&gt;BLAST bit score: 143&lt;br&gt;E-value: 5.4e-32" locus_tag="AMK20_RS15615" class="clusterblast-orf" id="dummy-1_h1_8_29"  />
</g>
<g id="a1_0030"  >
<polygon points="315,85 320,80 324,80 324,90 320,90 315,85 " style="fill:#15d841; stroke-width:1; stroke:black; " description="&lt;b&gt;AMK20_RS15610&lt;/b&gt;&lt;br&gt;NAD(P)-dependent oxidoreductase&lt;br&gt;Location: 485302 - 484316&lt;br&gt;&lt;br&gt;&lt;b&gt;BlastP hit with ctg28_15&lt;/b&gt;&lt;br&gt;Percentage identity: 45&lt;br&gt;Percentage coverage: 89&lt;br&gt;BLAST bit score: 223&lt;br&gt;E-value: 3.7e-56" locus_tag="AMK20_RS15610" class="clusterblast-orf" id="dummy-1_h1_8_30"  />
</g>
<g id="a1_0031"  >
<polygon points="324,85 329,80 336,80 336,90 329,90 324,85 " style="fill:#d8c315; stroke-width:1; stroke:black; " description="&lt;b&gt;AMK20_RS15605&lt;/b&gt;&lt;br&gt;DUF1205 domain-containing protein&lt;br&gt;Location: 484316 - 483036&lt;br&gt;&lt;br&gt;&lt;b&gt;BlastP hit with ctg28_20&lt;/b&gt;&lt;br&gt;Percentage identity: 33&lt;br&gt;Percentage coverage: 105&lt;br&gt;BLAST bit score: 153&lt;br&gt;E-value: 4e-35&lt;br&gt;&lt;br&gt;&lt;b&gt;BlastP hit with ctg28_21&lt;/b&gt;&lt;br&gt;Percentage identity: 45&lt;br&gt;Percentage coverage: 102&lt;br&gt;BLAST bit score: 350&lt;br&gt;E-value: 2.4e-94" locus_tag="AMK20_RS15605" class="clusterblast-orf" id="dummy-1_h1_8_31"  />
</g>
<g id="a1_0032"  >
<polygon points="336,85 341,80 342,80 342,90 341,90 336,85 " style="fill:#15d86c; stroke-width:1; stroke:black; " description="&lt;b&gt;AMK20_RS15600&lt;/b&gt;&lt;br&gt;dTDP-4-keto-6-deoxy-D-glucose epimerase&lt;br&gt;Location: 483006 - 482404&lt;br&gt;&lt;br&gt;&lt;b&gt;BlastP hit with ctg28_19&lt;/b&gt;&lt;br&gt;Percentage identity: 70&lt;br&gt;Percentage coverage: 98&lt;br&gt;BLAST bit score: 284&lt;br&gt;E-value: 7.2e-75" locus_tag="AMK20_RS15600" class="clusterblast-orf" id="dummy-1_h1_8_32"  />
</g>
<g id="a1_0033"  >
<polygon points="342,85 347,80 353,80 353,90 347,90 342,85 " style="fill:white; stroke-width:1; stroke:black; " description="&lt;b&gt;AMK20_RS15595&lt;/b&gt;&lt;br&gt;DegT/DnrJ/EryC1/StrS family aminotransferase&lt;br&gt;Location: 482400 - 481249" locus_tag="AMK20_RS15595" class="clusterblast-orf" id="dummy-1_h1_8_33"  />
</g>
<g id="a1_0034"  >
<polygon points="355,85 360,80 369,80 369,90 360,90 355,85 " style="fill:white; stroke-width:1; stroke:black; " description="&lt;b&gt;AMK20_RS15590&lt;/b&gt;&lt;br&gt;MFS transporter&lt;br&gt;Location: 481066 - 479543" locus_tag="AMK20_RS15590" class="clusterblast-orf" id="dummy-1_h1_8_34"  />
</g>
<g id="a1_0035"  >
<polygon points="370,85 375,80 378,80 378,90 375,90 370,85 " style="fill:#d815c3; stroke-width:1; stroke:black; " description="&lt;b&gt;AMK20_RS15585&lt;/b&gt;&lt;br&gt;hypothetical protein&lt;br&gt;Location: 479465 - 478545&lt;br&gt;&lt;br&gt;&lt;b&gt;BlastP hit with ctg28_13&lt;/b&gt;&lt;br&gt;Percentage identity: 39&lt;br&gt;Percentage coverage: 98&lt;br&gt;BLAST bit score: 185&lt;br&gt;E-value: 1.3e-44" locus_tag="AMK20_RS15585" class="clusterblast-orf" id="dummy-1_h1_8_35"  />
</g>
<g id="a1_0036"  >
<polygon points="378,85 383,80 387,80 387,90 383,90 378,85 " style="fill:white; stroke-width:1; stroke:black; " description="&lt;b&gt;AMK20_RS15580&lt;/b&gt;&lt;br&gt;hypothetical protein&lt;br&gt;Location: 478524 - 477613" locus_tag="AMK20_RS15580" class="clusterblast-orf" id="dummy-1_h1_8_36"  />
</g>
<g id="a1_0037"  >
<polygon points="387,85 392,80 392,80 392,90 392,90 387,85 " style="fill:white; stroke-width:1; stroke:black; " description="&lt;b&gt;AMK20_RS15575&lt;/b&gt;&lt;br&gt;hypothetical protein&lt;br&gt;Location: 477571 - 477056" locus_tag="AMK20_RS15575" class="clusterblast-orf" id="dummy-1_h1_8_37"  />
</g>
<g id="a1_0038"  >
<polygon points="395,85 397,80 397,90 395,85 " style="fill:white; stroke-width:1; stroke:black; " description="&lt;b&gt;AMK20_RS15570&lt;/b&gt;&lt;br&gt;hypothetical protein&lt;br&gt;Location: 476793 - 476578" locus_tag="AMK20_RS15570" class="clusterblast-orf" id="dummy-1_h1_8_38"  />
</g>
<g id="a1_0039"  >
<polygon points="397,85 402,80 412,80 412,90 402,90 397,85 " style="fill:white; stroke-width:1; stroke:black; " description="&lt;b&gt;AMK20_RS15565&lt;/b&gt;&lt;br&gt;acyl-CoA carboxylase subunit beta&lt;br&gt;Location: 476512 - 474947" locus_tag="AMK20_RS15565" class="clusterblast-orf" id="dummy-1_h1_8_39"  />
</g>
<g id="a1_0040"  >
<polygon points="412,85 417,80 421,80 421,90 417,90 412,85 " style="fill:white; stroke-width:1; stroke:black; " description="&lt;b&gt;AMK20_RS15560&lt;/b&gt;&lt;br&gt;ACP S-malonyltransferase&lt;br&gt;Location: 474918 - 473965" locus_tag="AMK20_RS15560" class="clusterblast-orf" id="dummy-1_h1_8_40"  />
</g>
<g id="a1_0041"  >
<polygon points="423,85 428,80 431,80 431,90 428,90 423,85 " style="fill:white; stroke-width:1; stroke:black; " description="&lt;b&gt;AMK20_RS15555&lt;/b&gt;&lt;br&gt;phosphopantheine-transferase PgaX&lt;br&gt;Location: 473824 - 472982" locus_tag="AMK20_RS15555" class="clusterblast-orf" id="dummy-1_h1_8_41"  />
</g>
<g id="a1_0042"  >
<polygon points="431,85 434,80 434,90 431,85 " style="fill:white; stroke-width:1; stroke:black; " description="&lt;b&gt;AMK20_RS15550&lt;/b&gt;&lt;br&gt;hypothetical protein&lt;br&gt;Location: 472985 - 472608" locus_tag="AMK20_RS15550" class="clusterblast-orf" id="dummy-1_h1_8_42"  />
</g>
<g id="a1_0043"  >
<polygon points="434,85 439,80 448,80 448,90 439,90 434,85 " style="fill:#1515d8; stroke-width:1; stroke:black; " description="&lt;b&gt;AMK20_RS15545&lt;/b&gt;&lt;br&gt;MFS transporter&lt;br&gt;Location: 472611 - 471145&lt;br&gt;&lt;br&gt;&lt;b&gt;BlastP hit with ctg28_22&lt;/b&gt;&lt;br&gt;Percentage identity: 45&lt;br&gt;Percentage coverage: 116&lt;br&gt;BLAST bit score: 280&lt;br&gt;E-value: 2.2e-73" locus_tag="AMK20_RS15545" class="clusterblast-orf" id="dummy-1_h1_8_43"  />
</g>
<g id="a1_0044"  >
<polygon points="449,85 454,80 471,80 471,90 454,90 449,85 " style="fill:#d8156c; stroke-width:1; stroke:black; " description="&lt;b&gt;AMK20_RS15540&lt;/b&gt;&lt;br&gt;monooxygenase&lt;br&gt;Location: 471016 - 468662&lt;br&gt;&lt;br&gt;&lt;b&gt;BlastP hit with ctg28_23&lt;/b&gt;&lt;br&gt;Percentage identity: 51&lt;br&gt;Percentage coverage: 119&lt;br&gt;BLAST bit score: 678&lt;br&gt;E-value: 5.9e-193&lt;br&gt;&lt;br&gt;&lt;b&gt;BlastP hit with ctg28_30&lt;/b&gt;&lt;br&gt;Percentage identity: 49&lt;br&gt;Percentage coverage: 100&lt;br&gt;BLAST bit score: 425&lt;br&gt;E-value: 8.8e-117" locus_tag="AMK20_RS15540" class="clusterblast-orf" id="dummy-1_h1_8_44"  />
</g>
<g id="a1_0045"  >
<polygon points="471,85 476,80 480,80 480,90 476,90 471,85 " style="fill:#c3d815; stroke-width:1; stroke:black; " description="&lt;b&gt;AMK20_RS15535&lt;/b&gt;&lt;br&gt;cyclase&lt;br&gt;Location: 468660 - 467716&lt;br&gt;&lt;br&gt;&lt;b&gt;BlastP hit with ctg28_24&lt;/b&gt;&lt;br&gt;Percentage identity: 73&lt;br&gt;Percentage coverage: 99&lt;br&gt;BLAST bit score: 457&lt;br&gt;E-value: 1.3e-126" locus_tag="AMK20_RS15535" class="clusterblast-orf" id="dummy-1_h1_8_45"  />
</g>
<g id="a1_0046"  >
<polygon points="481,85 486,80 488,80 488,90 486,90 481,85 " style="fill:#15d897; stroke-width:1; stroke:black; " description="&lt;b&gt;AMK20_RS15530&lt;/b&gt;&lt;br&gt;3-oxoacyl-ACP reductase FabG&lt;br&gt;Location: 467639 - 466854&lt;br&gt;&lt;br&gt;&lt;b&gt;BlastP hit with ctg28_25&lt;/b&gt;&lt;br&gt;Percentage identity: 80&lt;br&gt;Percentage coverage: 100&lt;br&gt;BLAST bit score: 399&lt;br&gt;E-value: 2.1e-109" locus_tag="AMK20_RS15530" class="clusterblast-orf" id="dummy-1_h1_8_46"  />
</g>
<g id="a1_0047"  >
<polygon points="489,85 492,80 492,90 489,85 " style="fill:#4115d8; stroke-width:1; stroke:black; " description="&lt;b&gt;AMK20_RS15525&lt;/b&gt;&lt;br&gt;acyl carrier protein&lt;br&gt;Location: 466750 - 466481&lt;br&gt;&lt;br&gt;&lt;b&gt;BlastP hit with ctg28_26&lt;/b&gt;&lt;br&gt;Percentage identity: 66&lt;br&gt;Percentage coverage: 94&lt;br&gt;BLAST bit score: 111&lt;br&gt;E-value: 5.1e-23" locus_tag="AMK20_RS15525" class="clusterblast-orf" id="dummy-1_h1_8_47"  />
</g>
<g id="a1_0048"  >
<polygon points="492,85 497,80 504,80 504,90 497,90 492,85 " style="fill:#d81541; stroke-width:1; stroke:black; " description="&lt;b&gt;AMK20_RS15520&lt;/b&gt;&lt;br&gt;ketosynthase chain-length factor&lt;br&gt;Location: 466393 - 465176&lt;br&gt;&lt;br&gt;&lt;b&gt;BlastP hit with ctg28_27&lt;/b&gt;&lt;br&gt;Percentage identity: 69&lt;br&gt;Percentage coverage: 99&lt;br&gt;BLAST bit score: 557&lt;br&gt;E-value: 1.2e-156&lt;br&gt;&lt;br&gt;&lt;b&gt;BlastP hit with ctg28_28&lt;/b&gt;&lt;br&gt;Percentage identity: 33&lt;br&gt;Percentage coverage: 98&lt;br&gt;BLAST bit score: 182&lt;br&gt;E-value: 8.5e-44" locus_tag="AMK20_RS15520" class="clusterblast-orf" id="dummy-1_h1_8_48"  />
</g>
<g id="a1_0049"  >
<polygon points="504,85 509,80 516,80 516,90 509,90 504,85 " style="fill:#d81541; stroke-width:1; stroke:black; " description="&lt;b&gt;AMK20_RS15515&lt;/b&gt;&lt;br&gt;beta-ketoacyl-[acyl-carrier-protein] synthase family protein&lt;br&gt;Location: 465179 - 463911&lt;br&gt;&lt;br&gt;&lt;b&gt;BlastP hit with ctg28_28&lt;/b&gt;&lt;br&gt;Percentage identity: 83&lt;br&gt;Percentage coverage: 99&lt;br&gt;BLAST bit score: 699&lt;br&gt;E-value: 2.7e-199" locus_tag="AMK20_RS15515" class="clusterblast-orf" id="dummy-1_h1_8_49"  />
</g>
<g id="a1_0050"  >
<polygon points="516,85 519,80 519,90 516,85 " style="fill:#97d815; stroke-width:1; stroke:black; " description="&lt;b&gt;AMK20_RS15510&lt;/b&gt;&lt;br&gt;TcmI family type II polyketide cyclase&lt;br&gt;Location: 463873 - 463544&lt;br&gt;&lt;br&gt;&lt;b&gt;BlastP hit with ctg28_29&lt;/b&gt;&lt;br&gt;Percentage identity: 76&lt;br&gt;Percentage coverage: 99&lt;br&gt;BLAST bit score: 123&lt;br&gt;E-value: 8.3e-27" locus_tag="AMK20_RS15510" class="clusterblast-orf" id="dummy-1_h1_8_50"  />
</g>
<g id="a1_0051"  >
<polygon points="520,85 525,80 526,80 526,90 525,90 520,85 " style="fill:white; stroke-width:1; stroke:black; " description="&lt;b&gt;AMK20_RS15505&lt;/b&gt;&lt;br&gt;TetR/AcrR family transcriptional regulator&lt;br&gt;Location: 463476 - 462817" locus_tag="AMK20_RS15505" class="clusterblast-orf" id="dummy-1_h1_8_51"  />
</g>
<g id="a1_0052"  >
<polygon points="527,85 532,80 541,80 541,90 532,90 527,85 " style="fill:#d8156c; stroke-width:1; stroke:black; " description="&lt;b&gt;AMK20_RS15500&lt;/b&gt;&lt;br&gt;monooxygenase&lt;br&gt;Location: 462682 - 461207&lt;br&gt;&lt;br&gt;&lt;b&gt;BlastP hit with ctg28_23&lt;/b&gt;&lt;br&gt;Percentage identity: 40&lt;br&gt;Percentage coverage: 75&lt;br&gt;BLAST bit score: 269&lt;br&gt;E-value: 1.4e-69&lt;br&gt;&lt;br&gt;&lt;b&gt;BlastP hit with ctg28_30&lt;/b&gt;&lt;br&gt;Percentage identity: 73&lt;br&gt;Percentage coverage: 99&lt;br&gt;BLAST bit score: 708&lt;br&gt;E-value: 4e-202" locus_tag="AMK20_RS15500" class="clusterblast-orf" id="dummy-1_h1_8_52"  />
</g>
<g id="a1_0053"  >
<polygon points="552,90 554,85 552,80 552,90 " style="fill:#15d8c3; stroke-width:1; stroke:black; " description="&lt;b&gt;AMK20_RS37610&lt;/b&gt;&lt;br&gt;hypothetical protein&lt;br&gt;Location: 460074 - 459883&lt;br&gt;&lt;br&gt;&lt;b&gt;BlastP hit with ctg28_32&lt;/b&gt;&lt;br&gt;Percentage identity: 51&lt;br&gt;Percentage coverage: 26&lt;br&gt;BLAST bit score: 63&lt;br&gt;E-value: 3.8e-08" locus_tag="AMK20_RS37610" class="clusterblast-orf" id="dummy-1_h1_8_53"  />
</g>
<g id="a1_0054"  >
<polygon points="556,85 561,80 573,80 573,90 561,90 556,85 " style="fill:white; stroke-width:1; stroke:black; " description="&lt;b&gt;AMK20_RS15490&lt;/b&gt;&lt;br&gt;ATP-grasp domain-containing protein&lt;br&gt;Location: 459591 - 457819" locus_tag="AMK20_RS15490" class="clusterblast-orf" id="dummy-1_h1_8_54"  />
</g>
<g id="a1_0055"  >
<polygon points="575,85 580,80 584,80 584,90 580,90 575,85 " style="fill:white; stroke-width:1; stroke:black; " description="&lt;b&gt;AMK20_RS15485&lt;/b&gt;&lt;br&gt;autoregulator biosynthesis enzyme&lt;br&gt;Location: 457619 - 456681" locus_tag="AMK20_RS15485" class="clusterblast-orf" id="dummy-1_h1_8_55"  />
</g>
<g id="a1_0056"  >
<polygon points="584,85 589,80 594,80 594,90 589,90 584,85 " style="fill:white; stroke-width:1; stroke:black; " description="&lt;b&gt;AMK20_RS15480&lt;/b&gt;&lt;br&gt;hypothetical protein&lt;br&gt;Location: 456670 - 455615" locus_tag="AMK20_RS15480" class="clusterblast-orf" id="dummy-1_h1_8_56"  />
</g>
<g id="a1_0057"  >
<polygon points="597,90 599,90 604,85 599,80 597,80 597,90 " style="fill:#1597d8; stroke-width:1; stroke:black; " description="&lt;b&gt;AMK20_RS15475&lt;/b&gt;&lt;br&gt;DNA-binding response regulator&lt;br&gt;Location: 455282 - 454491&lt;br&gt;&lt;br&gt;&lt;b&gt;BlastP hit with ctg28_8&lt;/b&gt;&lt;br&gt;Percentage identity: 60&lt;br&gt;Percentage coverage: 81&lt;br&gt;BLAST bit score: 269&lt;br&gt;E-value: 4.7e-70" locus_tag="AMK20_RS15475" class="clusterblast-orf" id="dummy-1_h1_8_57"  />
</g>
<g id="a1_0058"  >
<polygon points="605,90 607,90 612,85 607,80 605,80 605,90 " style="fill:white; stroke-width:1; stroke:black; " description="&lt;b&gt;AMK20_RS15470&lt;/b&gt;&lt;br&gt;TetR/AcrR family transcriptional regulator&lt;br&gt;Location: 454361 - 453711" locus_tag="AMK20_RS15470" class="clusterblast-orf" id="dummy-1_h1_8_58"  />
</g>
<g id="a1_0059"  >
<polygon points="616,90 617,90 622,85 617,80 616,80 616,90 " style="fill:white; stroke-width:1; stroke:black; " description="&lt;b&gt;AMK20_RS38040&lt;/b&gt;&lt;br&gt;TetR/AcrR family transcriptional regulator&lt;br&gt;Location: 453197 - 452649" locus_tag="AMK20_RS38040" class="clusterblast-orf" id="dummy-1_h1_8_59"  />
</g>
<g id="a1_0060"  >
<polygon points="623,85 628,80 629,80 629,90 628,90 623,85 " style="fill:white; stroke-width:1; stroke:black; " description="&lt;b&gt;AMK20_RS15460&lt;/b&gt;&lt;br&gt;hypothetical protein&lt;br&gt;Location: 452513 - 451845" locus_tag="AMK20_RS15460" class="clusterblast-orf" id="dummy-1_h1_8_60"  />
</g>
<g id="a1_0061"  >
<polygon points="630,85 635,80 635,80 635,90 635,90 630,85 " style="fill:white; stroke-width:1; stroke:black; " description="&lt;b&gt;AMK20_RS15455&lt;/b&gt;&lt;br&gt;GNAT family N-acetyltransferase&lt;br&gt;Location: 451788 - 451192" locus_tag="AMK20_RS15455" class="clusterblast-orf" id="dummy-1_h1_8_61"  />
</g>
<g id="a1_0062"  >
<polygon points="636,85 641,80 646,80 646,90 641,90 636,85 " style="fill:white; stroke-width:1; stroke:black; " description="&lt;b&gt;AMK20_RS15450&lt;/b&gt;&lt;br&gt;polyprenyl synthetase family protein&lt;br&gt;Location: 451103 - 450060" locus_tag="AMK20_RS15450" class="clusterblast-orf" id="dummy-1_h1_8_62"  />
</g>
<g id="a1_0063"  >
<polygon points="647,85 652,80 660,80 660,90 652,90 647,85 " style="fill:white; stroke-width:1; stroke:black; " description="&lt;b&gt;AMK20_RS15445&lt;/b&gt;&lt;br&gt;cyclic nucleotide-binding domain-containing protein&lt;br&gt;Location: 449966 - 448560" locus_tag="AMK20_RS15445" class="clusterblast-orf" id="dummy-1_h1_8_63"  />
</g>
<g id="a1_0064"  >
<polygon points="662,90 666,85 662,80 662,90 " style="fill:white; stroke-width:1; stroke:black; " description="&lt;b&gt;AMK20_RS15440&lt;/b&gt;&lt;br&gt;Rrf2 family transcriptional regulator&lt;br&gt;Location: 448383 - 447937" locus_tag="AMK20_RS15440" class="clusterblast-orf" id="dummy-1_h1_8_64"  />
</g>
<g id="a1_0065"  >
<polygon points="667,90 673,90 678,85 673,80 667,80 667,90 " style="fill:white; stroke-width:1; stroke:black; " description="&lt;b&gt;AMK20_RS15435&lt;/b&gt;&lt;br&gt;hemin transporter&lt;br&gt;Location: 447843 - 446647" locus_tag="AMK20_RS15435" class="clusterblast-orf" id="dummy-1_h1_8_65"  />
</g>
<g id="a1_0066"  >
<polygon points="678,90 682,90 687,85 682,80 678,80 678,90 " style="fill:white; stroke-width:1; stroke:black; " description="&lt;b&gt;AMK20_RS15430&lt;/b&gt;&lt;br&gt;1-aminocyclopropane-1-carboxylate deaminase&lt;br&gt;Location: 446620 - 445691" locus_tag="AMK20_RS15430" class="clusterblast-orf" id="dummy-1_h1_8_66"  />
</g>
<g id="a1_0067"  >
<polygon points="687,85 692,80 702,80 702,90 692,90 687,85 " style="fill:white; stroke-width:1; stroke:black; " description="&lt;b&gt;AMK20_RS15425&lt;/b&gt;&lt;br&gt;Na+/H+ antiporter&lt;br&gt;Location: 445715 - 444114" locus_tag="AMK20_RS15425" class="clusterblast-orf" id="dummy-1_h1_8_67"  />
</g>
<g id="a1_0068"  >
<polygon points="702,90 705,85 702,80 702,90 " style="fill:white; stroke-width:1; stroke:black; " description="&lt;b&gt;AMK20_RS15420&lt;/b&gt;&lt;br&gt;hypothetical protein&lt;br&gt;Location: 444078 - 443818" locus_tag="AMK20_RS15420" class="clusterblast-orf" id="dummy-1_h1_8_68"  />
</g>
<g id="a1_0069"  >
<polygon points="707,90 711,85 707,80 707,90 " style="fill:white; stroke-width:1; stroke:black; " description="&lt;b&gt;AMK20_RS15415&lt;/b&gt;&lt;br&gt;anti-sigma regulatory factor&lt;br&gt;Location: 443585 - 443172" locus_tag="AMK20_RS15415" class="clusterblast-orf" id="dummy-1_h1_8_69"  />
</g>
<g id="a1_0070"  >
<polygon points="711,90 715,90 720,85 715,80 711,80 711,90 " style="fill:white; stroke-width:1; stroke:black; " description="&lt;b&gt;AMK20_RS15410&lt;/b&gt;&lt;br&gt;RNA polymerase sigma factor SigF&lt;br&gt;Location: 443148 - 442219" locus_tag="AMK20_RS15410" class="clusterblast-orf" id="dummy-1_h1_8_70"  />
</g>
<g id="a1_0071"  >
<polygon points="721,85 725,80 725,90 721,85 " style="fill:white; stroke-width:1; stroke:black; " description="&lt;b&gt;AMK20_RS15405&lt;/b&gt;&lt;br&gt;hypothetical protein&lt;br&gt;Location: 442116 - 441667" locus_tag="AMK20_RS15405" class="clusterblast-orf" id="dummy-1_h1_8_71"  />
</g>
<g id="a1_0072"  >
<polygon points="726,90 730,90 735,85 730,80 726,80 726,90 " style="fill:white; stroke-width:1; stroke:black; " description="&lt;b&gt;AMK20_RS15400&lt;/b&gt;&lt;br&gt;diacylglycerol kinase&lt;br&gt;Location: 441499 - 440531" locus_tag="AMK20_RS15400" class="clusterblast-orf" id="dummy-1_h1_8_72"  />
</g>
<g id="a1_0073"  >
<polygon points="738,90 741,85 738,80 738,90 " style="fill:white; stroke-width:1; stroke:black; " description="&lt;b&gt;AMK20_RS15395&lt;/b&gt;&lt;br&gt;WhiB family transcriptional regulator&lt;br&gt;Location: 440211 - 439954" locus_tag="AMK20_RS15395" class="clusterblast-orf" id="dummy-1_h1_8_73"  />
</g>
<g id="a1_0074"  >
<polygon points="742,85 747,80 756,80 756,90 747,90 742,85 " style="fill:white; stroke-width:1; stroke:black; " description="&lt;b&gt;AMK20_RS15390&lt;/b&gt;&lt;br&gt;ATPase&lt;br&gt;Location: 439782 - 438316" locus_tag="AMK20_RS15390" class="clusterblast-orf" id="dummy-1_h1_8_74"  />
</g>
<g id="a1_0075"  >
<polygon points="760,85 765,80 770,80 770,90 765,90 760,85 " style="fill:white; stroke-width:1; stroke:black; " description="&lt;b&gt;AMK20_RS15385&lt;/b&gt;&lt;br&gt;SIS domain-containing protein&lt;br&gt;Location: 437937 - 436855" locus_tag="AMK20_RS15385" class="clusterblast-orf" id="dummy-1_h1_8_75"  />
</g>
<g id="a1_0076"  >
<polygon points="772,90 775,90 780,85 775,80 772,80 772,90 " style="fill:white; stroke-width:1; stroke:black; " description="&lt;b&gt;AMK20_RS15380&lt;/b&gt;&lt;br&gt;glucosamine-6-phosphate deaminase&lt;br&gt;Location: 436626 - 435841" locus_tag="AMK20_RS15380" class="clusterblast-orf" id="dummy-1_h1_8_76"  />
</g>
</svg>
