<svg xmlns="http://www.w3.org/2000/svg" xmlns:xlink="http://www.w3.org/1999/xlink" version="1.1" x="0" y="0" height="230" width="800" viewBox="0 0 800 230" preserveAspectRatio="none"  >
<g label="Query sequence" class="clusterblast-cluster"  >
<text x="5" y="20" class="clusterblast-acc"  >
Query sequence</text>
<line x1="10" y1="35" x2="778.0" y2="35" style="stroke-width:1; stroke:grey; "  />
<polygon points="254,35 259,30 262,30 262,40 259,40 254,35 " style="fill:#d81515; stroke-width:1; stroke:black; " description="&lt;b&gt;ctg48_1&lt;/b&gt;&lt;br&gt;ctg48 1&lt;br&gt;Location: 69 - 801" locus_tag="ctg48_1" class="clusterblast-orf" id="dummy-1_q0_0_all"  />
<polygon points="262,35 267,30 271,30 271,40 267,40 262,35 " style="fill:#d81515; stroke-width:1; stroke:black; " description="&lt;b&gt;ctg48_2&lt;/b&gt;&lt;br&gt;ctg48 2&lt;br&gt;Location: 797 - 1688" locus_tag="ctg48_2" class="clusterblast-orf" id="dummy-1_q1_0_all"  />
<polygon points="271,35 276,30 283,30 283,40 276,40 271,35 " style="fill:#33d815; stroke-width:1; stroke:black; " description="&lt;b&gt;ctg48_3&lt;/b&gt;&lt;br&gt;ctg48 3&lt;br&gt;Location: 1695 - 2766" locus_tag="ctg48_3" class="clusterblast-orf" id="dummy-1_q2_0_all"  />
<polygon points="283,35 288,30 301,30 301,40 288,40 283,35 " style="fill:#15abd8; stroke-width:1; stroke:black; " description="&lt;b&gt;ctg48_4&lt;/b&gt;&lt;br&gt;ctg48 4&lt;br&gt;Location: 2747 - 4439" locus_tag="ctg48_4" class="clusterblast-orf" id="dummy-1_q3_0_all"  />
<polygon points="301,35 306,30 312,30 312,40 306,40 301,35 " style="fill:white; stroke-width:1; stroke:black; " description="&lt;b&gt;ctg48_5&lt;/b&gt;&lt;br&gt;ctg48 5&lt;br&gt;Location: 4490 - 5474" locus_tag="ctg48_5" class="clusterblast-orf" id="dummy-1_q4_0_all"  />
<polygon points="313,40 324,40 329,35 324,30 313,30 313,40 " style="fill:white; stroke-width:1; stroke:black; " description="&lt;b&gt;ctg48_6&lt;/b&gt;&lt;br&gt;ctg48 6&lt;br&gt;Location: 5567 - 6998" locus_tag="ctg48_6" class="clusterblast-orf" id="dummy-1_q5_0_all"  />
<polygon points="332,40 340,40 345,35 340,30 332,30 332,40 " style="fill:#8d15d8; stroke-width:1; stroke:black; " description="&lt;b&gt;ctg48_7&lt;/b&gt;&lt;br&gt;ctg48 7&lt;br&gt;Location: 7302 - 8499" locus_tag="ctg48_7" class="clusterblast-orf" id="dummy-1_q6_0_all"  />
<polygon points="345,35 350,30 357,30 357,40 350,40 345,35 " style="fill:#d86f15; stroke-width:1; stroke:black; " description="&lt;b&gt;ctg48_8&lt;/b&gt;&lt;br&gt;ctg48 8&lt;br&gt;Location: 8559 - 9639" locus_tag="ctg48_8" class="clusterblast-orf" id="dummy-1_q7_0_all"  />
<polygon points="357,35 362,30 367,30 367,40 362,40 357,35 " style="fill:#15d851; stroke-width:1; stroke:black; " description="&lt;b&gt;ctg48_9&lt;/b&gt;&lt;br&gt;ctg48 9&lt;br&gt;Location: 9659 - 10583" locus_tag="ctg48_9" class="clusterblast-orf" id="dummy-1_q8_0_all"  />
<polygon points="369,35 374,30 379,30 379,40 374,40 369,35 " style="fill:#1551d8; stroke-width:1; stroke:black; " description="&lt;b&gt;ctg48_10&lt;/b&gt;&lt;br&gt;ctg48 10&lt;br&gt;Location: 10784 - 11618" locus_tag="ctg48_10" class="clusterblast-orf" id="dummy-1_q9_0_all"  />
<polygon points="378,35 383,30 391,30 391,40 383,40 378,35 " style="fill:#d815c9; stroke-width:1; stroke:black; " description="&lt;b&gt;ctg48_11&lt;/b&gt;&lt;br&gt;ctg48 11&lt;br&gt;Location: 11614 - 12766" locus_tag="ctg48_11" class="clusterblast-orf" id="dummy-1_q10_0_all"  />
<polygon points="391,40 399,40 404,35 399,30 391,30 391,40 " style="fill:white; stroke-width:1; stroke:black; " description="&lt;b&gt;ctg48_12&lt;/b&gt;&lt;br&gt;ctg48 12&lt;br&gt;Location: 12786 - 13989" locus_tag="ctg48_12" class="clusterblast-orf" id="dummy-1_q11_0_all"  />
<polygon points="405,35 410,30 414,30 414,40 410,40 405,35 " style="fill:#d8c915; stroke-width:1; stroke:black; " description="&lt;b&gt;ctg48_13&lt;/b&gt;&lt;br&gt;ctg48 13&lt;br&gt;Location: 14051 - 14882" locus_tag="ctg48_13" class="clusterblast-orf" id="dummy-1_q12_0_all"  />
<polygon points="414,35 419,30 428,30 428,40 419,40 414,35 " style="fill:#15d8ab; stroke-width:1; stroke:black; " description="&lt;b&gt;ctg48_14&lt;/b&gt;&lt;br&gt;ctg48 14&lt;br&gt;Location: 14878 - 16189" locus_tag="ctg48_14" class="clusterblast-orf" id="dummy-1_q13_0_all"  />
<polygon points="428,35 433,30 440,30 440,40 433,40 428,35 " style="fill:#3315d8; stroke-width:1; stroke:black; " description="&lt;b&gt;ctg48_15&lt;/b&gt;&lt;br&gt;ctg48 15&lt;br&gt;Location: 16185 - 17301" locus_tag="ctg48_15" class="clusterblast-orf" id="dummy-1_q14_0_all"  />
<polygon points="441,35 444,30 444,40 441,35 " style="fill:#d8156f; stroke-width:1; stroke:black; " description="&lt;b&gt;ctg48_16&lt;/b&gt;&lt;br&gt;ctg48 16&lt;br&gt;Location: 17403 - 17676" locus_tag="ctg48_16" class="clusterblast-orf" id="dummy-1_q15_0_all"  />
<polygon points="448,35 453,30 526,30 526,40 453,40 448,35 " style="fill:#8dd815; stroke-width:1; stroke:black; " description="&lt;b&gt;ctg48_17&lt;/b&gt;&lt;br&gt;ctg48 17&lt;br&gt;Location: 18022 - 25219" locus_tag="ctg48_17" class="clusterblast-orf" id="dummy-1_q16_0_all"  />
</g>
<g label="NZ_CP018627" description="NZ_CP018627_c3: Streptomyces hygroscopicus strain XM201, complete genome (12% of genes show similarity), nrps-arylpolyene-ladderane" class="clusterblast-cluster"  >
<text x="5" y="70" class="clusterblast-acc"  >
<a xlink:href="https://antismash-db.secondarymetabolites.org/go/NZ_CP018627/3" target="_blank">NZ_CP018627_c3</a>: Streptomyces hygroscopicus strain XM201, complete genome (12% of genes show similarity), nrps-arylpolyene-ladderane</text>
<line x1="10" y1="85" x2="778.0" y2="85" style="stroke-width:1; stroke:grey; "  />
</g>
<g id="a1_000"  >
<polygon points="0,90 4,85 0,80 0,90 " style="fill:white; stroke-width:1; stroke:black; " description="&lt;b&gt;SHXM_RS02310&lt;/b&gt;&lt;br&gt;hypothetical protein&lt;br&gt;Location: 506187 - 505813" locus_tag="SHXM_RS02310" class="clusterblast-orf" id="dummy-1_h1_3_0"  />
</g>
<g id="a1_001"  >
<polygon points="4,85 9,80 12,80 12,90 9,90 4,85 " style="fill:white; stroke-width:1; stroke:black; " description="&lt;b&gt;SHXM_RS02305&lt;/b&gt;&lt;br&gt;SDR family NAD(P)-dependent oxidoreductase&lt;br&gt;Location: 505764 - 504997" locus_tag="SHXM_RS02305" class="clusterblast-orf" id="dummy-1_h1_3_1"  />
</g>
<g id="a1_002"  >
<polygon points="12,90 14,85 12,80 12,90 " style="fill:white; stroke-width:1; stroke:black; " description="&lt;b&gt;SHXM_RS02300&lt;/b&gt;&lt;br&gt;TetR family transcriptional regulator&lt;br&gt;Location: 505061 - 504873" locus_tag="SHXM_RS02300" class="clusterblast-orf" id="dummy-1_h1_3_2"  />
</g>
<g id="a1_003"  >
<polygon points="17,90 20,85 17,80 17,90 " style="fill:white; stroke-width:1; stroke:black; " description="&lt;b&gt;SHXM_RS02295&lt;/b&gt;&lt;br&gt;hypothetical protein&lt;br&gt;Location: 504583 - 504245" locus_tag="SHXM_RS02295" class="clusterblast-orf" id="dummy-1_h1_3_3"  />
</g>
<g id="a1_004"  >
<polygon points="26,90 28,90 33,85 28,80 26,80 26,90 " style="fill:white; stroke-width:1; stroke:black; " description="&lt;b&gt;SHXM_RS02290&lt;/b&gt;&lt;br&gt;GDSL family lipase&lt;br&gt;Location: 503782 - 503114" locus_tag="SHXM_RS02290" class="clusterblast-orf" id="dummy-1_h1_3_4"  />
</g>
<g id="a1_005"  >
<polygon points="34,90 37,85 34,80 34,90 " style="fill:white; stroke-width:1; stroke:black; " description="&lt;b&gt;SHXM_RS02285&lt;/b&gt;&lt;br&gt;transposase&lt;br&gt;Location: 503017 - 502730" locus_tag="SHXM_RS02285" class="clusterblast-orf" id="dummy-1_h1_3_5"  />
</g>
<g id="a1_006"  >
<polygon points="38,85 42,80 42,90 38,85 " style="fill:white; stroke-width:1; stroke:black; " description="&lt;b&gt;SHXM_RS02280&lt;/b&gt;&lt;br&gt;hypothetical protein&lt;br&gt;Location: 502632 - 502219" locus_tag="SHXM_RS02280" class="clusterblast-orf" id="dummy-1_h1_3_6"  />
</g>
<g id="a1_007"  >
<polygon points="43,85 48,80 58,80 58,90 48,90 43,85 " style="fill:white; stroke-width:1; stroke:black; " description="&lt;b&gt;SHXM_RS02275&lt;/b&gt;&lt;br&gt;MFS transporter&lt;br&gt;Location: 502206 - 500818" locus_tag="SHXM_RS02275" class="clusterblast-orf" id="dummy-1_h1_3_7"  />
</g>
<g id="a1_008"  >
<polygon points="56,85 61,80 64,80 64,90 61,90 56,85 " style="fill:white; stroke-width:1; stroke:black; " description="&lt;b&gt;SHXM_RS02270&lt;/b&gt;&lt;br&gt;cupin domain-containing protein&lt;br&gt;Location: 500941 - 500231" locus_tag="SHXM_RS02270" class="clusterblast-orf" id="dummy-1_h1_3_8"  />
</g>
<g id="a1_009"  >
<polygon points="61,85 66,80 81,80 81,90 66,90 61,85 " style="fill:white; stroke-width:1; stroke:black; " description="&lt;b&gt;SHXM_RS02265&lt;/b&gt;&lt;br&gt;hypothetical protein&lt;br&gt;Location: 500505 - 498673" locus_tag="SHXM_RS02265" class="clusterblast-orf" id="dummy-1_h1_3_9"  />
</g>
<g id="a1_0010"  >
<polygon points="81,85 86,80 90,80 90,90 86,90 81,85 " style="fill:white; stroke-width:1; stroke:black; " description="&lt;b&gt;SHXM_RS02260&lt;/b&gt;&lt;br&gt;N-acyl homoserine lactonase family protein&lt;br&gt;Location: 498646 - 497792" locus_tag="SHXM_RS02260" class="clusterblast-orf" id="dummy-1_h1_3_10"  />
</g>
<g id="a1_0011"  >
<polygon points="90,85 95,80 105,80 105,90 95,90 90,85 " style="fill:white; stroke-width:1; stroke:black; " description="&lt;b&gt;SHXM_RS02255&lt;/b&gt;&lt;br&gt;lysine 2,3-aminomutase&lt;br&gt;Location: 497795 - 496458" locus_tag="SHXM_RS02255" class="clusterblast-orf" id="dummy-1_h1_3_11"  />
</g>
<g id="a1_0012"  >
<polygon points="107,85 110,80 110,90 107,85 " style="fill:white; stroke-width:1; stroke:black; " description="&lt;b&gt;SHXM_RS02250&lt;/b&gt;&lt;br&gt;aminotransferase&lt;br&gt;Location: 496214 - 496011" locus_tag="SHXM_RS02250" class="clusterblast-orf" id="dummy-1_h1_3_12"  />
</g>
<g id="a1_0013"  >
<polygon points="110,85 115,80 122,80 122,90 115,90 110,85 " style="fill:white; stroke-width:1; stroke:black; " description="&lt;b&gt;SHXM_RS02245&lt;/b&gt;&lt;br&gt;LuxR family transcriptional regulator&lt;br&gt;Location: 495940 - 494882" locus_tag="SHXM_RS02245" class="clusterblast-orf" id="dummy-1_h1_3_13"  />
</g>
<g id="a1_0014"  >
<polygon points="124,90 125,85 124,80 124,90 " style="fill:white; stroke-width:1; stroke:black; " description="&lt;b&gt;SHXM_RS02240&lt;/b&gt;&lt;br&gt;GNAT family N-acetyltransferase&lt;br&gt;Location: 494676 - 494569" locus_tag="SHXM_RS02240" class="clusterblast-orf" id="dummy-1_h1_3_14"  />
</g>
<g id="a1_0015"  >
<polygon points="128,85 132,80 132,90 128,85 " style="fill:white; stroke-width:1; stroke:black; " description="&lt;b&gt;SHXM_RS02235&lt;/b&gt;&lt;br&gt;hypothetical protein&lt;br&gt;Location: 494318 - 493919" locus_tag="SHXM_RS02235" class="clusterblast-orf" id="dummy-1_h1_3_15"  />
</g>
<g id="a1_0016"  >
<polygon points="135,85 140,80 144,80 144,90 140,90 135,85 " style="fill:white; stroke-width:1; stroke:black; " description="&lt;b&gt;SHXM_RS02230&lt;/b&gt;&lt;br&gt;SAM-dependent methyltransferase&lt;br&gt;Location: 493698 - 492790" locus_tag="SHXM_RS02230" class="clusterblast-orf" id="dummy-1_h1_3_16"  />
</g>
<g id="a1_0017"  >
<polygon points="145,85 150,80 157,80 157,90 150,90 145,85 " style="fill:white; stroke-width:1; stroke:black; " description="&lt;b&gt;SHXM_RS02225&lt;/b&gt;&lt;br&gt;NAD(P)-dependent alcohol dehydrogenase&lt;br&gt;Location: 492688 - 491579" locus_tag="SHXM_RS02225" class="clusterblast-orf" id="dummy-1_h1_3_17"  />
</g>
<g id="a1_0018"  >
<polygon points="157,85 162,80 173,80 173,90 162,90 157,85 " style="fill:white; stroke-width:1; stroke:black; " description="&lt;b&gt;SHXM_RS02220&lt;/b&gt;&lt;br&gt;aldehyde dehydrogenase&lt;br&gt;Location: 491582 - 490179" locus_tag="SHXM_RS02220" class="clusterblast-orf" id="dummy-1_h1_3_18"  />
</g>
<g id="a1_0019"  >
<polygon points="173,85 178,80 181,80 181,90 178,90 173,85 " style="fill:white; stroke-width:1; stroke:black; " description="&lt;b&gt;SHXM_RS02215&lt;/b&gt;&lt;br&gt;(5-formylfuran-3-yl)methyl phosphate synthase&lt;br&gt;Location: 490170 - 489394" locus_tag="SHXM_RS02215" class="clusterblast-orf" id="dummy-1_h1_3_19"  />
</g>
<g id="a1_0020"  >
<polygon points="189,90 195,90 200,85 195,80 189,80 189,90 " style="fill:#d815c9; stroke-width:1; stroke:black; " description="&lt;b&gt;SHXM_RS02210&lt;/b&gt;&lt;br&gt;DUF4162 domain-containing protein&lt;br&gt;Location: 488651 - 487659&lt;br&gt;&lt;br&gt;&lt;b&gt;BlastP hit with ctg48_11&lt;/b&gt;&lt;br&gt;Percentage identity: 56&lt;br&gt;Percentage coverage: 81&lt;br&gt;BLAST bit score: 332&lt;br&gt;E-value: 7.8e-89" locus_tag="SHXM_RS02210" class="clusterblast-orf" id="dummy-1_h1_3_20"  />
</g>
<g id="a1_0021"  >
<polygon points="200,90 203,90 208,85 203,80 200,80 200,90 " style="fill:#1551d8; stroke-width:1; stroke:black; " description="&lt;b&gt;SHXM_RS02205&lt;/b&gt;&lt;br&gt;ABC transporter permease&lt;br&gt;Location: 487646 - 486858&lt;br&gt;&lt;br&gt;&lt;b&gt;BlastP hit with ctg48_10&lt;/b&gt;&lt;br&gt;Percentage identity: 38&lt;br&gt;Percentage coverage: 92&lt;br&gt;BLAST bit score: 171&lt;br&gt;E-value: 1.3e-40" locus_tag="SHXM_RS02205" class="clusterblast-orf" id="dummy-1_h1_3_21"  />
</g>
<g id="a1_0022"  >
<polygon points="211,90 306,90 311,85 306,80 211,80 211,90 " style="fill:white; stroke-width:1; stroke:black; " description="&lt;b&gt;SHXM_RS02200&lt;/b&gt;&lt;br&gt;amino acid adenylation domain-containing protein&lt;br&gt;Location: 486583 - 477377" locus_tag="SHXM_RS02200" class="clusterblast-orf" id="dummy-1_h1_3_22"  />
</g>
<g id="a1_0023"  >
<polygon points="309,90 468,90 473,85 468,80 309,80 309,90 " style="fill:#8dd815; stroke-width:1; stroke:black; " description="&lt;b&gt;SHXM_RS02195&lt;/b&gt;&lt;br&gt;non-ribosomal peptide synthetase&lt;br&gt;Location: 477593 - 462375&lt;br&gt;&lt;br&gt;&lt;b&gt;BlastP hit with ctg48_17&lt;/b&gt;&lt;br&gt;Percentage identity: 49&lt;br&gt;Percentage coverage: 104&lt;br&gt;BLAST bit score: 2104&lt;br&gt;E-value: 0.0" locus_tag="SHXM_RS02195" class="clusterblast-orf" id="dummy-1_h1_3_23"  />
</g>
<g id="a1_0024"  >
<polygon points="474,90 476,85 474,80 474,90 " style="fill:white; stroke-width:1; stroke:black; " description="&lt;b&gt;SHXM_RS02190&lt;/b&gt;&lt;br&gt;MbtH family protein&lt;br&gt;Location: 462329 - 462111" locus_tag="SHXM_RS02190" class="clusterblast-orf" id="dummy-1_h1_3_24"  />
</g>
<g id="a1_0025"  >
<polygon points="477,90 480,85 477,80 477,90 " style="fill:white; stroke-width:1; stroke:black; " description="&lt;b&gt;SHXM_RS02185&lt;/b&gt;&lt;br&gt;acyl carrier protein&lt;br&gt;Location: 462041 - 461784" locus_tag="SHXM_RS02185" class="clusterblast-orf" id="dummy-1_h1_3_25"  />
</g>
<g id="a1_0026"  >
<polygon points="480,90 481,90 486,85 481,80 480,80 480,90 " style="fill:white; stroke-width:1; stroke:black; " description="&lt;b&gt;SHXM_RS02180&lt;/b&gt;&lt;br&gt;DUF3995 domain-containing protein&lt;br&gt;Location: 461729 - 461202" locus_tag="SHXM_RS02180" class="clusterblast-orf" id="dummy-1_h1_3_26"  />
</g>
<g id="a1_0027"  >
<polygon points="486,90 492,90 497,85 492,80 486,80 486,90 " style="fill:white; stroke-width:1; stroke:black; " description="&lt;b&gt;SHXM_RS02175&lt;/b&gt;&lt;br&gt;2,3-diaminopropionate biosynthesis protein SbnA&lt;br&gt;Location: 461202 - 460198" locus_tag="SHXM_RS02175" class="clusterblast-orf" id="dummy-1_h1_3_27"  />
</g>
<g id="a1_0028"  >
<polygon points="497,90 503,90 508,85 503,80 497,80 497,90 " style="fill:white; stroke-width:1; stroke:black; " description="&lt;b&gt;SHXM_RS02170&lt;/b&gt;&lt;br&gt;2,3-diaminopropionate biosynthesis protein SbnB&lt;br&gt;Location: 460196 - 459189" locus_tag="SHXM_RS02170" class="clusterblast-orf" id="dummy-1_h1_3_28"  />
</g>
<g id="a1_0029"  >
<polygon points="508,90 511,90 516,85 511,80 508,80 508,90 " style="fill:white; stroke-width:1; stroke:black; " description="&lt;b&gt;SHXM_RS02165&lt;/b&gt;&lt;br&gt;3-oxoacyl-[acyl-carrier-protein] reductase&lt;br&gt;Location: 459111 - 458371" locus_tag="SHXM_RS02165" class="clusterblast-orf" id="dummy-1_h1_3_29"  />
</g>
<g id="a1_0030"  >
<polygon points="516,90 516,90 521,85 516,80 516,80 516,90 " style="fill:white; stroke-width:1; stroke:black; " description="&lt;b&gt;SHXM_RS02160&lt;/b&gt;&lt;br&gt;hypothetical protein&lt;br&gt;Location: 458374 - 457940" locus_tag="SHXM_RS02160" class="clusterblast-orf" id="dummy-1_h1_3_30"  />
</g>
<g id="a1_0031"  >
<polygon points="521,90 521,90 526,85 521,80 521,80 521,90 " style="fill:white; stroke-width:1; stroke:black; " description="&lt;b&gt;SHXM_RS02155&lt;/b&gt;&lt;br&gt;hypothetical protein&lt;br&gt;Location: 457953 - 457471" locus_tag="SHXM_RS02155" class="clusterblast-orf" id="dummy-1_h1_3_31"  />
</g>
<g id="a1_0032"  >
<polygon points="527,90 530,85 527,80 527,90 " style="fill:white; stroke-width:1; stroke:black; " description="&lt;b&gt;SHXM_RS02150&lt;/b&gt;&lt;br&gt;acyl carrier protein&lt;br&gt;Location: 457392 - 457135" locus_tag="SHXM_RS02150" class="clusterblast-orf" id="dummy-1_h1_3_32"  />
</g>
<g id="a1_0033"  >
<polygon points="530,90 538,90 543,85 538,80 530,80 530,90 " style="fill:white; stroke-width:1; stroke:black; " description="&lt;b&gt;SHXM_RS02145&lt;/b&gt;&lt;br&gt;beta-ketoacyl-[acyl-carrier-protein] synthase family protein&lt;br&gt;Location: 457128 - 455920" locus_tag="SHXM_RS02145" class="clusterblast-orf" id="dummy-1_h1_3_33"  />
</g>
<g id="a1_0034"  >
<polygon points="543,90 551,90 556,85 551,80 543,80 543,90 " style="fill:white; stroke-width:1; stroke:black; " description="&lt;b&gt;SHXM_RS02140&lt;/b&gt;&lt;br&gt;hypothetical protein&lt;br&gt;Location: 455923 - 454745" locus_tag="SHXM_RS02140" class="clusterblast-orf" id="dummy-1_h1_3_34"  />
</g>
<g id="a1_0035"  >
<polygon points="555,90 563,90 568,85 563,80 555,80 555,90 " style="fill:white; stroke-width:1; stroke:black; " description="&lt;b&gt;SHXM_RS02135&lt;/b&gt;&lt;br&gt;hypothetical protein&lt;br&gt;Location: 454770 - 453634" locus_tag="SHXM_RS02135" class="clusterblast-orf" id="dummy-1_h1_3_35"  />
</g>
<g id="a1_0036"  >
<polygon points="568,90 573,90 578,85 573,80 568,80 568,90 " style="fill:white; stroke-width:1; stroke:black; " description="&lt;b&gt;SHXM_RS02130&lt;/b&gt;&lt;br&gt;beta-ketoacyl synthase&lt;br&gt;Location: 453637 - 452660" locus_tag="SHXM_RS02130" class="clusterblast-orf" id="dummy-1_h1_3_36"  />
</g>
<g id="a1_0037"  >
<polygon points="578,90 583,90 588,85 583,80 578,80 578,90 " style="fill:white; stroke-width:1; stroke:black; " description="&lt;b&gt;SHXM_RS02125&lt;/b&gt;&lt;br&gt;alpha/beta hydrolase&lt;br&gt;Location: 452658 - 451759" locus_tag="SHXM_RS02125" class="clusterblast-orf" id="dummy-1_h1_3_37"  />
</g>
<g id="a1_0038"  >
<polygon points="588,90 593,90 598,85 593,80 588,80 588,90 " style="fill:white; stroke-width:1; stroke:black; " description="&lt;b&gt;SHXM_RS02120&lt;/b&gt;&lt;br&gt;hypothetical protein&lt;br&gt;Location: 451756 - 450803" locus_tag="SHXM_RS02120" class="clusterblast-orf" id="dummy-1_h1_3_38"  />
</g>
<g id="a1_0039"  >
<polygon points="598,90 601,90 606,85 601,80 598,80 598,90 " style="fill:white; stroke-width:1; stroke:black; " description="&lt;b&gt;SHXM_RS02115&lt;/b&gt;&lt;br&gt;disulfide bond formation protein DsbA&lt;br&gt;Location: 450806 - 450075" locus_tag="SHXM_RS02115" class="clusterblast-orf" id="dummy-1_h1_3_39"  />
</g>
<g id="a1_0040"  >
<polygon points="606,90 606,90 611,85 606,80 606,80 606,90 " style="fill:white; stroke-width:1; stroke:black; " description="&lt;b&gt;SHXM_RS02110&lt;/b&gt;&lt;br&gt;hypothetical protein&lt;br&gt;Location: 450058 - 449582" locus_tag="SHXM_RS02110" class="clusterblast-orf" id="dummy-1_h1_3_40"  />
</g>
<g id="a1_0041"  >
<polygon points="611,90 621,90 626,85 621,80 611,80 611,90 " style="fill:white; stroke-width:1; stroke:black; " description="&lt;b&gt;SHXM_RS02105&lt;/b&gt;&lt;br&gt;methylaspartate mutase&lt;br&gt;Location: 449585 - 448254" locus_tag="SHXM_RS02105" class="clusterblast-orf" id="dummy-1_h1_3_41"  />
</g>
<g id="a1_0042"  >
<polygon points="625,90 627,90 632,85 627,80 625,80 625,90 " style="fill:white; stroke-width:1; stroke:black; " description="&lt;b&gt;SHXM_RS02100&lt;/b&gt;&lt;br&gt;hypothetical protein&lt;br&gt;Location: 448300 - 447728" locus_tag="SHXM_RS02100" class="clusterblast-orf" id="dummy-1_h1_3_42"  />
</g>
<g id="a1_0043"  >
<polygon points="633,85 638,80 664,80 664,90 638,90 633,85 " style="fill:white; stroke-width:1; stroke:black; " description="&lt;b&gt;SHXM_RS02095&lt;/b&gt;&lt;br&gt;glycoside hydrolase&lt;br&gt;Location: 447636 - 444709" locus_tag="SHXM_RS02095" class="clusterblast-orf" id="dummy-1_h1_3_43"  />
</g>
<g id="a1_0044"  >
<polygon points="666,85 671,80 678,80 678,90 671,90 666,85 " style="fill:white; stroke-width:1; stroke:black; " description="&lt;b&gt;SHXM_RS02090&lt;/b&gt;&lt;br&gt;esterase&lt;br&gt;Location: 444553 - 443414" locus_tag="SHXM_RS02090" class="clusterblast-orf" id="dummy-1_h1_3_44"  />
</g>
<g id="a1_0045"  >
<polygon points="678,85 683,80 687,80 687,90 683,90 678,85 " style="fill:white; stroke-width:1; stroke:black; " description="&lt;b&gt;SHXM_RS02085&lt;/b&gt;&lt;br&gt;IclR family transcriptional regulator&lt;br&gt;Location: 443417 - 442584" locus_tag="SHXM_RS02085" class="clusterblast-orf" id="dummy-1_h1_3_45"  />
</g>
<g id="a1_0046"  >
<polygon points="688,85 692,80 692,90 688,85 " style="fill:white; stroke-width:1; stroke:black; " description="&lt;b&gt;SHXM_RS02080&lt;/b&gt;&lt;br&gt;reactive intermediate/imine deaminase&lt;br&gt;Location: 442532 - 442122" locus_tag="SHXM_RS02080" class="clusterblast-orf" id="dummy-1_h1_3_46"  />
</g>
<g id="a1_0047"  >
<polygon points="692,85 697,80 704,80 704,90 697,90 692,85 " style="fill:white; stroke-width:1; stroke:black; " description="&lt;b&gt;SHXM_RS02075&lt;/b&gt;&lt;br&gt;isomerase&lt;br&gt;Location: 442125 - 440998" locus_tag="SHXM_RS02075" class="clusterblast-orf" id="dummy-1_h1_3_47"  />
</g>
<g id="a1_0048"  >
<polygon points="704,85 709,80 713,80 713,90 709,90 704,85 " style="fill:white; stroke-width:1; stroke:black; " description="&lt;b&gt;SHXM_RS02070&lt;/b&gt;&lt;br&gt;creatininase family protein&lt;br&gt;Location: 440983 - 440213" locus_tag="SHXM_RS02070" class="clusterblast-orf" id="dummy-1_h1_3_48"  />
</g>
<g id="a1_0049"  >
<polygon points="713,90 719,90 724,85 719,80 713,80 713,90 " style="fill:white; stroke-width:1; stroke:black; " description="&lt;b&gt;SHXM_RS02065&lt;/b&gt;&lt;br&gt;hypothetical protein&lt;br&gt;Location: 440171 - 439212" locus_tag="SHXM_RS02065" class="clusterblast-orf" id="dummy-1_h1_3_49"  />
</g>
<g id="a1_0050"  >
<polygon points="724,85 729,80 733,80 733,90 729,90 724,85 " style="fill:#d81515; stroke-width:1; stroke:black; " description="&lt;b&gt;SHXM_RS02060&lt;/b&gt;&lt;br&gt;ABC transporter ATP-binding protein&lt;br&gt;Location: 439200 - 438328&lt;br&gt;&lt;br&gt;&lt;b&gt;BlastP hit with ctg48_1&lt;/b&gt;&lt;br&gt;Percentage identity: 35&lt;br&gt;Percentage coverage: 100&lt;br&gt;BLAST bit score: 83&lt;br&gt;E-value: 3.1e-14" locus_tag="SHXM_RS02060" class="clusterblast-orf" id="dummy-1_h1_3_50"  />
</g>
<g id="a1_0051"  >
<polygon points="733,85 738,80 742,80 742,90 738,90 733,85 " style="fill:#d81515; stroke-width:1; stroke:black; " description="&lt;b&gt;SHXM_RS02055&lt;/b&gt;&lt;br&gt;ABC transporter ATP-binding protein&lt;br&gt;Location: 438331 - 437486&lt;br&gt;&lt;br&gt;&lt;b&gt;BlastP hit with ctg48_1&lt;/b&gt;&lt;br&gt;Percentage identity: 43&lt;br&gt;Percentage coverage: 80&lt;br&gt;BLAST bit score: 103&lt;br&gt;E-value: 3.8e-20" locus_tag="SHXM_RS02055" class="clusterblast-orf" id="dummy-1_h1_3_51"  />
</g>
<g id="a1_0052"  >
<polygon points="742,85 747,80 752,80 752,90 747,90 742,85 " style="fill:#d81515; stroke-width:1; stroke:black; " description="&lt;b&gt;SHXM_RS02050&lt;/b&gt;&lt;br&gt;ABC transporter permease&lt;br&gt;Location: 437489 - 436575&lt;br&gt;&lt;br&gt;&lt;b&gt;BlastP hit with ctg48_2&lt;/b&gt;&lt;br&gt;Percentage identity: 38&lt;br&gt;Percentage coverage: 82&lt;br&gt;BLAST bit score: 147&lt;br&gt;E-value: 2.1e-33" locus_tag="SHXM_RS02050" class="clusterblast-orf" id="dummy-1_h1_3_52"  />
</g>
<g id="a1_0053"  >
<polygon points="752,85 757,80 763,80 763,90 757,90 752,85 " style="fill:#33d815; stroke-width:1; stroke:black; " description="&lt;b&gt;SHXM_RS02045&lt;/b&gt;&lt;br&gt;ABC transporter permease&lt;br&gt;Location: 436578 - 435586&lt;br&gt;&lt;br&gt;&lt;b&gt;BlastP hit with ctg48_3&lt;/b&gt;&lt;br&gt;Percentage identity: 35&lt;br&gt;Percentage coverage: 95&lt;br&gt;BLAST bit score: 146&lt;br&gt;E-value: 5.7e-33" locus_tag="SHXM_RS02045" class="clusterblast-orf" id="dummy-1_h1_3_53"  />
</g>
<g id="a1_0054"  >
<polygon points="763,85 768,80 780,80 780,90 768,90 763,85 " style="fill:white; stroke-width:1; stroke:black; " description="&lt;b&gt;SHXM_RS02040&lt;/b&gt;&lt;br&gt;ABC transporter substrate-binding protein&lt;br&gt;Location: 435586 - 434039" locus_tag="SHXM_RS02040" class="clusterblast-orf" id="dummy-1_h1_3_54"  />
</g>
</svg>
