<svg xmlns="http://www.w3.org/2000/svg" xmlns:xlink="http://www.w3.org/1999/xlink" version="1.1" x="0" y="0" height="230" width="800" viewBox="0 0 800 230" preserveAspectRatio="none"  >
<g label="Query sequence" class="clusterblast-cluster"  >
<text x="5" y="20" class="clusterblast-acc"  >
Query sequence</text>
<line x1="10" y1="35" x2="778.0" y2="35" style="stroke-width:1; stroke:grey; "  />
<polygon points="46,40 67,40 72,35 67,30 46,30 46,40 " style="fill:#d81515; stroke-width:1; stroke:black; " description="&lt;b&gt;ctg39_1&lt;/b&gt;&lt;br&gt;ctg39 1&lt;br&gt;Location: 2 - 641" locus_tag="ctg39_1" class="clusterblast-orf" id="dummy-1_q0_0_all"  />
<polygon points="72,40 76,40 81,35 76,30 72,30 72,40 " style="fill:#77d815; stroke-width:1; stroke:black; " description="&lt;b&gt;ctg39_2&lt;/b&gt;&lt;br&gt;ctg39 2&lt;br&gt;Location: 664 - 877" locus_tag="ctg39_2" class="clusterblast-orf" id="dummy-1_q1_0_all"  />
<polygon points="83,35 88,30 116,30 116,40 88,40 83,35 " style="fill:#15d8d8; stroke-width:1; stroke:black; " description="&lt;b&gt;ctg39_3&lt;/b&gt;&lt;br&gt;ctg39 3&lt;br&gt;Location: 917 - 1754" locus_tag="ctg39_3" class="clusterblast-orf" id="dummy-1_q2_0_all"  />
<polygon points="116,35 121,30 157,30 157,40 121,40 116,35 " style="fill:#7715d8; stroke-width:1; stroke:black; " description="&lt;b&gt;ctg39_4&lt;/b&gt;&lt;br&gt;ctg39 4&lt;br&gt;Location: 1750 - 2785" locus_tag="ctg39_4" class="clusterblast-orf" id="dummy-1_q3_0_all"  />
<polygon points="159,35 164,30 193,30 193,40 164,40 159,35 " style="fill:#d85e15; stroke-width:1; stroke:black; " description="&lt;b&gt;ctg39_5&lt;/b&gt;&lt;br&gt;ctg39 5&lt;br&gt;Location: 2836 - 3700" locus_tag="ctg39_5" class="clusterblast-orf" id="dummy-1_q4_0_all"  />
<polygon points="202,40 237,40 242,35 237,30 202,30 202,40 " style="fill:#2ed815; stroke-width:1; stroke:black; " description="&lt;b&gt;ctg39_6&lt;/b&gt;&lt;br&gt;ctg39 6&lt;br&gt;Location: 3933 - 4938" locus_tag="ctg39_6" class="clusterblast-orf" id="dummy-1_q5_0_all"  />
<polygon points="249,40 279,40 284,35 279,30 249,30 249,40 " style="fill:#158fd8; stroke-width:1; stroke:black; " description="&lt;b&gt;ctg39_7&lt;/b&gt;&lt;br&gt;ctg39 7&lt;br&gt;Location: 5099 - 5999" locus_tag="ctg39_7" class="clusterblast-orf" id="dummy-1_q6_0_all"  />
<polygon points="287,40 305,40 310,35 305,30 287,30 287,40 " style="fill:#c015d8; stroke-width:1; stroke:black; " description="&lt;b&gt;ctg39_8&lt;/b&gt;&lt;br&gt;ctg39 8&lt;br&gt;Location: 6054 - 6639" locus_tag="ctg39_8" class="clusterblast-orf" id="dummy-1_q7_0_all"  />
<polygon points="312,35 316,30 316,40 312,35 " style="fill:white; stroke-width:1; stroke:black; " description="&lt;b&gt;ctg39_9&lt;/b&gt;&lt;br&gt;ctg39 9&lt;br&gt;Location: 6695 - 6806" locus_tag="ctg39_9" class="clusterblast-orf" id="dummy-1_q8_0_all"  />
<polygon points="317,40 355,40 360,35 355,30 317,30 317,40 " style="fill:#d8a715; stroke-width:1; stroke:black; " description="&lt;b&gt;ctg39_10&lt;/b&gt;&lt;br&gt;ctg39 10&lt;br&gt;Location: 6815 - 7913" locus_tag="ctg39_10" class="clusterblast-orf" id="dummy-1_q9_0_all"  />
<polygon points="359,35 364,30 421,30 421,40 364,40 359,35 " style="fill:#15d846; stroke-width:1; stroke:black; " description="&lt;b&gt;ctg39_11&lt;/b&gt;&lt;br&gt;ctg39 11&lt;br&gt;Location: 7866 - 9432" locus_tag="ctg39_11" class="clusterblast-orf" id="dummy-1_q10_0_all"  />
<polygon points="421,35 426,30 446,30 446,40 426,40 421,35 " style="fill:#1546d8; stroke-width:1; stroke:black; " description="&lt;b&gt;ctg39_12&lt;/b&gt;&lt;br&gt;ctg39 12&lt;br&gt;Location: 9428 - 10058" locus_tag="ctg39_12" class="clusterblast-orf" id="dummy-1_q11_0_all"  />
<polygon points="445,35 450,30 461,30 461,40 450,40 445,35 " style="fill:#d815a7; stroke-width:1; stroke:black; " description="&lt;b&gt;ctg39_13&lt;/b&gt;&lt;br&gt;ctg39 13&lt;br&gt;Location: 10038 - 10437" locus_tag="ctg39_13" class="clusterblast-orf" id="dummy-1_q12_0_all"  />
<polygon points="460,35 465,30 477,30 477,40 465,40 460,35 " style="fill:#c0d815; stroke-width:1; stroke:black; " description="&lt;b&gt;ctg39_14&lt;/b&gt;&lt;br&gt;ctg39 14&lt;br&gt;Location: 10433 - 10844" locus_tag="ctg39_14" class="clusterblast-orf" id="dummy-1_q13_0_all"  />
<polygon points="478,35 483,30 536,30 536,40 483,40 478,35 " style="fill:#15d88f; stroke-width:1; stroke:black; " description="&lt;b&gt;ctg39_15&lt;/b&gt;&lt;br&gt;ctg39 15&lt;br&gt;Location: 10868 - 12326" locus_tag="ctg39_15" class="clusterblast-orf" id="dummy-1_q14_0_all"  />
<polygon points="543,35 548,30 550,30 550,40 548,40 543,35 " style="fill:white; stroke-width:1; stroke:black; " description="&lt;b&gt;ctg39_16&lt;/b&gt;&lt;br&gt;ctg39 16&lt;br&gt;Location: 12510 - 12690" locus_tag="ctg39_16" class="clusterblast-orf" id="dummy-1_q15_0_all"  />
<polygon points="560,40 608,40 613,35 608,30 560,30 560,40 " style="fill:#2e15d8; stroke-width:1; stroke:black; " description="&lt;b&gt;ctg39_17&lt;/b&gt;&lt;br&gt;ctg39 17&lt;br&gt;Location: 12934 - 14275" locus_tag="ctg39_17" class="clusterblast-orf" id="dummy-1_q16_0_all"  />
<polygon points="613,40 729,40 734,35 729,30 613,30 613,40 " style="fill:#d8155e; stroke-width:1; stroke:black; " description="&lt;b&gt;ctg39_18&lt;/b&gt;&lt;br&gt;ctg39 18&lt;br&gt;Location: 14271 - 17310" locus_tag="ctg39_18" class="clusterblast-orf" id="dummy-1_q17_0_all"  />
</g>
<g label="NZ_CP011533" description="NZ_CP011533_c5: Streptomyces noursei ATCC 11455, complete genome (37% of genes show similarity), terpene" class="clusterblast-cluster"  >
<text x="5" y="70" class="clusterblast-acc"  >
<a xlink:href="https://antismash-db.secondarymetabolites.org/go/NZ_CP011533/5" target="_blank">NZ_CP011533_c5</a>: Streptomyces noursei ATCC 11455, complete genome (37% of genes show similarity), terpene</text>
<line x1="10" y1="85" x2="778.0" y2="85" style="stroke-width:1; stroke:grey; "  />
</g>
<g id="a1_000"  >
<polygon points="0,85 5,80 30,80 30,90 5,90 0,85 " style="fill:white; stroke-width:1; stroke:black; " description="&lt;b&gt;SNOUR_RS02995&lt;/b&gt;&lt;br&gt;hypothetical protein&lt;br&gt;Location: 688481 - 689257" locus_tag="SNOUR_RS02995" class="clusterblast-orf" id="dummy-1_h1_9_0"  />
</g>
<g id="a1_001"  >
<polygon points="48,90 88,90 93,85 88,80 48,80 48,90 " style="fill:white; stroke-width:1; stroke:black; " description="&lt;b&gt;SNOUR_RS03000&lt;/b&gt;&lt;br&gt;serine/threonine-protein phosphatase&lt;br&gt;Location: 689701 - 690843" locus_tag="SNOUR_RS03000" class="clusterblast-orf" id="dummy-1_h1_9_1"  />
</g>
<g id="a1_002"  >
<polygon points="100,90 128,90 133,85 128,80 100,80 100,90 " style="fill:white; stroke-width:1; stroke:black; " description="&lt;b&gt;SNOUR_RS03005&lt;/b&gt;&lt;br&gt;GNAT family N-acetyltransferase&lt;br&gt;Location: 691015 - 691833" locus_tag="SNOUR_RS03005" class="clusterblast-orf" id="dummy-1_h1_9_2"  />
</g>
<g id="a1_003"  >
<polygon points="140,90 175,90 180,85 175,80 140,80 140,90 " style="fill:white; stroke-width:1; stroke:black; " description="&lt;b&gt;SNOUR_RS03010&lt;/b&gt;&lt;br&gt;lipase&lt;br&gt;Location: 692029 - 693018" locus_tag="SNOUR_RS03010" class="clusterblast-orf" id="dummy-1_h1_9_3"  />
</g>
<g id="a1_004"  >
<polygon points="197,90 242,90 247,85 242,80 197,80 197,90 " style="fill:white; stroke-width:1; stroke:black; " description="&lt;b&gt;SNOUR_RS03015&lt;/b&gt;&lt;br&gt;peptidase S8&lt;br&gt;Location: 693456 - 694703" locus_tag="SNOUR_RS03015" class="clusterblast-orf" id="dummy-1_h1_9_4"  />
</g>
<g id="a1_005"  >
<polygon points="254,90 259,90 264,85 259,80 254,80 254,90 " style="fill:white; stroke-width:1; stroke:black; " description="&lt;b&gt;SNOUR_RS03020&lt;/b&gt;&lt;br&gt;hypothetical protein&lt;br&gt;Location: 694900 - 695148" locus_tag="SNOUR_RS03020" class="clusterblast-orf" id="dummy-1_h1_9_5"  />
</g>
<g id="a1_006"  >
<polygon points="266,85 271,80 308,80 308,90 271,90 266,85 " style="fill:white; stroke-width:1; stroke:black; " description="&lt;b&gt;SNOUR_RS03025&lt;/b&gt;&lt;br&gt;surface layer protein&lt;br&gt;Location: 695195 - 696250" locus_tag="SNOUR_RS03025" class="clusterblast-orf" id="dummy-1_h1_9_6"  />
</g>
<g id="a1_007"  >
<polygon points="314,90 345,90 350,85 345,80 314,80 314,90 " style="fill:white; stroke-width:1; stroke:black; " description="&lt;b&gt;SNOUR_RS03030&lt;/b&gt;&lt;br&gt;LysR family transcriptional regulator&lt;br&gt;Location: 696398 - 697309" locus_tag="SNOUR_RS03030" class="clusterblast-orf" id="dummy-1_h1_9_7"  />
</g>
<g id="a1_008"  >
<polygon points="378,90 411,90 416,85 411,80 378,80 378,90 " style="fill:#d8a715; stroke-width:1; stroke:black; " description="&lt;b&gt;SNOUR_RS03035&lt;/b&gt;&lt;br&gt;hypothetical protein&lt;br&gt;Location: 698002 - 698970&lt;br&gt;&lt;br&gt;&lt;b&gt;BlastP hit with ctg39_10&lt;/b&gt;&lt;br&gt;Percentage identity: 32&lt;br&gt;Percentage coverage: 85&lt;br&gt;BLAST bit score: 166&lt;br&gt;E-value: 7.1e-39" locus_tag="SNOUR_RS03035" class="clusterblast-orf" id="dummy-1_h1_9_8"  />
</g>
<g id="a1_009"  >
<polygon points="423,85 428,80 477,80 477,90 428,90 423,85 " style="fill:#15d846; stroke-width:1; stroke:black; " description="&lt;b&gt;SNOUR_RS03040&lt;/b&gt;&lt;br&gt;cytochrome P450&lt;br&gt;Location: 699143 - 700513&lt;br&gt;&lt;br&gt;&lt;b&gt;BlastP hit with ctg39_11&lt;/b&gt;&lt;br&gt;Percentage identity: 49&lt;br&gt;Percentage coverage: 92&lt;br&gt;BLAST bit score: 448&lt;br&gt;E-value: 1.3e-123" locus_tag="SNOUR_RS03040" class="clusterblast-orf" id="dummy-1_h1_9_9"  />
</g>
<g id="a1_0010"  >
<polygon points="481,85 486,80 506,80 506,90 486,90 481,85 " style="fill:#1546d8; stroke-width:1; stroke:black; " description="&lt;b&gt;SNOUR_RS03045&lt;/b&gt;&lt;br&gt;ATP-binding protein&lt;br&gt;Location: 700606 - 701229&lt;br&gt;&lt;br&gt;&lt;b&gt;BlastP hit with ctg39_12&lt;/b&gt;&lt;br&gt;Percentage identity: 70&lt;br&gt;Percentage coverage: 97&lt;br&gt;BLAST bit score: 287&lt;br&gt;E-value: 1.2e-75" locus_tag="SNOUR_RS03045" class="clusterblast-orf" id="dummy-1_h1_9_10"  />
</g>
<g id="a1_0011"  >
<polygon points="505,85 510,80 520,80 520,90 510,90 505,85 " style="fill:#d815a7; stroke-width:1; stroke:black; " description="&lt;b&gt;SNOUR_RS03050&lt;/b&gt;&lt;br&gt;DUF742 domain-containing protein&lt;br&gt;Location: 701210 - 701581&lt;br&gt;&lt;br&gt;&lt;b&gt;BlastP hit with ctg39_13&lt;/b&gt;&lt;br&gt;Percentage identity: 51&lt;br&gt;Percentage coverage: 89&lt;br&gt;BLAST bit score: 108&lt;br&gt;E-value: 6.3e-22" locus_tag="SNOUR_RS03050" class="clusterblast-orf" id="dummy-1_h1_9_11"  />
</g>
<g id="a1_0012"  >
<polygon points="520,85 525,80 535,80 535,90 525,90 520,85 " style="fill:#c0d815; stroke-width:1; stroke:black; " description="&lt;b&gt;SNOUR_RS03055&lt;/b&gt;&lt;br&gt;roadblock/LC7 domain-containing protein&lt;br&gt;Location: 701578 - 701964&lt;br&gt;&lt;br&gt;&lt;b&gt;BlastP hit with ctg39_14&lt;/b&gt;&lt;br&gt;Percentage identity: 55&lt;br&gt;Percentage coverage: 93&lt;br&gt;BLAST bit score: 140&lt;br&gt;E-value: 1.6e-31" locus_tag="SNOUR_RS03055" class="clusterblast-orf" id="dummy-1_h1_9_12"  />
</g>
<g id="a1_0013"  >
<polygon points="537,85 542,80 597,80 597,90 542,90 537,85 " style="fill:#15d88f; stroke-width:1; stroke:black; " description="&lt;b&gt;SNOUR_RS03060&lt;/b&gt;&lt;br&gt;sensor histidine kinase&lt;br&gt;Location: 702015 - 703520&lt;br&gt;&lt;br&gt;&lt;b&gt;BlastP hit with ctg39_15&lt;/b&gt;&lt;br&gt;Percentage identity: 35&lt;br&gt;Percentage coverage: 102&lt;br&gt;BLAST bit score: 231&lt;br&gt;E-value: 2.4e-58" locus_tag="SNOUR_RS03060" class="clusterblast-orf" id="dummy-1_h1_9_13"  />
</g>
<g id="a1_0014"  >
<polygon points="639,85 644,80 685,80 685,90 644,90 639,85 " style="fill:white; stroke-width:1; stroke:black; " description="&lt;b&gt;SNOUR_RS03065&lt;/b&gt;&lt;br&gt;hypothetical protein&lt;br&gt;Location: 704584 - 705741" locus_tag="SNOUR_RS03065" class="clusterblast-orf" id="dummy-1_h1_9_14"  />
</g>
<g id="a1_0015"  >
<polygon points="698,90 775,90 780,85 775,80 698,80 698,90 " style="fill:white; stroke-width:1; stroke:black; " description="&lt;b&gt;SNOUR_RS03070&lt;/b&gt;&lt;br&gt;flavin-binding oxidoreductase&lt;br&gt;Location: 706060 - 708120" locus_tag="SNOUR_RS03070" class="clusterblast-orf" id="dummy-1_h1_9_15"  />
</g>
</svg>
