<svg xmlns="http://www.w3.org/2000/svg" xmlns:xlink="http://www.w3.org/1999/xlink" version="1.1" x="0" y="0" height="230" width="800" viewBox="0 0 800 230" preserveAspectRatio="none"  >
<g label="Query sequence" class="clusterblast-cluster"  >
<text x="5" y="20" class="clusterblast-acc"  >
Query sequence</text>
<line x1="10" y1="35" x2="778.0" y2="35" style="stroke-width:1; stroke:grey; "  />
<polygon points="184,40 188,35 184,30 184,40 " style="fill:white; stroke-width:1; stroke:black; " description="&lt;b&gt;ctg2_1&lt;/b&gt;&lt;br&gt;ctg2 1&lt;br&gt;Location: 2 - 317" locus_tag="ctg2_1" class="clusterblast-orf" id="dummy-1_q0_0_all"  />
<polygon points="189,35 194,30 210,30 210,40 194,40 189,35 " style="fill:#d81515; stroke-width:1; stroke:black; " description="&lt;b&gt;ctg2_2&lt;/b&gt;&lt;br&gt;ctg2 2&lt;br&gt;Location: 345 - 1809" locus_tag="ctg2_2" class="clusterblast-orf" id="dummy-1_q1_0_all"  />
<polygon points="210,35 215,30 275,30 275,40 215,40 210,35 " style="fill:#56d815; stroke-width:1; stroke:black; " description="&lt;b&gt;ctg2_3&lt;/b&gt;&lt;br&gt;ctg2 3&lt;br&gt;Location: 1805 - 6122" locus_tag="ctg2_3" class="clusterblast-orf" id="dummy-1_q2_0_all"  />
<polygon points="275,35 278,30 278,40 275,35 " style="fill:#1597d8; stroke-width:1; stroke:black; " description="&lt;b&gt;ctg2_4&lt;/b&gt;&lt;br&gt;ctg2 4&lt;br&gt;Location: 6114 - 6354" locus_tag="ctg2_4" class="clusterblast-orf" id="dummy-1_q3_0_all"  />
<polygon points="282,35 287,30 306,30 306,40 287,40 282,35 " style="fill:#9715d8; stroke-width:1; stroke:black; " description="&lt;b&gt;ctg2_5&lt;/b&gt;&lt;br&gt;ctg2 5&lt;br&gt;Location: 6627 - 8220" locus_tag="ctg2_5" class="clusterblast-orf" id="dummy-1_q4_0_all"  />
<polygon points="306,35 311,30 314,30 314,40 311,40 306,35 " style="fill:#d85615; stroke-width:1; stroke:black; " description="&lt;b&gt;ctg2_6&lt;/b&gt;&lt;br&gt;ctg2 6&lt;br&gt;Location: 8185 - 8728" locus_tag="ctg2_6" class="clusterblast-orf" id="dummy-1_q5_0_all"  />
<polygon points="314,35 319,30 326,30 326,40 319,40 314,35 " style="fill:#15d815; stroke-width:1; stroke:black; " description="&lt;b&gt;ctg2_7&lt;/b&gt;&lt;br&gt;ctg2 7&lt;br&gt;Location: 8724 - 9585" locus_tag="ctg2_7" class="clusterblast-orf" id="dummy-1_q6_0_all"  />
<polygon points="328,35 331,30 331,40 328,35 " style="fill:#1556d8; stroke-width:1; stroke:black; " description="&lt;b&gt;ctg2_8&lt;/b&gt;&lt;br&gt;ctg2 8&lt;br&gt;Location: 9670 - 9913" locus_tag="ctg2_8" class="clusterblast-orf" id="dummy-1_q7_0_all"  />
<polygon points="331,35 336,30 346,30 346,40 336,40 331,35 " style="fill:#d815d8; stroke-width:1; stroke:black; " description="&lt;b&gt;ctg2_9&lt;/b&gt;&lt;br&gt;ctg2 9&lt;br&gt;Location: 9909 - 10923" locus_tag="ctg2_9" class="clusterblast-orf" id="dummy-1_q8_0_all"  />
<polygon points="348,40 359,40 364,35 359,30 348,30 348,40 " style="fill:#d89715; stroke-width:1; stroke:black; " description="&lt;b&gt;ctg2_10&lt;/b&gt;&lt;br&gt;ctg2 10&lt;br&gt;Location: 11023 - 12100" locus_tag="ctg2_10" class="clusterblast-orf" id="dummy-1_q9_0_all"  />
<polygon points="364,40 374,40 379,35 374,30 364,30 364,40 " style="fill:#15d856; stroke-width:1; stroke:black; " description="&lt;b&gt;ctg2_11&lt;/b&gt;&lt;br&gt;ctg2 11&lt;br&gt;Location: 12077 - 13133" locus_tag="ctg2_11" class="clusterblast-orf" id="dummy-1_q10_0_all"  />
<polygon points="379,40 386,40 391,35 386,30 379,30 379,40 " style="fill:#1515d8; stroke-width:1; stroke:black; " description="&lt;b&gt;ctg2_12&lt;/b&gt;&lt;br&gt;ctg2 12&lt;br&gt;Location: 13129 - 13927" locus_tag="ctg2_12" class="clusterblast-orf" id="dummy-1_q11_0_all"  />
<polygon points="393,35 398,30 414,30 414,40 398,40 393,35 " style="fill:#d81597; stroke-width:1; stroke:black; " description="&lt;b&gt;ctg2_13&lt;/b&gt;&lt;br&gt;ctg2 13&lt;br&gt;Location: 14040 - 15462" locus_tag="ctg2_13" class="clusterblast-orf" id="dummy-1_q12_0_all"  />
<polygon points="418,40 424,40 429,35 424,30 418,30 418,40 " style="fill:#d8d815; stroke-width:1; stroke:black; " description="&lt;b&gt;ctg2_14&lt;/b&gt;&lt;br&gt;ctg2 14&lt;br&gt;Location: 15729 - 16473" locus_tag="ctg2_14" class="clusterblast-orf" id="dummy-1_q13_0_all"  />
<polygon points="431,40 436,40 441,35 436,30 431,30 431,40 " style="fill:#15d897; stroke-width:1; stroke:black; " description="&lt;b&gt;ctg2_15&lt;/b&gt;&lt;br&gt;ctg2 15&lt;br&gt;Location: 16596 - 17250" locus_tag="ctg2_15" class="clusterblast-orf" id="dummy-1_q14_0_all"  />
<polygon points="442,35 447,30 450,30 450,40 447,40 442,35 " style="fill:#5615d8; stroke-width:1; stroke:black; " description="&lt;b&gt;ctg2_16&lt;/b&gt;&lt;br&gt;ctg2 16&lt;br&gt;Location: 17309 - 17846" locus_tag="ctg2_16" class="clusterblast-orf" id="dummy-1_q15_0_all"  />
<polygon points="449,35 454,30 483,30 483,40 454,40 449,35 " style="fill:#d81556; stroke-width:1; stroke:black; " description="&lt;b&gt;ctg2_17&lt;/b&gt;&lt;br&gt;ctg2 17&lt;br&gt;Location: 17842 - 20098" locus_tag="ctg2_17" class="clusterblast-orf" id="dummy-1_q16_0_all"  />
<polygon points="483,35 486,30 486,40 483,35 " style="fill:#97d815; stroke-width:1; stroke:black; " description="&lt;b&gt;ctg2_18&lt;/b&gt;&lt;br&gt;ctg2 18&lt;br&gt;Location: 20094 - 20307" locus_tag="ctg2_18" class="clusterblast-orf" id="dummy-1_q17_0_all"  />
<polygon points="491,35 496,30 530,30 530,40 496,40 491,35 " style="fill:white; stroke-width:1; stroke:black; " description="&lt;b&gt;ctg2_19&lt;/b&gt;&lt;br&gt;ctg2 19&lt;br&gt;Location: 20604 - 23250" locus_tag="ctg2_19" class="clusterblast-orf" id="dummy-1_q18_0_all"  />
<polygon points="532,35 537,30 546,30 546,40 537,40 532,35 " style="fill:#15d8d8; stroke-width:1; stroke:black; " description="&lt;b&gt;ctg2_20&lt;/b&gt;&lt;br&gt;ctg2 20&lt;br&gt;Location: 23381 - 24332" locus_tag="ctg2_20" class="clusterblast-orf" id="dummy-1_q19_0_all"  />
<polygon points="551,40 558,40 563,35 558,30 551,30 551,40 " style="fill:white; stroke-width:1; stroke:black; " description="&lt;b&gt;ctg2_21&lt;/b&gt;&lt;br&gt;ctg2 21&lt;br&gt;Location: 24626 - 25457" locus_tag="ctg2_21" class="clusterblast-orf" id="dummy-1_q20_0_all"  />
<polygon points="569,40 571,40 576,35 571,30 569,30 569,40 " style="fill:white; stroke-width:1; stroke:black; " description="&lt;b&gt;ctg2_22&lt;/b&gt;&lt;br&gt;ctg2 22&lt;br&gt;Location: 25860 - 26349" locus_tag="ctg2_22" class="clusterblast-orf" id="dummy-1_q21_0_all"  />
<polygon points="577,35 582,30 583,30 583,40 582,40 577,35 " style="fill:white; stroke-width:1; stroke:black; " description="&lt;b&gt;ctg2_23&lt;/b&gt;&lt;br&gt;ctg2 23&lt;br&gt;Location: 26373 - 26781" locus_tag="ctg2_23" class="clusterblast-orf" id="dummy-1_q22_0_all"  />
<polygon points="583,35 588,30 596,30 596,40 588,40 583,35 " style="fill:white; stroke-width:1; stroke:black; " description="&lt;b&gt;ctg2_24&lt;/b&gt;&lt;br&gt;ctg2 24&lt;br&gt;Location: 26793 - 27654" locus_tag="ctg2_24" class="clusterblast-orf" id="dummy-1_q23_0_all"  />
</g>
<g label="NZ_BDAY01000036" description="NZ_BDAY01000036_c33: Nocardia altamirensis NBRC 108246, whole genome shotgun ... (26% of genes show similarity), nrps" class="clusterblast-cluster"  >
<text x="5" y="70" class="clusterblast-acc"  >
<a xlink:href="https://antismash-db.secondarymetabolites.org/go/NZ_BDAY01000036/33" target="_blank">NZ_BDAY01000036_c33</a>: Nocardia altamirensis NBRC 108246, whole genome shotgun ... (26% of genes show similarity), nrps</text>
<line x1="10" y1="85" x2="778.0" y2="85" style="stroke-width:1; stroke:grey; "  />
</g>
<g id="a1_000"  >
<polygon points="0,85 5,80 10,80 10,90 5,90 0,85 " style="fill:white; stroke-width:1; stroke:black; " description="&lt;b&gt;NA11_RS20160&lt;/b&gt;&lt;br&gt;DUF1365 domain-containing protein&lt;br&gt;Location: 110963 - 110238" locus_tag="NA11_RS20160" class="clusterblast-orf" id="dummy-1_h1_9_0"  />
</g>
<g id="a1_001"  >
<polygon points="10,85 15,80 30,80 30,90 15,90 10,85 " style="fill:white; stroke-width:1; stroke:black; " description="&lt;b&gt;NA11_RS20155&lt;/b&gt;&lt;br&gt;amine oxidase&lt;br&gt;Location: 110241 - 108919" locus_tag="NA11_RS20155" class="clusterblast-orf" id="dummy-1_h1_9_1"  />
</g>
<g id="a1_002"  >
<polygon points="34,85 39,80 46,80 46,90 39,90 34,85 " style="fill:white; stroke-width:1; stroke:black; " description="&lt;b&gt;NA11_RS20150&lt;/b&gt;&lt;br&gt;MerR family DNA-binding transcriptional regulator&lt;br&gt;Location: 108657 - 107812" locus_tag="NA11_RS20150" class="clusterblast-orf" id="dummy-1_h1_9_2"  />
</g>
<g id="a1_003"  >
<polygon points="50,90 53,90 58,85 53,80 50,80 50,90 " style="fill:white; stroke-width:1; stroke:black; " description="&lt;b&gt;NA11_RS20145&lt;/b&gt;&lt;br&gt;lipocalin&lt;br&gt;Location: 107593 - 107030" locus_tag="NA11_RS20145" class="clusterblast-orf" id="dummy-1_h1_9_3"  />
</g>
<g id="a1_004"  >
<polygon points="60,90 75,90 80,85 75,80 60,80 60,90 " style="fill:white; stroke-width:1; stroke:black; " description="&lt;b&gt;NA11_RS20140&lt;/b&gt;&lt;br&gt;deoxyribodipyrimidine photo-lyase&lt;br&gt;Location: 106888 - 105563" locus_tag="NA11_RS20140" class="clusterblast-orf" id="dummy-1_h1_9_4"  />
</g>
<g id="a1_005"  >
<polygon points="87,90 94,90 99,85 94,80 87,80 87,90 " style="fill:white; stroke-width:1; stroke:black; " description="&lt;b&gt;NA11_RS20135&lt;/b&gt;&lt;br&gt;amidohydrolase&lt;br&gt;Location: 105117 - 104293" locus_tag="NA11_RS20135" class="clusterblast-orf" id="dummy-1_h1_9_5"  />
</g>
<g id="a1_006"  >
<polygon points="99,85 104,80 109,80 109,90 104,90 99,85 " style="fill:white; stroke-width:1; stroke:black; " description="&lt;b&gt;NA11_RS20130&lt;/b&gt;&lt;br&gt;tellurite methyltransferase&lt;br&gt;Location: 104282 - 103617" locus_tag="NA11_RS20130" class="clusterblast-orf" id="dummy-1_h1_9_6"  />
</g>
<g id="a1_007"  >
<polygon points="109,90 112,85 109,80 109,90 " style="fill:white; stroke-width:1; stroke:black; " description="&lt;b&gt;NA11_RS43985&lt;/b&gt;&lt;br&gt;hypothetical protein&lt;br&gt;Location: 103607 - 103407" locus_tag="NA11_RS43985" class="clusterblast-orf" id="dummy-1_h1_9_7"  />
</g>
<g id="a1_008"  >
<polygon points="112,85 117,80 138,80 138,90 117,90 112,85 " style="fill:white; stroke-width:1; stroke:black; " description="&lt;b&gt;NA11_RS20125&lt;/b&gt;&lt;br&gt;cytochrome c oxidase subunit I&lt;br&gt;Location: 103424 - 101673" locus_tag="NA11_RS20125" class="clusterblast-orf" id="dummy-1_h1_9_8"  />
</g>
<g id="a1_009"  >
<polygon points="141,85 145,80 145,90 141,85 " style="fill:white; stroke-width:1; stroke:black; " description="&lt;b&gt;NA11_RS20120&lt;/b&gt;&lt;br&gt;hypothetical protein&lt;br&gt;Location: 101467 - 101216" locus_tag="NA11_RS20120" class="clusterblast-orf" id="dummy-1_h1_9_9"  />
</g>
<g id="a1_0010"  >
<polygon points="148,90 155,90 160,85 155,80 148,80 148,90 " style="fill:white; stroke-width:1; stroke:black; " description="&lt;b&gt;NA11_RS20115&lt;/b&gt;&lt;br&gt;NAD(P)-dependent oxidoreductase&lt;br&gt;Location: 100996 - 100166" locus_tag="NA11_RS20115" class="clusterblast-orf" id="dummy-1_h1_9_10"  />
</g>
<g id="a1_0011"  >
<polygon points="163,90 188,90 193,85 188,80 163,80 163,90 " style="fill:white; stroke-width:1; stroke:black; " description="&lt;b&gt;NA11_RS20110&lt;/b&gt;&lt;br&gt;cytochrome c oxidase assembly protein&lt;br&gt;Location: 100009 - 97997" locus_tag="NA11_RS20110" class="clusterblast-orf" id="dummy-1_h1_9_11"  />
</g>
<g id="a1_0012"  >
<polygon points="193,85 198,80 227,80 227,90 198,90 193,85 " style="fill:#d81556; stroke-width:1; stroke:black; " description="&lt;b&gt;NA11_RS20105&lt;/b&gt;&lt;br&gt;copper-translocating P-type ATPase&lt;br&gt;Location: 97969 - 95696&lt;br&gt;&lt;br&gt;&lt;b&gt;BlastP hit with ctg2_17&lt;/b&gt;&lt;br&gt;Percentage identity: 47&lt;br&gt;Percentage coverage: 99&lt;br&gt;BLAST bit score: 521&lt;br&gt;E-value: 1.8e-145" locus_tag="NA11_RS20105" class="clusterblast-orf" id="dummy-1_h1_9_12"  />
</g>
<g id="a1_0013"  >
<polygon points="227,85 232,80 241,80 241,90 232,90 227,85 " style="fill:white; stroke-width:1; stroke:black; " description="&lt;b&gt;NA11_RS20100&lt;/b&gt;&lt;br&gt;hypothetical protein&lt;br&gt;Location: 95682 - 94771" locus_tag="NA11_RS20100" class="clusterblast-orf" id="dummy-1_h1_9_13"  />
</g>
<g id="a1_0014"  >
<polygon points="239,90 243,90 248,85 243,80 239,80 239,90 " style="fill:#15d897; stroke-width:1; stroke:black; " description="&lt;b&gt;NA11_RS20095&lt;/b&gt;&lt;br&gt;RNA polymerase sigma factor SigY&lt;br&gt;Location: 94869 - 94303&lt;br&gt;&lt;br&gt;&lt;b&gt;BlastP hit with ctg2_15&lt;/b&gt;&lt;br&gt;Percentage identity: 53&lt;br&gt;Percentage coverage: 73&lt;br&gt;BLAST bit score: 138&lt;br&gt;E-value: 7.2e-31" locus_tag="NA11_RS20095" class="clusterblast-orf" id="dummy-1_h1_9_14"  />
</g>
<g id="a1_0015"  >
<polygon points="248,85 253,80 260,80 260,90 253,90 248,85 " style="fill:#1515d8; stroke-width:1; stroke:black; " description="&lt;b&gt;NA11_RS20090&lt;/b&gt;&lt;br&gt;ABC transporter ATP-binding protein&lt;br&gt;Location: 94297 - 93506&lt;br&gt;&lt;br&gt;&lt;b&gt;BlastP hit with ctg2_12&lt;/b&gt;&lt;br&gt;Percentage identity: 46&lt;br&gt;Percentage coverage: 91&lt;br&gt;BLAST bit score: 209&lt;br&gt;E-value: 5.3e-52" locus_tag="NA11_RS20090" class="clusterblast-orf" id="dummy-1_h1_9_15"  />
</g>
<g id="a1_0016"  >
<polygon points="260,85 265,80 275,80 275,90 265,90 260,85 " style="fill:#15d856; stroke-width:1; stroke:black; " description="&lt;b&gt;NA11_RS20085&lt;/b&gt;&lt;br&gt;iron ABC transporter permease&lt;br&gt;Location: 93509 - 92469&lt;br&gt;&lt;br&gt;&lt;b&gt;BlastP hit with ctg2_11&lt;/b&gt;&lt;br&gt;Percentage identity: 51&lt;br&gt;Percentage coverage: 93&lt;br&gt;BLAST bit score: 297&lt;br&gt;E-value: 2e-78" locus_tag="NA11_RS20085" class="clusterblast-orf" id="dummy-1_h1_9_16"  />
</g>
<g id="a1_0017"  >
<polygon points="275,85 280,80 291,80 291,90 280,90 275,85 " style="fill:#d89715; stroke-width:1; stroke:black; " description="&lt;b&gt;NA11_RS20080&lt;/b&gt;&lt;br&gt;iron ABC transporter substrate-binding protein&lt;br&gt;Location: 92472 - 91426&lt;br&gt;&lt;br&gt;&lt;b&gt;BlastP hit with ctg2_10&lt;/b&gt;&lt;br&gt;Percentage identity: 42&lt;br&gt;Percentage coverage: 98&lt;br&gt;BLAST bit score: 241&lt;br&gt;E-value: 1.7e-61" locus_tag="NA11_RS20080" class="clusterblast-orf" id="dummy-1_h1_9_17"  />
</g>
<g id="a1_0018"  >
<polygon points="291,85 296,80 358,80 358,90 296,90 291,85 " style="fill:#56d815; stroke-width:1; stroke:black; " description="&lt;b&gt;NA11_RS20075&lt;/b&gt;&lt;br&gt;non-ribosomal peptide synthetase&lt;br&gt;Location: 91429 - 86927&lt;br&gt;&lt;br&gt;&lt;b&gt;BlastP hit with ctg2_3&lt;/b&gt;&lt;br&gt;Percentage identity: 48&lt;br&gt;Percentage coverage: 104&lt;br&gt;BLAST bit score: 1237&lt;br&gt;E-value: 0.0" locus_tag="NA11_RS20075" class="clusterblast-orf" id="dummy-1_h1_9_18"  />
</g>
<g id="a1_0019"  >
<polygon points="357,85 361,80 361,90 357,85 " style="fill:#1597d8; stroke-width:1; stroke:black; " description="&lt;b&gt;NA11_RS20070&lt;/b&gt;&lt;br&gt;phosphopantetheine attachment domain protein&lt;br&gt;Location: 86963 - 86727&lt;br&gt;&lt;br&gt;&lt;b&gt;BlastP hit with ctg2_4&lt;/b&gt;&lt;br&gt;Percentage identity: 58&lt;br&gt;Percentage coverage: 87&lt;br&gt;BLAST bit score: 90&lt;br&gt;E-value: 8.2e-17" locus_tag="NA11_RS20070" class="clusterblast-orf" id="dummy-1_h1_9_19"  />
</g>
<g id="a1_0020"  >
<polygon points="361,85 366,80 384,80 384,90 366,90 361,85 " style="fill:#9715d8; stroke-width:1; stroke:black; " description="&lt;b&gt;NA11_RS20065&lt;/b&gt;&lt;br&gt;long-chain fatty acid--CoA ligase&lt;br&gt;Location: 86722 - 85184&lt;br&gt;&lt;br&gt;&lt;b&gt;BlastP hit with ctg2_5&lt;/b&gt;&lt;br&gt;Percentage identity: 60&lt;br&gt;Percentage coverage: 96&lt;br&gt;BLAST bit score: 609&lt;br&gt;E-value: 4.6e-172" locus_tag="NA11_RS20065" class="clusterblast-orf" id="dummy-1_h1_9_20"  />
</g>
<g id="a1_0021"  >
<polygon points="384,85 389,80 392,80 392,90 389,90 384,85 " style="fill:#d85615; stroke-width:1; stroke:black; " description="&lt;b&gt;NA11_RS20060&lt;/b&gt;&lt;br&gt;hypothetical protein&lt;br&gt;Location: 85187 - 84648&lt;br&gt;&lt;br&gt;&lt;b&gt;BlastP hit with ctg2_6&lt;/b&gt;&lt;br&gt;Percentage identity: 47&lt;br&gt;Percentage coverage: 94&lt;br&gt;BLAST bit score: 162&lt;br&gt;E-value: 3.9e-38" locus_tag="NA11_RS20060" class="clusterblast-orf" id="dummy-1_h1_9_21"  />
</g>
<g id="a1_0022"  >
<polygon points="392,85 397,80 405,80 405,90 397,90 392,85 " style="fill:#15d815; stroke-width:1; stroke:black; " description="&lt;b&gt;NA11_RS20055&lt;/b&gt;&lt;br&gt;TauD/TfdA family dioxygenase&lt;br&gt;Location: 84651 - 83791&lt;br&gt;&lt;br&gt;&lt;b&gt;BlastP hit with ctg2_7&lt;/b&gt;&lt;br&gt;Percentage identity: 63&lt;br&gt;Percentage coverage: 99&lt;br&gt;BLAST bit score: 386&lt;br&gt;E-value: 2.6e-105" locus_tag="NA11_RS20055" class="clusterblast-orf" id="dummy-1_h1_9_22"  />
</g>
<g id="a1_0023"  >
<polygon points="409,90 414,90 419,85 414,80 409,80 409,90 " style="fill:white; stroke-width:1; stroke:black; " description="&lt;b&gt;NA11_RS20050&lt;/b&gt;&lt;br&gt;hypothetical protein&lt;br&gt;Location: 83477 - 82803" locus_tag="NA11_RS20050" class="clusterblast-orf" id="dummy-1_h1_9_23"  />
</g>
<g id="a1_0024"  >
<polygon points="421,90 423,90 428,85 423,80 421,80 421,90 " style="fill:white; stroke-width:1; stroke:black; " description="&lt;b&gt;NA11_RS20045&lt;/b&gt;&lt;br&gt;anti-sigma factor antagonist&lt;br&gt;Location: 82689 - 82240" locus_tag="NA11_RS20045" class="clusterblast-orf" id="dummy-1_h1_9_24"  />
</g>
<g id="a1_0025"  >
<polygon points="429,85 434,80 444,80 444,90 434,90 429,85 " style="fill:white; stroke-width:1; stroke:black; " description="&lt;b&gt;NA11_RS20040&lt;/b&gt;&lt;br&gt;DoxX family protein&lt;br&gt;Location: 82184 - 81120" locus_tag="NA11_RS20040" class="clusterblast-orf" id="dummy-1_h1_9_25"  />
</g>
<g id="a1_0026"  >
<polygon points="448,90 452,85 448,80 448,90 " style="fill:white; stroke-width:1; stroke:black; " description="&lt;b&gt;NA11_RS20035&lt;/b&gt;&lt;br&gt;hypothetical protein&lt;br&gt;Location: 80888 - 80604" locus_tag="NA11_RS20035" class="clusterblast-orf" id="dummy-1_h1_9_26"  />
</g>
<g id="a1_0027"  >
<polygon points="452,85 457,80 470,80 470,90 457,90 452,85 " style="fill:white; stroke-width:1; stroke:black; " description="&lt;b&gt;NA11_RS20030&lt;/b&gt;&lt;br&gt;alpha/beta hydrolase&lt;br&gt;Location: 80579 - 79392" locus_tag="NA11_RS20030" class="clusterblast-orf" id="dummy-1_h1_9_27"  />
</g>
<g id="a1_0028"  >
<polygon points="467,85 472,80 491,80 491,90 472,90 467,85 " style="fill:#9715d8; stroke-width:1; stroke:black; " description="&lt;b&gt;NA11_RS20025&lt;/b&gt;&lt;br&gt;fatty acid--CoA ligase&lt;br&gt;Location: 79608 - 77959&lt;br&gt;&lt;br&gt;&lt;b&gt;BlastP hit with ctg2_5&lt;/b&gt;&lt;br&gt;Percentage identity: 33&lt;br&gt;Percentage coverage: 90&lt;br&gt;BLAST bit score: 196&lt;br&gt;E-value: 9.3e-48" locus_tag="NA11_RS20025" class="clusterblast-orf" id="dummy-1_h1_9_28"  />
</g>
<g id="a1_0029"  >
<polygon points="492,85 497,80 509,80 509,90 497,90 492,85 " style="fill:white; stroke-width:1; stroke:black; " description="&lt;b&gt;NA11_RS20020&lt;/b&gt;&lt;br&gt;class C beta-lactamase&lt;br&gt;Location: 77958 - 76759" locus_tag="NA11_RS20020" class="clusterblast-orf" id="dummy-1_h1_9_29"  />
</g>
<g id="a1_0030"  >
<polygon points="509,85 514,80 530,80 530,90 514,90 509,85 " style="fill:white; stroke-width:1; stroke:black; " description="&lt;b&gt;NA11_RS20015&lt;/b&gt;&lt;br&gt;thiazole biosynthesis protein&lt;br&gt;Location: 76762 - 75392" locus_tag="NA11_RS20015" class="clusterblast-orf" id="dummy-1_h1_9_30"  />
</g>
<g id="a1_0031"  >
<polygon points="533,90 538,90 543,85 538,80 533,80 533,90 " style="fill:white; stroke-width:1; stroke:black; " description="&lt;b&gt;NA11_RS20010&lt;/b&gt;&lt;br&gt;TetR/AcrR family transcriptional regulator&lt;br&gt;Location: 75155 - 74526" locus_tag="NA11_RS20010" class="clusterblast-orf" id="dummy-1_h1_9_31"  />
</g>
<g id="a1_0032"  >
<polygon points="545,90 552,90 557,85 552,80 545,80 545,90 " style="fill:white; stroke-width:1; stroke:black; " description="&lt;b&gt;NA11_RS20005&lt;/b&gt;&lt;br&gt;hypothetical protein&lt;br&gt;Location: 74365 - 73589" locus_tag="NA11_RS20005" class="clusterblast-orf" id="dummy-1_h1_9_32"  />
</g>
<g id="a1_0033"  >
<polygon points="557,85 562,80 586,80 586,90 562,90 557,85 " style="fill:white; stroke-width:1; stroke:black; " description="&lt;b&gt;NA11_RS20000&lt;/b&gt;&lt;br&gt;GGDEF domain-containing protein&lt;br&gt;Location: 73587 - 71647" locus_tag="NA11_RS20000" class="clusterblast-orf" id="dummy-1_h1_9_33"  />
</g>
<g id="a1_0034"  >
<polygon points="592,90 604,90 609,85 604,80 592,80 592,90 " style="fill:white; stroke-width:1; stroke:black; " description="&lt;b&gt;NA11_RS19995&lt;/b&gt;&lt;br&gt;galactokinase&lt;br&gt;Location: 71201 - 70077" locus_tag="NA11_RS19995" class="clusterblast-orf" id="dummy-1_h1_9_34"  />
</g>
<g id="a1_0035"  >
<polygon points="612,90 633,90 638,85 633,80 612,80 612,90 " style="fill:white; stroke-width:1; stroke:black; " description="&lt;b&gt;NA11_RS19990&lt;/b&gt;&lt;br&gt;solute:sodium symporter family transporter&lt;br&gt;Location: 69854 - 68136" locus_tag="NA11_RS19990" class="clusterblast-orf" id="dummy-1_h1_9_35"  />
</g>
<g id="a1_0036"  >
<polygon points="638,90 642,85 638,80 638,90 " style="fill:white; stroke-width:1; stroke:black; " description="&lt;b&gt;NA11_RS19985&lt;/b&gt;&lt;br&gt;hypothetical protein&lt;br&gt;Location: 68126 - 67872" locus_tag="NA11_RS19985" class="clusterblast-orf" id="dummy-1_h1_9_36"  />
</g>
<g id="a1_0037"  >
<polygon points="643,85 648,80 650,80 650,90 648,90 643,85 " style="fill:white; stroke-width:1; stroke:black; " description="&lt;b&gt;NA11_RS19980&lt;/b&gt;&lt;br&gt;cyclase&lt;br&gt;Location: 67787 - 67326" locus_tag="NA11_RS19980" class="clusterblast-orf" id="dummy-1_h1_9_37"  />
</g>
<g id="a1_0038"  >
<polygon points="654,90 656,90 661,85 656,80 654,80 654,90 " style="fill:white; stroke-width:1; stroke:black; " description="&lt;b&gt;NA11_RS19975&lt;/b&gt;&lt;br&gt;FBP domain-containing protein&lt;br&gt;Location: 67050 - 66562" locus_tag="NA11_RS19975" class="clusterblast-orf" id="dummy-1_h1_9_38"  />
</g>
<g id="a1_0039"  >
<polygon points="665,85 670,80 687,80 687,90 670,90 665,85 " style="fill:#d81597; stroke-width:1; stroke:black; " description="&lt;b&gt;NA11_RS19970&lt;/b&gt;&lt;br&gt;PepSY domain-containing protein&lt;br&gt;Location: 66327 - 64846&lt;br&gt;&lt;br&gt;&lt;b&gt;BlastP hit with ctg2_13&lt;/b&gt;&lt;br&gt;Percentage identity: 46&lt;br&gt;Percentage coverage: 96&lt;br&gt;BLAST bit score: 358&lt;br&gt;E-value: 1.6e-96" locus_tag="NA11_RS19970" class="clusterblast-orf" id="dummy-1_h1_9_39"  />
</g>
<g id="a1_0040"  >
<polygon points="691,85 696,80 699,80 699,90 696,90 691,85 " style="fill:white; stroke-width:1; stroke:black; " description="&lt;b&gt;NA11_RS19965&lt;/b&gt;&lt;br&gt;hypothetical protein&lt;br&gt;Location: 64597 - 64034" locus_tag="NA11_RS19965" class="clusterblast-orf" id="dummy-1_h1_9_40"  />
</g>
<g id="a1_0041"  >
<polygon points="702,85 707,80 726,80 726,90 707,90 702,85 " style="fill:white; stroke-width:1; stroke:black; " description="&lt;b&gt;NA11_RS19960&lt;/b&gt;&lt;br&gt;acyl-CoA synthetase&lt;br&gt;Location: 63860 - 62202" locus_tag="NA11_RS19960" class="clusterblast-orf" id="dummy-1_h1_9_41"  />
</g>
<g id="a1_0042"  >
<polygon points="733,85 738,80 758,80 758,90 738,90 733,85 " style="fill:white; stroke-width:1; stroke:black; " description="&lt;b&gt;NA11_RS19955&lt;/b&gt;&lt;br&gt;acyl-CoA synthetase&lt;br&gt;Location: 61731 - 60106" locus_tag="NA11_RS19955" class="clusterblast-orf" id="dummy-1_h1_9_42"  />
</g>
<g id="a1_0043"  >
<polygon points="760,90 763,90 768,85 763,80 760,80 760,90 " style="fill:white; stroke-width:1; stroke:black; " description="&lt;b&gt;NA11_RS19950&lt;/b&gt;&lt;br&gt;carboxymuconolactone decarboxylase&lt;br&gt;Location: 59951 - 59394" locus_tag="NA11_RS19950" class="clusterblast-orf" id="dummy-1_h1_9_43"  />
</g>
<g id="a1_0044"  >
<polygon points="772,85 777,80 780,80 780,90 777,90 772,85 " style="fill:white; stroke-width:1; stroke:black; " description="&lt;b&gt;NA11_RS19945&lt;/b&gt;&lt;br&gt;ArsR family transcriptional regulator&lt;br&gt;Location: 59147 - 58638" locus_tag="NA11_RS19945" class="clusterblast-orf" id="dummy-1_h1_9_44"  />
</g>
</svg>
