<svg xmlns="http://www.w3.org/2000/svg" xmlns:xlink="http://www.w3.org/1999/xlink" version="1.1" x="0" y="0" height="230" width="800" viewBox="0 0 800 230" preserveAspectRatio="none"  >
<g label="Query sequence" class="clusterblast-cluster"  >
<text x="5" y="20" class="clusterblast-acc"  >
Query sequence</text>
<line x1="10" y1="35" x2="778.0" y2="35" style="stroke-width:1; stroke:grey; "  />
<polygon points="184,40 185,35 184,30 184,40 " style="fill:white; stroke-width:1; stroke:black; " description="&lt;b&gt;ctg63_1&lt;/b&gt;&lt;br&gt;ctg63 1&lt;br&gt;Location: 0 - 69" locus_tag="ctg63_1" class="clusterblast-orf" id="dummy-1_q0_0_all"  />
<polygon points="185,40 203,40 208,35 203,30 185,30 185,40 " style="fill:#d81515; stroke-width:1; stroke:black; " description="&lt;b&gt;ctg63_2&lt;/b&gt;&lt;br&gt;ctg63 2&lt;br&gt;Location: 76 - 1276" locus_tag="ctg63_2" class="clusterblast-orf" id="dummy-1_q1_0_all"  />
<polygon points="214,40 236,40 241,35 236,30 214,30 214,40 " style="fill:#5cd815; stroke-width:1; stroke:black; " description="&lt;b&gt;ctg63_3&lt;/b&gt;&lt;br&gt;ctg63 3&lt;br&gt;Location: 1576 - 3019" locus_tag="ctg63_3" class="clusterblast-orf" id="dummy-1_q2_0_all"  />
<polygon points="241,40 248,40 253,35 248,30 241,30 241,40 " style="fill:white; stroke-width:1; stroke:black; " description="&lt;b&gt;ctg63_4&lt;/b&gt;&lt;br&gt;ctg63 4&lt;br&gt;Location: 3003 - 3627" locus_tag="ctg63_4" class="clusterblast-orf" id="dummy-1_q3_0_all"  />
<polygon points="259,35 264,30 265,30 265,40 264,40 259,35 " style="fill:white; stroke-width:1; stroke:black; " description="&lt;b&gt;ctg63_5&lt;/b&gt;&lt;br&gt;ctg63 5&lt;br&gt;Location: 3930 - 4236" locus_tag="ctg63_5" class="clusterblast-orf" id="dummy-1_q4_0_all"  />
<polygon points="269,40 269,40 274,35 269,30 269,30 269,40 " style="fill:#15a3d8; stroke-width:1; stroke:black; " description="&lt;b&gt;ctg63_6&lt;/b&gt;&lt;br&gt;ctg63 6&lt;br&gt;Location: 4460 - 4730" locus_tag="ctg63_6" class="clusterblast-orf" id="dummy-1_q5_0_all"  />
<polygon points="283,40 291,40 296,35 291,30 283,30 283,40 " style="fill:#c715d8; stroke-width:1; stroke:black; " description="&lt;b&gt;ctg63_7&lt;/b&gt;&lt;br&gt;ctg63 7&lt;br&gt;Location: 5188 - 5872" locus_tag="ctg63_7" class="clusterblast-orf" id="dummy-1_q6_0_all"  />
<polygon points="300,35 305,30 320,30 320,40 305,40 300,35 " style="fill:#d88015; stroke-width:1; stroke:black; " description="&lt;b&gt;ctg63_8&lt;/b&gt;&lt;br&gt;ctg63 8&lt;br&gt;Location: 6097 - 7162" locus_tag="ctg63_8" class="clusterblast-orf" id="dummy-1_q7_0_all"  />
<polygon points="320,35 325,30 354,30 354,40 325,40 320,35 " style="fill:#15d839; stroke-width:1; stroke:black; " description="&lt;b&gt;ctg63_9&lt;/b&gt;&lt;br&gt;ctg63 9&lt;br&gt;Location: 7161 - 8943" locus_tag="ctg63_9" class="clusterblast-orf" id="dummy-1_q8_0_all"  />
<polygon points="355,35 360,30 538,30 538,40 360,40 355,35 " style="fill:#1539d8; stroke-width:1; stroke:black; " description="&lt;b&gt;ctg63_10&lt;/b&gt;&lt;br&gt;ctg63 10&lt;br&gt;Location: 8984 - 18578" locus_tag="ctg63_10" class="clusterblast-orf" id="dummy-1_q9_0_all"  />
<polygon points="542,35 547,30 554,30 554,40 547,40 542,35 " style="fill:#d81580; stroke-width:1; stroke:black; " description="&lt;b&gt;ctg63_11&lt;/b&gt;&lt;br&gt;ctg63 11&lt;br&gt;Location: 18757 - 19402" locus_tag="ctg63_11" class="clusterblast-orf" id="dummy-1_q10_0_all"  />
<polygon points="554,35 559,30 563,30 563,40 559,40 554,35 " style="fill:#c7d815; stroke-width:1; stroke:black; " description="&lt;b&gt;ctg63_12&lt;/b&gt;&lt;br&gt;ctg63 12&lt;br&gt;Location: 19404 - 19860" locus_tag="ctg63_12" class="clusterblast-orf" id="dummy-1_q11_0_all"  />
<polygon points="563,40 572,40 577,35 572,30 563,30 563,40 " style="fill:#15d8a3; stroke-width:1; stroke:black; " description="&lt;b&gt;ctg63_13&lt;/b&gt;&lt;br&gt;ctg63 13&lt;br&gt;Location: 19877 - 20636" locus_tag="ctg63_13" class="clusterblast-orf" id="dummy-1_q12_0_all"  />
<polygon points="579,40 589,40 594,35 589,30 579,30 579,40 " style="fill:#5c15d8; stroke-width:1; stroke:black; " description="&lt;b&gt;ctg63_14&lt;/b&gt;&lt;br&gt;ctg63 14&lt;br&gt;Location: 20707 - 21499" locus_tag="ctg63_14" class="clusterblast-orf" id="dummy-1_q13_0_all"  />
<polygon points="594,35 596,30 596,40 594,35 " style="fill:white; stroke-width:1; stroke:black; " description="&lt;b&gt;ctg63_15&lt;/b&gt;&lt;br&gt;ctg63 15&lt;br&gt;Location: 21517 - 21586" locus_tag="ctg63_15" class="clusterblast-orf" id="dummy-1_q14_0_all"  />
</g>
<g label="NZ_ALNP01000031" description="NZ_ALNP01000031_c21: Streptomyces sp. AA0539 contig00031, whole genome shotgu... (29% of genes show similarity), t1pks-nrps" class="clusterblast-cluster"  >
<text x="5" y="70" class="clusterblast-acc"  >
<a xlink:href="https://antismash-db.secondarymetabolites.org/go/NZ_ALNP01000031/21" target="_blank">NZ_ALNP01000031_c21</a>: Streptomyces sp. AA0539 contig00031, whole genome shotgu... (29% of genes show similarity), t1pks-nrps</text>
<line x1="10" y1="85" x2="778.0" y2="85" style="stroke-width:1; stroke:grey; "  />
</g>
<g id="a1_000"  >
<polygon points="0,90 5,90 10,85 5,80 0,80 0,90 " style="fill:white; stroke-width:1; stroke:black; " description="&lt;b&gt;B311_RS0123780&lt;/b&gt;&lt;br&gt;DoxX family protein&lt;br&gt;Location: 40886 - 40356" locus_tag="B311_RS0123780" class="clusterblast-orf" id="dummy-1_h1_2_0"  />
</g>
<g id="a1_001"  >
<polygon points="10,90 30,90 35,85 30,80 10,80 10,90 " style="fill:white; stroke-width:1; stroke:black; " description="&lt;b&gt;B311_RS0123775&lt;/b&gt;&lt;br&gt;ergothioneine biosynthesis glutamate--cysteine ligase EgtA&lt;br&gt;Location: 40359 - 39004" locus_tag="B311_RS0123775" class="clusterblast-orf" id="dummy-1_h1_2_1"  />
</g>
<g id="a1_002"  >
<polygon points="35,90 57,90 62,85 57,80 35,80 35,90 " style="fill:white; stroke-width:1; stroke:black; " description="&lt;b&gt;B311_RS0123770&lt;/b&gt;&lt;br&gt;ergothioneine biosynthesis protein EgtB&lt;br&gt;Location: 39007 - 37625" locus_tag="B311_RS0123770" class="clusterblast-orf" id="dummy-1_h1_2_2"  />
</g>
<g id="a1_003"  >
<polygon points="62,90 73,90 78,85 73,80 62,80 62,90 " style="fill:white; stroke-width:1; stroke:black; " description="&lt;b&gt;B311_RS29370&lt;/b&gt;&lt;br&gt;ergothioneine biosynthesis protein EgtC&lt;br&gt;Location: 37625 - 36762" locus_tag="B311_RS29370" class="clusterblast-orf" id="dummy-1_h1_2_3"  />
</g>
<g id="a1_004"  >
<polygon points="84,90 96,90 101,85 96,80 84,80 84,90 " style="fill:white; stroke-width:1; stroke:black; " description="&lt;b&gt;B311_RS0123760&lt;/b&gt;&lt;br&gt;hypothetical protein&lt;br&gt;Location: 36471 - 35551" locus_tag="B311_RS0123760" class="clusterblast-orf" id="dummy-1_h1_2_4"  />
</g>
<g id="a1_005"  >
<polygon points="101,85 106,80 119,80 119,90 106,90 101,85 " style="fill:white; stroke-width:1; stroke:black; " description="&lt;b&gt;B311_RS29365&lt;/b&gt;&lt;br&gt;DUF3152 domain-containing protein&lt;br&gt;Location: 35591 - 34629" locus_tag="B311_RS29365" class="clusterblast-orf" id="dummy-1_h1_2_5"  />
</g>
<g id="a1_006"  >
<polygon points="118,85 123,80 134,80 134,90 123,90 118,85 " style="fill:white; stroke-width:1; stroke:black; " description="&lt;b&gt;B311_RS0123750&lt;/b&gt;&lt;br&gt;hypothetical protein&lt;br&gt;Location: 34657 - 33842" locus_tag="B311_RS0123750" class="clusterblast-orf" id="dummy-1_h1_2_6"  />
</g>
<g id="a1_007"  >
<polygon points="134,85 139,80 144,80 144,90 139,90 134,85 " style="fill:white; stroke-width:1; stroke:black; " description="&lt;b&gt;B311_RS0123745&lt;/b&gt;&lt;br&gt;E family RNA polymerase sigma-70 factor&lt;br&gt;Location: 33845 - 33291" locus_tag="B311_RS0123745" class="clusterblast-orf" id="dummy-1_h1_2_7"  />
</g>
<g id="a1_008"  >
<polygon points="147,85 152,80 165,80 165,90 152,90 147,85 " style="fill:white; stroke-width:1; stroke:black; " description="&lt;b&gt;B311_RS0123740&lt;/b&gt;&lt;br&gt;NAD-dependent epimerase&lt;br&gt;Location: 33169 - 32192" locus_tag="B311_RS0123740" class="clusterblast-orf" id="dummy-1_h1_2_8"  />
</g>
<g id="a1_009"  >
<polygon points="167,90 172,90 177,85 172,80 167,80 167,90 " style="fill:white; stroke-width:1; stroke:black; " description="&lt;b&gt;B311_RS0123735&lt;/b&gt;&lt;br&gt;hypothetical protein&lt;br&gt;Location: 32102 - 31566" locus_tag="B311_RS0123735" class="clusterblast-orf" id="dummy-1_h1_2_9"  />
</g>
<g id="a1_0010"  >
<polygon points="180,90 192,90 197,85 192,80 180,80 180,90 " style="fill:white; stroke-width:1; stroke:black; " description="&lt;b&gt;B311_RS0123730&lt;/b&gt;&lt;br&gt;XRE family transcriptional regulator&lt;br&gt;Location: 31410 - 30532" locus_tag="B311_RS0123730" class="clusterblast-orf" id="dummy-1_h1_2_10"  />
</g>
<g id="a1_0011"  >
<polygon points="198,85 203,80 243,80 243,90 203,90 198,85 " style="fill:white; stroke-width:1; stroke:black; " description="&lt;b&gt;B311_RS0123725&lt;/b&gt;&lt;br&gt;phosphoketolase family protein&lt;br&gt;Location: 30502 - 28106" locus_tag="B311_RS0123725" class="clusterblast-orf" id="dummy-1_h1_2_11"  />
</g>
<g id="a1_0012"  >
<polygon points="245,90 278,90 283,85 278,80 245,80 245,90 " style="fill:white; stroke-width:1; stroke:black; " description="&lt;b&gt;B311_RS29360&lt;/b&gt;&lt;br&gt;glycoside hydrolase family 31 protein&lt;br&gt;Location: 28032 - 26020" locus_tag="B311_RS29360" class="clusterblast-orf" id="dummy-1_h1_2_12"  />
</g>
<g id="a1_0013"  >
<polygon points="288,90 305,90 310,85 305,80 288,80 288,90 " style="fill:#d81515; stroke-width:1; stroke:black; " description="&lt;b&gt;B311_RS0123715&lt;/b&gt;&lt;br&gt;cytochrome P450&lt;br&gt;Location: 25788 - 24589&lt;br&gt;&lt;br&gt;&lt;b&gt;BlastP hit with ctg63_2&lt;/b&gt;&lt;br&gt;Percentage identity: 100&lt;br&gt;Percentage coverage: 100&lt;br&gt;BLAST bit score: 814&lt;br&gt;E-value: 5.4e-234" locus_tag="B311_RS0123715" class="clusterblast-orf" id="dummy-1_h1_2_13"  />
</g>
<g id="a1_0014"  >
<polygon points="312,85 317,80 332,80 332,90 317,90 312,85 " style="fill:#d88015; stroke-width:1; stroke:black; " description="&lt;b&gt;B311_RS0123710&lt;/b&gt;&lt;br&gt;NADP-dependent oxidoreductase&lt;br&gt;Location: 24504 - 23440&lt;br&gt;&lt;br&gt;&lt;b&gt;BlastP hit with ctg63_8&lt;/b&gt;&lt;br&gt;Percentage identity: 100&lt;br&gt;Percentage coverage: 100&lt;br&gt;BLAST bit score: 718&lt;br&gt;E-value: 2.8e-205" locus_tag="B311_RS0123710" class="clusterblast-orf" id="dummy-1_h1_2_14"  />
</g>
<g id="a1_0015"  >
<polygon points="332,85 337,80 365,80 365,90 337,90 332,85 " style="fill:#15d839; stroke-width:1; stroke:black; " description="&lt;b&gt;B311_RS29355&lt;/b&gt;&lt;br&gt;NAD(P)/FAD-dependent oxidoreductase&lt;br&gt;Location: 23440 - 21704&lt;br&gt;&lt;br&gt;&lt;b&gt;BlastP hit with ctg63_9&lt;/b&gt;&lt;br&gt;Percentage identity: 100&lt;br&gt;Percentage coverage: 97&lt;br&gt;BLAST bit score: 1195&lt;br&gt;E-value: 0.0" locus_tag="B311_RS29355" class="clusterblast-orf" id="dummy-1_h1_2_15"  />
</g>
<g id="a1_0016"  >
<polygon points="367,85 372,80 546,80 546,90 372,90 367,85 " style="fill:#1539d8; stroke-width:1; stroke:black; " description="&lt;b&gt;B311_RS0123700&lt;/b&gt;&lt;br&gt;hybrid non-ribosomal peptide synthetase/type I polyketide synthase&lt;br&gt;Location: 21617 - 12234&lt;br&gt;&lt;br&gt;&lt;b&gt;BlastP hit with ctg63_10&lt;/b&gt;&lt;br&gt;Percentage identity: 100&lt;br&gt;Percentage coverage: 98&lt;br&gt;BLAST bit score: 6135&lt;br&gt;E-value: 0.0" locus_tag="B311_RS0123700" class="clusterblast-orf" id="dummy-1_h1_2_16"  />
</g>
<g id="a1_0017"  >
<polygon points="554,85 559,80 565,80 565,90 559,90 554,85 " style="fill:#d81580; stroke-width:1; stroke:black; " description="&lt;b&gt;B311_RS0123695&lt;/b&gt;&lt;br&gt;DUF305 domain-containing protein&lt;br&gt;Location: 11844 - 11263&lt;br&gt;&lt;br&gt;&lt;b&gt;BlastP hit with ctg63_11&lt;/b&gt;&lt;br&gt;Percentage identity: 100&lt;br&gt;Percentage coverage: 90&lt;br&gt;BLAST bit score: 362&lt;br&gt;E-value: 4e-98" locus_tag="B311_RS0123695" class="clusterblast-orf" id="dummy-1_h1_2_17"  />
</g>
<g id="a1_0018"  >
<polygon points="566,85 571,80 572,80 572,90 571,90 566,85 " style="fill:#c7d815; stroke-width:1; stroke:black; " description="&lt;b&gt;B311_RS0123690&lt;/b&gt;&lt;br&gt;hypothetical protein&lt;br&gt;Location: 11197 - 10856&lt;br&gt;&lt;br&gt;&lt;b&gt;BlastP hit with ctg63_12&lt;/b&gt;&lt;br&gt;Percentage identity: 100&lt;br&gt;Percentage coverage: 75&lt;br&gt;BLAST bit score: 218&lt;br&gt;E-value: 3.8e-55" locus_tag="B311_RS0123690" class="clusterblast-orf" id="dummy-1_h1_2_18"  />
</g>
<g id="a1_0019"  >
<polygon points="575,90 584,90 589,85 584,80 575,80 575,90 " style="fill:#15d8a3; stroke-width:1; stroke:black; " description="&lt;b&gt;B311_RS0123685&lt;/b&gt;&lt;br&gt;polysaccharide deacetylase family protein&lt;br&gt;Location: 10724 - 9966&lt;br&gt;&lt;br&gt;&lt;b&gt;BlastP hit with ctg63_13&lt;/b&gt;&lt;br&gt;Percentage identity: 99&lt;br&gt;Percentage coverage: 100&lt;br&gt;BLAST bit score: 492&lt;br&gt;E-value: 2.3e-137" locus_tag="B311_RS0123685" class="clusterblast-orf" id="dummy-1_h1_2_19"  />
</g>
<g id="a1_0020"  >
<polygon points="591,90 601,90 606,85 601,80 591,80 591,90 " style="fill:#5c15d8; stroke-width:1; stroke:black; " description="&lt;b&gt;B311_RS0123680&lt;/b&gt;&lt;br&gt;VOC family protein&lt;br&gt;Location: 9894 - 9103&lt;br&gt;&lt;br&gt;&lt;b&gt;BlastP hit with ctg63_14&lt;/b&gt;&lt;br&gt;Percentage identity: 100&lt;br&gt;Percentage coverage: 100&lt;br&gt;BLAST bit score: 545&lt;br&gt;E-value: 3.1e-153" locus_tag="B311_RS0123680" class="clusterblast-orf" id="dummy-1_h1_2_20"  />
</g>
<g id="a1_0021"  >
<polygon points="607,85 612,80 613,80 613,90 612,90 607,85 " style="fill:white; stroke-width:1; stroke:black; " description="&lt;b&gt;B311_RS0123675&lt;/b&gt;&lt;br&gt;hypothetical protein&lt;br&gt;Location: 9040 - 8711" locus_tag="B311_RS0123675" class="clusterblast-orf" id="dummy-1_h1_2_21"  />
</g>
<g id="a1_0022"  >
<polygon points="622,85 627,80 661,80 661,90 627,90 622,85 " style="fill:white; stroke-width:1; stroke:black; " description="&lt;b&gt;B311_RS0123665&lt;/b&gt;&lt;br&gt;hypothetical protein&lt;br&gt;Location: 8270 - 6228" locus_tag="B311_RS0123665" class="clusterblast-orf" id="dummy-1_h1_2_22"  />
</g>
<g id="a1_0023"  >
<polygon points="681,85 686,80 709,80 709,90 686,90 681,85 " style="fill:white; stroke-width:1; stroke:black; " description="&lt;b&gt;B311_RS0123660&lt;/b&gt;&lt;br&gt;XRE family transcriptional regulator&lt;br&gt;Location: 5139 - 3712" locus_tag="B311_RS0123660" class="clusterblast-orf" id="dummy-1_h1_2_23"  />
</g>
<g id="a1_0024"  >
<polygon points="711,90 735,90 740,85 735,80 711,80 711,90 " style="fill:white; stroke-width:1; stroke:black; " description="&lt;b&gt;B311_RS0123655&lt;/b&gt;&lt;br&gt;MmgE/PrpD family protein&lt;br&gt;Location: 3566 - 2058" locus_tag="B311_RS0123655" class="clusterblast-orf" id="dummy-1_h1_2_24"  />
</g>
<g id="a1_0025"  >
<polygon points="740,90 753,90 758,85 753,80 740,80 740,90 " style="fill:white; stroke-width:1; stroke:black; " description="&lt;b&gt;B311_RS0123650&lt;/b&gt;&lt;br&gt;methylisocitrate lyase&lt;br&gt;Location: 2058 - 1150" locus_tag="B311_RS0123650" class="clusterblast-orf" id="dummy-1_h1_2_25"  />
</g>
<g id="a1_0026"  >
<polygon points="758,90 775,90 780,85 775,80 758,80 758,90 " style="fill:white; stroke-width:1; stroke:black; " description="&lt;b&gt;B311_RS0123645&lt;/b&gt;&lt;br&gt;2-methylcitrate synthase&lt;br&gt;Location: 1129 - 1" locus_tag="B311_RS0123645" class="clusterblast-orf" id="dummy-1_h1_2_26"  />
</g>
</svg>
