<svg xmlns="http://www.w3.org/2000/svg" xmlns:xlink="http://www.w3.org/1999/xlink" version="1.1" x="0" y="0" height="230" width="800" viewBox="0 0 800 230" preserveAspectRatio="none"  >
<g label="Query sequence" class="clusterblast-cluster"  >
<text x="5" y="20" class="clusterblast-acc"  >
Query sequence</text>
<line x1="10" y1="35" x2="778.0" y2="35" style="stroke-width:1; stroke:grey; "  />
<polygon points="0,40 14,40 19,35 14,30 0,30 0,40 " style="fill:white; stroke-width:1; stroke:black; " description="&lt;b&gt;ctg1_19&lt;/b&gt;&lt;br&gt;ctg1 19&lt;br&gt;Location: 20789 - 22121" locus_tag="ctg1_19" class="clusterblast-orf" id="dummy-1_q0_0_all"  />
<polygon points="20,40 23,35 20,30 20,40 " style="fill:#d81515; stroke-width:1; stroke:black; " description="&lt;b&gt;ctg1_20&lt;/b&gt;&lt;br&gt;ctg1 20&lt;br&gt;Location: 22126 - 22333" locus_tag="ctg1_20" class="clusterblast-orf" id="dummy-1_q1_0_all"  />
<polygon points="24,40 29,40 34,35 29,30 24,30 24,40 " style="fill:white; stroke-width:1; stroke:black; " description="&lt;b&gt;ctg1_21&lt;/b&gt;&lt;br&gt;ctg1 21&lt;br&gt;Location: 22451 - 23111" locus_tag="ctg1_21" class="clusterblast-orf" id="dummy-1_q2_0_all"  />
<polygon points="34,35 39,30 50,30 50,40 39,40 34,35 " style="fill:#4dd815; stroke-width:1; stroke:black; " description="&lt;b&gt;ctg1_22&lt;/b&gt;&lt;br&gt;ctg1 22&lt;br&gt;Location: 23130 - 24201" locus_tag="ctg1_22" class="clusterblast-orf" id="dummy-1_q3_0_all"  />
<polygon points="50,35 55,30 67,30 67,40 55,40 50,35 " style="fill:#1585d8; stroke-width:1; stroke:black; " description="&lt;b&gt;ctg1_23&lt;/b&gt;&lt;br&gt;ctg1 23&lt;br&gt;Location: 24197 - 25307" locus_tag="ctg1_23" class="clusterblast-orf" id="dummy-1_q4_0_all"  />
<polygon points="67,35 72,30 88,30 88,40 72,40 67,35 " style="fill:#a115d8; stroke-width:1; stroke:black; " description="&lt;b&gt;ctg1_24&lt;/b&gt;&lt;br&gt;ctg1 24&lt;br&gt;Location: 25334 - 26705" locus_tag="ctg1_24" class="clusterblast-orf" id="dummy-1_q5_0_all"  />
<polygon points="88,35 93,30 100,30 100,40 93,40 88,35 " style="fill:#d86915; stroke-width:1; stroke:black; " description="&lt;b&gt;ctg1_25&lt;/b&gt;&lt;br&gt;ctg1 25&lt;br&gt;Location: 26701 - 27508" locus_tag="ctg1_25" class="clusterblast-orf" id="dummy-1_q6_0_all"  />
<polygon points="100,35 105,30 112,30 112,40 105,40 100,35 " style="fill:#15d831; stroke-width:1; stroke:black; " description="&lt;b&gt;ctg1_26&lt;/b&gt;&lt;br&gt;ctg1 26&lt;br&gt;Location: 27507 - 28320" locus_tag="ctg1_26" class="clusterblast-orf" id="dummy-1_q7_0_all"  />
<polygon points="112,35 117,30 118,30 118,40 117,40 112,35 " style="fill:#1531d8; stroke-width:1; stroke:black; " description="&lt;b&gt;ctg1_27&lt;/b&gt;&lt;br&gt;ctg1 27&lt;br&gt;Location: 28316 - 28772" locus_tag="ctg1_27" class="clusterblast-orf" id="dummy-1_q8_0_all"  />
<polygon points="118,35 123,30 136,30 136,40 123,40 118,35 " style="fill:#d815bc; stroke-width:1; stroke:black; " description="&lt;b&gt;ctg1_28&lt;/b&gt;&lt;br&gt;ctg1 28&lt;br&gt;Location: 28768 - 29938" locus_tag="ctg1_28" class="clusterblast-orf" id="dummy-1_q9_0_all"  />
<polygon points="136,35 140,30 140,40 136,35 " style="fill:#d8bc15; stroke-width:1; stroke:black; " description="&lt;b&gt;ctg1_29&lt;/b&gt;&lt;br&gt;ctg1 29&lt;br&gt;Location: 29934 - 30219" locus_tag="ctg1_29" class="clusterblast-orf" id="dummy-1_q10_0_all"  />
<polygon points="140,35 145,30 175,30 175,40 145,40 140,35 " style="fill:#15d885; stroke-width:1; stroke:black; " description="&lt;b&gt;ctg1_30&lt;/b&gt;&lt;br&gt;ctg1 30&lt;br&gt;Location: 30191 - 32564" locus_tag="ctg1_30" class="clusterblast-orf" id="dummy-1_q11_0_all"  />
<polygon points="175,35 180,30 182,30 182,40 180,40 175,35 " style="fill:#4d15d8; stroke-width:1; stroke:black; " description="&lt;b&gt;ctg1_31&lt;/b&gt;&lt;br&gt;ctg1 31&lt;br&gt;Location: 32556 - 33078" locus_tag="ctg1_31" class="clusterblast-orf" id="dummy-1_q12_0_all"  />
<polygon points="185,40 217,40 222,35 217,30 185,30 185,40 " style="fill:white; stroke-width:1; stroke:black; " description="&lt;b&gt;ctg1_32&lt;/b&gt;&lt;br&gt;ctg1 32&lt;br&gt;Location: 33274 - 35701" locus_tag="ctg1_32" class="clusterblast-orf" id="dummy-1_q13_0_all"  />
<polygon points="226,35 231,30 249,30 249,40 231,40 226,35 " style="fill:white; stroke-width:1; stroke:black; " description="&lt;b&gt;ctg1_33&lt;/b&gt;&lt;br&gt;ctg1 33&lt;br&gt;Location: 36030 - 37515" locus_tag="ctg1_33" class="clusterblast-orf" id="dummy-1_q14_0_all"  />
<polygon points="254,35 259,30 266,30 266,40 259,40 254,35 " style="fill:#d81569; stroke-width:1; stroke:black; " description="&lt;b&gt;ctg1_34&lt;/b&gt;&lt;br&gt;ctg1 34&lt;br&gt;Location: 37865 - 38705" locus_tag="ctg1_34" class="clusterblast-orf" id="dummy-1_q15_0_all"  />
<polygon points="272,35 277,30 292,30 292,40 277,40 272,35 " style="fill:white; stroke-width:1; stroke:black; " description="&lt;b&gt;ctg1_35&lt;/b&gt;&lt;br&gt;ctg1 35&lt;br&gt;Location: 39094 - 40438" locus_tag="ctg1_35" class="clusterblast-orf" id="dummy-1_q16_0_all"  />
<polygon points="293,35 298,30 329,30 329,40 298,40 293,35 " style="fill:#a1d815; stroke-width:1; stroke:black; " description="&lt;b&gt;ctg1_36&lt;/b&gt;&lt;br&gt;ctg1 36&lt;br&gt;Location: 40484 - 42905" locus_tag="ctg1_36" class="clusterblast-orf" id="dummy-1_q17_0_all"  />
<polygon points="329,35 334,30 496,30 496,40 334,40 329,35 " style="fill:#a1d815; stroke-width:1; stroke:black; " description="&lt;b&gt;ctg1_37&lt;/b&gt;&lt;br&gt;ctg1 37&lt;br&gt;Location: 42901 - 54178" locus_tag="ctg1_37" class="clusterblast-orf" id="dummy-1_q18_0_all"  />
<polygon points="496,35 498,30 498,40 496,35 " style="fill:white; stroke-width:1; stroke:black; " description="&lt;b&gt;ctg1_38&lt;/b&gt;&lt;br&gt;ctg1 38&lt;br&gt;Location: 54170 - 54281" locus_tag="ctg1_38" class="clusterblast-orf" id="dummy-1_q19_0_all"  />
<polygon points="513,40 534,40 539,35 534,30 513,30 513,40 " style="fill:white; stroke-width:1; stroke:black; " description="&lt;b&gt;ctg1_39&lt;/b&gt;&lt;br&gt;ctg1 39&lt;br&gt;Location: 55265 - 57056" locus_tag="ctg1_39" class="clusterblast-orf" id="dummy-1_q20_0_all"  />
<polygon points="539,40 549,40 554,35 549,30 539,30 539,40 " style="fill:white; stroke-width:1; stroke:black; " description="&lt;b&gt;ctg1_40&lt;/b&gt;&lt;br&gt;ctg1 40&lt;br&gt;Location: 57055 - 58054" locus_tag="ctg1_40" class="clusterblast-orf" id="dummy-1_q21_0_all"  />
<polygon points="558,35 563,30 564,30 564,40 563,40 558,35 " style="fill:white; stroke-width:1; stroke:black; " description="&lt;b&gt;ctg1_41&lt;/b&gt;&lt;br&gt;ctg1 41&lt;br&gt;Location: 58327 - 58720" locus_tag="ctg1_41" class="clusterblast-orf" id="dummy-1_q22_0_all"  />
<polygon points="564,35 565,30 565,40 564,35 " style="fill:white; stroke-width:1; stroke:black; " description="&lt;b&gt;ctg1_42&lt;/b&gt;&lt;br&gt;ctg1 42&lt;br&gt;Location: 58716 - 58809" locus_tag="ctg1_42" class="clusterblast-orf" id="dummy-1_q23_0_all"  />
<polygon points="566,40 570,40 575,35 570,30 566,30 566,40 " style="fill:white; stroke-width:1; stroke:black; " description="&lt;b&gt;ctg1_43&lt;/b&gt;&lt;br&gt;ctg1 43&lt;br&gt;Location: 58839 - 59445" locus_tag="ctg1_43" class="clusterblast-orf" id="dummy-1_q24_0_all"  />
<polygon points="575,40 583,40 588,35 583,30 575,30 575,40 " style="fill:white; stroke-width:1; stroke:black; " description="&lt;b&gt;ctg1_44&lt;/b&gt;&lt;br&gt;ctg1 44&lt;br&gt;Location: 59441 - 60344" locus_tag="ctg1_44" class="clusterblast-orf" id="dummy-1_q25_0_all"  />
<polygon points="588,40 624,40 629,35 624,30 588,30 588,40 " style="fill:white; stroke-width:1; stroke:black; " description="&lt;b&gt;ctg1_45&lt;/b&gt;&lt;br&gt;ctg1 45&lt;br&gt;Location: 60340 - 63115" locus_tag="ctg1_45" class="clusterblast-orf" id="dummy-1_q26_0_all"  />
<polygon points="638,35 643,30 655,30 655,40 643,40 638,35 " style="fill:white; stroke-width:1; stroke:black; " description="&lt;b&gt;ctg1_46&lt;/b&gt;&lt;br&gt;ctg1 46&lt;br&gt;Location: 63678 - 64821" locus_tag="ctg1_46" class="clusterblast-orf" id="dummy-1_q27_0_all"  />
<polygon points="657,35 662,30 663,30 663,40 662,40 657,35 " style="fill:white; stroke-width:1; stroke:black; " description="&lt;b&gt;ctg1_47&lt;/b&gt;&lt;br&gt;ctg1 47&lt;br&gt;Location: 64988 - 65348" locus_tag="ctg1_47" class="clusterblast-orf" id="dummy-1_q28_0_all"  />
<polygon points="665,40 666,35 665,30 665,40 " style="fill:white; stroke-width:1; stroke:black; " description="&lt;b&gt;ctg1_48&lt;/b&gt;&lt;br&gt;ctg1 48&lt;br&gt;Location: 65498 - 65594" locus_tag="ctg1_48" class="clusterblast-orf" id="dummy-1_q29_0_all"  />
<polygon points="669,35 674,30 682,30 682,40 674,40 669,35 " style="fill:white; stroke-width:1; stroke:black; " description="&lt;b&gt;ctg1_49&lt;/b&gt;&lt;br&gt;ctg1 49&lt;br&gt;Location: 65762 - 66668" locus_tag="ctg1_49" class="clusterblast-orf" id="dummy-1_q30_0_all"  />
<polygon points="683,35 688,30 699,30 699,40 688,40 683,35 " style="fill:white; stroke-width:1; stroke:black; " description="&lt;b&gt;ctg1_50&lt;/b&gt;&lt;br&gt;ctg1 50&lt;br&gt;Location: 66720 - 67803" locus_tag="ctg1_50" class="clusterblast-orf" id="dummy-1_q31_0_all"  />
<polygon points="700,35 705,30 715,30 715,40 705,40 700,35 " style="fill:white; stroke-width:1; stroke:black; " description="&lt;b&gt;ctg1_51&lt;/b&gt;&lt;br&gt;ctg1 51&lt;br&gt;Location: 67850 - 68861" locus_tag="ctg1_51" class="clusterblast-orf" id="dummy-1_q32_0_all"  />
<polygon points="721,35 724,30 724,40 721,35 " style="fill:white; stroke-width:1; stroke:black; " description="&lt;b&gt;ctg1_52&lt;/b&gt;&lt;br&gt;ctg1 52&lt;br&gt;Location: 69275 - 69461" locus_tag="ctg1_52" class="clusterblast-orf" id="dummy-1_q33_0_all"  />
<polygon points="726,35 731,30 738,30 738,40 731,40 726,35 " style="fill:white; stroke-width:1; stroke:black; " description="&lt;b&gt;ctg1_53&lt;/b&gt;&lt;br&gt;ctg1 53&lt;br&gt;Location: 69605 - 70400" locus_tag="ctg1_53" class="clusterblast-orf" id="dummy-1_q34_0_all"  />
<polygon points="740,40 747,40 752,35 747,30 740,30 740,40 " style="fill:white; stroke-width:1; stroke:black; " description="&lt;b&gt;ctg1_54&lt;/b&gt;&lt;br&gt;ctg1 54&lt;br&gt;Location: 70523 - 71357" locus_tag="ctg1_54" class="clusterblast-orf" id="dummy-1_q35_0_all"  />
<polygon points="751,40 768,40 773,35 768,30 751,30 751,40 " style="fill:#15d8d8; stroke-width:1; stroke:black; " description="&lt;b&gt;ctg1_55&lt;/b&gt;&lt;br&gt;ctg1 55&lt;br&gt;Location: 71317 - 72736" locus_tag="ctg1_55" class="clusterblast-orf" id="dummy-1_q36_0_all"  />
<polygon points="772,40 775,40 780,35 775,30 772,30 772,40 " style="fill:white; stroke-width:1; stroke:black; " description="&lt;b&gt;ctg1_56&lt;/b&gt;&lt;br&gt;ctg1 56&lt;br&gt;Location: 72725 - 73211" locus_tag="ctg1_56" class="clusterblast-orf" id="dummy-1_q37_0_all"  />
</g>
<g label="NZ_JABQ01000036" description="NZ_JABQ01000036_c22: Streptomyces sp. PRh5 contig036, whole genome shotgun se... (31% of genes show similarity), other" class="clusterblast-cluster"  >
<text x="5" y="70" class="clusterblast-acc"  >
<a xlink:href="https://antismash-db.secondarymetabolites.org/go/NZ_JABQ01000036/22" target="_blank">NZ_JABQ01000036_c22</a>: Streptomyces sp. PRh5 contig036, whole genome shotgun se... (31% of genes show similarity), other</text>
<line x1="10" y1="85" x2="778.0" y2="85" style="stroke-width:1; stroke:grey; "  />
</g>
<g id="a1_000"  >
<polygon points="79,85 84,80 89,80 89,90 84,90 79,85 " style="fill:white; stroke-width:1; stroke:black; " description="&lt;b&gt;Z951_RS23275&lt;/b&gt;&lt;br&gt;CBS domain-containing protein&lt;br&gt;Location: 28271 - 28945" locus_tag="Z951_RS23275" class="clusterblast-orf" id="dummy-1_h1_2_0"  />
</g>
<g id="a1_001"  >
<polygon points="92,90 106,90 111,85 106,80 92,80 92,90 " style="fill:#d81515; stroke-width:1; stroke:black; " description="&lt;b&gt;Z951_RS23280&lt;/b&gt;&lt;br&gt;DUF1918 domain-containing protein&lt;br&gt;Location: 29188 - 30426&lt;br&gt;&lt;br&gt;&lt;b&gt;BlastP hit with ctg1_20&lt;/b&gt;&lt;br&gt;Percentage identity: 67&lt;br&gt;Percentage coverage: 85&lt;br&gt;BLAST bit score: 87&lt;br&gt;E-value: 6e-16" locus_tag="Z951_RS23280" class="clusterblast-orf" id="dummy-1_h1_2_1"  />
</g>
<g id="a1_002"  >
<polygon points="111,85 116,80 121,80 121,90 116,90 111,85 " style="fill:white; stroke-width:1; stroke:black; " description="&lt;b&gt;Z951_RS23285&lt;/b&gt;&lt;br&gt;CBS domain-containing protein&lt;br&gt;Location: 30459 - 31124" locus_tag="Z951_RS23285" class="clusterblast-orf" id="dummy-1_h1_2_2"  />
</g>
<g id="a1_003"  >
<polygon points="122,85 127,80 138,80 138,90 127,90 122,85 " style="fill:#4dd815; stroke-width:1; stroke:black; " description="&lt;b&gt;Z951_RS23290&lt;/b&gt;&lt;br&gt;hydrogenase expression/formation protein HypE&lt;br&gt;Location: 31218 - 32279&lt;br&gt;&lt;br&gt;&lt;b&gt;BlastP hit with ctg1_22&lt;/b&gt;&lt;br&gt;Percentage identity: 50&lt;br&gt;Percentage coverage: 100&lt;br&gt;BLAST bit score: 295&lt;br&gt;E-value: 9.9e-78" locus_tag="Z951_RS23290" class="clusterblast-orf" id="dummy-1_h1_2_3"  />
</g>
<g id="a1_004"  >
<polygon points="138,85 143,80 155,80 155,90 143,90 138,85 " style="fill:#1585d8; stroke-width:1; stroke:black; " description="&lt;b&gt;Z951_RS23295&lt;/b&gt;&lt;br&gt;hydrogenase formation protein HypD&lt;br&gt;Location: 32272 - 33393&lt;br&gt;&lt;br&gt;&lt;b&gt;BlastP hit with ctg1_23&lt;/b&gt;&lt;br&gt;Percentage identity: 59&lt;br&gt;Percentage coverage: 98&lt;br&gt;BLAST bit score: 445&lt;br&gt;E-value: 8e-123" locus_tag="Z951_RS23295" class="clusterblast-orf" id="dummy-1_h1_2_4"  />
</g>
<g id="a1_005"  >
<polygon points="155,85 159,80 159,90 155,85 " style="fill:#d8bc15; stroke-width:1; stroke:black; " description="&lt;b&gt;Z951_RS23300&lt;/b&gt;&lt;br&gt;HypC/HybG/HupF family hydrogenase formation chaperone&lt;br&gt;Location: 33390 - 33689&lt;br&gt;&lt;br&gt;&lt;b&gt;BlastP hit with ctg1_29&lt;/b&gt;&lt;br&gt;Percentage identity: 46&lt;br&gt;Percentage coverage: 95&lt;br&gt;BLAST bit score: 81&lt;br&gt;E-value: 5.9e-14" locus_tag="Z951_RS23300" class="clusterblast-orf" id="dummy-1_h1_2_5"  />
</g>
<g id="a1_006"  >
<polygon points="160,85 165,80 194,80 194,90 165,90 160,85 " style="fill:#15d885; stroke-width:1; stroke:black; " description="&lt;b&gt;Z951_RS23305&lt;/b&gt;&lt;br&gt;carbamoyltransferase HypF&lt;br&gt;Location: 33708 - 36023&lt;br&gt;&lt;br&gt;&lt;b&gt;BlastP hit with ctg1_30&lt;/b&gt;&lt;br&gt;Percentage identity: 48&lt;br&gt;Percentage coverage: 97&lt;br&gt;BLAST bit score: 504&lt;br&gt;E-value: 2.4e-140" locus_tag="Z951_RS23305" class="clusterblast-orf" id="dummy-1_h1_2_6"  />
</g>
<g id="a1_007"  >
<polygon points="197,85 202,80 204,80 204,90 202,90 197,85 " style="fill:#4d15d8; stroke-width:1; stroke:black; " description="&lt;b&gt;Z951_RS23310&lt;/b&gt;&lt;br&gt;hydrogenase maturation protease&lt;br&gt;Location: 36210 - 36719&lt;br&gt;&lt;br&gt;&lt;b&gt;BlastP hit with ctg1_31&lt;/b&gt;&lt;br&gt;Percentage identity: 52&lt;br&gt;Percentage coverage: 88&lt;br&gt;BLAST bit score: 141&lt;br&gt;E-value: 8.9e-32" locus_tag="Z951_RS23310" class="clusterblast-orf" id="dummy-1_h1_2_7"  />
</g>
<g id="a1_008"  >
<polygon points="204,85 209,80 224,80 224,90 209,90 204,85 " style="fill:#a115d8; stroke-width:1; stroke:black; " description="&lt;b&gt;Z951_RS23315&lt;/b&gt;&lt;br&gt;dehydrogenase&lt;br&gt;Location: 36716 - 38071&lt;br&gt;&lt;br&gt;&lt;b&gt;BlastP hit with ctg1_24&lt;/b&gt;&lt;br&gt;Percentage identity: 68&lt;br&gt;Percentage coverage: 100&lt;br&gt;BLAST bit score: 626&lt;br&gt;E-value: 3.1e-177" locus_tag="Z951_RS23315" class="clusterblast-orf" id="dummy-1_h1_2_8"  />
</g>
<g id="a1_009"  >
<polygon points="224,85 229,80 237,80 237,90 229,90 224,85 " style="fill:#d86915; stroke-width:1; stroke:black; " description="&lt;b&gt;Z951_RS23320&lt;/b&gt;&lt;br&gt;oxidoreductase&lt;br&gt;Location: 38068 - 38910&lt;br&gt;&lt;br&gt;&lt;b&gt;BlastP hit with ctg1_25&lt;/b&gt;&lt;br&gt;Percentage identity: 72&lt;br&gt;Percentage coverage: 97&lt;br&gt;BLAST bit score: 388&lt;br&gt;E-value: 4.9e-106" locus_tag="Z951_RS23320" class="clusterblast-orf" id="dummy-1_h1_2_9"  />
</g>
<g id="a1_0010"  >
<polygon points="237,85 242,80 249,80 249,90 242,90 237,85 " style="fill:#15d831; stroke-width:1; stroke:black; " description="&lt;b&gt;Z951_RS23325&lt;/b&gt;&lt;br&gt;oxidoreductase&lt;br&gt;Location: 38912 - 39724&lt;br&gt;&lt;br&gt;&lt;b&gt;BlastP hit with ctg1_26&lt;/b&gt;&lt;br&gt;Percentage identity: 63&lt;br&gt;Percentage coverage: 99&lt;br&gt;BLAST bit score: 343&lt;br&gt;E-value: 2.4e-92" locus_tag="Z951_RS23325" class="clusterblast-orf" id="dummy-1_h1_2_10"  />
</g>
<g id="a1_0011"  >
<polygon points="249,85 254,80 256,80 256,90 254,90 249,85 " style="fill:#1531d8; stroke-width:1; stroke:black; " description="&lt;b&gt;Z951_RS23330&lt;/b&gt;&lt;br&gt;cyclic nucleotide-binding domain-containing protein&lt;br&gt;Location: 39721 - 40176&lt;br&gt;&lt;br&gt;&lt;b&gt;BlastP hit with ctg1_27&lt;/b&gt;&lt;br&gt;Percentage identity: 50&lt;br&gt;Percentage coverage: 96&lt;br&gt;BLAST bit score: 150&lt;br&gt;E-value: 1.3e-34" locus_tag="Z951_RS23330" class="clusterblast-orf" id="dummy-1_h1_2_11"  />
</g>
<g id="a1_0012"  >
<polygon points="256,85 261,80 273,80 273,90 261,90 256,85 " style="fill:#d815bc; stroke-width:1; stroke:black; " description="&lt;b&gt;Z951_RS23335&lt;/b&gt;&lt;br&gt;4Fe-4S ferredoxin&lt;br&gt;Location: 40173 - 41330&lt;br&gt;&lt;br&gt;&lt;b&gt;BlastP hit with ctg1_28&lt;/b&gt;&lt;br&gt;Percentage identity: 73&lt;br&gt;Percentage coverage: 93&lt;br&gt;BLAST bit score: 546&lt;br&gt;E-value: 2.7e-153" locus_tag="Z951_RS23335" class="clusterblast-orf" id="dummy-1_h1_2_12"  />
</g>
<g id="a1_0013"  >
<polygon points="276,85 281,80 283,80 283,90 281,90 276,85 " style="fill:white; stroke-width:1; stroke:black; " description="&lt;b&gt;Z951_RS23340&lt;/b&gt;&lt;br&gt;N-acetyltransferase&lt;br&gt;Location: 41539 - 42033" locus_tag="Z951_RS23340" class="clusterblast-orf" id="dummy-1_h1_2_13"  />
</g>
<g id="a1_0014"  >
<polygon points="286,90 308,90 313,85 308,80 286,80 286,90 " style="fill:white; stroke-width:1; stroke:black; " description="&lt;b&gt;Z951_RS23345&lt;/b&gt;&lt;br&gt;carbamoyltransferase&lt;br&gt;Location: 42235 - 44016" locus_tag="Z951_RS23345" class="clusterblast-orf" id="dummy-1_h1_2_14"  />
</g>
<g id="a1_0015"  >
<polygon points="314,85 319,80 320,80 320,90 319,90 314,85 " style="fill:white; stroke-width:1; stroke:black; " description="&lt;b&gt;Z951_RS23350&lt;/b&gt;&lt;br&gt;hypothetical protein&lt;br&gt;Location: 44061 - 44498" locus_tag="Z951_RS23350" class="clusterblast-orf" id="dummy-1_h1_2_15"  />
</g>
<g id="a1_0016"  >
<polygon points="321,85 326,80 350,80 350,90 326,90 321,85 " style="fill:white; stroke-width:1; stroke:black; " description="&lt;b&gt;Z951_RS23355&lt;/b&gt;&lt;br&gt;aminotransferase class I/II&lt;br&gt;Location: 44529 - 46496" locus_tag="Z951_RS23355" class="clusterblast-orf" id="dummy-1_h1_2_16"  />
</g>
<g id="a1_0017"  >
<polygon points="350,85 355,80 364,80 364,90 355,90 350,85 " style="fill:white; stroke-width:1; stroke:black; " description="&lt;b&gt;Z951_RS23360&lt;/b&gt;&lt;br&gt;NAD(P)-dependent oxidoreductase&lt;br&gt;Location: 46519 - 47475" locus_tag="Z951_RS23360" class="clusterblast-orf" id="dummy-1_h1_2_17"  />
</g>
<g id="a1_0018"  >
<polygon points="365,85 370,80 406,80 406,90 370,90 365,85 " style="fill:white; stroke-width:1; stroke:black; " description="&lt;b&gt;Z951_RS23365&lt;/b&gt;&lt;br&gt;peptide synthetase&lt;br&gt;Location: 47520 - 50258" locus_tag="Z951_RS23365" class="clusterblast-orf" id="dummy-1_h1_2_18"  />
</g>
<g id="a1_0019"  >
<polygon points="410,85 415,80 427,80 427,90 415,90 410,85 " style="fill:white; stroke-width:1; stroke:black; " description="&lt;b&gt;Z951_RS23370&lt;/b&gt;&lt;br&gt;argininosuccinate lyase 2&lt;br&gt;Location: 50518 - 51687" locus_tag="Z951_RS23370" class="clusterblast-orf" id="dummy-1_h1_2_19"  />
</g>
<g id="a1_0020"  >
<polygon points="433,90 441,90 446,85 441,80 433,80 433,90 " style="fill:#d81569; stroke-width:1; stroke:black; " description="&lt;b&gt;Z951_RS23375&lt;/b&gt;&lt;br&gt;XRE family transcriptional regulator&lt;br&gt;Location: 52085 - 52936&lt;br&gt;&lt;br&gt;&lt;b&gt;BlastP hit with ctg1_34&lt;/b&gt;&lt;br&gt;Percentage identity: 36&lt;br&gt;Percentage coverage: 96&lt;br&gt;BLAST bit score: 153&lt;br&gt;E-value: 2.8e-35" locus_tag="Z951_RS23375" class="clusterblast-orf" id="dummy-1_h1_2_20"  />
</g>
<g id="a1_0021"  >
<polygon points="447,85 452,80 462,80 462,90 452,90 447,85 " style="fill:white; stroke-width:1; stroke:black; " description="&lt;b&gt;Z951_RS23380&lt;/b&gt;&lt;br&gt;type I glyceraldehyde-3-phosphate dehydrogenase&lt;br&gt;Location: 53009 - 54007" locus_tag="Z951_RS23380" class="clusterblast-orf" id="dummy-1_h1_2_21"  />
</g>
<g id="a1_0022"  >
<polygon points="464,85 469,80 478,80 478,90 469,90 464,85 " style="fill:white; stroke-width:1; stroke:black; " description="&lt;b&gt;Z951_RS23385&lt;/b&gt;&lt;br&gt;AraC family transcriptional regulator&lt;br&gt;Location: 54140 - 55087" locus_tag="Z951_RS23385" class="clusterblast-orf" id="dummy-1_h1_2_22"  />
</g>
<g id="a1_0023"  >
<polygon points="535,85 540,80 546,80 546,90 540,90 535,85 " style="fill:white; stroke-width:1; stroke:black; " description="&lt;b&gt;Z951_RS48165&lt;/b&gt;&lt;br&gt;purine phosphorylase&lt;br&gt;Location: 58927 - 59670" locus_tag="Z951_RS48165" class="clusterblast-orf" id="dummy-1_h1_2_23"  />
</g>
<g id="a1_0024"  >
<polygon points="549,90 560,90 565,85 560,80 549,80 549,90 " style="fill:white; stroke-width:1; stroke:black; " description="&lt;b&gt;Z951_RS23395&lt;/b&gt;&lt;br&gt;esterase&lt;br&gt;Location: 59872 - 60933" locus_tag="Z951_RS23395" class="clusterblast-orf" id="dummy-1_h1_2_24"  />
</g>
<g id="a1_0025"  >
<polygon points="565,85 568,80 568,90 565,85 " style="fill:white; stroke-width:1; stroke:black; " description="&lt;b&gt;Z951_RS23400&lt;/b&gt;&lt;br&gt;hypothetical protein&lt;br&gt;Location: 60965 - 61171" locus_tag="Z951_RS23400" class="clusterblast-orf" id="dummy-1_h1_2_25"  />
</g>
<g id="a1_0026"  >
<polygon points="571,90 577,90 582,85 577,80 571,80 571,90 " style="fill:white; stroke-width:1; stroke:black; " description="&lt;b&gt;Z951_RS23405&lt;/b&gt;&lt;br&gt;class I SAM-dependent methyltransferase&lt;br&gt;Location: 61365 - 62108" locus_tag="Z951_RS23405" class="clusterblast-orf" id="dummy-1_h1_2_26"  />
</g>
<g id="a1_0027"  >
<polygon points="582,85 584,80 584,90 582,85 " style="fill:white; stroke-width:1; stroke:black; " description="&lt;b&gt;Z951_RS50125&lt;/b&gt;&lt;br&gt;nucleoside-diphosphate sugar epimerase&lt;br&gt;Location: 62123 - 62260" locus_tag="Z951_RS50125" class="clusterblast-orf" id="dummy-1_h1_2_27"  />
</g>
<g id="a1_0028"  >
<polygon points="586,85 589,80 589,90 586,85 " style="fill:white; stroke-width:1; stroke:black; " description="&lt;b&gt;Z951_RS23410&lt;/b&gt;&lt;br&gt;short-chain dehydrogenase&lt;br&gt;Location: 62367 - 62567" locus_tag="Z951_RS23410" class="clusterblast-orf" id="dummy-1_h1_2_28"  />
</g>
<g id="a1_0029"  >
<polygon points="589,85 594,80 603,80 603,90 594,90 589,85 " style="fill:white; stroke-width:1; stroke:black; " description="&lt;b&gt;Z951_RS23415&lt;/b&gt;&lt;br&gt;NADP-dependent oxidoreductase&lt;br&gt;Location: 62595 - 63518" locus_tag="Z951_RS23415" class="clusterblast-orf" id="dummy-1_h1_2_29"  />
</g>
<g id="a1_0030"  >
<polygon points="604,90 608,90 613,85 608,80 604,80 604,90 " style="fill:white; stroke-width:1; stroke:black; " description="&lt;b&gt;Z951_RS23420&lt;/b&gt;&lt;br&gt;TetR family transcriptional regulator&lt;br&gt;Location: 63599 - 64180" locus_tag="Z951_RS23420" class="clusterblast-orf" id="dummy-1_h1_2_30"  />
</g>
<g id="a1_0031"  >
<polygon points="615,85 620,80 620,80 620,90 620,90 615,85 " style="fill:white; stroke-width:1; stroke:black; " description="&lt;b&gt;Z951_RS23425&lt;/b&gt;&lt;br&gt;transcriptional regulator&lt;br&gt;Location: 64335 - 64685" locus_tag="Z951_RS23425" class="clusterblast-orf" id="dummy-1_h1_2_31"  />
</g>
<g id="a1_0032"  >
<polygon points="621,90 630,90 635,85 630,80 621,80 621,90 " style="fill:white; stroke-width:1; stroke:black; " description="&lt;b&gt;Z951_RS23430&lt;/b&gt;&lt;br&gt;NAD(P)-dependent oxidoreductase&lt;br&gt;Location: 64744 - 65631" locus_tag="Z951_RS23430" class="clusterblast-orf" id="dummy-1_h1_2_32"  />
</g>
<g id="a1_0033"  >
<polygon points="636,85 641,80 646,80 646,90 641,90 636,85 " style="fill:white; stroke-width:1; stroke:black; " description="&lt;b&gt;Z951_RS23435&lt;/b&gt;&lt;br&gt;class I SAM-dependent methyltransferase&lt;br&gt;Location: 65739 - 66392" locus_tag="Z951_RS23435" class="clusterblast-orf" id="dummy-1_h1_2_33"  />
</g>
<g id="a1_0034"  >
<polygon points="647,85 652,80 655,80 655,90 652,90 647,85 " style="fill:white; stroke-width:1; stroke:black; " description="&lt;b&gt;Z951_RS23440&lt;/b&gt;&lt;br&gt;hypothetical protein&lt;br&gt;Location: 66461 - 67015" locus_tag="Z951_RS23440" class="clusterblast-orf" id="dummy-1_h1_2_34"  />
</g>
<g id="a1_0035"  >
<polygon points="655,85 660,80 688,80 688,90 660,90 655,85 " style="fill:white; stroke-width:1; stroke:black; " description="&lt;b&gt;Z951_RS23445&lt;/b&gt;&lt;br&gt;transcriptional regulator&lt;br&gt;Location: 67024 - 69237" locus_tag="Z951_RS23445" class="clusterblast-orf" id="dummy-1_h1_2_35"  />
</g>
<g id="a1_0036"  >
<polygon points="691,85 694,80 694,90 691,85 " style="fill:white; stroke-width:1; stroke:black; " description="&lt;b&gt;Z951_RS23450&lt;/b&gt;&lt;br&gt;hypothetical protein&lt;br&gt;Location: 69393 - 69632" locus_tag="Z951_RS23450" class="clusterblast-orf" id="dummy-1_h1_2_36"  />
</g>
<g id="a1_0037"  >
<polygon points="697,90 700,85 697,80 697,90 " style="fill:white; stroke-width:1; stroke:black; " description="&lt;b&gt;Z951_RS23455&lt;/b&gt;&lt;br&gt;spore-associated protein A&lt;br&gt;Location: 69845 - 70054" locus_tag="Z951_RS23455" class="clusterblast-orf" id="dummy-1_h1_2_37"  />
</g>
</svg>
