<svg xmlns="http://www.w3.org/2000/svg" xmlns:xlink="http://www.w3.org/1999/xlink" version="1.1" x="0" y="0" height="230" width="800" viewBox="0 0 800 230" preserveAspectRatio="none"  >
<g label="Query sequence" class="clusterblast-cluster"  >
<text x="5" y="20" class="clusterblast-acc"  >
Query sequence</text>
<line x1="10" y1="35" x2="778.0" y2="35" style="stroke-width:1; stroke:grey; "  />
<polygon points="203,35 208,30 210,30 210,40 208,40 203,35 " style="fill:white; stroke-width:1; stroke:black; " description="&lt;b&gt;ctg305_1&lt;/b&gt;&lt;br&gt;ctg305 1&lt;br&gt;Location: 0 - 123" locus_tag="ctg305_1" class="clusterblast-orf" id="dummy-1_q0_0_all"  />
<polygon points="212,40 234,40 239,35 234,30 212,30 212,40 " style="fill:#d81515; stroke-width:1; stroke:black; " description="&lt;b&gt;ctg305_2&lt;/b&gt;&lt;br&gt;ctg305 2&lt;br&gt;Location: 144 - 609" locus_tag="ctg305_2" class="clusterblast-orf" id="dummy-1_q1_0_all"  />
<polygon points="239,40 283,40 288,35 283,30 239,30 239,40 " style="fill:#4dd815; stroke-width:1; stroke:black; " description="&lt;b&gt;ctg305_3&lt;/b&gt;&lt;br&gt;ctg305 3&lt;br&gt;Location: 605 - 1460" locus_tag="ctg305_3" class="clusterblast-orf" id="dummy-1_q2_0_all"  />
<polygon points="287,40 388,40 393,35 388,30 287,30 287,40 " style="fill:#1585d8; stroke-width:1; stroke:black; " description="&lt;b&gt;ctg305_4&lt;/b&gt;&lt;br&gt;ctg305 4&lt;br&gt;Location: 1437 - 3264" locus_tag="ctg305_4" class="clusterblast-orf" id="dummy-1_q3_0_all"  />
<polygon points="401,40 420,40 425,35 420,30 401,30 401,40 " style="fill:#d815bc; stroke-width:1; stroke:black; " description="&lt;b&gt;ctg305_5&lt;/b&gt;&lt;br&gt;ctg305 5&lt;br&gt;Location: 3403 - 3817" locus_tag="ctg305_5" class="clusterblast-orf" id="dummy-1_q4_0_all"  />
<polygon points="427,40 507,40 512,35 507,30 427,30 427,40 " style="fill:#d8bc15; stroke-width:1; stroke:black; " description="&lt;b&gt;ctg305_6&lt;/b&gt;&lt;br&gt;ctg305 6&lt;br&gt;Location: 3837 - 5298" locus_tag="ctg305_6" class="clusterblast-orf" id="dummy-1_q5_0_all"  />
<polygon points="511,40 522,40 527,35 522,30 511,30 511,40 " style="fill:#15d885; stroke-width:1; stroke:black; " description="&lt;b&gt;ctg305_7&lt;/b&gt;&lt;br&gt;ctg305 7&lt;br&gt;Location: 5294 - 5567" locus_tag="ctg305_7" class="clusterblast-orf" id="dummy-1_q6_0_all"  />
<polygon points="528,35 533,30 577,30 577,40 533,40 528,35 " style="fill:#4d15d8; stroke-width:1; stroke:black; " description="&lt;b&gt;ctg305_8&lt;/b&gt;&lt;br&gt;ctg305 8&lt;br&gt;Location: 5578 - 6421" locus_tag="ctg305_8" class="clusterblast-orf" id="dummy-1_q7_0_all"  />
</g>
<g label="NZ_JNZK01000007" description="NZ_JNZK01000007_c7: Streptomyces globisporus subsp. globisporus strain NRRL B... (35% of genes show similarity), linaridin" class="clusterblast-cluster"  >
<text x="5" y="70" class="clusterblast-acc"  >
<a xlink:href="https://antismash-db.secondarymetabolites.org/go/NZ_JNZK01000007/7" target="_blank">NZ_JNZK01000007_c7</a>: Streptomyces globisporus subsp. globisporus strain NRRL B... (35% of genes show similarity), linaridin</text>
<line x1="10" y1="85" x2="778.0" y2="85" style="stroke-width:1; stroke:grey; "  />
</g>
<g id="a1_000"  >
<polygon points="0,90 0,90 5,85 0,80 0,80 0,90 " style="fill:white; stroke-width:1; stroke:black; " description="&lt;b&gt;IF53_RS1000000135735&lt;/b&gt;&lt;br&gt;IS5/IS1182 family transposase&lt;br&gt;Location: 230662 - 230576" locus_tag="IF53_RS1000000135735" class="clusterblast-orf" id="dummy-1_h1_9_0"  />
</g>
<g id="a1_001"  >
<polygon points="36,90 43,90 48,85 43,80 36,80 36,90 " style="fill:white; stroke-width:1; stroke:black; " description="&lt;b&gt;IF53_RS0110815&lt;/b&gt;&lt;br&gt;hypothetical protein&lt;br&gt;Location: 230033 - 229830" locus_tag="IF53_RS0110815" class="clusterblast-orf" id="dummy-1_h1_9_1"  />
</g>
<g id="a1_002"  >
<polygon points="79,90 85,90 90,85 85,80 79,80 79,90 " style="fill:white; stroke-width:1; stroke:black; " description="&lt;b&gt;IF53_RS0110805&lt;/b&gt;&lt;br&gt;hypothetical protein&lt;br&gt;Location: 229292 - 229098" locus_tag="IF53_RS0110805" class="clusterblast-orf" id="dummy-1_h1_9_2"  />
</g>
<g id="a1_003"  >
<polygon points="94,90 101,90 106,85 101,80 94,80 94,90 " style="fill:white; stroke-width:1; stroke:black; " description="&lt;b&gt;IF53_RS0110800&lt;/b&gt;&lt;br&gt;hypothetical protein&lt;br&gt;Location: 229038 - 228838" locus_tag="IF53_RS0110800" class="clusterblast-orf" id="dummy-1_h1_9_3"  />
</g>
<g id="a1_004"  >
<polygon points="138,90 241,90 246,85 241,80 138,80 138,90 " style="fill:white; stroke-width:1; stroke:black; " description="&lt;b&gt;IF53_RS0110795&lt;/b&gt;&lt;br&gt;thioesterase&lt;br&gt;Location: 228276 - 226426" locus_tag="IF53_RS0110795" class="clusterblast-orf" id="dummy-1_h1_9_4"  />
</g>
<g id="a1_005"  >
<polygon points="246,90 276,90 281,85 276,80 246,80 246,90 " style="fill:#d81515; stroke-width:1; stroke:black; " description="&lt;b&gt;IF53_RS0110790&lt;/b&gt;&lt;br&gt;hypothetical protein&lt;br&gt;Location: 226429 - 225821&lt;br&gt;&lt;br&gt;&lt;b&gt;BlastP hit with ctg305_2&lt;/b&gt;&lt;br&gt;Percentage identity: 59&lt;br&gt;Percentage coverage: 99&lt;br&gt;BLAST bit score: 191&lt;br&gt;E-value: 5.1e-47" locus_tag="IF53_RS0110790" class="clusterblast-orf" id="dummy-1_h1_9_5"  />
</g>
<g id="a1_006"  >
<polygon points="281,90 323,90 328,85 323,80 281,80 281,90 " style="fill:#4dd815; stroke-width:1; stroke:black; " description="&lt;b&gt;IF53_RS0110785&lt;/b&gt;&lt;br&gt;class I SAM-dependent methyltransferase&lt;br&gt;Location: 225824 - 225012&lt;br&gt;&lt;br&gt;&lt;b&gt;BlastP hit with ctg305_3&lt;/b&gt;&lt;br&gt;Percentage identity: 66&lt;br&gt;Percentage coverage: 86&lt;br&gt;BLAST bit score: 327&lt;br&gt;E-value: 1.1e-87" locus_tag="IF53_RS0110785" class="clusterblast-orf" id="dummy-1_h1_9_6"  />
</g>
<g id="a1_007"  >
<polygon points="328,90 433,90 438,85 433,80 328,80 328,90 " style="fill:#1585d8; stroke-width:1; stroke:black; " description="&lt;b&gt;IF53_RS0110780&lt;/b&gt;&lt;br&gt;ABC transporter ATP-binding protein&lt;br&gt;Location: 225015 - 223132&lt;br&gt;&lt;br&gt;&lt;b&gt;BlastP hit with ctg305_4&lt;/b&gt;&lt;br&gt;Percentage identity: 65&lt;br&gt;Percentage coverage: 98&lt;br&gt;BLAST bit score: 681&lt;br&gt;E-value: 1.1e-193" locus_tag="IF53_RS0110780" class="clusterblast-orf" id="dummy-1_h1_9_7"  />
</g>
<g id="a1_008"  >
<polygon points="438,90 518,90 523,85 518,80 438,80 438,90 " style="fill:#d8bc15; stroke-width:1; stroke:black; " description="&lt;b&gt;IF53_RS0110775&lt;/b&gt;&lt;br&gt;NAD(P)/FAD-dependent oxidoreductase&lt;br&gt;Location: 223126 - 221666&lt;br&gt;&lt;br&gt;&lt;b&gt;BlastP hit with ctg305_6&lt;/b&gt;&lt;br&gt;Percentage identity: 72&lt;br&gt;Percentage coverage: 99&lt;br&gt;BLAST bit score: 688&lt;br&gt;E-value: 4.2e-196" locus_tag="IF53_RS0110775" class="clusterblast-orf" id="dummy-1_h1_9_8"  />
</g>
<g id="a1_009"  >
<polygon points="526,85 531,80 585,80 585,90 531,90 526,85 " style="fill:#4d15d8; stroke-width:1; stroke:black; " description="&lt;b&gt;IF53_RS0110770&lt;/b&gt;&lt;br&gt;LuxR family transcriptional regulator&lt;br&gt;Location: 221609 - 220596&lt;br&gt;&lt;br&gt;&lt;b&gt;BlastP hit with ctg305_8&lt;/b&gt;&lt;br&gt;Percentage identity: 46&lt;br&gt;Percentage coverage: 102&lt;br&gt;BLAST bit score: 241&lt;br&gt;E-value: 1.3e-61" locus_tag="IF53_RS0110770" class="clusterblast-orf" id="dummy-1_h1_9_9"  />
</g>
<g id="a1_0010"  >
<polygon points="596,90 699,90 704,85 699,80 596,80 596,90 " style="fill:white; stroke-width:1; stroke:black; " description="&lt;b&gt;IF53_RS0110765&lt;/b&gt;&lt;br&gt;hypothetical protein&lt;br&gt;Location: 220406 - 218553" locus_tag="IF53_RS0110765" class="clusterblast-orf" id="dummy-1_h1_9_10"  />
</g>
<g id="a1_0011"  >
<polygon points="705,85 710,80 713,80 713,90 710,90 705,85 " style="fill:white; stroke-width:1; stroke:black; " description="&lt;b&gt;IF53_RS1000000135730&lt;/b&gt;&lt;br&gt;deacetylase&lt;br&gt;Location: 218529 - 218393" locus_tag="IF53_RS1000000135730" class="clusterblast-orf" id="dummy-1_h1_9_11"  />
</g>
<g id="a1_0012"  >
<polygon points="716,90 720,90 725,85 720,80 716,80 716,90 " style="fill:white; stroke-width:1; stroke:black; " description="&lt;b&gt;IF53_RS0110760&lt;/b&gt;&lt;br&gt;TetR family transcriptional regulator&lt;br&gt;Location: 218350 - 218183" locus_tag="IF53_RS0110760" class="clusterblast-orf" id="dummy-1_h1_9_12"  />
</g>
<g id="a1_0013"  >
<polygon points="734,90 775,90 780,85 775,80 734,80 734,90 " style="fill:white; stroke-width:1; stroke:black; " description="&lt;b&gt;IF53_RS0110755&lt;/b&gt;&lt;br&gt;hypothetical protein&lt;br&gt;Location: 218032 - 217253" locus_tag="IF53_RS0110755" class="clusterblast-orf" id="dummy-1_h1_9_13"  />
</g>
</svg>
