<svg xmlns="http://www.w3.org/2000/svg" xmlns:xlink="http://www.w3.org/1999/xlink" version="1.1" x="0" y="0" height="230" width="800" viewBox="0 0 800 230" preserveAspectRatio="none"  >
<g label="Query sequence" class="clusterblast-cluster"  >
<text x="5" y="20" class="clusterblast-acc"  >
Query sequence</text>
<line x1="10" y1="35" x2="778.0" y2="35" style="stroke-width:1; stroke:grey; "  />
<polygon points="262,35 267,30 267,30 267,40 267,40 262,35 " style="fill:white; stroke-width:1; stroke:black; " description="&lt;b&gt;ctg305_1&lt;/b&gt;&lt;br&gt;ctg305 1&lt;br&gt;Location: 0 - 123" locus_tag="ctg305_1" class="clusterblast-orf" id="dummy-1_q0_0_all"  />
<polygon points="268,40 282,40 287,35 282,30 268,30 268,40 " style="fill:#d81515; stroke-width:1; stroke:black; " description="&lt;b&gt;ctg305_2&lt;/b&gt;&lt;br&gt;ctg305 2&lt;br&gt;Location: 144 - 609" locus_tag="ctg305_2" class="clusterblast-orf" id="dummy-1_q1_0_all"  />
<polygon points="286,40 315,40 320,35 315,30 286,30 286,40 " style="fill:#4dd815; stroke-width:1; stroke:black; " description="&lt;b&gt;ctg305_3&lt;/b&gt;&lt;br&gt;ctg305 3&lt;br&gt;Location: 605 - 1460" locus_tag="ctg305_3" class="clusterblast-orf" id="dummy-1_q2_0_all"  />
<polygon points="319,40 387,40 392,35 387,30 319,30 319,40 " style="fill:#1585d8; stroke-width:1; stroke:black; " description="&lt;b&gt;ctg305_4&lt;/b&gt;&lt;br&gt;ctg305 4&lt;br&gt;Location: 1437 - 3264" locus_tag="ctg305_4" class="clusterblast-orf" id="dummy-1_q3_0_all"  />
<polygon points="398,40 409,40 414,35 409,30 398,30 398,40 " style="fill:#d815bc; stroke-width:1; stroke:black; " description="&lt;b&gt;ctg305_5&lt;/b&gt;&lt;br&gt;ctg305 5&lt;br&gt;Location: 3403 - 3817" locus_tag="ctg305_5" class="clusterblast-orf" id="dummy-1_q4_0_all"  />
<polygon points="415,40 468,40 473,35 468,30 415,30 415,40 " style="fill:#d8bc15; stroke-width:1; stroke:black; " description="&lt;b&gt;ctg305_6&lt;/b&gt;&lt;br&gt;ctg305 6&lt;br&gt;Location: 3837 - 5298" locus_tag="ctg305_6" class="clusterblast-orf" id="dummy-1_q5_0_all"  />
<polygon points="473,40 479,40 484,35 479,30 473,30 473,40 " style="fill:#15d885; stroke-width:1; stroke:black; " description="&lt;b&gt;ctg305_7&lt;/b&gt;&lt;br&gt;ctg305 7&lt;br&gt;Location: 5294 - 5567" locus_tag="ctg305_7" class="clusterblast-orf" id="dummy-1_q6_0_all"  />
<polygon points="484,35 489,30 517,30 517,40 489,40 484,35 " style="fill:#4d15d8; stroke-width:1; stroke:black; " description="&lt;b&gt;ctg305_8&lt;/b&gt;&lt;br&gt;ctg305 8&lt;br&gt;Location: 5578 - 6421" locus_tag="ctg305_8" class="clusterblast-orf" id="dummy-1_q7_0_all"  />
</g>
<g label="NZ_FPAB01000002" description="NZ_FPAB01000002_c6: Streptomyces harbinensis strain CGMCC 4.7047, whole genom... (41% of genes show similarity), linaridin" class="clusterblast-cluster"  >
<text x="5" y="70" class="clusterblast-acc"  >
<a xlink:href="https://antismash-db.secondarymetabolites.org/go/NZ_FPAB01000002/6" target="_blank">NZ_FPAB01000002_c6</a>: Streptomyces harbinensis strain CGMCC 4.7047, whole genom... (41% of genes show similarity), linaridin</text>
<line x1="10" y1="85" x2="778.0" y2="85" style="stroke-width:1; stroke:grey; "  />
</g>
<g id="a1_000"  >
<polygon points="0,85 5,80 16,80 16,90 5,90 0,85 " style="fill:white; stroke-width:1; stroke:black; " description="&lt;b&gt;BM385_RS07265&lt;/b&gt;&lt;br&gt;Na(+)/H(+) antiporter subunit C&lt;br&gt;Location: 659610 - 660035" locus_tag="BM385_RS07265" class="clusterblast-orf" id="dummy-1_h1_2_0"  />
</g>
<g id="a1_001"  >
<polygon points="16,85 21,80 131,80 131,90 21,90 16,85 " style="fill:white; stroke-width:1; stroke:black; " description="&lt;b&gt;BM385_RS07270&lt;/b&gt;&lt;br&gt;Na+/H+ antiporter subunit A&lt;br&gt;Location: 660032 - 662926" locus_tag="BM385_RS07270" class="clusterblast-orf" id="dummy-1_h1_2_1"  />
</g>
<g id="a1_002"  >
<polygon points="139,85 144,80 200,80 200,90 144,90 139,85 " style="fill:white; stroke-width:1; stroke:black; " description="&lt;b&gt;BM385_RS07275&lt;/b&gt;&lt;br&gt;DUF2867 domain-containing protein&lt;br&gt;Location: 663132 - 664652" locus_tag="BM385_RS07275" class="clusterblast-orf" id="dummy-1_h1_2_2"  />
</g>
<g id="a1_003"  >
<polygon points="206,90 224,90 229,85 224,80 206,80 206,90 " style="fill:white; stroke-width:1; stroke:black; " description="&lt;b&gt;BM385_RS07280&lt;/b&gt;&lt;br&gt;deaminase&lt;br&gt;Location: 664817 - 665380" locus_tag="BM385_RS07280" class="clusterblast-orf" id="dummy-1_h1_2_3"  />
</g>
<g id="a1_004"  >
<polygon points="230,85 235,80 278,80 278,90 235,90 230,85 " style="fill:white; stroke-width:1; stroke:black; " description="&lt;b&gt;BM385_RS07285&lt;/b&gt;&lt;br&gt;hypothetical protein&lt;br&gt;Location: 665400 - 666614" locus_tag="BM385_RS07285" class="clusterblast-orf" id="dummy-1_h1_2_4"  />
</g>
<g id="a1_005"  >
<polygon points="292,90 296,90 301,85 296,80 292,80 292,90 " style="fill:white; stroke-width:1; stroke:black; " description="&lt;b&gt;BM385_RS07290&lt;/b&gt;&lt;br&gt;hypothetical protein&lt;br&gt;Location: 666984 - 667202" locus_tag="BM385_RS07290" class="clusterblast-orf" id="dummy-1_h1_2_5"  />
</g>
<g id="a1_006"  >
<polygon points="305,90 376,90 381,85 376,80 305,80 305,90 " style="fill:white; stroke-width:1; stroke:black; " description="&lt;b&gt;BM385_RS07295&lt;/b&gt;&lt;br&gt;thioesterase&lt;br&gt;Location: 667308 - 669218" locus_tag="BM385_RS07295" class="clusterblast-orf" id="dummy-1_h1_2_6"  />
</g>
<g id="a1_007"  >
<polygon points="381,90 400,90 405,85 400,80 381,80 381,90 " style="fill:#d81515; stroke-width:1; stroke:black; " description="&lt;b&gt;BM385_RS07300&lt;/b&gt;&lt;br&gt;hypothetical protein&lt;br&gt;Location: 669215 - 669814&lt;br&gt;&lt;br&gt;&lt;b&gt;BlastP hit with ctg305_2&lt;/b&gt;&lt;br&gt;Percentage identity: 99&lt;br&gt;Percentage coverage: 100&lt;br&gt;BLAST bit score: 326&lt;br&gt;E-value: 1.3e-87" locus_tag="BM385_RS07300" class="clusterblast-orf" id="dummy-1_h1_2_7"  />
</g>
<g id="a1_008"  >
<polygon points="405,90 434,90 439,85 434,80 405,80 405,90 " style="fill:#4dd815; stroke-width:1; stroke:black; " description="&lt;b&gt;BM385_RS07305&lt;/b&gt;&lt;br&gt;class I SAM-dependent methyltransferase&lt;br&gt;Location: 669811 - 670665&lt;br&gt;&lt;br&gt;&lt;b&gt;BlastP hit with ctg305_3&lt;/b&gt;&lt;br&gt;Percentage identity: 98&lt;br&gt;Percentage coverage: 100&lt;br&gt;BLAST bit score: 540&lt;br&gt;E-value: 1.4e-151" locus_tag="BM385_RS07305" class="clusterblast-orf" id="dummy-1_h1_2_8"  />
</g>
<g id="a1_009"  >
<polygon points="438,90 505,90 510,85 505,80 438,80 438,90 " style="fill:#1585d8; stroke-width:1; stroke:black; " description="&lt;b&gt;BM385_RS07310&lt;/b&gt;&lt;br&gt;ABC transporter ATP-binding protein&lt;br&gt;Location: 670643 - 672469&lt;br&gt;&lt;br&gt;&lt;b&gt;BlastP hit with ctg305_4&lt;/b&gt;&lt;br&gt;Percentage identity: 96&lt;br&gt;Percentage coverage: 100&lt;br&gt;BLAST bit score: 1058&lt;br&gt;E-value: 2.5e-307" locus_tag="BM385_RS07310" class="clusterblast-orf" id="dummy-1_h1_2_9"  />
</g>
<g id="a1_0010"  >
<polygon points="516,90 527,90 532,85 527,80 516,80 516,90 " style="fill:#d815bc; stroke-width:1; stroke:black; " description="&lt;b&gt;BM385_RS07315&lt;/b&gt;&lt;br&gt;hypothetical protein&lt;br&gt;Location: 672609 - 673022&lt;br&gt;&lt;br&gt;&lt;b&gt;BlastP hit with ctg305_5&lt;/b&gt;&lt;br&gt;Percentage identity: 93&lt;br&gt;Percentage coverage: 100&lt;br&gt;BLAST bit score: 153&lt;br&gt;E-value: 1.8e-35" locus_tag="BM385_RS07315" class="clusterblast-orf" id="dummy-1_h1_2_10"  />
</g>
<g id="a1_0011"  >
<polygon points="533,90 586,90 591,85 586,80 533,80 533,90 " style="fill:#d8bc15; stroke-width:1; stroke:black; " description="&lt;b&gt;BM385_RS07320&lt;/b&gt;&lt;br&gt;NAD(P)/FAD-dependent oxidoreductase&lt;br&gt;Location: 673043 - 674503&lt;br&gt;&lt;br&gt;&lt;b&gt;BlastP hit with ctg305_6&lt;/b&gt;&lt;br&gt;Percentage identity: 100&lt;br&gt;Percentage coverage: 100&lt;br&gt;BLAST bit score: 978&lt;br&gt;E-value: 3.5e-283" locus_tag="BM385_RS07320" class="clusterblast-orf" id="dummy-1_h1_2_11"  />
</g>
<g id="a1_0012"  >
<polygon points="591,90 597,90 602,85 597,80 591,80 591,90 " style="fill:#15d885; stroke-width:1; stroke:black; " description="&lt;b&gt;BM385_RS07325&lt;/b&gt;&lt;br&gt;hypothetical protein&lt;br&gt;Location: 674500 - 674772&lt;br&gt;&lt;br&gt;&lt;b&gt;BlastP hit with ctg305_7&lt;/b&gt;&lt;br&gt;Percentage identity: 99&lt;br&gt;Percentage coverage: 100&lt;br&gt;BLAST bit score: 183&lt;br&gt;E-value: 1.4e-44" locus_tag="BM385_RS07325" class="clusterblast-orf" id="dummy-1_h1_2_12"  />
</g>
<g id="a1_0013"  >
<polygon points="604,90 617,90 622,85 617,80 604,80 604,90 " style="fill:white; stroke-width:1; stroke:black; " description="&lt;b&gt;BM385_RS07330&lt;/b&gt;&lt;br&gt;GNAT family N-acetyltransferase&lt;br&gt;Location: 674815 - 675267" locus_tag="BM385_RS07330" class="clusterblast-orf" id="dummy-1_h1_2_13"  />
</g>
<g id="a1_0014"  >
<polygon points="623,85 628,80 662,80 662,90 628,90 623,85 " style="fill:#4d15d8; stroke-width:1; stroke:black; " description="&lt;b&gt;BM385_RS07335&lt;/b&gt;&lt;br&gt;hypothetical protein&lt;br&gt;Location: 675297 - 676280&lt;br&gt;&lt;br&gt;&lt;b&gt;BlastP hit with ctg305_8&lt;/b&gt;&lt;br&gt;Percentage identity: 100&lt;br&gt;Percentage coverage: 100&lt;br&gt;BLAST bit score: 554&lt;br&gt;E-value: 9.3e-156" locus_tag="BM385_RS07335" class="clusterblast-orf" id="dummy-1_h1_2_14"  />
</g>
<g id="a1_0015"  >
<polygon points="670,85 675,80 755,80 755,90 675,90 670,85 " style="fill:white; stroke-width:1; stroke:black; " description="&lt;b&gt;BM385_RS07340&lt;/b&gt;&lt;br&gt;MMPL family transporter&lt;br&gt;Location: 676491 - 678617" locus_tag="BM385_RS07340" class="clusterblast-orf" id="dummy-1_h1_2_15"  />
</g>
<g id="a1_0016"  >
<polygon points="761,90 775,90 780,85 775,80 761,80 761,90 " style="fill:white; stroke-width:1; stroke:black; " description="&lt;b&gt;BM385_RS07345&lt;/b&gt;&lt;br&gt;MarR family transcriptional regulator&lt;br&gt;Location: 678777 - 679241" locus_tag="BM385_RS07345" class="clusterblast-orf" id="dummy-1_h1_2_16"  />
</g>
</svg>
