<svg xmlns="http://www.w3.org/2000/svg" xmlns:xlink="http://www.w3.org/1999/xlink" version="1.1" x="0" y="0" height="230" width="800" viewBox="0 0 800 230" preserveAspectRatio="none"  >
<g label="Query sequence" class="clusterblast-cluster"  >
<text x="5" y="20" class="clusterblast-acc"  >
Query sequence</text>
<line x1="10" y1="35" x2="778.0" y2="35" style="stroke-width:1; stroke:grey; "  />
<polygon points="292,40 300,40 305,35 300,30 292,30 292,40 " style="fill:#d81515; stroke-width:1; stroke:black; " description="&lt;b&gt;ctg164_1&lt;/b&gt;&lt;br&gt;ctg164 1&lt;br&gt;Location: 2 - 809" locus_tag="ctg164_1" class="clusterblast-orf" id="dummy-1_q0_0_all"  />
<polygon points="308,40 309,40 314,35 309,30 308,30 308,40 " style="fill:#15d815; stroke-width:1; stroke:black; " description="&lt;b&gt;ctg164_2&lt;/b&gt;&lt;br&gt;ctg164 2&lt;br&gt;Location: 932 - 1295" locus_tag="ctg164_2" class="clusterblast-orf" id="dummy-1_q1_0_all"  />
<polygon points="314,40 354,40 359,35 354,30 314,30 314,40 " style="fill:#1515d8; stroke-width:1; stroke:black; " description="&lt;b&gt;ctg164_3&lt;/b&gt;&lt;br&gt;ctg164 3&lt;br&gt;Location: 1291 - 3955" locus_tag="ctg164_3" class="clusterblast-orf" id="dummy-1_q2_0_all"  />
<polygon points="359,35 364,30 397,30 397,40 364,40 359,35 " style="fill:#d815d8; stroke-width:1; stroke:black; " description="&lt;b&gt;ctg164_4&lt;/b&gt;&lt;br&gt;ctg164 4&lt;br&gt;Location: 3942 - 6132" locus_tag="ctg164_4" class="clusterblast-orf" id="dummy-1_q3_0_all"  />
<polygon points="399,35 404,30 420,30 420,40 404,40 399,35 " style="fill:#d8d815; stroke-width:1; stroke:black; " description="&lt;b&gt;ctg164_5&lt;/b&gt;&lt;br&gt;ctg164 5&lt;br&gt;Location: 6252 - 7506" locus_tag="ctg164_5" class="clusterblast-orf" id="dummy-1_q4_0_all"  />
<polygon points="422,35 427,30 488,30 488,40 427,40 422,35 " style="fill:#15d8d8; stroke-width:1; stroke:black; " description="&lt;b&gt;ctg164_6&lt;/b&gt;&lt;br&gt;ctg164 6&lt;br&gt;Location: 7584 - 11436" locus_tag="ctg164_6" class="clusterblast-orf" id="dummy-1_q5_0_all"  />
</g>
<g label="NZ_JOIG01000004" description="NZ_JOIG01000004_c6: Streptomyces sp. NRRL F-2890 contig4.1, whole genome shot... (13% of genes show similarity), nrps" class="clusterblast-cluster"  >
<text x="5" y="70" class="clusterblast-acc"  >
<a xlink:href="https://antismash-db.secondarymetabolites.org/go/NZ_JOIG01000004/6" target="_blank">NZ_JOIG01000004_c6</a>: Streptomyces sp. NRRL F-2890 contig4.1, whole genome shot... (13% of genes show similarity), nrps</text>
<line x1="10" y1="85" x2="778.0" y2="85" style="stroke-width:1; stroke:grey; "  />
</g>
<g id="a1_000"  >
<polygon points="0,90 20,90 25,85 20,80 0,80 0,90 " style="fill:white; stroke-width:1; stroke:black; " description="&lt;b&gt;IF79_RS0111555&lt;/b&gt;&lt;br&gt;carbohydrate kinase&lt;br&gt;Location: 528739 - 527270" locus_tag="IF79_RS0111555" class="clusterblast-orf" id="dummy-1_h1_4_0"  />
</g>
<g id="a1_001"  >
<polygon points="25,90 38,90 43,85 38,80 25,80 25,90 " style="fill:white; stroke-width:1; stroke:black; " description="&lt;b&gt;IF79_RS0111550&lt;/b&gt;&lt;br&gt;2-hydroxyacid dehydrogenase&lt;br&gt;Location: 527237 - 526206" locus_tag="IF79_RS0111550" class="clusterblast-orf" id="dummy-1_h1_4_1"  />
</g>
<g id="a1_002"  >
<polygon points="45,90 51,90 56,85 51,80 45,80 45,90 " style="fill:white; stroke-width:1; stroke:black; " description="&lt;b&gt;IF79_RS0111545&lt;/b&gt;&lt;br&gt;histidine phosphatase family protein&lt;br&gt;Location: 526099 - 525470" locus_tag="IF79_RS0111545" class="clusterblast-orf" id="dummy-1_h1_4_2"  />
</g>
<g id="a1_003"  >
<polygon points="58,90 69,90 74,85 69,80 58,80 58,90 " style="fill:white; stroke-width:1; stroke:black; " description="&lt;b&gt;IF79_RS0111540&lt;/b&gt;&lt;br&gt;ABC transporter substrate-binding protein&lt;br&gt;Location: 525320 - 524373" locus_tag="IF79_RS0111540" class="clusterblast-orf" id="dummy-1_h1_4_3"  />
</g>
<g id="a1_004"  >
<polygon points="75,90 83,90 88,85 83,80 75,80 75,90 " style="fill:white; stroke-width:1; stroke:black; " description="&lt;b&gt;IF79_RS0111535&lt;/b&gt;&lt;br&gt;sugar ABC transporter ATP-binding protein&lt;br&gt;Location: 524360 - 523587" locus_tag="IF79_RS0111535" class="clusterblast-orf" id="dummy-1_h1_4_4"  />
</g>
<g id="a1_005"  >
<polygon points="88,90 104,90 109,85 104,80 88,80 88,90 " style="fill:white; stroke-width:1; stroke:black; " description="&lt;b&gt;IF79_RS0111530&lt;/b&gt;&lt;br&gt;ABC transporter permease&lt;br&gt;Location: 523594 - 522350" locus_tag="IF79_RS0111530" class="clusterblast-orf" id="dummy-1_h1_4_5"  />
</g>
<g id="a1_006"  >
<polygon points="111,85 116,80 128,80 128,90 116,90 111,85 " style="fill:white; stroke-width:1; stroke:black; " description="&lt;b&gt;IF79_RS0111525&lt;/b&gt;&lt;br&gt;DUF3068 domain-containing protein&lt;br&gt;Location: 522227 - 521220" locus_tag="IF79_RS0111525" class="clusterblast-orf" id="dummy-1_h1_4_6"  />
</g>
<g id="a1_007"  >
<polygon points="133,90 144,90 149,85 144,80 133,80 133,90 " style="fill:white; stroke-width:1; stroke:black; " description="&lt;b&gt;IF79_RS0111520&lt;/b&gt;&lt;br&gt;DNA-directed RNA polymerase sigma-70 factor&lt;br&gt;Location: 520932 - 520051" locus_tag="IF79_RS0111520" class="clusterblast-orf" id="dummy-1_h1_4_7"  />
</g>
<g id="a1_008"  >
<polygon points="149,90 152,90 157,85 152,80 149,80 149,90 " style="fill:white; stroke-width:1; stroke:black; " description="&lt;b&gt;IF79_RS0111515&lt;/b&gt;&lt;br&gt;N-acetyltransferase&lt;br&gt;Location: 520026 - 519541" locus_tag="IF79_RS0111515" class="clusterblast-orf" id="dummy-1_h1_4_8"  />
</g>
<g id="a1_009"  >
<polygon points="158,85 163,80 189,80 189,90 163,90 158,85 " style="fill:white; stroke-width:1; stroke:black; " description="&lt;b&gt;IF79_RS0111510&lt;/b&gt;&lt;br&gt;ABC transporter ATP-binding protein&lt;br&gt;Location: 519477 - 517711" locus_tag="IF79_RS0111510" class="clusterblast-orf" id="dummy-1_h1_4_9"  />
</g>
<g id="a1_0010"  >
<polygon points="192,90 197,90 202,85 197,80 192,80 192,90 " style="fill:white; stroke-width:1; stroke:black; " description="&lt;b&gt;IF79_RS0111505&lt;/b&gt;&lt;br&gt;XRE family transcriptional regulator&lt;br&gt;Location: 517519 - 516911" locus_tag="IF79_RS0111505" class="clusterblast-orf" id="dummy-1_h1_4_10"  />
</g>
<g id="a1_0011"  >
<polygon points="202,90 206,85 202,80 202,90 " style="fill:white; stroke-width:1; stroke:black; " description="&lt;b&gt;IF79_RS0111500&lt;/b&gt;&lt;br&gt;hypothetical protein&lt;br&gt;Location: 516914 - 516711" locus_tag="IF79_RS0111500" class="clusterblast-orf" id="dummy-1_h1_4_11"  />
</g>
<g id="a1_0012"  >
<polygon points="213,90 248,90 253,85 248,80 213,80 213,90 " style="fill:white; stroke-width:1; stroke:black; " description="&lt;b&gt;IF79_RS0111495&lt;/b&gt;&lt;br&gt;5-methyltetrahydropteroyltriglutamate-- homocysteine S-methyltransferase&lt;br&gt;Location: 516288 - 513964" locus_tag="IF79_RS0111495" class="clusterblast-orf" id="dummy-1_h1_4_12"  />
</g>
<g id="a1_0013"  >
<polygon points="256,90 266,90 271,85 266,80 256,80 256,90 " style="fill:#d81515; stroke-width:1; stroke:black; " description="&lt;b&gt;IF79_RS0111490&lt;/b&gt;&lt;br&gt;ribonuclease&lt;br&gt;Location: 513769 - 512933&lt;br&gt;&lt;br&gt;&lt;b&gt;BlastP hit with ctg164_1&lt;/b&gt;&lt;br&gt;Percentage identity: 83&lt;br&gt;Percentage coverage: 102&lt;br&gt;BLAST bit score: 464&lt;br&gt;E-value: 9.3e-129" locus_tag="IF79_RS0111490" class="clusterblast-orf" id="dummy-1_h1_4_13"  />
</g>
<g id="a1_0014"  >
<polygon points="271,85 276,80 308,80 308,90 276,90 271,85 " style="fill:#d815d8; stroke-width:1; stroke:black; " description="&lt;b&gt;IF79_RS0111485&lt;/b&gt;&lt;br&gt;MMPL family transporter&lt;br&gt;Location: 512898 - 510727&lt;br&gt;&lt;br&gt;&lt;b&gt;BlastP hit with ctg164_4&lt;/b&gt;&lt;br&gt;Percentage identity: 87&lt;br&gt;Percentage coverage: 99&lt;br&gt;BLAST bit score: 1169&lt;br&gt;E-value: 0.0" locus_tag="IF79_RS0111485" class="clusterblast-orf" id="dummy-1_h1_4_14"  />
</g>
<g id="a1_0015"  >
<polygon points="313,85 318,80 333,80 333,90 318,90 313,85 " style="fill:#d8d815; stroke-width:1; stroke:black; " description="&lt;b&gt;IF79_RS0111480&lt;/b&gt;&lt;br&gt;MFS transporter&lt;br&gt;Location: 510452 - 509280&lt;br&gt;&lt;br&gt;&lt;b&gt;BlastP hit with ctg164_5&lt;/b&gt;&lt;br&gt;Percentage identity: 93&lt;br&gt;Percentage coverage: 91&lt;br&gt;BLAST bit score: 685&lt;br&gt;E-value: 3e-195" locus_tag="IF79_RS0111480" class="clusterblast-orf" id="dummy-1_h1_4_15"  />
</g>
<g id="a1_0016"  >
<polygon points="334,85 339,80 448,80 448,90 339,90 334,85 " style="fill:#15d8d8; stroke-width:1; stroke:black; " description="&lt;b&gt;IF79_RS29155&lt;/b&gt;&lt;br&gt;non-ribosomal peptide synthetase&lt;br&gt;Location: 509216 - 502599&lt;br&gt;&lt;br&gt;&lt;b&gt;BlastP hit with ctg164_6&lt;/b&gt;&lt;br&gt;Percentage identity: 73&lt;br&gt;Percentage coverage: 101&lt;br&gt;BLAST bit score: 1765&lt;br&gt;E-value: 0.0" locus_tag="IF79_RS29155" class="clusterblast-orf" id="dummy-1_h1_4_16"  />
</g>
<g id="a1_0017"  >
<polygon points="533,90 546,90 551,85 546,80 533,80 533,90 " style="fill:white; stroke-width:1; stroke:black; " description="&lt;b&gt;IF79_RS0111470&lt;/b&gt;&lt;br&gt;hypothetical protein&lt;br&gt;Location: 497664 - 496588" locus_tag="IF79_RS0111470" class="clusterblast-orf" id="dummy-1_h1_4_17"  />
</g>
<g id="a1_0018"  >
<polygon points="551,90 566,90 571,85 566,80 551,80 551,90 " style="fill:white; stroke-width:1; stroke:black; " description="&lt;b&gt;IF79_RS0111465&lt;/b&gt;&lt;br&gt;cobalt ABC transporter permease&lt;br&gt;Location: 496591 - 495443" locus_tag="IF79_RS0111465" class="clusterblast-orf" id="dummy-1_h1_4_18"  />
</g>
<g id="a1_0019"  >
<polygon points="571,90 594,90 599,85 594,80 571,80 571,90 " style="fill:white; stroke-width:1; stroke:black; " description="&lt;b&gt;IF79_RS0111460&lt;/b&gt;&lt;br&gt;cobalt ABC transporter ATP-binding protein&lt;br&gt;Location: 495446 - 493812" locus_tag="IF79_RS0111460" class="clusterblast-orf" id="dummy-1_h1_4_19"  />
</g>
<g id="a1_0020"  >
<polygon points="601,90 610,90 615,85 610,80 601,80 601,90 " style="fill:white; stroke-width:1; stroke:black; " description="&lt;b&gt;IF79_RS0111455&lt;/b&gt;&lt;br&gt;ECF transporter S component&lt;br&gt;Location: 493689 - 492877" locus_tag="IF79_RS0111455" class="clusterblast-orf" id="dummy-1_h1_4_20"  />
</g>
<g id="a1_0021"  >
<polygon points="615,90 635,90 640,85 635,80 615,80 615,90 " style="fill:white; stroke-width:1; stroke:black; " description="&lt;b&gt;IF79_RS28575&lt;/b&gt;&lt;br&gt;hypothetical protein&lt;br&gt;Location: 492880 - 491396" locus_tag="IF79_RS28575" class="clusterblast-orf" id="dummy-1_h1_4_21"  />
</g>
<g id="a1_0022"  >
<polygon points="641,90 644,90 649,85 644,80 641,80 641,90 " style="fill:white; stroke-width:1; stroke:black; " description="&lt;b&gt;IF79_RS0111445&lt;/b&gt;&lt;br&gt;DUF4430 domain-containing protein&lt;br&gt;Location: 491345 - 490863" locus_tag="IF79_RS0111445" class="clusterblast-orf" id="dummy-1_h1_4_22"  />
</g>
<g id="a1_0023"  >
<polygon points="650,85 655,80 695,80 695,90 655,90 650,85 " style="fill:white; stroke-width:1; stroke:black; " description="&lt;b&gt;IF79_RS28570&lt;/b&gt;&lt;br&gt;hypothetical protein&lt;br&gt;Location: 490798 - 488174" locus_tag="IF79_RS28570" class="clusterblast-orf" id="dummy-1_h1_4_23"  />
</g>
<g id="a1_0024"  >
<polygon points="698,90 717,90 722,85 717,80 698,80 698,90 " style="fill:white; stroke-width:1; stroke:black; " description="&lt;b&gt;IF79_RS0111435&lt;/b&gt;&lt;br&gt;flavin monoamine oxidase family protein&lt;br&gt;Location: 488023 - 486629" locus_tag="IF79_RS0111435" class="clusterblast-orf" id="dummy-1_h1_4_24"  />
</g>
<g id="a1_0025"  >
<polygon points="727,90 733,90 738,85 733,80 727,80 727,90 " style="fill:white; stroke-width:1; stroke:black; " description="&lt;b&gt;IF79_RS0111430&lt;/b&gt;&lt;br&gt;hypothetical protein&lt;br&gt;Location: 486334 - 485690" locus_tag="IF79_RS0111430" class="clusterblast-orf" id="dummy-1_h1_4_25"  />
</g>
<g id="a1_0026"  >
<polygon points="740,85 745,80 746,80 746,90 745,90 740,85 " style="fill:white; stroke-width:1; stroke:black; " description="&lt;b&gt;IF79_RS0111425&lt;/b&gt;&lt;br&gt;N-acetyltransferase&lt;br&gt;Location: 485598 - 485227" locus_tag="IF79_RS0111425" class="clusterblast-orf" id="dummy-1_h1_4_26"  />
</g>
<g id="a1_0027"  >
<polygon points="746,85 751,80 761,80 761,90 751,90 746,85 " style="fill:white; stroke-width:1; stroke:black; " description="&lt;b&gt;IF79_RS27815&lt;/b&gt;&lt;br&gt;hypothetical protein&lt;br&gt;Location: 485204 - 484347" locus_tag="IF79_RS27815" class="clusterblast-orf" id="dummy-1_h1_4_27"  />
</g>
<g id="a1_0028"  >
<polygon points="763,90 766,85 763,80 763,90 " style="fill:white; stroke-width:1; stroke:black; " description="&lt;b&gt;IF79_RS0111415&lt;/b&gt;&lt;br&gt;hypothetical protein&lt;br&gt;Location: 484258 - 484046" locus_tag="IF79_RS0111415" class="clusterblast-orf" id="dummy-1_h1_4_28"  />
</g>
<g id="a1_0029"  >
<polygon points="767,85 772,80 780,80 780,90 772,90 767,85 " style="fill:white; stroke-width:1; stroke:black; " description="&lt;b&gt;IF79_RS0111410&lt;/b&gt;&lt;br&gt;class I SAM-dependent methyltransferase&lt;br&gt;Location: 484017 - 483268" locus_tag="IF79_RS0111410" class="clusterblast-orf" id="dummy-1_h1_4_29"  />
</g>
</svg>
