<svg xmlns="http://www.w3.org/2000/svg" xmlns:xlink="http://www.w3.org/1999/xlink" version="1.1" x="0" y="0" height="230" width="800" viewBox="0 0 800 230" preserveAspectRatio="none"  >
<g label="Query sequence" class="clusterblast-cluster"  >
<text x="5" y="20" class="clusterblast-acc"  >
Query sequence</text>
<line x1="10" y1="35" x2="778.0" y2="35" style="stroke-width:1; stroke:grey; "  />
<polygon points="298,35 303,30 304,30 304,40 303,40 298,35 " style="fill:#d81515; stroke-width:1; stroke:black; " description="&lt;b&gt;ctg48_1&lt;/b&gt;&lt;br&gt;ctg48 1&lt;br&gt;Location: 69 - 801" locus_tag="ctg48_1" class="clusterblast-orf" id="dummy-1_q0_0_all"  />
<polygon points="304,35 309,30 310,30 310,40 309,40 304,35 " style="fill:#d81515; stroke-width:1; stroke:black; " description="&lt;b&gt;ctg48_2&lt;/b&gt;&lt;br&gt;ctg48 2&lt;br&gt;Location: 797 - 1688" locus_tag="ctg48_2" class="clusterblast-orf" id="dummy-1_q1_0_all"  />
<polygon points="310,35 315,30 318,30 318,40 315,40 310,35 " style="fill:#33d815; stroke-width:1; stroke:black; " description="&lt;b&gt;ctg48_3&lt;/b&gt;&lt;br&gt;ctg48 3&lt;br&gt;Location: 1695 - 2766" locus_tag="ctg48_3" class="clusterblast-orf" id="dummy-1_q2_0_all"  />
<polygon points="318,35 323,30 330,30 330,40 323,40 318,35 " style="fill:#15abd8; stroke-width:1; stroke:black; " description="&lt;b&gt;ctg48_4&lt;/b&gt;&lt;br&gt;ctg48 4&lt;br&gt;Location: 2747 - 4439" locus_tag="ctg48_4" class="clusterblast-orf" id="dummy-1_q3_0_all"  />
<polygon points="330,35 335,30 338,30 338,40 335,40 330,35 " style="fill:white; stroke-width:1; stroke:black; " description="&lt;b&gt;ctg48_5&lt;/b&gt;&lt;br&gt;ctg48 5&lt;br&gt;Location: 4490 - 5474" locus_tag="ctg48_5" class="clusterblast-orf" id="dummy-1_q4_0_all"  />
<polygon points="338,40 344,40 349,35 344,30 338,30 338,40 " style="fill:white; stroke-width:1; stroke:black; " description="&lt;b&gt;ctg48_6&lt;/b&gt;&lt;br&gt;ctg48 6&lt;br&gt;Location: 5567 - 6998" locus_tag="ctg48_6" class="clusterblast-orf" id="dummy-1_q5_0_all"  />
<polygon points="351,40 355,40 360,35 355,30 351,30 351,40 " style="fill:#8d15d8; stroke-width:1; stroke:black; " description="&lt;b&gt;ctg48_7&lt;/b&gt;&lt;br&gt;ctg48 7&lt;br&gt;Location: 7302 - 8499" locus_tag="ctg48_7" class="clusterblast-orf" id="dummy-1_q6_0_all"  />
<polygon points="360,35 365,30 368,30 368,40 365,40 360,35 " style="fill:#d86f15; stroke-width:1; stroke:black; " description="&lt;b&gt;ctg48_8&lt;/b&gt;&lt;br&gt;ctg48 8&lt;br&gt;Location: 8559 - 9639" locus_tag="ctg48_8" class="clusterblast-orf" id="dummy-1_q7_0_all"  />
<polygon points="368,35 373,30 375,30 375,40 373,40 368,35 " style="fill:#15d851; stroke-width:1; stroke:black; " description="&lt;b&gt;ctg48_9&lt;/b&gt;&lt;br&gt;ctg48 9&lt;br&gt;Location: 9659 - 10583" locus_tag="ctg48_9" class="clusterblast-orf" id="dummy-1_q8_0_all"  />
<polygon points="376,35 381,30 382,30 382,40 381,40 376,35 " style="fill:#1551d8; stroke-width:1; stroke:black; " description="&lt;b&gt;ctg48_10&lt;/b&gt;&lt;br&gt;ctg48 10&lt;br&gt;Location: 10784 - 11618" locus_tag="ctg48_10" class="clusterblast-orf" id="dummy-1_q9_0_all"  />
<polygon points="382,35 387,30 390,30 390,40 387,40 382,35 " style="fill:#d815c9; stroke-width:1; stroke:black; " description="&lt;b&gt;ctg48_11&lt;/b&gt;&lt;br&gt;ctg48 11&lt;br&gt;Location: 11614 - 12766" locus_tag="ctg48_11" class="clusterblast-orf" id="dummy-1_q10_0_all"  />
<polygon points="391,40 394,40 399,35 394,30 391,30 391,40 " style="fill:white; stroke-width:1; stroke:black; " description="&lt;b&gt;ctg48_12&lt;/b&gt;&lt;br&gt;ctg48 12&lt;br&gt;Location: 12786 - 13989" locus_tag="ctg48_12" class="clusterblast-orf" id="dummy-1_q11_0_all"  />
<polygon points="400,35 405,30 406,30 406,40 405,40 400,35 " style="fill:#d8c915; stroke-width:1; stroke:black; " description="&lt;b&gt;ctg48_13&lt;/b&gt;&lt;br&gt;ctg48 13&lt;br&gt;Location: 14051 - 14882" locus_tag="ctg48_13" class="clusterblast-orf" id="dummy-1_q12_0_all"  />
<polygon points="406,35 411,30 415,30 415,40 411,40 406,35 " style="fill:#15d8ab; stroke-width:1; stroke:black; " description="&lt;b&gt;ctg48_14&lt;/b&gt;&lt;br&gt;ctg48 14&lt;br&gt;Location: 14878 - 16189" locus_tag="ctg48_14" class="clusterblast-orf" id="dummy-1_q13_0_all"  />
<polygon points="415,35 420,30 423,30 423,40 420,40 415,35 " style="fill:#3315d8; stroke-width:1; stroke:black; " description="&lt;b&gt;ctg48_15&lt;/b&gt;&lt;br&gt;ctg48 15&lt;br&gt;Location: 16185 - 17301" locus_tag="ctg48_15" class="clusterblast-orf" id="dummy-1_q14_0_all"  />
<polygon points="424,35 426,30 426,40 424,35 " style="fill:#d8156f; stroke-width:1; stroke:black; " description="&lt;b&gt;ctg48_16&lt;/b&gt;&lt;br&gt;ctg48 16&lt;br&gt;Location: 17403 - 17676" locus_tag="ctg48_16" class="clusterblast-orf" id="dummy-1_q15_0_all"  />
<polygon points="429,35 434,30 481,30 481,40 434,40 429,35 " style="fill:#8dd815; stroke-width:1; stroke:black; " description="&lt;b&gt;ctg48_17&lt;/b&gt;&lt;br&gt;ctg48 17&lt;br&gt;Location: 18022 - 25219" locus_tag="ctg48_17" class="clusterblast-orf" id="dummy-1_q16_0_all"  />
</g>
<g label="NZ_FMHT01000003" description="NZ_FMHT01000003_c16: Micromonospora nigra strain DSM 43818, whole genome shot... (9% of genes show similarity), nrps" class="clusterblast-cluster"  >
<text x="5" y="70" class="clusterblast-acc"  >
<a xlink:href="https://antismash-db.secondarymetabolites.org/go/NZ_FMHT01000003/16" target="_blank">NZ_FMHT01000003_c16</a>: Micromonospora nigra strain DSM 43818, whole genome shot... (9% of genes show similarity), nrps</text>
<line x1="10" y1="85" x2="778.0" y2="85" style="stroke-width:1; stroke:grey; "  />
</g>
<g id="a1_000"  >
<polygon points="0,85 5,80 7,80 7,90 5,90 0,85 " style="fill:white; stroke-width:1; stroke:black; " description="&lt;b&gt;GA0070616_RS25150&lt;/b&gt;&lt;br&gt;hypothetical protein&lt;br&gt;Location: 5737894 - 5736825" locus_tag="GA0070616_RS25150" class="clusterblast-orf" id="dummy-1_h1_1_0"  />
</g>
<g id="a1_001"  >
<polygon points="8,90 11,85 8,80 8,90 " style="fill:white; stroke-width:1; stroke:black; " description="&lt;b&gt;GA0070616_RS25145&lt;/b&gt;&lt;br&gt;YccF domain-containing protein&lt;br&gt;Location: 5736680 - 5736300" locus_tag="GA0070616_RS25145" class="clusterblast-orf" id="dummy-1_h1_1_1"  />
</g>
<g id="a1_002"  >
<polygon points="12,85 17,80 19,80 19,90 17,90 12,85 " style="fill:white; stroke-width:1; stroke:black; " description="&lt;b&gt;GA0070616_RS25140&lt;/b&gt;&lt;br&gt;hypothetical protein&lt;br&gt;Location: 5736233 - 5735190" locus_tag="GA0070616_RS25140" class="clusterblast-orf" id="dummy-1_h1_1_2"  />
</g>
<g id="a1_003"  >
<polygon points="18,90 31,90 36,85 31,80 18,80 18,90 " style="fill:white; stroke-width:1; stroke:black; " description="&lt;b&gt;GA0070616_RS25135&lt;/b&gt;&lt;br&gt;hypothetical protein&lt;br&gt;Location: 5735296 - 5732825" locus_tag="GA0070616_RS25135" class="clusterblast-orf" id="dummy-1_h1_1_3"  />
</g>
<g id="a1_004"  >
<polygon points="37,85 40,80 40,90 37,85 " style="fill:white; stroke-width:1; stroke:black; " description="&lt;b&gt;GA0070616_RS25130&lt;/b&gt;&lt;br&gt;four-helix bundle copper-binding protein&lt;br&gt;Location: 5732762 - 5732355" locus_tag="GA0070616_RS25130" class="clusterblast-orf" id="dummy-1_h1_1_4"  />
</g>
<g id="a1_005"  >
<polygon points="42,85 47,80 53,80 53,90 47,90 42,85 " style="fill:white; stroke-width:1; stroke:black; " description="&lt;b&gt;GA0070616_RS25125&lt;/b&gt;&lt;br&gt;MFS transporter&lt;br&gt;Location: 5731968 - 5730568" locus_tag="GA0070616_RS25125" class="clusterblast-orf" id="dummy-1_h1_1_5"  />
</g>
<g id="a1_006"  >
<polygon points="53,85 55,80 55,90 53,85 " style="fill:white; stroke-width:1; stroke:black; " description="&lt;b&gt;GA0070616_RS25120&lt;/b&gt;&lt;br&gt;hypothetical protein&lt;br&gt;Location: 5730558 - 5730220" locus_tag="GA0070616_RS25120" class="clusterblast-orf" id="dummy-1_h1_1_6"  />
</g>
<g id="a1_007"  >
<polygon points="57,85 62,80 63,80 63,90 62,90 57,85 " style="fill:white; stroke-width:1; stroke:black; " description="&lt;b&gt;GA0070616_RS25115&lt;/b&gt;&lt;br&gt;hypothetical protein&lt;br&gt;Location: 5730013 - 5729189" locus_tag="GA0070616_RS25115" class="clusterblast-orf" id="dummy-1_h1_1_7"  />
</g>
<g id="a1_008"  >
<polygon points="63,85 68,80 71,80 71,90 68,90 63,85 " style="fill:white; stroke-width:1; stroke:black; " description="&lt;b&gt;GA0070616_RS25110&lt;/b&gt;&lt;br&gt;acyl-CoA dehydrogenase&lt;br&gt;Location: 5729205 - 5728051" locus_tag="GA0070616_RS25110" class="clusterblast-orf" id="dummy-1_h1_1_8"  />
</g>
<g id="a1_009"  >
<polygon points="71,85 76,80 76,80 76,90 76,90 71,85 " style="fill:white; stroke-width:1; stroke:black; " description="&lt;b&gt;GA0070616_RS25105&lt;/b&gt;&lt;br&gt;hypothetical protein&lt;br&gt;Location: 5728054 - 5727326" locus_tag="GA0070616_RS25105" class="clusterblast-orf" id="dummy-1_h1_1_9"  />
</g>
<g id="a1_0010"  >
<polygon points="76,85 81,80 83,80 83,90 81,90 76,85 " style="fill:white; stroke-width:1; stroke:black; " description="&lt;b&gt;GA0070616_RS25100&lt;/b&gt;&lt;br&gt;hypothetical protein&lt;br&gt;Location: 5727329 - 5726370" locus_tag="GA0070616_RS25100" class="clusterblast-orf" id="dummy-1_h1_1_10"  />
</g>
<g id="a1_0011"  >
<polygon points="83,85 85,80 85,90 83,85 " style="fill:white; stroke-width:1; stroke:black; " description="&lt;b&gt;GA0070616_RS25095&lt;/b&gt;&lt;br&gt;acyl carrier protein&lt;br&gt;Location: 5726367 - 5726107" locus_tag="GA0070616_RS25095" class="clusterblast-orf" id="dummy-1_h1_1_11"  />
</g>
<g id="a1_0012"  >
<polygon points="85,85 90,80 94,80 94,90 90,90 85,85 " style="fill:white; stroke-width:1; stroke:black; " description="&lt;b&gt;GA0070616_RS25090&lt;/b&gt;&lt;br&gt;type III PLP-dependent enzyme&lt;br&gt;Location: 5726073 - 5724805" locus_tag="GA0070616_RS25090" class="clusterblast-orf" id="dummy-1_h1_1_12"  />
</g>
<g id="a1_0013"  >
<polygon points="94,85 99,80 104,80 104,90 99,90 94,85 " style="fill:white; stroke-width:1; stroke:black; " description="&lt;b&gt;GA0070616_RS25085&lt;/b&gt;&lt;br&gt;ATP-grasp domain-containing protein&lt;br&gt;Location: 5724812 - 5723430" locus_tag="GA0070616_RS25085" class="clusterblast-orf" id="dummy-1_h1_1_13"  />
</g>
<g id="a1_0014"  >
<polygon points="105,85 110,80 111,80 111,90 110,90 105,85 " style="fill:white; stroke-width:1; stroke:black; " description="&lt;b&gt;GA0070616_RS25080&lt;/b&gt;&lt;br&gt;3-oxoacyl-ACP synthase&lt;br&gt;Location: 5723405 - 5722476" locus_tag="GA0070616_RS25080" class="clusterblast-orf" id="dummy-1_h1_1_14"  />
</g>
<g id="a1_0015"  >
<polygon points="111,85 116,80 121,80 121,90 116,90 111,85 " style="fill:white; stroke-width:1; stroke:black; " description="&lt;b&gt;GA0070616_RS25075&lt;/b&gt;&lt;br&gt;glutamate synthase&lt;br&gt;Location: 5722479 - 5721175" locus_tag="GA0070616_RS25075" class="clusterblast-orf" id="dummy-1_h1_1_15"  />
</g>
<g id="a1_0016"  >
<polygon points="121,85 126,80 128,80 128,90 126,90 121,85 " style="fill:white; stroke-width:1; stroke:black; " description="&lt;b&gt;GA0070616_RS25070&lt;/b&gt;&lt;br&gt;asparagine ligase&lt;br&gt;Location: 5721178 - 5720171" locus_tag="GA0070616_RS25070" class="clusterblast-orf" id="dummy-1_h1_1_16"  />
</g>
<g id="a1_0017"  >
<polygon points="128,85 133,80 137,80 137,90 133,90 128,85 " style="fill:white; stroke-width:1; stroke:black; " description="&lt;b&gt;GA0070616_RS25065&lt;/b&gt;&lt;br&gt;methylaspartate mutase&lt;br&gt;Location: 5720156 - 5718918" locus_tag="GA0070616_RS25065" class="clusterblast-orf" id="dummy-1_h1_1_17"  />
</g>
<g id="a1_0018"  >
<polygon points="137,85 140,80 140,90 137,85 " style="fill:white; stroke-width:1; stroke:black; " description="&lt;b&gt;GA0070616_RS25060&lt;/b&gt;&lt;br&gt;hypothetical protein&lt;br&gt;Location: 5718921 - 5718472" locus_tag="GA0070616_RS25060" class="clusterblast-orf" id="dummy-1_h1_1_18"  />
</g>
<g id="a1_0019"  >
<polygon points="142,85 143,80 143,90 142,85 " style="fill:white; stroke-width:1; stroke:black; " description="&lt;b&gt;GA0070616_RS25055&lt;/b&gt;&lt;br&gt;MbtH family protein&lt;br&gt;Location: 5718266 - 5718060" locus_tag="GA0070616_RS25055" class="clusterblast-orf" id="dummy-1_h1_1_19"  />
</g>
<g id="a1_0020"  >
<polygon points="144,85 149,80 219,80 219,90 149,90 144,85 " style="fill:#8dd815; stroke-width:1; stroke:black; " description="&lt;b&gt;GA0070616_RS25050&lt;/b&gt;&lt;br&gt;D-alanine--poly(phosphoribitol) ligase subunit DltA&lt;br&gt;Location: 5718009 - 5707588&lt;br&gt;&lt;br&gt;&lt;b&gt;BlastP hit with ctg48_17&lt;/b&gt;&lt;br&gt;Percentage identity: 48&lt;br&gt;Percentage coverage: 105&lt;br&gt;BLAST bit score: 2031&lt;br&gt;E-value: 0.0" locus_tag="GA0070616_RS25050" class="clusterblast-orf" id="dummy-1_h1_1_20"  />
</g>
<g id="a1_0021"  >
<polygon points="221,85 226,80 256,80 256,90 226,90 221,85 " style="fill:white; stroke-width:1; stroke:black; " description="&lt;b&gt;GA0070616_RS25045&lt;/b&gt;&lt;br&gt;hypothetical protein&lt;br&gt;Location: 5707402 - 5702513" locus_tag="GA0070616_RS25045" class="clusterblast-orf" id="dummy-1_h1_1_21"  />
</g>
<g id="a1_0022"  >
<polygon points="257,85 262,80 270,80 270,90 262,90 257,85 " style="fill:white; stroke-width:1; stroke:black; " description="&lt;b&gt;GA0070616_RS25040&lt;/b&gt;&lt;br&gt;thioester reductase&lt;br&gt;Location: 5702418 - 5700610" locus_tag="GA0070616_RS25040" class="clusterblast-orf" id="dummy-1_h1_1_22"  />
</g>
<g id="a1_0023"  >
<polygon points="270,85 275,80 277,80 277,90 275,90 270,85 " style="fill:white; stroke-width:1; stroke:black; " description="&lt;b&gt;GA0070616_RS25035&lt;/b&gt;&lt;br&gt;hypothetical protein&lt;br&gt;Location: 5700602 - 5699568" locus_tag="GA0070616_RS25035" class="clusterblast-orf" id="dummy-1_h1_1_23"  />
</g>
<g id="a1_0024"  >
<polygon points="278,85 283,80 284,80 284,90 283,90 278,85 " style="fill:white; stroke-width:1; stroke:black; " description="&lt;b&gt;GA0070616_RS25030&lt;/b&gt;&lt;br&gt;thioesterase&lt;br&gt;Location: 5699538 - 5698714" locus_tag="GA0070616_RS25030" class="clusterblast-orf" id="dummy-1_h1_1_24"  />
</g>
<g id="a1_0025"  >
<polygon points="285,85 290,80 321,80 321,90 290,90 285,85 " style="fill:#8dd815; stroke-width:1; stroke:black; " description="&lt;b&gt;GA0070616_RS25025&lt;/b&gt;&lt;br&gt;hypothetical protein&lt;br&gt;Location: 5698562 - 5693508&lt;br&gt;&lt;br&gt;&lt;b&gt;BlastP hit with ctg48_17&lt;/b&gt;&lt;br&gt;Percentage identity: 45&lt;br&gt;Percentage coverage: 69&lt;br&gt;BLAST bit score: 1214&lt;br&gt;E-value: 0.0" locus_tag="GA0070616_RS25025" class="clusterblast-orf" id="dummy-1_h1_1_25"  />
</g>
<g id="a1_0026"  >
<polygon points="320,85 325,80 332,80 332,90 325,90 320,85 " style="fill:white; stroke-width:1; stroke:black; " description="&lt;b&gt;GA0070616_RS25020&lt;/b&gt;&lt;br&gt;hypothetical protein&lt;br&gt;Location: 5693661 - 5692081" locus_tag="GA0070616_RS25020" class="clusterblast-orf" id="dummy-1_h1_1_26"  />
</g>
<g id="a1_0027"  >
<polygon points="333,85 334,80 334,90 333,85 " style="fill:white; stroke-width:1; stroke:black; " description="&lt;b&gt;GA0070616_RS25015&lt;/b&gt;&lt;br&gt;hypothetical protein&lt;br&gt;Location: 5691941 - 5691705" locus_tag="GA0070616_RS25015" class="clusterblast-orf" id="dummy-1_h1_1_27"  />
</g>
<g id="a1_0028"  >
<polygon points="335,85 340,80 343,80 343,90 340,90 335,85 " style="fill:white; stroke-width:1; stroke:black; " description="&lt;b&gt;GA0070616_RS25010&lt;/b&gt;&lt;br&gt;ketoacyl-ACP synthase III&lt;br&gt;Location: 5691614 - 5690574" locus_tag="GA0070616_RS25010" class="clusterblast-orf" id="dummy-1_h1_1_28"  />
</g>
<g id="a1_0029"  >
<polygon points="344,85 349,80 353,80 353,90 349,90 344,85 " style="fill:white; stroke-width:1; stroke:black; " description="&lt;b&gt;GA0070616_RS25005&lt;/b&gt;&lt;br&gt;helix-turn-helix domain-containing protein&lt;br&gt;Location: 5690433 - 5689093" locus_tag="GA0070616_RS25005" class="clusterblast-orf" id="dummy-1_h1_1_29"  />
</g>
<g id="a1_0030"  >
<polygon points="357,85 362,80 379,80 379,90 362,90 357,85 " style="fill:white; stroke-width:1; stroke:black; " description="&lt;b&gt;GA0070616_RS25000&lt;/b&gt;&lt;br&gt;tetratricopeptide repeat protein&lt;br&gt;Location: 5688583 - 5685557" locus_tag="GA0070616_RS25000" class="clusterblast-orf" id="dummy-1_h1_1_30"  />
</g>
<g id="a1_0031"  >
<polygon points="380,90 384,85 380,80 380,90 " style="fill:white; stroke-width:1; stroke:black; " description="&lt;b&gt;GA0070616_RS24995&lt;/b&gt;&lt;br&gt;nuclear transport factor 2 family protein&lt;br&gt;Location: 5685467 - 5684853" locus_tag="GA0070616_RS24995" class="clusterblast-orf" id="dummy-1_h1_1_31"  />
</g>
<g id="a1_0032"  >
<polygon points="385,85 390,80 391,80 391,90 390,90 385,85 " style="fill:white; stroke-width:1; stroke:black; " description="&lt;b&gt;GA0070616_RS24990&lt;/b&gt;&lt;br&gt;hypothetical protein&lt;br&gt;Location: 5684747 - 5683860" locus_tag="GA0070616_RS24990" class="clusterblast-orf" id="dummy-1_h1_1_32"  />
</g>
<g id="a1_0033"  >
<polygon points="393,90 396,85 393,80 393,90 " style="fill:white; stroke-width:1; stroke:black; " description="&lt;b&gt;GA0070616_RS24985&lt;/b&gt;&lt;br&gt;membrane protein insertion efficiency factor YidD&lt;br&gt;Location: 5683638 - 5683228" locus_tag="GA0070616_RS24985" class="clusterblast-orf" id="dummy-1_h1_1_33"  />
</g>
<g id="a1_0034"  >
<polygon points="396,85 401,80 401,80 401,90 401,90 396,85 " style="fill:white; stroke-width:1; stroke:black; " description="&lt;b&gt;GA0070616_RS24980&lt;/b&gt;&lt;br&gt;nitroreductase family protein&lt;br&gt;Location: 5683156 - 5682509" locus_tag="GA0070616_RS24980" class="clusterblast-orf" id="dummy-1_h1_1_34"  />
</g>
<g id="a1_0035"  >
<polygon points="402,90 406,90 411,85 406,80 402,80 402,90 " style="fill:white; stroke-width:1; stroke:black; " description="&lt;b&gt;GA0070616_RS24975&lt;/b&gt;&lt;br&gt;cystathionine beta-lyase&lt;br&gt;Location: 5682347 - 5681196" locus_tag="GA0070616_RS24975" class="clusterblast-orf" id="dummy-1_h1_1_35"  />
</g>
<g id="a1_0036"  >
<polygon points="412,90 416,90 421,85 416,80 412,80 412,90 " style="fill:white; stroke-width:1; stroke:black; " description="&lt;b&gt;GA0070616_RS24970&lt;/b&gt;&lt;br&gt;1,3-beta-glucanase&lt;br&gt;Location: 5680947 - 5679721" locus_tag="GA0070616_RS24970" class="clusterblast-orf" id="dummy-1_h1_1_36"  />
</g>
<g id="a1_0037"  >
<polygon points="423,90 429,90 434,85 429,80 423,80 423,90 " style="fill:white; stroke-width:1; stroke:black; " description="&lt;b&gt;GA0070616_RS24965&lt;/b&gt;&lt;br&gt;endoglucanase&lt;br&gt;Location: 5679430 - 5677976" locus_tag="GA0070616_RS24965" class="clusterblast-orf" id="dummy-1_h1_1_37"  />
</g>
<g id="a1_0038"  >
<polygon points="435,85 440,80 440,80 440,90 440,90 435,85 " style="fill:white; stroke-width:1; stroke:black; " description="&lt;b&gt;GA0070616_RS24960&lt;/b&gt;&lt;br&gt;ABC transporter ATP-binding protein&lt;br&gt;Location: 5677849 - 5677178" locus_tag="GA0070616_RS24960" class="clusterblast-orf" id="dummy-1_h1_1_38"  />
</g>
<g id="a1_0039"  >
<polygon points="440,85 445,80 447,80 447,90 445,90 440,85 " style="fill:#d81515; stroke-width:1; stroke:black; " description="&lt;b&gt;GA0070616_RS24955&lt;/b&gt;&lt;br&gt;ABC transporter ATP-binding protein&lt;br&gt;Location: 5677181 - 5676162&lt;br&gt;&lt;br&gt;&lt;b&gt;BlastP hit with ctg48_1&lt;/b&gt;&lt;br&gt;Percentage identity: 55&lt;br&gt;Percentage coverage: 98&lt;br&gt;BLAST bit score: 209&lt;br&gt;E-value: 3.7e-52" locus_tag="GA0070616_RS24955" class="clusterblast-orf" id="dummy-1_h1_1_39"  />
</g>
<g id="a1_0040"  >
<polygon points="448,85 453,80 454,80 454,90 453,90 448,85 " style="fill:#d81515; stroke-width:1; stroke:black; " description="&lt;b&gt;GA0070616_RS24950&lt;/b&gt;&lt;br&gt;ABC transporter permease&lt;br&gt;Location: 5676105 - 5675236&lt;br&gt;&lt;br&gt;&lt;b&gt;BlastP hit with ctg48_2&lt;/b&gt;&lt;br&gt;Percentage identity: 64&lt;br&gt;Percentage coverage: 82&lt;br&gt;BLAST bit score: 258&lt;br&gt;E-value: 1.1e-66" locus_tag="GA0070616_RS24950" class="clusterblast-orf" id="dummy-1_h1_1_40"  />
</g>
<g id="a1_0041"  >
<polygon points="454,85 459,80 461,80 461,90 459,90 454,85 " style="fill:#33d815; stroke-width:1; stroke:black; " description="&lt;b&gt;GA0070616_RS24945&lt;/b&gt;&lt;br&gt;ABC transporter permease&lt;br&gt;Location: 5675239 - 5674241&lt;br&gt;&lt;br&gt;&lt;b&gt;BlastP hit with ctg48_3&lt;/b&gt;&lt;br&gt;Percentage identity: 51&lt;br&gt;Percentage coverage: 91&lt;br&gt;BLAST bit score: 290&lt;br&gt;E-value: 3.2e-76" locus_tag="GA0070616_RS24945" class="clusterblast-orf" id="dummy-1_h1_1_41"  />
</g>
<g id="a1_0042"  >
<polygon points="461,85 466,80 473,80 473,90 466,90 461,85 " style="fill:#15abd8; stroke-width:1; stroke:black; " description="&lt;b&gt;GA0070616_RS24940&lt;/b&gt;&lt;br&gt;4-phytase&lt;br&gt;Location: 5674244 - 5672655&lt;br&gt;&lt;br&gt;&lt;b&gt;BlastP hit with ctg48_4&lt;/b&gt;&lt;br&gt;Percentage identity: 48&lt;br&gt;Percentage coverage: 94&lt;br&gt;BLAST bit score: 471&lt;br&gt;E-value: 1.6e-130" locus_tag="GA0070616_RS24940" class="clusterblast-orf" id="dummy-1_h1_1_42"  />
</g>
<g id="a1_0043"  >
<polygon points="474,85 478,80 478,90 474,85 " style="fill:white; stroke-width:1; stroke:black; " description="&lt;b&gt;GA0070616_RS24935&lt;/b&gt;&lt;br&gt;hypothetical protein&lt;br&gt;Location: 5672450 - 5671911" locus_tag="GA0070616_RS24935" class="clusterblast-orf" id="dummy-1_h1_1_43"  />
</g>
<g id="a1_0044"  >
<polygon points="479,85 483,80 483,90 479,85 " style="fill:white; stroke-width:1; stroke:black; " description="&lt;b&gt;GA0070616_RS24930&lt;/b&gt;&lt;br&gt;anti-sigma factor antagonist&lt;br&gt;Location: 5671790 - 5671206" locus_tag="GA0070616_RS24930" class="clusterblast-orf" id="dummy-1_h1_1_44"  />
</g>
<g id="a1_0045"  >
<polygon points="485,90 488,85 485,80 485,90 " style="fill:white; stroke-width:1; stroke:black; " description="&lt;b&gt;GA0070616_RS24925&lt;/b&gt;&lt;br&gt;ATP-binding protein&lt;br&gt;Location: 5670964 - 5670545" locus_tag="GA0070616_RS24925" class="clusterblast-orf" id="dummy-1_h1_1_45"  />
</g>
<g id="a1_0046"  >
<polygon points="489,90 491,85 489,80 489,90 " style="fill:white; stroke-width:1; stroke:black; " description="&lt;b&gt;GA0070616_RS24920&lt;/b&gt;&lt;br&gt;BON domain-containing protein&lt;br&gt;Location: 5670381 - 5670082" locus_tag="GA0070616_RS24920" class="clusterblast-orf" id="dummy-1_h1_1_46"  />
</g>
<g id="a1_0047"  >
<polygon points="492,85 497,80 503,80 503,90 497,90 492,85 " style="fill:white; stroke-width:1; stroke:black; " description="&lt;b&gt;GA0070616_RS24915&lt;/b&gt;&lt;br&gt;anibiotic ABC transporter&lt;br&gt;Location: 5670023 - 5668398" locus_tag="GA0070616_RS24915" class="clusterblast-orf" id="dummy-1_h1_1_47"  />
</g>
<g id="a1_0048"  >
<polygon points="503,85 508,80 510,80 510,90 508,90 503,85 " style="fill:white; stroke-width:1; stroke:black; " description="&lt;b&gt;GA0070616_RS24910&lt;/b&gt;&lt;br&gt;ABC transporter ATP-binding protein&lt;br&gt;Location: 5668401 - 5667427" locus_tag="GA0070616_RS24910" class="clusterblast-orf" id="dummy-1_h1_1_48"  />
</g>
<g id="a1_0049"  >
<polygon points="511,90 512,90 517,85 512,80 511,80 511,90 " style="fill:white; stroke-width:1; stroke:black; " description="&lt;b&gt;GA0070616_RS24905&lt;/b&gt;&lt;br&gt;HTH domain-containing protein&lt;br&gt;Location: 5667330 - 5666593" locus_tag="GA0070616_RS24905" class="clusterblast-orf" id="dummy-1_h1_1_49"  />
</g>
<g id="a1_0050"  >
<polygon points="518,90 526,90 531,85 526,80 518,80 518,90 " style="fill:white; stroke-width:1; stroke:black; " description="&lt;b&gt;GA0070616_RS24900&lt;/b&gt;&lt;br&gt;N-acetylglutaminylglutamine amidotransferase&lt;br&gt;Location: 5666363 - 5664579" locus_tag="GA0070616_RS24900" class="clusterblast-orf" id="dummy-1_h1_1_50"  />
</g>
<g id="a1_0051"  >
<polygon points="532,90 534,85 532,80 532,90 " style="fill:white; stroke-width:1; stroke:black; " description="&lt;b&gt;GA0070616_RS24895&lt;/b&gt;&lt;br&gt;hypothetical protein&lt;br&gt;Location: 5664506 - 5664126" locus_tag="GA0070616_RS24895" class="clusterblast-orf" id="dummy-1_h1_1_51"  />
</g>
<g id="a1_0052"  >
<polygon points="535,85 539,80 539,90 535,85 " style="fill:white; stroke-width:1; stroke:black; " description="&lt;b&gt;GA0070616_RS24890&lt;/b&gt;&lt;br&gt;hypothetical protein&lt;br&gt;Location: 5664114 - 5663500" locus_tag="GA0070616_RS24890" class="clusterblast-orf" id="dummy-1_h1_1_52"  />
</g>
<g id="a1_0053"  >
<polygon points="540,85 545,80 561,80 561,90 545,90 540,85 " style="fill:white; stroke-width:1; stroke:black; " description="&lt;b&gt;GA0070616_RS24885&lt;/b&gt;&lt;br&gt;hypothetical protein&lt;br&gt;Location: 5663385 - 5660503" locus_tag="GA0070616_RS24885" class="clusterblast-orf" id="dummy-1_h1_1_53"  />
</g>
<g id="a1_0054"  >
<polygon points="562,90 596,90 601,85 596,80 562,80 562,90 " style="fill:white; stroke-width:1; stroke:black; " description="&lt;b&gt;GA0070616_RS24880&lt;/b&gt;&lt;br&gt;MFS transporter&lt;br&gt;Location: 5660277 - 5654884" locus_tag="GA0070616_RS24880" class="clusterblast-orf" id="dummy-1_h1_1_54"  />
</g>
<g id="a1_0055"  >
<polygon points="601,90 607,90 612,85 607,80 601,80 601,90 " style="fill:white; stroke-width:1; stroke:black; " description="&lt;b&gt;GA0070616_RS24875&lt;/b&gt;&lt;br&gt;long-chain fatty acid--CoA ligase&lt;br&gt;Location: 5654887 - 5653388" locus_tag="GA0070616_RS24875" class="clusterblast-orf" id="dummy-1_h1_1_55"  />
</g>
<g id="a1_0056"  >
<polygon points="613,90 631,90 636,85 631,80 613,80 613,90 " style="fill:white; stroke-width:1; stroke:black; " description="&lt;b&gt;GA0070616_RS24870&lt;/b&gt;&lt;br&gt;hypothetical protein&lt;br&gt;Location: 5653319 - 5650131" locus_tag="GA0070616_RS24870" class="clusterblast-orf" id="dummy-1_h1_1_56"  />
</g>
<g id="a1_0057"  >
<polygon points="636,90 638,85 636,80 636,90 " style="fill:white; stroke-width:1; stroke:black; " description="&lt;b&gt;GA0070616_RS24865&lt;/b&gt;&lt;br&gt;acyl carrier protein&lt;br&gt;Location: 5650129 - 5649872" locus_tag="GA0070616_RS24865" class="clusterblast-orf" id="dummy-1_h1_1_57"  />
</g>
<g id="a1_0058"  >
<polygon points="638,85 643,80 646,80 646,90 643,90 638,85 " style="fill:white; stroke-width:1; stroke:black; " description="&lt;b&gt;GA0070616_RS24860&lt;/b&gt;&lt;br&gt;glutamate--cysteine ligase&lt;br&gt;Location: 5649865 - 5648729" locus_tag="GA0070616_RS24860" class="clusterblast-orf" id="dummy-1_h1_1_58"  />
</g>
<g id="a1_0059"  >
<polygon points="648,85 653,80 669,80 669,90 653,90 648,85 " style="fill:white; stroke-width:1; stroke:black; " description="&lt;b&gt;GA0070616_RS24855&lt;/b&gt;&lt;br&gt;hypothetical protein&lt;br&gt;Location: 5648487 - 5645584" locus_tag="GA0070616_RS24855" class="clusterblast-orf" id="dummy-1_h1_1_59"  />
</g>
<g id="a1_0060"  >
<polygon points="669,85 674,80 677,80 677,90 674,90 669,85 " style="fill:white; stroke-width:1; stroke:black; " description="&lt;b&gt;GA0070616_RS24850&lt;/b&gt;&lt;br&gt;ATPase&lt;br&gt;Location: 5645587 - 5644475" locus_tag="GA0070616_RS24850" class="clusterblast-orf" id="dummy-1_h1_1_60"  />
</g>
<g id="a1_0061"  >
<polygon points="677,85 682,80 687,80 687,90 682,90 677,85 " style="fill:white; stroke-width:1; stroke:black; " description="&lt;b&gt;GA0070616_RS24845&lt;/b&gt;&lt;br&gt;VWA domain-containing protein&lt;br&gt;Location: 5644458 - 5643097" locus_tag="GA0070616_RS24845" class="clusterblast-orf" id="dummy-1_h1_1_61"  />
</g>
<g id="a1_0062"  >
<polygon points="687,85 692,80 697,80 697,90 692,90 687,85 " style="fill:white; stroke-width:1; stroke:black; " description="&lt;b&gt;GA0070616_RS24840&lt;/b&gt;&lt;br&gt;hypothetical protein&lt;br&gt;Location: 5643100 - 5641709" locus_tag="GA0070616_RS24840" class="clusterblast-orf" id="dummy-1_h1_1_62"  />
</g>
<g id="a1_0063"  >
<polygon points="697,85 700,80 700,90 697,85 " style="fill:white; stroke-width:1; stroke:black; " description="&lt;b&gt;GA0070616_RS24835&lt;/b&gt;&lt;br&gt;hypothetical protein&lt;br&gt;Location: 5641709 - 5641245" locus_tag="GA0070616_RS24835" class="clusterblast-orf" id="dummy-1_h1_1_63"  />
</g>
<g id="a1_0064"  >
<polygon points="702,90 705,85 702,80 702,90 " style="fill:white; stroke-width:1; stroke:black; " description="&lt;b&gt;GA0070616_RS24830&lt;/b&gt;&lt;br&gt;ArsR family transcriptional regulator&lt;br&gt;Location: 5641027 - 5640665" locus_tag="GA0070616_RS24830" class="clusterblast-orf" id="dummy-1_h1_1_64"  />
</g>
<g id="a1_0065"  >
<polygon points="705,90 709,85 705,80 705,90 " style="fill:white; stroke-width:1; stroke:black; " description="&lt;b&gt;GA0070616_RS24825&lt;/b&gt;&lt;br&gt;polyketide cyclase&lt;br&gt;Location: 5640668 - 5640027" locus_tag="GA0070616_RS24825" class="clusterblast-orf" id="dummy-1_h1_1_65"  />
</g>
<g id="a1_0066"  >
<polygon points="710,90 714,85 710,80 710,90 " style="fill:white; stroke-width:1; stroke:black; " description="&lt;b&gt;GA0070616_RS24820&lt;/b&gt;&lt;br&gt;NUDIX domain-containing protein&lt;br&gt;Location: 5639920 - 5639408" locus_tag="GA0070616_RS24820" class="clusterblast-orf" id="dummy-1_h1_1_66"  />
</g>
<g id="a1_0067"  >
<polygon points="715,90 724,90 729,85 724,80 715,80 715,90 " style="fill:white; stroke-width:1; stroke:black; " description="&lt;b&gt;GA0070616_RS24815&lt;/b&gt;&lt;br&gt;adenylyl cyclase&lt;br&gt;Location: 5639217 - 5637343" locus_tag="GA0070616_RS24815" class="clusterblast-orf" id="dummy-1_h1_1_67"  />
</g>
<g id="a1_0068"  >
<polygon points="731,90 735,85 731,80 731,90 " style="fill:white; stroke-width:1; stroke:black; " description="&lt;b&gt;GA0070616_RS24810&lt;/b&gt;&lt;br&gt;SsrA-binding protein SmpB&lt;br&gt;Location: 5637015 - 5636524" locus_tag="GA0070616_RS24810" class="clusterblast-orf" id="dummy-1_h1_1_68"  />
</g>
<g id="a1_0069"  >
<polygon points="737,85 742,80 744,80 744,90 742,90 737,85 " style="fill:white; stroke-width:1; stroke:black; " description="&lt;b&gt;GA0070616_RS24805&lt;/b&gt;&lt;br&gt;hypothetical protein&lt;br&gt;Location: 5636252 - 5635203" locus_tag="GA0070616_RS24805" class="clusterblast-orf" id="dummy-1_h1_1_69"  />
</g>
<g id="a1_0070"  >
<polygon points="743,85 748,80 752,80 752,90 748,90 743,85 " style="fill:white; stroke-width:1; stroke:black; " description="&lt;b&gt;GA0070616_RS24800&lt;/b&gt;&lt;br&gt;glutamate ABC transporter substrate-binding protein&lt;br&gt;Location: 5635299 - 5634175" locus_tag="GA0070616_RS24800" class="clusterblast-orf" id="dummy-1_h1_1_70"  />
</g>
<g id="a1_0071"  >
<polygon points="753,90 756,85 753,80 753,90 " style="fill:white; stroke-width:1; stroke:black; " description="&lt;b&gt;GA0070616_RS24795&lt;/b&gt;&lt;br&gt;helix-turn-helix domain-containing protein&lt;br&gt;Location: 5633982 - 5633572" locus_tag="GA0070616_RS24795" class="clusterblast-orf" id="dummy-1_h1_1_71"  />
</g>
<g id="a1_0072"  >
<polygon points="756,90 757,90 762,85 757,80 756,80 756,90 " style="fill:white; stroke-width:1; stroke:black; " description="&lt;b&gt;GA0070616_RS24790&lt;/b&gt;&lt;br&gt;molybdate ABC transporter substrate-binding protein&lt;br&gt;Location: 5633572 - 5632781" locus_tag="GA0070616_RS24790" class="clusterblast-orf" id="dummy-1_h1_1_72"  />
</g>
<g id="a1_0073"  >
<polygon points="762,90 763,90 768,85 763,80 762,80 762,90 " style="fill:white; stroke-width:1; stroke:black; " description="&lt;b&gt;GA0070616_RS24785&lt;/b&gt;&lt;br&gt;molybdate ABC transporter permease subunit&lt;br&gt;Location: 5632688 - 5631918" locus_tag="GA0070616_RS24785" class="clusterblast-orf" id="dummy-1_h1_1_73"  />
</g>
<g id="a1_0074"  >
<polygon points="768,90 771,90 776,85 771,80 768,80 768,90 " style="fill:#d815c9; stroke-width:1; stroke:black; " description="&lt;b&gt;GA0070616_RS24780&lt;/b&gt;&lt;br&gt;ABC transporter ATP-binding protein&lt;br&gt;Location: 5631936 - 5630854&lt;br&gt;&lt;br&gt;&lt;b&gt;BlastP hit with ctg48_11&lt;/b&gt;&lt;br&gt;Percentage identity: 36&lt;br&gt;Percentage coverage: 68&lt;br&gt;BLAST bit score: 114&lt;br&gt;E-value: 2.6e-23" locus_tag="GA0070616_RS24780" class="clusterblast-orf" id="dummy-1_h1_1_74"  />
</g>
<g id="a1_0075"  >
<polygon points="776,85 780,80 780,90 776,85 " style="fill:white; stroke-width:1; stroke:black; " description="&lt;b&gt;GA0070616_RS24775&lt;/b&gt;&lt;br&gt;hypothetical protein&lt;br&gt;Location: 5630784 - 5630329" locus_tag="GA0070616_RS24775" class="clusterblast-orf" id="dummy-1_h1_1_75"  />
</g>
</svg>
