<svg xmlns="http://www.w3.org/2000/svg" xmlns:xlink="http://www.w3.org/1999/xlink" version="1.1" x="0" y="0" height="230" width="800" viewBox="0 0 800 230" preserveAspectRatio="none"  >
<g label="Query sequence" class="clusterblast-cluster"  >
<text x="5" y="20" class="clusterblast-acc"  >
Query sequence</text>
<line x1="10" y1="35" x2="778.0" y2="35" style="stroke-width:1; stroke:grey; "  />
<polygon points="79,35 84,30 91,30 91,40 84,40 79,35 " style="fill:#d81515; stroke-width:1; stroke:black; " description="&lt;b&gt;ctg10_3&lt;/b&gt;&lt;br&gt;ctg10 3&lt;br&gt;Location: 1323 - 2112" locus_tag="ctg10_3" class="clusterblast-orf" id="dummy-1_q0_0_all"  />
<polygon points="92,35 97,30 104,30 104,40 97,40 92,35 " style="fill:#60d815; stroke-width:1; stroke:black; " description="&lt;b&gt;ctg10_4&lt;/b&gt;&lt;br&gt;ctg10 4&lt;br&gt;Location: 2216 - 2984" locus_tag="ctg10_4" class="clusterblast-orf" id="dummy-1_q1_0_all"  />
<polygon points="104,35 109,30 119,30 119,40 109,40 104,35 " style="fill:#15abd8; stroke-width:1; stroke:black; " description="&lt;b&gt;ctg10_5&lt;/b&gt;&lt;br&gt;ctg10 5&lt;br&gt;Location: 2980 - 4036" locus_tag="ctg10_5" class="clusterblast-orf" id="dummy-1_q2_0_all"  />
<polygon points="119,35 124,30 134,30 134,40 124,40 119,35 " style="fill:#8d15d8; stroke-width:1; stroke:black; " description="&lt;b&gt;ctg10_6&lt;/b&gt;&lt;br&gt;ctg10 6&lt;br&gt;Location: 4013 - 5075" locus_tag="ctg10_6" class="clusterblast-orf" id="dummy-1_q3_0_all"  />
<polygon points="136,35 141,30 142,30 142,40 141,40 136,35 " style="fill:#d84215; stroke-width:1; stroke:black; " description="&lt;b&gt;ctg10_7&lt;/b&gt;&lt;br&gt;ctg10 7&lt;br&gt;Location: 5216 - 5612" locus_tag="ctg10_7" class="clusterblast-orf" id="dummy-1_q4_0_all"  />
<polygon points="142,35 144,30 144,40 142,35 " style="fill:white; stroke-width:1; stroke:black; " description="&lt;b&gt;ctg10_8&lt;/b&gt;&lt;br&gt;ctg10 8&lt;br&gt;Location: 5608 - 5755" locus_tag="ctg10_8" class="clusterblast-orf" id="dummy-1_q5_0_all"  />
<polygon points="144,35 149,30 157,30 157,40 149,40 144,35 " style="fill:#33d815; stroke-width:1; stroke:black; " description="&lt;b&gt;ctg10_9&lt;/b&gt;&lt;br&gt;ctg10 9&lt;br&gt;Location: 5754 - 6642" locus_tag="ctg10_9" class="clusterblast-orf" id="dummy-1_q6_0_all"  />
<polygon points="157,35 162,30 165,30 165,40 162,40 157,35 " style="fill:#60d815; stroke-width:1; stroke:black; " description="&lt;b&gt;ctg10_10&lt;/b&gt;&lt;br&gt;ctg10 10&lt;br&gt;Location: 6641 - 7232" locus_tag="ctg10_10" class="clusterblast-orf" id="dummy-1_q7_0_all"  />
<polygon points="167,35 172,30 183,30 183,40 172,40 167,35 " style="fill:#157ed8; stroke-width:1; stroke:black; " description="&lt;b&gt;ctg10_11&lt;/b&gt;&lt;br&gt;ctg10 11&lt;br&gt;Location: 7374 - 8433" locus_tag="ctg10_11" class="clusterblast-orf" id="dummy-1_q8_0_all"  />
<polygon points="184,35 189,30 208,30 208,40 189,40 184,35 " style="fill:#ba15d8; stroke-width:1; stroke:black; " description="&lt;b&gt;ctg10_12&lt;/b&gt;&lt;br&gt;ctg10 12&lt;br&gt;Location: 8508 - 10176" locus_tag="ctg10_12" class="clusterblast-orf" id="dummy-1_q9_0_all"  />
<polygon points="210,35 215,30 231,30 231,40 215,40 210,35 " style="fill:#d86f15; stroke-width:1; stroke:black; " description="&lt;b&gt;ctg10_13&lt;/b&gt;&lt;br&gt;ctg10 13&lt;br&gt;Location: 10316 - 11744" locus_tag="ctg10_13" class="clusterblast-orf" id="dummy-1_q10_0_all"  />
<polygon points="243,40 252,40 257,35 252,30 243,30 243,40 " style="fill:#15d824; stroke-width:1; stroke:black; " description="&lt;b&gt;ctg10_14&lt;/b&gt;&lt;br&gt;ctg10 14&lt;br&gt;Location: 12589 - 13531" locus_tag="ctg10_14" class="clusterblast-orf" id="dummy-1_q11_0_all"  />
<polygon points="258,35 263,30 276,30 276,40 263,40 258,35 " style="fill:#1551d8; stroke-width:1; stroke:black; " description="&lt;b&gt;ctg10_15&lt;/b&gt;&lt;br&gt;ctg10 15&lt;br&gt;Location: 13580 - 14822" locus_tag="ctg10_15" class="clusterblast-orf" id="dummy-1_q12_0_all"  />
<polygon points="277,35 282,30 287,30 287,40 282,40 277,35 " style="fill:#d815c9; stroke-width:1; stroke:black; " description="&lt;b&gt;ctg10_16&lt;/b&gt;&lt;br&gt;ctg10 16&lt;br&gt;Location: 14902 - 15634" locus_tag="ctg10_16" class="clusterblast-orf" id="dummy-1_q13_0_all"  />
<polygon points="288,35 293,30 299,30 299,40 293,40 288,35 " style="fill:#d89c15; stroke-width:1; stroke:black; " description="&lt;b&gt;ctg10_17&lt;/b&gt;&lt;br&gt;ctg10 17&lt;br&gt;Location: 15649 - 16441" locus_tag="ctg10_17" class="clusterblast-orf" id="dummy-1_q14_0_all"  />
<polygon points="301,40 315,40 320,35 315,30 301,30 301,40 " style="fill:#15d851; stroke-width:1; stroke:black; " description="&lt;b&gt;ctg10_18&lt;/b&gt;&lt;br&gt;ctg10 18&lt;br&gt;Location: 16592 - 17858" locus_tag="ctg10_18" class="clusterblast-orf" id="dummy-1_q15_0_all"  />
<polygon points="320,35 325,30 348,30 348,40 325,40 320,35 " style="fill:#d815c9; stroke-width:1; stroke:black; " description="&lt;b&gt;ctg10_19&lt;/b&gt;&lt;br&gt;ctg10 19&lt;br&gt;Location: 17847 - 19836" locus_tag="ctg10_19" class="clusterblast-orf" id="dummy-1_q16_0_all"  />
<polygon points="348,35 353,30 365,30 365,40 353,40 348,35 " style="fill:#1524d8; stroke-width:1; stroke:black; " description="&lt;b&gt;ctg10_20&lt;/b&gt;&lt;br&gt;ctg10 20&lt;br&gt;Location: 19832 - 20975" locus_tag="ctg10_20" class="clusterblast-orf" id="dummy-1_q17_0_all"  />
<polygon points="365,35 370,30 444,30 444,40 370,40 365,35 " style="fill:#d8159c; stroke-width:1; stroke:black; " description="&lt;b&gt;ctg10_21&lt;/b&gt;&lt;br&gt;ctg10 21&lt;br&gt;Location: 20971 - 26440" locus_tag="ctg10_21" class="clusterblast-orf" id="dummy-1_q18_0_all"  />
<polygon points="444,35 449,30 541,30 541,40 449,40 444,35 " style="fill:#d8159c; stroke-width:1; stroke:black; " description="&lt;b&gt;ctg10_22&lt;/b&gt;&lt;br&gt;ctg10 22&lt;br&gt;Location: 26436 - 33066" locus_tag="ctg10_22" class="clusterblast-orf" id="dummy-1_q19_0_all"  />
<polygon points="544,40 563,40 568,35 563,30 544,30 544,40 " style="fill:#d8c915; stroke-width:1; stroke:black; " description="&lt;b&gt;ctg10_23&lt;/b&gt;&lt;br&gt;ctg10 23&lt;br&gt;Location: 33293 - 34934" locus_tag="ctg10_23" class="clusterblast-orf" id="dummy-1_q20_0_all"  />
<polygon points="569,40 572,35 569,30 569,40 " style="fill:#15d87e; stroke-width:1; stroke:black; " description="&lt;b&gt;ctg10_24&lt;/b&gt;&lt;br&gt;ctg10 24&lt;br&gt;Location: 35016 - 35214" locus_tag="ctg10_24" class="clusterblast-orf" id="dummy-1_q21_0_all"  />
<polygon points="573,40 591,40 596,35 591,30 573,30 573,40 " style="fill:#3315d8; stroke-width:1; stroke:black; " description="&lt;b&gt;ctg10_25&lt;/b&gt;&lt;br&gt;ctg10 25&lt;br&gt;Location: 35279 - 36863" locus_tag="ctg10_25" class="clusterblast-orf" id="dummy-1_q22_0_all"  />
<polygon points="596,40 605,40 610,35 605,30 596,30 596,40 " style="fill:#d8156f; stroke-width:1; stroke:black; " description="&lt;b&gt;ctg10_26&lt;/b&gt;&lt;br&gt;ctg10 26&lt;br&gt;Location: 36859 - 37813" locus_tag="ctg10_26" class="clusterblast-orf" id="dummy-1_q23_0_all"  />
<polygon points="610,40 617,40 622,35 617,30 610,30 610,40 " style="fill:#bad815; stroke-width:1; stroke:black; " description="&lt;b&gt;ctg10_27&lt;/b&gt;&lt;br&gt;ctg10 27&lt;br&gt;Location: 37809 - 38679" locus_tag="ctg10_27" class="clusterblast-orf" id="dummy-1_q24_0_all"  />
<polygon points="622,40 640,40 645,35 640,30 622,30 622,40 " style="fill:#15d8ab; stroke-width:1; stroke:black; " description="&lt;b&gt;ctg10_28&lt;/b&gt;&lt;br&gt;ctg10 28&lt;br&gt;Location: 38671 - 40213" locus_tag="ctg10_28" class="clusterblast-orf" id="dummy-1_q25_0_all"  />
<polygon points="646,35 651,30 665,30 665,40 651,40 646,35 " style="fill:#6015d8; stroke-width:1; stroke:black; " description="&lt;b&gt;ctg10_29&lt;/b&gt;&lt;br&gt;ctg10 29&lt;br&gt;Location: 40283 - 41624" locus_tag="ctg10_29" class="clusterblast-orf" id="dummy-1_q26_0_all"  />
<polygon points="670,40 671,40 676,35 671,30 670,30 670,40 " style="fill:#d81542; stroke-width:1; stroke:black; " description="&lt;b&gt;ctg10_30&lt;/b&gt;&lt;br&gt;ctg10 30&lt;br&gt;Location: 41976 - 42363" locus_tag="ctg10_30" class="clusterblast-orf" id="dummy-1_q27_0_all"  />
<polygon points="681,40 681,40 686,35 681,30 681,30 681,40 " style="fill:#8dd815; stroke-width:1; stroke:black; " description="&lt;b&gt;ctg10_31&lt;/b&gt;&lt;br&gt;ctg10 31&lt;br&gt;Location: 42745 - 43039" locus_tag="ctg10_31" class="clusterblast-orf" id="dummy-1_q28_0_all"  />
<polygon points="687,35 692,30 700,30 700,40 692,40 687,35 " style="fill:#15d8d8; stroke-width:1; stroke:black; " description="&lt;b&gt;ctg10_32&lt;/b&gt;&lt;br&gt;ctg10 32&lt;br&gt;Location: 43112 - 44015" locus_tag="ctg10_32" class="clusterblast-orf" id="dummy-1_q29_0_all"  />
</g>
<g label="NZ_FPAB01000001" description="NZ_FPAB01000001_c11: Streptomyces harbinensis strain CGMCC 4.7047, whole geno... (76% of genes show similarity), nrps" class="clusterblast-cluster"  >
<text x="5" y="70" class="clusterblast-acc"  >
<a xlink:href="https://antismash-db.secondarymetabolites.org/go/NZ_FPAB01000001/11" target="_blank">NZ_FPAB01000001_c11</a>: Streptomyces harbinensis strain CGMCC 4.7047, whole geno... (76% of genes show similarity), nrps</text>
<line x1="10" y1="85" x2="778.0" y2="85" style="stroke-width:1; stroke:grey; "  />
</g>
<g id="a1_000"  >
<polygon points="0,85 5,80 11,80 11,90 5,90 0,85 " style="fill:#d81515; stroke-width:1; stroke:black; " description="&lt;b&gt;BM385_RS02905&lt;/b&gt;&lt;br&gt;hypothetical protein&lt;br&gt;Location: 646428 - 645667&lt;br&gt;&lt;br&gt;&lt;b&gt;BlastP hit with ctg10_3&lt;/b&gt;&lt;br&gt;Percentage identity: 98&lt;br&gt;Percentage coverage: 98&lt;br&gt;BLAST bit score: 449&lt;br&gt;E-value: 3e-124" locus_tag="BM385_RS02905" class="clusterblast-orf" id="dummy-1_h1_1_0"  />
</g>
<g id="a1_001"  >
<polygon points="12,85 17,80 23,80 23,90 17,90 12,85 " style="fill:#60d815; stroke-width:1; stroke:black; " description="&lt;b&gt;BM385_RS02900&lt;/b&gt;&lt;br&gt;ABC transporter ATP-binding protein&lt;br&gt;Location: 645544 - 644777&lt;br&gt;&lt;br&gt;&lt;b&gt;BlastP hit with ctg10_4&lt;/b&gt;&lt;br&gt;Percentage identity: 100&lt;br&gt;Percentage coverage: 100&lt;br&gt;BLAST bit score: 506&lt;br&gt;E-value: 2e-141&lt;br&gt;&lt;br&gt;&lt;b&gt;BlastP hit with ctg10_10&lt;/b&gt;&lt;br&gt;Percentage identity: 40&lt;br&gt;Percentage coverage: 97&lt;br&gt;BLAST bit score: 102&lt;br&gt;E-value: 6.8e-20" locus_tag="BM385_RS02900" class="clusterblast-orf" id="dummy-1_h1_1_1"  />
</g>
<g id="a1_002"  >
<polygon points="23,85 28,80 39,80 39,90 28,90 23,85 " style="fill:#15abd8; stroke-width:1; stroke:black; " description="&lt;b&gt;BM385_RS02895&lt;/b&gt;&lt;br&gt;iron ABC transporter permease&lt;br&gt;Location: 644780 - 643725&lt;br&gt;&lt;br&gt;&lt;b&gt;BlastP hit with ctg10_5&lt;/b&gt;&lt;br&gt;Percentage identity: 100&lt;br&gt;Percentage coverage: 100&lt;br&gt;BLAST bit score: 636&lt;br&gt;E-value: 1.4e-180" locus_tag="BM385_RS02895" class="clusterblast-orf" id="dummy-1_h1_1_2"  />
</g>
<g id="a1_003"  >
<polygon points="38,85 43,80 54,80 54,90 43,90 38,85 " style="fill:#8d15d8; stroke-width:1; stroke:black; " description="&lt;b&gt;BM385_RS02890&lt;/b&gt;&lt;br&gt;ABC transporter iron(III)/siderophore-binding protein&lt;br&gt;Location: 643747 - 642686&lt;br&gt;&lt;br&gt;&lt;b&gt;BlastP hit with ctg10_6&lt;/b&gt;&lt;br&gt;Percentage identity: 99&lt;br&gt;Percentage coverage: 100&lt;br&gt;BLAST bit score: 668&lt;br&gt;E-value: 4.3e-190" locus_tag="BM385_RS02890" class="clusterblast-orf" id="dummy-1_h1_1_3"  />
</g>
<g id="a1_004"  >
<polygon points="56,85 61,80 63,80 63,90 61,90 56,85 " style="fill:#d84215; stroke-width:1; stroke:black; " description="&lt;b&gt;BM385_RS02885&lt;/b&gt;&lt;br&gt;transcriptional repressor&lt;br&gt;Location: 642545 - 642078&lt;br&gt;&lt;br&gt;&lt;b&gt;BlastP hit with ctg10_7&lt;/b&gt;&lt;br&gt;Percentage identity: 99&lt;br&gt;Percentage coverage: 100&lt;br&gt;BLAST bit score: 267&lt;br&gt;E-value: 1.1e-69" locus_tag="BM385_RS02885" class="clusterblast-orf" id="dummy-1_h1_1_4"  />
</g>
<g id="a1_005"  >
<polygon points="64,85 69,80 77,80 77,90 69,90 64,85 " style="fill:#33d815; stroke-width:1; stroke:black; " description="&lt;b&gt;BM385_RS02880&lt;/b&gt;&lt;br&gt;anchored repeat-type ABC transporter permease subunit&lt;br&gt;Location: 642007 - 641120&lt;br&gt;&lt;br&gt;&lt;b&gt;BlastP hit with ctg10_9&lt;/b&gt;&lt;br&gt;Percentage identity: 100&lt;br&gt;Percentage coverage: 100&lt;br&gt;BLAST bit score: 533&lt;br&gt;E-value: 1.4e-149" locus_tag="BM385_RS02880" class="clusterblast-orf" id="dummy-1_h1_1_5"  />
</g>
<g id="a1_006"  >
<polygon points="77,85 82,80 87,80 87,90 82,90 77,85 " style="fill:#60d815; stroke-width:1; stroke:black; " description="&lt;b&gt;BM385_RS02875&lt;/b&gt;&lt;br&gt;anchored repeat-type ABC transporter ATP-binding subunit&lt;br&gt;Location: 641120 - 640374&lt;br&gt;&lt;br&gt;&lt;b&gt;BlastP hit with ctg10_4&lt;/b&gt;&lt;br&gt;Percentage identity: 41&lt;br&gt;Percentage coverage: 94&lt;br&gt;BLAST bit score: 138&lt;br&gt;E-value: 8.5e-31&lt;br&gt;&lt;br&gt;&lt;b&gt;BlastP hit with ctg10_10&lt;/b&gt;&lt;br&gt;Percentage identity: 100&lt;br&gt;Percentage coverage: 100&lt;br&gt;BLAST bit score: 389&lt;br&gt;E-value: 2.1e-106" locus_tag="BM385_RS02875" class="clusterblast-orf" id="dummy-1_h1_1_6"  />
</g>
<g id="a1_007"  >
<polygon points="87,85 92,80 102,80 102,90 92,90 87,85 " style="fill:#157ed8; stroke-width:1; stroke:black; " description="&lt;b&gt;BM385_RS02870&lt;/b&gt;&lt;br&gt;hypothetical protein&lt;br&gt;Location: 640377 - 639397&lt;br&gt;&lt;br&gt;&lt;b&gt;BlastP hit with ctg10_11&lt;/b&gt;&lt;br&gt;Percentage identity: 99&lt;br&gt;Percentage coverage: 93&lt;br&gt;BLAST bit score: 594&lt;br&gt;E-value: 6e-168" locus_tag="BM385_RS02870" class="clusterblast-orf" id="dummy-1_h1_1_7"  />
</g>
<g id="a1_008"  >
<polygon points="104,85 109,80 128,80 128,90 109,90 104,85 " style="fill:#ba15d8; stroke-width:1; stroke:black; " description="&lt;b&gt;BM385_RS02865&lt;/b&gt;&lt;br&gt;anchored repeat ABC transporter, substrate-binding protein&lt;br&gt;Location: 639243 - 637576&lt;br&gt;&lt;br&gt;&lt;b&gt;BlastP hit with ctg10_12&lt;/b&gt;&lt;br&gt;Percentage identity: 99&lt;br&gt;Percentage coverage: 100&lt;br&gt;BLAST bit score: 1054&lt;br&gt;E-value: 3.3e-306" locus_tag="BM385_RS02865" class="clusterblast-orf" id="dummy-1_h1_1_8"  />
</g>
<g id="a1_009"  >
<polygon points="130,85 135,80 166,80 166,90 135,90 130,85 " style="fill:#d86f15; stroke-width:1; stroke:black; " description="&lt;b&gt;BM385_RS02860&lt;/b&gt;&lt;br&gt;hypothetical protein&lt;br&gt;Location: 637435 - 634952&lt;br&gt;&lt;br&gt;&lt;b&gt;BlastP hit with ctg10_13&lt;/b&gt;&lt;br&gt;Percentage identity: 81&lt;br&gt;Percentage coverage: 122&lt;br&gt;BLAST bit score: 887&lt;br&gt;E-value: 7.8e-256" locus_tag="BM385_RS02860" class="clusterblast-orf" id="dummy-1_h1_1_9"  />
</g>
<g id="a1_0010"  >
<polygon points="169,90 176,90 181,85 176,80 169,80 169,90 " style="fill:#15d824; stroke-width:1; stroke:black; " description="&lt;b&gt;BM385_RS02855&lt;/b&gt;&lt;br&gt;methyltransferase domain-containing protein&lt;br&gt;Location: 634750 - 633911&lt;br&gt;&lt;br&gt;&lt;b&gt;BlastP hit with ctg10_14&lt;/b&gt;&lt;br&gt;Percentage identity: 99&lt;br&gt;Percentage coverage: 89&lt;br&gt;BLAST bit score: 546&lt;br&gt;E-value: 2.2e-153" locus_tag="BM385_RS02855" class="clusterblast-orf" id="dummy-1_h1_1_10"  />
</g>
<g id="a1_0011"  >
<polygon points="182,85 187,80 200,80 200,90 187,90 182,85 " style="fill:#1551d8; stroke-width:1; stroke:black; " description="&lt;b&gt;BM385_RS02850&lt;/b&gt;&lt;br&gt;GTP-binding protein&lt;br&gt;Location: 633861 - 632620&lt;br&gt;&lt;br&gt;&lt;b&gt;BlastP hit with ctg10_15&lt;/b&gt;&lt;br&gt;Percentage identity: 99&lt;br&gt;Percentage coverage: 100&lt;br&gt;BLAST bit score: 816&lt;br&gt;E-value: 1.9e-234" locus_tag="BM385_RS02850" class="clusterblast-orf" id="dummy-1_h1_1_11"  />
</g>
<g id="a1_0012"  >
<polygon points="201,85 206,80 212,80 212,90 206,90 201,85 " style="fill:#d815c9; stroke-width:1; stroke:black; " description="&lt;b&gt;BM385_RS02845&lt;/b&gt;&lt;br&gt;class I SAM-dependent methyltransferase&lt;br&gt;Location: 632539 - 631808&lt;br&gt;&lt;br&gt;&lt;b&gt;BlastP hit with ctg10_16&lt;/b&gt;&lt;br&gt;Percentage identity: 99&lt;br&gt;Percentage coverage: 100&lt;br&gt;BLAST bit score: 477&lt;br&gt;E-value: 1.3e-132&lt;br&gt;&lt;br&gt;&lt;b&gt;BlastP hit with ctg10_19&lt;/b&gt;&lt;br&gt;Percentage identity: 45&lt;br&gt;Percentage coverage: 36&lt;br&gt;BLAST bit score: 201&lt;br&gt;E-value: 3.6e-49" locus_tag="BM385_RS02845" class="clusterblast-orf" id="dummy-1_h1_1_12"  />
</g>
<g id="a1_0013"  >
<polygon points="212,85 217,80 224,80 224,90 217,90 212,85 " style="fill:#d89c15; stroke-width:1; stroke:black; " description="&lt;b&gt;BM385_RS02840&lt;/b&gt;&lt;br&gt;thioesterase&lt;br&gt;Location: 631792 - 631010&lt;br&gt;&lt;br&gt;&lt;b&gt;BlastP hit with ctg10_17&lt;/b&gt;&lt;br&gt;Percentage identity: 98&lt;br&gt;Percentage coverage: 99&lt;br&gt;BLAST bit score: 525&lt;br&gt;E-value: 2.5e-147" locus_tag="BM385_RS02840" class="clusterblast-orf" id="dummy-1_h1_1_13"  />
</g>
<g id="a1_0014"  >
<polygon points="226,90 239,90 244,85 239,80 226,80 226,90 " style="fill:#15d851; stroke-width:1; stroke:black; " description="&lt;b&gt;BM385_RS02835&lt;/b&gt;&lt;br&gt;cytochrome P450&lt;br&gt;Location: 630810 - 629584&lt;br&gt;&lt;br&gt;&lt;b&gt;BlastP hit with ctg10_18&lt;/b&gt;&lt;br&gt;Percentage identity: 100&lt;br&gt;Percentage coverage: 97&lt;br&gt;BLAST bit score: 792&lt;br&gt;E-value: 3e-227" locus_tag="BM385_RS02835" class="clusterblast-orf" id="dummy-1_h1_1_14"  />
</g>
<g id="a1_0015"  >
<polygon points="244,85 249,80 273,80 273,90 249,90 244,85 " style="fill:#d815c9; stroke-width:1; stroke:black; " description="&lt;b&gt;BM385_RS02830&lt;/b&gt;&lt;br&gt;methyltransferase domain-containing protein&lt;br&gt;Location: 629594 - 627615&lt;br&gt;&lt;br&gt;&lt;b&gt;BlastP hit with ctg10_16&lt;/b&gt;&lt;br&gt;Percentage identity: 45&lt;br&gt;Percentage coverage: 97&lt;br&gt;BLAST bit score: 200&lt;br&gt;E-value: 2.3e-49&lt;br&gt;&lt;br&gt;&lt;b&gt;BlastP hit with ctg10_19&lt;/b&gt;&lt;br&gt;Percentage identity: 99&lt;br&gt;Percentage coverage: 100&lt;br&gt;BLAST bit score: 1247&lt;br&gt;E-value: 0.0" locus_tag="BM385_RS02830" class="clusterblast-orf" id="dummy-1_h1_1_15"  />
</g>
<g id="a1_0016"  >
<polygon points="273,85 278,80 289,80 289,90 278,90 273,85 " style="fill:#1524d8; stroke-width:1; stroke:black; " description="&lt;b&gt;BM385_RS02825&lt;/b&gt;&lt;br&gt;hypothetical protein&lt;br&gt;Location: 627618 - 626476&lt;br&gt;&lt;br&gt;&lt;b&gt;BlastP hit with ctg10_20&lt;/b&gt;&lt;br&gt;Percentage identity: 100&lt;br&gt;Percentage coverage: 100&lt;br&gt;BLAST bit score: 709&lt;br&gt;E-value: 1.8e-202" locus_tag="BM385_RS02825" class="clusterblast-orf" id="dummy-1_h1_1_16"  />
</g>
<g id="a1_0017"  >
<polygon points="289,85 294,80 369,80 369,90 294,90 289,85 " style="fill:#d8159c; stroke-width:1; stroke:black; " description="&lt;b&gt;BM385_RS02820&lt;/b&gt;&lt;br&gt;amino acid adenylation domain-containing protein&lt;br&gt;Location: 626479 - 621008&lt;br&gt;&lt;br&gt;&lt;b&gt;BlastP hit with ctg10_21&lt;/b&gt;&lt;br&gt;Percentage identity: 100&lt;br&gt;Percentage coverage: 100&lt;br&gt;BLAST bit score: 3538&lt;br&gt;E-value: 0.0&lt;br&gt;&lt;br&gt;&lt;b&gt;BlastP hit with ctg10_22&lt;/b&gt;&lt;br&gt;Percentage identity: 41&lt;br&gt;Percentage coverage: 42&lt;br&gt;BLAST bit score: 587&lt;br&gt;E-value: 6e-165" locus_tag="BM385_RS02820" class="clusterblast-orf" id="dummy-1_h1_1_17"  />
</g>
<g id="a1_0018"  >
<polygon points="369,85 374,80 465,80 465,90 374,90 369,85 " style="fill:#d8159c; stroke-width:1; stroke:black; " description="&lt;b&gt;BM385_RS02815&lt;/b&gt;&lt;br&gt;amino acid adenylation domain-containing protein&lt;br&gt;Location: 621011 - 614379&lt;br&gt;&lt;br&gt;&lt;b&gt;BlastP hit with ctg10_21&lt;/b&gt;&lt;br&gt;Percentage identity: 41&lt;br&gt;Percentage coverage: 51&lt;br&gt;BLAST bit score: 573&lt;br&gt;E-value: 9.6e-161&lt;br&gt;&lt;br&gt;&lt;b&gt;BlastP hit with ctg10_22&lt;/b&gt;&lt;br&gt;Percentage identity: 99&lt;br&gt;Percentage coverage: 100&lt;br&gt;BLAST bit score: 4176&lt;br&gt;E-value: 0.0" locus_tag="BM385_RS02815" class="clusterblast-orf" id="dummy-1_h1_1_18"  />
</g>
<g id="a1_0019"  >
<polygon points="469,90 487,90 492,85 487,80 469,80 469,90 " style="fill:#d8c915; stroke-width:1; stroke:black; " description="&lt;b&gt;BM385_RS02810&lt;/b&gt;&lt;br&gt;2,3-dihydroxybenzoate-AMP ligase&lt;br&gt;Location: 614150 - 612510&lt;br&gt;&lt;br&gt;&lt;b&gt;BlastP hit with ctg10_23&lt;/b&gt;&lt;br&gt;Percentage identity: 99&lt;br&gt;Percentage coverage: 100&lt;br&gt;BLAST bit score: 1110&lt;br&gt;E-value: 0.0" locus_tag="BM385_RS02810" class="clusterblast-orf" id="dummy-1_h1_1_19"  />
</g>
<g id="a1_0020"  >
<polygon points="494,90 496,85 494,80 494,90 " style="fill:#15d87e; stroke-width:1; stroke:black; " description="&lt;b&gt;BM385_RS02805&lt;/b&gt;&lt;br&gt;hypothetical protein&lt;br&gt;Location: 612427 - 612230&lt;br&gt;&lt;br&gt;&lt;b&gt;BlastP hit with ctg10_24&lt;/b&gt;&lt;br&gt;Percentage identity: 100&lt;br&gt;Percentage coverage: 100&lt;br&gt;BLAST bit score: 139&lt;br&gt;E-value: 9.7e-32" locus_tag="BM385_RS02805" class="clusterblast-orf" id="dummy-1_h1_1_20"  />
</g>
<g id="a1_0021"  >
<polygon points="497,90 515,90 520,85 515,80 497,80 497,90 " style="fill:#3315d8; stroke-width:1; stroke:black; " description="&lt;b&gt;BM385_RS02800&lt;/b&gt;&lt;br&gt;ABC transporter substrate-binding protein&lt;br&gt;Location: 612164 - 610581&lt;br&gt;&lt;br&gt;&lt;b&gt;BlastP hit with ctg10_25&lt;/b&gt;&lt;br&gt;Percentage identity: 99&lt;br&gt;Percentage coverage: 100&lt;br&gt;BLAST bit score: 1031&lt;br&gt;E-value: 3.7e-299" locus_tag="BM385_RS02800" class="clusterblast-orf" id="dummy-1_h1_1_21"  />
</g>
<g id="a1_0022"  >
<polygon points="520,90 529,90 534,85 529,80 520,80 520,90 " style="fill:#d8156f; stroke-width:1; stroke:black; " description="&lt;b&gt;BM385_RS02795&lt;/b&gt;&lt;br&gt;ABC transporter permease&lt;br&gt;Location: 610584 - 609631&lt;br&gt;&lt;br&gt;&lt;b&gt;BlastP hit with ctg10_26&lt;/b&gt;&lt;br&gt;Percentage identity: 99&lt;br&gt;Percentage coverage: 100&lt;br&gt;BLAST bit score: 529&lt;br&gt;E-value: 2.8e-148" locus_tag="BM385_RS02795" class="clusterblast-orf" id="dummy-1_h1_1_22"  />
</g>
<g id="a1_0023"  >
<polygon points="534,90 542,90 547,85 542,80 534,80 534,90 " style="fill:#bad815; stroke-width:1; stroke:black; " description="&lt;b&gt;BM385_RS02790&lt;/b&gt;&lt;br&gt;transporter&lt;br&gt;Location: 609634 - 608765&lt;br&gt;&lt;br&gt;&lt;b&gt;BlastP hit with ctg10_27&lt;/b&gt;&lt;br&gt;Percentage identity: 99&lt;br&gt;Percentage coverage: 100&lt;br&gt;BLAST bit score: 525&lt;br&gt;E-value: 4.8e-147" locus_tag="BM385_RS02790" class="clusterblast-orf" id="dummy-1_h1_1_23"  />
</g>
<g id="a1_0024"  >
<polygon points="547,90 564,90 569,85 564,80 547,80 547,90 " style="fill:#15d8ab; stroke-width:1; stroke:black; " description="&lt;b&gt;BM385_RS02785&lt;/b&gt;&lt;br&gt;ABC transporter ATP-binding protein&lt;br&gt;Location: 608772 - 607207&lt;br&gt;&lt;br&gt;&lt;b&gt;BlastP hit with ctg10_28&lt;/b&gt;&lt;br&gt;Percentage identity: 95&lt;br&gt;Percentage coverage: 102&lt;br&gt;BLAST bit score: 874&lt;br&gt;E-value: 4.3e-252" locus_tag="BM385_RS02785" class="clusterblast-orf" id="dummy-1_h1_1_24"  />
</g>
<g id="a1_0025"  >
<polygon points="570,85 575,80 590,80 590,90 575,90 570,85 " style="fill:#6015d8; stroke-width:1; stroke:black; " description="&lt;b&gt;BM385_RS02780&lt;/b&gt;&lt;br&gt;salicylate synthase&lt;br&gt;Location: 607136 - 605805&lt;br&gt;&lt;br&gt;&lt;b&gt;BlastP hit with ctg10_29&lt;/b&gt;&lt;br&gt;Percentage identity: 99&lt;br&gt;Percentage coverage: 99&lt;br&gt;BLAST bit score: 856&lt;br&gt;E-value: 1.8e-246" locus_tag="BM385_RS02780" class="clusterblast-orf" id="dummy-1_h1_1_25"  />
</g>
<g id="a1_0026"  >
<polygon points="596,90 596,90 601,85 596,80 596,80 596,90 " style="fill:#d81542; stroke-width:1; stroke:black; " description="&lt;b&gt;BM385_RS02775&lt;/b&gt;&lt;br&gt;hypothetical protein&lt;br&gt;Location: 605413 - 605054&lt;br&gt;&lt;br&gt;&lt;b&gt;BlastP hit with ctg10_30&lt;/b&gt;&lt;br&gt;Percentage identity: 100&lt;br&gt;Percentage coverage: 93&lt;br&gt;BLAST bit score: 201&lt;br&gt;E-value: 4.1e-50" locus_tag="BM385_RS02775" class="clusterblast-orf" id="dummy-1_h1_1_26"  />
</g>
<g id="a1_0027"  >
<polygon points="605,90 606,90 611,85 606,80 605,80 605,90 " style="fill:#8dd815; stroke-width:1; stroke:black; " description="&lt;b&gt;BM385_RS02770&lt;/b&gt;&lt;br&gt;hypothetical protein&lt;br&gt;Location: 604773 - 604378&lt;br&gt;&lt;br&gt;&lt;b&gt;BlastP hit with ctg10_31&lt;/b&gt;&lt;br&gt;Percentage identity: 98&lt;br&gt;Percentage coverage: 100&lt;br&gt;BLAST bit score: 56&lt;br&gt;E-value: 1.6e-06" locus_tag="BM385_RS02770" class="clusterblast-orf" id="dummy-1_h1_1_27"  />
</g>
<g id="a1_0028"  >
<polygon points="612,85 617,80 625,80 625,90 617,90 612,85 " style="fill:#15d8d8; stroke-width:1; stroke:black; " description="&lt;b&gt;BM385_RS02765&lt;/b&gt;&lt;br&gt;hypothetical protein&lt;br&gt;Location: 604304 - 603408&lt;br&gt;&lt;br&gt;&lt;b&gt;BlastP hit with ctg10_32&lt;/b&gt;&lt;br&gt;Percentage identity: 100&lt;br&gt;Percentage coverage: 99&lt;br&gt;BLAST bit score: 562&lt;br&gt;E-value: 2.1e-158" locus_tag="BM385_RS02765" class="clusterblast-orf" id="dummy-1_h1_1_28"  />
</g>
<g id="a1_0029"  >
<polygon points="632,90 644,90 649,85 644,80 632,80 632,90 " style="fill:white; stroke-width:1; stroke:black; " description="&lt;b&gt;BM385_RS02760&lt;/b&gt;&lt;br&gt;hypothetical protein&lt;br&gt;Location: 602901 - 601753" locus_tag="BM385_RS02760" class="clusterblast-orf" id="dummy-1_h1_1_29"  />
</g>
<g id="a1_0030"  >
<polygon points="650,85 655,80 665,80 665,90 655,90 650,85 " style="fill:white; stroke-width:1; stroke:black; " description="&lt;b&gt;BM385_RS02755&lt;/b&gt;&lt;br&gt;LacI family transcriptional regulator&lt;br&gt;Location: 601682 - 600603" locus_tag="BM385_RS02755" class="clusterblast-orf" id="dummy-1_h1_1_30"  />
</g>
<g id="a1_0031"  >
<polygon points="667,85 672,80 676,80 676,90 672,90 667,85 " style="fill:white; stroke-width:1; stroke:black; " description="&lt;b&gt;BM385_RS02750&lt;/b&gt;&lt;br&gt;hypothetical protein&lt;br&gt;Location: 600514 - 599846" locus_tag="BM385_RS02750" class="clusterblast-orf" id="dummy-1_h1_1_31"  />
</g>
<g id="a1_0032"  >
<polygon points="691,85 696,80 700,80 700,90 696,90 691,85 " style="fill:white; stroke-width:1; stroke:black; " description="&lt;b&gt;BM385_RS02740&lt;/b&gt;&lt;br&gt;phage tail protein&lt;br&gt;Location: 598859 - 598236" locus_tag="BM385_RS02740" class="clusterblast-orf" id="dummy-1_h1_1_32"  />
</g>
<g id="a1_0033"  >
<polygon points="700,85 705,80 729,80 729,90 705,90 700,85 " style="fill:white; stroke-width:1; stroke:black; " description="&lt;b&gt;BM385_RS02735&lt;/b&gt;&lt;br&gt;putative baseplate assembly protein&lt;br&gt;Location: 598234 - 596222" locus_tag="BM385_RS02735" class="clusterblast-orf" id="dummy-1_h1_1_33"  />
</g>
<g id="a1_0034"  >
<polygon points="729,85 734,80 735,80 735,90 734,90 729,85 " style="fill:white; stroke-width:1; stroke:black; " description="&lt;b&gt;BM385_RS02730&lt;/b&gt;&lt;br&gt;hypothetical protein&lt;br&gt;Location: 596225 - 595818" locus_tag="BM385_RS02730" class="clusterblast-orf" id="dummy-1_h1_1_34"  />
</g>
<g id="a1_0035"  >
<polygon points="735,85 739,80 739,90 735,85 " style="fill:white; stroke-width:1; stroke:black; " description="&lt;b&gt;BM385_RS02725&lt;/b&gt;&lt;br&gt;hypothetical protein&lt;br&gt;Location: 595810 - 595511" locus_tag="BM385_RS02725" class="clusterblast-orf" id="dummy-1_h1_1_35"  />
</g>
<g id="a1_0036"  >
<polygon points="740,85 745,80 768,80 768,90 745,90 740,85 " style="fill:white; stroke-width:1; stroke:black; " description="&lt;b&gt;BM385_RS02720&lt;/b&gt;&lt;br&gt;type IV secretion protein Rhs&lt;br&gt;Location: 595478 - 593532" locus_tag="BM385_RS02720" class="clusterblast-orf" id="dummy-1_h1_1_36"  />
</g>
<g id="a1_0037"  >
<polygon points="768,85 773,80 780,80 780,90 773,90 768,85 " style="fill:white; stroke-width:1; stroke:black; " description="&lt;b&gt;BM385_RS02715&lt;/b&gt;&lt;br&gt;LysM domain-containing protein&lt;br&gt;Location: 593522 - 592752" locus_tag="BM385_RS02715" class="clusterblast-orf" id="dummy-1_h1_1_37"  />
</g>
</svg>
