<svg xmlns="http://www.w3.org/2000/svg" xmlns:xlink="http://www.w3.org/1999/xlink" version="1.1" x="0" y="0" height="230" width="800" viewBox="0 0 800 230" preserveAspectRatio="none"  >
<g label="Query sequence" class="clusterblast-cluster"  >
<text x="5" y="20" class="clusterblast-acc"  >
Query sequence</text>
<line x1="10" y1="35" x2="778.0" y2="35" style="stroke-width:1; stroke:grey; "  />
<polygon points="114,35 119,30 385,30 385,40 119,40 114,35 " style="fill:#d81515; stroke-width:1; stroke:black; " description="&lt;b&gt;ctg30_1&lt;/b&gt;&lt;br&gt;ctg30 1&lt;br&gt;Location: 1 - 14734" locus_tag="ctg30_1" class="clusterblast-orf" id="dummy-1_q0_0_all"  />
<polygon points="391,35 396,30 437,30 437,40 396,40 391,35 " style="fill:#63d815; stroke-width:1; stroke:black; " description="&lt;b&gt;ctg30_2&lt;/b&gt;&lt;br&gt;ctg30 2&lt;br&gt;Location: 15072 - 17592" locus_tag="ctg30_2" class="clusterblast-orf" id="dummy-1_q1_0_all"  />
<polygon points="443,35 448,30 469,30 469,40 448,40 443,35 " style="fill:#15b1d8; stroke-width:1; stroke:black; " description="&lt;b&gt;ctg30_3&lt;/b&gt;&lt;br&gt;ctg30 3&lt;br&gt;Location: 17914 - 19339" locus_tag="ctg30_3" class="clusterblast-orf" id="dummy-1_q2_0_all"  />
<polygon points="470,35 475,30 483,30 483,40 475,40 470,35 " style="fill:#b115d8; stroke-width:1; stroke:black; " description="&lt;b&gt;ctg30_4&lt;/b&gt;&lt;br&gt;ctg30 4&lt;br&gt;Location: 19373 - 20093" locus_tag="ctg30_4" class="clusterblast-orf" id="dummy-1_q3_0_all"  />
<polygon points="484,35 489,30 498,30 498,40 489,40 484,35 " style="fill:#d86315; stroke-width:1; stroke:black; " description="&lt;b&gt;ctg30_5&lt;/b&gt;&lt;br&gt;ctg30 5&lt;br&gt;Location: 20124 - 20904" locus_tag="ctg30_5" class="clusterblast-orf" id="dummy-1_q4_0_all"  />
<polygon points="500,35 502,30 502,40 500,35 " style="fill:white; stroke-width:1; stroke:black; " description="&lt;b&gt;ctg30_6&lt;/b&gt;&lt;br&gt;ctg30 6&lt;br&gt;Location: 21026 - 21116" locus_tag="ctg30_6" class="clusterblast-orf" id="dummy-1_q5_0_all"  />
<polygon points="502,35 507,30 520,30 520,40 507,40 502,35 " style="fill:#15d815; stroke-width:1; stroke:black; " description="&lt;b&gt;ctg30_7&lt;/b&gt;&lt;br&gt;ctg30 7&lt;br&gt;Location: 21112 - 22084" locus_tag="ctg30_7" class="clusterblast-orf" id="dummy-1_q6_0_all"  />
<polygon points="520,35 525,30 532,30 532,40 525,40 520,35 " style="fill:#1563d8; stroke-width:1; stroke:black; " description="&lt;b&gt;ctg30_8&lt;/b&gt;&lt;br&gt;ctg30 8&lt;br&gt;Location: 22104 - 22782" locus_tag="ctg30_8" class="clusterblast-orf" id="dummy-1_q7_0_all"  />
<polygon points="534,35 539,30 554,30 554,40 539,40 534,35 " style="fill:#d815b1; stroke-width:1; stroke:black; " description="&lt;b&gt;ctg30_9&lt;/b&gt;&lt;br&gt;ctg30 9&lt;br&gt;Location: 22857 - 23940" locus_tag="ctg30_9" class="clusterblast-orf" id="dummy-1_q8_0_all"  />
<polygon points="556,40 557,40 562,35 557,30 556,30 556,40 " style="fill:#d8b115; stroke-width:1; stroke:black; " description="&lt;b&gt;ctg30_10&lt;/b&gt;&lt;br&gt;ctg30 10&lt;br&gt;Location: 24041 - 24404" locus_tag="ctg30_10" class="clusterblast-orf" id="dummy-1_q9_0_all"  />
<polygon points="563,35 568,30 576,30 576,40 568,40 563,35 " style="fill:#15d863; stroke-width:1; stroke:black; " description="&lt;b&gt;ctg30_11&lt;/b&gt;&lt;br&gt;ctg30 11&lt;br&gt;Location: 24450 - 25149" locus_tag="ctg30_11" class="clusterblast-orf" id="dummy-1_q10_0_all"  />
<polygon points="576,35 579,30 579,40 576,35 " style="fill:white; stroke-width:1; stroke:black; " description="&lt;b&gt;ctg30_12&lt;/b&gt;&lt;br&gt;ctg30 12&lt;br&gt;Location: 25178 - 25319" locus_tag="ctg30_12" class="clusterblast-orf" id="dummy-1_q11_0_all"  />
<polygon points="579,40 601,40 606,35 601,30 579,30 579,40 " style="fill:#1515d8; stroke-width:1; stroke:black; " description="&lt;b&gt;ctg30_13&lt;/b&gt;&lt;br&gt;ctg30 13&lt;br&gt;Location: 25328 - 26780" locus_tag="ctg30_13" class="clusterblast-orf" id="dummy-1_q12_0_all"  />
<polygon points="606,35 611,30 618,30 618,40 611,40 606,35 " style="fill:#d81563; stroke-width:1; stroke:black; " description="&lt;b&gt;ctg30_14&lt;/b&gt;&lt;br&gt;ctg30 14&lt;br&gt;Location: 26786 - 27428" locus_tag="ctg30_14" class="clusterblast-orf" id="dummy-1_q13_0_all"  />
<polygon points="620,35 625,30 633,30 633,40 625,40 620,35 " style="fill:#b1d815; stroke-width:1; stroke:black; " description="&lt;b&gt;ctg30_15&lt;/b&gt;&lt;br&gt;ctg30 15&lt;br&gt;Location: 27565 - 28261" locus_tag="ctg30_15" class="clusterblast-orf" id="dummy-1_q14_0_all"  />
<polygon points="638,35 643,30 657,30 657,40 643,40 638,35 " style="fill:#15d8b1; stroke-width:1; stroke:black; " description="&lt;b&gt;ctg30_16&lt;/b&gt;&lt;br&gt;ctg30 16&lt;br&gt;Location: 28543 - 29566" locus_tag="ctg30_16" class="clusterblast-orf" id="dummy-1_q15_0_all"  />
<polygon points="657,35 662,30 665,30 665,40 662,40 657,35 " style="fill:#6315d8; stroke-width:1; stroke:black; " description="&lt;b&gt;ctg30_17&lt;/b&gt;&lt;br&gt;ctg30 17&lt;br&gt;Location: 29573 - 30020" locus_tag="ctg30_17" class="clusterblast-orf" id="dummy-1_q16_0_all"  />
</g>
<g label="NZ_KB898278" description="NZ_KB898278_c20: Streptomyces sp. CNT302 D329DRAFT scaffold00009.9, whole gen... (25% of genes show similarity), other" class="clusterblast-cluster"  >
<text x="5" y="70" class="clusterblast-acc"  >
<a xlink:href="https://antismash-db.secondarymetabolites.org/go/NZ_KB898278/20" target="_blank">NZ_KB898278_c20</a>: Streptomyces sp. CNT302 D329DRAFT scaffold00009.9, whole gen... (25% of genes show similarity), other</text>
<line x1="10" y1="85" x2="778.0" y2="85" style="stroke-width:1; stroke:grey; "  />
</g>
<g id="a1_000"  >
<polygon points="0,90 18,90 23,85 18,80 0,80 0,90 " style="fill:white; stroke-width:1; stroke:black; " description="&lt;b&gt;D329_RS0118490&lt;/b&gt;&lt;br&gt;aminotransferase class I and II&lt;br&gt;Location: 143402 - 144655" locus_tag="D329_RS0118490" class="clusterblast-orf" id="dummy-1_h1_9_0"  />
</g>
<g id="a1_001"  >
<polygon points="22,90 33,90 38,85 33,80 22,80 22,90 " style="fill:white; stroke-width:1; stroke:black; " description="&lt;b&gt;D329_RS0118495&lt;/b&gt;&lt;br&gt;aldolase&lt;br&gt;Location: 144652 - 145521" locus_tag="D329_RS0118495" class="clusterblast-orf" id="dummy-1_h1_9_1"  />
</g>
<g id="a1_002"  >
<polygon points="38,90 52,90 57,85 52,80 38,80 38,90 " style="fill:white; stroke-width:1; stroke:black; " description="&lt;b&gt;D329_RS0118500&lt;/b&gt;&lt;br&gt;ornithine cyclodeaminase family protein&lt;br&gt;Location: 145518 - 146543" locus_tag="D329_RS0118500" class="clusterblast-orf" id="dummy-1_h1_9_2"  />
</g>
<g id="a1_003"  >
<polygon points="57,90 77,90 82,85 77,80 57,80 57,90 " style="fill:white; stroke-width:1; stroke:black; " description="&lt;b&gt;D329_RS0118505&lt;/b&gt;&lt;br&gt;hypothetical protein&lt;br&gt;Location: 146530 - 147885" locus_tag="D329_RS0118505" class="clusterblast-orf" id="dummy-1_h1_9_3"  />
</g>
<g id="a1_004"  >
<polygon points="84,90 88,90 93,85 88,80 84,80 84,90 " style="fill:white; stroke-width:1; stroke:black; " description="&lt;b&gt;D329_RS0118510&lt;/b&gt;&lt;br&gt;dehydratase&lt;br&gt;Location: 147983 - 148492" locus_tag="D329_RS0118510" class="clusterblast-orf" id="dummy-1_h1_9_4"  />
</g>
<g id="a1_005"  >
<polygon points="95,90 118,90 123,85 118,80 95,80 95,90 " style="fill:white; stroke-width:1; stroke:black; " description="&lt;b&gt;D329_RS0118515&lt;/b&gt;&lt;br&gt;peptidase M24 family protein&lt;br&gt;Location: 148607 - 150127" locus_tag="D329_RS0118515" class="clusterblast-orf" id="dummy-1_h1_9_5"  />
</g>
<g id="a1_006"  >
<polygon points="126,85 131,80 161,80 161,90 131,90 126,85 " style="fill:white; stroke-width:1; stroke:black; " description="&lt;b&gt;D329_RS0118520&lt;/b&gt;&lt;br&gt;phenazine-specific anthranilate synthase component I&lt;br&gt;Location: 150278 - 152185" locus_tag="D329_RS0118520" class="clusterblast-orf" id="dummy-1_h1_9_6"  />
</g>
<g id="a1_007"  >
<polygon points="161,85 166,80 173,80 173,90 166,90 161,85 " style="fill:white; stroke-width:1; stroke:black; " description="&lt;b&gt;D329_RS0118525&lt;/b&gt;&lt;br&gt;hypothetical protein&lt;br&gt;Location: 152182 - 152847" locus_tag="D329_RS0118525" class="clusterblast-orf" id="dummy-1_h1_9_7"  />
</g>
<g id="a1_008"  >
<polygon points="175,85 180,80 197,80 197,90 180,90 175,85 " style="fill:white; stroke-width:1; stroke:black; " description="&lt;b&gt;D329_RS0118530&lt;/b&gt;&lt;br&gt;hypothetical protein&lt;br&gt;Location: 152981 - 154183" locus_tag="D329_RS0118530" class="clusterblast-orf" id="dummy-1_h1_9_8"  />
</g>
<g id="a1_009"  >
<polygon points="207,85 212,80 230,80 230,90 212,90 207,85 " style="fill:white; stroke-width:1; stroke:black; " description="&lt;b&gt;D329_RS0118535&lt;/b&gt;&lt;br&gt;transposase&lt;br&gt;Location: 154726 - 155940" locus_tag="D329_RS0118535" class="clusterblast-orf" id="dummy-1_h1_9_9"  />
</g>
<g id="a1_0010"  >
<polygon points="233,85 238,80 253,80 253,90 238,90 233,85 " style="fill:white; stroke-width:1; stroke:black; " description="&lt;b&gt;D329_RS0118540&lt;/b&gt;&lt;br&gt;transcriptional regulator&lt;br&gt;Location: 156113 - 157231" locus_tag="D329_RS0118540" class="clusterblast-orf" id="dummy-1_h1_9_10"  />
</g>
<g id="a1_0011"  >
<polygon points="269,85 274,80 295,80 295,90 274,90 269,85 " style="fill:white; stroke-width:1; stroke:black; " description="&lt;b&gt;D329_RS0118545&lt;/b&gt;&lt;br&gt;MFS transporter&lt;br&gt;Location: 158102 - 159508" locus_tag="D329_RS0118545" class="clusterblast-orf" id="dummy-1_h1_9_11"  />
</g>
<g id="a1_0012"  >
<polygon points="298,90 308,90 313,85 308,80 298,80 298,90 " style="fill:white; stroke-width:1; stroke:black; " description="&lt;b&gt;D329_RS32175&lt;/b&gt;&lt;br&gt;TetR/AcrR family transcriptional regulator&lt;br&gt;Location: 159658 - 160449" locus_tag="D329_RS32175" class="clusterblast-orf" id="dummy-1_h1_9_12"  />
</g>
<g id="a1_0013"  >
<polygon points="314,90 324,90 329,85 324,80 314,80 314,90 " style="fill:white; stroke-width:1; stroke:black; " description="&lt;b&gt;D329_RS0118555&lt;/b&gt;&lt;br&gt;branched chain amino acid aminotransferase&lt;br&gt;Location: 160514 - 161326" locus_tag="D329_RS0118555" class="clusterblast-orf" id="dummy-1_h1_9_13"  />
</g>
<g id="a1_0014"  >
<polygon points="330,85 335,80 344,80 344,90 335,90 330,85 " style="fill:white; stroke-width:1; stroke:black; " description="&lt;b&gt;D329_RS0118560&lt;/b&gt;&lt;br&gt;gamma-butyrolactone-binding protein&lt;br&gt;Location: 161420 - 162175" locus_tag="D329_RS0118560" class="clusterblast-orf" id="dummy-1_h1_9_14"  />
</g>
<g id="a1_0015"  >
<polygon points="360,90 417,90 422,85 417,80 360,80 360,90 " style="fill:white; stroke-width:1; stroke:black; " description="&lt;b&gt;D329_RS32180&lt;/b&gt;&lt;br&gt;oxidoreductase&lt;br&gt;Location: 163014 - 166403" locus_tag="D329_RS32180" class="clusterblast-orf" id="dummy-1_h1_9_15"  />
</g>
<g id="a1_0016"  >
<polygon points="425,85 430,80 434,80 434,90 430,90 425,85 " style="fill:white; stroke-width:1; stroke:black; " description="&lt;b&gt;D329_RS0118570&lt;/b&gt;&lt;br&gt;Lrp/AsnC family transcriptional regulator&lt;br&gt;Location: 166579 - 167061" locus_tag="D329_RS0118570" class="clusterblast-orf" id="dummy-1_h1_9_16"  />
</g>
<g id="a1_0017"  >
<polygon points="443,85 448,80 449,80 449,90 448,90 443,85 " style="fill:white; stroke-width:1; stroke:black; " description="&lt;b&gt;D329_RS0118575&lt;/b&gt;&lt;br&gt;hypothetical protein&lt;br&gt;Location: 167532 - 167900" locus_tag="D329_RS0118575" class="clusterblast-orf" id="dummy-1_h1_9_17"  />
</g>
<g id="a1_0018"  >
<polygon points="454,90 455,90 460,85 455,80 454,80 454,90 " style="fill:white; stroke-width:1; stroke:black; " description="&lt;b&gt;D329_RS32185&lt;/b&gt;&lt;br&gt;hypothetical protein&lt;br&gt;Location: 168156 - 168497" locus_tag="D329_RS32185" class="clusterblast-orf" id="dummy-1_h1_9_18"  />
</g>
<g id="a1_0019"  >
<polygon points="468,90 490,90 495,85 490,80 468,80 468,90 " style="fill:white; stroke-width:1; stroke:black; " description="&lt;b&gt;D329_RS0118585&lt;/b&gt;&lt;br&gt;FUSC family protein&lt;br&gt;Location: 168891 - 170405" locus_tag="D329_RS0118585" class="clusterblast-orf" id="dummy-1_h1_9_19"  />
</g>
<g id="a1_0020"  >
<polygon points="506,90 522,90 527,85 522,80 506,80 506,90 " style="fill:white; stroke-width:1; stroke:black; " description="&lt;b&gt;D329_RS32190&lt;/b&gt;&lt;br&gt;hypothetical protein&lt;br&gt;Location: 170957 - 172120" locus_tag="D329_RS32190" class="clusterblast-orf" id="dummy-1_h1_9_20"  />
</g>
<g id="a1_0021"  >
<polygon points="538,85 543,80 554,80 554,90 543,90 538,85 " style="fill:#d86315; stroke-width:1; stroke:black; " description="&lt;b&gt;D329_RS0118595&lt;/b&gt;&lt;br&gt;hypothetical protein&lt;br&gt;Location: 172699 - 173619&lt;br&gt;&lt;br&gt;&lt;b&gt;BlastP hit with ctg30_5&lt;/b&gt;&lt;br&gt;Percentage identity: 68&lt;br&gt;Percentage coverage: 105&lt;br&gt;BLAST bit score: 314&lt;br&gt;E-value: 1.5e-83" locus_tag="D329_RS0118595" class="clusterblast-orf" id="dummy-1_h1_9_21"  />
</g>
<g id="a1_0022"  >
<polygon points="556,85 561,80 575,80 575,90 561,90 556,85 " style="fill:#15d815; stroke-width:1; stroke:black; " description="&lt;b&gt;D329_RS0118600&lt;/b&gt;&lt;br&gt;hypothetical protein&lt;br&gt;Location: 173708 - 174724&lt;br&gt;&lt;br&gt;&lt;b&gt;BlastP hit with ctg30_7&lt;/b&gt;&lt;br&gt;Percentage identity: 61&lt;br&gt;Percentage coverage: 100&lt;br&gt;BLAST bit score: 307&lt;br&gt;E-value: 1.7e-81" locus_tag="D329_RS0118600" class="clusterblast-orf" id="dummy-1_h1_9_22"  />
</g>
<g id="a1_0023"  >
<polygon points="575,85 580,80 587,80 587,90 580,90 575,85 " style="fill:#1563d8; stroke-width:1; stroke:black; " description="&lt;b&gt;D329_RS0118605&lt;/b&gt;&lt;br&gt;uracil-DNA glycosylase&lt;br&gt;Location: 174721 - 175398&lt;br&gt;&lt;br&gt;&lt;b&gt;BlastP hit with ctg30_8&lt;/b&gt;&lt;br&gt;Percentage identity: 86&lt;br&gt;Percentage coverage: 100&lt;br&gt;BLAST bit score: 408&lt;br&gt;E-value: 6.6e-112" locus_tag="D329_RS0118605" class="clusterblast-orf" id="dummy-1_h1_9_23"  />
</g>
<g id="a1_0024"  >
<polygon points="588,85 593,80 608,80 608,90 593,90 588,85 " style="fill:white; stroke-width:1; stroke:black; " description="&lt;b&gt;D329_RS0118610&lt;/b&gt;&lt;br&gt;glycosyl hydrolase&lt;br&gt;Location: 175433 - 176521" locus_tag="D329_RS0118610" class="clusterblast-orf" id="dummy-1_h1_9_24"  />
</g>
<g id="a1_0025"  >
<polygon points="612,85 617,80 632,80 632,90 617,90 612,85 " style="fill:#d815b1; stroke-width:1; stroke:black; " description="&lt;b&gt;D329_RS0118615&lt;/b&gt;&lt;br&gt;NADH:flavin oxidoreductase/NADH oxidase&lt;br&gt;Location: 176739 - 177818&lt;br&gt;&lt;br&gt;&lt;b&gt;BlastP hit with ctg30_9&lt;/b&gt;&lt;br&gt;Percentage identity: 78&lt;br&gt;Percentage coverage: 100&lt;br&gt;BLAST bit score: 579&lt;br&gt;E-value: 2.7e-163" locus_tag="D329_RS0118615" class="clusterblast-orf" id="dummy-1_h1_9_25"  />
</g>
<g id="a1_0026"  >
<polygon points="636,85 641,80 645,80 645,90 641,90 636,85 " style="fill:white; stroke-width:1; stroke:black; " description="&lt;b&gt;D329_RS0118620&lt;/b&gt;&lt;br&gt;MarR family transcriptional regulator&lt;br&gt;Location: 178044 - 178559" locus_tag="D329_RS0118620" class="clusterblast-orf" id="dummy-1_h1_9_26"  />
</g>
<g id="a1_0027"  >
<polygon points="647,90 650,90 655,85 650,80 647,80 647,90 " style="fill:white; stroke-width:1; stroke:black; " description="&lt;b&gt;D329_RS0118625&lt;/b&gt;&lt;br&gt;organic hydroperoxide resistance protein&lt;br&gt;Location: 178678 - 179091" locus_tag="D329_RS0118625" class="clusterblast-orf" id="dummy-1_h1_9_27"  />
</g>
<g id="a1_0028"  >
<polygon points="658,90 659,90 664,85 659,80 658,80 658,90 " style="fill:#d8b115; stroke-width:1; stroke:black; " description="&lt;b&gt;D329_RS0118630&lt;/b&gt;&lt;br&gt;transcriptional regulator&lt;br&gt;Location: 179241 - 179591&lt;br&gt;&lt;br&gt;&lt;b&gt;BlastP hit with ctg30_10&lt;/b&gt;&lt;br&gt;Percentage identity: 70&lt;br&gt;Percentage coverage: 89&lt;br&gt;BLAST bit score: 142&lt;br&gt;E-value: 2.8e-32" locus_tag="D329_RS0118630" class="clusterblast-orf" id="dummy-1_h1_9_28"  />
</g>
<g id="a1_0029"  >
<polygon points="665,85 670,80 690,80 690,90 670,90 665,85 " style="fill:white; stroke-width:1; stroke:black; " description="&lt;b&gt;D329_RS0118635&lt;/b&gt;&lt;br&gt;hypothetical protein&lt;br&gt;Location: 179651 - 181027" locus_tag="D329_RS0118635" class="clusterblast-orf" id="dummy-1_h1_9_29"  />
</g>
<g id="a1_0030"  >
<polygon points="692,85 697,80 703,80 703,90 697,90 692,85 " style="fill:#15d863; stroke-width:1; stroke:black; " description="&lt;b&gt;D329_RS0118640&lt;/b&gt;&lt;br&gt;DUF305 domain-containing protein&lt;br&gt;Location: 181088 - 181723&lt;br&gt;&lt;br&gt;&lt;b&gt;BlastP hit with ctg30_11&lt;/b&gt;&lt;br&gt;Percentage identity: 51&lt;br&gt;Percentage coverage: 94&lt;br&gt;BLAST bit score: 173&lt;br&gt;E-value: 2.2e-41" locus_tag="D329_RS0118640" class="clusterblast-orf" id="dummy-1_h1_9_30"  />
</g>
<g id="a1_0031"  >
<polygon points="705,90 728,90 733,85 728,80 705,80 705,90 " style="fill:#1515d8; stroke-width:1; stroke:black; " description="&lt;b&gt;D329_RS0118645&lt;/b&gt;&lt;br&gt;hypothetical protein&lt;br&gt;Location: 181817 - 183328&lt;br&gt;&lt;br&gt;&lt;b&gt;BlastP hit with ctg30_13&lt;/b&gt;&lt;br&gt;Percentage identity: 66&lt;br&gt;Percentage coverage: 102&lt;br&gt;BLAST bit score: 654&lt;br&gt;E-value: 6.7e-186" locus_tag="D329_RS0118645" class="clusterblast-orf" id="dummy-1_h1_9_31"  />
</g>
<g id="a1_0032"  >
<polygon points="735,85 740,80 747,80 747,90 740,90 735,85 " style="fill:#d81563; stroke-width:1; stroke:black; " description="&lt;b&gt;D329_RS0118650&lt;/b&gt;&lt;br&gt;TetR/AcrR family transcriptional regulator&lt;br&gt;Location: 183445 - 184113&lt;br&gt;&lt;br&gt;&lt;b&gt;BlastP hit with ctg30_14&lt;/b&gt;&lt;br&gt;Percentage identity: 78&lt;br&gt;Percentage coverage: 94&lt;br&gt;BLAST bit score: 295&lt;br&gt;E-value: 3.5e-78" locus_tag="D329_RS0118650" class="clusterblast-orf" id="dummy-1_h1_9_32"  />
</g>
<g id="a1_0033"  >
<polygon points="752,85 757,80 765,80 765,90 757,90 752,85 " style="fill:#b1d815; stroke-width:1; stroke:black; " description="&lt;b&gt;D329_RS0118655&lt;/b&gt;&lt;br&gt;hypothetical protein&lt;br&gt;Location: 184383 - 185081&lt;br&gt;&lt;br&gt;&lt;b&gt;BlastP hit with ctg30_15&lt;/b&gt;&lt;br&gt;Percentage identity: 60&lt;br&gt;Percentage coverage: 100&lt;br&gt;BLAST bit score: 282&lt;br&gt;E-value: 4.3e-74" locus_tag="D329_RS0118655" class="clusterblast-orf" id="dummy-1_h1_9_33"  />
</g>
<g id="a1_0034"  >
<polygon points="767,85 772,80 780,80 780,90 772,90 767,85 " style="fill:white; stroke-width:1; stroke:black; " description="&lt;b&gt;D329_RS0118660&lt;/b&gt;&lt;br&gt;phosphatase PAP2 family protein&lt;br&gt;Location: 185173 - 185874" locus_tag="D329_RS0118660" class="clusterblast-orf" id="dummy-1_h1_9_34"  />
</g>
</svg>
