<svg xmlns="http://www.w3.org/2000/svg" xmlns:xlink="http://www.w3.org/1999/xlink" version="1.1" x="0" y="0" height="230" width="800" viewBox="0 0 800 230" preserveAspectRatio="none"  >
<g label="Query sequence" class="clusterblast-cluster"  >
<text x="5" y="20" class="clusterblast-acc"  >
Query sequence</text>
<line x1="10" y1="35" x2="778.0" y2="35" style="stroke-width:1; stroke:grey; "  />
<polygon points="255,35 260,30 264,30 264,40 260,40 255,35 " style="fill:#d81515; stroke-width:1; stroke:black; " description="&lt;b&gt;ctg53_1&lt;/b&gt;&lt;br&gt;ctg53 1&lt;br&gt;Location: 2 - 479" locus_tag="ctg53_1" class="clusterblast-orf" id="dummy-1_q0_0_all"  />
<polygon points="264,35 269,30 270,30 270,40 269,40 264,35 " style="fill:#4dd815; stroke-width:1; stroke:black; " description="&lt;b&gt;ctg53_2&lt;/b&gt;&lt;br&gt;ctg53 2&lt;br&gt;Location: 468 - 798" locus_tag="ctg53_2" class="clusterblast-orf" id="dummy-1_q1_0_all"  />
<polygon points="270,40 272,40 277,35 272,30 270,30 270,40 " style="fill:white; stroke-width:1; stroke:black; " description="&lt;b&gt;ctg53_3&lt;/b&gt;&lt;br&gt;ctg53 3&lt;br&gt;Location: 799 - 1153" locus_tag="ctg53_3" class="clusterblast-orf" id="dummy-1_q2_0_all"  />
<polygon points="281,40 288,40 293,35 288,30 281,30 281,40 " style="fill:white; stroke-width:1; stroke:black; " description="&lt;b&gt;ctg53_4&lt;/b&gt;&lt;br&gt;ctg53 4&lt;br&gt;Location: 1405 - 2044" locus_tag="ctg53_4" class="clusterblast-orf" id="dummy-1_q3_0_all"  />
<polygon points="298,35 303,30 316,30 316,40 303,40 298,35 " style="fill:#1585d8; stroke-width:1; stroke:black; " description="&lt;b&gt;ctg53_5&lt;/b&gt;&lt;br&gt;ctg53 5&lt;br&gt;Location: 2330 - 3284" locus_tag="ctg53_5" class="clusterblast-orf" id="dummy-1_q4_0_all"  />
<polygon points="317,35 322,30 341,30 341,40 322,40 317,35 " style="fill:#a115d8; stroke-width:1; stroke:black; " description="&lt;b&gt;ctg53_6&lt;/b&gt;&lt;br&gt;ctg53 6&lt;br&gt;Location: 3344 - 4661" locus_tag="ctg53_6" class="clusterblast-orf" id="dummy-1_q5_0_all"  />
<polygon points="342,40 349,40 354,35 349,30 342,30 342,40 " style="fill:#d86915; stroke-width:1; stroke:black; " description="&lt;b&gt;ctg53_7&lt;/b&gt;&lt;br&gt;ctg53 7&lt;br&gt;Location: 4707 - 5343" locus_tag="ctg53_7" class="clusterblast-orf" id="dummy-1_q6_0_all"  />
<polygon points="356,40 376,40 381,35 376,30 356,30 356,40 " style="fill:#15d831; stroke-width:1; stroke:black; " description="&lt;b&gt;ctg53_8&lt;/b&gt;&lt;br&gt;ctg53 8&lt;br&gt;Location: 5479 - 6817" locus_tag="ctg53_8" class="clusterblast-orf" id="dummy-1_q7_0_all"  />
<polygon points="381,35 386,30 413,30 413,40 386,40 381,35 " style="fill:#1531d8; stroke-width:1; stroke:black; " description="&lt;b&gt;ctg53_9&lt;/b&gt;&lt;br&gt;ctg53 9&lt;br&gt;Location: 6862 - 8560" locus_tag="ctg53_9" class="clusterblast-orf" id="dummy-1_q8_0_all"  />
<polygon points="414,35 419,30 420,30 420,40 419,40 414,35 " style="fill:#d815bc; stroke-width:1; stroke:black; " description="&lt;b&gt;ctg53_10&lt;/b&gt;&lt;br&gt;ctg53 10&lt;br&gt;Location: 8639 - 8948" locus_tag="ctg53_10" class="clusterblast-orf" id="dummy-1_q9_0_all"  />
<polygon points="422,35 427,30 429,30 429,40 427,40 422,35 " style="fill:#d8bc15; stroke-width:1; stroke:black; " description="&lt;b&gt;ctg53_11&lt;/b&gt;&lt;br&gt;ctg53 11&lt;br&gt;Location: 9046 - 9472" locus_tag="ctg53_11" class="clusterblast-orf" id="dummy-1_q10_0_all"  />
<polygon points="432,35 437,30 448,30 448,40 437,40 432,35 " style="fill:#15d885; stroke-width:1; stroke:black; " description="&lt;b&gt;ctg53_12&lt;/b&gt;&lt;br&gt;ctg53 12&lt;br&gt;Location: 9598 - 10483" locus_tag="ctg53_12" class="clusterblast-orf" id="dummy-1_q11_0_all"  />
<polygon points="448,35 453,30 458,30 458,40 453,40 448,35 " style="fill:#4d15d8; stroke-width:1; stroke:black; " description="&lt;b&gt;ctg53_13&lt;/b&gt;&lt;br&gt;ctg53 13&lt;br&gt;Location: 10479 - 11058" locus_tag="ctg53_13" class="clusterblast-orf" id="dummy-1_q12_0_all"  />
<polygon points="459,35 464,30 491,30 491,40 464,40 459,35 " style="fill:#d81569; stroke-width:1; stroke:black; " description="&lt;b&gt;ctg53_14&lt;/b&gt;&lt;br&gt;ctg53 14&lt;br&gt;Location: 11104 - 12817" locus_tag="ctg53_14" class="clusterblast-orf" id="dummy-1_q13_0_all"  />
<polygon points="493,40 511,40 516,35 511,30 493,30 493,40 " style="fill:#a1d815; stroke-width:1; stroke:black; " description="&lt;b&gt;ctg53_15&lt;/b&gt;&lt;br&gt;ctg53 15&lt;br&gt;Location: 12945 - 14220" locus_tag="ctg53_15" class="clusterblast-orf" id="dummy-1_q14_0_all"  />
<polygon points="518,35 523,30 524,30 524,40 523,40 518,35 " style="fill:#15d8d8; stroke-width:1; stroke:black; " description="&lt;b&gt;ctg53_16&lt;/b&gt;&lt;br&gt;ctg53 16&lt;br&gt;Location: 14277 - 14622" locus_tag="ctg53_16" class="clusterblast-orf" id="dummy-1_q15_0_all"  />
</g>
<g label="NZ_AGBF01000041" description="NZ_AGBF01000041_c21: Streptomyces zinciresistens K42 contig00041, whole genom... (12% of genes show similarity), t2pks" class="clusterblast-cluster"  >
<text x="5" y="70" class="clusterblast-acc"  >
<a xlink:href="https://antismash-db.secondarymetabolites.org/go/NZ_AGBF01000041/21" target="_blank">NZ_AGBF01000041_c21</a>: Streptomyces zinciresistens K42 contig00041, whole genom... (12% of genes show similarity), t2pks</text>
<line x1="10" y1="85" x2="778.0" y2="85" style="stroke-width:1; stroke:grey; "  />
</g>
<g id="a1_000"  >
<polygon points="0,85 5,80 18,80 18,90 5,90 0,85 " style="fill:white; stroke-width:1; stroke:black; " description="&lt;b&gt;SZN_RS14945&lt;/b&gt;&lt;br&gt;6-phosphofructokinase&lt;br&gt;Location: 1031 - 2056" locus_tag="SZN_RS14945" class="clusterblast-orf" id="dummy-1_h1_10_0"  />
</g>
<g id="a1_001"  >
<polygon points="24,90 57,90 62,85 57,80 24,80 24,90 " style="fill:white; stroke-width:1; stroke:black; " description="&lt;b&gt;SZN_RS14950&lt;/b&gt;&lt;br&gt;phosphate acetyltransferase&lt;br&gt;Location: 2340 - 4442" locus_tag="SZN_RS14950" class="clusterblast-orf" id="dummy-1_h1_10_1"  />
</g>
<g id="a1_002"  >
<polygon points="62,90 79,90 84,85 79,80 62,80 62,90 " style="fill:white; stroke-width:1; stroke:black; " description="&lt;b&gt;SZN_RS14955&lt;/b&gt;&lt;br&gt;acetate kinase&lt;br&gt;Location: 4439 - 5653" locus_tag="SZN_RS14955" class="clusterblast-orf" id="dummy-1_h1_10_2"  />
</g>
<g id="a1_003"  >
<polygon points="86,90 107,90 112,85 107,80 86,80 86,90 " style="fill:white; stroke-width:1; stroke:black; " description="&lt;b&gt;SZN_RS14960&lt;/b&gt;&lt;br&gt;pyruvate kinase&lt;br&gt;Location: 5753 - 7183" locus_tag="SZN_RS14960" class="clusterblast-orf" id="dummy-1_h1_10_3"  />
</g>
<g id="a1_004"  >
<polygon points="114,85 119,80 140,80 140,90 119,90 114,85 " style="fill:white; stroke-width:1; stroke:black; " description="&lt;b&gt;SZN_RS14965&lt;/b&gt;&lt;br&gt;hypothetical protein&lt;br&gt;Location: 7275 - 8672" locus_tag="SZN_RS14965" class="clusterblast-orf" id="dummy-1_h1_10_4"  />
</g>
<g id="a1_005"  >
<polygon points="140,85 145,80 150,80 150,90 145,90 140,85 " style="fill:white; stroke-width:1; stroke:black; " description="&lt;b&gt;SZN_RS14970&lt;/b&gt;&lt;br&gt;hypothetical protein&lt;br&gt;Location: 8662 - 9225" locus_tag="SZN_RS14970" class="clusterblast-orf" id="dummy-1_h1_10_5"  />
</g>
<g id="a1_006"  >
<polygon points="153,85 158,80 165,80 165,90 158,90 153,85 " style="fill:white; stroke-width:1; stroke:black; " description="&lt;b&gt;SZN_RS14975&lt;/b&gt;&lt;br&gt;hypothetical protein&lt;br&gt;Location: 9386 - 10021" locus_tag="SZN_RS14975" class="clusterblast-orf" id="dummy-1_h1_10_6"  />
</g>
<g id="a1_007"  >
<polygon points="166,90 167,90 172,85 167,80 166,80 166,90 " style="fill:white; stroke-width:1; stroke:black; " description="&lt;b&gt;SZN_RS38615&lt;/b&gt;&lt;br&gt;hypothetical protein&lt;br&gt;Location: 10084 - 10427" locus_tag="SZN_RS38615" class="clusterblast-orf" id="dummy-1_h1_10_7"  />
</g>
<g id="a1_008"  >
<polygon points="177,85 182,80 195,80 195,90 182,90 177,85 " style="fill:#1585d8; stroke-width:1; stroke:black; " description="&lt;b&gt;SZN_RS14980&lt;/b&gt;&lt;br&gt;co-chaperone YbbN&lt;br&gt;Location: 10683 - 11657&lt;br&gt;&lt;br&gt;&lt;b&gt;BlastP hit with ctg53_5&lt;/b&gt;&lt;br&gt;Percentage identity: 70&lt;br&gt;Percentage coverage: 101&lt;br&gt;BLAST bit score: 401&lt;br&gt;E-value: 8.7e-110" locus_tag="SZN_RS14980" class="clusterblast-orf" id="dummy-1_h1_10_8"  />
</g>
<g id="a1_009"  >
<polygon points="199,90 205,90 210,85 205,80 199,80 199,90 " style="fill:white; stroke-width:1; stroke:black; " description="&lt;b&gt;SZN_RS14985&lt;/b&gt;&lt;br&gt;TetR family transcriptional regulator&lt;br&gt;Location: 11872 - 12507" locus_tag="SZN_RS14985" class="clusterblast-orf" id="dummy-1_h1_10_9"  />
</g>
<g id="a1_0010"  >
<polygon points="211,85 216,80 242,80 242,90 216,90 211,85 " style="fill:#1531d8; stroke-width:1; stroke:black; " description="&lt;b&gt;SZN_RS14990&lt;/b&gt;&lt;br&gt;methylmalonyl-CoA mutase&lt;br&gt;Location: 12568 - 14268&lt;br&gt;&lt;br&gt;&lt;b&gt;BlastP hit with ctg53_9&lt;/b&gt;&lt;br&gt;Percentage identity: 87&lt;br&gt;Percentage coverage: 100&lt;br&gt;BLAST bit score: 1003&lt;br&gt;E-value: 6.8e-291" locus_tag="SZN_RS14990" class="clusterblast-orf" id="dummy-1_h1_10_10"  />
</g>
<g id="a1_0011"  >
<polygon points="244,85 249,80 250,80 250,90 249,90 244,85 " style="fill:#d815bc; stroke-width:1; stroke:black; " description="&lt;b&gt;SZN_RS14995&lt;/b&gt;&lt;br&gt;DUF3817 domain-containing protein&lt;br&gt;Location: 14342 - 14674&lt;br&gt;&lt;br&gt;&lt;b&gt;BlastP hit with ctg53_10&lt;/b&gt;&lt;br&gt;Percentage identity: 73&lt;br&gt;Percentage coverage: 82&lt;br&gt;BLAST bit score: 134&lt;br&gt;E-value: 4.9e-30" locus_tag="SZN_RS14995" class="clusterblast-orf" id="dummy-1_h1_10_11"  />
</g>
<g id="a1_0012"  >
<polygon points="253,85 258,80 262,80 262,90 258,90 253,85 " style="fill:#d8bc15; stroke-width:1; stroke:black; " description="&lt;b&gt;SZN_RS15000&lt;/b&gt;&lt;br&gt;MarR family transcriptional regulator&lt;br&gt;Location: 14840 - 15349&lt;br&gt;&lt;br&gt;&lt;b&gt;BlastP hit with ctg53_11&lt;/b&gt;&lt;br&gt;Percentage identity: 91&lt;br&gt;Percentage coverage: 98&lt;br&gt;BLAST bit score: 246&lt;br&gt;E-value: 1.6e-63" locus_tag="SZN_RS15000" class="clusterblast-orf" id="dummy-1_h1_10_12"  />
</g>
<g id="a1_0013"  >
<polygon points="264,85 269,80 270,80 270,90 269,90 264,85 " style="fill:white; stroke-width:1; stroke:black; " description="&lt;b&gt;SZN_RS15005&lt;/b&gt;&lt;br&gt;antibiotic biosynthesis monooxygenase&lt;br&gt;Location: 15438 - 15764" locus_tag="SZN_RS15005" class="clusterblast-orf" id="dummy-1_h1_10_13"  />
</g>
<g id="a1_0014"  >
<polygon points="270,85 275,80 293,80 293,90 275,90 270,85 " style="fill:white; stroke-width:1; stroke:black; " description="&lt;b&gt;SZN_RS15010&lt;/b&gt;&lt;br&gt;cytochrome P450&lt;br&gt;Location: 15761 - 17029" locus_tag="SZN_RS15010" class="clusterblast-orf" id="dummy-1_h1_10_14"  />
</g>
<g id="a1_0015"  >
<polygon points="296,90 321,90 326,85 321,80 296,80 296,90 " style="fill:white; stroke-width:1; stroke:black; " description="&lt;b&gt;SZN_RS15015&lt;/b&gt;&lt;br&gt;monooxygenase&lt;br&gt;Location: 17180 - 18808" locus_tag="SZN_RS15015" class="clusterblast-orf" id="dummy-1_h1_10_15"  />
</g>
<g id="a1_0016"  >
<polygon points="327,90 339,90 344,85 339,80 327,80 327,90 " style="fill:white; stroke-width:1; stroke:black; " description="&lt;b&gt;SZN_RS15020&lt;/b&gt;&lt;br&gt;amidohydrolase&lt;br&gt;Location: 18846 - 19811" locus_tag="SZN_RS15020" class="clusterblast-orf" id="dummy-1_h1_10_16"  />
</g>
<g id="a1_0017"  >
<polygon points="346,85 351,80 352,80 352,90 351,90 346,85 " style="fill:white; stroke-width:1; stroke:black; " description="&lt;b&gt;SZN_RS15025&lt;/b&gt;&lt;br&gt;TcmI family type II polyketide cyclase&lt;br&gt;Location: 19894 - 20226" locus_tag="SZN_RS15025" class="clusterblast-orf" id="dummy-1_h1_10_17"  />
</g>
<g id="a1_0018"  >
<polygon points="352,85 357,80 361,80 361,90 357,90 352,85 " style="fill:white; stroke-width:1; stroke:black; " description="&lt;b&gt;SZN_RS15030&lt;/b&gt;&lt;br&gt;polyketide cyclase&lt;br&gt;Location: 20253 - 20732" locus_tag="SZN_RS15030" class="clusterblast-orf" id="dummy-1_h1_10_18"  />
</g>
<g id="a1_0019"  >
<polygon points="361,85 366,80 366,80 366,90 366,90 361,85 " style="fill:white; stroke-width:1; stroke:black; " description="&lt;b&gt;SZN_RS15035&lt;/b&gt;&lt;br&gt;acyl carrier protein&lt;br&gt;Location: 20734 - 21000" locus_tag="SZN_RS15035" class="clusterblast-orf" id="dummy-1_h1_10_19"  />
</g>
<g id="a1_0020"  >
<polygon points="366,85 371,80 389,80 389,90 371,90 366,85 " style="fill:white; stroke-width:1; stroke:black; " description="&lt;b&gt;SZN_RS15040&lt;/b&gt;&lt;br&gt;ketosynthase chain-length factor&lt;br&gt;Location: 21020 - 22270" locus_tag="SZN_RS15040" class="clusterblast-orf" id="dummy-1_h1_10_20"  />
</g>
<g id="a1_0021"  >
<polygon points="389,85 394,80 413,80 413,90 394,90 389,85 " style="fill:white; stroke-width:1; stroke:black; " description="&lt;b&gt;SZN_RS15045&lt;/b&gt;&lt;br&gt;beta-ketoacyl-[acyl-carrier-protein] synthase family protein&lt;br&gt;Location: 22267 - 23538" locus_tag="SZN_RS15045" class="clusterblast-orf" id="dummy-1_h1_10_21"  />
</g>
<g id="a1_0022"  >
<polygon points="413,85 418,80 421,80 421,90 418,90 413,85 " style="fill:white; stroke-width:1; stroke:black; " description="&lt;b&gt;SZN_RS15050&lt;/b&gt;&lt;br&gt;cupin domain-containing protein&lt;br&gt;Location: 23535 - 23999" locus_tag="SZN_RS15050" class="clusterblast-orf" id="dummy-1_h1_10_22"  />
</g>
<g id="a1_0023"  >
<polygon points="422,85 427,80 442,80 442,90 427,90 422,85 " style="fill:white; stroke-width:1; stroke:black; " description="&lt;b&gt;SZN_RS15055&lt;/b&gt;&lt;br&gt;hypothetical protein&lt;br&gt;Location: 24046 - 25155" locus_tag="SZN_RS15055" class="clusterblast-orf" id="dummy-1_h1_10_23"  />
</g>
<g id="a1_0024"  >
<polygon points="449,85 454,80 455,80 455,90 454,90 449,85 " style="fill:white; stroke-width:1; stroke:black; " description="&lt;b&gt;SZN_RS15060&lt;/b&gt;&lt;br&gt;thiamine-binding protein&lt;br&gt;Location: 25521 - 25832" locus_tag="SZN_RS15060" class="clusterblast-orf" id="dummy-1_h1_10_24"  />
</g>
<g id="a1_0025"  >
<polygon points="455,85 460,80 461,80 461,90 460,90 455,85 " style="fill:#15d8d8; stroke-width:1; stroke:black; " description="&lt;b&gt;SZN_RS15065&lt;/b&gt;&lt;br&gt;DUF3817 domain-containing protein&lt;br&gt;Location: 25829 - 26173&lt;br&gt;&lt;br&gt;&lt;b&gt;BlastP hit with ctg53_16&lt;/b&gt;&lt;br&gt;Percentage identity: 80&lt;br&gt;Percentage coverage: 100&lt;br&gt;BLAST bit score: 184&lt;br&gt;E-value: 6e-45" locus_tag="SZN_RS15065" class="clusterblast-orf" id="dummy-1_h1_10_25"  />
</g>
<g id="a1_0026"  >
<polygon points="466,90 473,90 478,85 473,80 466,80 466,90 " style="fill:white; stroke-width:1; stroke:black; " description="&lt;b&gt;SZN_RS15070&lt;/b&gt;&lt;br&gt;AIM24 family protein&lt;br&gt;Location: 26450 - 27082" locus_tag="SZN_RS15070" class="clusterblast-orf" id="dummy-1_h1_10_26"  />
</g>
<g id="a1_0027"  >
<polygon points="478,90 485,90 490,85 485,80 478,80 478,90 " style="fill:white; stroke-width:1; stroke:black; " description="&lt;b&gt;SZN_RS15075&lt;/b&gt;&lt;br&gt;AIM24 family protein&lt;br&gt;Location: 27084 - 27734" locus_tag="SZN_RS15075" class="clusterblast-orf" id="dummy-1_h1_10_27"  />
</g>
<g id="a1_0028"  >
<polygon points="490,90 499,90 504,85 499,80 490,80 490,90 " style="fill:white; stroke-width:1; stroke:black; " description="&lt;b&gt;SZN_RS15080&lt;/b&gt;&lt;br&gt;hypothetical protein&lt;br&gt;Location: 27731 - 28528" locus_tag="SZN_RS15080" class="clusterblast-orf" id="dummy-1_h1_10_28"  />
</g>
<g id="a1_0029"  >
<polygon points="506,90 510,90 515,85 510,80 506,80 506,90 " style="fill:white; stroke-width:1; stroke:black; " description="&lt;b&gt;SZN_RS15085&lt;/b&gt;&lt;br&gt;MarR family transcriptional regulator&lt;br&gt;Location: 28631 - 29107" locus_tag="SZN_RS15085" class="clusterblast-orf" id="dummy-1_h1_10_29"  />
</g>
<g id="a1_0030"  >
<polygon points="515,85 520,80 542,80 542,90 520,90 515,85 " style="fill:white; stroke-width:1; stroke:black; " description="&lt;b&gt;SZN_RS15090&lt;/b&gt;&lt;br&gt;sensor histidine kinase&lt;br&gt;Location: 29126 - 30610" locus_tag="SZN_RS15090" class="clusterblast-orf" id="dummy-1_h1_10_30"  />
</g>
<g id="a1_0031"  >
<polygon points="542,85 547,80 555,80 555,90 547,90 542,85 " style="fill:white; stroke-width:1; stroke:black; " description="&lt;b&gt;SZN_RS15095&lt;/b&gt;&lt;br&gt;DNA-binding response regulator&lt;br&gt;Location: 30607 - 31284" locus_tag="SZN_RS15095" class="clusterblast-orf" id="dummy-1_h1_10_31"  />
</g>
<g id="a1_0032"  >
<polygon points="557,90 566,90 571,85 566,80 557,80 557,90 " style="fill:white; stroke-width:1; stroke:black; " description="&lt;b&gt;SZN_RS15100&lt;/b&gt;&lt;br&gt;hypothetical protein&lt;br&gt;Location: 31419 - 32138" locus_tag="SZN_RS15100" class="clusterblast-orf" id="dummy-1_h1_10_32"  />
</g>
<g id="a1_0033"  >
<polygon points="573,85 578,80 594,80 594,90 578,90 573,85 " style="fill:white; stroke-width:1; stroke:black; " description="&lt;b&gt;SZN_RS15105&lt;/b&gt;&lt;br&gt;MFS transporter&lt;br&gt;Location: 32285 - 33401" locus_tag="SZN_RS15105" class="clusterblast-orf" id="dummy-1_h1_10_33"  />
</g>
<g id="a1_0034"  >
<polygon points="597,85 602,80 615,80 615,90 602,90 597,85 " style="fill:white; stroke-width:1; stroke:black; " description="&lt;b&gt;SZN_RS15110&lt;/b&gt;&lt;br&gt;methylmalonyl Co-A mutase-associated GTPase MeaB&lt;br&gt;Location: 33593 - 34549" locus_tag="SZN_RS15110" class="clusterblast-orf" id="dummy-1_h1_10_34"  />
</g>
<g id="a1_0035"  >
<polygon points="616,85 621,80 638,80 638,90 621,90 616,85 " style="fill:white; stroke-width:1; stroke:black; " description="&lt;b&gt;SZN_RS15115&lt;/b&gt;&lt;br&gt;acetyl-CoA C-acetyltransferase&lt;br&gt;Location: 34589 - 35791" locus_tag="SZN_RS15115" class="clusterblast-orf" id="dummy-1_h1_10_35"  />
</g>
<g id="a1_0036"  >
<polygon points="641,90 644,90 649,85 644,80 641,80 641,90 " style="fill:white; stroke-width:1; stroke:black; " description="&lt;b&gt;SZN_RS15120&lt;/b&gt;&lt;br&gt;methylmalonyl-CoA epimerase&lt;br&gt;Location: 35953 - 36393" locus_tag="SZN_RS15120" class="clusterblast-orf" id="dummy-1_h1_10_36"  />
</g>
<g id="a1_0037"  >
<polygon points="653,90 719,90 724,85 719,80 653,80 653,90 " style="fill:white; stroke-width:1; stroke:black; " description="&lt;b&gt;SZN_RS15125&lt;/b&gt;&lt;br&gt;hypothetical protein&lt;br&gt;Location: 36627 - 40475" locus_tag="SZN_RS15125" class="clusterblast-orf" id="dummy-1_h1_10_37"  />
</g>
<g id="a1_0038"  >
<polygon points="727,90 739,90 744,85 739,80 727,80 727,90 " style="fill:white; stroke-width:1; stroke:black; " description="&lt;b&gt;SZN_RS15130&lt;/b&gt;&lt;br&gt;hypothetical protein&lt;br&gt;Location: 40672 - 41607" locus_tag="SZN_RS15130" class="clusterblast-orf" id="dummy-1_h1_10_38"  />
</g>
<g id="a1_0039"  >
<polygon points="747,90 760,90 765,85 760,80 747,80 747,90 " style="fill:white; stroke-width:1; stroke:black; " description="&lt;b&gt;SZN_RS15135&lt;/b&gt;&lt;br&gt;ABC transporter ATP-binding protein&lt;br&gt;Location: 41765 - 42751" locus_tag="SZN_RS15135" class="clusterblast-orf" id="dummy-1_h1_10_39"  />
</g>
<g id="a1_0040"  >
<polygon points="765,90 775,90 780,85 775,80 765,80 765,90 " style="fill:white; stroke-width:1; stroke:black; " description="&lt;b&gt;SZN_RS15140&lt;/b&gt;&lt;br&gt;ABC transporter permease&lt;br&gt;Location: 42753 - 43523" locus_tag="SZN_RS15140" class="clusterblast-orf" id="dummy-1_h1_10_40"  />
</g>
</svg>
