<svg xmlns="http://www.w3.org/2000/svg" xmlns:xlink="http://www.w3.org/1999/xlink" version="1.1" x="0" y="0" height="230" width="800" viewBox="0 0 800 230" preserveAspectRatio="none"  >
<g label="Query sequence" class="clusterblast-cluster"  >
<text x="5" y="20" class="clusterblast-acc"  >
Query sequence</text>
<line x1="10" y1="35" x2="778.0" y2="35" style="stroke-width:1; stroke:grey; "  />
<polygon points="82,40 113,40 118,35 113,30 82,30 82,40 " style="fill:#d81515; stroke-width:1; stroke:black; " description="&lt;b&gt;ctg85_1&lt;/b&gt;&lt;br&gt;ctg85 1&lt;br&gt;Location: 35 - 914" locus_tag="ctg85_1" class="clusterblast-orf" id="dummy-1_q0_0_all"  />
<polygon points="117,35 122,30 159,30 159,40 122,40 117,35 " style="fill:#4dd815; stroke-width:1; stroke:black; " description="&lt;b&gt;ctg85_2&lt;/b&gt;&lt;br&gt;ctg85 2&lt;br&gt;Location: 906 - 1926" locus_tag="ctg85_2" class="clusterblast-orf" id="dummy-1_q1_0_all"  />
<polygon points="163,40 210,40 215,35 210,30 163,30 163,40 " style="fill:#1585d8; stroke-width:1; stroke:black; " description="&lt;b&gt;ctg85_3&lt;/b&gt;&lt;br&gt;ctg85 3&lt;br&gt;Location: 2017 - 3295" locus_tag="ctg85_3" class="clusterblast-orf" id="dummy-1_q2_0_all"  />
<polygon points="215,40 243,40 248,35 243,30 215,30 215,40 " style="fill:#a115d8; stroke-width:1; stroke:black; " description="&lt;b&gt;ctg85_4&lt;/b&gt;&lt;br&gt;ctg85 4&lt;br&gt;Location: 3294 - 4113" locus_tag="ctg85_4" class="clusterblast-orf" id="dummy-1_q3_0_all"  />
<polygon points="254,40 359,40 364,35 359,30 254,30 254,40 " style="fill:#d86915; stroke-width:1; stroke:black; " description="&lt;b&gt;ctg85_5&lt;/b&gt;&lt;br&gt;ctg85 5&lt;br&gt;Location: 4265 - 6974" locus_tag="ctg85_5" class="clusterblast-orf" id="dummy-1_q4_0_all"  />
<polygon points="366,40 376,40 381,35 376,30 366,30 366,40 " style="fill:#15d831; stroke-width:1; stroke:black; " description="&lt;b&gt;ctg85_6&lt;/b&gt;&lt;br&gt;ctg85 6&lt;br&gt;Location: 7020 - 7389" locus_tag="ctg85_6" class="clusterblast-orf" id="dummy-1_q5_0_all"  />
<polygon points="386,40 420,40 425,35 420,30 386,30 386,40 " style="fill:#1531d8; stroke-width:1; stroke:black; " description="&lt;b&gt;ctg85_7&lt;/b&gt;&lt;br&gt;ctg85 7&lt;br&gt;Location: 7503 - 8463" locus_tag="ctg85_7" class="clusterblast-orf" id="dummy-1_q6_0_all"  />
<polygon points="439,40 465,40 470,35 465,30 439,30 439,40 " style="fill:#d815bc; stroke-width:1; stroke:black; " description="&lt;b&gt;ctg85_8&lt;/b&gt;&lt;br&gt;ctg85 8&lt;br&gt;Location: 8803 - 9571" locus_tag="ctg85_8" class="clusterblast-orf" id="dummy-1_q7_0_all"  />
<polygon points="476,35 481,30 493,30 493,40 481,40 476,35 " style="fill:#d8bc15; stroke-width:1; stroke:black; " description="&lt;b&gt;ctg85_9&lt;/b&gt;&lt;br&gt;ctg85 9&lt;br&gt;Location: 9722 - 10142" locus_tag="ctg85_9" class="clusterblast-orf" id="dummy-1_q8_0_all"  />
<polygon points="499,35 504,30 557,30 557,40 504,40 499,35 " style="fill:#15d885; stroke-width:1; stroke:black; " description="&lt;b&gt;ctg85_10&lt;/b&gt;&lt;br&gt;ctg85 10&lt;br&gt;Location: 10287 - 11724" locus_tag="ctg85_10" class="clusterblast-orf" id="dummy-1_q9_0_all"  />
<polygon points="561,40 574,40 579,35 574,30 561,30 561,40 " style="fill:#4d15d8; stroke-width:1; stroke:black; " description="&lt;b&gt;ctg85_11&lt;/b&gt;&lt;br&gt;ctg85 11&lt;br&gt;Location: 11816 - 12260" locus_tag="ctg85_11" class="clusterblast-orf" id="dummy-1_q10_0_all"  />
<polygon points="584,40 610,40 615,35 610,30 584,30 584,40 " style="fill:#d81569; stroke-width:1; stroke:black; " description="&lt;b&gt;ctg85_12&lt;/b&gt;&lt;br&gt;ctg85 12&lt;br&gt;Location: 12385 - 13150" locus_tag="ctg85_12" class="clusterblast-orf" id="dummy-1_q11_0_all"  />
<polygon points="630,40 652,40 657,35 652,30 630,30 630,40 " style="fill:#a1d815; stroke-width:1; stroke:black; " description="&lt;b&gt;ctg85_13&lt;/b&gt;&lt;br&gt;ctg85 13&lt;br&gt;Location: 13519 - 14161" locus_tag="ctg85_13" class="clusterblast-orf" id="dummy-1_q12_0_all"  />
<polygon points="661,35 666,30 698,30 698,40 666,40 661,35 " style="fill:#15d8d8; stroke-width:1; stroke:black; " description="&lt;b&gt;ctg85_14&lt;/b&gt;&lt;br&gt;ctg85 14&lt;br&gt;Location: 14267 - 15173" locus_tag="ctg85_14" class="clusterblast-orf" id="dummy-1_q13_0_all"  />
</g>
<g label="NZ_CM002280" description="NZ_CM002280_c15: Streptomyces niveus NCIMB 11891 chromosome, whole genome sho... (10% of genes show similarity), nucleoside" class="clusterblast-cluster"  >
<text x="5" y="70" class="clusterblast-acc"  >
<a xlink:href="https://antismash-db.secondarymetabolites.org/go/NZ_CM002280/15" target="_blank">NZ_CM002280_c15</a>: Streptomyces niveus NCIMB 11891 chromosome, whole genome sho... (10% of genes show similarity), nucleoside</text>
<line x1="10" y1="85" x2="778.0" y2="85" style="stroke-width:1; stroke:grey; "  />
</g>
<g id="a1_000"  >
<polygon points="0,90 66,90 71,85 66,80 0,80 0,90 " style="fill:white; stroke-width:1; stroke:black; " description="&lt;b&gt;M877_RS53475&lt;/b&gt;&lt;br&gt;cytochrome c oxidase subunit I&lt;br&gt;Location: 2514681 - 2512912" locus_tag="M877_RS53475" class="clusterblast-orf" id="dummy-1_h1_5_0"  />
</g>
<g id="a1_001"  >
<polygon points="71,90 81,90 86,85 81,80 71,80 71,90 " style="fill:white; stroke-width:1; stroke:black; " description="&lt;b&gt;M877_RS53470&lt;/b&gt;&lt;br&gt;hypothetical protein&lt;br&gt;Location: 2512915 - 2512565" locus_tag="M877_RS53470" class="clusterblast-orf" id="dummy-1_h1_5_1"  />
</g>
<g id="a1_002"  >
<polygon points="87,85 92,80 107,80 107,90 92,90 87,85 " style="fill:white; stroke-width:1; stroke:black; " description="&lt;b&gt;M877_RS53465&lt;/b&gt;&lt;br&gt;DUF4396 domain-containing protein&lt;br&gt;Location: 2512528 - 2512040" locus_tag="M877_RS53465" class="clusterblast-orf" id="dummy-1_h1_5_2"  />
</g>
<g id="a1_003"  >
<polygon points="113,85 118,80 139,80 139,90 118,90 113,85 " style="fill:white; stroke-width:1; stroke:black; " description="&lt;b&gt;M877_RS53460&lt;/b&gt;&lt;br&gt;DUF305 domain-containing protein&lt;br&gt;Location: 2511896 - 2511246" locus_tag="M877_RS53460" class="clusterblast-orf" id="dummy-1_h1_5_3"  />
</g>
<g id="a1_004"  >
<polygon points="142,85 147,80 160,80 160,90 147,90 142,85 " style="fill:white; stroke-width:1; stroke:black; " description="&lt;b&gt;M877_RS53455&lt;/b&gt;&lt;br&gt;hypothetical protein&lt;br&gt;Location: 2511173 - 2510742" locus_tag="M877_RS53455" class="clusterblast-orf" id="dummy-1_h1_5_4"  />
</g>
<g id="a1_005"  >
<polygon points="160,85 165,80 202,80 202,90 165,90 160,85 " style="fill:white; stroke-width:1; stroke:black; " description="&lt;b&gt;M877_RS53450&lt;/b&gt;&lt;br&gt;hypothetical protein&lt;br&gt;Location: 2510725 - 2509691" locus_tag="M877_RS53450" class="clusterblast-orf" id="dummy-1_h1_5_5"  />
</g>
<g id="a1_006"  >
<polygon points="209,90 219,90 224,85 219,80 209,80 209,90 " style="fill:white; stroke-width:1; stroke:black; " description="&lt;b&gt;M877_RS53445&lt;/b&gt;&lt;br&gt;BlaI/MecI/CopY family transcriptional regulator&lt;br&gt;Location: 2509530 - 2509159" locus_tag="M877_RS53445" class="clusterblast-orf" id="dummy-1_h1_5_6"  />
</g>
<g id="a1_007"  >
<polygon points="226,90 256,90 261,85 256,80 226,80 226,90 " style="fill:white; stroke-width:1; stroke:black; " description="&lt;b&gt;M877_RS53440&lt;/b&gt;&lt;br&gt;M56 family peptidase&lt;br&gt;Location: 2509123 - 2508248" locus_tag="M877_RS53440" class="clusterblast-orf" id="dummy-1_h1_5_7"  />
</g>
<g id="a1_008"  >
<polygon points="264,90 269,90 274,85 269,80 264,80 264,90 " style="fill:white; stroke-width:1; stroke:black; " description="&lt;b&gt;M877_RS53435&lt;/b&gt;&lt;br&gt;hypothetical protein&lt;br&gt;Location: 2508182 - 2507928" locus_tag="M877_RS53435" class="clusterblast-orf" id="dummy-1_h1_5_8"  />
</g>
<g id="a1_009"  >
<polygon points="276,90 380,90 385,85 380,80 276,80 276,90 " style="fill:#d86915; stroke-width:1; stroke:black; " description="&lt;b&gt;M877_RS53430&lt;/b&gt;&lt;br&gt;ATP-binding protein&lt;br&gt;Location: 2507881 - 2505197&lt;br&gt;&lt;br&gt;&lt;b&gt;BlastP hit with ctg85_5&lt;/b&gt;&lt;br&gt;Percentage identity: 52&lt;br&gt;Percentage coverage: 100&lt;br&gt;BLAST bit score: 766&lt;br&gt;E-value: 2.9e-219" locus_tag="M877_RS53430" class="clusterblast-orf" id="dummy-1_h1_5_9"  />
</g>
<g id="a1_0010"  >
<polygon points="388,90 398,90 403,85 398,80 388,80 388,90 " style="fill:#15d831; stroke-width:1; stroke:black; " description="&lt;b&gt;M877_RS53425&lt;/b&gt;&lt;br&gt;6-carboxytetrahydropterin synthase&lt;br&gt;Location: 2505138 - 2504752&lt;br&gt;&lt;br&gt;&lt;b&gt;BlastP hit with ctg85_6&lt;/b&gt;&lt;br&gt;Percentage identity: 77&lt;br&gt;Percentage coverage: 98&lt;br&gt;BLAST bit score: 198&lt;br&gt;E-value: 3.3e-49" locus_tag="M877_RS53425" class="clusterblast-orf" id="dummy-1_h1_5_10"  />
</g>
<g id="a1_0011"  >
<polygon points="404,85 409,80 461,80 461,90 409,90 404,85 " style="fill:white; stroke-width:1; stroke:black; " description="&lt;b&gt;M877_RS53420&lt;/b&gt;&lt;br&gt;L-serine ammonia-lyase&lt;br&gt;Location: 2504726 - 2503344" locus_tag="M877_RS53420" class="clusterblast-orf" id="dummy-1_h1_5_11"  />
</g>
<g id="a1_0012"  >
<polygon points="473,85 478,80 524,80 524,90 478,90 473,85 " style="fill:white; stroke-width:1; stroke:black; " description="&lt;b&gt;M877_RS53415&lt;/b&gt;&lt;br&gt;serine hydroxymethyltransferase&lt;br&gt;Location: 2503046 - 2501778" locus_tag="M877_RS53415" class="clusterblast-orf" id="dummy-1_h1_5_12"  />
</g>
<g id="a1_0013"  >
<polygon points="525,85 530,80 540,80 540,90 530,90 525,85 " style="fill:white; stroke-width:1; stroke:black; " description="&lt;b&gt;M877_RS53410&lt;/b&gt;&lt;br&gt;glycine cleavage system protein GcvH&lt;br&gt;Location: 2501761 - 2501384" locus_tag="M877_RS53410" class="clusterblast-orf" id="dummy-1_h1_5_13"  />
</g>
<g id="a1_0014"  >
<polygon points="544,85 549,80 591,80 591,90 549,90 544,85 " style="fill:white; stroke-width:1; stroke:black; " description="&lt;b&gt;M877_RS53405&lt;/b&gt;&lt;br&gt;glycine cleavage system aminomethyltransferase GcvT&lt;br&gt;Location: 2501293 - 2500130" locus_tag="M877_RS53405" class="clusterblast-orf" id="dummy-1_h1_5_14"  />
</g>
<g id="a1_0015"  >
<polygon points="608,90 619,90 624,85 619,80 608,80 608,90 " style="fill:white; stroke-width:1; stroke:black; " description="&lt;b&gt;M877_RS53400&lt;/b&gt;&lt;br&gt;ATP-binding protein&lt;br&gt;Location: 2499715 - 2499331" locus_tag="M877_RS53400" class="clusterblast-orf" id="dummy-1_h1_5_15"  />
</g>
<g id="a1_0016"  >
<polygon points="638,90 644,90 649,85 644,80 638,80 638,90 " style="fill:white; stroke-width:1; stroke:black; " description="&lt;b&gt;M877_RS53395&lt;/b&gt;&lt;br&gt;ATP-binding protein&lt;br&gt;Location: 2498993 - 2498712" locus_tag="M877_RS53395" class="clusterblast-orf" id="dummy-1_h1_5_16"  />
</g>
<g id="a1_0017"  >
<polygon points="655,90 680,90 685,85 680,80 655,80 655,90 " style="fill:white; stroke-width:1; stroke:black; " description="&lt;b&gt;M877_RS53390&lt;/b&gt;&lt;br&gt;enhanced serine sensitivity protein SseB&lt;br&gt;Location: 2498570 - 2497821" locus_tag="M877_RS53390" class="clusterblast-orf" id="dummy-1_h1_5_17"  />
</g>
<g id="a1_0018"  >
<polygon points="691,90 718,90 723,85 718,80 691,80 691,90 " style="fill:white; stroke-width:1; stroke:black; " description="&lt;b&gt;M877_RS53385&lt;/b&gt;&lt;br&gt;enhanced serine sensitivity protein SseB&lt;br&gt;Location: 2497689 - 2496895" locus_tag="M877_RS53385" class="clusterblast-orf" id="dummy-1_h1_5_18"  />
</g>
<g id="a1_0019"  >
<polygon points="739,90 775,90 780,85 775,80 739,80 739,90 " style="fill:white; stroke-width:1; stroke:black; " description="&lt;b&gt;M877_RS53380&lt;/b&gt;&lt;br&gt;ABC transporter permease&lt;br&gt;Location: 2496500 - 2495502" locus_tag="M877_RS53380" class="clusterblast-orf" id="dummy-1_h1_5_19"  />
</g>
</svg>
