<svg xmlns="http://www.w3.org/2000/svg" xmlns:xlink="http://www.w3.org/1999/xlink" version="1.1" x="0" y="0" height="230" width="800" viewBox="0 0 800 230" preserveAspectRatio="none"  >
<g label="Query sequence" class="clusterblast-cluster"  >
<text x="5" y="20" class="clusterblast-acc"  >
Query sequence</text>
<line x1="10" y1="35" x2="778.0" y2="35" style="stroke-width:1; stroke:grey; "  />
<polygon points="304,35 309,30 388,30 388,40 309,40 304,35 " style="fill:#d81515; stroke-width:1; stroke:black; " description="&lt;b&gt;ctg30_1&lt;/b&gt;&lt;br&gt;ctg30 1&lt;br&gt;Location: 1 - 14734" locus_tag="ctg30_1" class="clusterblast-orf" id="dummy-1_q0_0_all"  />
<polygon points="390,35 395,30 404,30 404,40 395,40 390,35 " style="fill:#63d815; stroke-width:1; stroke:black; " description="&lt;b&gt;ctg30_2&lt;/b&gt;&lt;br&gt;ctg30 2&lt;br&gt;Location: 15072 - 17592" locus_tag="ctg30_2" class="clusterblast-orf" id="dummy-1_q1_0_all"  />
<polygon points="406,35 411,30 414,30 414,40 411,40 406,35 " style="fill:#15b1d8; stroke-width:1; stroke:black; " description="&lt;b&gt;ctg30_3&lt;/b&gt;&lt;br&gt;ctg30 3&lt;br&gt;Location: 17914 - 19339" locus_tag="ctg30_3" class="clusterblast-orf" id="dummy-1_q2_0_all"  />
<polygon points="415,35 419,30 419,40 415,35 " style="fill:#b115d8; stroke-width:1; stroke:black; " description="&lt;b&gt;ctg30_4&lt;/b&gt;&lt;br&gt;ctg30 4&lt;br&gt;Location: 19373 - 20093" locus_tag="ctg30_4" class="clusterblast-orf" id="dummy-1_q3_0_all"  />
<polygon points="419,35 423,30 423,40 419,35 " style="fill:#d86315; stroke-width:1; stroke:black; " description="&lt;b&gt;ctg30_5&lt;/b&gt;&lt;br&gt;ctg30 5&lt;br&gt;Location: 20124 - 20904" locus_tag="ctg30_5" class="clusterblast-orf" id="dummy-1_q4_0_all"  />
<polygon points="424,35 425,30 425,40 424,35 " style="fill:white; stroke-width:1; stroke:black; " description="&lt;b&gt;ctg30_6&lt;/b&gt;&lt;br&gt;ctg30 6&lt;br&gt;Location: 21026 - 21116" locus_tag="ctg30_6" class="clusterblast-orf" id="dummy-1_q5_0_all"  />
<polygon points="424,35 429,30 430,30 430,40 429,40 424,35 " style="fill:#15d815; stroke-width:1; stroke:black; " description="&lt;b&gt;ctg30_7&lt;/b&gt;&lt;br&gt;ctg30 7&lt;br&gt;Location: 21112 - 22084" locus_tag="ctg30_7" class="clusterblast-orf" id="dummy-1_q6_0_all"  />
<polygon points="430,35 434,30 434,40 430,35 " style="fill:#1563d8; stroke-width:1; stroke:black; " description="&lt;b&gt;ctg30_8&lt;/b&gt;&lt;br&gt;ctg30 8&lt;br&gt;Location: 22104 - 22782" locus_tag="ctg30_8" class="clusterblast-orf" id="dummy-1_q7_0_all"  />
<polygon points="434,35 439,30 441,30 441,40 439,40 434,35 " style="fill:#d815b1; stroke-width:1; stroke:black; " description="&lt;b&gt;ctg30_9&lt;/b&gt;&lt;br&gt;ctg30 9&lt;br&gt;Location: 22857 - 23940" locus_tag="ctg30_9" class="clusterblast-orf" id="dummy-1_q8_0_all"  />
<polygon points="441,40 443,35 441,30 441,40 " style="fill:#d8b115; stroke-width:1; stroke:black; " description="&lt;b&gt;ctg30_10&lt;/b&gt;&lt;br&gt;ctg30 10&lt;br&gt;Location: 24041 - 24404" locus_tag="ctg30_10" class="clusterblast-orf" id="dummy-1_q9_0_all"  />
<polygon points="444,35 448,30 448,40 444,35 " style="fill:#15d863; stroke-width:1; stroke:black; " description="&lt;b&gt;ctg30_11&lt;/b&gt;&lt;br&gt;ctg30 11&lt;br&gt;Location: 24450 - 25149" locus_tag="ctg30_11" class="clusterblast-orf" id="dummy-1_q10_0_all"  />
<polygon points="448,35 449,30 449,40 448,35 " style="fill:white; stroke-width:1; stroke:black; " description="&lt;b&gt;ctg30_12&lt;/b&gt;&lt;br&gt;ctg30 12&lt;br&gt;Location: 25178 - 25319" locus_tag="ctg30_12" class="clusterblast-orf" id="dummy-1_q11_0_all"  />
<polygon points="449,40 452,40 457,35 452,30 449,30 449,40 " style="fill:#1515d8; stroke-width:1; stroke:black; " description="&lt;b&gt;ctg30_13&lt;/b&gt;&lt;br&gt;ctg30 13&lt;br&gt;Location: 25328 - 26780" locus_tag="ctg30_13" class="clusterblast-orf" id="dummy-1_q12_0_all"  />
<polygon points="457,35 461,30 461,40 457,35 " style="fill:#d81563; stroke-width:1; stroke:black; " description="&lt;b&gt;ctg30_14&lt;/b&gt;&lt;br&gt;ctg30 14&lt;br&gt;Location: 26786 - 27428" locus_tag="ctg30_14" class="clusterblast-orf" id="dummy-1_q13_0_all"  />
<polygon points="461,35 465,30 465,40 461,35 " style="fill:#b1d815; stroke-width:1; stroke:black; " description="&lt;b&gt;ctg30_15&lt;/b&gt;&lt;br&gt;ctg30 15&lt;br&gt;Location: 27565 - 28261" locus_tag="ctg30_15" class="clusterblast-orf" id="dummy-1_q14_0_all"  />
<polygon points="467,35 472,30 473,30 473,40 472,40 467,35 " style="fill:#15d8b1; stroke-width:1; stroke:black; " description="&lt;b&gt;ctg30_16&lt;/b&gt;&lt;br&gt;ctg30 16&lt;br&gt;Location: 28543 - 29566" locus_tag="ctg30_16" class="clusterblast-orf" id="dummy-1_q15_0_all"  />
<polygon points="473,35 475,30 475,40 473,35 " style="fill:#6315d8; stroke-width:1; stroke:black; " description="&lt;b&gt;ctg30_17&lt;/b&gt;&lt;br&gt;ctg30 17&lt;br&gt;Location: 29573 - 30020" locus_tag="ctg30_17" class="clusterblast-orf" id="dummy-1_q16_0_all"  />
</g>
<g label="NZ_JOIG01000004" description="NZ_JOIG01000004_c8: Streptomyces sp. NRRL F-2890 contig4.1, whole genome shot... (17% of genes show similarity), t3pks-terpene-nrps" class="clusterblast-cluster"  >
<text x="5" y="70" class="clusterblast-acc"  >
<a xlink:href="https://antismash-db.secondarymetabolites.org/go/NZ_JOIG01000004/8" target="_blank">NZ_JOIG01000004_c8</a>: Streptomyces sp. NRRL F-2890 contig4.1, whole genome shot... (17% of genes show similarity), t3pks-terpene-nrps</text>
<line x1="10" y1="85" x2="778.0" y2="85" style="stroke-width:1; stroke:grey; "  />
</g>
<g id="a1_000"  >
<polygon points="0,85 5,80 13,80 13,90 5,90 0,85 " style="fill:white; stroke-width:1; stroke:black; " description="&lt;b&gt;IF79_RS0112300&lt;/b&gt;&lt;br&gt;alpha-xylosidase&lt;br&gt;Location: 682672 - 684987" locus_tag="IF79_RS0112300" class="clusterblast-orf" id="dummy-1_h1_3_0"  />
</g>
<g id="a1_001"  >
<polygon points="13,85 18,80 21,80 21,90 18,90 13,85 " style="fill:white; stroke-width:1; stroke:black; " description="&lt;b&gt;IF79_RS0112305&lt;/b&gt;&lt;br&gt;beta-glucosidase&lt;br&gt;Location: 685045 - 686445" locus_tag="IF79_RS0112305" class="clusterblast-orf" id="dummy-1_h1_3_1"  />
</g>
<g id="a1_002"  >
<polygon points="21,85 26,80 26,80 26,90 26,90 21,85 " style="fill:white; stroke-width:1; stroke:black; " description="&lt;b&gt;IF79_RS0112310&lt;/b&gt;&lt;br&gt;carbohydrate ABC transporter permease&lt;br&gt;Location: 686507 - 687331" locus_tag="IF79_RS0112310" class="clusterblast-orf" id="dummy-1_h1_3_2"  />
</g>
<g id="a1_003"  >
<polygon points="26,85 31,80 32,80 32,90 31,90 26,85 " style="fill:white; stroke-width:1; stroke:black; " description="&lt;b&gt;IF79_RS0112315&lt;/b&gt;&lt;br&gt;sugar ABC transporter permease&lt;br&gt;Location: 687338 - 688300" locus_tag="IF79_RS0112315" class="clusterblast-orf" id="dummy-1_h1_3_3"  />
</g>
<g id="a1_004"  >
<polygon points="32,85 37,80 39,80 39,90 37,90 32,85 " style="fill:white; stroke-width:1; stroke:black; " description="&lt;b&gt;IF79_RS0112320&lt;/b&gt;&lt;br&gt;sugar ABC transporter substrate-binding protein&lt;br&gt;Location: 688308 - 689543" locus_tag="IF79_RS0112320" class="clusterblast-orf" id="dummy-1_h1_3_4"  />
</g>
<g id="a1_005"  >
<polygon points="39,85 44,80 45,80 45,90 44,90 39,85 " style="fill:white; stroke-width:1; stroke:black; " description="&lt;b&gt;IF79_RS0112325&lt;/b&gt;&lt;br&gt;LacI family transcriptional regulator&lt;br&gt;Location: 689611 - 690642" locus_tag="IF79_RS0112325" class="clusterblast-orf" id="dummy-1_h1_3_5"  />
</g>
<g id="a1_006"  >
<polygon points="46,85 50,80 50,90 46,85 " style="fill:white; stroke-width:1; stroke:black; " description="&lt;b&gt;IF79_RS0112330&lt;/b&gt;&lt;br&gt;ATP-dependent dethiobiotin synthetase BioD&lt;br&gt;Location: 690861 - 691538" locus_tag="IF79_RS0112330" class="clusterblast-orf" id="dummy-1_h1_3_6"  />
</g>
<g id="a1_007"  >
<polygon points="50,85 55,80 58,80 58,90 55,90 50,85 " style="fill:white; stroke-width:1; stroke:black; " description="&lt;b&gt;IF79_RS0112335&lt;/b&gt;&lt;br&gt;adenosylmethionine--8-amino-7-oxononanoate transaminase&lt;br&gt;Location: 691572 - 692909" locus_tag="IF79_RS0112335" class="clusterblast-orf" id="dummy-1_h1_3_7"  />
</g>
<g id="a1_008"  >
<polygon points="58,85 63,80 65,80 65,90 63,90 58,85 " style="fill:white; stroke-width:1; stroke:black; " description="&lt;b&gt;IF79_RS0112340&lt;/b&gt;&lt;br&gt;biotin synthase BioB&lt;br&gt;Location: 692902 - 694029" locus_tag="IF79_RS0112340" class="clusterblast-orf" id="dummy-1_h1_3_8"  />
</g>
<g id="a1_009"  >
<polygon points="65,90 67,90 72,85 67,80 65,80 65,90 " style="fill:white; stroke-width:1; stroke:black; " description="&lt;b&gt;IF79_RS0112345&lt;/b&gt;&lt;br&gt;8-amino-7-oxononanoate synthase&lt;br&gt;Location: 694145 - 695410" locus_tag="IF79_RS0112345" class="clusterblast-orf" id="dummy-1_h1_3_9"  />
</g>
<g id="a1_0010"  >
<polygon points="73,85 78,80 79,80 79,90 78,90 73,85 " style="fill:white; stroke-width:1; stroke:black; " description="&lt;b&gt;IF79_RS0112350&lt;/b&gt;&lt;br&gt;ATP-dependent DNA ligase&lt;br&gt;Location: 695487 - 696503" locus_tag="IF79_RS0112350" class="clusterblast-orf" id="dummy-1_h1_3_10"  />
</g>
<g id="a1_0011"  >
<polygon points="79,90 80,90 85,85 80,80 79,80 79,90 " style="fill:white; stroke-width:1; stroke:black; " description="&lt;b&gt;IF79_RS0112355&lt;/b&gt;&lt;br&gt;ATP-dependent DNA ligase&lt;br&gt;Location: 696580 - 697653" locus_tag="IF79_RS0112355" class="clusterblast-orf" id="dummy-1_h1_3_11"  />
</g>
<g id="a1_0012"  >
<polygon points="85,85 88,80 88,90 85,85 " style="fill:white; stroke-width:1; stroke:black; " description="&lt;b&gt;IF79_RS0112360&lt;/b&gt;&lt;br&gt;HIT family protein&lt;br&gt;Location: 697631 - 698056" locus_tag="IF79_RS0112360" class="clusterblast-orf" id="dummy-1_h1_3_12"  />
</g>
<g id="a1_0013"  >
<polygon points="88,90 89,90 94,85 89,80 88,80 88,90 " style="fill:white; stroke-width:1; stroke:black; " description="&lt;b&gt;IF79_RS0112365&lt;/b&gt;&lt;br&gt;NAD(P)/FAD-dependent oxidoreductase&lt;br&gt;Location: 698113 - 699183" locus_tag="IF79_RS0112365" class="clusterblast-orf" id="dummy-1_h1_3_13"  />
</g>
<g id="a1_0014"  >
<polygon points="95,90 96,90 101,85 96,80 95,80 95,90 " style="fill:white; stroke-width:1; stroke:black; " description="&lt;b&gt;IF79_RS0112370&lt;/b&gt;&lt;br&gt;peptidase S1&lt;br&gt;Location: 699309 - 700466" locus_tag="IF79_RS0112370" class="clusterblast-orf" id="dummy-1_h1_3_14"  />
</g>
<g id="a1_0015"  >
<polygon points="102,90 104,90 109,85 104,80 102,80 102,90 " style="fill:white; stroke-width:1; stroke:black; " description="&lt;b&gt;IF79_RS0112375&lt;/b&gt;&lt;br&gt;DUF418 domain-containing protein&lt;br&gt;Location: 700619 - 701833" locus_tag="IF79_RS0112375" class="clusterblast-orf" id="dummy-1_h1_3_15"  />
</g>
<g id="a1_0016"  >
<polygon points="110,90 113,85 110,80 110,90 " style="fill:white; stroke-width:1; stroke:black; " description="&lt;b&gt;IF79_RS0112380&lt;/b&gt;&lt;br&gt;NUDIX domain-containing protein&lt;br&gt;Location: 701959 - 702486" locus_tag="IF79_RS0112380" class="clusterblast-orf" id="dummy-1_h1_3_16"  />
</g>
<g id="a1_0017"  >
<polygon points="113,85 118,80 120,80 120,90 118,90 113,85 " style="fill:white; stroke-width:1; stroke:black; " description="&lt;b&gt;IF79_RS0112385&lt;/b&gt;&lt;br&gt;polyketide synthase&lt;br&gt;Location: 702557 - 703687" locus_tag="IF79_RS0112385" class="clusterblast-orf" id="dummy-1_h1_3_17"  />
</g>
<g id="a1_0018"  >
<polygon points="120,85 125,80 127,80 127,90 125,90 120,85 " style="fill:white; stroke-width:1; stroke:black; " description="&lt;b&gt;IF79_RS0112390&lt;/b&gt;&lt;br&gt;cytochrome P450&lt;br&gt;Location: 703770 - 704975" locus_tag="IF79_RS0112390" class="clusterblast-orf" id="dummy-1_h1_3_18"  />
</g>
<g id="a1_0019"  >
<polygon points="129,85 134,80 136,80 136,90 134,90 129,85 " style="fill:white; stroke-width:1; stroke:black; " description="&lt;b&gt;IF79_RS0112395&lt;/b&gt;&lt;br&gt;ROK family transcriptional regulator&lt;br&gt;Location: 705228 - 706508" locus_tag="IF79_RS0112395" class="clusterblast-orf" id="dummy-1_h1_3_19"  />
</g>
<g id="a1_0020"  >
<polygon points="137,90 142,90 147,85 142,80 137,80 137,90 " style="fill:white; stroke-width:1; stroke:black; " description="&lt;b&gt;IF79_RS0112400&lt;/b&gt;&lt;br&gt;ABC transporter substrate-binding protein&lt;br&gt;Location: 706682 - 708385" locus_tag="IF79_RS0112400" class="clusterblast-orf" id="dummy-1_h1_3_20"  />
</g>
<g id="a1_0021"  >
<polygon points="147,90 148,90 153,85 148,80 147,80 147,90 " style="fill:white; stroke-width:1; stroke:black; " description="&lt;b&gt;IF79_RS0112405&lt;/b&gt;&lt;br&gt;ABC transporter permease&lt;br&gt;Location: 708417 - 709406" locus_tag="IF79_RS0112405" class="clusterblast-orf" id="dummy-1_h1_3_21"  />
</g>
<g id="a1_0022"  >
<polygon points="153,90 158,90 163,85 158,80 153,80 153,90 " style="fill:white; stroke-width:1; stroke:black; " description="&lt;b&gt;IF79_RS0112410&lt;/b&gt;&lt;br&gt;peptide ABC transporter ATPase&lt;br&gt;Location: 709423 - 711231" locus_tag="IF79_RS0112410" class="clusterblast-orf" id="dummy-1_h1_3_22"  />
</g>
<g id="a1_0023"  >
<polygon points="163,90 163,90 168,85 163,80 163,80 163,90 " style="fill:white; stroke-width:1; stroke:black; " description="&lt;b&gt;IF79_RS0112415&lt;/b&gt;&lt;br&gt;ABC transporter ATP-binding protein&lt;br&gt;Location: 711228 - 712103" locus_tag="IF79_RS0112415" class="clusterblast-orf" id="dummy-1_h1_3_23"  />
</g>
<g id="a1_0024"  >
<polygon points="169,90 178,90 183,85 178,80 169,80 169,90 " style="fill:white; stroke-width:1; stroke:black; " description="&lt;b&gt;IF79_RS0112420&lt;/b&gt;&lt;br&gt;glycoside hydrolase family 2 protein&lt;br&gt;Location: 712247 - 714736" locus_tag="IF79_RS0112420" class="clusterblast-orf" id="dummy-1_h1_3_24"  />
</g>
<g id="a1_0025"  >
<polygon points="183,90 183,90 188,85 183,80 183,80 183,90 " style="fill:white; stroke-width:1; stroke:black; " description="&lt;b&gt;IF79_RS0112425&lt;/b&gt;&lt;br&gt;LacI family transcriptional regulator&lt;br&gt;Location: 714737 - 715597" locus_tag="IF79_RS0112425" class="clusterblast-orf" id="dummy-1_h1_3_25"  />
</g>
<g id="a1_0026"  >
<polygon points="188,85 191,80 191,90 188,85 " style="fill:white; stroke-width:1; stroke:black; " description="&lt;b&gt;IF79_RS0112430&lt;/b&gt;&lt;br&gt;peptidase&lt;br&gt;Location: 715579 - 716148" locus_tag="IF79_RS0112430" class="clusterblast-orf" id="dummy-1_h1_3_26"  />
</g>
<g id="a1_0027"  >
<polygon points="192,85 197,80 198,80 198,90 197,90 192,85 " style="fill:white; stroke-width:1; stroke:black; " description="&lt;b&gt;IF79_RS0112435&lt;/b&gt;&lt;br&gt;hypothetical protein&lt;br&gt;Location: 716272 - 717273" locus_tag="IF79_RS0112435" class="clusterblast-orf" id="dummy-1_h1_3_27"  />
</g>
<g id="a1_0028"  >
<polygon points="198,85 203,80 207,80 207,90 203,90 198,85 " style="fill:white; stroke-width:1; stroke:black; " description="&lt;b&gt;IF79_RS0112440&lt;/b&gt;&lt;br&gt;MFS transporter&lt;br&gt;Location: 717437 - 718870" locus_tag="IF79_RS0112440" class="clusterblast-orf" id="dummy-1_h1_3_28"  />
</g>
<g id="a1_0029"  >
<polygon points="208,90 212,85 208,80 208,90 " style="fill:white; stroke-width:1; stroke:black; " description="&lt;b&gt;IF79_RS0112445&lt;/b&gt;&lt;br&gt;class I SAM-dependent methyltransferase&lt;br&gt;Location: 719027 - 719812" locus_tag="IF79_RS0112445" class="clusterblast-orf" id="dummy-1_h1_3_29"  />
</g>
<g id="a1_0030"  >
<polygon points="213,85 214,80 214,90 213,85 " style="fill:white; stroke-width:1; stroke:black; " description="&lt;b&gt;IF79_RS29190&lt;/b&gt;&lt;br&gt;twin-arginine translocase TatA/TatE family subunit&lt;br&gt;Location: 719899 - 720159" locus_tag="IF79_RS29190" class="clusterblast-orf" id="dummy-1_h1_3_30"  />
</g>
<g id="a1_0031"  >
<polygon points="215,90 217,85 215,80 215,90 " style="fill:white; stroke-width:1; stroke:black; " description="&lt;b&gt;IF79_RS0112455&lt;/b&gt;&lt;br&gt;hypothetical protein&lt;br&gt;Location: 720351 - 720755" locus_tag="IF79_RS0112455" class="clusterblast-orf" id="dummy-1_h1_3_31"  />
</g>
<g id="a1_0032"  >
<polygon points="219,90 223,85 219,80 219,90 " style="fill:white; stroke-width:1; stroke:black; " description="&lt;b&gt;IF79_RS0112460&lt;/b&gt;&lt;br&gt;hypothetical protein&lt;br&gt;Location: 720999 - 721757" locus_tag="IF79_RS0112460" class="clusterblast-orf" id="dummy-1_h1_3_32"  />
</g>
<g id="a1_0033"  >
<polygon points="224,90 230,90 235,85 230,80 224,80 224,90 " style="fill:white; stroke-width:1; stroke:black; " description="&lt;b&gt;IF79_RS0112465&lt;/b&gt;&lt;br&gt;peroxidase&lt;br&gt;Location: 721888 - 723792" locus_tag="IF79_RS0112465" class="clusterblast-orf" id="dummy-1_h1_3_33"  />
</g>
<g id="a1_0034"  >
<polygon points="235,85 240,80 247,80 247,90 240,90 235,85 " style="fill:white; stroke-width:1; stroke:black; " description="&lt;b&gt;IF79_RS0112470&lt;/b&gt;&lt;br&gt;amylo-alpha-1,6-glucosidase&lt;br&gt;Location: 723874 - 725976" locus_tag="IF79_RS0112470" class="clusterblast-orf" id="dummy-1_h1_3_34"  />
</g>
<g id="a1_0035"  >
<polygon points="248,90 249,90 254,85 249,80 248,80 248,90 " style="fill:white; stroke-width:1; stroke:black; " description="&lt;b&gt;IF79_RS0112475&lt;/b&gt;&lt;br&gt;LacI family transcriptional regulator&lt;br&gt;Location: 726098 - 727153" locus_tag="IF79_RS0112475" class="clusterblast-orf" id="dummy-1_h1_3_35"  />
</g>
<g id="a1_0036"  >
<polygon points="255,90 257,90 262,85 257,80 255,80 255,90 " style="fill:white; stroke-width:1; stroke:black; " description="&lt;b&gt;IF79_RS0112480&lt;/b&gt;&lt;br&gt;sugar ABC transporter substrate-binding protein&lt;br&gt;Location: 727242 - 728489" locus_tag="IF79_RS0112480" class="clusterblast-orf" id="dummy-1_h1_3_36"  />
</g>
<g id="a1_0037"  >
<polygon points="262,90 263,90 268,85 263,80 262,80 262,90 " style="fill:white; stroke-width:1; stroke:black; " description="&lt;b&gt;IF79_RS0112485&lt;/b&gt;&lt;br&gt;sugar ABC transporter permease&lt;br&gt;Location: 728489 - 729538" locus_tag="IF79_RS0112485" class="clusterblast-orf" id="dummy-1_h1_3_37"  />
</g>
<g id="a1_0038"  >
<polygon points="268,90 268,90 273,85 268,80 268,80 268,90 " style="fill:white; stroke-width:1; stroke:black; " description="&lt;b&gt;IF79_RS0112490&lt;/b&gt;&lt;br&gt;carbohydrate ABC transporter permease&lt;br&gt;Location: 729535 - 730479" locus_tag="IF79_RS0112490" class="clusterblast-orf" id="dummy-1_h1_3_38"  />
</g>
<g id="a1_0039"  >
<polygon points="273,85 278,80 279,80 279,90 278,90 273,85 " style="fill:white; stroke-width:1; stroke:black; " description="&lt;b&gt;IF79_RS0112495&lt;/b&gt;&lt;br&gt;DNA polymerase&lt;br&gt;Location: 730512 - 731465" locus_tag="IF79_RS0112495" class="clusterblast-orf" id="dummy-1_h1_3_39"  />
</g>
<g id="a1_0040"  >
<polygon points="279,90 281,85 279,80 279,90 " style="fill:white; stroke-width:1; stroke:black; " description="&lt;b&gt;IF79_RS0112500&lt;/b&gt;&lt;br&gt;DUF2087 domain-containing protein&lt;br&gt;Location: 731542 - 731817" locus_tag="IF79_RS0112500" class="clusterblast-orf" id="dummy-1_h1_3_40"  />
</g>
<g id="a1_0041"  >
<polygon points="281,85 286,80 289,80 289,90 286,90 281,85 " style="fill:white; stroke-width:1; stroke:black; " description="&lt;b&gt;IF79_RS0112505&lt;/b&gt;&lt;br&gt;phosphogluconate dehydrogenase (NADP(+)-dependent, decarboxylating)&lt;br&gt;Location: 731867 - 733303" locus_tag="IF79_RS0112505" class="clusterblast-orf" id="dummy-1_h1_3_41"  />
</g>
<g id="a1_0042"  >
<polygon points="290,90 292,90 297,85 292,80 290,80 290,90 " style="fill:white; stroke-width:1; stroke:black; " description="&lt;b&gt;IF79_RS0112510&lt;/b&gt;&lt;br&gt;DUF4032 domain-containing protein&lt;br&gt;Location: 733435 - 734694" locus_tag="IF79_RS0112510" class="clusterblast-orf" id="dummy-1_h1_3_42"  />
</g>
<g id="a1_0043"  >
<polygon points="297,85 302,80 302,80 302,90 302,90 297,85 " style="fill:white; stroke-width:1; stroke:black; " description="&lt;b&gt;IF79_RS27845&lt;/b&gt;&lt;br&gt;acetyltransferase&lt;br&gt;Location: 734657 - 735487" locus_tag="IF79_RS27845" class="clusterblast-orf" id="dummy-1_h1_3_43"  />
</g>
<g id="a1_0044"  >
<polygon points="303,85 308,80 325,80 325,90 308,90 303,85 " style="fill:white; stroke-width:1; stroke:black; " description="&lt;b&gt;IF79_RS0112520&lt;/b&gt;&lt;br&gt;amino acid adenylation protein&lt;br&gt;Location: 735674 - 739504" locus_tag="IF79_RS0112520" class="clusterblast-orf" id="dummy-1_h1_3_44"  />
</g>
<g id="a1_0045"  >
<polygon points="327,85 332,80 335,80 335,90 332,90 327,85 " style="fill:white; stroke-width:1; stroke:black; " description="&lt;b&gt;IF79_RS0112525&lt;/b&gt;&lt;br&gt;XRE family transcriptional regulator&lt;br&gt;Location: 739824 - 741233" locus_tag="IF79_RS0112525" class="clusterblast-orf" id="dummy-1_h1_3_45"  />
</g>
<g id="a1_0046"  >
<polygon points="337,90 339,90 344,85 339,80 337,80 337,90 " style="fill:white; stroke-width:1; stroke:black; " description="&lt;b&gt;IF79_RS0112530&lt;/b&gt;&lt;br&gt;isocitrate lyase&lt;br&gt;Location: 741564 - 742853" locus_tag="IF79_RS0112530" class="clusterblast-orf" id="dummy-1_h1_3_46"  />
</g>
<g id="a1_0047"  >
<polygon points="344,85 349,80 357,80 357,90 349,90 344,85 " style="fill:white; stroke-width:1; stroke:black; " description="&lt;b&gt;IF79_RS0112535&lt;/b&gt;&lt;br&gt;germacradienol/geosmin synthase&lt;br&gt;Location: 742930 - 745176" locus_tag="IF79_RS0112535" class="clusterblast-orf" id="dummy-1_h1_3_47"  />
</g>
<g id="a1_0048"  >
<polygon points="358,90 363,90 368,85 363,80 358,80 358,90 " style="fill:white; stroke-width:1; stroke:black; " description="&lt;b&gt;IF79_RS0112540&lt;/b&gt;&lt;br&gt;DUF2867 domain-containing protein&lt;br&gt;Location: 745393 - 747078" locus_tag="IF79_RS0112540" class="clusterblast-orf" id="dummy-1_h1_3_48"  />
</g>
<g id="a1_0049"  >
<polygon points="368,85 373,80 373,80 373,90 373,90 368,85 " style="fill:white; stroke-width:1; stroke:black; " description="&lt;b&gt;IF79_RS0112545&lt;/b&gt;&lt;br&gt;ABC transporter ATP-binding protein&lt;br&gt;Location: 747066 - 747950" locus_tag="IF79_RS0112545" class="clusterblast-orf" id="dummy-1_h1_3_49"  />
</g>
<g id="a1_0050"  >
<polygon points="373,85 378,80 379,80 379,90 378,90 373,85 " style="fill:white; stroke-width:1; stroke:black; " description="&lt;b&gt;IF79_RS0112550&lt;/b&gt;&lt;br&gt;ferrichrome ABC transporter permease&lt;br&gt;Location: 747947 - 749038" locus_tag="IF79_RS0112550" class="clusterblast-orf" id="dummy-1_h1_3_50"  />
</g>
<g id="a1_0051"  >
<polygon points="379,85 384,80 385,80 385,90 384,90 379,85 " style="fill:white; stroke-width:1; stroke:black; " description="&lt;b&gt;IF79_RS0112555&lt;/b&gt;&lt;br&gt;iron ABC transporter permease&lt;br&gt;Location: 749035 - 750075" locus_tag="IF79_RS0112555" class="clusterblast-orf" id="dummy-1_h1_3_51"  />
</g>
<g id="a1_0052"  >
<polygon points="385,85 390,80 391,80 391,90 390,90 385,85 " style="fill:white; stroke-width:1; stroke:black; " description="&lt;b&gt;IF79_RS0112560&lt;/b&gt;&lt;br&gt;iron-siderophore ABC transporter substrate-binding protein&lt;br&gt;Location: 750096 - 751151" locus_tag="IF79_RS0112560" class="clusterblast-orf" id="dummy-1_h1_3_52"  />
</g>
<g id="a1_0053"  >
<polygon points="393,90 394,90 399,85 394,80 393,80 393,90 " style="fill:white; stroke-width:1; stroke:black; " description="&lt;b&gt;IF79_RS0112565&lt;/b&gt;&lt;br&gt;4-hydroxyphenylpyruvate dioxygenase&lt;br&gt;Location: 751399 - 752541" locus_tag="IF79_RS0112565" class="clusterblast-orf" id="dummy-1_h1_3_53"  />
</g>
<g id="a1_0054"  >
<polygon points="399,90 401,90 406,85 401,80 399,80 399,90 " style="fill:white; stroke-width:1; stroke:black; " description="&lt;b&gt;IF79_RS0112570&lt;/b&gt;&lt;br&gt;acyltransferase&lt;br&gt;Location: 752538 - 753722" locus_tag="IF79_RS0112570" class="clusterblast-orf" id="dummy-1_h1_3_54"  />
</g>
<g id="a1_0055"  >
<polygon points="407,90 408,90 413,85 408,80 407,80 407,90 " style="fill:white; stroke-width:1; stroke:black; " description="&lt;b&gt;IF79_RS0112575&lt;/b&gt;&lt;br&gt;prenyltransferase&lt;br&gt;Location: 753864 - 754928" locus_tag="IF79_RS0112575" class="clusterblast-orf" id="dummy-1_h1_3_55"  />
</g>
<g id="a1_0056"  >
<polygon points="413,90 414,90 419,85 414,80 413,80 413,90 " style="fill:white; stroke-width:1; stroke:black; " description="&lt;b&gt;IF79_RS0112580&lt;/b&gt;&lt;br&gt;polyprenyl synthetase family protein&lt;br&gt;Location: 754925 - 755962" locus_tag="IF79_RS0112580" class="clusterblast-orf" id="dummy-1_h1_3_56"  />
</g>
<g id="a1_0057"  >
<polygon points="419,90 424,90 429,85 424,80 419,80 419,90 " style="fill:white; stroke-width:1; stroke:black; " description="&lt;b&gt;IF79_RS0112585&lt;/b&gt;&lt;br&gt;hypothetical protein&lt;br&gt;Location: 755979 - 757676" locus_tag="IF79_RS0112585" class="clusterblast-orf" id="dummy-1_h1_3_57"  />
</g>
<g id="a1_0058"  >
<polygon points="429,90 431,90 436,85 431,80 429,80 429,90 " style="fill:white; stroke-width:1; stroke:black; " description="&lt;b&gt;IF79_RS0112590&lt;/b&gt;&lt;br&gt;FAD-dependent monooxygenase&lt;br&gt;Location: 757673 - 758926" locus_tag="IF79_RS0112590" class="clusterblast-orf" id="dummy-1_h1_3_58"  />
</g>
<g id="a1_0059"  >
<polygon points="436,90 439,90 444,85 439,80 436,80 436,90 " style="fill:white; stroke-width:1; stroke:black; " description="&lt;b&gt;IF79_RS0112595&lt;/b&gt;&lt;br&gt;hypothetical protein&lt;br&gt;Location: 758923 - 760275" locus_tag="IF79_RS0112595" class="clusterblast-orf" id="dummy-1_h1_3_59"  />
</g>
<g id="a1_0060"  >
<polygon points="443,85 448,80 448,80 448,90 448,90 443,85 " style="fill:white; stroke-width:1; stroke:black; " description="&lt;b&gt;IF79_RS0112600&lt;/b&gt;&lt;br&gt;siderophore-interacting protein&lt;br&gt;Location: 760235 - 761062" locus_tag="IF79_RS0112600" class="clusterblast-orf" id="dummy-1_h1_3_60"  />
</g>
<g id="a1_0061"  >
<polygon points="450,90 450,90 455,85 450,80 450,80 450,90 " style="fill:white; stroke-width:1; stroke:black; " description="&lt;b&gt;IF79_RS0112605&lt;/b&gt;&lt;br&gt;hypothetical protein&lt;br&gt;Location: 761397 - 762209" locus_tag="IF79_RS0112605" class="clusterblast-orf" id="dummy-1_h1_3_61"  />
</g>
<g id="a1_0062"  >
<polygon points="455,85 460,80 462,80 462,90 460,90 455,85 " style="fill:white; stroke-width:1; stroke:black; " description="&lt;b&gt;IF79_RS0112610&lt;/b&gt;&lt;br&gt;copper oxidase&lt;br&gt;Location: 762304 - 763410" locus_tag="IF79_RS0112610" class="clusterblast-orf" id="dummy-1_h1_3_62"  />
</g>
<g id="a1_0063"  >
<polygon points="463,90 472,90 477,85 472,80 463,80 463,90 " style="fill:white; stroke-width:1; stroke:black; " description="&lt;b&gt;IF79_RS0112615&lt;/b&gt;&lt;br&gt;transcriptional regulator&lt;br&gt;Location: 763638 - 766139" locus_tag="IF79_RS0112615" class="clusterblast-orf" id="dummy-1_h1_3_63"  />
</g>
<g id="a1_0064"  >
<polygon points="477,90 485,90 490,85 485,80 477,80 477,90 " style="fill:white; stroke-width:1; stroke:black; " description="&lt;b&gt;IF79_RS0112620&lt;/b&gt;&lt;br&gt;DUF1080 domain-containing protein&lt;br&gt;Location: 766139 - 768355" locus_tag="IF79_RS0112620" class="clusterblast-orf" id="dummy-1_h1_3_64"  />
</g>
<g id="a1_0065"  >
<polygon points="491,90 492,90 497,85 492,80 491,80 491,90 " style="fill:white; stroke-width:1; stroke:black; " description="&lt;b&gt;IF79_RS0112625&lt;/b&gt;&lt;br&gt;iron-siderophore ABC transporter substrate-binding protein&lt;br&gt;Location: 768481 - 769536" locus_tag="IF79_RS0112625" class="clusterblast-orf" id="dummy-1_h1_3_65"  />
</g>
<g id="a1_0066"  >
<polygon points="497,90 498,90 503,85 498,80 497,80 497,90 " style="fill:white; stroke-width:1; stroke:black; " description="&lt;b&gt;IF79_RS0112630&lt;/b&gt;&lt;br&gt;iron ABC transporter permease&lt;br&gt;Location: 769533 - 770576" locus_tag="IF79_RS0112630" class="clusterblast-orf" id="dummy-1_h1_3_66"  />
</g>
<g id="a1_0067"  >
<polygon points="503,90 503,90 508,85 503,80 503,80 503,90 " style="fill:white; stroke-width:1; stroke:black; " description="&lt;b&gt;IF79_RS0112635&lt;/b&gt;&lt;br&gt;ABC transporter permease&lt;br&gt;Location: 770588 - 771598" locus_tag="IF79_RS0112635" class="clusterblast-orf" id="dummy-1_h1_3_67"  />
</g>
<g id="a1_0068"  >
<polygon points="509,85 514,80 516,80 516,90 514,90 509,85 " style="fill:white; stroke-width:1; stroke:black; " description="&lt;b&gt;IF79_RS0112640&lt;/b&gt;&lt;br&gt;MFS transporter&lt;br&gt;Location: 771671 - 772963" locus_tag="IF79_RS0112640" class="clusterblast-orf" id="dummy-1_h1_3_68"  />
</g>
<g id="a1_0069"  >
<polygon points="517,85 518,80 518,90 517,85 " style="fill:white; stroke-width:1; stroke:black; " description="&lt;b&gt;IF79_RS0112645&lt;/b&gt;&lt;br&gt;antibiotic synthesis protein MbtH&lt;br&gt;Location: 773035 - 773250" locus_tag="IF79_RS0112645" class="clusterblast-orf" id="dummy-1_h1_3_69"  />
</g>
<g id="a1_0070"  >
<polygon points="518,85 523,80 527,80 527,90 523,90 518,85 " style="fill:white; stroke-width:1; stroke:black; " description="&lt;b&gt;IF79_RS0112650&lt;/b&gt;&lt;br&gt;hypothetical protein&lt;br&gt;Location: 773247 - 774800" locus_tag="IF79_RS0112650" class="clusterblast-orf" id="dummy-1_h1_3_70"  />
</g>
<g id="a1_0071"  >
<polygon points="527,85 532,80 546,80 546,90 532,90 527,85 " style="fill:white; stroke-width:1; stroke:black; " description="&lt;b&gt;IF79_RS28595&lt;/b&gt;&lt;br&gt;non-ribosomal peptide synthetase&lt;br&gt;Location: 774784 - 778170" locus_tag="IF79_RS28595" class="clusterblast-orf" id="dummy-1_h1_3_71"  />
</g>
<g id="a1_0072"  >
<polygon points="546,85 551,80 556,80 556,90 551,90 546,85 " style="fill:white; stroke-width:1; stroke:black; " description="&lt;b&gt;IF79_RS0112660&lt;/b&gt;&lt;br&gt;hypothetical protein&lt;br&gt;Location: 778167 - 779951" locus_tag="IF79_RS0112660" class="clusterblast-orf" id="dummy-1_h1_3_72"  />
</g>
<g id="a1_0073"  >
<polygon points="556,85 561,80 607,80 607,90 561,90 556,85 " style="fill:#d81515; stroke-width:1; stroke:black; " description="&lt;b&gt;IF79_RS28600&lt;/b&gt;&lt;br&gt;D-alanine--poly(phosphoribitol) ligase subunit DltA&lt;br&gt;Location: 779954 - 788896&lt;br&gt;&lt;br&gt;&lt;b&gt;BlastP hit with ctg30_1&lt;/b&gt;&lt;br&gt;Percentage identity: 45&lt;br&gt;Percentage coverage: 56&lt;br&gt;BLAST bit score: 1979&lt;br&gt;E-value: 0.0" locus_tag="IF79_RS28600" class="clusterblast-orf" id="dummy-1_h1_3_73"  />
</g>
<g id="a1_0074"  >
<polygon points="602,85 607,80 662,80 662,90 607,90 602,85 " style="fill:#d81515; stroke-width:1; stroke:black; " description="&lt;b&gt;IF79_RS29195&lt;/b&gt;&lt;br&gt;non-ribosomal peptide synthase&lt;br&gt;Location: 787965 - 798407&lt;br&gt;&lt;br&gt;&lt;b&gt;BlastP hit with ctg30_1&lt;/b&gt;&lt;br&gt;Percentage identity: 83&lt;br&gt;Percentage coverage: 65&lt;br&gt;BLAST bit score: 5330&lt;br&gt;E-value: 0.0" locus_tag="IF79_RS29195" class="clusterblast-orf" id="dummy-1_h1_3_74"  />
</g>
<g id="a1_0075"  >
<polygon points="662,85 667,80 670,80 670,90 667,90 662,85 " style="fill:white; stroke-width:1; stroke:black; " description="&lt;b&gt;IF79_RS29200&lt;/b&gt;&lt;br&gt;non-ribosomal peptide synthetase&lt;br&gt;Location: 798436 - 799785" locus_tag="IF79_RS29200" class="clusterblast-orf" id="dummy-1_h1_3_75"  />
</g>
<g id="a1_0076"  >
<polygon points="672,85 677,80 686,80 686,90 677,90 672,85 " style="fill:#63d815; stroke-width:1; stroke:black; " description="&lt;b&gt;IF79_RS0112675&lt;/b&gt;&lt;br&gt;AfsR/SARP family transcriptional regulator&lt;br&gt;Location: 800138 - 802657&lt;br&gt;&lt;br&gt;&lt;b&gt;BlastP hit with ctg30_2&lt;/b&gt;&lt;br&gt;Percentage identity: 77&lt;br&gt;Percentage coverage: 100&lt;br&gt;BLAST bit score: 1163&lt;br&gt;E-value: 0.0" locus_tag="IF79_RS0112675" class="clusterblast-orf" id="dummy-1_h1_3_76"  />
</g>
<g id="a1_0077"  >
<polygon points="688,85 693,80 696,80 696,90 693,90 688,85 " style="fill:#15b1d8; stroke-width:1; stroke:black; " description="&lt;b&gt;IF79_RS0112680&lt;/b&gt;&lt;br&gt;Zn-dependent hydrolase&lt;br&gt;Location: 802980 - 804422&lt;br&gt;&lt;br&gt;&lt;b&gt;BlastP hit with ctg30_3&lt;/b&gt;&lt;br&gt;Percentage identity: 89&lt;br&gt;Percentage coverage: 99&lt;br&gt;BLAST bit score: 802&lt;br&gt;E-value: 3.3e-230" locus_tag="IF79_RS0112680" class="clusterblast-orf" id="dummy-1_h1_3_77"  />
</g>
<g id="a1_0078"  >
<polygon points="697,85 701,80 701,90 697,85 " style="fill:#b115d8; stroke-width:1; stroke:black; " description="&lt;b&gt;IF79_RS0112685&lt;/b&gt;&lt;br&gt;HAD family phosphatase&lt;br&gt;Location: 804453 - 805175&lt;br&gt;&lt;br&gt;&lt;b&gt;BlastP hit with ctg30_4&lt;/b&gt;&lt;br&gt;Percentage identity: 87&lt;br&gt;Percentage coverage: 99&lt;br&gt;BLAST bit score: 386&lt;br&gt;E-value: 2.9e-105" locus_tag="IF79_RS0112685" class="clusterblast-orf" id="dummy-1_h1_3_78"  />
</g>
<g id="a1_0079"  >
<polygon points="701,85 706,80 706,80 706,90 706,90 701,85 " style="fill:#d86315; stroke-width:1; stroke:black; " description="&lt;b&gt;IF79_RS0112690&lt;/b&gt;&lt;br&gt;hypothetical protein&lt;br&gt;Location: 805234 - 806082&lt;br&gt;&lt;br&gt;&lt;b&gt;BlastP hit with ctg30_5&lt;/b&gt;&lt;br&gt;Percentage identity: 92&lt;br&gt;Percentage coverage: 100&lt;br&gt;BLAST bit score: 433&lt;br&gt;E-value: 1.7e-119" locus_tag="IF79_RS0112690" class="clusterblast-orf" id="dummy-1_h1_3_79"  />
</g>
<g id="a1_0080"  >
<polygon points="707,85 712,80 712,80 712,90 712,90 707,85 " style="fill:#15d815; stroke-width:1; stroke:black; " description="&lt;b&gt;IF79_RS0112695&lt;/b&gt;&lt;br&gt;ATPase&lt;br&gt;Location: 806222 - 807211&lt;br&gt;&lt;br&gt;&lt;b&gt;BlastP hit with ctg30_7&lt;/b&gt;&lt;br&gt;Percentage identity: 70&lt;br&gt;Percentage coverage: 100&lt;br&gt;BLAST bit score: 398&lt;br&gt;E-value: 5.8e-109" locus_tag="IF79_RS0112695" class="clusterblast-orf" id="dummy-1_h1_3_80"  />
</g>
<g id="a1_0081"  >
<polygon points="712,85 716,80 716,90 712,85 " style="fill:#1563d8; stroke-width:1; stroke:black; " description="&lt;b&gt;IF79_RS0112700&lt;/b&gt;&lt;br&gt;uracil-DNA glycosylase&lt;br&gt;Location: 807196 - 807873&lt;br&gt;&lt;br&gt;&lt;b&gt;BlastP hit with ctg30_8&lt;/b&gt;&lt;br&gt;Percentage identity: 92&lt;br&gt;Percentage coverage: 100&lt;br&gt;BLAST bit score: 431&lt;br&gt;E-value: 5.6e-119" locus_tag="IF79_RS0112700" class="clusterblast-orf" id="dummy-1_h1_3_81"  />
</g>
<g id="a1_0082"  >
<polygon points="717,85 722,80 723,80 723,90 722,90 717,85 " style="fill:#d815b1; stroke-width:1; stroke:black; " description="&lt;b&gt;IF79_RS0112705&lt;/b&gt;&lt;br&gt;NADH:flavin oxidoreductase/NADH oxidase&lt;br&gt;Location: 807950 - 809032&lt;br&gt;&lt;br&gt;&lt;b&gt;BlastP hit with ctg30_9&lt;/b&gt;&lt;br&gt;Percentage identity: 85&lt;br&gt;Percentage coverage: 100&lt;br&gt;BLAST bit score: 640&lt;br&gt;E-value: 9.7e-182" locus_tag="IF79_RS0112705" class="clusterblast-orf" id="dummy-1_h1_3_82"  />
</g>
<g id="a1_0083"  >
<polygon points="723,90 725,85 723,80 723,90 " style="fill:#d8b115; stroke-width:1; stroke:black; " description="&lt;b&gt;IF79_RS0112710&lt;/b&gt;&lt;br&gt;ArsR family transcriptional regulator&lt;br&gt;Location: 809134 - 809496&lt;br&gt;&lt;br&gt;&lt;b&gt;BlastP hit with ctg30_10&lt;/b&gt;&lt;br&gt;Percentage identity: 86&lt;br&gt;Percentage coverage: 100&lt;br&gt;BLAST bit score: 196&lt;br&gt;E-value: 1.2e-48" locus_tag="IF79_RS0112710" class="clusterblast-orf" id="dummy-1_h1_3_83"  />
</g>
<g id="a1_0084"  >
<polygon points="725,85 730,80 730,80 730,90 730,90 725,85 " style="fill:#15d863; stroke-width:1; stroke:black; " description="&lt;b&gt;IF79_RS0112715&lt;/b&gt;&lt;br&gt;DUF305 domain-containing protein&lt;br&gt;Location: 809493 - 810287&lt;br&gt;&lt;br&gt;&lt;b&gt;BlastP hit with ctg30_11&lt;/b&gt;&lt;br&gt;Percentage identity: 76&lt;br&gt;Percentage coverage: 70&lt;br&gt;BLAST bit score: 226&lt;br&gt;E-value: 2.8e-57" locus_tag="IF79_RS0112715" class="clusterblast-orf" id="dummy-1_h1_3_84"  />
</g>
<g id="a1_0085"  >
<polygon points="730,90 734,90 739,85 734,80 730,80 730,90 " style="fill:#1515d8; stroke-width:1; stroke:black; " description="&lt;b&gt;IF79_RS0112720&lt;/b&gt;&lt;br&gt;hypothetical protein&lt;br&gt;Location: 810365 - 811819&lt;br&gt;&lt;br&gt;&lt;b&gt;BlastP hit with ctg30_13&lt;/b&gt;&lt;br&gt;Percentage identity: 82&lt;br&gt;Percentage coverage: 100&lt;br&gt;BLAST bit score: 807&lt;br&gt;E-value: 8e-232" locus_tag="IF79_RS0112720" class="clusterblast-orf" id="dummy-1_h1_3_85"  />
</g>
<g id="a1_0086"  >
<polygon points="739,85 742,80 742,90 739,85 " style="fill:#d81563; stroke-width:1; stroke:black; " description="&lt;b&gt;IF79_RS0112725&lt;/b&gt;&lt;br&gt;TetR/AcrR family transcriptional regulator&lt;br&gt;Location: 811826 - 812482&lt;br&gt;&lt;br&gt;&lt;b&gt;BlastP hit with ctg30_14&lt;/b&gt;&lt;br&gt;Percentage identity: 92&lt;br&gt;Percentage coverage: 94&lt;br&gt;BLAST bit score: 358&lt;br&gt;E-value: 7.4e-97" locus_tag="IF79_RS0112725" class="clusterblast-orf" id="dummy-1_h1_3_86"  />
</g>
<g id="a1_0087"  >
<polygon points="743,85 747,80 747,90 743,85 " style="fill:#b1d815; stroke-width:1; stroke:black; " description="&lt;b&gt;IF79_RS0112730&lt;/b&gt;&lt;br&gt;hydrolase&lt;br&gt;Location: 812622 - 813317&lt;br&gt;&lt;br&gt;&lt;b&gt;BlastP hit with ctg30_15&lt;/b&gt;&lt;br&gt;Percentage identity: 78&lt;br&gt;Percentage coverage: 100&lt;br&gt;BLAST bit score: 374&lt;br&gt;E-value: 6.4e-102" locus_tag="IF79_RS0112730" class="clusterblast-orf" id="dummy-1_h1_3_87"  />
</g>
<g id="a1_0088"  >
<polygon points="749,85 754,80 754,80 754,90 754,90 749,85 " style="fill:#15d8b1; stroke-width:1; stroke:black; " description="&lt;b&gt;IF79_RS0112735&lt;/b&gt;&lt;br&gt;M56 family peptidase&lt;br&gt;Location: 813598 - 814551&lt;br&gt;&lt;br&gt;&lt;b&gt;BlastP hit with ctg30_16&lt;/b&gt;&lt;br&gt;Percentage identity: 82&lt;br&gt;Percentage coverage: 94&lt;br&gt;BLAST bit score: 468&lt;br&gt;E-value: 4.8e-130" locus_tag="IF79_RS0112735" class="clusterblast-orf" id="dummy-1_h1_3_88"  />
</g>
<g id="a1_0089"  >
<polygon points="755,85 758,80 758,90 755,85 " style="fill:#6315d8; stroke-width:1; stroke:black; " description="&lt;b&gt;IF79_RS0112740&lt;/b&gt;&lt;br&gt;DUF5134 domain-containing protein&lt;br&gt;Location: 814616 - 815173&lt;br&gt;&lt;br&gt;&lt;b&gt;BlastP hit with ctg30_17&lt;/b&gt;&lt;br&gt;Percentage identity: 47&lt;br&gt;Percentage coverage: 68&lt;br&gt;BLAST bit score: 75&lt;br&gt;E-value: 5.1e-12" locus_tag="IF79_RS0112740" class="clusterblast-orf" id="dummy-1_h1_3_89"  />
</g>
<g id="a1_0090"  >
<polygon points="759,90 762,85 759,80 759,90 " style="fill:white; stroke-width:1; stroke:black; " description="&lt;b&gt;IF79_RS0112745&lt;/b&gt;&lt;br&gt;N-acetyltransferase&lt;br&gt;Location: 815296 - 815871" locus_tag="IF79_RS0112745" class="clusterblast-orf" id="dummy-1_h1_3_90"  />
</g>
<g id="a1_0091"  >
<polygon points="762,85 766,80 766,90 762,85 " style="fill:white; stroke-width:1; stroke:black; " description="&lt;b&gt;IF79_RS0112750&lt;/b&gt;&lt;br&gt;glycerophosphodiester phosphodiesterase&lt;br&gt;Location: 815852 - 816538" locus_tag="IF79_RS0112750" class="clusterblast-orf" id="dummy-1_h1_3_91"  />
</g>
<g id="a1_0092"  >
<polygon points="767,90 770,90 775,85 770,80 767,80 767,90 " style="fill:white; stroke-width:1; stroke:black; " description="&lt;b&gt;IF79_RS0112755&lt;/b&gt;&lt;br&gt;hypothetical protein&lt;br&gt;Location: 816729 - 818129" locus_tag="IF79_RS0112755" class="clusterblast-orf" id="dummy-1_h1_3_92"  />
</g>
<g id="a1_0093"  >
<polygon points="775,90 775,90 780,85 775,80 775,80 775,90 " style="fill:white; stroke-width:1; stroke:black; " description="&lt;b&gt;IF79_RS0112760&lt;/b&gt;&lt;br&gt;SDR family NAD(P)-dependent oxidoreductase&lt;br&gt;Location: 818176 - 818949" locus_tag="IF79_RS0112760" class="clusterblast-orf" id="dummy-1_h1_3_93"  />
</g>
</svg>
