<svg xmlns="http://www.w3.org/2000/svg" xmlns:xlink="http://www.w3.org/1999/xlink" version="1.1" x="0" y="0" height="230" width="800" viewBox="0 0 800 230" preserveAspectRatio="none"  >
<g label="Query sequence" class="clusterblast-cluster"  >
<text x="5" y="20" class="clusterblast-acc"  >
Query sequence</text>
<line x1="10" y1="35" x2="778.0" y2="35" style="stroke-width:1; stroke:grey; "  />
<polygon points="74,40 76,35 74,30 74,40 " style="fill:#d81515; stroke-width:1; stroke:black; " description="&lt;b&gt;ctg14_1&lt;/b&gt;&lt;br&gt;ctg14 1&lt;br&gt;Location: 2 - 119" locus_tag="ctg14_1" class="clusterblast-orf" id="dummy-1_q0_0_all"  />
<polygon points="77,35 82,30 100,30 100,40 82,40 77,35 " style="fill:#77d815; stroke-width:1; stroke:black; " description="&lt;b&gt;ctg14_2&lt;/b&gt;&lt;br&gt;ctg14 2&lt;br&gt;Location: 186 - 1635" locus_tag="ctg14_2" class="clusterblast-orf" id="dummy-1_q1_0_all"  />
<polygon points="103,40 118,40 123,35 118,30 103,30 103,40 " style="fill:#15d8d8; stroke-width:1; stroke:black; " description="&lt;b&gt;ctg14_3&lt;/b&gt;&lt;br&gt;ctg14 3&lt;br&gt;Location: 1828 - 3061" locus_tag="ctg14_3" class="clusterblast-orf" id="dummy-1_q2_0_all"  />
<polygon points="123,40 124,40 129,35 124,30 123,30 123,40 " style="fill:#7715d8; stroke-width:1; stroke:black; " description="&lt;b&gt;ctg14_4&lt;/b&gt;&lt;br&gt;ctg14 4&lt;br&gt;Location: 3057 - 3471" locus_tag="ctg14_4" class="clusterblast-orf" id="dummy-1_q3_0_all"  />
<polygon points="130,35 135,30 140,30 140,40 135,40 130,35 " style="fill:#7715d8; stroke-width:1; stroke:black; " description="&lt;b&gt;ctg14_5&lt;/b&gt;&lt;br&gt;ctg14 5&lt;br&gt;Location: 3481 - 4162" locus_tag="ctg14_5" class="clusterblast-orf" id="dummy-1_q4_0_all"  />
<polygon points="150,40 156,40 161,35 156,30 150,30 150,40 " style="fill:#7715d8; stroke-width:1; stroke:black; " description="&lt;b&gt;ctg14_6&lt;/b&gt;&lt;br&gt;ctg14 6&lt;br&gt;Location: 4786 - 5452" locus_tag="ctg14_6" class="clusterblast-orf" id="dummy-1_q5_0_all"  />
<polygon points="163,40 170,40 175,35 170,30 163,30 163,40 " style="fill:#d83f15; stroke-width:1; stroke:black; " description="&lt;b&gt;ctg14_7&lt;/b&gt;&lt;br&gt;ctg14 7&lt;br&gt;Location: 5599 - 6319" locus_tag="ctg14_7" class="clusterblast-orf" id="dummy-1_q6_0_all"  />
<polygon points="175,40 189,40 194,35 189,30 175,30 175,40 " style="fill:#4dd815; stroke-width:1; stroke:black; " description="&lt;b&gt;ctg14_8&lt;/b&gt;&lt;br&gt;ctg14 8&lt;br&gt;Location: 6315 - 7548" locus_tag="ctg14_8" class="clusterblast-orf" id="dummy-1_q7_0_all"  />
<polygon points="194,40 199,40 204,35 199,30 194,30 194,40 " style="fill:#15aed8; stroke-width:1; stroke:black; " description="&lt;b&gt;ctg14_9&lt;/b&gt;&lt;br&gt;ctg14 9&lt;br&gt;Location: 7535 - 8180" locus_tag="ctg14_9" class="clusterblast-orf" id="dummy-1_q8_0_all"  />
<polygon points="204,40 212,40 217,35 212,30 204,30 204,40 " style="fill:#a115d8; stroke-width:1; stroke:black; " description="&lt;b&gt;ctg14_10&lt;/b&gt;&lt;br&gt;ctg14 10&lt;br&gt;Location: 8176 - 8989" locus_tag="ctg14_10" class="clusterblast-orf" id="dummy-1_q9_0_all"  />
<polygon points="221,40 239,40 244,35 239,30 221,30 221,40 " style="fill:#d86915; stroke-width:1; stroke:black; " description="&lt;b&gt;ctg14_11&lt;/b&gt;&lt;br&gt;ctg14 11&lt;br&gt;Location: 9218 - 10688" locus_tag="ctg14_11" class="clusterblast-orf" id="dummy-1_q10_0_all"  />
<polygon points="245,40 256,40 261,35 256,30 245,30 245,40 " style="fill:#23d815; stroke-width:1; stroke:black; " description="&lt;b&gt;ctg14_12&lt;/b&gt;&lt;br&gt;ctg14 12&lt;br&gt;Location: 10766 - 11747" locus_tag="ctg14_12" class="clusterblast-orf" id="dummy-1_q11_0_all"  />
<polygon points="261,40 276,40 281,35 276,30 261,30 261,40 " style="fill:#1585d8; stroke-width:1; stroke:black; " description="&lt;b&gt;ctg14_13&lt;/b&gt;&lt;br&gt;ctg14 13&lt;br&gt;Location: 11757 - 13005" locus_tag="ctg14_13" class="clusterblast-orf" id="dummy-1_q12_0_all"  />
<polygon points="281,35 286,30 291,30 291,40 286,40 281,35 " style="fill:#ca15d8; stroke-width:1; stroke:black; " description="&lt;b&gt;ctg14_14&lt;/b&gt;&lt;br&gt;ctg14 14&lt;br&gt;Location: 13041 - 13641" locus_tag="ctg14_14" class="clusterblast-orf" id="dummy-1_q13_0_all"  />
<polygon points="294,35 298,30 298,40 294,35 " style="fill:#d89315; stroke-width:1; stroke:black; " description="&lt;b&gt;ctg14_15&lt;/b&gt;&lt;br&gt;ctg14 15&lt;br&gt;Location: 13871 - 14120" locus_tag="ctg14_15" class="clusterblast-orf" id="dummy-1_q14_0_all"  />
<polygon points="299,35 304,30 313,30 313,40 304,40 299,35 " style="fill:#15d831; stroke-width:1; stroke:black; " description="&lt;b&gt;ctg14_16&lt;/b&gt;&lt;br&gt;ctg14 16&lt;br&gt;Location: 14152 - 15067" locus_tag="ctg14_16" class="clusterblast-orf" id="dummy-1_q15_0_all"  />
<polygon points="313,35 318,30 332,30 332,40 318,40 313,35 " style="fill:#155bd8; stroke-width:1; stroke:black; " description="&lt;b&gt;ctg14_17&lt;/b&gt;&lt;br&gt;ctg14 17&lt;br&gt;Location: 15063 - 16251" locus_tag="ctg14_17" class="clusterblast-orf" id="dummy-1_q16_0_all"  />
<polygon points="332,35 335,30 335,40 332,35 " style="fill:white; stroke-width:1; stroke:black; " description="&lt;b&gt;ctg14_18&lt;/b&gt;&lt;br&gt;ctg14 18&lt;br&gt;Location: 16256 - 16418" locus_tag="ctg14_18" class="clusterblast-orf" id="dummy-1_q17_0_all"  />
<polygon points="339,40 361,40 366,35 361,30 339,30 339,40 " style="fill:#d815bc; stroke-width:1; stroke:black; " description="&lt;b&gt;ctg14_19&lt;/b&gt;&lt;br&gt;ctg14 19&lt;br&gt;Location: 16709 - 18401" locus_tag="ctg14_19" class="clusterblast-orf" id="dummy-1_q18_0_all"  />
<polygon points="366,40 509,40 514,35 509,30 366,30 366,40 " style="fill:#d8bc15; stroke-width:1; stroke:black; " description="&lt;b&gt;ctg14_20&lt;/b&gt;&lt;br&gt;ctg14 20&lt;br&gt;Location: 18381 - 27747" locus_tag="ctg14_20" class="clusterblast-orf" id="dummy-1_q19_0_all"  />
<polygon points="515,40 523,40 528,35 523,30 515,30 515,40 " style="fill:#15d85b; stroke-width:1; stroke:black; " description="&lt;b&gt;ctg14_21&lt;/b&gt;&lt;br&gt;ctg14 21&lt;br&gt;Location: 27749 - 28601" locus_tag="ctg14_21" class="clusterblast-orf" id="dummy-1_q20_0_all"  />
<polygon points="529,40 533,35 529,30 529,40 " style="fill:#1531d8; stroke-width:1; stroke:black; " description="&lt;b&gt;ctg14_22&lt;/b&gt;&lt;br&gt;ctg14 22&lt;br&gt;Location: 28647 - 28914" locus_tag="ctg14_22" class="clusterblast-orf" id="dummy-1_q21_0_all"  />
<polygon points="533,40 546,40 551,35 546,30 533,30 533,40 " style="fill:#d81593; stroke-width:1; stroke:black; " description="&lt;b&gt;ctg14_23&lt;/b&gt;&lt;br&gt;ctg14 23&lt;br&gt;Location: 28910 - 30050" locus_tag="ctg14_23" class="clusterblast-orf" id="dummy-1_q22_0_all"  />
<polygon points="551,40 562,40 567,35 562,30 551,30 551,40 " style="fill:#cad815; stroke-width:1; stroke:black; " description="&lt;b&gt;ctg14_24&lt;/b&gt;&lt;br&gt;ctg14 24&lt;br&gt;Location: 30046 - 31087" locus_tag="ctg14_24" class="clusterblast-orf" id="dummy-1_q23_0_all"  />
<polygon points="568,40 579,40 584,35 579,30 568,30 568,40 " style="fill:#15d885; stroke-width:1; stroke:black; " description="&lt;b&gt;ctg14_25&lt;/b&gt;&lt;br&gt;ctg14 25&lt;br&gt;Location: 31119 - 32100" locus_tag="ctg14_25" class="clusterblast-orf" id="dummy-1_q24_0_all"  />
<polygon points="584,40 591,40 596,35 591,30 584,30 584,40 " style="fill:#2315d8; stroke-width:1; stroke:black; " description="&lt;b&gt;ctg14_26&lt;/b&gt;&lt;br&gt;ctg14 26&lt;br&gt;Location: 32101 - 32866" locus_tag="ctg14_26" class="clusterblast-orf" id="dummy-1_q25_0_all"  />
<polygon points="596,40 603,40 608,35 603,30 596,30 596,40 " style="fill:#d81569; stroke-width:1; stroke:black; " description="&lt;b&gt;ctg14_27&lt;/b&gt;&lt;br&gt;ctg14 27&lt;br&gt;Location: 32862 - 33636" locus_tag="ctg14_27" class="clusterblast-orf" id="dummy-1_q26_0_all"  />
<polygon points="608,40 628,40 633,35 628,30 608,30 608,40 " style="fill:#a1d815; stroke-width:1; stroke:black; " description="&lt;b&gt;ctg14_28&lt;/b&gt;&lt;br&gt;ctg14 28&lt;br&gt;Location: 33628 - 35236" locus_tag="ctg14_28" class="clusterblast-orf" id="dummy-1_q27_0_all"  />
<polygon points="633,40 639,40 644,35 639,30 633,30 633,40 " style="fill:#15d8ae; stroke-width:1; stroke:black; " description="&lt;b&gt;ctg14_29&lt;/b&gt;&lt;br&gt;ctg14 29&lt;br&gt;Location: 35232 - 35937" locus_tag="ctg14_29" class="clusterblast-orf" id="dummy-1_q28_0_all"  />
<polygon points="644,40 660,40 665,35 660,30 644,30 644,40 " style="fill:#15d8ae; stroke-width:1; stroke:black; " description="&lt;b&gt;ctg14_30&lt;/b&gt;&lt;br&gt;ctg14 30&lt;br&gt;Location: 35933 - 37217" locus_tag="ctg14_30" class="clusterblast-orf" id="dummy-1_q29_0_all"  />
<polygon points="666,40 681,40 686,35 681,30 666,30 666,40 " style="fill:#4d15d8; stroke-width:1; stroke:black; " description="&lt;b&gt;ctg14_31&lt;/b&gt;&lt;br&gt;ctg14 31&lt;br&gt;Location: 37290 - 38529" locus_tag="ctg14_31" class="clusterblast-orf" id="dummy-1_q30_0_all"  />
<polygon points="684,35 689,30 705,30 705,40 689,40 684,35 " style="fill:#d8153f; stroke-width:1; stroke:black; " description="&lt;b&gt;ctg14_32&lt;/b&gt;&lt;br&gt;ctg14 32&lt;br&gt;Location: 38461 - 39754" locus_tag="ctg14_32" class="clusterblast-orf" id="dummy-1_q31_0_all"  />
</g>
<g label="NZ_FPAB01000002" description="NZ_FPAB01000002_c5: Streptomyces harbinensis strain CGMCC 4.7047, whole genom... (81% of genes show similarity), t1pks" class="clusterblast-cluster"  >
<text x="5" y="70" class="clusterblast-acc"  >
<a xlink:href="https://antismash-db.secondarymetabolites.org/go/NZ_FPAB01000002/5" target="_blank">NZ_FPAB01000002_c5</a>: Streptomyces harbinensis strain CGMCC 4.7047, whole genom... (81% of genes show similarity), t1pks</text>
<line x1="10" y1="85" x2="778.0" y2="85" style="stroke-width:1; stroke:grey; "  />
</g>
<g id="a1_000"  >
<polygon points="0,90 8,90 13,85 8,80 0,80 0,90 " style="fill:white; stroke-width:1; stroke:black; " description="&lt;b&gt;BM385_RS07200&lt;/b&gt;&lt;br&gt;IclR family transcriptional regulator&lt;br&gt;Location: 649169 - 648312" locus_tag="BM385_RS07200" class="clusterblast-orf" id="dummy-1_h1_1_0"  />
</g>
<g id="a1_001"  >
<polygon points="14,90 20,90 25,85 20,80 14,80 14,90 " style="fill:#d81515; stroke-width:1; stroke:black; " description="&lt;b&gt;BM385_RS07195&lt;/b&gt;&lt;br&gt;dipeptidase PepE&lt;br&gt;Location: 648265 - 647534&lt;br&gt;&lt;br&gt;&lt;b&gt;BlastP hit with ctg14_1&lt;/b&gt;&lt;br&gt;Percentage identity: 100&lt;br&gt;Percentage coverage: 100&lt;br&gt;BLAST bit score: 80&lt;br&gt;E-value: 4.1e-14" locus_tag="BM385_RS07195" class="clusterblast-orf" id="dummy-1_h1_1_1"  />
</g>
<g id="a1_002"  >
<polygon points="27,85 32,80 49,80 49,90 32,90 27,85 " style="fill:#77d815; stroke-width:1; stroke:black; " description="&lt;b&gt;BM385_RS07190&lt;/b&gt;&lt;br&gt;argininosuccinate synthase&lt;br&gt;Location: 647466 - 646018&lt;br&gt;&lt;br&gt;&lt;b&gt;BlastP hit with ctg14_2&lt;/b&gt;&lt;br&gt;Percentage identity: 100&lt;br&gt;Percentage coverage: 100&lt;br&gt;BLAST bit score: 967&lt;br&gt;E-value: 7.9e-280" locus_tag="BM385_RS07190" class="clusterblast-orf" id="dummy-1_h1_1_2"  />
</g>
<g id="a1_003"  >
<polygon points="54,90 68,90 73,85 68,80 54,80 54,90 " style="fill:#15d8d8; stroke-width:1; stroke:black; " description="&lt;b&gt;BM385_RS07185&lt;/b&gt;&lt;br&gt;two-component sensor histidine kinase&lt;br&gt;Location: 645753 - 644557&lt;br&gt;&lt;br&gt;&lt;b&gt;BlastP hit with ctg14_3&lt;/b&gt;&lt;br&gt;Percentage identity: 100&lt;br&gt;Percentage coverage: 97&lt;br&gt;BLAST bit score: 758&lt;br&gt;E-value: 2.8e-217" locus_tag="BM385_RS07185" class="clusterblast-orf" id="dummy-1_h1_1_3"  />
</g>
<g id="a1_004"  >
<polygon points="73,90 74,90 79,85 74,80 73,80 73,90 " style="fill:#7715d8; stroke-width:1; stroke:black; " description="&lt;b&gt;BM385_RS07180&lt;/b&gt;&lt;br&gt;DNA-binding response regulator&lt;br&gt;Location: 644551 - 644147&lt;br&gt;&lt;br&gt;&lt;b&gt;BlastP hit with ctg14_4&lt;/b&gt;&lt;br&gt;Percentage identity: 99&lt;br&gt;Percentage coverage: 98&lt;br&gt;BLAST bit score: 263&lt;br&gt;E-value: 1.2e-68&lt;br&gt;&lt;br&gt;&lt;b&gt;BlastP hit with ctg14_5&lt;/b&gt;&lt;br&gt;Percentage identity: 61&lt;br&gt;Percentage coverage: 54&lt;br&gt;BLAST bit score: 133&lt;br&gt;E-value: 4.1e-29" locus_tag="BM385_RS07180" class="clusterblast-orf" id="dummy-1_h1_1_4"  />
</g>
<g id="a1_005"  >
<polygon points="79,85 84,80 90,80 90,90 84,90 79,85 " style="fill:#7715d8; stroke-width:1; stroke:black; " description="&lt;b&gt;BM385_RS07175&lt;/b&gt;&lt;br&gt;DNA-binding response regulator&lt;br&gt;Location: 644136 - 643456&lt;br&gt;&lt;br&gt;&lt;b&gt;BlastP hit with ctg14_4&lt;/b&gt;&lt;br&gt;Percentage identity: 61&lt;br&gt;Percentage coverage: 89&lt;br&gt;BLAST bit score: 129&lt;br&gt;E-value: 2.1e-28&lt;br&gt;&lt;br&gt;&lt;b&gt;BlastP hit with ctg14_5&lt;/b&gt;&lt;br&gt;Percentage identity: 100&lt;br&gt;Percentage coverage: 100&lt;br&gt;BLAST bit score: 438&lt;br&gt;E-value: 4.6e-121&lt;br&gt;&lt;br&gt;&lt;b&gt;BlastP hit with ctg14_6&lt;/b&gt;&lt;br&gt;Percentage identity: 31&lt;br&gt;Percentage coverage: 101&lt;br&gt;BLAST bit score: 109&lt;br&gt;E-value: 3.7e-22" locus_tag="BM385_RS07175" class="clusterblast-orf" id="dummy-1_h1_1_5"  />
</g>
<g id="a1_006"  >
<polygon points="100,90 106,90 111,85 106,80 100,80 100,90 " style="fill:#7715d8; stroke-width:1; stroke:black; " description="&lt;b&gt;BM385_RS07170&lt;/b&gt;&lt;br&gt;DNA-binding response regulator&lt;br&gt;Location: 642831 - 642166&lt;br&gt;&lt;br&gt;&lt;b&gt;BlastP hit with ctg14_5&lt;/b&gt;&lt;br&gt;Percentage identity: 31&lt;br&gt;Percentage coverage: 99&lt;br&gt;BLAST bit score: 109&lt;br&gt;E-value: 4.9e-22&lt;br&gt;&lt;br&gt;&lt;b&gt;BlastP hit with ctg14_6&lt;/b&gt;&lt;br&gt;Percentage identity: 100&lt;br&gt;Percentage coverage: 100&lt;br&gt;BLAST bit score: 425&lt;br&gt;E-value: 5.1e-117" locus_tag="BM385_RS07170" class="clusterblast-orf" id="dummy-1_h1_1_6"  />
</g>
<g id="a1_007"  >
<polygon points="111,90 119,90 124,85 119,80 111,80 111,90 " style="fill:#d83f15; stroke-width:1; stroke:black; " description="&lt;b&gt;BM385_RS07165&lt;/b&gt;&lt;br&gt;hypothetical protein&lt;br&gt;Location: 642159 - 641299&lt;br&gt;&lt;br&gt;&lt;b&gt;BlastP hit with ctg14_7&lt;/b&gt;&lt;br&gt;Percentage identity: 96&lt;br&gt;Percentage coverage: 100&lt;br&gt;BLAST bit score: 347&lt;br&gt;E-value: 1.5e-93" locus_tag="BM385_RS07165" class="clusterblast-orf" id="dummy-1_h1_1_7"  />
</g>
<g id="a1_008"  >
<polygon points="124,90 139,90 144,85 139,80 124,80 124,90 " style="fill:#4dd815; stroke-width:1; stroke:black; " description="&lt;b&gt;BM385_RS07160&lt;/b&gt;&lt;br&gt;hypothetical protein&lt;br&gt;Location: 641302 - 640070&lt;br&gt;&lt;br&gt;&lt;b&gt;BlastP hit with ctg14_8&lt;/b&gt;&lt;br&gt;Percentage identity: 100&lt;br&gt;Percentage coverage: 100&lt;br&gt;BLAST bit score: 719&lt;br&gt;E-value: 2.4e-205" locus_tag="BM385_RS07160" class="clusterblast-orf" id="dummy-1_h1_1_8"  />
</g>
<g id="a1_009"  >
<polygon points="144,90 149,90 154,85 149,80 144,80 144,90 " style="fill:#15aed8; stroke-width:1; stroke:black; " description="&lt;b&gt;BM385_RS07155&lt;/b&gt;&lt;br&gt;DNA-binding response regulator&lt;br&gt;Location: 640082 - 639438&lt;br&gt;&lt;br&gt;&lt;b&gt;BlastP hit with ctg14_9&lt;/b&gt;&lt;br&gt;Percentage identity: 100&lt;br&gt;Percentage coverage: 100&lt;br&gt;BLAST bit score: 409&lt;br&gt;E-value: 2.2e-112" locus_tag="BM385_RS07155" class="clusterblast-orf" id="dummy-1_h1_1_9"  />
</g>
<g id="a1_0010"  >
<polygon points="154,90 162,90 167,85 162,80 154,80 154,90 " style="fill:#a115d8; stroke-width:1; stroke:black; " description="&lt;b&gt;BM385_RS07150&lt;/b&gt;&lt;br&gt;hypothetical protein&lt;br&gt;Location: 639441 - 638629&lt;br&gt;&lt;br&gt;&lt;b&gt;BlastP hit with ctg14_10&lt;/b&gt;&lt;br&gt;Percentage identity: 99&lt;br&gt;Percentage coverage: 100&lt;br&gt;BLAST bit score: 351&lt;br&gt;E-value: 8.8e-95" locus_tag="BM385_RS07150" class="clusterblast-orf" id="dummy-1_h1_1_10"  />
</g>
<g id="a1_0011"  >
<polygon points="169,90 189,90 194,85 189,80 169,80 169,90 " style="fill:#d86915; stroke-width:1; stroke:black; " description="&lt;b&gt;BM385_RS07145&lt;/b&gt;&lt;br&gt;hypothetical protein&lt;br&gt;Location: 638471 - 636930&lt;br&gt;&lt;br&gt;&lt;b&gt;BlastP hit with ctg14_11&lt;/b&gt;&lt;br&gt;Percentage identity: 100&lt;br&gt;Percentage coverage: 100&lt;br&gt;BLAST bit score: 923&lt;br&gt;E-value: 7.8e-267" locus_tag="BM385_RS07145" class="clusterblast-orf" id="dummy-1_h1_1_11"  />
</g>
<g id="a1_0012"  >
<polygon points="195,90 205,90 210,85 205,80 195,80 195,90 " style="fill:#23d815; stroke-width:1; stroke:black; " description="&lt;b&gt;BM385_RS07140&lt;/b&gt;&lt;br&gt;phosphotriesterase&lt;br&gt;Location: 636851 - 635871&lt;br&gt;&lt;br&gt;&lt;b&gt;BlastP hit with ctg14_12&lt;/b&gt;&lt;br&gt;Percentage identity: 99&lt;br&gt;Percentage coverage: 100&lt;br&gt;BLAST bit score: 648&lt;br&gt;E-value: 4.2e-184" locus_tag="BM385_RS07140" class="clusterblast-orf" id="dummy-1_h1_1_12"  />
</g>
<g id="a1_0013"  >
<polygon points="211,90 225,90 230,85 225,80 211,80 211,90 " style="fill:#1585d8; stroke-width:1; stroke:black; " description="&lt;b&gt;BM385_RS07135&lt;/b&gt;&lt;br&gt;divalent metal cation transporter MntH&lt;br&gt;Location: 635860 - 634613&lt;br&gt;&lt;br&gt;&lt;b&gt;BlastP hit with ctg14_13&lt;/b&gt;&lt;br&gt;Percentage identity: 100&lt;br&gt;Percentage coverage: 100&lt;br&gt;BLAST bit score: 760&lt;br&gt;E-value: 7.4e-218" locus_tag="BM385_RS07135" class="clusterblast-orf" id="dummy-1_h1_1_13"  />
</g>
<g id="a1_0014"  >
<polygon points="231,85 236,80 240,80 240,90 236,90 231,85 " style="fill:#ca15d8; stroke-width:1; stroke:black; " description="&lt;b&gt;BM385_RS07130&lt;/b&gt;&lt;br&gt;hypothetical protein&lt;br&gt;Location: 634576 - 634007&lt;br&gt;&lt;br&gt;&lt;b&gt;BlastP hit with ctg14_14&lt;/b&gt;&lt;br&gt;Percentage identity: 100&lt;br&gt;Percentage coverage: 95&lt;br&gt;BLAST bit score: 352&lt;br&gt;E-value: 2.2e-95" locus_tag="BM385_RS07130" class="clusterblast-orf" id="dummy-1_h1_1_14"  />
</g>
<g id="a1_0015"  >
<polygon points="244,85 248,80 248,90 244,85 " style="fill:#d89315; stroke-width:1; stroke:black; " description="&lt;b&gt;BM385_RS07125&lt;/b&gt;&lt;br&gt;acyl carrier protein&lt;br&gt;Location: 633745 - 633497&lt;br&gt;&lt;br&gt;&lt;b&gt;BlastP hit with ctg14_15&lt;/b&gt;&lt;br&gt;Percentage identity: 100&lt;br&gt;Percentage coverage: 100&lt;br&gt;BLAST bit score: 154&lt;br&gt;E-value: 4.8e-36" locus_tag="BM385_RS07125" class="clusterblast-orf" id="dummy-1_h1_1_15"  />
</g>
<g id="a1_0016"  >
<polygon points="249,85 254,80 263,80 263,90 254,90 249,85 " style="fill:#15d831; stroke-width:1; stroke:black; " description="&lt;b&gt;BM385_RS07120&lt;/b&gt;&lt;br&gt;acyl-ACP desaturase&lt;br&gt;Location: 633464 - 632547&lt;br&gt;&lt;br&gt;&lt;b&gt;BlastP hit with ctg14_16&lt;/b&gt;&lt;br&gt;Percentage identity: 100&lt;br&gt;Percentage coverage: 100&lt;br&gt;BLAST bit score: 613&lt;br&gt;E-value: 1.4e-173" locus_tag="BM385_RS07120" class="clusterblast-orf" id="dummy-1_h1_1_16"  />
</g>
<g id="a1_0017"  >
<polygon points="263,85 268,80 285,80 285,90 268,90 263,85 " style="fill:#155bd8; stroke-width:1; stroke:black; " description="&lt;b&gt;BM385_RS07115&lt;/b&gt;&lt;br&gt;beta-ketoacyl-[acyl-carrier-protein] synthase family protein&lt;br&gt;Location: 632553 - 631186&lt;br&gt;&lt;br&gt;&lt;b&gt;BlastP hit with ctg14_17&lt;/b&gt;&lt;br&gt;Percentage identity: 100&lt;br&gt;Percentage coverage: 100&lt;br&gt;BLAST bit score: 748&lt;br&gt;E-value: 3.6e-214" locus_tag="BM385_RS07115" class="clusterblast-orf" id="dummy-1_h1_1_17"  />
</g>
<g id="a1_0018"  >
<polygon points="287,90 311,90 316,85 311,80 287,80 287,90 " style="fill:#d815bc; stroke-width:1; stroke:black; " description="&lt;b&gt;BM385_RS07110&lt;/b&gt;&lt;br&gt;hypothetical protein&lt;br&gt;Location: 631054 - 629216&lt;br&gt;&lt;br&gt;&lt;b&gt;BlastP hit with ctg14_19&lt;/b&gt;&lt;br&gt;Percentage identity: 99&lt;br&gt;Percentage coverage: 100&lt;br&gt;BLAST bit score: 1116&lt;br&gt;E-value: 0.0" locus_tag="BM385_RS07110" class="clusterblast-orf" id="dummy-1_h1_1_18"  />
</g>
<g id="a1_0019"  >
<polygon points="316,90 459,90 464,85 459,80 316,80 316,90 " style="fill:#d8bc15; stroke-width:1; stroke:black; " description="&lt;b&gt;BM385_RS07105&lt;/b&gt;&lt;br&gt;KR domain-containing protein&lt;br&gt;Location: 629235 - 619861&lt;br&gt;&lt;br&gt;&lt;b&gt;BlastP hit with ctg14_20&lt;/b&gt;&lt;br&gt;Percentage identity: 99&lt;br&gt;Percentage coverage: 100&lt;br&gt;BLAST bit score: 5689&lt;br&gt;E-value: 0.0" locus_tag="BM385_RS07105" class="clusterblast-orf" id="dummy-1_h1_1_19"  />
</g>
<g id="a1_0020"  >
<polygon points="464,90 473,90 478,85 473,80 464,80 464,90 " style="fill:#15d85b; stroke-width:1; stroke:black; " description="&lt;b&gt;BM385_RS07100&lt;/b&gt;&lt;br&gt;3-hydroxybutyryl-CoA dehydrogenase&lt;br&gt;Location: 619870 - 619013&lt;br&gt;&lt;br&gt;&lt;b&gt;BlastP hit with ctg14_21&lt;/b&gt;&lt;br&gt;Percentage identity: 100&lt;br&gt;Percentage coverage: 100&lt;br&gt;BLAST bit score: 564&lt;br&gt;E-value: 5.3e-159" locus_tag="BM385_RS07100" class="clusterblast-orf" id="dummy-1_h1_1_20"  />
</g>
<g id="a1_0021"  >
<polygon points="479,90 483,85 479,80 479,90 " style="fill:#1531d8; stroke-width:1; stroke:black; " description="&lt;b&gt;BM385_RS07095&lt;/b&gt;&lt;br&gt;acyl carrier protein&lt;br&gt;Location: 618966 - 618700&lt;br&gt;&lt;br&gt;&lt;b&gt;BlastP hit with ctg14_22&lt;/b&gt;&lt;br&gt;Percentage identity: 100&lt;br&gt;Percentage coverage: 100&lt;br&gt;BLAST bit score: 173&lt;br&gt;E-value: 1.1e-41" locus_tag="BM385_RS07095" class="clusterblast-orf" id="dummy-1_h1_1_21"  />
</g>
<g id="a1_0022"  >
<polygon points="483,90 496,90 501,85 496,80 483,80 483,90 " style="fill:#d81593; stroke-width:1; stroke:black; " description="&lt;b&gt;BM385_RS07090&lt;/b&gt;&lt;br&gt;acyl-CoA dehydrogenase&lt;br&gt;Location: 618703 - 617564&lt;br&gt;&lt;br&gt;&lt;b&gt;BlastP hit with ctg14_23&lt;/b&gt;&lt;br&gt;Percentage identity: 100&lt;br&gt;Percentage coverage: 100&lt;br&gt;BLAST bit score: 727&lt;br&gt;E-value: 8.3e-208" locus_tag="BM385_RS07090" class="clusterblast-orf" id="dummy-1_h1_1_22"  />
</g>
<g id="a1_0023"  >
<polygon points="501,90 512,90 517,85 512,80 501,80 501,90 " style="fill:#cad815; stroke-width:1; stroke:black; " description="&lt;b&gt;BM385_RS07085&lt;/b&gt;&lt;br&gt;HAD-IIIC family phosphatase&lt;br&gt;Location: 617567 - 616527&lt;br&gt;&lt;br&gt;&lt;b&gt;BlastP hit with ctg14_24&lt;/b&gt;&lt;br&gt;Percentage identity: 100&lt;br&gt;Percentage coverage: 100&lt;br&gt;BLAST bit score: 686&lt;br&gt;E-value: 1.9e-195" locus_tag="BM385_RS07085" class="clusterblast-orf" id="dummy-1_h1_1_23"  />
</g>
<g id="a1_0024"  >
<polygon points="518,90 528,90 533,85 528,80 518,80 518,90 " style="fill:#15d885; stroke-width:1; stroke:black; " description="&lt;b&gt;BM385_RS07080&lt;/b&gt;&lt;br&gt;R2-like ligand-binding oxidase&lt;br&gt;Location: 616494 - 615514&lt;br&gt;&lt;br&gt;&lt;b&gt;BlastP hit with ctg14_25&lt;/b&gt;&lt;br&gt;Percentage identity: 100&lt;br&gt;Percentage coverage: 100&lt;br&gt;BLAST bit score: 668&lt;br&gt;E-value: 3.9e-190" locus_tag="BM385_RS07080" class="clusterblast-orf" id="dummy-1_h1_1_24"  />
</g>
<g id="a1_0025"  >
<polygon points="533,90 541,90 546,85 541,80 533,80 533,90 " style="fill:#2315d8; stroke-width:1; stroke:black; " description="&lt;b&gt;BM385_RS07075&lt;/b&gt;&lt;br&gt;thioesterase&lt;br&gt;Location: 615512 - 614748&lt;br&gt;&lt;br&gt;&lt;b&gt;BlastP hit with ctg14_26&lt;/b&gt;&lt;br&gt;Percentage identity: 100&lt;br&gt;Percentage coverage: 100&lt;br&gt;BLAST bit score: 528&lt;br&gt;E-value: 4.9e-148" locus_tag="BM385_RS07075" class="clusterblast-orf" id="dummy-1_h1_1_25"  />
</g>
<g id="a1_0026"  >
<polygon points="545,90 553,90 558,85 553,80 545,80 545,90 " style="fill:#d81569; stroke-width:1; stroke:black; " description="&lt;b&gt;BM385_RS07070&lt;/b&gt;&lt;br&gt;hypothetical protein&lt;br&gt;Location: 614751 - 613978&lt;br&gt;&lt;br&gt;&lt;b&gt;BlastP hit with ctg14_27&lt;/b&gt;&lt;br&gt;Percentage identity: 98&lt;br&gt;Percentage coverage: 100&lt;br&gt;BLAST bit score: 507&lt;br&gt;E-value: 1.2e-141" locus_tag="BM385_RS07070" class="clusterblast-orf" id="dummy-1_h1_1_26"  />
</g>
<g id="a1_0027"  >
<polygon points="558,90 578,90 583,85 578,80 558,80 558,90 " style="fill:#a1d815; stroke-width:1; stroke:black; " description="&lt;b&gt;BM385_RS07065&lt;/b&gt;&lt;br&gt;hypothetical protein&lt;br&gt;Location: 613985 - 612378&lt;br&gt;&lt;br&gt;&lt;b&gt;BlastP hit with ctg14_28&lt;/b&gt;&lt;br&gt;Percentage identity: 99&lt;br&gt;Percentage coverage: 100&lt;br&gt;BLAST bit score: 1052&lt;br&gt;E-value: 1.6e-305" locus_tag="BM385_RS07065" class="clusterblast-orf" id="dummy-1_h1_1_27"  />
</g>
<g id="a1_0028"  >
<polygon points="583,90 600,90 605,85 600,80 583,80 583,90 " style="fill:#15d8ae; stroke-width:1; stroke:black; " description="&lt;b&gt;BM385_RS07060&lt;/b&gt;&lt;br&gt;SGNH/GDSL hydrolase family protein&lt;br&gt;Location: 612381 - 611011&lt;br&gt;&lt;br&gt;&lt;b&gt;BlastP hit with ctg14_29&lt;/b&gt;&lt;br&gt;Percentage identity: 50&lt;br&gt;Percentage coverage: 195&lt;br&gt;BLAST bit score: 295&lt;br&gt;E-value: 5e-78&lt;br&gt;&lt;br&gt;&lt;b&gt;BlastP hit with ctg14_30&lt;/b&gt;&lt;br&gt;Percentage identity: 74&lt;br&gt;Percentage coverage: 90&lt;br&gt;BLAST bit score: 566&lt;br&gt;E-value: 2.1e-159" locus_tag="BM385_RS07060" class="clusterblast-orf" id="dummy-1_h1_1_28"  />
</g>
<g id="a1_0029"  >
<polygon points="605,90 620,90 625,85 620,80 605,80 605,90 " style="fill:#15d8ae; stroke-width:1; stroke:black; " description="&lt;b&gt;BM385_RS07055&lt;/b&gt;&lt;br&gt;SGNH/GDSL hydrolase family protein&lt;br&gt;Location: 611014 - 609731&lt;br&gt;&lt;br&gt;&lt;b&gt;BlastP hit with ctg14_29&lt;/b&gt;&lt;br&gt;Percentage identity: 63&lt;br&gt;Percentage coverage: 46&lt;br&gt;BLAST bit score: 139&lt;br&gt;E-value: 6e-31&lt;br&gt;&lt;br&gt;&lt;b&gt;BlastP hit with ctg14_30&lt;/b&gt;&lt;br&gt;Percentage identity: 99&lt;br&gt;Percentage coverage: 100&lt;br&gt;BLAST bit score: 833&lt;br&gt;E-value: 9.2e-240" locus_tag="BM385_RS07055" class="clusterblast-orf" id="dummy-1_h1_1_29"  />
</g>
<g id="a1_0030"  >
<polygon points="626,90 641,90 646,85 641,80 626,80 626,90 " style="fill:#4d15d8; stroke-width:1; stroke:black; " description="&lt;b&gt;BM385_RS07050&lt;/b&gt;&lt;br&gt;acyltransferase&lt;br&gt;Location: 609657 - 608419&lt;br&gt;&lt;br&gt;&lt;b&gt;BlastP hit with ctg14_31&lt;/b&gt;&lt;br&gt;Percentage identity: 100&lt;br&gt;Percentage coverage: 100&lt;br&gt;BLAST bit score: 811&lt;br&gt;E-value: 4.7e-233" locus_tag="BM385_RS07050" class="clusterblast-orf" id="dummy-1_h1_1_30"  />
</g>
<g id="a1_0031"  >
<polygon points="645,85 650,80 665,80 665,90 650,90 645,85 " style="fill:#d8153f; stroke-width:1; stroke:black; " description="&lt;b&gt;BM385_RS07045&lt;/b&gt;&lt;br&gt;hypothetical protein&lt;br&gt;Location: 608486 - 607197&lt;br&gt;&lt;br&gt;&lt;b&gt;BlastP hit with ctg14_32&lt;/b&gt;&lt;br&gt;Percentage identity: 99&lt;br&gt;Percentage coverage: 100&lt;br&gt;BLAST bit score: 822&lt;br&gt;E-value: 2.1e-236" locus_tag="BM385_RS07045" class="clusterblast-orf" id="dummy-1_h1_1_31"  />
</g>
<g id="a1_0032"  >
<polygon points="679,90 682,90 687,85 682,80 679,80 679,90 " style="fill:white; stroke-width:1; stroke:black; " description="&lt;b&gt;BM385_RS07040&lt;/b&gt;&lt;br&gt;sigma-70 family RNA polymerase sigma factor&lt;br&gt;Location: 606318 - 605809" locus_tag="BM385_RS07040" class="clusterblast-orf" id="dummy-1_h1_1_32"  />
</g>
<g id="a1_0033"  >
<polygon points="693,90 694,90 699,85 694,80 693,80 693,90 " style="fill:white; stroke-width:1; stroke:black; " description="&lt;b&gt;BM385_RS07035&lt;/b&gt;&lt;br&gt;DUF2255 domain-containing protein&lt;br&gt;Location: 605453 - 605076" locus_tag="BM385_RS07035" class="clusterblast-orf" id="dummy-1_h1_1_33"  />
</g>
<g id="a1_0034"  >
<polygon points="700,90 721,90 726,85 721,80 700,80 700,90 " style="fill:white; stroke-width:1; stroke:black; " description="&lt;b&gt;BM385_RS07030&lt;/b&gt;&lt;br&gt;Na+/H+ antiporter&lt;br&gt;Location: 604980 - 603388" locus_tag="BM385_RS07030" class="clusterblast-orf" id="dummy-1_h1_1_34"  />
</g>
<g id="a1_0035"  >
<polygon points="726,85 731,80 744,80 744,90 731,90 726,85 " style="fill:white; stroke-width:1; stroke:black; " description="&lt;b&gt;BM385_RS07025&lt;/b&gt;&lt;br&gt;NAD(P)-dependent alcohol dehydrogenase&lt;br&gt;Location: 603384 - 602260" locus_tag="BM385_RS07025" class="clusterblast-orf" id="dummy-1_h1_1_35"  />
</g>
<g id="a1_0036"  >
<polygon points="746,85 751,80 764,80 764,90 751,90 746,85 " style="fill:white; stroke-width:1; stroke:black; " description="&lt;b&gt;BM385_RS07020&lt;/b&gt;&lt;br&gt;rhamnose ABC transporter substrate-binding protein&lt;br&gt;Location: 602090 - 600999" locus_tag="BM385_RS07020" class="clusterblast-orf" id="dummy-1_h1_1_36"  />
</g>
<g id="a1_0037"  >
<polygon points="764,85 769,80 780,80 780,90 769,90 764,85 " style="fill:white; stroke-width:1; stroke:black; " description="&lt;b&gt;BM385_RS07015&lt;/b&gt;&lt;br&gt;ABC transporter permease&lt;br&gt;Location: 600984 - 599998" locus_tag="BM385_RS07015" class="clusterblast-orf" id="dummy-1_h1_1_37"  />
</g>
</svg>
