<svg xmlns="http://www.w3.org/2000/svg" xmlns:xlink="http://www.w3.org/1999/xlink" version="1.1" x="0" y="0" height="230" width="800" viewBox="0 0 800 230" preserveAspectRatio="none"  >
<g label="Query sequence" class="clusterblast-cluster"  >
<text x="5" y="20" class="clusterblast-acc"  >
Query sequence</text>
<line x1="10" y1="35" x2="778.0" y2="35" style="stroke-width:1; stroke:grey; "  />
<polygon points="0,40 53,40 58,35 53,30 0,30 0,40 " style="fill:#d81515; stroke-width:1; stroke:black; " description="&lt;b&gt;ctg13_2&lt;/b&gt;&lt;br&gt;ctg13 2&lt;br&gt;Location: 1336 - 2245" locus_tag="ctg13_2" class="clusterblast-orf" id="dummy-1_q0_0_all"  />
<polygon points="57,40 110,40 115,35 110,30 57,30 57,40 " style="fill:#3cd815; stroke-width:1; stroke:black; " description="&lt;b&gt;ctg13_3&lt;/b&gt;&lt;br&gt;ctg13 3&lt;br&gt;Location: 2234 - 3140" locus_tag="ctg13_3" class="clusterblast-orf" id="dummy-1_q1_0_all"  />
<polygon points="131,40 153,40 158,35 153,30 131,30 131,40 " style="fill:#1563d8; stroke-width:1; stroke:black; " description="&lt;b&gt;ctg13_4&lt;/b&gt;&lt;br&gt;ctg13 4&lt;br&gt;Location: 3396 - 3819" locus_tag="ctg13_4" class="clusterblast-orf" id="dummy-1_q2_0_all"  />
<polygon points="164,35 169,30 236,30 236,40 169,40 164,35 " style="fill:#b115d8; stroke-width:1; stroke:black; " description="&lt;b&gt;ctg13_5&lt;/b&gt;&lt;br&gt;ctg13 5&lt;br&gt;Location: 3904 - 5038" locus_tag="ctg13_5" class="clusterblast-orf" id="dummy-1_q3_0_all"  />
<polygon points="259,40 378,40 383,35 378,30 259,30 259,40 " style="fill:#d88a15; stroke-width:1; stroke:black; " description="&lt;b&gt;ctg13_6&lt;/b&gt;&lt;br&gt;ctg13 6&lt;br&gt;Location: 5394 - 7341" locus_tag="ctg13_6" class="clusterblast-orf" id="dummy-1_q4_0_all"  />
<polygon points="383,40 418,40 423,35 418,30 383,30 383,40 " style="fill:#15d863; stroke-width:1; stroke:black; " description="&lt;b&gt;ctg13_7&lt;/b&gt;&lt;br&gt;ctg13 7&lt;br&gt;Location: 7349 - 7970" locus_tag="ctg13_7" class="clusterblast-orf" id="dummy-1_q5_0_all"  />
<polygon points="426,40 532,40 537,35 532,30 426,30 426,40 " style="fill:#3c15d8; stroke-width:1; stroke:black; " description="&lt;b&gt;ctg13_8&lt;/b&gt;&lt;br&gt;ctg13 8&lt;br&gt;Location: 8020 - 9766" locus_tag="ctg13_8" class="clusterblast-orf" id="dummy-1_q6_0_all"  />
<polygon points="540,40 662,40 667,35 662,30 540,30 540,40 " style="fill:#d8158a; stroke-width:1; stroke:black; " description="&lt;b&gt;ctg13_9&lt;/b&gt;&lt;br&gt;ctg13 9&lt;br&gt;Location: 9816 - 11814" locus_tag="ctg13_9" class="clusterblast-orf" id="dummy-1_q7_0_all"  />
<polygon points="670,35 675,30 724,30 724,40 675,40 670,35 " style="fill:#b1d815; stroke-width:1; stroke:black; " description="&lt;b&gt;ctg13_10&lt;/b&gt;&lt;br&gt;ctg13 10&lt;br&gt;Location: 11854 - 12697" locus_tag="ctg13_10" class="clusterblast-orf" id="dummy-1_q8_0_all"  />
<polygon points="747,40 775,40 780,35 775,30 747,30 747,40 " style="fill:#15d8d8; stroke-width:1; stroke:black; " description="&lt;b&gt;ctg13_11&lt;/b&gt;&lt;br&gt;ctg13 11&lt;br&gt;Location: 13070 - 13583" locus_tag="ctg13_11" class="clusterblast-orf" id="dummy-1_q9_0_all"  />
</g>
<g label="NZ_JOIG01000004" description="NZ_JOIG01000004_c4: Streptomyces sp. NRRL F-2890 contig4.1, whole genome shot... (88% of genes show similarity), siderophore" class="clusterblast-cluster"  >
<text x="5" y="70" class="clusterblast-acc"  >
<a xlink:href="https://antismash-db.secondarymetabolites.org/go/NZ_JOIG01000004/4" target="_blank">NZ_JOIG01000004_c4</a>: Streptomyces sp. NRRL F-2890 contig4.1, whole genome shot... (88% of genes show similarity), siderophore</text>
<line x1="10" y1="85" x2="778.0" y2="85" style="stroke-width:1; stroke:grey; "  />
</g>
<g id="a1_000"  >
<polygon points="19,90 74,90 79,85 74,80 19,80 19,90 " style="fill:white; stroke-width:1; stroke:black; " description="&lt;b&gt;IF79_RS0109650&lt;/b&gt;&lt;br&gt;hypothetical protein&lt;br&gt;Location: 72637 - 73569" locus_tag="IF79_RS0109650" class="clusterblast-orf" id="dummy-1_h1_3_0"  />
</g>
<g id="a1_001"  >
<polygon points="111,90 133,90 138,85 133,80 111,80 111,90 " style="fill:#1563d8; stroke-width:1; stroke:black; " description="&lt;b&gt;IF79_RS0109655&lt;/b&gt;&lt;br&gt;aspartate 1-decarboxylase&lt;br&gt;Location: 74083 - 74505&lt;br&gt;&lt;br&gt;&lt;b&gt;BlastP hit with ctg13_4&lt;/b&gt;&lt;br&gt;Percentage identity: 96&lt;br&gt;Percentage coverage: 99&lt;br&gt;BLAST bit score: 260&lt;br&gt;E-value: 1.4e-67" locus_tag="IF79_RS0109655" class="clusterblast-orf" id="dummy-1_h1_3_1"  />
</g>
<g id="a1_002"  >
<polygon points="143,85 148,80 219,80 219,90 148,90 143,85 " style="fill:#b115d8; stroke-width:1; stroke:black; " description="&lt;b&gt;IF79_RS0109660&lt;/b&gt;&lt;br&gt;hypothetical protein&lt;br&gt;Location: 74581 - 75774&lt;br&gt;&lt;br&gt;&lt;b&gt;BlastP hit with ctg13_5&lt;/b&gt;&lt;br&gt;Percentage identity: 87&lt;br&gt;Percentage coverage: 99&lt;br&gt;BLAST bit score: 703&lt;br&gt;E-value: 1.3e-200" locus_tag="IF79_RS0109660" class="clusterblast-orf" id="dummy-1_h1_3_2"  />
</g>
<g id="a1_003"  >
<polygon points="242,90 357,90 362,85 357,80 242,80 242,90 " style="fill:#d88a15; stroke-width:1; stroke:black; " description="&lt;b&gt;IF79_RS0109665&lt;/b&gt;&lt;br&gt;iron transporter&lt;br&gt;Location: 76134 - 78017&lt;br&gt;&lt;br&gt;&lt;b&gt;BlastP hit with ctg13_6&lt;/b&gt;&lt;br&gt;Percentage identity: 86&lt;br&gt;Percentage coverage: 97&lt;br&gt;BLAST bit score: 1086&lt;br&gt;E-value: 0.0" locus_tag="IF79_RS0109665" class="clusterblast-orf" id="dummy-1_h1_3_3"  />
</g>
<g id="a1_004"  >
<polygon points="363,90 397,90 402,85 397,80 363,80 363,90 " style="fill:#15d863; stroke-width:1; stroke:black; " description="&lt;b&gt;IF79_RS0109670&lt;/b&gt;&lt;br&gt;N-acetyltransferase&lt;br&gt;Location: 78027 - 78647&lt;br&gt;&lt;br&gt;&lt;b&gt;BlastP hit with ctg13_7&lt;/b&gt;&lt;br&gt;Percentage identity: 77&lt;br&gt;Percentage coverage: 100&lt;br&gt;BLAST bit score: 326&lt;br&gt;E-value: 3e-87" locus_tag="IF79_RS0109670" class="clusterblast-orf" id="dummy-1_h1_3_4"  />
</g>
<g id="a1_005"  >
<polygon points="408,90 511,90 516,85 511,80 408,80 408,90 " style="fill:#3c15d8; stroke-width:1; stroke:black; " description="&lt;b&gt;IF79_RS0109675&lt;/b&gt;&lt;br&gt;IucA/IucC family siderophore biosynthesis protein&lt;br&gt;Location: 78744 - 80435&lt;br&gt;&lt;br&gt;&lt;b&gt;BlastP hit with ctg13_8&lt;/b&gt;&lt;br&gt;Percentage identity: 89&lt;br&gt;Percentage coverage: 97&lt;br&gt;BLAST bit score: 1034&lt;br&gt;E-value: 4.9e-300" locus_tag="IF79_RS0109675" class="clusterblast-orf" id="dummy-1_h1_3_5"  />
</g>
<g id="a1_006"  >
<polygon points="519,90 644,90 649,85 644,80 519,80 519,90 " style="fill:#d8158a; stroke-width:1; stroke:black; " description="&lt;b&gt;IF79_RS0109680&lt;/b&gt;&lt;br&gt;ATP-dependent DNA helicase&lt;br&gt;Location: 80486 - 82525&lt;br&gt;&lt;br&gt;&lt;b&gt;BlastP hit with ctg13_9&lt;/b&gt;&lt;br&gt;Percentage identity: 94&lt;br&gt;Percentage coverage: 102&lt;br&gt;BLAST bit score: 1211&lt;br&gt;E-value: 0.0" locus_tag="IF79_RS0109680" class="clusterblast-orf" id="dummy-1_h1_3_6"  />
</g>
<g id="a1_007"  >
<polygon points="652,85 657,80 701,80 701,90 657,90 652,85 " style="fill:#b1d815; stroke-width:1; stroke:black; " description="&lt;b&gt;IF79_RS0109685&lt;/b&gt;&lt;br&gt;transcriptional repressor LexA&lt;br&gt;Location: 82566 - 83336&lt;br&gt;&lt;br&gt;&lt;b&gt;BlastP hit with ctg13_10&lt;/b&gt;&lt;br&gt;Percentage identity: 97&lt;br&gt;Percentage coverage: 91&lt;br&gt;BLAST bit score: 492&lt;br&gt;E-value: 4.3e-137" locus_tag="IF79_RS0109685" class="clusterblast-orf" id="dummy-1_h1_3_7"  />
</g>
<g id="a1_008"  >
<polygon points="728,90 755,90 760,85 755,80 728,80 728,90 " style="fill:#15d8d8; stroke-width:1; stroke:black; " description="&lt;b&gt;IF79_RS0109690&lt;/b&gt;&lt;br&gt;transcriptional repressor NrdR&lt;br&gt;Location: 83770 - 84264&lt;br&gt;&lt;br&gt;&lt;b&gt;BlastP hit with ctg13_11&lt;/b&gt;&lt;br&gt;Percentage identity: 91&lt;br&gt;Percentage coverage: 100&lt;br&gt;BLAST bit score: 292&lt;br&gt;E-value: 3.1e-77" locus_tag="IF79_RS0109690" class="clusterblast-orf" id="dummy-1_h1_3_8"  />
</g>
</svg>
