<svg xmlns="http://www.w3.org/2000/svg" xmlns:xlink="http://www.w3.org/1999/xlink" version="1.1" x="0" y="0" height="230" width="800" viewBox="0 0 800 230" preserveAspectRatio="none"  >
<g label="Query sequence" class="clusterblast-cluster"  >
<text x="5" y="20" class="clusterblast-acc"  >
Query sequence</text>
<line x1="10" y1="35" x2="778.0" y2="35" style="stroke-width:1; stroke:grey; "  />
<polygon points="45,40 91,40 96,35 91,30 45,30 45,40 " style="fill:#d81515; stroke-width:1; stroke:black; " description="&lt;b&gt;ctg13_2&lt;/b&gt;&lt;br&gt;ctg13 2&lt;br&gt;Location: 1336 - 2245" locus_tag="ctg13_2" class="clusterblast-orf" id="dummy-1_q0_0_all"  />
<polygon points="96,40 142,40 147,35 142,30 96,30 96,40 " style="fill:#3cd815; stroke-width:1; stroke:black; " description="&lt;b&gt;ctg13_3&lt;/b&gt;&lt;br&gt;ctg13 3&lt;br&gt;Location: 2234 - 3140" locus_tag="ctg13_3" class="clusterblast-orf" id="dummy-1_q1_0_all"  />
<polygon points="161,40 180,40 185,35 180,30 161,30 161,40 " style="fill:#1563d8; stroke-width:1; stroke:black; " description="&lt;b&gt;ctg13_4&lt;/b&gt;&lt;br&gt;ctg13 4&lt;br&gt;Location: 3396 - 3819" locus_tag="ctg13_4" class="clusterblast-orf" id="dummy-1_q2_0_all"  />
<polygon points="190,35 195,30 254,30 254,40 195,40 190,35 " style="fill:#b115d8; stroke-width:1; stroke:black; " description="&lt;b&gt;ctg13_5&lt;/b&gt;&lt;br&gt;ctg13 5&lt;br&gt;Location: 3904 - 5038" locus_tag="ctg13_5" class="clusterblast-orf" id="dummy-1_q3_0_all"  />
<polygon points="274,40 378,40 383,35 378,30 274,30 274,40 " style="fill:#d88a15; stroke-width:1; stroke:black; " description="&lt;b&gt;ctg13_6&lt;/b&gt;&lt;br&gt;ctg13 6&lt;br&gt;Location: 5394 - 7341" locus_tag="ctg13_6" class="clusterblast-orf" id="dummy-1_q4_0_all"  />
<polygon points="384,40 414,40 419,35 414,30 384,30 384,40 " style="fill:#15d863; stroke-width:1; stroke:black; " description="&lt;b&gt;ctg13_7&lt;/b&gt;&lt;br&gt;ctg13 7&lt;br&gt;Location: 7349 - 7970" locus_tag="ctg13_7" class="clusterblast-orf" id="dummy-1_q5_0_all"  />
<polygon points="422,40 515,40 520,35 515,30 422,30 422,40 " style="fill:#3c15d8; stroke-width:1; stroke:black; " description="&lt;b&gt;ctg13_8&lt;/b&gt;&lt;br&gt;ctg13 8&lt;br&gt;Location: 8020 - 9766" locus_tag="ctg13_8" class="clusterblast-orf" id="dummy-1_q6_0_all"  />
<polygon points="523,40 630,40 635,35 630,30 523,30 523,40 " style="fill:#d8158a; stroke-width:1; stroke:black; " description="&lt;b&gt;ctg13_9&lt;/b&gt;&lt;br&gt;ctg13 9&lt;br&gt;Location: 9816 - 11814" locus_tag="ctg13_9" class="clusterblast-orf" id="dummy-1_q7_0_all"  />
<polygon points="637,35 642,30 685,30 685,40 642,40 637,35 " style="fill:#b1d815; stroke-width:1; stroke:black; " description="&lt;b&gt;ctg13_10&lt;/b&gt;&lt;br&gt;ctg13 10&lt;br&gt;Location: 11854 - 12697" locus_tag="ctg13_10" class="clusterblast-orf" id="dummy-1_q8_0_all"  />
<polygon points="706,40 730,40 735,35 730,30 706,30 706,40 " style="fill:#15d8d8; stroke-width:1; stroke:black; " description="&lt;b&gt;ctg13_11&lt;/b&gt;&lt;br&gt;ctg13 11&lt;br&gt;Location: 13070 - 13583" locus_tag="ctg13_11" class="clusterblast-orf" id="dummy-1_q9_0_all"  />
</g>
<g label="NZ_LJGV01000022" description="NZ_LJGV01000022_c15: Streptomyces qinglanensis strain SCSIO M10379 scaffold1,... (88% of genes show similarity), siderophore" class="clusterblast-cluster"  >
<text x="5" y="70" class="clusterblast-acc"  >
<a xlink:href="https://antismash-db.secondarymetabolites.org/go/NZ_LJGV01000022/15" target="_blank">NZ_LJGV01000022_c15</a>: Streptomyces qinglanensis strain SCSIO M10379 scaffold1,... (88% of genes show similarity), siderophore</text>
<line x1="10" y1="85" x2="778.0" y2="85" style="stroke-width:1; stroke:grey; "  />
</g>
<g id="a1_000"  >
<polygon points="0,90 79,90 84,85 79,80 0,80 0,90 " style="fill:white; stroke-width:1; stroke:black; " description="&lt;b&gt;AN217_RS21885&lt;/b&gt;&lt;br&gt;GTPase HflX&lt;br&gt;Location: 4389953 - 4388454" locus_tag="AN217_RS21885" class="clusterblast-orf" id="dummy-1_h1_10_0"  />
</g>
<g id="a1_001"  >
<polygon points="90,85 95,80 158,80 158,90 95,90 90,85 " style="fill:#b115d8; stroke-width:1; stroke:black; " description="&lt;b&gt;AN217_RS21880&lt;/b&gt;&lt;br&gt;hypothetical protein&lt;br&gt;Location: 4388342 - 4387143&lt;br&gt;&lt;br&gt;&lt;b&gt;BlastP hit with ctg13_5&lt;/b&gt;&lt;br&gt;Percentage identity: 51&lt;br&gt;Percentage coverage: 99&lt;br&gt;BLAST bit score: 369&lt;br&gt;E-value: 4.4e-100" locus_tag="AN217_RS21880" class="clusterblast-orf" id="dummy-1_h1_10_1"  />
</g>
<g id="a1_002"  >
<polygon points="162,85 167,80 230,80 230,90 167,90 162,85 " style="fill:#b115d8; stroke-width:1; stroke:black; " description="&lt;b&gt;AN217_RS21875&lt;/b&gt;&lt;br&gt;hypothetical protein&lt;br&gt;Location: 4387067 - 4385850&lt;br&gt;&lt;br&gt;&lt;b&gt;BlastP hit with ctg13_5&lt;/b&gt;&lt;br&gt;Percentage identity: 48&lt;br&gt;Percentage coverage: 89&lt;br&gt;BLAST bit score: 323&lt;br&gt;E-value: 2.7e-86" locus_tag="AN217_RS21875" class="clusterblast-orf" id="dummy-1_h1_10_2"  />
</g>
<g id="a1_003"  >
<polygon points="247,90 352,90 357,85 352,80 247,80 247,90 " style="fill:#d88a15; stroke-width:1; stroke:black; " description="&lt;b&gt;AN217_RS21870&lt;/b&gt;&lt;br&gt;iron transporter&lt;br&gt;Location: 4385557 - 4383599&lt;br&gt;&lt;br&gt;&lt;b&gt;BlastP hit with ctg13_6&lt;/b&gt;&lt;br&gt;Percentage identity: 64&lt;br&gt;Percentage coverage: 100&lt;br&gt;BLAST bit score: 760&lt;br&gt;E-value: 2e-217" locus_tag="AN217_RS21870" class="clusterblast-orf" id="dummy-1_h1_10_3"  />
</g>
<g id="a1_004"  >
<polygon points="359,90 408,90 413,85 408,80 359,80 359,90 " style="fill:#15d863; stroke-width:1; stroke:black; " description="&lt;b&gt;AN217_RS21865&lt;/b&gt;&lt;br&gt;GNAT family N-acetyltransferase&lt;br&gt;Location: 4383559 - 4382603&lt;br&gt;&lt;br&gt;&lt;b&gt;BlastP hit with ctg13_7&lt;/b&gt;&lt;br&gt;Percentage identity: 64&lt;br&gt;Percentage coverage: 87&lt;br&gt;BLAST bit score: 232&lt;br&gt;E-value: 3.5e-59" locus_tag="AN217_RS21865" class="clusterblast-orf" id="dummy-1_h1_10_4"  />
</g>
<g id="a1_005"  >
<polygon points="417,90 514,90 519,85 514,80 417,80 417,90 " style="fill:#3c15d8; stroke-width:1; stroke:black; " description="&lt;b&gt;AN217_RS21860&lt;/b&gt;&lt;br&gt;IucA/IucC family siderophore biosynthesis protein&lt;br&gt;Location: 4382530 - 4380728&lt;br&gt;&lt;br&gt;&lt;b&gt;BlastP hit with ctg13_8&lt;/b&gt;&lt;br&gt;Percentage identity: 68&lt;br&gt;Percentage coverage: 99&lt;br&gt;BLAST bit score: 792&lt;br&gt;E-value: 2.5e-227" locus_tag="AN217_RS21860" class="clusterblast-orf" id="dummy-1_h1_10_5"  />
</g>
<g id="a1_006"  >
<polygon points="528,90 635,90 640,85 635,80 528,80 528,90 " style="fill:#d8158a; stroke-width:1; stroke:black; " description="&lt;b&gt;AN217_RS21855&lt;/b&gt;&lt;br&gt;ATP-dependent DNA helicase&lt;br&gt;Location: 4380573 - 4378582&lt;br&gt;&lt;br&gt;&lt;b&gt;BlastP hit with ctg13_9&lt;/b&gt;&lt;br&gt;Percentage identity: 83&lt;br&gt;Percentage coverage: 100&lt;br&gt;BLAST bit score: 1052&lt;br&gt;E-value: 2e-305" locus_tag="AN217_RS21855" class="clusterblast-orf" id="dummy-1_h1_10_6"  />
</g>
<g id="a1_007"  >
<polygon points="653,85 658,80 698,80 698,90 658,90 653,85 " style="fill:#b1d815; stroke-width:1; stroke:black; " description="&lt;b&gt;AN217_RS21850&lt;/b&gt;&lt;br&gt;transcriptional repressor LexA&lt;br&gt;Location: 4378351 - 4377542&lt;br&gt;&lt;br&gt;&lt;b&gt;BlastP hit with ctg13_10&lt;/b&gt;&lt;br&gt;Percentage identity: 80&lt;br&gt;Percentage coverage: 96&lt;br&gt;BLAST bit score: 412&lt;br&gt;E-value: 3.3e-113" locus_tag="AN217_RS21850" class="clusterblast-orf" id="dummy-1_h1_10_7"  />
</g>
<g id="a1_008"  >
<polygon points="742,90 775,90 780,85 775,80 742,80 742,90 " style="fill:#15d8d8; stroke-width:1; stroke:black; " description="&lt;b&gt;AN217_RS21845&lt;/b&gt;&lt;br&gt;transcriptional repressor NrdR&lt;br&gt;Location: 4376756 - 4376097&lt;br&gt;&lt;br&gt;&lt;b&gt;BlastP hit with ctg13_11&lt;/b&gt;&lt;br&gt;Percentage identity: 92&lt;br&gt;Percentage coverage: 85&lt;br&gt;BLAST bit score: 265&lt;br&gt;E-value: 3.1e-69" locus_tag="AN217_RS21845" class="clusterblast-orf" id="dummy-1_h1_10_8"  />
</g>
</svg>
