<svg xmlns="http://www.w3.org/2000/svg" xmlns:xlink="http://www.w3.org/1999/xlink" version="1.1" x="0" y="0" height="230" width="800" viewBox="0 0 800 230" preserveAspectRatio="none"  >
<g label="Query sequence" class="clusterblast-cluster"  >
<text x="5" y="20" class="clusterblast-acc"  >
Query sequence</text>
<line x1="10" y1="35" x2="778.0" y2="35" style="stroke-width:1; stroke:grey; "  />
<polygon points="205,40 393,40 398,35 393,30 205,30 205,40 " style="fill:#d81515; stroke-width:1; stroke:black; " description="&lt;b&gt;ctg400_1&lt;/b&gt;&lt;br&gt;ctg400 1&lt;br&gt;Location: 0 - 1851" locus_tag="ctg400_1" class="clusterblast-orf" id="dummy-1_q0_0_all"  />
<polygon points="407,35 412,30 474,30 474,40 412,40 407,35 " style="fill:#15d8d8; stroke-width:1; stroke:black; " description="&lt;b&gt;ctg400_2&lt;/b&gt;&lt;br&gt;ctg400 2&lt;br&gt;Location: 1937 - 2579" locus_tag="ctg400_2" class="clusterblast-orf" id="dummy-1_q1_0_all"  />
<polygon points="474,35 479,30 576,30 576,40 479,40 474,35 " style="fill:white; stroke-width:1; stroke:black; " description="&lt;b&gt;ctg400_3&lt;/b&gt;&lt;br&gt;ctg400 3&lt;br&gt;Location: 2578 - 3556" locus_tag="ctg400_3" class="clusterblast-orf" id="dummy-1_q2_0_all"  />
</g>
<g label="NZ_LGCW01000001" description="NZ_LGCW01000001_c1: Streptomyces sp. NRRL F-5755 P309contig1.1, whole genome ... (40% of genes show similarity), siderophore" class="clusterblast-cluster"  >
<text x="5" y="70" class="clusterblast-acc"  >
<a xlink:href="https://antismash-db.secondarymetabolites.org/go/NZ_LGCW01000001/1" target="_blank">NZ_LGCW01000001_c1</a>: Streptomyces sp. NRRL F-5755 P309contig1.1, whole genome ... (40% of genes show similarity), siderophore</text>
<line x1="10" y1="85" x2="778.0" y2="85" style="stroke-width:1; stroke:grey; "  />
</g>
<g id="a1_000"  >
<polygon points="0,90 152,90 157,85 152,80 0,80 0,90 " style="fill:white; stroke-width:1; stroke:black; " description="&lt;b&gt;ADK86_RS00030&lt;/b&gt;&lt;br&gt;pyridoxal-dependent decarboxylase&lt;br&gt;Location: 7693 - 6182" locus_tag="ADK86_RS00030" class="clusterblast-orf" id="dummy-1_h1_8_0"  />
</g>
<g id="a1_001"  >
<polygon points="166,90 299,90 304,85 299,80 166,80 166,90 " style="fill:white; stroke-width:1; stroke:black; " description="&lt;b&gt;ADK86_RS00025&lt;/b&gt;&lt;br&gt;alcaligin biosynthesis protein&lt;br&gt;Location: 6095 - 4773" locus_tag="ADK86_RS00025" class="clusterblast-orf" id="dummy-1_h1_8_1"  />
</g>
<g id="a1_002"  >
<polygon points="304,90 359,90 364,85 359,80 304,80 304,90 " style="fill:white; stroke-width:1; stroke:black; " description="&lt;b&gt;ADK86_RS00020&lt;/b&gt;&lt;br&gt;N-acetyltransferase&lt;br&gt;Location: 4776 - 4204" locus_tag="ADK86_RS00020" class="clusterblast-orf" id="dummy-1_h1_8_2"  />
</g>
<g id="a1_003"  >
<polygon points="363,90 549,90 554,85 549,80 363,80 363,90 " style="fill:#d81515; stroke-width:1; stroke:black; " description="&lt;b&gt;ADK86_RS00015&lt;/b&gt;&lt;br&gt;IucA/IucC family siderophore biosynthesis protein&lt;br&gt;Location: 4210 - 2387&lt;br&gt;&lt;br&gt;&lt;b&gt;BlastP hit with ctg400_1&lt;/b&gt;&lt;br&gt;Percentage identity: 67&lt;br&gt;Percentage coverage: 100&lt;br&gt;BLAST bit score: 834&lt;br&gt;E-value: 6e-240" locus_tag="ADK86_RS00015" class="clusterblast-orf" id="dummy-1_h1_8_3"  />
</g>
<g id="a1_004"  >
<polygon points="564,85 569,80 780,80 780,90 569,90 564,85 " style="fill:#15d8d8; stroke-width:1; stroke:black; " description="&lt;b&gt;ADK86_RS40295&lt;/b&gt;&lt;br&gt;tetratricopeptide repeat protein&lt;br&gt;Location: 2289 - 223&lt;br&gt;&lt;br&gt;&lt;b&gt;BlastP hit with ctg400_2&lt;/b&gt;&lt;br&gt;Percentage identity: 83&lt;br&gt;Percentage coverage: 97&lt;br&gt;BLAST bit score: 329&lt;br&gt;E-value: 3.7e-88" locus_tag="ADK86_RS40295" class="clusterblast-orf" id="dummy-1_h1_8_4"  />
</g>
</svg>
