<svg xmlns="http://www.w3.org/2000/svg" xmlns:xlink="http://www.w3.org/1999/xlink" version="1.1" x="0" y="0" height="230" width="800" viewBox="0 0 800 230" preserveAspectRatio="none"  >
<g label="Query sequence" class="clusterblast-cluster"  >
<text x="5" y="20" class="clusterblast-acc"  >
Query sequence</text>
<line x1="10" y1="35" x2="778.0" y2="35" style="stroke-width:1; stroke:grey; "  />
<polygon points="277,35 282,30 388,30 388,40 282,40 277,35 " style="fill:#d81515; stroke-width:1; stroke:black; " description="&lt;b&gt;ctg30_1&lt;/b&gt;&lt;br&gt;ctg30 1&lt;br&gt;Location: 1 - 14734" locus_tag="ctg30_1" class="clusterblast-orf" id="dummy-1_q0_0_all"  />
<polygon points="390,35 395,30 409,30 409,40 395,40 390,35 " style="fill:#63d815; stroke-width:1; stroke:black; " description="&lt;b&gt;ctg30_2&lt;/b&gt;&lt;br&gt;ctg30 2&lt;br&gt;Location: 15072 - 17592" locus_tag="ctg30_2" class="clusterblast-orf" id="dummy-1_q1_0_all"  />
<polygon points="411,35 416,30 422,30 422,40 416,40 411,35 " style="fill:#15b1d8; stroke-width:1; stroke:black; " description="&lt;b&gt;ctg30_3&lt;/b&gt;&lt;br&gt;ctg30 3&lt;br&gt;Location: 17914 - 19339" locus_tag="ctg30_3" class="clusterblast-orf" id="dummy-1_q2_0_all"  />
<polygon points="422,35 427,30 428,30 428,40 427,40 422,35 " style="fill:#b115d8; stroke-width:1; stroke:black; " description="&lt;b&gt;ctg30_4&lt;/b&gt;&lt;br&gt;ctg30 4&lt;br&gt;Location: 19373 - 20093" locus_tag="ctg30_4" class="clusterblast-orf" id="dummy-1_q3_0_all"  />
<polygon points="428,35 433,30 434,30 434,40 433,40 428,35 " style="fill:#d86315; stroke-width:1; stroke:black; " description="&lt;b&gt;ctg30_5&lt;/b&gt;&lt;br&gt;ctg30 5&lt;br&gt;Location: 20124 - 20904" locus_tag="ctg30_5" class="clusterblast-orf" id="dummy-1_q4_0_all"  />
<polygon points="435,35 435,30 435,40 435,35 " style="fill:white; stroke-width:1; stroke:black; " description="&lt;b&gt;ctg30_6&lt;/b&gt;&lt;br&gt;ctg30 6&lt;br&gt;Location: 21026 - 21116" locus_tag="ctg30_6" class="clusterblast-orf" id="dummy-1_q5_0_all"  />
<polygon points="435,35 440,30 443,30 443,40 440,40 435,35 " style="fill:#15d815; stroke-width:1; stroke:black; " description="&lt;b&gt;ctg30_7&lt;/b&gt;&lt;br&gt;ctg30 7&lt;br&gt;Location: 21112 - 22084" locus_tag="ctg30_7" class="clusterblast-orf" id="dummy-1_q6_0_all"  />
<polygon points="443,35 448,30 448,30 448,40 448,40 443,35 " style="fill:#1563d8; stroke-width:1; stroke:black; " description="&lt;b&gt;ctg30_8&lt;/b&gt;&lt;br&gt;ctg30 8&lt;br&gt;Location: 22104 - 22782" locus_tag="ctg30_8" class="clusterblast-orf" id="dummy-1_q7_0_all"  />
<polygon points="448,35 453,30 457,30 457,40 453,40 448,35 " style="fill:#d815b1; stroke-width:1; stroke:black; " description="&lt;b&gt;ctg30_9&lt;/b&gt;&lt;br&gt;ctg30 9&lt;br&gt;Location: 22857 - 23940" locus_tag="ctg30_9" class="clusterblast-orf" id="dummy-1_q8_0_all"  />
<polygon points="457,40 460,35 457,30 457,40 " style="fill:#d8b115; stroke-width:1; stroke:black; " description="&lt;b&gt;ctg30_10&lt;/b&gt;&lt;br&gt;ctg30 10&lt;br&gt;Location: 24041 - 24404" locus_tag="ctg30_10" class="clusterblast-orf" id="dummy-1_q9_0_all"  />
<polygon points="460,35 465,30 466,30 466,40 465,40 460,35 " style="fill:#15d863; stroke-width:1; stroke:black; " description="&lt;b&gt;ctg30_11&lt;/b&gt;&lt;br&gt;ctg30 11&lt;br&gt;Location: 24450 - 25149" locus_tag="ctg30_11" class="clusterblast-orf" id="dummy-1_q10_0_all"  />
<polygon points="466,35 467,30 467,40 466,35 " style="fill:white; stroke-width:1; stroke:black; " description="&lt;b&gt;ctg30_12&lt;/b&gt;&lt;br&gt;ctg30 12&lt;br&gt;Location: 25178 - 25319" locus_tag="ctg30_12" class="clusterblast-orf" id="dummy-1_q11_0_all"  />
<polygon points="467,40 473,40 478,35 473,30 467,30 467,40 " style="fill:#1515d8; stroke-width:1; stroke:black; " description="&lt;b&gt;ctg30_13&lt;/b&gt;&lt;br&gt;ctg30 13&lt;br&gt;Location: 25328 - 26780" locus_tag="ctg30_13" class="clusterblast-orf" id="dummy-1_q12_0_all"  />
<polygon points="478,35 483,30 483,30 483,40 483,40 478,35 " style="fill:#d81563; stroke-width:1; stroke:black; " description="&lt;b&gt;ctg30_14&lt;/b&gt;&lt;br&gt;ctg30 14&lt;br&gt;Location: 26786 - 27428" locus_tag="ctg30_14" class="clusterblast-orf" id="dummy-1_q13_0_all"  />
<polygon points="484,35 489,30 489,30 489,40 489,40 484,35 " style="fill:#b1d815; stroke-width:1; stroke:black; " description="&lt;b&gt;ctg30_15&lt;/b&gt;&lt;br&gt;ctg30 15&lt;br&gt;Location: 27565 - 28261" locus_tag="ctg30_15" class="clusterblast-orf" id="dummy-1_q14_0_all"  />
<polygon points="491,35 496,30 499,30 499,40 496,40 491,35 " style="fill:#15d8b1; stroke-width:1; stroke:black; " description="&lt;b&gt;ctg30_16&lt;/b&gt;&lt;br&gt;ctg30 16&lt;br&gt;Location: 28543 - 29566" locus_tag="ctg30_16" class="clusterblast-orf" id="dummy-1_q15_0_all"  />
<polygon points="499,35 502,30 502,40 499,35 " style="fill:#6315d8; stroke-width:1; stroke:black; " description="&lt;b&gt;ctg30_17&lt;/b&gt;&lt;br&gt;ctg30 17&lt;br&gt;Location: 29573 - 30020" locus_tag="ctg30_17" class="clusterblast-orf" id="dummy-1_q16_0_all"  />
</g>
<g label="NZ_CM002273" description="NZ_CM002273_c3: Streptomyces sp. PVA 94-07 chromosome, whole genome shotgun s... (14% of genes show similarity), t3pks-t1pks-nrps" class="clusterblast-cluster"  >
<text x="5" y="70" class="clusterblast-acc"  >
<a xlink:href="https://antismash-db.secondarymetabolites.org/go/NZ_CM002273/3" target="_blank">NZ_CM002273_c3</a>: Streptomyces sp. PVA 94-07 chromosome, whole genome shotgun s... (14% of genes show similarity), t3pks-t1pks-nrps</text>
<line x1="10" y1="85" x2="778.0" y2="85" style="stroke-width:1; stroke:grey; "  />
</g>
<g id="a1_000"  >
<polygon points="0,85 5,80 6,80 6,90 5,90 0,85 " style="fill:#d86315; stroke-width:1; stroke:black; " description="&lt;b&gt;B590_RS01830&lt;/b&gt;&lt;br&gt;hypothetical protein&lt;br&gt;Location: 501604 - 500681&lt;br&gt;&lt;br&gt;&lt;b&gt;BlastP hit with ctg30_5&lt;/b&gt;&lt;br&gt;Percentage identity: 67&lt;br&gt;Percentage coverage: 104&lt;br&gt;BLAST bit score: 304&lt;br&gt;E-value: 1.2e-80" locus_tag="B590_RS01830" class="clusterblast-orf" id="dummy-1_h1_5_0"  />
</g>
<g id="a1_001"  >
<polygon points="8,85 13,80 16,80 16,90 13,90 8,85 " style="fill:#15d815; stroke-width:1; stroke:black; " description="&lt;b&gt;B590_RS01825&lt;/b&gt;&lt;br&gt;ATPase&lt;br&gt;Location: 500453 - 499467&lt;br&gt;&lt;br&gt;&lt;b&gt;BlastP hit with ctg30_7&lt;/b&gt;&lt;br&gt;Percentage identity: 58&lt;br&gt;Percentage coverage: 100&lt;br&gt;BLAST bit score: 286&lt;br&gt;E-value: 4.2e-75" locus_tag="B590_RS01825" class="clusterblast-orf" id="dummy-1_h1_5_1"  />
</g>
<g id="a1_002"  >
<polygon points="17,90 17,90 22,85 17,80 17,80 17,90 " style="fill:#1563d8; stroke-width:1; stroke:black; " description="&lt;b&gt;B590_RS01820&lt;/b&gt;&lt;br&gt;uracil-DNA glycosylase&lt;br&gt;Location: 499277 - 498600&lt;br&gt;&lt;br&gt;&lt;b&gt;BlastP hit with ctg30_8&lt;/b&gt;&lt;br&gt;Percentage identity: 78&lt;br&gt;Percentage coverage: 100&lt;br&gt;BLAST bit score: 365&lt;br&gt;E-value: 4.9e-99" locus_tag="B590_RS01820" class="clusterblast-orf" id="dummy-1_h1_5_2"  />
</g>
<g id="a1_003"  >
<polygon points="23,90 23,90 28,85 23,80 23,80 23,90 " style="fill:white; stroke-width:1; stroke:black; " description="&lt;b&gt;B590_RS01815&lt;/b&gt;&lt;br&gt;DedA family protein&lt;br&gt;Location: 498450 - 497782" locus_tag="B590_RS01815" class="clusterblast-orf" id="dummy-1_h1_5_3"  />
</g>
<g id="a1_004"  >
<polygon points="29,90 33,90 38,85 33,80 29,80 29,90 " style="fill:white; stroke-width:1; stroke:black; " description="&lt;b&gt;B590_RS01810&lt;/b&gt;&lt;br&gt;two-component sensor histidine kinase&lt;br&gt;Location: 497651 - 496483" locus_tag="B590_RS01810" class="clusterblast-orf" id="dummy-1_h1_5_4"  />
</g>
<g id="a1_005"  >
<polygon points="38,90 42,85 38,80 38,90 " style="fill:white; stroke-width:1; stroke:black; " description="&lt;b&gt;B590_RS01805&lt;/b&gt;&lt;br&gt;DNA-binding response regulator&lt;br&gt;Location: 496510 - 495883" locus_tag="B590_RS01805" class="clusterblast-orf" id="dummy-1_h1_5_5"  />
</g>
<g id="a1_006"  >
<polygon points="42,85 47,80 51,80 51,90 47,90 42,85 " style="fill:white; stroke-width:1; stroke:black; " description="&lt;b&gt;B590_RS01800&lt;/b&gt;&lt;br&gt;hypothetical protein&lt;br&gt;Location: 495875 - 494790" locus_tag="B590_RS01800" class="clusterblast-orf" id="dummy-1_h1_5_6"  />
</g>
<g id="a1_007"  >
<polygon points="53,90 58,90 63,85 58,80 53,80 53,90 " style="fill:white; stroke-width:1; stroke:black; " description="&lt;b&gt;B590_RS01795&lt;/b&gt;&lt;br&gt;hypothetical protein&lt;br&gt;Location: 494534 - 493197" locus_tag="B590_RS01795" class="clusterblast-orf" id="dummy-1_h1_5_7"  />
</g>
<g id="a1_008"  >
<polygon points="63,85 68,80 71,80 71,90 68,90 63,85 " style="fill:#d815b1; stroke-width:1; stroke:black; " description="&lt;b&gt;B590_RS01790&lt;/b&gt;&lt;br&gt;NADH:flavin oxidoreductase/NADH oxidase&lt;br&gt;Location: 493171 - 492095&lt;br&gt;&lt;br&gt;&lt;b&gt;BlastP hit with ctg30_9&lt;/b&gt;&lt;br&gt;Percentage identity: 73&lt;br&gt;Percentage coverage: 99&lt;br&gt;BLAST bit score: 537&lt;br&gt;E-value: 8.8e-151" locus_tag="B590_RS01790" class="clusterblast-orf" id="dummy-1_h1_5_8"  />
</g>
<g id="a1_009"  >
<polygon points="72,90 75,85 72,80 72,90 " style="fill:#d8b115; stroke-width:1; stroke:black; " description="&lt;b&gt;B590_RS01785&lt;/b&gt;&lt;br&gt;transcriptional regulator&lt;br&gt;Location: 491939 - 491598&lt;br&gt;&lt;br&gt;&lt;b&gt;BlastP hit with ctg30_10&lt;/b&gt;&lt;br&gt;Percentage identity: 66&lt;br&gt;Percentage coverage: 91&lt;br&gt;BLAST bit score: 141&lt;br&gt;E-value: 6.2e-32" locus_tag="B590_RS01785" class="clusterblast-orf" id="dummy-1_h1_5_9"  />
</g>
<g id="a1_0010"  >
<polygon points="74,85 79,80 84,80 84,90 79,90 74,85 " style="fill:white; stroke-width:1; stroke:black; " description="&lt;b&gt;B590_RS01780&lt;/b&gt;&lt;br&gt;purine permease&lt;br&gt;Location: 491669 - 490272" locus_tag="B590_RS01780" class="clusterblast-orf" id="dummy-1_h1_5_10"  />
</g>
<g id="a1_0011"  >
<polygon points="85,85 90,80 90,80 90,90 90,90 85,85 " style="fill:#15d863; stroke-width:1; stroke:black; " description="&lt;b&gt;B590_RS01775&lt;/b&gt;&lt;br&gt;DUF305 domain-containing protein&lt;br&gt;Location: 490150 - 489488&lt;br&gt;&lt;br&gt;&lt;b&gt;BlastP hit with ctg30_11&lt;/b&gt;&lt;br&gt;Percentage identity: 47&lt;br&gt;Percentage coverage: 93&lt;br&gt;BLAST bit score: 156&lt;br&gt;E-value: 2.7e-36" locus_tag="B590_RS01775" class="clusterblast-orf" id="dummy-1_h1_5_11"  />
</g>
<g id="a1_0012"  >
<polygon points="92,90 98,90 103,85 98,80 92,80 92,90 " style="fill:#1515d8; stroke-width:1; stroke:black; " description="&lt;b&gt;B590_RS01770&lt;/b&gt;&lt;br&gt;hypothetical protein&lt;br&gt;Location: 489318 - 487801&lt;br&gt;&lt;br&gt;&lt;b&gt;BlastP hit with ctg30_13&lt;/b&gt;&lt;br&gt;Percentage identity: 64&lt;br&gt;Percentage coverage: 102&lt;br&gt;BLAST bit score: 640&lt;br&gt;E-value: 1.7e-181" locus_tag="B590_RS01770" class="clusterblast-orf" id="dummy-1_h1_5_12"  />
</g>
<g id="a1_0013"  >
<polygon points="104,90 107,85 104,80 104,90 " style="fill:white; stroke-width:1; stroke:black; " description="&lt;b&gt;B590_RS30575&lt;/b&gt;&lt;br&gt;hypothetical protein&lt;br&gt;Location: 487732 - 487208" locus_tag="B590_RS30575" class="clusterblast-orf" id="dummy-1_h1_5_13"  />
</g>
<g id="a1_0014"  >
<polygon points="108,85 110,80 110,90 108,85 " style="fill:white; stroke-width:1; stroke:black; " description="&lt;b&gt;B590_RS30570&lt;/b&gt;&lt;br&gt;hypothetical protein&lt;br&gt;Location: 487119 - 486880" locus_tag="B590_RS30570" class="clusterblast-orf" id="dummy-1_h1_5_14"  />
</g>
<g id="a1_0015"  >
<polygon points="110,90 110,90 115,85 110,80 110,80 110,90 " style="fill:white; stroke-width:1; stroke:black; " description="&lt;b&gt;B590_RS30565&lt;/b&gt;&lt;br&gt;4'-phosphopantetheinyl transferase&lt;br&gt;Location: 486827 - 486190" locus_tag="B590_RS30565" class="clusterblast-orf" id="dummy-1_h1_5_15"  />
</g>
<g id="a1_0016"  >
<polygon points="115,85 120,80 121,80 121,90 120,90 115,85 " style="fill:white; stroke-width:1; stroke:black; " description="&lt;b&gt;B590_RS01760&lt;/b&gt;&lt;br&gt;thioesterase&lt;br&gt;Location: 486169 - 485345" locus_tag="B590_RS01760" class="clusterblast-orf" id="dummy-1_h1_5_16"  />
</g>
<g id="a1_0017"  >
<polygon points="122,85 127,80 131,80 131,90 127,90 122,85 " style="fill:white; stroke-width:1; stroke:black; " description="&lt;b&gt;B590_RS01755&lt;/b&gt;&lt;br&gt;cytochrome P450&lt;br&gt;Location: 485253 - 484048" locus_tag="B590_RS01755" class="clusterblast-orf" id="dummy-1_h1_5_17"  />
</g>
<g id="a1_0018"  >
<polygon points="133,90 136,90 141,85 136,80 133,80 133,90 " style="fill:white; stroke-width:1; stroke:black; " description="&lt;b&gt;B590_RS01750&lt;/b&gt;&lt;br&gt;scyllo-inosamine-4-phosphate amidinotransferase&lt;br&gt;Location: 483833 - 482682" locus_tag="B590_RS01750" class="clusterblast-orf" id="dummy-1_h1_5_18"  />
</g>
<g id="a1_0019"  >
<polygon points="142,90 285,90 290,85 285,80 142,80 142,90 " style="fill:white; stroke-width:1; stroke:black; " description="&lt;b&gt;B590_RS01745&lt;/b&gt;&lt;br&gt;beta-ketoacyl synthase&lt;br&gt;Location: 482620 - 462881" locus_tag="B590_RS01745" class="clusterblast-orf" id="dummy-1_h1_5_19"  />
</g>
<g id="a1_0020"  >
<polygon points="291,90 297,90 302,85 297,80 291,80 291,90 " style="fill:white; stroke-width:1; stroke:black; " description="&lt;b&gt;B590_RS30555&lt;/b&gt;&lt;br&gt;polyketide synthase&lt;br&gt;Location: 462795 - 461314" locus_tag="B590_RS30555" class="clusterblast-orf" id="dummy-1_h1_5_20"  />
</g>
<g id="a1_0021"  >
<polygon points="304,90 313,90 318,85 313,80 304,80 304,90 " style="fill:white; stroke-width:1; stroke:black; " description="&lt;b&gt;B590_RS31865&lt;/b&gt;&lt;br&gt;polyketide synthase&lt;br&gt;Location: 461061 - 459163" locus_tag="B590_RS31865" class="clusterblast-orf" id="dummy-1_h1_5_21"  />
</g>
<g id="a1_0022"  >
<polygon points="320,90 324,85 320,80 320,90 " style="fill:white; stroke-width:1; stroke:black; " description="&lt;b&gt;B590_RS31860&lt;/b&gt;&lt;br&gt;hypothetical protein&lt;br&gt;Location: 458868 - 458263" locus_tag="B590_RS31860" class="clusterblast-orf" id="dummy-1_h1_5_22"  />
</g>
<g id="a1_0023"  >
<polygon points="329,90 343,90 348,85 343,80 329,80 329,90 " style="fill:white; stroke-width:1; stroke:black; " description="&lt;b&gt;B590_RS31855&lt;/b&gt;&lt;br&gt;hypothetical protein&lt;br&gt;Location: 457620 - 455080" locus_tag="B590_RS31855" class="clusterblast-orf" id="dummy-1_h1_5_23"  />
</g>
<g id="a1_0024"  >
<polygon points="357,90 364,90 369,85 364,80 357,80 357,90 " style="fill:white; stroke-width:1; stroke:black; " description="&lt;b&gt;B590_RS30525&lt;/b&gt;&lt;br&gt;hypothetical protein&lt;br&gt;Location: 453900 - 452302" locus_tag="B590_RS30525" class="clusterblast-orf" id="dummy-1_h1_5_24"  />
</g>
<g id="a1_0025"  >
<polygon points="370,90 374,85 370,80 370,90 " style="fill:white; stroke-width:1; stroke:black; " description="&lt;b&gt;B590_RS30520&lt;/b&gt;&lt;br&gt;hypothetical protein&lt;br&gt;Location: 452166 - 451618" locus_tag="B590_RS30520" class="clusterblast-orf" id="dummy-1_h1_5_25"  />
</g>
<g id="a1_0026"  >
<polygon points="375,85 380,80 383,80 383,90 380,90 375,85 " style="fill:white; stroke-width:1; stroke:black; " description="&lt;b&gt;B590_RS01735&lt;/b&gt;&lt;br&gt;methyltransferase domain-containing protein&lt;br&gt;Location: 451551 - 450502" locus_tag="B590_RS01735" class="clusterblast-orf" id="dummy-1_h1_5_26"  />
</g>
<g id="a1_0027"  >
<polygon points="385,90 520,90 525,85 520,80 385,80 385,90 " style="fill:#d81515; stroke-width:1; stroke:black; " description="&lt;b&gt;B590_RS01730&lt;/b&gt;&lt;br&gt;non-ribosomal peptide synthetase&lt;br&gt;Location: 450206 - 431463&lt;br&gt;&lt;br&gt;&lt;b&gt;BlastP hit with ctg30_1&lt;/b&gt;&lt;br&gt;Percentage identity: 33&lt;br&gt;Percentage coverage: 69&lt;br&gt;BLAST bit score: 1395&lt;br&gt;E-value: 0.0" locus_tag="B590_RS01730" class="clusterblast-orf" id="dummy-1_h1_5_27"  />
</g>
<g id="a1_0028"  >
<polygon points="526,90 530,90 535,85 530,80 526,80 526,90 " style="fill:white; stroke-width:1; stroke:black; " description="&lt;b&gt;B590_RS01725&lt;/b&gt;&lt;br&gt;cytochrome P450&lt;br&gt;Location: 431418 - 430207" locus_tag="B590_RS01725" class="clusterblast-orf" id="dummy-1_h1_5_28"  />
</g>
<g id="a1_0029"  >
<polygon points="536,90 538,90 543,85 538,80 536,80 536,90 " style="fill:white; stroke-width:1; stroke:black; " description="&lt;b&gt;B590_RS01720&lt;/b&gt;&lt;br&gt;sulfotransferase domain-containing protein&lt;br&gt;Location: 430116 - 429184" locus_tag="B590_RS01720" class="clusterblast-orf" id="dummy-1_h1_5_29"  />
</g>
<g id="a1_0030"  >
<polygon points="543,90 545,90 550,85 545,80 543,80 543,90 " style="fill:white; stroke-width:1; stroke:black; " description="&lt;b&gt;B590_RS01715&lt;/b&gt;&lt;br&gt;taurine dioxygenase&lt;br&gt;Location: 429077 - 428217" locus_tag="B590_RS01715" class="clusterblast-orf" id="dummy-1_h1_5_30"  />
</g>
<g id="a1_0031"  >
<polygon points="550,90 554,90 559,85 554,80 550,80 550,90 " style="fill:white; stroke-width:1; stroke:black; " description="&lt;b&gt;B590_RS01710&lt;/b&gt;&lt;br&gt;type III polyketide synthase&lt;br&gt;Location: 428184 - 427042" locus_tag="B590_RS01710" class="clusterblast-orf" id="dummy-1_h1_5_31"  />
</g>
<g id="a1_0032"  >
<polygon points="559,90 559,90 564,85 559,80 559,80 559,90 " style="fill:white; stroke-width:1; stroke:black; " description="&lt;b&gt;B590_RS01705&lt;/b&gt;&lt;br&gt;enoyl-CoA hydratase/isomerase family protein&lt;br&gt;Location: 427021 - 426305" locus_tag="B590_RS01705" class="clusterblast-orf" id="dummy-1_h1_5_32"  />
</g>
<g id="a1_0033"  >
<polygon points="564,90 569,90 574,85 569,80 564,80 564,90 " style="fill:white; stroke-width:1; stroke:black; " description="&lt;b&gt;B590_RS01700&lt;/b&gt;&lt;br&gt;enoyl-CoA hydratase/isomerase family protein&lt;br&gt;Location: 426308 - 424956" locus_tag="B590_RS01700" class="clusterblast-orf" id="dummy-1_h1_5_33"  />
</g>
<g id="a1_0034"  >
<polygon points="574,90 579,90 584,85 579,80 574,80 574,90 " style="fill:white; stroke-width:1; stroke:black; " description="&lt;b&gt;B590_RS01695&lt;/b&gt;&lt;br&gt;PLP-dependent aminotransferase family protein&lt;br&gt;Location: 424959 - 423658" locus_tag="B590_RS01695" class="clusterblast-orf" id="dummy-1_h1_5_34"  />
</g>
<g id="a1_0035"  >
<polygon points="584,90 588,90 593,85 588,80 584,80 584,90 " style="fill:white; stroke-width:1; stroke:black; " description="&lt;b&gt;B590_RS01690&lt;/b&gt;&lt;br&gt;scyllo-inosamine-4-phosphate amidinotransferase&lt;br&gt;Location: 423599 - 422451" locus_tag="B590_RS01690" class="clusterblast-orf" id="dummy-1_h1_5_35"  />
</g>
<g id="a1_0036"  >
<polygon points="594,90 605,90 610,85 605,80 594,80 594,90 " style="fill:white; stroke-width:1; stroke:black; " description="&lt;b&gt;B590_RS30160&lt;/b&gt;&lt;br&gt;non-ribosomal peptide synthetase&lt;br&gt;Location: 422259 - 420217" locus_tag="B590_RS30160" class="clusterblast-orf" id="dummy-1_h1_5_36"  />
</g>
<g id="a1_0037"  >
<polygon points="610,90 613,90 618,85 613,80 610,80 610,90 " style="fill:white; stroke-width:1; stroke:black; " description="&lt;b&gt;B590_RS30515&lt;/b&gt;&lt;br&gt;hypothetical protein&lt;br&gt;Location: 420204 - 419182" locus_tag="B590_RS30515" class="clusterblast-orf" id="dummy-1_h1_5_37"  />
</g>
<g id="a1_0038"  >
<polygon points="618,90 625,90 630,85 625,80 618,80 618,90 " style="fill:white; stroke-width:1; stroke:black; " description="&lt;b&gt;B590_RS01680&lt;/b&gt;&lt;br&gt;amino acid adenylation domain-containing protein&lt;br&gt;Location: 419185 - 417572" locus_tag="B590_RS01680" class="clusterblast-orf" id="dummy-1_h1_5_38"  />
</g>
<g id="a1_0039"  >
<polygon points="630,90 636,90 641,85 636,80 630,80 630,90 " style="fill:white; stroke-width:1; stroke:black; " description="&lt;b&gt;B590_RS01675&lt;/b&gt;&lt;br&gt;argininosuccinate lyase&lt;br&gt;Location: 417546 - 416059" locus_tag="B590_RS01675" class="clusterblast-orf" id="dummy-1_h1_5_39"  />
</g>
<g id="a1_0040"  >
<polygon points="641,90 643,90 648,85 643,80 641,80 641,90 " style="fill:white; stroke-width:1; stroke:black; " description="&lt;b&gt;B590_RS01670&lt;/b&gt;&lt;br&gt;GHMP kinase&lt;br&gt;Location: 416062 - 415160" locus_tag="B590_RS01670" class="clusterblast-orf" id="dummy-1_h1_5_40"  />
</g>
<g id="a1_0041"  >
<polygon points="648,85 653,80 659,80 659,90 653,90 648,85 " style="fill:white; stroke-width:1; stroke:black; " description="&lt;b&gt;B590_RS01665&lt;/b&gt;&lt;br&gt;FAD-dependent oxidoreductase&lt;br&gt;Location: 415141 - 413699" locus_tag="B590_RS01665" class="clusterblast-orf" id="dummy-1_h1_5_41"  />
</g>
<g id="a1_0042"  >
<polygon points="660,85 662,80 662,90 660,85 " style="fill:white; stroke-width:1; stroke:black; " description="&lt;b&gt;B590_RS01660&lt;/b&gt;&lt;br&gt;SnoaL-like polyketide cyclase&lt;br&gt;Location: 413558 - 413187" locus_tag="B590_RS01660" class="clusterblast-orf" id="dummy-1_h1_5_42"  />
</g>
<g id="a1_0043"  >
<polygon points="665,90 667,85 665,80 665,90 " style="fill:white; stroke-width:1; stroke:black; " description="&lt;b&gt;B590_RS01655&lt;/b&gt;&lt;br&gt;MbtH family protein&lt;br&gt;Location: 412833 - 412627" locus_tag="B590_RS01655" class="clusterblast-orf" id="dummy-1_h1_5_43"  />
</g>
<g id="a1_0044"  >
<polygon points="667,90 679,90 684,85 679,80 667,80 667,90 " style="fill:white; stroke-width:1; stroke:black; " description="&lt;b&gt;B590_RS01650&lt;/b&gt;&lt;br&gt;ATP-grasp domain-containing protein&lt;br&gt;Location: 412522 - 410288" locus_tag="B590_RS01650" class="clusterblast-orf" id="dummy-1_h1_5_44"  />
</g>
<g id="a1_0045"  >
<polygon points="686,85 690,80 690,90 686,85 " style="fill:white; stroke-width:1; stroke:black; " description="&lt;b&gt;B590_RS01645&lt;/b&gt;&lt;br&gt;DDE transposase family protein&lt;br&gt;Location: 410067 - 409540" locus_tag="B590_RS01645" class="clusterblast-orf" id="dummy-1_h1_5_45"  />
</g>
<g id="a1_0046"  >
<polygon points="690,85 695,80 708,80 708,90 695,90 690,85 " style="fill:white; stroke-width:1; stroke:black; " description="&lt;b&gt;B590_RS01640&lt;/b&gt;&lt;br&gt;protein kinase/ transcriptional regulator&lt;br&gt;Location: 409517 - 407109" locus_tag="B590_RS01640" class="clusterblast-orf" id="dummy-1_h1_5_46"  />
</g>
<g id="a1_0047"  >
<polygon points="714,85 718,80 718,90 714,85 " style="fill:white; stroke-width:1; stroke:black; " description="&lt;b&gt;B590_RS30510&lt;/b&gt;&lt;br&gt;TetR/AcrR family transcriptional regulator&lt;br&gt;Location: 406365 - 405787" locus_tag="B590_RS30510" class="clusterblast-orf" id="dummy-1_h1_5_47"  />
</g>
<g id="a1_0048"  >
<polygon points="719,90 720,90 725,85 720,80 719,80 719,90 " style="fill:white; stroke-width:1; stroke:black; " description="&lt;b&gt;B590_RS01635&lt;/b&gt;&lt;br&gt;KR domain-containing protein&lt;br&gt;Location: 405690 - 404887" locus_tag="B590_RS01635" class="clusterblast-orf" id="dummy-1_h1_5_48"  />
</g>
<g id="a1_0049"  >
<polygon points="725,90 728,85 725,80 725,90 " style="fill:white; stroke-width:1; stroke:black; " description="&lt;b&gt;B590_RS31850&lt;/b&gt;&lt;br&gt;hypothetical protein&lt;br&gt;Location: 404890 - 404504" locus_tag="B590_RS31850" class="clusterblast-orf" id="dummy-1_h1_5_49"  />
</g>
<g id="a1_0050"  >
<polygon points="727,85 729,80 729,90 727,85 " style="fill:white; stroke-width:1; stroke:black; " description="&lt;b&gt;B590_RS30505&lt;/b&gt;&lt;br&gt;hypothetical protein&lt;br&gt;Location: 404550 - 404250" locus_tag="B590_RS30505" class="clusterblast-orf" id="dummy-1_h1_5_50"  />
</g>
<g id="a1_0051"  >
<polygon points="730,85 735,80 749,80 749,90 735,90 730,85 " style="fill:white; stroke-width:1; stroke:black; " description="&lt;b&gt;B590_RS01630&lt;/b&gt;&lt;br&gt;ABC transporter permease&lt;br&gt;Location: 404213 - 401673" locus_tag="B590_RS01630" class="clusterblast-orf" id="dummy-1_h1_5_51"  />
</g>
<g id="a1_0052"  >
<polygon points="750,85 754,80 754,90 750,85 " style="fill:white; stroke-width:1; stroke:black; " description="&lt;b&gt;B590_RS01625&lt;/b&gt;&lt;br&gt;ABC transporter&lt;br&gt;Location: 401568 - 400994" locus_tag="B590_RS01625" class="clusterblast-orf" id="dummy-1_h1_5_52"  />
</g>
<g id="a1_0053"  >
<polygon points="756,85 758,80 758,90 756,85 " style="fill:white; stroke-width:1; stroke:black; " description="&lt;b&gt;B590_RS01620&lt;/b&gt;&lt;br&gt;hypothetical protein&lt;br&gt;Location: 400758 - 400396" locus_tag="B590_RS01620" class="clusterblast-orf" id="dummy-1_h1_5_53"  />
</g>
<g id="a1_0054"  >
<polygon points="759,85 764,80 764,80 764,90 764,90 759,85 " style="fill:white; stroke-width:1; stroke:black; " description="&lt;b&gt;B590_RS01615&lt;/b&gt;&lt;br&gt;DDE endonuclease&lt;br&gt;Location: 400320 - 399707" locus_tag="B590_RS01615" class="clusterblast-orf" id="dummy-1_h1_5_54"  />
</g>
<g id="a1_0055"  >
<polygon points="763,85 765,80 765,90 763,85 " style="fill:white; stroke-width:1; stroke:black; " description="&lt;b&gt;B590_RS01610&lt;/b&gt;&lt;br&gt;transposase&lt;br&gt;Location: 399797 - 399546" locus_tag="B590_RS01610" class="clusterblast-orf" id="dummy-1_h1_5_55"  />
</g>
<g id="a1_0056"  >
<polygon points="765,90 767,85 765,80 765,90 " style="fill:white; stroke-width:1; stroke:black; " description="&lt;b&gt;B590_RS01605&lt;/b&gt;&lt;br&gt;IS630 family transposase&lt;br&gt;Location: 399548 - 399194" locus_tag="B590_RS01605" class="clusterblast-orf" id="dummy-1_h1_5_56"  />
</g>
<g id="a1_0057"  >
<polygon points="769,90 771,85 769,80 769,90 " style="fill:white; stroke-width:1; stroke:black; " description="&lt;b&gt;B590_RS01600&lt;/b&gt;&lt;br&gt;DUF2630 domain-containing protein&lt;br&gt;Location: 399006 - 398761" locus_tag="B590_RS01600" class="clusterblast-orf" id="dummy-1_h1_5_57"  />
</g>
<g id="a1_0058"  >
<polygon points="771,85 776,80 776,80 776,90 776,90 771,85 " style="fill:#b1d815; stroke-width:1; stroke:black; " description="&lt;b&gt;B590_RS01595&lt;/b&gt;&lt;br&gt;hydrolase&lt;br&gt;Location: 398773 - 398051&lt;br&gt;&lt;br&gt;&lt;b&gt;BlastP hit with ctg30_15&lt;/b&gt;&lt;br&gt;Percentage identity: 59&lt;br&gt;Percentage coverage: 101&lt;br&gt;BLAST bit score: 272&lt;br&gt;E-value: 5.8e-71" locus_tag="B590_RS01595" class="clusterblast-orf" id="dummy-1_h1_5_58"  />
</g>
<g id="a1_0059"  >
<polygon points="776,85 778,80 778,90 776,85 " style="fill:white; stroke-width:1; stroke:black; " description="&lt;b&gt;B590_RS31845&lt;/b&gt;&lt;br&gt;hypothetical protein&lt;br&gt;Location: 398001 - 397795" locus_tag="B590_RS31845" class="clusterblast-orf" id="dummy-1_h1_5_59"  />
</g>
<g id="a1_0060"  >
<polygon points="779,85 780,80 780,90 779,85 " style="fill:white; stroke-width:1; stroke:black; " description="&lt;b&gt;B590_RS31840&lt;/b&gt;&lt;br&gt;PE-PGRS family protein&lt;br&gt;Location: 397688 - 397581" locus_tag="B590_RS31840" class="clusterblast-orf" id="dummy-1_h1_5_60"  />
</g>
</svg>
