<svg xmlns="http://www.w3.org/2000/svg" xmlns:xlink="http://www.w3.org/1999/xlink" version="1.1" x="0" y="0" height="230" width="800" viewBox="0 0 800 230" preserveAspectRatio="none"  >
<g label="Query sequence" class="clusterblast-cluster"  >
<text x="5" y="20" class="clusterblast-acc"  >
Query sequence</text>
<line x1="10" y1="35" x2="778.0" y2="35" style="stroke-width:1; stroke:grey; "  />
<polygon points="233,40 234,35 233,30 233,40 " style="fill:#d81515; stroke-width:1; stroke:black; " description="&lt;b&gt;ctg14_1&lt;/b&gt;&lt;br&gt;ctg14 1&lt;br&gt;Location: 2 - 119" locus_tag="ctg14_1" class="clusterblast-orf" id="dummy-1_q0_0_all"  />
<polygon points="234,35 239,30 246,30 246,40 239,40 234,35 " style="fill:#77d815; stroke-width:1; stroke:black; " description="&lt;b&gt;ctg14_2&lt;/b&gt;&lt;br&gt;ctg14 2&lt;br&gt;Location: 186 - 1635" locus_tag="ctg14_2" class="clusterblast-orf" id="dummy-1_q1_0_all"  />
<polygon points="247,40 252,40 257,35 252,30 247,30 247,40 " style="fill:#15d8d8; stroke-width:1; stroke:black; " description="&lt;b&gt;ctg14_3&lt;/b&gt;&lt;br&gt;ctg14 3&lt;br&gt;Location: 1828 - 3061" locus_tag="ctg14_3" class="clusterblast-orf" id="dummy-1_q2_0_all"  />
<polygon points="257,40 260,35 257,30 257,40 " style="fill:#7715d8; stroke-width:1; stroke:black; " description="&lt;b&gt;ctg14_4&lt;/b&gt;&lt;br&gt;ctg14 4&lt;br&gt;Location: 3057 - 3471" locus_tag="ctg14_4" class="clusterblast-orf" id="dummy-1_q3_0_all"  />
<polygon points="260,35 265,30 266,30 266,40 265,40 260,35 " style="fill:#7715d8; stroke-width:1; stroke:black; " description="&lt;b&gt;ctg14_5&lt;/b&gt;&lt;br&gt;ctg14 5&lt;br&gt;Location: 3481 - 4162" locus_tag="ctg14_5" class="clusterblast-orf" id="dummy-1_q4_0_all"  />
<polygon points="270,40 271,40 276,35 271,30 270,30 270,40 " style="fill:#7715d8; stroke-width:1; stroke:black; " description="&lt;b&gt;ctg14_6&lt;/b&gt;&lt;br&gt;ctg14 6&lt;br&gt;Location: 4786 - 5452" locus_tag="ctg14_6" class="clusterblast-orf" id="dummy-1_q5_0_all"  />
<polygon points="277,40 278,40 283,35 278,30 277,30 277,40 " style="fill:#d83f15; stroke-width:1; stroke:black; " description="&lt;b&gt;ctg14_7&lt;/b&gt;&lt;br&gt;ctg14 7&lt;br&gt;Location: 5599 - 6319" locus_tag="ctg14_7" class="clusterblast-orf" id="dummy-1_q6_0_all"  />
<polygon points="283,40 287,40 292,35 287,30 283,30 283,40 " style="fill:#4dd815; stroke-width:1; stroke:black; " description="&lt;b&gt;ctg14_8&lt;/b&gt;&lt;br&gt;ctg14 8&lt;br&gt;Location: 6315 - 7548" locus_tag="ctg14_8" class="clusterblast-orf" id="dummy-1_q7_0_all"  />
<polygon points="292,40 292,40 297,35 292,30 292,30 292,40 " style="fill:#15aed8; stroke-width:1; stroke:black; " description="&lt;b&gt;ctg14_9&lt;/b&gt;&lt;br&gt;ctg14 9&lt;br&gt;Location: 7535 - 8180" locus_tag="ctg14_9" class="clusterblast-orf" id="dummy-1_q8_0_all"  />
<polygon points="297,40 299,40 304,35 299,30 297,30 297,40 " style="fill:#a115d8; stroke-width:1; stroke:black; " description="&lt;b&gt;ctg14_10&lt;/b&gt;&lt;br&gt;ctg14 10&lt;br&gt;Location: 8176 - 8989" locus_tag="ctg14_10" class="clusterblast-orf" id="dummy-1_q9_0_all"  />
<polygon points="305,40 312,40 317,35 312,30 305,30 305,40 " style="fill:#d86915; stroke-width:1; stroke:black; " description="&lt;b&gt;ctg14_11&lt;/b&gt;&lt;br&gt;ctg14 11&lt;br&gt;Location: 9218 - 10688" locus_tag="ctg14_11" class="clusterblast-orf" id="dummy-1_q10_0_all"  />
<polygon points="318,40 320,40 325,35 320,30 318,30 318,40 " style="fill:#23d815; stroke-width:1; stroke:black; " description="&lt;b&gt;ctg14_12&lt;/b&gt;&lt;br&gt;ctg14 12&lt;br&gt;Location: 10766 - 11747" locus_tag="ctg14_12" class="clusterblast-orf" id="dummy-1_q11_0_all"  />
<polygon points="325,40 330,40 335,35 330,30 325,30 325,40 " style="fill:#1585d8; stroke-width:1; stroke:black; " description="&lt;b&gt;ctg14_13&lt;/b&gt;&lt;br&gt;ctg14 13&lt;br&gt;Location: 11757 - 13005" locus_tag="ctg14_13" class="clusterblast-orf" id="dummy-1_q12_0_all"  />
<polygon points="336,35 340,30 340,40 336,35 " style="fill:#ca15d8; stroke-width:1; stroke:black; " description="&lt;b&gt;ctg14_14&lt;/b&gt;&lt;br&gt;ctg14 14&lt;br&gt;Location: 13041 - 13641" locus_tag="ctg14_14" class="clusterblast-orf" id="dummy-1_q13_0_all"  />
<polygon points="342,35 344,30 344,40 342,35 " style="fill:#d89315; stroke-width:1; stroke:black; " description="&lt;b&gt;ctg14_15&lt;/b&gt;&lt;br&gt;ctg14 15&lt;br&gt;Location: 13871 - 14120" locus_tag="ctg14_15" class="clusterblast-orf" id="dummy-1_q14_0_all"  />
<polygon points="344,35 349,30 352,30 352,40 349,40 344,35 " style="fill:#15d831; stroke-width:1; stroke:black; " description="&lt;b&gt;ctg14_16&lt;/b&gt;&lt;br&gt;ctg14 16&lt;br&gt;Location: 14152 - 15067" locus_tag="ctg14_16" class="clusterblast-orf" id="dummy-1_q15_0_all"  />
<polygon points="352,35 357,30 361,30 361,40 357,40 352,35 " style="fill:#155bd8; stroke-width:1; stroke:black; " description="&lt;b&gt;ctg14_17&lt;/b&gt;&lt;br&gt;ctg14 17&lt;br&gt;Location: 15063 - 16251" locus_tag="ctg14_17" class="clusterblast-orf" id="dummy-1_q16_0_all"  />
<polygon points="361,35 362,30 362,40 361,35 " style="fill:white; stroke-width:1; stroke:black; " description="&lt;b&gt;ctg14_18&lt;/b&gt;&lt;br&gt;ctg14 18&lt;br&gt;Location: 16256 - 16418" locus_tag="ctg14_18" class="clusterblast-orf" id="dummy-1_q17_0_all"  />
<polygon points="365,40 373,40 378,35 373,30 365,30 365,40 " style="fill:#d815bc; stroke-width:1; stroke:black; " description="&lt;b&gt;ctg14_19&lt;/b&gt;&lt;br&gt;ctg14 19&lt;br&gt;Location: 16709 - 18401" locus_tag="ctg14_19" class="clusterblast-orf" id="dummy-1_q18_0_all"  />
<polygon points="378,40 447,40 452,35 447,30 378,30 378,40 " style="fill:#d8bc15; stroke-width:1; stroke:black; " description="&lt;b&gt;ctg14_20&lt;/b&gt;&lt;br&gt;ctg14 20&lt;br&gt;Location: 18381 - 27747" locus_tag="ctg14_20" class="clusterblast-orf" id="dummy-1_q19_0_all"  />
<polygon points="452,40 453,40 458,35 453,30 452,30 452,40 " style="fill:#15d85b; stroke-width:1; stroke:black; " description="&lt;b&gt;ctg14_21&lt;/b&gt;&lt;br&gt;ctg14 21&lt;br&gt;Location: 27749 - 28601" locus_tag="ctg14_21" class="clusterblast-orf" id="dummy-1_q20_0_all"  />
<polygon points="459,40 461,35 459,30 459,40 " style="fill:#1531d8; stroke-width:1; stroke:black; " description="&lt;b&gt;ctg14_22&lt;/b&gt;&lt;br&gt;ctg14 22&lt;br&gt;Location: 28647 - 28914" locus_tag="ctg14_22" class="clusterblast-orf" id="dummy-1_q21_0_all"  />
<polygon points="461,40 465,40 470,35 465,30 461,30 461,40 " style="fill:#d81593; stroke-width:1; stroke:black; " description="&lt;b&gt;ctg14_23&lt;/b&gt;&lt;br&gt;ctg14 23&lt;br&gt;Location: 28910 - 30050" locus_tag="ctg14_23" class="clusterblast-orf" id="dummy-1_q22_0_all"  />
<polygon points="470,40 473,40 478,35 473,30 470,30 470,40 " style="fill:#cad815; stroke-width:1; stroke:black; " description="&lt;b&gt;ctg14_24&lt;/b&gt;&lt;br&gt;ctg14 24&lt;br&gt;Location: 30046 - 31087" locus_tag="ctg14_24" class="clusterblast-orf" id="dummy-1_q23_0_all"  />
<polygon points="478,40 481,40 486,35 481,30 478,30 478,40 " style="fill:#15d885; stroke-width:1; stroke:black; " description="&lt;b&gt;ctg14_25&lt;/b&gt;&lt;br&gt;ctg14 25&lt;br&gt;Location: 31119 - 32100" locus_tag="ctg14_25" class="clusterblast-orf" id="dummy-1_q24_0_all"  />
<polygon points="486,40 487,40 492,35 487,30 486,30 486,40 " style="fill:#2315d8; stroke-width:1; stroke:black; " description="&lt;b&gt;ctg14_26&lt;/b&gt;&lt;br&gt;ctg14 26&lt;br&gt;Location: 32101 - 32866" locus_tag="ctg14_26" class="clusterblast-orf" id="dummy-1_q25_0_all"  />
<polygon points="492,40 493,40 498,35 493,30 492,30 492,40 " style="fill:#d81569; stroke-width:1; stroke:black; " description="&lt;b&gt;ctg14_27&lt;/b&gt;&lt;br&gt;ctg14 27&lt;br&gt;Location: 32862 - 33636" locus_tag="ctg14_27" class="clusterblast-orf" id="dummy-1_q26_0_all"  />
<polygon points="498,40 506,40 511,35 506,30 498,30 498,40 " style="fill:#a1d815; stroke-width:1; stroke:black; " description="&lt;b&gt;ctg14_28&lt;/b&gt;&lt;br&gt;ctg14 28&lt;br&gt;Location: 33628 - 35236" locus_tag="ctg14_28" class="clusterblast-orf" id="dummy-1_q27_0_all"  />
<polygon points="511,40 511,40 516,35 511,30 511,30 511,40 " style="fill:#15d8ae; stroke-width:1; stroke:black; " description="&lt;b&gt;ctg14_29&lt;/b&gt;&lt;br&gt;ctg14 29&lt;br&gt;Location: 35232 - 35937" locus_tag="ctg14_29" class="clusterblast-orf" id="dummy-1_q28_0_all"  />
<polygon points="516,40 521,40 526,35 521,30 516,30 516,40 " style="fill:#15d8ae; stroke-width:1; stroke:black; " description="&lt;b&gt;ctg14_30&lt;/b&gt;&lt;br&gt;ctg14 30&lt;br&gt;Location: 35933 - 37217" locus_tag="ctg14_30" class="clusterblast-orf" id="dummy-1_q29_0_all"  />
<polygon points="527,40 532,40 537,35 532,30 527,30 527,40 " style="fill:#4d15d8; stroke-width:1; stroke:black; " description="&lt;b&gt;ctg14_31&lt;/b&gt;&lt;br&gt;ctg14 31&lt;br&gt;Location: 37290 - 38529" locus_tag="ctg14_31" class="clusterblast-orf" id="dummy-1_q30_0_all"  />
<polygon points="536,35 541,30 546,30 546,40 541,40 536,35 " style="fill:#d8153f; stroke-width:1; stroke:black; " description="&lt;b&gt;ctg14_32&lt;/b&gt;&lt;br&gt;ctg14 32&lt;br&gt;Location: 38461 - 39754" locus_tag="ctg14_32" class="clusterblast-orf" id="dummy-1_q31_0_all"  />
</g>
<g label="NZ_LFBV01000003" description="NZ_LFBV01000003_c22: Streptomyces uncialis strain DCA2648 scaffold3, whole ge... (11% of genes show similarity), t1pks-lassopeptide-nrps" class="clusterblast-cluster"  >
<text x="5" y="70" class="clusterblast-acc"  >
<a xlink:href="https://antismash-db.secondarymetabolites.org/go/NZ_LFBV01000003/22" target="_blank">NZ_LFBV01000003_c22</a>: Streptomyces uncialis strain DCA2648 scaffold3, whole ge... (11% of genes show similarity), t1pks-lassopeptide-nrps</text>
<line x1="10" y1="85" x2="778.0" y2="85" style="stroke-width:1; stroke:grey; "  />
</g>
<g id="a1_000"  >
<polygon points="0,85 5,80 14,80 14,90 5,90 0,85 " style="fill:white; stroke-width:1; stroke:black; " description="&lt;b&gt;AB852_RS16145&lt;/b&gt;&lt;br&gt;ABC transporter ATP-binding protein&lt;br&gt;Location: 517150 - 515339" locus_tag="AB852_RS16145" class="clusterblast-orf" id="dummy-1_h1_10_0"  />
</g>
<g id="a1_001"  >
<polygon points="14,85 19,80 28,80 28,90 19,90 14,85 " style="fill:white; stroke-width:1; stroke:black; " description="&lt;b&gt;AB852_RS16140&lt;/b&gt;&lt;br&gt;ABC transporter ATP-binding protein&lt;br&gt;Location: 515342 - 513513" locus_tag="AB852_RS16140" class="clusterblast-orf" id="dummy-1_h1_10_1"  />
</g>
<g id="a1_002"  >
<polygon points="30,90 33,90 38,85 33,80 30,80 30,90 " style="fill:white; stroke-width:1; stroke:black; " description="&lt;b&gt;AB852_RS16135&lt;/b&gt;&lt;br&gt;ABC transporter substrate-binding protein&lt;br&gt;Location: 513301 - 512300" locus_tag="AB852_RS16135" class="clusterblast-orf" id="dummy-1_h1_10_2"  />
</g>
<g id="a1_003"  >
<polygon points="38,90 40,90 45,85 40,80 38,80 38,90 " style="fill:white; stroke-width:1; stroke:black; " description="&lt;b&gt;AB852_RS16130&lt;/b&gt;&lt;br&gt;siderophore-interacting protein&lt;br&gt;Location: 512292 - 511363" locus_tag="AB852_RS16130" class="clusterblast-orf" id="dummy-1_h1_10_3"  />
</g>
<g id="a1_004"  >
<polygon points="45,90 49,90 54,85 49,80 45,80 45,90 " style="fill:white; stroke-width:1; stroke:black; " description="&lt;b&gt;AB852_RS16125&lt;/b&gt;&lt;br&gt;ABC transporter permease&lt;br&gt;Location: 511357 - 510293" locus_tag="AB852_RS16125" class="clusterblast-orf" id="dummy-1_h1_10_4"  />
</g>
<g id="a1_005"  >
<polygon points="55,90 58,90 63,85 58,80 55,80 55,90 " style="fill:white; stroke-width:1; stroke:black; " description="&lt;b&gt;AB852_RS16120&lt;/b&gt;&lt;br&gt;iron-enterobactin ABC transporter permease&lt;br&gt;Location: 510167 - 509133" locus_tag="AB852_RS16120" class="clusterblast-orf" id="dummy-1_h1_10_5"  />
</g>
<g id="a1_006"  >
<polygon points="63,90 65,90 70,85 65,80 63,80 63,90 " style="fill:white; stroke-width:1; stroke:black; " description="&lt;b&gt;AB852_RS16115&lt;/b&gt;&lt;br&gt;ABC transporter ATP-binding protein&lt;br&gt;Location: 509080 - 508244" locus_tag="AB852_RS16115" class="clusterblast-orf" id="dummy-1_h1_10_6"  />
</g>
<g id="a1_007"  >
<polygon points="70,85 75,80 96,80 96,90 75,90 70,85 " style="fill:white; stroke-width:1; stroke:black; " description="&lt;b&gt;AB852_RS16110&lt;/b&gt;&lt;br&gt;AfsR/SARP family transcriptional regulator&lt;br&gt;Location: 508216 - 504890" locus_tag="AB852_RS16110" class="clusterblast-orf" id="dummy-1_h1_10_7"  />
</g>
<g id="a1_008"  >
<polygon points="100,90 107,90 112,85 107,80 100,80 100,90 " style="fill:white; stroke-width:1; stroke:black; " description="&lt;b&gt;AB852_RS16105&lt;/b&gt;&lt;br&gt;MFS transporter&lt;br&gt;Location: 504459 - 502933" locus_tag="AB852_RS16105" class="clusterblast-orf" id="dummy-1_h1_10_8"  />
</g>
<g id="a1_009"  >
<polygon points="114,85 118,80 118,90 114,85 " style="fill:white; stroke-width:1; stroke:black; " description="&lt;b&gt;AB852_RS16100&lt;/b&gt;&lt;br&gt;AraC family transcriptional regulator&lt;br&gt;Location: 502655 - 502161" locus_tag="AB852_RS16100" class="clusterblast-orf" id="dummy-1_h1_10_9"  />
</g>
<g id="a1_0010"  >
<polygon points="120,85 125,80 127,80 127,90 125,90 120,85 " style="fill:white; stroke-width:1; stroke:black; " description="&lt;b&gt;AB852_RS16095&lt;/b&gt;&lt;br&gt;methionyl-tRNA formyltransferase&lt;br&gt;Location: 501941 - 500994" locus_tag="AB852_RS16095" class="clusterblast-orf" id="dummy-1_h1_10_10"  />
</g>
<g id="a1_0011"  >
<polygon points="129,90 135,90 140,85 135,80 129,80 129,90 " style="fill:white; stroke-width:1; stroke:black; " description="&lt;b&gt;AB852_RS16090&lt;/b&gt;&lt;br&gt;L-lysine 6-monooxygenase&lt;br&gt;Location: 500741 - 499389" locus_tag="AB852_RS16090" class="clusterblast-orf" id="dummy-1_h1_10_11"  />
</g>
<g id="a1_0012"  >
<polygon points="140,90 142,85 140,80 140,90 " style="fill:white; stroke-width:1; stroke:black; " description="&lt;b&gt;AB852_RS16085&lt;/b&gt;&lt;br&gt;MbtH family protein&lt;br&gt;Location: 499324 - 499112" locus_tag="AB852_RS16085" class="clusterblast-orf" id="dummy-1_h1_10_12"  />
</g>
<g id="a1_0013"  >
<polygon points="143,90 145,85 143,80 143,90 " style="fill:white; stroke-width:1; stroke:black; " description="&lt;b&gt;AB852_RS16080&lt;/b&gt;&lt;br&gt;hypothetical protein&lt;br&gt;Location: 498984 - 498757" locus_tag="AB852_RS16080" class="clusterblast-orf" id="dummy-1_h1_10_13"  />
</g>
<g id="a1_0014"  >
<polygon points="146,85 147,80 147,90 146,85 " style="fill:white; stroke-width:1; stroke:black; " description="&lt;b&gt;AB852_RS16075&lt;/b&gt;&lt;br&gt;DNA mismatch repair protein MutT&lt;br&gt;Location: 498645 - 498460" locus_tag="AB852_RS16075" class="clusterblast-orf" id="dummy-1_h1_10_14"  />
</g>
<g id="a1_0015"  >
<polygon points="150,90 153,85 150,80 150,90 " style="fill:white; stroke-width:1; stroke:black; " description="&lt;b&gt;AB852_RS16070&lt;/b&gt;&lt;br&gt;hydroxyisourate hydrolase&lt;br&gt;Location: 498075 - 497746" locus_tag="AB852_RS16070" class="clusterblast-orf" id="dummy-1_h1_10_15"  />
</g>
<g id="a1_0016"  >
<polygon points="155,90 217,90 222,85 217,80 155,80 155,90 " style="fill:white; stroke-width:1; stroke:black; " description="&lt;b&gt;AB852_RS16065&lt;/b&gt;&lt;br&gt;KR domain-containing protein&lt;br&gt;Location: 497508 - 488985" locus_tag="AB852_RS16065" class="clusterblast-orf" id="dummy-1_h1_10_16"  />
</g>
<g id="a1_0017"  >
<polygon points="222,90 261,90 266,85 261,80 222,80 222,90 " style="fill:white; stroke-width:1; stroke:black; " description="&lt;b&gt;AB852_RS16060&lt;/b&gt;&lt;br&gt;KR domain-containing protein&lt;br&gt;Location: 488897 - 483441" locus_tag="AB852_RS16060" class="clusterblast-orf" id="dummy-1_h1_10_17"  />
</g>
<g id="a1_0018"  >
<polygon points="266,90 334,90 339,85 334,80 266,80 266,90 " style="fill:#d8bc15; stroke-width:1; stroke:black; " description="&lt;b&gt;AB852_RS37875&lt;/b&gt;&lt;br&gt;KR domain-containing protein&lt;br&gt;Location: 483399 - 474196&lt;br&gt;&lt;br&gt;&lt;b&gt;BlastP hit with ctg14_20&lt;/b&gt;&lt;br&gt;Percentage identity: 41&lt;br&gt;Percentage coverage: 102&lt;br&gt;BLAST bit score: 1808&lt;br&gt;E-value: 0.0" locus_tag="AB852_RS37875" class="clusterblast-orf" id="dummy-1_h1_10_18"  />
</g>
<g id="a1_0019"  >
<polygon points="339,90 341,90 346,85 341,80 339,80 339,90 " style="fill:#15d85b; stroke-width:1; stroke:black; " description="&lt;b&gt;AB852_RS16015&lt;/b&gt;&lt;br&gt;3-hydroxybutyryl-CoA dehydrogenase&lt;br&gt;Location: 474140 - 473295&lt;br&gt;&lt;br&gt;&lt;b&gt;BlastP hit with ctg14_21&lt;/b&gt;&lt;br&gt;Percentage identity: 57&lt;br&gt;Percentage coverage: 99&lt;br&gt;BLAST bit score: 332&lt;br&gt;E-value: 3.4e-89" locus_tag="AB852_RS16015" class="clusterblast-orf" id="dummy-1_h1_10_19"  />
</g>
<g id="a1_0020"  >
<polygon points="346,90 348,85 346,80 346,90 " style="fill:#1531d8; stroke-width:1; stroke:black; " description="&lt;b&gt;AB852_RS16010&lt;/b&gt;&lt;br&gt;acyl carrier protein&lt;br&gt;Location: 473283 - 473020&lt;br&gt;&lt;br&gt;&lt;b&gt;BlastP hit with ctg14_22&lt;/b&gt;&lt;br&gt;Percentage identity: 53&lt;br&gt;Percentage coverage: 88&lt;br&gt;BLAST bit score: 87&lt;br&gt;E-value: 7.7e-16" locus_tag="AB852_RS16010" class="clusterblast-orf" id="dummy-1_h1_10_20"  />
</g>
<g id="a1_0021"  >
<polygon points="348,90 352,90 357,85 352,80 348,80 348,90 " style="fill:#d81593; stroke-width:1; stroke:black; " description="&lt;b&gt;AB852_RS16005&lt;/b&gt;&lt;br&gt;acyl-CoA dehydrogenase&lt;br&gt;Location: 473023 - 471869&lt;br&gt;&lt;br&gt;&lt;b&gt;BlastP hit with ctg14_23&lt;/b&gt;&lt;br&gt;Percentage identity: 49&lt;br&gt;Percentage coverage: 99&lt;br&gt;BLAST bit score: 321&lt;br&gt;E-value: 1e-85" locus_tag="AB852_RS16005" class="clusterblast-orf" id="dummy-1_h1_10_21"  />
</g>
<g id="a1_0022"  >
<polygon points="357,90 360,90 365,85 360,80 357,80 357,90 " style="fill:#cad815; stroke-width:1; stroke:black; " description="&lt;b&gt;AB852_RS16000&lt;/b&gt;&lt;br&gt;HAD-IIIC family phosphatase&lt;br&gt;Location: 471872 - 470793&lt;br&gt;&lt;br&gt;&lt;b&gt;BlastP hit with ctg14_24&lt;/b&gt;&lt;br&gt;Percentage identity: 60&lt;br&gt;Percentage coverage: 98&lt;br&gt;BLAST bit score: 403&lt;br&gt;E-value: 1.9e-110" locus_tag="AB852_RS16000" class="clusterblast-orf" id="dummy-1_h1_10_22"  />
</g>
<g id="a1_0023"  >
<polygon points="365,90 366,90 371,85 366,80 365,80 365,90 " style="fill:#2315d8; stroke-width:1; stroke:black; " description="&lt;b&gt;AB852_RS15995&lt;/b&gt;&lt;br&gt;thioesterase&lt;br&gt;Location: 470796 - 470035&lt;br&gt;&lt;br&gt;&lt;b&gt;BlastP hit with ctg14_26&lt;/b&gt;&lt;br&gt;Percentage identity: 42&lt;br&gt;Percentage coverage: 95&lt;br&gt;BLAST bit score: 183&lt;br&gt;E-value: 2.3e-44" locus_tag="AB852_RS15995" class="clusterblast-orf" id="dummy-1_h1_10_23"  />
</g>
<g id="a1_0024"  >
<polygon points="372,85 377,80 381,80 381,90 377,90 372,85 " style="fill:white; stroke-width:1; stroke:black; " description="&lt;b&gt;AB852_RS15990&lt;/b&gt;&lt;br&gt;acyl-CoA dehydrogenase&lt;br&gt;Location: 469975 - 468815" locus_tag="AB852_RS15990" class="clusterblast-orf" id="dummy-1_h1_10_24"  />
</g>
<g id="a1_0025"  >
<polygon points="381,85 386,80 410,80 410,90 386,90 381,85 " style="fill:white; stroke-width:1; stroke:black; " description="&lt;b&gt;AB852_RS15985&lt;/b&gt;&lt;br&gt;hypothetical protein&lt;br&gt;Location: 468818 - 465132" locus_tag="AB852_RS15985" class="clusterblast-orf" id="dummy-1_h1_10_25"  />
</g>
<g id="a1_0026"  >
<polygon points="412,85 417,80 433,80 433,90 417,90 412,85 " style="fill:white; stroke-width:1; stroke:black; " description="&lt;b&gt;AB852_RS15980&lt;/b&gt;&lt;br&gt;hypothetical protein&lt;br&gt;Location: 464923 - 462278" locus_tag="AB852_RS15980" class="clusterblast-orf" id="dummy-1_h1_10_26"  />
</g>
<g id="a1_0027"  >
<polygon points="429,90 429,90 434,85 429,80 429,80 429,90 " style="fill:white; stroke-width:1; stroke:black; " description="&lt;b&gt;AB852_RS15975&lt;/b&gt;&lt;br&gt;hypothetical protein&lt;br&gt;Location: 462706 - 462113" locus_tag="AB852_RS15975" class="clusterblast-orf" id="dummy-1_h1_10_27"  />
</g>
<g id="a1_0028"  >
<polygon points="434,90 438,90 443,85 438,80 434,80 434,90 " style="fill:white; stroke-width:1; stroke:black; " description="&lt;b&gt;AB852_RS15970&lt;/b&gt;&lt;br&gt;hypothetical protein&lt;br&gt;Location: 462116 - 460980" locus_tag="AB852_RS15970" class="clusterblast-orf" id="dummy-1_h1_10_28"  />
</g>
<g id="a1_0029"  >
<polygon points="444,85 449,80 450,80 450,90 449,90 444,85 " style="fill:white; stroke-width:1; stroke:black; " description="&lt;b&gt;AB852_RS15965&lt;/b&gt;&lt;br&gt;ABC transporter permease&lt;br&gt;Location: 460896 - 460111" locus_tag="AB852_RS15965" class="clusterblast-orf" id="dummy-1_h1_10_29"  />
</g>
<g id="a1_0030"  >
<polygon points="449,85 454,80 456,80 456,90 454,90 449,85 " style="fill:white; stroke-width:1; stroke:black; " description="&lt;b&gt;AB852_RS15960&lt;/b&gt;&lt;br&gt;ABC transporter ATP-binding protein&lt;br&gt;Location: 460151 - 459318" locus_tag="AB852_RS15960" class="clusterblast-orf" id="dummy-1_h1_10_30"  />
</g>
<g id="a1_0031"  >
<polygon points="456,85 461,80 466,80 466,90 461,90 456,85 " style="fill:white; stroke-width:1; stroke:black; " description="&lt;b&gt;AB852_RS15955&lt;/b&gt;&lt;br&gt;pyridoxal-dependent decarboxylase, exosortase A system-associated&lt;br&gt;Location: 459286 - 458093" locus_tag="AB852_RS15955" class="clusterblast-orf" id="dummy-1_h1_10_31"  />
</g>
<g id="a1_0032"  >
<polygon points="466,85 471,80 478,80 478,90 471,90 466,85 " style="fill:white; stroke-width:1; stroke:black; " description="&lt;b&gt;AB852_RS15950&lt;/b&gt;&lt;br&gt;acyl-CoA ligase (AMP-forming), exosortase A system-associated&lt;br&gt;Location: 458069 - 456504" locus_tag="AB852_RS15950" class="clusterblast-orf" id="dummy-1_h1_10_32"  />
</g>
<g id="a1_0033"  >
<polygon points="478,85 480,80 480,90 478,85 " style="fill:white; stroke-width:1; stroke:black; " description="&lt;b&gt;AB852_RS15945&lt;/b&gt;&lt;br&gt;phosphopantetheine-binding protein&lt;br&gt;Location: 456511 - 456251" locus_tag="AB852_RS15945" class="clusterblast-orf" id="dummy-1_h1_10_33"  />
</g>
<g id="a1_0034"  >
<polygon points="482,90 486,90 491,85 486,80 482,80 482,90 " style="fill:white; stroke-width:1; stroke:black; " description="&lt;b&gt;AB852_RS15940&lt;/b&gt;&lt;br&gt;LuxR family transcriptional regulator&lt;br&gt;Location: 455957 - 454941" locus_tag="AB852_RS15940" class="clusterblast-orf" id="dummy-1_h1_10_34"  />
</g>
<g id="a1_0035"  >
<polygon points="491,90 492,90 497,85 492,80 491,80 491,90 " style="fill:white; stroke-width:1; stroke:black; " description="&lt;b&gt;AB852_RS15935&lt;/b&gt;&lt;br&gt;hypothetical protein&lt;br&gt;Location: 454934 - 454101" locus_tag="AB852_RS15935" class="clusterblast-orf" id="dummy-1_h1_10_35"  />
</g>
<g id="a1_0036"  >
<polygon points="497,85 502,80 508,80 508,90 502,90 497,85 " style="fill:white; stroke-width:1; stroke:black; " description="&lt;b&gt;AB852_RS15930&lt;/b&gt;&lt;br&gt;hypothetical protein&lt;br&gt;Location: 454062 - 452683" locus_tag="AB852_RS15930" class="clusterblast-orf" id="dummy-1_h1_10_36"  />
</g>
<g id="a1_0037"  >
<polygon points="509,85 514,80 515,80 515,90 514,90 509,85 " style="fill:white; stroke-width:1; stroke:black; " description="&lt;b&gt;AB852_RS15925&lt;/b&gt;&lt;br&gt;haloacid dehalogenase&lt;br&gt;Location: 452551 - 451829" locus_tag="AB852_RS15925" class="clusterblast-orf" id="dummy-1_h1_10_37"  />
</g>
<g id="a1_0038"  >
<polygon points="515,85 520,80 528,80 528,90 520,90 515,85 " style="fill:white; stroke-width:1; stroke:black; " description="&lt;b&gt;AB852_RS15920&lt;/b&gt;&lt;br&gt;hypothetical protein&lt;br&gt;Location: 451829 - 450147" locus_tag="AB852_RS15920" class="clusterblast-orf" id="dummy-1_h1_10_38"  />
</g>
<g id="a1_0039"  >
<polygon points="536,90 538,85 536,80 536,90 " style="fill:white; stroke-width:1; stroke:black; " description="&lt;b&gt;AB852_RS15915&lt;/b&gt;&lt;br&gt;acyl carrier protein&lt;br&gt;Location: 449165 - 448908" locus_tag="AB852_RS15915" class="clusterblast-orf" id="dummy-1_h1_10_39"  />
</g>
<g id="a1_0040"  >
<polygon points="538,90 541,90 546,85 541,80 538,80 538,90 " style="fill:white; stroke-width:1; stroke:black; " description="&lt;b&gt;AB852_RS15910&lt;/b&gt;&lt;br&gt;3-oxoacyl-ACP synthase&lt;br&gt;Location: 448864 - 447914" locus_tag="AB852_RS15910" class="clusterblast-orf" id="dummy-1_h1_10_40"  />
</g>
<g id="a1_0041"  >
<polygon points="547,90 548,90 553,85 548,80 547,80 547,90 " style="fill:white; stroke-width:1; stroke:black; " description="&lt;b&gt;AB852_RS15905&lt;/b&gt;&lt;br&gt;hypothetical protein&lt;br&gt;Location: 447828 - 447034" locus_tag="AB852_RS15905" class="clusterblast-orf" id="dummy-1_h1_10_41"  />
</g>
<g id="a1_0042"  >
<polygon points="558,90 577,90 582,85 577,80 558,80 558,90 " style="fill:white; stroke-width:1; stroke:black; " description="&lt;b&gt;AB852_RS15900&lt;/b&gt;&lt;br&gt;hypothetical protein&lt;br&gt;Location: 446421 - 443377" locus_tag="AB852_RS15900" class="clusterblast-orf" id="dummy-1_h1_10_42"  />
</g>
<g id="a1_0043"  >
<polygon points="583,90 586,85 583,80 583,90 " style="fill:white; stroke-width:1; stroke:black; " description="&lt;b&gt;AB852_RS15895&lt;/b&gt;&lt;br&gt;hypothetical protein&lt;br&gt;Location: 443219 - 442887" locus_tag="AB852_RS15895" class="clusterblast-orf" id="dummy-1_h1_10_43"  />
</g>
<g id="a1_0044"  >
<polygon points="586,90 588,85 586,80 586,90 " style="fill:white; stroke-width:1; stroke:black; " description="&lt;b&gt;AB852_RS38640&lt;/b&gt;&lt;br&gt;hypothetical protein&lt;br&gt;Location: 442863 - 442636" locus_tag="AB852_RS38640" class="clusterblast-orf" id="dummy-1_h1_10_44"  />
</g>
<g id="a1_0045"  >
<polygon points="587,85 592,80 594,80 594,90 592,90 587,85 " style="fill:white; stroke-width:1; stroke:black; " description="&lt;b&gt;AB852_RS15890&lt;/b&gt;&lt;br&gt;ABC transporter&lt;br&gt;Location: 442652 - 441783" locus_tag="AB852_RS15890" class="clusterblast-orf" id="dummy-1_h1_10_45"  />
</g>
<g id="a1_0046"  >
<polygon points="594,85 599,80 602,80 602,90 599,90 594,85 " style="fill:white; stroke-width:1; stroke:black; " description="&lt;b&gt;AB852_RS15885&lt;/b&gt;&lt;br&gt;ABC transporter ATP-binding protein&lt;br&gt;Location: 441779 - 440796" locus_tag="AB852_RS15885" class="clusterblast-orf" id="dummy-1_h1_10_46"  />
</g>
<g id="a1_0047"  >
<polygon points="602,85 606,80 606,90 602,85 " style="fill:white; stroke-width:1; stroke:black; " description="&lt;b&gt;AB852_RS15880&lt;/b&gt;&lt;br&gt;lasso peptide biosynthesis B2 protein&lt;br&gt;Location: 440799 - 440371" locus_tag="AB852_RS15880" class="clusterblast-orf" id="dummy-1_h1_10_47"  />
</g>
<g id="a1_0048"  >
<polygon points="605,85 608,80 608,90 605,85 " style="fill:white; stroke-width:1; stroke:black; " description="&lt;b&gt;AB852_RS15875&lt;/b&gt;&lt;br&gt;lasso peptide biosynthesis PqqD family chaperone&lt;br&gt;Location: 440374 - 440114" locus_tag="AB852_RS15875" class="clusterblast-orf" id="dummy-1_h1_10_48"  />
</g>
<g id="a1_0049"  >
<polygon points="608,85 613,80 622,80 622,90 613,90 608,85 " style="fill:white; stroke-width:1; stroke:black; " description="&lt;b&gt;AB852_RS15870&lt;/b&gt;&lt;br&gt;asparagine synthetase B family protein&lt;br&gt;Location: 440117 - 438240" locus_tag="AB852_RS15870" class="clusterblast-orf" id="dummy-1_h1_10_49"  />
</g>
<g id="a1_0050"  >
<polygon points="623,85 624,80 624,90 623,85 " style="fill:white; stroke-width:1; stroke:black; " description="&lt;b&gt;AB852_RS38635&lt;/b&gt;&lt;br&gt;putative RiPP precursor&lt;br&gt;Location: 438110 - 437979" locus_tag="AB852_RS38635" class="clusterblast-orf" id="dummy-1_h1_10_50"  />
</g>
<g id="a1_0051"  >
<polygon points="626,90 628,90 633,85 628,80 626,80 626,90 " style="fill:white; stroke-width:1; stroke:black; " description="&lt;b&gt;AB852_RS38630&lt;/b&gt;&lt;br&gt;hypothetical protein&lt;br&gt;Location: 437744 - 436929" locus_tag="AB852_RS38630" class="clusterblast-orf" id="dummy-1_h1_10_51"  />
</g>
<g id="a1_0052"  >
<polygon points="633,85 638,80 639,80 639,90 638,90 633,85 " style="fill:white; stroke-width:1; stroke:black; " description="&lt;b&gt;AB852_RS15855&lt;/b&gt;&lt;br&gt;ABC transporter permease&lt;br&gt;Location: 436876 - 436103" locus_tag="AB852_RS15855" class="clusterblast-orf" id="dummy-1_h1_10_52"  />
</g>
<g id="a1_0053"  >
<polygon points="639,85 644,80 647,80 647,90 644,90 639,85 " style="fill:white; stroke-width:1; stroke:black; " description="&lt;b&gt;AB852_RS15850&lt;/b&gt;&lt;br&gt;multidrug ABC transporter ATP-binding protein&lt;br&gt;Location: 436100 - 435138" locus_tag="AB852_RS15850" class="clusterblast-orf" id="dummy-1_h1_10_53"  />
</g>
<g id="a1_0054"  >
<polygon points="648,90 653,90 658,85 653,80 648,80 648,90 " style="fill:#15d8d8; stroke-width:1; stroke:black; " description="&lt;b&gt;AB852_RS15845&lt;/b&gt;&lt;br&gt;sensor histidine kinase&lt;br&gt;Location: 435005 - 433758&lt;br&gt;&lt;br&gt;&lt;b&gt;BlastP hit with ctg14_3&lt;/b&gt;&lt;br&gt;Percentage identity: 34&lt;br&gt;Percentage coverage: 94&lt;br&gt;BLAST bit score: 128&lt;br&gt;E-value: 2.4e-27" locus_tag="AB852_RS15845" class="clusterblast-orf" id="dummy-1_h1_10_54"  />
</g>
<g id="a1_0055"  >
<polygon points="658,90 658,90 663,85 658,80 658,80 658,90 " style="fill:#7715d8; stroke-width:1; stroke:black; " description="&lt;b&gt;AB852_RS15840&lt;/b&gt;&lt;br&gt;DNA-binding response regulator&lt;br&gt;Location: 433761 - 433075&lt;br&gt;&lt;br&gt;&lt;b&gt;BlastP hit with ctg14_4&lt;/b&gt;&lt;br&gt;Percentage identity: 41&lt;br&gt;Percentage coverage: 88&lt;br&gt;BLAST bit score: 82&lt;br&gt;E-value: 3.9e-14&lt;br&gt;&lt;br&gt;&lt;b&gt;BlastP hit with ctg14_5&lt;/b&gt;&lt;br&gt;Percentage identity: 45&lt;br&gt;Percentage coverage: 100&lt;br&gt;BLAST bit score: 166&lt;br&gt;E-value: 3.4e-39" locus_tag="AB852_RS15840" class="clusterblast-orf" id="dummy-1_h1_10_55"  />
</g>
<g id="a1_0056"  >
<polygon points="663,85 668,80 668,80 668,90 668,90 663,85 " style="fill:white; stroke-width:1; stroke:black; " description="&lt;b&gt;AB852_RS15835&lt;/b&gt;&lt;br&gt;DNA-binding response regulator&lt;br&gt;Location: 433067 - 432396" locus_tag="AB852_RS15835" class="clusterblast-orf" id="dummy-1_h1_10_56"  />
</g>
<g id="a1_0057"  >
<polygon points="668,85 673,80 678,80 678,90 673,90 668,85 " style="fill:white; stroke-width:1; stroke:black; " description="&lt;b&gt;AB852_RS15830&lt;/b&gt;&lt;br&gt;hypothetical protein&lt;br&gt;Location: 432399 - 431170" locus_tag="AB852_RS15830" class="clusterblast-orf" id="dummy-1_h1_10_57"  />
</g>
<g id="a1_0058"  >
<polygon points="684,90 687,90 692,85 687,80 684,80 684,90 " style="fill:white; stroke-width:1; stroke:black; " description="&lt;b&gt;AB852_RS15825&lt;/b&gt;&lt;br&gt;ABC transporter substrate-binding protein&lt;br&gt;Location: 430449 - 429463" locus_tag="AB852_RS15825" class="clusterblast-orf" id="dummy-1_h1_10_58"  />
</g>
<g id="a1_0059"  >
<polygon points="692,90 695,90 700,85 695,80 692,80 692,90 " style="fill:white; stroke-width:1; stroke:black; " description="&lt;b&gt;AB852_RS15820&lt;/b&gt;&lt;br&gt;iron ABC transporter permease&lt;br&gt;Location: 429397 - 428435" locus_tag="AB852_RS15820" class="clusterblast-orf" id="dummy-1_h1_10_59"  />
</g>
<g id="a1_0060"  >
<polygon points="700,90 703,90 708,85 703,80 700,80 700,90 " style="fill:white; stroke-width:1; stroke:black; " description="&lt;b&gt;AB852_RS15815&lt;/b&gt;&lt;br&gt;enterobactin ABC transporter permease&lt;br&gt;Location: 428442 - 427396" locus_tag="AB852_RS15815" class="clusterblast-orf" id="dummy-1_h1_10_60"  />
</g>
<g id="a1_0061"  >
<polygon points="708,90 709,90 714,85 709,80 708,80 708,90 " style="fill:white; stroke-width:1; stroke:black; " description="&lt;b&gt;AB852_RS15810&lt;/b&gt;&lt;br&gt;iron ABC transporter ATP-binding protein&lt;br&gt;Location: 427399 - 426641" locus_tag="AB852_RS15810" class="clusterblast-orf" id="dummy-1_h1_10_61"  />
</g>
<g id="a1_0062"  >
<polygon points="715,85 720,80 724,80 724,90 720,90 715,85 " style="fill:white; stroke-width:1; stroke:black; " description="&lt;b&gt;AB852_RS15805&lt;/b&gt;&lt;br&gt;alanine dehydrogenase&lt;br&gt;Location: 426496 - 425339" locus_tag="AB852_RS15805" class="clusterblast-orf" id="dummy-1_h1_10_62"  />
</g>
<g id="a1_0063"  >
<polygon points="726,85 731,80 733,80 733,90 731,90 726,85 " style="fill:white; stroke-width:1; stroke:black; " description="&lt;b&gt;AB852_RS15800&lt;/b&gt;&lt;br&gt;cation transporter&lt;br&gt;Location: 425149 - 424169" locus_tag="AB852_RS15800" class="clusterblast-orf" id="dummy-1_h1_10_63"  />
</g>
<g id="a1_0064"  >
<polygon points="734,85 736,80 736,90 734,85 " style="fill:white; stroke-width:1; stroke:black; " description="&lt;b&gt;AB852_RS15795&lt;/b&gt;&lt;br&gt;hypothetical protein&lt;br&gt;Location: 424069 - 423824" locus_tag="AB852_RS15795" class="clusterblast-orf" id="dummy-1_h1_10_64"  />
</g>
<g id="a1_0065"  >
<polygon points="738,85 743,80 743,80 743,90 743,90 738,85 " style="fill:white; stroke-width:1; stroke:black; " description="&lt;b&gt;AB852_RS15790&lt;/b&gt;&lt;br&gt;pyridoxamine 5'-phosphate oxidase family protein&lt;br&gt;Location: 423626 - 422946" locus_tag="AB852_RS15790" class="clusterblast-orf" id="dummy-1_h1_10_65"  />
</g>
<g id="a1_0066"  >
<polygon points="745,85 750,80 751,80 751,90 750,90 745,85 " style="fill:white; stroke-width:1; stroke:black; " description="&lt;b&gt;AB852_RS15785&lt;/b&gt;&lt;br&gt;restriction endonuclease&lt;br&gt;Location: 422733 - 421930" locus_tag="AB852_RS15785" class="clusterblast-orf" id="dummy-1_h1_10_66"  />
</g>
<g id="a1_0067"  >
<polygon points="753,85 755,80 755,90 753,85 " style="fill:white; stroke-width:1; stroke:black; " description="&lt;b&gt;AB852_RS15780&lt;/b&gt;&lt;br&gt;PRC domain containing protein&lt;br&gt;Location: 421732 - 421385" locus_tag="AB852_RS15780" class="clusterblast-orf" id="dummy-1_h1_10_67"  />
</g>
<g id="a1_0068"  >
<polygon points="757,85 759,80 759,90 757,85 " style="fill:white; stroke-width:1; stroke:black; " description="&lt;b&gt;AB852_RS15775&lt;/b&gt;&lt;br&gt;hypothetical protein&lt;br&gt;Location: 421133 - 420951" locus_tag="AB852_RS15775" class="clusterblast-orf" id="dummy-1_h1_10_68"  />
</g>
<g id="a1_0069"  >
<polygon points="760,85 765,80 780,80 780,90 765,90 760,85 " style="fill:white; stroke-width:1; stroke:black; " description="&lt;b&gt;AB852_RS15770&lt;/b&gt;&lt;br&gt;ANTAR domain-containing protein&lt;br&gt;Location: 420764 - 418326" locus_tag="AB852_RS15770" class="clusterblast-orf" id="dummy-1_h1_10_69"  />
</g>
</svg>
