<svg xmlns="http://www.w3.org/2000/svg" xmlns:xlink="http://www.w3.org/1999/xlink" version="1.1" x="0" y="0" height="230" width="800" viewBox="0 0 800 230" preserveAspectRatio="none"  >
<g label="Query sequence" class="clusterblast-cluster"  >
<text x="5" y="20" class="clusterblast-acc"  >
Query sequence</text>
<line x1="10" y1="35" x2="778.0" y2="35" style="stroke-width:1; stroke:grey; "  />
<polygon points="45,40 65,40 70,35 65,30 45,30 45,40 " style="fill:#d81515; stroke-width:1; stroke:black; " description="&lt;b&gt;ctg39_1&lt;/b&gt;&lt;br&gt;ctg39 1&lt;br&gt;Location: 2 - 641" locus_tag="ctg39_1" class="clusterblast-orf" id="dummy-1_q0_0_all"  />
<polygon points="71,40 75,40 80,35 75,30 71,30 71,40 " style="fill:#77d815; stroke-width:1; stroke:black; " description="&lt;b&gt;ctg39_2&lt;/b&gt;&lt;br&gt;ctg39 2&lt;br&gt;Location: 664 - 877" locus_tag="ctg39_2" class="clusterblast-orf" id="dummy-1_q1_0_all"  />
<polygon points="81,35 86,30 115,30 115,40 86,40 81,35 " style="fill:#15d8d8; stroke-width:1; stroke:black; " description="&lt;b&gt;ctg39_3&lt;/b&gt;&lt;br&gt;ctg39 3&lt;br&gt;Location: 917 - 1754" locus_tag="ctg39_3" class="clusterblast-orf" id="dummy-1_q2_0_all"  />
<polygon points="115,35 120,30 156,30 156,40 120,40 115,35 " style="fill:#7715d8; stroke-width:1; stroke:black; " description="&lt;b&gt;ctg39_4&lt;/b&gt;&lt;br&gt;ctg39 4&lt;br&gt;Location: 1750 - 2785" locus_tag="ctg39_4" class="clusterblast-orf" id="dummy-1_q3_0_all"  />
<polygon points="158,35 163,30 192,30 192,40 163,40 158,35 " style="fill:#d85e15; stroke-width:1; stroke:black; " description="&lt;b&gt;ctg39_5&lt;/b&gt;&lt;br&gt;ctg39 5&lt;br&gt;Location: 2836 - 3700" locus_tag="ctg39_5" class="clusterblast-orf" id="dummy-1_q4_0_all"  />
<polygon points="202,40 237,40 242,35 237,30 202,30 202,40 " style="fill:#2ed815; stroke-width:1; stroke:black; " description="&lt;b&gt;ctg39_6&lt;/b&gt;&lt;br&gt;ctg39 6&lt;br&gt;Location: 3933 - 4938" locus_tag="ctg39_6" class="clusterblast-orf" id="dummy-1_q5_0_all"  />
<polygon points="248,40 279,40 284,35 279,30 248,30 248,40 " style="fill:#158fd8; stroke-width:1; stroke:black; " description="&lt;b&gt;ctg39_7&lt;/b&gt;&lt;br&gt;ctg39 7&lt;br&gt;Location: 5099 - 5999" locus_tag="ctg39_7" class="clusterblast-orf" id="dummy-1_q6_0_all"  />
<polygon points="286,40 304,40 309,35 304,30 286,30 286,40 " style="fill:#c015d8; stroke-width:1; stroke:black; " description="&lt;b&gt;ctg39_8&lt;/b&gt;&lt;br&gt;ctg39 8&lt;br&gt;Location: 6054 - 6639" locus_tag="ctg39_8" class="clusterblast-orf" id="dummy-1_q7_0_all"  />
<polygon points="312,35 316,30 316,40 312,35 " style="fill:white; stroke-width:1; stroke:black; " description="&lt;b&gt;ctg39_9&lt;/b&gt;&lt;br&gt;ctg39 9&lt;br&gt;Location: 6695 - 6806" locus_tag="ctg39_9" class="clusterblast-orf" id="dummy-1_q8_0_all"  />
<polygon points="316,40 355,40 360,35 355,30 316,30 316,40 " style="fill:#d8a715; stroke-width:1; stroke:black; " description="&lt;b&gt;ctg39_10&lt;/b&gt;&lt;br&gt;ctg39 10&lt;br&gt;Location: 6815 - 7913" locus_tag="ctg39_10" class="clusterblast-orf" id="dummy-1_q9_0_all"  />
<polygon points="358,35 363,30 421,30 421,40 363,40 358,35 " style="fill:#15d846; stroke-width:1; stroke:black; " description="&lt;b&gt;ctg39_11&lt;/b&gt;&lt;br&gt;ctg39 11&lt;br&gt;Location: 7866 - 9432" locus_tag="ctg39_11" class="clusterblast-orf" id="dummy-1_q10_0_all"  />
<polygon points="421,35 426,30 446,30 446,40 426,40 421,35 " style="fill:#1546d8; stroke-width:1; stroke:black; " description="&lt;b&gt;ctg39_12&lt;/b&gt;&lt;br&gt;ctg39 12&lt;br&gt;Location: 9428 - 10058" locus_tag="ctg39_12" class="clusterblast-orf" id="dummy-1_q11_0_all"  />
<polygon points="445,35 450,30 461,30 461,40 450,40 445,35 " style="fill:#d815a7; stroke-width:1; stroke:black; " description="&lt;b&gt;ctg39_13&lt;/b&gt;&lt;br&gt;ctg39 13&lt;br&gt;Location: 10038 - 10437" locus_tag="ctg39_13" class="clusterblast-orf" id="dummy-1_q12_0_all"  />
<polygon points="461,35 466,30 477,30 477,40 466,40 461,35 " style="fill:#c0d815; stroke-width:1; stroke:black; " description="&lt;b&gt;ctg39_14&lt;/b&gt;&lt;br&gt;ctg39 14&lt;br&gt;Location: 10433 - 10844" locus_tag="ctg39_14" class="clusterblast-orf" id="dummy-1_q13_0_all"  />
<polygon points="478,35 483,30 536,30 536,40 483,40 478,35 " style="fill:#15d88f; stroke-width:1; stroke:black; " description="&lt;b&gt;ctg39_15&lt;/b&gt;&lt;br&gt;ctg39 15&lt;br&gt;Location: 10868 - 12326" locus_tag="ctg39_15" class="clusterblast-orf" id="dummy-1_q14_0_all"  />
<polygon points="544,35 549,30 551,30 551,40 549,40 544,35 " style="fill:white; stroke-width:1; stroke:black; " description="&lt;b&gt;ctg39_16&lt;/b&gt;&lt;br&gt;ctg39 16&lt;br&gt;Location: 12510 - 12690" locus_tag="ctg39_16" class="clusterblast-orf" id="dummy-1_q15_0_all"  />
<polygon points="560,40 609,40 614,35 609,30 560,30 560,40 " style="fill:#2e15d8; stroke-width:1; stroke:black; " description="&lt;b&gt;ctg39_17&lt;/b&gt;&lt;br&gt;ctg39 17&lt;br&gt;Location: 12934 - 14275" locus_tag="ctg39_17" class="clusterblast-orf" id="dummy-1_q16_0_all"  />
<polygon points="614,40 730,40 735,35 730,30 614,30 614,40 " style="fill:#d8155e; stroke-width:1; stroke:black; " description="&lt;b&gt;ctg39_18&lt;/b&gt;&lt;br&gt;ctg39 18&lt;br&gt;Location: 14271 - 17310" locus_tag="ctg39_18" class="clusterblast-orf" id="dummy-1_q17_0_all"  />
</g>
<g label="NZ_JOIG01000007" description="NZ_JOIG01000007_c15: Streptomyces sp. NRRL F-2890 contig7.1, whole genome sho... (78% of genes show similarity), terpene" class="clusterblast-cluster"  >
<text x="5" y="70" class="clusterblast-acc"  >
<a xlink:href="https://antismash-db.secondarymetabolites.org/go/NZ_JOIG01000007/15" target="_blank">NZ_JOIG01000007_c15</a>: Streptomyces sp. NRRL F-2890 contig7.1, whole genome sho... (78% of genes show similarity), terpene</text>
<line x1="10" y1="85" x2="778.0" y2="85" style="stroke-width:1; stroke:grey; "  />
</g>
<g id="a1_000"  >
<polygon points="0,85 5,80 26,80 26,90 5,90 0,85 " style="fill:white; stroke-width:1; stroke:black; " description="&lt;b&gt;IF79_RS0118890&lt;/b&gt;&lt;br&gt;heme oxygenase&lt;br&gt;Location: 402617 - 401958" locus_tag="IF79_RS0118890" class="clusterblast-orf" id="dummy-1_h1_2_0"  />
</g>
<g id="a1_001"  >
<polygon points="31,85 36,80 65,80 65,90 36,90 31,85 " style="fill:white; stroke-width:1; stroke:black; " description="&lt;b&gt;IF79_RS0118885&lt;/b&gt;&lt;br&gt;type I methionyl aminopeptidase&lt;br&gt;Location: 401839 - 400973" locus_tag="IF79_RS0118885" class="clusterblast-orf" id="dummy-1_h1_2_1"  />
</g>
<g id="a1_002"  >
<polygon points="66,90 71,90 76,85 71,80 66,80 66,90 " style="fill:white; stroke-width:1; stroke:black; " description="&lt;b&gt;IF79_RS0118880&lt;/b&gt;&lt;br&gt;hypothetical protein&lt;br&gt;Location: 400939 - 400688" locus_tag="IF79_RS0118880" class="clusterblast-orf" id="dummy-1_h1_2_2"  />
</g>
<g id="a1_003"  >
<polygon points="82,90 105,90 110,85 105,80 82,80 82,90 " style="fill:#d81515; stroke-width:1; stroke:black; " description="&lt;b&gt;IF79_RS0118875&lt;/b&gt;&lt;br&gt;NADPH-dependent F420 reductase&lt;br&gt;Location: 400546 - 399836&lt;br&gt;&lt;br&gt;&lt;b&gt;BlastP hit with ctg39_1&lt;/b&gt;&lt;br&gt;Percentage identity: 94&lt;br&gt;Percentage coverage: 100&lt;br&gt;BLAST bit score: 387&lt;br&gt;E-value: 8.7e-106" locus_tag="IF79_RS0118875" class="clusterblast-orf" id="dummy-1_h1_2_3"  />
</g>
<g id="a1_004"  >
<polygon points="111,90 116,90 121,85 116,80 111,80 111,90 " style="fill:white; stroke-width:1; stroke:black; " description="&lt;b&gt;IF79_RS27995&lt;/b&gt;&lt;br&gt;hypothetical protein&lt;br&gt;Location: 399812 - 399579" locus_tag="IF79_RS27995" class="clusterblast-orf" id="dummy-1_h1_2_4"  />
</g>
<g id="a1_005"  >
<polygon points="122,85 127,80 156,80 156,90 127,90 122,85 " style="fill:#15d8d8; stroke-width:1; stroke:black; " description="&lt;b&gt;IF79_RS0118865&lt;/b&gt;&lt;br&gt;ABC transporter permease&lt;br&gt;Location: 399538 - 398687&lt;br&gt;&lt;br&gt;&lt;b&gt;BlastP hit with ctg39_3&lt;/b&gt;&lt;br&gt;Percentage identity: 88&lt;br&gt;Percentage coverage: 102&lt;br&gt;BLAST bit score: 464&lt;br&gt;E-value: 7.3e-129" locus_tag="IF79_RS0118865" class="clusterblast-orf" id="dummy-1_h1_2_5"  />
</g>
<g id="a1_006"  >
<polygon points="156,85 161,80 197,80 197,90 161,90 156,85 " style="fill:#7715d8; stroke-width:1; stroke:black; " description="&lt;b&gt;IF79_RS0118860&lt;/b&gt;&lt;br&gt;DrrA-related ABC transporter ATP-binding protein&lt;br&gt;Location: 398690 - 397671&lt;br&gt;&lt;br&gt;&lt;b&gt;BlastP hit with ctg39_4&lt;/b&gt;&lt;br&gt;Percentage identity: 91&lt;br&gt;Percentage coverage: 98&lt;br&gt;BLAST bit score: 596&lt;br&gt;E-value: 2.6e-168" locus_tag="IF79_RS0118860" class="clusterblast-orf" id="dummy-1_h1_2_6"  />
</g>
<g id="a1_007"  >
<polygon points="200,85 205,80 235,80 235,90 205,90 200,85 " style="fill:#d85e15; stroke-width:1; stroke:black; " description="&lt;b&gt;IF79_RS0118855&lt;/b&gt;&lt;br&gt;3-methyl-2-oxobutanoate hydroxymethyltransferase&lt;br&gt;Location: 397583 - 396702&lt;br&gt;&lt;br&gt;&lt;b&gt;BlastP hit with ctg39_5&lt;/b&gt;&lt;br&gt;Percentage identity: 94&lt;br&gt;Percentage coverage: 102&lt;br&gt;BLAST bit score: 536&lt;br&gt;E-value: 1.6e-150" locus_tag="IF79_RS0118855" class="clusterblast-orf" id="dummy-1_h1_2_7"  />
</g>
<g id="a1_008"  >
<polygon points="245,90 280,90 285,85 280,80 245,80 245,90 " style="fill:#2ed815; stroke-width:1; stroke:black; " description="&lt;b&gt;IF79_RS0118850&lt;/b&gt;&lt;br&gt;membrane protein&lt;br&gt;Location: 396469 - 395456&lt;br&gt;&lt;br&gt;&lt;b&gt;BlastP hit with ctg39_6&lt;/b&gt;&lt;br&gt;Percentage identity: 86&lt;br&gt;Percentage coverage: 101&lt;br&gt;BLAST bit score: 567&lt;br&gt;E-value: 9.7e-160" locus_tag="IF79_RS0118850" class="clusterblast-orf" id="dummy-1_h1_2_8"  />
</g>
<g id="a1_009"  >
<polygon points="292,90 322,90 327,85 322,80 292,80 292,90 " style="fill:#158fd8; stroke-width:1; stroke:black; " description="&lt;b&gt;IF79_RS0118845&lt;/b&gt;&lt;br&gt;zinc metalloprotease HtpX&lt;br&gt;Location: 395287 - 394394&lt;br&gt;&lt;br&gt;&lt;b&gt;BlastP hit with ctg39_7&lt;/b&gt;&lt;br&gt;Percentage identity: 93&lt;br&gt;Percentage coverage: 100&lt;br&gt;BLAST bit score: 539&lt;br&gt;E-value: 3.3e-151" locus_tag="IF79_RS0118845" class="clusterblast-orf" id="dummy-1_h1_2_9"  />
</g>
<g id="a1_0010"  >
<polygon points="329,90 348,90 353,85 348,80 329,80 329,90 " style="fill:#c015d8; stroke-width:1; stroke:black; " description="&lt;b&gt;IF79_RS0118840&lt;/b&gt;&lt;br&gt;hypothetical protein&lt;br&gt;Location: 394343 - 393759&lt;br&gt;&lt;br&gt;&lt;b&gt;BlastP hit with ctg39_8&lt;/b&gt;&lt;br&gt;Percentage identity: 94&lt;br&gt;Percentage coverage: 100&lt;br&gt;BLAST bit score: 387&lt;br&gt;E-value: 8e-106" locus_tag="IF79_RS0118840" class="clusterblast-orf" id="dummy-1_h1_2_10"  />
</g>
<g id="a1_0011"  >
<polygon points="361,90 398,90 403,85 398,80 361,80 361,90 " style="fill:#d8a715; stroke-width:1; stroke:black; " description="&lt;b&gt;IF79_RS0118830&lt;/b&gt;&lt;br&gt;hypothetical protein&lt;br&gt;Location: 393540 - 392491&lt;br&gt;&lt;br&gt;&lt;b&gt;BlastP hit with ctg39_10&lt;/b&gt;&lt;br&gt;Percentage identity: 86&lt;br&gt;Percentage coverage: 96&lt;br&gt;BLAST bit score: 614&lt;br&gt;E-value: 7.5e-174" locus_tag="IF79_RS0118830" class="clusterblast-orf" id="dummy-1_h1_2_11"  />
</g>
<g id="a1_0012"  >
<polygon points="401,85 406,80 457,80 457,90 406,90 401,85 " style="fill:#15d846; stroke-width:1; stroke:black; " description="&lt;b&gt;IF79_RS0118825&lt;/b&gt;&lt;br&gt;cytochrome P450&lt;br&gt;Location: 392537 - 391134&lt;br&gt;&lt;br&gt;&lt;b&gt;BlastP hit with ctg39_11&lt;/b&gt;&lt;br&gt;Percentage identity: 89&lt;br&gt;Percentage coverage: 90&lt;br&gt;BLAST bit score: 850&lt;br&gt;E-value: 8.9e-245" locus_tag="IF79_RS0118825" class="clusterblast-orf" id="dummy-1_h1_2_12"  />
</g>
<g id="a1_0013"  >
<polygon points="462,85 467,80 488,80 488,90 467,90 462,85 " style="fill:#1546d8; stroke-width:1; stroke:black; " description="&lt;b&gt;IF79_RS0118820&lt;/b&gt;&lt;br&gt;ATP-binding protein&lt;br&gt;Location: 391005 - 390367&lt;br&gt;&lt;br&gt;&lt;b&gt;BlastP hit with ctg39_12&lt;/b&gt;&lt;br&gt;Percentage identity: 96&lt;br&gt;Percentage coverage: 101&lt;br&gt;BLAST bit score: 398&lt;br&gt;E-value: 3.7e-109" locus_tag="IF79_RS0118820" class="clusterblast-orf" id="dummy-1_h1_2_13"  />
</g>
<g id="a1_0014"  >
<polygon points="487,85 492,80 503,80 503,90 492,90 487,85 " style="fill:#d815a7; stroke-width:1; stroke:black; " description="&lt;b&gt;IF79_RS0118815&lt;/b&gt;&lt;br&gt;DUF742 domain-containing protein&lt;br&gt;Location: 390386 - 389988&lt;br&gt;&lt;br&gt;&lt;b&gt;BlastP hit with ctg39_13&lt;/b&gt;&lt;br&gt;Percentage identity: 97&lt;br&gt;Percentage coverage: 86&lt;br&gt;BLAST bit score: 215&lt;br&gt;E-value: 4.8e-54" locus_tag="IF79_RS0118815" class="clusterblast-orf" id="dummy-1_h1_2_14"  />
</g>
<g id="a1_0015"  >
<polygon points="503,85 508,80 518,80 518,90 508,90 503,85 " style="fill:#c0d815; stroke-width:1; stroke:black; " description="&lt;b&gt;IF79_RS0118810&lt;/b&gt;&lt;br&gt;roadblock/LC7 domain-containing protein&lt;br&gt;Location: 389991 - 389602&lt;br&gt;&lt;br&gt;&lt;b&gt;BlastP hit with ctg39_14&lt;/b&gt;&lt;br&gt;Percentage identity: 96&lt;br&gt;Percentage coverage: 95&lt;br&gt;BLAST bit score: 240&lt;br&gt;E-value: 1.1e-61" locus_tag="IF79_RS0118810" class="clusterblast-orf" id="dummy-1_h1_2_15"  />
</g>
<g id="a1_0016"  >
<polygon points="520,85 525,80 593,80 593,90 525,90 520,85 " style="fill:#15d88f; stroke-width:1; stroke:black; " description="&lt;b&gt;IF79_RS0118805&lt;/b&gt;&lt;br&gt;hypothetical protein&lt;br&gt;Location: 389556 - 387739&lt;br&gt;&lt;br&gt;&lt;b&gt;BlastP hit with ctg39_15&lt;/b&gt;&lt;br&gt;Percentage identity: 90&lt;br&gt;Percentage coverage: 100&lt;br&gt;BLAST bit score: 807&lt;br&gt;E-value: 6.2e-232" locus_tag="IF79_RS0118805" class="clusterblast-orf" id="dummy-1_h1_2_16"  />
</g>
<g id="a1_0017"  >
<polygon points="604,90 653,90 658,85 653,80 604,80 604,90 " style="fill:#2e15d8; stroke-width:1; stroke:black; " description="&lt;b&gt;IF79_RS0118800&lt;/b&gt;&lt;br&gt;glutamine synthetase&lt;br&gt;Location: 387449 - 386088&lt;br&gt;&lt;br&gt;&lt;b&gt;BlastP hit with ctg39_17&lt;/b&gt;&lt;br&gt;Percentage identity: 98&lt;br&gt;Percentage coverage: 100&lt;br&gt;BLAST bit score: 902&lt;br&gt;E-value: 1.7e-260" locus_tag="IF79_RS0118800" class="clusterblast-orf" id="dummy-1_h1_2_17"  />
</g>
<g id="a1_0018"  >
<polygon points="658,90 775,90 780,85 775,80 658,80 658,90 " style="fill:#d8155e; stroke-width:1; stroke:black; " description="&lt;b&gt;IF79_RS0118795&lt;/b&gt;&lt;br&gt;bifunctional glutamine-synthetase adenylyltransferase/deadenyltransferase&lt;br&gt;Location: 386091 - 383053&lt;br&gt;&lt;br&gt;&lt;b&gt;BlastP hit with ctg39_18&lt;/b&gt;&lt;br&gt;Percentage identity: 91&lt;br&gt;Percentage coverage: 100&lt;br&gt;BLAST bit score: 1745&lt;br&gt;E-value: 0.0" locus_tag="IF79_RS0118795" class="clusterblast-orf" id="dummy-1_h1_2_18"  />
</g>
</svg>
