<svg xmlns="http://www.w3.org/2000/svg" xmlns:xlink="http://www.w3.org/1999/xlink" version="1.1" x="0" y="0" height="230" width="800" viewBox="0 0 800 230" preserveAspectRatio="none"  >
<g label="Query sequence" class="clusterblast-cluster"  >
<text x="5" y="20" class="clusterblast-acc"  >
Query sequence</text>
<line x1="10" y1="35" x2="778.0" y2="35" style="stroke-width:1; stroke:grey; "  />
<polygon points="277,35 282,30 387,30 387,40 282,40 277,35 " style="fill:#d81515; stroke-width:1; stroke:black; " description="&lt;b&gt;ctg30_1&lt;/b&gt;&lt;br&gt;ctg30 1&lt;br&gt;Location: 1 - 14734" locus_tag="ctg30_1" class="clusterblast-orf" id="dummy-1_q0_0_all"  />
<polygon points="390,35 395,30 409,30 409,40 395,40 390,35 " style="fill:#63d815; stroke-width:1; stroke:black; " description="&lt;b&gt;ctg30_2&lt;/b&gt;&lt;br&gt;ctg30 2&lt;br&gt;Location: 15072 - 17592" locus_tag="ctg30_2" class="clusterblast-orf" id="dummy-1_q1_0_all"  />
<polygon points="411,35 416,30 422,30 422,40 416,40 411,35 " style="fill:#15b1d8; stroke-width:1; stroke:black; " description="&lt;b&gt;ctg30_3&lt;/b&gt;&lt;br&gt;ctg30 3&lt;br&gt;Location: 17914 - 19339" locus_tag="ctg30_3" class="clusterblast-orf" id="dummy-1_q2_0_all"  />
<polygon points="422,35 427,30 428,30 428,40 427,40 422,35 " style="fill:#b115d8; stroke-width:1; stroke:black; " description="&lt;b&gt;ctg30_4&lt;/b&gt;&lt;br&gt;ctg30 4&lt;br&gt;Location: 19373 - 20093" locus_tag="ctg30_4" class="clusterblast-orf" id="dummy-1_q3_0_all"  />
<polygon points="428,35 433,30 434,30 434,40 433,40 428,35 " style="fill:#d86315; stroke-width:1; stroke:black; " description="&lt;b&gt;ctg30_5&lt;/b&gt;&lt;br&gt;ctg30 5&lt;br&gt;Location: 20124 - 20904" locus_tag="ctg30_5" class="clusterblast-orf" id="dummy-1_q4_0_all"  />
<polygon points="435,35 435,30 435,40 435,35 " style="fill:white; stroke-width:1; stroke:black; " description="&lt;b&gt;ctg30_6&lt;/b&gt;&lt;br&gt;ctg30 6&lt;br&gt;Location: 21026 - 21116" locus_tag="ctg30_6" class="clusterblast-orf" id="dummy-1_q5_0_all"  />
<polygon points="435,35 440,30 443,30 443,40 440,40 435,35 " style="fill:#15d815; stroke-width:1; stroke:black; " description="&lt;b&gt;ctg30_7&lt;/b&gt;&lt;br&gt;ctg30 7&lt;br&gt;Location: 21112 - 22084" locus_tag="ctg30_7" class="clusterblast-orf" id="dummy-1_q6_0_all"  />
<polygon points="443,35 448,30 448,30 448,40 448,40 443,35 " style="fill:#1563d8; stroke-width:1; stroke:black; " description="&lt;b&gt;ctg30_8&lt;/b&gt;&lt;br&gt;ctg30 8&lt;br&gt;Location: 22104 - 22782" locus_tag="ctg30_8" class="clusterblast-orf" id="dummy-1_q7_0_all"  />
<polygon points="449,35 454,30 457,30 457,40 454,40 449,35 " style="fill:#d815b1; stroke-width:1; stroke:black; " description="&lt;b&gt;ctg30_9&lt;/b&gt;&lt;br&gt;ctg30 9&lt;br&gt;Location: 22857 - 23940" locus_tag="ctg30_9" class="clusterblast-orf" id="dummy-1_q8_0_all"  />
<polygon points="457,40 460,35 457,30 457,40 " style="fill:#d8b115; stroke-width:1; stroke:black; " description="&lt;b&gt;ctg30_10&lt;/b&gt;&lt;br&gt;ctg30 10&lt;br&gt;Location: 24041 - 24404" locus_tag="ctg30_10" class="clusterblast-orf" id="dummy-1_q9_0_all"  />
<polygon points="461,35 466,30 466,30 466,40 466,40 461,35 " style="fill:#15d863; stroke-width:1; stroke:black; " description="&lt;b&gt;ctg30_11&lt;/b&gt;&lt;br&gt;ctg30 11&lt;br&gt;Location: 24450 - 25149" locus_tag="ctg30_11" class="clusterblast-orf" id="dummy-1_q10_0_all"  />
<polygon points="466,35 467,30 467,40 466,35 " style="fill:white; stroke-width:1; stroke:black; " description="&lt;b&gt;ctg30_12&lt;/b&gt;&lt;br&gt;ctg30 12&lt;br&gt;Location: 25178 - 25319" locus_tag="ctg30_12" class="clusterblast-orf" id="dummy-1_q11_0_all"  />
<polygon points="467,40 473,40 478,35 473,30 467,30 467,40 " style="fill:#1515d8; stroke-width:1; stroke:black; " description="&lt;b&gt;ctg30_13&lt;/b&gt;&lt;br&gt;ctg30 13&lt;br&gt;Location: 25328 - 26780" locus_tag="ctg30_13" class="clusterblast-orf" id="dummy-1_q12_0_all"  />
<polygon points="478,35 483,30 483,30 483,40 483,40 478,35 " style="fill:#d81563; stroke-width:1; stroke:black; " description="&lt;b&gt;ctg30_14&lt;/b&gt;&lt;br&gt;ctg30 14&lt;br&gt;Location: 26786 - 27428" locus_tag="ctg30_14" class="clusterblast-orf" id="dummy-1_q13_0_all"  />
<polygon points="484,35 489,30 489,30 489,40 489,40 484,35 " style="fill:#b1d815; stroke-width:1; stroke:black; " description="&lt;b&gt;ctg30_15&lt;/b&gt;&lt;br&gt;ctg30 15&lt;br&gt;Location: 27565 - 28261" locus_tag="ctg30_15" class="clusterblast-orf" id="dummy-1_q14_0_all"  />
<polygon points="491,35 496,30 499,30 499,40 496,40 491,35 " style="fill:#15d8b1; stroke-width:1; stroke:black; " description="&lt;b&gt;ctg30_16&lt;/b&gt;&lt;br&gt;ctg30 16&lt;br&gt;Location: 28543 - 29566" locus_tag="ctg30_16" class="clusterblast-orf" id="dummy-1_q15_0_all"  />
<polygon points="499,35 502,30 502,40 499,35 " style="fill:#6315d8; stroke-width:1; stroke:black; " description="&lt;b&gt;ctg30_17&lt;/b&gt;&lt;br&gt;ctg30 17&lt;br&gt;Location: 29573 - 30020" locus_tag="ctg30_17" class="clusterblast-orf" id="dummy-1_q16_0_all"  />
</g>
<g label="NZ_CM002271" description="NZ_CM002271_c3: Streptomyces sp. GBA 94-10 chromosome, whole genome shotgun s... (14% of genes show similarity), t3pks-t1pks-nrps" class="clusterblast-cluster"  >
<text x="5" y="70" class="clusterblast-acc"  >
<a xlink:href="https://antismash-db.secondarymetabolites.org/go/NZ_CM002271/3" target="_blank">NZ_CM002271_c3</a>: Streptomyces sp. GBA 94-10 chromosome, whole genome shotgun s... (14% of genes show similarity), t3pks-t1pks-nrps</text>
<line x1="10" y1="85" x2="778.0" y2="85" style="stroke-width:1; stroke:grey; "  />
</g>
<g id="a1_000"  >
<polygon points="0,85 5,80 6,80 6,90 5,90 0,85 " style="fill:#d86315; stroke-width:1; stroke:black; " description="&lt;b&gt;B591_RS01750&lt;/b&gt;&lt;br&gt;hypothetical protein&lt;br&gt;Location: 470397 - 469474&lt;br&gt;&lt;br&gt;&lt;b&gt;BlastP hit with ctg30_5&lt;/b&gt;&lt;br&gt;Percentage identity: 67&lt;br&gt;Percentage coverage: 104&lt;br&gt;BLAST bit score: 304&lt;br&gt;E-value: 1.2e-80" locus_tag="B591_RS01750" class="clusterblast-orf" id="dummy-1_h1_7_0"  />
</g>
<g id="a1_001"  >
<polygon points="8,85 13,80 16,80 16,90 13,90 8,85 " style="fill:#15d815; stroke-width:1; stroke:black; " description="&lt;b&gt;B591_RS01745&lt;/b&gt;&lt;br&gt;ATPase&lt;br&gt;Location: 469246 - 468260&lt;br&gt;&lt;br&gt;&lt;b&gt;BlastP hit with ctg30_7&lt;/b&gt;&lt;br&gt;Percentage identity: 58&lt;br&gt;Percentage coverage: 100&lt;br&gt;BLAST bit score: 286&lt;br&gt;E-value: 4.2e-75" locus_tag="B591_RS01745" class="clusterblast-orf" id="dummy-1_h1_7_1"  />
</g>
<g id="a1_002"  >
<polygon points="17,90 17,90 22,85 17,80 17,80 17,90 " style="fill:#1563d8; stroke-width:1; stroke:black; " description="&lt;b&gt;B591_RS01740&lt;/b&gt;&lt;br&gt;uracil-DNA glycosylase&lt;br&gt;Location: 468070 - 467393&lt;br&gt;&lt;br&gt;&lt;b&gt;BlastP hit with ctg30_8&lt;/b&gt;&lt;br&gt;Percentage identity: 78&lt;br&gt;Percentage coverage: 100&lt;br&gt;BLAST bit score: 365&lt;br&gt;E-value: 4.9e-99" locus_tag="B591_RS01740" class="clusterblast-orf" id="dummy-1_h1_7_2"  />
</g>
<g id="a1_003"  >
<polygon points="23,90 23,90 28,85 23,80 23,80 23,90 " style="fill:white; stroke-width:1; stroke:black; " description="&lt;b&gt;B591_RS01735&lt;/b&gt;&lt;br&gt;DedA family protein&lt;br&gt;Location: 467243 - 466575" locus_tag="B591_RS01735" class="clusterblast-orf" id="dummy-1_h1_7_3"  />
</g>
<g id="a1_004"  >
<polygon points="29,90 33,90 38,85 33,80 29,80 29,90 " style="fill:white; stroke-width:1; stroke:black; " description="&lt;b&gt;B591_RS01730&lt;/b&gt;&lt;br&gt;two-component sensor histidine kinase&lt;br&gt;Location: 466444 - 465276" locus_tag="B591_RS01730" class="clusterblast-orf" id="dummy-1_h1_7_4"  />
</g>
<g id="a1_005"  >
<polygon points="38,90 42,85 38,80 38,90 " style="fill:white; stroke-width:1; stroke:black; " description="&lt;b&gt;B591_RS01725&lt;/b&gt;&lt;br&gt;DNA-binding response regulator&lt;br&gt;Location: 465303 - 464676" locus_tag="B591_RS01725" class="clusterblast-orf" id="dummy-1_h1_7_5"  />
</g>
<g id="a1_006"  >
<polygon points="43,85 48,80 51,80 51,90 48,90 43,85 " style="fill:white; stroke-width:1; stroke:black; " description="&lt;b&gt;B591_RS01720&lt;/b&gt;&lt;br&gt;hypothetical protein&lt;br&gt;Location: 464668 - 463583" locus_tag="B591_RS01720" class="clusterblast-orf" id="dummy-1_h1_7_6"  />
</g>
<g id="a1_007"  >
<polygon points="53,90 58,90 63,85 58,80 53,80 53,90 " style="fill:white; stroke-width:1; stroke:black; " description="&lt;b&gt;B591_RS01715&lt;/b&gt;&lt;br&gt;hypothetical protein&lt;br&gt;Location: 463327 - 461990" locus_tag="B591_RS01715" class="clusterblast-orf" id="dummy-1_h1_7_7"  />
</g>
<g id="a1_008"  >
<polygon points="63,85 68,80 71,80 71,90 68,90 63,85 " style="fill:#d815b1; stroke-width:1; stroke:black; " description="&lt;b&gt;B591_RS01710&lt;/b&gt;&lt;br&gt;NADH:flavin oxidoreductase/NADH oxidase&lt;br&gt;Location: 461964 - 460888&lt;br&gt;&lt;br&gt;&lt;b&gt;BlastP hit with ctg30_9&lt;/b&gt;&lt;br&gt;Percentage identity: 73&lt;br&gt;Percentage coverage: 99&lt;br&gt;BLAST bit score: 537&lt;br&gt;E-value: 8.8e-151" locus_tag="B591_RS01710" class="clusterblast-orf" id="dummy-1_h1_7_8"  />
</g>
<g id="a1_009"  >
<polygon points="72,90 75,85 72,80 72,90 " style="fill:#d8b115; stroke-width:1; stroke:black; " description="&lt;b&gt;B591_RS01705&lt;/b&gt;&lt;br&gt;transcriptional regulator&lt;br&gt;Location: 460732 - 460391&lt;br&gt;&lt;br&gt;&lt;b&gt;BlastP hit with ctg30_10&lt;/b&gt;&lt;br&gt;Percentage identity: 66&lt;br&gt;Percentage coverage: 91&lt;br&gt;BLAST bit score: 141&lt;br&gt;E-value: 6.2e-32" locus_tag="B591_RS01705" class="clusterblast-orf" id="dummy-1_h1_7_9"  />
</g>
<g id="a1_0010"  >
<polygon points="74,85 79,80 85,80 85,90 79,90 74,85 " style="fill:white; stroke-width:1; stroke:black; " description="&lt;b&gt;B591_RS01700&lt;/b&gt;&lt;br&gt;purine permease&lt;br&gt;Location: 460462 - 459065" locus_tag="B591_RS01700" class="clusterblast-orf" id="dummy-1_h1_7_10"  />
</g>
<g id="a1_0011"  >
<polygon points="86,85 91,80 91,80 91,90 91,90 86,85 " style="fill:#15d863; stroke-width:1; stroke:black; " description="&lt;b&gt;B591_RS01695&lt;/b&gt;&lt;br&gt;DUF305 domain-containing protein&lt;br&gt;Location: 458943 - 458281&lt;br&gt;&lt;br&gt;&lt;b&gt;BlastP hit with ctg30_11&lt;/b&gt;&lt;br&gt;Percentage identity: 47&lt;br&gt;Percentage coverage: 93&lt;br&gt;BLAST bit score: 160&lt;br&gt;E-value: 3.2e-37" locus_tag="B591_RS01695" class="clusterblast-orf" id="dummy-1_h1_7_11"  />
</g>
<g id="a1_0012"  >
<polygon points="92,90 98,90 103,85 98,80 92,80 92,90 " style="fill:#1515d8; stroke-width:1; stroke:black; " description="&lt;b&gt;B591_RS01690&lt;/b&gt;&lt;br&gt;hypothetical protein&lt;br&gt;Location: 458111 - 456594&lt;br&gt;&lt;br&gt;&lt;b&gt;BlastP hit with ctg30_13&lt;/b&gt;&lt;br&gt;Percentage identity: 64&lt;br&gt;Percentage coverage: 102&lt;br&gt;BLAST bit score: 640&lt;br&gt;E-value: 1.7e-181" locus_tag="B591_RS01690" class="clusterblast-orf" id="dummy-1_h1_7_12"  />
</g>
<g id="a1_0013"  >
<polygon points="104,90 108,85 104,80 104,90 " style="fill:white; stroke-width:1; stroke:black; " description="&lt;b&gt;B591_RS31340&lt;/b&gt;&lt;br&gt;hypothetical protein&lt;br&gt;Location: 456525 - 456001" locus_tag="B591_RS31340" class="clusterblast-orf" id="dummy-1_h1_7_13"  />
</g>
<g id="a1_0014"  >
<polygon points="108,85 110,80 110,90 108,85 " style="fill:white; stroke-width:1; stroke:black; " description="&lt;b&gt;B591_RS31335&lt;/b&gt;&lt;br&gt;hypothetical protein&lt;br&gt;Location: 455912 - 455673" locus_tag="B591_RS31335" class="clusterblast-orf" id="dummy-1_h1_7_14"  />
</g>
<g id="a1_0015"  >
<polygon points="111,90 115,85 111,80 111,90 " style="fill:white; stroke-width:1; stroke:black; " description="&lt;b&gt;B591_RS31330&lt;/b&gt;&lt;br&gt;4'-phosphopantetheinyl transferase&lt;br&gt;Location: 455620 - 454983" locus_tag="B591_RS31330" class="clusterblast-orf" id="dummy-1_h1_7_15"  />
</g>
<g id="a1_0016"  >
<polygon points="115,85 120,80 122,80 122,90 120,90 115,85 " style="fill:white; stroke-width:1; stroke:black; " description="&lt;b&gt;B591_RS01680&lt;/b&gt;&lt;br&gt;thioesterase&lt;br&gt;Location: 454962 - 454138" locus_tag="B591_RS01680" class="clusterblast-orf" id="dummy-1_h1_7_16"  />
</g>
<g id="a1_0017"  >
<polygon points="122,85 127,80 131,80 131,90 127,90 122,85 " style="fill:white; stroke-width:1; stroke:black; " description="&lt;b&gt;B591_RS01675&lt;/b&gt;&lt;br&gt;cytochrome P450&lt;br&gt;Location: 454046 - 452841" locus_tag="B591_RS01675" class="clusterblast-orf" id="dummy-1_h1_7_17"  />
</g>
<g id="a1_0018"  >
<polygon points="133,90 137,90 142,85 137,80 133,80 133,90 " style="fill:white; stroke-width:1; stroke:black; " description="&lt;b&gt;B591_RS01670&lt;/b&gt;&lt;br&gt;scyllo-inosamine-4-phosphate amidinotransferase&lt;br&gt;Location: 452626 - 451475" locus_tag="B591_RS01670" class="clusterblast-orf" id="dummy-1_h1_7_18"  />
</g>
<g id="a1_0019"  >
<polygon points="142,90 286,90 291,85 286,80 142,80 142,90 " style="fill:white; stroke-width:1; stroke:black; " description="&lt;b&gt;B591_RS01665&lt;/b&gt;&lt;br&gt;beta-ketoacyl synthase&lt;br&gt;Location: 451413 - 431674" locus_tag="B591_RS01665" class="clusterblast-orf" id="dummy-1_h1_7_19"  />
</g>
<g id="a1_0020"  >
<polygon points="291,90 297,90 302,85 297,80 291,80 291,90 " style="fill:white; stroke-width:1; stroke:black; " description="&lt;b&gt;B591_RS31320&lt;/b&gt;&lt;br&gt;polyketide synthase&lt;br&gt;Location: 431588 - 430107" locus_tag="B591_RS31320" class="clusterblast-orf" id="dummy-1_h1_7_20"  />
</g>
<g id="a1_0021"  >
<polygon points="304,90 313,90 318,85 313,80 304,80 304,90 " style="fill:white; stroke-width:1; stroke:black; " description="&lt;b&gt;B591_RS32755&lt;/b&gt;&lt;br&gt;polyketide synthase&lt;br&gt;Location: 429854 - 427956" locus_tag="B591_RS32755" class="clusterblast-orf" id="dummy-1_h1_7_21"  />
</g>
<g id="a1_0022"  >
<polygon points="321,90 325,85 321,80 321,90 " style="fill:white; stroke-width:1; stroke:black; " description="&lt;b&gt;B591_RS32750&lt;/b&gt;&lt;br&gt;hypothetical protein&lt;br&gt;Location: 427661 - 427056" locus_tag="B591_RS32750" class="clusterblast-orf" id="dummy-1_h1_7_22"  />
</g>
<g id="a1_0023"  >
<polygon points="330,90 344,90 349,85 344,80 330,80 330,90 " style="fill:white; stroke-width:1; stroke:black; " description="&lt;b&gt;B591_RS32745&lt;/b&gt;&lt;br&gt;hypothetical protein&lt;br&gt;Location: 426413 - 423873" locus_tag="B591_RS32745" class="clusterblast-orf" id="dummy-1_h1_7_23"  />
</g>
<g id="a1_0024"  >
<polygon points="358,90 365,90 370,85 365,80 358,80 358,90 " style="fill:white; stroke-width:1; stroke:black; " description="&lt;b&gt;B591_RS31290&lt;/b&gt;&lt;br&gt;hypothetical protein&lt;br&gt;Location: 422693 - 421095" locus_tag="B591_RS31290" class="clusterblast-orf" id="dummy-1_h1_7_24"  />
</g>
<g id="a1_0025"  >
<polygon points="371,90 375,85 371,80 371,90 " style="fill:white; stroke-width:1; stroke:black; " description="&lt;b&gt;B591_RS31285&lt;/b&gt;&lt;br&gt;hypothetical protein&lt;br&gt;Location: 420959 - 420411" locus_tag="B591_RS31285" class="clusterblast-orf" id="dummy-1_h1_7_25"  />
</g>
<g id="a1_0026"  >
<polygon points="376,85 381,80 384,80 384,90 381,90 376,85 " style="fill:white; stroke-width:1; stroke:black; " description="&lt;b&gt;B591_RS01655&lt;/b&gt;&lt;br&gt;methyltransferase domain-containing protein&lt;br&gt;Location: 420344 - 419295" locus_tag="B591_RS01655" class="clusterblast-orf" id="dummy-1_h1_7_26"  />
</g>
<g id="a1_0027"  >
<polygon points="386,90 522,90 527,85 522,80 386,80 386,90 " style="fill:#d81515; stroke-width:1; stroke:black; " description="&lt;b&gt;B591_RS01650&lt;/b&gt;&lt;br&gt;non-ribosomal peptide synthetase&lt;br&gt;Location: 418999 - 400256&lt;br&gt;&lt;br&gt;&lt;b&gt;BlastP hit with ctg30_1&lt;/b&gt;&lt;br&gt;Percentage identity: 33&lt;br&gt;Percentage coverage: 69&lt;br&gt;BLAST bit score: 1395&lt;br&gt;E-value: 0.0" locus_tag="B591_RS01650" class="clusterblast-orf" id="dummy-1_h1_7_27"  />
</g>
<g id="a1_0028"  >
<polygon points="527,90 531,90 536,85 531,80 527,80 527,90 " style="fill:white; stroke-width:1; stroke:black; " description="&lt;b&gt;B591_RS01645&lt;/b&gt;&lt;br&gt;cytochrome P450&lt;br&gt;Location: 400211 - 399000" locus_tag="B591_RS01645" class="clusterblast-orf" id="dummy-1_h1_7_28"  />
</g>
<g id="a1_0029"  >
<polygon points="537,90 539,90 544,85 539,80 537,80 537,90 " style="fill:white; stroke-width:1; stroke:black; " description="&lt;b&gt;B591_RS01640&lt;/b&gt;&lt;br&gt;sulfotransferase domain-containing protein&lt;br&gt;Location: 398909 - 397977" locus_tag="B591_RS01640" class="clusterblast-orf" id="dummy-1_h1_7_29"  />
</g>
<g id="a1_0030"  >
<polygon points="545,90 546,90 551,85 546,80 545,80 545,90 " style="fill:white; stroke-width:1; stroke:black; " description="&lt;b&gt;B591_RS01635&lt;/b&gt;&lt;br&gt;taurine dioxygenase&lt;br&gt;Location: 397870 - 397010" locus_tag="B591_RS01635" class="clusterblast-orf" id="dummy-1_h1_7_30"  />
</g>
<g id="a1_0031"  >
<polygon points="551,90 555,90 560,85 555,80 551,80 551,90 " style="fill:white; stroke-width:1; stroke:black; " description="&lt;b&gt;B591_RS01630&lt;/b&gt;&lt;br&gt;type III polyketide synthase&lt;br&gt;Location: 396977 - 395835" locus_tag="B591_RS01630" class="clusterblast-orf" id="dummy-1_h1_7_31"  />
</g>
<g id="a1_0032"  >
<polygon points="560,90 560,90 565,85 560,80 560,80 560,90 " style="fill:white; stroke-width:1; stroke:black; " description="&lt;b&gt;B591_RS01625&lt;/b&gt;&lt;br&gt;enoyl-CoA hydratase/isomerase family protein&lt;br&gt;Location: 395814 - 395098" locus_tag="B591_RS01625" class="clusterblast-orf" id="dummy-1_h1_7_32"  />
</g>
<g id="a1_0033"  >
<polygon points="565,90 571,90 576,85 571,80 565,80 565,90 " style="fill:white; stroke-width:1; stroke:black; " description="&lt;b&gt;B591_RS01620&lt;/b&gt;&lt;br&gt;enoyl-CoA hydratase/isomerase family protein&lt;br&gt;Location: 395101 - 393749" locus_tag="B591_RS01620" class="clusterblast-orf" id="dummy-1_h1_7_33"  />
</g>
<g id="a1_0034"  >
<polygon points="575,90 580,90 585,85 580,80 575,80 575,90 " style="fill:white; stroke-width:1; stroke:black; " description="&lt;b&gt;B591_RS01615&lt;/b&gt;&lt;br&gt;PLP-dependent aminotransferase family protein&lt;br&gt;Location: 393752 - 392451" locus_tag="B591_RS01615" class="clusterblast-orf" id="dummy-1_h1_7_34"  />
</g>
<g id="a1_0035"  >
<polygon points="586,90 589,90 594,85 589,80 586,80 586,90 " style="fill:white; stroke-width:1; stroke:black; " description="&lt;b&gt;B591_RS01610&lt;/b&gt;&lt;br&gt;scyllo-inosamine-4-phosphate amidinotransferase&lt;br&gt;Location: 392392 - 391244" locus_tag="B591_RS01610" class="clusterblast-orf" id="dummy-1_h1_7_35"  />
</g>
<g id="a1_0036"  >
<polygon points="596,90 606,90 611,85 606,80 596,80 596,90 " style="fill:white; stroke-width:1; stroke:black; " description="&lt;b&gt;B591_RS30860&lt;/b&gt;&lt;br&gt;non-ribosomal peptide synthetase&lt;br&gt;Location: 391052 - 389010" locus_tag="B591_RS30860" class="clusterblast-orf" id="dummy-1_h1_7_36"  />
</g>
<g id="a1_0037"  >
<polygon points="611,90 614,90 619,85 614,80 611,80 611,90 " style="fill:white; stroke-width:1; stroke:black; " description="&lt;b&gt;B591_RS31280&lt;/b&gt;&lt;br&gt;hypothetical protein&lt;br&gt;Location: 388997 - 387975" locus_tag="B591_RS31280" class="clusterblast-orf" id="dummy-1_h1_7_37"  />
</g>
<g id="a1_0038"  >
<polygon points="619,90 626,90 631,85 626,80 619,80 619,90 " style="fill:white; stroke-width:1; stroke:black; " description="&lt;b&gt;B591_RS01600&lt;/b&gt;&lt;br&gt;amino acid adenylation domain-containing protein&lt;br&gt;Location: 387978 - 386365" locus_tag="B591_RS01600" class="clusterblast-orf" id="dummy-1_h1_7_38"  />
</g>
<g id="a1_0039"  >
<polygon points="631,90 637,90 642,85 637,80 631,80 631,90 " style="fill:white; stroke-width:1; stroke:black; " description="&lt;b&gt;B591_RS01595&lt;/b&gt;&lt;br&gt;argininosuccinate lyase&lt;br&gt;Location: 386339 - 384852" locus_tag="B591_RS01595" class="clusterblast-orf" id="dummy-1_h1_7_39"  />
</g>
<g id="a1_0040"  >
<polygon points="642,90 644,90 649,85 644,80 642,80 642,90 " style="fill:white; stroke-width:1; stroke:black; " description="&lt;b&gt;B591_RS01590&lt;/b&gt;&lt;br&gt;GHMP kinase&lt;br&gt;Location: 384855 - 383953" locus_tag="B591_RS01590" class="clusterblast-orf" id="dummy-1_h1_7_40"  />
</g>
<g id="a1_0041"  >
<polygon points="649,85 654,80 660,80 660,90 654,90 649,85 " style="fill:white; stroke-width:1; stroke:black; " description="&lt;b&gt;B591_RS01585&lt;/b&gt;&lt;br&gt;FAD-dependent oxidoreductase&lt;br&gt;Location: 383934 - 382492" locus_tag="B591_RS01585" class="clusterblast-orf" id="dummy-1_h1_7_41"  />
</g>
<g id="a1_0042"  >
<polygon points="661,85 664,80 664,90 661,85 " style="fill:white; stroke-width:1; stroke:black; " description="&lt;b&gt;B591_RS01580&lt;/b&gt;&lt;br&gt;SnoaL-like polyketide cyclase&lt;br&gt;Location: 382351 - 381980" locus_tag="B591_RS01580" class="clusterblast-orf" id="dummy-1_h1_7_42"  />
</g>
<g id="a1_0043"  >
<polygon points="667,90 668,85 667,80 667,90 " style="fill:white; stroke-width:1; stroke:black; " description="&lt;b&gt;B591_RS01575&lt;/b&gt;&lt;br&gt;MbtH family protein&lt;br&gt;Location: 381626 - 381420" locus_tag="B591_RS01575" class="clusterblast-orf" id="dummy-1_h1_7_43"  />
</g>
<g id="a1_0044"  >
<polygon points="669,90 681,90 686,85 681,80 669,80 669,90 " style="fill:white; stroke-width:1; stroke:black; " description="&lt;b&gt;B591_RS01570&lt;/b&gt;&lt;br&gt;ATP-grasp domain-containing protein&lt;br&gt;Location: 381315 - 379081" locus_tag="B591_RS01570" class="clusterblast-orf" id="dummy-1_h1_7_44"  />
</g>
<g id="a1_0045"  >
<polygon points="687,85 691,80 691,90 687,85 " style="fill:white; stroke-width:1; stroke:black; " description="&lt;b&gt;B591_RS01565&lt;/b&gt;&lt;br&gt;DDE transposase family protein&lt;br&gt;Location: 378860 - 378333" locus_tag="B591_RS01565" class="clusterblast-orf" id="dummy-1_h1_7_45"  />
</g>
<g id="a1_0046"  >
<polygon points="692,85 697,80 710,80 710,90 697,90 692,85 " style="fill:white; stroke-width:1; stroke:black; " description="&lt;b&gt;B591_RS01560&lt;/b&gt;&lt;br&gt;protein kinase/ transcriptional regulator&lt;br&gt;Location: 378310 - 375902" locus_tag="B591_RS01560" class="clusterblast-orf" id="dummy-1_h1_7_46"  />
</g>
<g id="a1_0047"  >
<polygon points="715,85 720,80 720,80 720,90 720,90 715,85 " style="fill:white; stroke-width:1; stroke:black; " description="&lt;b&gt;B591_RS32740&lt;/b&gt;&lt;br&gt;hypothetical protein&lt;br&gt;Location: 375158 - 374577" locus_tag="B591_RS32740" class="clusterblast-orf" id="dummy-1_h1_7_47"  />
</g>
<g id="a1_0048"  >
<polygon points="720,90 721,90 726,85 721,80 720,80 720,90 " style="fill:white; stroke-width:1; stroke:black; " description="&lt;b&gt;B591_RS01555&lt;/b&gt;&lt;br&gt;KR domain-containing protein&lt;br&gt;Location: 374480 - 373677" locus_tag="B591_RS01555" class="clusterblast-orf" id="dummy-1_h1_7_48"  />
</g>
<g id="a1_0049"  >
<polygon points="726,90 729,85 726,80 726,90 " style="fill:white; stroke-width:1; stroke:black; " description="&lt;b&gt;B591_RS32735&lt;/b&gt;&lt;br&gt;hypothetical protein&lt;br&gt;Location: 373680 - 373294" locus_tag="B591_RS32735" class="clusterblast-orf" id="dummy-1_h1_7_49"  />
</g>
<g id="a1_0050"  >
<polygon points="732,90 735,85 732,80 732,90 " style="fill:white; stroke-width:1; stroke:black; " description="&lt;b&gt;B591_RS01550&lt;/b&gt;&lt;br&gt;hypothetical protein&lt;br&gt;Location: 372942 - 372502" locus_tag="B591_RS01550" class="clusterblast-orf" id="dummy-1_h1_7_50"  />
</g>
<g id="a1_0051"  >
<polygon points="736,90 737,90 742,85 737,80 736,80 736,90 " style="fill:white; stroke-width:1; stroke:black; " description="&lt;b&gt;B591_RS01545&lt;/b&gt;&lt;br&gt;LLM class flavin-dependent oxidoreductase&lt;br&gt;Location: 372458 - 371592" locus_tag="B591_RS01545" class="clusterblast-orf" id="dummy-1_h1_7_51"  />
</g>
<g id="a1_0052"  >
<polygon points="744,90 744,90 749,85 744,80 744,80 744,90 " style="fill:white; stroke-width:1; stroke:black; " description="&lt;b&gt;B591_RS01540&lt;/b&gt;&lt;br&gt;IS5/IS1182 family transposase&lt;br&gt;Location: 371326 - 370665" locus_tag="B591_RS01540" class="clusterblast-orf" id="dummy-1_h1_7_52"  />
</g>
<g id="a1_0053"  >
<polygon points="751,85 756,80 770,80 770,90 756,90 751,85 " style="fill:white; stroke-width:1; stroke:black; " description="&lt;b&gt;B591_RS01535&lt;/b&gt;&lt;br&gt;ABC transporter permease&lt;br&gt;Location: 370422 - 367882" locus_tag="B591_RS01535" class="clusterblast-orf" id="dummy-1_h1_7_53"  />
</g>
<g id="a1_0054"  >
<polygon points="771,85 775,80 775,90 771,85 " style="fill:white; stroke-width:1; stroke:black; " description="&lt;b&gt;B591_RS01530&lt;/b&gt;&lt;br&gt;ABC transporter&lt;br&gt;Location: 367777 - 367203" locus_tag="B591_RS01530" class="clusterblast-orf" id="dummy-1_h1_7_54"  />
</g>
<g id="a1_0055"  >
<polygon points="777,85 780,80 780,90 777,85 " style="fill:white; stroke-width:1; stroke:black; " description="&lt;b&gt;B591_RS01525&lt;/b&gt;&lt;br&gt;hypothetical protein&lt;br&gt;Location: 366967 - 366605" locus_tag="B591_RS01525" class="clusterblast-orf" id="dummy-1_h1_7_55"  />
</g>
</svg>
