<svg xmlns="http://www.w3.org/2000/svg" xmlns:xlink="http://www.w3.org/1999/xlink" version="1.1" x="0" y="0" height="230" width="800" viewBox="0 0 800 230" preserveAspectRatio="none"  >
<g label="Query sequence" class="clusterblast-cluster"  >
<text x="5" y="20" class="clusterblast-acc"  >
Query sequence</text>
<line x1="10" y1="35" x2="778.0" y2="35" style="stroke-width:1; stroke:grey; "  />
<polygon points="299,35 304,30 304,30 304,40 304,40 299,35 " style="fill:#d81515; stroke-width:1; stroke:black; " description="&lt;b&gt;ctg48_1&lt;/b&gt;&lt;br&gt;ctg48 1&lt;br&gt;Location: 69 - 801" locus_tag="ctg48_1" class="clusterblast-orf" id="dummy-1_q0_0_all"  />
<polygon points="304,35 309,30 311,30 311,40 309,40 304,35 " style="fill:#d81515; stroke-width:1; stroke:black; " description="&lt;b&gt;ctg48_2&lt;/b&gt;&lt;br&gt;ctg48 2&lt;br&gt;Location: 797 - 1688" locus_tag="ctg48_2" class="clusterblast-orf" id="dummy-1_q1_0_all"  />
<polygon points="311,35 316,30 319,30 319,40 316,40 311,35 " style="fill:#33d815; stroke-width:1; stroke:black; " description="&lt;b&gt;ctg48_3&lt;/b&gt;&lt;br&gt;ctg48 3&lt;br&gt;Location: 1695 - 2766" locus_tag="ctg48_3" class="clusterblast-orf" id="dummy-1_q2_0_all"  />
<polygon points="318,35 323,30 331,30 331,40 323,40 318,35 " style="fill:#15abd8; stroke-width:1; stroke:black; " description="&lt;b&gt;ctg48_4&lt;/b&gt;&lt;br&gt;ctg48 4&lt;br&gt;Location: 2747 - 4439" locus_tag="ctg48_4" class="clusterblast-orf" id="dummy-1_q3_0_all"  />
<polygon points="331,35 336,30 338,30 338,40 336,40 331,35 " style="fill:white; stroke-width:1; stroke:black; " description="&lt;b&gt;ctg48_5&lt;/b&gt;&lt;br&gt;ctg48 5&lt;br&gt;Location: 4490 - 5474" locus_tag="ctg48_5" class="clusterblast-orf" id="dummy-1_q4_0_all"  />
<polygon points="339,40 344,40 349,35 344,30 339,30 339,40 " style="fill:white; stroke-width:1; stroke:black; " description="&lt;b&gt;ctg48_6&lt;/b&gt;&lt;br&gt;ctg48 6&lt;br&gt;Location: 5567 - 6998" locus_tag="ctg48_6" class="clusterblast-orf" id="dummy-1_q5_0_all"  />
<polygon points="351,40 355,40 360,35 355,30 351,30 351,40 " style="fill:#8d15d8; stroke-width:1; stroke:black; " description="&lt;b&gt;ctg48_7&lt;/b&gt;&lt;br&gt;ctg48 7&lt;br&gt;Location: 7302 - 8499" locus_tag="ctg48_7" class="clusterblast-orf" id="dummy-1_q6_0_all"  />
<polygon points="360,35 365,30 368,30 368,40 365,40 360,35 " style="fill:#d86f15; stroke-width:1; stroke:black; " description="&lt;b&gt;ctg48_8&lt;/b&gt;&lt;br&gt;ctg48 8&lt;br&gt;Location: 8559 - 9639" locus_tag="ctg48_8" class="clusterblast-orf" id="dummy-1_q7_0_all"  />
<polygon points="368,35 373,30 375,30 375,40 373,40 368,35 " style="fill:#15d851; stroke-width:1; stroke:black; " description="&lt;b&gt;ctg48_9&lt;/b&gt;&lt;br&gt;ctg48 9&lt;br&gt;Location: 9659 - 10583" locus_tag="ctg48_9" class="clusterblast-orf" id="dummy-1_q8_0_all"  />
<polygon points="376,35 381,30 382,30 382,40 381,40 376,35 " style="fill:#1551d8; stroke-width:1; stroke:black; " description="&lt;b&gt;ctg48_10&lt;/b&gt;&lt;br&gt;ctg48 10&lt;br&gt;Location: 10784 - 11618" locus_tag="ctg48_10" class="clusterblast-orf" id="dummy-1_q9_0_all"  />
<polygon points="382,35 387,30 390,30 390,40 387,40 382,35 " style="fill:#d815c9; stroke-width:1; stroke:black; " description="&lt;b&gt;ctg48_11&lt;/b&gt;&lt;br&gt;ctg48 11&lt;br&gt;Location: 11614 - 12766" locus_tag="ctg48_11" class="clusterblast-orf" id="dummy-1_q10_0_all"  />
<polygon points="391,40 394,40 399,35 394,30 391,30 391,40 " style="fill:white; stroke-width:1; stroke:black; " description="&lt;b&gt;ctg48_12&lt;/b&gt;&lt;br&gt;ctg48 12&lt;br&gt;Location: 12786 - 13989" locus_tag="ctg48_12" class="clusterblast-orf" id="dummy-1_q11_0_all"  />
<polygon points="400,35 405,30 406,30 406,40 405,40 400,35 " style="fill:#d8c915; stroke-width:1; stroke:black; " description="&lt;b&gt;ctg48_13&lt;/b&gt;&lt;br&gt;ctg48 13&lt;br&gt;Location: 14051 - 14882" locus_tag="ctg48_13" class="clusterblast-orf" id="dummy-1_q12_0_all"  />
<polygon points="406,35 411,30 415,30 415,40 411,40 406,35 " style="fill:#15d8ab; stroke-width:1; stroke:black; " description="&lt;b&gt;ctg48_14&lt;/b&gt;&lt;br&gt;ctg48 14&lt;br&gt;Location: 14878 - 16189" locus_tag="ctg48_14" class="clusterblast-orf" id="dummy-1_q13_0_all"  />
<polygon points="415,35 420,30 423,30 423,40 420,40 415,35 " style="fill:#3315d8; stroke-width:1; stroke:black; " description="&lt;b&gt;ctg48_15&lt;/b&gt;&lt;br&gt;ctg48 15&lt;br&gt;Location: 16185 - 17301" locus_tag="ctg48_15" class="clusterblast-orf" id="dummy-1_q14_0_all"  />
<polygon points="424,35 426,30 426,40 424,35 " style="fill:#d8156f; stroke-width:1; stroke:black; " description="&lt;b&gt;ctg48_16&lt;/b&gt;&lt;br&gt;ctg48 16&lt;br&gt;Location: 17403 - 17676" locus_tag="ctg48_16" class="clusterblast-orf" id="dummy-1_q15_0_all"  />
<polygon points="428,35 433,30 480,30 480,40 433,40 428,35 " style="fill:#8dd815; stroke-width:1; stroke:black; " description="&lt;b&gt;ctg48_17&lt;/b&gt;&lt;br&gt;ctg48 17&lt;br&gt;Location: 18022 - 25219" locus_tag="ctg48_17" class="clusterblast-orf" id="dummy-1_q16_0_all"  />
</g>
<g label="NZ_JOAR01000011" description="NZ_JOAR01000011_c17: Streptomyces aureocirculatus strain NRRL ISP-5401 contig... (8% of genes show similarity), bacteriocin-blactam-nrps" class="clusterblast-cluster"  >
<text x="5" y="70" class="clusterblast-acc"  >
<a xlink:href="https://antismash-db.secondarymetabolites.org/go/NZ_JOAR01000011/17" target="_blank">NZ_JOAR01000011_c17</a>: Streptomyces aureocirculatus strain NRRL ISP-5401 contig... (8% of genes show similarity), bacteriocin-blactam-nrps</text>
<line x1="10" y1="85" x2="778.0" y2="85" style="stroke-width:1; stroke:grey; "  />
</g>
<g id="a1_000"  >
<polygon points="0,90 4,85 0,80 0,90 " style="fill:white; stroke-width:1; stroke:black; " description="&lt;b&gt;IO26_RS0113990&lt;/b&gt;&lt;br&gt;GlcNAc-PI de-N-acetylase&lt;br&gt;Location: 194972 - 194325" locus_tag="IO26_RS0113990" class="clusterblast-orf" id="dummy-1_h1_6_0"  />
</g>
<g id="a1_001"  >
<polygon points="4,90 7,90 12,85 7,80 4,80 4,90 " style="fill:white; stroke-width:1; stroke:black; " description="&lt;b&gt;IO26_RS0113985&lt;/b&gt;&lt;br&gt;SDR family NAD-dependent epimerase/dehydratase&lt;br&gt;Location: 194321 - 193296" locus_tag="IO26_RS0113985" class="clusterblast-orf" id="dummy-1_h1_6_1"  />
</g>
<g id="a1_002"  >
<polygon points="12,90 16,90 21,85 16,80 12,80 12,90 " style="fill:white; stroke-width:1; stroke:black; " description="&lt;b&gt;IO26_RS0113980&lt;/b&gt;&lt;br&gt;DUF4910 domain-containing protein&lt;br&gt;Location: 193248 - 191995" locus_tag="IO26_RS0113980" class="clusterblast-orf" id="dummy-1_h1_6_2"  />
</g>
<g id="a1_003"  >
<polygon points="21,90 25,90 30,85 25,80 21,80 21,90 " style="fill:white; stroke-width:1; stroke:black; " description="&lt;b&gt;IO26_RS0113975&lt;/b&gt;&lt;br&gt;membrane protein&lt;br&gt;Location: 191998 - 190679" locus_tag="IO26_RS0113975" class="clusterblast-orf" id="dummy-1_h1_6_3"  />
</g>
<g id="a1_004"  >
<polygon points="30,90 32,90 37,85 32,80 30,80 30,90 " style="fill:white; stroke-width:1; stroke:black; " description="&lt;b&gt;IO26_RS0113970&lt;/b&gt;&lt;br&gt;glycosyltransferase family 2 protein&lt;br&gt;Location: 190682 - 189735" locus_tag="IO26_RS0113970" class="clusterblast-orf" id="dummy-1_h1_6_4"  />
</g>
<g id="a1_005"  >
<polygon points="37,90 41,90 46,85 41,80 37,80 37,90 " style="fill:white; stroke-width:1; stroke:black; " description="&lt;b&gt;IO26_RS0113965&lt;/b&gt;&lt;br&gt;membrane protein&lt;br&gt;Location: 189738 - 188539" locus_tag="IO26_RS0113965" class="clusterblast-orf" id="dummy-1_h1_6_5"  />
</g>
<g id="a1_006"  >
<polygon points="46,90 50,85 46,80 46,90 " style="fill:white; stroke-width:1; stroke:black; " description="&lt;b&gt;IO26_RS0113960&lt;/b&gt;&lt;br&gt;dTDP-4-dehydrorhamnose 3,5-epimerase&lt;br&gt;Location: 188533 - 187982" locus_tag="IO26_RS0113960" class="clusterblast-orf" id="dummy-1_h1_6_6"  />
</g>
<g id="a1_007"  >
<polygon points="50,90 54,90 59,85 54,80 50,80 50,90 " style="fill:white; stroke-width:1; stroke:black; " description="&lt;b&gt;IO26_RS0113955&lt;/b&gt;&lt;br&gt;glutamate-1-semialdehyde 2,1-aminomutase&lt;br&gt;Location: 187974 - 186649" locus_tag="IO26_RS0113955" class="clusterblast-orf" id="dummy-1_h1_6_7"  />
</g>
<g id="a1_008"  >
<polygon points="60,85 64,80 64,90 60,85 " style="fill:white; stroke-width:1; stroke:black; " description="&lt;b&gt;IO26_RS0113950&lt;/b&gt;&lt;br&gt;phosphatase PAP2 family protein&lt;br&gt;Location: 186612 - 185932" locus_tag="IO26_RS0113950" class="clusterblast-orf" id="dummy-1_h1_6_8"  />
</g>
<g id="a1_009"  >
<polygon points="66,85 71,80 74,80 74,90 71,90 66,85 " style="fill:white; stroke-width:1; stroke:black; " description="&lt;b&gt;IO26_RS0113945&lt;/b&gt;&lt;br&gt;hypothetical protein&lt;br&gt;Location: 185740 - 184631" locus_tag="IO26_RS0113945" class="clusterblast-orf" id="dummy-1_h1_6_9"  />
</g>
<g id="a1_0010"  >
<polygon points="74,85 79,80 82,80 82,90 79,90 74,85 " style="fill:white; stroke-width:1; stroke:black; " description="&lt;b&gt;IO26_RS42025&lt;/b&gt;&lt;br&gt;hypothetical protein&lt;br&gt;Location: 184634 - 183535" locus_tag="IO26_RS42025" class="clusterblast-orf" id="dummy-1_h1_6_10"  />
</g>
<g id="a1_0011"  >
<polygon points="83,90 84,90 89,85 84,80 83,80 83,90 " style="fill:white; stroke-width:1; stroke:black; " description="&lt;b&gt;IO26_RS0113935&lt;/b&gt;&lt;br&gt;LysR family transcriptional regulator&lt;br&gt;Location: 183406 - 182555" locus_tag="IO26_RS0113935" class="clusterblast-orf" id="dummy-1_h1_6_11"  />
</g>
<g id="a1_0012"  >
<polygon points="91,85 96,80 100,80 100,90 96,90 91,85 " style="fill:white; stroke-width:1; stroke:black; " description="&lt;b&gt;IO26_RS0113930&lt;/b&gt;&lt;br&gt;MFS transporter&lt;br&gt;Location: 182296 - 181049" locus_tag="IO26_RS0113930" class="clusterblast-orf" id="dummy-1_h1_6_12"  />
</g>
<g id="a1_0013"  >
<polygon points="103,90 103,90 108,85 103,80 103,80 103,90 " style="fill:white; stroke-width:1; stroke:black; " description="&lt;b&gt;IO26_RS0113925&lt;/b&gt;&lt;br&gt;hypothetical protein&lt;br&gt;Location: 180573 - 179833" locus_tag="IO26_RS0113925" class="clusterblast-orf" id="dummy-1_h1_6_13"  />
</g>
<g id="a1_0014"  >
<polygon points="109,90 112,85 109,80 109,90 " style="fill:white; stroke-width:1; stroke:black; " description="&lt;b&gt;IO26_RS0113920&lt;/b&gt;&lt;br&gt;aspartate 1-decarboxylase&lt;br&gt;Location: 179751 - 179302" locus_tag="IO26_RS0113920" class="clusterblast-orf" id="dummy-1_h1_6_14"  />
</g>
<g id="a1_0015"  >
<polygon points="112,90 117,90 122,85 117,80 112,80 112,90 " style="fill:white; stroke-width:1; stroke:black; " description="&lt;b&gt;IO26_RS0113915&lt;/b&gt;&lt;br&gt;hypothetical protein&lt;br&gt;Location: 179302 - 177932" locus_tag="IO26_RS0113915" class="clusterblast-orf" id="dummy-1_h1_6_15"  />
</g>
<g id="a1_0016"  >
<polygon points="122,90 126,90 131,85 126,80 122,80 122,90 " style="fill:white; stroke-width:1; stroke:black; " description="&lt;b&gt;IO26_RS0113910&lt;/b&gt;&lt;br&gt;GNAT family N-acetyltransferase&lt;br&gt;Location: 177922 - 176639" locus_tag="IO26_RS0113910" class="clusterblast-orf" id="dummy-1_h1_6_16"  />
</g>
<g id="a1_0017"  >
<polygon points="131,90 134,90 139,85 134,80 131,80 131,90 " style="fill:white; stroke-width:1; stroke:black; " description="&lt;b&gt;IO26_RS0113905&lt;/b&gt;&lt;br&gt;hypothetical protein&lt;br&gt;Location: 176642 - 175533" locus_tag="IO26_RS0113905" class="clusterblast-orf" id="dummy-1_h1_6_17"  />
</g>
<g id="a1_0018"  >
<polygon points="140,90 148,90 153,85 148,80 140,80 140,90 " style="fill:white; stroke-width:1; stroke:black; " description="&lt;b&gt;IO26_RS0113900&lt;/b&gt;&lt;br&gt;asparagine synthase (glutamine-hydrolyzing)&lt;br&gt;Location: 175419 - 173590" locus_tag="IO26_RS0113900" class="clusterblast-orf" id="dummy-1_h1_6_18"  />
</g>
<g id="a1_0019"  >
<polygon points="154,85 159,80 162,80 162,90 159,90 154,85 " style="fill:white; stroke-width:1; stroke:black; " description="&lt;b&gt;IO26_RS0113895&lt;/b&gt;&lt;br&gt;winged helix DNA-binding domain-containing protein&lt;br&gt;Location: 173547 - 172342" locus_tag="IO26_RS0113895" class="clusterblast-orf" id="dummy-1_h1_6_19"  />
</g>
<g id="a1_0020"  >
<polygon points="163,85 167,80 167,90 163,85 " style="fill:white; stroke-width:1; stroke:black; " description="&lt;b&gt;IO26_RS0113890&lt;/b&gt;&lt;br&gt;TetR/AcrR family transcriptional regulator&lt;br&gt;Location: 172232 - 171609" locus_tag="IO26_RS0113890" class="clusterblast-orf" id="dummy-1_h1_6_20"  />
</g>
<g id="a1_0021"  >
<polygon points="168,90 168,90 173,85 168,80 168,80 168,90 " style="fill:white; stroke-width:1; stroke:black; " description="&lt;b&gt;IO26_RS0113885&lt;/b&gt;&lt;br&gt;esterase&lt;br&gt;Location: 171488 - 170781" locus_tag="IO26_RS0113885" class="clusterblast-orf" id="dummy-1_h1_6_21"  />
</g>
<g id="a1_0022"  >
<polygon points="174,85 179,80 185,80 185,90 179,90 174,85 " style="fill:white; stroke-width:1; stroke:black; " description="&lt;b&gt;IO26_RS0113880&lt;/b&gt;&lt;br&gt;protease&lt;br&gt;Location: 170693 - 169227" locus_tag="IO26_RS0113880" class="clusterblast-orf" id="dummy-1_h1_6_22"  />
</g>
<g id="a1_0023"  >
<polygon points="187,85 192,80 209,80 209,90 192,90 187,85 " style="fill:white; stroke-width:1; stroke:black; " description="&lt;b&gt;IO26_RS0113875&lt;/b&gt;&lt;br&gt;LuxR family transcriptional regulator&lt;br&gt;Location: 168826 - 165812" locus_tag="IO26_RS0113875" class="clusterblast-orf" id="dummy-1_h1_6_23"  />
</g>
<g id="a1_0024"  >
<polygon points="210,90 214,85 210,80 210,90 " style="fill:white; stroke-width:1; stroke:black; " description="&lt;b&gt;IO26_RS43905&lt;/b&gt;&lt;br&gt;ATP-binding protein&lt;br&gt;Location: 165662 - 165174" locus_tag="IO26_RS43905" class="clusterblast-orf" id="dummy-1_h1_6_24"  />
</g>
<g id="a1_0025"  >
<polygon points="215,90 215,90 220,85 215,80 215,80 215,90 " style="fill:white; stroke-width:1; stroke:black; " description="&lt;b&gt;IO26_RS0113860&lt;/b&gt;&lt;br&gt;TetR/AcrR family transcriptional regulator&lt;br&gt;Location: 164935 - 164261" locus_tag="IO26_RS0113860" class="clusterblast-orf" id="dummy-1_h1_6_25"  />
</g>
<g id="a1_0026"  >
<polygon points="220,85 225,80 229,80 229,90 225,90 220,85 " style="fill:white; stroke-width:1; stroke:black; " description="&lt;b&gt;IO26_RS0113855&lt;/b&gt;&lt;br&gt;lactate 2-monooxygenase&lt;br&gt;Location: 164237 - 163017" locus_tag="IO26_RS0113855" class="clusterblast-orf" id="dummy-1_h1_6_26"  />
</g>
<g id="a1_0027"  >
<polygon points="230,85 235,80 242,80 242,90 235,90 230,85 " style="fill:white; stroke-width:1; stroke:black; " description="&lt;b&gt;IO26_RS0113850&lt;/b&gt;&lt;br&gt;thiol reductant ABC exporter subunit CydC&lt;br&gt;Location: 162904 - 161183" locus_tag="IO26_RS0113850" class="clusterblast-orf" id="dummy-1_h1_6_27"  />
</g>
<g id="a1_0028"  >
<polygon points="243,85 248,80 248,80 248,90 248,90 243,85 " style="fill:white; stroke-width:1; stroke:black; " description="&lt;b&gt;IO26_RS47800&lt;/b&gt;&lt;br&gt;thiol reductant ABC exporter subunit CydD&lt;br&gt;Location: 161036 - 160341" locus_tag="IO26_RS47800" class="clusterblast-orf" id="dummy-1_h1_6_28"  />
</g>
<g id="a1_0029"  >
<polygon points="251,85 256,80 257,80 257,90 256,90 251,85 " style="fill:white; stroke-width:1; stroke:black; " description="&lt;b&gt;IO26_RS47795&lt;/b&gt;&lt;br&gt;thiol reductant ABC exporter subunit CydD&lt;br&gt;Location: 160051 - 159107" locus_tag="IO26_RS47795" class="clusterblast-orf" id="dummy-1_h1_6_29"  />
</g>
<g id="a1_0030"  >
<polygon points="258,85 263,80 265,80 265,90 263,90 258,85 " style="fill:white; stroke-width:1; stroke:black; " description="&lt;b&gt;IO26_RS0113835&lt;/b&gt;&lt;br&gt;cytochrome d ubiquinol oxidase subunit II&lt;br&gt;Location: 159048 - 158023" locus_tag="IO26_RS0113835" class="clusterblast-orf" id="dummy-1_h1_6_30"  />
</g>
<g id="a1_0031"  >
<polygon points="265,85 270,80 275,80 275,90 270,90 265,85 " style="fill:white; stroke-width:1; stroke:black; " description="&lt;b&gt;IO26_RS0113830&lt;/b&gt;&lt;br&gt;cytochrome ubiquinol oxidase subunit I&lt;br&gt;Location: 158017 - 156671" locus_tag="IO26_RS0113830" class="clusterblast-orf" id="dummy-1_h1_6_31"  />
</g>
<g id="a1_0032"  >
<polygon points="276,90 278,90 283,85 278,80 276,80 276,90 " style="fill:white; stroke-width:1; stroke:black; " description="&lt;b&gt;IO26_RS0113825&lt;/b&gt;&lt;br&gt;LysR family transcriptional regulator&lt;br&gt;Location: 156465 - 155521" locus_tag="IO26_RS0113825" class="clusterblast-orf" id="dummy-1_h1_6_32"  />
</g>
<g id="a1_0033"  >
<polygon points="285,90 287,85 285,80 285,90 " style="fill:white; stroke-width:1; stroke:black; " description="&lt;b&gt;IO26_RS0113820&lt;/b&gt;&lt;br&gt;ferredoxin&lt;br&gt;Location: 155263 - 154940" locus_tag="IO26_RS0113820" class="clusterblast-orf" id="dummy-1_h1_6_33"  />
</g>
<g id="a1_0034"  >
<polygon points="287,90 291,90 296,85 291,80 287,80 287,90 " style="fill:white; stroke-width:1; stroke:black; " description="&lt;b&gt;IO26_RS0113815&lt;/b&gt;&lt;br&gt;hypothetical protein&lt;br&gt;Location: 154940 - 153684" locus_tag="IO26_RS0113815" class="clusterblast-orf" id="dummy-1_h1_6_34"  />
</g>
<g id="a1_0035"  >
<polygon points="296,85 301,80 308,80 308,90 301,90 296,85 " style="fill:white; stroke-width:1; stroke:black; " description="&lt;b&gt;IO26_RS0113810&lt;/b&gt;&lt;br&gt;2-polyprenyl-6-methoxyphenol hydroxylase&lt;br&gt;Location: 153706 - 152033" locus_tag="IO26_RS0113810" class="clusterblast-orf" id="dummy-1_h1_6_35"  />
</g>
<g id="a1_0036"  >
<polygon points="310,85 312,80 312,90 310,85 " style="fill:white; stroke-width:1; stroke:black; " description="&lt;b&gt;IO26_RS47790&lt;/b&gt;&lt;br&gt;hypothetical protein&lt;br&gt;Location: 151820 - 151536" locus_tag="IO26_RS47790" class="clusterblast-orf" id="dummy-1_h1_6_36"  />
</g>
<g id="a1_0037"  >
<polygon points="313,90 316,90 321,85 316,80 313,80 313,90 " style="fill:white; stroke-width:1; stroke:black; " description="&lt;b&gt;IO26_RS0113805&lt;/b&gt;&lt;br&gt;pkd repeat-containing protein&lt;br&gt;Location: 151390 - 150236" locus_tag="IO26_RS0113805" class="clusterblast-orf" id="dummy-1_h1_6_37"  />
</g>
<g id="a1_0038"  >
<polygon points="323,85 327,80 327,90 323,85 " style="fill:white; stroke-width:1; stroke:black; " description="&lt;b&gt;IO26_RS0113800&lt;/b&gt;&lt;br&gt;hypothetical protein&lt;br&gt;Location: 150046 - 149393" locus_tag="IO26_RS0113800" class="clusterblast-orf" id="dummy-1_h1_6_38"  />
</g>
<g id="a1_0039"  >
<polygon points="328,85 333,80 342,80 342,90 333,90 328,85 " style="fill:white; stroke-width:1; stroke:black; " description="&lt;b&gt;IO26_RS0113795&lt;/b&gt;&lt;br&gt;RiPP maturation radical SAM protein 1&lt;br&gt;Location: 149327 - 147381" locus_tag="IO26_RS0113795" class="clusterblast-orf" id="dummy-1_h1_6_39"  />
</g>
<g id="a1_0040"  >
<polygon points="344,85 349,80 357,80 357,90 349,90 344,85 " style="fill:white; stroke-width:1; stroke:black; " description="&lt;b&gt;IO26_RS42015&lt;/b&gt;&lt;br&gt;S9 family peptidase&lt;br&gt;Location: 147114 - 145189" locus_tag="IO26_RS42015" class="clusterblast-orf" id="dummy-1_h1_6_40"  />
</g>
<g id="a1_0041"  >
<polygon points="358,85 363,80 367,80 367,90 363,90 358,85 " style="fill:white; stroke-width:1; stroke:black; " description="&lt;b&gt;IO26_RS0113780&lt;/b&gt;&lt;br&gt;MFS transporter&lt;br&gt;Location: 145129 - 143846" locus_tag="IO26_RS0113780" class="clusterblast-orf" id="dummy-1_h1_6_41"  />
</g>
<g id="a1_0042"  >
<polygon points="370,85 375,80 396,80 396,90 375,90 370,85 " style="fill:white; stroke-width:1; stroke:black; " description="&lt;b&gt;IO26_RS0113775&lt;/b&gt;&lt;br&gt;cobaltochelatase subunit CobN&lt;br&gt;Location: 143448 - 139822" locus_tag="IO26_RS0113775" class="clusterblast-orf" id="dummy-1_h1_6_42"  />
</g>
<g id="a1_0043"  >
<polygon points="398,90 403,90 408,85 403,80 398,80 398,90 " style="fill:white; stroke-width:1; stroke:black; " description="&lt;b&gt;IO26_RS0113770&lt;/b&gt;&lt;br&gt;precorrin-3B synthase&lt;br&gt;Location: 139604 - 138108" locus_tag="IO26_RS0113770" class="clusterblast-orf" id="dummy-1_h1_6_43"  />
</g>
<g id="a1_0044"  >
<polygon points="409,90 413,85 409,80 409,90 " style="fill:white; stroke-width:1; stroke:black; " description="&lt;b&gt;IO26_RS0113765&lt;/b&gt;&lt;br&gt;precorrin-8X methylmutase&lt;br&gt;Location: 138022 - 137390" locus_tag="IO26_RS0113765" class="clusterblast-orf" id="dummy-1_h1_6_44"  />
</g>
<g id="a1_0045"  >
<polygon points="413,90 419,90 424,85 419,80 413,80 413,90 " style="fill:white; stroke-width:1; stroke:black; " description="&lt;b&gt;IO26_RS0113760&lt;/b&gt;&lt;br&gt;precorrin-2 C(20)-methyltransferase&lt;br&gt;Location: 137393 - 135915" locus_tag="IO26_RS0113760" class="clusterblast-orf" id="dummy-1_h1_6_45"  />
</g>
<g id="a1_0046"  >
<polygon points="427,85 432,80 433,80 433,90 432,90 427,85 " style="fill:white; stroke-width:1; stroke:black; " description="&lt;b&gt;IO26_RS45595&lt;/b&gt;&lt;br&gt;cobalt-precorrin-6A reductase&lt;br&gt;Location: 135512 - 134739" locus_tag="IO26_RS45595" class="clusterblast-orf" id="dummy-1_h1_6_46"  />
</g>
<g id="a1_0047"  >
<polygon points="433,90 436,90 441,85 436,80 433,80 433,90 " style="fill:white; stroke-width:1; stroke:black; " description="&lt;b&gt;IO26_RS45590&lt;/b&gt;&lt;br&gt;cobalt-precorrin-5B (C(1))-methyltransferase&lt;br&gt;Location: 134720 - 133524" locus_tag="IO26_RS45590" class="clusterblast-orf" id="dummy-1_h1_6_47"  />
</g>
<g id="a1_0048"  >
<polygon points="442,85 447,80 447,80 447,90 447,90 442,85 " style="fill:white; stroke-width:1; stroke:black; " description="&lt;b&gt;IO26_RS0113755&lt;/b&gt;&lt;br&gt;precorrin-4 C(11)-methyltransferase&lt;br&gt;Location: 133424 - 132675" locus_tag="IO26_RS0113755" class="clusterblast-orf" id="dummy-1_h1_6_48"  />
</g>
<g id="a1_0049"  >
<polygon points="447,85 452,80 457,80 457,90 452,90 447,85 " style="fill:white; stroke-width:1; stroke:black; " description="&lt;b&gt;IO26_RS0113750&lt;/b&gt;&lt;br&gt;precorrin-6y C5,15-methyltransferase (decarboxylating) subunit CbiE&lt;br&gt;Location: 132678 - 131299" locus_tag="IO26_RS0113750" class="clusterblast-orf" id="dummy-1_h1_6_49"  />
</g>
<g id="a1_0050"  >
<polygon points="459,85 464,80 467,80 467,90 464,90 459,85 " style="fill:white; stroke-width:1; stroke:black; " description="&lt;b&gt;IO26_RS0113745&lt;/b&gt;&lt;br&gt;FAD-dependent monooxygenase&lt;br&gt;Location: 131075 - 129879" locus_tag="IO26_RS0113745" class="clusterblast-orf" id="dummy-1_h1_6_50"  />
</g>
<g id="a1_0051"  >
<polygon points="468,85 470,80 470,90 468,85 " style="fill:white; stroke-width:1; stroke:black; " description="&lt;b&gt;IO26_RS0113740&lt;/b&gt;&lt;br&gt;MbtH family protein&lt;br&gt;Location: 129754 - 129539" locus_tag="IO26_RS0113740" class="clusterblast-orf" id="dummy-1_h1_6_51"  />
</g>
<g id="a1_0052"  >
<polygon points="470,85 475,80 596,80 596,90 475,90 470,85 " style="fill:#8dd815; stroke-width:1; stroke:black; " description="&lt;b&gt;IO26_RS42010&lt;/b&gt;&lt;br&gt;non-ribosomal peptide synthetase&lt;br&gt;Location: 129529 - 111962&lt;br&gt;&lt;br&gt;&lt;b&gt;BlastP hit with ctg48_17&lt;/b&gt;&lt;br&gt;Percentage identity: 35&lt;br&gt;Percentage coverage: 126&lt;br&gt;BLAST bit score: 1499&lt;br&gt;E-value: 0.0" locus_tag="IO26_RS42010" class="clusterblast-orf" id="dummy-1_h1_6_52"  />
</g>
<g id="a1_0053"  >
<polygon points="596,85 601,80 641,80 641,90 601,90 596,85 " style="fill:white; stroke-width:1; stroke:black; " description="&lt;b&gt;IO26_RS42005&lt;/b&gt;&lt;br&gt;non-ribosomal peptide synthetase&lt;br&gt;Location: 111962 - 105756" locus_tag="IO26_RS42005" class="clusterblast-orf" id="dummy-1_h1_6_53"  />
</g>
<g id="a1_0054"  >
<polygon points="641,85 643,80 643,90 641,85 " style="fill:white; stroke-width:1; stroke:black; " description="&lt;b&gt;IO26_RS45585&lt;/b&gt;&lt;br&gt;hypothetical protein&lt;br&gt;Location: 105751 - 105467" locus_tag="IO26_RS45585" class="clusterblast-orf" id="dummy-1_h1_6_54"  />
</g>
<g id="a1_0055"  >
<polygon points="652,90 654,85 652,80 652,90 " style="fill:white; stroke-width:1; stroke:black; " description="&lt;b&gt;IO26_RS0113720&lt;/b&gt;&lt;br&gt;DUF779 domain-containing protein&lt;br&gt;Location: 104258 - 103902" locus_tag="IO26_RS0113720" class="clusterblast-orf" id="dummy-1_h1_6_55"  />
</g>
<g id="a1_0056"  >
<polygon points="655,90 659,90 664,85 659,80 655,80 655,90 " style="fill:white; stroke-width:1; stroke:black; " description="&lt;b&gt;IO26_RS0113715&lt;/b&gt;&lt;br&gt;phosphodiester glycosidase family protein&lt;br&gt;Location: 103757 - 102537" locus_tag="IO26_RS0113715" class="clusterblast-orf" id="dummy-1_h1_6_56"  />
</g>
<g id="a1_0057"  >
<polygon points="665,85 670,80 676,80 676,90 670,90 665,85 " style="fill:white; stroke-width:1; stroke:black; " description="&lt;b&gt;IO26_RS0113710&lt;/b&gt;&lt;br&gt;hypothetical protein&lt;br&gt;Location: 102435 - 100834" locus_tag="IO26_RS0113710" class="clusterblast-orf" id="dummy-1_h1_6_57"  />
</g>
<g id="a1_0058"  >
<polygon points="677,85 679,80 679,90 677,85 " style="fill:white; stroke-width:1; stroke:black; " description="&lt;b&gt;IO26_RS0113705&lt;/b&gt;&lt;br&gt;hypothetical protein&lt;br&gt;Location: 100681 - 100487" locus_tag="IO26_RS0113705" class="clusterblast-orf" id="dummy-1_h1_6_58"  />
</g>
<g id="a1_0059"  >
<polygon points="680,85 685,80 686,80 686,90 685,90 680,85 " style="fill:white; stroke-width:1; stroke:black; " description="&lt;b&gt;IO26_RS0113700&lt;/b&gt;&lt;br&gt;hypothetical protein&lt;br&gt;Location: 100358 - 99456" locus_tag="IO26_RS0113700" class="clusterblast-orf" id="dummy-1_h1_6_59"  />
</g>
<g id="a1_0060"  >
<polygon points="687,85 692,80 695,80 695,90 692,90 687,85 " style="fill:white; stroke-width:1; stroke:black; " description="&lt;b&gt;IO26_RS0113695&lt;/b&gt;&lt;br&gt;2-hydroxyacid dehydrogenase&lt;br&gt;Location: 99331 - 98273" locus_tag="IO26_RS0113695" class="clusterblast-orf" id="dummy-1_h1_6_60"  />
</g>
<g id="a1_0061"  >
<polygon points="695,85 700,80 700,80 700,90 700,90 695,85 " style="fill:white; stroke-width:1; stroke:black; " description="&lt;b&gt;IO26_RS0113690&lt;/b&gt;&lt;br&gt;histidine phosphatase family protein&lt;br&gt;Location: 98223 - 97609" locus_tag="IO26_RS0113690" class="clusterblast-orf" id="dummy-1_h1_6_61"  />
</g>
<g id="a1_0062"  >
<polygon points="700,85 705,80 711,80 711,90 705,90 700,85 " style="fill:white; stroke-width:1; stroke:black; " description="&lt;b&gt;IO26_RS0113685&lt;/b&gt;&lt;br&gt;carbohydrate kinase&lt;br&gt;Location: 97550 - 96033" locus_tag="IO26_RS0113685" class="clusterblast-orf" id="dummy-1_h1_6_62"  />
</g>
<g id="a1_0063"  >
<polygon points="712,85 717,80 723,80 723,90 717,90 712,85 " style="fill:white; stroke-width:1; stroke:black; " description="&lt;b&gt;IO26_RS0113680&lt;/b&gt;&lt;br&gt;carbohydrate kinase&lt;br&gt;Location: 95887 - 94373" locus_tag="IO26_RS0113680" class="clusterblast-orf" id="dummy-1_h1_6_63"  />
</g>
<g id="a1_0064"  >
<polygon points="723,85 728,80 732,80 732,90 728,90 723,85 " style="fill:white; stroke-width:1; stroke:black; " description="&lt;b&gt;IO26_RS0113675&lt;/b&gt;&lt;br&gt;MFS transporter&lt;br&gt;Location: 94288 - 93026" locus_tag="IO26_RS0113675" class="clusterblast-orf" id="dummy-1_h1_6_64"  />
</g>
<g id="a1_0065"  >
<polygon points="735,90 735,90 740,85 735,80 735,80 735,90 " style="fill:white; stroke-width:1; stroke:black; " description="&lt;b&gt;IO26_RS0113670&lt;/b&gt;&lt;br&gt;DeoR/GlpR transcriptional regulator&lt;br&gt;Location: 92676 - 91912" locus_tag="IO26_RS0113670" class="clusterblast-orf" id="dummy-1_h1_6_65"  />
</g>
<g id="a1_0066"  >
<polygon points="742,85 747,80 747,80 747,90 747,90 742,85 " style="fill:#d81515; stroke-width:1; stroke:black; " description="&lt;b&gt;IO26_RS0113665&lt;/b&gt;&lt;br&gt;ABC transporter&lt;br&gt;Location: 91633 - 90941&lt;br&gt;&lt;br&gt;&lt;b&gt;BlastP hit with ctg48_1&lt;/b&gt;&lt;br&gt;Percentage identity: 34&lt;br&gt;Percentage coverage: 87&lt;br&gt;BLAST bit score: 74&lt;br&gt;E-value: 1.9e-11" locus_tag="IO26_RS0113665" class="clusterblast-orf" id="dummy-1_h1_6_66"  />
</g>
<g id="a1_0067"  >
<polygon points="747,85 752,80 754,80 754,90 752,90 747,85 " style="fill:#d81515; stroke-width:1; stroke:black; " description="&lt;b&gt;IO26_RS0113660&lt;/b&gt;&lt;br&gt;ABC transporter ATP-binding protein&lt;br&gt;Location: 90948 - 89983&lt;br&gt;&lt;br&gt;&lt;b&gt;BlastP hit with ctg48_1&lt;/b&gt;&lt;br&gt;Percentage identity: 75&lt;br&gt;Percentage coverage: 90&lt;br&gt;BLAST bit score: 303&lt;br&gt;E-value: 1.9e-80" locus_tag="IO26_RS0113660" class="clusterblast-orf" id="dummy-1_h1_6_67"  />
</g>
<g id="a1_0068"  >
<polygon points="754,85 759,80 761,80 761,90 759,90 754,85 " style="fill:#d81515; stroke-width:1; stroke:black; " description="&lt;b&gt;IO26_RS0113655&lt;/b&gt;&lt;br&gt;ABC transporter permease&lt;br&gt;Location: 89986 - 89120&lt;br&gt;&lt;br&gt;&lt;b&gt;BlastP hit with ctg48_2&lt;/b&gt;&lt;br&gt;Percentage identity: 80&lt;br&gt;Percentage coverage: 82&lt;br&gt;BLAST bit score: 353&lt;br&gt;E-value: 1.9e-95" locus_tag="IO26_RS0113655" class="clusterblast-orf" id="dummy-1_h1_6_68"  />
</g>
<g id="a1_0069"  >
<polygon points="761,85 766,80 768,80 768,90 766,90 761,85 " style="fill:#33d815; stroke-width:1; stroke:black; " description="&lt;b&gt;IO26_RS0113650&lt;/b&gt;&lt;br&gt;ABC transporter permease&lt;br&gt;Location: 89061 - 88069&lt;br&gt;&lt;br&gt;&lt;b&gt;BlastP hit with ctg48_3&lt;/b&gt;&lt;br&gt;Percentage identity: 70&lt;br&gt;Percentage coverage: 91&lt;br&gt;BLAST bit score: 431&lt;br&gt;E-value: 6.8e-119" locus_tag="IO26_RS0113650" class="clusterblast-orf" id="dummy-1_h1_6_69"  />
</g>
<g id="a1_0070"  >
<polygon points="768,85 773,80 780,80 780,90 773,90 768,85 " style="fill:#15abd8; stroke-width:1; stroke:black; " description="&lt;b&gt;IO26_RS0113645&lt;/b&gt;&lt;br&gt;ABC transporter substrate-binding protein&lt;br&gt;Location: 88072 - 86483&lt;br&gt;&lt;br&gt;&lt;b&gt;BlastP hit with ctg48_4&lt;/b&gt;&lt;br&gt;Percentage identity: 64&lt;br&gt;Percentage coverage: 87&lt;br&gt;BLAST bit score: 645&lt;br&gt;E-value: 4.7e-183" locus_tag="IO26_RS0113645" class="clusterblast-orf" id="dummy-1_h1_6_70"  />
</g>
</svg>
