<svg xmlns="http://www.w3.org/2000/svg" xmlns:xlink="http://www.w3.org/1999/xlink" version="1.1" x="0" y="0" height="230" width="800" viewBox="0 0 800 230" preserveAspectRatio="none"  >
<g label="Query sequence" class="clusterblast-cluster"  >
<text x="5" y="20" class="clusterblast-acc"  >
Query sequence</text>
<line x1="10" y1="35" x2="778.0" y2="35" style="stroke-width:1; stroke:grey; "  />
<polygon points="282,40 292,40 297,35 292,30 282,30 282,40 " style="fill:#d81515; stroke-width:1; stroke:black; " description="&lt;b&gt;ctg114_1&lt;/b&gt;&lt;br&gt;ctg114 1&lt;br&gt;Location: 82 - 1120" locus_tag="ctg114_1" class="clusterblast-orf" id="dummy-1_q0_0_all"  />
<polygon points="305,40 310,40 315,35 310,30 305,30 305,40 " style="fill:#15d815; stroke-width:1; stroke:black; " description="&lt;b&gt;ctg114_2&lt;/b&gt;&lt;br&gt;ctg114 2&lt;br&gt;Location: 1749 - 2454" locus_tag="ctg114_2" class="clusterblast-orf" id="dummy-1_q1_0_all"  />
<polygon points="316,40 453,40 458,35 453,30 316,30 316,40 " style="fill:#1515d8; stroke-width:1; stroke:black; " description="&lt;b&gt;ctg114_3&lt;/b&gt;&lt;br&gt;ctg114 3&lt;br&gt;Location: 2480 - 12737" locus_tag="ctg114_3" class="clusterblast-orf" id="dummy-1_q2_0_all"  />
<polygon points="458,40 492,40 497,35 492,30 458,30 458,40 " style="fill:#1515d8; stroke-width:1; stroke:black; " description="&lt;b&gt;ctg114_4&lt;/b&gt;&lt;br&gt;ctg114 4&lt;br&gt;Location: 12759 - 15555" locus_tag="ctg114_4" class="clusterblast-orf" id="dummy-1_q3_0_all"  />
</g>
<g label="NZ_KB890916" description="NZ_KB890916_c5: Streptomyces sp. CcalMP-8W B053DRAFT scaffold 1.2, whole geno... (7% of genes show similarity), nrps" class="clusterblast-cluster"  >
<text x="5" y="70" class="clusterblast-acc"  >
<a xlink:href="https://antismash-db.secondarymetabolites.org/go/NZ_KB890916/5" target="_blank">NZ_KB890916_c5</a>: Streptomyces sp. CcalMP-8W B053DRAFT scaffold 1.2, whole geno... (7% of genes show similarity), nrps</text>
<line x1="10" y1="85" x2="778.0" y2="85" style="stroke-width:1; stroke:grey; "  />
</g>
<g id="a1_000"  >
<polygon points="0,85 5,80 21,80 21,90 5,90 0,85 " style="fill:white; stroke-width:1; stroke:black; " description="&lt;b&gt;B053_RS0105265&lt;/b&gt;&lt;br&gt;hypothetical protein&lt;br&gt;Location: 454324 - 452750" locus_tag="B053_RS0105265" class="clusterblast-orf" id="dummy-1_h1_7_0"  />
</g>
<g id="a1_001"  >
<polygon points="21,85 26,80 34,80 34,90 26,90 21,85 " style="fill:white; stroke-width:1; stroke:black; " description="&lt;b&gt;B053_RS0105260&lt;/b&gt;&lt;br&gt;hypothetical protein&lt;br&gt;Location: 452753 - 451869" locus_tag="B053_RS0105260" class="clusterblast-orf" id="dummy-1_h1_7_1"  />
</g>
<g id="a1_002"  >
<polygon points="38,85 43,80 50,80 50,90 43,90 38,85 " style="fill:white; stroke-width:1; stroke:black; " description="&lt;b&gt;B053_RS0105250&lt;/b&gt;&lt;br&gt;ABC transporter ATP-binding protein&lt;br&gt;Location: 451536 - 450706" locus_tag="B053_RS0105250" class="clusterblast-orf" id="dummy-1_h1_7_2"  />
</g>
<g id="a1_003"  >
<polygon points="51,85 56,80 66,80 66,90 56,90 51,85 " style="fill:white; stroke-width:1; stroke:black; " description="&lt;b&gt;B053_RS0105245&lt;/b&gt;&lt;br&gt;iron ABC transporter permease&lt;br&gt;Location: 450595 - 449540" locus_tag="B053_RS0105245" class="clusterblast-orf" id="dummy-1_h1_7_3"  />
</g>
<g id="a1_004"  >
<polygon points="66,85 71,80 81,80 81,90 71,90 66,85 " style="fill:white; stroke-width:1; stroke:black; " description="&lt;b&gt;B053_RS0105240&lt;/b&gt;&lt;br&gt;iron ABC transporter&lt;br&gt;Location: 449543 - 448455" locus_tag="B053_RS0105240" class="clusterblast-orf" id="dummy-1_h1_7_4"  />
</g>
<g id="a1_005"  >
<polygon points="84,85 89,80 98,80 98,90 89,90 84,85 " style="fill:white; stroke-width:1; stroke:black; " description="&lt;b&gt;B053_RS0105235&lt;/b&gt;&lt;br&gt;ABC transporter substrate-binding protein&lt;br&gt;Location: 448206 - 447223" locus_tag="B053_RS0105235" class="clusterblast-orf" id="dummy-1_h1_7_5"  />
</g>
<g id="a1_006"  >
<polygon points="101,90 113,90 118,85 113,80 101,80 101,90 " style="fill:white; stroke-width:1; stroke:black; " description="&lt;b&gt;B053_RS0105230&lt;/b&gt;&lt;br&gt;hypothetical protein&lt;br&gt;Location: 447045 - 445780" locus_tag="B053_RS0105230" class="clusterblast-orf" id="dummy-1_h1_7_6"  />
</g>
<g id="a1_007"  >
<polygon points="120,90 123,85 120,80 120,90 " style="fill:white; stroke-width:1; stroke:black; " description="&lt;b&gt;B053_RS0105225&lt;/b&gt;&lt;br&gt;50S ribosomal protein L32&lt;br&gt;Location: 445633 - 445463" locus_tag="B053_RS0105225" class="clusterblast-orf" id="dummy-1_h1_7_7"  />
</g>
<g id="a1_008"  >
<polygon points="124,85 128,80 128,90 124,85 " style="fill:white; stroke-width:1; stroke:black; " description="&lt;b&gt;B053_RS0105220&lt;/b&gt;&lt;br&gt;30S ribosomal protein S14&lt;br&gt;Location: 445379 - 445074" locus_tag="B053_RS0105220" class="clusterblast-orf" id="dummy-1_h1_7_8"  />
</g>
<g id="a1_009"  >
<polygon points="128,85 131,80 131,90 128,85 " style="fill:white; stroke-width:1; stroke:black; " description="&lt;b&gt;B053_RS0105215&lt;/b&gt;&lt;br&gt;50S ribosomal protein L28&lt;br&gt;Location: 445074 - 444838" locus_tag="B053_RS0105215" class="clusterblast-orf" id="dummy-1_h1_7_9"  />
</g>
<g id="a1_0010"  >
<polygon points="132,90 134,85 132,80 132,90 " style="fill:white; stroke-width:1; stroke:black; " description="&lt;b&gt;B053_RS0105210&lt;/b&gt;&lt;br&gt;50S ribosomal protein L33&lt;br&gt;Location: 444768 - 444604" locus_tag="B053_RS0105210" class="clusterblast-orf" id="dummy-1_h1_7_10"  />
</g>
<g id="a1_0011"  >
<polygon points="135,90 139,85 135,80 135,90 " style="fill:white; stroke-width:1; stroke:black; " description="&lt;b&gt;B053_RS0105205&lt;/b&gt;&lt;br&gt;type B 50S ribosomal protein L31&lt;br&gt;Location: 444554 - 444300" locus_tag="B053_RS0105205" class="clusterblast-orf" id="dummy-1_h1_7_11"  />
</g>
<g id="a1_0012"  >
<polygon points="139,90 150,90 155,85 150,80 139,80 139,90 " style="fill:white; stroke-width:1; stroke:black; " description="&lt;b&gt;B053_RS0105200&lt;/b&gt;&lt;br&gt;cobalamin biosynthesis protein CobW&lt;br&gt;Location: 444303 - 443146" locus_tag="B053_RS0105200" class="clusterblast-orf" id="dummy-1_h1_7_12"  />
</g>
<g id="a1_0013"  >
<polygon points="155,90 159,85 155,80 155,90 " style="fill:white; stroke-width:1; stroke:black; " description="&lt;b&gt;B053_RS0105195&lt;/b&gt;&lt;br&gt;30S ribosomal protein S18&lt;br&gt;Location: 443098 - 442847" locus_tag="B053_RS0105195" class="clusterblast-orf" id="dummy-1_h1_7_13"  />
</g>
<g id="a1_0014"  >
<polygon points="160,90 178,90 183,85 178,80 160,80 160,90 " style="fill:white; stroke-width:1; stroke:black; " description="&lt;b&gt;B053_RS0105190&lt;/b&gt;&lt;br&gt;MFS transporter&lt;br&gt;Location: 442780 - 441143" locus_tag="B053_RS0105190" class="clusterblast-orf" id="dummy-1_h1_7_14"  />
</g>
<g id="a1_0015"  >
<polygon points="182,85 187,80 189,80 189,90 187,90 182,85 " style="fill:white; stroke-width:1; stroke:black; " description="&lt;b&gt;B053_RS0105185&lt;/b&gt;&lt;br&gt;hypothetical protein&lt;br&gt;Location: 441155 - 440712" locus_tag="B053_RS0105185" class="clusterblast-orf" id="dummy-1_h1_7_15"  />
</g>
<g id="a1_0016"  >
<polygon points="196,90 202,90 207,85 202,80 196,80 196,90 " style="fill:white; stroke-width:1; stroke:black; " description="&lt;b&gt;B053_RS0105180&lt;/b&gt;&lt;br&gt;ABC transporter ATP-binding protein&lt;br&gt;Location: 440207 - 439377" locus_tag="B053_RS0105180" class="clusterblast-orf" id="dummy-1_h1_7_16"  />
</g>
<g id="a1_0017"  >
<polygon points="207,90 216,90 221,85 216,80 207,80 207,90 " style="fill:white; stroke-width:1; stroke:black; " description="&lt;b&gt;B053_RS0105175&lt;/b&gt;&lt;br&gt;iron-siderophore ABC transporter substrate-binding protein&lt;br&gt;Location: 439368 - 438394" locus_tag="B053_RS0105175" class="clusterblast-orf" id="dummy-1_h1_7_17"  />
</g>
<g id="a1_0018"  >
<polygon points="221,90 246,90 251,85 246,80 221,80 221,90 " style="fill:white; stroke-width:1; stroke:black; " description="&lt;b&gt;B053_RS0105170&lt;/b&gt;&lt;br&gt;iron ABC transporter permease&lt;br&gt;Location: 438391 - 436244" locus_tag="B053_RS0105170" class="clusterblast-orf" id="dummy-1_h1_7_18"  />
</g>
<g id="a1_0019"  >
<polygon points="259,90 264,90 269,85 264,80 259,80 259,90 " style="fill:#15d815; stroke-width:1; stroke:black; " description="&lt;b&gt;B053_RS0105165&lt;/b&gt;&lt;br&gt;thioesterase&lt;br&gt;Location: 435635 - 434916&lt;br&gt;&lt;br&gt;&lt;b&gt;BlastP hit with ctg114_2&lt;/b&gt;&lt;br&gt;Percentage identity: 62&lt;br&gt;Percentage coverage: 97&lt;br&gt;BLAST bit score: 290&lt;br&gt;E-value: 2.1e-76" locus_tag="B053_RS0105165" class="clusterblast-orf" id="dummy-1_h1_7_19"  />
</g>
<g id="a1_0020"  >
<polygon points="269,90 406,90 411,85 406,80 269,80 269,90 " style="fill:#1515d8; stroke-width:1; stroke:black; " description="&lt;b&gt;B053_RS0105160&lt;/b&gt;&lt;br&gt;KR domain-containing protein&lt;br&gt;Location: 434938 - 424655&lt;br&gt;&lt;br&gt;&lt;b&gt;BlastP hit with ctg114_3&lt;/b&gt;&lt;br&gt;Percentage identity: 63&lt;br&gt;Percentage coverage: 101&lt;br&gt;BLAST bit score: 4038&lt;br&gt;E-value: 0.0&lt;br&gt;&lt;br&gt;&lt;b&gt;BlastP hit with ctg114_4&lt;/b&gt;&lt;br&gt;Percentage identity: 34&lt;br&gt;Percentage coverage: 75&lt;br&gt;BLAST bit score: 318&lt;br&gt;E-value: 2.9e-84" locus_tag="B053_RS0105160" class="clusterblast-orf" id="dummy-1_h1_7_20"  />
</g>
<g id="a1_0021"  >
<polygon points="412,90 517,90 522,85 517,80 412,80 412,90 " style="fill:#1515d8; stroke-width:1; stroke:black; " description="&lt;b&gt;B053_RS0105155&lt;/b&gt;&lt;br&gt;non-ribosomal peptide synthetase&lt;br&gt;Location: 424632 - 416659&lt;br&gt;&lt;br&gt;&lt;b&gt;BlastP hit with ctg114_3&lt;/b&gt;&lt;br&gt;Percentage identity: 31&lt;br&gt;Percentage coverage: 73&lt;br&gt;BLAST bit score: 842&lt;br&gt;E-value: 1.2e-241&lt;br&gt;&lt;br&gt;&lt;b&gt;BlastP hit with ctg114_4&lt;/b&gt;&lt;br&gt;Percentage identity: 65&lt;br&gt;Percentage coverage: 100&lt;br&gt;BLAST bit score: 1141&lt;br&gt;E-value: 0.0" locus_tag="B053_RS0105155" class="clusterblast-orf" id="dummy-1_h1_7_21"  />
</g>
<g id="a1_0022"  >
<polygon points="525,90 536,90 541,85 536,80 525,80 525,90 " style="fill:white; stroke-width:1; stroke:black; " description="&lt;b&gt;B053_RS01000000133520&lt;/b&gt;&lt;br&gt;IS630 family transposase&lt;br&gt;Location: 416511 - 415300" locus_tag="B053_RS01000000133520" class="clusterblast-orf" id="dummy-1_h1_7_22"  />
</g>
<g id="a1_0023"  >
<polygon points="543,85 548,80 560,80 560,90 548,90 543,85 " style="fill:white; stroke-width:1; stroke:black; " description="&lt;b&gt;B053_RS01000000133515&lt;/b&gt;&lt;br&gt;MFS transporter&lt;br&gt;Location: 415152 - 413962" locus_tag="B053_RS01000000133515" class="clusterblast-orf" id="dummy-1_h1_7_23"  />
</g>
<g id="a1_0024"  >
<polygon points="564,85 569,80 586,80 586,90 569,90 564,85 " style="fill:white; stroke-width:1; stroke:black; " description="&lt;b&gt;B053_RS0105140&lt;/b&gt;&lt;br&gt;adenosine deaminase&lt;br&gt;Location: 413704 - 412085" locus_tag="B053_RS0105140" class="clusterblast-orf" id="dummy-1_h1_7_24"  />
</g>
<g id="a1_0025"  >
<polygon points="588,85 593,80 595,80 595,90 593,90 588,85 " style="fill:white; stroke-width:1; stroke:black; " description="&lt;b&gt;B053_RS0105135&lt;/b&gt;&lt;br&gt;FMN reductase (NADPH)&lt;br&gt;Location: 411973 - 411401" locus_tag="B053_RS0105135" class="clusterblast-orf" id="dummy-1_h1_7_25"  />
</g>
<g id="a1_0026"  >
<polygon points="597,85 602,80 607,80 607,90 602,90 597,85 " style="fill:white; stroke-width:1; stroke:black; " description="&lt;b&gt;B053_RS0105130&lt;/b&gt;&lt;br&gt;alpha/beta hydrolase&lt;br&gt;Location: 411327 - 410563" locus_tag="B053_RS0105130" class="clusterblast-orf" id="dummy-1_h1_7_26"  />
</g>
<g id="a1_0027"  >
<polygon points="608,85 610,80 610,90 608,85 " style="fill:white; stroke-width:1; stroke:black; " description="&lt;b&gt;B053_RS1000000135455&lt;/b&gt;&lt;br&gt;monooxygenase&lt;br&gt;Location: 410516 - 410331" locus_tag="B053_RS1000000135455" class="clusterblast-orf" id="dummy-1_h1_7_27"  />
</g>
<g id="a1_0028"  >
<polygon points="612,85 617,80 631,80 631,90 617,90 612,85 " style="fill:white; stroke-width:1; stroke:black; " description="&lt;b&gt;B053_RS0105120&lt;/b&gt;&lt;br&gt;LLM class flavin-dependent oxidoreductase&lt;br&gt;Location: 410219 - 408879" locus_tag="B053_RS0105120" class="clusterblast-orf" id="dummy-1_h1_7_28"  />
</g>
<g id="a1_0029"  >
<polygon points="631,85 636,80 643,80 643,90 636,90 631,85 " style="fill:white; stroke-width:1; stroke:black; " description="&lt;b&gt;B053_RS0105115&lt;/b&gt;&lt;br&gt;ABC transporter ATP-binding protein&lt;br&gt;Location: 408840 - 407971" locus_tag="B053_RS0105115" class="clusterblast-orf" id="dummy-1_h1_7_29"  />
</g>
<g id="a1_0030"  >
<polygon points="643,85 648,80 656,80 656,90 648,90 643,85 " style="fill:white; stroke-width:1; stroke:black; " description="&lt;b&gt;B053_RS0105110&lt;/b&gt;&lt;br&gt;ABC transporter ATP-binding protein&lt;br&gt;Location: 407974 - 407057" locus_tag="B053_RS0105110" class="clusterblast-orf" id="dummy-1_h1_7_30"  />
</g>
<g id="a1_0031"  >
<polygon points="656,85 661,80 668,80 668,90 661,90 656,85 " style="fill:white; stroke-width:1; stroke:black; " description="&lt;b&gt;B053_RS0105105&lt;/b&gt;&lt;br&gt;ABC transporter permease&lt;br&gt;Location: 407060 - 406167" locus_tag="B053_RS0105105" class="clusterblast-orf" id="dummy-1_h1_7_31"  />
</g>
<g id="a1_0032"  >
<polygon points="668,85 673,80 682,80 682,90 673,90 668,85 " style="fill:white; stroke-width:1; stroke:black; " description="&lt;b&gt;B053_RS0105100&lt;/b&gt;&lt;br&gt;ABC transporter permease&lt;br&gt;Location: 406164 - 405136" locus_tag="B053_RS0105100" class="clusterblast-orf" id="dummy-1_h1_7_32"  />
</g>
<g id="a1_0033"  >
<polygon points="684,85 689,80 706,80 706,90 689,90 684,85 " style="fill:white; stroke-width:1; stroke:black; " description="&lt;b&gt;B053_RS0105095&lt;/b&gt;&lt;br&gt;peptide ABC transporter permease&lt;br&gt;Location: 405049 - 403475" locus_tag="B053_RS0105095" class="clusterblast-orf" id="dummy-1_h1_7_33"  />
</g>
<g id="a1_0034"  >
<polygon points="706,90 709,85 706,80 706,90 " style="fill:white; stroke-width:1; stroke:black; " description="&lt;b&gt;B053_RS0105090&lt;/b&gt;&lt;br&gt;hypothetical protein&lt;br&gt;Location: 403456 - 403259" locus_tag="B053_RS0105090" class="clusterblast-orf" id="dummy-1_h1_7_34"  />
</g>
<g id="a1_0035"  >
<polygon points="713,85 718,80 725,80 725,90 718,90 713,85 " style="fill:white; stroke-width:1; stroke:black; " description="&lt;b&gt;B053_RS0105085&lt;/b&gt;&lt;br&gt;hypothetical protein&lt;br&gt;Location: 402962 - 402093" locus_tag="B053_RS0105085" class="clusterblast-orf" id="dummy-1_h1_7_35"  />
</g>
<g id="a1_0036"  >
<polygon points="726,85 731,80 732,80 732,90 731,90 726,85 " style="fill:white; stroke-width:1; stroke:black; " description="&lt;b&gt;B053_RS0105080&lt;/b&gt;&lt;br&gt;Rrf2 family transcriptional regulator&lt;br&gt;Location: 401982 - 401548" locus_tag="B053_RS0105080" class="clusterblast-orf" id="dummy-1_h1_7_36"  />
</g>
<g id="a1_0037"  >
<polygon points="734,90 736,90 741,85 736,80 734,80 734,90 " style="fill:white; stroke-width:1; stroke:black; " description="&lt;b&gt;B053_RS0105075&lt;/b&gt;&lt;br&gt;cupin domain-containing protein&lt;br&gt;Location: 401407 - 400886" locus_tag="B053_RS0105075" class="clusterblast-orf" id="dummy-1_h1_7_37"  />
</g>
<g id="a1_0038"  >
<polygon points="745,85 750,80 768,80 768,90 750,90 745,85 " style="fill:white; stroke-width:1; stroke:black; " description="&lt;b&gt;B053_RS0105070&lt;/b&gt;&lt;br&gt;alpha/beta hydrolase&lt;br&gt;Location: 400610 - 399003" locus_tag="B053_RS0105070" class="clusterblast-orf" id="dummy-1_h1_7_38"  />
</g>
<g id="a1_0039"  >
<polygon points="772,85 777,80 780,80 780,90 777,90 772,85 " style="fill:white; stroke-width:1; stroke:black; " description="&lt;b&gt;B053_RS0105065&lt;/b&gt;&lt;br&gt;copper chaperone PCu(A)C&lt;br&gt;Location: 398669 - 398148" locus_tag="B053_RS0105065" class="clusterblast-orf" id="dummy-1_h1_7_39"  />
</g>
</svg>
