<svg xmlns="http://www.w3.org/2000/svg" xmlns:xlink="http://www.w3.org/1999/xlink" version="1.1" x="0" y="0" height="230" width="800" viewBox="0 0 800 230" preserveAspectRatio="none"  >
<g label="Query sequence" class="clusterblast-cluster"  >
<text x="5" y="20" class="clusterblast-acc"  >
Query sequence</text>
<line x1="10" y1="35" x2="778.0" y2="35" style="stroke-width:1; stroke:grey; "  />
<polygon points="325,35 330,30 335,30 335,40 330,40 325,35 " style="fill:#d81515; stroke-width:1; stroke:black; " description="&lt;b&gt;ctg263_1&lt;/b&gt;&lt;br&gt;ctg263 1&lt;br&gt;Location: 2 - 560" locus_tag="ctg263_1" class="clusterblast-orf" id="dummy-1_q0_0_all"  />
<polygon points="335,35 340,30 351,30 351,40 340,40 335,35 " style="fill:#77d815; stroke-width:1; stroke:black; " description="&lt;b&gt;ctg263_2&lt;/b&gt;&lt;br&gt;ctg263 2&lt;br&gt;Location: 559 - 1465" locus_tag="ctg263_2" class="clusterblast-orf" id="dummy-1_q1_0_all"  />
<polygon points="352,35 357,30 425,30 425,40 357,40 352,35 " style="fill:#15d8d8; stroke-width:1; stroke:black; " description="&lt;b&gt;ctg263_3&lt;/b&gt;&lt;br&gt;ctg263 3&lt;br&gt;Location: 1506 - 5577" locus_tag="ctg263_3" class="clusterblast-orf" id="dummy-1_q2_0_all"  />
<polygon points="434,35 439,30 454,30 454,40 439,40 434,35 " style="fill:#7715d8; stroke-width:1; stroke:black; " description="&lt;b&gt;ctg263_4&lt;/b&gt;&lt;br&gt;ctg263 4&lt;br&gt;Location: 6099 - 7227" locus_tag="ctg263_4" class="clusterblast-orf" id="dummy-1_q3_0_all"  />
</g>
<g label="NZ_CP021121" description="NZ_CP021121_c14: Streptomyces sp. SCSIO 03032 chromosome, complete genome (8% of genes show similarity), other" class="clusterblast-cluster"  >
<text x="5" y="70" class="clusterblast-acc"  >
<a xlink:href="https://antismash-db.secondarymetabolites.org/go/NZ_CP021121/14" target="_blank">NZ_CP021121_c14</a>: Streptomyces sp. SCSIO 03032 chromosome, complete genome (8% of genes show similarity), other</text>
<line x1="10" y1="85" x2="778.0" y2="85" style="stroke-width:1; stroke:grey; "  />
</g>
<g id="a1_000"  >
<polygon points="0,85 5,80 13,80 13,90 5,90 0,85 " style="fill:white; stroke-width:1; stroke:black; " description="&lt;b&gt;CAG99_RS14440&lt;/b&gt;&lt;br&gt;aminotransferase&lt;br&gt;Location: 3281393 - 3280617" locus_tag="CAG99_RS14440" class="clusterblast-orf" id="dummy-1_h1_6_0"  />
</g>
<g id="a1_001"  >
<polygon points="19,90 30,90 35,85 30,80 19,80 19,90 " style="fill:white; stroke-width:1; stroke:black; " description="&lt;b&gt;CAG99_RS14435&lt;/b&gt;&lt;br&gt;methyltransferase, FxLD system&lt;br&gt;Location: 3280302 - 3279413" locus_tag="CAG99_RS14435" class="clusterblast-orf" id="dummy-1_h1_6_1"  />
</g>
<g id="a1_002"  >
<polygon points="35,90 67,90 72,85 67,80 35,80 35,90 " style="fill:white; stroke-width:1; stroke:black; " description="&lt;b&gt;CAG99_RS14430&lt;/b&gt;&lt;br&gt;TerD family protein&lt;br&gt;Location: 3279416 - 3277338" locus_tag="CAG99_RS14430" class="clusterblast-orf" id="dummy-1_h1_6_2"  />
</g>
<g id="a1_003"  >
<polygon points="72,90 83,90 88,85 83,80 72,80 72,90 " style="fill:white; stroke-width:1; stroke:black; " description="&lt;b&gt;CAG99_RS14425&lt;/b&gt;&lt;br&gt;NERD domain-containing protein&lt;br&gt;Location: 3277341 - 3276445" locus_tag="CAG99_RS14425" class="clusterblast-orf" id="dummy-1_h1_6_3"  />
</g>
<g id="a1_004"  >
<polygon points="94,85 99,80 106,80 106,90 99,90 94,85 " style="fill:white; stroke-width:1; stroke:black; " description="&lt;b&gt;CAG99_RS14420&lt;/b&gt;&lt;br&gt;hypothetical protein&lt;br&gt;Location: 3276061 - 3275393" locus_tag="CAG99_RS14420" class="clusterblast-orf" id="dummy-1_h1_6_4"  />
</g>
<g id="a1_005"  >
<polygon points="106,85 111,80 167,80 167,90 111,90 106,85 " style="fill:white; stroke-width:1; stroke:black; " description="&lt;b&gt;CAG99_RS14415&lt;/b&gt;&lt;br&gt;hypothetical protein&lt;br&gt;Location: 3275396 - 3271956" locus_tag="CAG99_RS14415" class="clusterblast-orf" id="dummy-1_h1_6_5"  />
</g>
<g id="a1_006"  >
<polygon points="173,90 175,90 180,85 175,80 173,80 173,90 " style="fill:white; stroke-width:1; stroke:black; " description="&lt;b&gt;CAG99_RS14410&lt;/b&gt;&lt;br&gt;PIN domain nuclease&lt;br&gt;Location: 3271639 - 3271232" locus_tag="CAG99_RS14410" class="clusterblast-orf" id="dummy-1_h1_6_6"  />
</g>
<g id="a1_007"  >
<polygon points="185,90 189,85 185,80 185,90 " style="fill:white; stroke-width:1; stroke:black; " description="&lt;b&gt;CAG99_RS14405&lt;/b&gt;&lt;br&gt;hypothetical protein&lt;br&gt;Location: 3270950 - 3270729" locus_tag="CAG99_RS14405" class="clusterblast-orf" id="dummy-1_h1_6_7"  />
</g>
<g id="a1_008"  >
<polygon points="191,85 196,80 212,80 212,90 196,90 191,85 " style="fill:white; stroke-width:1; stroke:black; " description="&lt;b&gt;CAG99_RS14400&lt;/b&gt;&lt;br&gt;peptidase&lt;br&gt;Location: 3270607 - 3269480" locus_tag="CAG99_RS14400" class="clusterblast-orf" id="dummy-1_h1_6_8"  />
</g>
<g id="a1_009"  >
<polygon points="214,85 219,80 221,80 221,90 219,90 214,85 " style="fill:white; stroke-width:1; stroke:black; " description="&lt;b&gt;CAG99_RS14395&lt;/b&gt;&lt;br&gt;hypothetical protein&lt;br&gt;Location: 3269330 - 3268926" locus_tag="CAG99_RS14395" class="clusterblast-orf" id="dummy-1_h1_6_9"  />
</g>
<g id="a1_0010"  >
<polygon points="222,90 231,90 236,85 231,80 222,80 222,90 " style="fill:white; stroke-width:1; stroke:black; " description="&lt;b&gt;CAG99_RS14390&lt;/b&gt;&lt;br&gt;LysR family transcriptional regulator&lt;br&gt;Location: 3268866 - 3268111" locus_tag="CAG99_RS14390" class="clusterblast-orf" id="dummy-1_h1_6_10"  />
</g>
<g id="a1_0011"  >
<polygon points="243,90 250,90 255,85 250,80 243,80 243,90 " style="fill:white; stroke-width:1; stroke:black; " description="&lt;b&gt;CAG99_RS14385&lt;/b&gt;&lt;br&gt;1,4-beta-xylanase&lt;br&gt;Location: 3267712 - 3267029" locus_tag="CAG99_RS14385" class="clusterblast-orf" id="dummy-1_h1_6_11"  />
</g>
<g id="a1_0012"  >
<polygon points="260,90 261,90 266,85 261,80 260,80 260,90 " style="fill:white; stroke-width:1; stroke:black; " description="&lt;b&gt;CAG99_RS14380&lt;/b&gt;&lt;br&gt;PH domain-containing protein&lt;br&gt;Location: 3266768 - 3266403" locus_tag="CAG99_RS14380" class="clusterblast-orf" id="dummy-1_h1_6_12"  />
</g>
<g id="a1_0013"  >
<polygon points="267,85 272,80 287,80 287,90 272,90 267,85 " style="fill:white; stroke-width:1; stroke:black; " description="&lt;b&gt;CAG99_RS14375&lt;/b&gt;&lt;br&gt;glutathione-dependent reductase&lt;br&gt;Location: 3266355 - 3265258" locus_tag="CAG99_RS14375" class="clusterblast-orf" id="dummy-1_h1_6_13"  />
</g>
<g id="a1_0014"  >
<polygon points="290,85 295,80 299,80 299,90 295,90 290,85 " style="fill:white; stroke-width:1; stroke:black; " description="&lt;b&gt;CAG99_RS14370&lt;/b&gt;&lt;br&gt;cupin domain-containing protein&lt;br&gt;Location: 3265071 - 3264580" locus_tag="CAG99_RS14370" class="clusterblast-orf" id="dummy-1_h1_6_14"  />
</g>
<g id="a1_0015"  >
<polygon points="299,85 304,80 317,80 317,90 304,90 299,85 " style="fill:white; stroke-width:1; stroke:black; " description="&lt;b&gt;CAG99_RS14365&lt;/b&gt;&lt;br&gt;cysteine synthase family protein&lt;br&gt;Location: 3264583 - 3263534" locus_tag="CAG99_RS14365" class="clusterblast-orf" id="dummy-1_h1_6_15"  />
</g>
<g id="a1_0016"  >
<polygon points="318,85 323,80 330,80 330,90 323,90 318,85 " style="fill:#d81515; stroke-width:1; stroke:black; " description="&lt;b&gt;CAG99_RS14360&lt;/b&gt;&lt;br&gt;serine acetyltransferase&lt;br&gt;Location: 3263500 - 3262850&lt;br&gt;&lt;br&gt;&lt;b&gt;BlastP hit with ctg263_1&lt;/b&gt;&lt;br&gt;Percentage identity: 66&lt;br&gt;Percentage coverage: 98&lt;br&gt;BLAST bit score: 223&lt;br&gt;E-value: 1.5e-56" locus_tag="CAG99_RS14360" class="clusterblast-orf" id="dummy-1_h1_6_16"  />
</g>
<g id="a1_0017"  >
<polygon points="330,85 335,80 348,80 348,90 335,90 330,85 " style="fill:#77d815; stroke-width:1; stroke:black; " description="&lt;b&gt;CAG99_RS14355&lt;/b&gt;&lt;br&gt;EamA/RhaT family transporter&lt;br&gt;Location: 3262826 - 3261786&lt;br&gt;&lt;br&gt;&lt;b&gt;BlastP hit with ctg263_2&lt;/b&gt;&lt;br&gt;Percentage identity: 71&lt;br&gt;Percentage coverage: 98&lt;br&gt;BLAST bit score: 386&lt;br&gt;E-value: 2.1e-105" locus_tag="CAG99_RS14355" class="clusterblast-orf" id="dummy-1_h1_6_17"  />
</g>
<g id="a1_0018"  >
<polygon points="349,85 354,80 424,80 424,90 354,90 349,85 " style="fill:#15d8d8; stroke-width:1; stroke:black; " description="&lt;b&gt;CAG99_RS14350&lt;/b&gt;&lt;br&gt;amino acid adenylation domain-containing protein&lt;br&gt;Location: 3261741 - 3257545&lt;br&gt;&lt;br&gt;&lt;b&gt;BlastP hit with ctg263_3&lt;/b&gt;&lt;br&gt;Percentage identity: 61&lt;br&gt;Percentage coverage: 102&lt;br&gt;BLAST bit score: 1659&lt;br&gt;E-value: 0.0" locus_tag="CAG99_RS14350" class="clusterblast-orf" id="dummy-1_h1_6_18"  />
</g>
<g id="a1_0019"  >
<polygon points="432,90 447,90 452,85 447,80 432,80 432,90 " style="fill:white; stroke-width:1; stroke:black; " description="&lt;b&gt;CAG99_RS14345&lt;/b&gt;&lt;br&gt;hypothetical protein&lt;br&gt;Location: 3257084 - 3255942" locus_tag="CAG99_RS14345" class="clusterblast-orf" id="dummy-1_h1_6_19"  />
</g>
<g id="a1_0020"  >
<polygon points="452,85 457,80 473,80 473,90 457,90 452,85 " style="fill:white; stroke-width:1; stroke:black; " description="&lt;b&gt;CAG99_RS14340&lt;/b&gt;&lt;br&gt;MFS transporter&lt;br&gt;Location: 3255975 - 3254779" locus_tag="CAG99_RS14340" class="clusterblast-orf" id="dummy-1_h1_6_20"  />
</g>
<g id="a1_0021"  >
<polygon points="479,90 493,90 498,85 493,80 479,80 479,90 " style="fill:white; stroke-width:1; stroke:black; " description="&lt;b&gt;CAG99_RS14335&lt;/b&gt;&lt;br&gt;S-(hydroxymethyl)mycothiol dehydrogenase&lt;br&gt;Location: 3254463 - 3253378" locus_tag="CAG99_RS14335" class="clusterblast-orf" id="dummy-1_h1_6_21"  />
</g>
<g id="a1_0022"  >
<polygon points="498,90 504,90 509,85 504,80 498,80 498,90 " style="fill:white; stroke-width:1; stroke:black; " description="&lt;b&gt;CAG99_RS14330&lt;/b&gt;&lt;br&gt;MBL fold metallo-hydrolase&lt;br&gt;Location: 3253378 - 3252746" locus_tag="CAG99_RS14330" class="clusterblast-orf" id="dummy-1_h1_6_22"  />
</g>
<g id="a1_0023"  >
<polygon points="513,90 525,90 530,85 525,80 513,80 513,90 " style="fill:white; stroke-width:1; stroke:black; " description="&lt;b&gt;CAG99_RS14325&lt;/b&gt;&lt;br&gt;glycosyl transferase&lt;br&gt;Location: 3252528 - 3251563" locus_tag="CAG99_RS14325" class="clusterblast-orf" id="dummy-1_h1_6_23"  />
</g>
<g id="a1_0024"  >
<polygon points="530,90 551,90 556,85 551,80 530,80 530,90 " style="fill:white; stroke-width:1; stroke:black; " description="&lt;b&gt;CAG99_RS14320&lt;/b&gt;&lt;br&gt;hypothetical protein&lt;br&gt;Location: 3251559 - 3250102" locus_tag="CAG99_RS14320" class="clusterblast-orf" id="dummy-1_h1_6_24"  />
</g>
<g id="a1_0025"  >
<polygon points="558,85 563,80 578,80 578,90 563,90 558,85 " style="fill:white; stroke-width:1; stroke:black; " description="&lt;b&gt;CAG99_RS14315&lt;/b&gt;&lt;br&gt;acyltransferase&lt;br&gt;Location: 3249985 - 3248870" locus_tag="CAG99_RS14315" class="clusterblast-orf" id="dummy-1_h1_6_25"  />
</g>
<g id="a1_0026"  >
<polygon points="582,85 587,80 593,80 593,90 587,90 582,85 " style="fill:white; stroke-width:1; stroke:black; " description="&lt;b&gt;CAG99_RS14310&lt;/b&gt;&lt;br&gt;hypothetical protein&lt;br&gt;Location: 3248638 - 3248027" locus_tag="CAG99_RS14310" class="clusterblast-orf" id="dummy-1_h1_6_26"  />
</g>
<g id="a1_0027"  >
<polygon points="600,90 608,90 613,85 608,80 600,80 600,90 " style="fill:white; stroke-width:1; stroke:black; " description="&lt;b&gt;CAG99_RS14305&lt;/b&gt;&lt;br&gt;sulfite exporter TauE/SafE family protein&lt;br&gt;Location: 3247668 - 3246901" locus_tag="CAG99_RS14305" class="clusterblast-orf" id="dummy-1_h1_6_27"  />
</g>
<g id="a1_0028"  >
<polygon points="615,90 637,90 642,85 637,80 615,80 615,90 " style="fill:white; stroke-width:1; stroke:black; " description="&lt;b&gt;CAG99_RS14300&lt;/b&gt;&lt;br&gt;ATP-dependent DNA ligase&lt;br&gt;Location: 3246817 - 3245300" locus_tag="CAG99_RS14300" class="clusterblast-orf" id="dummy-1_h1_6_28"  />
</g>
<g id="a1_0029"  >
<polygon points="645,90 659,90 664,85 659,80 645,80 645,90 " style="fill:white; stroke-width:1; stroke:black; " description="&lt;b&gt;CAG99_RS14295&lt;/b&gt;&lt;br&gt;hypothetical protein&lt;br&gt;Location: 3245134 - 3244052" locus_tag="CAG99_RS14295" class="clusterblast-orf" id="dummy-1_h1_6_29"  />
</g>
<g id="a1_0030"  >
<polygon points="665,90 678,90 683,85 678,80 665,80 665,90 " style="fill:white; stroke-width:1; stroke:black; " description="&lt;b&gt;CAG99_RS14290&lt;/b&gt;&lt;br&gt;2-dehydropantoate 2-reductase&lt;br&gt;Location: 3243981 - 3243007" locus_tag="CAG99_RS14290" class="clusterblast-orf" id="dummy-1_h1_6_30"  />
</g>
<g id="a1_0031"  >
<polygon points="682,85 687,80 697,80 697,90 687,90 682,85 " style="fill:white; stroke-width:1; stroke:black; " description="&lt;b&gt;CAG99_RS14285&lt;/b&gt;&lt;br&gt;TetR/AcrR family transcriptional regulator&lt;br&gt;Location: 3243023 - 3242220" locus_tag="CAG99_RS14285" class="clusterblast-orf" id="dummy-1_h1_6_31"  />
</g>
<g id="a1_0032"  >
<polygon points="696,90 709,90 714,85 709,80 696,80 696,90 " style="fill:white; stroke-width:1; stroke:black; " description="&lt;b&gt;CAG99_RS14280&lt;/b&gt;&lt;br&gt;NAD(P)-dependent alcohol dehydrogenase&lt;br&gt;Location: 3242233 - 3241265" locus_tag="CAG99_RS14280" class="clusterblast-orf" id="dummy-1_h1_6_32"  />
</g>
<g id="a1_0033"  >
<polygon points="718,85 723,80 726,80 726,90 723,90 718,85 " style="fill:white; stroke-width:1; stroke:black; " description="&lt;b&gt;CAG99_RS14275&lt;/b&gt;&lt;br&gt;DNA-binding protein&lt;br&gt;Location: 3241027 - 3240575" locus_tag="CAG99_RS14275" class="clusterblast-orf" id="dummy-1_h1_6_33"  />
</g>
<g id="a1_0034"  >
<polygon points="727,85 732,80 742,80 742,90 732,90 727,85 " style="fill:white; stroke-width:1; stroke:black; " description="&lt;b&gt;CAG99_RS14270&lt;/b&gt;&lt;br&gt;NAD(P)-dependent oxidoreductase&lt;br&gt;Location: 3240493 - 3239645" locus_tag="CAG99_RS14270" class="clusterblast-orf" id="dummy-1_h1_6_34"  />
</g>
<g id="a1_0035"  >
<polygon points="744,90 749,90 754,85 749,80 744,80 744,90 " style="fill:white; stroke-width:1; stroke:black; " description="&lt;b&gt;CAG99_RS14265&lt;/b&gt;&lt;br&gt;TetR/AcrR family transcriptional regulator&lt;br&gt;Location: 3239534 - 3238992" locus_tag="CAG99_RS14265" class="clusterblast-orf" id="dummy-1_h1_6_35"  />
</g>
<g id="a1_0036"  >
<polygon points="755,90 775,90 780,85 775,80 755,80 755,90 " style="fill:white; stroke-width:1; stroke:black; " description="&lt;b&gt;CAG99_RS14260&lt;/b&gt;&lt;br&gt;FAD-binding oxidoreductase&lt;br&gt;Location: 3238926 - 3237565" locus_tag="CAG99_RS14260" class="clusterblast-orf" id="dummy-1_h1_6_36"  />
</g>
</svg>
