<svg xmlns="http://www.w3.org/2000/svg" xmlns:xlink="http://www.w3.org/1999/xlink" version="1.1" x="0" y="0" height="230" width="800" viewBox="0 0 800 230" preserveAspectRatio="none"  >
<g label="Query sequence" class="clusterblast-cluster"  >
<text x="5" y="20" class="clusterblast-acc"  >
Query sequence</text>
<line x1="10" y1="35" x2="778.0" y2="35" style="stroke-width:1; stroke:grey; "  />
<polygon points="133,35 138,30 385,30 385,40 138,40 133,35 " style="fill:#d81515; stroke-width:1; stroke:black; " description="&lt;b&gt;ctg30_1&lt;/b&gt;&lt;br&gt;ctg30 1&lt;br&gt;Location: 1 - 14734" locus_tag="ctg30_1" class="clusterblast-orf" id="dummy-1_q0_0_all"  />
<polygon points="391,35 396,30 434,30 434,40 396,40 391,35 " style="fill:#63d815; stroke-width:1; stroke:black; " description="&lt;b&gt;ctg30_2&lt;/b&gt;&lt;br&gt;ctg30 2&lt;br&gt;Location: 15072 - 17592" locus_tag="ctg30_2" class="clusterblast-orf" id="dummy-1_q1_0_all"  />
<polygon points="439,35 444,30 464,30 464,40 444,40 439,35 " style="fill:#15b1d8; stroke-width:1; stroke:black; " description="&lt;b&gt;ctg30_3&lt;/b&gt;&lt;br&gt;ctg30 3&lt;br&gt;Location: 17914 - 19339" locus_tag="ctg30_3" class="clusterblast-orf" id="dummy-1_q2_0_all"  />
<polygon points="464,35 469,30 477,30 477,40 469,40 464,35 " style="fill:#b115d8; stroke-width:1; stroke:black; " description="&lt;b&gt;ctg30_4&lt;/b&gt;&lt;br&gt;ctg30 4&lt;br&gt;Location: 19373 - 20093" locus_tag="ctg30_4" class="clusterblast-orf" id="dummy-1_q3_0_all"  />
<polygon points="477,35 482,30 491,30 491,40 482,40 477,35 " style="fill:#d86315; stroke-width:1; stroke:black; " description="&lt;b&gt;ctg30_5&lt;/b&gt;&lt;br&gt;ctg30 5&lt;br&gt;Location: 20124 - 20904" locus_tag="ctg30_5" class="clusterblast-orf" id="dummy-1_q4_0_all"  />
<polygon points="493,35 494,30 494,40 493,35 " style="fill:white; stroke-width:1; stroke:black; " description="&lt;b&gt;ctg30_6&lt;/b&gt;&lt;br&gt;ctg30 6&lt;br&gt;Location: 21026 - 21116" locus_tag="ctg30_6" class="clusterblast-orf" id="dummy-1_q5_0_all"  />
<polygon points="494,35 499,30 511,30 511,40 499,40 494,35 " style="fill:#15d815; stroke-width:1; stroke:black; " description="&lt;b&gt;ctg30_7&lt;/b&gt;&lt;br&gt;ctg30 7&lt;br&gt;Location: 21112 - 22084" locus_tag="ctg30_7" class="clusterblast-orf" id="dummy-1_q6_0_all"  />
<polygon points="511,35 516,30 523,30 523,40 516,40 511,35 " style="fill:#1563d8; stroke-width:1; stroke:black; " description="&lt;b&gt;ctg30_8&lt;/b&gt;&lt;br&gt;ctg30 8&lt;br&gt;Location: 22104 - 22782" locus_tag="ctg30_8" class="clusterblast-orf" id="dummy-1_q7_0_all"  />
<polygon points="524,35 529,30 542,30 542,40 529,40 524,35 " style="fill:#d815b1; stroke-width:1; stroke:black; " description="&lt;b&gt;ctg30_9&lt;/b&gt;&lt;br&gt;ctg30 9&lt;br&gt;Location: 22857 - 23940" locus_tag="ctg30_9" class="clusterblast-orf" id="dummy-1_q8_0_all"  />
<polygon points="544,40 545,40 550,35 545,30 544,30 544,40 " style="fill:#d8b115; stroke-width:1; stroke:black; " description="&lt;b&gt;ctg30_10&lt;/b&gt;&lt;br&gt;ctg30 10&lt;br&gt;Location: 24041 - 24404" locus_tag="ctg30_10" class="clusterblast-orf" id="dummy-1_q9_0_all"  />
<polygon points="551,35 556,30 563,30 563,40 556,40 551,35 " style="fill:#15d863; stroke-width:1; stroke:black; " description="&lt;b&gt;ctg30_11&lt;/b&gt;&lt;br&gt;ctg30 11&lt;br&gt;Location: 24450 - 25149" locus_tag="ctg30_11" class="clusterblast-orf" id="dummy-1_q10_0_all"  />
<polygon points="564,35 566,30 566,40 564,35 " style="fill:white; stroke-width:1; stroke:black; " description="&lt;b&gt;ctg30_12&lt;/b&gt;&lt;br&gt;ctg30 12&lt;br&gt;Location: 25178 - 25319" locus_tag="ctg30_12" class="clusterblast-orf" id="dummy-1_q11_0_all"  />
<polygon points="566,40 586,40 591,35 586,30 566,30 566,40 " style="fill:#1515d8; stroke-width:1; stroke:black; " description="&lt;b&gt;ctg30_13&lt;/b&gt;&lt;br&gt;ctg30 13&lt;br&gt;Location: 25328 - 26780" locus_tag="ctg30_13" class="clusterblast-orf" id="dummy-1_q12_0_all"  />
<polygon points="591,35 596,30 602,30 602,40 596,40 591,35 " style="fill:#d81563; stroke-width:1; stroke:black; " description="&lt;b&gt;ctg30_14&lt;/b&gt;&lt;br&gt;ctg30 14&lt;br&gt;Location: 26786 - 27428" locus_tag="ctg30_14" class="clusterblast-orf" id="dummy-1_q13_0_all"  />
<polygon points="605,35 610,30 616,30 616,40 610,40 605,35 " style="fill:#b1d815; stroke-width:1; stroke:black; " description="&lt;b&gt;ctg30_15&lt;/b&gt;&lt;br&gt;ctg30 15&lt;br&gt;Location: 27565 - 28261" locus_tag="ctg30_15" class="clusterblast-orf" id="dummy-1_q14_0_all"  />
<polygon points="621,35 626,30 639,30 639,40 626,40 621,35 " style="fill:#15d8b1; stroke-width:1; stroke:black; " description="&lt;b&gt;ctg30_16&lt;/b&gt;&lt;br&gt;ctg30 16&lt;br&gt;Location: 28543 - 29566" locus_tag="ctg30_16" class="clusterblast-orf" id="dummy-1_q15_0_all"  />
<polygon points="639,35 644,30 647,30 647,40 644,40 639,35 " style="fill:#6315d8; stroke-width:1; stroke:black; " description="&lt;b&gt;ctg30_17&lt;/b&gt;&lt;br&gt;ctg30 17&lt;br&gt;Location: 29573 - 30020" locus_tag="ctg30_17" class="clusterblast-orf" id="dummy-1_q16_0_all"  />
</g>
<g label="NZ_JOEK01000004" description="NZ_JOEK01000004_c5: Streptomyces avicenniae strain NRRL B-24776 contig4.1, wh... (27% of genes show similarity), t1pks-nrps" class="clusterblast-cluster"  >
<text x="5" y="70" class="clusterblast-acc"  >
<a xlink:href="https://antismash-db.secondarymetabolites.org/go/NZ_JOEK01000004/5" target="_blank">NZ_JOEK01000004_c5</a>: Streptomyces avicenniae strain NRRL B-24776 contig4.1, wh... (27% of genes show similarity), t1pks-nrps</text>
<line x1="10" y1="85" x2="778.0" y2="85" style="stroke-width:1; stroke:grey; "  />
</g>
<g id="a1_000"  >
<polygon points="0,90 27,90 32,85 27,80 0,80 0,90 " style="fill:white; stroke-width:1; stroke:black; " description="&lt;b&gt;IF27_RS09430&lt;/b&gt;&lt;br&gt;hypothetical protein&lt;br&gt;Location: 161430 - 163358" locus_tag="IF27_RS09430" class="clusterblast-orf" id="dummy-1_h1_4_0"  />
</g>
<g id="a1_001"  >
<polygon points="35,90 42,90 47,85 42,80 35,80 35,90 " style="fill:white; stroke-width:1; stroke:black; " description="&lt;b&gt;IF27_RS09435&lt;/b&gt;&lt;br&gt;flavin oxidoreductase&lt;br&gt;Location: 163509 - 164198" locus_tag="IF27_RS09435" class="clusterblast-orf" id="dummy-1_h1_4_1"  />
</g>
<g id="a1_002"  >
<polygon points="48,90 62,90 67,85 62,80 48,80 48,90 " style="fill:white; stroke-width:1; stroke:black; " description="&lt;b&gt;IF27_RS09440&lt;/b&gt;&lt;br&gt;FAD-dependent monooxygenase&lt;br&gt;Location: 164238 - 165356" locus_tag="IF27_RS09440" class="clusterblast-orf" id="dummy-1_h1_4_2"  />
</g>
<g id="a1_003"  >
<polygon points="67,85 72,80 82,80 82,90 72,90 67,85 " style="fill:white; stroke-width:1; stroke:black; " description="&lt;b&gt;IF27_RS09445&lt;/b&gt;&lt;br&gt;alpha/beta hydrolase&lt;br&gt;Location: 165390 - 166268" locus_tag="IF27_RS09445" class="clusterblast-orf" id="dummy-1_h1_4_3"  />
</g>
<g id="a1_004"  >
<polygon points="82,85 87,80 128,80 128,90 87,90 82,85 " style="fill:white; stroke-width:1; stroke:black; " description="&lt;b&gt;IF27_RS09450&lt;/b&gt;&lt;br&gt;helix-turn-helix transcriptional regulator&lt;br&gt;Location: 166272 - 168959" locus_tag="IF27_RS09450" class="clusterblast-orf" id="dummy-1_h1_4_4"  />
</g>
<g id="a1_005"  >
<polygon points="129,85 134,80 151,80 151,90 134,90 129,85 " style="fill:white; stroke-width:1; stroke:black; " description="&lt;b&gt;IF27_RS09455&lt;/b&gt;&lt;br&gt;MFS transporter&lt;br&gt;Location: 169011 - 170261" locus_tag="IF27_RS09455" class="clusterblast-orf" id="dummy-1_h1_4_5"  />
</g>
<g id="a1_006"  >
<polygon points="154,90 155,90 160,85 155,80 154,80 154,90 " style="fill:white; stroke-width:1; stroke:black; " description="&lt;b&gt;IF27_RS09460&lt;/b&gt;&lt;br&gt;ArsR family transcriptional regulator&lt;br&gt;Location: 170439 - 170780" locus_tag="IF27_RS09460" class="clusterblast-orf" id="dummy-1_h1_4_6"  />
</g>
<g id="a1_007"  >
<polygon points="160,85 165,80 167,80 167,90 165,90 160,85 " style="fill:white; stroke-width:1; stroke:black; " description="&lt;b&gt;IF27_RS09465&lt;/b&gt;&lt;br&gt;hypothetical protein&lt;br&gt;Location: 170802 - 171209" locus_tag="IF27_RS09465" class="clusterblast-orf" id="dummy-1_h1_4_7"  />
</g>
<g id="a1_008"  >
<polygon points="173,85 178,80 213,80 213,90 178,90 173,85 " style="fill:white; stroke-width:1; stroke:black; " description="&lt;b&gt;IF27_RS09470&lt;/b&gt;&lt;br&gt;hypothetical protein&lt;br&gt;Location: 171580 - 173916" locus_tag="IF27_RS09470" class="clusterblast-orf" id="dummy-1_h1_4_8"  />
</g>
<g id="a1_009"  >
<polygon points="219,90 235,90 240,85 235,80 219,80 219,90 " style="fill:white; stroke-width:1; stroke:black; " description="&lt;b&gt;IF27_RS09475&lt;/b&gt;&lt;br&gt;cytochrome P450&lt;br&gt;Location: 174275 - 175468" locus_tag="IF27_RS09475" class="clusterblast-orf" id="dummy-1_h1_4_9"  />
</g>
<g id="a1_0010"  >
<polygon points="241,85 246,80 259,80 259,90 246,90 241,85 " style="fill:white; stroke-width:1; stroke:black; " description="&lt;b&gt;IF27_RS09480&lt;/b&gt;&lt;br&gt;NADP-dependent oxidoreductase&lt;br&gt;Location: 175542 - 176600" locus_tag="IF27_RS09480" class="clusterblast-orf" id="dummy-1_h1_4_10"  />
</g>
<g id="a1_0011"  >
<polygon points="259,85 264,80 289,80 289,90 264,90 259,85 " style="fill:white; stroke-width:1; stroke:black; " description="&lt;b&gt;IF27_RS09485&lt;/b&gt;&lt;br&gt;NAD(P)/FAD-dependent oxidoreductase&lt;br&gt;Location: 176602 - 178362" locus_tag="IF27_RS09485" class="clusterblast-orf" id="dummy-1_h1_4_11"  />
</g>
<g id="a1_0012"  >
<polygon points="289,85 294,80 448,80 448,90 294,90 289,85 " style="fill:white; stroke-width:1; stroke:black; " description="&lt;b&gt;IF27_RS09490&lt;/b&gt;&lt;br&gt;hybrid non-ribosomal peptide synthetase/type I polyketide synthase&lt;br&gt;Location: 178352 - 187627" locus_tag="IF27_RS09490" class="clusterblast-orf" id="dummy-1_h1_4_12"  />
</g>
<g id="a1_0013"  >
<polygon points="458,85 463,80 465,80 465,90 463,90 458,85 " style="fill:white; stroke-width:1; stroke:black; " description="&lt;b&gt;IF27_RS09495&lt;/b&gt;&lt;br&gt;arsenate reductase ArsC&lt;br&gt;Location: 188221 - 188643" locus_tag="IF27_RS09495" class="clusterblast-orf" id="dummy-1_h1_4_13"  />
</g>
<g id="a1_0014"  >
<polygon points="465,85 470,80 478,80 478,90 470,90 465,85 " style="fill:white; stroke-width:1; stroke:black; " description="&lt;b&gt;IF27_RS09500&lt;/b&gt;&lt;br&gt;hypothetical protein&lt;br&gt;Location: 188640 - 189395" locus_tag="IF27_RS09500" class="clusterblast-orf" id="dummy-1_h1_4_14"  />
</g>
<g id="a1_0015"  >
<polygon points="478,85 483,80 483,80 483,90 483,90 478,85 " style="fill:white; stroke-width:1; stroke:black; " description="&lt;b&gt;IF27_RS09505&lt;/b&gt;&lt;br&gt;transcriptional regulator&lt;br&gt;Location: 189392 - 189712" locus_tag="IF27_RS09505" class="clusterblast-orf" id="dummy-1_h1_4_15"  />
</g>
<g id="a1_0016"  >
<polygon points="486,90 488,90 493,85 488,80 486,80 486,90 " style="fill:white; stroke-width:1; stroke:black; " description="&lt;b&gt;IF27_RS09510&lt;/b&gt;&lt;br&gt;glyoxalase/bleomycin resistance/dioxygenase family protein&lt;br&gt;Location: 189856 - 190272" locus_tag="IF27_RS09510" class="clusterblast-orf" id="dummy-1_h1_4_16"  />
</g>
<g id="a1_0017"  >
<polygon points="494,85 499,80 508,80 508,90 499,90 494,85 " style="fill:#d86315; stroke-width:1; stroke:black; " description="&lt;b&gt;IF27_RS09515&lt;/b&gt;&lt;br&gt;hypothetical protein&lt;br&gt;Location: 190330 - 191166&lt;br&gt;&lt;br&gt;&lt;b&gt;BlastP hit with ctg30_5&lt;/b&gt;&lt;br&gt;Percentage identity: 75&lt;br&gt;Percentage coverage: 100&lt;br&gt;BLAST bit score: 338&lt;br&gt;E-value: 7.4e-91" locus_tag="IF27_RS09515" class="clusterblast-orf" id="dummy-1_h1_4_17"  />
</g>
<g id="a1_0018"  >
<polygon points="511,85 516,80 529,80 529,90 516,90 511,85 " style="fill:#15d815; stroke-width:1; stroke:black; " description="&lt;b&gt;IF27_RS09520&lt;/b&gt;&lt;br&gt;ATPase&lt;br&gt;Location: 191333 - 192352&lt;br&gt;&lt;br&gt;&lt;b&gt;BlastP hit with ctg30_7&lt;/b&gt;&lt;br&gt;Percentage identity: 64&lt;br&gt;Percentage coverage: 101&lt;br&gt;BLAST bit score: 339&lt;br&gt;E-value: 4.1e-91" locus_tag="IF27_RS09520" class="clusterblast-orf" id="dummy-1_h1_4_18"  />
</g>
<g id="a1_0019"  >
<polygon points="529,85 534,80 540,80 540,90 534,90 529,85 " style="fill:#1563d8; stroke-width:1; stroke:black; " description="&lt;b&gt;IF27_RS09525&lt;/b&gt;&lt;br&gt;uracil-DNA glycosylase&lt;br&gt;Location: 192349 - 193026&lt;br&gt;&lt;br&gt;&lt;b&gt;BlastP hit with ctg30_8&lt;/b&gt;&lt;br&gt;Percentage identity: 89&lt;br&gt;Percentage coverage: 100&lt;br&gt;BLAST bit score: 411&lt;br&gt;E-value: 7.8e-113" locus_tag="IF27_RS09525" class="clusterblast-orf" id="dummy-1_h1_4_19"  />
</g>
<g id="a1_0020"  >
<polygon points="541,85 546,80 560,80 560,90 546,90 541,85 " style="fill:#d815b1; stroke-width:1; stroke:black; " description="&lt;b&gt;IF27_RS09530&lt;/b&gt;&lt;br&gt;NADH:flavin oxidoreductase/NADH oxidase&lt;br&gt;Location: 193089 - 194171&lt;br&gt;&lt;br&gt;&lt;b&gt;BlastP hit with ctg30_9&lt;/b&gt;&lt;br&gt;Percentage identity: 74&lt;br&gt;Percentage coverage: 100&lt;br&gt;BLAST bit score: 529&lt;br&gt;E-value: 4.1e-148" locus_tag="IF27_RS09530" class="clusterblast-orf" id="dummy-1_h1_4_20"  />
</g>
<g id="a1_0021"  >
<polygon points="562,90 563,90 568,85 563,80 562,80 562,90 " style="fill:#d8b115; stroke-width:1; stroke:black; " description="&lt;b&gt;IF27_RS09535&lt;/b&gt;&lt;br&gt;transcriptional regulator&lt;br&gt;Location: 194274 - 194654&lt;br&gt;&lt;br&gt;&lt;b&gt;BlastP hit with ctg30_10&lt;/b&gt;&lt;br&gt;Percentage identity: 62&lt;br&gt;Percentage coverage: 101&lt;br&gt;BLAST bit score: 134&lt;br&gt;E-value: 9.8e-30" locus_tag="IF27_RS09535" class="clusterblast-orf" id="dummy-1_h1_4_21"  />
</g>
<g id="a1_0022"  >
<polygon points="569,85 574,80 580,80 580,90 574,90 569,85 " style="fill:#15d863; stroke-width:1; stroke:black; " description="&lt;b&gt;IF27_RS09540&lt;/b&gt;&lt;br&gt;DUF305 domain-containing protein&lt;br&gt;Location: 194684 - 195340&lt;br&gt;&lt;br&gt;&lt;b&gt;BlastP hit with ctg30_11&lt;/b&gt;&lt;br&gt;Percentage identity: 51&lt;br&gt;Percentage coverage: 94&lt;br&gt;BLAST bit score: 180&lt;br&gt;E-value: 3e-43" locus_tag="IF27_RS09540" class="clusterblast-orf" id="dummy-1_h1_4_22"  />
</g>
<g id="a1_0023"  >
<polygon points="584,90 603,90 608,85 603,80 584,80 584,90 " style="fill:#1515d8; stroke-width:1; stroke:black; " description="&lt;b&gt;IF27_RS09545&lt;/b&gt;&lt;br&gt;hypothetical protein&lt;br&gt;Location: 195559 - 197010&lt;br&gt;&lt;br&gt;&lt;b&gt;BlastP hit with ctg30_13&lt;/b&gt;&lt;br&gt;Percentage identity: 70&lt;br&gt;Percentage coverage: 100&lt;br&gt;BLAST bit score: 709&lt;br&gt;E-value: 2.3e-202" locus_tag="IF27_RS09545" class="clusterblast-orf" id="dummy-1_h1_4_23"  />
</g>
<g id="a1_0024"  >
<polygon points="608,85 613,80 619,80 619,90 613,90 608,85 " style="fill:#d81563; stroke-width:1; stroke:black; " description="&lt;b&gt;IF27_RS09550&lt;/b&gt;&lt;br&gt;TetR/AcrR family transcriptional regulator&lt;br&gt;Location: 197001 - 197651&lt;br&gt;&lt;br&gt;&lt;b&gt;BlastP hit with ctg30_14&lt;/b&gt;&lt;br&gt;Percentage identity: 78&lt;br&gt;Percentage coverage: 94&lt;br&gt;BLAST bit score: 292&lt;br&gt;E-value: 3.8e-77" locus_tag="IF27_RS09550" class="clusterblast-orf" id="dummy-1_h1_4_24"  />
</g>
<g id="a1_0025"  >
<polygon points="622,85 627,80 633,80 633,90 627,90 622,85 " style="fill:#b1d815; stroke-width:1; stroke:black; " description="&lt;b&gt;IF27_RS09555&lt;/b&gt;&lt;br&gt;HAD family hydrolase&lt;br&gt;Location: 197791 - 198465&lt;br&gt;&lt;br&gt;&lt;b&gt;BlastP hit with ctg30_15&lt;/b&gt;&lt;br&gt;Percentage identity: 66&lt;br&gt;Percentage coverage: 94&lt;br&gt;BLAST bit score: 283&lt;br&gt;E-value: 2.5e-74" locus_tag="IF27_RS09555" class="clusterblast-orf" id="dummy-1_h1_4_25"  />
</g>
<g id="a1_0026"  >
<polygon points="634,85 639,80 650,80 650,90 639,90 634,85 " style="fill:#15d8b1; stroke-width:1; stroke:black; " description="&lt;b&gt;IF27_RS09560&lt;/b&gt;&lt;br&gt;M56 family peptidase&lt;br&gt;Location: 198509 - 199450&lt;br&gt;&lt;br&gt;&lt;b&gt;BlastP hit with ctg30_16&lt;/b&gt;&lt;br&gt;Percentage identity: 68&lt;br&gt;Percentage coverage: 94&lt;br&gt;BLAST bit score: 407&lt;br&gt;E-value: 1.3e-111" locus_tag="IF27_RS09560" class="clusterblast-orf" id="dummy-1_h1_4_26"  />
</g>
<g id="a1_0027"  >
<polygon points="651,85 656,80 661,80 661,90 656,90 651,85 " style="fill:white; stroke-width:1; stroke:black; " description="&lt;b&gt;IF27_RS09565&lt;/b&gt;&lt;br&gt;DUF5134 domain-containing protein&lt;br&gt;Location: 199500 - 200069" locus_tag="IF27_RS09565" class="clusterblast-orf" id="dummy-1_h1_4_27"  />
</g>
<g id="a1_0028"  >
<polygon points="663,90 667,90 672,85 667,80 663,80 663,90 " style="fill:white; stroke-width:1; stroke:black; " description="&lt;b&gt;IF27_RS09570&lt;/b&gt;&lt;br&gt;N-acetyltransferase&lt;br&gt;Location: 200185 - 200730" locus_tag="IF27_RS09570" class="clusterblast-orf" id="dummy-1_h1_4_28"  />
</g>
<g id="a1_0029"  >
<polygon points="672,85 677,80 683,80 683,90 677,90 672,85 " style="fill:white; stroke-width:1; stroke:black; " description="&lt;b&gt;IF27_RS09575&lt;/b&gt;&lt;br&gt;glycerophosphodiester phosphodiesterase&lt;br&gt;Location: 200714 - 201397" locus_tag="IF27_RS09575" class="clusterblast-orf" id="dummy-1_h1_4_29"  />
</g>
<g id="a1_0030"  >
<polygon points="685,90 704,90 709,85 704,80 685,80 685,90 " style="fill:white; stroke-width:1; stroke:black; " description="&lt;b&gt;IF27_RS09580&lt;/b&gt;&lt;br&gt;hypothetical protein&lt;br&gt;Location: 201498 - 202895" locus_tag="IF27_RS09580" class="clusterblast-orf" id="dummy-1_h1_4_30"  />
</g>
<g id="a1_0031"  >
<polygon points="710,90 718,90 723,85 718,80 710,80 710,90 " style="fill:white; stroke-width:1; stroke:black; " description="&lt;b&gt;IF27_RS09585&lt;/b&gt;&lt;br&gt;SDR family NAD(P)-dependent oxidoreductase&lt;br&gt;Location: 202946 - 203719" locus_tag="IF27_RS09585" class="clusterblast-orf" id="dummy-1_h1_4_31"  />
</g>
<g id="a1_0032"  >
<polygon points="723,90 736,90 741,85 736,80 723,80 723,90 " style="fill:white; stroke-width:1; stroke:black; " description="&lt;b&gt;IF27_RS09590&lt;/b&gt;&lt;br&gt;low specificity L-threonine aldolase&lt;br&gt;Location: 203698 - 204777" locus_tag="IF27_RS09590" class="clusterblast-orf" id="dummy-1_h1_4_32"  />
</g>
<g id="a1_0033"  >
<polygon points="742,85 747,80 754,80 754,90 747,90 742,85 " style="fill:white; stroke-width:1; stroke:black; " description="&lt;b&gt;IF27_RS09595&lt;/b&gt;&lt;br&gt;1-acyl-sn-glycerol-3-phosphate acyltransferase&lt;br&gt;Location: 204794 - 205507" locus_tag="IF27_RS09595" class="clusterblast-orf" id="dummy-1_h1_4_33"  />
</g>
<g id="a1_0034"  >
<polygon points="758,90 758,90 763,85 758,80 758,80 758,90 " style="fill:white; stroke-width:1; stroke:black; " description="&lt;b&gt;IF27_RS09600&lt;/b&gt;&lt;br&gt;thioredoxin&lt;br&gt;Location: 205726 - 206049" locus_tag="IF27_RS09600" class="clusterblast-orf" id="dummy-1_h1_4_34"  />
</g>
<g id="a1_0035"  >
<polygon points="766,90 775,90 780,85 775,80 766,80 766,90 " style="fill:white; stroke-width:1; stroke:black; " description="&lt;b&gt;IF27_RS09605&lt;/b&gt;&lt;br&gt;electron transfer flavoprotein beta subunit/FixA family protein&lt;br&gt;Location: 206224 - 207009" locus_tag="IF27_RS09605" class="clusterblast-orf" id="dummy-1_h1_4_35"  />
</g>
</svg>
