<svg xmlns="http://www.w3.org/2000/svg" xmlns:xlink="http://www.w3.org/1999/xlink" version="1.1" x="0" y="0" height="230" width="800" viewBox="0 0 800 230" preserveAspectRatio="none"  >
<g label="Query sequence" class="clusterblast-cluster"  >
<text x="5" y="20" class="clusterblast-acc"  >
Query sequence</text>
<line x1="10" y1="35" x2="778.0" y2="35" style="stroke-width:1; stroke:grey; "  />
<polygon points="188,35 193,30 200,30 200,40 193,40 188,35 " style="fill:#d81515; stroke-width:1; stroke:black; " description="&lt;b&gt;ctg48_1&lt;/b&gt;&lt;br&gt;ctg48 1&lt;br&gt;Location: 69 - 801" locus_tag="ctg48_1" class="clusterblast-orf" id="dummy-1_q0_0_all"  />
<polygon points="200,35 205,30 214,30 214,40 205,40 200,35 " style="fill:#d81515; stroke-width:1; stroke:black; " description="&lt;b&gt;ctg48_2&lt;/b&gt;&lt;br&gt;ctg48 2&lt;br&gt;Location: 797 - 1688" locus_tag="ctg48_2" class="clusterblast-orf" id="dummy-1_q1_0_all"  />
<polygon points="214,35 219,30 231,30 231,40 219,40 214,35 " style="fill:#33d815; stroke-width:1; stroke:black; " description="&lt;b&gt;ctg48_3&lt;/b&gt;&lt;br&gt;ctg48 3&lt;br&gt;Location: 1695 - 2766" locus_tag="ctg48_3" class="clusterblast-orf" id="dummy-1_q2_0_all"  />
<polygon points="231,35 236,30 258,30 258,40 236,40 231,35 " style="fill:#15abd8; stroke-width:1; stroke:black; " description="&lt;b&gt;ctg48_4&lt;/b&gt;&lt;br&gt;ctg48 4&lt;br&gt;Location: 2747 - 4439" locus_tag="ctg48_4" class="clusterblast-orf" id="dummy-1_q3_0_all"  />
<polygon points="259,35 264,30 275,30 275,40 264,40 259,35 " style="fill:white; stroke-width:1; stroke:black; " description="&lt;b&gt;ctg48_5&lt;/b&gt;&lt;br&gt;ctg48 5&lt;br&gt;Location: 4490 - 5474" locus_tag="ctg48_5" class="clusterblast-orf" id="dummy-1_q4_0_all"  />
<polygon points="276,40 294,40 299,35 294,30 276,30 276,40 " style="fill:white; stroke-width:1; stroke:black; " description="&lt;b&gt;ctg48_6&lt;/b&gt;&lt;br&gt;ctg48 6&lt;br&gt;Location: 5567 - 6998" locus_tag="ctg48_6" class="clusterblast-orf" id="dummy-1_q5_0_all"  />
<polygon points="304,40 318,40 323,35 318,30 304,30 304,40 " style="fill:#8d15d8; stroke-width:1; stroke:black; " description="&lt;b&gt;ctg48_7&lt;/b&gt;&lt;br&gt;ctg48 7&lt;br&gt;Location: 7302 - 8499" locus_tag="ctg48_7" class="clusterblast-orf" id="dummy-1_q6_0_all"  />
<polygon points="324,35 329,30 342,30 342,40 329,40 324,35 " style="fill:#d86f15; stroke-width:1; stroke:black; " description="&lt;b&gt;ctg48_8&lt;/b&gt;&lt;br&gt;ctg48 8&lt;br&gt;Location: 8559 - 9639" locus_tag="ctg48_8" class="clusterblast-orf" id="dummy-1_q7_0_all"  />
<polygon points="342,35 347,30 357,30 357,40 347,40 342,35 " style="fill:#15d851; stroke-width:1; stroke:black; " description="&lt;b&gt;ctg48_9&lt;/b&gt;&lt;br&gt;ctg48 9&lt;br&gt;Location: 9659 - 10583" locus_tag="ctg48_9" class="clusterblast-orf" id="dummy-1_q8_0_all"  />
<polygon points="360,35 365,30 373,30 373,40 365,40 360,35 " style="fill:#1551d8; stroke-width:1; stroke:black; " description="&lt;b&gt;ctg48_10&lt;/b&gt;&lt;br&gt;ctg48 10&lt;br&gt;Location: 10784 - 11618" locus_tag="ctg48_10" class="clusterblast-orf" id="dummy-1_q9_0_all"  />
<polygon points="373,35 378,30 392,30 392,40 378,40 373,35 " style="fill:#d815c9; stroke-width:1; stroke:black; " description="&lt;b&gt;ctg48_11&lt;/b&gt;&lt;br&gt;ctg48 11&lt;br&gt;Location: 11614 - 12766" locus_tag="ctg48_11" class="clusterblast-orf" id="dummy-1_q10_0_all"  />
<polygon points="392,40 406,40 411,35 406,30 392,30 392,40 " style="fill:white; stroke-width:1; stroke:black; " description="&lt;b&gt;ctg48_12&lt;/b&gt;&lt;br&gt;ctg48 12&lt;br&gt;Location: 12786 - 13989" locus_tag="ctg48_12" class="clusterblast-orf" id="dummy-1_q11_0_all"  />
<polygon points="412,35 417,30 426,30 426,40 417,40 412,35 " style="fill:#d8c915; stroke-width:1; stroke:black; " description="&lt;b&gt;ctg48_13&lt;/b&gt;&lt;br&gt;ctg48 13&lt;br&gt;Location: 14051 - 14882" locus_tag="ctg48_13" class="clusterblast-orf" id="dummy-1_q12_0_all"  />
<polygon points="425,35 430,30 446,30 446,40 430,40 425,35 " style="fill:#15d8ab; stroke-width:1; stroke:black; " description="&lt;b&gt;ctg48_14&lt;/b&gt;&lt;br&gt;ctg48 14&lt;br&gt;Location: 14878 - 16189" locus_tag="ctg48_14" class="clusterblast-orf" id="dummy-1_q13_0_all"  />
<polygon points="446,35 451,30 464,30 464,40 451,40 446,35 " style="fill:#3315d8; stroke-width:1; stroke:black; " description="&lt;b&gt;ctg48_15&lt;/b&gt;&lt;br&gt;ctg48 15&lt;br&gt;Location: 16185 - 17301" locus_tag="ctg48_15" class="clusterblast-orf" id="dummy-1_q14_0_all"  />
<polygon points="466,35 470,30 470,40 466,35 " style="fill:#d8156f; stroke-width:1; stroke:black; " description="&lt;b&gt;ctg48_16&lt;/b&gt;&lt;br&gt;ctg48 16&lt;br&gt;Location: 17403 - 17676" locus_tag="ctg48_16" class="clusterblast-orf" id="dummy-1_q15_0_all"  />
<polygon points="476,35 481,30 591,30 591,40 481,40 476,35 " style="fill:#8dd815; stroke-width:1; stroke:black; " description="&lt;b&gt;ctg48_17&lt;/b&gt;&lt;br&gt;ctg48 17&lt;br&gt;Location: 18022 - 25219" locus_tag="ctg48_17" class="clusterblast-orf" id="dummy-1_q16_0_all"  />
</g>
<g label="NZ_CP013745" description="NZ_CP013745_c4: Arthrobacter sp. A3, complete genome (25% of genes show similarity), nrps" class="clusterblast-cluster"  >
<text x="5" y="70" class="clusterblast-acc"  >
<a xlink:href="https://antismash-db.secondarymetabolites.org/go/NZ_CP013745/4" target="_blank">NZ_CP013745_c4</a>: Arthrobacter sp. A3, complete genome (25% of genes show similarity), nrps</text>
<line x1="10" y1="85" x2="778.0" y2="85" style="stroke-width:1; stroke:grey; "  />
</g>
<g id="a1_000"  >
<polygon points="0,85 5,80 11,80 11,90 5,90 0,85 " style="fill:white; stroke-width:1; stroke:black; " description="&lt;b&gt;MB46_RS06475&lt;/b&gt;&lt;br&gt;copper homeostasis protein CutC&lt;br&gt;Location: 1498504 - 1497773" locus_tag="MB46_RS06475" class="clusterblast-orf" id="dummy-1_h1_10_0"  />
</g>
<g id="a1_001"  >
<polygon points="12,85 17,80 37,80 37,90 17,90 12,85 " style="fill:white; stroke-width:1; stroke:black; " description="&lt;b&gt;MB46_RS06470&lt;/b&gt;&lt;br&gt;hypothetical protein&lt;br&gt;Location: 1497755 - 1496148" locus_tag="MB46_RS06470" class="clusterblast-orf" id="dummy-1_h1_10_1"  />
</g>
<g id="a1_002"  >
<polygon points="37,85 42,80 46,80 46,90 42,90 37,85 " style="fill:white; stroke-width:1; stroke:black; " description="&lt;b&gt;MB46_RS06465&lt;/b&gt;&lt;br&gt;PadR family transcriptional regulator&lt;br&gt;Location: 1496157 - 1495588" locus_tag="MB46_RS06465" class="clusterblast-orf" id="dummy-1_h1_10_2"  />
</g>
<g id="a1_003"  >
<polygon points="49,90 69,90 74,85 69,80 49,80 49,90 " style="fill:white; stroke-width:1; stroke:black; " description="&lt;b&gt;MB46_RS06460&lt;/b&gt;&lt;br&gt;hypothetical protein&lt;br&gt;Location: 1495389 - 1493857" locus_tag="MB46_RS06460" class="clusterblast-orf" id="dummy-1_h1_10_3"  />
</g>
<g id="a1_004"  >
<polygon points="75,90 85,90 90,85 85,80 75,80 75,90 " style="fill:#33d815; stroke-width:1; stroke:black; " description="&lt;b&gt;MB46_RS06455&lt;/b&gt;&lt;br&gt;ABC transporter permease&lt;br&gt;Location: 1493817 - 1492876&lt;br&gt;&lt;br&gt;&lt;b&gt;BlastP hit with ctg48_3&lt;/b&gt;&lt;br&gt;Percentage identity: 31&lt;br&gt;Percentage coverage: 73&lt;br&gt;BLAST bit score: 101&lt;br&gt;E-value: 2.7e-19" locus_tag="MB46_RS06455" class="clusterblast-orf" id="dummy-1_h1_10_4"  />
</g>
<g id="a1_005"  >
<polygon points="90,90 113,90 118,85 113,80 90,80 90,90 " style="fill:#d81515; stroke-width:1; stroke:black; " description="&lt;b&gt;MB46_RS06450&lt;/b&gt;&lt;br&gt;ABC transporter&lt;br&gt;Location: 1492843 - 1491086&lt;br&gt;&lt;br&gt;&lt;b&gt;BlastP hit with ctg48_1&lt;/b&gt;&lt;br&gt;Percentage identity: 36&lt;br&gt;Percentage coverage: 93&lt;br&gt;BLAST bit score: 102&lt;br&gt;E-value: 6.4e-20" locus_tag="MB46_RS06450" class="clusterblast-orf" id="dummy-1_h1_10_5"  />
</g>
<g id="a1_006"  >
<polygon points="118,90 127,90 132,85 127,80 118,80 118,90 " style="fill:#d81515; stroke-width:1; stroke:black; " description="&lt;b&gt;MB46_RS06445&lt;/b&gt;&lt;br&gt;ABC transporter ATP-binding protein&lt;br&gt;Location: 1491089 - 1490265&lt;br&gt;&lt;br&gt;&lt;b&gt;BlastP hit with ctg48_1&lt;/b&gt;&lt;br&gt;Percentage identity: 34&lt;br&gt;Percentage coverage: 91&lt;br&gt;BLAST bit score: 85&lt;br&gt;E-value: 1.1e-14" locus_tag="MB46_RS06445" class="clusterblast-orf" id="dummy-1_h1_10_6"  />
</g>
<g id="a1_007"  >
<polygon points="133,90 153,90 158,85 153,80 133,80 133,90 " style="fill:white; stroke-width:1; stroke:black; " description="&lt;b&gt;MB46_RS06440&lt;/b&gt;&lt;br&gt;hypothetical protein&lt;br&gt;Location: 1490198 - 1488642" locus_tag="MB46_RS06440" class="clusterblast-orf" id="dummy-1_h1_10_7"  />
</g>
<g id="a1_008"  >
<polygon points="158,90 178,90 183,85 178,80 158,80 158,90 " style="fill:white; stroke-width:1; stroke:black; " description="&lt;b&gt;MB46_RS06435&lt;/b&gt;&lt;br&gt;hypothetical protein&lt;br&gt;Location: 1488593 - 1487082" locus_tag="MB46_RS06435" class="clusterblast-orf" id="dummy-1_h1_10_8"  />
</g>
<g id="a1_009"  >
<polygon points="184,85 189,80 216,80 216,90 189,90 184,85 " style="fill:white; stroke-width:1; stroke:black; " description="&lt;b&gt;MB46_RS06430&lt;/b&gt;&lt;br&gt;hypothetical protein&lt;br&gt;Location: 1486985 - 1484970" locus_tag="MB46_RS06430" class="clusterblast-orf" id="dummy-1_h1_10_9"  />
</g>
<g id="a1_0010"  >
<polygon points="222,90 231,90 236,85 231,80 222,80 222,90 " style="fill:white; stroke-width:1; stroke:black; " description="&lt;b&gt;MB46_RS06425&lt;/b&gt;&lt;br&gt;NAD(P)-dependent oxidoreductase&lt;br&gt;Location: 1484588 - 1483716" locus_tag="MB46_RS06425" class="clusterblast-orf" id="dummy-1_h1_10_10"  />
</g>
<g id="a1_0011"  >
<polygon points="237,90 248,90 253,85 248,80 237,80 237,90 " style="fill:white; stroke-width:1; stroke:black; " description="&lt;b&gt;MB46_RS06420&lt;/b&gt;&lt;br&gt;aldo/keto reductase&lt;br&gt;Location: 1483707 - 1482676" locus_tag="MB46_RS06420" class="clusterblast-orf" id="dummy-1_h1_10_11"  />
</g>
<g id="a1_0012"  >
<polygon points="255,85 260,80 267,80 267,90 260,90 255,85 " style="fill:white; stroke-width:1; stroke:black; " description="&lt;b&gt;MB46_RS06415&lt;/b&gt;&lt;br&gt;hypothetical protein&lt;br&gt;Location: 1482590 - 1481838" locus_tag="MB46_RS06415" class="clusterblast-orf" id="dummy-1_h1_10_12"  />
</g>
<g id="a1_0013"  >
<polygon points="267,85 272,80 279,80 279,90 272,90 267,85 " style="fill:#1551d8; stroke-width:1; stroke:black; " description="&lt;b&gt;MB46_RS06410&lt;/b&gt;&lt;br&gt;ABC transporter permease&lt;br&gt;Location: 1481841 - 1481041&lt;br&gt;&lt;br&gt;&lt;b&gt;BlastP hit with ctg48_10&lt;/b&gt;&lt;br&gt;Percentage identity: 45&lt;br&gt;Percentage coverage: 94&lt;br&gt;BLAST bit score: 201&lt;br&gt;E-value: 8.9e-50" locus_tag="MB46_RS06410" class="clusterblast-orf" id="dummy-1_h1_10_13"  />
</g>
<g id="a1_0014"  >
<polygon points="279,85 284,80 295,80 295,90 284,90 279,85 " style="fill:#d815c9; stroke-width:1; stroke:black; " description="&lt;b&gt;MB46_RS06405&lt;/b&gt;&lt;br&gt;daunorubicin resistance protein DrrA family ABC transporter ATP-binding protein&lt;br&gt;Location: 1481044 - 1480043&lt;br&gt;&lt;br&gt;&lt;b&gt;BlastP hit with ctg48_11&lt;/b&gt;&lt;br&gt;Percentage identity: 53&lt;br&gt;Percentage coverage: 82&lt;br&gt;BLAST bit score: 313&lt;br&gt;E-value: 2.9e-83" locus_tag="MB46_RS06405" class="clusterblast-orf" id="dummy-1_h1_10_14"  />
</g>
<g id="a1_0015"  >
<polygon points="295,85 299,80 299,90 295,85 " style="fill:white; stroke-width:1; stroke:black; " description="&lt;b&gt;MB46_RS06400&lt;/b&gt;&lt;br&gt;MbtH family protein&lt;br&gt;Location: 1480046 - 1479834" locus_tag="MB46_RS06400" class="clusterblast-orf" id="dummy-1_h1_10_15"  />
</g>
<g id="a1_0016"  >
<polygon points="300,85 305,80 467,80 467,90 305,90 300,85 " style="fill:#8dd815; stroke-width:1; stroke:black; " description="&lt;b&gt;MB46_RS06395&lt;/b&gt;&lt;br&gt;non-ribosomal peptide synthetase&lt;br&gt;Location: 1479737 - 1469304&lt;br&gt;&lt;br&gt;&lt;b&gt;BlastP hit with ctg48_17&lt;/b&gt;&lt;br&gt;Percentage identity: 41&lt;br&gt;Percentage coverage: 106&lt;br&gt;BLAST bit score: 1575&lt;br&gt;E-value: 0.0" locus_tag="MB46_RS06395" class="clusterblast-orf" id="dummy-1_h1_10_16"  />
</g>
<g id="a1_0017"  >
<polygon points="468,85 473,80 473,80 473,90 473,90 468,85 " style="fill:white; stroke-width:1; stroke:black; " description="&lt;b&gt;MB46_RS06390&lt;/b&gt;&lt;br&gt;hypothetical protein&lt;br&gt;Location: 1469240 - 1468974" locus_tag="MB46_RS06390" class="clusterblast-orf" id="dummy-1_h1_10_17"  />
</g>
<g id="a1_0018"  >
<polygon points="475,85 480,80 482,80 482,90 480,90 475,85 " style="fill:white; stroke-width:1; stroke:black; " description="&lt;b&gt;MB46_RS20130&lt;/b&gt;&lt;br&gt;hypothetical protein&lt;br&gt;Location: 1468841 - 1468363" locus_tag="MB46_RS20130" class="clusterblast-orf" id="dummy-1_h1_10_18"  />
</g>
<g id="a1_0019"  >
<polygon points="484,85 487,80 487,90 484,85 " style="fill:white; stroke-width:1; stroke:black; " description="&lt;b&gt;MB46_RS20125&lt;/b&gt;&lt;br&gt;hypothetical protein&lt;br&gt;Location: 1468293 - 1468102" locus_tag="MB46_RS20125" class="clusterblast-orf" id="dummy-1_h1_10_19"  />
</g>
<g id="a1_0020"  >
<polygon points="489,90 500,90 505,85 500,80 489,80 489,90 " style="fill:white; stroke-width:1; stroke:black; " description="&lt;b&gt;MB46_RS06380&lt;/b&gt;&lt;br&gt;hypothetical protein&lt;br&gt;Location: 1467967 - 1466978" locus_tag="MB46_RS06380" class="clusterblast-orf" id="dummy-1_h1_10_20"  />
</g>
<g id="a1_0021"  >
<polygon points="509,90 509,90 514,85 509,80 509,80 509,90 " style="fill:white; stroke-width:1; stroke:black; " description="&lt;b&gt;MB46_RS06375&lt;/b&gt;&lt;br&gt;antibiotic biosynthesis monooxygenase&lt;br&gt;Location: 1466721 - 1466416" locus_tag="MB46_RS06375" class="clusterblast-orf" id="dummy-1_h1_10_21"  />
</g>
<g id="a1_0022"  >
<polygon points="517,85 522,80 526,80 526,90 522,90 517,85 " style="fill:white; stroke-width:1; stroke:black; " description="&lt;b&gt;MB46_RS06370&lt;/b&gt;&lt;br&gt;hypothetical protein&lt;br&gt;Location: 1466191 - 1465622" locus_tag="MB46_RS06370" class="clusterblast-orf" id="dummy-1_h1_10_22"  />
</g>
<g id="a1_0023"  >
<polygon points="528,85 533,80 554,80 554,90 533,90 528,85 " style="fill:#d81515; stroke-width:1; stroke:black; " description="&lt;b&gt;MB46_RS06365&lt;/b&gt;&lt;br&gt;ABC transporter ATP-binding protein&lt;br&gt;Location: 1465554 - 1463911&lt;br&gt;&lt;br&gt;&lt;b&gt;BlastP hit with ctg48_1&lt;/b&gt;&lt;br&gt;Percentage identity: 36&lt;br&gt;Percentage coverage: 93&lt;br&gt;BLAST bit score: 111&lt;br&gt;E-value: 1.4e-22" locus_tag="MB46_RS06365" class="clusterblast-orf" id="dummy-1_h1_10_23"  />
</g>
<g id="a1_0024"  >
<polygon points="554,85 559,80 568,80 568,90 559,90 554,85 " style="fill:#d81515; stroke-width:1; stroke:black; " description="&lt;b&gt;MB46_RS06360&lt;/b&gt;&lt;br&gt;ABC transporter permease&lt;br&gt;Location: 1463914 - 1463021&lt;br&gt;&lt;br&gt;&lt;b&gt;BlastP hit with ctg48_2&lt;/b&gt;&lt;br&gt;Percentage identity: 36&lt;br&gt;Percentage coverage: 71&lt;br&gt;BLAST bit score: 125&lt;br&gt;E-value: 8.6e-27" locus_tag="MB46_RS06360" class="clusterblast-orf" id="dummy-1_h1_10_24"  />
</g>
<g id="a1_0025"  >
<polygon points="568,85 573,80 584,80 584,90 573,90 568,85 " style="fill:white; stroke-width:1; stroke:black; " description="&lt;b&gt;MB46_RS06355&lt;/b&gt;&lt;br&gt;ABC transporter permease&lt;br&gt;Location: 1463024 - 1462047" locus_tag="MB46_RS06355" class="clusterblast-orf" id="dummy-1_h1_10_25"  />
</g>
<g id="a1_0026"  >
<polygon points="584,85 589,80 611,80 611,90 589,90 584,85 " style="fill:white; stroke-width:1; stroke:black; " description="&lt;b&gt;MB46_RS06350&lt;/b&gt;&lt;br&gt;peptide ABC transporter substrate-binding protein&lt;br&gt;Location: 1462020 - 1460356" locus_tag="MB46_RS06350" class="clusterblast-orf" id="dummy-1_h1_10_26"  />
</g>
<g id="a1_0027"  >
<polygon points="616,90 621,90 626,85 621,80 616,80 616,90 " style="fill:white; stroke-width:1; stroke:black; " description="&lt;b&gt;MB46_RS06345&lt;/b&gt;&lt;br&gt;deaminase&lt;br&gt;Location: 1460054 - 1459431" locus_tag="MB46_RS06345" class="clusterblast-orf" id="dummy-1_h1_10_27"  />
</g>
<g id="a1_0028"  >
<polygon points="629,90 642,90 647,85 642,80 629,80 629,90 " style="fill:white; stroke-width:1; stroke:black; " description="&lt;b&gt;MB46_RS06340&lt;/b&gt;&lt;br&gt;LacI family transcriptional regulator&lt;br&gt;Location: 1459190 - 1458090" locus_tag="MB46_RS06340" class="clusterblast-orf" id="dummy-1_h1_10_28"  />
</g>
<g id="a1_0029"  >
<polygon points="650,90 671,90 676,85 671,80 650,80 650,90 " style="fill:white; stroke-width:1; stroke:black; " description="&lt;b&gt;MB46_RS06335&lt;/b&gt;&lt;br&gt;peptide ABC transporter substrate-binding protein&lt;br&gt;Location: 1457939 - 1456278" locus_tag="MB46_RS06335" class="clusterblast-orf" id="dummy-1_h1_10_29"  />
</g>
<g id="a1_0030"  >
<polygon points="676,90 687,90 692,85 687,80 676,80 676,90 " style="fill:white; stroke-width:1; stroke:black; " description="&lt;b&gt;MB46_RS06330&lt;/b&gt;&lt;br&gt;ABC transporter permease&lt;br&gt;Location: 1456274 - 1455294" locus_tag="MB46_RS06330" class="clusterblast-orf" id="dummy-1_h1_10_30"  />
</g>
<g id="a1_0031"  >
<polygon points="692,90 702,90 707,85 702,80 692,80 692,90 " style="fill:white; stroke-width:1; stroke:black; " description="&lt;b&gt;MB46_RS06325&lt;/b&gt;&lt;br&gt;ABC transporter permease&lt;br&gt;Location: 1455297 - 1454380" locus_tag="MB46_RS06325" class="clusterblast-orf" id="dummy-1_h1_10_31"  />
</g>
<g id="a1_0032"  >
<polygon points="707,90 729,90 734,85 729,80 707,80 707,90 " style="fill:#d81515; stroke-width:1; stroke:black; " description="&lt;b&gt;MB46_RS06320&lt;/b&gt;&lt;br&gt;ABC transporter ATP-binding protein&lt;br&gt;Location: 1454383 - 1452698&lt;br&gt;&lt;br&gt;&lt;b&gt;BlastP hit with ctg48_1&lt;/b&gt;&lt;br&gt;Percentage identity: 37&lt;br&gt;Percentage coverage: 91&lt;br&gt;BLAST bit score: 108&lt;br&gt;E-value: 8.9e-22" locus_tag="MB46_RS06320" class="clusterblast-orf" id="dummy-1_h1_10_32"  />
</g>
<g id="a1_0033"  >
<polygon points="733,90 743,90 748,85 743,80 733,80 733,90 " style="fill:white; stroke-width:1; stroke:black; " description="&lt;b&gt;MB46_RS06315&lt;/b&gt;&lt;br&gt;alpha/beta hydrolase&lt;br&gt;Location: 1452701 - 1451796" locus_tag="MB46_RS06315" class="clusterblast-orf" id="dummy-1_h1_10_33"  />
</g>
<g id="a1_0034"  >
<polygon points="748,90 762,90 767,85 762,80 748,80 748,90 " style="fill:white; stroke-width:1; stroke:black; " description="&lt;b&gt;MB46_RS06310&lt;/b&gt;&lt;br&gt;beta-glucosidase&lt;br&gt;Location: 1451794 - 1450613" locus_tag="MB46_RS06310" class="clusterblast-orf" id="dummy-1_h1_10_34"  />
</g>
<g id="a1_0035"  >
<polygon points="769,90 775,90 780,85 775,80 769,80 769,90 " style="fill:white; stroke-width:1; stroke:black; " description="&lt;b&gt;MB46_RS20120&lt;/b&gt;&lt;br&gt;DNA topoisomerase I&lt;br&gt;Location: 1450513 - 1449828" locus_tag="MB46_RS20120" class="clusterblast-orf" id="dummy-1_h1_10_35"  />
</g>
</svg>
