<svg xmlns="http://www.w3.org/2000/svg" xmlns:xlink="http://www.w3.org/1999/xlink" version="1.1" x="0" y="0" height="230" width="800" viewBox="0 0 800 230" preserveAspectRatio="none"  >
<g label="Query sequence" class="clusterblast-cluster"  >
<text x="5" y="20" class="clusterblast-acc"  >
Query sequence</text>
<line x1="10" y1="35" x2="778.0" y2="35" style="stroke-width:1; stroke:grey; "  />
<polygon points="0,40 14,40 19,35 14,30 0,30 0,40 " style="fill:white; stroke-width:1; stroke:black; " description="&lt;b&gt;ctg1_19&lt;/b&gt;&lt;br&gt;ctg1 19&lt;br&gt;Location: 20789 - 22121" locus_tag="ctg1_19" class="clusterblast-orf" id="dummy-1_q0_0_all"  />
<polygon points="20,40 23,35 20,30 20,40 " style="fill:#d81515; stroke-width:1; stroke:black; " description="&lt;b&gt;ctg1_20&lt;/b&gt;&lt;br&gt;ctg1 20&lt;br&gt;Location: 22126 - 22333" locus_tag="ctg1_20" class="clusterblast-orf" id="dummy-1_q1_0_all"  />
<polygon points="24,40 29,40 34,35 29,30 24,30 24,40 " style="fill:white; stroke-width:1; stroke:black; " description="&lt;b&gt;ctg1_21&lt;/b&gt;&lt;br&gt;ctg1 21&lt;br&gt;Location: 22451 - 23111" locus_tag="ctg1_21" class="clusterblast-orf" id="dummy-1_q2_0_all"  />
<polygon points="34,35 39,30 50,30 50,40 39,40 34,35 " style="fill:#4dd815; stroke-width:1; stroke:black; " description="&lt;b&gt;ctg1_22&lt;/b&gt;&lt;br&gt;ctg1 22&lt;br&gt;Location: 23130 - 24201" locus_tag="ctg1_22" class="clusterblast-orf" id="dummy-1_q3_0_all"  />
<polygon points="50,35 55,30 67,30 67,40 55,40 50,35 " style="fill:#1585d8; stroke-width:1; stroke:black; " description="&lt;b&gt;ctg1_23&lt;/b&gt;&lt;br&gt;ctg1 23&lt;br&gt;Location: 24197 - 25307" locus_tag="ctg1_23" class="clusterblast-orf" id="dummy-1_q4_0_all"  />
<polygon points="67,35 72,30 88,30 88,40 72,40 67,35 " style="fill:#a115d8; stroke-width:1; stroke:black; " description="&lt;b&gt;ctg1_24&lt;/b&gt;&lt;br&gt;ctg1 24&lt;br&gt;Location: 25334 - 26705" locus_tag="ctg1_24" class="clusterblast-orf" id="dummy-1_q5_0_all"  />
<polygon points="88,35 93,30 100,30 100,40 93,40 88,35 " style="fill:#d86915; stroke-width:1; stroke:black; " description="&lt;b&gt;ctg1_25&lt;/b&gt;&lt;br&gt;ctg1 25&lt;br&gt;Location: 26701 - 27508" locus_tag="ctg1_25" class="clusterblast-orf" id="dummy-1_q6_0_all"  />
<polygon points="100,35 105,30 112,30 112,40 105,40 100,35 " style="fill:#15d831; stroke-width:1; stroke:black; " description="&lt;b&gt;ctg1_26&lt;/b&gt;&lt;br&gt;ctg1 26&lt;br&gt;Location: 27507 - 28320" locus_tag="ctg1_26" class="clusterblast-orf" id="dummy-1_q7_0_all"  />
<polygon points="112,35 117,30 118,30 118,40 117,40 112,35 " style="fill:#1531d8; stroke-width:1; stroke:black; " description="&lt;b&gt;ctg1_27&lt;/b&gt;&lt;br&gt;ctg1 27&lt;br&gt;Location: 28316 - 28772" locus_tag="ctg1_27" class="clusterblast-orf" id="dummy-1_q8_0_all"  />
<polygon points="118,35 123,30 136,30 136,40 123,40 118,35 " style="fill:#d815bc; stroke-width:1; stroke:black; " description="&lt;b&gt;ctg1_28&lt;/b&gt;&lt;br&gt;ctg1 28&lt;br&gt;Location: 28768 - 29938" locus_tag="ctg1_28" class="clusterblast-orf" id="dummy-1_q9_0_all"  />
<polygon points="136,35 140,30 140,40 136,35 " style="fill:#d8bc15; stroke-width:1; stroke:black; " description="&lt;b&gt;ctg1_29&lt;/b&gt;&lt;br&gt;ctg1 29&lt;br&gt;Location: 29934 - 30219" locus_tag="ctg1_29" class="clusterblast-orf" id="dummy-1_q10_0_all"  />
<polygon points="140,35 145,30 175,30 175,40 145,40 140,35 " style="fill:#15d885; stroke-width:1; stroke:black; " description="&lt;b&gt;ctg1_30&lt;/b&gt;&lt;br&gt;ctg1 30&lt;br&gt;Location: 30191 - 32564" locus_tag="ctg1_30" class="clusterblast-orf" id="dummy-1_q11_0_all"  />
<polygon points="175,35 180,30 182,30 182,40 180,40 175,35 " style="fill:#4d15d8; stroke-width:1; stroke:black; " description="&lt;b&gt;ctg1_31&lt;/b&gt;&lt;br&gt;ctg1 31&lt;br&gt;Location: 32556 - 33078" locus_tag="ctg1_31" class="clusterblast-orf" id="dummy-1_q12_0_all"  />
<polygon points="185,40 217,40 222,35 217,30 185,30 185,40 " style="fill:white; stroke-width:1; stroke:black; " description="&lt;b&gt;ctg1_32&lt;/b&gt;&lt;br&gt;ctg1 32&lt;br&gt;Location: 33274 - 35701" locus_tag="ctg1_32" class="clusterblast-orf" id="dummy-1_q13_0_all"  />
<polygon points="226,35 231,30 249,30 249,40 231,40 226,35 " style="fill:white; stroke-width:1; stroke:black; " description="&lt;b&gt;ctg1_33&lt;/b&gt;&lt;br&gt;ctg1 33&lt;br&gt;Location: 36030 - 37515" locus_tag="ctg1_33" class="clusterblast-orf" id="dummy-1_q14_0_all"  />
<polygon points="254,35 259,30 266,30 266,40 259,40 254,35 " style="fill:#d81569; stroke-width:1; stroke:black; " description="&lt;b&gt;ctg1_34&lt;/b&gt;&lt;br&gt;ctg1 34&lt;br&gt;Location: 37865 - 38705" locus_tag="ctg1_34" class="clusterblast-orf" id="dummy-1_q15_0_all"  />
<polygon points="272,35 277,30 292,30 292,40 277,40 272,35 " style="fill:white; stroke-width:1; stroke:black; " description="&lt;b&gt;ctg1_35&lt;/b&gt;&lt;br&gt;ctg1 35&lt;br&gt;Location: 39094 - 40438" locus_tag="ctg1_35" class="clusterblast-orf" id="dummy-1_q16_0_all"  />
<polygon points="293,35 298,30 329,30 329,40 298,40 293,35 " style="fill:#a1d815; stroke-width:1; stroke:black; " description="&lt;b&gt;ctg1_36&lt;/b&gt;&lt;br&gt;ctg1 36&lt;br&gt;Location: 40484 - 42905" locus_tag="ctg1_36" class="clusterblast-orf" id="dummy-1_q17_0_all"  />
<polygon points="329,35 334,30 496,30 496,40 334,40 329,35 " style="fill:#a1d815; stroke-width:1; stroke:black; " description="&lt;b&gt;ctg1_37&lt;/b&gt;&lt;br&gt;ctg1 37&lt;br&gt;Location: 42901 - 54178" locus_tag="ctg1_37" class="clusterblast-orf" id="dummy-1_q18_0_all"  />
<polygon points="496,35 498,30 498,40 496,35 " style="fill:white; stroke-width:1; stroke:black; " description="&lt;b&gt;ctg1_38&lt;/b&gt;&lt;br&gt;ctg1 38&lt;br&gt;Location: 54170 - 54281" locus_tag="ctg1_38" class="clusterblast-orf" id="dummy-1_q19_0_all"  />
<polygon points="513,40 534,40 539,35 534,30 513,30 513,40 " style="fill:white; stroke-width:1; stroke:black; " description="&lt;b&gt;ctg1_39&lt;/b&gt;&lt;br&gt;ctg1 39&lt;br&gt;Location: 55265 - 57056" locus_tag="ctg1_39" class="clusterblast-orf" id="dummy-1_q20_0_all"  />
<polygon points="539,40 549,40 554,35 549,30 539,30 539,40 " style="fill:white; stroke-width:1; stroke:black; " description="&lt;b&gt;ctg1_40&lt;/b&gt;&lt;br&gt;ctg1 40&lt;br&gt;Location: 57055 - 58054" locus_tag="ctg1_40" class="clusterblast-orf" id="dummy-1_q21_0_all"  />
<polygon points="558,35 563,30 564,30 564,40 563,40 558,35 " style="fill:white; stroke-width:1; stroke:black; " description="&lt;b&gt;ctg1_41&lt;/b&gt;&lt;br&gt;ctg1 41&lt;br&gt;Location: 58327 - 58720" locus_tag="ctg1_41" class="clusterblast-orf" id="dummy-1_q22_0_all"  />
<polygon points="564,35 565,30 565,40 564,35 " style="fill:white; stroke-width:1; stroke:black; " description="&lt;b&gt;ctg1_42&lt;/b&gt;&lt;br&gt;ctg1 42&lt;br&gt;Location: 58716 - 58809" locus_tag="ctg1_42" class="clusterblast-orf" id="dummy-1_q23_0_all"  />
<polygon points="566,40 570,40 575,35 570,30 566,30 566,40 " style="fill:white; stroke-width:1; stroke:black; " description="&lt;b&gt;ctg1_43&lt;/b&gt;&lt;br&gt;ctg1 43&lt;br&gt;Location: 58839 - 59445" locus_tag="ctg1_43" class="clusterblast-orf" id="dummy-1_q24_0_all"  />
<polygon points="575,40 583,40 588,35 583,30 575,30 575,40 " style="fill:white; stroke-width:1; stroke:black; " description="&lt;b&gt;ctg1_44&lt;/b&gt;&lt;br&gt;ctg1 44&lt;br&gt;Location: 59441 - 60344" locus_tag="ctg1_44" class="clusterblast-orf" id="dummy-1_q25_0_all"  />
<polygon points="588,40 624,40 629,35 624,30 588,30 588,40 " style="fill:white; stroke-width:1; stroke:black; " description="&lt;b&gt;ctg1_45&lt;/b&gt;&lt;br&gt;ctg1 45&lt;br&gt;Location: 60340 - 63115" locus_tag="ctg1_45" class="clusterblast-orf" id="dummy-1_q26_0_all"  />
<polygon points="638,35 643,30 655,30 655,40 643,40 638,35 " style="fill:white; stroke-width:1; stroke:black; " description="&lt;b&gt;ctg1_46&lt;/b&gt;&lt;br&gt;ctg1 46&lt;br&gt;Location: 63678 - 64821" locus_tag="ctg1_46" class="clusterblast-orf" id="dummy-1_q27_0_all"  />
<polygon points="657,35 662,30 663,30 663,40 662,40 657,35 " style="fill:white; stroke-width:1; stroke:black; " description="&lt;b&gt;ctg1_47&lt;/b&gt;&lt;br&gt;ctg1 47&lt;br&gt;Location: 64988 - 65348" locus_tag="ctg1_47" class="clusterblast-orf" id="dummy-1_q28_0_all"  />
<polygon points="665,40 666,35 665,30 665,40 " style="fill:white; stroke-width:1; stroke:black; " description="&lt;b&gt;ctg1_48&lt;/b&gt;&lt;br&gt;ctg1 48&lt;br&gt;Location: 65498 - 65594" locus_tag="ctg1_48" class="clusterblast-orf" id="dummy-1_q29_0_all"  />
<polygon points="669,35 674,30 682,30 682,40 674,40 669,35 " style="fill:white; stroke-width:1; stroke:black; " description="&lt;b&gt;ctg1_49&lt;/b&gt;&lt;br&gt;ctg1 49&lt;br&gt;Location: 65762 - 66668" locus_tag="ctg1_49" class="clusterblast-orf" id="dummy-1_q30_0_all"  />
<polygon points="683,35 688,30 699,30 699,40 688,40 683,35 " style="fill:white; stroke-width:1; stroke:black; " description="&lt;b&gt;ctg1_50&lt;/b&gt;&lt;br&gt;ctg1 50&lt;br&gt;Location: 66720 - 67803" locus_tag="ctg1_50" class="clusterblast-orf" id="dummy-1_q31_0_all"  />
<polygon points="700,35 705,30 715,30 715,40 705,40 700,35 " style="fill:white; stroke-width:1; stroke:black; " description="&lt;b&gt;ctg1_51&lt;/b&gt;&lt;br&gt;ctg1 51&lt;br&gt;Location: 67850 - 68861" locus_tag="ctg1_51" class="clusterblast-orf" id="dummy-1_q32_0_all"  />
<polygon points="721,35 724,30 724,40 721,35 " style="fill:white; stroke-width:1; stroke:black; " description="&lt;b&gt;ctg1_52&lt;/b&gt;&lt;br&gt;ctg1 52&lt;br&gt;Location: 69275 - 69461" locus_tag="ctg1_52" class="clusterblast-orf" id="dummy-1_q33_0_all"  />
<polygon points="726,35 731,30 738,30 738,40 731,40 726,35 " style="fill:white; stroke-width:1; stroke:black; " description="&lt;b&gt;ctg1_53&lt;/b&gt;&lt;br&gt;ctg1 53&lt;br&gt;Location: 69605 - 70400" locus_tag="ctg1_53" class="clusterblast-orf" id="dummy-1_q34_0_all"  />
<polygon points="740,40 747,40 752,35 747,30 740,30 740,40 " style="fill:white; stroke-width:1; stroke:black; " description="&lt;b&gt;ctg1_54&lt;/b&gt;&lt;br&gt;ctg1 54&lt;br&gt;Location: 70523 - 71357" locus_tag="ctg1_54" class="clusterblast-orf" id="dummy-1_q35_0_all"  />
<polygon points="751,40 768,40 773,35 768,30 751,30 751,40 " style="fill:#15d8d8; stroke-width:1; stroke:black; " description="&lt;b&gt;ctg1_55&lt;/b&gt;&lt;br&gt;ctg1 55&lt;br&gt;Location: 71317 - 72736" locus_tag="ctg1_55" class="clusterblast-orf" id="dummy-1_q36_0_all"  />
<polygon points="772,40 775,40 780,35 775,30 772,30 772,40 " style="fill:white; stroke-width:1; stroke:black; " description="&lt;b&gt;ctg1_56&lt;/b&gt;&lt;br&gt;ctg1 56&lt;br&gt;Location: 72725 - 73211" locus_tag="ctg1_56" class="clusterblast-orf" id="dummy-1_q37_0_all"  />
</g>
<g label="NZ_BDBV01000024" description="NZ_BDBV01000024_c10: Nocardia mexicana NBRC 108244, whole genome shotgun sequ... (22% of genes show similarity), nrps" class="clusterblast-cluster"  >
<text x="5" y="70" class="clusterblast-acc"  >
<a xlink:href="https://antismash-db.secondarymetabolites.org/go/NZ_BDBV01000024/10" target="_blank">NZ_BDBV01000024_c10</a>: Nocardia mexicana NBRC 108244, whole genome shotgun sequ... (22% of genes show similarity), nrps</text>
<line x1="10" y1="85" x2="778.0" y2="85" style="stroke-width:1; stroke:grey; "  />
</g>
<g id="a1_000"  >
<polygon points="33,90 46,90 51,85 46,80 33,80 33,90 " style="fill:white; stroke-width:1; stroke:black; " description="&lt;b&gt;NM1_RS10140&lt;/b&gt;&lt;br&gt;hemin transporter&lt;br&gt;Location: 63014 - 64252" locus_tag="NM1_RS10140" class="clusterblast-orf" id="dummy-1_h1_10_0"  />
</g>
<g id="a1_001"  >
<polygon points="52,85 57,80 78,80 78,90 57,90 52,85 " style="fill:white; stroke-width:1; stroke:black; " description="&lt;b&gt;NM1_RS10145&lt;/b&gt;&lt;br&gt;histidine kinase&lt;br&gt;Location: 64332 - 66056" locus_tag="NM1_RS10145" class="clusterblast-orf" id="dummy-1_h1_10_1"  />
</g>
<g id="a1_002"  >
<polygon points="79,85 84,80 88,80 88,90 84,90 79,85 " style="fill:white; stroke-width:1; stroke:black; " description="&lt;b&gt;NM1_RS10150&lt;/b&gt;&lt;br&gt;hypothetical protein&lt;br&gt;Location: 66150 - 66734" locus_tag="NM1_RS10150" class="clusterblast-orf" id="dummy-1_h1_10_2"  />
</g>
<g id="a1_003"  >
<polygon points="91,85 96,80 106,80 106,90 96,90 91,85 " style="fill:white; stroke-width:1; stroke:black; " description="&lt;b&gt;NM1_RS10155&lt;/b&gt;&lt;br&gt;hypothetical protein&lt;br&gt;Location: 66904 - 67908" locus_tag="NM1_RS10155" class="clusterblast-orf" id="dummy-1_h1_10_3"  />
</g>
<g id="a1_004"  >
<polygon points="107,85 112,80 113,80 113,90 112,90 107,85 " style="fill:white; stroke-width:1; stroke:black; " description="&lt;b&gt;NM1_RS10160&lt;/b&gt;&lt;br&gt;DUF302 domain-containing protein&lt;br&gt;Location: 67977 - 68399" locus_tag="NM1_RS10160" class="clusterblast-orf" id="dummy-1_h1_10_4"  />
</g>
<g id="a1_005"  >
<polygon points="123,90 129,90 134,85 129,80 123,80 123,90 " style="fill:white; stroke-width:1; stroke:black; " description="&lt;b&gt;NM1_RS10165&lt;/b&gt;&lt;br&gt;hypothetical protein&lt;br&gt;Location: 69084 - 69794" locus_tag="NM1_RS10165" class="clusterblast-orf" id="dummy-1_h1_10_5"  />
</g>
<g id="a1_006"  >
<polygon points="135,90 138,85 135,80 135,90 " style="fill:white; stroke-width:1; stroke:black; " description="&lt;b&gt;NM1_RS10170&lt;/b&gt;&lt;br&gt;hypothetical protein&lt;br&gt;Location: 69858 - 70121" locus_tag="NM1_RS10170" class="clusterblast-orf" id="dummy-1_h1_10_6"  />
</g>
<g id="a1_007"  >
<polygon points="141,90 150,90 155,85 150,80 141,80 141,90 " style="fill:white; stroke-width:1; stroke:black; " description="&lt;b&gt;NM1_RS10175&lt;/b&gt;&lt;br&gt;universal stress protein&lt;br&gt;Location: 70319 - 71245" locus_tag="NM1_RS10175" class="clusterblast-orf" id="dummy-1_h1_10_7"  />
</g>
<g id="a1_008"  >
<polygon points="157,90 164,90 169,85 164,80 157,80 157,90 " style="fill:white; stroke-width:1; stroke:black; " description="&lt;b&gt;NM1_RS10180&lt;/b&gt;&lt;br&gt;hypothetical protein&lt;br&gt;Location: 71377 - 72198" locus_tag="NM1_RS10180" class="clusterblast-orf" id="dummy-1_h1_10_8"  />
</g>
<g id="a1_009"  >
<polygon points="169,90 178,90 183,85 178,80 169,80 169,90 " style="fill:white; stroke-width:1; stroke:black; " description="&lt;b&gt;NM1_RS10185&lt;/b&gt;&lt;br&gt;ABC transporter ATP-binding protein&lt;br&gt;Location: 72195 - 73118" locus_tag="NM1_RS10185" class="clusterblast-orf" id="dummy-1_h1_10_9"  />
</g>
<g id="a1_0010"  >
<polygon points="183,90 202,90 207,85 202,80 183,80 183,90 " style="fill:white; stroke-width:1; stroke:black; " description="&lt;b&gt;NM1_RS10190&lt;/b&gt;&lt;br&gt;ABC transporter permease&lt;br&gt;Location: 73112 - 74737" locus_tag="NM1_RS10190" class="clusterblast-orf" id="dummy-1_h1_10_10"  />
</g>
<g id="a1_0011"  >
<polygon points="210,90 219,90 224,85 219,80 210,80 210,90 " style="fill:white; stroke-width:1; stroke:black; " description="&lt;b&gt;NM1_RS10195&lt;/b&gt;&lt;br&gt;NAD(P)H nitroreductase&lt;br&gt;Location: 74908 - 75879" locus_tag="NM1_RS10195" class="clusterblast-orf" id="dummy-1_h1_10_11"  />
</g>
<g id="a1_0012"  >
<polygon points="225,85 230,80 254,80 254,90 230,90 225,85 " style="fill:white; stroke-width:1; stroke:black; " description="&lt;b&gt;NM1_RS10200&lt;/b&gt;&lt;br&gt;hypothetical protein&lt;br&gt;Location: 75927 - 77903" locus_tag="NM1_RS10200" class="clusterblast-orf" id="dummy-1_h1_10_12"  />
</g>
<g id="a1_0013"  >
<polygon points="255,85 260,80 272,80 272,90 260,90 255,85 " style="fill:white; stroke-width:1; stroke:black; " description="&lt;b&gt;NM1_RS10205&lt;/b&gt;&lt;br&gt;site-2 protease family protein&lt;br&gt;Location: 77939 - 79120" locus_tag="NM1_RS10205" class="clusterblast-orf" id="dummy-1_h1_10_13"  />
</g>
<g id="a1_0014"  >
<polygon points="273,85 278,80 282,80 282,90 278,90 273,85 " style="fill:white; stroke-width:1; stroke:black; " description="&lt;b&gt;NM1_RS10210&lt;/b&gt;&lt;br&gt;DUF2267 domain-containing protein&lt;br&gt;Location: 79139 - 79780" locus_tag="NM1_RS10210" class="clusterblast-orf" id="dummy-1_h1_10_14"  />
</g>
<g id="a1_0015"  >
<polygon points="282,85 287,80 291,80 291,90 287,90 282,85 " style="fill:white; stroke-width:1; stroke:black; " description="&lt;b&gt;NM1_RS10215&lt;/b&gt;&lt;br&gt;flavodoxin&lt;br&gt;Location: 79795 - 80349" locus_tag="NM1_RS10215" class="clusterblast-orf" id="dummy-1_h1_10_15"  />
</g>
<g id="a1_0016"  >
<polygon points="294,90 297,90 302,85 297,80 294,80 294,90 " style="fill:white; stroke-width:1; stroke:black; " description="&lt;b&gt;NM1_RS10220&lt;/b&gt;&lt;br&gt;hypothetical protein&lt;br&gt;Location: 80560 - 81102" locus_tag="NM1_RS10220" class="clusterblast-orf" id="dummy-1_h1_10_16"  />
</g>
<g id="a1_0017"  >
<polygon points="302,90 324,90 329,85 324,80 302,80 302,90 " style="fill:white; stroke-width:1; stroke:black; " description="&lt;b&gt;NM1_RS10225&lt;/b&gt;&lt;br&gt;acetate--CoA ligase&lt;br&gt;Location: 81116 - 82918" locus_tag="NM1_RS10225" class="clusterblast-orf" id="dummy-1_h1_10_17"  />
</g>
<g id="a1_0018"  >
<polygon points="329,90 338,90 343,85 338,80 329,80 329,90 " style="fill:white; stroke-width:1; stroke:black; " description="&lt;b&gt;NM1_RS10230&lt;/b&gt;&lt;br&gt;pyruvate dehydrogenase (acetyl-transferring) E1 component subunit alpha&lt;br&gt;Location: 82942 - 83880" locus_tag="NM1_RS10230" class="clusterblast-orf" id="dummy-1_h1_10_18"  />
</g>
<g id="a1_0019"  >
<polygon points="343,90 353,90 358,85 353,80 343,80 343,90 " style="fill:white; stroke-width:1; stroke:black; " description="&lt;b&gt;NM1_RS10235&lt;/b&gt;&lt;br&gt;alpha-ketoacid dehydrogenase subunit beta&lt;br&gt;Location: 83877 - 84845" locus_tag="NM1_RS10235" class="clusterblast-orf" id="dummy-1_h1_10_19"  />
</g>
<g id="a1_0020"  >
<polygon points="358,90 374,90 379,85 374,80 358,80 358,90 " style="fill:white; stroke-width:1; stroke:black; " description="&lt;b&gt;NM1_RS10240&lt;/b&gt;&lt;br&gt;2-oxo acid dehydrogenase subunit E2&lt;br&gt;Location: 84847 - 86307" locus_tag="NM1_RS10240" class="clusterblast-orf" id="dummy-1_h1_10_20"  />
</g>
<g id="a1_0021"  >
<polygon points="379,90 383,85 379,80 379,90 " style="fill:white; stroke-width:1; stroke:black; " description="&lt;b&gt;NM1_RS10245&lt;/b&gt;&lt;br&gt;phosphopantetheine-binding protein&lt;br&gt;Location: 86311 - 86568" locus_tag="NM1_RS10245" class="clusterblast-orf" id="dummy-1_h1_10_21"  />
</g>
<g id="a1_0022"  >
<polygon points="384,85 389,80 390,80 390,90 389,90 384,85 " style="fill:white; stroke-width:1; stroke:black; " description="&lt;b&gt;NM1_RS10250&lt;/b&gt;&lt;br&gt;hypothetical protein&lt;br&gt;Location: 86590 - 87033" locus_tag="NM1_RS10250" class="clusterblast-orf" id="dummy-1_h1_10_22"  />
</g>
<g id="a1_0023"  >
<polygon points="393,90 401,90 406,85 401,80 393,80 393,90 " style="fill:white; stroke-width:1; stroke:black; " description="&lt;b&gt;NM1_RS10255&lt;/b&gt;&lt;br&gt;universal stress protein&lt;br&gt;Location: 87211 - 88113" locus_tag="NM1_RS10255" class="clusterblast-orf" id="dummy-1_h1_10_23"  />
</g>
<g id="a1_0024"  >
<polygon points="406,90 423,90 428,85 423,80 406,80 406,90 " style="fill:white; stroke-width:1; stroke:black; " description="&lt;b&gt;NM1_RS10260&lt;/b&gt;&lt;br&gt;serine hydrolase&lt;br&gt;Location: 88110 - 89579" locus_tag="NM1_RS10260" class="clusterblast-orf" id="dummy-1_h1_10_24"  />
</g>
<g id="a1_0025"  >
<polygon points="430,90 446,90 451,85 446,80 430,80 430,90 " style="fill:white; stroke-width:1; stroke:black; " description="&lt;b&gt;NM1_RS10265&lt;/b&gt;&lt;br&gt;wax ester/triacylglycerol synthase family O-acyltransferase&lt;br&gt;Location: 89723 - 91120" locus_tag="NM1_RS10265" class="clusterblast-orf" id="dummy-1_h1_10_25"  />
</g>
<g id="a1_0026"  >
<polygon points="452,85 457,80 477,80 477,90 457,90 452,85 " style="fill:white; stroke-width:1; stroke:black; " description="&lt;b&gt;NM1_RS10270&lt;/b&gt;&lt;br&gt;histidine kinase&lt;br&gt;Location: 91198 - 92868" locus_tag="NM1_RS10270" class="clusterblast-orf" id="dummy-1_h1_10_26"  />
</g>
<g id="a1_0027"  >
<polygon points="480,85 485,80 488,80 488,90 485,90 480,85 " style="fill:#4d15d8; stroke-width:1; stroke:black; " description="&lt;b&gt;NM1_RS10275&lt;/b&gt;&lt;br&gt;hypothetical protein&lt;br&gt;Location: 93098 - 93586&lt;br&gt;&lt;br&gt;&lt;b&gt;BlastP hit with ctg1_31&lt;/b&gt;&lt;br&gt;Percentage identity: 46&lt;br&gt;Percentage coverage: 96&lt;br&gt;BLAST bit score: 123&lt;br&gt;E-value: 2.5e-26" locus_tag="NM1_RS10275" class="clusterblast-orf" id="dummy-1_h1_10_27"  />
</g>
<g id="a1_0028"  >
<polygon points="488,85 493,80 507,80 507,90 493,90 488,85 " style="fill:#a115d8; stroke-width:1; stroke:black; " description="&lt;b&gt;NM1_RS10280&lt;/b&gt;&lt;br&gt;dehydrogenase&lt;br&gt;Location: 93583 - 94875&lt;br&gt;&lt;br&gt;&lt;b&gt;BlastP hit with ctg1_24&lt;/b&gt;&lt;br&gt;Percentage identity: 58&lt;br&gt;Percentage coverage: 100&lt;br&gt;BLAST bit score: 500&lt;br&gt;E-value: 1.5e-139" locus_tag="NM1_RS10280" class="clusterblast-orf" id="dummy-1_h1_10_28"  />
</g>
<g id="a1_0029"  >
<polygon points="507,85 512,80 518,80 518,90 512,90 507,85 " style="fill:#d86915; stroke-width:1; stroke:black; " description="&lt;b&gt;NM1_RS10285&lt;/b&gt;&lt;br&gt;oxidoreductase&lt;br&gt;Location: 94859 - 95632&lt;br&gt;&lt;br&gt;&lt;b&gt;BlastP hit with ctg1_25&lt;/b&gt;&lt;br&gt;Percentage identity: 69&lt;br&gt;Percentage coverage: 93&lt;br&gt;BLAST bit score: 352&lt;br&gt;E-value: 3e-95" locus_tag="NM1_RS10285" class="clusterblast-orf" id="dummy-1_h1_10_29"  />
</g>
<g id="a1_0030"  >
<polygon points="518,85 523,80 531,80 531,90 523,90 518,85 " style="fill:#15d831; stroke-width:1; stroke:black; " description="&lt;b&gt;NM1_RS10290&lt;/b&gt;&lt;br&gt;oxidoreductase&lt;br&gt;Location: 95632 - 96486&lt;br&gt;&lt;br&gt;&lt;b&gt;BlastP hit with ctg1_26&lt;/b&gt;&lt;br&gt;Percentage identity: 51&lt;br&gt;Percentage coverage: 99&lt;br&gt;BLAST bit score: 259&lt;br&gt;E-value: 3.5e-67" locus_tag="NM1_RS10290" class="clusterblast-orf" id="dummy-1_h1_10_30"  />
</g>
<g id="a1_0031"  >
<polygon points="531,85 536,80 538,80 538,90 536,90 531,85 " style="fill:#1531d8; stroke-width:1; stroke:black; " description="&lt;b&gt;NM1_RS10295&lt;/b&gt;&lt;br&gt;cyclic nucleotide-binding domain-containing protein&lt;br&gt;Location: 96483 - 96980&lt;br&gt;&lt;br&gt;&lt;b&gt;BlastP hit with ctg1_27&lt;/b&gt;&lt;br&gt;Percentage identity: 45&lt;br&gt;Percentage coverage: 92&lt;br&gt;BLAST bit score: 127&lt;br&gt;E-value: 1.5e-27" locus_tag="NM1_RS10295" class="clusterblast-orf" id="dummy-1_h1_10_31"  />
</g>
<g id="a1_0032"  >
<polygon points="538,85 543,80 555,80 555,90 543,90 538,85 " style="fill:#d815bc; stroke-width:1; stroke:black; " description="&lt;b&gt;NM1_RS10300&lt;/b&gt;&lt;br&gt;4Fe-4S ferredoxin&lt;br&gt;Location: 96967 - 98097&lt;br&gt;&lt;br&gt;&lt;b&gt;BlastP hit with ctg1_28&lt;/b&gt;&lt;br&gt;Percentage identity: 59&lt;br&gt;Percentage coverage: 94&lt;br&gt;BLAST bit score: 434&lt;br&gt;E-value: 1.1e-119" locus_tag="NM1_RS10300" class="clusterblast-orf" id="dummy-1_h1_10_32"  />
</g>
<g id="a1_0033"  >
<polygon points="558,90 566,90 571,85 566,80 558,80 558,90 " style="fill:white; stroke-width:1; stroke:black; " description="&lt;b&gt;NM1_RS10305&lt;/b&gt;&lt;br&gt;glycosyltransferase family 2 protein&lt;br&gt;Location: 98292 - 99158" locus_tag="NM1_RS10305" class="clusterblast-orf" id="dummy-1_h1_10_33"  />
</g>
<g id="a1_0034"  >
<polygon points="571,85 576,80 583,80 583,90 576,90 571,85 " style="fill:white; stroke-width:1; stroke:black; " description="&lt;b&gt;NM1_RS10310&lt;/b&gt;&lt;br&gt;class I SAM-dependent methyltransferase&lt;br&gt;Location: 99162 - 99980" locus_tag="NM1_RS10310" class="clusterblast-orf" id="dummy-1_h1_10_34"  />
</g>
<g id="a1_0035"  >
<polygon points="582,85 587,80 596,80 596,90 587,90 582,85 " style="fill:white; stroke-width:1; stroke:black; " description="&lt;b&gt;NM1_RS10315&lt;/b&gt;&lt;br&gt;hypothetical protein&lt;br&gt;Location: 99944 - 100888" locus_tag="NM1_RS10315" class="clusterblast-orf" id="dummy-1_h1_10_35"  />
</g>
<g id="a1_0036"  >
<polygon points="596,85 601,80 614,80 614,90 601,90 596,85 " style="fill:white; stroke-width:1; stroke:black; " description="&lt;b&gt;NM1_RS10320&lt;/b&gt;&lt;br&gt;radical SAM protein&lt;br&gt;Location: 100885 - 102102" locus_tag="NM1_RS10320" class="clusterblast-orf" id="dummy-1_h1_10_36"  />
</g>
<g id="a1_0037"  >
<polygon points="612,85 617,80 627,80 627,90 617,90 612,85 " style="fill:white; stroke-width:1; stroke:black; " description="&lt;b&gt;NM1_RS40970&lt;/b&gt;&lt;br&gt;hypothetical protein&lt;br&gt;Location: 101970 - 102986" locus_tag="NM1_RS40970" class="clusterblast-orf" id="dummy-1_h1_10_37"  />
</g>
<g id="a1_0038"  >
<polygon points="636,90 650,90 655,85 650,80 636,80 636,90 " style="fill:white; stroke-width:1; stroke:black; " description="&lt;b&gt;NM1_RS10335&lt;/b&gt;&lt;br&gt;XRE family transcriptional regulator&lt;br&gt;Location: 103588 - 104820" locus_tag="NM1_RS10335" class="clusterblast-orf" id="dummy-1_h1_10_38"  />
</g>
<g id="a1_0039"  >
<polygon points="656,85 661,80 672,80 672,90 661,90 656,85 " style="fill:#4dd815; stroke-width:1; stroke:black; " description="&lt;b&gt;NM1_RS10340&lt;/b&gt;&lt;br&gt;hydrogenase expression/formation protein HypE&lt;br&gt;Location: 104895 - 105947&lt;br&gt;&lt;br&gt;&lt;b&gt;BlastP hit with ctg1_22&lt;/b&gt;&lt;br&gt;Percentage identity: 59&lt;br&gt;Percentage coverage: 98&lt;br&gt;BLAST bit score: 368&lt;br&gt;E-value: 7e-100" locus_tag="NM1_RS10340" class="clusterblast-orf" id="dummy-1_h1_10_39"  />
</g>
<g id="a1_0040"  >
<polygon points="671,85 676,80 688,80 688,90 676,90 671,85 " style="fill:#1585d8; stroke-width:1; stroke:black; " description="&lt;b&gt;NM1_RS10345&lt;/b&gt;&lt;br&gt;hydrogenase formation protein HypD&lt;br&gt;Location: 105944 - 107053&lt;br&gt;&lt;br&gt;&lt;b&gt;BlastP hit with ctg1_23&lt;/b&gt;&lt;br&gt;Percentage identity: 71&lt;br&gt;Percentage coverage: 98&lt;br&gt;BLAST bit score: 529&lt;br&gt;E-value: 4.2e-148" locus_tag="NM1_RS10345" class="clusterblast-orf" id="dummy-1_h1_10_40"  />
</g>
<g id="a1_0041"  >
<polygon points="688,85 693,80 693,80 693,90 693,90 688,85 " style="fill:#d8bc15; stroke-width:1; stroke:black; " description="&lt;b&gt;NM1_RS10350&lt;/b&gt;&lt;br&gt;HypC/HybG/HupF family hydrogenase formation chaperone&lt;br&gt;Location: 107050 - 107364&lt;br&gt;&lt;br&gt;&lt;b&gt;BlastP hit with ctg1_29&lt;/b&gt;&lt;br&gt;Percentage identity: 65&lt;br&gt;Percentage coverage: 86&lt;br&gt;BLAST bit score: 110&lt;br&gt;E-value: 9.1e-23" locus_tag="NM1_RS10350" class="clusterblast-orf" id="dummy-1_h1_10_41"  />
</g>
<g id="a1_0042"  >
<polygon points="693,85 698,80 727,80 727,90 698,90 693,85 " style="fill:#15d885; stroke-width:1; stroke:black; " description="&lt;b&gt;NM1_RS10355&lt;/b&gt;&lt;br&gt;carbamoyltransferase HypF&lt;br&gt;Location: 107368 - 109677&lt;br&gt;&lt;br&gt;&lt;b&gt;BlastP hit with ctg1_30&lt;/b&gt;&lt;br&gt;Percentage identity: 57&lt;br&gt;Percentage coverage: 97&lt;br&gt;BLAST bit score: 692&lt;br&gt;E-value: 4.7e-197" locus_tag="NM1_RS10355" class="clusterblast-orf" id="dummy-1_h1_10_42"  />
</g>
<g id="a1_0043"  >
<polygon points="729,85 734,80 736,80 736,90 734,90 729,85 " style="fill:white; stroke-width:1; stroke:black; " description="&lt;b&gt;NM1_RS10360&lt;/b&gt;&lt;br&gt;hypothetical protein&lt;br&gt;Location: 109800 - 110312" locus_tag="NM1_RS10360" class="clusterblast-orf" id="dummy-1_h1_10_43"  />
</g>
<g id="a1_0044"  >
<polygon points="740,90 741,90 746,85 741,80 740,80 740,90 " style="fill:white; stroke-width:1; stroke:black; " description="&lt;b&gt;NM1_RS10365&lt;/b&gt;&lt;br&gt;Hsp20/alpha crystallin family protein&lt;br&gt;Location: 110550 - 110972" locus_tag="NM1_RS10365" class="clusterblast-orf" id="dummy-1_h1_10_44"  />
</g>
</svg>
