<svg xmlns="http://www.w3.org/2000/svg" xmlns:xlink="http://www.w3.org/1999/xlink" version="1.1" x="0" y="0" height="230" width="800" viewBox="0 0 800 230" preserveAspectRatio="none"  >
<g label="Query sequence" class="clusterblast-cluster"  >
<text x="5" y="20" class="clusterblast-acc"  >
Query sequence</text>
<line x1="10" y1="35" x2="778.0" y2="35" style="stroke-width:1; stroke:grey; "  />
<polygon points="308,40 334,40 339,35 334,30 308,30 308,40 " style="fill:#d81515; stroke-width:1; stroke:black; " description="&lt;b&gt;ctg381_1&lt;/b&gt;&lt;br&gt;ctg381 1&lt;br&gt;Location: 48 - 888" locus_tag="ctg381_1" class="clusterblast-orf" id="dummy-1_q0_0_all"  />
<polygon points="344,40 356,40 361,35 356,30 344,30 344,40 " style="fill:#77d815; stroke-width:1; stroke:black; " description="&lt;b&gt;ctg381_2&lt;/b&gt;&lt;br&gt;ctg381 2&lt;br&gt;Location: 1009 - 1459" locus_tag="ctg381_2" class="clusterblast-orf" id="dummy-1_q1_0_all"  />
<polygon points="359,35 364,30 365,30 365,40 364,40 359,35 " style="fill:white; stroke-width:1; stroke:black; " description="&lt;b&gt;ctg381_3&lt;/b&gt;&lt;br&gt;ctg381 3&lt;br&gt;Location: 1409 - 1562" locus_tag="ctg381_3" class="clusterblast-orf" id="dummy-1_q2_0_all"  />
<polygon points="365,35 370,30 380,30 380,40 370,40 365,35 " style="fill:white; stroke-width:1; stroke:black; " description="&lt;b&gt;ctg381_4&lt;/b&gt;&lt;br&gt;ctg381 4&lt;br&gt;Location: 1564 - 1963" locus_tag="ctg381_4" class="clusterblast-orf" id="dummy-1_q3_0_all"  />
<polygon points="387,40 415,40 420,35 415,30 387,30 387,40 " style="fill:#15d8d8; stroke-width:1; stroke:black; " description="&lt;b&gt;ctg381_5&lt;/b&gt;&lt;br&gt;ctg381 5&lt;br&gt;Location: 2142 - 3012" locus_tag="ctg381_5" class="clusterblast-orf" id="dummy-1_q4_0_all"  />
<polygon points="419,35 424,30 458,30 458,40 424,40 419,35 " style="fill:#7715d8; stroke-width:1; stroke:black; " description="&lt;b&gt;ctg381_6&lt;/b&gt;&lt;br&gt;ctg381 6&lt;br&gt;Location: 2995 - 4036" locus_tag="ctg381_6" class="clusterblast-orf" id="dummy-1_q5_0_all"  />
<polygon points="465,40 467,40 472,35 467,30 465,30 465,40 " style="fill:white; stroke-width:1; stroke:black; " description="&lt;b&gt;ctg381_7&lt;/b&gt;&lt;br&gt;ctg381 7&lt;br&gt;Location: 4206 - 4404" locus_tag="ctg381_7" class="clusterblast-orf" id="dummy-1_q6_0_all"  />
</g>
<g label="NZ_AUBE01000037" description="NZ_AUBE01000037_c23: Streptomyces flavidovirens DSM 40150 G412DRAFT scaffold0... (7% of genes show similarity), terpene" class="clusterblast-cluster"  >
<text x="5" y="70" class="clusterblast-acc"  >
<a xlink:href="https://antismash-db.secondarymetabolites.org/go/NZ_AUBE01000037/23" target="_blank">NZ_AUBE01000037_c23</a>: Streptomyces flavidovirens DSM 40150 G412DRAFT scaffold0... (7% of genes show similarity), terpene</text>
<line x1="10" y1="85" x2="778.0" y2="85" style="stroke-width:1; stroke:grey; "  />
</g>
<g id="a1_000"  >
<polygon points="0,85 5,80 6,80 6,90 5,90 0,85 " style="fill:white; stroke-width:1; stroke:black; " description="&lt;b&gt;G412_RS38715&lt;/b&gt;&lt;br&gt;IS110 family transposase&lt;br&gt;Location: 21032 - 20859" locus_tag="G412_RS38715" class="clusterblast-orf" id="dummy-1_h1_7_0"  />
</g>
<g id="a1_001"  >
<polygon points="16,90 31,90 36,85 31,80 16,80 16,90 " style="fill:white; stroke-width:1; stroke:black; " description="&lt;b&gt;G412_RS0129665&lt;/b&gt;&lt;br&gt;hypothetical protein&lt;br&gt;Location: 20600 - 20064" locus_tag="G412_RS0129665" class="clusterblast-orf" id="dummy-1_h1_7_1"  />
</g>
<g id="a1_002"  >
<polygon points="65,90 67,90 72,85 67,80 65,80 65,90 " style="fill:white; stroke-width:1; stroke:black; " description="&lt;b&gt;G412_RS36580&lt;/b&gt;&lt;br&gt;hypothetical protein&lt;br&gt;Location: 19308 - 19105" locus_tag="G412_RS36580" class="clusterblast-orf" id="dummy-1_h1_7_2"  />
</g>
<g id="a1_003"  >
<polygon points="79,85 84,80 85,80 85,90 84,90 79,85 " style="fill:white; stroke-width:1; stroke:black; " description="&lt;b&gt;G412_RS0129655&lt;/b&gt;&lt;br&gt;hypothetical protein&lt;br&gt;Location: 18932 - 18753" locus_tag="G412_RS0129655" class="clusterblast-orf" id="dummy-1_h1_7_3"  />
</g>
<g id="a1_004"  >
<polygon points="97,90 106,90 111,85 106,80 97,80 97,90 " style="fill:white; stroke-width:1; stroke:black; " description="&lt;b&gt;G412_RS0129650&lt;/b&gt;&lt;br&gt;hypothetical protein&lt;br&gt;Location: 18458 - 18075" locus_tag="G412_RS0129650" class="clusterblast-orf" id="dummy-1_h1_7_4"  />
</g>
<g id="a1_005"  >
<polygon points="129,90 132,90 137,85 132,80 129,80 129,90 " style="fill:white; stroke-width:1; stroke:black; " description="&lt;b&gt;G412_RS0129645&lt;/b&gt;&lt;br&gt;cold-shock protein&lt;br&gt;Location: 17586 - 17398" locus_tag="G412_RS0129645" class="clusterblast-orf" id="dummy-1_h1_7_5"  />
</g>
<g id="a1_006"  >
<polygon points="160,85 165,80 173,80 173,90 165,90 160,85 " style="fill:white; stroke-width:1; stroke:black; " description="&lt;b&gt;G412_RS0129640&lt;/b&gt;&lt;br&gt;hypothetical protein&lt;br&gt;Location: 16772 - 16443" locus_tag="G412_RS0129640" class="clusterblast-orf" id="dummy-1_h1_7_6"  />
</g>
<g id="a1_007"  >
<polygon points="187,85 192,80 217,80 217,90 192,90 187,85 " style="fill:white; stroke-width:1; stroke:black; " description="&lt;b&gt;G412_RS36575&lt;/b&gt;&lt;br&gt;AAA family ATPase&lt;br&gt;Location: 16048 - 15253" locus_tag="G412_RS36575" class="clusterblast-orf" id="dummy-1_h1_7_7"  />
</g>
<g id="a1_008"  >
<polygon points="222,85 227,80 267,80 267,90 227,90 222,85 " style="fill:white; stroke-width:1; stroke:black; " description="&lt;b&gt;G412_RS36570&lt;/b&gt;&lt;br&gt;IS21 family transposase&lt;br&gt;Location: 15134 - 13950" locus_tag="G412_RS36570" class="clusterblast-orf" id="dummy-1_h1_7_8"  />
</g>
<g id="a1_009"  >
<polygon points="284,90 320,90 325,85 320,80 284,80 284,90 " style="fill:white; stroke-width:1; stroke:black; " description="&lt;b&gt;G412_RS0129620&lt;/b&gt;&lt;br&gt;polyprenyl synthetase family protein&lt;br&gt;Location: 13494 - 12406" locus_tag="G412_RS0129620" class="clusterblast-orf" id="dummy-1_h1_7_9"  />
</g>
<g id="a1_0010"  >
<polygon points="326,90 359,90 364,85 359,80 326,80 326,90 " style="fill:white; stroke-width:1; stroke:black; " description="&lt;b&gt;G412_RS37460&lt;/b&gt;&lt;br&gt;hypothetical protein&lt;br&gt;Location: 12368 - 11358" locus_tag="G412_RS37460" class="clusterblast-orf" id="dummy-1_h1_7_10"  />
</g>
<g id="a1_0011"  >
<polygon points="364,90 398,90 403,85 398,80 364,80 364,90 " style="fill:white; stroke-width:1; stroke:black; " description="&lt;b&gt;G412_RS0129610&lt;/b&gt;&lt;br&gt;hypothetical protein&lt;br&gt;Location: 11361 - 10324" locus_tag="G412_RS0129610" class="clusterblast-orf" id="dummy-1_h1_7_11"  />
</g>
<g id="a1_0012"  >
<polygon points="417,85 422,80 429,80 429,90 422,90 417,85 " style="fill:white; stroke-width:1; stroke:black; " description="&lt;b&gt;G412_RS38710&lt;/b&gt;&lt;br&gt;IS21 family transposase&lt;br&gt;Location: 9952 - 9638" locus_tag="G412_RS38710" class="clusterblast-orf" id="dummy-1_h1_7_12"  />
</g>
<g id="a1_0013"  >
<polygon points="430,90 443,90 448,85 443,80 430,80 430,90 " style="fill:white; stroke-width:1; stroke:black; " description="&lt;b&gt;G412_RS36560&lt;/b&gt;&lt;br&gt;hypothetical protein&lt;br&gt;Location: 9614 - 9147" locus_tag="G412_RS36560" class="clusterblast-orf" id="dummy-1_h1_7_13"  />
</g>
<g id="a1_0014"  >
<polygon points="448,90 475,90 480,85 475,80 448,80 448,90 " style="fill:#d81515; stroke-width:1; stroke:black; " description="&lt;b&gt;G412_RS0129600&lt;/b&gt;&lt;br&gt;XRE family transcriptional regulator&lt;br&gt;Location: 9138 - 8290&lt;br&gt;&lt;br&gt;&lt;b&gt;BlastP hit with ctg381_1&lt;/b&gt;&lt;br&gt;Percentage identity: 67&lt;br&gt;Percentage coverage: 99&lt;br&gt;BLAST bit score: 352&lt;br&gt;E-value: 5.3e-95" locus_tag="G412_RS0129600" class="clusterblast-orf" id="dummy-1_h1_7_14"  />
</g>
<g id="a1_0015"  >
<polygon points="484,90 486,90 491,85 486,80 484,80 484,90 " style="fill:white; stroke-width:1; stroke:black; " description="&lt;b&gt;G412_RS38705&lt;/b&gt;&lt;br&gt;hypothetical protein&lt;br&gt;Location: 8188 - 8000" locus_tag="G412_RS38705" class="clusterblast-orf" id="dummy-1_h1_7_15"  />
</g>
<g id="a1_0016"  >
<polygon points="491,90 500,90 505,85 500,80 491,80 491,90 " style="fill:#77d815; stroke-width:1; stroke:black; " description="&lt;b&gt;G412_RS38700&lt;/b&gt;&lt;br&gt;restriction endonuclease&lt;br&gt;Location: 8003 - 7623&lt;br&gt;&lt;br&gt;&lt;b&gt;BlastP hit with ctg381_2&lt;/b&gt;&lt;br&gt;Percentage identity: 55&lt;br&gt;Percentage coverage: 75&lt;br&gt;BLAST bit score: 108&lt;br&gt;E-value: 9.4e-22" locus_tag="G412_RS38700" class="clusterblast-orf" id="dummy-1_h1_7_16"  />
</g>
<g id="a1_0017"  >
<polygon points="510,90 521,90 526,85 521,80 510,80 510,90 " style="fill:white; stroke-width:1; stroke:black; " description="&lt;b&gt;G412_RS0129590&lt;/b&gt;&lt;br&gt;hypothetical protein&lt;br&gt;Location: 7489 - 7085" locus_tag="G412_RS0129590" class="clusterblast-orf" id="dummy-1_h1_7_17"  />
</g>
<g id="a1_0018"  >
<polygon points="536,90 565,90 570,85 565,80 536,80 536,90 " style="fill:white; stroke-width:1; stroke:black; " description="&lt;b&gt;G412_RS0129580&lt;/b&gt;&lt;br&gt;SDR family NAD(P)-dependent oxidoreductase&lt;br&gt;Location: 6801 - 5896" locus_tag="G412_RS0129580" class="clusterblast-orf" id="dummy-1_h1_7_18"  />
</g>
<g id="a1_0019"  >
<polygon points="570,90 603,90 608,85 603,80 570,80 570,90 " style="fill:white; stroke-width:1; stroke:black; " description="&lt;b&gt;G412_RS0129575&lt;/b&gt;&lt;br&gt;hypothetical protein&lt;br&gt;Location: 5899 - 4907" locus_tag="G412_RS0129575" class="clusterblast-orf" id="dummy-1_h1_7_19"  />
</g>
<g id="a1_0020"  >
<polygon points="624,90 628,85 624,80 624,90 " style="fill:white; stroke-width:1; stroke:black; " description="&lt;b&gt;G412_RS39435&lt;/b&gt;&lt;br&gt;hypothetical protein&lt;br&gt;Location: 4480 - 4370" locus_tag="G412_RS39435" class="clusterblast-orf" id="dummy-1_h1_7_20"  />
</g>
<g id="a1_0021"  >
<polygon points="630,85 635,80 637,80 637,90 635,90 630,85 " style="fill:white; stroke-width:1; stroke:black; " description="&lt;b&gt;G412_RS37455&lt;/b&gt;&lt;br&gt;hypothetical protein&lt;br&gt;Location: 4319 - 4137" locus_tag="G412_RS37455" class="clusterblast-orf" id="dummy-1_h1_7_21"  />
</g>
<g id="a1_0022"  >
<polygon points="649,90 651,90 656,85 651,80 649,80 649,90 " style="fill:white; stroke-width:1; stroke:black; " description="&lt;b&gt;G412_RS36550&lt;/b&gt;&lt;br&gt;hypothetical protein&lt;br&gt;Location: 3824 - 3630" locus_tag="G412_RS36550" class="clusterblast-orf" id="dummy-1_h1_7_22"  />
</g>
<g id="a1_0023"  >
<polygon points="662,90 664,90 669,85 664,80 662,80 662,90 " style="fill:white; stroke-width:1; stroke:black; " description="&lt;b&gt;G412_RS0129560&lt;/b&gt;&lt;br&gt;hypothetical protein&lt;br&gt;Location: 3455 - 3276" locus_tag="G412_RS0129560" class="clusterblast-orf" id="dummy-1_h1_7_23"  />
</g>
<g id="a1_0024"  >
<polygon points="673,90 698,90 703,85 698,80 673,80 673,90 " style="fill:white; stroke-width:1; stroke:black; " description="&lt;b&gt;G412_RS36545&lt;/b&gt;&lt;br&gt;hypothetical protein&lt;br&gt;Location: 3183 - 2377" locus_tag="G412_RS36545" class="clusterblast-orf" id="dummy-1_h1_7_24"  />
</g>
<g id="a1_0025"  >
<polygon points="739,85 744,80 747,80 747,90 744,90 739,85 " style="fill:white; stroke-width:1; stroke:black; " description="&lt;b&gt;G412_RS38695&lt;/b&gt;&lt;br&gt;hypothetical protein&lt;br&gt;Location: 1417 - 1218" locus_tag="G412_RS38695" class="clusterblast-orf" id="dummy-1_h1_7_25"  />
</g>
<g id="a1_0026"  >
<polygon points="765,85 770,80 780,80 780,90 770,90 765,85 " style="fill:white; stroke-width:1; stroke:black; " description="&lt;b&gt;G412_RS0129545&lt;/b&gt;&lt;br&gt;hypothetical protein&lt;br&gt;Location: 748 - 353" locus_tag="G412_RS0129545" class="clusterblast-orf" id="dummy-1_h1_7_26"  />
</g>
</svg>
