<svg xmlns="http://www.w3.org/2000/svg" xmlns:xlink="http://www.w3.org/1999/xlink" version="1.1" x="0" y="0" height="230" width="800" viewBox="0 0 800 230" preserveAspectRatio="none"  >
<g label="Query sequence" class="clusterblast-cluster"  >
<text x="5" y="20" class="clusterblast-acc"  >
Query sequence</text>
<line x1="10" y1="35" x2="778.0" y2="35" style="stroke-width:1; stroke:grey; "  />
<polygon points="369,35 374,30 393,30 393,40 374,40 369,35 " style="fill:#d81515; stroke-width:1; stroke:black; " description="&lt;b&gt;ctg309_1&lt;/b&gt;&lt;br&gt;ctg309 1&lt;br&gt;Location: 2 - 3704" locus_tag="ctg309_1" class="clusterblast-orf" id="dummy-1_q0_0_all"  />
<polygon points="396,40 398,40 403,35 398,30 396,30 396,40 " style="fill:#15d815; stroke-width:1; stroke:black; " description="&lt;b&gt;ctg309_2&lt;/b&gt;&lt;br&gt;ctg309 2&lt;br&gt;Location: 4148 - 5282" locus_tag="ctg309_2" class="clusterblast-orf" id="dummy-1_q1_0_all"  />
<polygon points="403,40 405,40 410,35 405,30 403,30 403,40 " style="fill:#1515d8; stroke-width:1; stroke:black; " description="&lt;b&gt;ctg309_3&lt;/b&gt;&lt;br&gt;ctg309 3&lt;br&gt;Location: 5278 - 6355" locus_tag="ctg309_3" class="clusterblast-orf" id="dummy-1_q2_0_all"  />
</g>
<g label="NZ_BBOM01000015" description="NZ_BBOM01000015_c5: Streptomyces sp. NBRC 109706, whole genome shotgun sequence (5% of genes show similarity), t1pks" class="clusterblast-cluster"  >
<text x="5" y="70" class="clusterblast-acc"  >
<a xlink:href="https://antismash-db.secondarymetabolites.org/go/NZ_BBOM01000015/5" target="_blank">NZ_BBOM01000015_c5</a>: Streptomyces sp. NBRC 109706, whole genome shotgun sequence (5% of genes show similarity), t1pks</text>
<line x1="10" y1="85" x2="778.0" y2="85" style="stroke-width:1; stroke:grey; "  />
</g>
<g id="a1_000"  >
<polygon points="0,85 3,80 3,90 0,85 " style="fill:white; stroke-width:1; stroke:black; " description="&lt;b&gt;AOM46_RS33625&lt;/b&gt;&lt;br&gt;hypothetical protein&lt;br&gt;Location: 1 - 514" locus_tag="AOM46_RS33625" class="clusterblast-orf" id="dummy-1_h1_5_0"  />
</g>
<g id="a1_001"  >
<polygon points="3,85 8,80 9,80 9,90 8,90 3,85 " style="fill:white; stroke-width:1; stroke:black; " description="&lt;b&gt;AOM46_RS33630&lt;/b&gt;&lt;br&gt;polyketide synthase&lt;br&gt;Location: 542 - 1546" locus_tag="AOM46_RS33630" class="clusterblast-orf" id="dummy-1_h1_5_1"  />
</g>
<g id="a1_002"  >
<polygon points="15,85 20,80 33,80 33,90 20,90 15,85 " style="fill:white; stroke-width:1; stroke:black; " description="&lt;b&gt;AOM46_RS33635&lt;/b&gt;&lt;br&gt;hypothetical protein&lt;br&gt;Location: 2462 - 5134" locus_tag="AOM46_RS33635" class="clusterblast-orf" id="dummy-1_h1_5_2"  />
</g>
<g id="a1_003"  >
<polygon points="33,85 38,80 93,80 93,90 38,90 33,85 " style="fill:white; stroke-width:1; stroke:black; " description="&lt;b&gt;AOM46_RS33640&lt;/b&gt;&lt;br&gt;type-I PKS&lt;br&gt;Location: 5246 - 14506" locus_tag="AOM46_RS33640" class="clusterblast-orf" id="dummy-1_h1_5_3"  />
</g>
<g id="a1_004"  >
<polygon points="96,90 99,85 96,80 96,90 " style="fill:white; stroke-width:1; stroke:black; " description="&lt;b&gt;AOM46_RS30620&lt;/b&gt;&lt;br&gt;hypothetical protein&lt;br&gt;Location: 14906 - 15328" locus_tag="AOM46_RS30620" class="clusterblast-orf" id="dummy-1_h1_5_4"  />
</g>
<g id="a1_005"  >
<polygon points="99,90 102,85 99,80 99,90 " style="fill:white; stroke-width:1; stroke:black; " description="&lt;b&gt;AOM46_RS30625&lt;/b&gt;&lt;br&gt;hypothetical protein&lt;br&gt;Location: 15374 - 15796" locus_tag="AOM46_RS30625" class="clusterblast-orf" id="dummy-1_h1_5_5"  />
</g>
<g id="a1_006"  >
<polygon points="103,85 108,80 112,80 112,90 108,90 103,85 " style="fill:white; stroke-width:1; stroke:black; " description="&lt;b&gt;AOM46_RS30630&lt;/b&gt;&lt;br&gt;hypothetical protein&lt;br&gt;Location: 15936 - 17357" locus_tag="AOM46_RS30630" class="clusterblast-orf" id="dummy-1_h1_5_6"  />
</g>
<g id="a1_007"  >
<polygon points="115,90 116,90 121,85 116,80 115,80 115,90 " style="fill:white; stroke-width:1; stroke:black; " description="&lt;b&gt;AOM46_RS30635&lt;/b&gt;&lt;br&gt;ABC transporter ATP-binding protein&lt;br&gt;Location: 17885 - 18805" locus_tag="AOM46_RS30635" class="clusterblast-orf" id="dummy-1_h1_5_7"  />
</g>
<g id="a1_008"  >
<polygon points="121,90 126,90 131,85 126,80 121,80 121,90 " style="fill:white; stroke-width:1; stroke:black; " description="&lt;b&gt;AOM46_RS30640&lt;/b&gt;&lt;br&gt;hypothetical protein&lt;br&gt;Location: 18802 - 20409" locus_tag="AOM46_RS30640" class="clusterblast-orf" id="dummy-1_h1_5_8"  />
</g>
<g id="a1_009"  >
<polygon points="133,90 135,85 133,80 133,90 " style="fill:white; stroke-width:1; stroke:black; " description="&lt;b&gt;AOM46_RS30645&lt;/b&gt;&lt;br&gt;PPOX class F420-dependent oxidoreductase&lt;br&gt;Location: 20579 - 21010" locus_tag="AOM46_RS30645" class="clusterblast-orf" id="dummy-1_h1_5_9"  />
</g>
<g id="a1_0010"  >
<polygon points="136,90 138,90 143,85 138,80 136,80 136,90 " style="fill:white; stroke-width:1; stroke:black; " description="&lt;b&gt;AOM46_RS30650&lt;/b&gt;&lt;br&gt;LacI family transcriptional regulator&lt;br&gt;Location: 21150 - 22196" locus_tag="AOM46_RS30650" class="clusterblast-orf" id="dummy-1_h1_5_10"  />
</g>
<g id="a1_0011"  >
<polygon points="143,85 148,80 148,80 148,90 148,90 143,85 " style="fill:white; stroke-width:1; stroke:black; " description="&lt;b&gt;AOM46_RS30655&lt;/b&gt;&lt;br&gt;hypothetical protein&lt;br&gt;Location: 22188 - 22901" locus_tag="AOM46_RS30655" class="clusterblast-orf" id="dummy-1_h1_5_11"  />
</g>
<g id="a1_0012"  >
<polygon points="148,85 151,80 151,90 148,85 " style="fill:white; stroke-width:1; stroke:black; " description="&lt;b&gt;AOM46_RS30660&lt;/b&gt;&lt;br&gt;hypothetical protein&lt;br&gt;Location: 23016 - 23498" locus_tag="AOM46_RS30660" class="clusterblast-orf" id="dummy-1_h1_5_12"  />
</g>
<g id="a1_0013"  >
<polygon points="152,85 155,80 155,90 152,85 " style="fill:white; stroke-width:1; stroke:black; " description="&lt;b&gt;AOM46_RS30665&lt;/b&gt;&lt;br&gt;NUDIX domain-containing protein&lt;br&gt;Location: 23551 - 24081" locus_tag="AOM46_RS30665" class="clusterblast-orf" id="dummy-1_h1_5_13"  />
</g>
<g id="a1_0014"  >
<polygon points="156,85 161,80 164,80 164,90 161,90 156,85 " style="fill:white; stroke-width:1; stroke:black; " description="&lt;b&gt;AOM46_RS32680&lt;/b&gt;&lt;br&gt;transcriptional regulator&lt;br&gt;Location: 24132 - 25466" locus_tag="AOM46_RS32680" class="clusterblast-orf" id="dummy-1_h1_5_14"  />
</g>
<g id="a1_0015"  >
<polygon points="167,90 168,85 167,80 167,90 " style="fill:white; stroke-width:1; stroke:black; " description="&lt;b&gt;AOM46_RS30670&lt;/b&gt;&lt;br&gt;hypothetical protein&lt;br&gt;Location: 25870 - 26079" locus_tag="AOM46_RS30670" class="clusterblast-orf" id="dummy-1_h1_5_15"  />
</g>
<g id="a1_0016"  >
<polygon points="168,90 170,85 168,80 168,90 " style="fill:white; stroke-width:1; stroke:black; " description="&lt;b&gt;AOM46_RS30675&lt;/b&gt;&lt;br&gt;hypothetical protein&lt;br&gt;Location: 26076 - 26447" locus_tag="AOM46_RS30675" class="clusterblast-orf" id="dummy-1_h1_5_16"  />
</g>
<g id="a1_0017"  >
<polygon points="171,90 173,85 171,80 171,90 " style="fill:white; stroke-width:1; stroke:black; " description="&lt;b&gt;AOM46_RS30680&lt;/b&gt;&lt;br&gt;NUDIX hydrolase&lt;br&gt;Location: 26499 - 26906" locus_tag="AOM46_RS30680" class="clusterblast-orf" id="dummy-1_h1_5_17"  />
</g>
<g id="a1_0018"  >
<polygon points="174,90 176,85 174,80 174,90 " style="fill:white; stroke-width:1; stroke:black; " description="&lt;b&gt;AOM46_RS30685&lt;/b&gt;&lt;br&gt;hypothetical protein&lt;br&gt;Location: 26924 - 27298" locus_tag="AOM46_RS30685" class="clusterblast-orf" id="dummy-1_h1_5_18"  />
</g>
<g id="a1_0019"  >
<polygon points="176,85 180,80 180,90 176,85 " style="fill:white; stroke-width:1; stroke:black; " description="&lt;b&gt;AOM46_RS30690&lt;/b&gt;&lt;br&gt;DinB family protein&lt;br&gt;Location: 27365 - 27931" locus_tag="AOM46_RS30690" class="clusterblast-orf" id="dummy-1_h1_5_19"  />
</g>
<g id="a1_0020"  >
<polygon points="181,90 184,85 181,80 181,90 " style="fill:white; stroke-width:1; stroke:black; " description="&lt;b&gt;AOM46_RS30695&lt;/b&gt;&lt;br&gt;hypothetical protein&lt;br&gt;Location: 28078 - 28467" locus_tag="AOM46_RS30695" class="clusterblast-orf" id="dummy-1_h1_5_20"  />
</g>
<g id="a1_0021"  >
<polygon points="186,90 188,90 193,85 188,80 186,80 186,90 " style="fill:white; stroke-width:1; stroke:black; " description="&lt;b&gt;AOM46_RS30700&lt;/b&gt;&lt;br&gt;gfo/Idh/MocA family oxidoreductase&lt;br&gt;Location: 28794 - 29915" locus_tag="AOM46_RS30700" class="clusterblast-orf" id="dummy-1_h1_5_21"  />
</g>
<g id="a1_0022"  >
<polygon points="193,90 194,90 199,85 194,80 193,80 193,90 " style="fill:white; stroke-width:1; stroke:black; " description="&lt;b&gt;AOM46_RS30705&lt;/b&gt;&lt;br&gt;oxidoreductase&lt;br&gt;Location: 29912 - 30838" locus_tag="AOM46_RS30705" class="clusterblast-orf" id="dummy-1_h1_5_22"  />
</g>
<g id="a1_0023"  >
<polygon points="199,90 199,90 204,85 199,80 199,80 199,90 " style="fill:white; stroke-width:1; stroke:black; " description="&lt;b&gt;AOM46_RS30710&lt;/b&gt;&lt;br&gt;cupin&lt;br&gt;Location: 30832 - 31575" locus_tag="AOM46_RS30710" class="clusterblast-orf" id="dummy-1_h1_5_23"  />
</g>
<g id="a1_0024"  >
<polygon points="205,90 211,90 216,85 211,80 205,80 205,90 " style="fill:white; stroke-width:1; stroke:black; " description="&lt;b&gt;AOM46_RS30715&lt;/b&gt;&lt;br&gt;MFS transporter&lt;br&gt;Location: 31741 - 33447" locus_tag="AOM46_RS30715" class="clusterblast-orf" id="dummy-1_h1_5_24"  />
</g>
<g id="a1_0025"  >
<polygon points="216,90 220,85 216,80 216,90 " style="fill:white; stroke-width:1; stroke:black; " description="&lt;b&gt;AOM46_RS30720&lt;/b&gt;&lt;br&gt;TetR family transcriptional regulator&lt;br&gt;Location: 33452 - 34108" locus_tag="AOM46_RS30720" class="clusterblast-orf" id="dummy-1_h1_5_25"  />
</g>
<g id="a1_0026"  >
<polygon points="221,85 226,80 226,80 226,90 226,90 221,85 " style="fill:white; stroke-width:1; stroke:black; " description="&lt;b&gt;AOM46_RS30725&lt;/b&gt;&lt;br&gt;thioesterase&lt;br&gt;Location: 34209 - 35003" locus_tag="AOM46_RS30725" class="clusterblast-orf" id="dummy-1_h1_5_26"  />
</g>
<g id="a1_0027"  >
<polygon points="226,85 231,80 272,80 272,90 231,90 226,85 " style="fill:white; stroke-width:1; stroke:black; " description="&lt;b&gt;AOM46_RS30730&lt;/b&gt;&lt;br&gt;KR domain-containing protein&lt;br&gt;Location: 35074 - 42219" locus_tag="AOM46_RS30730" class="clusterblast-orf" id="dummy-1_h1_5_27"  />
</g>
<g id="a1_0028"  >
<polygon points="275,85 277,80 277,90 275,85 " style="fill:white; stroke-width:1; stroke:black; " description="&lt;b&gt;AOM46_RS30735&lt;/b&gt;&lt;br&gt;ketosteroid isomerase&lt;br&gt;Location: 42533 - 42928" locus_tag="AOM46_RS30735" class="clusterblast-orf" id="dummy-1_h1_5_28"  />
</g>
<g id="a1_0029"  >
<polygon points="278,85 283,80 350,80 350,90 283,90 278,85 " style="fill:white; stroke-width:1; stroke:black; " description="&lt;b&gt;AOM46_RS30740&lt;/b&gt;&lt;br&gt;type I polyketide synthase&lt;br&gt;Location: 43145 - 54238" locus_tag="AOM46_RS30740" class="clusterblast-orf" id="dummy-1_h1_5_29"  />
</g>
<g id="a1_0030"  >
<polygon points="351,85 356,80 382,80 382,90 356,90 351,85 " style="fill:white; stroke-width:1; stroke:black; " description="&lt;b&gt;AOM46_RS30745&lt;/b&gt;&lt;br&gt;KR domain-containing protein&lt;br&gt;Location: 54289 - 59220" locus_tag="AOM46_RS30745" class="clusterblast-orf" id="dummy-1_h1_5_30"  />
</g>
<g id="a1_0031"  >
<polygon points="383,85 388,80 450,80 450,90 388,90 383,85 " style="fill:white; stroke-width:1; stroke:black; " description="&lt;b&gt;AOM46_RS30750&lt;/b&gt;&lt;br&gt;polyketide synthase&lt;br&gt;Location: 59247 - 69677" locus_tag="AOM46_RS30750" class="clusterblast-orf" id="dummy-1_h1_5_31"  />
</g>
<g id="a1_0032"  >
<polygon points="454,85 459,80 460,80 460,90 459,90 454,85 " style="fill:white; stroke-width:1; stroke:black; " description="&lt;b&gt;AOM46_RS33645&lt;/b&gt;&lt;br&gt;hypothetical protein&lt;br&gt;Location: 70335 - 71240" locus_tag="AOM46_RS33645" class="clusterblast-orf" id="dummy-1_h1_5_32"  />
</g>
<g id="a1_0033"  >
<polygon points="466,85 471,80 484,80 484,90 471,90 466,85 " style="fill:white; stroke-width:1; stroke:black; " description="&lt;b&gt;AOM46_RS33650&lt;/b&gt;&lt;br&gt;hypothetical protein&lt;br&gt;Location: 72138 - 74858" locus_tag="AOM46_RS33650" class="clusterblast-orf" id="dummy-1_h1_5_33"  />
</g>
<g id="a1_0034"  >
<polygon points="484,85 489,80 516,80 516,90 489,90 484,85 " style="fill:white; stroke-width:1; stroke:black; " description="&lt;b&gt;AOM46_RS30755&lt;/b&gt;&lt;br&gt;type I polyketide synthase&lt;br&gt;Location: 74930 - 79885" locus_tag="AOM46_RS30755" class="clusterblast-orf" id="dummy-1_h1_5_34"  />
</g>
<g id="a1_0035"  >
<polygon points="516,85 521,80 525,80 525,90 521,90 516,85 " style="fill:white; stroke-width:1; stroke:black; " description="&lt;b&gt;AOM46_RS33655&lt;/b&gt;&lt;br&gt;hypothetical protein&lt;br&gt;Location: 79913 - 81334" locus_tag="AOM46_RS33655" class="clusterblast-orf" id="dummy-1_h1_5_35"  />
</g>
<g id="a1_0036"  >
<polygon points="529,85 530,80 530,90 529,85 " style="fill:white; stroke-width:1; stroke:black; " description="&lt;b&gt;AOM46_RS33660&lt;/b&gt;&lt;br&gt;hypothetical protein&lt;br&gt;Location: 81959 - 82099" locus_tag="AOM46_RS33660" class="clusterblast-orf" id="dummy-1_h1_5_36"  />
</g>
<g id="a1_0037"  >
<polygon points="540,85 545,80 558,80 558,90 545,90 540,85 " style="fill:white; stroke-width:1; stroke:black; " description="&lt;b&gt;AOM46_RS33665&lt;/b&gt;&lt;br&gt;type I polyketide synthase&lt;br&gt;Location: 83588 - 86332" locus_tag="AOM46_RS33665" class="clusterblast-orf" id="dummy-1_h1_5_37"  />
</g>
<g id="a1_0038"  >
<polygon points="568,90 581,90 586,85 581,80 568,80 568,90 " style="fill:white; stroke-width:1; stroke:black; " description="&lt;b&gt;AOM46_RS30765&lt;/b&gt;&lt;br&gt;helix-turn-helix transcriptional regulator&lt;br&gt;Location: 87861 - 90773" locus_tag="AOM46_RS30765" class="clusterblast-orf" id="dummy-1_h1_5_38"  />
</g>
<g id="a1_0039"  >
<polygon points="588,90 590,85 588,80 588,90 " style="fill:white; stroke-width:1; stroke:black; " description="&lt;b&gt;AOM46_RS30770&lt;/b&gt;&lt;br&gt;hypothetical protein&lt;br&gt;Location: 91067 - 91282" locus_tag="AOM46_RS30770" class="clusterblast-orf" id="dummy-1_h1_5_39"  />
</g>
<g id="a1_0040"  >
<polygon points="591,90 648,90 653,85 648,80 591,80 591,90 " style="fill:#d81515; stroke-width:1; stroke:black; " description="&lt;b&gt;AOM46_RS30775&lt;/b&gt;&lt;br&gt;KR domain-containing protein&lt;br&gt;Location: 91556 - 101017&lt;br&gt;&lt;br&gt;&lt;b&gt;BlastP hit with ctg309_1&lt;/b&gt;&lt;br&gt;Percentage identity: 35&lt;br&gt;Percentage coverage: 65&lt;br&gt;BLAST bit score: 308&lt;br&gt;E-value: 3e-81" locus_tag="AOM46_RS30775" class="clusterblast-orf" id="dummy-1_h1_5_40"  />
</g>
<g id="a1_0041"  >
<polygon points="655,90 669,90 674,85 669,80 655,80 655,90 " style="fill:white; stroke-width:1; stroke:black; " description="&lt;b&gt;AOM46_RS30780&lt;/b&gt;&lt;br&gt;helix-turn-helix transcriptional regulator&lt;br&gt;Location: 101423 - 104338" locus_tag="AOM46_RS30780" class="clusterblast-orf" id="dummy-1_h1_5_41"  />
</g>
<g id="a1_0042"  >
<polygon points="676,90 690,90 695,85 690,80 676,80 676,90 " style="fill:white; stroke-width:1; stroke:black; " description="&lt;b&gt;AOM46_RS30785&lt;/b&gt;&lt;br&gt;hypothetical protein&lt;br&gt;Location: 104578 - 107562" locus_tag="AOM46_RS30785" class="clusterblast-orf" id="dummy-1_h1_5_42"  />
</g>
<g id="a1_0043"  >
<polygon points="695,90 697,90 702,85 697,80 695,80 695,90 " style="fill:#15d815; stroke-width:1; stroke:black; " description="&lt;b&gt;AOM46_RS30790&lt;/b&gt;&lt;br&gt;hypothetical protein&lt;br&gt;Location: 107604 - 108635&lt;br&gt;&lt;br&gt;&lt;b&gt;BlastP hit with ctg309_2&lt;/b&gt;&lt;br&gt;Percentage identity: 51&lt;br&gt;Percentage coverage: 39&lt;br&gt;BLAST bit score: 148&lt;br&gt;E-value: 1.2e-33" locus_tag="AOM46_RS30790" class="clusterblast-orf" id="dummy-1_h1_5_43"  />
</g>
<g id="a1_0044"  >
<polygon points="702,90 705,90 710,85 705,80 702,80 702,90 " style="fill:#1515d8; stroke-width:1; stroke:black; " description="&lt;b&gt;AOM46_RS30795&lt;/b&gt;&lt;br&gt;cobalt ABC transporter permease&lt;br&gt;Location: 108635 - 109819&lt;br&gt;&lt;br&gt;&lt;b&gt;BlastP hit with ctg309_3&lt;/b&gt;&lt;br&gt;Percentage identity: 60&lt;br&gt;Percentage coverage: 98&lt;br&gt;BLAST bit score: 384&lt;br&gt;E-value: 1.2e-104" locus_tag="AOM46_RS30795" class="clusterblast-orf" id="dummy-1_h1_5_44"  />
</g>
<g id="a1_0045"  >
<polygon points="710,90 715,90 720,85 715,80 710,80 710,90 " style="fill:white; stroke-width:1; stroke:black; " description="&lt;b&gt;AOM46_RS30800&lt;/b&gt;&lt;br&gt;cobalt ABC transporter ATP-binding protein&lt;br&gt;Location: 109820 - 111433" locus_tag="AOM46_RS30800" class="clusterblast-orf" id="dummy-1_h1_5_45"  />
</g>
<g id="a1_0046"  >
<polygon points="720,90 721,90 726,85 721,80 720,80 720,90 " style="fill:white; stroke-width:1; stroke:black; " description="&lt;b&gt;AOM46_RS30805&lt;/b&gt;&lt;br&gt;ECF transporter S component&lt;br&gt;Location: 111430 - 112329" locus_tag="AOM46_RS30805" class="clusterblast-orf" id="dummy-1_h1_5_46"  />
</g>
<g id="a1_0047"  >
<polygon points="726,90 726,90 731,85 726,80 726,80 726,90 " style="fill:white; stroke-width:1; stroke:black; " description="&lt;b&gt;AOM46_RS30810&lt;/b&gt;&lt;br&gt;4-phosphopantetheinyl transferase&lt;br&gt;Location: 112359 - 113102" locus_tag="AOM46_RS30810" class="clusterblast-orf" id="dummy-1_h1_5_47"  />
</g>
<g id="a1_0048"  >
<polygon points="730,85 735,80 736,80 736,90 735,90 730,85 " style="fill:white; stroke-width:1; stroke:black; " description="&lt;b&gt;AOM46_RS30815&lt;/b&gt;&lt;br&gt;oxidoreductase&lt;br&gt;Location: 113053 - 113982" locus_tag="AOM46_RS30815" class="clusterblast-orf" id="dummy-1_h1_5_48"  />
</g>
<g id="a1_0049"  >
<polygon points="737,85 742,80 743,80 743,90 742,90 737,85 " style="fill:white; stroke-width:1; stroke:black; " description="&lt;b&gt;AOM46_RS30820&lt;/b&gt;&lt;br&gt;NAD-binding protein&lt;br&gt;Location: 114016 - 115041" locus_tag="AOM46_RS30820" class="clusterblast-orf" id="dummy-1_h1_5_49"  />
</g>
<g id="a1_0050"  >
<polygon points="743,85 748,80 752,80 752,90 748,90 743,85 " style="fill:white; stroke-width:1; stroke:black; " description="&lt;b&gt;AOM46_RS30825&lt;/b&gt;&lt;br&gt;FAD-dependent oxidoreductase&lt;br&gt;Location: 115038 - 116360" locus_tag="AOM46_RS30825" class="clusterblast-orf" id="dummy-1_h1_5_50"  />
</g>
<g id="a1_0051"  >
<polygon points="752,85 757,80 758,80 758,90 757,90 752,85 " style="fill:white; stroke-width:1; stroke:black; " description="&lt;b&gt;AOM46_RS30830&lt;/b&gt;&lt;br&gt;class I SAM-dependent methyltransferase&lt;br&gt;Location: 116441 - 117304" locus_tag="AOM46_RS30830" class="clusterblast-orf" id="dummy-1_h1_5_51"  />
</g>
<g id="a1_0052"  >
<polygon points="758,85 760,80 760,90 758,85 " style="fill:white; stroke-width:1; stroke:black; " description="&lt;b&gt;AOM46_RS30835&lt;/b&gt;&lt;br&gt;acyl carrier protein&lt;br&gt;Location: 117301 - 117552" locus_tag="AOM46_RS30835" class="clusterblast-orf" id="dummy-1_h1_5_52"  />
</g>
<g id="a1_0053"  >
<polygon points="763,90 763,90 768,85 763,80 763,80 763,90 " style="fill:white; stroke-width:1; stroke:black; " description="&lt;b&gt;AOM46_RS30840&lt;/b&gt;&lt;br&gt;alpha/beta hydrolase&lt;br&gt;Location: 118025 - 118876" locus_tag="AOM46_RS30840" class="clusterblast-orf" id="dummy-1_h1_5_53"  />
</g>
<g id="a1_0054"  >
<polygon points="769,90 775,90 780,85 775,80 769,80 769,90 " style="fill:white; stroke-width:1; stroke:black; " description="&lt;b&gt;AOM46_RS30845&lt;/b&gt;&lt;br&gt;hypothetical protein&lt;br&gt;Location: 118976 - 120634" locus_tag="AOM46_RS30845" class="clusterblast-orf" id="dummy-1_h1_5_54"  />
</g>
</svg>
