<svg xmlns="http://www.w3.org/2000/svg" xmlns:xlink="http://www.w3.org/1999/xlink" version="1.1" x="0" y="0" height="230" width="800" viewBox="0 0 800 230" preserveAspectRatio="none"  >
<g label="Query sequence" class="clusterblast-cluster"  >
<text x="5" y="20" class="clusterblast-acc"  >
Query sequence</text>
<line x1="10" y1="35" x2="778.0" y2="35" style="stroke-width:1; stroke:grey; "  />
<polygon points="371,40 374,35 371,30 371,40 " style="fill:#d81515; stroke-width:1; stroke:black; " description="&lt;b&gt;ctg164_1&lt;/b&gt;&lt;br&gt;ctg164 1&lt;br&gt;Location: 2 - 809" locus_tag="ctg164_1" class="clusterblast-orf" id="dummy-1_q0_0_all"  />
<polygon points="374,40 375,35 374,30 374,40 " style="fill:#15d815; stroke-width:1; stroke:black; " description="&lt;b&gt;ctg164_2&lt;/b&gt;&lt;br&gt;ctg164 2&lt;br&gt;Location: 932 - 1295" locus_tag="ctg164_2" class="clusterblast-orf" id="dummy-1_q1_0_all"  />
<polygon points="375,40 379,40 384,35 379,30 375,30 375,40 " style="fill:#1515d8; stroke-width:1; stroke:black; " description="&lt;b&gt;ctg164_3&lt;/b&gt;&lt;br&gt;ctg164 3&lt;br&gt;Location: 1291 - 3955" locus_tag="ctg164_3" class="clusterblast-orf" id="dummy-1_q2_0_all"  />
<polygon points="384,35 389,30 391,30 391,40 389,40 384,35 " style="fill:#d815d8; stroke-width:1; stroke:black; " description="&lt;b&gt;ctg164_4&lt;/b&gt;&lt;br&gt;ctg164 4&lt;br&gt;Location: 3942 - 6132" locus_tag="ctg164_4" class="clusterblast-orf" id="dummy-1_q3_0_all"  />
<polygon points="391,35 395,30 395,40 391,35 " style="fill:#d8d815; stroke-width:1; stroke:black; " description="&lt;b&gt;ctg164_5&lt;/b&gt;&lt;br&gt;ctg164 5&lt;br&gt;Location: 6252 - 7506" locus_tag="ctg164_5" class="clusterblast-orf" id="dummy-1_q4_0_all"  />
<polygon points="395,35 400,30 408,30 408,40 400,40 395,35 " style="fill:#15d8d8; stroke-width:1; stroke:black; " description="&lt;b&gt;ctg164_6&lt;/b&gt;&lt;br&gt;ctg164 6&lt;br&gt;Location: 7584 - 11436" locus_tag="ctg164_6" class="clusterblast-orf" id="dummy-1_q5_0_all"  />
</g>
<g label="NZ_CP016174" description="NZ_CP016174_c14: Amycolatopsis orientalis strain B-37, complete genome (4% of genes show similarity), t1pks-nrps" class="clusterblast-cluster"  >
<text x="5" y="70" class="clusterblast-acc"  >
<a xlink:href="https://antismash-db.secondarymetabolites.org/go/NZ_CP016174/14" target="_blank">NZ_CP016174_c14</a>: Amycolatopsis orientalis strain B-37, complete genome (4% of genes show similarity), t1pks-nrps</text>
<line x1="10" y1="85" x2="778.0" y2="85" style="stroke-width:1; stroke:grey; "  />
</g>
<g id="a1_000"  >
<polygon points="0,90 2,85 0,80 0,90 " style="fill:white; stroke-width:1; stroke:black; " description="&lt;b&gt;SD37_RS17210&lt;/b&gt;&lt;br&gt;oxidoreductase&lt;br&gt;Location: 3929323 - 3928478" locus_tag="SD37_RS17210" class="clusterblast-orf" id="dummy-1_h1_6_0"  />
</g>
<g id="a1_001"  >
<polygon points="2,85 5,80 5,90 2,85 " style="fill:white; stroke-width:1; stroke:black; " description="&lt;b&gt;SD37_RS17205&lt;/b&gt;&lt;br&gt;LysR family transcriptional regulator&lt;br&gt;Location: 3928476 - 3927580" locus_tag="SD37_RS17205" class="clusterblast-orf" id="dummy-1_h1_6_1"  />
</g>
<g id="a1_002"  >
<polygon points="6,90 6,85 6,80 6,90 " style="fill:white; stroke-width:1; stroke:black; " description="&lt;b&gt;SD37_RS17200&lt;/b&gt;&lt;br&gt;trypsin&lt;br&gt;Location: 3927438 - 3927184" locus_tag="SD37_RS17200" class="clusterblast-orf" id="dummy-1_h1_6_2"  />
</g>
<g id="a1_003"  >
<polygon points="8,85 9,80 9,90 8,85 " style="fill:white; stroke-width:1; stroke:black; " description="&lt;b&gt;SD37_RS17195&lt;/b&gt;&lt;br&gt;transcriptional regulator&lt;br&gt;Location: 3926767 - 3926384" locus_tag="SD37_RS17195" class="clusterblast-orf" id="dummy-1_h1_6_3"  />
</g>
<g id="a1_004"  >
<polygon points="9,90 12,85 9,80 9,90 " style="fill:white; stroke-width:1; stroke:black; " description="&lt;b&gt;SD37_RS17190&lt;/b&gt;&lt;br&gt;short-chain dehydrogenase&lt;br&gt;Location: 3926336 - 3925557" locus_tag="SD37_RS17190" class="clusterblast-orf" id="dummy-1_h1_6_4"  />
</g>
<g id="a1_005"  >
<polygon points="13,90 15,85 13,80 13,90 " style="fill:white; stroke-width:1; stroke:black; " description="&lt;b&gt;SD37_RS17185&lt;/b&gt;&lt;br&gt;carbonic anhydrase&lt;br&gt;Location: 3925128 - 3924493" locus_tag="SD37_RS17185" class="clusterblast-orf" id="dummy-1_h1_6_5"  />
</g>
<g id="a1_006"  >
<polygon points="15,85 17,80 17,90 15,85 " style="fill:white; stroke-width:1; stroke:black; " description="&lt;b&gt;SD37_RS17180&lt;/b&gt;&lt;br&gt;alkaline shock response membrane anchor protein AmaP&lt;br&gt;Location: 3924480 - 3923908" locus_tag="SD37_RS17180" class="clusterblast-orf" id="dummy-1_h1_6_6"  />
</g>
<g id="a1_007"  >
<polygon points="17,85 18,80 18,90 17,85 " style="fill:white; stroke-width:1; stroke:black; " description="&lt;b&gt;SD37_RS17175&lt;/b&gt;&lt;br&gt;hypothetical protein&lt;br&gt;Location: 3923911 - 3923384" locus_tag="SD37_RS17175" class="clusterblast-orf" id="dummy-1_h1_6_7"  />
</g>
<g id="a1_008"  >
<polygon points="18,85 20,80 20,90 18,85 " style="fill:white; stroke-width:1; stroke:black; " description="&lt;b&gt;SD37_RS17170&lt;/b&gt;&lt;br&gt;Asp23/Gls24 family envelope stress response protein&lt;br&gt;Location: 3923387 - 3922983" locus_tag="SD37_RS17170" class="clusterblast-orf" id="dummy-1_h1_6_8"  />
</g>
<g id="a1_009"  >
<polygon points="20,85 21,80 21,90 20,85 " style="fill:white; stroke-width:1; stroke:black; " description="&lt;b&gt;SD37_RS17165&lt;/b&gt;&lt;br&gt;hypothetical protein&lt;br&gt;Location: 3922805 - 3922509" locus_tag="SD37_RS17165" class="clusterblast-orf" id="dummy-1_h1_6_9"  />
</g>
<g id="a1_0010"  >
<polygon points="21,85 23,80 23,90 21,85 " style="fill:white; stroke-width:1; stroke:black; " description="&lt;b&gt;SD37_RS17160&lt;/b&gt;&lt;br&gt;Asp23/Gls24 family envelope stress response protein&lt;br&gt;Location: 3922512 - 3922042" locus_tag="SD37_RS17160" class="clusterblast-orf" id="dummy-1_h1_6_10"  />
</g>
<g id="a1_0011"  >
<polygon points="23,85 24,80 24,90 23,85 " style="fill:white; stroke-width:1; stroke:black; " description="&lt;b&gt;SD37_RS17155&lt;/b&gt;&lt;br&gt;hypothetical protein&lt;br&gt;Location: 3921899 - 3921564" locus_tag="SD37_RS17155" class="clusterblast-orf" id="dummy-1_h1_6_11"  />
</g>
<g id="a1_0012"  >
<polygon points="25,90 27,85 25,80 25,90 " style="fill:white; stroke-width:1; stroke:black; " description="&lt;b&gt;SD37_RS17150&lt;/b&gt;&lt;br&gt;hypothetical protein&lt;br&gt;Location: 3921247 - 3920855" locus_tag="SD37_RS17150" class="clusterblast-orf" id="dummy-1_h1_6_12"  />
</g>
<g id="a1_0013"  >
<polygon points="27,85 29,80 29,90 27,85 " style="fill:white; stroke-width:1; stroke:black; " description="&lt;b&gt;SD37_RS17145&lt;/b&gt;&lt;br&gt;glycoside hydrolase&lt;br&gt;Location: 3920852 - 3920034" locus_tag="SD37_RS17145" class="clusterblast-orf" id="dummy-1_h1_6_13"  />
</g>
<g id="a1_0014"  >
<polygon points="30,85 35,80 35,80 35,90 35,90 30,85 " style="fill:white; stroke-width:1; stroke:black; " description="&lt;b&gt;SD37_RS17140&lt;/b&gt;&lt;br&gt;peptide ABC transporter substrate-binding protein&lt;br&gt;Location: 3919735 - 3918137" locus_tag="SD37_RS17140" class="clusterblast-orf" id="dummy-1_h1_6_14"  />
</g>
<g id="a1_0015"  >
<polygon points="35,85 38,80 38,90 35,85 " style="fill:white; stroke-width:1; stroke:black; " description="&lt;b&gt;SD37_RS17135&lt;/b&gt;&lt;br&gt;serine hydrolase&lt;br&gt;Location: 3918126 - 3917224" locus_tag="SD37_RS17135" class="clusterblast-orf" id="dummy-1_h1_6_15"  />
</g>
<g id="a1_0016"  >
<polygon points="38,85 43,80 43,80 43,90 43,90 38,85 " style="fill:white; stroke-width:1; stroke:black; " description="&lt;b&gt;SD37_RS17130&lt;/b&gt;&lt;br&gt;serine hydrolase&lt;br&gt;Location: 3917227 - 3915839" locus_tag="SD37_RS17130" class="clusterblast-orf" id="dummy-1_h1_6_16"  />
</g>
<g id="a1_0017"  >
<polygon points="43,85 48,80 48,80 48,90 48,90 43,85 " style="fill:white; stroke-width:1; stroke:black; " description="&lt;b&gt;SD37_RS17125&lt;/b&gt;&lt;br&gt;PucR family transcriptional regulator&lt;br&gt;Location: 3915717 - 3914071" locus_tag="SD37_RS17125" class="clusterblast-orf" id="dummy-1_h1_6_17"  />
</g>
<g id="a1_0018"  >
<polygon points="49,85 54,80 54,80 54,90 54,90 49,85 " style="fill:white; stroke-width:1; stroke:black; " description="&lt;b&gt;SD37_RS17120&lt;/b&gt;&lt;br&gt;DUF11 domain-containing protein&lt;br&gt;Location: 3913901 - 3912363" locus_tag="SD37_RS17120" class="clusterblast-orf" id="dummy-1_h1_6_18"  />
</g>
<g id="a1_0019"  >
<polygon points="56,85 56,80 56,90 56,85 " style="fill:white; stroke-width:1; stroke:black; " description="&lt;b&gt;SD37_RS17115&lt;/b&gt;&lt;br&gt;antibiotic synthesis protein MbtH&lt;br&gt;Location: 3911708 - 3911505" locus_tag="SD37_RS17115" class="clusterblast-orf" id="dummy-1_h1_6_19"  />
</g>
<g id="a1_0020"  >
<polygon points="56,85 60,80 60,90 56,85 " style="fill:white; stroke-width:1; stroke:black; " description="&lt;b&gt;SD37_RS17110&lt;/b&gt;&lt;br&gt;MFS transporter&lt;br&gt;Location: 3911512 - 3910238" locus_tag="SD37_RS17110" class="clusterblast-orf" id="dummy-1_h1_6_20"  />
</g>
<g id="a1_0021"  >
<polygon points="60,85 65,80 109,80 109,90 65,90 60,85 " style="fill:#15d8d8; stroke-width:1; stroke:black; " description="&lt;b&gt;SD37_RS17105&lt;/b&gt;&lt;br&gt;non-ribosomal peptide synthase/polyketide synthase&lt;br&gt;Location: 3910241 - 3895167&lt;br&gt;&lt;br&gt;&lt;b&gt;BlastP hit with ctg164_6&lt;/b&gt;&lt;br&gt;Percentage identity: 33&lt;br&gt;Percentage coverage: 104&lt;br&gt;BLAST bit score: 487&lt;br&gt;E-value: 4.9e-135" locus_tag="SD37_RS17105" class="clusterblast-orf" id="dummy-1_h1_6_21"  />
</g>
<g id="a1_0022"  >
<polygon points="109,85 114,80 166,80 166,90 114,90 109,85 " style="fill:#15d8d8; stroke-width:1; stroke:black; " description="&lt;b&gt;SD37_RS17100&lt;/b&gt;&lt;br&gt;non-ribosomal peptide synthetase&lt;br&gt;Location: 3895156 - 3877103&lt;br&gt;&lt;br&gt;&lt;b&gt;BlastP hit with ctg164_6&lt;/b&gt;&lt;br&gt;Percentage identity: 37&lt;br&gt;Percentage coverage: 80&lt;br&gt;BLAST bit score: 466&lt;br&gt;E-value: 8.9e-129" locus_tag="SD37_RS17100" class="clusterblast-orf" id="dummy-1_h1_6_22"  />
</g>
<g id="a1_0023"  >
<polygon points="167,85 171,80 171,90 167,85 " style="fill:white; stroke-width:1; stroke:black; " description="&lt;b&gt;SD37_RS17095&lt;/b&gt;&lt;br&gt;hypothetical protein&lt;br&gt;Location: 3876994 - 3875747" locus_tag="SD37_RS17095" class="clusterblast-orf" id="dummy-1_h1_6_23"  />
</g>
<g id="a1_0024"  >
<polygon points="173,85 174,80 174,90 173,85 " style="fill:white; stroke-width:1; stroke:black; " description="&lt;b&gt;SD37_RS17090&lt;/b&gt;&lt;br&gt;hypothetical protein&lt;br&gt;Location: 3875118 - 3874645" locus_tag="SD37_RS17090" class="clusterblast-orf" id="dummy-1_h1_6_24"  />
</g>
<g id="a1_0025"  >
<polygon points="175,90 178,85 175,80 175,90 " style="fill:white; stroke-width:1; stroke:black; " description="&lt;b&gt;SD37_RS17085&lt;/b&gt;&lt;br&gt;VOC family protein&lt;br&gt;Location: 3874414 - 3873536" locus_tag="SD37_RS17085" class="clusterblast-orf" id="dummy-1_h1_6_25"  />
</g>
<g id="a1_0026"  >
<polygon points="178,90 182,85 178,80 178,90 " style="fill:white; stroke-width:1; stroke:black; " description="&lt;b&gt;SD37_RS17080&lt;/b&gt;&lt;br&gt;carboxylesterase/lipase family protein&lt;br&gt;Location: 3873532 - 3872300" locus_tag="SD37_RS17080" class="clusterblast-orf" id="dummy-1_h1_6_26"  />
</g>
<g id="a1_0027"  >
<polygon points="182,90 185,85 182,80 182,90 " style="fill:white; stroke-width:1; stroke:black; " description="&lt;b&gt;SD37_RS17075&lt;/b&gt;&lt;br&gt;Lrp/AsnC family transcriptional regulator&lt;br&gt;Location: 3872124 - 3871132" locus_tag="SD37_RS17075" class="clusterblast-orf" id="dummy-1_h1_6_27"  />
</g>
<g id="a1_0028"  >
<polygon points="186,90 187,85 186,80 186,90 " style="fill:white; stroke-width:1; stroke:black; " description="&lt;b&gt;SD37_RS17070&lt;/b&gt;&lt;br&gt;hypothetical protein&lt;br&gt;Location: 3870976 - 3870512" locus_tag="SD37_RS17070" class="clusterblast-orf" id="dummy-1_h1_6_28"  />
</g>
<g id="a1_0029"  >
<polygon points="187,90 189,85 187,80 187,90 " style="fill:white; stroke-width:1; stroke:black; " description="&lt;b&gt;SD37_RS17065&lt;/b&gt;&lt;br&gt;hypothetical protein&lt;br&gt;Location: 3870473 - 3870105" locus_tag="SD37_RS17065" class="clusterblast-orf" id="dummy-1_h1_6_29"  />
</g>
<g id="a1_0030"  >
<polygon points="189,90 192,85 189,80 189,90 " style="fill:white; stroke-width:1; stroke:black; " description="&lt;b&gt;SD37_RS17060&lt;/b&gt;&lt;br&gt;hypothetical protein&lt;br&gt;Location: 3870108 - 3869089" locus_tag="SD37_RS17060" class="clusterblast-orf" id="dummy-1_h1_6_30"  />
</g>
<g id="a1_0031"  >
<polygon points="192,90 196,90 201,85 196,80 192,80 192,90 " style="fill:white; stroke-width:1; stroke:black; " description="&lt;b&gt;SD37_RS17055&lt;/b&gt;&lt;br&gt;AfsR/SARP family transcriptional regulator&lt;br&gt;Location: 3869027 - 3866076" locus_tag="SD37_RS17055" class="clusterblast-orf" id="dummy-1_h1_6_31"  />
</g>
<g id="a1_0032"  >
<polygon points="202,85 203,80 203,90 202,85 " style="fill:white; stroke-width:1; stroke:black; " description="&lt;b&gt;SD37_RS17050&lt;/b&gt;&lt;br&gt;hypothetical protein&lt;br&gt;Location: 3866015 - 3865653" locus_tag="SD37_RS17050" class="clusterblast-orf" id="dummy-1_h1_6_32"  />
</g>
<g id="a1_0033"  >
<polygon points="204,90 205,85 204,80 204,90 " style="fill:white; stroke-width:1; stroke:black; " description="&lt;b&gt;SD37_RS17045&lt;/b&gt;&lt;br&gt;hypothetical protein&lt;br&gt;Location: 3865340 - 3864939" locus_tag="SD37_RS17045" class="clusterblast-orf" id="dummy-1_h1_6_33"  />
</g>
<g id="a1_0034"  >
<polygon points="207,85 212,80 212,80 212,90 212,90 207,85 " style="fill:white; stroke-width:1; stroke:black; " description="&lt;b&gt;SD37_RS17040&lt;/b&gt;&lt;br&gt;transcriptional regulator&lt;br&gt;Location: 3864383 - 3862719" locus_tag="SD37_RS17040" class="clusterblast-orf" id="dummy-1_h1_6_34"  />
</g>
<g id="a1_0035"  >
<polygon points="213,90 216,85 213,80 213,90 " style="fill:white; stroke-width:1; stroke:black; " description="&lt;b&gt;SD37_RS17035&lt;/b&gt;&lt;br&gt;hypothetical protein&lt;br&gt;Location: 3862432 - 3861533" locus_tag="SD37_RS17035" class="clusterblast-orf" id="dummy-1_h1_6_35"  />
</g>
<g id="a1_0036"  >
<polygon points="216,90 216,90 221,85 216,80 216,80 216,90 " style="fill:white; stroke-width:1; stroke:black; " description="&lt;b&gt;SD37_RS42005&lt;/b&gt;&lt;br&gt;hypothetical protein&lt;br&gt;Location: 3861387 - 3860092" locus_tag="SD37_RS42005" class="clusterblast-orf" id="dummy-1_h1_6_36"  />
</g>
<g id="a1_0037"  >
<polygon points="221,85 224,80 224,90 221,85 " style="fill:white; stroke-width:1; stroke:black; " description="&lt;b&gt;SD37_RS17025&lt;/b&gt;&lt;br&gt;LysR family transcriptional regulator&lt;br&gt;Location: 3860036 - 3859173" locus_tag="SD37_RS17025" class="clusterblast-orf" id="dummy-1_h1_6_37"  />
</g>
<g id="a1_0038"  >
<polygon points="224,90 226,85 224,80 224,90 " style="fill:white; stroke-width:1; stroke:black; " description="&lt;b&gt;SD37_RS17020&lt;/b&gt;&lt;br&gt;dehydrogenase&lt;br&gt;Location: 3859079 - 3858342" locus_tag="SD37_RS17020" class="clusterblast-orf" id="dummy-1_h1_6_38"  />
</g>
<g id="a1_0039"  >
<polygon points="226,90 229,85 226,80 226,90 " style="fill:white; stroke-width:1; stroke:black; " description="&lt;b&gt;SD37_RS17015&lt;/b&gt;&lt;br&gt;CoA transferase subunit B&lt;br&gt;Location: 3858269 - 3857601" locus_tag="SD37_RS17015" class="clusterblast-orf" id="dummy-1_h1_6_39"  />
</g>
<g id="a1_0040"  >
<polygon points="229,85 232,80 232,90 229,85 " style="fill:white; stroke-width:1; stroke:black; " description="&lt;b&gt;SD37_RS17010&lt;/b&gt;&lt;br&gt;TauD/TfdA family dioxygenase&lt;br&gt;Location: 3857500 - 3856556" locus_tag="SD37_RS17010" class="clusterblast-orf" id="dummy-1_h1_6_40"  />
</g>
<g id="a1_0041"  >
<polygon points="232,85 236,80 236,90 232,85 " style="fill:white; stroke-width:1; stroke:black; " description="&lt;b&gt;SD37_RS17005&lt;/b&gt;&lt;br&gt;ATP-grasp domain-containing protein&lt;br&gt;Location: 3856559 - 3855282" locus_tag="SD37_RS17005" class="clusterblast-orf" id="dummy-1_h1_6_41"  />
</g>
<g id="a1_0042"  >
<polygon points="236,85 240,80 240,90 236,85 " style="fill:white; stroke-width:1; stroke:black; " description="&lt;b&gt;SD37_RS17000&lt;/b&gt;&lt;br&gt;ATP-grasp domain-containing protein&lt;br&gt;Location: 3855285 - 3854014" locus_tag="SD37_RS17000" class="clusterblast-orf" id="dummy-1_h1_6_42"  />
</g>
<g id="a1_0043"  >
<polygon points="240,85 245,80 257,80 257,90 245,90 240,85 " style="fill:#15d8d8; stroke-width:1; stroke:black; " description="&lt;b&gt;SD37_RS16995&lt;/b&gt;&lt;br&gt;MFS transporter&lt;br&gt;Location: 3854017 - 3848585&lt;br&gt;&lt;br&gt;&lt;b&gt;BlastP hit with ctg164_6&lt;/b&gt;&lt;br&gt;Percentage identity: 38&lt;br&gt;Percentage coverage: 68&lt;br&gt;BLAST bit score: 434&lt;br&gt;E-value: 3.8e-119" locus_tag="SD37_RS16995" class="clusterblast-orf" id="dummy-1_h1_6_43"  />
</g>
<g id="a1_0044"  >
<polygon points="257,85 262,80 267,80 267,90 262,90 257,85 " style="fill:white; stroke-width:1; stroke:black; " description="&lt;b&gt;SD37_RS16990&lt;/b&gt;&lt;br&gt;non-ribosomal peptide synthetase&lt;br&gt;Location: 3848588 - 3845550" locus_tag="SD37_RS16990" class="clusterblast-orf" id="dummy-1_h1_6_44"  />
</g>
<g id="a1_0045"  >
<polygon points="267,85 272,80 284,80 284,90 272,90 267,85 " style="fill:white; stroke-width:1; stroke:black; " description="&lt;b&gt;SD37_RS16985&lt;/b&gt;&lt;br&gt;type I polyketide synthase&lt;br&gt;Location: 3845451 - 3840139" locus_tag="SD37_RS16985" class="clusterblast-orf" id="dummy-1_h1_6_45"  />
</g>
<g id="a1_0046"  >
<polygon points="284,85 289,80 295,80 295,90 289,90 284,85 " style="fill:#15d8d8; stroke-width:1; stroke:black; " description="&lt;b&gt;SD37_RS16980&lt;/b&gt;&lt;br&gt;non-ribosomal peptide synthetase&lt;br&gt;Location: 3840128 - 3836673&lt;br&gt;&lt;br&gt;&lt;b&gt;BlastP hit with ctg164_6&lt;/b&gt;&lt;br&gt;Percentage identity: 36&lt;br&gt;Percentage coverage: 83&lt;br&gt;BLAST bit score: 433&lt;br&gt;E-value: 8.4e-119" locus_tag="SD37_RS16980" class="clusterblast-orf" id="dummy-1_h1_6_46"  />
</g>
<g id="a1_0047"  >
<polygon points="295,85 300,80 306,80 306,90 300,90 295,85 " style="fill:white; stroke-width:1; stroke:black; " description="&lt;b&gt;SD37_RS16975&lt;/b&gt;&lt;br&gt;amino acid adenylation protein&lt;br&gt;Location: 3836676 - 3833248" locus_tag="SD37_RS16975" class="clusterblast-orf" id="dummy-1_h1_6_47"  />
</g>
<g id="a1_0048"  >
<polygon points="308,85 313,80 313,80 313,90 313,90 308,85 " style="fill:white; stroke-width:1; stroke:black; " description="&lt;b&gt;SD37_RS16970&lt;/b&gt;&lt;br&gt;hypothetical protein&lt;br&gt;Location: 3832753 - 3831281" locus_tag="SD37_RS16970" class="clusterblast-orf" id="dummy-1_h1_6_48"  />
</g>
<g id="a1_0049"  >
<polygon points="313,90 316,85 313,80 313,90 " style="fill:white; stroke-width:1; stroke:black; " description="&lt;b&gt;SD37_RS16965&lt;/b&gt;&lt;br&gt;hypothetical protein&lt;br&gt;Location: 3831094 - 3830117" locus_tag="SD37_RS16965" class="clusterblast-orf" id="dummy-1_h1_6_49"  />
</g>
<g id="a1_0050"  >
<polygon points="317,90 317,90 322,85 317,80 317,80 317,90 " style="fill:white; stroke-width:1; stroke:black; " description="&lt;b&gt;SD37_RS16960&lt;/b&gt;&lt;br&gt;alpha/beta hydrolase&lt;br&gt;Location: 3829993 - 3828434" locus_tag="SD37_RS16960" class="clusterblast-orf" id="dummy-1_h1_6_50"  />
</g>
<g id="a1_0051"  >
<polygon points="322,85 327,80 330,80 330,90 327,90 322,85 " style="fill:white; stroke-width:1; stroke:black; " description="&lt;b&gt;SD37_RS16955&lt;/b&gt;&lt;br&gt;beta-mannosidase&lt;br&gt;Location: 3828255 - 3825970" locus_tag="SD37_RS16955" class="clusterblast-orf" id="dummy-1_h1_6_51"  />
</g>
<g id="a1_0052"  >
<polygon points="330,85 332,80 332,90 330,85 " style="fill:white; stroke-width:1; stroke:black; " description="&lt;b&gt;SD37_RS16950&lt;/b&gt;&lt;br&gt;hypothetical protein&lt;br&gt;Location: 3825771 - 3825289" locus_tag="SD37_RS16950" class="clusterblast-orf" id="dummy-1_h1_6_52"  />
</g>
<g id="a1_0053"  >
<polygon points="333,90 333,85 333,80 333,90 " style="fill:white; stroke-width:1; stroke:black; " description="&lt;b&gt;SD37_RS16945&lt;/b&gt;&lt;br&gt;hypothetical protein&lt;br&gt;Location: 3825038 - 3824808" locus_tag="SD37_RS16945" class="clusterblast-orf" id="dummy-1_h1_6_53"  />
</g>
<g id="a1_0054"  >
<polygon points="333,90 336,85 333,80 333,90 " style="fill:white; stroke-width:1; stroke:black; " description="&lt;b&gt;SD37_RS16940&lt;/b&gt;&lt;br&gt;class I SAM-dependent methyltransferase&lt;br&gt;Location: 3824726 - 3823929" locus_tag="SD37_RS16940" class="clusterblast-orf" id="dummy-1_h1_6_54"  />
</g>
<g id="a1_0055"  >
<polygon points="336,85 340,80 340,90 336,85 " style="fill:white; stroke-width:1; stroke:black; " description="&lt;b&gt;SD37_RS16935&lt;/b&gt;&lt;br&gt;aspartate aminotransferase family protein&lt;br&gt;Location: 3823922 - 3822552" locus_tag="SD37_RS16935" class="clusterblast-orf" id="dummy-1_h1_6_55"  />
</g>
<g id="a1_0056"  >
<polygon points="340,85 345,80 353,80 353,90 345,90 340,85 " style="fill:white; stroke-width:1; stroke:black; " description="&lt;b&gt;SD37_RS16930&lt;/b&gt;&lt;br&gt;peptide synthetase&lt;br&gt;Location: 3822555 - 3818491" locus_tag="SD37_RS16930" class="clusterblast-orf" id="dummy-1_h1_6_56"  />
</g>
<g id="a1_0057"  >
<polygon points="353,85 357,80 357,90 353,85 " style="fill:white; stroke-width:1; stroke:black; " description="&lt;b&gt;SD37_RS16925&lt;/b&gt;&lt;br&gt;aspartate kinase&lt;br&gt;Location: 3818494 - 3817226" locus_tag="SD37_RS16925" class="clusterblast-orf" id="dummy-1_h1_6_57"  />
</g>
<g id="a1_0058"  >
<polygon points="359,85 361,80 361,90 359,85 " style="fill:white; stroke-width:1; stroke:black; " description="&lt;b&gt;SD37_RS16920&lt;/b&gt;&lt;br&gt;DinB family protein&lt;br&gt;Location: 3816709 - 3816107" locus_tag="SD37_RS16920" class="clusterblast-orf" id="dummy-1_h1_6_58"  />
</g>
<g id="a1_0059"  >
<polygon points="362,90 364,85 362,80 362,90 " style="fill:white; stroke-width:1; stroke:black; " description="&lt;b&gt;SD37_RS16915&lt;/b&gt;&lt;br&gt;hypothetical protein&lt;br&gt;Location: 3815841 - 3815053" locus_tag="SD37_RS16915" class="clusterblast-orf" id="dummy-1_h1_6_59"  />
</g>
<g id="a1_0060"  >
<polygon points="366,85 371,80 375,80 375,90 371,90 366,85 " style="fill:#1515d8; stroke-width:1; stroke:black; " description="&lt;b&gt;SD37_RS16910&lt;/b&gt;&lt;br&gt;hypothetical protein&lt;br&gt;Location: 3814483 - 3811787&lt;br&gt;&lt;br&gt;&lt;b&gt;BlastP hit with ctg164_3&lt;/b&gt;&lt;br&gt;Percentage identity: 31&lt;br&gt;Percentage coverage: 53&lt;br&gt;BLAST bit score: 130&lt;br&gt;E-value: 1e-27" locus_tag="SD37_RS16910" class="clusterblast-orf" id="dummy-1_h1_6_60"  />
</g>
<g id="a1_0061"  >
<polygon points="375,85 376,80 376,90 375,85 " style="fill:white; stroke-width:1; stroke:black; " description="&lt;b&gt;SD37_RS16905&lt;/b&gt;&lt;br&gt;hypothetical protein&lt;br&gt;Location: 3811670 - 3811266" locus_tag="SD37_RS16905" class="clusterblast-orf" id="dummy-1_h1_6_61"  />
</g>
<g id="a1_0062"  >
<polygon points="377,85 378,80 378,90 377,85 " style="fill:white; stroke-width:1; stroke:black; " description="&lt;b&gt;SD37_RS16900&lt;/b&gt;&lt;br&gt;hypothetical protein&lt;br&gt;Location: 3811171 - 3810818" locus_tag="SD37_RS16900" class="clusterblast-orf" id="dummy-1_h1_6_62"  />
</g>
<g id="a1_0063"  >
<polygon points="378,90 380,85 378,80 378,90 " style="fill:white; stroke-width:1; stroke:black; " description="&lt;b&gt;SD37_RS16895&lt;/b&gt;&lt;br&gt;glyoxalase/bleomycin resistance/extradiol dioxygenase family protein&lt;br&gt;Location: 3810681 - 3810319" locus_tag="SD37_RS16895" class="clusterblast-orf" id="dummy-1_h1_6_63"  />
</g>
<g id="a1_0064"  >
<polygon points="380,85 382,80 382,90 380,85 " style="fill:white; stroke-width:1; stroke:black; " description="&lt;b&gt;SD37_RS16890&lt;/b&gt;&lt;br&gt;class I SAM-dependent methyltransferase&lt;br&gt;Location: 3810312 - 3809482" locus_tag="SD37_RS16890" class="clusterblast-orf" id="dummy-1_h1_6_64"  />
</g>
<g id="a1_0065"  >
<polygon points="382,85 383,80 383,90 382,85 " style="fill:white; stroke-width:1; stroke:black; " description="&lt;b&gt;SD37_RS16885&lt;/b&gt;&lt;br&gt;hypothetical protein&lt;br&gt;Location: 3809431 - 3809177" locus_tag="SD37_RS16885" class="clusterblast-orf" id="dummy-1_h1_6_65"  />
</g>
<g id="a1_0066"  >
<polygon points="383,85 388,80 388,80 388,90 388,90 383,85 " style="fill:white; stroke-width:1; stroke:black; " description="&lt;b&gt;SD37_RS16880&lt;/b&gt;&lt;br&gt;MFS transporter&lt;br&gt;Location: 3809171 - 3807654" locus_tag="SD37_RS16880" class="clusterblast-orf" id="dummy-1_h1_6_66"  />
</g>
<g id="a1_0067"  >
<polygon points="388,85 391,80 391,90 388,85 " style="fill:white; stroke-width:1; stroke:black; " description="&lt;b&gt;SD37_RS16875&lt;/b&gt;&lt;br&gt;hypothetical protein&lt;br&gt;Location: 3807664 - 3806822" locus_tag="SD37_RS16875" class="clusterblast-orf" id="dummy-1_h1_6_67"  />
</g>
<g id="a1_0068"  >
<polygon points="391,85 396,80 396,80 396,90 396,90 391,85 " style="fill:white; stroke-width:1; stroke:black; " description="&lt;b&gt;SD37_RS16870&lt;/b&gt;&lt;br&gt;radical SAM protein&lt;br&gt;Location: 3806828 - 3805017" locus_tag="SD37_RS16870" class="clusterblast-orf" id="dummy-1_h1_6_68"  />
</g>
<g id="a1_0069"  >
<polygon points="396,85 401,80 401,80 401,90 401,90 396,85 " style="fill:white; stroke-width:1; stroke:black; " description="&lt;b&gt;SD37_RS16865&lt;/b&gt;&lt;br&gt;hypothetical protein&lt;br&gt;Location: 3805024 - 3803663" locus_tag="SD37_RS16865" class="clusterblast-orf" id="dummy-1_h1_6_69"  />
</g>
<g id="a1_0070"  >
<polygon points="401,85 405,80 405,90 401,85 " style="fill:white; stroke-width:1; stroke:black; " description="&lt;b&gt;SD37_RS16860&lt;/b&gt;&lt;br&gt;hypothetical protein&lt;br&gt;Location: 3803666 - 3802428" locus_tag="SD37_RS16860" class="clusterblast-orf" id="dummy-1_h1_6_70"  />
</g>
<g id="a1_0071"  >
<polygon points="405,85 407,80 407,90 405,85 " style="fill:white; stroke-width:1; stroke:black; " description="&lt;b&gt;SD37_RS16855&lt;/b&gt;&lt;br&gt;sulfate adenylyltransferase subunit CysD&lt;br&gt;Location: 3802420 - 3801614" locus_tag="SD37_RS16855" class="clusterblast-orf" id="dummy-1_h1_6_71"  />
</g>
<g id="a1_0072"  >
<polygon points="407,85 409,80 409,90 407,85 " style="fill:white; stroke-width:1; stroke:black; " description="&lt;b&gt;SD37_RS16850&lt;/b&gt;&lt;br&gt;hypothetical protein&lt;br&gt;Location: 3801633 - 3800956" locus_tag="SD37_RS16850" class="clusterblast-orf" id="dummy-1_h1_6_72"  />
</g>
<g id="a1_0073"  >
<polygon points="409,85 414,80 414,80 414,90 414,90 409,85 " style="fill:white; stroke-width:1; stroke:black; " description="&lt;b&gt;SD37_RS16845&lt;/b&gt;&lt;br&gt;hypothetical protein&lt;br&gt;Location: 3800959 - 3799616" locus_tag="SD37_RS16845" class="clusterblast-orf" id="dummy-1_h1_6_73"  />
</g>
<g id="a1_0074"  >
<polygon points="414,85 419,80 421,80 421,90 419,90 414,85 " style="fill:white; stroke-width:1; stroke:black; " description="&lt;b&gt;SD37_RS16840&lt;/b&gt;&lt;br&gt;hypothetical protein&lt;br&gt;Location: 3799616 - 3797280" locus_tag="SD37_RS16840" class="clusterblast-orf" id="dummy-1_h1_6_74"  />
</g>
<g id="a1_0075"  >
<polygon points="421,85 422,80 422,90 421,85 " style="fill:white; stroke-width:1; stroke:black; " description="&lt;b&gt;SD37_RS16835&lt;/b&gt;&lt;br&gt;acyl carrier protein&lt;br&gt;Location: 3797283 - 3797026" locus_tag="SD37_RS16835" class="clusterblast-orf" id="dummy-1_h1_6_75"  />
</g>
<g id="a1_0076"  >
<polygon points="422,85 427,80 427,80 427,90 427,90 422,85 " style="fill:white; stroke-width:1; stroke:black; " description="&lt;b&gt;SD37_RS16830&lt;/b&gt;&lt;br&gt;hypothetical protein&lt;br&gt;Location: 3797012 - 3795480" locus_tag="SD37_RS16830" class="clusterblast-orf" id="dummy-1_h1_6_76"  />
</g>
<g id="a1_0077"  >
<polygon points="427,90 429,85 427,80 427,90 " style="fill:white; stroke-width:1; stroke:black; " description="&lt;b&gt;SD37_RS16825&lt;/b&gt;&lt;br&gt;hypothetical protein&lt;br&gt;Location: 3795390 - 3794671" locus_tag="SD37_RS16825" class="clusterblast-orf" id="dummy-1_h1_6_77"  />
</g>
<g id="a1_0078"  >
<polygon points="430,90 431,85 430,80 430,90 " style="fill:white; stroke-width:1; stroke:black; " description="&lt;b&gt;SD37_RS16820&lt;/b&gt;&lt;br&gt;3-dehydroquinate dehydratase&lt;br&gt;Location: 3794660 - 3794220" locus_tag="SD37_RS16820" class="clusterblast-orf" id="dummy-1_h1_6_78"  />
</g>
<g id="a1_0079"  >
<polygon points="431,90 433,85 431,80 431,90 " style="fill:white; stroke-width:1; stroke:black; " description="&lt;b&gt;SD37_RS16815&lt;/b&gt;&lt;br&gt;PIG-L family deacetylase&lt;br&gt;Location: 3794215 - 3793589" locus_tag="SD37_RS16815" class="clusterblast-orf" id="dummy-1_h1_6_79"  />
</g>
<g id="a1_0080"  >
<polygon points="433,85 436,80 436,90 433,85 " style="fill:white; stroke-width:1; stroke:black; " description="&lt;b&gt;SD37_RS16810&lt;/b&gt;&lt;br&gt;hypothetical protein&lt;br&gt;Location: 3793440 - 3792574" locus_tag="SD37_RS16810" class="clusterblast-orf" id="dummy-1_h1_6_80"  />
</g>
<g id="a1_0081"  >
<polygon points="436,85 439,80 439,90 436,85 " style="fill:white; stroke-width:1; stroke:black; " description="&lt;b&gt;SD37_RS16805&lt;/b&gt;&lt;br&gt;gfo/Idh/MocA family oxidoreductase&lt;br&gt;Location: 3792577 - 3791543" locus_tag="SD37_RS16805" class="clusterblast-orf" id="dummy-1_h1_6_81"  />
</g>
<g id="a1_0082"  >
<polygon points="439,85 443,80 443,90 439,85 " style="fill:white; stroke-width:1; stroke:black; " description="&lt;b&gt;SD37_RS16800&lt;/b&gt;&lt;br&gt;DegT/DnrJ/EryC1/StrS family aminotransferase&lt;br&gt;Location: 3791540 - 3790344" locus_tag="SD37_RS16800" class="clusterblast-orf" id="dummy-1_h1_6_82"  />
</g>
<g id="a1_0083"  >
<polygon points="443,85 446,80 446,90 443,85 " style="fill:white; stroke-width:1; stroke:black; " description="&lt;b&gt;SD37_RS16795&lt;/b&gt;&lt;br&gt;ROK family protein&lt;br&gt;Location: 3790338 - 3789514" locus_tag="SD37_RS16795" class="clusterblast-orf" id="dummy-1_h1_6_83"  />
</g>
<g id="a1_0084"  >
<polygon points="446,85 450,80 450,90 446,85 " style="fill:white; stroke-width:1; stroke:black; " description="&lt;b&gt;SD37_RS42000&lt;/b&gt;&lt;br&gt;KR domain-containing protein&lt;br&gt;Location: 3789520 - 3788366" locus_tag="SD37_RS42000" class="clusterblast-orf" id="dummy-1_h1_6_84"  />
</g>
<g id="a1_0085"  >
<polygon points="448,85 453,80 455,80 455,90 453,90 448,85 " style="fill:white; stroke-width:1; stroke:black; " description="&lt;b&gt;SD37_RS16785&lt;/b&gt;&lt;br&gt;hypothetical protein&lt;br&gt;Location: 3788765 - 3786678" locus_tag="SD37_RS16785" class="clusterblast-orf" id="dummy-1_h1_6_85"  />
</g>
<g id="a1_0086"  >
<polygon points="455,85 459,80 459,90 455,85 " style="fill:white; stroke-width:1; stroke:black; " description="&lt;b&gt;SD37_RS16780&lt;/b&gt;&lt;br&gt;radical SAM protein&lt;br&gt;Location: 3786685 - 3785570" locus_tag="SD37_RS16780" class="clusterblast-orf" id="dummy-1_h1_6_86"  />
</g>
<g id="a1_0087"  >
<polygon points="459,90 463,85 459,80 459,90 " style="fill:white; stroke-width:1; stroke:black; " description="&lt;b&gt;SD37_RS16775&lt;/b&gt;&lt;br&gt;hypothetical protein&lt;br&gt;Location: 3785461 - 3784247" locus_tag="SD37_RS16775" class="clusterblast-orf" id="dummy-1_h1_6_87"  />
</g>
<g id="a1_0088"  >
<polygon points="463,90 467,85 463,80 463,90 " style="fill:white; stroke-width:1; stroke:black; " description="&lt;b&gt;SD37_RS16770&lt;/b&gt;&lt;br&gt;transcriptional regulator&lt;br&gt;Location: 3784155 - 3782890" locus_tag="SD37_RS16770" class="clusterblast-orf" id="dummy-1_h1_6_88"  />
</g>
<g id="a1_0089"  >
<polygon points="468,85 472,80 472,90 468,85 " style="fill:white; stroke-width:1; stroke:black; " description="&lt;b&gt;SD37_RS16765&lt;/b&gt;&lt;br&gt;methyltransferase domain-containing protein&lt;br&gt;Location: 3782500 - 3781484" locus_tag="SD37_RS16765" class="clusterblast-orf" id="dummy-1_h1_6_89"  />
</g>
<g id="a1_0090"  >
<polygon points="473,90 477,85 473,80 473,90 " style="fill:white; stroke-width:1; stroke:black; " description="&lt;b&gt;SD37_RS16760&lt;/b&gt;&lt;br&gt;hypothetical protein&lt;br&gt;Location: 3781130 - 3779718" locus_tag="SD37_RS16760" class="clusterblast-orf" id="dummy-1_h1_6_90"  />
</g>
<g id="a1_0091"  >
<polygon points="477,90 481,85 477,80 477,90 " style="fill:white; stroke-width:1; stroke:black; " description="&lt;b&gt;SD37_RS16755&lt;/b&gt;&lt;br&gt;hypothetical protein&lt;br&gt;Location: 3779721 - 3778606" locus_tag="SD37_RS16755" class="clusterblast-orf" id="dummy-1_h1_6_91"  />
</g>
<g id="a1_0092"  >
<polygon points="481,90 485,85 481,80 481,90 " style="fill:white; stroke-width:1; stroke:black; " description="&lt;b&gt;SD37_RS16750&lt;/b&gt;&lt;br&gt;pyridoxal phosphate-dependent aminotransferase&lt;br&gt;Location: 3778597 - 3777425" locus_tag="SD37_RS16750" class="clusterblast-orf" id="dummy-1_h1_6_92"  />
</g>
<g id="a1_0093"  >
<polygon points="485,85 486,80 486,90 485,85 " style="fill:white; stroke-width:1; stroke:black; " description="&lt;b&gt;SD37_RS16745&lt;/b&gt;&lt;br&gt;N-acetyltransferase&lt;br&gt;Location: 3777416 - 3776877" locus_tag="SD37_RS16745" class="clusterblast-orf" id="dummy-1_h1_6_93"  />
</g>
<g id="a1_0094"  >
<polygon points="487,90 488,85 487,80 487,90 " style="fill:white; stroke-width:1; stroke:black; " description="&lt;b&gt;SD37_RS16740&lt;/b&gt;&lt;br&gt;hypothetical protein&lt;br&gt;Location: 3776788 - 3776252" locus_tag="SD37_RS16740" class="clusterblast-orf" id="dummy-1_h1_6_94"  />
</g>
<g id="a1_0095"  >
<polygon points="488,90 490,85 488,80 488,90 " style="fill:white; stroke-width:1; stroke:black; " description="&lt;b&gt;SD37_RS16735&lt;/b&gt;&lt;br&gt;hemerythrin domain-containing protein&lt;br&gt;Location: 3776187 - 3775633" locus_tag="SD37_RS16735" class="clusterblast-orf" id="dummy-1_h1_6_95"  />
</g>
<g id="a1_0096"  >
<polygon points="490,85 492,80 492,90 490,85 " style="fill:white; stroke-width:1; stroke:black; " description="&lt;b&gt;SD37_RS16730&lt;/b&gt;&lt;br&gt;FHA domain-containing protein&lt;br&gt;Location: 3775601 - 3775185" locus_tag="SD37_RS16730" class="clusterblast-orf" id="dummy-1_h1_6_96"  />
</g>
<g id="a1_0097"  >
<polygon points="493,90 497,85 493,80 493,90 " style="fill:white; stroke-width:1; stroke:black; " description="&lt;b&gt;SD37_RS16725&lt;/b&gt;&lt;br&gt;1,4-beta-xylanase&lt;br&gt;Location: 3774899 - 3773523" locus_tag="SD37_RS16725" class="clusterblast-orf" id="dummy-1_h1_6_97"  />
</g>
<g id="a1_0098"  >
<polygon points="498,90 498,85 498,80 498,90 " style="fill:white; stroke-width:1; stroke:black; " description="&lt;b&gt;SD37_RS16720&lt;/b&gt;&lt;br&gt;MbtH family protein&lt;br&gt;Location: 3773311 - 3773087" locus_tag="SD37_RS16720" class="clusterblast-orf" id="dummy-1_h1_6_98"  />
</g>
<g id="a1_0099"  >
<polygon points="498,90 499,90 504,85 499,80 498,80 498,90 " style="fill:white; stroke-width:1; stroke:black; " description="&lt;b&gt;SD37_RS16715&lt;/b&gt;&lt;br&gt;hypothetical protein&lt;br&gt;Location: 3773174 - 3771318" locus_tag="SD37_RS16715" class="clusterblast-orf" id="dummy-1_h1_6_99"  />
</g>
<g id="a1_00100"  >
<polygon points="504,90 505,90 510,85 505,80 504,80 504,90 " style="fill:white; stroke-width:1; stroke:black; " description="&lt;b&gt;SD37_RS16710&lt;/b&gt;&lt;br&gt;acyl-CoA dehydrogenase&lt;br&gt;Location: 3771321 - 3769591" locus_tag="SD37_RS16710" class="clusterblast-orf" id="dummy-1_h1_6_100"  />
</g>
<g id="a1_00101"  >
<polygon points="510,90 510,90 515,85 510,80 510,80 510,90 " style="fill:white; stroke-width:1; stroke:black; " description="&lt;b&gt;SD37_RS16705&lt;/b&gt;&lt;br&gt;acyl-CoA dehydrogenase&lt;br&gt;Location: 3769594 - 3767930" locus_tag="SD37_RS16705" class="clusterblast-orf" id="dummy-1_h1_6_101"  />
</g>
<g id="a1_00102"  >
<polygon points="516,85 520,80 520,90 516,85 " style="fill:white; stroke-width:1; stroke:black; " description="&lt;b&gt;SD37_RS41995&lt;/b&gt;&lt;br&gt;hypothetical protein&lt;br&gt;Location: 3767575 - 3766454" locus_tag="SD37_RS41995" class="clusterblast-orf" id="dummy-1_h1_6_102"  />
</g>
<g id="a1_00103"  >
<polygon points="519,85 522,80 522,90 519,85 " style="fill:white; stroke-width:1; stroke:black; " description="&lt;b&gt;SD37_RS41990&lt;/b&gt;&lt;br&gt;hypothetical protein&lt;br&gt;Location: 3766524 - 3765542" locus_tag="SD37_RS41990" class="clusterblast-orf" id="dummy-1_h1_6_103"  />
</g>
<g id="a1_00104"  >
<polygon points="523,90 525,85 523,80 523,90 " style="fill:white; stroke-width:1; stroke:black; " description="&lt;b&gt;SD37_RS16695&lt;/b&gt;&lt;br&gt;hypothetical protein&lt;br&gt;Location: 3765324 - 3764815" locus_tag="SD37_RS16695" class="clusterblast-orf" id="dummy-1_h1_6_104"  />
</g>
<g id="a1_00105"  >
<polygon points="525,90 529,85 525,80 525,90 " style="fill:white; stroke-width:1; stroke:black; " description="&lt;b&gt;SD37_RS16690&lt;/b&gt;&lt;br&gt;sensor histidine kinase&lt;br&gt;Location: 3764813 - 3763548" locus_tag="SD37_RS16690" class="clusterblast-orf" id="dummy-1_h1_6_105"  />
</g>
<g id="a1_00106"  >
<polygon points="529,90 531,85 529,80 529,90 " style="fill:white; stroke-width:1; stroke:black; " description="&lt;b&gt;SD37_RS16685&lt;/b&gt;&lt;br&gt;DNA-binding response regulator&lt;br&gt;Location: 3763551 - 3762886" locus_tag="SD37_RS16685" class="clusterblast-orf" id="dummy-1_h1_6_106"  />
</g>
<g id="a1_00107"  >
<polygon points="532,85 537,80 541,80 541,90 537,90 532,85 " style="fill:white; stroke-width:1; stroke:black; " description="&lt;b&gt;SD37_RS16680&lt;/b&gt;&lt;br&gt;peptide synthetase&lt;br&gt;Location: 3762432 - 3759847" locus_tag="SD37_RS16680" class="clusterblast-orf" id="dummy-1_h1_6_107"  />
</g>
<g id="a1_00108"  >
<polygon points="541,85 543,80 543,90 541,85 " style="fill:white; stroke-width:1; stroke:black; " description="&lt;b&gt;SD37_RS16675&lt;/b&gt;&lt;br&gt;NAD(P)-dependent oxidoreductase&lt;br&gt;Location: 3759811 - 3758987" locus_tag="SD37_RS16675" class="clusterblast-orf" id="dummy-1_h1_6_108"  />
</g>
<g id="a1_00109"  >
<polygon points="543,85 546,80 546,90 543,85 " style="fill:white; stroke-width:1; stroke:black; " description="&lt;b&gt;SD37_RS16670&lt;/b&gt;&lt;br&gt;thioesterase&lt;br&gt;Location: 3758983 - 3758273" locus_tag="SD37_RS16670" class="clusterblast-orf" id="dummy-1_h1_6_109"  />
</g>
<g id="a1_00110"  >
<polygon points="546,85 551,80 630,80 630,90 551,90 546,85 " style="fill:white; stroke-width:1; stroke:black; " description="&lt;b&gt;SD37_RS16665&lt;/b&gt;&lt;br&gt;non-ribosomal peptide synthetase&lt;br&gt;Location: 3758110 - 3732020" locus_tag="SD37_RS16665" class="clusterblast-orf" id="dummy-1_h1_6_110"  />
</g>
<g id="a1_00111"  >
<polygon points="630,85 635,80 697,80 697,90 635,90 630,85 " style="fill:white; stroke-width:1; stroke:black; " description="&lt;b&gt;SD37_RS16660&lt;/b&gt;&lt;br&gt;non-ribosomal peptide synthetase&lt;br&gt;Location: 3732020 - 3711003" locus_tag="SD37_RS16660" class="clusterblast-orf" id="dummy-1_h1_6_111"  />
</g>
<g id="a1_00112"  >
<polygon points="697,85 702,80 717,80 717,90 702,90 697,85 " style="fill:#15d8d8; stroke-width:1; stroke:black; " description="&lt;b&gt;SD37_RS16655&lt;/b&gt;&lt;br&gt;non-ribosomal peptide synthetase&lt;br&gt;Location: 3711006 - 3704731&lt;br&gt;&lt;br&gt;&lt;b&gt;BlastP hit with ctg164_6&lt;/b&gt;&lt;br&gt;Percentage identity: 32&lt;br&gt;Percentage coverage: 103&lt;br&gt;BLAST bit score: 461&lt;br&gt;E-value: 3.7e-127" locus_tag="SD37_RS16655" class="clusterblast-orf" id="dummy-1_h1_6_112"  />
</g>
<g id="a1_00113"  >
<polygon points="717,85 718,80 718,90 717,85 " style="fill:white; stroke-width:1; stroke:black; " description="&lt;b&gt;SD37_RS16650&lt;/b&gt;&lt;br&gt;acyl carrier protein&lt;br&gt;Location: 3704734 - 3704462" locus_tag="SD37_RS16650" class="clusterblast-orf" id="dummy-1_h1_6_113"  />
</g>
<g id="a1_00114"  >
<polygon points="718,90 721,85 718,80 718,90 " style="fill:white; stroke-width:1; stroke:black; " description="&lt;b&gt;SD37_RS16645&lt;/b&gt;&lt;br&gt;alpha/beta hydrolase&lt;br&gt;Location: 3704208 - 3703381" locus_tag="SD37_RS16645" class="clusterblast-orf" id="dummy-1_h1_6_114"  />
</g>
<g id="a1_00115"  >
<polygon points="721,90 722,90 727,85 722,80 721,80 721,90 " style="fill:white; stroke-width:1; stroke:black; " description="&lt;b&gt;SD37_RS16640&lt;/b&gt;&lt;br&gt;ABC transporter ATP-binding protein&lt;br&gt;Location: 3703336 - 3701384" locus_tag="SD37_RS16640" class="clusterblast-orf" id="dummy-1_h1_6_115"  />
</g>
<g id="a1_00116"  >
<polygon points="727,90 730,85 727,80 727,90 " style="fill:white; stroke-width:1; stroke:black; " description="&lt;b&gt;SD37_RS16635&lt;/b&gt;&lt;br&gt;ABC transporter ATP-binding protein&lt;br&gt;Location: 3701348 - 3700422" locus_tag="SD37_RS16635" class="clusterblast-orf" id="dummy-1_h1_6_116"  />
</g>
<g id="a1_00117"  >
<polygon points="730,90 734,85 730,80 730,90 " style="fill:white; stroke-width:1; stroke:black; " description="&lt;b&gt;SD37_RS16630&lt;/b&gt;&lt;br&gt;transmembrane transport protein&lt;br&gt;Location: 3700425 - 3699400" locus_tag="SD37_RS16630" class="clusterblast-orf" id="dummy-1_h1_6_117"  />
</g>
<g id="a1_00118"  >
<polygon points="734,90 734,90 739,85 734,80 734,80 734,90 " style="fill:white; stroke-width:1; stroke:black; " description="&lt;b&gt;SD37_RS16625&lt;/b&gt;&lt;br&gt;FAD-dependent oxidoreductase&lt;br&gt;Location: 3699242 - 3697740" locus_tag="SD37_RS16625" class="clusterblast-orf" id="dummy-1_h1_6_118"  />
</g>
<g id="a1_00119"  >
<polygon points="739,90 741,90 746,85 741,80 739,80 739,90 " style="fill:white; stroke-width:1; stroke:black; " description="&lt;b&gt;SD37_RS16620&lt;/b&gt;&lt;br&gt;penicillin acylase family protein&lt;br&gt;Location: 3697743 - 3695407" locus_tag="SD37_RS16620" class="clusterblast-orf" id="dummy-1_h1_6_119"  />
</g>
<g id="a1_00120"  >
<polygon points="747,85 752,80 755,80 755,90 752,90 747,85 " style="fill:white; stroke-width:1; stroke:black; " description="&lt;b&gt;SD37_RS16615&lt;/b&gt;&lt;br&gt;aminotransferase&lt;br&gt;Location: 3695151 - 3692782" locus_tag="SD37_RS16615" class="clusterblast-orf" id="dummy-1_h1_6_120"  />
</g>
<g id="a1_00121"  >
<polygon points="755,85 758,80 758,90 755,85 " style="fill:white; stroke-width:1; stroke:black; " description="&lt;b&gt;SD37_RS16610&lt;/b&gt;&lt;br&gt;4-hydroxyphenylpyruvate dioxygenase&lt;br&gt;Location: 3692747 - 3691674" locus_tag="SD37_RS16610" class="clusterblast-orf" id="dummy-1_h1_6_121"  />
</g>
<g id="a1_00122"  >
<polygon points="758,85 761,80 761,90 758,85 " style="fill:white; stroke-width:1; stroke:black; " description="&lt;b&gt;SD37_RS16605&lt;/b&gt;&lt;br&gt;streptomycin biosynthesis protein&lt;br&gt;Location: 3691637 - 3690774" locus_tag="SD37_RS16605" class="clusterblast-orf" id="dummy-1_h1_6_122"  />
</g>
<g id="a1_00123"  >
<polygon points="762,85 766,80 766,90 762,85 " style="fill:white; stroke-width:1; stroke:black; " description="&lt;b&gt;SD37_RS16600&lt;/b&gt;&lt;br&gt;transcriptional regulator&lt;br&gt;Location: 3690385 - 3689387" locus_tag="SD37_RS16600" class="clusterblast-orf" id="dummy-1_h1_6_123"  />
</g>
<g id="a1_00124"  >
<polygon points="767,85 770,80 770,90 767,85 " style="fill:white; stroke-width:1; stroke:black; " description="&lt;b&gt;SD37_RS16595&lt;/b&gt;&lt;br&gt;alpha/beta hydrolase&lt;br&gt;Location: 3688867 - 3687944" locus_tag="SD37_RS16595" class="clusterblast-orf" id="dummy-1_h1_6_124"  />
</g>
<g id="a1_00125"  >
<polygon points="770,85 772,80 772,90 770,85 " style="fill:white; stroke-width:1; stroke:black; " description="&lt;b&gt;SD37_RS16590&lt;/b&gt;&lt;br&gt;TetR family transcriptional regulator&lt;br&gt;Location: 3687910 - 3687356" locus_tag="SD37_RS16590" class="clusterblast-orf" id="dummy-1_h1_6_125"  />
</g>
<g id="a1_00126"  >
<polygon points="772,85 774,80 774,90 772,85 " style="fill:white; stroke-width:1; stroke:black; " description="&lt;b&gt;SD37_RS16585&lt;/b&gt;&lt;br&gt;nuclear transport factor 2 family protein&lt;br&gt;Location: 3687359 - 3686928" locus_tag="SD37_RS16585" class="clusterblast-orf" id="dummy-1_h1_6_126"  />
</g>
<g id="a1_00127"  >
<polygon points="774,90 778,85 774,80 774,90 " style="fill:white; stroke-width:1; stroke:black; " description="&lt;b&gt;SD37_RS16580&lt;/b&gt;&lt;br&gt;riboflavin synthase subunit alpha&lt;br&gt;Location: 3686679 - 3685471" locus_tag="SD37_RS16580" class="clusterblast-orf" id="dummy-1_h1_6_127"  />
</g>
<g id="a1_00128"  >
<polygon points="778,90 780,85 778,80 778,90 " style="fill:white; stroke-width:1; stroke:black; " description="&lt;b&gt;SD37_RS16575&lt;/b&gt;&lt;br&gt;PaaI family thioesterase&lt;br&gt;Location: 3685471 - 3685052" locus_tag="SD37_RS16575" class="clusterblast-orf" id="dummy-1_h1_6_128"  />
</g>
</svg>
