<svg xmlns="http://www.w3.org/2000/svg" xmlns:xlink="http://www.w3.org/1999/xlink" version="1.1" x="0" y="0" height="230" width="800" viewBox="0 0 800 230" preserveAspectRatio="none"  >
<g label="Query sequence" class="clusterblast-cluster"  >
<text x="5" y="20" class="clusterblast-acc"  >
Query sequence</text>
<line x1="10" y1="35" x2="778.0" y2="35" style="stroke-width:1; stroke:grey; "  />
<polygon points="203,35 208,30 215,30 215,40 208,40 203,35 " style="fill:#d81515; stroke-width:1; stroke:black; " description="&lt;b&gt;ctg77_1&lt;/b&gt;&lt;br&gt;ctg77 1&lt;br&gt;Location: 0 - 627" locus_tag="ctg77_1" class="clusterblast-orf" id="dummy-1_q0_0_all"  />
<polygon points="217,40 217,40 222,35 217,30 217,30 217,40 " style="fill:#33d815; stroke-width:1; stroke:black; " description="&lt;b&gt;ctg77_2&lt;/b&gt;&lt;br&gt;ctg77 2&lt;br&gt;Location: 718 - 994" locus_tag="ctg77_2" class="clusterblast-orf" id="dummy-1_q1_0_all"  />
<polygon points="223,35 228,30 251,30 251,40 228,40 223,35 " style="fill:#15abd8; stroke-width:1; stroke:black; " description="&lt;b&gt;ctg77_3&lt;/b&gt;&lt;br&gt;ctg77 3&lt;br&gt;Location: 1063 - 2500" locus_tag="ctg77_3" class="clusterblast-orf" id="dummy-1_q2_0_all"  />
<polygon points="253,40 272,40 277,35 272,30 253,30 253,40 " style="fill:#8d15d8; stroke-width:1; stroke:black; " description="&lt;b&gt;ctg77_4&lt;/b&gt;&lt;br&gt;ctg77 4&lt;br&gt;Location: 2630 - 3875" locus_tag="ctg77_4" class="clusterblast-orf" id="dummy-1_q3_0_all"  />
<polygon points="278,35 283,30 353,30 353,40 283,40 278,35 " style="fill:#d86f15; stroke-width:1; stroke:black; " description="&lt;b&gt;ctg77_5&lt;/b&gt;&lt;br&gt;ctg77 5&lt;br&gt;Location: 3942 - 7899" locus_tag="ctg77_5" class="clusterblast-orf" id="dummy-1_q4_0_all"  />
<polygon points="362,35 367,30 367,30 367,40 367,40 362,35 " style="fill:#15d851; stroke-width:1; stroke:black; " description="&lt;b&gt;ctg77_6&lt;/b&gt;&lt;br&gt;ctg77 6&lt;br&gt;Location: 8371 - 8653" locus_tag="ctg77_6" class="clusterblast-orf" id="dummy-1_q5_0_all"  />
<polygon points="378,40 390,40 395,35 390,30 378,30 378,40 " style="fill:#1551d8; stroke-width:1; stroke:black; " description="&lt;b&gt;ctg77_7&lt;/b&gt;&lt;br&gt;ctg77 7&lt;br&gt;Location: 9202 - 10090" locus_tag="ctg77_7" class="clusterblast-orf" id="dummy-1_q6_0_all"  />
<polygon points="395,35 400,30 422,30 422,40 400,40 395,35 " style="fill:#d815c9; stroke-width:1; stroke:black; " description="&lt;b&gt;ctg77_8&lt;/b&gt;&lt;br&gt;ctg77 8&lt;br&gt;Location: 10124 - 11552" locus_tag="ctg77_8" class="clusterblast-orf" id="dummy-1_q7_0_all"  />
<polygon points="429,40 448,40 453,35 448,30 429,30 429,40 " style="fill:#d8c915; stroke-width:1; stroke:black; " description="&lt;b&gt;ctg77_9&lt;/b&gt;&lt;br&gt;ctg77 9&lt;br&gt;Location: 11875 - 13174" locus_tag="ctg77_9" class="clusterblast-orf" id="dummy-1_q8_0_all"  />
<polygon points="454,35 459,30 497,30 497,40 459,40 454,35 " style="fill:#15d8ab; stroke-width:1; stroke:black; " description="&lt;b&gt;ctg77_10&lt;/b&gt;&lt;br&gt;ctg77 10&lt;br&gt;Location: 13232 - 15488" locus_tag="ctg77_10" class="clusterblast-orf" id="dummy-1_q9_0_all"  />
<polygon points="500,35 505,30 515,30 515,40 505,40 500,35 " style="fill:#3315d8; stroke-width:1; stroke:black; " description="&lt;b&gt;ctg77_11&lt;/b&gt;&lt;br&gt;ctg77 11&lt;br&gt;Location: 15623 - 16448" locus_tag="ctg77_11" class="clusterblast-orf" id="dummy-1_q10_0_all"  />
<polygon points="515,35 520,30 536,30 536,40 520,40 515,35 " style="fill:#d8156f; stroke-width:1; stroke:black; " description="&lt;b&gt;ctg77_12&lt;/b&gt;&lt;br&gt;ctg77 12&lt;br&gt;Location: 16444 - 17536" locus_tag="ctg77_12" class="clusterblast-orf" id="dummy-1_q11_0_all"  />
<polygon points="536,35 541,30 556,30 556,40 541,40 536,35 " style="fill:#d8156f; stroke-width:1; stroke:black; " description="&lt;b&gt;ctg77_13&lt;/b&gt;&lt;br&gt;ctg77 13&lt;br&gt;Location: 17532 - 18573" locus_tag="ctg77_13" class="clusterblast-orf" id="dummy-1_q12_0_all"  />
<polygon points="556,35 561,30 576,30 576,40 561,40 556,35 " style="fill:#8dd815; stroke-width:1; stroke:black; " description="&lt;b&gt;ctg77_14&lt;/b&gt;&lt;br&gt;ctg77 14&lt;br&gt;Location: 18593 - 19649" locus_tag="ctg77_14" class="clusterblast-orf" id="dummy-1_q13_0_all"  />
</g>
<g label="NZ_LOJP01000001" description="NZ_LOJP01000001_c8: Actinoplanes sp. TFC3 Actinoplanes sp. strain TFC3 1, who... (15% of genes show similarity), other" class="clusterblast-cluster"  >
<text x="5" y="70" class="clusterblast-acc"  >
<a xlink:href="https://antismash-db.secondarymetabolites.org/go/NZ_LOJP01000001/8" target="_blank">NZ_LOJP01000001_c8</a>: Actinoplanes sp. TFC3 Actinoplanes sp. strain TFC3 1, who... (15% of genes show similarity), other</text>
<line x1="10" y1="85" x2="778.0" y2="85" style="stroke-width:1; stroke:grey; "  />
</g>
<g id="a1_000"  >
<polygon points="0,85 5,80 24,80 24,90 5,90 0,85 " style="fill:white; stroke-width:1; stroke:black; " description="&lt;b&gt;TFC3_RS13015&lt;/b&gt;&lt;br&gt;lactate 2-monooxygenase&lt;br&gt;Location: 2928874 - 2930163" locus_tag="TFC3_RS13015" class="clusterblast-orf" id="dummy-1_h1_7_0"  />
</g>
<g id="a1_001"  >
<polygon points="27,90 40,90 45,85 40,80 27,80 27,90 " style="fill:white; stroke-width:1; stroke:black; " description="&lt;b&gt;TFC3_RS13020&lt;/b&gt;&lt;br&gt;1,3-beta-glucanase&lt;br&gt;Location: 2930304 - 2931248" locus_tag="TFC3_RS13020" class="clusterblast-orf" id="dummy-1_h1_7_1"  />
</g>
<g id="a1_002"  >
<polygon points="46,90 72,90 77,85 72,80 46,80 46,90 " style="fill:white; stroke-width:1; stroke:black; " description="&lt;b&gt;TFC3_RS13025&lt;/b&gt;&lt;br&gt;cellulose synthase&lt;br&gt;Location: 2931303 - 2932949" locus_tag="TFC3_RS13025" class="clusterblast-orf" id="dummy-1_h1_7_2"  />
</g>
<g id="a1_003"  >
<polygon points="77,90 87,90 92,85 87,80 77,80 77,90 " style="fill:white; stroke-width:1; stroke:black; " description="&lt;b&gt;TFC3_RS13030&lt;/b&gt;&lt;br&gt;hypothetical protein&lt;br&gt;Location: 2932954 - 2933730" locus_tag="TFC3_RS13030" class="clusterblast-orf" id="dummy-1_h1_7_3"  />
</g>
<g id="a1_004"  >
<polygon points="92,90 96,90 101,85 96,80 92,80 92,90 " style="fill:white; stroke-width:1; stroke:black; " description="&lt;b&gt;TFC3_RS13035&lt;/b&gt;&lt;br&gt;inorganic pyrophosphatase&lt;br&gt;Location: 2933733 - 2934206" locus_tag="TFC3_RS13035" class="clusterblast-orf" id="dummy-1_h1_7_4"  />
</g>
<g id="a1_005"  >
<polygon points="101,85 106,80 116,80 116,90 106,90 101,85 " style="fill:#3315d8; stroke-width:1; stroke:black; " description="&lt;b&gt;TFC3_RS13040&lt;/b&gt;&lt;br&gt;ABC transporter ATP-binding protein&lt;br&gt;Location: 2934222 - 2935037&lt;br&gt;&lt;br&gt;&lt;b&gt;BlastP hit with ctg77_11&lt;/b&gt;&lt;br&gt;Percentage identity: 52&lt;br&gt;Percentage coverage: 93&lt;br&gt;BLAST bit score: 267&lt;br&gt;E-value: 2.2e-69" locus_tag="TFC3_RS13040" class="clusterblast-orf" id="dummy-1_h1_7_5"  />
</g>
<g id="a1_006"  >
<polygon points="116,85 121,80 136,80 136,90 121,90 116,85 " style="fill:#d8156f; stroke-width:1; stroke:black; " description="&lt;b&gt;TFC3_RS13045&lt;/b&gt;&lt;br&gt;ABC transporter permease&lt;br&gt;Location: 2935034 - 2936092&lt;br&gt;&lt;br&gt;&lt;b&gt;BlastP hit with ctg77_12&lt;/b&gt;&lt;br&gt;Percentage identity: 36&lt;br&gt;Percentage coverage: 80&lt;br&gt;BLAST bit score: 94&lt;br&gt;E-value: 3.4e-17" locus_tag="TFC3_RS13045" class="clusterblast-orf" id="dummy-1_h1_7_6"  />
</g>
<g id="a1_007"  >
<polygon points="137,85 142,80 156,80 156,90 142,90 137,85 " style="fill:#d8156f; stroke-width:1; stroke:black; " description="&lt;b&gt;TFC3_RS13050&lt;/b&gt;&lt;br&gt;iron ABC transporter permease&lt;br&gt;Location: 2936116 - 2937150&lt;br&gt;&lt;br&gt;&lt;b&gt;BlastP hit with ctg77_13&lt;/b&gt;&lt;br&gt;Percentage identity: 38&lt;br&gt;Percentage coverage: 87&lt;br&gt;BLAST bit score: 178&lt;br&gt;E-value: 1.3e-42" locus_tag="TFC3_RS13050" class="clusterblast-orf" id="dummy-1_h1_7_7"  />
</g>
<g id="a1_008"  >
<polygon points="156,85 161,80 176,80 176,90 161,90 156,85 " style="fill:#8dd815; stroke-width:1; stroke:black; " description="&lt;b&gt;TFC3_RS13055&lt;/b&gt;&lt;br&gt;iron-siderophore ABC transporter substrate-binding protein&lt;br&gt;Location: 2937147 - 2938190&lt;br&gt;&lt;br&gt;&lt;b&gt;BlastP hit with ctg77_14&lt;/b&gt;&lt;br&gt;Percentage identity: 36&lt;br&gt;Percentage coverage: 86&lt;br&gt;BLAST bit score: 178&lt;br&gt;E-value: 1e-42" locus_tag="TFC3_RS13055" class="clusterblast-orf" id="dummy-1_h1_7_8"  />
</g>
<g id="a1_009"  >
<polygon points="178,85 183,80 193,80 193,90 183,90 178,85 " style="fill:white; stroke-width:1; stroke:black; " description="&lt;b&gt;TFC3_RS13060&lt;/b&gt;&lt;br&gt;cytochrome c oxidase assembly protein&lt;br&gt;Location: 2938290 - 2939051" locus_tag="TFC3_RS13060" class="clusterblast-orf" id="dummy-1_h1_7_9"  />
</g>
<g id="a1_0010"  >
<polygon points="192,85 197,80 201,80 201,90 197,90 192,85 " style="fill:white; stroke-width:1; stroke:black; " description="&lt;b&gt;TFC3_RS13065&lt;/b&gt;&lt;br&gt;DUF2243 domain-containing protein&lt;br&gt;Location: 2939048 - 2939488" locus_tag="TFC3_RS13065" class="clusterblast-orf" id="dummy-1_h1_7_10"  />
</g>
<g id="a1_0011"  >
<polygon points="202,85 207,80 209,80 209,90 207,90 202,85 " style="fill:white; stroke-width:1; stroke:black; " description="&lt;b&gt;TFC3_RS13070&lt;/b&gt;&lt;br&gt;hypothetical protein&lt;br&gt;Location: 2939534 - 2939923" locus_tag="TFC3_RS13070" class="clusterblast-orf" id="dummy-1_h1_7_11"  />
</g>
<g id="a1_0012"  >
<polygon points="209,85 213,80 213,90 209,85 " style="fill:white; stroke-width:1; stroke:black; " description="&lt;b&gt;TFC3_RS13075&lt;/b&gt;&lt;br&gt;hypothetical protein&lt;br&gt;Location: 2939926 - 2940141" locus_tag="TFC3_RS13075" class="clusterblast-orf" id="dummy-1_h1_7_12"  />
</g>
<g id="a1_0013"  >
<polygon points="214,85 219,80 239,80 239,90 219,90 214,85 " style="fill:white; stroke-width:1; stroke:black; " description="&lt;b&gt;TFC3_RS13080&lt;/b&gt;&lt;br&gt;radical SAM protein&lt;br&gt;Location: 2940179 - 2941501" locus_tag="TFC3_RS13080" class="clusterblast-orf" id="dummy-1_h1_7_13"  />
</g>
<g id="a1_0014"  >
<polygon points="242,85 247,80 259,80 259,90 247,90 242,85 " style="fill:white; stroke-width:1; stroke:black; " description="&lt;b&gt;TFC3_RS13085&lt;/b&gt;&lt;br&gt;phytanoyl-CoA dioxygenase&lt;br&gt;Location: 2941685 - 2942536" locus_tag="TFC3_RS13085" class="clusterblast-orf" id="dummy-1_h1_7_14"  />
</g>
<g id="a1_0015"  >
<polygon points="260,90 274,90 279,85 274,80 260,80 260,90 " style="fill:white; stroke-width:1; stroke:black; " description="&lt;b&gt;TFC3_RS13090&lt;/b&gt;&lt;br&gt;LacI family transcriptional regulator&lt;br&gt;Location: 2942597 - 2943598" locus_tag="TFC3_RS13090" class="clusterblast-orf" id="dummy-1_h1_7_15"  />
</g>
<g id="a1_0016"  >
<polygon points="280,85 285,80 300,80 300,90 285,90 280,85 " style="fill:white; stroke-width:1; stroke:black; " description="&lt;b&gt;TFC3_RS13095&lt;/b&gt;&lt;br&gt;hypothetical protein&lt;br&gt;Location: 2943636 - 2944727" locus_tag="TFC3_RS13095" class="clusterblast-orf" id="dummy-1_h1_7_16"  />
</g>
<g id="a1_0017"  >
<polygon points="312,85 317,80 338,80 338,90 317,90 312,85 " style="fill:white; stroke-width:1; stroke:black; " description="&lt;b&gt;TFC3_RS13100&lt;/b&gt;&lt;br&gt;M1 family peptidase&lt;br&gt;Location: 2945348 - 2946700" locus_tag="TFC3_RS13100" class="clusterblast-orf" id="dummy-1_h1_7_17"  />
</g>
<g id="a1_0018"  >
<polygon points="338,85 343,80 411,80 411,90 343,90 338,85 " style="fill:#d86f15; stroke-width:1; stroke:black; " description="&lt;b&gt;TFC3_RS13105&lt;/b&gt;&lt;br&gt;amino acid adenylation protein&lt;br&gt;Location: 2946697 - 2950569&lt;br&gt;&lt;br&gt;&lt;b&gt;BlastP hit with ctg77_5&lt;/b&gt;&lt;br&gt;Percentage identity: 54&lt;br&gt;Percentage coverage: 98&lt;br&gt;BLAST bit score: 1206&lt;br&gt;E-value: 0.0" locus_tag="TFC3_RS13105" class="clusterblast-orf" id="dummy-1_h1_7_18"  />
</g>
<g id="a1_0019"  >
<polygon points="411,85 416,80 416,80 416,90 416,90 411,85 " style="fill:white; stroke-width:1; stroke:black; " description="&lt;b&gt;TFC3_RS13110&lt;/b&gt;&lt;br&gt;hypothetical protein&lt;br&gt;Location: 2950566 - 2950826" locus_tag="TFC3_RS13110" class="clusterblast-orf" id="dummy-1_h1_7_19"  />
</g>
<g id="a1_0020"  >
<polygon points="418,90 420,90 425,85 420,80 418,80 418,90 " style="fill:white; stroke-width:1; stroke:black; " description="&lt;b&gt;TFC3_RS13115&lt;/b&gt;&lt;br&gt;nitroreductase family deazaflavin-dependent oxidoreductase&lt;br&gt;Location: 2950913 - 2951290" locus_tag="TFC3_RS13115" class="clusterblast-orf" id="dummy-1_h1_7_20"  />
</g>
<g id="a1_0021"  >
<polygon points="427,85 432,80 458,80 458,90 432,90 427,85 " style="fill:white; stroke-width:1; stroke:black; " description="&lt;b&gt;TFC3_RS13120&lt;/b&gt;&lt;br&gt;glucan endo-1,3-beta-D-glucosidase&lt;br&gt;Location: 2951407 - 2953062" locus_tag="TFC3_RS13120" class="clusterblast-orf" id="dummy-1_h1_7_21"  />
</g>
<g id="a1_0022"  >
<polygon points="464,90 540,90 545,85 540,80 464,80 464,90 " style="fill:white; stroke-width:1; stroke:black; " description="&lt;b&gt;TFC3_RS13125&lt;/b&gt;&lt;br&gt;hypothetical protein&lt;br&gt;Location: 2953349 - 2957617" locus_tag="TFC3_RS13125" class="clusterblast-orf" id="dummy-1_h1_7_22"  />
</g>
<g id="a1_0023"  >
<polygon points="544,85 549,80 568,80 568,90 549,90 544,85 " style="fill:white; stroke-width:1; stroke:black; " description="&lt;b&gt;TFC3_RS13130&lt;/b&gt;&lt;br&gt;alkaline phosphatase&lt;br&gt;Location: 2957575 - 2958834" locus_tag="TFC3_RS13130" class="clusterblast-orf" id="dummy-1_h1_7_23"  />
</g>
<g id="a1_0024"  >
<polygon points="569,90 576,90 581,85 576,80 569,80 569,90 " style="fill:white; stroke-width:1; stroke:black; " description="&lt;b&gt;TFC3_RS13135&lt;/b&gt;&lt;br&gt;glycerophosphodiester phosphodiesterase&lt;br&gt;Location: 2958917 - 2959507" locus_tag="TFC3_RS13135" class="clusterblast-orf" id="dummy-1_h1_7_24"  />
</g>
<g id="a1_0025"  >
<polygon points="581,85 586,80 601,80 601,90 586,90 581,85 " style="fill:white; stroke-width:1; stroke:black; " description="&lt;b&gt;TFC3_RS13140&lt;/b&gt;&lt;br&gt;D-alanyl-D-alanine carboxypeptidase&lt;br&gt;Location: 2959541 - 2960611" locus_tag="TFC3_RS13140" class="clusterblast-orf" id="dummy-1_h1_7_25"  />
</g>
<g id="a1_0026"  >
<polygon points="604,85 609,80 625,80 625,90 609,90 604,85 " style="fill:white; stroke-width:1; stroke:black; " description="&lt;b&gt;TFC3_RS13145&lt;/b&gt;&lt;br&gt;hypothetical protein&lt;br&gt;Location: 2960743 - 2961840" locus_tag="TFC3_RS13145" class="clusterblast-orf" id="dummy-1_h1_7_26"  />
</g>
<g id="a1_0027"  >
<polygon points="626,85 631,80 659,80 659,90 631,90 626,85 " style="fill:white; stroke-width:1; stroke:black; " description="&lt;b&gt;TFC3_RS13150&lt;/b&gt;&lt;br&gt;hypothetical protein&lt;br&gt;Location: 2961888 - 2963639" locus_tag="TFC3_RS13150" class="clusterblast-orf" id="dummy-1_h1_7_27"  />
</g>
<g id="a1_0028"  >
<polygon points="663,85 666,80 666,90 663,85 " style="fill:white; stroke-width:1; stroke:black; " description="&lt;b&gt;TFC3_RS13155&lt;/b&gt;&lt;br&gt;PadR family transcriptional regulator&lt;br&gt;Location: 2963849 - 2964019" locus_tag="TFC3_RS13155" class="clusterblast-orf" id="dummy-1_h1_7_28"  />
</g>
<g id="a1_0029"  >
<polygon points="670,90 718,90 723,85 718,80 670,80 670,90 " style="fill:white; stroke-width:1; stroke:black; " description="&lt;b&gt;TFC3_RS13160&lt;/b&gt;&lt;br&gt;glycosyl transferase&lt;br&gt;Location: 2964230 - 2967022" locus_tag="TFC3_RS13160" class="clusterblast-orf" id="dummy-1_h1_7_29"  />
</g>
<g id="a1_0030"  >
<polygon points="724,85 729,80 741,80 741,90 729,90 724,85 " style="fill:white; stroke-width:1; stroke:black; " description="&lt;b&gt;TFC3_RS13165&lt;/b&gt;&lt;br&gt;aldo/keto reductase&lt;br&gt;Location: 2967096 - 2967983" locus_tag="TFC3_RS13165" class="clusterblast-orf" id="dummy-1_h1_7_30"  />
</g>
<g id="a1_0031"  >
<polygon points="744,90 752,90 757,85 752,80 744,80 744,90 " style="fill:white; stroke-width:1; stroke:black; " description="&lt;b&gt;TFC3_RS13170&lt;/b&gt;&lt;br&gt;FadR family transcriptional regulator&lt;br&gt;Location: 2968118 - 2968792" locus_tag="TFC3_RS13170" class="clusterblast-orf" id="dummy-1_h1_7_31"  />
</g>
<g id="a1_0032"  >
<polygon points="757,90 775,90 780,85 775,80 757,80 757,90 " style="fill:white; stroke-width:1; stroke:black; " description="&lt;b&gt;TFC3_RS13175&lt;/b&gt;&lt;br&gt;MFS transporter&lt;br&gt;Location: 2968797 - 2969996" locus_tag="TFC3_RS13175" class="clusterblast-orf" id="dummy-1_h1_7_32"  />
</g>
</svg>
