<svg xmlns="http://www.w3.org/2000/svg" xmlns:xlink="http://www.w3.org/1999/xlink" version="1.1" x="0" y="0" height="230" width="800" viewBox="0 0 800 230" preserveAspectRatio="none"  >
<g label="Query sequence" class="clusterblast-cluster"  >
<text x="5" y="20" class="clusterblast-acc"  >
Query sequence</text>
<line x1="10" y1="35" x2="778.0" y2="35" style="stroke-width:1; stroke:grey; "  />
<polygon points="276,35 281,30 283,30 283,40 281,40 276,35 " style="fill:white; stroke-width:1; stroke:black; " description="&lt;b&gt;ctg48_1&lt;/b&gt;&lt;br&gt;ctg48 1&lt;br&gt;Location: 69 - 801" locus_tag="ctg48_1" class="clusterblast-orf" id="dummy-1_q0_0_all"  />
<polygon points="283,35 288,30 291,30 291,40 288,40 283,35 " style="fill:white; stroke-width:1; stroke:black; " description="&lt;b&gt;ctg48_2&lt;/b&gt;&lt;br&gt;ctg48 2&lt;br&gt;Location: 797 - 1688" locus_tag="ctg48_2" class="clusterblast-orf" id="dummy-1_q1_0_all"  />
<polygon points="291,35 296,30 301,30 301,40 296,40 291,35 " style="fill:white; stroke-width:1; stroke:black; " description="&lt;b&gt;ctg48_3&lt;/b&gt;&lt;br&gt;ctg48 3&lt;br&gt;Location: 1695 - 2766" locus_tag="ctg48_3" class="clusterblast-orf" id="dummy-1_q2_0_all"  />
<polygon points="301,35 306,30 316,30 316,40 306,40 301,35 " style="fill:white; stroke-width:1; stroke:black; " description="&lt;b&gt;ctg48_4&lt;/b&gt;&lt;br&gt;ctg48 4&lt;br&gt;Location: 2747 - 4439" locus_tag="ctg48_4" class="clusterblast-orf" id="dummy-1_q3_0_all"  />
<polygon points="316,35 321,30 325,30 325,40 321,40 316,35 " style="fill:white; stroke-width:1; stroke:black; " description="&lt;b&gt;ctg48_5&lt;/b&gt;&lt;br&gt;ctg48 5&lt;br&gt;Location: 4490 - 5474" locus_tag="ctg48_5" class="clusterblast-orf" id="dummy-1_q4_0_all"  />
<polygon points="326,40 334,40 339,35 334,30 326,30 326,40 " style="fill:white; stroke-width:1; stroke:black; " description="&lt;b&gt;ctg48_6&lt;/b&gt;&lt;br&gt;ctg48 6&lt;br&gt;Location: 5567 - 6998" locus_tag="ctg48_6" class="clusterblast-orf" id="dummy-1_q5_0_all"  />
<polygon points="342,40 347,40 352,35 347,30 342,30 342,40 " style="fill:#d81515; stroke-width:1; stroke:black; " description="&lt;b&gt;ctg48_7&lt;/b&gt;&lt;br&gt;ctg48 7&lt;br&gt;Location: 7302 - 8499" locus_tag="ctg48_7" class="clusterblast-orf" id="dummy-1_q6_0_all"  />
<polygon points="353,35 358,30 363,30 363,40 358,40 353,35 " style="fill:#15d815; stroke-width:1; stroke:black; " description="&lt;b&gt;ctg48_8&lt;/b&gt;&lt;br&gt;ctg48 8&lt;br&gt;Location: 8559 - 9639" locus_tag="ctg48_8" class="clusterblast-orf" id="dummy-1_q7_0_all"  />
<polygon points="363,35 368,30 371,30 371,40 368,40 363,35 " style="fill:#1597d8; stroke-width:1; stroke:black; " description="&lt;b&gt;ctg48_9&lt;/b&gt;&lt;br&gt;ctg48 9&lt;br&gt;Location: 9659 - 10583" locus_tag="ctg48_9" class="clusterblast-orf" id="dummy-1_q8_0_all"  />
<polygon points="373,35 378,30 380,30 380,40 378,40 373,35 " style="fill:#9715d8; stroke-width:1; stroke:black; " description="&lt;b&gt;ctg48_10&lt;/b&gt;&lt;br&gt;ctg48 10&lt;br&gt;Location: 10784 - 11618" locus_tag="ctg48_10" class="clusterblast-orf" id="dummy-1_q9_0_all"  />
<polygon points="380,35 385,30 391,30 391,40 385,40 380,35 " style="fill:#d89715; stroke-width:1; stroke:black; " description="&lt;b&gt;ctg48_11&lt;/b&gt;&lt;br&gt;ctg48 11&lt;br&gt;Location: 11614 - 12766" locus_tag="ctg48_11" class="clusterblast-orf" id="dummy-1_q10_0_all"  />
<polygon points="391,40 397,40 402,35 397,30 391,30 391,40 " style="fill:white; stroke-width:1; stroke:black; " description="&lt;b&gt;ctg48_12&lt;/b&gt;&lt;br&gt;ctg48 12&lt;br&gt;Location: 12786 - 13989" locus_tag="ctg48_12" class="clusterblast-orf" id="dummy-1_q11_0_all"  />
<polygon points="402,35 407,30 410,30 410,40 407,40 402,35 " style="fill:white; stroke-width:1; stroke:black; " description="&lt;b&gt;ctg48_13&lt;/b&gt;&lt;br&gt;ctg48 13&lt;br&gt;Location: 14051 - 14882" locus_tag="ctg48_13" class="clusterblast-orf" id="dummy-1_q12_0_all"  />
<polygon points="410,35 415,30 421,30 421,40 415,40 410,35 " style="fill:#15d897; stroke-width:1; stroke:black; " description="&lt;b&gt;ctg48_14&lt;/b&gt;&lt;br&gt;ctg48 14&lt;br&gt;Location: 14878 - 16189" locus_tag="ctg48_14" class="clusterblast-orf" id="dummy-1_q13_0_all"  />
<polygon points="421,35 426,30 432,30 432,40 426,40 421,35 " style="fill:#1515d8; stroke-width:1; stroke:black; " description="&lt;b&gt;ctg48_15&lt;/b&gt;&lt;br&gt;ctg48 15&lt;br&gt;Location: 16185 - 17301" locus_tag="ctg48_15" class="clusterblast-orf" id="dummy-1_q14_0_all"  />
<polygon points="432,35 435,30 435,40 432,35 " style="fill:#d81597; stroke-width:1; stroke:black; " description="&lt;b&gt;ctg48_16&lt;/b&gt;&lt;br&gt;ctg48 16&lt;br&gt;Location: 17403 - 17676" locus_tag="ctg48_16" class="clusterblast-orf" id="dummy-1_q15_0_all"  />
<polygon points="438,35 443,30 503,30 503,40 443,40 438,35 " style="fill:#97d815; stroke-width:1; stroke:black; " description="&lt;b&gt;ctg48_17&lt;/b&gt;&lt;br&gt;ctg48 17&lt;br&gt;Location: 18022 - 25219" locus_tag="ctg48_17" class="clusterblast-orf" id="dummy-1_q16_0_all"  />
</g>
<g label="BGC0000429" description="BGC0000429_c1: Skyllamycin (6% of genes show similarity), nrps" class="clusterblast-cluster"  >
<text x="5" y="70" class="clusterblast-acc"  >
<a xlink:href="https://mibig.secondarymetabolites.org/go/BGC0000429/1" target="_blank">BGC0000429</a>:                                                                      Skyllamycin (6% of genes show similarity), nrps</text>
<line x1="10" y1="85" x2="778.0" y2="85" style="stroke-width:1; stroke:grey; "  />
</g>
<g id="a1_000"  >
<polygon points="0,85 2,80 2,90 0,85 " style="fill:white; stroke-width:1; stroke:black; " description="&lt;b&gt;AEA30292.1&lt;/b&gt;&lt;br&gt;putative DNA polymerase III&lt;br&gt;Location: 86806 - 86556" locus_tag="AEA30292.1" class="clusterblast-orf" id="dummy-1_h1_3_0"  />
</g>
<g id="a1_001"  >
<polygon points="8,90 13,90 18,85 13,80 8,80 8,90 " style="fill:white; stroke-width:1; stroke:black; " description="&lt;b&gt;AEA30291.1&lt;/b&gt;&lt;br&gt;putative DNA-binding protein&lt;br&gt;Location: 85858 - 84713" locus_tag="AEA30291.1" class="clusterblast-orf" id="dummy-1_h1_3_1"  />
</g>
<g id="a1_002"  >
<polygon points="28,90 31,90 36,85 31,80 28,80 28,90 " style="fill:white; stroke-width:1; stroke:black; " description="&lt;b&gt;AEA30290.1&lt;/b&gt;&lt;br&gt;putative LuxR-family transcriptional regulator&lt;br&gt;Location: 83590 - 82799" locus_tag="AEA30290.1" class="clusterblast-orf" id="dummy-1_h1_3_2"  />
</g>
<g id="a1_003"  >
<polygon points="37,90 39,90 44,85 39,80 37,80 37,90 " style="fill:white; stroke-width:1; stroke:black; " description="&lt;b&gt;AEA30289.1&lt;/b&gt;&lt;br&gt;putative LuxR-family transcriptional regulator&lt;br&gt;Location: 82651 - 81812" locus_tag="AEA30289.1" class="clusterblast-orf" id="dummy-1_h1_3_3"  />
</g>
<g id="a1_004"  >
<polygon points="48,90 49,90 54,85 49,80 48,80 48,90 " style="fill:white; stroke-width:1; stroke:black; " description="&lt;b&gt;AEA30288.1&lt;/b&gt;&lt;br&gt;putative IclR-family transcriptional regulator&lt;br&gt;Location: 81394 - 80717" locus_tag="AEA30288.1" class="clusterblast-orf" id="dummy-1_h1_3_4"  />
</g>
<g id="a1_005"  >
<polygon points="55,90 67,90 72,85 67,80 55,80 55,90 " style="fill:white; stroke-width:1; stroke:black; " description="&lt;b&gt;AEA30287.1&lt;/b&gt;&lt;br&gt;putative AfsR-like transcriptional regulator&lt;br&gt;Location: 80688 - 78748" locus_tag="AEA30287.1" class="clusterblast-orf" id="dummy-1_h1_3_5"  />
</g>
<g id="a1_006"  >
<polygon points="78,90 80,90 85,85 80,80 78,80 78,90 " style="fill:white; stroke-width:1; stroke:black; " description="&lt;b&gt;AEA30286.1&lt;/b&gt;&lt;br&gt;putative IclR-family transcriptional regulator&lt;br&gt;Location: 78055 - 77324" locus_tag="AEA30286.1" class="clusterblast-orf" id="dummy-1_h1_3_6"  />
</g>
<g id="a1_007"  >
<polygon points="91,90 95,85 91,80 91,90 " style="fill:white; stroke-width:1; stroke:black; " description="&lt;b&gt;AEA30285.1&lt;/b&gt;&lt;br&gt;glutamate mutase subunit A&lt;br&gt;Location: 76663 - 76193" locus_tag="AEA30285.1" class="clusterblast-orf" id="dummy-1_h1_3_7"  />
</g>
<g id="a1_008"  >
<polygon points="95,90 102,90 107,85 102,80 95,80 95,90 " style="fill:white; stroke-width:1; stroke:black; " description="&lt;b&gt;AEA30284.1&lt;/b&gt;&lt;br&gt;glutamate mutase subunit B&lt;br&gt;Location: 76196 - 74880" locus_tag="AEA30284.1" class="clusterblast-orf" id="dummy-1_h1_3_8"  />
</g>
<g id="a1_009"  >
<polygon points="108,85 113,80 113,80 113,90 113,90 108,85 " style="fill:white; stroke-width:1; stroke:black; " description="&lt;b&gt;AEA30283.1&lt;/b&gt;&lt;br&gt;putative flavin reductase&lt;br&gt;Location: 74789 - 74223" locus_tag="AEA30283.1" class="clusterblast-orf" id="dummy-1_h1_3_9"  />
</g>
<g id="a1_0010"  >
<polygon points="113,85 118,80 123,80 123,90 118,90 113,85 " style="fill:white; stroke-width:1; stroke:black; " description="&lt;b&gt;AEA30282.1&lt;/b&gt;&lt;br&gt;flavin-dependent monooxygenase&lt;br&gt;Location: 74186 - 73116" locus_tag="AEA30282.1" class="clusterblast-orf" id="dummy-1_h1_3_10"  />
</g>
<g id="a1_0011"  >
<polygon points="123,85 128,80 131,80 131,90 128,90 123,85 " style="fill:white; stroke-width:1; stroke:black; " description="&lt;b&gt;AEA30281.1&lt;/b&gt;&lt;br&gt;putative ABC transporter&lt;br&gt;Location: 73031 - 72237" locus_tag="AEA30281.1" class="clusterblast-orf" id="dummy-1_h1_3_11"  />
</g>
<g id="a1_0012"  >
<polygon points="131,85 136,80 140,80 140,90 136,90 131,85 " style="fill:white; stroke-width:1; stroke:black; " description="&lt;b&gt;AEA30280.1&lt;/b&gt;&lt;br&gt;O-methyltransferase&lt;br&gt;Location: 72223 - 71195" locus_tag="AEA30280.1" class="clusterblast-orf" id="dummy-1_h1_3_12"  />
</g>
<g id="a1_0013"  >
<polygon points="142,85 147,80 149,80 149,90 147,90 142,85 " style="fill:white; stroke-width:1; stroke:black; " description="&lt;b&gt;AEA30279.1&lt;/b&gt;&lt;br&gt;putative ABC transporter&lt;br&gt;Location: 71025 - 70237" locus_tag="AEA30279.1" class="clusterblast-orf" id="dummy-1_h1_3_13"  />
</g>
<g id="a1_0014"  >
<polygon points="149,85 154,80 157,80 157,90 154,90 149,85 " style="fill:#d89715; stroke-width:1; stroke:black; " description="&lt;b&gt;AEA30278.1&lt;/b&gt;&lt;br&gt;putative ABC transporter&lt;br&gt;Location: 70240 - 69263&lt;br&gt;&lt;br&gt;&lt;b&gt;BlastP hit with ctg48_11&lt;/b&gt;&lt;br&gt;Percentage identity: 58&lt;br&gt;Percentage coverage: 84&lt;br&gt;BLAST bit score: 342&lt;br&gt;E-value: 6e-94" locus_tag="AEA30278.1" class="clusterblast-orf" id="dummy-1_h1_3_14"  />
</g>
<g id="a1_0015"  >
<polygon points="161,90 161,90 166,85 161,80 161,80 161,90 " style="fill:white; stroke-width:1; stroke:black; " description="&lt;b&gt;AEA30277.1&lt;/b&gt;&lt;br&gt;hypothetical protein&lt;br&gt;Location: 68863 - 68342" locus_tag="AEA30277.1" class="clusterblast-orf" id="dummy-1_h1_3_15"  />
</g>
<g id="a1_0016"  >
<polygon points="166,85 171,80 173,80 173,90 171,90 166,85 " style="fill:white; stroke-width:1; stroke:black; " description="&lt;b&gt;AEA30276.1&lt;/b&gt;&lt;br&gt;putative type II thioesterase&lt;br&gt;Location: 68322 - 67549" locus_tag="AEA30276.1" class="clusterblast-orf" id="dummy-1_h1_3_16"  />
</g>
<g id="a1_0017"  >
<polygon points="173,85 178,80 184,80 184,90 178,90 173,85 " style="fill:white; stroke-width:1; stroke:black; " description="&lt;b&gt;AEA30275.1&lt;/b&gt;&lt;br&gt;P450 monooxygenase&lt;br&gt;Location: 67552 - 66281" locus_tag="AEA30275.1" class="clusterblast-orf" id="dummy-1_h1_3_17"  />
</g>
<g id="a1_0018"  >
<polygon points="185,85 190,80 290,80 290,90 190,90 185,85 " style="fill:white; stroke-width:1; stroke:black; " description="&lt;b&gt;AEA30274.1&lt;/b&gt;&lt;br&gt;peptide synthetase&lt;br&gt;Location: 66241 - 54509" locus_tag="AEA30274.1" class="clusterblast-orf" id="dummy-1_h1_3_18"  />
</g>
<g id="a1_0019"  >
<polygon points="290,85 295,80 418,80 418,90 295,90 290,85 " style="fill:#97d815; stroke-width:1; stroke:black; " description="&lt;b&gt;AEA30273.1&lt;/b&gt;&lt;br&gt;peptide synthetase&lt;br&gt;Location: 54515 - 40329&lt;br&gt;&lt;br&gt;&lt;b&gt;BlastP hit with ctg48_17&lt;/b&gt;&lt;br&gt;Percentage identity: 50&lt;br&gt;Percentage coverage: 92&lt;br&gt;BLAST bit score: 1917&lt;br&gt;E-value: 0.0" locus_tag="AEA30273.1" class="clusterblast-orf" id="dummy-1_h1_3_19"  />
</g>
<g id="a1_0020"  >
<polygon points="418,85 423,80 546,80 546,90 423,90 418,85 " style="fill:#97d815; stroke-width:1; stroke:black; " description="&lt;b&gt;AEA30272.1&lt;/b&gt;&lt;br&gt;peptide synthetase&lt;br&gt;Location: 40332 - 26089&lt;br&gt;&lt;br&gt;&lt;b&gt;BlastP hit with ctg48_17&lt;/b&gt;&lt;br&gt;Percentage identity: 49&lt;br&gt;Percentage coverage: 92&lt;br&gt;BLAST bit score: 1913&lt;br&gt;E-value: 0.0" locus_tag="AEA30272.1" class="clusterblast-orf" id="dummy-1_h1_3_20"  />
</g>
<g id="a1_0021"  >
<polygon points="548,85 553,80 563,80 563,90 553,90 548,85 " style="fill:white; stroke-width:1; stroke:black; " description="&lt;b&gt;AEA30271.1&lt;/b&gt;&lt;br&gt;putative oxidoreductase&lt;br&gt;Location: 25910 - 24243" locus_tag="AEA30271.1" class="clusterblast-orf" id="dummy-1_h1_3_21"  />
</g>
<g id="a1_0022"  >
<polygon points="564,85 569,80 570,80 570,90 569,90 564,85 " style="fill:white; stroke-width:1; stroke:black; " description="&lt;b&gt;AEA30270.1&lt;/b&gt;&lt;br&gt;putative isomerase&lt;br&gt;Location: 24145 - 23435" locus_tag="AEA30270.1" class="clusterblast-orf" id="dummy-1_h1_3_22"  />
</g>
<g id="a1_0023"  >
<polygon points="570,85 575,80 577,80 577,90 575,90 570,85 " style="fill:white; stroke-width:1; stroke:black; " description="&lt;b&gt;AEA30269.1&lt;/b&gt;&lt;br&gt;putative 3-oxoacyl-ACP reductase&lt;br&gt;Location: 23393 - 22647" locus_tag="AEA30269.1" class="clusterblast-orf" id="dummy-1_h1_3_23"  />
</g>
<g id="a1_0024"  >
<polygon points="577,85 582,80 582,80 582,90 582,90 577,85 " style="fill:white; stroke-width:1; stroke:black; " description="&lt;b&gt;AEA30268.1&lt;/b&gt;&lt;br&gt;putative 3-hydroxyacyl-ACP dehydratase&lt;br&gt;Location: 22625 - 22137" locus_tag="AEA30268.1" class="clusterblast-orf" id="dummy-1_h1_3_24"  />
</g>
<g id="a1_0025"  >
<polygon points="582,85 585,80 585,90 582,85 " style="fill:white; stroke-width:1; stroke:black; " description="&lt;b&gt;AEA30267.1&lt;/b&gt;&lt;br&gt;putative dehydratase&lt;br&gt;Location: 22140 - 21751" locus_tag="AEA30267.1" class="clusterblast-orf" id="dummy-1_h1_3_25"  />
</g>
<g id="a1_0026"  >
<polygon points="586,85 588,80 588,90 586,85 " style="fill:white; stroke-width:1; stroke:black; " description="&lt;b&gt;AEA30266.1&lt;/b&gt;&lt;br&gt;putative acyl carrier protein&lt;br&gt;Location: 21697 - 21449" locus_tag="AEA30266.1" class="clusterblast-orf" id="dummy-1_h1_3_26"  />
</g>
<g id="a1_0027"  >
<polygon points="588,85 593,80 598,80 598,90 593,90 588,85 " style="fill:white; stroke-width:1; stroke:black; " description="&lt;b&gt;AEA30265.1&lt;/b&gt;&lt;br&gt;putative 3-oxoacyl-ACP synthase I&lt;br&gt;Location: 21389 - 20286" locus_tag="AEA30265.1" class="clusterblast-orf" id="dummy-1_h1_3_27"  />
</g>
<g id="a1_0028"  >
<polygon points="599,85 604,80 608,80 608,90 604,90 599,85 " style="fill:white; stroke-width:1; stroke:black; " description="&lt;b&gt;AEA30264.1&lt;/b&gt;&lt;br&gt;putative thioesterase&lt;br&gt;Location: 20257 - 19217" locus_tag="AEA30264.1" class="clusterblast-orf" id="dummy-1_h1_3_28"  />
</g>
<g id="a1_0029"  >
<polygon points="608,85 613,80 615,80 615,90 613,90 608,85 " style="fill:white; stroke-width:1; stroke:black; " description="&lt;b&gt;AEA30263.1&lt;/b&gt;&lt;br&gt;putative hydrolase&lt;br&gt;Location: 19211 - 18393" locus_tag="AEA30263.1" class="clusterblast-orf" id="dummy-1_h1_3_29"  />
</g>
<g id="a1_0030"  >
<polygon points="616,85 621,80 624,80 624,90 621,90 616,85 " style="fill:white; stroke-width:1; stroke:black; " description="&lt;b&gt;AEA30262.1&lt;/b&gt;&lt;br&gt;putative 3-oxoacyl-ACP synthase I&lt;br&gt;Location: 18348 - 17386" locus_tag="AEA30262.1" class="clusterblast-orf" id="dummy-1_h1_3_30"  />
</g>
<g id="a1_0031"  >
<polygon points="624,85 629,80 635,80 635,90 629,90 624,85 " style="fill:white; stroke-width:1; stroke:black; " description="&lt;b&gt;AEA30261.1&lt;/b&gt;&lt;br&gt;putative 3-oxoacyl-ACP synthase II&lt;br&gt;Location: 17389 - 16256" locus_tag="AEA30261.1" class="clusterblast-orf" id="dummy-1_h1_3_31"  />
</g>
<g id="a1_0032"  >
<polygon points="634,85 639,80 646,80 646,90 639,90 634,85 " style="fill:white; stroke-width:1; stroke:black; " description="&lt;b&gt;AEA30260.1&lt;/b&gt;&lt;br&gt;putative 3-oxoacyl-ACP synthase II&lt;br&gt;Location: 16259 - 15003" locus_tag="AEA30260.1" class="clusterblast-orf" id="dummy-1_h1_3_32"  />
</g>
<g id="a1_0033"  >
<polygon points="646,85 649,80 649,90 646,85 " style="fill:white; stroke-width:1; stroke:black; " description="&lt;b&gt;AEA30259.1&lt;/b&gt;&lt;br&gt;putative acyl carrier protein&lt;br&gt;Location: 14950 - 14696" locus_tag="AEA30259.1" class="clusterblast-orf" id="dummy-1_h1_3_33"  />
</g>
<g id="a1_0034"  >
<polygon points="652,90 654,85 652,80 652,90 " style="fill:white; stroke-width:1; stroke:black; " description="&lt;b&gt;AEA30258.1&lt;/b&gt;&lt;br&gt;putative MbtH-like protein&lt;br&gt;Location: 14261 - 14040" locus_tag="AEA30258.1" class="clusterblast-orf" id="dummy-1_h1_3_34"  />
</g>
<g id="a1_0035"  >
<polygon points="655,85 660,80 673,80 673,90 660,90 655,85 " style="fill:white; stroke-width:1; stroke:black; " description="&lt;b&gt;AEA30257.1&lt;/b&gt;&lt;br&gt;putative ABC1-family protein kinase&lt;br&gt;Location: 13949 - 11985" locus_tag="AEA30257.1" class="clusterblast-orf" id="dummy-1_h1_3_35"  />
</g>
<g id="a1_0036"  >
<polygon points="673,85 678,80 682,80 682,90 678,90 673,85 " style="fill:white; stroke-width:1; stroke:black; " description="&lt;b&gt;AEA30256.1&lt;/b&gt;&lt;br&gt;putative ACP-acyltransferase&lt;br&gt;Location: 11932 - 11015" locus_tag="AEA30256.1" class="clusterblast-orf" id="dummy-1_h1_3_36"  />
</g>
<g id="a1_0037"  >
<polygon points="687,90 692,90 697,85 692,80 687,80 687,90 " style="fill:white; stroke-width:1; stroke:black; " description="&lt;b&gt;AEA30255.1&lt;/b&gt;&lt;br&gt;putative isoprenyl diphosphate synthase&lt;br&gt;Location: 10375 - 9332" locus_tag="AEA30255.1" class="clusterblast-orf" id="dummy-1_h1_3_37"  />
</g>
<g id="a1_0038"  >
<polygon points="697,90 706,90 711,85 706,80 697,80 697,90 " style="fill:white; stroke-width:1; stroke:black; " description="&lt;b&gt;AEA30254.1&lt;/b&gt;&lt;br&gt;putative carboxyltransferase&lt;br&gt;Location: 9338 - 7755" locus_tag="AEA30254.1" class="clusterblast-orf" id="dummy-1_h1_3_38"  />
</g>
<g id="a1_0039"  >
<polygon points="713,85 718,80 726,80 726,90 718,90 713,85 " style="fill:white; stroke-width:1; stroke:black; " description="&lt;b&gt;AEA30253.1&lt;/b&gt;&lt;br&gt;putative integrin-like protein&lt;br&gt;Location: 7495 - 6119" locus_tag="AEA30253.1" class="clusterblast-orf" id="dummy-1_h1_3_39"  />
</g>
<g id="a1_0040"  >
<polygon points="727,85 729,80 729,90 727,85 " style="fill:white; stroke-width:1; stroke:black; " description="&lt;b&gt;AEA30252.1&lt;/b&gt;&lt;br&gt;hypothetical protein&lt;br&gt;Location: 5963 - 5727" locus_tag="AEA30252.1" class="clusterblast-orf" id="dummy-1_h1_3_40"  />
</g>
<g id="a1_0041"  >
<polygon points="729,85 734,80 737,80 737,90 734,90 729,85 " style="fill:white; stroke-width:1; stroke:black; " description="&lt;b&gt;AEA30251.1&lt;/b&gt;&lt;br&gt;putative DNA-binding protein&lt;br&gt;Location: 5730 - 4894" locus_tag="AEA30251.1" class="clusterblast-orf" id="dummy-1_h1_3_41"  />
</g>
<g id="a1_0042"  >
<polygon points="738,90 742,85 738,80 738,90 " style="fill:white; stroke-width:1; stroke:black; " description="&lt;b&gt;AEA30250.1&lt;/b&gt;&lt;br&gt;hypothetical protein&lt;br&gt;Location: 4737 - 4330" locus_tag="AEA30250.1" class="clusterblast-orf" id="dummy-1_h1_3_42"  />
</g>
<g id="a1_0043"  >
<polygon points="742,85 747,80 747,80 747,90 747,90 742,85 " style="fill:white; stroke-width:1; stroke:black; " description="&lt;b&gt;AEA30249.1&lt;/b&gt;&lt;br&gt;putative N-acetyltransferase&lt;br&gt;Location: 4341 - 3724" locus_tag="AEA30249.1" class="clusterblast-orf" id="dummy-1_h1_3_43"  />
</g>
<g id="a1_0044"  >
<polygon points="749,90 750,90 755,85 750,80 749,80 749,90 " style="fill:white; stroke-width:1; stroke:black; " description="&lt;b&gt;AEA30248.1&lt;/b&gt;&lt;br&gt;putative isomerase&lt;br&gt;Location: 3499 - 2843" locus_tag="AEA30248.1" class="clusterblast-orf" id="dummy-1_h1_3_44"  />
</g>
<g id="a1_0045"  >
<polygon points="755,90 760,90 765,85 760,80 755,80 755,90 " style="fill:white; stroke-width:1; stroke:black; " description="&lt;b&gt;AEA30247.1&lt;/b&gt;&lt;br&gt;putative oxidoreductase&lt;br&gt;Location: 2841 - 1723" locus_tag="AEA30247.1" class="clusterblast-orf" id="dummy-1_h1_3_45"  />
</g>
<g id="a1_0046"  >
<polygon points="767,90 771,85 767,80 767,90 " style="fill:white; stroke-width:1; stroke:black; " description="&lt;b&gt;AEA30246.1&lt;/b&gt;&lt;br&gt;putative cytosine/adenosine deaminase&lt;br&gt;Location: 1572 - 1093" locus_tag="AEA30246.1" class="clusterblast-orf" id="dummy-1_h1_3_46"  />
</g>
<g id="a1_0047"  >
<polygon points="772,90 775,85 772,80 772,90 " style="fill:white; stroke-width:1; stroke:black; " description="&lt;b&gt;AEA30244.1&lt;/b&gt;&lt;br&gt;putative SMR-type multi-drug efflux transporter&lt;br&gt;Location: 982 - 662" locus_tag="AEA30244.1" class="clusterblast-orf" id="dummy-1_h1_3_47"  />
</g>
<g id="a1_0048"  >
<polygon points="776,90 780,85 776,80 776,90 " style="fill:white; stroke-width:1; stroke:black; " description="&lt;b&gt;AEA30245.1&lt;/b&gt;&lt;br&gt;putative SMR-type multi-drug efflux transporter&lt;br&gt;Location: 561 - 148" locus_tag="AEA30245.1" class="clusterblast-orf" id="dummy-1_h1_3_48"  />
</g>
</svg>
