<svg xmlns="http://www.w3.org/2000/svg" xmlns:xlink="http://www.w3.org/1999/xlink" version="1.1" x="0" y="0" height="230" width="800" viewBox="0 0 800 230" preserveAspectRatio="none"  >
<g label="Query sequence" class="clusterblast-cluster"  >
<text x="5" y="20" class="clusterblast-acc"  >
Query sequence</text>
<line x1="10" y1="35" x2="778.0" y2="35" style="stroke-width:1; stroke:grey; "  />
<polygon points="233,35 236,30 236,40 233,35 " style="fill:white; stroke-width:1; stroke:black; " description="&lt;b&gt;ctg28_1&lt;/b&gt;&lt;br&gt;ctg28 1&lt;br&gt;Location: 1 - 268" locus_tag="ctg28_1" class="clusterblast-orf" id="dummy-1_q0_0_all"  />
<polygon points="236,35 241,30 241,30 241,40 241,40 236,35 " style="fill:white; stroke-width:1; stroke:black; " description="&lt;b&gt;ctg28_2&lt;/b&gt;&lt;br&gt;ctg28 2&lt;br&gt;Location: 267 - 792" locus_tag="ctg28_2" class="clusterblast-orf" id="dummy-1_q1_0_all"  />
<polygon points="242,35 244,30 244,40 242,35 " style="fill:white; stroke-width:1; stroke:black; " description="&lt;b&gt;ctg28_3&lt;/b&gt;&lt;br&gt;ctg28 3&lt;br&gt;Location: 825 - 1089" locus_tag="ctg28_3" class="clusterblast-orf" id="dummy-1_q2_0_all"  />
<polygon points="244,35 249,30 252,30 252,40 249,40 244,35 " style="fill:white; stroke-width:1; stroke:black; " description="&lt;b&gt;ctg28_4&lt;/b&gt;&lt;br&gt;ctg28 4&lt;br&gt;Location: 1090 - 1858" locus_tag="ctg28_4" class="clusterblast-orf" id="dummy-1_q3_0_all"  />
<polygon points="252,35 257,30 257,30 257,40 257,40 252,35 " style="fill:white; stroke-width:1; stroke:black; " description="&lt;b&gt;ctg28_5&lt;/b&gt;&lt;br&gt;ctg28 5&lt;br&gt;Location: 1859 - 2303" locus_tag="ctg28_5" class="clusterblast-orf" id="dummy-1_q4_0_all"  />
<polygon points="257,35 260,30 260,40 257,35 " style="fill:white; stroke-width:1; stroke:black; " description="&lt;b&gt;ctg28_6&lt;/b&gt;&lt;br&gt;ctg28 6&lt;br&gt;Location: 2325 - 2616" locus_tag="ctg28_6" class="clusterblast-orf" id="dummy-1_q5_0_all"  />
<polygon points="266,40 268,35 266,30 266,40 " style="fill:white; stroke-width:1; stroke:black; " description="&lt;b&gt;ctg28_7&lt;/b&gt;&lt;br&gt;ctg28 7&lt;br&gt;Location: 3262 - 3430" locus_tag="ctg28_7" class="clusterblast-orf" id="dummy-1_q6_0_all"  />
<polygon points="269,40 273,40 278,35 273,30 269,30 269,40 " style="fill:#d81515; stroke-width:1; stroke:black; " description="&lt;b&gt;ctg28_8&lt;/b&gt;&lt;br&gt;ctg28 8&lt;br&gt;Location: 3562 - 4429" locus_tag="ctg28_8" class="clusterblast-orf" id="dummy-1_q7_0_all"  />
<polygon points="279,35 284,30 284,30 284,40 284,40 279,35 " style="fill:#77d815; stroke-width:1; stroke:black; " description="&lt;b&gt;ctg28_9&lt;/b&gt;&lt;br&gt;ctg28 9&lt;br&gt;Location: 4518 - 4956" locus_tag="ctg28_9" class="clusterblast-orf" id="dummy-1_q8_0_all"  />
<polygon points="285,35 290,30 302,30 302,40 290,40 285,35 " style="fill:#15d8d8; stroke-width:1; stroke:black; " description="&lt;b&gt;ctg28_10&lt;/b&gt;&lt;br&gt;ctg28 10&lt;br&gt;Location: 5075 - 6770" locus_tag="ctg28_10" class="clusterblast-orf" id="dummy-1_q9_0_all"  />
<polygon points="303,35 308,30 313,30 313,40 308,40 303,35 " style="fill:#7715d8; stroke-width:1; stroke:black; " description="&lt;b&gt;ctg28_11&lt;/b&gt;&lt;br&gt;ctg28 11&lt;br&gt;Location: 6854 - 7814" locus_tag="ctg28_11" class="clusterblast-orf" id="dummy-1_q10_0_all"  />
<polygon points="313,35 318,30 327,30 327,40 318,40 313,35 " style="fill:#d84615; stroke-width:1; stroke:black; " description="&lt;b&gt;ctg28_12&lt;/b&gt;&lt;br&gt;ctg28 12&lt;br&gt;Location: 7810 - 9211" locus_tag="ctg28_12" class="clusterblast-orf" id="dummy-1_q11_0_all"  />
<polygon points="328,35 333,30 337,30 337,40 333,40 328,35 " style="fill:#46d815; stroke-width:1; stroke:black; " description="&lt;b&gt;ctg28_13&lt;/b&gt;&lt;br&gt;ctg28 13&lt;br&gt;Location: 9281 - 10226" locus_tag="ctg28_13" class="clusterblast-orf" id="dummy-1_q12_0_all"  />
<polygon points="338,35 343,30 351,30 351,40 343,40 338,35 " style="fill:#15a7d8; stroke-width:1; stroke:black; " description="&lt;b&gt;ctg28_14&lt;/b&gt;&lt;br&gt;ctg28 14&lt;br&gt;Location: 10298 - 11603" locus_tag="ctg28_14" class="clusterblast-orf" id="dummy-1_q13_0_all"  />
<polygon points="351,35 356,30 362,30 362,40 356,40 351,35 " style="fill:#a715d8; stroke-width:1; stroke:black; " description="&lt;b&gt;ctg28_15&lt;/b&gt;&lt;br&gt;ctg28 15&lt;br&gt;Location: 11599 - 12679" locus_tag="ctg28_15" class="clusterblast-orf" id="dummy-1_q14_0_all"  />
<polygon points="362,35 367,30 372,30 372,40 367,40 362,35 " style="fill:#d87715; stroke-width:1; stroke:black; " description="&lt;b&gt;ctg28_16&lt;/b&gt;&lt;br&gt;ctg28 16&lt;br&gt;Location: 12650 - 13634" locus_tag="ctg28_16" class="clusterblast-orf" id="dummy-1_q15_0_all"  />
<polygon points="372,35 377,30 383,30 383,40 377,40 372,35 " style="fill:#15d815; stroke-width:1; stroke:black; " description="&lt;b&gt;ctg28_17&lt;/b&gt;&lt;br&gt;ctg28 17&lt;br&gt;Location: 13630 - 14698" locus_tag="ctg28_17" class="clusterblast-orf" id="dummy-1_q16_0_all"  />
<polygon points="383,35 388,30 395,30 395,40 388,40 383,35 " style="fill:#1577d8; stroke-width:1; stroke:black; " description="&lt;b&gt;ctg28_18&lt;/b&gt;&lt;br&gt;ctg28 18&lt;br&gt;Location: 14723 - 15863" locus_tag="ctg28_18" class="clusterblast-orf" id="dummy-1_q17_0_all"  />
<polygon points="395,35 400,30 401,30 401,40 400,40 395,35 " style="fill:#d815d8; stroke-width:1; stroke:black; " description="&lt;b&gt;ctg28_19&lt;/b&gt;&lt;br&gt;ctg28 19&lt;br&gt;Location: 15859 - 16441" locus_tag="ctg28_19" class="clusterblast-orf" id="dummy-1_q18_0_all"  />
<polygon points="401,35 406,30 413,30 413,40 406,40 401,35 " style="fill:#d8a715; stroke-width:1; stroke:black; " description="&lt;b&gt;ctg28_20&lt;/b&gt;&lt;br&gt;ctg28 20&lt;br&gt;Location: 16440 - 17637" locus_tag="ctg28_20" class="clusterblast-orf" id="dummy-1_q19_0_all"  />
<polygon points="413,35 418,30 426,30 426,40 418,40 413,35 " style="fill:#15d846; stroke-width:1; stroke:black; " description="&lt;b&gt;ctg28_21&lt;/b&gt;&lt;br&gt;ctg28 21&lt;br&gt;Location: 17665 - 18958" locus_tag="ctg28_21" class="clusterblast-orf" id="dummy-1_q20_0_all"  />
<polygon points="427,35 432,30 439,30 439,40 432,40 427,35 " style="fill:#1546d8; stroke-width:1; stroke:black; " description="&lt;b&gt;ctg28_22&lt;/b&gt;&lt;br&gt;ctg28 22&lt;br&gt;Location: 19016 - 20237" locus_tag="ctg28_22" class="clusterblast-orf" id="dummy-1_q21_0_all"  />
<polygon points="439,35 444,30 460,30 460,40 444,40 439,35 " style="fill:#d815a7; stroke-width:1; stroke:black; " description="&lt;b&gt;ctg28_23&lt;/b&gt;&lt;br&gt;ctg28 23&lt;br&gt;Location: 20245 - 22225" locus_tag="ctg28_23" class="clusterblast-orf" id="dummy-1_q22_0_all"  />
<polygon points="460,35 465,30 469,30 469,40 465,40 460,35 " style="fill:#d8d815; stroke-width:1; stroke:black; " description="&lt;b&gt;ctg28_24&lt;/b&gt;&lt;br&gt;ctg28 24&lt;br&gt;Location: 22227 - 23163" locus_tag="ctg28_24" class="clusterblast-orf" id="dummy-1_q23_0_all"  />
<polygon points="469,35 474,30 477,30 477,40 474,40 469,35 " style="fill:#15d877; stroke-width:1; stroke:black; " description="&lt;b&gt;ctg28_25&lt;/b&gt;&lt;br&gt;ctg28 25&lt;br&gt;Location: 23182 - 23968" locus_tag="ctg28_25" class="clusterblast-orf" id="dummy-1_q24_0_all"  />
<polygon points="479,35 481,30 481,40 479,35 " style="fill:#1515d8; stroke-width:1; stroke:black; " description="&lt;b&gt;ctg28_26&lt;/b&gt;&lt;br&gt;ctg28 26&lt;br&gt;Location: 24103 - 24373" locus_tag="ctg28_26" class="clusterblast-orf" id="dummy-1_q25_0_all"  />
<polygon points="482,35 487,30 495,30 495,40 487,40 482,35 " style="fill:#d81577; stroke-width:1; stroke:black; " description="&lt;b&gt;ctg28_27&lt;/b&gt;&lt;br&gt;ctg28 27&lt;br&gt;Location: 24460 - 25684" locus_tag="ctg28_27" class="clusterblast-orf" id="dummy-1_q26_0_all"  />
<polygon points="495,35 500,30 508,30 508,40 500,40 495,35 " style="fill:#a7d815; stroke-width:1; stroke:black; " description="&lt;b&gt;ctg28_28&lt;/b&gt;&lt;br&gt;ctg28 28&lt;br&gt;Location: 25680 - 26961" locus_tag="ctg28_28" class="clusterblast-orf" id="dummy-1_q27_0_all"  />
<polygon points="508,35 510,30 510,40 508,35 " style="fill:#15d8a7; stroke-width:1; stroke:black; " description="&lt;b&gt;ctg28_29&lt;/b&gt;&lt;br&gt;ctg28 29&lt;br&gt;Location: 26957 - 27185" locus_tag="ctg28_29" class="clusterblast-orf" id="dummy-1_q28_0_all"  />
<polygon points="511,35 516,30 526,30 526,40 516,40 511,35 " style="fill:#d815a7; stroke-width:1; stroke:black; " description="&lt;b&gt;ctg28_30&lt;/b&gt;&lt;br&gt;ctg28 30&lt;br&gt;Location: 27295 - 28783" locus_tag="ctg28_30" class="clusterblast-orf" id="dummy-1_q29_0_all"  />
<polygon points="527,40 530,35 527,30 527,40 " style="fill:white; stroke-width:1; stroke:black; " description="&lt;b&gt;ctg28_31&lt;/b&gt;&lt;br&gt;ctg28 31&lt;br&gt;Location: 28868 - 29126" locus_tag="ctg28_31" class="clusterblast-orf" id="dummy-1_q30_0_all"  />
<polygon points="530,35 535,30 536,30 536,40 535,40 530,35 " style="fill:#4615d8; stroke-width:1; stroke:black; " description="&lt;b&gt;ctg28_32&lt;/b&gt;&lt;br&gt;ctg28 32&lt;br&gt;Location: 29105 - 29753" locus_tag="ctg28_32" class="clusterblast-orf" id="dummy-1_q31_0_all"  />
<polygon points="540,35 545,30 546,30 546,40 545,40 540,35 " style="fill:#d81546; stroke-width:1; stroke:black; " description="&lt;b&gt;ctg28_33&lt;/b&gt;&lt;br&gt;ctg28 33&lt;br&gt;Location: 30087 - 30720" locus_tag="ctg28_33" class="clusterblast-orf" id="dummy-1_q32_0_all"  />
</g>
<g label="BGC0000268" description="BGC0000268_c1: Sch47554 / Sch47555 (41% of genes show similarity), t2pks" class="clusterblast-cluster"  >
<text x="5" y="70" class="clusterblast-acc"  >
<a xlink:href="https://mibig.secondarymetabolites.org/go/BGC0000268/1" target="_blank">BGC0000268</a>:                                                              Sch47554 / Sch47555 (41% of genes show similarity), t2pks</text>
<line x1="10" y1="85" x2="778.0" y2="85" style="stroke-width:1; stroke:grey; "  />
</g>
<g id="a1_000"  >
<polygon points="0,90 5,90 10,85 5,80 0,80 0,90 " style="fill:white; stroke-width:1; stroke:black; " description="&lt;b&gt;CAH10092.1&lt;/b&gt;&lt;br&gt;putative transport system permease ABC transporter&lt;br&gt;Location: 498 - 1481" locus_tag="CAH10092.1" class="clusterblast-orf" id="dummy-1_h1_3_0"  />
</g>
<g id="a1_001"  >
<polygon points="10,90 14,90 19,85 14,80 10,80 10,90 " style="fill:white; stroke-width:1; stroke:black; " description="&lt;b&gt;CAH10093.1&lt;/b&gt;&lt;br&gt;putative Oligogalacturonate transport system permease protein&lt;br&gt;Location: 1515 - 2402" locus_tag="CAH10093.1" class="clusterblast-orf" id="dummy-1_h1_3_1"  />
</g>
<g id="a1_002"  >
<polygon points="41,85 46,80 52,80 52,90 46,90 41,85 " style="fill:white; stroke-width:1; stroke:black; " description="&lt;b&gt;CAH10094.1&lt;/b&gt;&lt;br&gt;putative 3-(2-hydroxyphenyl) propionic acid transporter&lt;br&gt;Location: 4587 - 5666" locus_tag="CAH10094.1" class="clusterblast-orf" id="dummy-1_h1_3_2"  />
</g>
<g id="a1_003"  >
<polygon points="58,85 63,80 65,80 65,90 63,90 58,85 " style="fill:white; stroke-width:1; stroke:black; " description="&lt;b&gt;CAH10095.1&lt;/b&gt;&lt;br&gt;putative TetR family transcriptional regulator&lt;br&gt;Location: 6218 - 6883" locus_tag="CAH10095.1" class="clusterblast-orf" id="dummy-1_h1_3_3"  />
</g>
<g id="a1_004"  >
<polygon points="66,90 71,90 76,85 71,80 66,80 66,90 " style="fill:white; stroke-width:1; stroke:black; " description="&lt;b&gt;CAH10096.1&lt;/b&gt;&lt;br&gt;putative shikimate 5-dehydrogenase&lt;br&gt;Location: 7072 - 7965" locus_tag="CAH10096.1" class="clusterblast-orf" id="dummy-1_h1_3_4"  />
</g>
<g id="a1_005"  >
<polygon points="76,90 90,90 95,85 90,80 76,80 76,90 " style="fill:white; stroke-width:1; stroke:black; " description="&lt;b&gt;CAH10097.1&lt;/b&gt;&lt;br&gt;putative 4-hydroxyphenyl pyruvate dioxygenase&lt;br&gt;Location: 8041 - 9921" locus_tag="CAH10097.1" class="clusterblast-orf" id="dummy-1_h1_3_5"  />
</g>
<g id="a1_006"  >
<polygon points="99,90 109,90 114,85 109,80 99,80 99,90 " style="fill:white; stroke-width:1; stroke:black; " description="&lt;b&gt;CAH10098.1&lt;/b&gt;&lt;br&gt;probable amino acid transporter transmembrane protein s&lt;br&gt;Location: 10223 - 11704" locus_tag="CAH10098.1" class="clusterblast-orf" id="dummy-1_h1_3_6"  />
</g>
<g id="a1_007"  >
<polygon points="114,90 119,90 124,85 119,80 114,80 114,90 " style="fill:white; stroke-width:1; stroke:black; " description="&lt;b&gt;CAH10099.1&lt;/b&gt;&lt;br&gt;hypothetical protein&lt;br&gt;Location: 11716 - 12678" locus_tag="CAH10099.1" class="clusterblast-orf" id="dummy-1_h1_3_7"  />
</g>
<g id="a1_008"  >
<polygon points="128,85 133,80 134,80 134,90 133,90 128,85 " style="fill:white; stroke-width:1; stroke:black; " description="&lt;b&gt;CAH10100.1&lt;/b&gt;&lt;br&gt;putative phosphate mutase&lt;br&gt;Location: 13077 - 13670" locus_tag="CAH10100.1" class="clusterblast-orf" id="dummy-1_h1_3_8"  />
</g>
<g id="a1_009"  >
<polygon points="134,85 139,80 143,80 143,90 139,90 134,85 " style="fill:white; stroke-width:1; stroke:black; " description="&lt;b&gt;CAH10101.1&lt;/b&gt;&lt;br&gt;putative 6-phosphogluconate dehydrogenase&lt;br&gt;Location: 13683 - 14561" locus_tag="CAH10101.1" class="clusterblast-orf" id="dummy-1_h1_3_9"  />
</g>
<g id="a1_0010"  >
<polygon points="143,85 148,80 157,80 157,90 148,90 143,85 " style="fill:white; stroke-width:1; stroke:black; " description="&lt;b&gt;CAH10102.1&lt;/b&gt;&lt;br&gt;glucose-6-phosphate isomerase&lt;br&gt;Location: 14577 - 15980" locus_tag="CAH10102.1" class="clusterblast-orf" id="dummy-1_h1_3_10"  />
</g>
<g id="a1_0011"  >
<polygon points="160,85 165,80 169,80 169,90 165,90 160,85 " style="fill:white; stroke-width:1; stroke:black; " description="&lt;b&gt;CAH10103.1&lt;/b&gt;&lt;br&gt;hypothetical protein&lt;br&gt;Location: 16240 - 17175" locus_tag="CAH10103.1" class="clusterblast-orf" id="dummy-1_h1_3_11"  />
</g>
<g id="a1_0012"  >
<polygon points="169,85 174,80 186,80 186,90 174,90 169,85 " style="fill:white; stroke-width:1; stroke:black; " description="&lt;b&gt;CAH10104.1&lt;/b&gt;&lt;br&gt;putative glucose-6-phosphate-1-dehydrogenase&lt;br&gt;Location: 17172 - 18848" locus_tag="CAH10104.1" class="clusterblast-orf" id="dummy-1_h1_3_12"  />
</g>
<g id="a1_0013"  >
<polygon points="186,85 191,80 198,80 198,90 191,90 186,85 " style="fill:white; stroke-width:1; stroke:black; " description="&lt;b&gt;CAH10105.1&lt;/b&gt;&lt;br&gt;putative trasnaldolase&lt;br&gt;Location: 18845 - 20005" locus_tag="CAH10105.1" class="clusterblast-orf" id="dummy-1_h1_3_13"  />
</g>
<g id="a1_0014"  >
<polygon points="198,85 203,80 220,80 220,90 203,90 198,85 " style="fill:white; stroke-width:1; stroke:black; " description="&lt;b&gt;CAH10106.1&lt;/b&gt;&lt;br&gt;putative transketolase&lt;br&gt;Location: 20025 - 22100" locus_tag="CAH10106.1" class="clusterblast-orf" id="dummy-1_h1_3_14"  />
</g>
<g id="a1_0015"  >
<polygon points="221,90 225,90 230,85 225,80 221,80 221,90 " style="fill:white; stroke-width:1; stroke:black; " description="&lt;b&gt;CAH10107.1&lt;/b&gt;&lt;br&gt;putative AraC-family transcriptional regulator&lt;br&gt;Location: 22247 - 23140" locus_tag="CAH10107.1" class="clusterblast-orf" id="dummy-1_h1_3_15"  />
</g>
<g id="a1_0016"  >
<polygon points="231,85 236,80 245,80 245,90 236,90 231,85 " style="fill:white; stroke-width:1; stroke:black; " description="&lt;b&gt;CAF31374.1&lt;/b&gt;&lt;br&gt;putative endo-1,3-beta-glucanase&lt;br&gt;Location: 23237 - 24619" locus_tag="CAF31374.1" class="clusterblast-orf" id="dummy-1_h1_3_16"  />
</g>
<g id="a1_0017"  >
<polygon points="249,85 254,80 259,80 259,90 254,90 249,85 " style="fill:white; stroke-width:1; stroke:black; " description="&lt;b&gt;CAF31373.1&lt;/b&gt;&lt;br&gt;putative oxidoreductase&lt;br&gt;Location: 25015 - 26022" locus_tag="CAF31373.1" class="clusterblast-orf" id="dummy-1_h1_3_17"  />
</g>
<g id="a1_0018"  >
<polygon points="260,85 265,80 278,80 278,90 265,90 260,85 " style="fill:white; stroke-width:1; stroke:black; " description="&lt;b&gt;CAF31372.1&lt;/b&gt;&lt;br&gt;putative Oxidoreductase, alpha subunit&lt;br&gt;Location: 26093 - 27883" locus_tag="CAF31372.1" class="clusterblast-orf" id="dummy-1_h1_3_18"  />
</g>
<g id="a1_0019"  >
<polygon points="280,85 285,80 299,80 299,90 285,90 280,85 " style="fill:white; stroke-width:1; stroke:black; " description="&lt;b&gt;CAH10108.1&lt;/b&gt;&lt;br&gt;putative Acyl-CoA carboxylase&lt;br&gt;Location: 28019 - 29872" locus_tag="CAH10108.1" class="clusterblast-orf" id="dummy-1_h1_3_19"  />
</g>
<g id="a1_0020"  >
<polygon points="300,85 305,80 316,80 316,90 305,90 300,85 " style="fill:white; stroke-width:1; stroke:black; " description="&lt;b&gt;CAF31370.1&lt;/b&gt;&lt;br&gt;putative methyl malonyl Co-A decarboxylase&lt;br&gt;Location: 30033 - 31604" locus_tag="CAF31370.1" class="clusterblast-orf" id="dummy-1_h1_3_20"  />
</g>
<g id="a1_0021"  >
<polygon points="324,85 329,80 334,80 334,90 329,90 324,85 " style="fill:#7715d8; stroke-width:1; stroke:black; " description="&lt;b&gt;CAF31369.2&lt;/b&gt;&lt;br&gt;putative dNDP-hexose 3-ketoreductase&lt;br&gt;Location: 32312 - 33334&lt;br&gt;&lt;br&gt;&lt;b&gt;BlastP hit with ctg28_11&lt;/b&gt;&lt;br&gt;Percentage identity: 72&lt;br&gt;Percentage coverage: 98&lt;br&gt;BLAST bit score: 430&lt;br&gt;E-value: 2.4e-120" locus_tag="CAF31369.2" class="clusterblast-orf" id="dummy-1_h1_3_21"  />
</g>
<g id="a1_0022"  >
<polygon points="334,85 339,80 348,80 348,90 339,90 334,85 " style="fill:#d84615; stroke-width:1; stroke:black; " description="&lt;b&gt;CAF31368.1&lt;/b&gt;&lt;br&gt;putative NDP-hexose 2, 3-dehydratase&lt;br&gt;Location: 33361 - 34758&lt;br&gt;&lt;br&gt;&lt;b&gt;BlastP hit with ctg28_12&lt;/b&gt;&lt;br&gt;Percentage identity: 82&lt;br&gt;Percentage coverage: 96&lt;br&gt;BLAST bit score: 774&lt;br&gt;E-value: 7.6e-224" locus_tag="CAF31368.1" class="clusterblast-orf" id="dummy-1_h1_3_22"  />
</g>
<g id="a1_0023"  >
<polygon points="360,85 365,80 373,80 373,90 365,90 360,85 " style="fill:#15a7d8; stroke-width:1; stroke:black; " description="&lt;b&gt;CAF31367.1&lt;/b&gt;&lt;br&gt;putative NDP-hexose 3-dehydratase&lt;br&gt;Location: 35871 - 37175&lt;br&gt;&lt;br&gt;&lt;b&gt;BlastP hit with ctg28_14&lt;/b&gt;&lt;br&gt;Percentage identity: 88&lt;br&gt;Percentage coverage: 100&lt;br&gt;BLAST bit score: 782&lt;br&gt;E-value: 3.4e-226" locus_tag="CAF31367.1" class="clusterblast-orf" id="dummy-1_h1_3_23"  />
</g>
<g id="a1_0024"  >
<polygon points="373,85 378,80 383,80 383,90 378,90 373,85 " style="fill:#a715d8; stroke-width:1; stroke:black; " description="&lt;b&gt;CAF31366.1&lt;/b&gt;&lt;br&gt;putative NDP-hexose 4-keto reductase&lt;br&gt;Location: 37175 - 38134&lt;br&gt;&lt;br&gt;&lt;b&gt;BlastP hit with ctg28_15&lt;/b&gt;&lt;br&gt;Percentage identity: 61&lt;br&gt;Percentage coverage: 88&lt;br&gt;BLAST bit score: 344&lt;br&gt;E-value: 2.5e-94" locus_tag="CAF31366.1" class="clusterblast-orf" id="dummy-1_h1_3_24"  />
</g>
<g id="a1_0025"  >
<polygon points="383,85 388,80 393,80 393,90 388,90 383,85 " style="fill:#d87715; stroke-width:1; stroke:black; " description="&lt;b&gt;CAF31365.1&lt;/b&gt;&lt;br&gt;putative dNDP-glucose 4, 6-dehydratase&lt;br&gt;Location: 38166 - 39152&lt;br&gt;&lt;br&gt;&lt;b&gt;BlastP hit with ctg28_16&lt;/b&gt;&lt;br&gt;Percentage identity: 82&lt;br&gt;Percentage coverage: 99&lt;br&gt;BLAST bit score: 577&lt;br&gt;E-value: 9.5e-165" locus_tag="CAF31365.1" class="clusterblast-orf" id="dummy-1_h1_3_25"  />
</g>
<g id="a1_0026"  >
<polygon points="393,85 398,80 404,80 404,90 398,90 393,85 " style="fill:#15d815; stroke-width:1; stroke:black; " description="&lt;b&gt;CAF31364.1&lt;/b&gt;&lt;br&gt;putative dNDP-glucose synthetase&lt;br&gt;Location: 39149 - 40216&lt;br&gt;&lt;br&gt;&lt;b&gt;BlastP hit with ctg28_17&lt;/b&gt;&lt;br&gt;Percentage identity: 65&lt;br&gt;Percentage coverage: 99&lt;br&gt;BLAST bit score: 457&lt;br&gt;E-value: 2e-128" locus_tag="CAF31364.1" class="clusterblast-orf" id="dummy-1_h1_3_26"  />
</g>
<g id="a1_0027"  >
<polygon points="405,85 410,80 416,80 416,90 410,90 405,85 " style="fill:#1577d8; stroke-width:1; stroke:black; " description="&lt;b&gt;CAF31363.2&lt;/b&gt;&lt;br&gt;putative C-glycosyltransferase&lt;br&gt;Location: 40301 - 41437&lt;br&gt;&lt;br&gt;&lt;b&gt;BlastP hit with ctg28_18&lt;/b&gt;&lt;br&gt;Percentage identity: 74&lt;br&gt;Percentage coverage: 99&lt;br&gt;BLAST bit score: 567&lt;br&gt;E-value: 1.1e-161" locus_tag="CAF31363.2" class="clusterblast-orf" id="dummy-1_h1_3_27"  />
</g>
<g id="a1_0028"  >
<polygon points="416,85 421,80 422,80 422,90 421,90 416,85 " style="fill:#d815d8; stroke-width:1; stroke:black; " description="&lt;b&gt;CAF31362.1&lt;/b&gt;&lt;br&gt;putative NDP-hexose 3, 5-epimerase&lt;br&gt;Location: 41434 - 42024&lt;br&gt;&lt;br&gt;&lt;b&gt;BlastP hit with ctg28_19&lt;/b&gt;&lt;br&gt;Percentage identity: 82&lt;br&gt;Percentage coverage: 96&lt;br&gt;BLAST bit score: 324&lt;br&gt;E-value: 1.1e-88" locus_tag="CAF31362.1" class="clusterblast-orf" id="dummy-1_h1_3_28"  />
</g>
<g id="a1_0029"  >
<polygon points="423,85 428,80 435,80 435,90 428,90 423,85 " style="fill:#d8a715; stroke-width:1; stroke:black; " description="&lt;b&gt;CAH10109.1&lt;/b&gt;&lt;br&gt;putative O-glycosyltransferase&lt;br&gt;Location: 42086 - 43258&lt;br&gt;&lt;br&gt;&lt;b&gt;BlastP hit with ctg28_20&lt;/b&gt;&lt;br&gt;Percentage identity: 72&lt;br&gt;Percentage coverage: 98&lt;br&gt;BLAST bit score: 556&lt;br&gt;E-value: 2.8e-158" locus_tag="CAH10109.1" class="clusterblast-orf" id="dummy-1_h1_3_29"  />
</g>
<g id="a1_0030"  >
<polygon points="435,85 440,80 449,80 449,90 440,90 435,85 " style="fill:#15d846; stroke-width:1; stroke:black; " description="&lt;b&gt;CAH10110.1&lt;/b&gt;&lt;br&gt;putative O-glycosyltransferase&lt;br&gt;Location: 43298 - 44590&lt;br&gt;&lt;br&gt;&lt;b&gt;BlastP hit with ctg28_21&lt;/b&gt;&lt;br&gt;Percentage identity: 75&lt;br&gt;Percentage coverage: 100&lt;br&gt;BLAST bit score: 644&lt;br&gt;E-value: 8.3e-185" locus_tag="CAH10110.1" class="clusterblast-orf" id="dummy-1_h1_3_30"  />
</g>
<g id="a1_0031"  >
<polygon points="449,85 454,80 461,80 461,90 454,90 449,85 " style="fill:#1546d8; stroke-width:1; stroke:black; " description="&lt;b&gt;CAH10111.1&lt;/b&gt;&lt;br&gt;putative transporter&lt;br&gt;Location: 44623 - 45846&lt;br&gt;&lt;br&gt;&lt;b&gt;BlastP hit with ctg28_22&lt;/b&gt;&lt;br&gt;Percentage identity: 70&lt;br&gt;Percentage coverage: 100&lt;br&gt;BLAST bit score: 494&lt;br&gt;E-value: 1.7e-139" locus_tag="CAH10111.1" class="clusterblast-orf" id="dummy-1_h1_3_31"  />
</g>
<g id="a1_0032"  >
<polygon points="463,85 468,80 481,80 481,90 468,90 463,85 " style="fill:#d815a7; stroke-width:1; stroke:black; " description="&lt;b&gt;CAH10112.1&lt;/b&gt;&lt;br&gt;putative oxidase-reducatse&lt;br&gt;Location: 45969 - 47792&lt;br&gt;&lt;br&gt;&lt;b&gt;BlastP hit with ctg28_23&lt;/b&gt;&lt;br&gt;Percentage identity: 65&lt;br&gt;Percentage coverage: 93&lt;br&gt;BLAST bit score: 730&lt;br&gt;E-value: 3e-210" locus_tag="CAH10112.1" class="clusterblast-orf" id="dummy-1_h1_3_32"  />
</g>
<g id="a1_0033"  >
<polygon points="483,85 488,80 493,80 493,90 488,90 483,85 " style="fill:#d8d815; stroke-width:1; stroke:black; " description="&lt;b&gt;CAH10113.1&lt;/b&gt;&lt;br&gt;putative aromatase&lt;br&gt;Location: 47970 - 48908&lt;br&gt;&lt;br&gt;&lt;b&gt;BlastP hit with ctg28_24&lt;/b&gt;&lt;br&gt;Percentage identity: 69&lt;br&gt;Percentage coverage: 100&lt;br&gt;BLAST bit score: 422&lt;br&gt;E-value: 4.9e-118" locus_tag="CAH10113.1" class="clusterblast-orf" id="dummy-1_h1_3_33"  />
</g>
<g id="a1_0034"  >
<polygon points="493,85 498,80 501,80 501,90 498,90 493,85 " style="fill:#15d877; stroke-width:1; stroke:black; " description="&lt;b&gt;CAH10114.1&lt;/b&gt;&lt;br&gt;putative ketoreducatse&lt;br&gt;Location: 48935 - 49735&lt;br&gt;&lt;br&gt;&lt;b&gt;BlastP hit with ctg28_25&lt;/b&gt;&lt;br&gt;Percentage identity: 84&lt;br&gt;Percentage coverage: 97&lt;br&gt;BLAST bit score: 418&lt;br&gt;E-value: 5.9e-117" locus_tag="CAH10114.1" class="clusterblast-orf" id="dummy-1_h1_3_34"  />
</g>
<g id="a1_0035"  >
<polygon points="501,85 504,80 504,90 501,85 " style="fill:#1515d8; stroke-width:1; stroke:black; " description="&lt;b&gt;CAH10115.1&lt;/b&gt;&lt;br&gt;putative acyl carrier protein&lt;br&gt;Location: 49768 - 50037&lt;br&gt;&lt;br&gt;&lt;b&gt;BlastP hit with ctg28_26&lt;/b&gt;&lt;br&gt;Percentage identity: 73&lt;br&gt;Percentage coverage: 96&lt;br&gt;BLAST bit score: 128&lt;br&gt;E-value: 7.1e-30" locus_tag="CAH10115.1" class="clusterblast-orf" id="dummy-1_h1_3_35"  />
</g>
<g id="a1_0036"  >
<polygon points="505,85 510,80 517,80 517,90 510,90 505,85 " style="fill:#d81577; stroke-width:1; stroke:black; " description="&lt;b&gt;CAH10116.1&lt;/b&gt;&lt;br&gt;putative chain length factor&lt;br&gt;Location: 50097 - 51323&lt;br&gt;&lt;br&gt;&lt;b&gt;BlastP hit with ctg28_27&lt;/b&gt;&lt;br&gt;Percentage identity: 78&lt;br&gt;Percentage coverage: 98&lt;br&gt;BLAST bit score: 621&lt;br&gt;E-value: 1.2e-177" locus_tag="CAH10116.1" class="clusterblast-orf" id="dummy-1_h1_3_36"  />
</g>
<g id="a1_0037"  >
<polygon points="517,85 522,80 530,80 530,90 522,90 517,85 " style="fill:#a7d815; stroke-width:1; stroke:black; " description="&lt;b&gt;CAH10117.1&lt;/b&gt;&lt;br&gt;putative ketoacyl synthase&lt;br&gt;Location: 51320 - 52582&lt;br&gt;&lt;br&gt;&lt;b&gt;BlastP hit with ctg28_28&lt;/b&gt;&lt;br&gt;Percentage identity: 89&lt;br&gt;Percentage coverage: 97&lt;br&gt;BLAST bit score: 737&lt;br&gt;E-value: 9.4e-213" locus_tag="CAH10117.1" class="clusterblast-orf" id="dummy-1_h1_3_37"  />
</g>
<g id="a1_0038"  >
<polygon points="530,85 534,80 534,90 530,85 " style="fill:#15d8a7; stroke-width:1; stroke:black; " description="&lt;b&gt;CAH10118.1&lt;/b&gt;&lt;br&gt;putative cyclase&lt;br&gt;Location: 52606 - 52932&lt;br&gt;&lt;br&gt;&lt;b&gt;BlastP hit with ctg28_29&lt;/b&gt;&lt;br&gt;Percentage identity: 89&lt;br&gt;Percentage coverage: 99&lt;br&gt;BLAST bit score: 145&lt;br&gt;E-value: 3.6e-35" locus_tag="CAH10118.1" class="clusterblast-orf" id="dummy-1_h1_3_38"  />
</g>
<g id="a1_0039"  >
<polygon points="534,85 539,80 549,80 549,90 539,90 534,85 " style="fill:#d815a7; stroke-width:1; stroke:black; " description="&lt;b&gt;CAH10119.1&lt;/b&gt;&lt;br&gt;putative oxygenase&lt;br&gt;Location: 52990 - 54474&lt;br&gt;&lt;br&gt;&lt;b&gt;BlastP hit with ctg28_30&lt;/b&gt;&lt;br&gt;Percentage identity: 85&lt;br&gt;Percentage coverage: 99&lt;br&gt;BLAST bit score: 840&lt;br&gt;E-value: 1.2e-243" locus_tag="CAH10119.1" class="clusterblast-orf" id="dummy-1_h1_3_39"  />
</g>
<g id="a1_0040"  >
<polygon points="552,85 557,80 561,80 561,90 557,90 552,85 " style="fill:#4615d8; stroke-width:1; stroke:black; " description="&lt;b&gt;CAH10120.1&lt;/b&gt;&lt;br&gt;unknown&lt;br&gt;Location: 54705 - 55580&lt;br&gt;&lt;br&gt;&lt;b&gt;BlastP hit with ctg28_32&lt;/b&gt;&lt;br&gt;Percentage identity: 52&lt;br&gt;Percentage coverage: 100&lt;br&gt;BLAST bit score: 208&lt;br&gt;E-value: 1e-53" locus_tag="CAH10120.1" class="clusterblast-orf" id="dummy-1_h1_3_40"  />
</g>
<g id="a1_0041"  >
<polygon points="562,85 567,80 570,80 570,90 567,90 562,85 " style="fill:#d81546; stroke-width:1; stroke:black; " description="&lt;b&gt;CAH10121.1&lt;/b&gt;&lt;br&gt;putative tetR-family regulatory protein&lt;br&gt;Location: 55722 - 56477&lt;br&gt;&lt;br&gt;&lt;b&gt;BlastP hit with ctg28_33&lt;/b&gt;&lt;br&gt;Percentage identity: 68&lt;br&gt;Percentage coverage: 97&lt;br&gt;BLAST bit score: 278&lt;br&gt;E-value: 1e-74" locus_tag="CAH10121.1" class="clusterblast-orf" id="dummy-1_h1_3_41"  />
</g>
<g id="a1_0042"  >
<polygon points="571,90 572,90 577,85 572,80 571,80 571,90 " style="fill:white; stroke-width:1; stroke:black; " description="&lt;b&gt;CAH10122.1&lt;/b&gt;&lt;br&gt;hypothetical protein&lt;br&gt;Location: 56595 - 57194" locus_tag="CAH10122.1" class="clusterblast-orf" id="dummy-1_h1_3_42"  />
</g>
<g id="a1_0043"  >
<polygon points="577,90 588,90 593,85 588,80 577,80 577,90 " style="fill:white; stroke-width:1; stroke:black; " description="&lt;b&gt;CAH10123.1&lt;/b&gt;&lt;br&gt;putative transporter&lt;br&gt;Location: 57209 - 58792" locus_tag="CAH10123.1" class="clusterblast-orf" id="dummy-1_h1_3_43"  />
</g>
<g id="a1_0044"  >
<polygon points="594,90 601,90 606,85 601,80 594,80 594,90 " style="fill:white; stroke-width:1; stroke:black; " description="&lt;b&gt;CAH10124.1&lt;/b&gt;&lt;br&gt;putative oxidoreducatse&lt;br&gt;Location: 58880 - 59998" locus_tag="CAH10124.1" class="clusterblast-orf" id="dummy-1_h1_3_44"  />
</g>
<g id="a1_0045"  >
<polygon points="608,90 612,90 617,85 612,80 608,80 608,90 " style="fill:#d81515; stroke-width:1; stroke:black; " description="&lt;b&gt;CAH10125.1&lt;/b&gt;&lt;br&gt;putative repressor-response regulator&lt;br&gt;Location: 60242 - 61093&lt;br&gt;&lt;br&gt;&lt;b&gt;BlastP hit with ctg28_8&lt;/b&gt;&lt;br&gt;Percentage identity: 59&lt;br&gt;Percentage coverage: 98&lt;br&gt;BLAST bit score: 311&lt;br&gt;E-value: 1.9e-84" locus_tag="CAH10125.1" class="clusterblast-orf" id="dummy-1_h1_3_45"  />
</g>
<g id="a1_0046"  >
<polygon points="629,85 634,80 646,80 646,90 634,90 629,85 " style="fill:#15d8d8; stroke-width:1; stroke:black; " description="&lt;b&gt;CAH10126.1&lt;/b&gt;&lt;br&gt;putative oxidoreducatse&lt;br&gt;Location: 62333 - 63931&lt;br&gt;&lt;br&gt;&lt;b&gt;BlastP hit with ctg28_10&lt;/b&gt;&lt;br&gt;Percentage identity: 72&lt;br&gt;Percentage coverage: 94&lt;br&gt;BLAST bit score: 803&lt;br&gt;E-value: 1.8e-232" locus_tag="CAH10126.1" class="clusterblast-orf" id="dummy-1_h1_3_46"  />
</g>
<g id="a1_0047"  >
<polygon points="648,85 653,80 656,80 656,90 653,90 648,85 " style="fill:white; stroke-width:1; stroke:black; " description="&lt;b&gt;CAH10127.1&lt;/b&gt;&lt;br&gt;putative transcriptional regulator&lt;br&gt;Location: 64202 - 64954" locus_tag="CAH10127.1" class="clusterblast-orf" id="dummy-1_h1_3_47"  />
</g>
<g id="a1_0048"  >
<polygon points="666,90 668,90 673,85 668,80 666,80 666,90 " style="fill:white; stroke-width:1; stroke:black; " description="&lt;b&gt;CAH10128.1&lt;/b&gt;&lt;br&gt;putative 3-Oxoacyl carrier protein reducatse&lt;br&gt;Location: 65981 - 66589" locus_tag="CAH10128.1" class="clusterblast-orf" id="dummy-1_h1_3_48"  />
</g>
<g id="a1_0049"  >
<polygon points="673,90 677,90 682,85 677,80 673,80 673,90 " style="fill:white; stroke-width:1; stroke:black; " description="&lt;b&gt;CAH10129.1&lt;/b&gt;&lt;br&gt;hypothetical protein&lt;br&gt;Location: 66593 - 67477" locus_tag="CAH10129.1" class="clusterblast-orf" id="dummy-1_h1_3_49"  />
</g>
<g id="a1_0050"  >
<polygon points="682,90 693,90 698,85 693,80 682,80 682,90 " style="fill:white; stroke-width:1; stroke:black; " description="&lt;b&gt;CAH10130.1&lt;/b&gt;&lt;br&gt;feruloyl-CoA synthetase&lt;br&gt;Location: 67521 - 69065" locus_tag="CAH10130.1" class="clusterblast-orf" id="dummy-1_h1_3_50"  />
</g>
<g id="a1_0051"  >
<polygon points="703,85 708,80 711,80 711,90 708,90 703,85 " style="fill:white; stroke-width:1; stroke:black; " description="&lt;b&gt;CAH10131.1&lt;/b&gt;&lt;br&gt;phenyl acetic acid responsive transcriptional repressor&lt;br&gt;Location: 69585 - 70373" locus_tag="CAH10131.1" class="clusterblast-orf" id="dummy-1_h1_3_51"  />
</g>
<g id="a1_0052"  >
<polygon points="712,85 717,80 729,80 729,90 717,90 712,85 " style="fill:white; stroke-width:1; stroke:black; " description="&lt;b&gt;CAH10132.1&lt;/b&gt;&lt;br&gt;hypothetical protein&lt;br&gt;Location: 70497 - 72167" locus_tag="CAH10132.1" class="clusterblast-orf" id="dummy-1_h1_3_52"  />
</g>
<g id="a1_0053"  >
<polygon points="730,85 735,80 747,80 747,90 735,90 730,85 " style="fill:white; stroke-width:1; stroke:black; " description="&lt;b&gt;CAH10133.1&lt;/b&gt;&lt;br&gt;putative secreted protein&lt;br&gt;Location: 72198 - 73847" locus_tag="CAH10133.1" class="clusterblast-orf" id="dummy-1_h1_3_53"  />
</g>
<g id="a1_0054"  >
<polygon points="750,85 755,80 779,80 779,90 755,90 750,85 " style="fill:white; stroke-width:1; stroke:black; " description="&lt;b&gt;CAH10134.1&lt;/b&gt;&lt;br&gt;beta-galactosidae&lt;br&gt;Location: 74161 - 77076" locus_tag="CAH10134.1" class="clusterblast-orf" id="dummy-1_h1_3_54"  />
</g>
</svg>
