<svg xmlns="http://www.w3.org/2000/svg" xmlns:xlink="http://www.w3.org/1999/xlink" version="1.1" x="0" y="0" height="230" width="800" viewBox="0 0 800 230" preserveAspectRatio="none"  >
<g label="Query sequence" class="clusterblast-cluster"  >
<text x="5" y="20" class="clusterblast-acc"  >
Query sequence</text>
<line x1="10" y1="35" x2="778.0" y2="35" style="stroke-width:1; stroke:grey; "  />
<polygon points="83,35 88,30 384,30 384,40 88,40 83,35 " style="fill:white; stroke-width:1; stroke:black; " description="&lt;b&gt;ctg30_1&lt;/b&gt;&lt;br&gt;ctg30 1&lt;br&gt;Location: 1 - 14734" locus_tag="ctg30_1" class="clusterblast-orf" id="dummy-1_q0_0_all"  />
<polygon points="391,35 396,30 442,30 442,40 396,40 391,35 " style="fill:white; stroke-width:1; stroke:black; " description="&lt;b&gt;ctg30_2&lt;/b&gt;&lt;br&gt;ctg30 2&lt;br&gt;Location: 15072 - 17592" locus_tag="ctg30_2" class="clusterblast-orf" id="dummy-1_q1_0_all"  />
<polygon points="449,35 454,30 478,30 478,40 454,40 449,35 " style="fill:white; stroke-width:1; stroke:black; " description="&lt;b&gt;ctg30_3&lt;/b&gt;&lt;br&gt;ctg30 3&lt;br&gt;Location: 17914 - 19339" locus_tag="ctg30_3" class="clusterblast-orf" id="dummy-1_q2_0_all"  />
<polygon points="479,35 484,30 494,30 494,40 484,40 479,35 " style="fill:white; stroke-width:1; stroke:black; " description="&lt;b&gt;ctg30_4&lt;/b&gt;&lt;br&gt;ctg30 4&lt;br&gt;Location: 19373 - 20093" locus_tag="ctg30_4" class="clusterblast-orf" id="dummy-1_q3_0_all"  />
<polygon points="494,35 499,30 510,30 510,40 499,40 494,35 " style="fill:#d81515; stroke-width:1; stroke:black; " description="&lt;b&gt;ctg30_5&lt;/b&gt;&lt;br&gt;ctg30 5&lt;br&gt;Location: 20124 - 20904" locus_tag="ctg30_5" class="clusterblast-orf" id="dummy-1_q4_0_all"  />
<polygon points="513,35 515,30 515,40 513,35 " style="fill:white; stroke-width:1; stroke:black; " description="&lt;b&gt;ctg30_6&lt;/b&gt;&lt;br&gt;ctg30 6&lt;br&gt;Location: 21026 - 21116" locus_tag="ctg30_6" class="clusterblast-orf" id="dummy-1_q5_0_all"  />
<polygon points="514,35 519,30 534,30 534,40 519,40 514,35 " style="fill:#77d815; stroke-width:1; stroke:black; " description="&lt;b&gt;ctg30_7&lt;/b&gt;&lt;br&gt;ctg30 7&lt;br&gt;Location: 21112 - 22084" locus_tag="ctg30_7" class="clusterblast-orf" id="dummy-1_q6_0_all"  />
<polygon points="535,35 540,30 549,30 549,40 540,40 535,35 " style="fill:#15d8d8; stroke-width:1; stroke:black; " description="&lt;b&gt;ctg30_8&lt;/b&gt;&lt;br&gt;ctg30 8&lt;br&gt;Location: 22104 - 22782" locus_tag="ctg30_8" class="clusterblast-orf" id="dummy-1_q7_0_all"  />
<polygon points="550,35 555,30 572,30 572,40 555,40 550,35 " style="fill:white; stroke-width:1; stroke:black; " description="&lt;b&gt;ctg30_9&lt;/b&gt;&lt;br&gt;ctg30 9&lt;br&gt;Location: 22857 - 23940" locus_tag="ctg30_9" class="clusterblast-orf" id="dummy-1_q8_0_all"  />
<polygon points="574,40 577,40 582,35 577,30 574,30 574,40 " style="fill:white; stroke-width:1; stroke:black; " description="&lt;b&gt;ctg30_10&lt;/b&gt;&lt;br&gt;ctg30 10&lt;br&gt;Location: 24041 - 24404" locus_tag="ctg30_10" class="clusterblast-orf" id="dummy-1_q9_0_all"  />
<polygon points="583,35 588,30 597,30 597,40 588,40 583,35 " style="fill:#7715d8; stroke-width:1; stroke:black; " description="&lt;b&gt;ctg30_11&lt;/b&gt;&lt;br&gt;ctg30 11&lt;br&gt;Location: 24450 - 25149" locus_tag="ctg30_11" class="clusterblast-orf" id="dummy-1_q10_0_all"  />
<polygon points="598,35 600,30 600,40 598,35 " style="fill:white; stroke-width:1; stroke:black; " description="&lt;b&gt;ctg30_12&lt;/b&gt;&lt;br&gt;ctg30 12&lt;br&gt;Location: 25178 - 25319" locus_tag="ctg30_12" class="clusterblast-orf" id="dummy-1_q11_0_all"  />
<polygon points="601,40 625,40 630,35 625,30 601,30 601,40 " style="fill:#d8a715; stroke-width:1; stroke:black; " description="&lt;b&gt;ctg30_13&lt;/b&gt;&lt;br&gt;ctg30 13&lt;br&gt;Location: 25328 - 26780" locus_tag="ctg30_13" class="clusterblast-orf" id="dummy-1_q12_0_all"  />
<polygon points="630,35 635,30 644,30 644,40 635,40 630,35 " style="fill:#15d846; stroke-width:1; stroke:black; " description="&lt;b&gt;ctg30_14&lt;/b&gt;&lt;br&gt;ctg30 14&lt;br&gt;Location: 26786 - 27428" locus_tag="ctg30_14" class="clusterblast-orf" id="dummy-1_q13_0_all"  />
<polygon points="646,35 651,30 661,30 661,40 651,40 646,35 " style="fill:#1546d8; stroke-width:1; stroke:black; " description="&lt;b&gt;ctg30_15&lt;/b&gt;&lt;br&gt;ctg30 15&lt;br&gt;Location: 27565 - 28261" locus_tag="ctg30_15" class="clusterblast-orf" id="dummy-1_q14_0_all"  />
<polygon points="666,35 671,30 687,30 687,40 671,40 666,35 " style="fill:#d815a7; stroke-width:1; stroke:black; " description="&lt;b&gt;ctg30_16&lt;/b&gt;&lt;br&gt;ctg30 16&lt;br&gt;Location: 28543 - 29566" locus_tag="ctg30_16" class="clusterblast-orf" id="dummy-1_q15_0_all"  />
<polygon points="687,35 692,30 697,30 697,40 692,40 687,35 " style="fill:white; stroke-width:1; stroke:black; " description="&lt;b&gt;ctg30_17&lt;/b&gt;&lt;br&gt;ctg30 17&lt;br&gt;Location: 29573 - 30020" locus_tag="ctg30_17" class="clusterblast-orf" id="dummy-1_q16_0_all"  />
</g>
<g label="BGC0001782" description="BGC0001782_c1: Spiroindimicins / indimicins / lynamicins (21% of genes show similarity), other" class="clusterblast-cluster"  >
<text x="5" y="70" class="clusterblast-acc"  >
<a xlink:href="https://mibig.secondarymetabolites.org/go/BGC0001782/1" target="_blank">BGC0001782</a>:                                        Spiroindimicins / indimicins / lynamicins (21% of genes show similarity), other</text>
<line x1="10" y1="85" x2="778.0" y2="85" style="stroke-width:1; stroke:grey; "  />
</g>
<g id="a1_000"  >
<polygon points="0,90 4,90 9,85 4,80 0,80 0,90 " style="fill:white; stroke-width:1; stroke:black; " description="&lt;b&gt;ARP51727.1&lt;/b&gt;&lt;br&gt;hypothetical protein&lt;br&gt;Location: 1051 - 1518" locus_tag="ARP51727.1" class="clusterblast-orf" id="dummy-1_h1_1_0"  />
</g>
<g id="a1_001"  >
<polygon points="11,90 18,90 23,85 18,80 11,80 11,90 " style="fill:white; stroke-width:1; stroke:black; " description="&lt;b&gt;ARP51728.1&lt;/b&gt;&lt;br&gt;XRE family transcriptional regulator&lt;br&gt;Location: 1595 - 2197" locus_tag="ARP51728.1" class="clusterblast-orf" id="dummy-1_h1_1_1"  />
</g>
<g id="a1_002"  >
<polygon points="24,90 26,85 24,80 24,90 " style="fill:white; stroke-width:1; stroke:black; " description="&lt;b&gt;ARP51729.1&lt;/b&gt;&lt;br&gt;small hydrophobic protein&lt;br&gt;Location: 2233 - 2370" locus_tag="ARP51729.1" class="clusterblast-orf" id="dummy-1_h1_1_2"  />
</g>
<g id="a1_003"  >
<polygon points="28,90 32,90 37,85 32,80 28,80 28,90 " style="fill:white; stroke-width:1; stroke:black; " description="&lt;b&gt;ARP51730.1&lt;/b&gt;&lt;br&gt;DUF4440 domain-containing protein&lt;br&gt;Location: 2438 - 2866" locus_tag="ARP51730.1" class="clusterblast-orf" id="dummy-1_h1_1_3"  />
</g>
<g id="a1_004"  >
<polygon points="37,85 42,80 48,80 48,90 42,90 37,85 " style="fill:white; stroke-width:1; stroke:black; " description="&lt;b&gt;ARP51731.1&lt;/b&gt;&lt;br&gt;LacI family transcriptional regulator&lt;br&gt;Location: 2868 - 3431" locus_tag="ARP51731.1" class="clusterblast-orf" id="dummy-1_h1_1_4"  />
</g>
<g id="a1_005"  >
<polygon points="47,90 52,90 57,85 52,80 47,80 47,90 " style="fill:white; stroke-width:1; stroke:black; " description="&lt;b&gt;ARP51732.1&lt;/b&gt;&lt;br&gt;beta-galactosidase&lt;br&gt;Location: 3394 - 3861" locus_tag="ARP51732.1" class="clusterblast-orf" id="dummy-1_h1_1_5"  />
</g>
<g id="a1_006"  >
<polygon points="58,90 62,85 58,80 58,90 " style="fill:white; stroke-width:1; stroke:black; " description="&lt;b&gt;ARP51733.1&lt;/b&gt;&lt;br&gt;hypothetical protein&lt;br&gt;Location: 3916 - 4092" locus_tag="ARP51733.1" class="clusterblast-orf" id="dummy-1_h1_1_6"  />
</g>
<g id="a1_007"  >
<polygon points="62,90 81,90 86,85 81,80 62,80 62,90 " style="fill:white; stroke-width:1; stroke:black; " description="&lt;b&gt;ARP51734.1&lt;/b&gt;&lt;br&gt;sugar hydrolase&lt;br&gt;Location: 4108 - 5295" locus_tag="ARP51734.1" class="clusterblast-orf" id="dummy-1_h1_1_7"  />
</g>
<g id="a1_008"  >
<polygon points="89,90 90,90 95,85 90,80 89,80 89,90 " style="fill:white; stroke-width:1; stroke:black; " description="&lt;b&gt;ARP51735.1&lt;/b&gt;&lt;br&gt;transcriptional regulator&lt;br&gt;Location: 5409 - 5726" locus_tag="ARP51735.1" class="clusterblast-orf" id="dummy-1_h1_1_8"  />
</g>
<g id="a1_009"  >
<polygon points="95,90 101,90 106,85 101,80 95,80 95,90 " style="fill:white; stroke-width:1; stroke:black; " description="&lt;b&gt;ARP51736.1&lt;/b&gt;&lt;br&gt;hypothetical protein&lt;br&gt;Location: 5723 - 6250" locus_tag="ARP51736.1" class="clusterblast-orf" id="dummy-1_h1_1_9"  />
</g>
<g id="a1_0010"  >
<polygon points="110,90 125,90 130,85 125,80 110,80 110,90 " style="fill:white; stroke-width:1; stroke:black; " description="&lt;b&gt;ARP51737.1&lt;/b&gt;&lt;br&gt;thioredoxin reductase&lt;br&gt;Location: 6442 - 7434" locus_tag="ARP51737.1" class="clusterblast-orf" id="dummy-1_h1_1_10"  />
</g>
<g id="a1_0011"  >
<polygon points="131,85 136,80 183,80 183,90 136,90 131,85 " style="fill:white; stroke-width:1; stroke:black; " description="&lt;b&gt;ARP51738.1&lt;/b&gt;&lt;br&gt;silent information regulator protein Sir2&lt;br&gt;Location: 7486 - 10047" locus_tag="ARP51738.1" class="clusterblast-orf" id="dummy-1_h1_1_11"  />
</g>
<g id="a1_0012"  >
<polygon points="191,90 199,90 204,85 199,80 191,80 191,90 " style="fill:white; stroke-width:1; stroke:black; " description="&lt;b&gt;ARP51739.1&lt;/b&gt;&lt;br&gt;hypothetical protein&lt;br&gt;Location: 10435 - 11079" locus_tag="ARP51739.1" class="clusterblast-orf" id="dummy-1_h1_1_12"  />
</g>
<g id="a1_0013"  >
<polygon points="207,85 212,80 229,80 229,90 212,90 207,85 " style="fill:white; stroke-width:1; stroke:black; " description="&lt;b&gt;ARP51740.1&lt;/b&gt;&lt;br&gt;hypothetical protein&lt;br&gt;Location: 11213 - 12256" locus_tag="ARP51740.1" class="clusterblast-orf" id="dummy-1_h1_1_13"  />
</g>
<g id="a1_0014"  >
<polygon points="233,85 238,80 291,80 291,90 238,90 233,85 " style="fill:white; stroke-width:1; stroke:black; " description="&lt;b&gt;ARP51741.1&lt;/b&gt;&lt;br&gt;transcriptional activator&lt;br&gt;Location: 12452 - 15328" locus_tag="ARP51741.1" class="clusterblast-orf" id="dummy-1_h1_1_14"  />
</g>
<g id="a1_0015"  >
<polygon points="296,85 301,80 330,80 330,90 301,90 296,85 " style="fill:white; stroke-width:1; stroke:black; " description="&lt;b&gt;ARP51742.1&lt;/b&gt;&lt;br&gt;ABC transporter&lt;br&gt;Location: 15554 - 17203" locus_tag="ARP51742.1" class="clusterblast-orf" id="dummy-1_h1_1_15"  />
</g>
<g id="a1_0016"  >
<polygon points="337,90 362,90 367,85 362,80 337,80 337,90 " style="fill:white; stroke-width:1; stroke:black; " description="&lt;b&gt;ARP51743.1&lt;/b&gt;&lt;br&gt;tryptophan oxidase&lt;br&gt;Location: 17548 - 19005" locus_tag="ARP51743.1" class="clusterblast-orf" id="dummy-1_h1_1_16"  />
</g>
<g id="a1_0017"  >
<polygon points="366,90 429,90 434,85 429,80 366,80 366,90 " style="fill:white; stroke-width:1; stroke:black; " description="&lt;b&gt;ARP51744.1&lt;/b&gt;&lt;br&gt;chromopyrrolic acid synthase&lt;br&gt;Location: 19002 - 22304" locus_tag="ARP51744.1" class="clusterblast-orf" id="dummy-1_h1_1_17"  />
</g>
<g id="a1_0018"  >
<polygon points="434,90 455,90 460,85 455,80 434,80 434,90 " style="fill:white; stroke-width:1; stroke:black; " description="&lt;b&gt;ARP51745.1&lt;/b&gt;&lt;br&gt;cytochrome P450&lt;br&gt;Location: 22307 - 23590" locus_tag="ARP51745.1" class="clusterblast-orf" id="dummy-1_h1_1_18"  />
</g>
<g id="a1_0019"  >
<polygon points="462,85 467,80 474,80 474,90 467,90 462,85 " style="fill:white; stroke-width:1; stroke:black; " description="&lt;b&gt;ARP51746.1&lt;/b&gt;&lt;br&gt;flavin reductase&lt;br&gt;Location: 23679 - 24269" locus_tag="ARP51746.1" class="clusterblast-orf" id="dummy-1_h1_1_19"  />
</g>
<g id="a1_0020"  >
<polygon points="490,90 517,90 522,85 517,80 490,80 490,90 " style="fill:white; stroke-width:1; stroke:black; " description="&lt;b&gt;ARP51747.1&lt;/b&gt;&lt;br&gt;tryptophan halogenase&lt;br&gt;Location: 25064 - 26605" locus_tag="ARP51747.1" class="clusterblast-orf" id="dummy-1_h1_1_20"  />
</g>
<g id="a1_0021"  >
<polygon points="524,90 547,90 552,85 547,80 524,80 524,90 " style="fill:white; stroke-width:1; stroke:black; " description="&lt;b&gt;ARP51748.1&lt;/b&gt;&lt;br&gt;monooxygenase&lt;br&gt;Location: 26724 - 28070" locus_tag="ARP51748.1" class="clusterblast-orf" id="dummy-1_h1_1_21"  />
</g>
<g id="a1_0022"  >
<polygon points="551,85 556,80 568,80 568,90 556,90 551,85 " style="fill:#d81515; stroke-width:1; stroke:black; " description="&lt;b&gt;ARP51749.1&lt;/b&gt;&lt;br&gt;hypothetical protein&lt;br&gt;Location: 28047 - 28844&lt;br&gt;&lt;br&gt;&lt;b&gt;BlastP hit with ctg30_5&lt;/b&gt;&lt;br&gt;Percentage identity: 69&lt;br&gt;Percentage coverage: 100&lt;br&gt;BLAST bit score: 300&lt;br&gt;E-value: 3e-81" locus_tag="ARP51749.1" class="clusterblast-orf" id="dummy-1_h1_1_22"  />
</g>
<g id="a1_0023"  >
<polygon points="572,85 577,80 592,80 592,90 577,90 572,85 " style="fill:#77d815; stroke-width:1; stroke:black; " description="&lt;b&gt;ARP51750.1&lt;/b&gt;&lt;br&gt;ATPase&lt;br&gt;Location: 29047 - 30051&lt;br&gt;&lt;br&gt;&lt;b&gt;BlastP hit with ctg30_7&lt;/b&gt;&lt;br&gt;Percentage identity: 59&lt;br&gt;Percentage coverage: 102&lt;br&gt;BLAST bit score: 299&lt;br&gt;E-value: 8.4e-81" locus_tag="ARP51750.1" class="clusterblast-orf" id="dummy-1_h1_1_23"  />
</g>
<g id="a1_0024"  >
<polygon points="592,85 597,80 606,80 606,90 597,90 592,85 " style="fill:#15d8d8; stroke-width:1; stroke:black; " description="&lt;b&gt;ARP51751.1&lt;/b&gt;&lt;br&gt;uracil-DNA glycosylase&lt;br&gt;Location: 30048 - 30725&lt;br&gt;&lt;br&gt;&lt;b&gt;BlastP hit with ctg30_8&lt;/b&gt;&lt;br&gt;Percentage identity: 89&lt;br&gt;Percentage coverage: 100&lt;br&gt;BLAST bit score: 414&lt;br&gt;E-value: 1.3e-115" locus_tag="ARP51751.1" class="clusterblast-orf" id="dummy-1_h1_1_24"  />
</g>
<g id="a1_0025"  >
<polygon points="612,85 617,80 639,80 639,90 617,90 612,85 " style="fill:white; stroke-width:1; stroke:black; " description="&lt;b&gt;ARP51752.1&lt;/b&gt;&lt;br&gt;NADP oxidoreductase&lt;br&gt;Location: 30994 - 32355" locus_tag="ARP51752.1" class="clusterblast-orf" id="dummy-1_h1_1_25"  />
</g>
<g id="a1_0026"  >
<polygon points="641,90 655,90 660,85 655,80 641,80 641,90 " style="fill:white; stroke-width:1; stroke:black; " description="&lt;b&gt;ARP51753.1&lt;/b&gt;&lt;br&gt;hypothetical protein&lt;br&gt;Location: 32449 - 33378" locus_tag="ARP51753.1" class="clusterblast-orf" id="dummy-1_h1_1_26"  />
</g>
<g id="a1_0027"  >
<polygon points="659,85 664,80 675,80 675,90 664,90 659,85 " style="fill:#7715d8; stroke-width:1; stroke:black; " description="&lt;b&gt;ARP51754.1&lt;/b&gt;&lt;br&gt;DUF305 domain-containing protein&lt;br&gt;Location: 33323 - 34099&lt;br&gt;&lt;br&gt;&lt;b&gt;BlastP hit with ctg30_11&lt;/b&gt;&lt;br&gt;Percentage identity: 51&lt;br&gt;Percentage coverage: 99&lt;br&gt;BLAST bit score: 174&lt;br&gt;E-value: 1.7e-43" locus_tag="ARP51754.1" class="clusterblast-orf" id="dummy-1_h1_1_27"  />
</g>
<g id="a1_0028"  >
<polygon points="678,90 703,90 708,85 703,80 678,80 678,90 " style="fill:#d8a715; stroke-width:1; stroke:black; " description="&lt;b&gt;ARP51755.1&lt;/b&gt;&lt;br&gt;hypothetical protein&lt;br&gt;Location: 34237 - 35715&lt;br&gt;&lt;br&gt;&lt;b&gt;BlastP hit with ctg30_13&lt;/b&gt;&lt;br&gt;Percentage identity: 75&lt;br&gt;Percentage coverage: 90&lt;br&gt;BLAST bit score: 701&lt;br&gt;E-value: 8.4e-202" locus_tag="ARP51755.1" class="clusterblast-orf" id="dummy-1_h1_1_28"  />
</g>
<g id="a1_0029"  >
<polygon points="708,85 713,80 721,80 721,90 713,90 708,85 " style="fill:#15d846; stroke-width:1; stroke:black; " description="&lt;b&gt;ARP51756.1&lt;/b&gt;&lt;br&gt;TetR family transcriptional regulator&lt;br&gt;Location: 35706 - 36323&lt;br&gt;&lt;br&gt;&lt;b&gt;BlastP hit with ctg30_14&lt;/b&gt;&lt;br&gt;Percentage identity: 76&lt;br&gt;Percentage coverage: 89&lt;br&gt;BLAST bit score: 277&lt;br&gt;E-value: 1.7e-74" locus_tag="ARP51756.1" class="clusterblast-orf" id="dummy-1_h1_1_29"  />
</g>
<g id="a1_0030"  >
<polygon points="725,85 730,80 739,80 739,90 730,90 725,85 " style="fill:#1546d8; stroke-width:1; stroke:black; " description="&lt;b&gt;ARP51757.1&lt;/b&gt;&lt;br&gt;hydrolase&lt;br&gt;Location: 36524 - 37219&lt;br&gt;&lt;br&gt;&lt;b&gt;BlastP hit with ctg30_15&lt;/b&gt;&lt;br&gt;Percentage identity: 71&lt;br&gt;Percentage coverage: 100&lt;br&gt;BLAST bit score: 339&lt;br&gt;E-value: 5.3e-93" locus_tag="ARP51757.1" class="clusterblast-orf" id="dummy-1_h1_1_30"  />
</g>
<g id="a1_0031"  >
<polygon points="741,85 746,80 751,80 751,90 746,90 741,85 " style="fill:white; stroke-width:1; stroke:black; " description="&lt;b&gt;ARP51758.1&lt;/b&gt;&lt;br&gt;hypothetical protein&lt;br&gt;Location: 37315 - 37800" locus_tag="ARP51758.1" class="clusterblast-orf" id="dummy-1_h1_1_31"  />
</g>
<g id="a1_0032"  >
<polygon points="755,90 775,90 780,85 775,80 755,80 755,90 " style="fill:white; stroke-width:1; stroke:black; " description="&lt;b&gt;ARP51759.1&lt;/b&gt;&lt;br&gt;transcriptional regulator&lt;br&gt;Location: 37987 - 39207" locus_tag="ARP51759.1" class="clusterblast-orf" id="dummy-1_h1_1_32"  />
</g>
</svg>
