<svg xmlns="http://www.w3.org/2000/svg" xmlns:xlink="http://www.w3.org/1999/xlink" version="1.1" x="0" y="0" height="230" width="800" viewBox="0 0 800 230" preserveAspectRatio="none"  >
<g label="Query sequence" class="clusterblast-cluster"  >
<text x="5" y="20" class="clusterblast-acc"  >
Query sequence</text>
<line x1="10" y1="35" x2="778.0" y2="35" style="stroke-width:1; stroke:grey; "  />
<polygon points="253,40 255,40 260,35 255,30 253,30 253,40 " style="fill:#d81515; stroke-width:1; stroke:black; " description="&lt;b&gt;ctg8_1&lt;/b&gt;&lt;br&gt;ctg8 1&lt;br&gt;Location: 34 - 1228" locus_tag="ctg8_1" class="clusterblast-orf" id="dummy-1_q0_0_all"  />
<polygon points="260,40 262,35 260,30 260,40 " style="fill:#56d815; stroke-width:1; stroke:black; " description="&lt;b&gt;ctg8_2&lt;/b&gt;&lt;br&gt;ctg8 2&lt;br&gt;Location: 1247 - 1463" locus_tag="ctg8_2" class="clusterblast-orf" id="dummy-1_q1_0_all"  />
<polygon points="262,40 264,40 269,35 264,30 262,30 262,40 " style="fill:#1597d8; stroke-width:1; stroke:black; " description="&lt;b&gt;ctg8_3&lt;/b&gt;&lt;br&gt;ctg8 3&lt;br&gt;Location: 1459 - 2614" locus_tag="ctg8_3" class="clusterblast-orf" id="dummy-1_q2_0_all"  />
<polygon points="269,40 275,40 280,35 275,30 269,30 269,40 " style="fill:#9715d8; stroke-width:1; stroke:black; " description="&lt;b&gt;ctg8_4&lt;/b&gt;&lt;br&gt;ctg8 4&lt;br&gt;Location: 2687 - 4496" locus_tag="ctg8_4" class="clusterblast-orf" id="dummy-1_q3_0_all"  />
<polygon points="280,40 282,35 280,30 280,40 " style="fill:#d85615; stroke-width:1; stroke:black; " description="&lt;b&gt;ctg8_5&lt;/b&gt;&lt;br&gt;ctg8 5&lt;br&gt;Location: 4492 - 4885" locus_tag="ctg8_5" class="clusterblast-orf" id="dummy-1_q4_0_all"  />
<polygon points="282,40 284,40 289,35 284,30 282,30 282,40 " style="fill:#15d815; stroke-width:1; stroke:black; " description="&lt;b&gt;ctg8_6&lt;/b&gt;&lt;br&gt;ctg8 6&lt;br&gt;Location: 4895 - 6089" locus_tag="ctg8_6" class="clusterblast-orf" id="dummy-1_q5_0_all"  />
<polygon points="289,40 289,40 294,35 289,30 289,30 289,40 " style="fill:#1556d8; stroke-width:1; stroke:black; " description="&lt;b&gt;ctg8_7&lt;/b&gt;&lt;br&gt;ctg8 7&lt;br&gt;Location: 6134 - 6944" locus_tag="ctg8_7" class="clusterblast-orf" id="dummy-1_q6_0_all"  />
<polygon points="294,35 297,30 297,40 294,35 " style="fill:#d815d8; stroke-width:1; stroke:black; " description="&lt;b&gt;ctg8_8&lt;/b&gt;&lt;br&gt;ctg8 8&lt;br&gt;Location: 6923 - 7457" locus_tag="ctg8_8" class="clusterblast-orf" id="dummy-1_q7_0_all"  />
<polygon points="297,40 298,35 297,30 297,40 " style="fill:white; stroke-width:1; stroke:black; " description="&lt;b&gt;ctg8_9&lt;/b&gt;&lt;br&gt;ctg8 9&lt;br&gt;Location: 7481 - 7646" locus_tag="ctg8_9" class="clusterblast-orf" id="dummy-1_q8_0_all"  />
<polygon points="300,35 305,30 307,30 307,40 305,40 300,35 " style="fill:#d89715; stroke-width:1; stroke:black; " description="&lt;b&gt;ctg8_10&lt;/b&gt;&lt;br&gt;ctg8 10&lt;br&gt;Location: 7953 - 9105" locus_tag="ctg8_10" class="clusterblast-orf" id="dummy-1_q9_0_all"  />
<polygon points="307,35 312,30 318,30 318,40 312,40 307,35 " style="fill:#15d856; stroke-width:1; stroke:black; " description="&lt;b&gt;ctg8_11&lt;/b&gt;&lt;br&gt;ctg8 11&lt;br&gt;Location: 9101 - 10916" locus_tag="ctg8_11" class="clusterblast-orf" id="dummy-1_q10_0_all"  />
<polygon points="318,35 323,30 324,30 324,40 323,40 318,35 " style="fill:#1515d8; stroke-width:1; stroke:black; " description="&lt;b&gt;ctg8_12&lt;/b&gt;&lt;br&gt;ctg8 12&lt;br&gt;Location: 10927 - 11929" locus_tag="ctg8_12" class="clusterblast-orf" id="dummy-1_q11_0_all"  />
<polygon points="325,40 329,35 325,30 325,40 " style="fill:#d81597; stroke-width:1; stroke:black; " description="&lt;b&gt;ctg8_13&lt;/b&gt;&lt;br&gt;ctg8 13&lt;br&gt;Location: 12135 - 12939" locus_tag="ctg8_13" class="clusterblast-orf" id="dummy-1_q12_0_all"  />
<polygon points="330,35 334,30 334,40 330,35 " style="fill:white; stroke-width:1; stroke:black; " description="&lt;b&gt;ctg8_14&lt;/b&gt;&lt;br&gt;ctg8 14&lt;br&gt;Location: 12961 - 13627" locus_tag="ctg8_14" class="clusterblast-orf" id="dummy-1_q13_0_all"  />
<polygon points="334,40 346,40 351,35 346,30 334,30 334,40 " style="fill:white; stroke-width:1; stroke:black; " description="&lt;b&gt;ctg8_15&lt;/b&gt;&lt;br&gt;ctg8 15&lt;br&gt;Location: 13762 - 16624" locus_tag="ctg8_15" class="clusterblast-orf" id="dummy-1_q14_0_all"  />
<polygon points="352,40 354,35 352,30 352,40 " style="fill:white; stroke-width:1; stroke:black; " description="&lt;b&gt;ctg8_16&lt;/b&gt;&lt;br&gt;ctg8 16&lt;br&gt;Location: 16678 - 17080" locus_tag="ctg8_16" class="clusterblast-orf" id="dummy-1_q15_0_all"  />
<polygon points="354,40 358,35 354,30 354,40 " style="fill:white; stroke-width:1; stroke:black; " description="&lt;b&gt;ctg8_17&lt;/b&gt;&lt;br&gt;ctg8 17&lt;br&gt;Location: 17081 - 17846" locus_tag="ctg8_17" class="clusterblast-orf" id="dummy-1_q16_0_all"  />
<polygon points="359,35 364,30 368,30 368,40 364,40 359,35 " style="fill:white; stroke-width:1; stroke:black; " description="&lt;b&gt;ctg8_18&lt;/b&gt;&lt;br&gt;ctg8 18&lt;br&gt;Location: 17897 - 19535" locus_tag="ctg8_18" class="clusterblast-orf" id="dummy-1_q17_0_all"  />
<polygon points="368,35 371,30 371,40 368,35 " style="fill:white; stroke-width:1; stroke:black; " description="&lt;b&gt;ctg8_19&lt;/b&gt;&lt;br&gt;ctg8 19&lt;br&gt;Location: 19531 - 20044" locus_tag="ctg8_19" class="clusterblast-orf" id="dummy-1_q18_0_all"  />
<polygon points="371,35 375,30 375,40 371,35 " style="fill:white; stroke-width:1; stroke:black; " description="&lt;b&gt;ctg8_20&lt;/b&gt;&lt;br&gt;ctg8 20&lt;br&gt;Location: 20040 - 20667" locus_tag="ctg8_20" class="clusterblast-orf" id="dummy-1_q19_0_all"  />
<polygon points="376,35 381,30 381,30 381,40 381,40 376,35 " style="fill:white; stroke-width:1; stroke:black; " description="&lt;b&gt;ctg8_21&lt;/b&gt;&lt;br&gt;ctg8 21&lt;br&gt;Location: 20806 - 21709" locus_tag="ctg8_21" class="clusterblast-orf" id="dummy-1_q20_0_all"  />
<polygon points="384,40 393,40 398,35 393,30 384,30 384,40 " style="fill:white; stroke-width:1; stroke:black; " description="&lt;b&gt;ctg8_22&lt;/b&gt;&lt;br&gt;ctg8 22&lt;br&gt;Location: 22167 - 24606" locus_tag="ctg8_22" class="clusterblast-orf" id="dummy-1_q21_0_all"  />
<polygon points="398,40 406,40 411,35 406,30 398,30 398,40 " style="fill:white; stroke-width:1; stroke:black; " description="&lt;b&gt;ctg8_23&lt;/b&gt;&lt;br&gt;ctg8 23&lt;br&gt;Location: 24606 - 26832" locus_tag="ctg8_23" class="clusterblast-orf" id="dummy-1_q22_0_all"  />
<polygon points="412,40 413,40 418,35 413,30 412,30 412,40 " style="fill:#d8d815; stroke-width:1; stroke:black; " description="&lt;b&gt;ctg8_24&lt;/b&gt;&lt;br&gt;ctg8 24&lt;br&gt;Location: 26957 - 28010" locus_tag="ctg8_24" class="clusterblast-orf" id="dummy-1_q23_0_all"  />
<polygon points="418,40 420,40 425,35 420,30 418,30 418,40 " style="fill:#15d897; stroke-width:1; stroke:black; " description="&lt;b&gt;ctg8_25&lt;/b&gt;&lt;br&gt;ctg8 25&lt;br&gt;Location: 28006 - 29050" locus_tag="ctg8_25" class="clusterblast-orf" id="dummy-1_q24_0_all"  />
<polygon points="425,40 426,40 431,35 426,30 425,30 425,40 " style="fill:#5615d8; stroke-width:1; stroke:black; " description="&lt;b&gt;ctg8_26&lt;/b&gt;&lt;br&gt;ctg8 26&lt;br&gt;Location: 29061 - 30072" locus_tag="ctg8_26" class="clusterblast-orf" id="dummy-1_q25_0_all"  />
<polygon points="431,35 433,30 433,40 431,35 " style="fill:#d81556; stroke-width:1; stroke:black; " description="&lt;b&gt;ctg8_27&lt;/b&gt;&lt;br&gt;ctg8 27&lt;br&gt;Location: 30084 - 30567" locus_tag="ctg8_27" class="clusterblast-orf" id="dummy-1_q26_0_all"  />
<polygon points="435,40 437,40 442,35 437,30 435,30 435,40 " style="fill:#97d815; stroke-width:1; stroke:black; " description="&lt;b&gt;ctg8_28&lt;/b&gt;&lt;br&gt;ctg8 28&lt;br&gt;Location: 30746 - 31988" locus_tag="ctg8_28" class="clusterblast-orf" id="dummy-1_q27_0_all"  />
<polygon points="442,40 443,35 442,30 442,40 " style="fill:#15d8d8; stroke-width:1; stroke:black; " description="&lt;b&gt;ctg8_29&lt;/b&gt;&lt;br&gt;ctg8 29&lt;br&gt;Location: 31984 - 32185" locus_tag="ctg8_29" class="clusterblast-orf" id="dummy-1_q28_0_all"  />
<polygon points="443,35 448,30 451,30 451,40 448,40 443,35 " style="fill:white; stroke-width:1; stroke:black; " description="&lt;b&gt;ctg8_30&lt;/b&gt;&lt;br&gt;ctg8 30&lt;br&gt;Location: 32242 - 33541" locus_tag="ctg8_30" class="clusterblast-orf" id="dummy-1_q29_0_all"  />
<polygon points="451,35 453,30 453,40 451,35 " style="fill:white; stroke-width:1; stroke:black; " description="&lt;b&gt;ctg8_31&lt;/b&gt;&lt;br&gt;ctg8 31&lt;br&gt;Location: 33610 - 33826" locus_tag="ctg8_31" class="clusterblast-orf" id="dummy-1_q30_0_all"  />
<polygon points="453,35 458,30 462,30 462,40 458,40 453,35 " style="fill:white; stroke-width:1; stroke:black; " description="&lt;b&gt;ctg8_32&lt;/b&gt;&lt;br&gt;ctg8 32&lt;br&gt;Location: 33822 - 35376" locus_tag="ctg8_32" class="clusterblast-orf" id="dummy-1_q31_0_all"  />
<polygon points="462,35 467,30 482,30 482,40 467,40 462,35 " style="fill:white; stroke-width:1; stroke:black; " description="&lt;b&gt;ctg8_33&lt;/b&gt;&lt;br&gt;ctg8 33&lt;br&gt;Location: 35359 - 38725" locus_tag="ctg8_33" class="clusterblast-orf" id="dummy-1_q32_0_all"  />
<polygon points="482,35 487,30 492,30 492,40 487,40 482,35 " style="fill:white; stroke-width:1; stroke:black; " description="&lt;b&gt;ctg8_34&lt;/b&gt;&lt;br&gt;ctg8 34&lt;br&gt;Location: 38721 - 40512" locus_tag="ctg8_34" class="clusterblast-orf" id="dummy-1_q33_0_all"  />
<polygon points="492,35 497,30 526,30 526,40 497,40 492,35 " style="fill:white; stroke-width:1; stroke:black; " description="&lt;b&gt;ctg8_35&lt;/b&gt;&lt;br&gt;ctg8 35&lt;br&gt;Location: 40511 - 46208" locus_tag="ctg8_35" class="clusterblast-orf" id="dummy-1_q34_0_all"  />
</g>
<g label="BGC0001700" description="BGC0001700_c1: Niphimycins C-E (6% of genes show similarity), polyketide" class="clusterblast-cluster"  >
<text x="5" y="70" class="clusterblast-acc"  >
<a xlink:href="https://mibig.secondarymetabolites.org/go/BGC0001700/1" target="_blank">BGC0001700</a>:                                                                  Niphimycins C-E (6% of genes show similarity), polyketide</text>
<line x1="10" y1="85" x2="778.0" y2="85" style="stroke-width:1; stroke:grey; "  />
</g>
<g id="a1_000"  >
<polygon points="0,90 0,90 5,85 0,80 0,80 0,90 " style="fill:white; stroke-width:1; stroke:black; " description="&lt;b&gt;AUO16420.1&lt;/b&gt;&lt;br&gt;AraC-family transcriptional regulator&lt;br&gt;Location: 132180 - 131314" locus_tag="AUO16420.1" class="clusterblast-orf" id="dummy-1_h1_10_0"  />
</g>
<g id="a1_001"  >
<polygon points="5,85 10,80 13,80 13,90 10,90 5,85 " style="fill:white; stroke-width:1; stroke:black; " description="&lt;b&gt;AUO16419.1&lt;/b&gt;&lt;br&gt;amino acid transporter&lt;br&gt;Location: 131271 - 129835" locus_tag="AUO16419.1" class="clusterblast-orf" id="dummy-1_h1_10_1"  />
</g>
<g id="a1_002"  >
<polygon points="13,85 18,80 18,80 18,90 18,90 13,85 " style="fill:white; stroke-width:1; stroke:black; " description="&lt;b&gt;AUO16418.1&lt;/b&gt;&lt;br&gt;4-guanidinobutyramide hydrolase&lt;br&gt;Location: 129841 - 129038" locus_tag="AUO16418.1" class="clusterblast-orf" id="dummy-1_h1_10_2"  />
</g>
<g id="a1_003"  >
<polygon points="19,90 23,85 19,80 19,90 " style="fill:white; stroke-width:1; stroke:black; " description="&lt;b&gt;AUO16417.1&lt;/b&gt;&lt;br&gt;GntR-family transcriptional regulator&lt;br&gt;Location: 128899 - 128114" locus_tag="AUO16417.1" class="clusterblast-orf" id="dummy-1_h1_10_3"  />
</g>
<g id="a1_004"  >
<polygon points="24,85 29,80 33,80 33,90 29,90 24,85 " style="fill:white; stroke-width:1; stroke:black; " description="&lt;b&gt;AUO16416.1&lt;/b&gt;&lt;br&gt;CoA-transferase family III&lt;br&gt;Location: 128056 - 126515" locus_tag="AUO16416.1" class="clusterblast-orf" id="dummy-1_h1_10_4"  />
</g>
<g id="a1_005"  >
<polygon points="34,90 38,85 34,80 34,90 " style="fill:white; stroke-width:1; stroke:black; " description="&lt;b&gt;AUO16415.1&lt;/b&gt;&lt;br&gt;AcrR family DNA-binding transcriptional regulator&lt;br&gt;Location: 126271 - 125642" locus_tag="AUO16415.1" class="clusterblast-orf" id="dummy-1_h1_10_5"  />
</g>
<g id="a1_006"  >
<polygon points="38,85 41,80 41,90 38,85 " style="fill:white; stroke-width:1; stroke:black; " description="&lt;b&gt;AUO16414.1&lt;/b&gt;&lt;br&gt;mini-circle protein&lt;br&gt;Location: 125635 - 125126" locus_tag="AUO16414.1" class="clusterblast-orf" id="dummy-1_h1_10_6"  />
</g>
<g id="a1_007"  >
<polygon points="41,85 43,80 43,90 41,85 " style="fill:white; stroke-width:1; stroke:black; " description="&lt;b&gt;AUO16413.1&lt;/b&gt;&lt;br&gt;methyltransferase&lt;br&gt;Location: 125091 - 124792" locus_tag="AUO16413.1" class="clusterblast-orf" id="dummy-1_h1_10_7"  />
</g>
<g id="a1_008"  >
<polygon points="44,90 47,85 44,80 44,90 " style="fill:white; stroke-width:1; stroke:black; " description="&lt;b&gt;AUO16412.1&lt;/b&gt;&lt;br&gt;XRE family transcriptional regulator&lt;br&gt;Location: 124694 - 124107" locus_tag="AUO16412.1" class="clusterblast-orf" id="dummy-1_h1_10_8"  />
</g>
<g id="a1_009"  >
<polygon points="49,90 51,90 56,85 51,80 49,80 49,90 " style="fill:white; stroke-width:1; stroke:black; " description="&lt;b&gt;AUO16411.1&lt;/b&gt;&lt;br&gt;membrane protein&lt;br&gt;Location: 123816 - 122536" locus_tag="AUO16411.1" class="clusterblast-orf" id="dummy-1_h1_10_9"  />
</g>
<g id="a1_0010"  >
<polygon points="57,90 61,90 66,85 61,80 57,80 57,90 " style="fill:white; stroke-width:1; stroke:black; " description="&lt;b&gt;AUO16410.1&lt;/b&gt;&lt;br&gt;hypothetical protein&lt;br&gt;Location: 122403 - 120973" locus_tag="AUO16410.1" class="clusterblast-orf" id="dummy-1_h1_10_10"  />
</g>
<g id="a1_0011"  >
<polygon points="67,90 69,85 67,80 67,90 " style="fill:white; stroke-width:1; stroke:black; " description="&lt;b&gt;AUO16409.1&lt;/b&gt;&lt;br&gt;endoribonuclease L-PSP&lt;br&gt;Location: 120820 - 120380" locus_tag="AUO16409.1" class="clusterblast-orf" id="dummy-1_h1_10_11"  />
</g>
<g id="a1_0012"  >
<polygon points="70,85 72,80 72,90 70,85 " style="fill:white; stroke-width:1; stroke:black; " description="&lt;b&gt;AUO16408.1&lt;/b&gt;&lt;br&gt;HxlR family transcriptional regulator&lt;br&gt;Location: 120300 - 119920" locus_tag="AUO16408.1" class="clusterblast-orf" id="dummy-1_h1_10_12"  />
</g>
<g id="a1_0013"  >
<polygon points="72,85 77,80 78,80 78,90 77,90 72,85 " style="fill:white; stroke-width:1; stroke:black; " description="&lt;b&gt;AUO16407.1&lt;/b&gt;&lt;br&gt;hydrolase&lt;br&gt;Location: 119837 - 118953" locus_tag="AUO16407.1" class="clusterblast-orf" id="dummy-1_h1_10_13"  />
</g>
<g id="a1_0014"  >
<polygon points="78,85 82,80 82,90 78,85 " style="fill:white; stroke-width:1; stroke:black; " description="&lt;b&gt;AUO16406.1&lt;/b&gt;&lt;br&gt;TetR family transcriptional regulator&lt;br&gt;Location: 118848 - 118240" locus_tag="AUO16406.1" class="clusterblast-orf" id="dummy-1_h1_10_14"  />
</g>
<g id="a1_0015"  >
<polygon points="83,85 88,80 89,80 89,90 88,90 83,85 " style="fill:white; stroke-width:1; stroke:black; " description="&lt;b&gt;AUO16405.1&lt;/b&gt;&lt;br&gt;4-guanidinobutyryl-CoA:ACP acyltransferase&lt;br&gt;Location: 118084 - 117050" locus_tag="AUO16405.1" class="clusterblast-orf" id="dummy-1_h1_10_15"  />
</g>
<g id="a1_0016"  >
<polygon points="89,85 94,80 97,80 97,90 94,90 89,85 " style="fill:white; stroke-width:1; stroke:black; " description="&lt;b&gt;AUO16404.1&lt;/b&gt;&lt;br&gt;4-guanidinobutanoate:CoA ligase&lt;br&gt;Location: 117053 - 115617" locus_tag="AUO16404.1" class="clusterblast-orf" id="dummy-1_h1_10_16"  />
</g>
<g id="a1_0017"  >
<polygon points="98,85 103,80 139,80 139,90 103,90 98,85 " style="fill:white; stroke-width:1; stroke:black; " description="&lt;b&gt;AUO16423.1&lt;/b&gt;&lt;br&gt;polyketide synthase&lt;br&gt;Location: 115494 - 108574" locus_tag="AUO16423.1" class="clusterblast-orf" id="dummy-1_h1_10_17"  />
</g>
<g id="a1_0018"  >
<polygon points="140,85 145,80 185,80 185,90 145,90 140,85 " style="fill:white; stroke-width:1; stroke:black; " description="&lt;b&gt;AUO16403.1&lt;/b&gt;&lt;br&gt;polyketide synthase&lt;br&gt;Location: 108452 - 100698" locus_tag="AUO16403.1" class="clusterblast-orf" id="dummy-1_h1_10_18"  />
</g>
<g id="a1_0019"  >
<polygon points="186,85 191,80 247,80 247,90 191,90 186,85 " style="fill:white; stroke-width:1; stroke:black; " description="&lt;b&gt;AUO16422.1&lt;/b&gt;&lt;br&gt;polyketide synthase&lt;br&gt;Location: 100647 - 90283" locus_tag="AUO16422.1" class="clusterblast-orf" id="dummy-1_h1_10_19"  />
</g>
<g id="a1_0020"  >
<polygon points="247,85 252,80 304,80 304,90 252,90 247,85 " style="fill:white; stroke-width:1; stroke:black; " description="&lt;b&gt;AUO16402.1&lt;/b&gt;&lt;br&gt;polyketide synthase&lt;br&gt;Location: 90225 - 80608" locus_tag="AUO16402.1" class="clusterblast-orf" id="dummy-1_h1_10_20"  />
</g>
<g id="a1_0021"  >
<polygon points="304,85 309,80 451,80 451,90 309,90 304,85 " style="fill:white; stroke-width:1; stroke:black; " description="&lt;b&gt;AUO16401.1&lt;/b&gt;&lt;br&gt;polyketide synthase&lt;br&gt;Location: 80562 - 55738" locus_tag="AUO16401.1" class="clusterblast-orf" id="dummy-1_h1_10_21"  />
</g>
<g id="a1_0022"  >
<polygon points="451,85 456,80 535,80 535,90 456,90 451,85 " style="fill:white; stroke-width:1; stroke:black; " description="&lt;b&gt;AUO16400.1&lt;/b&gt;&lt;br&gt;polyketide synthase&lt;br&gt;Location: 55661 - 41418" locus_tag="AUO16400.1" class="clusterblast-orf" id="dummy-1_h1_10_22"  />
</g>
<g id="a1_0023"  >
<polygon points="535,85 540,80 595,80 595,90 540,90 535,85 " style="fill:white; stroke-width:1; stroke:black; " description="&lt;b&gt;AUO16399.1&lt;/b&gt;&lt;br&gt;polyketide synthase&lt;br&gt;Location: 41392 - 31271" locus_tag="AUO16399.1" class="clusterblast-orf" id="dummy-1_h1_10_23"  />
</g>
<g id="a1_0024"  >
<polygon points="595,85 600,80 657,80 657,90 600,90 595,85 " style="fill:white; stroke-width:1; stroke:black; " description="&lt;b&gt;AUO16398.1&lt;/b&gt;&lt;br&gt;polyketide synthase&lt;br&gt;Location: 31188 - 20806" locus_tag="AUO16398.1" class="clusterblast-orf" id="dummy-1_h1_10_24"  />
</g>
<g id="a1_0025"  >
<polygon points="657,85 662,80 727,80 727,90 662,90 657,85 " style="fill:white; stroke-width:1; stroke:black; " description="&lt;b&gt;AUO16397.1&lt;/b&gt;&lt;br&gt;polyketide synthase&lt;br&gt;Location: 20711 - 8868" locus_tag="AUO16397.1" class="clusterblast-orf" id="dummy-1_h1_10_25"  />
</g>
<g id="a1_0026"  >
<polygon points="729,85 730,80 730,90 729,85 " style="fill:#15d8d8; stroke-width:1; stroke:black; " description="&lt;b&gt;AUO16396.1&lt;/b&gt;&lt;br&gt;ferredoxin&lt;br&gt;Location: 8611 - 8405&lt;br&gt;&lt;br&gt;&lt;b&gt;BlastP hit with ctg8_29&lt;/b&gt;&lt;br&gt;Percentage identity: 50&lt;br&gt;Percentage coverage: 97&lt;br&gt;BLAST bit score: 66&lt;br&gt;E-value: 2.5e-11" locus_tag="AUO16396.1" class="clusterblast-orf" id="dummy-1_h1_10_26"  />
</g>
<g id="a1_0027"  >
<polygon points="730,85 735,80 737,80 737,90 735,90 730,85 " style="fill:white; stroke-width:1; stroke:black; " description="&lt;b&gt;AUO16421.1&lt;/b&gt;&lt;br&gt;cytochrome P450&lt;br&gt;Location: 8325 - 7123" locus_tag="AUO16421.1" class="clusterblast-orf" id="dummy-1_h1_10_27"  />
</g>
<g id="a1_0028"  >
<polygon points="740,90 742,90 747,85 742,80 740,80 740,90 " style="fill:#97d815; stroke-width:1; stroke:black; " description="&lt;b&gt;AUO16395.1&lt;/b&gt;&lt;br&gt;cytochrome P450&lt;br&gt;Location: 6758 - 5544&lt;br&gt;&lt;br&gt;&lt;b&gt;BlastP hit with ctg8_28&lt;/b&gt;&lt;br&gt;Percentage identity: 48&lt;br&gt;Percentage coverage: 96&lt;br&gt;BLAST bit score: 337&lt;br&gt;E-value: 2.7e-92" locus_tag="AUO16395.1" class="clusterblast-orf" id="dummy-1_h1_10_28"  />
</g>
<g id="a1_0029"  >
<polygon points="748,90 751,85 748,80 748,90 " style="fill:white; stroke-width:1; stroke:black; " description="&lt;b&gt;AUO16394.1&lt;/b&gt;&lt;br&gt;TetR family transcriptional regulator&lt;br&gt;Location: 5399 - 4791" locus_tag="AUO16394.1" class="clusterblast-orf" id="dummy-1_h1_10_29"  />
</g>
<g id="a1_0030"  >
<polygon points="752,90 775,90 780,85 775,80 752,80 752,90 " style="fill:white; stroke-width:1; stroke:black; " description="&lt;b&gt;AUO16393.1&lt;/b&gt;&lt;br&gt;hypothetical protein&lt;br&gt;Location: 4644 - 1" locus_tag="AUO16393.1" class="clusterblast-orf" id="dummy-1_h1_10_30"  />
</g>
</svg>
