<svg xmlns="http://www.w3.org/2000/svg" xmlns:xlink="http://www.w3.org/1999/xlink" version="1.1" x="0" y="0" height="230" width="800" viewBox="0 0 800 230" preserveAspectRatio="none"  >
<g label="Query sequence" class="clusterblast-cluster"  >
<text x="5" y="20" class="clusterblast-acc"  >
Query sequence</text>
<line x1="10" y1="35" x2="778.0" y2="35" style="stroke-width:1; stroke:grey; "  />
<polygon points="280,40 366,40 371,35 366,30 280,30 280,40 " style="fill:#d81515; stroke-width:1; stroke:black; " description="&lt;b&gt;ctg147_1&lt;/b&gt;&lt;br&gt;ctg147 1&lt;br&gt;Location: 2 - 5192" locus_tag="ctg147_1" class="clusterblast-orf" id="dummy-1_q0_0_all"  />
<polygon points="373,40 383,40 388,35 383,30 373,30 373,40 " style="fill:#15d815; stroke-width:1; stroke:black; " description="&lt;b&gt;ctg147_2&lt;/b&gt;&lt;br&gt;ctg147 2&lt;br&gt;Location: 5287 - 6163" locus_tag="ctg147_2" class="clusterblast-orf" id="dummy-1_q1_0_all"  />
<polygon points="388,40 397,40 402,35 397,30 388,30 388,40 " style="fill:#1515d8; stroke-width:1; stroke:black; " description="&lt;b&gt;ctg147_3&lt;/b&gt;&lt;br&gt;ctg147 3&lt;br&gt;Location: 6162 - 6969" locus_tag="ctg147_3" class="clusterblast-orf" id="dummy-1_q2_0_all"  />
<polygon points="403,35 408,30 427,30 427,40 408,40 403,35 " style="fill:white; stroke-width:1; stroke:black; " description="&lt;b&gt;ctg147_4&lt;/b&gt;&lt;br&gt;ctg147 4&lt;br&gt;Location: 7041 - 8427" locus_tag="ctg147_4" class="clusterblast-orf" id="dummy-1_q3_0_all"  />
<polygon points="436,35 441,30 455,30 455,40 441,40 436,35 " style="fill:#d815d8; stroke-width:1; stroke:black; " description="&lt;b&gt;ctg147_5&lt;/b&gt;&lt;br&gt;ctg147 5&lt;br&gt;Location: 8908 - 10027" locus_tag="ctg147_5" class="clusterblast-orf" id="dummy-1_q4_0_all"  />
<polygon points="457,35 462,30 485,30 485,40 462,40 457,35 " style="fill:#d8d815; stroke-width:1; stroke:black; " description="&lt;b&gt;ctg147_6&lt;/b&gt;&lt;br&gt;ctg147 6&lt;br&gt;Location: 10127 - 11711" locus_tag="ctg147_6" class="clusterblast-orf" id="dummy-1_q5_0_all"  />
<polygon points="485,35 490,30 496,30 496,40 490,40 485,35 " style="fill:#15d8d8; stroke-width:1; stroke:black; " description="&lt;b&gt;ctg147_7&lt;/b&gt;&lt;br&gt;ctg147 7&lt;br&gt;Location: 11741 - 12341" locus_tag="ctg147_7" class="clusterblast-orf" id="dummy-1_q6_0_all"  />
<polygon points="498,40 499,35 498,30 498,40 " style="fill:white; stroke-width:1; stroke:black; " description="&lt;b&gt;ctg147_8&lt;/b&gt;&lt;br&gt;ctg147 8&lt;br&gt;Location: 12461 - 12533" locus_tag="ctg147_8" class="clusterblast-orf" id="dummy-1_q7_0_all"  />
</g>
<g label="BGC0001769" description="BGC0001769_c1: Saquayamycin (5% of genes show similarity), polyketide" class="clusterblast-cluster"  >
<text x="5" y="70" class="clusterblast-acc"  >
<a xlink:href="https://mibig.secondarymetabolites.org/go/BGC0001769/1" target="_blank">BGC0001769</a>:                                                                     Saquayamycin (5% of genes show similarity), polyketide</text>
<line x1="10" y1="85" x2="778.0" y2="85" style="stroke-width:1; stroke:grey; "  />
</g>
<g id="a1_000"  >
<polygon points="0,90 22,90 27,85 22,80 0,80 0,90 " style="fill:white; stroke-width:1; stroke:black; " description="&lt;b&gt;ARO44648.1&lt;/b&gt;&lt;br&gt;major facilitator transporter&lt;br&gt;Location: 1 - 1605" locus_tag="ARO44648.1" class="clusterblast-orf" id="dummy-1_h1_5_0"  />
</g>
<g id="a1_001"  >
<polygon points="30,85 35,80 43,80 43,90 35,90 30,85 " style="fill:white; stroke-width:1; stroke:black; " description="&lt;b&gt;ARO44675.1&lt;/b&gt;&lt;br&gt;hypothetical protein&lt;br&gt;Location: 1759 - 2499" locus_tag="ARO44675.1" class="clusterblast-orf" id="dummy-1_h1_5_1"  />
</g>
<g id="a1_002"  >
<polygon points="45,90 60,90 65,85 60,80 45,80 45,90 " style="fill:white; stroke-width:1; stroke:black; " description="&lt;b&gt;ARO44659.1&lt;/b&gt;&lt;br&gt;oxidoreductase&lt;br&gt;Location: 2629 - 3768" locus_tag="ARO44659.1" class="clusterblast-orf" id="dummy-1_h1_5_2"  />
</g>
<g id="a1_003"  >
<polygon points="66,85 71,80 94,80 94,90 71,90 66,85 " style="fill:#d8d815; stroke-width:1; stroke:black; " description="&lt;b&gt;ARO44650.1&lt;/b&gt;&lt;br&gt;transporter&lt;br&gt;Location: 3826 - 5406&lt;br&gt;&lt;br&gt;&lt;b&gt;BlastP hit with ctg147_6&lt;/b&gt;&lt;br&gt;Percentage identity: 76&lt;br&gt;Percentage coverage: 98&lt;br&gt;BLAST bit score: 671&lt;br&gt;E-value: 1.3e-192" locus_tag="ARO44650.1" class="clusterblast-orf" id="dummy-1_h1_5_3"  />
</g>
<g id="a1_004"  >
<polygon points="94,85 99,80 105,80 105,90 99,90 94,85 " style="fill:#15d8d8; stroke-width:1; stroke:black; " description="&lt;b&gt;ARO44679.1&lt;/b&gt;&lt;br&gt;NADPH-dependent FMN reductase&lt;br&gt;Location: 5437 - 6036&lt;br&gt;&lt;br&gt;&lt;b&gt;BlastP hit with ctg147_7&lt;/b&gt;&lt;br&gt;Percentage identity: 85&lt;br&gt;Percentage coverage: 99&lt;br&gt;BLAST bit score: 352&lt;br&gt;E-value: 4e-97" locus_tag="ARO44679.1" class="clusterblast-orf" id="dummy-1_h1_5_4"  />
</g>
<g id="a1_005"  >
<polygon points="107,90 115,90 120,85 115,80 107,80 107,90 " style="fill:white; stroke-width:1; stroke:black; " description="&lt;b&gt;ARO44676.1&lt;/b&gt;&lt;br&gt;TetR family transcriptional regulator&lt;br&gt;Location: 6156 - 6893" locus_tag="ARO44676.1" class="clusterblast-orf" id="dummy-1_h1_5_5"  />
</g>
<g id="a1_006"  >
<polygon points="122,90 132,90 137,85 132,80 122,80 122,90 " style="fill:white; stroke-width:1; stroke:black; " description="&lt;b&gt;ARO44670.1&lt;/b&gt;&lt;br&gt;hypothetical protein&lt;br&gt;Location: 7023 - 7874" locus_tag="ARO44670.1" class="clusterblast-orf" id="dummy-1_h1_5_6"  />
</g>
<g id="a1_007"  >
<polygon points="142,90 163,90 168,85 163,80 142,80 142,90 " style="fill:white; stroke-width:1; stroke:black; " description="&lt;b&gt;ARO44651.1&lt;/b&gt;&lt;br&gt;monooxygenase&lt;br&gt;Location: 8193 - 9680" locus_tag="ARO44651.1" class="clusterblast-orf" id="dummy-1_h1_5_7"  />
</g>
<g id="a1_008"  >
<polygon points="168,90 169,90 174,85 169,80 168,80 168,90 " style="fill:white; stroke-width:1; stroke:black; " description="&lt;b&gt;ARO44683.1&lt;/b&gt;&lt;br&gt;cyclase&lt;br&gt;Location: 9694 - 10020" locus_tag="ARO44683.1" class="clusterblast-orf" id="dummy-1_h1_5_8"  />
</g>
<g id="a1_009"  >
<polygon points="175,90 191,90 196,85 191,80 175,80 175,90 " style="fill:white; stroke-width:1; stroke:black; " description="&lt;b&gt;ARO44655.1&lt;/b&gt;&lt;br&gt;ketoacyl synthase alpha subunit&lt;br&gt;Location: 10044 - 11297" locus_tag="ARO44655.1" class="clusterblast-orf" id="dummy-1_h1_5_9"  />
</g>
<g id="a1_0010"  >
<polygon points="196,90 213,90 218,85 213,80 196,80 196,90 " style="fill:white; stroke-width:1; stroke:black; " description="&lt;b&gt;ARO44656.1&lt;/b&gt;&lt;br&gt;ketoacyl synthase CLF&lt;br&gt;Location: 11294 - 12520" locus_tag="ARO44656.1" class="clusterblast-orf" id="dummy-1_h1_5_10"  />
</g>
<g id="a1_0011"  >
<polygon points="221,90 221,90 226,85 221,80 221,80 221,90 " style="fill:white; stroke-width:1; stroke:black; " description="&lt;b&gt;ARO44684.1&lt;/b&gt;&lt;br&gt;acyl carrier protein&lt;br&gt;Location: 12705 - 12974" locus_tag="ARO44684.1" class="clusterblast-orf" id="dummy-1_h1_5_11"  />
</g>
<g id="a1_0012"  >
<polygon points="230,90 239,90 244,85 239,80 230,80 230,90 " style="fill:white; stroke-width:1; stroke:black; " description="&lt;b&gt;ARO44671.1&lt;/b&gt;&lt;br&gt;ketoreductase&lt;br&gt;Location: 13225 - 14010" locus_tag="ARO44671.1" class="clusterblast-orf" id="dummy-1_h1_5_12"  />
</g>
<g id="a1_0013"  >
<polygon points="244,90 256,90 261,85 256,80 244,80 244,90 " style="fill:white; stroke-width:1; stroke:black; " description="&lt;b&gt;ARO44668.1&lt;/b&gt;&lt;br&gt;cyclase&lt;br&gt;Location: 14052 - 14987" locus_tag="ARO44668.1" class="clusterblast-orf" id="dummy-1_h1_5_13"  />
</g>
<g id="a1_0014"  >
<polygon points="261,90 291,90 296,85 291,80 261,80 261,90 " style="fill:white; stroke-width:1; stroke:black; " description="&lt;b&gt;ARO44645.1&lt;/b&gt;&lt;br&gt;monooxygenase&lt;br&gt;Location: 14990 - 16987" locus_tag="ARO44645.1" class="clusterblast-orf" id="dummy-1_h1_5_14"  />
</g>
<g id="a1_0015"  >
<polygon points="296,90 312,90 317,85 312,80 296,80 296,90 " style="fill:white; stroke-width:1; stroke:black; " description="&lt;b&gt;ARO44657.1&lt;/b&gt;&lt;br&gt;transporter&lt;br&gt;Location: 17008 - 18222" locus_tag="ARO44657.1" class="clusterblast-orf" id="dummy-1_h1_5_15"  />
</g>
<g id="a1_0016"  >
<polygon points="318,90 336,90 341,85 336,80 318,80 318,90 " style="fill:white; stroke-width:1; stroke:black; " description="&lt;b&gt;ARO44654.1&lt;/b&gt;&lt;br&gt;glycosyltransferase&lt;br&gt;Location: 18281 - 19573" locus_tag="ARO44654.1" class="clusterblast-orf" id="dummy-1_h1_5_16"  />
</g>
<g id="a1_0017"  >
<polygon points="341,90 357,90 362,85 357,80 341,80 341,90 " style="fill:white; stroke-width:1; stroke:black; " description="&lt;b&gt;ARO44658.1&lt;/b&gt;&lt;br&gt;glycosyltransferase&lt;br&gt;Location: 19599 - 20813" locus_tag="ARO44658.1" class="clusterblast-orf" id="dummy-1_h1_5_17"  />
</g>
<g id="a1_0018"  >
<polygon points="364,90 367,90 372,85 367,80 364,80 364,90 " style="fill:white; stroke-width:1; stroke:black; " description="&lt;b&gt;ARO44680.1&lt;/b&gt;&lt;br&gt;NDP-hexose, 3,5-epimerase&lt;br&gt;Location: 20882 - 21376" locus_tag="ARO44680.1" class="clusterblast-orf" id="dummy-1_h1_5_18"  />
</g>
<g id="a1_0019"  >
<polygon points="372,90 387,90 392,85 387,80 372,80 372,90 " style="fill:white; stroke-width:1; stroke:black; " description="&lt;b&gt;ARO44660.1&lt;/b&gt;&lt;br&gt;glycosyltransferase&lt;br&gt;Location: 21379 - 22509" locus_tag="ARO44660.1" class="clusterblast-orf" id="dummy-1_h1_5_19"  />
</g>
<g id="a1_0020"  >
<polygon points="392,90 406,90 411,85 406,80 392,80 392,90 " style="fill:white; stroke-width:1; stroke:black; " description="&lt;b&gt;ARO44662.1&lt;/b&gt;&lt;br&gt;glucose-1-phosphate thymidylyltransferase&lt;br&gt;Location: 22535 - 23602" locus_tag="ARO44662.1" class="clusterblast-orf" id="dummy-1_h1_5_20"  />
</g>
<g id="a1_0021"  >
<polygon points="411,90 423,90 428,85 423,80 411,80 411,90 " style="fill:white; stroke-width:1; stroke:black; " description="&lt;b&gt;ARO44664.1&lt;/b&gt;&lt;br&gt;NDP-glucose 4,6-dehydratase&lt;br&gt;Location: 23599 - 24582" locus_tag="ARO44664.1" class="clusterblast-orf" id="dummy-1_h1_5_21"  />
</g>
<g id="a1_0022"  >
<polygon points="430,90 441,90 446,85 441,80 430,80 430,90 " style="fill:white; stroke-width:1; stroke:black; " description="&lt;b&gt;ARO44667.1&lt;/b&gt;&lt;br&gt;NDP-hexose 4-ketoreductase&lt;br&gt;Location: 24680 - 25633" locus_tag="ARO44667.1" class="clusterblast-orf" id="dummy-1_h1_5_22"  />
</g>
<g id="a1_0023"  >
<polygon points="446,90 464,90 469,85 464,80 446,80 446,90 " style="fill:white; stroke-width:1; stroke:black; " description="&lt;b&gt;ARO44653.1&lt;/b&gt;&lt;br&gt;NDP-hexose 3,4-dehydratase&lt;br&gt;Location: 25630 - 26934" locus_tag="ARO44653.1" class="clusterblast-orf" id="dummy-1_h1_5_23"  />
</g>
<g id="a1_0024"  >
<polygon points="470,90 478,90 483,85 478,80 470,80 470,90 " style="fill:white; stroke-width:1; stroke:black; " description="&lt;b&gt;ARO44673.1&lt;/b&gt;&lt;br&gt;NDP-hexose 4-ketoreductase&lt;br&gt;Location: 26980 - 27744" locus_tag="ARO44673.1" class="clusterblast-orf" id="dummy-1_h1_5_24"  />
</g>
<g id="a1_0025"  >
<polygon points="484,90 496,90 501,85 496,80 484,80 484,90 " style="fill:white; stroke-width:1; stroke:black; " description="&lt;b&gt;ARO44665.1&lt;/b&gt;&lt;br&gt;hypothetical protein&lt;br&gt;Location: 27809 - 28783" locus_tag="ARO44665.1" class="clusterblast-orf" id="dummy-1_h1_5_25"  />
</g>
<g id="a1_0026"  >
<polygon points="502,90 522,90 527,85 522,80 502,80 502,90 " style="fill:white; stroke-width:1; stroke:black; " description="&lt;b&gt;ARO44652.1&lt;/b&gt;&lt;br&gt;NDP-hexose 2,3-dehydratase&lt;br&gt;Location: 28849 - 30249" locus_tag="ARO44652.1" class="clusterblast-orf" id="dummy-1_h1_5_26"  />
</g>
<g id="a1_0027"  >
<polygon points="527,90 538,90 543,85 538,80 527,80 527,90 " style="fill:white; stroke-width:1; stroke:black; " description="&lt;b&gt;ARO44666.1&lt;/b&gt;&lt;br&gt;NDP-hexose 3-ketoreductase&lt;br&gt;Location: 30246 - 31202" locus_tag="ARO44666.1" class="clusterblast-orf" id="dummy-1_h1_5_27"  />
</g>
<g id="a1_0028"  >
<polygon points="543,90 552,90 557,85 552,80 543,80 543,90 " style="fill:white; stroke-width:1; stroke:black; " description="&lt;b&gt;ARO44674.1&lt;/b&gt;&lt;br&gt;4'-phosphopantetheinyl transferase&lt;br&gt;Location: 31199 - 31963" locus_tag="ARO44674.1" class="clusterblast-orf" id="dummy-1_h1_5_28"  />
</g>
<g id="a1_0029"  >
<polygon points="557,90 580,90 585,85 580,80 557,80 557,90 " style="fill:white; stroke-width:1; stroke:black; " description="&lt;b&gt;ARO44649.1&lt;/b&gt;&lt;br&gt;decarboxylase&lt;br&gt;Location: 31978 - 33570" locus_tag="ARO44649.1" class="clusterblast-orf" id="dummy-1_h1_5_29"  />
</g>
<g id="a1_0030"  >
<polygon points="586,90 593,90 598,85 593,80 586,80 586,90 " style="fill:white; stroke-width:1; stroke:black; " description="&lt;b&gt;ARO44678.1&lt;/b&gt;&lt;br&gt;hypothetical protein&lt;br&gt;Location: 33641 - 34318" locus_tag="ARO44678.1" class="clusterblast-orf" id="dummy-1_h1_5_30"  />
</g>
<g id="a1_0031"  >
<polygon points="599,90 623,90 628,85 623,80 599,80 599,90 " style="fill:white; stroke-width:1; stroke:black; " description="&lt;b&gt;ARO44647.1&lt;/b&gt;&lt;br&gt;FAD/FMN-containing dehydrogenase&lt;br&gt;Location: 34395 - 36023" locus_tag="ARO44647.1" class="clusterblast-orf" id="dummy-1_h1_5_31"  />
</g>
<g id="a1_0032"  >
<polygon points="630,90 632,90 637,85 632,80 630,80 630,90 " style="fill:white; stroke-width:1; stroke:black; " description="&lt;b&gt;ARO44681.1&lt;/b&gt;&lt;br&gt;hypothetical protein&lt;br&gt;Location: 36141 - 36578" locus_tag="ARO44681.1" class="clusterblast-orf" id="dummy-1_h1_5_32"  />
</g>
<g id="a1_0033"  >
<polygon points="647,85 652,80 660,80 660,90 652,90 647,85 " style="fill:white; stroke-width:1; stroke:black; " description="&lt;b&gt;ARO44672.1&lt;/b&gt;&lt;br&gt;positive regulation regulator&lt;br&gt;Location: 37134 - 37898" locus_tag="ARO44672.1" class="clusterblast-orf" id="dummy-1_h1_5_33"  />
</g>
<g id="a1_0034"  >
<polygon points="672,90 699,90 704,85 699,80 672,80 672,90 " style="fill:white; stroke-width:1; stroke:black; " description="&lt;b&gt;ARO44646.1&lt;/b&gt;&lt;br&gt;2-oxoacid:ferredoxin oxidoreductase, alpha subunit&lt;br&gt;Location: 38557 - 40383" locus_tag="ARO44646.1" class="clusterblast-orf" id="dummy-1_h1_5_34"  />
</g>
<g id="a1_0035"  >
<polygon points="703,90 717,90 722,85 717,80 703,80 703,90 " style="fill:white; stroke-width:1; stroke:black; " description="&lt;b&gt;ARO44661.1&lt;/b&gt;&lt;br&gt;2-oxoacid:ferredoxin oxidoreductase, beta subunit&lt;br&gt;Location: 40376 - 41455" locus_tag="ARO44661.1" class="clusterblast-orf" id="dummy-1_h1_5_35"  />
</g>
<g id="a1_0036"  >
<polygon points="723,85 728,80 730,80 730,90 728,90 723,85 " style="fill:white; stroke-width:1; stroke:black; " description="&lt;b&gt;ARO44682.1&lt;/b&gt;&lt;br&gt;transcriptional regulator&lt;br&gt;Location: 41489 - 41899" locus_tag="ARO44682.1" class="clusterblast-orf" id="dummy-1_h1_5_36"  />
</g>
<g id="a1_0037"  >
<polygon points="732,90 741,90 746,85 741,80 732,80 732,90 " style="fill:white; stroke-width:1; stroke:black; " description="&lt;b&gt;ARO44669.1&lt;/b&gt;&lt;br&gt;NAD(P)-dependent oxidoreductase&lt;br&gt;Location: 41991 - 42845" locus_tag="ARO44669.1" class="clusterblast-orf" id="dummy-1_h1_5_37"  />
</g>
<g id="a1_0038"  >
<polygon points="749,90 761,90 766,85 761,80 749,80 749,90 " style="fill:white; stroke-width:1; stroke:black; " description="&lt;b&gt;ARO44663.1&lt;/b&gt;&lt;br&gt;transporter&lt;br&gt;Location: 42974 - 43987" locus_tag="ARO44663.1" class="clusterblast-orf" id="dummy-1_h1_5_38"  />
</g>
<g id="a1_0039"  >
<polygon points="768,85 773,80 780,80 780,90 773,90 768,85 " style="fill:white; stroke-width:1; stroke:black; " description="&lt;b&gt;ARO44677.1&lt;/b&gt;&lt;br&gt;hypothetical protein&lt;br&gt;Location: 44060 - 44740" locus_tag="ARO44677.1" class="clusterblast-orf" id="dummy-1_h1_5_39"  />
</g>
</svg>
