<svg xmlns="http://www.w3.org/2000/svg" xmlns:xlink="http://www.w3.org/1999/xlink" version="1.1" x="0" y="0" height="230" width="800" viewBox="0 0 800 230" preserveAspectRatio="none"  >
<g label="Query sequence" class="clusterblast-cluster"  >
<text x="5" y="20" class="clusterblast-acc"  >
Query sequence</text>
<line x1="10" y1="35" x2="778.0" y2="35" style="stroke-width:1; stroke:grey; "  />
<polygon points="0,40 15,40 20,35 15,30 0,30 0,40 " style="fill:#d81515; stroke-width:1; stroke:black; " description="&lt;b&gt;ctg8_1&lt;/b&gt;&lt;br&gt;ctg8 1&lt;br&gt;Location: 34 - 1228" locus_tag="ctg8_1" class="clusterblast-orf" id="dummy-1_q0_0_all"  />
<polygon points="20,40 24,35 20,30 20,40 " style="fill:#56d815; stroke-width:1; stroke:black; " description="&lt;b&gt;ctg8_2&lt;/b&gt;&lt;br&gt;ctg8 2&lt;br&gt;Location: 1247 - 1463" locus_tag="ctg8_2" class="clusterblast-orf" id="dummy-1_q1_0_all"  />
<polygon points="24,40 38,40 43,35 38,30 24,30 24,40 " style="fill:#1597d8; stroke-width:1; stroke:black; " description="&lt;b&gt;ctg8_3&lt;/b&gt;&lt;br&gt;ctg8 3&lt;br&gt;Location: 1459 - 2614" locus_tag="ctg8_3" class="clusterblast-orf" id="dummy-1_q2_0_all"  />
<polygon points="44,40 70,40 75,35 70,30 44,30 44,40 " style="fill:#9715d8; stroke-width:1; stroke:black; " description="&lt;b&gt;ctg8_4&lt;/b&gt;&lt;br&gt;ctg8 4&lt;br&gt;Location: 2687 - 4496" locus_tag="ctg8_4" class="clusterblast-orf" id="dummy-1_q3_0_all"  />
<polygon points="75,40 77,40 82,35 77,30 75,30 75,40 " style="fill:#d85615; stroke-width:1; stroke:black; " description="&lt;b&gt;ctg8_5&lt;/b&gt;&lt;br&gt;ctg8 5&lt;br&gt;Location: 4492 - 4885" locus_tag="ctg8_5" class="clusterblast-orf" id="dummy-1_q4_0_all"  />
<polygon points="82,40 97,40 102,35 97,30 82,30 82,40 " style="fill:#15d815; stroke-width:1; stroke:black; " description="&lt;b&gt;ctg8_6&lt;/b&gt;&lt;br&gt;ctg8 6&lt;br&gt;Location: 4895 - 6089" locus_tag="ctg8_6" class="clusterblast-orf" id="dummy-1_q5_0_all"  />
<polygon points="103,40 111,40 116,35 111,30 103,30 103,40 " style="fill:#1556d8; stroke-width:1; stroke:black; " description="&lt;b&gt;ctg8_7&lt;/b&gt;&lt;br&gt;ctg8 7&lt;br&gt;Location: 6134 - 6944" locus_tag="ctg8_7" class="clusterblast-orf" id="dummy-1_q6_0_all"  />
<polygon points="116,35 121,30 125,30 125,40 121,40 116,35 " style="fill:#d815d8; stroke-width:1; stroke:black; " description="&lt;b&gt;ctg8_8&lt;/b&gt;&lt;br&gt;ctg8 8&lt;br&gt;Location: 6923 - 7457" locus_tag="ctg8_8" class="clusterblast-orf" id="dummy-1_q7_0_all"  />
<polygon points="125,40 128,35 125,30 125,40 " style="fill:white; stroke-width:1; stroke:black; " description="&lt;b&gt;ctg8_9&lt;/b&gt;&lt;br&gt;ctg8 9&lt;br&gt;Location: 7481 - 7646" locus_tag="ctg8_9" class="clusterblast-orf" id="dummy-1_q8_0_all"  />
<polygon points="133,35 138,30 153,30 153,40 138,40 133,35 " style="fill:#d89715; stroke-width:1; stroke:black; " description="&lt;b&gt;ctg8_10&lt;/b&gt;&lt;br&gt;ctg8 10&lt;br&gt;Location: 7953 - 9105" locus_tag="ctg8_10" class="clusterblast-orf" id="dummy-1_q9_0_all"  />
<polygon points="153,35 158,30 183,30 183,40 158,40 153,35 " style="fill:#15d856; stroke-width:1; stroke:black; " description="&lt;b&gt;ctg8_11&lt;/b&gt;&lt;br&gt;ctg8 11&lt;br&gt;Location: 9101 - 10916" locus_tag="ctg8_11" class="clusterblast-orf" id="dummy-1_q10_0_all"  />
<polygon points="184,35 189,30 201,30 201,40 189,40 184,35 " style="fill:#1515d8; stroke-width:1; stroke:black; " description="&lt;b&gt;ctg8_12&lt;/b&gt;&lt;br&gt;ctg8 12&lt;br&gt;Location: 10927 - 11929" locus_tag="ctg8_12" class="clusterblast-orf" id="dummy-1_q11_0_all"  />
<polygon points="204,40 213,40 218,35 213,30 204,30 204,40 " style="fill:#d81597; stroke-width:1; stroke:black; " description="&lt;b&gt;ctg8_13&lt;/b&gt;&lt;br&gt;ctg8 13&lt;br&gt;Location: 12135 - 12939" locus_tag="ctg8_13" class="clusterblast-orf" id="dummy-1_q12_0_all"  />
<polygon points="218,35 223,30 229,30 229,40 223,40 218,35 " style="fill:white; stroke-width:1; stroke:black; " description="&lt;b&gt;ctg8_14&lt;/b&gt;&lt;br&gt;ctg8 14&lt;br&gt;Location: 12961 - 13627" locus_tag="ctg8_14" class="clusterblast-orf" id="dummy-1_q13_0_all"  />
<polygon points="232,40 275,40 280,35 275,30 232,30 232,40 " style="fill:white; stroke-width:1; stroke:black; " description="&lt;b&gt;ctg8_15&lt;/b&gt;&lt;br&gt;ctg8 15&lt;br&gt;Location: 13762 - 16624" locus_tag="ctg8_15" class="clusterblast-orf" id="dummy-1_q14_0_all"  />
<polygon points="281,40 283,40 288,35 283,30 281,30 281,40 " style="fill:white; stroke-width:1; stroke:black; " description="&lt;b&gt;ctg8_16&lt;/b&gt;&lt;br&gt;ctg8 16&lt;br&gt;Location: 16678 - 17080" locus_tag="ctg8_16" class="clusterblast-orf" id="dummy-1_q15_0_all"  />
<polygon points="288,40 296,40 301,35 296,30 288,30 288,40 " style="fill:white; stroke-width:1; stroke:black; " description="&lt;b&gt;ctg8_17&lt;/b&gt;&lt;br&gt;ctg8 17&lt;br&gt;Location: 17081 - 17846" locus_tag="ctg8_17" class="clusterblast-orf" id="dummy-1_q16_0_all"  />
<polygon points="301,35 306,30 329,30 329,40 306,40 301,35 " style="fill:white; stroke-width:1; stroke:black; " description="&lt;b&gt;ctg8_18&lt;/b&gt;&lt;br&gt;ctg8 18&lt;br&gt;Location: 17897 - 19535" locus_tag="ctg8_18" class="clusterblast-orf" id="dummy-1_q17_0_all"  />
<polygon points="329,35 334,30 338,30 338,40 334,40 329,35 " style="fill:white; stroke-width:1; stroke:black; " description="&lt;b&gt;ctg8_19&lt;/b&gt;&lt;br&gt;ctg8 19&lt;br&gt;Location: 19531 - 20044" locus_tag="ctg8_19" class="clusterblast-orf" id="dummy-1_q18_0_all"  />
<polygon points="338,35 343,30 348,30 348,40 343,40 338,35 " style="fill:white; stroke-width:1; stroke:black; " description="&lt;b&gt;ctg8_20&lt;/b&gt;&lt;br&gt;ctg8 20&lt;br&gt;Location: 20040 - 20667" locus_tag="ctg8_20" class="clusterblast-orf" id="dummy-1_q19_0_all"  />
<polygon points="351,35 356,30 366,30 366,40 356,40 351,35 " style="fill:white; stroke-width:1; stroke:black; " description="&lt;b&gt;ctg8_21&lt;/b&gt;&lt;br&gt;ctg8 21&lt;br&gt;Location: 20806 - 21709" locus_tag="ctg8_21" class="clusterblast-orf" id="dummy-1_q20_0_all"  />
<polygon points="374,40 410,40 415,35 410,30 374,30 374,40 " style="fill:white; stroke-width:1; stroke:black; " description="&lt;b&gt;ctg8_22&lt;/b&gt;&lt;br&gt;ctg8 22&lt;br&gt;Location: 22167 - 24606" locus_tag="ctg8_22" class="clusterblast-orf" id="dummy-1_q21_0_all"  />
<polygon points="415,40 447,40 452,35 447,30 415,30 415,40 " style="fill:white; stroke-width:1; stroke:black; " description="&lt;b&gt;ctg8_23&lt;/b&gt;&lt;br&gt;ctg8 23&lt;br&gt;Location: 24606 - 26832" locus_tag="ctg8_23" class="clusterblast-orf" id="dummy-1_q22_0_all"  />
<polygon points="454,40 467,40 472,35 467,30 454,30 454,40 " style="fill:#d8d815; stroke-width:1; stroke:black; " description="&lt;b&gt;ctg8_24&lt;/b&gt;&lt;br&gt;ctg8 24&lt;br&gt;Location: 26957 - 28010" locus_tag="ctg8_24" class="clusterblast-orf" id="dummy-1_q23_0_all"  />
<polygon points="472,40 485,40 490,35 485,30 472,30 472,40 " style="fill:#15d897; stroke-width:1; stroke:black; " description="&lt;b&gt;ctg8_25&lt;/b&gt;&lt;br&gt;ctg8 25&lt;br&gt;Location: 28006 - 29050" locus_tag="ctg8_25" class="clusterblast-orf" id="dummy-1_q24_0_all"  />
<polygon points="490,40 502,40 507,35 502,30 490,30 490,40 " style="fill:#5615d8; stroke-width:1; stroke:black; " description="&lt;b&gt;ctg8_26&lt;/b&gt;&lt;br&gt;ctg8 26&lt;br&gt;Location: 29061 - 30072" locus_tag="ctg8_26" class="clusterblast-orf" id="dummy-1_q25_0_all"  />
<polygon points="507,35 512,30 515,30 515,40 512,40 507,35 " style="fill:#d81556; stroke-width:1; stroke:black; " description="&lt;b&gt;ctg8_27&lt;/b&gt;&lt;br&gt;ctg8 27&lt;br&gt;Location: 30084 - 30567" locus_tag="ctg8_27" class="clusterblast-orf" id="dummy-1_q26_0_all"  />
<polygon points="518,40 534,40 539,35 534,30 518,30 518,40 " style="fill:#97d815; stroke-width:1; stroke:black; " description="&lt;b&gt;ctg8_28&lt;/b&gt;&lt;br&gt;ctg8 28&lt;br&gt;Location: 30746 - 31988" locus_tag="ctg8_28" class="clusterblast-orf" id="dummy-1_q27_0_all"  />
<polygon points="539,40 543,35 539,30 539,40 " style="fill:#15d8d8; stroke-width:1; stroke:black; " description="&lt;b&gt;ctg8_29&lt;/b&gt;&lt;br&gt;ctg8 29&lt;br&gt;Location: 31984 - 32185" locus_tag="ctg8_29" class="clusterblast-orf" id="dummy-1_q28_0_all"  />
<polygon points="544,35 549,30 566,30 566,40 549,40 544,35 " style="fill:white; stroke-width:1; stroke:black; " description="&lt;b&gt;ctg8_30&lt;/b&gt;&lt;br&gt;ctg8 30&lt;br&gt;Location: 32242 - 33541" locus_tag="ctg8_30" class="clusterblast-orf" id="dummy-1_q29_0_all"  />
<polygon points="567,35 571,30 571,40 567,35 " style="fill:white; stroke-width:1; stroke:black; " description="&lt;b&gt;ctg8_31&lt;/b&gt;&lt;br&gt;ctg8 31&lt;br&gt;Location: 33610 - 33826" locus_tag="ctg8_31" class="clusterblast-orf" id="dummy-1_q30_0_all"  />
<polygon points="570,35 575,30 597,30 597,40 575,40 570,35 " style="fill:white; stroke-width:1; stroke:black; " description="&lt;b&gt;ctg8_32&lt;/b&gt;&lt;br&gt;ctg8 32&lt;br&gt;Location: 33822 - 35376" locus_tag="ctg8_32" class="clusterblast-orf" id="dummy-1_q31_0_all"  />
<polygon points="596,35 601,30 653,30 653,40 601,40 596,35 " style="fill:white; stroke-width:1; stroke:black; " description="&lt;b&gt;ctg8_33&lt;/b&gt;&lt;br&gt;ctg8 33&lt;br&gt;Location: 35359 - 38725" locus_tag="ctg8_33" class="clusterblast-orf" id="dummy-1_q32_0_all"  />
<polygon points="653,35 658,30 683,30 683,40 658,40 653,35 " style="fill:white; stroke-width:1; stroke:black; " description="&lt;b&gt;ctg8_34&lt;/b&gt;&lt;br&gt;ctg8 34&lt;br&gt;Location: 38721 - 40512" locus_tag="ctg8_34" class="clusterblast-orf" id="dummy-1_q33_0_all"  />
<polygon points="683,35 688,30 780,30 780,40 688,40 683,35 " style="fill:white; stroke-width:1; stroke:black; " description="&lt;b&gt;ctg8_35&lt;/b&gt;&lt;br&gt;ctg8 35&lt;br&gt;Location: 40511 - 46208" locus_tag="ctg8_35" class="clusterblast-orf" id="dummy-1_q34_0_all"  />
</g>
<g label="BGC0000665" description="BGC0000665_c1: Xiamycin (60% of genes show similarity), terpene-alkaloid" class="clusterblast-cluster"  >
<text x="5" y="70" class="clusterblast-acc"  >
<a xlink:href="https://mibig.secondarymetabolites.org/go/BGC0000665/1" target="_blank">BGC0000665</a>:                                                                         Xiamycin (60% of genes show similarity), terpene-alkaloid</text>
<line x1="10" y1="85" x2="778.0" y2="85" style="stroke-width:1; stroke:grey; "  />
</g>
<g id="a1_000"  >
<polygon points="210,85 215,80 257,80 257,90 215,90 210,85 " style="fill:white; stroke-width:1; stroke:black; " description="&lt;b&gt;CCH63741.1&lt;/b&gt;&lt;br&gt;XiaO protein&lt;br&gt;Location: 21259 - 18482" locus_tag="CCH63741.1" class="clusterblast-orf" id="dummy-1_h1_2_0"  />
</g>
<g id="a1_001"  >
<polygon points="260,90 305,90 310,85 305,80 260,80 260,90 " style="fill:white; stroke-width:1; stroke:black; " description="&lt;b&gt;CCH63740.1&lt;/b&gt;&lt;br&gt;XiaN protein&lt;br&gt;Location: 18309 - 15358" locus_tag="CCH63740.1" class="clusterblast-orf" id="dummy-1_h1_2_1"  />
</g>
<g id="a1_002"  >
<polygon points="311,90 323,90 328,85 323,80 311,80 311,90 " style="fill:white; stroke-width:1; stroke:black; " description="&lt;b&gt;CCH63739.1&lt;/b&gt;&lt;br&gt;XiaM protein&lt;br&gt;Location: 15263 - 14256" locus_tag="CCH63739.1" class="clusterblast-orf" id="dummy-1_h1_2_2"  />
</g>
<g id="a1_003"  >
<polygon points="329,90 360,90 365,85 360,80 329,80 329,90 " style="fill:white; stroke-width:1; stroke:black; " description="&lt;b&gt;CCH63738.1&lt;/b&gt;&lt;br&gt;XiaL protein&lt;br&gt;Location: 14227 - 12059" locus_tag="CCH63738.1" class="clusterblast-orf" id="dummy-1_h1_2_3"  />
</g>
<g id="a1_004"  >
<polygon points="366,90 380,90 385,85 380,80 366,80 366,90 " style="fill:white; stroke-width:1; stroke:black; " description="&lt;b&gt;CCH63737.1&lt;/b&gt;&lt;br&gt;XiaK protein&lt;br&gt;Location: 12036 - 10906" locus_tag="CCH63737.1" class="clusterblast-orf" id="dummy-1_h1_2_4"  />
</g>
<g id="a1_005"  >
<polygon points="387,90 402,90 407,85 402,80 387,80 387,90 " style="fill:#d81515; stroke-width:1; stroke:black; " description="&lt;b&gt;CCH63736.1&lt;/b&gt;&lt;br&gt;XiaJ protein&lt;br&gt;Location: 10752 - 9583&lt;br&gt;&lt;br&gt;&lt;b&gt;BlastP hit with ctg8_1&lt;/b&gt;&lt;br&gt;Percentage identity: 61&lt;br&gt;Percentage coverage: 100&lt;br&gt;BLAST bit score: 478&lt;br&gt;E-value: 7.3e-135" locus_tag="CCH63736.1" class="clusterblast-orf" id="dummy-1_h1_2_5"  />
</g>
<g id="a1_006"  >
<polygon points="408,90 412,85 408,80 408,90 " style="fill:white; stroke-width:1; stroke:black; " description="&lt;b&gt;CCH63735.1&lt;/b&gt;&lt;br&gt;XiaI protein&lt;br&gt;Location: 9557 - 9324" locus_tag="CCH63735.1" class="clusterblast-orf" id="dummy-1_h1_2_6"  />
</g>
<g id="a1_007"  >
<polygon points="412,90 437,90 442,85 437,80 412,80 412,90 " style="fill:#9715d8; stroke-width:1; stroke:black; " description="&lt;b&gt;CCH63734.1&lt;/b&gt;&lt;br&gt;XiaH protein&lt;br&gt;Location: 9327 - 7534&lt;br&gt;&lt;br&gt;&lt;b&gt;BlastP hit with ctg8_4&lt;/b&gt;&lt;br&gt;Percentage identity: 65&lt;br&gt;Percentage coverage: 99&lt;br&gt;BLAST bit score: 775&lt;br&gt;E-value: 7.5e-224" locus_tag="CCH63734.1" class="clusterblast-orf" id="dummy-1_h1_2_7"  />
</g>
<g id="a1_008"  >
<polygon points="442,90 443,90 448,85 443,80 442,80 442,90 " style="fill:#d85615; stroke-width:1; stroke:black; " description="&lt;b&gt;CCH63733.1&lt;/b&gt;&lt;br&gt;XiaG protein&lt;br&gt;Location: 7531 - 7142&lt;br&gt;&lt;br&gt;&lt;b&gt;BlastP hit with ctg8_5&lt;/b&gt;&lt;br&gt;Percentage identity: 68&lt;br&gt;Percentage coverage: 95&lt;br&gt;BLAST bit score: 177&lt;br&gt;E-value: 1.5e-44" locus_tag="CCH63733.1" class="clusterblast-orf" id="dummy-1_h1_2_8"  />
</g>
<g id="a1_009"  >
<polygon points="448,90 464,90 469,85 464,80 448,80 448,90 " style="fill:#15d815; stroke-width:1; stroke:black; " description="&lt;b&gt;CCH63732.1&lt;/b&gt;&lt;br&gt;XiaF protein&lt;br&gt;Location: 7145 - 5946&lt;br&gt;&lt;br&gt;&lt;b&gt;BlastP hit with ctg8_6&lt;/b&gt;&lt;br&gt;Percentage identity: 72&lt;br&gt;Percentage coverage: 100&lt;br&gt;BLAST bit score: 562&lt;br&gt;E-value: 6.6e-160" locus_tag="CCH63732.1" class="clusterblast-orf" id="dummy-1_h1_2_9"  />
</g>
<g id="a1_0010"  >
<polygon points="470,90 477,90 482,85 477,80 470,80 470,90 " style="fill:#1556d8; stroke-width:1; stroke:black; " description="&lt;b&gt;CCH63731.1&lt;/b&gt;&lt;br&gt;XiaE protein&lt;br&gt;Location: 5879 - 5127&lt;br&gt;&lt;br&gt;&lt;b&gt;BlastP hit with ctg8_7&lt;/b&gt;&lt;br&gt;Percentage identity: 77&lt;br&gt;Percentage coverage: 91&lt;br&gt;BLAST bit score: 368&lt;br&gt;E-value: 9.4e-102" locus_tag="CCH63731.1" class="clusterblast-orf" id="dummy-1_h1_2_10"  />
</g>
<g id="a1_0011"  >
<polygon points="482,85 487,80 495,80 495,90 487,90 482,85 " style="fill:#d815d8; stroke-width:1; stroke:black; " description="&lt;b&gt;CCH63730.1&lt;/b&gt;&lt;br&gt;XiaD protein&lt;br&gt;Location: 5134 - 4412&lt;br&gt;&lt;br&gt;&lt;b&gt;BlastP hit with ctg8_8&lt;/b&gt;&lt;br&gt;Percentage identity: 82&lt;br&gt;Percentage coverage: 100&lt;br&gt;BLAST bit score: 270&lt;br&gt;E-value: 1.3e-72" locus_tag="CCH63730.1" class="clusterblast-orf" id="dummy-1_h1_2_11"  />
</g>
<g id="a1_0012"  >
<polygon points="502,85 507,80 521,80 521,90 507,90 502,85 " style="fill:#d89715; stroke-width:1; stroke:black; " description="&lt;b&gt;CCH63729.1&lt;/b&gt;&lt;br&gt;XiaC protein&lt;br&gt;Location: 3980 - 2829&lt;br&gt;&lt;br&gt;&lt;b&gt;BlastP hit with ctg8_10&lt;/b&gt;&lt;br&gt;Percentage identity: 90&lt;br&gt;Percentage coverage: 100&lt;br&gt;BLAST bit score: 668&lt;br&gt;E-value: 8.2e-192" locus_tag="CCH63729.1" class="clusterblast-orf" id="dummy-1_h1_2_12"  />
</g>
<g id="a1_0013"  >
<polygon points="521,85 526,80 552,80 552,90 526,90 521,85 " style="fill:#15d856; stroke-width:1; stroke:black; " description="&lt;b&gt;CCH63728.1&lt;/b&gt;&lt;br&gt;XiaB protein&lt;br&gt;Location: 2832 - 1015&lt;br&gt;&lt;br&gt;&lt;b&gt;BlastP hit with ctg8_11&lt;/b&gt;&lt;br&gt;Percentage identity: 76&lt;br&gt;Percentage coverage: 100&lt;br&gt;BLAST bit score: 899&lt;br&gt;E-value: 2.6e-261" locus_tag="CCH63728.1" class="clusterblast-orf" id="dummy-1_h1_2_13"  />
</g>
<g id="a1_0014"  >
<polygon points="552,85 557,80 569,80 569,90 557,90 552,85 " style="fill:#1515d8; stroke-width:1; stroke:black; " description="&lt;b&gt;CCH63727.1&lt;/b&gt;&lt;br&gt;XiaA protein&lt;br&gt;Location: 1002 - 1&lt;br&gt;&lt;br&gt;&lt;b&gt;BlastP hit with ctg8_12&lt;/b&gt;&lt;br&gt;Percentage identity: 78&lt;br&gt;Percentage coverage: 100&lt;br&gt;BLAST bit score: 496&lt;br&gt;E-value: 2.8e-140" locus_tag="CCH63727.1" class="clusterblast-orf" id="dummy-1_h1_2_14"  />
</g>
</svg>
