<svg xmlns="http://www.w3.org/2000/svg" xmlns:xlink="http://www.w3.org/1999/xlink" version="1.1" x="0" y="0" height="230" width="800" viewBox="0 0 800 230" preserveAspectRatio="none"  >
<g label="Query sequence" class="clusterblast-cluster"  >
<text x="5" y="20" class="clusterblast-acc"  >
Query sequence</text>
<line x1="10" y1="35" x2="778.0" y2="35" style="stroke-width:1; stroke:grey; "  />
<polygon points="312,35 317,30 317,30 317,40 317,40 312,35 " style="fill:white; stroke-width:1; stroke:black; " description="&lt;b&gt;ctg48_1&lt;/b&gt;&lt;br&gt;ctg48 1&lt;br&gt;Location: 69 - 801" locus_tag="ctg48_1" class="clusterblast-orf" id="dummy-1_q0_0_all"  />
<polygon points="317,35 322,30 322,30 322,40 322,40 317,35 " style="fill:white; stroke-width:1; stroke:black; " description="&lt;b&gt;ctg48_2&lt;/b&gt;&lt;br&gt;ctg48 2&lt;br&gt;Location: 797 - 1688" locus_tag="ctg48_2" class="clusterblast-orf" id="dummy-1_q1_0_all"  />
<polygon points="322,35 327,30 329,30 329,40 327,40 322,35 " style="fill:white; stroke-width:1; stroke:black; " description="&lt;b&gt;ctg48_3&lt;/b&gt;&lt;br&gt;ctg48 3&lt;br&gt;Location: 1695 - 2766" locus_tag="ctg48_3" class="clusterblast-orf" id="dummy-1_q2_0_all"  />
<polygon points="329,35 334,30 339,30 339,40 334,40 329,35 " style="fill:white; stroke-width:1; stroke:black; " description="&lt;b&gt;ctg48_4&lt;/b&gt;&lt;br&gt;ctg48 4&lt;br&gt;Location: 2747 - 4439" locus_tag="ctg48_4" class="clusterblast-orf" id="dummy-1_q3_0_all"  />
<polygon points="339,35 344,30 345,30 345,40 344,40 339,35 " style="fill:white; stroke-width:1; stroke:black; " description="&lt;b&gt;ctg48_5&lt;/b&gt;&lt;br&gt;ctg48 5&lt;br&gt;Location: 4490 - 5474" locus_tag="ctg48_5" class="clusterblast-orf" id="dummy-1_q4_0_all"  />
<polygon points="346,40 350,40 355,35 350,30 346,30 346,40 " style="fill:white; stroke-width:1; stroke:black; " description="&lt;b&gt;ctg48_6&lt;/b&gt;&lt;br&gt;ctg48 6&lt;br&gt;Location: 5567 - 6998" locus_tag="ctg48_6" class="clusterblast-orf" id="dummy-1_q5_0_all"  />
<polygon points="357,40 359,40 364,35 359,30 357,30 357,40 " style="fill:#d81515; stroke-width:1; stroke:black; " description="&lt;b&gt;ctg48_7&lt;/b&gt;&lt;br&gt;ctg48 7&lt;br&gt;Location: 7302 - 8499" locus_tag="ctg48_7" class="clusterblast-orf" id="dummy-1_q6_0_all"  />
<polygon points="364,35 369,30 371,30 371,40 369,40 364,35 " style="fill:#15d815; stroke-width:1; stroke:black; " description="&lt;b&gt;ctg48_8&lt;/b&gt;&lt;br&gt;ctg48 8&lt;br&gt;Location: 8559 - 9639" locus_tag="ctg48_8" class="clusterblast-orf" id="dummy-1_q7_0_all"  />
<polygon points="371,35 376,30 377,30 377,40 376,40 371,35 " style="fill:#1597d8; stroke-width:1; stroke:black; " description="&lt;b&gt;ctg48_9&lt;/b&gt;&lt;br&gt;ctg48 9&lt;br&gt;Location: 9659 - 10583" locus_tag="ctg48_9" class="clusterblast-orf" id="dummy-1_q8_0_all"  />
<polygon points="378,35 383,30 383,30 383,40 383,40 378,35 " style="fill:#9715d8; stroke-width:1; stroke:black; " description="&lt;b&gt;ctg48_10&lt;/b&gt;&lt;br&gt;ctg48 10&lt;br&gt;Location: 10784 - 11618" locus_tag="ctg48_10" class="clusterblast-orf" id="dummy-1_q9_0_all"  />
<polygon points="383,35 388,30 390,30 390,40 388,40 383,35 " style="fill:#d89715; stroke-width:1; stroke:black; " description="&lt;b&gt;ctg48_11&lt;/b&gt;&lt;br&gt;ctg48 11&lt;br&gt;Location: 11614 - 12766" locus_tag="ctg48_11" class="clusterblast-orf" id="dummy-1_q10_0_all"  />
<polygon points="390,40 393,40 398,35 393,30 390,30 390,40 " style="fill:white; stroke-width:1; stroke:black; " description="&lt;b&gt;ctg48_12&lt;/b&gt;&lt;br&gt;ctg48 12&lt;br&gt;Location: 12786 - 13989" locus_tag="ctg48_12" class="clusterblast-orf" id="dummy-1_q11_0_all"  />
<polygon points="398,35 403,30 403,30 403,40 403,40 398,35 " style="fill:white; stroke-width:1; stroke:black; " description="&lt;b&gt;ctg48_13&lt;/b&gt;&lt;br&gt;ctg48 13&lt;br&gt;Location: 14051 - 14882" locus_tag="ctg48_13" class="clusterblast-orf" id="dummy-1_q12_0_all"  />
<polygon points="403,35 408,30 411,30 411,40 408,40 403,35 " style="fill:#15d897; stroke-width:1; stroke:black; " description="&lt;b&gt;ctg48_14&lt;/b&gt;&lt;br&gt;ctg48 14&lt;br&gt;Location: 14878 - 16189" locus_tag="ctg48_14" class="clusterblast-orf" id="dummy-1_q13_0_all"  />
<polygon points="411,35 416,30 418,30 418,40 416,40 411,35 " style="fill:#1515d8; stroke-width:1; stroke:black; " description="&lt;b&gt;ctg48_15&lt;/b&gt;&lt;br&gt;ctg48 15&lt;br&gt;Location: 16185 - 17301" locus_tag="ctg48_15" class="clusterblast-orf" id="dummy-1_q14_0_all"  />
<polygon points="419,35 421,30 421,40 419,35 " style="fill:#d81597; stroke-width:1; stroke:black; " description="&lt;b&gt;ctg48_16&lt;/b&gt;&lt;br&gt;ctg48 16&lt;br&gt;Location: 17403 - 17676" locus_tag="ctg48_16" class="clusterblast-orf" id="dummy-1_q15_0_all"  />
<polygon points="423,35 428,30 467,30 467,40 428,40 423,35 " style="fill:#97d815; stroke-width:1; stroke:black; " description="&lt;b&gt;ctg48_17&lt;/b&gt;&lt;br&gt;ctg48 17&lt;br&gt;Location: 18022 - 25219" locus_tag="ctg48_17" class="clusterblast-orf" id="dummy-1_q16_0_all"  />
</g>
<g label="BGC0000291" description="BGC0000291_c1: A54145 (5% of genes show similarity), nrps" class="clusterblast-cluster"  >
<text x="5" y="70" class="clusterblast-acc"  >
<a xlink:href="https://mibig.secondarymetabolites.org/go/BGC0000291/1" target="_blank">BGC0000291</a>:                                                                           A54145 (5% of genes show similarity), nrps</text>
<line x1="10" y1="85" x2="778.0" y2="85" style="stroke-width:1; stroke:grey; "  />
</g>
<g id="a1_000"  >
<polygon points="0,85 5,80 5,80 5,90 5,90 0,85 " style="fill:white; stroke-width:1; stroke:black; " description="&lt;b&gt;AAZ23103.1&lt;/b&gt;&lt;br&gt;hypothetical protein&lt;br&gt;Location: 126729 - 125782" locus_tag="AAZ23103.1" class="clusterblast-orf" id="dummy-1_h1_6_0"  />
</g>
<g id="a1_001"  >
<polygon points="12,85 14,80 14,90 12,85 " style="fill:white; stroke-width:1; stroke:black; " description="&lt;b&gt;AAZ23102.1&lt;/b&gt;&lt;br&gt;possible transposase&lt;br&gt;Location: 124752 - 124378" locus_tag="AAZ23102.1" class="clusterblast-orf" id="dummy-1_h1_6_1"  />
</g>
<g id="a1_002"  >
<polygon points="14,85 17,80 17,90 14,85 " style="fill:white; stroke-width:1; stroke:black; " description="&lt;b&gt;AAZ23101.1&lt;/b&gt;&lt;br&gt;possible transposase&lt;br&gt;Location: 124387 - 123917" locus_tag="AAZ23101.1" class="clusterblast-orf" id="dummy-1_h1_6_2"  />
</g>
<g id="a1_003"  >
<polygon points="18,85 20,80 20,90 18,85 " style="fill:white; stroke-width:1; stroke:black; " description="&lt;b&gt;AAZ23100.1&lt;/b&gt;&lt;br&gt;hypothetical protein&lt;br&gt;Location: 123673 - 123359" locus_tag="AAZ23100.1" class="clusterblast-orf" id="dummy-1_h1_6_3"  />
</g>
<g id="a1_004"  >
<polygon points="21,90 22,90 27,85 22,80 21,80 21,90 " style="fill:white; stroke-width:1; stroke:black; " description="&lt;b&gt;AAZ23099.1&lt;/b&gt;&lt;br&gt;probable transposase&lt;br&gt;Location: 123214 - 122339" locus_tag="AAZ23099.1" class="clusterblast-orf" id="dummy-1_h1_6_4"  />
</g>
<g id="a1_005"  >
<polygon points="29,85 31,80 31,90 29,85 " style="fill:white; stroke-width:1; stroke:black; " description="&lt;b&gt;AAZ23098.1&lt;/b&gt;&lt;br&gt;hypothetical protein&lt;br&gt;Location: 121971 - 121573" locus_tag="AAZ23098.1" class="clusterblast-orf" id="dummy-1_h1_6_5"  />
</g>
<g id="a1_006"  >
<polygon points="36,90 36,90 41,85 36,80 36,80 36,90 " style="fill:white; stroke-width:1; stroke:black; " description="&lt;b&gt;AAZ23097.1&lt;/b&gt;&lt;br&gt;hypothetical protein&lt;br&gt;Location: 120731 - 120066" locus_tag="AAZ23097.1" class="clusterblast-orf" id="dummy-1_h1_6_6"  />
</g>
<g id="a1_007"  >
<polygon points="41,90 42,90 47,85 42,80 41,80 41,90 " style="fill:white; stroke-width:1; stroke:black; " description="&lt;b&gt;AAZ23096.1&lt;/b&gt;&lt;br&gt;hypothetical protein&lt;br&gt;Location: 120017 - 118989" locus_tag="AAZ23096.1" class="clusterblast-orf" id="dummy-1_h1_6_7"  />
</g>
<g id="a1_008"  >
<polygon points="44,85 49,80 53,80 53,90 49,90 44,85 " style="fill:white; stroke-width:1; stroke:black; " description="&lt;b&gt;AAZ23095.1&lt;/b&gt;&lt;br&gt;possible DNA helicase&lt;br&gt;Location: 119465 - 118101" locus_tag="AAZ23095.1" class="clusterblast-orf" id="dummy-1_h1_6_8"  />
</g>
<g id="a1_009"  >
<polygon points="74,90 78,85 74,80 74,90 " style="fill:white; stroke-width:1; stroke:black; " description="&lt;b&gt;AAZ23094.1&lt;/b&gt;&lt;br&gt;possible transposase&lt;br&gt;Location: 114662 - 113931" locus_tag="AAZ23094.1" class="clusterblast-orf" id="dummy-1_h1_6_9"  />
</g>
<g id="a1_0010"  >
<polygon points="83,90 85,85 83,80 83,90 " style="fill:white; stroke-width:1; stroke:black; " description="&lt;b&gt;AAZ23093.1&lt;/b&gt;&lt;br&gt;hypothetical protein&lt;br&gt;Location: 113243 - 112824" locus_tag="AAZ23093.1" class="clusterblast-orf" id="dummy-1_h1_6_10"  />
</g>
<g id="a1_0011"  >
<polygon points="85,90 93,90 98,85 93,80 85,80 85,90 " style="fill:white; stroke-width:1; stroke:black; " description="&lt;b&gt;AAZ23092.1&lt;/b&gt;&lt;br&gt;possible protein kinase&lt;br&gt;Location: 112812 - 110701" locus_tag="AAZ23092.1" class="clusterblast-orf" id="dummy-1_h1_6_11"  />
</g>
<g id="a1_0012"  >
<polygon points="119,90 120,90 125,85 120,80 119,80 119,90 " style="fill:white; stroke-width:1; stroke:black; " description="&lt;b&gt;AAZ23091.1&lt;/b&gt;&lt;br&gt;possible transposase&lt;br&gt;Location: 107252 - 106395" locus_tag="AAZ23091.1" class="clusterblast-orf" id="dummy-1_h1_6_12"  />
</g>
<g id="a1_0013"  >
<polygon points="128,90 129,85 128,80 128,90 " style="fill:white; stroke-width:1; stroke:black; " description="&lt;b&gt;AAZ23090.1&lt;/b&gt;&lt;br&gt;hypothetical protein&lt;br&gt;Location: 105879 - 105694" locus_tag="AAZ23090.1" class="clusterblast-orf" id="dummy-1_h1_6_13"  />
</g>
<g id="a1_0014"  >
<polygon points="129,85 131,80 131,90 129,85 " style="fill:white; stroke-width:1; stroke:black; " description="&lt;b&gt;AAZ23089.1&lt;/b&gt;&lt;br&gt;hypothetical protein&lt;br&gt;Location: 105697 - 105287" locus_tag="AAZ23089.1" class="clusterblast-orf" id="dummy-1_h1_6_14"  />
</g>
<g id="a1_0015"  >
<polygon points="132,85 137,80 138,80 138,90 137,90 132,85 " style="fill:white; stroke-width:1; stroke:black; " description="&lt;b&gt;AAZ23088.1&lt;/b&gt;&lt;br&gt;possible regulator&lt;br&gt;Location: 105123 - 104185" locus_tag="AAZ23088.1" class="clusterblast-orf" id="dummy-1_h1_6_15"  />
</g>
<g id="a1_0016"  >
<polygon points="148,85 153,80 155,80 155,90 153,90 148,85 " style="fill:white; stroke-width:1; stroke:black; " description="&lt;b&gt;AAZ23087.1&lt;/b&gt;&lt;br&gt;possible methyltransferase&lt;br&gt;Location: 102537 - 101479" locus_tag="AAZ23087.1" class="clusterblast-orf" id="dummy-1_h1_6_16"  />
</g>
<g id="a1_0017"  >
<polygon points="160,90 164,85 160,80 160,90 " style="fill:white; stroke-width:1; stroke:black; " description="&lt;b&gt;AAZ23086.1&lt;/b&gt;&lt;br&gt;hypothetical protein&lt;br&gt;Location: 100649 - 100029" locus_tag="AAZ23086.1" class="clusterblast-orf" id="dummy-1_h1_6_17"  />
</g>
<g id="a1_0018"  >
<polygon points="164,85 169,80 169,80 169,90 169,90 164,85 " style="fill:white; stroke-width:1; stroke:black; " description="&lt;b&gt;AAZ23085.1&lt;/b&gt;&lt;br&gt;possible ABC transporter permease&lt;br&gt;Location: 99964 - 99116" locus_tag="AAZ23085.1" class="clusterblast-orf" id="dummy-1_h1_6_18"  />
</g>
<g id="a1_0019"  >
<polygon points="169,85 174,80 176,80 176,90 174,90 169,85 " style="fill:#d89715; stroke-width:1; stroke:black; " description="&lt;b&gt;AAZ23084.1&lt;/b&gt;&lt;br&gt;possible ABC transporter&lt;br&gt;Location: 99119 - 98058&lt;br&gt;&lt;br&gt;&lt;b&gt;BlastP hit with ctg48_11&lt;/b&gt;&lt;br&gt;Percentage identity: 48&lt;br&gt;Percentage coverage: 80&lt;br&gt;BLAST bit score: 259&lt;br&gt;E-value: 1.1e-68" locus_tag="AAZ23084.1" class="clusterblast-orf" id="dummy-1_h1_6_19"  />
</g>
<g id="a1_0020"  >
<polygon points="176,85 181,80 182,80 182,90 181,90 176,85 " style="fill:white; stroke-width:1; stroke:black; " description="&lt;b&gt;AAZ23083.1&lt;/b&gt;&lt;br&gt;possible hydrolase&lt;br&gt;Location: 98058 - 97099" locus_tag="AAZ23083.1" class="clusterblast-orf" id="dummy-1_h1_6_20"  />
</g>
<g id="a1_0021"  >
<polygon points="182,85 187,80 187,80 187,90 187,90 182,85 " style="fill:white; stroke-width:1; stroke:black; " description="&lt;b&gt;AAZ23082.1&lt;/b&gt;&lt;br&gt;possible O-methyltransferase&lt;br&gt;Location: 97029 - 96241" locus_tag="AAZ23082.1" class="clusterblast-orf" id="dummy-1_h1_6_21"  />
</g>
<g id="a1_0022"  >
<polygon points="187,85 192,80 193,80 193,90 192,90 187,85 " style="fill:white; stroke-width:1; stroke:black; " description="&lt;b&gt;AAZ23081.1&lt;/b&gt;&lt;br&gt;hypothetical protein&lt;br&gt;Location: 96244 - 95249" locus_tag="AAZ23081.1" class="clusterblast-orf" id="dummy-1_h1_6_22"  />
</g>
<g id="a1_0023"  >
<polygon points="193,85 198,80 198,80 198,90 198,90 193,85 " style="fill:white; stroke-width:1; stroke:black; " description="&lt;b&gt;AAZ23080.1&lt;/b&gt;&lt;br&gt;possible thioesterase&lt;br&gt;Location: 95237 - 94443" locus_tag="AAZ23080.1" class="clusterblast-orf" id="dummy-1_h1_6_23"  />
</g>
<g id="a1_0024"  >
<polygon points="199,85 200,80 200,90 199,85 " style="fill:white; stroke-width:1; stroke:black; " description="&lt;b&gt;AAZ23079.1&lt;/b&gt;&lt;br&gt;hypothetical protein&lt;br&gt;Location: 94360 - 94118" locus_tag="AAZ23079.1" class="clusterblast-orf" id="dummy-1_h1_6_24"  />
</g>
<g id="a1_0025"  >
<polygon points="200,85 205,80 244,80 244,90 205,90 200,85 " style="fill:white; stroke-width:1; stroke:black; " description="&lt;b&gt;AAZ23078.1&lt;/b&gt;&lt;br&gt;peptide synthetase&lt;br&gt;Location: 94121 - 86967" locus_tag="AAZ23078.1" class="clusterblast-orf" id="dummy-1_h1_6_25"  />
</g>
<g id="a1_0026"  >
<polygon points="244,85 249,80 341,80 341,90 249,90 244,85 " style="fill:#97d815; stroke-width:1; stroke:black; " description="&lt;b&gt;AAZ23077.1&lt;/b&gt;&lt;br&gt;peptide synthetase&lt;br&gt;Location: 86967 - 71227&lt;br&gt;&lt;br&gt;&lt;b&gt;BlastP hit with ctg48_17&lt;/b&gt;&lt;br&gt;Percentage identity: 47&lt;br&gt;Percentage coverage: 98&lt;br&gt;BLAST bit score: 1801&lt;br&gt;E-value: 0.0" locus_tag="AAZ23077.1" class="clusterblast-orf" id="dummy-1_h1_6_26"  />
</g>
<g id="a1_0027"  >
<polygon points="341,85 346,80 381,80 381,90 346,90 341,85 " style="fill:white; stroke-width:1; stroke:black; " description="&lt;b&gt;AAZ23076.1&lt;/b&gt;&lt;br&gt;peptide synthetase&lt;br&gt;Location: 71230 - 64799" locus_tag="AAZ23076.1" class="clusterblast-orf" id="dummy-1_h1_6_27"  />
</g>
<g id="a1_0028"  >
<polygon points="381,85 386,80 497,80 497,90 386,90 381,85 " style="fill:#97d815; stroke-width:1; stroke:black; " description="&lt;b&gt;AAZ23075.1&lt;/b&gt;&lt;br&gt;peptide synthetase&lt;br&gt;Location: 64802 - 45924&lt;br&gt;&lt;br&gt;&lt;b&gt;BlastP hit with ctg48_17&lt;/b&gt;&lt;br&gt;Percentage identity: 46&lt;br&gt;Percentage coverage: 89&lt;br&gt;BLAST bit score: 1587&lt;br&gt;E-value: 0.0" locus_tag="AAZ23075.1" class="clusterblast-orf" id="dummy-1_h1_6_28"  />
</g>
<g id="a1_0029"  >
<polygon points="498,85 503,80 511,80 511,90 503,90 498,85 " style="fill:white; stroke-width:1; stroke:black; " description="&lt;b&gt;AAZ23074.1&lt;/b&gt;&lt;br&gt;acyl-CoA ligase&lt;br&gt;Location: 45814 - 43616" locus_tag="AAZ23074.1" class="clusterblast-orf" id="dummy-1_h1_6_29"  />
</g>
<g id="a1_0030"  >
<polygon points="515,85 520,80 529,80 529,90 520,90 515,85 " style="fill:white; stroke-width:1; stroke:black; " description="&lt;b&gt;AAZ23073.1&lt;/b&gt;&lt;br&gt;hypothetical protein&lt;br&gt;Location: 42957 - 40648" locus_tag="AAZ23073.1" class="clusterblast-orf" id="dummy-1_h1_6_30"  />
</g>
<g id="a1_0031"  >
<polygon points="529,85 534,80 534,80 534,90 534,90 529,85 " style="fill:white; stroke-width:1; stroke:black; " description="&lt;b&gt;AAZ23072.1&lt;/b&gt;&lt;br&gt;hypothetical protein&lt;br&gt;Location: 40651 - 39941" locus_tag="AAZ23072.1" class="clusterblast-orf" id="dummy-1_h1_6_31"  />
</g>
<g id="a1_0032"  >
<polygon points="535,90 535,90 540,85 535,80 535,80 535,90 " style="fill:white; stroke-width:1; stroke:black; " description="&lt;b&gt;AAZ23071.1&lt;/b&gt;&lt;br&gt;possible sensor kinase&lt;br&gt;Location: 39803 - 38955" locus_tag="AAZ23071.1" class="clusterblast-orf" id="dummy-1_h1_6_32"  />
</g>
<g id="a1_0033"  >
<polygon points="540,90 544,85 540,80 540,90 " style="fill:white; stroke-width:1; stroke:black; " description="&lt;b&gt;AAZ23070.1&lt;/b&gt;&lt;br&gt;possible response regulator&lt;br&gt;Location: 38958 - 38233" locus_tag="AAZ23070.1" class="clusterblast-orf" id="dummy-1_h1_6_33"  />
</g>
<g id="a1_0034"  >
<polygon points="545,85 550,80 550,80 550,90 550,90 545,85 " style="fill:white; stroke-width:1; stroke:black; " description="&lt;b&gt;AAZ23069.1&lt;/b&gt;&lt;br&gt;hypothetical protein&lt;br&gt;Location: 38181 - 37360" locus_tag="AAZ23069.1" class="clusterblast-orf" id="dummy-1_h1_6_34"  />
</g>
<g id="a1_0035"  >
<polygon points="552,90 556,90 561,85 556,80 552,80 552,90 " style="fill:white; stroke-width:1; stroke:black; " description="&lt;b&gt;AAZ23068.1&lt;/b&gt;&lt;br&gt;hypothetical protein&lt;br&gt;Location: 36931 - 35510" locus_tag="AAZ23068.1" class="clusterblast-orf" id="dummy-1_h1_6_35"  />
</g>
<g id="a1_0036"  >
<polygon points="561,85 564,80 564,90 561,85 " style="fill:white; stroke-width:1; stroke:black; " description="&lt;b&gt;AAZ23067.1&lt;/b&gt;&lt;br&gt;hypothetical protein&lt;br&gt;Location: 35426 - 34950" locus_tag="AAZ23067.1" class="clusterblast-orf" id="dummy-1_h1_6_36"  />
</g>
<g id="a1_0037"  >
<polygon points="564,85 568,80 568,90 564,85 " style="fill:white; stroke-width:1; stroke:black; " description="&lt;b&gt;AAZ23066.1&lt;/b&gt;&lt;br&gt;hypothetical protein&lt;br&gt;Location: 35001 - 34423" locus_tag="AAZ23066.1" class="clusterblast-orf" id="dummy-1_h1_6_37"  />
</g>
<g id="a1_0038"  >
<polygon points="568,90 571,90 576,85 571,80 568,80 568,90 " style="fill:white; stroke-width:1; stroke:black; " description="&lt;b&gt;AAZ23065.1&lt;/b&gt;&lt;br&gt;hypothetical protein&lt;br&gt;Location: 34419 - 33118" locus_tag="AAZ23065.1" class="clusterblast-orf" id="dummy-1_h1_6_38"  />
</g>
<g id="a1_0039"  >
<polygon points="576,90 582,90 587,85 582,80 576,80 576,90 " style="fill:white; stroke-width:1; stroke:black; " description="&lt;b&gt;AAZ23064.1&lt;/b&gt;&lt;br&gt;possible DNA-binding protein&lt;br&gt;Location: 33018 - 31333" locus_tag="AAZ23064.1" class="clusterblast-orf" id="dummy-1_h1_6_39"  />
</g>
<g id="a1_0040"  >
<polygon points="587,90 591,90 596,85 591,80 587,80 587,90 " style="fill:white; stroke-width:1; stroke:black; " description="&lt;b&gt;AAZ23063.1&lt;/b&gt;&lt;br&gt;probable decarboxylase&lt;br&gt;Location: 31207 - 29795" locus_tag="AAZ23063.1" class="clusterblast-orf" id="dummy-1_h1_6_40"  />
</g>
<g id="a1_0041"  >
<polygon points="596,90 600,90 605,85 600,80 596,80 596,90 " style="fill:white; stroke-width:1; stroke:black; " description="&lt;b&gt;AAZ23062.1&lt;/b&gt;&lt;br&gt;possible permease&lt;br&gt;Location: 29798 - 28359" locus_tag="AAZ23062.1" class="clusterblast-orf" id="dummy-1_h1_6_41"  />
</g>
<g id="a1_0042"  >
<polygon points="605,90 610,90 615,85 610,80 605,80 605,90 " style="fill:white; stroke-width:1; stroke:black; " description="&lt;b&gt;AAZ23061.1&lt;/b&gt;&lt;br&gt;probable D-aminoacylase&lt;br&gt;Location: 28321 - 26669" locus_tag="AAZ23061.1" class="clusterblast-orf" id="dummy-1_h1_6_42"  />
</g>
<g id="a1_0043"  >
<polygon points="616,90 619,90 624,85 619,80 616,80 616,90 " style="fill:white; stroke-width:1; stroke:black; " description="&lt;b&gt;AAZ23060.1&lt;/b&gt;&lt;br&gt;probable sensor kinase&lt;br&gt;Location: 26619 - 25222" locus_tag="AAZ23060.1" class="clusterblast-orf" id="dummy-1_h1_6_43"  />
</g>
<g id="a1_0044"  >
<polygon points="624,90 628,85 624,80 624,90 " style="fill:white; stroke-width:1; stroke:black; " description="&lt;b&gt;AAZ23059.1&lt;/b&gt;&lt;br&gt;probable putative response regulator&lt;br&gt;Location: 25225 - 24542" locus_tag="AAZ23059.1" class="clusterblast-orf" id="dummy-1_h1_6_44"  />
</g>
<g id="a1_0045"  >
<polygon points="630,90 632,90 637,85 632,80 630,80 630,90 " style="fill:white; stroke-width:1; stroke:black; " description="&lt;b&gt;AAZ23058.1&lt;/b&gt;&lt;br&gt;probable secreted protein&lt;br&gt;Location: 24364 - 23207" locus_tag="AAZ23058.1" class="clusterblast-orf" id="dummy-1_h1_6_45"  />
</g>
<g id="a1_0046"  >
<polygon points="637,90 640,90 645,85 640,80 637,80 637,90 " style="fill:white; stroke-width:1; stroke:black; " description="&lt;b&gt;AAZ23057.1&lt;/b&gt;&lt;br&gt;probable integral membrane protein&lt;br&gt;Location: 23210 - 21918" locus_tag="AAZ23057.1" class="clusterblast-orf" id="dummy-1_h1_6_46"  />
</g>
<g id="a1_0047"  >
<polygon points="645,90 647,90 652,85 647,80 645,80 645,90 " style="fill:white; stroke-width:1; stroke:black; " description="&lt;b&gt;AAZ23056.1&lt;/b&gt;&lt;br&gt;hypothetical protein&lt;br&gt;Location: 21838 - 20753" locus_tag="AAZ23056.1" class="clusterblast-orf" id="dummy-1_h1_6_47"  />
</g>
<g id="a1_0048"  >
<polygon points="654,90 656,90 661,85 656,80 654,80 654,90 " style="fill:white; stroke-width:1; stroke:black; " description="&lt;b&gt;AAZ23055.1&lt;/b&gt;&lt;br&gt;hypothetical protein&lt;br&gt;Location: 20366 - 19323" locus_tag="AAZ23055.1" class="clusterblast-orf" id="dummy-1_h1_6_48"  />
</g>
<g id="a1_0049"  >
<polygon points="661,85 666,80 666,80 666,90 666,90 661,85 " style="fill:white; stroke-width:1; stroke:black; " description="&lt;b&gt;AAZ23054.1&lt;/b&gt;&lt;br&gt;hypothetical protein&lt;br&gt;Location: 19304 - 18507" locus_tag="AAZ23054.1" class="clusterblast-orf" id="dummy-1_h1_6_49"  />
</g>
<g id="a1_0050"  >
<polygon points="679,90 681,90 686,85 681,80 679,80 679,90 " style="fill:white; stroke-width:1; stroke:black; " description="&lt;b&gt;AAZ23053.1&lt;/b&gt;&lt;br&gt;probable sugar isomerase&lt;br&gt;Location: 16359 - 15190" locus_tag="AAZ23053.1" class="clusterblast-orf" id="dummy-1_h1_6_50"  />
</g>
<g id="a1_0051"  >
<polygon points="687,90 694,90 699,85 694,80 687,80 687,90 " style="fill:white; stroke-width:1; stroke:black; " description="&lt;b&gt;AAZ23052.1&lt;/b&gt;&lt;br&gt;probable dehydrogenase&lt;br&gt;Location: 15098 - 13059" locus_tag="AAZ23052.1" class="clusterblast-orf" id="dummy-1_h1_6_51"  />
</g>
<g id="a1_0052"  >
<polygon points="700,90 705,90 710,85 705,80 700,80 700,90 " style="fill:white; stroke-width:1; stroke:black; " description="&lt;b&gt;AAZ23051.1&lt;/b&gt;&lt;br&gt;probable sugar kinase&lt;br&gt;Location: 12862 - 11363" locus_tag="AAZ23051.1" class="clusterblast-orf" id="dummy-1_h1_6_52"  />
</g>
<g id="a1_0053"  >
<polygon points="715,85 718,80 718,90 715,85 " style="fill:white; stroke-width:1; stroke:black; " description="&lt;b&gt;AAZ23050.1&lt;/b&gt;&lt;br&gt;hypothetical protein&lt;br&gt;Location: 10467 - 10027" locus_tag="AAZ23050.1" class="clusterblast-orf" id="dummy-1_h1_6_53"  />
</g>
<g id="a1_0054"  >
<polygon points="718,85 723,80 724,80 724,90 723,90 718,85 " style="fill:white; stroke-width:1; stroke:black; " description="&lt;b&gt;AAZ23049.1&lt;/b&gt;&lt;br&gt;possible oxidoreductase&lt;br&gt;Location: 10024 - 8966" locus_tag="AAZ23049.1" class="clusterblast-orf" id="dummy-1_h1_6_54"  />
</g>
<g id="a1_0055"  >
<polygon points="733,85 738,80 738,80 738,90 738,90 733,85 " style="fill:white; stroke-width:1; stroke:black; " description="&lt;b&gt;AAZ23048.1&lt;/b&gt;&lt;br&gt;probable hydrolase&lt;br&gt;Location: 7635 - 6739" locus_tag="AAZ23048.1" class="clusterblast-orf" id="dummy-1_h1_6_55"  />
</g>
<g id="a1_0056"  >
<polygon points="744,85 748,80 748,90 744,85 " style="fill:white; stroke-width:1; stroke:black; " description="&lt;b&gt;AAZ23047.1&lt;/b&gt;&lt;br&gt;transcriptional regulator&lt;br&gt;Location: 5815 - 5048" locus_tag="AAZ23047.1" class="clusterblast-orf" id="dummy-1_h1_6_56"  />
</g>
<g id="a1_0057"  >
<polygon points="749,90 754,90 759,85 754,80 749,80 749,90 " style="fill:white; stroke-width:1; stroke:black; " description="&lt;b&gt;AAZ23046.1&lt;/b&gt;&lt;br&gt;probable histidine ammonia-lyase&lt;br&gt;Location: 4900 - 3365" locus_tag="AAZ23046.1" class="clusterblast-orf" id="dummy-1_h1_6_57"  />
</g>
<g id="a1_0058"  >
<polygon points="764,85 769,80 774,80 774,90 769,90 764,85 " style="fill:white; stroke-width:1; stroke:black; " description="&lt;b&gt;AAZ23045.1&lt;/b&gt;&lt;br&gt;probable p-aminobenzoyl-glutamate transporter&lt;br&gt;Location: 2473 - 848" locus_tag="AAZ23045.1" class="clusterblast-orf" id="dummy-1_h1_6_58"  />
</g>
<g id="a1_0059"  >
<polygon points="774,85 779,80 780,80 780,90 779,90 774,85 " style="fill:white; stroke-width:1; stroke:black; " description="&lt;b&gt;AAZ23044.1&lt;/b&gt;&lt;br&gt;hypothetical protein&lt;br&gt;Location: 851 - 1" locus_tag="AAZ23044.1" class="clusterblast-orf" id="dummy-1_h1_6_59"  />
</g>
</svg>
