<svg xmlns="http://www.w3.org/2000/svg" xmlns:xlink="http://www.w3.org/1999/xlink" version="1.1" x="0" y="0" height="50" width="800" viewBox="0 0 800 50" preserveAspectRatio="none"  >
<g label="Query sequence" class="clusterblast-cluster"  >
<text x="5" y="20" class="clusterblast-acc"  >
Query sequence</text>
<line x1="10" y1="35" x2="778.0" y2="35" style="stroke-width:1; stroke:grey; "  />
<polygon points="0,40 40,40 45,35 40,30 0,30 0,40 " style="fill:white; stroke-width:1; stroke:black; " description="&lt;b&gt;ctg85_1&lt;/b&gt;&lt;br&gt;ctg85 1&lt;br&gt;Location: 35 - 914" locus_tag="ctg85_1" class="clusterblast-orf" id="knownclusterblast-1_q0_0_all"  />
<polygon points="45,35 50,30 97,30 97,40 50,40 45,35 " style="fill:white; stroke-width:1; stroke:black; " description="&lt;b&gt;ctg85_2&lt;/b&gt;&lt;br&gt;ctg85 2&lt;br&gt;Location: 906 - 1926" locus_tag="ctg85_2" class="clusterblast-orf" id="knownclusterblast-1_q1_0_all"  />
<polygon points="102,40 163,40 168,35 163,30 102,30 102,40 " style="fill:white; stroke-width:1; stroke:black; " description="&lt;b&gt;ctg85_3&lt;/b&gt;&lt;br&gt;ctg85 3&lt;br&gt;Location: 2017 - 3295" locus_tag="ctg85_3" class="clusterblast-orf" id="knownclusterblast-1_q2_0_all"  />
<polygon points="168,40 205,40 210,35 205,30 168,30 168,40 " style="fill:white; stroke-width:1; stroke:black; " description="&lt;b&gt;ctg85_4&lt;/b&gt;&lt;br&gt;ctg85 4&lt;br&gt;Location: 3294 - 4113" locus_tag="ctg85_4" class="clusterblast-orf" id="knownclusterblast-1_q3_0_all"  />
<polygon points="218,40 353,40 358,35 353,30 218,30 218,40 " style="fill:white; stroke-width:1; stroke:black; " description="&lt;b&gt;ctg85_5&lt;/b&gt;&lt;br&gt;ctg85 5&lt;br&gt;Location: 4265 - 6974" locus_tag="ctg85_5" class="clusterblast-orf" id="knownclusterblast-1_q4_0_all"  />
<polygon points="360,40 374,40 379,35 374,30 360,30 360,40 " style="fill:white; stroke-width:1; stroke:black; " description="&lt;b&gt;ctg85_6&lt;/b&gt;&lt;br&gt;ctg85 6&lt;br&gt;Location: 7020 - 7389" locus_tag="ctg85_6" class="clusterblast-orf" id="knownclusterblast-1_q5_0_all"  />
<polygon points="385,40 429,40 434,35 429,30 385,30 385,40 " style="fill:white; stroke-width:1; stroke:black; " description="&lt;b&gt;ctg85_7&lt;/b&gt;&lt;br&gt;ctg85 7&lt;br&gt;Location: 7503 - 8463" locus_tag="ctg85_7" class="clusterblast-orf" id="knownclusterblast-1_q6_0_all"  />
<polygon points="452,40 486,40 491,35 486,30 452,30 452,40 " style="fill:white; stroke-width:1; stroke:black; " description="&lt;b&gt;ctg85_8&lt;/b&gt;&lt;br&gt;ctg85 8&lt;br&gt;Location: 8803 - 9571" locus_tag="ctg85_8" class="clusterblast-orf" id="knownclusterblast-1_q7_0_all"  />
<polygon points="499,35 504,30 521,30 521,40 504,40 499,35 " style="fill:white; stroke-width:1; stroke:black; " description="&lt;b&gt;ctg85_9&lt;/b&gt;&lt;br&gt;ctg85 9&lt;br&gt;Location: 9722 - 10142" locus_tag="ctg85_9" class="clusterblast-orf" id="knownclusterblast-1_q8_0_all"  />
<polygon points="528,35 533,30 602,30 602,40 533,40 528,35 " style="fill:white; stroke-width:1; stroke:black; " description="&lt;b&gt;ctg85_10&lt;/b&gt;&lt;br&gt;ctg85 10&lt;br&gt;Location: 10287 - 11724" locus_tag="ctg85_10" class="clusterblast-orf" id="knownclusterblast-1_q9_0_all"  />
<polygon points="607,40 625,40 630,35 625,30 607,30 607,40 " style="fill:white; stroke-width:1; stroke:black; " description="&lt;b&gt;ctg85_11&lt;/b&gt;&lt;br&gt;ctg85 11&lt;br&gt;Location: 11816 - 12260" locus_tag="ctg85_11" class="clusterblast-orf" id="knownclusterblast-1_q10_0_all"  />
<polygon points="636,40 671,40 676,35 671,30 636,30 636,40 " style="fill:white; stroke-width:1; stroke:black; " description="&lt;b&gt;ctg85_12&lt;/b&gt;&lt;br&gt;ctg85 12&lt;br&gt;Location: 12385 - 13150" locus_tag="ctg85_12" class="clusterblast-orf" id="knownclusterblast-1_q11_0_all"  />
<polygon points="695,40 723,40 728,35 723,30 695,30 695,40 " style="fill:white; stroke-width:1; stroke:black; " description="&lt;b&gt;ctg85_13&lt;/b&gt;&lt;br&gt;ctg85 13&lt;br&gt;Location: 13519 - 14161" locus_tag="ctg85_13" class="clusterblast-orf" id="knownclusterblast-1_q12_0_all"  />
<polygon points="733,35 738,30 780,30 780,40 738,40 733,35 " style="fill:white; stroke-width:1; stroke:black; " description="&lt;b&gt;ctg85_14&lt;/b&gt;&lt;br&gt;ctg85 14&lt;br&gt;Location: 14267 - 15173" locus_tag="ctg85_14" class="clusterblast-orf" id="knownclusterblast-1_q13_0_all"  />
</g>
</svg>
