<svg xmlns="http://www.w3.org/2000/svg" xmlns:xlink="http://www.w3.org/1999/xlink" version="1.1" x="0" y="0" height="230" width="800" viewBox="0 0 800 230" preserveAspectRatio="none"  >
<g label="Query sequence" class="clusterblast-cluster"  >
<text x="5" y="20" class="clusterblast-acc"  >
Query sequence</text>
<line x1="10" y1="35" x2="778.0" y2="35" style="stroke-width:1; stroke:grey; "  />
<polygon points="137,40 139,35 137,30 137,40 " style="fill:white; stroke-width:1; stroke:black; " description="&lt;b&gt;ctg14_1&lt;/b&gt;&lt;br&gt;ctg14 1&lt;br&gt;Location: 2 - 119" locus_tag="ctg14_1" class="clusterblast-orf" id="dummy-1_q0_0_all"  />
<polygon points="140,35 145,30 158,30 158,40 145,40 140,35 " style="fill:white; stroke-width:1; stroke:black; " description="&lt;b&gt;ctg14_2&lt;/b&gt;&lt;br&gt;ctg14 2&lt;br&gt;Location: 186 - 1635" locus_tag="ctg14_2" class="clusterblast-orf" id="dummy-1_q1_0_all"  />
<polygon points="161,40 171,40 176,35 171,30 161,30 161,40 " style="fill:white; stroke-width:1; stroke:black; " description="&lt;b&gt;ctg14_3&lt;/b&gt;&lt;br&gt;ctg14 3&lt;br&gt;Location: 1828 - 3061" locus_tag="ctg14_3" class="clusterblast-orf" id="dummy-1_q2_0_all"  />
<polygon points="176,40 176,40 181,35 176,30 176,30 176,40 " style="fill:white; stroke-width:1; stroke:black; " description="&lt;b&gt;ctg14_4&lt;/b&gt;&lt;br&gt;ctg14 4&lt;br&gt;Location: 3057 - 3471" locus_tag="ctg14_4" class="clusterblast-orf" id="dummy-1_q3_0_all"  />
<polygon points="182,35 187,30 190,30 190,40 187,40 182,35 " style="fill:#d81515; stroke-width:1; stroke:black; " description="&lt;b&gt;ctg14_5&lt;/b&gt;&lt;br&gt;ctg14 5&lt;br&gt;Location: 3481 - 4162" locus_tag="ctg14_5" class="clusterblast-orf" id="dummy-1_q4_0_all"  />
<polygon points="198,40 202,40 207,35 202,30 198,30 198,40 " style="fill:white; stroke-width:1; stroke:black; " description="&lt;b&gt;ctg14_6&lt;/b&gt;&lt;br&gt;ctg14 6&lt;br&gt;Location: 4786 - 5452" locus_tag="ctg14_6" class="clusterblast-orf" id="dummy-1_q5_0_all"  />
<polygon points="208,40 213,40 218,35 213,30 208,30 208,40 " style="fill:white; stroke-width:1; stroke:black; " description="&lt;b&gt;ctg14_7&lt;/b&gt;&lt;br&gt;ctg14 7&lt;br&gt;Location: 5599 - 6319" locus_tag="ctg14_7" class="clusterblast-orf" id="dummy-1_q6_0_all"  />
<polygon points="218,40 228,40 233,35 228,30 218,30 218,40 " style="fill:#4dd815; stroke-width:1; stroke:black; " description="&lt;b&gt;ctg14_8&lt;/b&gt;&lt;br&gt;ctg14 8&lt;br&gt;Location: 6315 - 7548" locus_tag="ctg14_8" class="clusterblast-orf" id="dummy-1_q7_0_all"  />
<polygon points="233,40 236,40 241,35 236,30 233,30 233,40 " style="fill:#1585d8; stroke-width:1; stroke:black; " description="&lt;b&gt;ctg14_9&lt;/b&gt;&lt;br&gt;ctg14 9&lt;br&gt;Location: 7535 - 8180" locus_tag="ctg14_9" class="clusterblast-orf" id="dummy-1_q8_0_all"  />
<polygon points="241,40 246,40 251,35 246,30 241,30 241,40 " style="fill:white; stroke-width:1; stroke:black; " description="&lt;b&gt;ctg14_10&lt;/b&gt;&lt;br&gt;ctg14 10&lt;br&gt;Location: 8176 - 8989" locus_tag="ctg14_10" class="clusterblast-orf" id="dummy-1_q9_0_all"  />
<polygon points="254,40 268,40 273,35 268,30 254,30 254,40 " style="fill:white; stroke-width:1; stroke:black; " description="&lt;b&gt;ctg14_11&lt;/b&gt;&lt;br&gt;ctg14 11&lt;br&gt;Location: 9218 - 10688" locus_tag="ctg14_11" class="clusterblast-orf" id="dummy-1_q10_0_all"  />
<polygon points="274,40 281,40 286,35 281,30 274,30 274,40 " style="fill:white; stroke-width:1; stroke:black; " description="&lt;b&gt;ctg14_12&lt;/b&gt;&lt;br&gt;ctg14 12&lt;br&gt;Location: 10766 - 11747" locus_tag="ctg14_12" class="clusterblast-orf" id="dummy-1_q11_0_all"  />
<polygon points="287,40 297,40 302,35 297,30 287,30 287,40 " style="fill:white; stroke-width:1; stroke:black; " description="&lt;b&gt;ctg14_13&lt;/b&gt;&lt;br&gt;ctg14 13&lt;br&gt;Location: 11757 - 13005" locus_tag="ctg14_13" class="clusterblast-orf" id="dummy-1_q12_0_all"  />
<polygon points="303,35 308,30 310,30 310,40 308,40 303,35 " style="fill:white; stroke-width:1; stroke:black; " description="&lt;b&gt;ctg14_14&lt;/b&gt;&lt;br&gt;ctg14 14&lt;br&gt;Location: 13041 - 13641" locus_tag="ctg14_14" class="clusterblast-orf" id="dummy-1_q13_0_all"  />
<polygon points="313,35 317,30 317,40 313,35 " style="fill:white; stroke-width:1; stroke:black; " description="&lt;b&gt;ctg14_15&lt;/b&gt;&lt;br&gt;ctg14 15&lt;br&gt;Location: 13871 - 14120" locus_tag="ctg14_15" class="clusterblast-orf" id="dummy-1_q14_0_all"  />
<polygon points="317,35 322,30 329,30 329,40 322,40 317,35 " style="fill:white; stroke-width:1; stroke:black; " description="&lt;b&gt;ctg14_16&lt;/b&gt;&lt;br&gt;ctg14 16&lt;br&gt;Location: 14152 - 15067" locus_tag="ctg14_16" class="clusterblast-orf" id="dummy-1_q15_0_all"  />
<polygon points="329,35 334,30 344,30 344,40 334,40 329,35 " style="fill:white; stroke-width:1; stroke:black; " description="&lt;b&gt;ctg14_17&lt;/b&gt;&lt;br&gt;ctg14 17&lt;br&gt;Location: 15063 - 16251" locus_tag="ctg14_17" class="clusterblast-orf" id="dummy-1_q16_0_all"  />
<polygon points="344,35 346,30 346,40 344,35 " style="fill:white; stroke-width:1; stroke:black; " description="&lt;b&gt;ctg14_18&lt;/b&gt;&lt;br&gt;ctg14 18&lt;br&gt;Location: 16256 - 16418" locus_tag="ctg14_18" class="clusterblast-orf" id="dummy-1_q17_0_all"  />
<polygon points="349,40 366,40 371,35 366,30 349,30 349,40 " style="fill:white; stroke-width:1; stroke:black; " description="&lt;b&gt;ctg14_19&lt;/b&gt;&lt;br&gt;ctg14 19&lt;br&gt;Location: 16709 - 18401" locus_tag="ctg14_19" class="clusterblast-orf" id="dummy-1_q18_0_all"  />
<polygon points="371,40 484,40 489,35 484,30 371,30 371,40 " style="fill:white; stroke-width:1; stroke:black; " description="&lt;b&gt;ctg14_20&lt;/b&gt;&lt;br&gt;ctg14 20&lt;br&gt;Location: 18381 - 27747" locus_tag="ctg14_20" class="clusterblast-orf" id="dummy-1_q19_0_all"  />
<polygon points="489,40 495,40 500,35 495,30 489,30 489,40 " style="fill:#d815bc; stroke-width:1; stroke:black; " description="&lt;b&gt;ctg14_21&lt;/b&gt;&lt;br&gt;ctg14 21&lt;br&gt;Location: 27749 - 28601" locus_tag="ctg14_21" class="clusterblast-orf" id="dummy-1_q20_0_all"  />
<polygon points="501,40 504,35 501,30 501,40 " style="fill:#d8bc15; stroke-width:1; stroke:black; " description="&lt;b&gt;ctg14_22&lt;/b&gt;&lt;br&gt;ctg14 22&lt;br&gt;Location: 28647 - 28914" locus_tag="ctg14_22" class="clusterblast-orf" id="dummy-1_q21_0_all"  />
<polygon points="504,40 514,40 519,35 514,30 504,30 504,40 " style="fill:#15d885; stroke-width:1; stroke:black; " description="&lt;b&gt;ctg14_23&lt;/b&gt;&lt;br&gt;ctg14 23&lt;br&gt;Location: 28910 - 30050" locus_tag="ctg14_23" class="clusterblast-orf" id="dummy-1_q22_0_all"  />
<polygon points="519,40 527,40 532,35 527,30 519,30 519,40 " style="fill:#4d15d8; stroke-width:1; stroke:black; " description="&lt;b&gt;ctg14_24&lt;/b&gt;&lt;br&gt;ctg14 24&lt;br&gt;Location: 30046 - 31087" locus_tag="ctg14_24" class="clusterblast-orf" id="dummy-1_q23_0_all"  />
<polygon points="532,40 540,40 545,35 540,30 532,30 532,40 " style="fill:white; stroke-width:1; stroke:black; " description="&lt;b&gt;ctg14_25&lt;/b&gt;&lt;br&gt;ctg14 25&lt;br&gt;Location: 31119 - 32100" locus_tag="ctg14_25" class="clusterblast-orf" id="dummy-1_q24_0_all"  />
<polygon points="545,40 549,40 554,35 549,30 545,30 545,40 " style="fill:white; stroke-width:1; stroke:black; " description="&lt;b&gt;ctg14_26&lt;/b&gt;&lt;br&gt;ctg14 26&lt;br&gt;Location: 32101 - 32866" locus_tag="ctg14_26" class="clusterblast-orf" id="dummy-1_q25_0_all"  />
<polygon points="554,40 559,40 564,35 559,30 554,30 554,40 " style="fill:white; stroke-width:1; stroke:black; " description="&lt;b&gt;ctg14_27&lt;/b&gt;&lt;br&gt;ctg14 27&lt;br&gt;Location: 32862 - 33636" locus_tag="ctg14_27" class="clusterblast-orf" id="dummy-1_q26_0_all"  />
<polygon points="564,40 579,40 584,35 579,30 564,30 564,40 " style="fill:white; stroke-width:1; stroke:black; " description="&lt;b&gt;ctg14_28&lt;/b&gt;&lt;br&gt;ctg14 28&lt;br&gt;Location: 33628 - 35236" locus_tag="ctg14_28" class="clusterblast-orf" id="dummy-1_q27_0_all"  />
<polygon points="584,40 588,40 593,35 588,30 584,30 584,40 " style="fill:white; stroke-width:1; stroke:black; " description="&lt;b&gt;ctg14_29&lt;/b&gt;&lt;br&gt;ctg14 29&lt;br&gt;Location: 35232 - 35937" locus_tag="ctg14_29" class="clusterblast-orf" id="dummy-1_q28_0_all"  />
<polygon points="593,40 605,40 610,35 605,30 593,30 593,40 " style="fill:white; stroke-width:1; stroke:black; " description="&lt;b&gt;ctg14_30&lt;/b&gt;&lt;br&gt;ctg14 30&lt;br&gt;Location: 35933 - 37217" locus_tag="ctg14_30" class="clusterblast-orf" id="dummy-1_q29_0_all"  />
<polygon points="611,40 621,40 626,35 621,30 611,30 611,40 " style="fill:white; stroke-width:1; stroke:black; " description="&lt;b&gt;ctg14_31&lt;/b&gt;&lt;br&gt;ctg14 31&lt;br&gt;Location: 37290 - 38529" locus_tag="ctg14_31" class="clusterblast-orf" id="dummy-1_q30_0_all"  />
<polygon points="625,35 630,30 642,30 642,40 630,40 625,35 " style="fill:white; stroke-width:1; stroke:black; " description="&lt;b&gt;ctg14_32&lt;/b&gt;&lt;br&gt;ctg14 32&lt;br&gt;Location: 38461 - 39754" locus_tag="ctg14_32" class="clusterblast-orf" id="dummy-1_q31_0_all"  />
</g>
<g label="BGC0001059" description="BGC0001059_c1: Zwittermycin A (7% of genes show similarity), nrps-t1pks" class="clusterblast-cluster"  >
<text x="5" y="70" class="clusterblast-acc"  >
<a xlink:href="https://mibig.secondarymetabolites.org/go/BGC0001059/1" target="_blank">BGC0001059</a>:                                                                   Zwittermycin A (7% of genes show similarity), nrps-t1pks</text>
<line x1="10" y1="85" x2="778.0" y2="85" style="stroke-width:1; stroke:grey; "  />
</g>
<g id="a1_000"  >
<polygon points="0,90 121,90 126,85 121,80 0,80 0,90 " style="fill:white; stroke-width:1; stroke:black; " description="&lt;b&gt;ACM79805.1&lt;/b&gt;&lt;br&gt;ZmaA&lt;br&gt;Location: 3190 - 13200" locus_tag="ACM79805.1" class="clusterblast-orf" id="dummy-1_h1_7_0"  />
</g>
<g id="a1_001"  >
<polygon points="127,90 194,90 199,85 194,80 127,80 127,90 " style="fill:white; stroke-width:1; stroke:black; " description="&lt;b&gt;ACM79806.1&lt;/b&gt;&lt;br&gt;ZmaB&lt;br&gt;Location: 13227 - 18950" locus_tag="ACM79806.1" class="clusterblast-orf" id="dummy-1_h1_7_1"  />
</g>
<g id="a1_002"  >
<polygon points="203,90 232,90 237,85 232,80 203,80 203,90 " style="fill:white; stroke-width:1; stroke:black; " description="&lt;b&gt;ACM79807.1&lt;/b&gt;&lt;br&gt;ZmaC&lt;br&gt;Location: 19269 - 21920" locus_tag="ACM79807.1" class="clusterblast-orf" id="dummy-1_h1_7_2"  />
</g>
<g id="a1_003"  >
<polygon points="238,90 241,85 238,80 238,90 " style="fill:white; stroke-width:1; stroke:black; " description="&lt;b&gt;AAD40107.1&lt;/b&gt;&lt;br&gt;ZmaD&lt;br&gt;Location: 21953 - 22216" locus_tag="AAD40107.1" class="clusterblast-orf" id="dummy-1_h1_7_3"  />
</g>
<g id="a1_004"  >
<polygon points="241,90 250,90 255,85 250,80 241,80 241,90 " style="fill:white; stroke-width:1; stroke:black; " description="&lt;b&gt;AAD40109.1&lt;/b&gt;&lt;br&gt;ZmaE&lt;br&gt;Location: 22213 - 23361" locus_tag="AAD40109.1" class="clusterblast-orf" id="dummy-1_h1_7_4"  />
</g>
<g id="a1_005"  >
<polygon points="255,90 265,90 270,85 265,80 255,80 255,90 " style="fill:white; stroke-width:1; stroke:black; " description="&lt;b&gt;AAD40108.1&lt;/b&gt;&lt;br&gt;ZmaR&lt;br&gt;Location: 23358 - 24485" locus_tag="AAD40108.1" class="clusterblast-orf" id="dummy-1_h1_7_5"  />
</g>
<g id="a1_006"  >
<polygon points="270,90 280,90 285,85 280,80 270,80 270,90 " style="fill:white; stroke-width:1; stroke:black; " description="&lt;b&gt;AAD40110.1&lt;/b&gt;&lt;br&gt;ZmaF&lt;br&gt;Location: 24505 - 25722" locus_tag="AAD40110.1" class="clusterblast-orf" id="dummy-1_h1_7_6"  />
</g>
<g id="a1_007"  >
<polygon points="286,90 292,90 297,85 292,80 286,80 286,90 " style="fill:#d815bc; stroke-width:1; stroke:black; " description="&lt;b&gt;AAR87756.1&lt;/b&gt;&lt;br&gt;ZmaG&lt;br&gt;Location: 25763 - 26611&lt;br&gt;&lt;br&gt;&lt;b&gt;BlastP hit with ctg14_21&lt;/b&gt;&lt;br&gt;Percentage identity: 51&lt;br&gt;Percentage coverage: 99&lt;br&gt;BLAST bit score: 302&lt;br&gt;E-value: 8.7e-82" locus_tag="AAR87756.1" class="clusterblast-orf" id="dummy-1_h1_7_7"  />
</g>
<g id="a1_008"  >
<polygon points="297,90 300,85 297,80 297,90 " style="fill:white; stroke-width:1; stroke:black; " description="&lt;b&gt;AAR87757.1&lt;/b&gt;&lt;br&gt;ZmaH&lt;br&gt;Location: 26642 - 26887" locus_tag="AAR87757.1" class="clusterblast-orf" id="dummy-1_h1_7_8"  />
</g>
<g id="a1_009"  >
<polygon points="300,90 310,90 315,85 310,80 300,80 300,90 " style="fill:white; stroke-width:1; stroke:black; " description="&lt;b&gt;AAR87758.1&lt;/b&gt;&lt;br&gt;ZmaI&lt;br&gt;Location: 26887 - 28080" locus_tag="AAR87758.1" class="clusterblast-orf" id="dummy-1_h1_7_9"  />
</g>
<g id="a1_0010"  >
<polygon points="315,90 330,90 335,85 330,80 315,80 315,90 " style="fill:white; stroke-width:1; stroke:black; " description="&lt;b&gt;AAR87759.1&lt;/b&gt;&lt;br&gt;ZmaJ&lt;br&gt;Location: 28077 - 29654" locus_tag="AAR87759.1" class="clusterblast-orf" id="dummy-1_h1_7_10"  />
</g>
<g id="a1_0011"  >
<polygon points="335,90 427,90 432,85 427,80 335,80 335,90 " style="fill:white; stroke-width:1; stroke:black; " description="&lt;b&gt;AAR87760.2&lt;/b&gt;&lt;br&gt;ZmaK&lt;br&gt;Location: 29629 - 37317" locus_tag="AAR87760.2" class="clusterblast-orf" id="dummy-1_h1_7_11"  />
</g>
<g id="a1_0012"  >
<polygon points="433,90 441,90 446,85 441,80 433,80 433,90 " style="fill:white; stroke-width:1; stroke:black; " description="&lt;b&gt;AAR87761.2&lt;/b&gt;&lt;br&gt;ZmaL&lt;br&gt;Location: 37336 - 38412" locus_tag="AAR87761.2" class="clusterblast-orf" id="dummy-1_h1_7_12"  />
</g>
<g id="a1_0013"  >
<polygon points="447,90 481,90 486,85 481,80 447,80 447,90 " style="fill:white; stroke-width:1; stroke:black; " description="&lt;b&gt;ACM79808.1&lt;/b&gt;&lt;br&gt;ZmaM&lt;br&gt;Location: 38428 - 41511" locus_tag="ACM79808.1" class="clusterblast-orf" id="dummy-1_h1_7_13"  />
</g>
<g id="a1_0014"  >
<polygon points="486,90 494,90 499,85 494,80 486,80 486,90 " style="fill:#4d15d8; stroke-width:1; stroke:black; " description="&lt;b&gt;ACM79809.1&lt;/b&gt;&lt;br&gt;ZmaN&lt;br&gt;Location: 41508 - 42587&lt;br&gt;&lt;br&gt;&lt;b&gt;BlastP hit with ctg14_24&lt;/b&gt;&lt;br&gt;Percentage identity: 54&lt;br&gt;Percentage coverage: 97&lt;br&gt;BLAST bit score: 351&lt;br&gt;E-value: 1.5e-96" locus_tag="ACM79809.1" class="clusterblast-orf" id="dummy-1_h1_7_14"  />
</g>
<g id="a1_0015"  >
<polygon points="499,90 551,90 556,85 551,80 499,80 499,90 " style="fill:white; stroke-width:1; stroke:black; " description="&lt;b&gt;ACM79810.1&lt;/b&gt;&lt;br&gt;ZmaO&lt;br&gt;Location: 42569 - 47065" locus_tag="ACM79810.1" class="clusterblast-orf" id="dummy-1_h1_7_15"  />
</g>
<g id="a1_0016"  >
<polygon points="557,90 561,90 566,85 561,80 557,80 557,90 " style="fill:white; stroke-width:1; stroke:black; " description="&lt;b&gt;ACM79811.1&lt;/b&gt;&lt;br&gt;ZmaP&lt;br&gt;Location: 47121 - 47840" locus_tag="ACM79811.1" class="clusterblast-orf" id="dummy-1_h1_7_16"  />
</g>
<g id="a1_0017"  >
<polygon points="569,90 647,90 652,85 647,80 569,80 569,90 " style="fill:white; stroke-width:1; stroke:black; " description="&lt;b&gt;ACM79812.1&lt;/b&gt;&lt;br&gt;ZmaQ&lt;br&gt;Location: 48084 - 54620" locus_tag="ACM79812.1" class="clusterblast-orf" id="dummy-1_h1_7_17"  />
</g>
<g id="a1_0018"  >
<polygon points="653,90 658,90 663,85 658,80 653,80 653,90 " style="fill:white; stroke-width:1; stroke:black; " description="&lt;b&gt;ACM79813.1&lt;/b&gt;&lt;br&gt;ZmaS&lt;br&gt;Location: 54716 - 55504" locus_tag="ACM79813.1" class="clusterblast-orf" id="dummy-1_h1_7_18"  />
</g>
<g id="a1_0019"  >
<polygon points="665,85 670,80 678,80 678,90 670,90 665,85 " style="fill:white; stroke-width:1; stroke:black; " description="&lt;b&gt;ACM79814.1&lt;/b&gt;&lt;br&gt;KabR&lt;br&gt;Location: 55638 - 56690" locus_tag="ACM79814.1" class="clusterblast-orf" id="dummy-1_h1_7_19"  />
</g>
<g id="a1_0020"  >
<polygon points="679,90 690,90 695,85 690,80 679,80 679,90 " style="fill:white; stroke-width:1; stroke:black; " description="&lt;b&gt;ACM79815.1&lt;/b&gt;&lt;br&gt;KabA&lt;br&gt;Location: 56725 - 58050" locus_tag="ACM79815.1" class="clusterblast-orf" id="dummy-1_h1_7_20"  />
</g>
<g id="a1_0021"  >
<polygon points="695,90 701,90 706,85 701,80 695,80 695,90 " style="fill:white; stroke-width:1; stroke:black; " description="&lt;b&gt;ACM79816.1&lt;/b&gt;&lt;br&gt;KabB&lt;br&gt;Location: 58037 - 58897" locus_tag="ACM79816.1" class="clusterblast-orf" id="dummy-1_h1_7_21"  />
</g>
<g id="a1_0022"  >
<polygon points="706,90 715,90 720,85 715,80 706,80 706,90 " style="fill:white; stroke-width:1; stroke:black; " description="&lt;b&gt;ACM79817.1&lt;/b&gt;&lt;br&gt;KabC&lt;br&gt;Location: 58914 - 59963" locus_tag="ACM79817.1" class="clusterblast-orf" id="dummy-1_h1_7_22"  />
</g>
<g id="a1_0023"  >
<polygon points="721,90 731,90 736,85 731,80 721,80 721,90 " style="fill:white; stroke-width:1; stroke:black; " description="&lt;b&gt;ACM79818.1&lt;/b&gt;&lt;br&gt;KabD&lt;br&gt;Location: 60100 - 61236" locus_tag="ACM79818.1" class="clusterblast-orf" id="dummy-1_h1_7_23"  />
</g>
<g id="a1_0024"  >
<polygon points="741,90 748,90 753,85 748,80 741,80 741,90 " style="fill:white; stroke-width:1; stroke:black; " description="&lt;b&gt;ACM79819.1&lt;/b&gt;&lt;br&gt;ZmaT&lt;br&gt;Location: 61649 - 62581" locus_tag="ACM79819.1" class="clusterblast-orf" id="dummy-1_h1_7_24"  />
</g>
<g id="a1_0025"  >
<polygon points="753,90 762,90 767,85 762,80 753,80 753,90 " style="fill:white; stroke-width:1; stroke:black; " description="&lt;b&gt;ACM79820.1&lt;/b&gt;&lt;br&gt;ZmaU&lt;br&gt;Location: 62597 - 63679" locus_tag="ACM79820.1" class="clusterblast-orf" id="dummy-1_h1_7_25"  />
</g>
<g id="a1_0026"  >
<polygon points="767,90 775,90 780,85 775,80 767,80 767,90 " style="fill:white; stroke-width:1; stroke:black; " description="&lt;b&gt;ACM79821.1&lt;/b&gt;&lt;br&gt;ZmaV&lt;br&gt;Location: 63707 - 64675" locus_tag="ACM79821.1" class="clusterblast-orf" id="dummy-1_h1_7_26"  />
</g>
</svg>
