<svg xmlns="http://www.w3.org/2000/svg" xmlns:xlink="http://www.w3.org/1999/xlink" version="1.1" x="0" y="0" height="230" width="800" viewBox="0 0 800 230" preserveAspectRatio="none"  >
<g label="Query sequence" class="clusterblast-cluster"  >
<text x="5" y="20" class="clusterblast-acc"  >
Query sequence</text>
<line x1="10" y1="35" x2="778.0" y2="35" style="stroke-width:1; stroke:grey; "  />
<polygon points="261,35 266,30 268,30 268,40 266,40 261,35 " style="fill:white; stroke-width:1; stroke:black; " description="&lt;b&gt;ctg48_1&lt;/b&gt;&lt;br&gt;ctg48 1&lt;br&gt;Location: 69 - 801" locus_tag="ctg48_1" class="clusterblast-orf" id="dummy-1_q0_0_all"  />
<polygon points="268,35 273,30 277,30 277,40 273,40 268,35 " style="fill:white; stroke-width:1; stroke:black; " description="&lt;b&gt;ctg48_2&lt;/b&gt;&lt;br&gt;ctg48 2&lt;br&gt;Location: 797 - 1688" locus_tag="ctg48_2" class="clusterblast-orf" id="dummy-1_q1_0_all"  />
<polygon points="278,35 283,30 288,30 288,40 283,40 278,35 " style="fill:white; stroke-width:1; stroke:black; " description="&lt;b&gt;ctg48_3&lt;/b&gt;&lt;br&gt;ctg48 3&lt;br&gt;Location: 1695 - 2766" locus_tag="ctg48_3" class="clusterblast-orf" id="dummy-1_q2_0_all"  />
<polygon points="288,35 293,30 306,30 306,40 293,40 288,35 " style="fill:white; stroke-width:1; stroke:black; " description="&lt;b&gt;ctg48_4&lt;/b&gt;&lt;br&gt;ctg48 4&lt;br&gt;Location: 2747 - 4439" locus_tag="ctg48_4" class="clusterblast-orf" id="dummy-1_q3_0_all"  />
<polygon points="306,35 311,30 316,30 316,40 311,40 306,35 " style="fill:white; stroke-width:1; stroke:black; " description="&lt;b&gt;ctg48_5&lt;/b&gt;&lt;br&gt;ctg48 5&lt;br&gt;Location: 4490 - 5474" locus_tag="ctg48_5" class="clusterblast-orf" id="dummy-1_q4_0_all"  />
<polygon points="317,40 327,40 332,35 327,30 317,30 317,40 " style="fill:white; stroke-width:1; stroke:black; " description="&lt;b&gt;ctg48_6&lt;/b&gt;&lt;br&gt;ctg48 6&lt;br&gt;Location: 5567 - 6998" locus_tag="ctg48_6" class="clusterblast-orf" id="dummy-1_q5_0_all"  />
<polygon points="335,40 342,40 347,35 342,30 335,30 335,40 " style="fill:#d81515; stroke-width:1; stroke:black; " description="&lt;b&gt;ctg48_7&lt;/b&gt;&lt;br&gt;ctg48 7&lt;br&gt;Location: 7302 - 8499" locus_tag="ctg48_7" class="clusterblast-orf" id="dummy-1_q6_0_all"  />
<polygon points="348,35 353,30 359,30 359,40 353,40 348,35 " style="fill:#15d815; stroke-width:1; stroke:black; " description="&lt;b&gt;ctg48_8&lt;/b&gt;&lt;br&gt;ctg48 8&lt;br&gt;Location: 8559 - 9639" locus_tag="ctg48_8" class="clusterblast-orf" id="dummy-1_q7_0_all"  />
<polygon points="359,35 364,30 368,30 368,40 364,40 359,35 " style="fill:#1597d8; stroke-width:1; stroke:black; " description="&lt;b&gt;ctg48_9&lt;/b&gt;&lt;br&gt;ctg48 9&lt;br&gt;Location: 9659 - 10583" locus_tag="ctg48_9" class="clusterblast-orf" id="dummy-1_q8_0_all"  />
<polygon points="371,35 376,30 379,30 379,40 376,40 371,35 " style="fill:#9715d8; stroke-width:1; stroke:black; " description="&lt;b&gt;ctg48_10&lt;/b&gt;&lt;br&gt;ctg48 10&lt;br&gt;Location: 10784 - 11618" locus_tag="ctg48_10" class="clusterblast-orf" id="dummy-1_q9_0_all"  />
<polygon points="379,35 384,30 391,30 391,40 384,40 379,35 " style="fill:#d89715; stroke-width:1; stroke:black; " description="&lt;b&gt;ctg48_11&lt;/b&gt;&lt;br&gt;ctg48 11&lt;br&gt;Location: 11614 - 12766" locus_tag="ctg48_11" class="clusterblast-orf" id="dummy-1_q10_0_all"  />
<polygon points="391,40 398,40 403,35 398,30 391,30 391,40 " style="fill:white; stroke-width:1; stroke:black; " description="&lt;b&gt;ctg48_12&lt;/b&gt;&lt;br&gt;ctg48 12&lt;br&gt;Location: 12786 - 13989" locus_tag="ctg48_12" class="clusterblast-orf" id="dummy-1_q11_0_all"  />
<polygon points="404,35 409,30 413,30 413,40 409,40 404,35 " style="fill:white; stroke-width:1; stroke:black; " description="&lt;b&gt;ctg48_13&lt;/b&gt;&lt;br&gt;ctg48 13&lt;br&gt;Location: 14051 - 14882" locus_tag="ctg48_13" class="clusterblast-orf" id="dummy-1_q12_0_all"  />
<polygon points="412,35 417,30 426,30 426,40 417,40 412,35 " style="fill:#15d897; stroke-width:1; stroke:black; " description="&lt;b&gt;ctg48_14&lt;/b&gt;&lt;br&gt;ctg48 14&lt;br&gt;Location: 14878 - 16189" locus_tag="ctg48_14" class="clusterblast-orf" id="dummy-1_q13_0_all"  />
<polygon points="426,35 431,30 437,30 437,40 431,40 426,35 " style="fill:#1515d8; stroke-width:1; stroke:black; " description="&lt;b&gt;ctg48_15&lt;/b&gt;&lt;br&gt;ctg48 15&lt;br&gt;Location: 16185 - 17301" locus_tag="ctg48_15" class="clusterblast-orf" id="dummy-1_q14_0_all"  />
<polygon points="438,35 441,30 441,40 438,35 " style="fill:#d81597; stroke-width:1; stroke:black; " description="&lt;b&gt;ctg48_16&lt;/b&gt;&lt;br&gt;ctg48 16&lt;br&gt;Location: 17403 - 17676" locus_tag="ctg48_16" class="clusterblast-orf" id="dummy-1_q15_0_all"  />
<polygon points="445,35 450,30 518,30 518,40 450,40 445,35 " style="fill:#97d815; stroke-width:1; stroke:black; " description="&lt;b&gt;ctg48_17&lt;/b&gt;&lt;br&gt;ctg48 17&lt;br&gt;Location: 18022 - 25219" locus_tag="ctg48_17" class="clusterblast-orf" id="dummy-1_q16_0_all"  />
</g>
<g label="BGC0000439" description="BGC0000439_c1: Taromycin (10% of genes show similarity), nrps" class="clusterblast-cluster"  >
<text x="5" y="70" class="clusterblast-acc"  >
<a xlink:href="https://mibig.secondarymetabolites.org/go/BGC0000439/1" target="_blank">BGC0000439</a>:                                                                        Taromycin (10% of genes show similarity), nrps</text>
<line x1="10" y1="85" x2="778.0" y2="85" style="stroke-width:1; stroke:grey; "  />
</g>
<g id="a1_000"  >
<polygon points="0,90 3,90 8,85 3,80 0,80 0,90 " style="fill:white; stroke-width:1; stroke:black; " description="&lt;b&gt;AHH53525.1&lt;/b&gt;&lt;br&gt;enoyl-CoA hydratase&lt;br&gt;Location: 76590 - 75766" locus_tag="AHH53525.1" class="clusterblast-orf" id="dummy-1_h1_5_0"  />
</g>
<g id="a1_001"  >
<polygon points="8,85 13,80 17,80 17,90 13,90 8,85 " style="fill:white; stroke-width:1; stroke:black; " description="&lt;b&gt;AHH53524.1&lt;/b&gt;&lt;br&gt;hypothetical protein&lt;br&gt;Location: 75765 - 74869" locus_tag="AHH53524.1" class="clusterblast-orf" id="dummy-1_h1_5_1"  />
</g>
<g id="a1_002"  >
<polygon points="20,90 24,90 29,85 24,80 20,80 20,90 " style="fill:white; stroke-width:1; stroke:black; " description="&lt;b&gt;AHH53523.1&lt;/b&gt;&lt;br&gt;3-hydroxyacyl-CoA dehydrogenase&lt;br&gt;Location: 74559 - 73696" locus_tag="AHH53523.1" class="clusterblast-orf" id="dummy-1_h1_5_2"  />
</g>
<g id="a1_003"  >
<polygon points="29,90 32,85 29,80 29,90 " style="fill:white; stroke-width:1; stroke:black; " description="&lt;b&gt;AHH53522.1&lt;/b&gt;&lt;br&gt;acyl carrier protein&lt;br&gt;Location: 73699 - 73415" locus_tag="AHH53522.1" class="clusterblast-orf" id="dummy-1_h1_5_3"  />
</g>
<g id="a1_004"  >
<polygon points="32,90 38,90 43,85 38,80 32,80 32,90 " style="fill:white; stroke-width:1; stroke:black; " description="&lt;b&gt;AHH53521.1&lt;/b&gt;&lt;br&gt;acyl-CoA dehydrogenase&lt;br&gt;Location: 73422 - 72310" locus_tag="AHH53521.1" class="clusterblast-orf" id="dummy-1_h1_5_4"  />
</g>
<g id="a1_005"  >
<polygon points="44,90 50,90 55,85 50,80 44,80 44,90 " style="fill:white; stroke-width:1; stroke:black; " description="&lt;b&gt;AHH53520.1&lt;/b&gt;&lt;br&gt;methoxymalonate biosynthesis protein&lt;br&gt;Location: 72291 - 71191" locus_tag="AHH53520.1" class="clusterblast-orf" id="dummy-1_h1_5_5"  />
</g>
<g id="a1_006"  >
<polygon points="55,85 60,80 62,80 62,90 60,90 55,85 " style="fill:white; stroke-width:1; stroke:black; " description="&lt;b&gt;AHH53519.1&lt;/b&gt;&lt;br&gt;O-methyltransferase&lt;br&gt;Location: 71176 - 70508" locus_tag="AHH53519.1" class="clusterblast-orf" id="dummy-1_h1_5_6"  />
</g>
<g id="a1_007"  >
<polygon points="65,90 90,90 95,85 90,80 65,80 65,90 " style="fill:white; stroke-width:1; stroke:black; " description="&lt;b&gt;AHH53518.1&lt;/b&gt;&lt;br&gt;luxR family transcriptional regulator&lt;br&gt;Location: 70174 - 67226" locus_tag="AHH53518.1" class="clusterblast-orf" id="dummy-1_h1_5_7"  />
</g>
<g id="a1_008"  >
<polygon points="95,85 100,80 126,80 126,90 100,90 95,85 " style="fill:white; stroke-width:1; stroke:black; " description="&lt;b&gt;AHH53517.1&lt;/b&gt;&lt;br&gt;SARP family transcriptional activator&lt;br&gt;Location: 67221 - 64279" locus_tag="AHH53517.1" class="clusterblast-orf" id="dummy-1_h1_5_8"  />
</g>
<g id="a1_009"  >
<polygon points="126,85 129,80 129,90 126,85 " style="fill:white; stroke-width:1; stroke:black; " description="&lt;b&gt;AHH53516.1&lt;/b&gt;&lt;br&gt;hypothetical protein&lt;br&gt;Location: 64187 - 63930" locus_tag="AHH53516.1" class="clusterblast-orf" id="dummy-1_h1_5_9"  />
</g>
<g id="a1_0010"  >
<polygon points="129,85 134,80 137,80 137,90 134,90 129,85 " style="fill:white; stroke-width:1; stroke:black; " description="&lt;b&gt;AHH53515.1&lt;/b&gt;&lt;br&gt;thioesterase&lt;br&gt;Location: 63895 - 63152" locus_tag="AHH53515.1" class="clusterblast-orf" id="dummy-1_h1_5_10"  />
</g>
<g id="a1_0011"  >
<polygon points="138,85 143,80 147,80 147,90 143,90 138,85 " style="fill:white; stroke-width:1; stroke:black; " description="&lt;b&gt;AHH53514.1&lt;/b&gt;&lt;br&gt;hypothetical protein&lt;br&gt;Location: 63079 - 62213" locus_tag="AHH53514.1" class="clusterblast-orf" id="dummy-1_h1_5_11"  />
</g>
<g id="a1_0012"  >
<polygon points="147,85 152,80 152,80 152,90 152,90 147,85 " style="fill:white; stroke-width:1; stroke:black; " description="&lt;b&gt;AHH53513.1&lt;/b&gt;&lt;br&gt;flavin reductase&lt;br&gt;Location: 62204 - 61668" locus_tag="AHH53513.1" class="clusterblast-orf" id="dummy-1_h1_5_12"  />
</g>
<g id="a1_0013"  >
<polygon points="153,85 158,80 169,80 169,90 158,90 153,85 " style="fill:white; stroke-width:1; stroke:black; " description="&lt;b&gt;AHH53512.1&lt;/b&gt;&lt;br&gt;tryptophan halogenase&lt;br&gt;Location: 61629 - 60025" locus_tag="AHH53512.1" class="clusterblast-orf" id="dummy-1_h1_5_13"  />
</g>
<g id="a1_0014"  >
<polygon points="169,85 174,80 177,80 177,90 174,90 169,85 " style="fill:white; stroke-width:1; stroke:black; " description="&lt;b&gt;AHH53511.1&lt;/b&gt;&lt;br&gt;tryptophan 2,3-dioxygenase&lt;br&gt;Location: 59988 - 59278" locus_tag="AHH53511.1" class="clusterblast-orf" id="dummy-1_h1_5_14"  />
</g>
<g id="a1_0015"  >
<polygon points="177,85 182,80 188,80 188,90 182,90 177,85 " style="fill:white; stroke-width:1; stroke:black; " description="&lt;b&gt;AHH53510.1&lt;/b&gt;&lt;br&gt;methyltransferase&lt;br&gt;Location: 59247 - 58210" locus_tag="AHH53510.1" class="clusterblast-orf" id="dummy-1_h1_5_15"  />
</g>
<g id="a1_0016"  >
<polygon points="188,85 190,80 190,90 188,85 " style="fill:white; stroke-width:1; stroke:black; " description="&lt;b&gt;AHH53509.1&lt;/b&gt;&lt;br&gt;hypothetical protein&lt;br&gt;Location: 58195 - 57980" locus_tag="AHH53509.1" class="clusterblast-orf" id="dummy-1_h1_5_16"  />
</g>
<g id="a1_0017"  >
<polygon points="190,85 195,80 263,80 263,90 195,90 190,85 " style="fill:white; stroke-width:1; stroke:black; " description="&lt;b&gt;AHH53508.1&lt;/b&gt;&lt;br&gt;non-ribosomal peptide synthetase&lt;br&gt;Location: 57978 - 50821" locus_tag="AHH53508.1" class="clusterblast-orf" id="dummy-1_h1_5_17"  />
</g>
<g id="a1_0018"  >
<polygon points="263,85 268,80 488,80 488,90 268,90 263,85 " style="fill:#97d815; stroke-width:1; stroke:black; " description="&lt;b&gt;AHH53507.1&lt;/b&gt;&lt;br&gt;non-ribosomal peptide synthetase&lt;br&gt;Location: 50819 - 28902&lt;br&gt;&lt;br&gt;&lt;b&gt;BlastP hit with ctg48_17&lt;/b&gt;&lt;br&gt;Percentage identity: 49&lt;br&gt;Percentage coverage: 93&lt;br&gt;BLAST bit score: 1842&lt;br&gt;E-value: 0.0" locus_tag="AHH53507.1" class="clusterblast-orf" id="dummy-1_h1_5_18"  />
</g>
<g id="a1_0019"  >
<polygon points="488,85 493,80 665,80 665,90 493,90 488,85 " style="fill:#97d815; stroke-width:1; stroke:black; " description="&lt;b&gt;AHH53506.1&lt;/b&gt;&lt;br&gt;non-ribosomal peptide synthetase&lt;br&gt;Location: 28905 - 11584&lt;br&gt;&lt;br&gt;&lt;b&gt;BlastP hit with ctg48_17&lt;/b&gt;&lt;br&gt;Percentage identity: 47&lt;br&gt;Percentage coverage: 93&lt;br&gt;BLAST bit score: 1693&lt;br&gt;E-value: 0.0" locus_tag="AHH53506.1" class="clusterblast-orf" id="dummy-1_h1_5_19"  />
</g>
<g id="a1_0020"  >
<polygon points="666,85 668,80 668,90 666,85 " style="fill:white; stroke-width:1; stroke:black; " description="&lt;b&gt;AHH53505.1&lt;/b&gt;&lt;br&gt;acyl carrier protein&lt;br&gt;Location: 11528 - 11265" locus_tag="AHH53505.1" class="clusterblast-orf" id="dummy-1_h1_5_20"  />
</g>
<g id="a1_0021"  >
<polygon points="669,85 674,80 685,80 685,90 674,90 669,85 " style="fill:white; stroke-width:1; stroke:black; " description="&lt;b&gt;AHH53504.1&lt;/b&gt;&lt;br&gt;acyl-CoA dehydrogenase&lt;br&gt;Location: 11230 - 9581" locus_tag="AHH53504.1" class="clusterblast-orf" id="dummy-1_h1_5_21"  />
</g>
<g id="a1_0022"  >
<polygon points="686,85 691,80 703,80 703,90 691,90 686,85 " style="fill:white; stroke-width:1; stroke:black; " description="&lt;b&gt;AHH53503.1&lt;/b&gt;&lt;br&gt;acyl-CoA dehydrogenase&lt;br&gt;Location: 9569 - 7851" locus_tag="AHH53503.1" class="clusterblast-orf" id="dummy-1_h1_5_22"  />
</g>
<g id="a1_0023"  >
<polygon points="704,85 709,80 721,80 721,90 709,90 704,85 " style="fill:white; stroke-width:1; stroke:black; " description="&lt;b&gt;AHH53502.1&lt;/b&gt;&lt;br&gt;acyl-CoA synthetase&lt;br&gt;Location: 7818 - 6079" locus_tag="AHH53502.1" class="clusterblast-orf" id="dummy-1_h1_5_23"  />
</g>
<g id="a1_0024"  >
<polygon points="725,90 729,90 734,85 729,80 725,80 725,90 " style="fill:#d89715; stroke-width:1; stroke:black; " description="&lt;b&gt;AHH53501.1&lt;/b&gt;&lt;br&gt;ABC transporter ATP-binding subunit&lt;br&gt;Location: 5693 - 4806&lt;br&gt;&lt;br&gt;&lt;b&gt;BlastP hit with ctg48_11&lt;/b&gt;&lt;br&gt;Percentage identity: 54&lt;br&gt;Percentage coverage: 76&lt;br&gt;BLAST bit score: 280&lt;br&gt;E-value: 2.8e-75" locus_tag="AHH53501.1" class="clusterblast-orf" id="dummy-1_h1_5_24"  />
</g>
<g id="a1_0025"  >
<polygon points="734,90 738,90 743,85 738,80 734,80 734,90 " style="fill:white; stroke-width:1; stroke:black; " description="&lt;b&gt;AHH53500.1&lt;/b&gt;&lt;br&gt;ABC-type multidrug transport system&lt;br&gt;Location: 4804 - 3956" locus_tag="AHH53500.1" class="clusterblast-orf" id="dummy-1_h1_5_25"  />
</g>
<g id="a1_0026"  >
<polygon points="742,85 747,80 749,80 749,90 747,90 742,85 " style="fill:white; stroke-width:1; stroke:black; " description="&lt;b&gt;AHH53499.1&lt;/b&gt;&lt;br&gt;membrane-associated protein&lt;br&gt;Location: 4036 - 3344" locus_tag="AHH53499.1" class="clusterblast-orf" id="dummy-1_h1_5_26"  />
</g>
<g id="a1_0027"  >
<polygon points="753,90 757,90 762,85 757,80 753,80 753,90 " style="fill:white; stroke-width:1; stroke:black; " description="&lt;b&gt;AHH53498.1&lt;/b&gt;&lt;br&gt;putative oxidoreductase&lt;br&gt;Location: 3021 - 2095" locus_tag="AHH53498.1" class="clusterblast-orf" id="dummy-1_h1_5_27"  />
</g>
<g id="a1_0028"  >
<polygon points="762,85 767,80 770,80 770,90 767,90 762,85 " style="fill:white; stroke-width:1; stroke:black; " description="&lt;b&gt;AHH53497.1&lt;/b&gt;&lt;br&gt;gluconolaconase&lt;br&gt;Location: 2082 - 1276" locus_tag="AHH53497.1" class="clusterblast-orf" id="dummy-1_h1_5_28"  />
</g>
<g id="a1_0029"  >
<polygon points="770,85 775,80 780,80 780,90 775,90 770,85 " style="fill:white; stroke-width:1; stroke:black; " description="&lt;b&gt;AHH53496.1&lt;/b&gt;&lt;br&gt;putative sugar kinase&lt;br&gt;Location: 1279 - 395" locus_tag="AHH53496.1" class="clusterblast-orf" id="dummy-1_h1_5_29"  />
</g>
</svg>
