<svg xmlns="http://www.w3.org/2000/svg" xmlns:xlink="http://www.w3.org/1999/xlink" version="1.1" x="0" y="0" height="230" width="800" viewBox="0 0 800 230" preserveAspectRatio="none"  >
<g label="Query sequence" class="clusterblast-cluster"  >
<text x="5" y="20" class="clusterblast-acc"  >
Query sequence</text>
<line x1="10" y1="35" x2="778.0" y2="35" style="stroke-width:1; stroke:grey; "  />
<polygon points="0,40 15,40 20,35 15,30 0,30 0,40 " style="fill:#d81515; stroke-width:1; stroke:black; " description="&lt;b&gt;ctg8_1&lt;/b&gt;&lt;br&gt;ctg8 1&lt;br&gt;Location: 34 - 1228" locus_tag="ctg8_1" class="clusterblast-orf" id="dummy-1_q0_0_all"  />
<polygon points="20,40 24,35 20,30 20,40 " style="fill:#56d815; stroke-width:1; stroke:black; " description="&lt;b&gt;ctg8_2&lt;/b&gt;&lt;br&gt;ctg8 2&lt;br&gt;Location: 1247 - 1463" locus_tag="ctg8_2" class="clusterblast-orf" id="dummy-1_q1_0_all"  />
<polygon points="24,40 38,40 43,35 38,30 24,30 24,40 " style="fill:#1597d8; stroke-width:1; stroke:black; " description="&lt;b&gt;ctg8_3&lt;/b&gt;&lt;br&gt;ctg8 3&lt;br&gt;Location: 1459 - 2614" locus_tag="ctg8_3" class="clusterblast-orf" id="dummy-1_q2_0_all"  />
<polygon points="44,40 70,40 75,35 70,30 44,30 44,40 " style="fill:#9715d8; stroke-width:1; stroke:black; " description="&lt;b&gt;ctg8_4&lt;/b&gt;&lt;br&gt;ctg8 4&lt;br&gt;Location: 2687 - 4496" locus_tag="ctg8_4" class="clusterblast-orf" id="dummy-1_q3_0_all"  />
<polygon points="75,40 77,40 82,35 77,30 75,30 75,40 " style="fill:#d85615; stroke-width:1; stroke:black; " description="&lt;b&gt;ctg8_5&lt;/b&gt;&lt;br&gt;ctg8 5&lt;br&gt;Location: 4492 - 4885" locus_tag="ctg8_5" class="clusterblast-orf" id="dummy-1_q4_0_all"  />
<polygon points="82,40 97,40 102,35 97,30 82,30 82,40 " style="fill:#15d815; stroke-width:1; stroke:black; " description="&lt;b&gt;ctg8_6&lt;/b&gt;&lt;br&gt;ctg8 6&lt;br&gt;Location: 4895 - 6089" locus_tag="ctg8_6" class="clusterblast-orf" id="dummy-1_q5_0_all"  />
<polygon points="103,40 111,40 116,35 111,30 103,30 103,40 " style="fill:#1556d8; stroke-width:1; stroke:black; " description="&lt;b&gt;ctg8_7&lt;/b&gt;&lt;br&gt;ctg8 7&lt;br&gt;Location: 6134 - 6944" locus_tag="ctg8_7" class="clusterblast-orf" id="dummy-1_q6_0_all"  />
<polygon points="116,35 121,30 125,30 125,40 121,40 116,35 " style="fill:#d815d8; stroke-width:1; stroke:black; " description="&lt;b&gt;ctg8_8&lt;/b&gt;&lt;br&gt;ctg8 8&lt;br&gt;Location: 6923 - 7457" locus_tag="ctg8_8" class="clusterblast-orf" id="dummy-1_q7_0_all"  />
<polygon points="125,40 128,35 125,30 125,40 " style="fill:white; stroke-width:1; stroke:black; " description="&lt;b&gt;ctg8_9&lt;/b&gt;&lt;br&gt;ctg8 9&lt;br&gt;Location: 7481 - 7646" locus_tag="ctg8_9" class="clusterblast-orf" id="dummy-1_q8_0_all"  />
<polygon points="133,35 138,30 153,30 153,40 138,40 133,35 " style="fill:#d89715; stroke-width:1; stroke:black; " description="&lt;b&gt;ctg8_10&lt;/b&gt;&lt;br&gt;ctg8 10&lt;br&gt;Location: 7953 - 9105" locus_tag="ctg8_10" class="clusterblast-orf" id="dummy-1_q9_0_all"  />
<polygon points="153,35 158,30 183,30 183,40 158,40 153,35 " style="fill:#15d856; stroke-width:1; stroke:black; " description="&lt;b&gt;ctg8_11&lt;/b&gt;&lt;br&gt;ctg8 11&lt;br&gt;Location: 9101 - 10916" locus_tag="ctg8_11" class="clusterblast-orf" id="dummy-1_q10_0_all"  />
<polygon points="184,35 189,30 201,30 201,40 189,40 184,35 " style="fill:#1515d8; stroke-width:1; stroke:black; " description="&lt;b&gt;ctg8_12&lt;/b&gt;&lt;br&gt;ctg8 12&lt;br&gt;Location: 10927 - 11929" locus_tag="ctg8_12" class="clusterblast-orf" id="dummy-1_q11_0_all"  />
<polygon points="204,40 213,40 218,35 213,30 204,30 204,40 " style="fill:#d81597; stroke-width:1; stroke:black; " description="&lt;b&gt;ctg8_13&lt;/b&gt;&lt;br&gt;ctg8 13&lt;br&gt;Location: 12135 - 12939" locus_tag="ctg8_13" class="clusterblast-orf" id="dummy-1_q12_0_all"  />
<polygon points="218,35 223,30 229,30 229,40 223,40 218,35 " style="fill:white; stroke-width:1; stroke:black; " description="&lt;b&gt;ctg8_14&lt;/b&gt;&lt;br&gt;ctg8 14&lt;br&gt;Location: 12961 - 13627" locus_tag="ctg8_14" class="clusterblast-orf" id="dummy-1_q13_0_all"  />
<polygon points="232,40 275,40 280,35 275,30 232,30 232,40 " style="fill:white; stroke-width:1; stroke:black; " description="&lt;b&gt;ctg8_15&lt;/b&gt;&lt;br&gt;ctg8 15&lt;br&gt;Location: 13762 - 16624" locus_tag="ctg8_15" class="clusterblast-orf" id="dummy-1_q14_0_all"  />
<polygon points="281,40 283,40 288,35 283,30 281,30 281,40 " style="fill:white; stroke-width:1; stroke:black; " description="&lt;b&gt;ctg8_16&lt;/b&gt;&lt;br&gt;ctg8 16&lt;br&gt;Location: 16678 - 17080" locus_tag="ctg8_16" class="clusterblast-orf" id="dummy-1_q15_0_all"  />
<polygon points="288,40 296,40 301,35 296,30 288,30 288,40 " style="fill:white; stroke-width:1; stroke:black; " description="&lt;b&gt;ctg8_17&lt;/b&gt;&lt;br&gt;ctg8 17&lt;br&gt;Location: 17081 - 17846" locus_tag="ctg8_17" class="clusterblast-orf" id="dummy-1_q16_0_all"  />
<polygon points="301,35 306,30 329,30 329,40 306,40 301,35 " style="fill:white; stroke-width:1; stroke:black; " description="&lt;b&gt;ctg8_18&lt;/b&gt;&lt;br&gt;ctg8 18&lt;br&gt;Location: 17897 - 19535" locus_tag="ctg8_18" class="clusterblast-orf" id="dummy-1_q17_0_all"  />
<polygon points="329,35 334,30 338,30 338,40 334,40 329,35 " style="fill:white; stroke-width:1; stroke:black; " description="&lt;b&gt;ctg8_19&lt;/b&gt;&lt;br&gt;ctg8 19&lt;br&gt;Location: 19531 - 20044" locus_tag="ctg8_19" class="clusterblast-orf" id="dummy-1_q18_0_all"  />
<polygon points="338,35 343,30 348,30 348,40 343,40 338,35 " style="fill:white; stroke-width:1; stroke:black; " description="&lt;b&gt;ctg8_20&lt;/b&gt;&lt;br&gt;ctg8 20&lt;br&gt;Location: 20040 - 20667" locus_tag="ctg8_20" class="clusterblast-orf" id="dummy-1_q19_0_all"  />
<polygon points="351,35 356,30 366,30 366,40 356,40 351,35 " style="fill:white; stroke-width:1; stroke:black; " description="&lt;b&gt;ctg8_21&lt;/b&gt;&lt;br&gt;ctg8 21&lt;br&gt;Location: 20806 - 21709" locus_tag="ctg8_21" class="clusterblast-orf" id="dummy-1_q20_0_all"  />
<polygon points="374,40 410,40 415,35 410,30 374,30 374,40 " style="fill:white; stroke-width:1; stroke:black; " description="&lt;b&gt;ctg8_22&lt;/b&gt;&lt;br&gt;ctg8 22&lt;br&gt;Location: 22167 - 24606" locus_tag="ctg8_22" class="clusterblast-orf" id="dummy-1_q21_0_all"  />
<polygon points="415,40 447,40 452,35 447,30 415,30 415,40 " style="fill:white; stroke-width:1; stroke:black; " description="&lt;b&gt;ctg8_23&lt;/b&gt;&lt;br&gt;ctg8 23&lt;br&gt;Location: 24606 - 26832" locus_tag="ctg8_23" class="clusterblast-orf" id="dummy-1_q22_0_all"  />
<polygon points="454,40 467,40 472,35 467,30 454,30 454,40 " style="fill:#d8d815; stroke-width:1; stroke:black; " description="&lt;b&gt;ctg8_24&lt;/b&gt;&lt;br&gt;ctg8 24&lt;br&gt;Location: 26957 - 28010" locus_tag="ctg8_24" class="clusterblast-orf" id="dummy-1_q23_0_all"  />
<polygon points="472,40 485,40 490,35 485,30 472,30 472,40 " style="fill:#15d897; stroke-width:1; stroke:black; " description="&lt;b&gt;ctg8_25&lt;/b&gt;&lt;br&gt;ctg8 25&lt;br&gt;Location: 28006 - 29050" locus_tag="ctg8_25" class="clusterblast-orf" id="dummy-1_q24_0_all"  />
<polygon points="490,40 502,40 507,35 502,30 490,30 490,40 " style="fill:#5615d8; stroke-width:1; stroke:black; " description="&lt;b&gt;ctg8_26&lt;/b&gt;&lt;br&gt;ctg8 26&lt;br&gt;Location: 29061 - 30072" locus_tag="ctg8_26" class="clusterblast-orf" id="dummy-1_q25_0_all"  />
<polygon points="507,35 512,30 515,30 515,40 512,40 507,35 " style="fill:#d81556; stroke-width:1; stroke:black; " description="&lt;b&gt;ctg8_27&lt;/b&gt;&lt;br&gt;ctg8 27&lt;br&gt;Location: 30084 - 30567" locus_tag="ctg8_27" class="clusterblast-orf" id="dummy-1_q26_0_all"  />
<polygon points="518,40 534,40 539,35 534,30 518,30 518,40 " style="fill:#97d815; stroke-width:1; stroke:black; " description="&lt;b&gt;ctg8_28&lt;/b&gt;&lt;br&gt;ctg8 28&lt;br&gt;Location: 30746 - 31988" locus_tag="ctg8_28" class="clusterblast-orf" id="dummy-1_q27_0_all"  />
<polygon points="539,40 543,35 539,30 539,40 " style="fill:#15d8d8; stroke-width:1; stroke:black; " description="&lt;b&gt;ctg8_29&lt;/b&gt;&lt;br&gt;ctg8 29&lt;br&gt;Location: 31984 - 32185" locus_tag="ctg8_29" class="clusterblast-orf" id="dummy-1_q28_0_all"  />
<polygon points="544,35 549,30 566,30 566,40 549,40 544,35 " style="fill:white; stroke-width:1; stroke:black; " description="&lt;b&gt;ctg8_30&lt;/b&gt;&lt;br&gt;ctg8 30&lt;br&gt;Location: 32242 - 33541" locus_tag="ctg8_30" class="clusterblast-orf" id="dummy-1_q29_0_all"  />
<polygon points="567,35 571,30 571,40 567,35 " style="fill:white; stroke-width:1; stroke:black; " description="&lt;b&gt;ctg8_31&lt;/b&gt;&lt;br&gt;ctg8 31&lt;br&gt;Location: 33610 - 33826" locus_tag="ctg8_31" class="clusterblast-orf" id="dummy-1_q30_0_all"  />
<polygon points="570,35 575,30 597,30 597,40 575,40 570,35 " style="fill:white; stroke-width:1; stroke:black; " description="&lt;b&gt;ctg8_32&lt;/b&gt;&lt;br&gt;ctg8 32&lt;br&gt;Location: 33822 - 35376" locus_tag="ctg8_32" class="clusterblast-orf" id="dummy-1_q31_0_all"  />
<polygon points="596,35 601,30 653,30 653,40 601,40 596,35 " style="fill:white; stroke-width:1; stroke:black; " description="&lt;b&gt;ctg8_33&lt;/b&gt;&lt;br&gt;ctg8 33&lt;br&gt;Location: 35359 - 38725" locus_tag="ctg8_33" class="clusterblast-orf" id="dummy-1_q32_0_all"  />
<polygon points="653,35 658,30 683,30 683,40 658,40 653,35 " style="fill:white; stroke-width:1; stroke:black; " description="&lt;b&gt;ctg8_34&lt;/b&gt;&lt;br&gt;ctg8 34&lt;br&gt;Location: 38721 - 40512" locus_tag="ctg8_34" class="clusterblast-orf" id="dummy-1_q33_0_all"  />
<polygon points="683,35 688,30 780,30 780,40 688,40 683,35 " style="fill:white; stroke-width:1; stroke:black; " description="&lt;b&gt;ctg8_35&lt;/b&gt;&lt;br&gt;ctg8 35&lt;br&gt;Location: 40511 - 46208" locus_tag="ctg8_35" class="clusterblast-orf" id="dummy-1_q34_0_all"  />
</g>
<g label="BGC0001140" description="BGC0001140_c1: Platensimycin / platencin (11% of genes show similarity), terpene" class="clusterblast-cluster"  >
<text x="5" y="70" class="clusterblast-acc"  >
<a xlink:href="https://mibig.secondarymetabolites.org/go/BGC0001140/1" target="_blank">BGC0001140</a>:                                                        Platensimycin / platencin (11% of genes show similarity), terpene</text>
<line x1="10" y1="85" x2="778.0" y2="85" style="stroke-width:1; stroke:grey; "  />
</g>
<g id="a1_000"  >
<polygon points="43,85 48,80 49,80 49,90 48,90 43,85 " style="fill:white; stroke-width:1; stroke:black; " description="&lt;b&gt;ACS13712.1&lt;/b&gt;&lt;br&gt;PtmO9&lt;br&gt;Location: 41076 - 40741" locus_tag="ACS13712.1" class="clusterblast-orf" id="dummy-1_h1_4_0"  />
</g>
<g id="a1_001"  >
<polygon points="49,85 54,80 77,80 77,90 54,90 49,85 " style="fill:white; stroke-width:1; stroke:black; " description="&lt;b&gt;ACS13711.1&lt;/b&gt;&lt;br&gt;PtmP4&lt;br&gt;Location: 40717 - 39095" locus_tag="ACS13711.1" class="clusterblast-orf" id="dummy-1_h1_4_1"  />
</g>
<g id="a1_002"  >
<polygon points="79,85 84,80 99,80 99,90 84,90 79,85 " style="fill:white; stroke-width:1; stroke:black; " description="&lt;b&gt;ACS13710.1&lt;/b&gt;&lt;br&gt;PtmP3&lt;br&gt;Location: 38977 - 37763" locus_tag="ACS13710.1" class="clusterblast-orf" id="dummy-1_h1_4_2"  />
</g>
<g id="a1_003"  >
<polygon points="102,85 107,80 129,80 129,90 107,90 102,85 " style="fill:white; stroke-width:1; stroke:black; " description="&lt;b&gt;ACO31297.1&lt;/b&gt;&lt;br&gt;PtmA3&lt;br&gt;Location: 37595 - 36012" locus_tag="ACO31297.1" class="clusterblast-orf" id="dummy-1_h1_4_3"  />
</g>
<g id="a1_004"  >
<polygon points="130,85 135,80 160,80 160,90 135,90 130,85 " style="fill:white; stroke-width:1; stroke:black; " description="&lt;b&gt;ACO31296.1&lt;/b&gt;&lt;br&gt;PtmU4&lt;br&gt;Location: 35973 - 34183" locus_tag="ACO31296.1" class="clusterblast-orf" id="dummy-1_h1_4_4"  />
</g>
<g id="a1_005"  >
<polygon points="160,85 165,80 174,80 174,90 165,90 160,85 " style="fill:white; stroke-width:1; stroke:black; " description="&lt;b&gt;ACO31295.1&lt;/b&gt;&lt;br&gt;PtmO8&lt;br&gt;Location: 34186 - 33350" locus_tag="ACO31295.1" class="clusterblast-orf" id="dummy-1_h1_4_5"  />
</g>
<g id="a1_006"  >
<polygon points="179,90 186,90 191,85 186,80 179,80 179,90 " style="fill:white; stroke-width:1; stroke:black; " description="&lt;b&gt;ACO31294.1&lt;/b&gt;&lt;br&gt;PtmR1&lt;br&gt;Location: 33058 - 32342" locus_tag="ACO31294.1" class="clusterblast-orf" id="dummy-1_h1_4_6"  />
</g>
<g id="a1_007"  >
<polygon points="191,85 196,80 207,80 207,90 196,90 191,85 " style="fill:white; stroke-width:1; stroke:black; " description="&lt;b&gt;ACO31293.1&lt;/b&gt;&lt;br&gt;PtmO7&lt;br&gt;Location: 32309 - 31404" locus_tag="ACO31293.1" class="clusterblast-orf" id="dummy-1_h1_4_7"  />
</g>
<g id="a1_008"  >
<polygon points="207,85 212,80 228,80 228,90 212,90 207,85 " style="fill:white; stroke-width:1; stroke:black; " description="&lt;b&gt;ACO31292.1&lt;/b&gt;&lt;br&gt;PtmP2&lt;br&gt;Location: 31389 - 30145" locus_tag="ACO31292.1" class="clusterblast-orf" id="dummy-1_h1_4_8"  />
</g>
<g id="a1_009"  >
<polygon points="229,90 248,90 253,85 248,80 229,80 229,90 " style="fill:white; stroke-width:1; stroke:black; " description="&lt;b&gt;ACO31291.1&lt;/b&gt;&lt;br&gt;PtmP1&lt;br&gt;Location: 30073 - 28649" locus_tag="ACO31291.1" class="clusterblast-orf" id="dummy-1_h1_4_9"  />
</g>
<g id="a1_0010"  >
<polygon points="255,85 260,80 270,80 270,90 260,90 255,85 " style="fill:white; stroke-width:1; stroke:black; " description="&lt;b&gt;ACO31290.1&lt;/b&gt;&lt;br&gt;PtmC&lt;br&gt;Location: 28563 - 27688" locus_tag="ACO31290.1" class="clusterblast-orf" id="dummy-1_h1_4_10"  />
</g>
<g id="a1_0011"  >
<polygon points="271,85 276,80 291,80 291,90 276,90 271,85 " style="fill:white; stroke-width:1; stroke:black; " description="&lt;b&gt;ACO31289.1&lt;/b&gt;&lt;br&gt;PtmB3&lt;br&gt;Location: 27629 - 26439" locus_tag="ACO31289.1" class="clusterblast-orf" id="dummy-1_h1_4_11"  />
</g>
<g id="a1_0012"  >
<polygon points="291,85 296,80 309,80 309,90 296,90 291,85 " style="fill:white; stroke-width:1; stroke:black; " description="&lt;b&gt;ACO31288.1&lt;/b&gt;&lt;br&gt;PtmB2&lt;br&gt;Location: 26433 - 25327" locus_tag="ACO31288.1" class="clusterblast-orf" id="dummy-1_h1_4_12"  />
</g>
<g id="a1_0013"  >
<polygon points="310,85 315,80 324,80 324,90 315,90 310,85 " style="fill:white; stroke-width:1; stroke:black; " description="&lt;b&gt;ACO31287.1&lt;/b&gt;&lt;br&gt;PtmB1&lt;br&gt;Location: 25275 - 24442" locus_tag="ACO31287.1" class="clusterblast-orf" id="dummy-1_h1_4_13"  />
</g>
<g id="a1_0014"  >
<polygon points="326,85 331,80 355,80 355,90 331,90 326,85 " style="fill:#15d856; stroke-width:1; stroke:black; " description="&lt;b&gt;ACO31286.1&lt;/b&gt;&lt;br&gt;PtmM3&lt;br&gt;Location: 24364 - 22601&lt;br&gt;&lt;br&gt;&lt;b&gt;BlastP hit with ctg8_11&lt;/b&gt;&lt;br&gt;Percentage identity: 63&lt;br&gt;Percentage coverage: 96&lt;br&gt;BLAST bit score: 704&lt;br&gt;E-value: 1.6e-202" locus_tag="ACO31286.1" class="clusterblast-orf" id="dummy-1_h1_4_14"  />
</g>
<g id="a1_0015"  >
<polygon points="355,85 360,80 374,80 374,90 360,90 355,85 " style="fill:#d89715; stroke-width:1; stroke:black; " description="&lt;b&gt;ACO31285.1&lt;/b&gt;&lt;br&gt;PtmM2&lt;br&gt;Location: 22614 - 21514&lt;br&gt;&lt;br&gt;&lt;b&gt;BlastP hit with ctg8_10&lt;/b&gt;&lt;br&gt;Percentage identity: 86&lt;br&gt;Percentage coverage: 93&lt;br&gt;BLAST bit score: 599&lt;br&gt;E-value: 2.7e-171" locus_tag="ACO31285.1" class="clusterblast-orf" id="dummy-1_h1_4_15"  />
</g>
<g id="a1_0016"  >
<polygon points="374,85 379,80 397,80 397,90 379,90 374,85 " style="fill:#1515d8; stroke-width:1; stroke:black; " description="&lt;b&gt;ACO31284.1&lt;/b&gt;&lt;br&gt;PtmM1&lt;br&gt;Location: 21506 - 20160&lt;br&gt;&lt;br&gt;&lt;b&gt;BlastP hit with ctg8_12&lt;/b&gt;&lt;br&gt;Percentage identity: 62&lt;br&gt;Percentage coverage: 94&lt;br&gt;BLAST bit score: 365&lt;br&gt;E-value: 9.9e-101" locus_tag="ACO31284.1" class="clusterblast-orf" id="dummy-1_h1_4_16"  />
</g>
<g id="a1_0017"  >
<polygon points="397,85 402,80 414,80 414,90 402,90 397,85 " style="fill:white; stroke-width:1; stroke:black; " description="&lt;b&gt;ACO31283.1&lt;/b&gt;&lt;br&gt;PtmT4&lt;br&gt;Location: 20160 - 19114" locus_tag="ACO31283.1" class="clusterblast-orf" id="dummy-1_h1_4_17"  />
</g>
<g id="a1_0018"  >
<polygon points="415,85 420,80 430,80 430,90 420,90 415,85 " style="fill:white; stroke-width:1; stroke:black; " description="&lt;b&gt;ACO31282.1&lt;/b&gt;&lt;br&gt;PtmO6&lt;br&gt;Location: 19057 - 18215" locus_tag="ACO31282.1" class="clusterblast-orf" id="dummy-1_h1_4_18"  />
</g>
<g id="a1_0019"  >
<polygon points="431,85 436,80 449,80 449,90 436,90 431,85 " style="fill:white; stroke-width:1; stroke:black; " description="&lt;b&gt;ACO31281.1&lt;/b&gt;&lt;br&gt;PtmR3&lt;br&gt;Location: 18127 - 17060" locus_tag="ACO31281.1" class="clusterblast-orf" id="dummy-1_h1_4_19"  />
</g>
<g id="a1_0020"  >
<polygon points="449,85 454,80 471,80 471,90 454,90 449,85 " style="fill:#d81515; stroke-width:1; stroke:black; " description="&lt;b&gt;ACO31280.1&lt;/b&gt;&lt;br&gt;PtmO5&lt;br&gt;Location: 17063 - 15771&lt;br&gt;&lt;br&gt;&lt;b&gt;BlastP hit with ctg8_1&lt;/b&gt;&lt;br&gt;Percentage identity: 47&lt;br&gt;Percentage coverage: 101&lt;br&gt;BLAST bit score: 307&lt;br&gt;E-value: 2.9e-83" locus_tag="ACO31280.1" class="clusterblast-orf" id="dummy-1_h1_4_20"  />
</g>
<g id="a1_0021"  >
<polygon points="472,85 477,80 487,80 487,90 477,90 472,85 " style="fill:white; stroke-width:1; stroke:black; " description="&lt;b&gt;ACO31279.1&lt;/b&gt;&lt;br&gt;PtmT3&lt;br&gt;Location: 15730 - 14801" locus_tag="ACO31279.1" class="clusterblast-orf" id="dummy-1_h1_4_21"  />
</g>
<g id="a1_0022"  >
<polygon points="487,85 492,80 507,80 507,90 492,90 487,85 " style="fill:white; stroke-width:1; stroke:black; " description="&lt;b&gt;ACO31278.1&lt;/b&gt;&lt;br&gt;PtmO4&lt;br&gt;Location: 14804 - 13638" locus_tag="ACO31278.1" class="clusterblast-orf" id="dummy-1_h1_4_22"  />
</g>
<g id="a1_0023"  >
<polygon points="507,85 512,80 521,80 521,90 512,90 507,85 " style="fill:white; stroke-width:1; stroke:black; " description="&lt;b&gt;ACO31277.1&lt;/b&gt;&lt;br&gt;PtmO3&lt;br&gt;Location: 13638 - 12781" locus_tag="ACO31277.1" class="clusterblast-orf" id="dummy-1_h1_4_23"  />
</g>
<g id="a1_0024"  >
<polygon points="524,90 546,90 551,85 546,80 524,80 524,90 " style="fill:white; stroke-width:1; stroke:black; " description="&lt;b&gt;ACO31276.1&lt;/b&gt;&lt;br&gt;PtmT2&lt;br&gt;Location: 12643 - 11042" locus_tag="ACO31276.1" class="clusterblast-orf" id="dummy-1_h1_4_24"  />
</g>
<g id="a1_0025"  >
<polygon points="551,90 568,90 573,85 568,80 551,80 551,90 " style="fill:white; stroke-width:1; stroke:black; " description="&lt;b&gt;ACO31275.1&lt;/b&gt;&lt;br&gt;PtmO2&lt;br&gt;Location: 11042 - 9720" locus_tag="ACO31275.1" class="clusterblast-orf" id="dummy-1_h1_4_25"  />
</g>
<g id="a1_0026"  >
<polygon points="573,90 584,90 589,85 584,80 573,80 573,90 " style="fill:white; stroke-width:1; stroke:black; " description="&lt;b&gt;ACO31274.1&lt;/b&gt;&lt;br&gt;PtmT1&lt;br&gt;Location: 9723 - 8797" locus_tag="ACO31274.1" class="clusterblast-orf" id="dummy-1_h1_4_26"  />
</g>
<g id="a1_0027"  >
<polygon points="590,90 599,90 604,85 599,80 590,80 590,90 " style="fill:white; stroke-width:1; stroke:black; " description="&lt;b&gt;ACO31273.1&lt;/b&gt;&lt;br&gt;PtmH&lt;br&gt;Location: 8732 - 7878" locus_tag="ACO31273.1" class="clusterblast-orf" id="dummy-1_h1_4_27"  />
</g>
<g id="a1_0028"  >
<polygon points="606,90 619,90 624,85 619,80 606,80 606,90 " style="fill:white; stroke-width:1; stroke:black; " description="&lt;b&gt;ACO31272.1&lt;/b&gt;&lt;br&gt;PtmU3&lt;br&gt;Location: 7796 - 6714" locus_tag="ACO31272.1" class="clusterblast-orf" id="dummy-1_h1_4_28"  />
</g>
<g id="a1_0029"  >
<polygon points="624,90 646,90 651,85 646,80 624,80 624,90 " style="fill:white; stroke-width:1; stroke:black; " description="&lt;b&gt;ACO31271.1&lt;/b&gt;&lt;br&gt;PtmM4&lt;br&gt;Location: 6685 - 5117" locus_tag="ACO31271.1" class="clusterblast-orf" id="dummy-1_h1_4_29"  />
</g>
<g id="a1_0030"  >
<polygon points="651,90 665,90 670,85 665,80 651,80 651,90 " style="fill:white; stroke-width:1; stroke:black; " description="&lt;b&gt;ACO31270.1&lt;/b&gt;&lt;br&gt;PtmD&lt;br&gt;Location: 5115 - 3958" locus_tag="ACO31270.1" class="clusterblast-orf" id="dummy-1_h1_4_30"  />
</g>
<g id="a1_0031"  >
<polygon points="670,90 672,90 677,85 672,80 670,80 670,90 " style="fill:white; stroke-width:1; stroke:black; " description="&lt;b&gt;ACO31269.1&lt;/b&gt;&lt;br&gt;PtmR2&lt;br&gt;Location: 3958 - 3557" locus_tag="ACO31269.1" class="clusterblast-orf" id="dummy-1_h1_4_31"  />
</g>
<g id="a1_0032"  >
<polygon points="678,85 683,80 690,80 690,90 683,90 678,85 " style="fill:white; stroke-width:1; stroke:black; " description="&lt;b&gt;ACO31268.1&lt;/b&gt;&lt;br&gt;PtmU2&lt;br&gt;Location: 3511 - 2801" locus_tag="ACO31268.1" class="clusterblast-orf" id="dummy-1_h1_4_32"  />
</g>
<g id="a1_0033"  >
<polygon points="690,85 695,80 712,80 712,90 695,90 690,85 " style="fill:white; stroke-width:1; stroke:black; " description="&lt;b&gt;ACO31267.1&lt;/b&gt;&lt;br&gt;PtmA1&lt;br&gt;Location: 2804 - 1500" locus_tag="ACO31267.1" class="clusterblast-orf" id="dummy-1_h1_4_33"  />
</g>
<g id="a1_0034"  >
<polygon points="713,90 718,90 723,85 718,80 713,80 713,90 " style="fill:white; stroke-width:1; stroke:black; " description="&lt;b&gt;ACO31266.1&lt;/b&gt;&lt;br&gt;PtmU1&lt;br&gt;Location: 1413 - 859" locus_tag="ACO31266.1" class="clusterblast-orf" id="dummy-1_h1_4_34"  />
</g>
<g id="a1_0035"  >
<polygon points="723,90 731,90 736,85 731,80 723,80 723,90 " style="fill:white; stroke-width:1; stroke:black; " description="&lt;b&gt;ACO31265.1&lt;/b&gt;&lt;br&gt;Ptm01&lt;br&gt;Location: 862 - 98" locus_tag="ACO31265.1" class="clusterblast-orf" id="dummy-1_h1_4_35"  />
</g>
</svg>
