<svg xmlns="http://www.w3.org/2000/svg" xmlns:xlink="http://www.w3.org/1999/xlink" version="1.1" x="0" y="0" height="230" width="800" viewBox="0 0 800 230" preserveAspectRatio="none"  >
<g label="Query sequence" class="clusterblast-cluster"  >
<text x="5" y="20" class="clusterblast-acc"  >
Query sequence</text>
<line x1="10" y1="35" x2="778.0" y2="35" style="stroke-width:1; stroke:grey; "  />
<polygon points="265,40 282,40 287,35 282,30 265,30 265,40 " style="fill:white; stroke-width:1; stroke:black; " description="&lt;b&gt;ctg19_20&lt;/b&gt;&lt;br&gt;ctg19 20&lt;br&gt;Location: 25668 - 26610" locus_tag="ctg19_20" class="clusterblast-orf" id="dummy-1_q0_0_all"  />
<polygon points="288,40 291,40 296,35 291,30 288,30 288,40 " style="fill:white; stroke-width:1; stroke:black; " description="&lt;b&gt;ctg19_21&lt;/b&gt;&lt;br&gt;ctg19 21&lt;br&gt;Location: 26677 - 26998" locus_tag="ctg19_21" class="clusterblast-orf" id="dummy-1_q1_0_all"  />
<polygon points="295,40 317,40 322,35 317,30 295,30 295,40 " style="fill:white; stroke-width:1; stroke:black; " description="&lt;b&gt;ctg19_22&lt;/b&gt;&lt;br&gt;ctg19 22&lt;br&gt;Location: 26949 - 28083" locus_tag="ctg19_22" class="clusterblast-orf" id="dummy-1_q2_0_all"  />
<polygon points="321,35 326,30 345,30 345,40 326,40 321,35 " style="fill:white; stroke-width:1; stroke:black; " description="&lt;b&gt;ctg19_23&lt;/b&gt;&lt;br&gt;ctg19 23&lt;br&gt;Location: 28070 - 29060" locus_tag="ctg19_23" class="clusterblast-orf" id="dummy-1_q3_0_all"  />
<polygon points="346,35 351,30 366,30 366,40 351,40 346,35 " style="fill:white; stroke-width:1; stroke:black; " description="&lt;b&gt;ctg19_24&lt;/b&gt;&lt;br&gt;ctg19 24&lt;br&gt;Location: 29114 - 29960" locus_tag="ctg19_24" class="clusterblast-orf" id="dummy-1_q4_0_all"  />
<polygon points="366,35 371,30 393,30 393,40 371,40 366,35 " style="fill:white; stroke-width:1; stroke:black; " description="&lt;b&gt;ctg19_25&lt;/b&gt;&lt;br&gt;ctg19 25&lt;br&gt;Location: 29956 - 31087" locus_tag="ctg19_25" class="clusterblast-orf" id="dummy-1_q5_0_all"  />
<polygon points="393,40 421,40 426,35 421,30 393,30 393,40 " style="fill:#d81515; stroke-width:1; stroke:black; " description="&lt;b&gt;ctg19_26&lt;/b&gt;&lt;br&gt;ctg19 26&lt;br&gt;Location: 31121 - 32492" locus_tag="ctg19_26" class="clusterblast-orf" id="dummy-1_q6_0_all"  />
<polygon points="426,40 432,40 437,35 432,30 426,30 426,40 " style="fill:#77d815; stroke-width:1; stroke:black; " description="&lt;b&gt;ctg19_27&lt;/b&gt;&lt;br&gt;ctg19 27&lt;br&gt;Location: 32488 - 32944" locus_tag="ctg19_27" class="clusterblast-orf" id="dummy-1_q7_0_all"  />
<polygon points="437,40 455,40 460,35 455,30 437,30 437,40 " style="fill:#15d8d8; stroke-width:1; stroke:black; " description="&lt;b&gt;ctg19_28&lt;/b&gt;&lt;br&gt;ctg19 28&lt;br&gt;Location: 32956 - 33949" locus_tag="ctg19_28" class="clusterblast-orf" id="dummy-1_q8_0_all"  />
<polygon points="461,40 510,40 515,35 510,30 461,30 461,40 " style="fill:#7715d8; stroke-width:1; stroke:black; " description="&lt;b&gt;ctg19_29&lt;/b&gt;&lt;br&gt;ctg19 29&lt;br&gt;Location: 33997 - 36259" locus_tag="ctg19_29" class="clusterblast-orf" id="dummy-1_q9_0_all"  />
</g>
<g label="BGC0000873" description="BGC0000873_c1: A201A (6% of genes show similarity), other" class="clusterblast-cluster"  >
<text x="5" y="70" class="clusterblast-acc"  >
<a xlink:href="https://mibig.secondarymetabolites.org/go/BGC0000873/1" target="_blank">BGC0000873</a>:                                                                            A201A (6% of genes show similarity), other</text>
<line x1="10" y1="85" x2="778.0" y2="85" style="stroke-width:1; stroke:grey; "  />
</g>
<g id="a1_000"  >
<polygon points="0,85 5,80 30,80 30,90 5,90 0,85 " style="fill:white; stroke-width:1; stroke:black; " description="&lt;b&gt;CAD62207.1&lt;/b&gt;&lt;br&gt;hypothetical protein&lt;br&gt;Location: 33484 - 32174" locus_tag="CAD62207.1" class="clusterblast-orf" id="dummy-1_h1_2_0"  />
</g>
<g id="a1_001"  >
<polygon points="31,90 35,90 40,85 35,80 31,80 31,90 " style="fill:white; stroke-width:1; stroke:black; " description="&lt;b&gt;CAD62206.1&lt;/b&gt;&lt;br&gt;hypothetical protein&lt;br&gt;Location: 32153 - 31776" locus_tag="CAD62206.1" class="clusterblast-orf" id="dummy-1_h1_2_1"  />
</g>
<g id="a1_002"  >
<polygon points="57,85 62,80 74,80 74,90 62,90 57,85 " style="fill:white; stroke-width:1; stroke:black; " description="&lt;b&gt;CAD62205.1&lt;/b&gt;&lt;br&gt;Ata11 protein&lt;br&gt;Location: 31035 - 30325" locus_tag="CAD62205.1" class="clusterblast-orf" id="dummy-1_h1_2_2"  />
</g>
<g id="a1_003"  >
<polygon points="74,85 79,80 109,80 109,90 79,90 74,85 " style="fill:white; stroke-width:1; stroke:black; " description="&lt;b&gt;CAD62204.1&lt;/b&gt;&lt;br&gt;Ata10 protein&lt;br&gt;Location: 30328 - 28838" locus_tag="CAD62204.1" class="clusterblast-orf" id="dummy-1_h1_2_3"  />
</g>
<g id="a1_004"  >
<polygon points="112,90 139,90 144,85 139,80 112,80 112,90 " style="fill:white; stroke-width:1; stroke:black; " description="&lt;b&gt;CAD62203.1&lt;/b&gt;&lt;br&gt;Ata9 protein&lt;br&gt;Location: 28733 - 27387" locus_tag="CAD62203.1" class="clusterblast-orf" id="dummy-1_h1_2_4"  />
</g>
<g id="a1_005"  >
<polygon points="143,85 148,80 163,80 163,90 148,90 143,85 " style="fill:white; stroke-width:1; stroke:black; " description="&lt;b&gt;CAD62202.1&lt;/b&gt;&lt;br&gt;Ata8 protein&lt;br&gt;Location: 27410 - 26580" locus_tag="CAD62202.1" class="clusterblast-orf" id="dummy-1_h1_2_5"  />
</g>
<g id="a1_006"  >
<polygon points="163,85 168,80 178,80 178,90 168,90 163,85 " style="fill:white; stroke-width:1; stroke:black; " description="&lt;b&gt;CAD62201.1&lt;/b&gt;&lt;br&gt;Ata7 protein&lt;br&gt;Location: 26579 - 25920" locus_tag="CAD62201.1" class="clusterblast-orf" id="dummy-1_h1_2_6"  />
</g>
<g id="a1_007"  >
<polygon points="178,85 183,80 203,80 203,90 183,90 178,85 " style="fill:white; stroke-width:1; stroke:black; " description="&lt;b&gt;CAD62200.1&lt;/b&gt;&lt;br&gt;Ata6 protein&lt;br&gt;Location: 25927 - 24875" locus_tag="CAD62200.1" class="clusterblast-orf" id="dummy-1_h1_2_7"  />
</g>
<g id="a1_008"  >
<polygon points="203,85 208,80 233,80 233,90 208,90 203,85 " style="fill:white; stroke-width:1; stroke:black; " description="&lt;b&gt;CAD62199.1&lt;/b&gt;&lt;br&gt;Ata5 protein&lt;br&gt;Location: 24874 - 23597" locus_tag="CAD62199.1" class="clusterblast-orf" id="dummy-1_h1_2_8"  />
</g>
<g id="a1_009"  >
<polygon points="233,85 238,80 252,80 252,90 238,90 233,85 " style="fill:white; stroke-width:1; stroke:black; " description="&lt;b&gt;CAD62198.1&lt;/b&gt;&lt;br&gt;Ata4 protein&lt;br&gt;Location: 23583 - 22813" locus_tag="CAD62198.1" class="clusterblast-orf" id="dummy-1_h1_2_9"  />
</g>
<g id="a1_0010"  >
<polygon points="252,85 257,80 265,80 265,90 257,90 252,85 " style="fill:white; stroke-width:1; stroke:black; " description="&lt;b&gt;CAD62197.1&lt;/b&gt;&lt;br&gt;Ard2 protein&lt;br&gt;Location: 22816 - 22226" locus_tag="CAD62197.1" class="clusterblast-orf" id="dummy-1_h1_2_10"  />
</g>
<g id="a1_0011"  >
<polygon points="266,85 271,80 290,80 290,90 271,90 266,85 " style="fill:white; stroke-width:1; stroke:black; " description="&lt;b&gt;CAD62196.1&lt;/b&gt;&lt;br&gt;Ata2 protein&lt;br&gt;Location: 22212 - 21181" locus_tag="CAD62196.1" class="clusterblast-orf" id="dummy-1_h1_2_11"  />
</g>
<g id="a1_0012"  >
<polygon points="290,85 295,80 297,80 297,90 295,90 290,85 " style="fill:white; stroke-width:1; stroke:black; " description="&lt;b&gt;CAD62195.1&lt;/b&gt;&lt;br&gt;Ata19 protein&lt;br&gt;Location: 21184 - 20897" locus_tag="CAD62195.1" class="clusterblast-orf" id="dummy-1_h1_2_12"  />
</g>
<g id="a1_0013"  >
<polygon points="297,85 302,80 331,80 331,90 302,90 297,85 " style="fill:white; stroke-width:1; stroke:black; " description="&lt;b&gt;CAD62194.1&lt;/b&gt;&lt;br&gt;Ata18 protein&lt;br&gt;Location: 20900 - 19440" locus_tag="CAD62194.1" class="clusterblast-orf" id="dummy-1_h1_2_13"  />
</g>
<g id="a1_0014"  >
<polygon points="331,85 336,80 350,80 350,90 336,90 331,85 " style="fill:white; stroke-width:1; stroke:black; " description="&lt;b&gt;CAD62193.1&lt;/b&gt;&lt;br&gt;AtaPKS4 protein&lt;br&gt;Location: 19453 - 18656" locus_tag="CAD62193.1" class="clusterblast-orf" id="dummy-1_h1_2_14"  />
</g>
<g id="a1_0015"  >
<polygon points="350,85 355,80 377,80 377,90 355,90 350,85 " style="fill:white; stroke-width:1; stroke:black; " description="&lt;b&gt;CAD62192.1&lt;/b&gt;&lt;br&gt;AtaPKS3 protein&lt;br&gt;Location: 18663 - 17497" locus_tag="CAD62192.1" class="clusterblast-orf" id="dummy-1_h1_2_15"  />
</g>
<g id="a1_0016"  >
<polygon points="377,85 382,80 385,80 385,90 382,90 377,85 " style="fill:white; stroke-width:1; stroke:black; " description="&lt;b&gt;CAD62191.1&lt;/b&gt;&lt;br&gt;AtaPKS2 protein&lt;br&gt;Location: 17500 - 17174" locus_tag="CAD62191.1" class="clusterblast-orf" id="dummy-1_h1_2_16"  />
</g>
<g id="a1_0017"  >
<polygon points="391,90 414,90 419,85 414,80 391,80 391,90 " style="fill:white; stroke-width:1; stroke:black; " description="&lt;b&gt;CAD62190.1&lt;/b&gt;&lt;br&gt;Ata17 protein&lt;br&gt;Location: 16897 - 15743" locus_tag="CAD62190.1" class="clusterblast-orf" id="dummy-1_h1_2_17"  />
</g>
<g id="a1_0018"  >
<polygon points="418,90 441,90 446,85 441,80 418,80 418,90 " style="fill:white; stroke-width:1; stroke:black; " description="&lt;b&gt;CAD62189.1&lt;/b&gt;&lt;br&gt;Ata16 protein&lt;br&gt;Location: 15750 - 14572" locus_tag="CAD62189.1" class="clusterblast-orf" id="dummy-1_h1_2_18"  />
</g>
<g id="a1_0019"  >
<polygon points="446,90 474,90 479,85 474,80 446,80 446,90 " style="fill:white; stroke-width:1; stroke:black; " description="&lt;b&gt;CAD62188.1&lt;/b&gt;&lt;br&gt;Ata15 protein&lt;br&gt;Location: 14575 - 13205" locus_tag="CAD62188.1" class="clusterblast-orf" id="dummy-1_h1_2_19"  />
</g>
<g id="a1_0020"  >
<polygon points="479,90 497,90 502,85 497,80 479,80 479,90 " style="fill:white; stroke-width:1; stroke:black; " description="&lt;b&gt;CAD62187.1&lt;/b&gt;&lt;br&gt;Ata14 protein&lt;br&gt;Location: 13208 - 12204" locus_tag="CAD62187.1" class="clusterblast-orf" id="dummy-1_h1_2_20"  />
</g>
<g id="a1_0021"  >
<polygon points="502,90 524,90 529,85 524,80 502,80 502,90 " style="fill:white; stroke-width:1; stroke:black; " description="&lt;b&gt;CAD62186.1&lt;/b&gt;&lt;br&gt;Ata13 protein&lt;br&gt;Location: 12207 - 11083" locus_tag="CAD62186.1" class="clusterblast-orf" id="dummy-1_h1_2_21"  />
</g>
<g id="a1_0022"  >
<polygon points="528,85 533,80 559,80 559,90 533,90 528,85 " style="fill:white; stroke-width:1; stroke:black; " description="&lt;b&gt;CAD27643.1&lt;/b&gt;&lt;br&gt;AtaPKS1 protein&lt;br&gt;Location: 11098 - 9788" locus_tag="CAD27643.1" class="clusterblast-orf" id="dummy-1_h1_2_22"  />
</g>
<g id="a1_0023"  >
<polygon points="561,90 580,90 585,85 580,80 561,80 561,90 " style="fill:white; stroke-width:1; stroke:black; " description="&lt;b&gt;CAD27644.1&lt;/b&gt;&lt;br&gt;Ata12 protein&lt;br&gt;Location: 9704 - 8682" locus_tag="CAD27644.1" class="clusterblast-orf" id="dummy-1_h1_2_23"  />
</g>
<g id="a1_0024"  >
<polygon points="586,90 593,90 598,85 593,80 586,80 586,90 " style="fill:#77d815; stroke-width:1; stroke:black; " description="&lt;b&gt;CAD27645.1&lt;/b&gt;&lt;br&gt;AtaP7 protein&lt;br&gt;Location: 8680 - 8162&lt;br&gt;&lt;br&gt;&lt;b&gt;BlastP hit with ctg19_27&lt;/b&gt;&lt;br&gt;Percentage identity: 63&lt;br&gt;Percentage coverage: 94&lt;br&gt;BLAST bit score: 183&lt;br&gt;E-value: 3.2e-46" locus_tag="CAD27645.1" class="clusterblast-orf" id="dummy-1_h1_2_24"  />
</g>
<g id="a1_0025"  >
<polygon points="598,90 618,90 623,85 618,80 598,80 598,90 " style="fill:#15d8d8; stroke-width:1; stroke:black; " description="&lt;b&gt;CAD27646.1&lt;/b&gt;&lt;br&gt;AtaP10 protein&lt;br&gt;Location: 8165 - 7080&lt;br&gt;&lt;br&gt;&lt;b&gt;BlastP hit with ctg19_28&lt;/b&gt;&lt;br&gt;Percentage identity: 57&lt;br&gt;Percentage coverage: 95&lt;br&gt;BLAST bit score: 350&lt;br&gt;E-value: 2.5e-96" locus_tag="CAD27646.1" class="clusterblast-orf" id="dummy-1_h1_2_25"  />
</g>
<g id="a1_0026"  >
<polygon points="623,90 649,90 654,85 649,80 623,80 623,90 " style="fill:white; stroke-width:1; stroke:black; " description="&lt;b&gt;CAD27647.1&lt;/b&gt;&lt;br&gt;AtaP4 protein&lt;br&gt;Location: 7083 - 5800" locus_tag="CAD27647.1" class="clusterblast-orf" id="dummy-1_h1_2_26"  />
</g>
<g id="a1_0027"  >
<polygon points="654,90 665,90 670,85 665,80 654,80 654,90 " style="fill:white; stroke-width:1; stroke:black; " description="&lt;b&gt;CAD27648.1&lt;/b&gt;&lt;br&gt;AtaP5 protein&lt;br&gt;Location: 5780 - 5094" locus_tag="CAD27648.1" class="clusterblast-orf" id="dummy-1_h1_2_27"  />
</g>
<g id="a1_0028"  >
<polygon points="670,90 684,90 689,85 684,80 670,80 670,90 " style="fill:white; stroke-width:1; stroke:black; " description="&lt;b&gt;CAD27649.1&lt;/b&gt;&lt;br&gt;AtaP3 protein&lt;br&gt;Location: 5097 - 4291" locus_tag="CAD27649.1" class="clusterblast-orf" id="dummy-1_h1_2_28"  />
</g>
<g id="a1_0029"  >
<polygon points="692,90 727,90 732,85 727,80 692,80 692,90 " style="fill:white; stroke-width:1; stroke:black; " description="&lt;b&gt;CAA59109.1&lt;/b&gt;&lt;br&gt;Ard1 protein&lt;br&gt;Location: 4170 - 2494" locus_tag="CAA59109.1" class="clusterblast-orf" id="dummy-1_h1_2_29"  />
</g>
<g id="a1_0030"  >
<polygon points="749,90 765,90 770,85 765,80 749,80 749,90 " style="fill:white; stroke-width:1; stroke:black; " description="&lt;b&gt;CAD27650.1&lt;/b&gt;&lt;br&gt;dsgA protein&lt;br&gt;Location: 1774 - 890" locus_tag="CAD27650.1" class="clusterblast-orf" id="dummy-1_h1_2_30"  />
</g>
<g id="a1_0031"  >
<polygon points="772,90 775,90 780,85 775,80 772,80 772,90 " style="fill:white; stroke-width:1; stroke:black; " description="&lt;b&gt;CAD27651.1&lt;/b&gt;&lt;br&gt;putative thioredoxin&lt;br&gt;Location: 796 - 470" locus_tag="CAD27651.1" class="clusterblast-orf" id="dummy-1_h1_2_31"  />
</g>
</svg>
