<svg xmlns="http://www.w3.org/2000/svg" xmlns:xlink="http://www.w3.org/1999/xlink" version="1.1" x="0" y="0" height="230" width="800" viewBox="0 0 800 230" preserveAspectRatio="none"  >
<g label="Query sequence" class="clusterblast-cluster"  >
<text x="5" y="20" class="clusterblast-acc"  >
Query sequence</text>
<line x1="10" y1="35" x2="778.0" y2="35" style="stroke-width:1; stroke:grey; "  />
<polygon points="158,40 160,35 158,30 158,40 " style="fill:white; stroke-width:1; stroke:black; " description="&lt;b&gt;ctg63_1&lt;/b&gt;&lt;br&gt;ctg63 1&lt;br&gt;Location: 0 - 69" locus_tag="ctg63_1" class="clusterblast-orf" id="dummy-1_q0_0_all"  />
<polygon points="160,40 181,40 186,35 181,30 160,30 160,40 " style="fill:#d81515; stroke-width:1; stroke:black; " description="&lt;b&gt;ctg63_2&lt;/b&gt;&lt;br&gt;ctg63 2&lt;br&gt;Location: 76 - 1276" locus_tag="ctg63_2" class="clusterblast-orf" id="dummy-1_q1_0_all"  />
<polygon points="192,40 218,40 223,35 218,30 192,30 192,40 " style="fill:white; stroke-width:1; stroke:black; " description="&lt;b&gt;ctg63_3&lt;/b&gt;&lt;br&gt;ctg63 3&lt;br&gt;Location: 1576 - 3019" locus_tag="ctg63_3" class="clusterblast-orf" id="dummy-1_q2_0_all"  />
<polygon points="223,40 231,40 236,35 231,30 223,30 223,40 " style="fill:white; stroke-width:1; stroke:black; " description="&lt;b&gt;ctg63_4&lt;/b&gt;&lt;br&gt;ctg63 4&lt;br&gt;Location: 3003 - 3627" locus_tag="ctg63_4" class="clusterblast-orf" id="dummy-1_q3_0_all"  />
<polygon points="243,35 248,30 249,30 249,40 248,40 243,35 " style="fill:white; stroke-width:1; stroke:black; " description="&lt;b&gt;ctg63_5&lt;/b&gt;&lt;br&gt;ctg63 5&lt;br&gt;Location: 3930 - 4236" locus_tag="ctg63_5" class="clusterblast-orf" id="dummy-1_q4_0_all"  />
<polygon points="254,40 255,40 260,35 255,30 254,30 254,40 " style="fill:white; stroke-width:1; stroke:black; " description="&lt;b&gt;ctg63_6&lt;/b&gt;&lt;br&gt;ctg63 6&lt;br&gt;Location: 4460 - 4730" locus_tag="ctg63_6" class="clusterblast-orf" id="dummy-1_q5_0_all"  />
<polygon points="270,40 279,40 284,35 279,30 270,30 270,40 " style="fill:white; stroke-width:1; stroke:black; " description="&lt;b&gt;ctg63_7&lt;/b&gt;&lt;br&gt;ctg63 7&lt;br&gt;Location: 5188 - 5872" locus_tag="ctg63_7" class="clusterblast-orf" id="dummy-1_q6_0_all"  />
<polygon points="289,35 294,30 312,30 312,40 294,40 289,35 " style="fill:#77d815; stroke-width:1; stroke:black; " description="&lt;b&gt;ctg63_8&lt;/b&gt;&lt;br&gt;ctg63 8&lt;br&gt;Location: 6097 - 7162" locus_tag="ctg63_8" class="clusterblast-orf" id="dummy-1_q7_0_all"  />
<polygon points="312,35 317,30 350,30 350,40 317,40 312,35 " style="fill:#15d8d8; stroke-width:1; stroke:black; " description="&lt;b&gt;ctg63_9&lt;/b&gt;&lt;br&gt;ctg63 9&lt;br&gt;Location: 7161 - 8943" locus_tag="ctg63_9" class="clusterblast-orf" id="dummy-1_q8_0_all"  />
<polygon points="351,35 356,30 557,30 557,40 356,40 351,35 " style="fill:#7715d8; stroke-width:1; stroke:black; " description="&lt;b&gt;ctg63_10&lt;/b&gt;&lt;br&gt;ctg63 10&lt;br&gt;Location: 8984 - 18578" locus_tag="ctg63_10" class="clusterblast-orf" id="dummy-1_q9_0_all"  />
<polygon points="560,35 565,30 574,30 574,40 565,40 560,35 " style="fill:#d8a715; stroke-width:1; stroke:black; " description="&lt;b&gt;ctg63_11&lt;/b&gt;&lt;br&gt;ctg63 11&lt;br&gt;Location: 18757 - 19402" locus_tag="ctg63_11" class="clusterblast-orf" id="dummy-1_q10_0_all"  />
<polygon points="574,35 579,30 584,30 584,40 579,40 574,35 " style="fill:#15d846; stroke-width:1; stroke:black; " description="&lt;b&gt;ctg63_12&lt;/b&gt;&lt;br&gt;ctg63 12&lt;br&gt;Location: 19404 - 19860" locus_tag="ctg63_12" class="clusterblast-orf" id="dummy-1_q11_0_all"  />
<polygon points="584,40 596,40 601,35 596,30 584,30 584,40 " style="fill:#1546d8; stroke-width:1; stroke:black; " description="&lt;b&gt;ctg63_13&lt;/b&gt;&lt;br&gt;ctg63 13&lt;br&gt;Location: 19877 - 20636" locus_tag="ctg63_13" class="clusterblast-orf" id="dummy-1_q12_0_all"  />
<polygon points="602,40 614,40 619,35 614,30 602,30 602,40 " style="fill:#d815a7; stroke-width:1; stroke:black; " description="&lt;b&gt;ctg63_14&lt;/b&gt;&lt;br&gt;ctg63 14&lt;br&gt;Location: 20707 - 21499" locus_tag="ctg63_14" class="clusterblast-orf" id="dummy-1_q13_0_all"  />
<polygon points="620,35 621,30 621,40 620,35 " style="fill:white; stroke-width:1; stroke:black; " description="&lt;b&gt;ctg63_15&lt;/b&gt;&lt;br&gt;ctg63 15&lt;br&gt;Location: 21517 - 21586" locus_tag="ctg63_15" class="clusterblast-orf" id="dummy-1_q14_0_all"  />
</g>
<g label="BGC0001435" description="BGC0001435_c1: Ikarugamycin (32% of genes show similarity), nrps-t1pks" class="clusterblast-cluster"  >
<text x="5" y="70" class="clusterblast-acc"  >
<a xlink:href="https://mibig.secondarymetabolites.org/go/BGC0001435/1" target="_blank">BGC0001435</a>:                                                                     Ikarugamycin (32% of genes show similarity), nrps-t1pks</text>
<line x1="10" y1="85" x2="778.0" y2="85" style="stroke-width:1; stroke:grey; "  />
</g>
<g id="a1_000"  >
<polygon points="0,85 5,80 18,80 18,90 5,90 0,85 " style="fill:white; stroke-width:1; stroke:black; " description="&lt;b&gt;AJD77043.1&lt;/b&gt;&lt;br&gt;hypothetical protein&lt;br&gt;Location: 36599 - 35748" locus_tag="AJD77043.1" class="clusterblast-orf" id="dummy-1_h1_1_0"  />
</g>
<g id="a1_001"  >
<polygon points="19,85 24,80 38,80 38,90 24,90 19,85 " style="fill:white; stroke-width:1; stroke:black; " description="&lt;b&gt;AJD77042.1&lt;/b&gt;&lt;br&gt;hypothetical protein&lt;br&gt;Location: 35674 - 34802" locus_tag="AJD77042.1" class="clusterblast-orf" id="dummy-1_h1_1_1"  />
</g>
<g id="a1_002"  >
<polygon points="38,85 43,80 50,80 50,90 43,90 38,85 " style="fill:white; stroke-width:1; stroke:black; " description="&lt;b&gt;AJD77041.1&lt;/b&gt;&lt;br&gt;RNA polymerase, sigma-24 subunit&lt;br&gt;Location: 34805 - 34251" locus_tag="AJD77041.1" class="clusterblast-orf" id="dummy-1_h1_1_2"  />
</g>
<g id="a1_003"  >
<polygon points="50,85 55,80 73,80 73,90 55,90 50,85 " style="fill:white; stroke-width:1; stroke:black; " description="&lt;b&gt;AJD77040.1&lt;/b&gt;&lt;br&gt;NAD-dependent epimerase/dehydratase&lt;br&gt;Location: 34250 - 33153" locus_tag="AJD77040.1" class="clusterblast-orf" id="dummy-1_h1_1_3"  />
</g>
<g id="a1_004"  >
<polygon points="76,90 82,90 87,85 82,80 76,80 76,90 " style="fill:white; stroke-width:1; stroke:black; " description="&lt;b&gt;AJD77039.1&lt;/b&gt;&lt;br&gt;membrane protein&lt;br&gt;Location: 33048 - 32494" locus_tag="AJD77039.1" class="clusterblast-orf" id="dummy-1_h1_1_4"  />
</g>
<g id="a1_005"  >
<polygon points="90,90 104,90 109,85 104,80 90,80 90,90 " style="fill:white; stroke-width:1; stroke:black; " description="&lt;b&gt;AJD77038.1&lt;/b&gt;&lt;br&gt;helix-turn-helix domain-containing protein&lt;br&gt;Location: 32369 - 31491" locus_tag="AJD77038.1" class="clusterblast-orf" id="dummy-1_h1_1_5"  />
</g>
<g id="a1_006"  >
<polygon points="109,85 114,80 163,80 163,90 114,90 109,85 " style="fill:white; stroke-width:1; stroke:black; " description="&lt;b&gt;AJD77037.1&lt;/b&gt;&lt;br&gt;phosphoketolase&lt;br&gt;Location: 31478 - 28974" locus_tag="AJD77037.1" class="clusterblast-orf" id="dummy-1_h1_1_6"  />
</g>
<g id="a1_007"  >
<polygon points="163,90 201,90 206,85 201,80 163,80 163,90 " style="fill:white; stroke-width:1; stroke:black; " description="&lt;b&gt;AJD77036.1&lt;/b&gt;&lt;br&gt;putative alpha-glucosidase&lt;br&gt;Location: 28987 - 26969" locus_tag="AJD77036.1" class="clusterblast-orf" id="dummy-1_h1_1_7"  />
</g>
<g id="a1_008"  >
<polygon points="207,90 232,90 237,85 232,80 207,80 207,90 " style="fill:#d81515; stroke-width:1; stroke:black; " description="&lt;b&gt;AJD77035.1&lt;/b&gt;&lt;br&gt;cytochrome P450&lt;br&gt;Location: 26912 - 25512&lt;br&gt;&lt;br&gt;&lt;b&gt;BlastP hit with ctg63_2&lt;/b&gt;&lt;br&gt;Percentage identity: 90&lt;br&gt;Percentage coverage: 102&lt;br&gt;BLAST bit score: 743&lt;br&gt;E-value: 1.2e-214" locus_tag="AJD77035.1" class="clusterblast-orf" id="dummy-1_h1_1_8"  />
</g>
<g id="a1_009"  >
<polygon points="239,85 244,80 249,80 249,90 244,90 239,85 " style="fill:white; stroke-width:1; stroke:black; " description="&lt;b&gt;AJD77034.1&lt;/b&gt;&lt;br&gt;putative acetyltransferase&lt;br&gt;Location: 25427 - 24945" locus_tag="AJD77034.1" class="clusterblast-orf" id="dummy-1_h1_1_9"  />
</g>
<g id="a1_0010"  >
<polygon points="262,85 267,80 275,80 275,90 267,90 262,85 " style="fill:white; stroke-width:1; stroke:black; " description="&lt;b&gt;AJD77033.1&lt;/b&gt;&lt;br&gt;putative membrane transport protein&lt;br&gt;Location: 24341 - 23766" locus_tag="AJD77033.1" class="clusterblast-orf" id="dummy-1_h1_1_10"  />
</g>
<g id="a1_0011"  >
<polygon points="277,85 282,80 293,80 293,90 282,90 277,85 " style="fill:white; stroke-width:1; stroke:black; " description="&lt;b&gt;AJD77032.1&lt;/b&gt;&lt;br&gt;hypothetical protein&lt;br&gt;Location: 23628 - 22885" locus_tag="AJD77032.1" class="clusterblast-orf" id="dummy-1_h1_1_11"  />
</g>
<g id="a1_0012"  >
<polygon points="297,85 302,80 326,80 326,90 302,90 297,85 " style="fill:white; stroke-width:1; stroke:black; " description="&lt;b&gt;AJD77031.1&lt;/b&gt;&lt;br&gt;hypothetical protein&lt;br&gt;Location: 22717 - 21353" locus_tag="AJD77031.1" class="clusterblast-orf" id="dummy-1_h1_1_12"  />
</g>
<g id="a1_0013"  >
<polygon points="330,90 334,90 339,85 334,80 330,80 330,90 " style="fill:white; stroke-width:1; stroke:black; " description="&lt;b&gt;AJD77030.1&lt;/b&gt;&lt;br&gt;ABC transporter&lt;br&gt;Location: 21157 - 20762" locus_tag="AJD77030.1" class="clusterblast-orf" id="dummy-1_h1_1_13"  />
</g>
<g id="a1_0014"  >
<polygon points="342,85 347,80 370,80 370,90 347,90 342,85 " style="fill:white; stroke-width:1; stroke:black; " description="&lt;b&gt;AJD77029.1&lt;/b&gt;&lt;br&gt;transcriptional regulator&lt;br&gt;Location: 20634 - 19327" locus_tag="AJD77029.1" class="clusterblast-orf" id="dummy-1_h1_1_14"  />
</g>
<g id="a1_0015"  >
<polygon points="379,90 412,90 417,85 412,80 379,80 379,90 " style="fill:white; stroke-width:1; stroke:black; " description="&lt;b&gt;AJD77028.1&lt;/b&gt;&lt;br&gt;asparagine synthase&lt;br&gt;Location: 18908 - 17100" locus_tag="AJD77028.1" class="clusterblast-orf" id="dummy-1_h1_1_15"  />
</g>
<g id="a1_0016"  >
<polygon points="417,90 428,90 433,85 428,80 417,80 417,90 " style="fill:white; stroke-width:1; stroke:black; " description="&lt;b&gt;AJD77027.1&lt;/b&gt;&lt;br&gt;hypothetical protein&lt;br&gt;Location: 17107 - 16379" locus_tag="AJD77027.1" class="clusterblast-orf" id="dummy-1_h1_1_16"  />
</g>
<g id="a1_0017"  >
<polygon points="435,90 440,90 445,85 440,80 435,80 435,90 " style="fill:white; stroke-width:1; stroke:black; " description="&lt;b&gt;AJD77026.1&lt;/b&gt;&lt;br&gt;GCN5-related N-acetyltransferase&lt;br&gt;Location: 16281 - 15811" locus_tag="AJD77026.1" class="clusterblast-orf" id="dummy-1_h1_1_17"  />
</g>
<g id="a1_0018"  >
<polygon points="448,85 453,80 471,80 471,90 453,90 448,85 " style="fill:#77d815; stroke-width:1; stroke:black; " description="&lt;b&gt;AJD77025.1&lt;/b&gt;&lt;br&gt;IkaC&lt;br&gt;Location: 15678 - 14614&lt;br&gt;&lt;br&gt;&lt;b&gt;BlastP hit with ctg63_8&lt;/b&gt;&lt;br&gt;Percentage identity: 89&lt;br&gt;Percentage coverage: 100&lt;br&gt;BLAST bit score: 644&lt;br&gt;E-value: 1.2e-184" locus_tag="AJD77025.1" class="clusterblast-orf" id="dummy-1_h1_1_18"  />
</g>
<g id="a1_0019"  >
<polygon points="471,85 476,80 510,80 510,90 476,90 471,85 " style="fill:#15d8d8; stroke-width:1; stroke:black; " description="&lt;b&gt;AJD77024.1&lt;/b&gt;&lt;br&gt;IkaB&lt;br&gt;Location: 14614 - 12782&lt;br&gt;&lt;br&gt;&lt;b&gt;BlastP hit with ctg63_9&lt;/b&gt;&lt;br&gt;Percentage identity: 92&lt;br&gt;Percentage coverage: 100&lt;br&gt;BLAST bit score: 1125&lt;br&gt;E-value: 0.0" locus_tag="AJD77024.1" class="clusterblast-orf" id="dummy-1_h1_1_19"  />
</g>
<g id="a1_0020"  >
<polygon points="510,85 515,80 711,80 711,90 515,90 510,85 " style="fill:#7715d8; stroke-width:1; stroke:black; " description="&lt;b&gt;AJD77023.1&lt;/b&gt;&lt;br&gt;IkaA&lt;br&gt;Location: 12785 - 3411&lt;br&gt;&lt;br&gt;&lt;b&gt;BlastP hit with ctg63_10&lt;/b&gt;&lt;br&gt;Percentage identity: 87&lt;br&gt;Percentage coverage: 98&lt;br&gt;BLAST bit score: 5394&lt;br&gt;E-value: 0.0" locus_tag="AJD77023.1" class="clusterblast-orf" id="dummy-1_h1_1_20"  />
</g>
<g id="a1_0021"  >
<polygon points="719,85 724,80 731,80 731,90 724,90 719,85 " style="fill:#d8a715; stroke-width:1; stroke:black; " description="&lt;b&gt;AJD77022.1&lt;/b&gt;&lt;br&gt;hypothetical protein&lt;br&gt;Location: 3036 - 2455&lt;br&gt;&lt;br&gt;&lt;b&gt;BlastP hit with ctg63_11&lt;/b&gt;&lt;br&gt;Percentage identity: 72&lt;br&gt;Percentage coverage: 90&lt;br&gt;BLAST bit score: 261&lt;br&gt;E-value: 1.3e-69" locus_tag="AJD77022.1" class="clusterblast-orf" id="dummy-1_h1_1_21"  />
</g>
<g id="a1_0022"  >
<polygon points="733,85 738,80 740,80 740,90 738,90 733,85 " style="fill:#15d846; stroke-width:1; stroke:black; " description="&lt;b&gt;AJD77021.1&lt;/b&gt;&lt;br&gt;hypothetical protein&lt;br&gt;Location: 2394 - 2023&lt;br&gt;&lt;br&gt;&lt;b&gt;BlastP hit with ctg63_12&lt;/b&gt;&lt;br&gt;Percentage identity: 59&lt;br&gt;Percentage coverage: 84&lt;br&gt;BLAST bit score: 109&lt;br&gt;E-value: 4.4e-24" locus_tag="AJD77021.1" class="clusterblast-orf" id="dummy-1_h1_1_22"  />
</g>
<g id="a1_0023"  >
<polygon points="744,90 755,90 760,85 755,80 744,80 744,90 " style="fill:#1546d8; stroke-width:1; stroke:black; " description="&lt;b&gt;AJD77020.1&lt;/b&gt;&lt;br&gt;deacetylase&lt;br&gt;Location: 1860 - 1105&lt;br&gt;&lt;br&gt;&lt;b&gt;BlastP hit with ctg63_13&lt;/b&gt;&lt;br&gt;Percentage identity: 92&lt;br&gt;Percentage coverage: 98&lt;br&gt;BLAST bit score: 454&lt;br&gt;E-value: 9.4e-128" locus_tag="AJD77020.1" class="clusterblast-orf" id="dummy-1_h1_1_23"  />
</g>
<g id="a1_0024"  >
<polygon points="762,90 775,90 780,85 775,80 762,80 762,90 " style="fill:#d815a7; stroke-width:1; stroke:black; " description="&lt;b&gt;AJD77019.1&lt;/b&gt;&lt;br&gt;hydroxylase&lt;br&gt;Location: 1010 - 201&lt;br&gt;&lt;br&gt;&lt;b&gt;BlastP hit with ctg63_14&lt;/b&gt;&lt;br&gt;Percentage identity: 80&lt;br&gt;Percentage coverage: 100&lt;br&gt;BLAST bit score: 440&lt;br&gt;E-value: 1.9e-123" locus_tag="AJD77019.1" class="clusterblast-orf" id="dummy-1_h1_1_24"  />
</g>
</svg>
