<svg xmlns="http://www.w3.org/2000/svg" xmlns:xlink="http://www.w3.org/1999/xlink" version="1.1" x="0" y="0" height="230" width="800" viewBox="0 0 800 230" preserveAspectRatio="none"  >
<g label="Query sequence" class="clusterblast-cluster"  >
<text x="5" y="20" class="clusterblast-acc"  >
Query sequence</text>
<line x1="10" y1="35" x2="778.0" y2="35" style="stroke-width:1; stroke:grey; "  />
<polygon points="0,35 5,30 34,30 34,40 5,40 0,35 " style="fill:white; stroke-width:1; stroke:black; " description="&lt;b&gt;ctg95_1&lt;/b&gt;&lt;br&gt;ctg95 1&lt;br&gt;Location: 202 - 970" locus_tag="ctg95_1" class="clusterblast-orf" id="dummy-1_q0_0_all"  />
<polygon points="41,40 100,40 105,35 100,30 41,30 41,40 " style="fill:white; stroke-width:1; stroke:black; " description="&lt;b&gt;ctg95_2&lt;/b&gt;&lt;br&gt;ctg95 2&lt;br&gt;Location: 1127 - 2561" locus_tag="ctg95_2" class="clusterblast-orf" id="dummy-1_q1_0_all"  />
<polygon points="107,40 152,40 157,35 152,30 107,30 107,40 " style="fill:white; stroke-width:1; stroke:black; " description="&lt;b&gt;ctg95_3&lt;/b&gt;&lt;br&gt;ctg95 3&lt;br&gt;Location: 2612 - 3731" locus_tag="ctg95_3" class="clusterblast-orf" id="dummy-1_q2_0_all"  />
<polygon points="162,40 183,40 188,35 183,30 162,30 162,40 " style="fill:white; stroke-width:1; stroke:black; " description="&lt;b&gt;ctg95_4&lt;/b&gt;&lt;br&gt;ctg95 4&lt;br&gt;Location: 3847 - 4414" locus_tag="ctg95_4" class="clusterblast-orf" id="dummy-1_q3_0_all"  />
<polygon points="188,35 193,30 226,30 226,40 193,40 188,35 " style="fill:#d81515; stroke-width:1; stroke:black; " description="&lt;b&gt;ctg95_5&lt;/b&gt;&lt;br&gt;ctg95 5&lt;br&gt;Location: 4429 - 5278" locus_tag="ctg95_5" class="clusterblast-orf" id="dummy-1_q4_0_all"  />
<polygon points="226,35 231,30 338,30 338,40 231,40 226,35 " style="fill:#77d815; stroke-width:1; stroke:black; " description="&lt;b&gt;ctg95_6&lt;/b&gt;&lt;br&gt;ctg95 6&lt;br&gt;Location: 5278 - 7786" locus_tag="ctg95_6" class="clusterblast-orf" id="dummy-1_q5_0_all"  />
<polygon points="344,35 349,30 383,30 383,40 349,40 344,35 " style="fill:white; stroke-width:1; stroke:black; " description="&lt;b&gt;ctg95_7&lt;/b&gt;&lt;br&gt;ctg95 7&lt;br&gt;Location: 7916 - 8792" locus_tag="ctg95_7" class="clusterblast-orf" id="dummy-1_q6_0_all"  />
<polygon points="383,35 388,30 465,30 465,40 388,40 383,35 " style="fill:white; stroke-width:1; stroke:black; " description="&lt;b&gt;ctg95_8&lt;/b&gt;&lt;br&gt;ctg95 8&lt;br&gt;Location: 8788 - 10627" locus_tag="ctg95_8" class="clusterblast-orf" id="dummy-1_q7_0_all"  />
<polygon points="465,35 470,30 510,30 510,40 470,40 465,35 " style="fill:white; stroke-width:1; stroke:black; " description="&lt;b&gt;ctg95_9&lt;/b&gt;&lt;br&gt;ctg95 9&lt;br&gt;Location: 10643 - 11633" locus_tag="ctg95_9" class="clusterblast-orf" id="dummy-1_q8_0_all"  />
<polygon points="511,35 516,30 587,30 587,40 516,40 511,35 " style="fill:white; stroke-width:1; stroke:black; " description="&lt;b&gt;ctg95_10&lt;/b&gt;&lt;br&gt;ctg95 10&lt;br&gt;Location: 11664 - 13362" locus_tag="ctg95_10" class="clusterblast-orf" id="dummy-1_q9_0_all"  />
<polygon points="594,40 646,40 651,35 646,30 594,30 594,40 " style="fill:white; stroke-width:1; stroke:black; " description="&lt;b&gt;ctg95_11&lt;/b&gt;&lt;br&gt;ctg95 11&lt;br&gt;Location: 13533 - 14811" locus_tag="ctg95_11" class="clusterblast-orf" id="dummy-1_q10_0_all"  />
<polygon points="662,40 711,40 716,35 711,30 662,30 662,40 " style="fill:#15d8d8; stroke-width:1; stroke:black; " description="&lt;b&gt;ctg95_12&lt;/b&gt;&lt;br&gt;ctg95 12&lt;br&gt;Location: 15050 - 16256" locus_tag="ctg95_12" class="clusterblast-orf" id="dummy-1_q11_0_all"  />
<polygon points="719,40 764,40 769,35 764,30 719,30 719,40 " style="fill:#7715d8; stroke-width:1; stroke:black; " description="&lt;b&gt;ctg95_13&lt;/b&gt;&lt;br&gt;ctg95 13&lt;br&gt;Location: 16336 - 17458" locus_tag="ctg95_13" class="clusterblast-orf" id="dummy-1_q12_0_all"  />
<polygon points="773,35 778,30 780,30 780,40 778,40 773,35 " style="fill:white; stroke-width:1; stroke:black; " description="&lt;b&gt;ctg95_14&lt;/b&gt;&lt;br&gt;ctg95 14&lt;br&gt;Location: 17536 - 17698" locus_tag="ctg95_14" class="clusterblast-orf" id="dummy-1_q13_0_all"  />
</g>
<g label="BGC0000285" description="BGC0000285_c1: Red pigment (22% of genes show similarity), t3pks-saccharide" class="clusterblast-cluster"  >
<text x="5" y="70" class="clusterblast-acc"  >
<a xlink:href="https://mibig.secondarymetabolites.org/go/BGC0000285/1" target="_blank">BGC0000285</a>:                                                                      Red pigment (22% of genes show similarity), t3pks-saccharide</text>
<line x1="10" y1="85" x2="778.0" y2="85" style="stroke-width:1; stroke:grey; "  />
</g>
<g id="a1_000"  >
<polygon points="144,90 147,90 152,85 147,80 144,80 144,90 " style="fill:white; stroke-width:1; stroke:black; " description="&lt;b&gt;AAL78049.1&lt;/b&gt;&lt;br&gt;ORFA&lt;br&gt;Location: 1 - 179" locus_tag="AAL78049.1" class="clusterblast-orf" id="dummy-1_h1_4_0"  />
</g>
<g id="a1_001"  >
<polygon points="152,90 202,90 207,85 202,80 152,80 152,90 " style="fill:white; stroke-width:1; stroke:black; " description="&lt;b&gt;AAL78050.1&lt;/b&gt;&lt;br&gt;ORFB&lt;br&gt;Location: 176 - 1405" locus_tag="AAL78050.1" class="clusterblast-orf" id="dummy-1_h1_4_1"  />
</g>
<g id="a1_002"  >
<polygon points="211,85 216,80 234,80 234,90 216,90 211,85 " style="fill:white; stroke-width:1; stroke:black; " description="&lt;b&gt;AAL78051.1&lt;/b&gt;&lt;br&gt;ORFC&lt;br&gt;Location: 1497 - 2021" locus_tag="AAL78051.1" class="clusterblast-orf" id="dummy-1_h1_4_2"  />
</g>
<g id="a1_003"  >
<polygon points="237,90 262,90 267,85 262,80 237,80 237,90 " style="fill:white; stroke-width:1; stroke:black; " description="&lt;b&gt;AAL78052.1&lt;/b&gt;&lt;br&gt;ORFD&lt;br&gt;Location: 2089 - 2757" locus_tag="AAL78052.1" class="clusterblast-orf" id="dummy-1_h1_4_3"  />
</g>
<g id="a1_004"  >
<polygon points="283,90 327,90 332,85 327,80 283,80 283,90 " style="fill:#7715d8; stroke-width:1; stroke:black; " description="&lt;b&gt;AAL78053.1&lt;/b&gt;&lt;br&gt;RppA&lt;br&gt;Location: 3111 - 4214&lt;br&gt;&lt;br&gt;&lt;b&gt;BlastP hit with ctg95_13&lt;/b&gt;&lt;br&gt;Percentage identity: 72&lt;br&gt;Percentage coverage: 98&lt;br&gt;BLAST bit score: 547&lt;br&gt;E-value: 1.6e-155" locus_tag="AAL78053.1" class="clusterblast-orf" id="dummy-1_h1_4_4"  />
</g>
<g id="a1_005"  >
<polygon points="332,90 381,90 386,85 381,80 332,80 332,90 " style="fill:#15d8d8; stroke-width:1; stroke:black; " description="&lt;b&gt;AAL78054.1&lt;/b&gt;&lt;br&gt;RppB&lt;br&gt;Location: 4211 - 5416&lt;br&gt;&lt;br&gt;&lt;b&gt;BlastP hit with ctg95_12&lt;/b&gt;&lt;br&gt;Percentage identity: 46&lt;br&gt;Percentage coverage: 97&lt;br&gt;BLAST bit score: 347&lt;br&gt;E-value: 2.6e-95" locus_tag="AAL78054.1" class="clusterblast-orf" id="dummy-1_h1_4_5"  />
</g>
<g id="a1_006"  >
<polygon points="387,90 406,90 411,85 406,80 387,80 387,90 " style="fill:white; stroke-width:1; stroke:black; " description="&lt;b&gt;AAL78055.1&lt;/b&gt;&lt;br&gt;ORF3&lt;br&gt;Location: 5452 - 5991" locus_tag="AAL78055.1" class="clusterblast-orf" id="dummy-1_h1_4_6"  />
</g>
<g id="a1_007"  >
<polygon points="442,90 465,90 470,85 465,80 442,80 442,90 " style="fill:white; stroke-width:1; stroke:black; " description="&lt;b&gt;AAL78056.1&lt;/b&gt;&lt;br&gt;ORFE&lt;br&gt;Location: 6672 - 7298" locus_tag="AAL78056.1" class="clusterblast-orf" id="dummy-1_h1_4_7"  />
</g>
<g id="a1_008"  >
<polygon points="508,85 513,80 635,80 635,90 513,90 508,85 " style="fill:white; stroke-width:1; stroke:black; " description="&lt;b&gt;AAL78057.1&lt;/b&gt;&lt;br&gt;ORFF&lt;br&gt;Location: 8156 - 11002" locus_tag="AAL78057.1" class="clusterblast-orf" id="dummy-1_h1_4_8"  />
</g>
</svg>
