<svg xmlns="http://www.w3.org/2000/svg" xmlns:xlink="http://www.w3.org/1999/xlink" version="1.1" x="0" y="0" height="230" width="800" viewBox="0 0 800 230" preserveAspectRatio="none"  >
<g label="Query sequence" class="clusterblast-cluster"  >
<text x="5" y="20" class="clusterblast-acc"  >
Query sequence</text>
<line x1="10" y1="35" x2="778.0" y2="35" style="stroke-width:1; stroke:grey; "  />
<polygon points="323,40 373,40 378,35 373,30 323,30 323,40 " style="fill:#d81515; stroke-width:1; stroke:black; " description="&lt;b&gt;ctg147_1&lt;/b&gt;&lt;br&gt;ctg147 1&lt;br&gt;Location: 2 - 5192" locus_tag="ctg147_1" class="clusterblast-orf" id="dummy-1_q0_0_all"  />
<polygon points="379,40 383,40 388,35 383,30 379,30 379,40 " style="fill:#15d815; stroke-width:1; stroke:black; " description="&lt;b&gt;ctg147_2&lt;/b&gt;&lt;br&gt;ctg147 2&lt;br&gt;Location: 5287 - 6163" locus_tag="ctg147_2" class="clusterblast-orf" id="dummy-1_q1_0_all"  />
<polygon points="388,40 392,40 397,35 392,30 388,30 388,40 " style="fill:#1515d8; stroke-width:1; stroke:black; " description="&lt;b&gt;ctg147_3&lt;/b&gt;&lt;br&gt;ctg147 3&lt;br&gt;Location: 6162 - 6969" locus_tag="ctg147_3" class="clusterblast-orf" id="dummy-1_q2_0_all"  />
<polygon points="398,35 403,30 413,30 413,40 403,40 398,35 " style="fill:white; stroke-width:1; stroke:black; " description="&lt;b&gt;ctg147_4&lt;/b&gt;&lt;br&gt;ctg147 4&lt;br&gt;Location: 7041 - 8427" locus_tag="ctg147_4" class="clusterblast-orf" id="dummy-1_q3_0_all"  />
<polygon points="418,35 423,30 430,30 430,40 423,40 418,35 " style="fill:#d815d8; stroke-width:1; stroke:black; " description="&lt;b&gt;ctg147_5&lt;/b&gt;&lt;br&gt;ctg147 5&lt;br&gt;Location: 8908 - 10027" locus_tag="ctg147_5" class="clusterblast-orf" id="dummy-1_q4_0_all"  />
<polygon points="431,35 436,30 447,30 447,40 436,40 431,35 " style="fill:#d8d815; stroke-width:1; stroke:black; " description="&lt;b&gt;ctg147_6&lt;/b&gt;&lt;br&gt;ctg147 6&lt;br&gt;Location: 10127 - 11711" locus_tag="ctg147_6" class="clusterblast-orf" id="dummy-1_q5_0_all"  />
<polygon points="448,35 453,30 454,30 454,40 453,40 448,35 " style="fill:#15d8d8; stroke-width:1; stroke:black; " description="&lt;b&gt;ctg147_7&lt;/b&gt;&lt;br&gt;ctg147 7&lt;br&gt;Location: 11741 - 12341" locus_tag="ctg147_7" class="clusterblast-orf" id="dummy-1_q6_0_all"  />
<polygon points="455,40 456,35 455,30 455,40 " style="fill:white; stroke-width:1; stroke:black; " description="&lt;b&gt;ctg147_8&lt;/b&gt;&lt;br&gt;ctg147 8&lt;br&gt;Location: 12461 - 12533" locus_tag="ctg147_8" class="clusterblast-orf" id="dummy-1_q7_0_all"  />
</g>
<g label="BGC0001072" description="BGC0001072_c1: Simocyclinone (4% of genes show similarity), t1pks+t2pks-saccharide-other" class="clusterblast-cluster"  >
<text x="5" y="70" class="clusterblast-acc"  >
<a xlink:href="https://mibig.secondarymetabolites.org/go/BGC0001072/1" target="_blank">BGC0001072</a>:                                                                    Simocyclinone (4% of genes show similarity), t1pks+t2pks-saccharide-other</text>
<line x1="10" y1="85" x2="778.0" y2="85" style="stroke-width:1; stroke:grey; "  />
</g>
<g id="a1_000"  >
<polygon points="0,85 2,80 2,90 0,85 " style="fill:white; stroke-width:1; stroke:black; " description="&lt;b&gt;AAK06812.1&lt;/b&gt;&lt;br&gt;SimX6&lt;br&gt;Location: 74610 - 74332" locus_tag="AAK06812.1" class="clusterblast-orf" id="dummy-1_h1_8_0"  />
</g>
<g id="a1_001"  >
<polygon points="3,85 8,80 18,80 18,90 8,90 3,85 " style="fill:white; stroke-width:1; stroke:black; " description="&lt;b&gt;AAK06811.1&lt;/b&gt;&lt;br&gt;putative acetyl transferase SimB6&lt;br&gt;Location: 74253 - 72853" locus_tag="AAK06811.1" class="clusterblast-orf" id="dummy-1_h1_8_1"  />
</g>
<g id="a1_002"  >
<polygon points="18,85 23,80 34,80 34,90 23,90 18,85 " style="fill:white; stroke-width:1; stroke:black; " description="&lt;b&gt;AAK06810.1&lt;/b&gt;&lt;br&gt;putative dNDP-4-keto-6-deoxy-glucose-2,3-dehydratase SimB3&lt;br&gt;Location: 72856 - 71408" locus_tag="AAK06810.1" class="clusterblast-orf" id="dummy-1_h1_8_2"  />
</g>
<g id="a1_003"  >
<polygon points="34,85 39,80 42,80 42,90 39,90 34,85 " style="fill:white; stroke-width:1; stroke:black; " description="&lt;b&gt;AAK06809.1&lt;/b&gt;&lt;br&gt;putative 3-keto-acyl-reductase SimD4&lt;br&gt;Location: 71341 - 70601" locus_tag="AAK06809.1" class="clusterblast-orf" id="dummy-1_h1_8_3"  />
</g>
<g id="a1_004"  >
<polygon points="46,85 51,80 54,80 54,90 51,90 46,85 " style="fill:white; stroke-width:1; stroke:black; " description="&lt;b&gt;AAK06808.1&lt;/b&gt;&lt;br&gt;putative regulator SimReg1&lt;br&gt;Location: 70278 - 69523" locus_tag="AAK06808.1" class="clusterblast-orf" id="dummy-1_h1_8_4"  />
</g>
<g id="a1_005"  >
<polygon points="55,85 60,80 64,80 64,90 60,90 55,85 " style="fill:white; stroke-width:1; stroke:black; " description="&lt;b&gt;AAK06807.1&lt;/b&gt;&lt;br&gt;putative 3-keto-acyl-reductase SimD2&lt;br&gt;Location: 69353 - 68532" locus_tag="AAK06807.1" class="clusterblast-orf" id="dummy-1_h1_8_5"  />
</g>
<g id="a1_006"  >
<polygon points="64,85 66,80 66,90 64,85 " style="fill:white; stroke-width:1; stroke:black; " description="&lt;b&gt;AAK06806.1&lt;/b&gt;&lt;br&gt;SimX1&lt;br&gt;Location: 68521 - 68309" locus_tag="AAK06806.1" class="clusterblast-orf" id="dummy-1_h1_8_6"  />
</g>
<g id="a1_007"  >
<polygon points="67,85 72,80 80,80 80,90 72,90 67,85 " style="fill:white; stroke-width:1; stroke:black; " description="&lt;b&gt;AAK06805.1&lt;/b&gt;&lt;br&gt;putative cytochrome P450 oxidase SimD1&lt;br&gt;Location: 68272 - 67007" locus_tag="AAK06805.1" class="clusterblast-orf" id="dummy-1_h1_8_7"  />
</g>
<g id="a1_008"  >
<polygon points="80,85 85,80 113,80 113,90 85,90 80,85 " style="fill:white; stroke-width:1; stroke:black; " description="&lt;b&gt;AAK06804.1&lt;/b&gt;&lt;br&gt;putative peptide synthase SimD6&lt;br&gt;Location: 67010 - 63978" locus_tag="AAK06804.1" class="clusterblast-orf" id="dummy-1_h1_8_8"  />
</g>
<g id="a1_009"  >
<polygon points="112,85 117,80 129,80 129,90 117,90 112,85 " style="fill:white; stroke-width:1; stroke:black; " description="&lt;b&gt;AAK06803.1&lt;/b&gt;&lt;br&gt;putative aminocoumarin ligase SimD5&lt;br&gt;Location: 63988 - 62429" locus_tag="AAK06803.1" class="clusterblast-orf" id="dummy-1_h1_8_9"  />
</g>
<g id="a1_0010"  >
<polygon points="129,85 134,80 137,80 137,90 134,90 129,85 " style="fill:white; stroke-width:1; stroke:black; " description="&lt;b&gt;AAK06802.1&lt;/b&gt;&lt;br&gt;putative 3-keto-acyl-reductase SimD3&lt;br&gt;Location: 62392 - 61682" locus_tag="AAK06802.1" class="clusterblast-orf" id="dummy-1_h1_8_10"  />
</g>
<g id="a1_0011"  >
<polygon points="138,85 143,80 146,80 146,90 143,90 138,85 " style="fill:white; stroke-width:1; stroke:black; " description="&lt;b&gt;AAK06801.1&lt;/b&gt;&lt;br&gt;putative phosphopantetheinyl transferase SimC8&lt;br&gt;Location: 61536 - 60874" locus_tag="AAK06801.1" class="clusterblast-orf" id="dummy-1_h1_8_11"  />
</g>
<g id="a1_0012"  >
<polygon points="145,85 150,80 155,80 155,90 150,90 145,85 " style="fill:white; stroke-width:1; stroke:black; " description="&lt;b&gt;AAK06800.1&lt;/b&gt;&lt;br&gt;SimX4&lt;br&gt;Location: 60877 - 59996" locus_tag="AAK06800.1" class="clusterblast-orf" id="dummy-1_h1_8_12"  />
</g>
<g id="a1_0013"  >
<polygon points="157,85 162,80 174,80 174,90 162,90 157,85 " style="fill:#d8d815; stroke-width:1; stroke:black; " description="&lt;b&gt;AAK06799.1&lt;/b&gt;&lt;br&gt;putative export protein SimEx&lt;br&gt;Location: 59784 - 58180&lt;br&gt;&lt;br&gt;&lt;b&gt;BlastP hit with ctg147_6&lt;/b&gt;&lt;br&gt;Percentage identity: 50&lt;br&gt;Percentage coverage: 97&lt;br&gt;BLAST bit score: 372&lt;br&gt;E-value: 9.8e-103" locus_tag="AAK06799.1" class="clusterblast-orf" id="dummy-1_h1_8_13"  />
</g>
<g id="a1_0014"  >
<polygon points="175,90 179,90 184,85 179,80 175,80 175,90 " style="fill:white; stroke-width:1; stroke:black; " description="&lt;b&gt;AAK06798.1&lt;/b&gt;&lt;br&gt;putative repressor SimReg2&lt;br&gt;Location: 58083 - 57298" locus_tag="AAK06798.1" class="clusterblast-orf" id="dummy-1_h1_8_14"  />
</g>
<g id="a1_0015"  >
<polygon points="183,85 188,80 197,80 197,90 188,90 183,85 " style="fill:white; stroke-width:1; stroke:black; " description="&lt;b&gt;AAK06797.1&lt;/b&gt;&lt;br&gt;putative alcohol dehydrogenase SimC5&lt;br&gt;Location: 57347 - 56007" locus_tag="AAK06797.1" class="clusterblast-orf" id="dummy-1_h1_8_15"  />
</g>
<g id="a1_0016"  >
<polygon points="197,85 202,80 212,80 212,90 202,90 197,85 " style="fill:white; stroke-width:1; stroke:black; " description="&lt;b&gt;AAK06796.1&lt;/b&gt;&lt;br&gt;putative dioxygenase SimC4&lt;br&gt;Location: 55990 - 54620" locus_tag="AAK06796.1" class="clusterblast-orf" id="dummy-1_h1_8_16"  />
</g>
<g id="a1_0017"  >
<polygon points="212,85 217,80 220,80 220,90 217,90 212,85 " style="fill:white; stroke-width:1; stroke:black; " description="&lt;b&gt;AAK06795.1&lt;/b&gt;&lt;br&gt;putative thioesterase SimC3&lt;br&gt;Location: 54623 - 53850" locus_tag="AAK06795.1" class="clusterblast-orf" id="dummy-1_h1_8_17"  />
</g>
<g id="a1_0018"  >
<polygon points="221,85 223,80 223,90 221,85 " style="fill:white; stroke-width:1; stroke:black; " description="&lt;b&gt;AAK06794.1&lt;/b&gt;&lt;br&gt;SimX2&lt;br&gt;Location: 53808 - 53572" locus_tag="AAK06794.1" class="clusterblast-orf" id="dummy-1_h1_8_18"  />
</g>
<g id="a1_0019"  >
<polygon points="223,85 228,80 240,80 240,90 228,90 223,85 " style="fill:white; stroke-width:1; stroke:black; " description="&lt;b&gt;AAK06793.1&lt;/b&gt;&lt;br&gt;putative decarboxylase SimA12&lt;br&gt;Location: 53575 - 51989" locus_tag="AAK06793.1" class="clusterblast-orf" id="dummy-1_h1_8_19"  />
</g>
<g id="a1_0020"  >
<polygon points="240,85 245,80 247,80 247,90 245,90 240,85 " style="fill:white; stroke-width:1; stroke:black; " description="&lt;b&gt;AAK06792.1&lt;/b&gt;&lt;br&gt;putative phosphopantheine-transferase SimA11&lt;br&gt;Location: 51976 - 51311" locus_tag="AAK06792.1" class="clusterblast-orf" id="dummy-1_h1_8_20"  />
</g>
<g id="a1_0021"  >
<polygon points="247,85 252,80 253,80 253,90 252,90 247,85 " style="fill:#15d8d8; stroke-width:1; stroke:black; " description="&lt;b&gt;AAK06791.1&lt;/b&gt;&lt;br&gt;putative reductase SimA10&lt;br&gt;Location: 51303 - 50731&lt;br&gt;&lt;br&gt;&lt;b&gt;BlastP hit with ctg147_7&lt;/b&gt;&lt;br&gt;Percentage identity: 58&lt;br&gt;Percentage coverage: 95&lt;br&gt;BLAST bit score: 214&lt;br&gt;E-value: 1.7e-55" locus_tag="AAK06791.1" class="clusterblast-orf" id="dummy-1_h1_8_21"  />
</g>
<g id="a1_0022"  >
<polygon points="255,85 260,80 263,80 263,90 260,90 255,85 " style="fill:white; stroke-width:1; stroke:black; " description="&lt;b&gt;AAK06790.1&lt;/b&gt;&lt;br&gt;putative reductase SimA9&lt;br&gt;Location: 50600 - 49836" locus_tag="AAK06790.1" class="clusterblast-orf" id="dummy-1_h1_8_22"  />
</g>
<g id="a1_0023"  >
<polygon points="264,85 269,80 279,80 279,90 269,90 264,85 " style="fill:white; stroke-width:1; stroke:black; " description="&lt;b&gt;AAK06789.1&lt;/b&gt;&lt;br&gt;putative oxygenase SimA8&lt;br&gt;Location: 49757 - 48273" locus_tag="AAK06789.1" class="clusterblast-orf" id="dummy-1_h1_8_23"  />
</g>
<g id="a1_0024"  >
<polygon points="280,85 285,80 290,80 290,90 285,90 280,85 " style="fill:white; stroke-width:1; stroke:black; " description="&lt;b&gt;AAK06788.1&lt;/b&gt;&lt;br&gt;putative cyclase/dehydrase SimA5&lt;br&gt;Location: 48267 - 47320" locus_tag="AAK06788.1" class="clusterblast-orf" id="dummy-1_h1_8_24"  />
</g>
<g id="a1_0025"  >
<polygon points="290,85 295,80 298,80 298,90 295,90 290,85 " style="fill:white; stroke-width:1; stroke:black; " description="&lt;b&gt;AAK06787.1&lt;/b&gt;&lt;br&gt;putative ketoreductase SimA6&lt;br&gt;Location: 47294 - 46509" locus_tag="AAK06787.1" class="clusterblast-orf" id="dummy-1_h1_8_25"  />
</g>
<g id="a1_0026"  >
<polygon points="298,85 301,80 301,90 298,85 " style="fill:white; stroke-width:1; stroke:black; " description="&lt;b&gt;AAK06786.1&lt;/b&gt;&lt;br&gt;putative acyl carrier protein SimA3&lt;br&gt;Location: 46489 - 46223" locus_tag="AAK06786.1" class="clusterblast-orf" id="dummy-1_h1_8_26"  />
</g>
<g id="a1_0027"  >
<polygon points="302,85 307,80 315,80 315,90 307,90 302,85 " style="fill:white; stroke-width:1; stroke:black; " description="&lt;b&gt;AAK06785.1&lt;/b&gt;&lt;br&gt;putative ketosynthase SimA2&lt;br&gt;Location: 46174 - 44960" locus_tag="AAK06785.1" class="clusterblast-orf" id="dummy-1_h1_8_27"  />
</g>
<g id="a1_0028"  >
<polygon points="315,85 320,80 328,80 328,90 320,90 315,85 " style="fill:white; stroke-width:1; stroke:black; " description="&lt;b&gt;AAK06784.1&lt;/b&gt;&lt;br&gt;putative ketosynthase SimA1&lt;br&gt;Location: 44963 - 43695" locus_tag="AAK06784.1" class="clusterblast-orf" id="dummy-1_h1_8_28"  />
</g>
<g id="a1_0029"  >
<polygon points="328,85 332,80 332,90 328,85 " style="fill:white; stroke-width:1; stroke:black; " description="&lt;b&gt;AAK06783.1&lt;/b&gt;&lt;br&gt;putative cyclase SimA4&lt;br&gt;Location: 43698 - 43372" locus_tag="AAK06783.1" class="clusterblast-orf" id="dummy-1_h1_8_29"  />
</g>
<g id="a1_0030"  >
<polygon points="332,85 337,80 348,80 348,90 337,90 332,85 " style="fill:white; stroke-width:1; stroke:black; " description="&lt;b&gt;AAK06782.1&lt;/b&gt;&lt;br&gt;putative oxygenase SimA7&lt;br&gt;Location: 43322 - 41847" locus_tag="AAK06782.1" class="clusterblast-orf" id="dummy-1_h1_8_30"  />
</g>
<g id="a1_0031"  >
<polygon points="352,85 354,80 354,90 352,85 " style="fill:white; stroke-width:1; stroke:black; " description="&lt;b&gt;AEU17901.1&lt;/b&gt;&lt;br&gt;hypothetical protein&lt;br&gt;Location: 41457 - 41215" locus_tag="AEU17901.1" class="clusterblast-orf" id="dummy-1_h1_8_31"  />
</g>
<g id="a1_0032"  >
<polygon points="359,85 364,80 368,80 368,90 364,90 359,85 " style="fill:white; stroke-width:1; stroke:black; " description="&lt;b&gt;AEU17900.1&lt;/b&gt;&lt;br&gt;putative thioesterase&lt;br&gt;Location: 40788 - 39958" locus_tag="AEU17900.1" class="clusterblast-orf" id="dummy-1_h1_8_32"  />
</g>
<g id="a1_0033"  >
<polygon points="370,85 375,80 510,80 510,90 375,90 370,85 " style="fill:white; stroke-width:1; stroke:black; " description="&lt;b&gt;AEU17899.1&lt;/b&gt;&lt;br&gt;putative type I PKS&lt;br&gt;Location: 39741 - 26623" locus_tag="AEU17899.1" class="clusterblast-orf" id="dummy-1_h1_8_33"  />
</g>
<g id="a1_0034"  >
<polygon points="510,85 515,80 553,80 553,90 515,90 510,85 " style="fill:white; stroke-width:1; stroke:black; " description="&lt;b&gt;AEU17898.1&lt;/b&gt;&lt;br&gt;putative type I PKS&lt;br&gt;Location: 26555 - 22560" locus_tag="AEU17898.1" class="clusterblast-orf" id="dummy-1_h1_8_34"  />
</g>
<g id="a1_0035"  >
<polygon points="553,85 558,80 623,80 623,90 558,90 553,85 " style="fill:white; stroke-width:1; stroke:black; " description="&lt;b&gt;AEU17897.1&lt;/b&gt;&lt;br&gt;putative type I PKS&lt;br&gt;Location: 22506 - 15910" locus_tag="AEU17897.1" class="clusterblast-orf" id="dummy-1_h1_8_35"  />
</g>
<g id="a1_0036"  >
<polygon points="624,85 629,80 638,80 638,90 629,90 624,85 " style="fill:white; stroke-width:1; stroke:black; " description="&lt;b&gt;AEU17896.1&lt;/b&gt;&lt;br&gt;putative P450 oxygenase&lt;br&gt;Location: 15829 - 14573" locus_tag="AEU17896.1" class="clusterblast-orf" id="dummy-1_h1_8_36"  />
</g>
<g id="a1_0037"  >
<polygon points="642,85 647,80 655,80 655,90 647,90 642,85 " style="fill:white; stroke-width:1; stroke:black; " description="&lt;b&gt;AEU17895.1&lt;/b&gt;&lt;br&gt;putative Na/H antiporter&lt;br&gt;Location: 14186 - 12945" locus_tag="AEU17895.1" class="clusterblast-orf" id="dummy-1_h1_8_37"  />
</g>
<g id="a1_0038"  >
<polygon points="661,85 666,80 676,80 676,90 666,90 661,85 " style="fill:white; stroke-width:1; stroke:black; " description="&lt;b&gt;AEU17894.1&lt;/b&gt;&lt;br&gt;putative halogenase&lt;br&gt;Location: 12410 - 10947" locus_tag="AEU17894.1" class="clusterblast-orf" id="dummy-1_h1_8_38"  />
</g>
<g id="a1_0039"  >
<polygon points="677,85 678,80 678,90 677,85 " style="fill:white; stroke-width:1; stroke:black; " description="&lt;b&gt;AEU17893.1&lt;/b&gt;&lt;br&gt;hypothetical protein&lt;br&gt;Location: 10863 - 10750" locus_tag="AEU17893.1" class="clusterblast-orf" id="dummy-1_h1_8_39"  />
</g>
<g id="a1_0040"  >
<polygon points="684,85 689,80 693,80 693,90 689,90 684,85 " style="fill:white; stroke-width:1; stroke:black; " description="&lt;b&gt;AEU17892.1&lt;/b&gt;&lt;br&gt;putative hydroxylase/dehydratase&lt;br&gt;Location: 10198 - 9344" locus_tag="AEU17892.1" class="clusterblast-orf" id="dummy-1_h1_8_40"  />
</g>
<g id="a1_0041"  >
<polygon points="693,85 698,80 698,80 698,90 698,90 693,85 " style="fill:white; stroke-width:1; stroke:black; " description="&lt;b&gt;AEU17891.1&lt;/b&gt;&lt;br&gt;putative regulator MarR/SlyA family&lt;br&gt;Location: 9330 - 8866" locus_tag="AEU17891.1" class="clusterblast-orf" id="dummy-1_h1_8_41"  />
</g>
<g id="a1_0042"  >
<polygon points="698,85 703,80 707,80 707,90 703,90 698,85 " style="fill:white; stroke-width:1; stroke:black; " description="&lt;b&gt;AEU17890.1&lt;/b&gt;&lt;br&gt;hypothetical protein&lt;br&gt;Location: 8855 - 8085" locus_tag="AEU17890.1" class="clusterblast-orf" id="dummy-1_h1_8_42"  />
</g>
<g id="a1_0043"  >
<polygon points="707,85 712,80 717,80 717,90 712,90 707,85 " style="fill:white; stroke-width:1; stroke:black; " description="&lt;b&gt;AEU17889.1&lt;/b&gt;&lt;br&gt;putative 3-oxo-ACP synthase&lt;br&gt;Location: 8059 - 7106" locus_tag="AEU17889.1" class="clusterblast-orf" id="dummy-1_h1_8_43"  />
</g>
<g id="a1_0044"  >
<polygon points="717,85 722,80 727,80 727,90 722,90 717,85 " style="fill:white; stroke-width:1; stroke:black; " description="&lt;b&gt;AEU17888.1&lt;/b&gt;&lt;br&gt;putative 3-ketoreductase&lt;br&gt;Location: 7102 - 6134" locus_tag="AEU17888.1" class="clusterblast-orf" id="dummy-1_h1_8_44"  />
</g>
<g id="a1_0045"  >
<polygon points="727,85 732,80 735,80 735,90 732,90 727,85 " style="fill:white; stroke-width:1; stroke:black; " description="&lt;b&gt;AEU17887.1&lt;/b&gt;&lt;br&gt;putative 4-ketoreductase&lt;br&gt;Location: 6137 - 5376" locus_tag="AEU17887.1" class="clusterblast-orf" id="dummy-1_h1_8_45"  />
</g>
<g id="a1_0046"  >
<polygon points="735,85 740,80 748,80 748,90 740,90 735,85 " style="fill:white; stroke-width:1; stroke:black; " description="&lt;b&gt;AEU17886.1&lt;/b&gt;&lt;br&gt;putative glycosyl transferase&lt;br&gt;Location: 5369 - 4212" locus_tag="AEU17886.1" class="clusterblast-orf" id="dummy-1_h1_8_46"  />
</g>
<g id="a1_0047"  >
<polygon points="752,85 757,80 765,80 765,90 757,90 752,85 " style="fill:white; stroke-width:1; stroke:black; " description="&lt;b&gt;AEU17885.1&lt;/b&gt;&lt;br&gt;3-oxo-ACP synthase II&lt;br&gt;Location: 3843 - 2602" locus_tag="AEU17885.1" class="clusterblast-orf" id="dummy-1_h1_8_47"  />
</g>
<g id="a1_0048"  >
<polygon points="765,85 770,80 777,80 777,90 770,90 765,85 " style="fill:white; stroke-width:1; stroke:black; " description="&lt;b&gt;AEU17884.1&lt;/b&gt;&lt;br&gt;3-oxo-ACP synthase II&lt;br&gt;Location: 2551 - 1472" locus_tag="AEU17884.1" class="clusterblast-orf" id="dummy-1_h1_8_48"  />
</g>
<g id="a1_0049"  >
<polygon points="777,85 779,80 779,90 777,85 " style="fill:white; stroke-width:1; stroke:black; " description="&lt;b&gt;AEU17883.1&lt;/b&gt;&lt;br&gt;putative acyl carrier protein&lt;br&gt;Location: 1475 - 1227" locus_tag="AEU17883.1" class="clusterblast-orf" id="dummy-1_h1_8_49"  />
</g>
</svg>
