<svg xmlns="http://www.w3.org/2000/svg" xmlns:xlink="http://www.w3.org/1999/xlink" version="1.1" x="0" y="0" height="230" width="800" viewBox="0 0 800 230" preserveAspectRatio="none"  >
<g label="Query sequence" class="clusterblast-cluster"  >
<text x="5" y="20" class="clusterblast-acc"  >
Query sequence</text>
<line x1="10" y1="35" x2="778.0" y2="35" style="stroke-width:1; stroke:grey; "  />
<polygon points="0,40 2,35 0,30 0,40 " style="fill:white; stroke-width:1; stroke:black; " description="&lt;b&gt;ctg63_1&lt;/b&gt;&lt;br&gt;ctg63 1&lt;br&gt;Location: 0 - 69" locus_tag="ctg63_1" class="clusterblast-orf" id="dummy-1_q0_0_all"  />
<polygon points="3,40 41,40 46,35 41,30 3,30 3,40 " style="fill:#d81515; stroke-width:1; stroke:black; " description="&lt;b&gt;ctg63_2&lt;/b&gt;&lt;br&gt;ctg63 2&lt;br&gt;Location: 76 - 1276" locus_tag="ctg63_2" class="clusterblast-orf" id="dummy-1_q1_0_all"  />
<polygon points="57,40 104,40 109,35 104,30 57,30 57,40 " style="fill:white; stroke-width:1; stroke:black; " description="&lt;b&gt;ctg63_3&lt;/b&gt;&lt;br&gt;ctg63 3&lt;br&gt;Location: 1576 - 3019" locus_tag="ctg63_3" class="clusterblast-orf" id="dummy-1_q2_0_all"  />
<polygon points="108,40 126,40 131,35 126,30 108,30 108,40 " style="fill:white; stroke-width:1; stroke:black; " description="&lt;b&gt;ctg63_4&lt;/b&gt;&lt;br&gt;ctg63 4&lt;br&gt;Location: 3003 - 3627" locus_tag="ctg63_4" class="clusterblast-orf" id="dummy-1_q3_0_all"  />
<polygon points="142,35 147,30 153,30 153,40 147,40 142,35 " style="fill:white; stroke-width:1; stroke:black; " description="&lt;b&gt;ctg63_5&lt;/b&gt;&lt;br&gt;ctg63 5&lt;br&gt;Location: 3930 - 4236" locus_tag="ctg63_5" class="clusterblast-orf" id="dummy-1_q4_0_all"  />
<polygon points="161,40 166,40 171,35 166,30 161,30 161,40 " style="fill:white; stroke-width:1; stroke:black; " description="&lt;b&gt;ctg63_6&lt;/b&gt;&lt;br&gt;ctg63 6&lt;br&gt;Location: 4460 - 4730" locus_tag="ctg63_6" class="clusterblast-orf" id="dummy-1_q5_0_all"  />
<polygon points="187,40 207,40 212,35 207,30 187,30 187,40 " style="fill:white; stroke-width:1; stroke:black; " description="&lt;b&gt;ctg63_7&lt;/b&gt;&lt;br&gt;ctg63 7&lt;br&gt;Location: 5188 - 5872" locus_tag="ctg63_7" class="clusterblast-orf" id="dummy-1_q6_0_all"  />
<polygon points="220,35 225,30 259,30 259,40 225,40 220,35 " style="fill:#77d815; stroke-width:1; stroke:black; " description="&lt;b&gt;ctg63_8&lt;/b&gt;&lt;br&gt;ctg63 8&lt;br&gt;Location: 6097 - 7162" locus_tag="ctg63_8" class="clusterblast-orf" id="dummy-1_q7_0_all"  />
<polygon points="259,35 264,30 323,30 323,40 264,40 259,35 " style="fill:#15d8d8; stroke-width:1; stroke:black; " description="&lt;b&gt;ctg63_9&lt;/b&gt;&lt;br&gt;ctg63 9&lt;br&gt;Location: 7161 - 8943" locus_tag="ctg63_9" class="clusterblast-orf" id="dummy-1_q8_0_all"  />
<polygon points="324,35 329,30 671,30 671,40 329,40 324,35 " style="fill:#7715d8; stroke-width:1; stroke:black; " description="&lt;b&gt;ctg63_10&lt;/b&gt;&lt;br&gt;ctg63 10&lt;br&gt;Location: 8984 - 18578" locus_tag="ctg63_10" class="clusterblast-orf" id="dummy-1_q9_0_all"  />
<polygon points="678,35 683,30 701,30 701,40 683,40 678,35 " style="fill:#d8a715; stroke-width:1; stroke:black; " description="&lt;b&gt;ctg63_11&lt;/b&gt;&lt;br&gt;ctg63 11&lt;br&gt;Location: 18757 - 19402" locus_tag="ctg63_11" class="clusterblast-orf" id="dummy-1_q10_0_all"  />
<polygon points="701,35 706,30 717,30 717,40 706,40 701,35 " style="fill:#15d846; stroke-width:1; stroke:black; " description="&lt;b&gt;ctg63_12&lt;/b&gt;&lt;br&gt;ctg63 12&lt;br&gt;Location: 19404 - 19860" locus_tag="ctg63_12" class="clusterblast-orf" id="dummy-1_q11_0_all"  />
<polygon points="718,40 741,40 746,35 741,30 718,30 718,40 " style="fill:#1546d8; stroke-width:1; stroke:black; " description="&lt;b&gt;ctg63_13&lt;/b&gt;&lt;br&gt;ctg63 13&lt;br&gt;Location: 19877 - 20636" locus_tag="ctg63_13" class="clusterblast-orf" id="dummy-1_q12_0_all"  />
<polygon points="748,40 772,40 777,35 772,30 748,30 748,40 " style="fill:#d815a7; stroke-width:1; stroke:black; " description="&lt;b&gt;ctg63_14&lt;/b&gt;&lt;br&gt;ctg63 14&lt;br&gt;Location: 20707 - 21499" locus_tag="ctg63_14" class="clusterblast-orf" id="dummy-1_q13_0_all"  />
<polygon points="777,35 780,30 780,40 777,35 " style="fill:white; stroke-width:1; stroke:black; " description="&lt;b&gt;ctg63_15&lt;/b&gt;&lt;br&gt;ctg63 15&lt;br&gt;Location: 21517 - 21586" locus_tag="ctg63_15" class="clusterblast-orf" id="dummy-1_q14_0_all"  />
</g>
<g label="BGC0001553" description="BGC0001553_c1: Clifednamide (40% of genes show similarity), nrps-t1pks" class="clusterblast-cluster"  >
<text x="5" y="70" class="clusterblast-acc"  >
<a xlink:href="https://mibig.secondarymetabolites.org/go/BGC0001553/1" target="_blank">BGC0001553</a>:                                                                     Clifednamide (40% of genes show similarity), nrps-t1pks</text>
<line x1="10" y1="85" x2="778.0" y2="85" style="stroke-width:1; stroke:grey; "  />
</g>
<g id="a1_000"  >
<polygon points="13,90 44,90 49,85 44,80 13,80 13,90 " style="fill:white; stroke-width:1; stroke:black; " description="&lt;b&gt;AUD08669.1&lt;/b&gt;&lt;br&gt;sugar ABC transporter permease&lt;br&gt;Location: 20863 - 19853" locus_tag="AUD08669.1" class="clusterblast-orf" id="dummy-1_h1_2_0"  />
</g>
<g id="a1_001"  >
<polygon points="49,90 74,90 79,85 74,80 49,80 49,90 " style="fill:white; stroke-width:1; stroke:black; " description="&lt;b&gt;AUD08668.1&lt;/b&gt;&lt;br&gt;sugar ABC transporter permease&lt;br&gt;Location: 19853 - 19020" locus_tag="AUD08668.1" class="clusterblast-orf" id="dummy-1_h1_2_1"  />
</g>
<g id="a1_002"  >
<polygon points="80,90 118,90 123,85 118,80 80,80 80,90 " style="fill:white; stroke-width:1; stroke:black; " description="&lt;b&gt;AUD08667.1&lt;/b&gt;&lt;br&gt;ABC transporter ATP-binding protein&lt;br&gt;Location: 18988 - 17801" locus_tag="AUD08667.1" class="clusterblast-orf" id="dummy-1_h1_2_2"  />
</g>
<g id="a1_003"  >
<polygon points="126,85 131,80 164,80 164,90 131,90 126,85 " style="fill:#77d815; stroke-width:1; stroke:black; " description="&lt;b&gt;AUD08666.1&lt;/b&gt;&lt;br&gt;zinc binding alcohol dehydrogenase&lt;br&gt;Location: 17717 - 16659&lt;br&gt;&lt;br&gt;&lt;b&gt;BlastP hit with ctg63_8&lt;/b&gt;&lt;br&gt;Percentage identity: 69&lt;br&gt;Percentage coverage: 100&lt;br&gt;BLAST bit score: 502&lt;br&gt;E-value: 5.5e-142" locus_tag="AUD08666.1" class="clusterblast-orf" id="dummy-1_h1_2_3"  />
</g>
<g id="a1_004"  >
<polygon points="164,85 169,80 229,80 229,90 169,90 164,85 " style="fill:#15d8d8; stroke-width:1; stroke:black; " description="&lt;b&gt;AUD08665.1&lt;/b&gt;&lt;br&gt;FAD dependent oxidoreductase&lt;br&gt;Location: 16662 - 14863&lt;br&gt;&lt;br&gt;&lt;b&gt;BlastP hit with ctg63_9&lt;/b&gt;&lt;br&gt;Percentage identity: 76&lt;br&gt;Percentage coverage: 90&lt;br&gt;BLAST bit score: 877&lt;br&gt;E-value: 1.1e-254" locus_tag="AUD08665.1" class="clusterblast-orf" id="dummy-1_h1_2_4"  />
</g>
<g id="a1_005"  >
<polygon points="232,85 237,80 275,80 275,90 237,90 232,85 " style="fill:#d81515; stroke-width:1; stroke:black; " description="&lt;b&gt;AUD08664.1&lt;/b&gt;&lt;br&gt;cytochrome P450&lt;br&gt;Location: 14803 - 13613&lt;br&gt;&lt;br&gt;&lt;b&gt;BlastP hit with ctg63_2&lt;/b&gt;&lt;br&gt;Percentage identity: 54&lt;br&gt;Percentage coverage: 99&lt;br&gt;BLAST bit score: 441&lt;br&gt;E-value: 1e-123" locus_tag="AUD08664.1" class="clusterblast-orf" id="dummy-1_h1_2_5"  />
</g>
<g id="a1_006"  >
<polygon points="277,85 282,80 633,80 633,90 282,90 277,85 " style="fill:#7715d8; stroke-width:1; stroke:black; " description="&lt;b&gt;AUD08663.1&lt;/b&gt;&lt;br&gt;iPKS-NRPS&lt;br&gt;Location: 13544 - 3690&lt;br&gt;&lt;br&gt;&lt;b&gt;BlastP hit with ctg63_10&lt;/b&gt;&lt;br&gt;Percentage identity: 66&lt;br&gt;Percentage coverage: 102&lt;br&gt;BLAST bit score: 4031&lt;br&gt;E-value: 0.0" locus_tag="AUD08663.1" class="clusterblast-orf" id="dummy-1_h1_2_6"  />
</g>
<g id="a1_007"  >
<polygon points="643,85 648,80 675,80 675,90 648,90 643,85 " style="fill:white; stroke-width:1; stroke:black; " description="&lt;b&gt;AUD08662.1&lt;/b&gt;&lt;br&gt;C25 hydroxylase&lt;br&gt;Location: 3423 - 2524" locus_tag="AUD08662.1" class="clusterblast-orf" id="dummy-1_h1_2_7"  />
</g>
<g id="a1_008"  >
<polygon points="681,90 718,90 723,85 718,80 681,80 681,90 " style="fill:white; stroke-width:1; stroke:black; " description="&lt;b&gt;AUD08661.1&lt;/b&gt;&lt;br&gt;hypothetical protein&lt;br&gt;Location: 2358 - 1189" locus_tag="AUD08661.1" class="clusterblast-orf" id="dummy-1_h1_2_8"  />
</g>
<g id="a1_009"  >
<polygon points="731,90 761,90 766,85 761,80 731,80 731,90 " style="fill:white; stroke-width:1; stroke:black; " description="&lt;b&gt;AUD08660.1&lt;/b&gt;&lt;br&gt;oxidoreductase&lt;br&gt;Location: 984 - 1" locus_tag="AUD08660.1" class="clusterblast-orf" id="dummy-1_h1_2_9"  />
</g>
</svg>
