<svg xmlns="http://www.w3.org/2000/svg" xmlns:xlink="http://www.w3.org/1999/xlink" version="1.1" x="0" y="0" height="230" width="800" viewBox="0 0 800 230" preserveAspectRatio="none"  >
<g label="Query sequence" class="clusterblast-cluster"  >
<text x="5" y="20" class="clusterblast-acc"  >
Query sequence</text>
<line x1="10" y1="35" x2="778.0" y2="35" style="stroke-width:1; stroke:grey; "  />
<polygon points="237,35 242,30 245,30 245,40 242,40 237,35 " style="fill:white; stroke-width:1; stroke:black; " description="&lt;b&gt;ctg48_1&lt;/b&gt;&lt;br&gt;ctg48 1&lt;br&gt;Location: 69 - 801" locus_tag="ctg48_1" class="clusterblast-orf" id="dummy-1_q0_0_all"  />
<polygon points="245,35 250,30 256,30 256,40 250,40 245,35 " style="fill:white; stroke-width:1; stroke:black; " description="&lt;b&gt;ctg48_2&lt;/b&gt;&lt;br&gt;ctg48 2&lt;br&gt;Location: 797 - 1688" locus_tag="ctg48_2" class="clusterblast-orf" id="dummy-1_q1_0_all"  />
<polygon points="256,35 261,30 269,30 269,40 261,40 256,35 " style="fill:white; stroke-width:1; stroke:black; " description="&lt;b&gt;ctg48_3&lt;/b&gt;&lt;br&gt;ctg48 3&lt;br&gt;Location: 1695 - 2766" locus_tag="ctg48_3" class="clusterblast-orf" id="dummy-1_q2_0_all"  />
<polygon points="269,35 274,30 290,30 290,40 274,40 269,35 " style="fill:white; stroke-width:1; stroke:black; " description="&lt;b&gt;ctg48_4&lt;/b&gt;&lt;br&gt;ctg48 4&lt;br&gt;Location: 2747 - 4439" locus_tag="ctg48_4" class="clusterblast-orf" id="dummy-1_q3_0_all"  />
<polygon points="290,35 295,30 302,30 302,40 295,40 290,35 " style="fill:white; stroke-width:1; stroke:black; " description="&lt;b&gt;ctg48_5&lt;/b&gt;&lt;br&gt;ctg48 5&lt;br&gt;Location: 4490 - 5474" locus_tag="ctg48_5" class="clusterblast-orf" id="dummy-1_q4_0_all"  />
<polygon points="303,40 316,40 321,35 316,30 303,30 303,40 " style="fill:white; stroke-width:1; stroke:black; " description="&lt;b&gt;ctg48_6&lt;/b&gt;&lt;br&gt;ctg48 6&lt;br&gt;Location: 5567 - 6998" locus_tag="ctg48_6" class="clusterblast-orf" id="dummy-1_q5_0_all"  />
<polygon points="325,40 334,40 339,35 334,30 325,30 325,40 " style="fill:#d81515; stroke-width:1; stroke:black; " description="&lt;b&gt;ctg48_7&lt;/b&gt;&lt;br&gt;ctg48 7&lt;br&gt;Location: 7302 - 8499" locus_tag="ctg48_7" class="clusterblast-orf" id="dummy-1_q6_0_all"  />
<polygon points="340,35 345,30 353,30 353,40 345,40 340,35 " style="fill:#15d815; stroke-width:1; stroke:black; " description="&lt;b&gt;ctg48_8&lt;/b&gt;&lt;br&gt;ctg48 8&lt;br&gt;Location: 8559 - 9639" locus_tag="ctg48_8" class="clusterblast-orf" id="dummy-1_q7_0_all"  />
<polygon points="353,35 358,30 365,30 365,40 358,40 353,35 " style="fill:#1597d8; stroke-width:1; stroke:black; " description="&lt;b&gt;ctg48_9&lt;/b&gt;&lt;br&gt;ctg48 9&lt;br&gt;Location: 9659 - 10583" locus_tag="ctg48_9" class="clusterblast-orf" id="dummy-1_q8_0_all"  />
<polygon points="367,35 372,30 377,30 377,40 372,40 367,35 " style="fill:#9715d8; stroke-width:1; stroke:black; " description="&lt;b&gt;ctg48_10&lt;/b&gt;&lt;br&gt;ctg48 10&lt;br&gt;Location: 10784 - 11618" locus_tag="ctg48_10" class="clusterblast-orf" id="dummy-1_q9_0_all"  />
<polygon points="377,35 382,30 391,30 391,40 382,40 377,35 " style="fill:#d89715; stroke-width:1; stroke:black; " description="&lt;b&gt;ctg48_11&lt;/b&gt;&lt;br&gt;ctg48 11&lt;br&gt;Location: 11614 - 12766" locus_tag="ctg48_11" class="clusterblast-orf" id="dummy-1_q10_0_all"  />
<polygon points="391,40 401,40 406,35 401,30 391,30 391,40 " style="fill:white; stroke-width:1; stroke:black; " description="&lt;b&gt;ctg48_12&lt;/b&gt;&lt;br&gt;ctg48 12&lt;br&gt;Location: 12786 - 13989" locus_tag="ctg48_12" class="clusterblast-orf" id="dummy-1_q11_0_all"  />
<polygon points="407,35 412,30 417,30 417,40 412,40 407,35 " style="fill:white; stroke-width:1; stroke:black; " description="&lt;b&gt;ctg48_13&lt;/b&gt;&lt;br&gt;ctg48 13&lt;br&gt;Location: 14051 - 14882" locus_tag="ctg48_13" class="clusterblast-orf" id="dummy-1_q12_0_all"  />
<polygon points="417,35 422,30 433,30 433,40 422,40 417,35 " style="fill:#15d897; stroke-width:1; stroke:black; " description="&lt;b&gt;ctg48_14&lt;/b&gt;&lt;br&gt;ctg48 14&lt;br&gt;Location: 14878 - 16189" locus_tag="ctg48_14" class="clusterblast-orf" id="dummy-1_q13_0_all"  />
<polygon points="433,35 438,30 446,30 446,40 438,40 433,35 " style="fill:#1515d8; stroke-width:1; stroke:black; " description="&lt;b&gt;ctg48_15&lt;/b&gt;&lt;br&gt;ctg48 15&lt;br&gt;Location: 16185 - 17301" locus_tag="ctg48_15" class="clusterblast-orf" id="dummy-1_q14_0_all"  />
<polygon points="448,35 451,30 451,40 448,35 " style="fill:#d81597; stroke-width:1; stroke:black; " description="&lt;b&gt;ctg48_16&lt;/b&gt;&lt;br&gt;ctg48 16&lt;br&gt;Location: 17403 - 17676" locus_tag="ctg48_16" class="clusterblast-orf" id="dummy-1_q15_0_all"  />
<polygon points="455,35 460,30 543,30 543,40 460,40 455,35 " style="fill:#97d815; stroke-width:1; stroke:black; " description="&lt;b&gt;ctg48_17&lt;/b&gt;&lt;br&gt;ctg48 17&lt;br&gt;Location: 18022 - 25219" locus_tag="ctg48_17" class="clusterblast-orf" id="dummy-1_q16_0_all"  />
</g>
<g label="BGC0001582" description="BGC0001582_c1: Ecumicin (47% of genes show similarity), nrps" class="clusterblast-cluster"  >
<text x="5" y="70" class="clusterblast-acc"  >
<a xlink:href="https://mibig.secondarymetabolites.org/go/BGC0001582/1" target="_blank">BGC0001582</a>:                                                                         Ecumicin (47% of genes show similarity), nrps</text>
<line x1="10" y1="85" x2="778.0" y2="85" style="stroke-width:1; stroke:grey; "  />
</g>
<g id="a1_000"  >
<polygon points="0,90 11,90 16,85 11,80 0,80 0,90 " style="fill:#d81515; stroke-width:1; stroke:black; " description="&lt;b&gt;AIW58896.1&lt;/b&gt;&lt;br&gt;cytochrome P450 monooxygenase&lt;br&gt;Location: 9374 - 10717&lt;br&gt;&lt;br&gt;&lt;b&gt;BlastP hit with ctg48_7&lt;/b&gt;&lt;br&gt;Percentage identity: 72&lt;br&gt;Percentage coverage: 98&lt;br&gt;BLAST bit score: 562&lt;br&gt;E-value: 5e-160" locus_tag="AIW58896.1" class="clusterblast-orf" id="dummy-1_h1_1_0"  />
</g>
<g id="a1_001"  >
<polygon points="16,85 21,80 29,80 29,90 21,90 16,85 " style="fill:#15d815; stroke-width:1; stroke:black; " description="&lt;b&gt;AIW58897.1&lt;/b&gt;&lt;br&gt;hypothetical protein&lt;br&gt;Location: 10723 - 11829&lt;br&gt;&lt;br&gt;&lt;b&gt;BlastP hit with ctg48_8&lt;/b&gt;&lt;br&gt;Percentage identity: 51&lt;br&gt;Percentage coverage: 101&lt;br&gt;BLAST bit score: 325&lt;br&gt;E-value: 9.4e-89" locus_tag="AIW58897.1" class="clusterblast-orf" id="dummy-1_h1_1_1"  />
</g>
<g id="a1_002"  >
<polygon points="30,85 35,80 42,80 42,90 35,90 30,85 " style="fill:#1597d8; stroke-width:1; stroke:black; " description="&lt;b&gt;AIW58898.1&lt;/b&gt;&lt;br&gt;O-methyltransferase&lt;br&gt;Location: 11855 - 12856&lt;br&gt;&lt;br&gt;&lt;b&gt;BlastP hit with ctg48_9&lt;/b&gt;&lt;br&gt;Percentage identity: 62&lt;br&gt;Percentage coverage: 98&lt;br&gt;BLAST bit score: 358&lt;br&gt;E-value: 1.1e-98" locus_tag="AIW58898.1" class="clusterblast-orf" id="dummy-1_h1_1_2"  />
</g>
<g id="a1_003"  >
<polygon points="44,85 49,80 54,80 54,90 49,90 44,85 " style="fill:#9715d8; stroke-width:1; stroke:black; " description="&lt;b&gt;AIW58899.1&lt;/b&gt;&lt;br&gt;putative ABC transporter&lt;br&gt;Location: 13040 - 13870&lt;br&gt;&lt;br&gt;&lt;b&gt;BlastP hit with ctg48_10&lt;/b&gt;&lt;br&gt;Percentage identity: 75&lt;br&gt;Percentage coverage: 99&lt;br&gt;BLAST bit score: 411&lt;br&gt;E-value: 1.3e-114" locus_tag="AIW58899.1" class="clusterblast-orf" id="dummy-1_h1_1_3"  />
</g>
<g id="a1_004"  >
<polygon points="54,85 59,80 65,80 65,90 59,90 54,85 " style="fill:#d89715; stroke-width:1; stroke:black; " description="&lt;b&gt;AIW58900.1&lt;/b&gt;&lt;br&gt;hypothetical protein&lt;br&gt;Location: 13867 - 14742&lt;br&gt;&lt;br&gt;&lt;b&gt;BlastP hit with ctg48_11&lt;/b&gt;&lt;br&gt;Percentage identity: 72&lt;br&gt;Percentage coverage: 76&lt;br&gt;BLAST bit score: 411&lt;br&gt;E-value: 1.8e-114" locus_tag="AIW58900.1" class="clusterblast-orf" id="dummy-1_h1_1_4"  />
</g>
<g id="a1_005"  >
<polygon points="66,85 71,80 74,80 74,90 71,90 66,85 " style="fill:white; stroke-width:1; stroke:black; " description="&lt;b&gt;AIW58901.1&lt;/b&gt;&lt;br&gt;hypothetical protein&lt;br&gt;Location: 14826 - 15527" locus_tag="AIW58901.1" class="clusterblast-orf" id="dummy-1_h1_1_5"  />
</g>
<g id="a1_006"  >
<polygon points="75,85 80,80 91,80 91,90 80,90 75,85 " style="fill:#15d897; stroke-width:1; stroke:black; " description="&lt;b&gt;AIW58902.1&lt;/b&gt;&lt;br&gt;hypothetical protein&lt;br&gt;Location: 15596 - 16891&lt;br&gt;&lt;br&gt;&lt;b&gt;BlastP hit with ctg48_14&lt;/b&gt;&lt;br&gt;Percentage identity: 77&lt;br&gt;Percentage coverage: 96&lt;br&gt;BLAST bit score: 658&lt;br&gt;E-value: 5.7e-189" locus_tag="AIW58902.1" class="clusterblast-orf" id="dummy-1_h1_1_6"  />
</g>
<g id="a1_007"  >
<polygon points="91,85 96,80 105,80 105,90 96,90 91,85 " style="fill:#1515d8; stroke-width:1; stroke:black; " description="&lt;b&gt;AIW58895.1&lt;/b&gt;&lt;br&gt;putative ATPase AAA&lt;br&gt;Location: 16933 - 18021&lt;br&gt;&lt;br&gt;&lt;b&gt;BlastP hit with ctg48_15&lt;/b&gt;&lt;br&gt;Percentage identity: 78&lt;br&gt;Percentage coverage: 97&lt;br&gt;BLAST bit score: 552&lt;br&gt;E-value: 4.9e-157" locus_tag="AIW58895.1" class="clusterblast-orf" id="dummy-1_h1_1_7"  />
</g>
<g id="a1_008"  >
<polygon points="106,85 109,80 109,90 106,85 " style="fill:#d81597; stroke-width:1; stroke:black; " description="&lt;b&gt;AIW58894.1&lt;/b&gt;&lt;br&gt;hypothetical protein&lt;br&gt;Location: 18118 - 18354&lt;br&gt;&lt;br&gt;&lt;b&gt;BlastP hit with ctg48_16&lt;/b&gt;&lt;br&gt;Percentage identity: 77&lt;br&gt;Percentage coverage: 86&lt;br&gt;BLAST bit score: 115&lt;br&gt;E-value: 4.8e-26" locus_tag="AIW58894.1" class="clusterblast-orf" id="dummy-1_h1_1_8"  />
</g>
<g id="a1_009"  >
<polygon points="110,85 113,80 113,90 110,85 " style="fill:white; stroke-width:1; stroke:black; " description="&lt;b&gt;AIW58893.1&lt;/b&gt;&lt;br&gt;MbtH-like protein&lt;br&gt;Location: 18452 - 18670" locus_tag="AIW58893.1" class="clusterblast-orf" id="dummy-1_h1_1_9"  />
</g>
<g id="a1_0010"  >
<polygon points="113,85 118,80 670,80 670,90 118,90 113,85 " style="fill:#97d815; stroke-width:1; stroke:black; " description="&lt;b&gt;AIW58892.1&lt;/b&gt;&lt;br&gt;non-ribosomal peptide synthetase&lt;br&gt;Location: 18667 - 64446&lt;br&gt;&lt;br&gt;&lt;b&gt;BlastP hit with ctg48_17&lt;/b&gt;&lt;br&gt;Percentage identity: 67&lt;br&gt;Percentage coverage: 100&lt;br&gt;BLAST bit score: 3159&lt;br&gt;E-value: 0.0" locus_tag="AIW58892.1" class="clusterblast-orf" id="dummy-1_h1_1_10"  />
</g>
<g id="a1_0011"  >
<polygon points="677,90 704,90 709,85 704,80 677,80 677,90 " style="fill:white; stroke-width:1; stroke:black; " description="&lt;b&gt;AIW58891.1&lt;/b&gt;&lt;br&gt;putative serine/threonine protein kinase&lt;br&gt;Location: 65017 - 67695" locus_tag="AIW58891.1" class="clusterblast-orf" id="dummy-1_h1_1_11"  />
</g>
<g id="a1_0012"  >
<polygon points="709,85 712,80 712,90 709,85 " style="fill:white; stroke-width:1; stroke:black; " description="&lt;b&gt;AIW58890.1&lt;/b&gt;&lt;br&gt;hypothetical protein&lt;br&gt;Location: 67679 - 67879" locus_tag="AIW58890.1" class="clusterblast-orf" id="dummy-1_h1_1_12"  />
</g>
<g id="a1_0013"  >
<polygon points="713,85 718,80 718,80 718,90 718,90 713,85 " style="fill:white; stroke-width:1; stroke:black; " description="&lt;b&gt;AIW58889.1&lt;/b&gt;&lt;br&gt;hypothetical protein&lt;br&gt;Location: 67997 - 68434" locus_tag="AIW58889.1" class="clusterblast-orf" id="dummy-1_h1_1_13"  />
</g>
<g id="a1_0014"  >
<polygon points="722,90 724,85 722,80 722,90 " style="fill:white; stroke-width:1; stroke:black; " description="&lt;b&gt;AIW58888.1&lt;/b&gt;&lt;br&gt;hypothetical protein&lt;br&gt;Location: 68723 - 68926" locus_tag="AIW58888.1" class="clusterblast-orf" id="dummy-1_h1_1_14"  />
</g>
<g id="a1_0015"  >
<polygon points="726,90 731,90 736,85 731,80 726,80 726,90 " style="fill:white; stroke-width:1; stroke:black; " description="&lt;b&gt;AIW58887.1&lt;/b&gt;&lt;br&gt;LmbU and CloE-like protein&lt;br&gt;Location: 69086 - 69889" locus_tag="AIW58887.1" class="clusterblast-orf" id="dummy-1_h1_1_15"  />
</g>
<g id="a1_0016"  >
<polygon points="737,90 741,85 737,80 737,90 " style="fill:white; stroke-width:1; stroke:black; " description="&lt;b&gt;AIW58884.1&lt;/b&gt;&lt;br&gt;hypothetical protein&lt;br&gt;Location: 69991 - 70326" locus_tag="AIW58884.1" class="clusterblast-orf" id="dummy-1_h1_1_16"  />
</g>
<g id="a1_0017"  >
<polygon points="745,85 750,80 767,80 767,90 750,90 745,85 " style="fill:white; stroke-width:1; stroke:black; " description="&lt;b&gt;AIW58885.1&lt;/b&gt;&lt;br&gt;hypothetical protein&lt;br&gt;Location: 70607 - 72433" locus_tag="AIW58885.1" class="clusterblast-orf" id="dummy-1_h1_1_17"  />
</g>
<g id="a1_0018"  >
<polygon points="767,85 772,80 780,80 780,90 772,90 767,85 " style="fill:white; stroke-width:1; stroke:black; " description="&lt;b&gt;AIW58886.1&lt;/b&gt;&lt;br&gt;hypothetical protein&lt;br&gt;Location: 72433 - 73464" locus_tag="AIW58886.1" class="clusterblast-orf" id="dummy-1_h1_1_18"  />
</g>
</svg>
