<svg xmlns="http://www.w3.org/2000/svg" xmlns:xlink="http://www.w3.org/1999/xlink" version="1.1" x="0" y="0" height="230" width="800" viewBox="0 0 800 230" preserveAspectRatio="none"  >
<g label="Query sequence" class="clusterblast-cluster"  >
<text x="5" y="20" class="clusterblast-acc"  >
Query sequence</text>
<line x1="10" y1="35" x2="778.0" y2="35" style="stroke-width:1; stroke:grey; "  />
<polygon points="154,40 344,40 349,35 344,30 154,30 154,40 " style="fill:#d81515; stroke-width:1; stroke:black; " description="&lt;b&gt;ctg147_1&lt;/b&gt;&lt;br&gt;ctg147 1&lt;br&gt;Location: 2 - 5192" locus_tag="ctg147_1" class="clusterblast-orf" id="dummy-1_q0_0_all"  />
<polygon points="353,40 381,40 386,35 381,30 353,30 353,40 " style="fill:#15d815; stroke-width:1; stroke:black; " description="&lt;b&gt;ctg147_2&lt;/b&gt;&lt;br&gt;ctg147 2&lt;br&gt;Location: 5287 - 6163" locus_tag="ctg147_2" class="clusterblast-orf" id="dummy-1_q1_0_all"  />
<polygon points="386,40 411,40 416,35 411,30 386,30 386,40 " style="fill:#1515d8; stroke-width:1; stroke:black; " description="&lt;b&gt;ctg147_3&lt;/b&gt;&lt;br&gt;ctg147 3&lt;br&gt;Location: 6162 - 6969" locus_tag="ctg147_3" class="clusterblast-orf" id="dummy-1_q2_0_all"  />
<polygon points="419,35 424,30 471,30 471,40 424,40 419,35 " style="fill:white; stroke-width:1; stroke:black; " description="&lt;b&gt;ctg147_4&lt;/b&gt;&lt;br&gt;ctg147 4&lt;br&gt;Location: 7041 - 8427" locus_tag="ctg147_4" class="clusterblast-orf" id="dummy-1_q3_0_all"  />
<polygon points="489,35 494,30 531,30 531,40 494,40 489,35 " style="fill:#d815d8; stroke-width:1; stroke:black; " description="&lt;b&gt;ctg147_5&lt;/b&gt;&lt;br&gt;ctg147 5&lt;br&gt;Location: 8908 - 10027" locus_tag="ctg147_5" class="clusterblast-orf" id="dummy-1_q4_0_all"  />
<polygon points="535,35 540,30 595,30 595,40 540,40 535,35 " style="fill:#d8d815; stroke-width:1; stroke:black; " description="&lt;b&gt;ctg147_6&lt;/b&gt;&lt;br&gt;ctg147 6&lt;br&gt;Location: 10127 - 11711" locus_tag="ctg147_6" class="clusterblast-orf" id="dummy-1_q5_0_all"  />
<polygon points="596,35 601,30 619,30 619,40 601,40 596,35 " style="fill:#15d8d8; stroke-width:1; stroke:black; " description="&lt;b&gt;ctg147_7&lt;/b&gt;&lt;br&gt;ctg147 7&lt;br&gt;Location: 11741 - 12341" locus_tag="ctg147_7" class="clusterblast-orf" id="dummy-1_q6_0_all"  />
<polygon points="623,40 626,35 623,30 623,40 " style="fill:white; stroke-width:1; stroke:black; " description="&lt;b&gt;ctg147_8&lt;/b&gt;&lt;br&gt;ctg147 8&lt;br&gt;Location: 12461 - 12533" locus_tag="ctg147_8" class="clusterblast-orf" id="dummy-1_q7_0_all"  />
</g>
<g label="BGC0001341" description="BGC0001341_c1: Valinomycin (60% of genes show similarity), nrps" class="clusterblast-cluster"  >
<text x="5" y="70" class="clusterblast-acc"  >
<a xlink:href="https://mibig.secondarymetabolites.org/go/BGC0001341/1" target="_blank">BGC0001341</a>:                                                                      Valinomycin (60% of genes show similarity), nrps</text>
<line x1="10" y1="85" x2="778.0" y2="85" style="stroke-width:1; stroke:grey; "  />
</g>
<g id="a1_000"  >
<polygon points="0,90 374,90 379,85 374,80 0,80 0,90 " style="fill:white; stroke-width:1; stroke:black; " description="&lt;b&gt;A7979_04525&lt;/b&gt;&lt;br&gt;hypothetical protein&lt;br&gt;Location: 20722 - 10643" locus_tag="A7979_04525" class="clusterblast-orf" id="dummy-1_h1_1_0"  />
</g>
<g id="a1_001"  >
<polygon points="380,90 675,90 680,85 675,80 380,80 380,90 " style="fill:#d81515; stroke-width:1; stroke:black; " description="&lt;b&gt;A7979_04520&lt;/b&gt;&lt;br&gt;hypothetical protein&lt;br&gt;Location: 10610 - 2640&lt;br&gt;&lt;br&gt;&lt;b&gt;BlastP hit with ctg147_1&lt;/b&gt;&lt;br&gt;Percentage identity: 46&lt;br&gt;Percentage coverage: 100&lt;br&gt;BLAST bit score: 1390&lt;br&gt;E-value: 0.0" locus_tag="A7979_04520" class="clusterblast-orf" id="dummy-1_h1_1_1"  />
</g>
<g id="a1_002"  >
<polygon points="680,90 708,90 713,85 708,80 680,80 680,90 " style="fill:#15d815; stroke-width:1; stroke:black; " description="&lt;b&gt;A7979_04515&lt;/b&gt;&lt;br&gt;hypothetical protein&lt;br&gt;Location: 2643 - 1771&lt;br&gt;&lt;br&gt;&lt;b&gt;BlastP hit with ctg147_2&lt;/b&gt;&lt;br&gt;Percentage identity: 55&lt;br&gt;Percentage coverage: 100&lt;br&gt;BLAST bit score: 299&lt;br&gt;E-value: 4.5e-81" locus_tag="A7979_04515" class="clusterblast-orf" id="dummy-1_h1_1_2"  />
</g>
<g id="a1_003"  >
<polygon points="713,90 738,90 743,85 738,80 713,80 713,90 " style="fill:#1515d8; stroke-width:1; stroke:black; " description="&lt;b&gt;A7979_04510&lt;/b&gt;&lt;br&gt;hypothetical protein&lt;br&gt;Location: 1774 - 968&lt;br&gt;&lt;br&gt;&lt;b&gt;BlastP hit with ctg147_3&lt;/b&gt;&lt;br&gt;Percentage identity: 50&lt;br&gt;Percentage coverage: 99&lt;br&gt;BLAST bit score: 243&lt;br&gt;E-value: 4.6e-64" locus_tag="A7979_04510" class="clusterblast-orf" id="dummy-1_h1_1_3"  />
</g>
<g id="a1_004"  >
<polygon points="756,90 775,90 780,85 775,80 756,80 756,90 " style="fill:white; stroke-width:1; stroke:black; " description="&lt;b&gt;A7979_04505&lt;/b&gt;&lt;br&gt;hypothetical protein&lt;br&gt;Location: 633 - 1" locus_tag="A7979_04505" class="clusterblast-orf" id="dummy-1_h1_1_4"  />
</g>
</svg>
