<svg xmlns="http://www.w3.org/2000/svg" xmlns:xlink="http://www.w3.org/1999/xlink" version="1.1" x="0" y="0" height="230" width="800" viewBox="0 0 800 230" preserveAspectRatio="none"  >
<g label="Query sequence" class="clusterblast-cluster"  >
<text x="5" y="20" class="clusterblast-acc"  >
Query sequence</text>
<line x1="10" y1="35" x2="778.0" y2="35" style="stroke-width:1; stroke:grey; "  />
<polygon points="0,40 15,40 20,35 15,30 0,30 0,40 " style="fill:#d81515; stroke-width:1; stroke:black; " description="&lt;b&gt;ctg8_1&lt;/b&gt;&lt;br&gt;ctg8 1&lt;br&gt;Location: 34 - 1228" locus_tag="ctg8_1" class="clusterblast-orf" id="dummy-1_q0_0_all"  />
<polygon points="20,40 24,35 20,30 20,40 " style="fill:#56d815; stroke-width:1; stroke:black; " description="&lt;b&gt;ctg8_2&lt;/b&gt;&lt;br&gt;ctg8 2&lt;br&gt;Location: 1247 - 1463" locus_tag="ctg8_2" class="clusterblast-orf" id="dummy-1_q1_0_all"  />
<polygon points="24,40 38,40 43,35 38,30 24,30 24,40 " style="fill:#1597d8; stroke-width:1; stroke:black; " description="&lt;b&gt;ctg8_3&lt;/b&gt;&lt;br&gt;ctg8 3&lt;br&gt;Location: 1459 - 2614" locus_tag="ctg8_3" class="clusterblast-orf" id="dummy-1_q2_0_all"  />
<polygon points="44,40 70,40 75,35 70,30 44,30 44,40 " style="fill:#9715d8; stroke-width:1; stroke:black; " description="&lt;b&gt;ctg8_4&lt;/b&gt;&lt;br&gt;ctg8 4&lt;br&gt;Location: 2687 - 4496" locus_tag="ctg8_4" class="clusterblast-orf" id="dummy-1_q3_0_all"  />
<polygon points="75,40 77,40 82,35 77,30 75,30 75,40 " style="fill:#d85615; stroke-width:1; stroke:black; " description="&lt;b&gt;ctg8_5&lt;/b&gt;&lt;br&gt;ctg8 5&lt;br&gt;Location: 4492 - 4885" locus_tag="ctg8_5" class="clusterblast-orf" id="dummy-1_q4_0_all"  />
<polygon points="82,40 97,40 102,35 97,30 82,30 82,40 " style="fill:#15d815; stroke-width:1; stroke:black; " description="&lt;b&gt;ctg8_6&lt;/b&gt;&lt;br&gt;ctg8 6&lt;br&gt;Location: 4895 - 6089" locus_tag="ctg8_6" class="clusterblast-orf" id="dummy-1_q5_0_all"  />
<polygon points="103,40 111,40 116,35 111,30 103,30 103,40 " style="fill:#1556d8; stroke-width:1; stroke:black; " description="&lt;b&gt;ctg8_7&lt;/b&gt;&lt;br&gt;ctg8 7&lt;br&gt;Location: 6134 - 6944" locus_tag="ctg8_7" class="clusterblast-orf" id="dummy-1_q6_0_all"  />
<polygon points="116,35 121,30 125,30 125,40 121,40 116,35 " style="fill:#d815d8; stroke-width:1; stroke:black; " description="&lt;b&gt;ctg8_8&lt;/b&gt;&lt;br&gt;ctg8 8&lt;br&gt;Location: 6923 - 7457" locus_tag="ctg8_8" class="clusterblast-orf" id="dummy-1_q7_0_all"  />
<polygon points="125,40 128,35 125,30 125,40 " style="fill:white; stroke-width:1; stroke:black; " description="&lt;b&gt;ctg8_9&lt;/b&gt;&lt;br&gt;ctg8 9&lt;br&gt;Location: 7481 - 7646" locus_tag="ctg8_9" class="clusterblast-orf" id="dummy-1_q8_0_all"  />
<polygon points="133,35 138,30 153,30 153,40 138,40 133,35 " style="fill:#d89715; stroke-width:1; stroke:black; " description="&lt;b&gt;ctg8_10&lt;/b&gt;&lt;br&gt;ctg8 10&lt;br&gt;Location: 7953 - 9105" locus_tag="ctg8_10" class="clusterblast-orf" id="dummy-1_q9_0_all"  />
<polygon points="153,35 158,30 183,30 183,40 158,40 153,35 " style="fill:#15d856; stroke-width:1; stroke:black; " description="&lt;b&gt;ctg8_11&lt;/b&gt;&lt;br&gt;ctg8 11&lt;br&gt;Location: 9101 - 10916" locus_tag="ctg8_11" class="clusterblast-orf" id="dummy-1_q10_0_all"  />
<polygon points="184,35 189,30 201,30 201,40 189,40 184,35 " style="fill:#1515d8; stroke-width:1; stroke:black; " description="&lt;b&gt;ctg8_12&lt;/b&gt;&lt;br&gt;ctg8 12&lt;br&gt;Location: 10927 - 11929" locus_tag="ctg8_12" class="clusterblast-orf" id="dummy-1_q11_0_all"  />
<polygon points="204,40 213,40 218,35 213,30 204,30 204,40 " style="fill:#d81597; stroke-width:1; stroke:black; " description="&lt;b&gt;ctg8_13&lt;/b&gt;&lt;br&gt;ctg8 13&lt;br&gt;Location: 12135 - 12939" locus_tag="ctg8_13" class="clusterblast-orf" id="dummy-1_q12_0_all"  />
<polygon points="218,35 223,30 229,30 229,40 223,40 218,35 " style="fill:white; stroke-width:1; stroke:black; " description="&lt;b&gt;ctg8_14&lt;/b&gt;&lt;br&gt;ctg8 14&lt;br&gt;Location: 12961 - 13627" locus_tag="ctg8_14" class="clusterblast-orf" id="dummy-1_q13_0_all"  />
<polygon points="232,40 275,40 280,35 275,30 232,30 232,40 " style="fill:white; stroke-width:1; stroke:black; " description="&lt;b&gt;ctg8_15&lt;/b&gt;&lt;br&gt;ctg8 15&lt;br&gt;Location: 13762 - 16624" locus_tag="ctg8_15" class="clusterblast-orf" id="dummy-1_q14_0_all"  />
<polygon points="281,40 283,40 288,35 283,30 281,30 281,40 " style="fill:white; stroke-width:1; stroke:black; " description="&lt;b&gt;ctg8_16&lt;/b&gt;&lt;br&gt;ctg8 16&lt;br&gt;Location: 16678 - 17080" locus_tag="ctg8_16" class="clusterblast-orf" id="dummy-1_q15_0_all"  />
<polygon points="288,40 296,40 301,35 296,30 288,30 288,40 " style="fill:white; stroke-width:1; stroke:black; " description="&lt;b&gt;ctg8_17&lt;/b&gt;&lt;br&gt;ctg8 17&lt;br&gt;Location: 17081 - 17846" locus_tag="ctg8_17" class="clusterblast-orf" id="dummy-1_q16_0_all"  />
<polygon points="301,35 306,30 329,30 329,40 306,40 301,35 " style="fill:white; stroke-width:1; stroke:black; " description="&lt;b&gt;ctg8_18&lt;/b&gt;&lt;br&gt;ctg8 18&lt;br&gt;Location: 17897 - 19535" locus_tag="ctg8_18" class="clusterblast-orf" id="dummy-1_q17_0_all"  />
<polygon points="329,35 334,30 338,30 338,40 334,40 329,35 " style="fill:white; stroke-width:1; stroke:black; " description="&lt;b&gt;ctg8_19&lt;/b&gt;&lt;br&gt;ctg8 19&lt;br&gt;Location: 19531 - 20044" locus_tag="ctg8_19" class="clusterblast-orf" id="dummy-1_q18_0_all"  />
<polygon points="338,35 343,30 348,30 348,40 343,40 338,35 " style="fill:white; stroke-width:1; stroke:black; " description="&lt;b&gt;ctg8_20&lt;/b&gt;&lt;br&gt;ctg8 20&lt;br&gt;Location: 20040 - 20667" locus_tag="ctg8_20" class="clusterblast-orf" id="dummy-1_q19_0_all"  />
<polygon points="351,35 356,30 366,30 366,40 356,40 351,35 " style="fill:white; stroke-width:1; stroke:black; " description="&lt;b&gt;ctg8_21&lt;/b&gt;&lt;br&gt;ctg8 21&lt;br&gt;Location: 20806 - 21709" locus_tag="ctg8_21" class="clusterblast-orf" id="dummy-1_q20_0_all"  />
<polygon points="374,40 410,40 415,35 410,30 374,30 374,40 " style="fill:white; stroke-width:1; stroke:black; " description="&lt;b&gt;ctg8_22&lt;/b&gt;&lt;br&gt;ctg8 22&lt;br&gt;Location: 22167 - 24606" locus_tag="ctg8_22" class="clusterblast-orf" id="dummy-1_q21_0_all"  />
<polygon points="415,40 447,40 452,35 447,30 415,30 415,40 " style="fill:white; stroke-width:1; stroke:black; " description="&lt;b&gt;ctg8_23&lt;/b&gt;&lt;br&gt;ctg8 23&lt;br&gt;Location: 24606 - 26832" locus_tag="ctg8_23" class="clusterblast-orf" id="dummy-1_q22_0_all"  />
<polygon points="454,40 467,40 472,35 467,30 454,30 454,40 " style="fill:#d8d815; stroke-width:1; stroke:black; " description="&lt;b&gt;ctg8_24&lt;/b&gt;&lt;br&gt;ctg8 24&lt;br&gt;Location: 26957 - 28010" locus_tag="ctg8_24" class="clusterblast-orf" id="dummy-1_q23_0_all"  />
<polygon points="472,40 485,40 490,35 485,30 472,30 472,40 " style="fill:#15d897; stroke-width:1; stroke:black; " description="&lt;b&gt;ctg8_25&lt;/b&gt;&lt;br&gt;ctg8 25&lt;br&gt;Location: 28006 - 29050" locus_tag="ctg8_25" class="clusterblast-orf" id="dummy-1_q24_0_all"  />
<polygon points="490,40 502,40 507,35 502,30 490,30 490,40 " style="fill:#5615d8; stroke-width:1; stroke:black; " description="&lt;b&gt;ctg8_26&lt;/b&gt;&lt;br&gt;ctg8 26&lt;br&gt;Location: 29061 - 30072" locus_tag="ctg8_26" class="clusterblast-orf" id="dummy-1_q25_0_all"  />
<polygon points="507,35 512,30 515,30 515,40 512,40 507,35 " style="fill:#d81556; stroke-width:1; stroke:black; " description="&lt;b&gt;ctg8_27&lt;/b&gt;&lt;br&gt;ctg8 27&lt;br&gt;Location: 30084 - 30567" locus_tag="ctg8_27" class="clusterblast-orf" id="dummy-1_q26_0_all"  />
<polygon points="518,40 534,40 539,35 534,30 518,30 518,40 " style="fill:#97d815; stroke-width:1; stroke:black; " description="&lt;b&gt;ctg8_28&lt;/b&gt;&lt;br&gt;ctg8 28&lt;br&gt;Location: 30746 - 31988" locus_tag="ctg8_28" class="clusterblast-orf" id="dummy-1_q27_0_all"  />
<polygon points="539,40 543,35 539,30 539,40 " style="fill:#15d8d8; stroke-width:1; stroke:black; " description="&lt;b&gt;ctg8_29&lt;/b&gt;&lt;br&gt;ctg8 29&lt;br&gt;Location: 31984 - 32185" locus_tag="ctg8_29" class="clusterblast-orf" id="dummy-1_q28_0_all"  />
<polygon points="544,35 549,30 566,30 566,40 549,40 544,35 " style="fill:white; stroke-width:1; stroke:black; " description="&lt;b&gt;ctg8_30&lt;/b&gt;&lt;br&gt;ctg8 30&lt;br&gt;Location: 32242 - 33541" locus_tag="ctg8_30" class="clusterblast-orf" id="dummy-1_q29_0_all"  />
<polygon points="567,35 571,30 571,40 567,35 " style="fill:white; stroke-width:1; stroke:black; " description="&lt;b&gt;ctg8_31&lt;/b&gt;&lt;br&gt;ctg8 31&lt;br&gt;Location: 33610 - 33826" locus_tag="ctg8_31" class="clusterblast-orf" id="dummy-1_q30_0_all"  />
<polygon points="570,35 575,30 597,30 597,40 575,40 570,35 " style="fill:white; stroke-width:1; stroke:black; " description="&lt;b&gt;ctg8_32&lt;/b&gt;&lt;br&gt;ctg8 32&lt;br&gt;Location: 33822 - 35376" locus_tag="ctg8_32" class="clusterblast-orf" id="dummy-1_q31_0_all"  />
<polygon points="596,35 601,30 653,30 653,40 601,40 596,35 " style="fill:white; stroke-width:1; stroke:black; " description="&lt;b&gt;ctg8_33&lt;/b&gt;&lt;br&gt;ctg8 33&lt;br&gt;Location: 35359 - 38725" locus_tag="ctg8_33" class="clusterblast-orf" id="dummy-1_q32_0_all"  />
<polygon points="653,35 658,30 683,30 683,40 658,40 653,35 " style="fill:white; stroke-width:1; stroke:black; " description="&lt;b&gt;ctg8_34&lt;/b&gt;&lt;br&gt;ctg8 34&lt;br&gt;Location: 38721 - 40512" locus_tag="ctg8_34" class="clusterblast-orf" id="dummy-1_q33_0_all"  />
<polygon points="683,35 688,30 780,30 780,40 688,40 683,35 " style="fill:white; stroke-width:1; stroke:black; " description="&lt;b&gt;ctg8_35&lt;/b&gt;&lt;br&gt;ctg8 35&lt;br&gt;Location: 40511 - 46208" locus_tag="ctg8_35" class="clusterblast-orf" id="dummy-1_q34_0_all"  />
</g>
<g label="BGC0001193" description="BGC0001193_c1: Thiolutin (8% of genes show similarity), nrps" class="clusterblast-cluster"  >
<text x="5" y="70" class="clusterblast-acc"  >
<a xlink:href="https://mibig.secondarymetabolites.org/go/BGC0001193/1" target="_blank">BGC0001193</a>:                                                                        Thiolutin (8% of genes show similarity), nrps</text>
<line x1="10" y1="85" x2="778.0" y2="85" style="stroke-width:1; stroke:grey; "  />
</g>
<g id="a1_000"  >
<polygon points="48,90 110,90 115,85 110,80 48,80 48,90 " style="fill:white; stroke-width:1; stroke:black; " description="&lt;b&gt;AJI44190.1&lt;/b&gt;&lt;br&gt;hypothetical protein&lt;br&gt;Location: 40556 - 36576" locus_tag="AJI44190.1" class="clusterblast-orf" id="dummy-1_h1_9_0"  />
</g>
<g id="a1_001"  >
<polygon points="114,85 119,80 141,80 141,90 119,90 114,85 " style="fill:white; stroke-width:1; stroke:black; " description="&lt;b&gt;AJI44189.1&lt;/b&gt;&lt;br&gt;hypothetical protein&lt;br&gt;Location: 36606 - 35017" locus_tag="AJI44189.1" class="clusterblast-orf" id="dummy-1_h1_9_1"  />
</g>
<g id="a1_002"  >
<polygon points="142,85 147,80 156,80 156,90 147,90 142,85 " style="fill:white; stroke-width:1; stroke:black; " description="&lt;b&gt;AJI44188.1&lt;/b&gt;&lt;br&gt;hypothetical protein&lt;br&gt;Location: 34984 - 34160" locus_tag="AJI44188.1" class="clusterblast-orf" id="dummy-1_h1_9_2"  />
</g>
<g id="a1_003"  >
<polygon points="156,85 161,80 181,80 181,90 161,90 156,85 " style="fill:white; stroke-width:1; stroke:black; " description="&lt;b&gt;AJI44187.1&lt;/b&gt;&lt;br&gt;hypothetical protein&lt;br&gt;Location: 34125 - 32665" locus_tag="AJI44187.1" class="clusterblast-orf" id="dummy-1_h1_9_3"  />
</g>
<g id="a1_004"  >
<polygon points="192,85 197,80 234,80 234,90 197,90 192,85 " style="fill:white; stroke-width:1; stroke:black; " description="&lt;b&gt;AJI44186.1&lt;/b&gt;&lt;br&gt;hypothetical protein&lt;br&gt;Location: 31991 - 29514" locus_tag="AJI44186.1" class="clusterblast-orf" id="dummy-1_h1_9_4"  />
</g>
<g id="a1_005"  >
<polygon points="234,85 239,80 247,80 247,90 239,90 234,85 " style="fill:white; stroke-width:1; stroke:black; " description="&lt;b&gt;AJI44185.1&lt;/b&gt;&lt;br&gt;hypothetical protein&lt;br&gt;Location: 29517 - 28756" locus_tag="AJI44185.1" class="clusterblast-orf" id="dummy-1_h1_9_5"  />
</g>
<g id="a1_006"  >
<polygon points="250,90 272,90 277,85 272,80 250,80 250,90 " style="fill:white; stroke-width:1; stroke:black; " description="&lt;b&gt;AJI44184.1&lt;/b&gt;&lt;br&gt;drug resistance transporter EmrB/QacA&lt;br&gt;Location: 28592 - 26997" locus_tag="AJI44184.1" class="clusterblast-orf" id="dummy-1_h1_9_6"  />
</g>
<g id="a1_007"  >
<polygon points="279,85 284,80 295,80 295,90 284,90 279,85 " style="fill:white; stroke-width:1; stroke:black; " description="&lt;b&gt;AJI44183.1&lt;/b&gt;&lt;br&gt;thioredoxin reductase&lt;br&gt;Location: 26871 - 25921" locus_tag="AJI44183.1" class="clusterblast-orf" id="dummy-1_h1_9_7"  />
</g>
<g id="a1_008"  >
<polygon points="296,90 301,90 306,85 301,80 296,80 296,90 " style="fill:white; stroke-width:1; stroke:black; " description="&lt;b&gt;AJI44182.1&lt;/b&gt;&lt;br&gt;putative regulatory protein&lt;br&gt;Location: 25832 - 25245" locus_tag="AJI44182.1" class="clusterblast-orf" id="dummy-1_h1_9_8"  />
</g>
<g id="a1_009"  >
<polygon points="309,90 328,90 333,85 328,80 309,80 309,90 " style="fill:white; stroke-width:1; stroke:black; " description="&lt;b&gt;AJI44181.1&lt;/b&gt;&lt;br&gt;hypothetical protein&lt;br&gt;Location: 25058 - 23643" locus_tag="AJI44181.1" class="clusterblast-orf" id="dummy-1_h1_9_9"  />
</g>
<g id="a1_0010"  >
<polygon points="339,85 344,80 346,80 346,90 344,90 339,85 " style="fill:white; stroke-width:1; stroke:black; " description="&lt;b&gt;AJI44180.1&lt;/b&gt;&lt;br&gt;globin&lt;br&gt;Location: 23315 - 22872" locus_tag="AJI44180.1" class="clusterblast-orf" id="dummy-1_h1_9_10"  />
</g>
<g id="a1_0011"  >
<polygon points="347,85 352,80 366,80 366,90 352,90 347,85 " style="fill:white; stroke-width:1; stroke:black; " description="&lt;b&gt;AJI44179.1&lt;/b&gt;&lt;br&gt;hypothetical protein&lt;br&gt;Location: 22827 - 21685" locus_tag="AJI44179.1" class="clusterblast-orf" id="dummy-1_h1_9_11"  />
</g>
<g id="a1_0012"  >
<polygon points="366,85 371,80 379,80 379,90 371,90 366,85 " style="fill:white; stroke-width:1; stroke:black; " description="&lt;b&gt;AJI44178.1&lt;/b&gt;&lt;br&gt;hypothetical protein&lt;br&gt;Location: 21683 - 20937" locus_tag="AJI44178.1" class="clusterblast-orf" id="dummy-1_h1_9_12"  />
</g>
<g id="a1_0013"  >
<polygon points="379,85 384,80 405,80 405,90 384,90 379,85 " style="fill:white; stroke-width:1; stroke:black; " description="&lt;b&gt;AJI44177.1&lt;/b&gt;&lt;br&gt;glucose-methanol-choline oxidoreductase&lt;br&gt;Location: 20931 - 19381" locus_tag="AJI44177.1" class="clusterblast-orf" id="dummy-1_h1_9_13"  />
</g>
<g id="a1_0014"  >
<polygon points="405,85 410,80 458,80 458,90 410,90 405,85 " style="fill:white; stroke-width:1; stroke:black; " description="&lt;b&gt;AJI44176.1&lt;/b&gt;&lt;br&gt;nonribosomal peptide synthetase&lt;br&gt;Location: 19384 - 16250" locus_tag="AJI44176.1" class="clusterblast-orf" id="dummy-1_h1_9_14"  />
</g>
<g id="a1_0015"  >
<polygon points="464,90 469,90 474,85 469,80 464,80 464,90 " style="fill:white; stroke-width:1; stroke:black; " description="&lt;b&gt;AJI44175.1&lt;/b&gt;&lt;br&gt;phosphopantothenoylcysteine decarboxylase&lt;br&gt;Location: 15913 - 15332" locus_tag="AJI44175.1" class="clusterblast-orf" id="dummy-1_h1_9_15"  />
</g>
<g id="a1_0016"  >
<polygon points="475,85 480,80 491,80 491,90 480,90 475,85 " style="fill:white; stroke-width:1; stroke:black; " description="&lt;b&gt;AJI44174.1&lt;/b&gt;&lt;br&gt;streptomycin biosynthesis operon regulator&lt;br&gt;Location: 15279 - 14314" locus_tag="AJI44174.1" class="clusterblast-orf" id="dummy-1_h1_9_16"  />
</g>
<g id="a1_0017"  >
<polygon points="504,90 510,90 515,85 510,80 504,80 504,90 " style="fill:white; stroke-width:1; stroke:black; " description="&lt;b&gt;AJI44191.1&lt;/b&gt;&lt;br&gt;hypothetical protein&lt;br&gt;Location: 13524 - 12859" locus_tag="AJI44191.1" class="clusterblast-orf" id="dummy-1_h1_9_17"  />
</g>
<g id="a1_0018"  >
<polygon points="528,90 532,85 528,80 528,90 " style="fill:#56d815; stroke-width:1; stroke:black; " description="&lt;b&gt;AJI44173.1&lt;/b&gt;&lt;br&gt;ferredoxin&lt;br&gt;Location: 12107 - 11901&lt;br&gt;&lt;br&gt;&lt;b&gt;BlastP hit with ctg8_2&lt;/b&gt;&lt;br&gt;Percentage identity: 55&lt;br&gt;Percentage coverage: 87&lt;br&gt;BLAST bit score: 69&lt;br&gt;E-value: 2.4e-12" locus_tag="AJI44173.1" class="clusterblast-orf" id="dummy-1_h1_9_18"  />
</g>
<g id="a1_0019"  >
<polygon points="532,90 547,90 552,85 547,80 532,80 532,90 " style="fill:#1597d8; stroke-width:1; stroke:black; " description="&lt;b&gt;AJI44172.1&lt;/b&gt;&lt;br&gt;ferredoxin reductase&lt;br&gt;Location: 11886 - 10714&lt;br&gt;&lt;br&gt;&lt;b&gt;BlastP hit with ctg8_3&lt;/b&gt;&lt;br&gt;Percentage identity: 55&lt;br&gt;Percentage coverage: 97&lt;br&gt;BLAST bit score: 360&lt;br&gt;E-value: 3.7e-99" locus_tag="AJI44172.1" class="clusterblast-orf" id="dummy-1_h1_9_19"  />
</g>
<g id="a1_0020"  >
<polygon points="552,90 568,90 573,85 568,80 552,80 552,90 " style="fill:white; stroke-width:1; stroke:black; " description="&lt;b&gt;AJI44171.1&lt;/b&gt;&lt;br&gt;cytochrome P450 hydroxylase&lt;br&gt;Location: 10681 - 9461" locus_tag="AJI44171.1" class="clusterblast-orf" id="dummy-1_h1_9_20"  />
</g>
<g id="a1_0021"  >
<polygon points="576,85 581,80 602,80 602,90 581,90 576,85 " style="fill:white; stroke-width:1; stroke:black; " description="&lt;b&gt;AJI44170.1&lt;/b&gt;&lt;br&gt;hypothetical protein&lt;br&gt;Location: 9277 - 7727" locus_tag="AJI44170.1" class="clusterblast-orf" id="dummy-1_h1_9_21"  />
</g>
<g id="a1_0022"  >
<polygon points="605,85 610,80 623,80 623,90 610,90 605,85 " style="fill:white; stroke-width:1; stroke:black; " description="&lt;b&gt;AJI44169.1&lt;/b&gt;&lt;br&gt;2-keto-3-deoxy-D-arabino-heptulosonate-7&lt;br&gt;Location: 7544 - 6516" locus_tag="AJI44169.1" class="clusterblast-orf" id="dummy-1_h1_9_22"  />
</g>
<g id="a1_0023"  >
<polygon points="622,85 627,80 646,80 646,90 627,90 622,85 " style="fill:white; stroke-width:1; stroke:black; " description="&lt;b&gt;AJI44168.1&lt;/b&gt;&lt;br&gt;hypothetical protein&lt;br&gt;Location: 6523 - 5138" locus_tag="AJI44168.1" class="clusterblast-orf" id="dummy-1_h1_9_23"  />
</g>
<g id="a1_0024"  >
<polygon points="646,85 651,80 731,80 731,90 651,90 646,85 " style="fill:white; stroke-width:1; stroke:black; " description="&lt;b&gt;AJI44167.1&lt;/b&gt;&lt;br&gt;long-chain-fatty-acid-CoA ligase&lt;br&gt;Location: 5129 - 72" locus_tag="AJI44167.1" class="clusterblast-orf" id="dummy-1_h1_9_24"  />
</g>
</svg>
