<svg xmlns="http://www.w3.org/2000/svg" xmlns:xlink="http://www.w3.org/1999/xlink" version="1.1" x="0" y="0" height="230" width="800" viewBox="0 0 800 230" preserveAspectRatio="none"  >
<g label="Query sequence" class="clusterblast-cluster"  >
<text x="5" y="20" class="clusterblast-acc"  >
Query sequence</text>
<line x1="10" y1="35" x2="778.0" y2="35" style="stroke-width:1; stroke:grey; "  />
<polygon points="228,40 231,40 236,35 231,30 228,30 228,40 " style="fill:white; stroke-width:1; stroke:black; " description="&lt;b&gt;ctg1_19&lt;/b&gt;&lt;br&gt;ctg1 19&lt;br&gt;Location: 20789 - 22121" locus_tag="ctg1_19" class="clusterblast-orf" id="dummy-1_q0_0_all"  />
<polygon points="236,40 237,35 236,30 236,40 " style="fill:white; stroke-width:1; stroke:black; " description="&lt;b&gt;ctg1_20&lt;/b&gt;&lt;br&gt;ctg1 20&lt;br&gt;Location: 22126 - 22333" locus_tag="ctg1_20" class="clusterblast-orf" id="dummy-1_q1_0_all"  />
<polygon points="238,40 242,35 238,30 238,40 " style="fill:white; stroke-width:1; stroke:black; " description="&lt;b&gt;ctg1_21&lt;/b&gt;&lt;br&gt;ctg1 21&lt;br&gt;Location: 22451 - 23111" locus_tag="ctg1_21" class="clusterblast-orf" id="dummy-1_q2_0_all"  />
<polygon points="242,35 247,30 249,30 249,40 247,40 242,35 " style="fill:#d81515; stroke-width:1; stroke:black; " description="&lt;b&gt;ctg1_22&lt;/b&gt;&lt;br&gt;ctg1 22&lt;br&gt;Location: 23130 - 24201" locus_tag="ctg1_22" class="clusterblast-orf" id="dummy-1_q3_0_all"  />
<polygon points="249,35 254,30 256,30 256,40 254,40 249,35 " style="fill:#4dd815; stroke-width:1; stroke:black; " description="&lt;b&gt;ctg1_23&lt;/b&gt;&lt;br&gt;ctg1 23&lt;br&gt;Location: 24197 - 25307" locus_tag="ctg1_23" class="clusterblast-orf" id="dummy-1_q4_0_all"  />
<polygon points="256,35 261,30 264,30 264,40 261,40 256,35 " style="fill:white; stroke-width:1; stroke:black; " description="&lt;b&gt;ctg1_24&lt;/b&gt;&lt;br&gt;ctg1 24&lt;br&gt;Location: 25334 - 26705" locus_tag="ctg1_24" class="clusterblast-orf" id="dummy-1_q5_0_all"  />
<polygon points="264,35 269,30 269,30 269,40 269,40 264,35 " style="fill:white; stroke-width:1; stroke:black; " description="&lt;b&gt;ctg1_25&lt;/b&gt;&lt;br&gt;ctg1 25&lt;br&gt;Location: 26701 - 27508" locus_tag="ctg1_25" class="clusterblast-orf" id="dummy-1_q6_0_all"  />
<polygon points="269,35 274,30 274,30 274,40 274,40 269,35 " style="fill:white; stroke-width:1; stroke:black; " description="&lt;b&gt;ctg1_26&lt;/b&gt;&lt;br&gt;ctg1 26&lt;br&gt;Location: 27507 - 28320" locus_tag="ctg1_26" class="clusterblast-orf" id="dummy-1_q7_0_all"  />
<polygon points="274,35 277,30 277,40 274,35 " style="fill:white; stroke-width:1; stroke:black; " description="&lt;b&gt;ctg1_27&lt;/b&gt;&lt;br&gt;ctg1 27&lt;br&gt;Location: 28316 - 28772" locus_tag="ctg1_27" class="clusterblast-orf" id="dummy-1_q8_0_all"  />
<polygon points="277,35 282,30 284,30 284,40 282,40 277,35 " style="fill:white; stroke-width:1; stroke:black; " description="&lt;b&gt;ctg1_28&lt;/b&gt;&lt;br&gt;ctg1 28&lt;br&gt;Location: 28768 - 29938" locus_tag="ctg1_28" class="clusterblast-orf" id="dummy-1_q9_0_all"  />
<polygon points="284,35 286,30 286,40 284,35 " style="fill:#1585d8; stroke-width:1; stroke:black; " description="&lt;b&gt;ctg1_29&lt;/b&gt;&lt;br&gt;ctg1 29&lt;br&gt;Location: 29934 - 30219" locus_tag="ctg1_29" class="clusterblast-orf" id="dummy-1_q10_0_all"  />
<polygon points="286,35 291,30 300,30 300,40 291,40 286,35 " style="fill:white; stroke-width:1; stroke:black; " description="&lt;b&gt;ctg1_30&lt;/b&gt;&lt;br&gt;ctg1 30&lt;br&gt;Location: 30191 - 32564" locus_tag="ctg1_30" class="clusterblast-orf" id="dummy-1_q11_0_all"  />
<polygon points="300,35 304,30 304,40 300,35 " style="fill:white; stroke-width:1; stroke:black; " description="&lt;b&gt;ctg1_31&lt;/b&gt;&lt;br&gt;ctg1 31&lt;br&gt;Location: 32556 - 33078" locus_tag="ctg1_31" class="clusterblast-orf" id="dummy-1_q12_0_all"  />
<polygon points="305,40 315,40 320,35 315,30 305,30 305,40 " style="fill:white; stroke-width:1; stroke:black; " description="&lt;b&gt;ctg1_32&lt;/b&gt;&lt;br&gt;ctg1 32&lt;br&gt;Location: 33274 - 35701" locus_tag="ctg1_32" class="clusterblast-orf" id="dummy-1_q13_0_all"  />
<polygon points="322,35 327,30 331,30 331,40 327,40 322,35 " style="fill:white; stroke-width:1; stroke:black; " description="&lt;b&gt;ctg1_33&lt;/b&gt;&lt;br&gt;ctg1 33&lt;br&gt;Location: 36030 - 37515" locus_tag="ctg1_33" class="clusterblast-orf" id="dummy-1_q14_0_all"  />
<polygon points="333,35 338,30 338,30 338,40 338,40 333,35 " style="fill:white; stroke-width:1; stroke:black; " description="&lt;b&gt;ctg1_34&lt;/b&gt;&lt;br&gt;ctg1 34&lt;br&gt;Location: 37865 - 38705" locus_tag="ctg1_34" class="clusterblast-orf" id="dummy-1_q15_0_all"  />
<polygon points="341,35 346,30 349,30 349,40 346,40 341,35 " style="fill:#d815bc; stroke-width:1; stroke:black; " description="&lt;b&gt;ctg1_35&lt;/b&gt;&lt;br&gt;ctg1 35&lt;br&gt;Location: 39094 - 40438" locus_tag="ctg1_35" class="clusterblast-orf" id="dummy-1_q16_0_all"  />
<polygon points="349,35 354,30 364,30 364,40 354,40 349,35 " style="fill:#d8bc15; stroke-width:1; stroke:black; " description="&lt;b&gt;ctg1_36&lt;/b&gt;&lt;br&gt;ctg1 36&lt;br&gt;Location: 40484 - 42905" locus_tag="ctg1_36" class="clusterblast-orf" id="dummy-1_q17_0_all"  />
<polygon points="364,35 369,30 434,30 434,40 369,40 364,35 " style="fill:#d8bc15; stroke-width:1; stroke:black; " description="&lt;b&gt;ctg1_37&lt;/b&gt;&lt;br&gt;ctg1 37&lt;br&gt;Location: 42901 - 54178" locus_tag="ctg1_37" class="clusterblast-orf" id="dummy-1_q18_0_all"  />
<polygon points="434,35 435,30 435,40 434,35 " style="fill:white; stroke-width:1; stroke:black; " description="&lt;b&gt;ctg1_38&lt;/b&gt;&lt;br&gt;ctg1 38&lt;br&gt;Location: 54170 - 54281" locus_tag="ctg1_38" class="clusterblast-orf" id="dummy-1_q19_0_all"  />
<polygon points="441,40 447,40 452,35 447,30 441,30 441,40 " style="fill:#15d885; stroke-width:1; stroke:black; " description="&lt;b&gt;ctg1_39&lt;/b&gt;&lt;br&gt;ctg1 39&lt;br&gt;Location: 55265 - 57056" locus_tag="ctg1_39" class="clusterblast-orf" id="dummy-1_q20_0_all"  />
<polygon points="452,40 453,40 458,35 453,30 452,30 452,40 " style="fill:#4d15d8; stroke-width:1; stroke:black; " description="&lt;b&gt;ctg1_40&lt;/b&gt;&lt;br&gt;ctg1 40&lt;br&gt;Location: 57055 - 58054" locus_tag="ctg1_40" class="clusterblast-orf" id="dummy-1_q21_0_all"  />
<polygon points="460,35 462,30 462,40 460,35 " style="fill:white; stroke-width:1; stroke:black; " description="&lt;b&gt;ctg1_41&lt;/b&gt;&lt;br&gt;ctg1 41&lt;br&gt;Location: 58327 - 58720" locus_tag="ctg1_41" class="clusterblast-orf" id="dummy-1_q22_0_all"  />
<polygon points="462,35 462,30 462,40 462,35 " style="fill:white; stroke-width:1; stroke:black; " description="&lt;b&gt;ctg1_42&lt;/b&gt;&lt;br&gt;ctg1 42&lt;br&gt;Location: 58716 - 58809" locus_tag="ctg1_42" class="clusterblast-orf" id="dummy-1_q23_0_all"  />
<polygon points="463,40 466,35 463,30 463,40 " style="fill:white; stroke-width:1; stroke:black; " description="&lt;b&gt;ctg1_43&lt;/b&gt;&lt;br&gt;ctg1 43&lt;br&gt;Location: 58839 - 59445" locus_tag="ctg1_43" class="clusterblast-orf" id="dummy-1_q24_0_all"  />
<polygon points="466,40 467,40 472,35 467,30 466,30 466,40 " style="fill:white; stroke-width:1; stroke:black; " description="&lt;b&gt;ctg1_44&lt;/b&gt;&lt;br&gt;ctg1 44&lt;br&gt;Location: 59441 - 60344" locus_tag="ctg1_44" class="clusterblast-orf" id="dummy-1_q25_0_all"  />
<polygon points="472,40 484,40 489,35 484,30 472,30 472,40 " style="fill:white; stroke-width:1; stroke:black; " description="&lt;b&gt;ctg1_45&lt;/b&gt;&lt;br&gt;ctg1 45&lt;br&gt;Location: 60340 - 63115" locus_tag="ctg1_45" class="clusterblast-orf" id="dummy-1_q26_0_all"  />
<polygon points="493,35 498,30 500,30 500,40 498,40 493,35 " style="fill:white; stroke-width:1; stroke:black; " description="&lt;b&gt;ctg1_46&lt;/b&gt;&lt;br&gt;ctg1 46&lt;br&gt;Location: 63678 - 64821" locus_tag="ctg1_46" class="clusterblast-orf" id="dummy-1_q27_0_all"  />
<polygon points="501,35 503,30 503,40 501,35 " style="fill:white; stroke-width:1; stroke:black; " description="&lt;b&gt;ctg1_47&lt;/b&gt;&lt;br&gt;ctg1 47&lt;br&gt;Location: 64988 - 65348" locus_tag="ctg1_47" class="clusterblast-orf" id="dummy-1_q28_0_all"  />
<polygon points="504,40 504,35 504,30 504,40 " style="fill:white; stroke-width:1; stroke:black; " description="&lt;b&gt;ctg1_48&lt;/b&gt;&lt;br&gt;ctg1 48&lt;br&gt;Location: 65498 - 65594" locus_tag="ctg1_48" class="clusterblast-orf" id="dummy-1_q29_0_all"  />
<polygon points="505,35 510,30 511,30 511,40 510,40 505,35 " style="fill:white; stroke-width:1; stroke:black; " description="&lt;b&gt;ctg1_49&lt;/b&gt;&lt;br&gt;ctg1 49&lt;br&gt;Location: 65762 - 66668" locus_tag="ctg1_49" class="clusterblast-orf" id="dummy-1_q30_0_all"  />
<polygon points="511,35 516,30 518,30 518,40 516,40 511,35 " style="fill:white; stroke-width:1; stroke:black; " description="&lt;b&gt;ctg1_50&lt;/b&gt;&lt;br&gt;ctg1 50&lt;br&gt;Location: 66720 - 67803" locus_tag="ctg1_50" class="clusterblast-orf" id="dummy-1_q31_0_all"  />
<polygon points="518,35 523,30 525,30 525,40 523,40 518,35 " style="fill:white; stroke-width:1; stroke:black; " description="&lt;b&gt;ctg1_51&lt;/b&gt;&lt;br&gt;ctg1 51&lt;br&gt;Location: 67850 - 68861" locus_tag="ctg1_51" class="clusterblast-orf" id="dummy-1_q32_0_all"  />
<polygon points="527,35 528,30 528,40 527,35 " style="fill:white; stroke-width:1; stroke:black; " description="&lt;b&gt;ctg1_52&lt;/b&gt;&lt;br&gt;ctg1 52&lt;br&gt;Location: 69275 - 69461" locus_tag="ctg1_52" class="clusterblast-orf" id="dummy-1_q33_0_all"  />
<polygon points="529,35 534,30 534,30 534,40 534,40 529,35 " style="fill:white; stroke-width:1; stroke:black; " description="&lt;b&gt;ctg1_53&lt;/b&gt;&lt;br&gt;ctg1 53&lt;br&gt;Location: 69605 - 70400" locus_tag="ctg1_53" class="clusterblast-orf" id="dummy-1_q34_0_all"  />
<polygon points="535,40 535,40 540,35 535,30 535,30 535,40 " style="fill:white; stroke-width:1; stroke:black; " description="&lt;b&gt;ctg1_54&lt;/b&gt;&lt;br&gt;ctg1 54&lt;br&gt;Location: 70523 - 71357" locus_tag="ctg1_54" class="clusterblast-orf" id="dummy-1_q35_0_all"  />
<polygon points="540,40 544,40 549,35 544,30 540,30 540,40 " style="fill:white; stroke-width:1; stroke:black; " description="&lt;b&gt;ctg1_55&lt;/b&gt;&lt;br&gt;ctg1 55&lt;br&gt;Location: 71317 - 72736" locus_tag="ctg1_55" class="clusterblast-orf" id="dummy-1_q36_0_all"  />
<polygon points="548,40 551,35 548,30 548,40 " style="fill:white; stroke-width:1; stroke:black; " description="&lt;b&gt;ctg1_56&lt;/b&gt;&lt;br&gt;ctg1 56&lt;br&gt;Location: 72725 - 73211" locus_tag="ctg1_56" class="clusterblast-orf" id="dummy-1_q37_0_all"  />
</g>
<g label="BGC0001522" description="BGC0001522_c1: Auroramycin (7% of genes show similarity), t1pks" class="clusterblast-cluster"  >
<text x="5" y="70" class="clusterblast-acc"  >
<a xlink:href="https://mibig.secondarymetabolites.org/go/BGC0001522/1" target="_blank">BGC0001522</a>:                                                                      Auroramycin (7% of genes show similarity), t1pks</text>
<line x1="10" y1="85" x2="778.0" y2="85" style="stroke-width:1; stroke:grey; "  />
</g>
<g id="a1_000"  >
<polygon points="0,85 4,80 4,90 0,85 " style="fill:white; stroke-width:1; stroke:black; " description="&lt;b&gt;AWR88445.1&lt;/b&gt;&lt;br&gt;hypothetical protein&lt;br&gt;Location: 126292 - 125600" locus_tag="AWR88445.1" class="clusterblast-orf" id="dummy-1_h1_5_0"  />
</g>
<g id="a1_001"  >
<polygon points="5,85 7,80 7,90 5,85 " style="fill:white; stroke-width:1; stroke:black; " description="&lt;b&gt;AWR88444.1&lt;/b&gt;&lt;br&gt;hypothetical protein&lt;br&gt;Location: 125445 - 125158" locus_tag="AWR88444.1" class="clusterblast-orf" id="dummy-1_h1_5_1"  />
</g>
<g id="a1_002"  >
<polygon points="10,85 12,80 12,90 10,85 " style="fill:white; stroke-width:1; stroke:black; " description="&lt;b&gt;AWR88443.1&lt;/b&gt;&lt;br&gt;hypothetical protein&lt;br&gt;Location: 124672 - 124280" locus_tag="AWR88443.1" class="clusterblast-orf" id="dummy-1_h1_5_2"  />
</g>
<g id="a1_003"  >
<polygon points="13,85 15,80 15,90 13,85 " style="fill:white; stroke-width:1; stroke:black; " description="&lt;b&gt;AWR88442.1&lt;/b&gt;&lt;br&gt;hypothetical protein&lt;br&gt;Location: 124146 - 123712" locus_tag="AWR88442.1" class="clusterblast-orf" id="dummy-1_h1_5_3"  />
</g>
<g id="a1_004"  >
<polygon points="17,90 20,85 17,80 17,90 " style="fill:white; stroke-width:1; stroke:black; " description="&lt;b&gt;AWR88441.1&lt;/b&gt;&lt;br&gt;hypothetical protein&lt;br&gt;Location: 123503 - 123045" locus_tag="AWR88441.1" class="clusterblast-orf" id="dummy-1_h1_5_4"  />
</g>
<g id="a1_005"  >
<polygon points="20,85 25,80 26,80 26,90 25,90 20,85 " style="fill:white; stroke-width:1; stroke:black; " description="&lt;b&gt;AWR88440.1&lt;/b&gt;&lt;br&gt;hypothetical protein&lt;br&gt;Location: 122994 - 122032" locus_tag="AWR88440.1" class="clusterblast-orf" id="dummy-1_h1_5_5"  />
</g>
<g id="a1_006"  >
<polygon points="26,85 28,80 28,90 26,85 " style="fill:white; stroke-width:1; stroke:black; " description="&lt;b&gt;AWR88439.1&lt;/b&gt;&lt;br&gt;hypothetical protein&lt;br&gt;Location: 122018 - 121722" locus_tag="AWR88439.1" class="clusterblast-orf" id="dummy-1_h1_5_6"  />
</g>
<g id="a1_007"  >
<polygon points="30,85 35,80 38,80 38,90 35,90 30,85 " style="fill:white; stroke-width:1; stroke:black; " description="&lt;b&gt;AWR88438.1&lt;/b&gt;&lt;br&gt;putative sensor histidine kinase&lt;br&gt;Location: 121318 - 120086" locus_tag="AWR88438.1" class="clusterblast-orf" id="dummy-1_h1_5_7"  />
</g>
<g id="a1_008"  >
<polygon points="38,85 42,80 42,90 38,85 " style="fill:white; stroke-width:1; stroke:black; " description="&lt;b&gt;AWR88437.1&lt;/b&gt;&lt;br&gt;putative response regulator&lt;br&gt;Location: 120080 - 119427" locus_tag="AWR88437.1" class="clusterblast-orf" id="dummy-1_h1_5_8"  />
</g>
<g id="a1_009"  >
<polygon points="44,90 45,85 44,80 44,90 " style="fill:white; stroke-width:1; stroke:black; " description="&lt;b&gt;AWR88436.1&lt;/b&gt;&lt;br&gt;hypothetical protein&lt;br&gt;Location: 119044 - 118871" locus_tag="AWR88436.1" class="clusterblast-orf" id="dummy-1_h1_5_9"  />
</g>
<g id="a1_0010"  >
<polygon points="46,85 51,80 51,80 51,90 51,90 46,85 " style="fill:white; stroke-width:1; stroke:black; " description="&lt;b&gt;AWR88435.1&lt;/b&gt;&lt;br&gt;putative inositol monophosphatase&lt;br&gt;Location: 118778 - 117978" locus_tag="AWR88435.1" class="clusterblast-orf" id="dummy-1_h1_5_10"  />
</g>
<g id="a1_0011"  >
<polygon points="51,85 56,80 58,80 58,90 56,90 51,85 " style="fill:white; stroke-width:1; stroke:black; " description="&lt;b&gt;AWR88434.1&lt;/b&gt;&lt;br&gt;hypothetical protein&lt;br&gt;Location: 117927 - 116755" locus_tag="AWR88434.1" class="clusterblast-orf" id="dummy-1_h1_5_11"  />
</g>
<g id="a1_0012"  >
<polygon points="59,90 62,90 67,85 62,80 59,80 59,90 " style="fill:white; stroke-width:1; stroke:black; " description="&lt;b&gt;AWR88433.1&lt;/b&gt;&lt;br&gt;putative major facilitator transporter&lt;br&gt;Location: 116603 - 115359" locus_tag="AWR88433.1" class="clusterblast-orf" id="dummy-1_h1_5_12"  />
</g>
<g id="a1_0013"  >
<polygon points="67,90 70,90 75,85 70,80 67,80 67,90 " style="fill:white; stroke-width:1; stroke:black; " description="&lt;b&gt;AWR88432.1&lt;/b&gt;&lt;br&gt;hypothetical protein&lt;br&gt;Location: 115399 - 114080" locus_tag="AWR88432.1" class="clusterblast-orf" id="dummy-1_h1_5_13"  />
</g>
<g id="a1_0014"  >
<polygon points="75,85 80,80 83,80 83,90 80,90 75,85 " style="fill:white; stroke-width:1; stroke:black; " description="&lt;b&gt;AWR88431.1&lt;/b&gt;&lt;br&gt;hypothetical protein&lt;br&gt;Location: 113994 - 112822" locus_tag="AWR88431.1" class="clusterblast-orf" id="dummy-1_h1_5_14"  />
</g>
<g id="a1_0015"  >
<polygon points="83,90 87,90 92,85 87,80 83,80 83,90 " style="fill:white; stroke-width:1; stroke:black; " description="&lt;b&gt;AWR88430.1&lt;/b&gt;&lt;br&gt;hypothetical protein&lt;br&gt;Location: 112772 - 111315" locus_tag="AWR88430.1" class="clusterblast-orf" id="dummy-1_h1_5_15"  />
</g>
<g id="a1_0016"  >
<polygon points="93,85 98,80 98,80 98,90 98,90 93,85 " style="fill:white; stroke-width:1; stroke:black; " description="&lt;b&gt;AWR88429.1&lt;/b&gt;&lt;br&gt;putative rhodanese domain-containing protein&lt;br&gt;Location: 111230 - 110400" locus_tag="AWR88429.1" class="clusterblast-orf" id="dummy-1_h1_5_16"  />
</g>
<g id="a1_0017"  >
<polygon points="99,90 99,90 104,85 99,80 99,80 99,90 " style="fill:white; stroke-width:1; stroke:black; " description="&lt;b&gt;AWR88428.1&lt;/b&gt;&lt;br&gt;hypothetical protein&lt;br&gt;Location: 110163 - 109387" locus_tag="AWR88428.1" class="clusterblast-orf" id="dummy-1_h1_5_17"  />
</g>
<g id="a1_0018"  >
<polygon points="104,85 107,80 107,90 104,85 " style="fill:white; stroke-width:1; stroke:black; " description="&lt;b&gt;AWR88427.1&lt;/b&gt;&lt;br&gt;hypothetical protein&lt;br&gt;Location: 109300 - 108956" locus_tag="AWR88427.1" class="clusterblast-orf" id="dummy-1_h1_5_18"  />
</g>
<g id="a1_0019"  >
<polygon points="109,90 109,90 114,85 109,80 109,80 109,90 " style="fill:white; stroke-width:1; stroke:black; " description="&lt;b&gt;AWR88426.1&lt;/b&gt;&lt;br&gt;putative ABC transporter ATP-binding protein&lt;br&gt;Location: 108536 - 107724" locus_tag="AWR88426.1" class="clusterblast-orf" id="dummy-1_h1_5_19"  />
</g>
<g id="a1_0020"  >
<polygon points="114,90 117,90 122,85 117,80 114,80 114,90 " style="fill:white; stroke-width:1; stroke:black; " description="&lt;b&gt;AWR88425.1&lt;/b&gt;&lt;br&gt;putative ABC transporter, permease component&lt;br&gt;Location: 107720 - 106383" locus_tag="AWR88425.1" class="clusterblast-orf" id="dummy-1_h1_5_20"  />
</g>
<g id="a1_0021"  >
<polygon points="123,85 128,80 130,80 130,90 128,90 123,85 " style="fill:white; stroke-width:1; stroke:black; " description="&lt;b&gt;AWR88424.1&lt;/b&gt;&lt;br&gt;putative DegT/DnrJ/EryC1/StrS aminotransferase&lt;br&gt;Location: 106286 - 105096" locus_tag="AWR88424.1" class="clusterblast-orf" id="dummy-1_h1_5_21"  />
</g>
<g id="a1_0022"  >
<polygon points="130,85 135,80 137,80 137,90 135,90 130,85 " style="fill:white; stroke-width:1; stroke:black; " description="&lt;b&gt;AWR88423.1&lt;/b&gt;&lt;br&gt;putative oxidoreductase&lt;br&gt;Location: 105106 - 104090" locus_tag="AWR88423.1" class="clusterblast-orf" id="dummy-1_h1_5_22"  />
</g>
<g id="a1_0023"  >
<polygon points="137,85 142,80 145,80 145,90 142,90 137,85 " style="fill:white; stroke-width:1; stroke:black; " description="&lt;b&gt;AWR88422.1&lt;/b&gt;&lt;br&gt;putative glycosyltransferase, MGT family&lt;br&gt;Location: 104093 - 102804" locus_tag="AWR88422.1" class="clusterblast-orf" id="dummy-1_h1_5_23"  />
</g>
<g id="a1_0024"  >
<polygon points="145,85 150,80 153,80 153,90 150,90 145,85 " style="fill:white; stroke-width:1; stroke:black; " description="&lt;b&gt;AWR88421.1&lt;/b&gt;&lt;br&gt;putative cytochrome P450&lt;br&gt;Location: 102781 - 101465" locus_tag="AWR88421.1" class="clusterblast-orf" id="dummy-1_h1_5_24"  />
</g>
<g id="a1_0025"  >
<polygon points="154,90 157,90 162,85 157,80 154,80 154,90 " style="fill:white; stroke-width:1; stroke:black; " description="&lt;b&gt;AWR88420.1&lt;/b&gt;&lt;br&gt;hypothetical protein&lt;br&gt;Location: 101326 - 100058" locus_tag="AWR88420.1" class="clusterblast-orf" id="dummy-1_h1_5_25"  />
</g>
<g id="a1_0026"  >
<polygon points="162,85 167,80 168,80 168,90 167,90 162,85 " style="fill:white; stroke-width:1; stroke:black; " description="&lt;b&gt;AWR88419.1&lt;/b&gt;&lt;br&gt;putative glycosyltransferase, MGT family&lt;br&gt;Location: 100023 - 99031" locus_tag="AWR88419.1" class="clusterblast-orf" id="dummy-1_h1_5_26"  />
</g>
<g id="a1_0027"  >
<polygon points="169,90 169,90 174,85 169,80 169,80 169,90 " style="fill:white; stroke-width:1; stroke:black; " description="&lt;b&gt;AWR88418.1&lt;/b&gt;&lt;br&gt;putative methyltransferase&lt;br&gt;Location: 98825 - 98097" locus_tag="AWR88418.1" class="clusterblast-orf" id="dummy-1_h1_5_27"  />
</g>
<g id="a1_0028"  >
<polygon points="174,85 179,80 182,80 182,90 179,90 174,85 " style="fill:white; stroke-width:1; stroke:black; " description="&lt;b&gt;AWR88417.1&lt;/b&gt;&lt;br&gt;hypothetical protein&lt;br&gt;Location: 98028 - 96664" locus_tag="AWR88417.1" class="clusterblast-orf" id="dummy-1_h1_5_28"  />
</g>
<g id="a1_0029"  >
<polygon points="182,85 187,80 189,80 189,90 187,90 182,85 " style="fill:white; stroke-width:1; stroke:black; " description="&lt;b&gt;AWR88416.1&lt;/b&gt;&lt;br&gt;putative NAD-dependent epimerase/dehydratase&lt;br&gt;Location: 96667 - 95618" locus_tag="AWR88416.1" class="clusterblast-orf" id="dummy-1_h1_5_29"  />
</g>
<g id="a1_0030"  >
<polygon points="189,85 194,80 196,80 196,90 194,90 189,85 " style="fill:white; stroke-width:1; stroke:black; " description="&lt;b&gt;AWR88415.1&lt;/b&gt;&lt;br&gt;putative glucose-1-phosphate adenylyl/ thymidylyltransferas e&lt;br&gt;Location: 95621 - 94551" locus_tag="AWR88415.1" class="clusterblast-orf" id="dummy-1_h1_5_30"  />
</g>
<g id="a1_0031"  >
<polygon points="196,85 201,80 204,80 204,90 201,90 196,85 " style="fill:white; stroke-width:1; stroke:black; " description="&lt;b&gt;AWR88414.1&lt;/b&gt;&lt;br&gt;putative glycosyltransferase, MGT family&lt;br&gt;Location: 94403 - 93108" locus_tag="AWR88414.1" class="clusterblast-orf" id="dummy-1_h1_5_31"  />
</g>
<g id="a1_0032"  >
<polygon points="206,90 206,90 211,85 206,80 206,80 206,90 " style="fill:white; stroke-width:1; stroke:black; " description="&lt;b&gt;AWR88413.1&lt;/b&gt;&lt;br&gt;putative haloalkane dehalogenase&lt;br&gt;Location: 92904 - 91987" locus_tag="AWR88413.1" class="clusterblast-orf" id="dummy-1_h1_5_32"  />
</g>
<g id="a1_0033"  >
<polygon points="212,90 215,90 220,85 215,80 212,80 212,90 " style="fill:white; stroke-width:1; stroke:black; " description="&lt;b&gt;AWR88412.1&lt;/b&gt;&lt;br&gt;hypothetical protein&lt;br&gt;Location: 91952 - 90606" locus_tag="AWR88412.1" class="clusterblast-orf" id="dummy-1_h1_5_33"  />
</g>
<g id="a1_0034"  >
<polygon points="220,90 224,90 229,85 224,80 220,80 220,90 " style="fill:white; stroke-width:1; stroke:black; " description="&lt;b&gt;AWR88411.1&lt;/b&gt;&lt;br&gt;putative aminotransferase&lt;br&gt;Location: 90585 - 89191" locus_tag="AWR88411.1" class="clusterblast-orf" id="dummy-1_h1_5_34"  />
</g>
<g id="a1_0035"  >
<polygon points="229,90 230,90 235,85 230,80 229,80 229,90 " style="fill:white; stroke-width:1; stroke:black; " description="&lt;b&gt;AWR88410.1&lt;/b&gt;&lt;br&gt;putative malonyl CoA-acyl carrier protein transacylase&lt;br&gt;Location: 89100 - 88111" locus_tag="AWR88410.1" class="clusterblast-orf" id="dummy-1_h1_5_35"  />
</g>
<g id="a1_0036"  >
<polygon points="235,85 240,80 245,80 245,90 240,90 235,85 " style="fill:white; stroke-width:1; stroke:black; " description="&lt;b&gt;AWR88409.1&lt;/b&gt;&lt;br&gt;putative AMP-dependent synthetase and ligase&lt;br&gt;Location: 88169 - 86493" locus_tag="AWR88409.1" class="clusterblast-orf" id="dummy-1_h1_5_36"  />
</g>
<g id="a1_0037"  >
<polygon points="246,85 247,80 247,90 246,85 " style="fill:white; stroke-width:1; stroke:black; " description="&lt;b&gt;AWR88408.1&lt;/b&gt;&lt;br&gt;putative acyl carrier protein&lt;br&gt;Location: 86409 - 86170" locus_tag="AWR88408.1" class="clusterblast-orf" id="dummy-1_h1_5_37"  />
</g>
<g id="a1_0038"  >
<polygon points="248,90 253,90 258,85 253,80 248,80 248,90 " style="fill:white; stroke-width:1; stroke:black; " description="&lt;b&gt;AWR88407.1&lt;/b&gt;&lt;br&gt;putative AMP-dependent synthetase and ligase&lt;br&gt;Location: 86028 - 84388" locus_tag="AWR88407.1" class="clusterblast-orf" id="dummy-1_h1_5_38"  />
</g>
<g id="a1_0039"  >
<polygon points="258,90 261,90 266,85 261,80 258,80 258,90 " style="fill:white; stroke-width:1; stroke:black; " description="&lt;b&gt;AWR88406.1&lt;/b&gt;&lt;br&gt;putative cytochrome P450&lt;br&gt;Location: 84391 - 83195" locus_tag="AWR88406.1" class="clusterblast-orf" id="dummy-1_h1_5_39"  />
</g>
<g id="a1_0040"  >
<polygon points="267,85 272,80 337,80 337,90 272,90 267,85 " style="fill:#d8bc15; stroke-width:1; stroke:black; " description="&lt;b&gt;AWR88405.1&lt;/b&gt;&lt;br&gt;putative phosphopantetheine-binding domain- containing prot ein&lt;br&gt;Location: 82992 - 71617&lt;br&gt;&lt;br&gt;&lt;b&gt;BlastP hit with ctg1_36&lt;/b&gt;&lt;br&gt;Percentage identity: 51&lt;br&gt;Percentage coverage: 84&lt;br&gt;BLAST bit score: 593&lt;br&gt;E-value: 4.1e-169&lt;br&gt;&lt;br&gt;&lt;b&gt;BlastP hit with ctg1_37&lt;/b&gt;&lt;br&gt;Percentage identity: 48&lt;br&gt;Percentage coverage: 51&lt;br&gt;BLAST bit score: 1530&lt;br&gt;E-value: 0.0" locus_tag="AWR88405.1" class="clusterblast-orf" id="dummy-1_h1_5_40"  />
</g>
<g id="a1_0041"  >
<polygon points="337,85 342,80 438,80 438,90 342,90 337,85 " style="fill:#d8bc15; stroke-width:1; stroke:black; " description="&lt;b&gt;AWR88404.1&lt;/b&gt;&lt;br&gt;putative beta-ketoacyl synthase&lt;br&gt;Location: 71611 - 55358&lt;br&gt;&lt;br&gt;&lt;b&gt;BlastP hit with ctg1_36&lt;/b&gt;&lt;br&gt;Percentage identity: 50&lt;br&gt;Percentage coverage: 83&lt;br&gt;BLAST bit score: 600&lt;br&gt;E-value: 3.4e-171" locus_tag="AWR88404.1" class="clusterblast-orf" id="dummy-1_h1_5_41"  />
</g>
<g id="a1_0042"  >
<polygon points="440,90 440,90 445,85 440,80 440,80 440,90 " style="fill:white; stroke-width:1; stroke:black; " description="&lt;b&gt;AWR88403.1&lt;/b&gt;&lt;br&gt;putative thioesterase&lt;br&gt;Location: 54983 - 54207" locus_tag="AWR88403.1" class="clusterblast-orf" id="dummy-1_h1_5_42"  />
</g>
<g id="a1_0043"  >
<polygon points="445,85 450,80 450,80 450,90 450,90 445,85 " style="fill:white; stroke-width:1; stroke:black; " description="&lt;b&gt;AWR88402.1&lt;/b&gt;&lt;br&gt;putative ABC-2 type transporter&lt;br&gt;Location: 54124 - 53327" locus_tag="AWR88402.1" class="clusterblast-orf" id="dummy-1_h1_5_43"  />
</g>
<g id="a1_0044"  >
<polygon points="450,85 455,80 456,80 456,90 455,90 450,85 " style="fill:white; stroke-width:1; stroke:black; " description="&lt;b&gt;AWR88401.1&lt;/b&gt;&lt;br&gt;putative ABC transporter ATP-binding protein&lt;br&gt;Location: 53330 - 52320" locus_tag="AWR88401.1" class="clusterblast-orf" id="dummy-1_h1_5_44"  />
</g>
<g id="a1_0045"  >
<polygon points="457,90 457,90 462,85 457,80 457,80 457,90 " style="fill:white; stroke-width:1; stroke:black; " description="&lt;b&gt;AWR88400.1&lt;/b&gt;&lt;br&gt;putative TetR family transcriptional regulator&lt;br&gt;Location: 52224 - 51457" locus_tag="AWR88400.1" class="clusterblast-orf" id="dummy-1_h1_5_45"  />
</g>
<g id="a1_0046"  >
<polygon points="462,85 467,80 529,80 529,90 467,90 462,85 " style="fill:white; stroke-width:1; stroke:black; " description="&lt;b&gt;AWR88399.1&lt;/b&gt;&lt;br&gt;putative beta-ketoacyl synthase&lt;br&gt;Location: 51436 - 40544" locus_tag="AWR88399.1" class="clusterblast-orf" id="dummy-1_h1_5_46"  />
</g>
<g id="a1_0047"  >
<polygon points="530,85 535,80 560,80 560,90 535,90 530,85 " style="fill:#d8bc15; stroke-width:1; stroke:black; " description="&lt;b&gt;AWR88398.1&lt;/b&gt;&lt;br&gt;putative beta-ketoacyl synthase&lt;br&gt;Location: 40416 - 35485&lt;br&gt;&lt;br&gt;&lt;b&gt;BlastP hit with ctg1_36&lt;/b&gt;&lt;br&gt;Percentage identity: 46&lt;br&gt;Percentage coverage: 83&lt;br&gt;BLAST bit score: 540&lt;br&gt;E-value: 3.2e-153" locus_tag="AWR88398.1" class="clusterblast-orf" id="dummy-1_h1_5_47"  />
</g>
<g id="a1_0048"  >
<polygon points="561,85 566,80 567,80 567,90 566,90 561,85 " style="fill:white; stroke-width:1; stroke:black; " description="&lt;b&gt;AWR88397.1&lt;/b&gt;&lt;br&gt;putative glycosyltransferase, MGT family&lt;br&gt;Location: 35423 - 34440" locus_tag="AWR88397.1" class="clusterblast-orf" id="dummy-1_h1_5_48"  />
</g>
<g id="a1_0049"  >
<polygon points="567,85 572,80 573,80 573,90 572,90 567,85 " style="fill:white; stroke-width:1; stroke:black; " description="&lt;b&gt;AWR88396.1&lt;/b&gt;&lt;br&gt;putative 3-hydroxybutyryl-CoA dehydrogenase&lt;br&gt;Location: 34363 - 33503" locus_tag="AWR88396.1" class="clusterblast-orf" id="dummy-1_h1_5_49"  />
</g>
<g id="a1_0050"  >
<polygon points="573,85 578,80 579,80 579,90 578,90 573,85 " style="fill:white; stroke-width:1; stroke:black; " description="&lt;b&gt;AWR88395.1&lt;/b&gt;&lt;br&gt;putative 3-oxoacyl-(acyl carrier protein) synthase III&lt;br&gt;Location: 33506 - 32496" locus_tag="AWR88395.1" class="clusterblast-orf" id="dummy-1_h1_5_50"  />
</g>
<g id="a1_0051"  >
<polygon points="579,85 584,80 587,80 587,90 584,90 579,85 " style="fill:#d815bc; stroke-width:1; stroke:black; " description="&lt;b&gt;AWR88394.1&lt;/b&gt;&lt;br&gt;putative crotonyl-CoA reductase / alcohol dehydrogenase&lt;br&gt;Location: 32499 - 31162&lt;br&gt;&lt;br&gt;&lt;b&gt;BlastP hit with ctg1_35&lt;/b&gt;&lt;br&gt;Percentage identity: 68&lt;br&gt;Percentage coverage: 99&lt;br&gt;BLAST bit score: 628&lt;br&gt;E-value: 8.4e-180" locus_tag="AWR88394.1" class="clusterblast-orf" id="dummy-1_h1_5_51"  />
</g>
<g id="a1_0052"  >
<polygon points="587,85 592,80 658,80 658,90 592,90 587,85 " style="fill:#d8bc15; stroke-width:1; stroke:black; " description="&lt;b&gt;AWR88393.1&lt;/b&gt;&lt;br&gt;putative beta-ketoacyl synthase&lt;br&gt;Location: 31130 - 19662&lt;br&gt;&lt;br&gt;&lt;b&gt;BlastP hit with ctg1_36&lt;/b&gt;&lt;br&gt;Percentage identity: 49&lt;br&gt;Percentage coverage: 85&lt;br&gt;BLAST bit score: 606&lt;br&gt;E-value: 4.7e-173" locus_tag="AWR88393.1" class="clusterblast-orf" id="dummy-1_h1_5_52"  />
</g>
<g id="a1_0053"  >
<polygon points="660,90 664,85 660,80 660,90 " style="fill:white; stroke-width:1; stroke:black; " description="&lt;b&gt;AWR88392.1&lt;/b&gt;&lt;br&gt;hypothetical protein&lt;br&gt;Location: 19362 - 18682" locus_tag="AWR88392.1" class="clusterblast-orf" id="dummy-1_h1_5_53"  />
</g>
<g id="a1_0054"  >
<polygon points="665,90 668,90 673,85 668,80 665,80 665,90 " style="fill:white; stroke-width:1; stroke:black; " description="&lt;b&gt;AWR88391.1&lt;/b&gt;&lt;br&gt;putative nucleotide sugar dehydrogenase&lt;br&gt;Location: 18490 - 17267" locus_tag="AWR88391.1" class="clusterblast-orf" id="dummy-1_h1_5_54"  />
</g>
<g id="a1_0055"  >
<polygon points="673,90 674,90 679,85 674,80 673,80 673,90 " style="fill:white; stroke-width:1; stroke:black; " description="&lt;b&gt;AWR88390.1&lt;/b&gt;&lt;br&gt;putative NAD-dependent epimerase/dehydratase&lt;br&gt;Location: 17244 - 16258" locus_tag="AWR88390.1" class="clusterblast-orf" id="dummy-1_h1_5_55"  />
</g>
<g id="a1_0056"  >
<polygon points="681,90 694,90 699,85 694,80 681,80 681,90 " style="fill:white; stroke-width:1; stroke:black; " description="&lt;b&gt;AWR88389.1&lt;/b&gt;&lt;br&gt;putative LuxR family transcriptional regulator&lt;br&gt;Location: 15976 - 13082" locus_tag="AWR88389.1" class="clusterblast-orf" id="dummy-1_h1_5_56"  />
</g>
<g id="a1_0057"  >
<polygon points="699,85 703,80 703,90 699,85 " style="fill:white; stroke-width:1; stroke:black; " description="&lt;b&gt;AWR88388.1&lt;/b&gt;&lt;br&gt;hypothetical protein&lt;br&gt;Location: 13057 - 12407" locus_tag="AWR88388.1" class="clusterblast-orf" id="dummy-1_h1_5_57"  />
</g>
<g id="a1_0058"  >
<polygon points="703,85 708,80 710,80 710,90 708,90 703,85 " style="fill:white; stroke-width:1; stroke:black; " description="&lt;b&gt;AWR88387.1&lt;/b&gt;&lt;br&gt;hypothetical protein&lt;br&gt;Location: 12360 - 11173" locus_tag="AWR88387.1" class="clusterblast-orf" id="dummy-1_h1_5_58"  />
</g>
<g id="a1_0059"  >
<polygon points="710,85 714,80 714,90 710,85 " style="fill:white; stroke-width:1; stroke:black; " description="&lt;b&gt;AWR88386.1&lt;/b&gt;&lt;br&gt;hypothetical protein&lt;br&gt;Location: 11173 - 10577" locus_tag="AWR88386.1" class="clusterblast-orf" id="dummy-1_h1_5_59"  />
</g>
<g id="a1_0060"  >
<polygon points="715,85 720,80 733,80 733,90 720,90 715,85 " style="fill:white; stroke-width:1; stroke:black; " description="&lt;b&gt;AWR88385.1&lt;/b&gt;&lt;br&gt;putative GCN5-related N-acetyltransferase&lt;br&gt;Location: 10519 - 7592" locus_tag="AWR88385.1" class="clusterblast-orf" id="dummy-1_h1_5_60"  />
</g>
<g id="a1_0061"  >
<polygon points="733,90 735,85 733,80 733,90 " style="fill:white; stroke-width:1; stroke:black; " description="&lt;b&gt;AWR88384.1&lt;/b&gt;&lt;br&gt;hypothetical protein&lt;br&gt;Location: 7495 - 7214" locus_tag="AWR88384.1" class="clusterblast-orf" id="dummy-1_h1_5_61"  />
</g>
<g id="a1_0062"  >
<polygon points="736,85 740,80 740,90 736,85 " style="fill:white; stroke-width:1; stroke:black; " description="&lt;b&gt;AWR88383.1&lt;/b&gt;&lt;br&gt;putative GntR family transcriptional regulator&lt;br&gt;Location: 7029 - 6322" locus_tag="AWR88383.1" class="clusterblast-orf" id="dummy-1_h1_5_62"  />
</g>
<g id="a1_0063"  >
<polygon points="742,85 747,80 747,80 747,90 747,90 742,85 " style="fill:white; stroke-width:1; stroke:black; " description="&lt;b&gt;AWR88382.1&lt;/b&gt;&lt;br&gt;hypothetical protein&lt;br&gt;Location: 6141 - 5326" locus_tag="AWR88382.1" class="clusterblast-orf" id="dummy-1_h1_5_63"  />
</g>
<g id="a1_0064"  >
<polygon points="749,85 754,80 758,80 758,90 754,90 749,85 " style="fill:white; stroke-width:1; stroke:black; " description="&lt;b&gt;AWR88381.1&lt;/b&gt;&lt;br&gt;hypothetical protein&lt;br&gt;Location: 4901 - 3531" locus_tag="AWR88381.1" class="clusterblast-orf" id="dummy-1_h1_5_64"  />
</g>
<g id="a1_0065"  >
<polygon points="758,85 763,80 766,80 766,90 763,90 758,85 " style="fill:white; stroke-width:1; stroke:black; " description="&lt;b&gt;AWR88380.1&lt;/b&gt;&lt;br&gt;hypothetical protein&lt;br&gt;Location: 3504 - 2122" locus_tag="AWR88380.1" class="clusterblast-orf" id="dummy-1_h1_5_65"  />
</g>
<g id="a1_0066"  >
<polygon points="768,90 775,90 780,85 775,80 768,80 768,90 " style="fill:white; stroke-width:1; stroke:black; " description="&lt;b&gt;AWR88379.1&lt;/b&gt;&lt;br&gt;hypothetical protein&lt;br&gt;Location: 1829 - 1" locus_tag="AWR88379.1" class="clusterblast-orf" id="dummy-1_h1_5_66"  />
</g>
</svg>
