<svg xmlns="http://www.w3.org/2000/svg" xmlns:xlink="http://www.w3.org/1999/xlink" version="1.1" x="0" y="0" height="230" width="800" viewBox="0 0 800 230" preserveAspectRatio="none"  >
<g label="Query sequence" class="clusterblast-cluster"  >
<text x="5" y="20" class="clusterblast-acc"  >
Query sequence</text>
<line x1="10" y1="35" x2="778.0" y2="35" style="stroke-width:1; stroke:grey; "  />
<polygon points="266,40 363,40 368,35 363,30 266,30 266,40 " style="fill:#d81515; stroke-width:1; stroke:black; " description="&lt;b&gt;ctg147_1&lt;/b&gt;&lt;br&gt;ctg147 1&lt;br&gt;Location: 2 - 5192" locus_tag="ctg147_1" class="clusterblast-orf" id="dummy-1_q0_0_all"  />
<polygon points="370,40 383,40 388,35 383,30 370,30 370,40 " style="fill:#15d815; stroke-width:1; stroke:black; " description="&lt;b&gt;ctg147_2&lt;/b&gt;&lt;br&gt;ctg147 2&lt;br&gt;Location: 5287 - 6163" locus_tag="ctg147_2" class="clusterblast-orf" id="dummy-1_q1_0_all"  />
<polygon points="388,40 399,40 404,35 399,30 388,30 388,40 " style="fill:#1515d8; stroke-width:1; stroke:black; " description="&lt;b&gt;ctg147_3&lt;/b&gt;&lt;br&gt;ctg147 3&lt;br&gt;Location: 6162 - 6969" locus_tag="ctg147_3" class="clusterblast-orf" id="dummy-1_q2_0_all"  />
<polygon points="405,35 410,30 432,30 432,40 410,40 405,35 " style="fill:white; stroke-width:1; stroke:black; " description="&lt;b&gt;ctg147_4&lt;/b&gt;&lt;br&gt;ctg147 4&lt;br&gt;Location: 7041 - 8427" locus_tag="ctg147_4" class="clusterblast-orf" id="dummy-1_q3_0_all"  />
<polygon points="442,35 447,30 464,30 464,40 447,40 442,35 " style="fill:#d815d8; stroke-width:1; stroke:black; " description="&lt;b&gt;ctg147_5&lt;/b&gt;&lt;br&gt;ctg147 5&lt;br&gt;Location: 8908 - 10027" locus_tag="ctg147_5" class="clusterblast-orf" id="dummy-1_q4_0_all"  />
<polygon points="466,35 471,30 497,30 497,40 471,40 466,35 " style="fill:#d8d815; stroke-width:1; stroke:black; " description="&lt;b&gt;ctg147_6&lt;/b&gt;&lt;br&gt;ctg147 6&lt;br&gt;Location: 10127 - 11711" locus_tag="ctg147_6" class="clusterblast-orf" id="dummy-1_q5_0_all"  />
<polygon points="498,35 503,30 510,30 510,40 503,40 498,35 " style="fill:#15d8d8; stroke-width:1; stroke:black; " description="&lt;b&gt;ctg147_7&lt;/b&gt;&lt;br&gt;ctg147 7&lt;br&gt;Location: 11741 - 12341" locus_tag="ctg147_7" class="clusterblast-orf" id="dummy-1_q6_0_all"  />
<polygon points="512,40 514,35 512,30 512,40 " style="fill:white; stroke-width:1; stroke:black; " description="&lt;b&gt;ctg147_8&lt;/b&gt;&lt;br&gt;ctg147 8&lt;br&gt;Location: 12461 - 12533" locus_tag="ctg147_8" class="clusterblast-orf" id="dummy-1_q7_0_all"  />
</g>
<g label="BGC0000270" description="BGC0000270_c1: Simocyclinone (5% of genes show similarity), t2pks" class="clusterblast-cluster"  >
<text x="5" y="70" class="clusterblast-acc"  >
<a xlink:href="https://mibig.secondarymetabolites.org/go/BGC0000270/1" target="_blank">BGC0000270</a>:                                                                    Simocyclinone (5% of genes show similarity), t2pks</text>
<line x1="10" y1="85" x2="778.0" y2="85" style="stroke-width:1; stroke:grey; "  />
</g>
<g id="a1_000"  >
<polygon points="0,90 13,90 18,85 13,80 0,80 0,90 " style="fill:white; stroke-width:1; stroke:black; " description="&lt;b&gt;AAL15617.1&lt;/b&gt;&lt;br&gt;acetyl-coenzyme A synthetase&lt;br&gt;Location: 39428 - 38511" locus_tag="AAL15617.1" class="clusterblast-orf" id="dummy-1_h1_7_0"  />
</g>
<g id="a1_001"  >
<polygon points="22,90 45,90 50,85 45,80 22,80 22,90 " style="fill:white; stroke-width:1; stroke:black; " description="&lt;b&gt;AAL15616.1&lt;/b&gt;&lt;br&gt;sodium/proton antiporter&lt;br&gt;Location: 38305 - 36863" locus_tag="AAL15616.1" class="clusterblast-orf" id="dummy-1_h1_7_1"  />
</g>
<g id="a1_002"  >
<polygon points="51,90 56,90 61,85 56,80 51,80 51,90 " style="fill:white; stroke-width:1; stroke:black; " description="&lt;b&gt;AAL15615.1&lt;/b&gt;&lt;br&gt;probable integral membrane protein&lt;br&gt;Location: 36807 - 36319" locus_tag="AAL15615.1" class="clusterblast-orf" id="dummy-1_h1_7_2"  />
</g>
<g id="a1_003"  >
<polygon points="61,90 74,90 79,85 74,80 61,80 61,90 " style="fill:white; stroke-width:1; stroke:black; " description="&lt;b&gt;AAL15614.1&lt;/b&gt;&lt;br&gt;hydrolase&lt;br&gt;Location: 36295 - 35387" locus_tag="AAL15614.1" class="clusterblast-orf" id="dummy-1_h1_7_3"  />
</g>
<g id="a1_004"  >
<polygon points="89,85 94,80 113,80 113,90 94,90 89,85 " style="fill:white; stroke-width:1; stroke:black; " description="&lt;b&gt;AAL15613.1&lt;/b&gt;&lt;br&gt;serine proteinase&lt;br&gt;Location: 34893 - 33685" locus_tag="AAL15613.1" class="clusterblast-orf" id="dummy-1_h1_7_4"  />
</g>
<g id="a1_005"  >
<polygon points="113,85 118,80 127,80 127,90 118,90 113,85 " style="fill:white; stroke-width:1; stroke:black; " description="&lt;b&gt;AAL15612.1&lt;/b&gt;&lt;br&gt;hypothetical protein&lt;br&gt;Location: 33680 - 32979" locus_tag="AAL15612.1" class="clusterblast-orf" id="dummy-1_h1_7_5"  />
</g>
<g id="a1_006"  >
<polygon points="128,85 133,80 145,80 145,90 133,90 128,85 " style="fill:white; stroke-width:1; stroke:black; " description="&lt;b&gt;AAL15611.1&lt;/b&gt;&lt;br&gt;endonuclease/N-glycosylase&lt;br&gt;Location: 32932 - 32084" locus_tag="AAL15611.1" class="clusterblast-orf" id="dummy-1_h1_7_6"  />
</g>
<g id="a1_007"  >
<polygon points="153,85 158,80 172,80 172,90 158,90 153,85 " style="fill:white; stroke-width:1; stroke:black; " description="&lt;b&gt;AAL15610.1&lt;/b&gt;&lt;br&gt;Sim24&lt;br&gt;Location: 31684 - 30725" locus_tag="AAL15610.1" class="clusterblast-orf" id="dummy-1_h1_7_7"  />
</g>
<g id="a1_008"  >
<polygon points="172,85 177,80 189,80 189,90 177,90 172,85 " style="fill:white; stroke-width:1; stroke:black; " description="&lt;b&gt;AAL15609.1&lt;/b&gt;&lt;br&gt;Sim23&lt;br&gt;Location: 30728 - 29841" locus_tag="AAL15609.1" class="clusterblast-orf" id="dummy-1_h1_7_8"  />
</g>
<g id="a1_009"  >
<polygon points="190,85 195,80 195,80 195,90 195,90 190,85 " style="fill:white; stroke-width:1; stroke:black; " description="&lt;b&gt;AAL15608.1&lt;/b&gt;&lt;br&gt;Sim22&lt;br&gt;Location: 29815 - 29537" locus_tag="AAL15608.1" class="clusterblast-orf" id="dummy-1_h1_7_9"  />
</g>
<g id="a1_0010"  >
<polygon points="197,85 202,80 223,80 223,90 202,90 197,85 " style="fill:white; stroke-width:1; stroke:black; " description="&lt;b&gt;AAL15607.1&lt;/b&gt;&lt;br&gt;Sim21&lt;br&gt;Location: 29458 - 28106" locus_tag="AAL15607.1" class="clusterblast-orf" id="dummy-1_h1_7_10"  />
</g>
<g id="a1_0011"  >
<polygon points="224,85 229,80 253,80 253,90 229,90 224,85 " style="fill:white; stroke-width:1; stroke:black; " description="&lt;b&gt;AAL15606.1&lt;/b&gt;&lt;br&gt;Sim20&lt;br&gt;Location: 28061 - 26613" locus_tag="AAL15606.1" class="clusterblast-orf" id="dummy-1_h1_7_11"  />
</g>
<g id="a1_0012"  >
<polygon points="254,85 259,80 269,80 269,90 259,90 254,85 " style="fill:white; stroke-width:1; stroke:black; " description="&lt;b&gt;AAL15605.1&lt;/b&gt;&lt;br&gt;SimJ2&lt;br&gt;Location: 26546 - 25806" locus_tag="AAL15605.1" class="clusterblast-orf" id="dummy-1_h1_7_12"  />
</g>
<g id="a1_0013"  >
<polygon points="275,85 280,80 290,80 290,90 280,90 275,85 " style="fill:white; stroke-width:1; stroke:black; " description="&lt;b&gt;AAL15604.1&lt;/b&gt;&lt;br&gt;Sim1&lt;br&gt;Location: 25484 - 24729" locus_tag="AAL15604.1" class="clusterblast-orf" id="dummy-1_h1_7_13"  />
</g>
<g id="a1_0014"  >
<polygon points="294,85 299,80 310,80 310,90 299,90 294,85 " style="fill:white; stroke-width:1; stroke:black; " description="&lt;b&gt;AAL15603.1&lt;/b&gt;&lt;br&gt;SimJ1&lt;br&gt;Location: 24559 - 23738" locus_tag="AAL15603.1" class="clusterblast-orf" id="dummy-1_h1_7_14"  />
</g>
<g id="a1_0015"  >
<polygon points="310,85 314,80 314,90 310,85 " style="fill:white; stroke-width:1; stroke:black; " description="&lt;b&gt;AAL15602.1&lt;/b&gt;&lt;br&gt;Sim-cB&lt;br&gt;Location: 23727 - 23515" locus_tag="AAL15602.1" class="clusterblast-orf" id="dummy-1_h1_7_15"  />
</g>
<g id="a1_0016"  >
<polygon points="315,85 320,80 340,80 340,90 320,90 315,85 " style="fill:white; stroke-width:1; stroke:black; " description="&lt;b&gt;AAL15601.1&lt;/b&gt;&lt;br&gt;SimI&lt;br&gt;Location: 23478 - 22228" locus_tag="AAL15601.1" class="clusterblast-orf" id="dummy-1_h1_7_16"  />
</g>
<g id="a1_0017"  >
<polygon points="340,85 345,80 399,80 399,90 345,90 340,85 " style="fill:white; stroke-width:1; stroke:black; " description="&lt;b&gt;AAL15600.1&lt;/b&gt;&lt;br&gt;SimH&lt;br&gt;Location: 22216 - 19223" locus_tag="AAL15600.1" class="clusterblast-orf" id="dummy-1_h1_7_17"  />
</g>
<g id="a1_0018"  >
<polygon points="400,85 405,80 431,80 431,90 405,90 400,85 " style="fill:white; stroke-width:1; stroke:black; " description="&lt;b&gt;AAL15599.1&lt;/b&gt;&lt;br&gt;SimL&lt;br&gt;Location: 19194 - 17635" locus_tag="AAL15599.1" class="clusterblast-orf" id="dummy-1_h1_7_18"  />
</g>
<g id="a1_0019"  >
<polygon points="431,85 436,80 445,80 445,90 436,90 431,85 " style="fill:white; stroke-width:1; stroke:black; " description="&lt;b&gt;AAL15598.1&lt;/b&gt;&lt;br&gt;SimK&lt;br&gt;Location: 17598 - 16888" locus_tag="AAL15598.1" class="clusterblast-orf" id="dummy-1_h1_7_19"  />
</g>
<g id="a1_0020"  >
<polygon points="448,85 453,80 461,80 461,90 453,90 448,85 " style="fill:white; stroke-width:1; stroke:black; " description="&lt;b&gt;AAL15597.1&lt;/b&gt;&lt;br&gt;Sim19&lt;br&gt;Location: 16742 - 16080" locus_tag="AAL15597.1" class="clusterblast-orf" id="dummy-1_h1_7_20"  />
</g>
<g id="a1_0021"  >
<polygon points="461,85 466,80 479,80 479,90 466,90 461,85 " style="fill:white; stroke-width:1; stroke:black; " description="&lt;b&gt;AAL15596.1&lt;/b&gt;&lt;br&gt;Sim18&lt;br&gt;Location: 16083 - 15202" locus_tag="AAL15596.1" class="clusterblast-orf" id="dummy-1_h1_7_21"  />
</g>
<g id="a1_0022"  >
<polygon points="483,85 488,80 515,80 515,90 488,90 483,85 " style="fill:#d8d815; stroke-width:1; stroke:black; " description="&lt;b&gt;AAL15595.1&lt;/b&gt;&lt;br&gt;Sim17&lt;br&gt;Location: 14990 - 13386&lt;br&gt;&lt;br&gt;&lt;b&gt;BlastP hit with ctg147_6&lt;/b&gt;&lt;br&gt;Percentage identity: 50&lt;br&gt;Percentage coverage: 97&lt;br&gt;BLAST bit score: 374&lt;br&gt;E-value: 2e-103" locus_tag="AAL15595.1" class="clusterblast-orf" id="dummy-1_h1_7_22"  />
</g>
<g id="a1_0023"  >
<polygon points="517,90 527,90 532,85 527,80 517,80 517,90 " style="fill:white; stroke-width:1; stroke:black; " description="&lt;b&gt;AAL15594.1&lt;/b&gt;&lt;br&gt;Sim16&lt;br&gt;Location: 13289 - 12504" locus_tag="AAL15594.1" class="clusterblast-orf" id="dummy-1_h1_7_23"  />
</g>
<g id="a1_0024"  >
<polygon points="531,85 536,80 558,80 558,90 536,90 531,85 " style="fill:white; stroke-width:1; stroke:black; " description="&lt;b&gt;AAL15593.1&lt;/b&gt;&lt;br&gt;Sim15&lt;br&gt;Location: 12553 - 11213" locus_tag="AAL15593.1" class="clusterblast-orf" id="dummy-1_h1_7_24"  />
</g>
<g id="a1_0025"  >
<polygon points="558,85 563,80 585,80 585,90 563,90 558,85 " style="fill:white; stroke-width:1; stroke:black; " description="&lt;b&gt;AAL15592.1&lt;/b&gt;&lt;br&gt;Sim14&lt;br&gt;Location: 11196 - 9826" locus_tag="AAL15592.1" class="clusterblast-orf" id="dummy-1_h1_7_25"  />
</g>
<g id="a1_0026"  >
<polygon points="585,85 590,80 600,80 600,90 590,90 585,85 " style="fill:white; stroke-width:1; stroke:black; " description="&lt;b&gt;AAL15591.1&lt;/b&gt;&lt;br&gt;Sim13&lt;br&gt;Location: 9829 - 9056" locus_tag="AAL15591.1" class="clusterblast-orf" id="dummy-1_h1_7_26"  />
</g>
<g id="a1_0027"  >
<polygon points="601,85 606,80 606,80 606,90 606,90 601,85 " style="fill:white; stroke-width:1; stroke:black; " description="&lt;b&gt;AAL15590.1&lt;/b&gt;&lt;br&gt;Sim12&lt;br&gt;Location: 9014 - 8796" locus_tag="AAL15590.1" class="clusterblast-orf" id="dummy-1_h1_7_27"  />
</g>
<g id="a1_0028"  >
<polygon points="606,85 611,80 637,80 637,90 611,90 606,85 " style="fill:white; stroke-width:1; stroke:black; " description="&lt;b&gt;AAL15589.1&lt;/b&gt;&lt;br&gt;Sim11&lt;br&gt;Location: 8781 - 7195" locus_tag="AAL15589.1" class="clusterblast-orf" id="dummy-1_h1_7_28"  />
</g>
<g id="a1_0029"  >
<polygon points="637,85 642,80 651,80 651,90 642,90 637,85 " style="fill:white; stroke-width:1; stroke:black; " description="&lt;b&gt;AAL15588.1&lt;/b&gt;&lt;br&gt;Sim10&lt;br&gt;Location: 7202 - 6516" locus_tag="AAL15588.1" class="clusterblast-orf" id="dummy-1_h1_7_29"  />
</g>
<g id="a1_0030"  >
<polygon points="651,85 656,80 662,80 662,90 656,90 651,85 " style="fill:#15d8d8; stroke-width:1; stroke:black; " description="&lt;b&gt;AAL15587.1&lt;/b&gt;&lt;br&gt;Sim9&lt;br&gt;Location: 6508 - 5936&lt;br&gt;&lt;br&gt;&lt;b&gt;BlastP hit with ctg147_7&lt;/b&gt;&lt;br&gt;Percentage identity: 58&lt;br&gt;Percentage coverage: 95&lt;br&gt;BLAST bit score: 214&lt;br&gt;E-value: 1.7e-55" locus_tag="AAL15587.1" class="clusterblast-orf" id="dummy-1_h1_7_30"  />
</g>
<g id="a1_0031"  >
<polygon points="665,85 670,80 680,80 680,90 670,90 665,85 " style="fill:white; stroke-width:1; stroke:black; " description="&lt;b&gt;AAL15586.1&lt;/b&gt;&lt;br&gt;Sim8&lt;br&gt;Location: 5805 - 5041" locus_tag="AAL15586.1" class="clusterblast-orf" id="dummy-1_h1_7_31"  />
</g>
<g id="a1_0032"  >
<polygon points="681,85 686,80 711,80 711,90 686,90 681,85 " style="fill:white; stroke-width:1; stroke:black; " description="&lt;b&gt;AAL15585.1&lt;/b&gt;&lt;br&gt;Sim7&lt;br&gt;Location: 4962 - 3478" locus_tag="AAL15585.1" class="clusterblast-orf" id="dummy-1_h1_7_32"  />
</g>
<g id="a1_0033"  >
<polygon points="711,85 716,80 730,80 730,90 716,90 711,85 " style="fill:white; stroke-width:1; stroke:black; " description="&lt;b&gt;AAL15584.1&lt;/b&gt;&lt;br&gt;Sim6&lt;br&gt;Location: 3472 - 2525" locus_tag="AAL15584.1" class="clusterblast-orf" id="dummy-1_h1_7_33"  />
</g>
<g id="a1_0034"  >
<polygon points="730,85 735,80 746,80 746,90 735,90 730,85 " style="fill:white; stroke-width:1; stroke:black; " description="&lt;b&gt;AAL15583.1&lt;/b&gt;&lt;br&gt;Sim5&lt;br&gt;Location: 2499 - 1714" locus_tag="AAL15583.1" class="clusterblast-orf" id="dummy-1_h1_7_34"  />
</g>
<g id="a1_0035"  >
<polygon points="746,85 751,80 751,80 751,90 751,90 746,85 " style="fill:white; stroke-width:1; stroke:black; " description="&lt;b&gt;AAL15582.1&lt;/b&gt;&lt;br&gt;Sim4&lt;br&gt;Location: 1694 - 1428" locus_tag="AAL15582.1" class="clusterblast-orf" id="dummy-1_h1_7_35"  />
</g>
<g id="a1_0036"  >
<polygon points="752,85 757,80 776,80 776,90 757,90 752,85 " style="fill:white; stroke-width:1; stroke:black; " description="&lt;b&gt;AAL15581.1&lt;/b&gt;&lt;br&gt;Sim3&lt;br&gt;Location: 1379 - 165" locus_tag="AAL15581.1" class="clusterblast-orf" id="dummy-1_h1_7_36"  />
</g>
<g id="a1_0037"  >
<polygon points="776,85 780,80 780,90 776,85 " style="fill:white; stroke-width:1; stroke:black; " description="&lt;b&gt;AAL15580.1&lt;/b&gt;&lt;br&gt;Sim2&lt;br&gt;Location: 168 - 1" locus_tag="AAL15580.1" class="clusterblast-orf" id="dummy-1_h1_7_37"  />
</g>
</svg>
