<svg xmlns="http://www.w3.org/2000/svg" xmlns:xlink="http://www.w3.org/1999/xlink" version="1.1" x="0" y="0" height="230" width="800" viewBox="0 0 800 230" preserveAspectRatio="none"  >
<g label="Query sequence" class="clusterblast-cluster"  >
<text x="5" y="20" class="clusterblast-acc"  >
Query sequence</text>
<line x1="10" y1="35" x2="778.0" y2="35" style="stroke-width:1; stroke:grey; "  />
<polygon points="217,40 221,40 226,35 221,30 217,30 217,40 " style="fill:white; stroke-width:1; stroke:black; " description="&lt;b&gt;ctg1_19&lt;/b&gt;&lt;br&gt;ctg1 19&lt;br&gt;Location: 20789 - 22121" locus_tag="ctg1_19" class="clusterblast-orf" id="dummy-1_q0_0_all"  />
<polygon points="226,40 227,35 226,30 226,40 " style="fill:white; stroke-width:1; stroke:black; " description="&lt;b&gt;ctg1_20&lt;/b&gt;&lt;br&gt;ctg1 20&lt;br&gt;Location: 22126 - 22333" locus_tag="ctg1_20" class="clusterblast-orf" id="dummy-1_q1_0_all"  />
<polygon points="228,40 232,35 228,30 228,40 " style="fill:white; stroke-width:1; stroke:black; " description="&lt;b&gt;ctg1_21&lt;/b&gt;&lt;br&gt;ctg1 21&lt;br&gt;Location: 22451 - 23111" locus_tag="ctg1_21" class="clusterblast-orf" id="dummy-1_q2_0_all"  />
<polygon points="232,35 237,30 239,30 239,40 237,40 232,35 " style="fill:#d81515; stroke-width:1; stroke:black; " description="&lt;b&gt;ctg1_22&lt;/b&gt;&lt;br&gt;ctg1 22&lt;br&gt;Location: 23130 - 24201" locus_tag="ctg1_22" class="clusterblast-orf" id="dummy-1_q3_0_all"  />
<polygon points="239,35 244,30 247,30 247,40 244,40 239,35 " style="fill:#4dd815; stroke-width:1; stroke:black; " description="&lt;b&gt;ctg1_23&lt;/b&gt;&lt;br&gt;ctg1 23&lt;br&gt;Location: 24197 - 25307" locus_tag="ctg1_23" class="clusterblast-orf" id="dummy-1_q4_0_all"  />
<polygon points="247,35 252,30 256,30 256,40 252,40 247,35 " style="fill:white; stroke-width:1; stroke:black; " description="&lt;b&gt;ctg1_24&lt;/b&gt;&lt;br&gt;ctg1 24&lt;br&gt;Location: 25334 - 26705" locus_tag="ctg1_24" class="clusterblast-orf" id="dummy-1_q5_0_all"  />
<polygon points="256,35 261,30 261,30 261,40 261,40 256,35 " style="fill:white; stroke-width:1; stroke:black; " description="&lt;b&gt;ctg1_25&lt;/b&gt;&lt;br&gt;ctg1 25&lt;br&gt;Location: 26701 - 27508" locus_tag="ctg1_25" class="clusterblast-orf" id="dummy-1_q6_0_all"  />
<polygon points="261,35 266,30 266,30 266,40 266,40 261,35 " style="fill:white; stroke-width:1; stroke:black; " description="&lt;b&gt;ctg1_26&lt;/b&gt;&lt;br&gt;ctg1 26&lt;br&gt;Location: 27507 - 28320" locus_tag="ctg1_26" class="clusterblast-orf" id="dummy-1_q7_0_all"  />
<polygon points="266,35 269,30 269,40 266,35 " style="fill:white; stroke-width:1; stroke:black; " description="&lt;b&gt;ctg1_27&lt;/b&gt;&lt;br&gt;ctg1 27&lt;br&gt;Location: 28316 - 28772" locus_tag="ctg1_27" class="clusterblast-orf" id="dummy-1_q8_0_all"  />
<polygon points="269,35 274,30 277,30 277,40 274,40 269,35 " style="fill:white; stroke-width:1; stroke:black; " description="&lt;b&gt;ctg1_28&lt;/b&gt;&lt;br&gt;ctg1 28&lt;br&gt;Location: 28768 - 29938" locus_tag="ctg1_28" class="clusterblast-orf" id="dummy-1_q9_0_all"  />
<polygon points="277,35 279,30 279,40 277,35 " style="fill:#1585d8; stroke-width:1; stroke:black; " description="&lt;b&gt;ctg1_29&lt;/b&gt;&lt;br&gt;ctg1 29&lt;br&gt;Location: 29934 - 30219" locus_tag="ctg1_29" class="clusterblast-orf" id="dummy-1_q10_0_all"  />
<polygon points="279,35 284,30 294,30 294,40 284,40 279,35 " style="fill:white; stroke-width:1; stroke:black; " description="&lt;b&gt;ctg1_30&lt;/b&gt;&lt;br&gt;ctg1 30&lt;br&gt;Location: 30191 - 32564" locus_tag="ctg1_30" class="clusterblast-orf" id="dummy-1_q11_0_all"  />
<polygon points="294,35 298,30 298,40 294,35 " style="fill:white; stroke-width:1; stroke:black; " description="&lt;b&gt;ctg1_31&lt;/b&gt;&lt;br&gt;ctg1 31&lt;br&gt;Location: 32556 - 33078" locus_tag="ctg1_31" class="clusterblast-orf" id="dummy-1_q12_0_all"  />
<polygon points="299,40 310,40 315,35 310,30 299,30 299,40 " style="fill:white; stroke-width:1; stroke:black; " description="&lt;b&gt;ctg1_32&lt;/b&gt;&lt;br&gt;ctg1 32&lt;br&gt;Location: 33274 - 35701" locus_tag="ctg1_32" class="clusterblast-orf" id="dummy-1_q13_0_all"  />
<polygon points="317,35 322,30 327,30 327,40 322,40 317,35 " style="fill:white; stroke-width:1; stroke:black; " description="&lt;b&gt;ctg1_33&lt;/b&gt;&lt;br&gt;ctg1 33&lt;br&gt;Location: 36030 - 37515" locus_tag="ctg1_33" class="clusterblast-orf" id="dummy-1_q14_0_all"  />
<polygon points="329,35 334,30 335,30 335,40 334,40 329,35 " style="fill:white; stroke-width:1; stroke:black; " description="&lt;b&gt;ctg1_34&lt;/b&gt;&lt;br&gt;ctg1 34&lt;br&gt;Location: 37865 - 38705" locus_tag="ctg1_34" class="clusterblast-orf" id="dummy-1_q15_0_all"  />
<polygon points="337,35 342,30 346,30 346,40 342,40 337,35 " style="fill:#d815bc; stroke-width:1; stroke:black; " description="&lt;b&gt;ctg1_35&lt;/b&gt;&lt;br&gt;ctg1 35&lt;br&gt;Location: 39094 - 40438" locus_tag="ctg1_35" class="clusterblast-orf" id="dummy-1_q16_0_all"  />
<polygon points="347,35 352,30 363,30 363,40 352,40 347,35 " style="fill:#d8bc15; stroke-width:1; stroke:black; " description="&lt;b&gt;ctg1_36&lt;/b&gt;&lt;br&gt;ctg1 36&lt;br&gt;Location: 40484 - 42905" locus_tag="ctg1_36" class="clusterblast-orf" id="dummy-1_q17_0_all"  />
<polygon points="363,35 368,30 437,30 437,40 368,40 363,35 " style="fill:#d8bc15; stroke-width:1; stroke:black; " description="&lt;b&gt;ctg1_37&lt;/b&gt;&lt;br&gt;ctg1 37&lt;br&gt;Location: 42901 - 54178" locus_tag="ctg1_37" class="clusterblast-orf" id="dummy-1_q18_0_all"  />
<polygon points="437,35 438,30 438,40 437,35 " style="fill:white; stroke-width:1; stroke:black; " description="&lt;b&gt;ctg1_38&lt;/b&gt;&lt;br&gt;ctg1 38&lt;br&gt;Location: 54170 - 54281" locus_tag="ctg1_38" class="clusterblast-orf" id="dummy-1_q19_0_all"  />
<polygon points="444,40 451,40 456,35 451,30 444,30 444,40 " style="fill:#15d885; stroke-width:1; stroke:black; " description="&lt;b&gt;ctg1_39&lt;/b&gt;&lt;br&gt;ctg1 39&lt;br&gt;Location: 55265 - 57056" locus_tag="ctg1_39" class="clusterblast-orf" id="dummy-1_q20_0_all"  />
<polygon points="456,40 457,40 462,35 457,30 456,30 456,40 " style="fill:#4d15d8; stroke-width:1; stroke:black; " description="&lt;b&gt;ctg1_40&lt;/b&gt;&lt;br&gt;ctg1 40&lt;br&gt;Location: 57055 - 58054" locus_tag="ctg1_40" class="clusterblast-orf" id="dummy-1_q21_0_all"  />
<polygon points="464,35 467,30 467,40 464,35 " style="fill:white; stroke-width:1; stroke:black; " description="&lt;b&gt;ctg1_41&lt;/b&gt;&lt;br&gt;ctg1 41&lt;br&gt;Location: 58327 - 58720" locus_tag="ctg1_41" class="clusterblast-orf" id="dummy-1_q22_0_all"  />
<polygon points="467,35 467,30 467,40 467,35 " style="fill:white; stroke-width:1; stroke:black; " description="&lt;b&gt;ctg1_42&lt;/b&gt;&lt;br&gt;ctg1 42&lt;br&gt;Location: 58716 - 58809" locus_tag="ctg1_42" class="clusterblast-orf" id="dummy-1_q23_0_all"  />
<polygon points="468,40 472,35 468,30 468,40 " style="fill:white; stroke-width:1; stroke:black; " description="&lt;b&gt;ctg1_43&lt;/b&gt;&lt;br&gt;ctg1 43&lt;br&gt;Location: 58839 - 59445" locus_tag="ctg1_43" class="clusterblast-orf" id="dummy-1_q24_0_all"  />
<polygon points="472,40 472,40 477,35 472,30 472,30 472,40 " style="fill:white; stroke-width:1; stroke:black; " description="&lt;b&gt;ctg1_44&lt;/b&gt;&lt;br&gt;ctg1 44&lt;br&gt;Location: 59441 - 60344" locus_tag="ctg1_44" class="clusterblast-orf" id="dummy-1_q25_0_all"  />
<polygon points="477,40 491,40 496,35 491,30 477,30 477,40 " style="fill:white; stroke-width:1; stroke:black; " description="&lt;b&gt;ctg1_45&lt;/b&gt;&lt;br&gt;ctg1 45&lt;br&gt;Location: 60340 - 63115" locus_tag="ctg1_45" class="clusterblast-orf" id="dummy-1_q26_0_all"  />
<polygon points="499,35 504,30 507,30 507,40 504,40 499,35 " style="fill:white; stroke-width:1; stroke:black; " description="&lt;b&gt;ctg1_46&lt;/b&gt;&lt;br&gt;ctg1 46&lt;br&gt;Location: 63678 - 64821" locus_tag="ctg1_46" class="clusterblast-orf" id="dummy-1_q27_0_all"  />
<polygon points="508,35 510,30 510,40 508,35 " style="fill:white; stroke-width:1; stroke:black; " description="&lt;b&gt;ctg1_47&lt;/b&gt;&lt;br&gt;ctg1 47&lt;br&gt;Location: 64988 - 65348" locus_tag="ctg1_47" class="clusterblast-orf" id="dummy-1_q28_0_all"  />
<polygon points="511,40 512,35 511,30 511,40 " style="fill:white; stroke-width:1; stroke:black; " description="&lt;b&gt;ctg1_48&lt;/b&gt;&lt;br&gt;ctg1 48&lt;br&gt;Location: 65498 - 65594" locus_tag="ctg1_48" class="clusterblast-orf" id="dummy-1_q29_0_all"  />
<polygon points="513,35 518,30 519,30 519,40 518,40 513,35 " style="fill:white; stroke-width:1; stroke:black; " description="&lt;b&gt;ctg1_49&lt;/b&gt;&lt;br&gt;ctg1 49&lt;br&gt;Location: 65762 - 66668" locus_tag="ctg1_49" class="clusterblast-orf" id="dummy-1_q30_0_all"  />
<polygon points="520,35 525,30 527,30 527,40 525,40 520,35 " style="fill:white; stroke-width:1; stroke:black; " description="&lt;b&gt;ctg1_50&lt;/b&gt;&lt;br&gt;ctg1 50&lt;br&gt;Location: 66720 - 67803" locus_tag="ctg1_50" class="clusterblast-orf" id="dummy-1_q31_0_all"  />
<polygon points="527,35 532,30 534,30 534,40 532,40 527,35 " style="fill:white; stroke-width:1; stroke:black; " description="&lt;b&gt;ctg1_51&lt;/b&gt;&lt;br&gt;ctg1 51&lt;br&gt;Location: 67850 - 68861" locus_tag="ctg1_51" class="clusterblast-orf" id="dummy-1_q32_0_all"  />
<polygon points="536,35 538,30 538,40 536,35 " style="fill:white; stroke-width:1; stroke:black; " description="&lt;b&gt;ctg1_52&lt;/b&gt;&lt;br&gt;ctg1 52&lt;br&gt;Location: 69275 - 69461" locus_tag="ctg1_52" class="clusterblast-orf" id="dummy-1_q33_0_all"  />
<polygon points="539,35 544,30 544,30 544,40 544,40 539,35 " style="fill:white; stroke-width:1; stroke:black; " description="&lt;b&gt;ctg1_53&lt;/b&gt;&lt;br&gt;ctg1 53&lt;br&gt;Location: 69605 - 70400" locus_tag="ctg1_53" class="clusterblast-orf" id="dummy-1_q34_0_all"  />
<polygon points="545,40 545,40 550,35 545,30 545,30 545,40 " style="fill:white; stroke-width:1; stroke:black; " description="&lt;b&gt;ctg1_54&lt;/b&gt;&lt;br&gt;ctg1 54&lt;br&gt;Location: 70523 - 71357" locus_tag="ctg1_54" class="clusterblast-orf" id="dummy-1_q35_0_all"  />
<polygon points="550,40 554,40 559,35 554,30 550,30 550,40 " style="fill:white; stroke-width:1; stroke:black; " description="&lt;b&gt;ctg1_55&lt;/b&gt;&lt;br&gt;ctg1 55&lt;br&gt;Location: 71317 - 72736" locus_tag="ctg1_55" class="clusterblast-orf" id="dummy-1_q36_0_all"  />
<polygon points="559,40 562,35 559,30 559,40 " style="fill:white; stroke-width:1; stroke:black; " description="&lt;b&gt;ctg1_56&lt;/b&gt;&lt;br&gt;ctg1 56&lt;br&gt;Location: 72725 - 73211" locus_tag="ctg1_56" class="clusterblast-orf" id="dummy-1_q37_0_all"  />
</g>
<g label="BGC0001042" description="BGC0001042_c1: Sanglifehrin A (11% of genes show similarity), nrps-t1pks" class="clusterblast-cluster"  >
<text x="5" y="70" class="clusterblast-acc"  >
<a xlink:href="https://mibig.secondarymetabolites.org/go/BGC0001042/1" target="_blank">BGC0001042</a>:                                                                   Sanglifehrin A (11% of genes show similarity), nrps-t1pks</text>
<line x1="10" y1="85" x2="778.0" y2="85" style="stroke-width:1; stroke:grey; "  />
</g>
<g id="a1_000"  >
<polygon points="0,85 3,80 3,90 0,85 " style="fill:white; stroke-width:1; stroke:black; " description="&lt;b&gt;ACY06309.1&lt;/b&gt;&lt;br&gt;putative endoribonuclease&lt;br&gt;Location: 118372 - 117873" locus_tag="ACY06309.1" class="clusterblast-orf" id="dummy-1_h1_4_0"  />
</g>
<g id="a1_001"  >
<polygon points="3,85 8,80 13,80 13,90 8,90 3,85 " style="fill:white; stroke-width:1; stroke:black; " description="&lt;b&gt;ACY06308.1&lt;/b&gt;&lt;br&gt;FAD-dependent monooxygenase&lt;br&gt;Location: 117870 - 116347" locus_tag="ACY06308.1" class="clusterblast-orf" id="dummy-1_h1_4_1"  />
</g>
<g id="a1_002"  >
<polygon points="13,90 13,90 18,85 13,80 13,80 13,90 " style="fill:white; stroke-width:1; stroke:black; " description="&lt;b&gt;ACY06306.1&lt;/b&gt;&lt;br&gt;TetR-family transcriptional regulator&lt;br&gt;Location: 116281 - 115616" locus_tag="ACY06306.1" class="clusterblast-orf" id="dummy-1_h1_4_2"  />
</g>
<g id="a1_003"  >
<polygon points="18,85 23,80 23,80 23,90 23,90 18,85 " style="fill:white; stroke-width:1; stroke:black; " description="&lt;b&gt;ACY06307.1&lt;/b&gt;&lt;br&gt;hypothetical protein&lt;br&gt;Location: 115536 - 114808" locus_tag="ACY06307.1" class="clusterblast-orf" id="dummy-1_h1_4_3"  />
</g>
<g id="a1_004"  >
<polygon points="28,85 30,80 30,90 28,85 " style="fill:white; stroke-width:1; stroke:black; " description="&lt;b&gt;ACY06305.1&lt;/b&gt;&lt;br&gt;transposase&lt;br&gt;Location: 114043 - 113783" locus_tag="ACY06305.1" class="clusterblast-orf" id="dummy-1_h1_4_4"  />
</g>
<g id="a1_005"  >
<polygon points="33,85 36,80 36,90 33,85 " style="fill:white; stroke-width:1; stroke:black; " description="&lt;b&gt;ACY06304.1&lt;/b&gt;&lt;br&gt;transposase&lt;br&gt;Location: 113296 - 112763" locus_tag="ACY06304.1" class="clusterblast-orf" id="dummy-1_h1_4_5"  />
</g>
<g id="a1_006"  >
<polygon points="37,85 40,80 40,90 37,85 " style="fill:white; stroke-width:1; stroke:black; " description="&lt;b&gt;ACY06303.1&lt;/b&gt;&lt;br&gt;hypothetical protein&lt;br&gt;Location: 112652 - 112218" locus_tag="ACY06303.1" class="clusterblast-orf" id="dummy-1_h1_4_6"  />
</g>
<g id="a1_007"  >
<polygon points="43,90 46,85 43,80 43,90 " style="fill:white; stroke-width:1; stroke:black; " description="&lt;b&gt;ACY06302.1&lt;/b&gt;&lt;br&gt;hypothetical protein&lt;br&gt;Location: 111743 - 111285" locus_tag="ACY06302.1" class="clusterblast-orf" id="dummy-1_h1_4_7"  />
</g>
<g id="a1_008"  >
<polygon points="53,85 56,80 56,90 53,85 " style="fill:white; stroke-width:1; stroke:black; " description="&lt;b&gt;ACY06301.1&lt;/b&gt;&lt;br&gt;hypothetical protein&lt;br&gt;Location: 110312 - 109776" locus_tag="ACY06301.1" class="clusterblast-orf" id="dummy-1_h1_4_8"  />
</g>
<g id="a1_009"  >
<polygon points="56,85 57,80 57,90 56,85 " style="fill:white; stroke-width:1; stroke:black; " description="&lt;b&gt;ACY06300.1&lt;/b&gt;&lt;br&gt;putative MbtH family protein&lt;br&gt;Location: 109798 - 109583" locus_tag="ACY06300.1" class="clusterblast-orf" id="dummy-1_h1_4_9"  />
</g>
<g id="a1_0010"  >
<polygon points="58,85 63,80 67,80 67,90 63,90 58,85 " style="fill:#d815bc; stroke-width:1; stroke:black; " description="&lt;b&gt;ACY06299.1&lt;/b&gt;&lt;br&gt;crotonyl CoA reductase&lt;br&gt;Location: 109511 - 108150&lt;br&gt;&lt;br&gt;&lt;b&gt;BlastP hit with ctg1_35&lt;/b&gt;&lt;br&gt;Percentage identity: 53&lt;br&gt;Percentage coverage: 97&lt;br&gt;BLAST bit score: 448&lt;br&gt;E-value: 1.6e-125" locus_tag="ACY06299.1" class="clusterblast-orf" id="dummy-1_h1_4_10"  />
</g>
<g id="a1_0011"  >
<polygon points="67,85 72,80 72,80 72,90 72,90 67,85 " style="fill:white; stroke-width:1; stroke:black; " description="&lt;b&gt;ACY06298.1&lt;/b&gt;&lt;br&gt;thioesterase&lt;br&gt;Location: 108145 - 107366" locus_tag="ACY06298.1" class="clusterblast-orf" id="dummy-1_h1_4_11"  />
</g>
<g id="a1_0012"  >
<polygon points="73,85 78,80 85,80 85,90 78,90 73,85 " style="fill:white; stroke-width:1; stroke:black; " description="&lt;b&gt;ACY06297.1&lt;/b&gt;&lt;br&gt;asparagine synthase&lt;br&gt;Location: 107216 - 105366" locus_tag="ACY06297.1" class="clusterblast-orf" id="dummy-1_h1_4_12"  />
</g>
<g id="a1_0013"  >
<polygon points="85,85 88,80 88,90 85,85 " style="fill:white; stroke-width:1; stroke:black; " description="&lt;b&gt;ACY06296.1&lt;/b&gt;&lt;br&gt;acyl carrier protein&lt;br&gt;Location: 105345 - 104941" locus_tag="ACY06296.1" class="clusterblast-orf" id="dummy-1_h1_4_13"  />
</g>
<g id="a1_0014"  >
<polygon points="87,85 92,80 94,80 94,90 92,90 87,85 " style="fill:white; stroke-width:1; stroke:black; " description="&lt;b&gt;ACY06295.1&lt;/b&gt;&lt;br&gt;3-oxoacyl-(acyl-carrier-protein) synthase III&lt;br&gt;Location: 105023 - 104001" locus_tag="ACY06295.1" class="clusterblast-orf" id="dummy-1_h1_4_14"  />
</g>
<g id="a1_0015"  >
<polygon points="95,85 99,80 99,90 95,85 " style="fill:white; stroke-width:1; stroke:black; " description="&lt;b&gt;ACY06294.1&lt;/b&gt;&lt;br&gt;short-chain dehydrogenase/reductase&lt;br&gt;Location: 103929 - 103210" locus_tag="ACY06294.1" class="clusterblast-orf" id="dummy-1_h1_4_15"  />
</g>
<g id="a1_0016"  >
<polygon points="99,85 104,80 108,80 108,90 104,90 99,85 " style="fill:white; stroke-width:1; stroke:black; " description="&lt;b&gt;ACY06293.1&lt;/b&gt;&lt;br&gt;acyltransferase&lt;br&gt;Location: 103213 - 101936" locus_tag="ACY06293.1" class="clusterblast-orf" id="dummy-1_h1_4_16"  />
</g>
<g id="a1_0017"  >
<polygon points="108,85 113,80 138,80 138,90 113,90 108,85 " style="fill:white; stroke-width:1; stroke:black; " description="&lt;b&gt;ACY06292.1&lt;/b&gt;&lt;br&gt;modular polyketide synthase&lt;br&gt;Location: 101943 - 97396" locus_tag="ACY06292.1" class="clusterblast-orf" id="dummy-1_h1_4_17"  />
</g>
<g id="a1_0018"  >
<polygon points="138,85 143,80 145,80 145,90 143,90 138,85 " style="fill:white; stroke-width:1; stroke:black; " description="&lt;b&gt;ACY06291.1&lt;/b&gt;&lt;br&gt;zinc-binding dehydrogenase&lt;br&gt;Location: 97391 - 96225" locus_tag="ACY06291.1" class="clusterblast-orf" id="dummy-1_h1_4_18"  />
</g>
<g id="a1_0019"  >
<polygon points="147,85 152,80 214,80 214,90 152,90 147,85 " style="fill:#d8bc15; stroke-width:1; stroke:black; " description="&lt;b&gt;ACY06290.1&lt;/b&gt;&lt;br&gt;type I polyketide synthase&lt;br&gt;Location: 96040 - 85823&lt;br&gt;&lt;br&gt;&lt;b&gt;BlastP hit with ctg1_36&lt;/b&gt;&lt;br&gt;Percentage identity: 48&lt;br&gt;Percentage coverage: 89&lt;br&gt;BLAST bit score: 590&lt;br&gt;E-value: 4.6e-168" locus_tag="ACY06290.1" class="clusterblast-orf" id="dummy-1_h1_4_19"  />
</g>
<g id="a1_0020"  >
<polygon points="214,85 219,80 378,80 378,90 219,90 214,85 " style="fill:white; stroke-width:1; stroke:black; " description="&lt;b&gt;ACY06289.1&lt;/b&gt;&lt;br&gt;type I polyketide synthase&lt;br&gt;Location: 85823 - 60918" locus_tag="ACY06289.1" class="clusterblast-orf" id="dummy-1_h1_4_20"  />
</g>
<g id="a1_0021"  >
<polygon points="378,85 383,80 450,80 450,90 383,90 378,85 " style="fill:#d8bc15; stroke-width:1; stroke:black; " description="&lt;b&gt;ACY06288.1&lt;/b&gt;&lt;br&gt;type I polyketide synthase&lt;br&gt;Location: 60903 - 50017&lt;br&gt;&lt;br&gt;&lt;b&gt;BlastP hit with ctg1_36&lt;/b&gt;&lt;br&gt;Percentage identity: 51&lt;br&gt;Percentage coverage: 84&lt;br&gt;BLAST bit score: 618&lt;br&gt;E-value: 1.6e-176" locus_tag="ACY06288.1" class="clusterblast-orf" id="dummy-1_h1_4_21"  />
</g>
<g id="a1_0022"  >
<polygon points="450,85 455,80 533,80 533,90 455,90 450,85 " style="fill:#d8bc15; stroke-width:1; stroke:black; " description="&lt;b&gt;ACY06287.1&lt;/b&gt;&lt;br&gt;type I polyketide synthase&lt;br&gt;Location: 50014 - 37394&lt;br&gt;&lt;br&gt;&lt;b&gt;BlastP hit with ctg1_36&lt;/b&gt;&lt;br&gt;Percentage identity: 53&lt;br&gt;Percentage coverage: 84&lt;br&gt;BLAST bit score: 655&lt;br&gt;E-value: 8.9e-188&lt;br&gt;&lt;br&gt;&lt;b&gt;BlastP hit with ctg1_37&lt;/b&gt;&lt;br&gt;Percentage identity: 50&lt;br&gt;Percentage coverage: 74&lt;br&gt;BLAST bit score: 2294&lt;br&gt;E-value: 0.0" locus_tag="ACY06287.1" class="clusterblast-orf" id="dummy-1_h1_4_22"  />
</g>
<g id="a1_0023"  >
<polygon points="533,85 538,80 577,80 577,90 538,90 533,85 " style="fill:#d8bc15; stroke-width:1; stroke:black; " description="&lt;b&gt;ACY06286.1&lt;/b&gt;&lt;br&gt;polyketide synthase&lt;br&gt;Location: 37360 - 30707&lt;br&gt;&lt;br&gt;&lt;b&gt;BlastP hit with ctg1_36&lt;/b&gt;&lt;br&gt;Percentage identity: 49&lt;br&gt;Percentage coverage: 80&lt;br&gt;BLAST bit score: 554&lt;br&gt;E-value: 3.6e-157" locus_tag="ACY06286.1" class="clusterblast-orf" id="dummy-1_h1_4_23"  />
</g>
<g id="a1_0024"  >
<polygon points="577,85 582,80 648,80 648,90 582,90 577,85 " style="fill:white; stroke-width:1; stroke:black; " description="&lt;b&gt;ACY06285.1&lt;/b&gt;&lt;br&gt;non-ribosomal peptide synthetase&lt;br&gt;Location: 30714 - 19885" locus_tag="ACY06285.1" class="clusterblast-orf" id="dummy-1_h1_4_24"  />
</g>
<g id="a1_0025"  >
<polygon points="648,85 653,80 653,80 653,90 653,90 648,85 " style="fill:white; stroke-width:1; stroke:black; " description="&lt;b&gt;ACY06284.1&lt;/b&gt;&lt;br&gt;negative transcriptional regulator&lt;br&gt;Location: 19888 - 19193" locus_tag="ACY06284.1" class="clusterblast-orf" id="dummy-1_h1_4_25"  />
</g>
<g id="a1_0026"  >
<polygon points="653,85 658,80 662,80 662,90 658,90 653,85 " style="fill:white; stroke-width:1; stroke:black; " description="&lt;b&gt;ACY06283.1&lt;/b&gt;&lt;br&gt;L-lysine 6-monooxygenase&lt;br&gt;Location: 19191 - 17851" locus_tag="ACY06283.1" class="clusterblast-orf" id="dummy-1_h1_4_26"  />
</g>
<g id="a1_0027"  >
<polygon points="662,85 667,80 667,80 667,90 667,90 662,85 " style="fill:white; stroke-width:1; stroke:black; " description="&lt;b&gt;ACY06282.1&lt;/b&gt;&lt;br&gt;tyrosine 3-monooxygenase&lt;br&gt;Location: 17854 - 17024" locus_tag="ACY06282.1" class="clusterblast-orf" id="dummy-1_h1_4_27"  />
</g>
<g id="a1_0028"  >
<polygon points="674,85 677,80 677,90 674,85 " style="fill:white; stroke-width:1; stroke:black; " description="&lt;b&gt;ACY06281.1&lt;/b&gt;&lt;br&gt;chimeric AFGP/trypsinogen-like serine protease precursor&lt;br&gt;Location: 16063 - 15596" locus_tag="ACY06281.1" class="clusterblast-orf" id="dummy-1_h1_4_28"  />
</g>
<g id="a1_0029"  >
<polygon points="678,90 681,85 678,80 678,90 " style="fill:white; stroke-width:1; stroke:black; " description="&lt;b&gt;ACY06280.1&lt;/b&gt;&lt;br&gt;Ser/Arg-related nuclear matrix-like protein&lt;br&gt;Location: 15413 - 14973" locus_tag="ACY06280.1" class="clusterblast-orf" id="dummy-1_h1_4_29"  />
</g>
<g id="a1_0030"  >
<polygon points="682,85 684,80 684,90 682,85 " style="fill:white; stroke-width:1; stroke:black; " description="&lt;b&gt;ACY06279.1&lt;/b&gt;&lt;br&gt;transglycosylase-associated protein&lt;br&gt;Location: 14764 - 14498" locus_tag="ACY06279.1" class="clusterblast-orf" id="dummy-1_h1_4_30"  />
</g>
<g id="a1_0031"  >
<polygon points="687,85 691,80 691,90 687,85 " style="fill:white; stroke-width:1; stroke:black; " description="&lt;b&gt;ACY06278.1&lt;/b&gt;&lt;br&gt;TetR-like family regulator&lt;br&gt;Location: 14017 - 13385" locus_tag="ACY06278.1" class="clusterblast-orf" id="dummy-1_h1_4_31"  />
</g>
<g id="a1_0032"  >
<polygon points="692,90 693,90 698,85 693,80 692,80 692,90 " style="fill:white; stroke-width:1; stroke:black; " description="&lt;b&gt;ACY06277.1&lt;/b&gt;&lt;br&gt;hypothetical protein&lt;br&gt;Location: 13284 - 12370" locus_tag="ACY06277.1" class="clusterblast-orf" id="dummy-1_h1_4_32"  />
</g>
<g id="a1_0033"  >
<polygon points="698,85 703,80 703,80 703,90 703,90 698,85 " style="fill:white; stroke-width:1; stroke:black; " description="&lt;b&gt;ACY06276.1&lt;/b&gt;&lt;br&gt;hypothetical protein&lt;br&gt;Location: 12338 - 11553" locus_tag="ACY06276.1" class="clusterblast-orf" id="dummy-1_h1_4_33"  />
</g>
<g id="a1_0034"  >
<polygon points="707,85 710,80 710,90 707,85 " style="fill:white; stroke-width:1; stroke:black; " description="&lt;b&gt;ACY06275.1&lt;/b&gt;&lt;br&gt;putative protein kinase&lt;br&gt;Location: 10940 - 10602" locus_tag="ACY06275.1" class="clusterblast-orf" id="dummy-1_h1_4_34"  />
</g>
<g id="a1_0035"  >
<polygon points="710,85 715,80 716,80 716,90 715,90 710,85 " style="fill:white; stroke-width:1; stroke:black; " description="&lt;b&gt;ACY06274.1&lt;/b&gt;&lt;br&gt;LysR family regulator&lt;br&gt;Location: 10583 - 9708" locus_tag="ACY06274.1" class="clusterblast-orf" id="dummy-1_h1_4_35"  />
</g>
<g id="a1_0036"  >
<polygon points="716,90 718,90 723,85 718,80 716,80 716,90 " style="fill:white; stroke-width:1; stroke:black; " description="&lt;b&gt;ACY06273.1&lt;/b&gt;&lt;br&gt;dehydrogenase&lt;br&gt;Location: 9585 - 8587" locus_tag="ACY06273.1" class="clusterblast-orf" id="dummy-1_h1_4_36"  />
</g>
<g id="a1_0037"  >
<polygon points="726,85 731,80 731,80 731,90 731,90 726,85 " style="fill:white; stroke-width:1; stroke:black; " description="&lt;b&gt;ACY06272.1&lt;/b&gt;&lt;br&gt;deoxyadenosine kinase&lt;br&gt;Location: 8048 - 7389" locus_tag="ACY06272.1" class="clusterblast-orf" id="dummy-1_h1_4_37"  />
</g>
<g id="a1_0038"  >
<polygon points="734,85 739,80 742,80 742,90 739,90 734,85 " style="fill:white; stroke-width:1; stroke:black; " description="&lt;b&gt;ACY06271.1&lt;/b&gt;&lt;br&gt;putative p450 monooxygenase&lt;br&gt;Location: 6896 - 5748" locus_tag="ACY06271.1" class="clusterblast-orf" id="dummy-1_h1_4_38"  />
</g>
<g id="a1_0039"  >
<polygon points="743,85 748,80 749,80 749,90 748,90 743,85 " style="fill:white; stroke-width:1; stroke:black; " description="&lt;b&gt;ACY06270.1&lt;/b&gt;&lt;br&gt;methyltransferase&lt;br&gt;Location: 5496 - 4627" locus_tag="ACY06270.1" class="clusterblast-orf" id="dummy-1_h1_4_39"  />
</g>
<g id="a1_0040"  >
<polygon points="750,85 755,80 761,80 761,90 755,90 750,85 " style="fill:white; stroke-width:1; stroke:black; " description="&lt;b&gt;ACY06269.1&lt;/b&gt;&lt;br&gt;CoA ligase&lt;br&gt;Location: 4502 - 2850" locus_tag="ACY06269.1" class="clusterblast-orf" id="dummy-1_h1_4_40"  />
</g>
<g id="a1_0041"  >
<polygon points="761,85 763,80 763,90 761,85 " style="fill:white; stroke-width:1; stroke:black; " description="&lt;b&gt;ACY06268.1&lt;/b&gt;&lt;br&gt;acyl carrier protein&lt;br&gt;Location: 2853 - 2578" locus_tag="ACY06268.1" class="clusterblast-orf" id="dummy-1_h1_4_41"  />
</g>
<g id="a1_0042"  >
<polygon points="763,85 768,80 771,80 771,90 768,90 763,85 " style="fill:white; stroke-width:1; stroke:black; " description="&lt;b&gt;ACY06267.1&lt;/b&gt;&lt;br&gt;hypothetical protein&lt;br&gt;Location: 2505 - 1297" locus_tag="ACY06267.1" class="clusterblast-orf" id="dummy-1_h1_4_42"  />
</g>
<g id="a1_0043"  >
<polygon points="772,85 777,80 780,80 780,90 777,90 772,85 " style="fill:white; stroke-width:1; stroke:black; " description="&lt;b&gt;ACY06266.1&lt;/b&gt;&lt;br&gt;cytochrome P450 monooxygenase&lt;br&gt;Location: 1199 - 1" locus_tag="ACY06266.1" class="clusterblast-orf" id="dummy-1_h1_4_43"  />
</g>
</svg>
