<svg xmlns="http://www.w3.org/2000/svg" xmlns:xlink="http://www.w3.org/1999/xlink" version="1.1" x="0" y="0" height="230" width="800" viewBox="0 0 800 230" preserveAspectRatio="none"  >
<g label="Query sequence" class="clusterblast-cluster"  >
<text x="5" y="20" class="clusterblast-acc"  >
Query sequence</text>
<line x1="10" y1="35" x2="778.0" y2="35" style="stroke-width:1; stroke:grey; "  />
<polygon points="0,35 5,30 14,30 14,40 5,40 0,35 " style="fill:white; stroke-width:1; stroke:black; " description="&lt;b&gt;ctg10_3&lt;/b&gt;&lt;br&gt;ctg10 3&lt;br&gt;Location: 1323 - 2112" locus_tag="ctg10_3" class="clusterblast-orf" id="dummy-1_q0_0_all"  />
<polygon points="16,35 21,30 30,30 30,40 21,40 16,35 " style="fill:#d81515; stroke-width:1; stroke:black; " description="&lt;b&gt;ctg10_4&lt;/b&gt;&lt;br&gt;ctg10 4&lt;br&gt;Location: 2216 - 2984" locus_tag="ctg10_4" class="clusterblast-orf" id="dummy-1_q1_0_all"  />
<polygon points="30,35 35,30 49,30 49,40 35,40 30,35 " style="fill:#3cd815; stroke-width:1; stroke:black; " description="&lt;b&gt;ctg10_5&lt;/b&gt;&lt;br&gt;ctg10 5&lt;br&gt;Location: 2980 - 4036" locus_tag="ctg10_5" class="clusterblast-orf" id="dummy-1_q2_0_all"  />
<polygon points="49,35 54,30 68,30 68,40 54,40 49,35 " style="fill:white; stroke-width:1; stroke:black; " description="&lt;b&gt;ctg10_6&lt;/b&gt;&lt;br&gt;ctg10 6&lt;br&gt;Location: 4013 - 5075" locus_tag="ctg10_6" class="clusterblast-orf" id="dummy-1_q3_0_all"  />
<polygon points="71,35 76,30 78,30 78,40 76,40 71,35 " style="fill:white; stroke-width:1; stroke:black; " description="&lt;b&gt;ctg10_7&lt;/b&gt;&lt;br&gt;ctg10 7&lt;br&gt;Location: 5216 - 5612" locus_tag="ctg10_7" class="clusterblast-orf" id="dummy-1_q4_0_all"  />
<polygon points="78,35 81,30 81,40 78,35 " style="fill:white; stroke-width:1; stroke:black; " description="&lt;b&gt;ctg10_8&lt;/b&gt;&lt;br&gt;ctg10 8&lt;br&gt;Location: 5608 - 5755" locus_tag="ctg10_8" class="clusterblast-orf" id="dummy-1_q5_0_all"  />
<polygon points="81,35 86,30 97,30 97,40 86,40 81,35 " style="fill:white; stroke-width:1; stroke:black; " description="&lt;b&gt;ctg10_9&lt;/b&gt;&lt;br&gt;ctg10 9&lt;br&gt;Location: 5754 - 6642" locus_tag="ctg10_9" class="clusterblast-orf" id="dummy-1_q6_0_all"  />
<polygon points="97,35 102,30 108,30 108,40 102,40 97,35 " style="fill:white; stroke-width:1; stroke:black; " description="&lt;b&gt;ctg10_10&lt;/b&gt;&lt;br&gt;ctg10 10&lt;br&gt;Location: 6641 - 7232" locus_tag="ctg10_10" class="clusterblast-orf" id="dummy-1_q7_0_all"  />
<polygon points="110,35 115,30 130,30 130,40 115,40 110,35 " style="fill:white; stroke-width:1; stroke:black; " description="&lt;b&gt;ctg10_11&lt;/b&gt;&lt;br&gt;ctg10 11&lt;br&gt;Location: 7374 - 8433" locus_tag="ctg10_11" class="clusterblast-orf" id="dummy-1_q8_0_all"  />
<polygon points="131,35 136,30 161,30 161,40 136,40 131,35 " style="fill:white; stroke-width:1; stroke:black; " description="&lt;b&gt;ctg10_12&lt;/b&gt;&lt;br&gt;ctg10 12&lt;br&gt;Location: 8508 - 10176" locus_tag="ctg10_12" class="clusterblast-orf" id="dummy-1_q9_0_all"  />
<polygon points="164,35 169,30 190,30 190,40 169,40 164,35 " style="fill:white; stroke-width:1; stroke:black; " description="&lt;b&gt;ctg10_13&lt;/b&gt;&lt;br&gt;ctg10 13&lt;br&gt;Location: 10316 - 11744" locus_tag="ctg10_13" class="clusterblast-orf" id="dummy-1_q10_0_all"  />
<polygon points="206,40 218,40 223,35 218,30 206,30 206,40 " style="fill:white; stroke-width:1; stroke:black; " description="&lt;b&gt;ctg10_14&lt;/b&gt;&lt;br&gt;ctg10 14&lt;br&gt;Location: 12589 - 13531" locus_tag="ctg10_14" class="clusterblast-orf" id="dummy-1_q11_0_all"  />
<polygon points="224,35 229,30 246,30 246,40 229,40 224,35 " style="fill:white; stroke-width:1; stroke:black; " description="&lt;b&gt;ctg10_15&lt;/b&gt;&lt;br&gt;ctg10 15&lt;br&gt;Location: 13580 - 14822" locus_tag="ctg10_15" class="clusterblast-orf" id="dummy-1_q12_0_all"  />
<polygon points="248,35 253,30 261,30 261,40 253,40 248,35 " style="fill:#1563d8; stroke-width:1; stroke:black; " description="&lt;b&gt;ctg10_16&lt;/b&gt;&lt;br&gt;ctg10 16&lt;br&gt;Location: 14902 - 15634" locus_tag="ctg10_16" class="clusterblast-orf" id="dummy-1_q13_0_all"  />
<polygon points="261,35 266,30 276,30 276,40 266,40 261,35 " style="fill:#b115d8; stroke-width:1; stroke:black; " description="&lt;b&gt;ctg10_17&lt;/b&gt;&lt;br&gt;ctg10 17&lt;br&gt;Location: 15649 - 16441" locus_tag="ctg10_17" class="clusterblast-orf" id="dummy-1_q14_0_all"  />
<polygon points="279,40 297,40 302,35 297,30 279,30 279,40 " style="fill:#d88a15; stroke-width:1; stroke:black; " description="&lt;b&gt;ctg10_18&lt;/b&gt;&lt;br&gt;ctg10 18&lt;br&gt;Location: 16592 - 17858" locus_tag="ctg10_18" class="clusterblast-orf" id="dummy-1_q15_0_all"  />
<polygon points="302,35 307,30 338,30 338,40 307,40 302,35 " style="fill:#1563d8; stroke-width:1; stroke:black; " description="&lt;b&gt;ctg10_19&lt;/b&gt;&lt;br&gt;ctg10 19&lt;br&gt;Location: 17847 - 19836" locus_tag="ctg10_19" class="clusterblast-orf" id="dummy-1_q16_0_all"  />
<polygon points="338,35 343,30 359,30 359,40 343,40 338,35 " style="fill:#15d863; stroke-width:1; stroke:black; " description="&lt;b&gt;ctg10_20&lt;/b&gt;&lt;br&gt;ctg10 20&lt;br&gt;Location: 19832 - 20975" locus_tag="ctg10_20" class="clusterblast-orf" id="dummy-1_q17_0_all"  />
<polygon points="359,35 364,30 459,30 459,40 364,40 359,35 " style="fill:#3c15d8; stroke-width:1; stroke:black; " description="&lt;b&gt;ctg10_21&lt;/b&gt;&lt;br&gt;ctg10 21&lt;br&gt;Location: 20971 - 26440" locus_tag="ctg10_21" class="clusterblast-orf" id="dummy-1_q18_0_all"  />
<polygon points="459,35 464,30 580,30 580,40 464,40 459,35 " style="fill:#d8158a; stroke-width:1; stroke:black; " description="&lt;b&gt;ctg10_22&lt;/b&gt;&lt;br&gt;ctg10 22&lt;br&gt;Location: 26436 - 33066" locus_tag="ctg10_22" class="clusterblast-orf" id="dummy-1_q19_0_all"  />
<polygon points="584,40 609,40 614,35 609,30 584,30 584,40 " style="fill:#b1d815; stroke-width:1; stroke:black; " description="&lt;b&gt;ctg10_23&lt;/b&gt;&lt;br&gt;ctg10 23&lt;br&gt;Location: 33293 - 34934" locus_tag="ctg10_23" class="clusterblast-orf" id="dummy-1_q20_0_all"  />
<polygon points="615,40 619,35 615,30 615,40 " style="fill:white; stroke-width:1; stroke:black; " description="&lt;b&gt;ctg10_24&lt;/b&gt;&lt;br&gt;ctg10 24&lt;br&gt;Location: 35016 - 35214" locus_tag="ctg10_24" class="clusterblast-orf" id="dummy-1_q21_0_all"  />
<polygon points="620,40 644,40 649,35 644,30 620,30 620,40 " style="fill:white; stroke-width:1; stroke:black; " description="&lt;b&gt;ctg10_25&lt;/b&gt;&lt;br&gt;ctg10 25&lt;br&gt;Location: 35279 - 36863" locus_tag="ctg10_25" class="clusterblast-orf" id="dummy-1_q22_0_all"  />
<polygon points="649,40 661,40 666,35 661,30 649,30 649,40 " style="fill:white; stroke-width:1; stroke:black; " description="&lt;b&gt;ctg10_26&lt;/b&gt;&lt;br&gt;ctg10 26&lt;br&gt;Location: 36859 - 37813" locus_tag="ctg10_26" class="clusterblast-orf" id="dummy-1_q23_0_all"  />
<polygon points="666,40 677,40 682,35 677,30 666,30 666,40 " style="fill:white; stroke-width:1; stroke:black; " description="&lt;b&gt;ctg10_27&lt;/b&gt;&lt;br&gt;ctg10 27&lt;br&gt;Location: 37809 - 38679" locus_tag="ctg10_27" class="clusterblast-orf" id="dummy-1_q24_0_all"  />
<polygon points="682,40 705,40 710,35 705,30 682,30 682,40 " style="fill:white; stroke-width:1; stroke:black; " description="&lt;b&gt;ctg10_28&lt;/b&gt;&lt;br&gt;ctg10 28&lt;br&gt;Location: 38671 - 40213" locus_tag="ctg10_28" class="clusterblast-orf" id="dummy-1_q25_0_all"  />
<polygon points="711,35 716,30 736,30 736,40 716,40 711,35 " style="fill:#15d8d8; stroke-width:1; stroke:black; " description="&lt;b&gt;ctg10_29&lt;/b&gt;&lt;br&gt;ctg10 29&lt;br&gt;Location: 40283 - 41624" locus_tag="ctg10_29" class="clusterblast-orf" id="dummy-1_q26_0_all"  />
<polygon points="742,40 745,40 750,35 745,30 742,30 742,40 " style="fill:white; stroke-width:1; stroke:black; " description="&lt;b&gt;ctg10_30&lt;/b&gt;&lt;br&gt;ctg10 30&lt;br&gt;Location: 41976 - 42363" locus_tag="ctg10_30" class="clusterblast-orf" id="dummy-1_q27_0_all"  />
<polygon points="756,40 757,40 762,35 757,30 756,30 756,40 " style="fill:white; stroke-width:1; stroke:black; " description="&lt;b&gt;ctg10_31&lt;/b&gt;&lt;br&gt;ctg10 31&lt;br&gt;Location: 42745 - 43039" locus_tag="ctg10_31" class="clusterblast-orf" id="dummy-1_q28_0_all"  />
<polygon points="763,35 768,30 780,30 780,40 768,40 763,35 " style="fill:white; stroke-width:1; stroke:black; " description="&lt;b&gt;ctg10_32&lt;/b&gt;&lt;br&gt;ctg10 32&lt;br&gt;Location: 43112 - 44015" locus_tag="ctg10_32" class="clusterblast-orf" id="dummy-1_q29_0_all"  />
</g>
<g label="BGC0001351" description="BGC0001351_c1: Cahuitamycins (12% of genes show similarity), nrps" class="clusterblast-cluster"  >
<text x="5" y="70" class="clusterblast-acc"  >
<a xlink:href="https://mibig.secondarymetabolites.org/go/BGC0001351/1" target="_blank">BGC0001351</a>:                                                                    Cahuitamycins (12% of genes show similarity), nrps</text>
<line x1="10" y1="85" x2="778.0" y2="85" style="stroke-width:1; stroke:grey; "  />
</g>
<g id="a1_000"  >
<polygon points="9,85 14,80 34,80 34,90 14,90 9,85 " style="fill:white; stroke-width:1; stroke:black; " description="&lt;b&gt;AMK48246.1&lt;/b&gt;&lt;br&gt;L-ornithine-5-monooxygenase&lt;br&gt;Location: 1 - 1326" locus_tag="AMK48246.1" class="clusterblast-orf" id="dummy-1_h1_4_0"  />
</g>
<g id="a1_001"  >
<polygon points="35,90 48,90 53,85 48,80 35,80 35,90 " style="fill:white; stroke-width:1; stroke:black; " description="&lt;b&gt;AMK48223.1&lt;/b&gt;&lt;br&gt;formyltransferase&lt;br&gt;Location: 1410 - 2363" locus_tag="AMK48223.1" class="clusterblast-orf" id="dummy-1_h1_4_1"  />
</g>
<g id="a1_002"  >
<polygon points="61,90 74,90 79,85 74,80 61,80 61,90 " style="fill:white; stroke-width:1; stroke:black; " description="&lt;b&gt;AMK48224.1&lt;/b&gt;&lt;br&gt;putative iron(III)/siderophore ABC transporter substrate binding protein&lt;br&gt;Location: 2808 - 3824" locus_tag="AMK48224.1" class="clusterblast-orf" id="dummy-1_h1_4_2"  />
</g>
<g id="a1_003"  >
<polygon points="80,85 85,80 144,80 144,90 85,90 80,85 " style="fill:#d8158a; stroke-width:1; stroke:black; " description="&lt;b&gt;AMK48225.1&lt;/b&gt;&lt;br&gt;nonribosomal peptide synthetase&lt;br&gt;Location: 3889 - 7368&lt;br&gt;&lt;br&gt;&lt;b&gt;BlastP hit with ctg10_22&lt;/b&gt;&lt;br&gt;Percentage identity: 54&lt;br&gt;Percentage coverage: 51&lt;br&gt;BLAST bit score: 1031&lt;br&gt;E-value: 1.6e-300" locus_tag="AMK48225.1" class="clusterblast-orf" id="dummy-1_h1_4_3"  />
</g>
<g id="a1_004"  >
<polygon points="145,85 150,80 289,80 289,90 150,90 145,85 " style="fill:white; stroke-width:1; stroke:black; " description="&lt;b&gt;AMK48226.1&lt;/b&gt;&lt;br&gt;nonribosomal peptide synthetase&lt;br&gt;Location: 7426 - 15306" locus_tag="AMK48226.1" class="clusterblast-orf" id="dummy-1_h1_4_4"  />
</g>
<g id="a1_005"  >
<polygon points="289,85 294,80 371,80 371,90 294,90 289,85 " style="fill:white; stroke-width:1; stroke:black; " description="&lt;b&gt;AMK48227.1&lt;/b&gt;&lt;br&gt;nonribosomal peptide synthetas&lt;br&gt;Location: 15303 - 19814" locus_tag="AMK48227.1" class="clusterblast-orf" id="dummy-1_h1_4_5"  />
</g>
<g id="a1_006"  >
<polygon points="371,85 376,80 429,80 429,90 376,90 371,85 " style="fill:white; stroke-width:1; stroke:black; " description="&lt;b&gt;AMK48228.1&lt;/b&gt;&lt;br&gt;nonribosomal peptide synthetase&lt;br&gt;Location: 19811 - 22984" locus_tag="AMK48228.1" class="clusterblast-orf" id="dummy-1_h1_4_6"  />
</g>
<g id="a1_007"  >
<polygon points="429,85 433,80 433,90 429,85 " style="fill:white; stroke-width:1; stroke:black; " description="&lt;b&gt;AMK48229.1&lt;/b&gt;&lt;br&gt;MbtH-like protein&lt;br&gt;Location: 22984 - 23202" locus_tag="AMK48229.1" class="clusterblast-orf" id="dummy-1_h1_4_7"  />
</g>
<g id="a1_008"  >
<polygon points="433,85 438,80 442,80 442,90 438,90 433,85 " style="fill:white; stroke-width:1; stroke:black; " description="&lt;b&gt;AMK48230.1&lt;/b&gt;&lt;br&gt;aspartate 1-decarboxylase&lt;br&gt;Location: 23206 - 23694" locus_tag="AMK48230.1" class="clusterblast-orf" id="dummy-1_h1_4_8"  />
</g>
<g id="a1_009"  >
<polygon points="443,85 448,80 458,80 458,90 448,90 443,85 " style="fill:white; stroke-width:1; stroke:black; " description="&lt;b&gt;AMK48231.1&lt;/b&gt;&lt;br&gt;alpha-beta hydrolase&lt;br&gt;Location: 23736 - 24548" locus_tag="AMK48231.1" class="clusterblast-orf" id="dummy-1_h1_4_9"  />
</g>
<g id="a1_0010"  >
<polygon points="458,85 463,80 482,80 482,90 463,90 458,85 " style="fill:white; stroke-width:1; stroke:black; " description="&lt;b&gt;AMK48232.1&lt;/b&gt;&lt;br&gt;siderophore export protein&lt;br&gt;Location: 24576 - 25865" locus_tag="AMK48232.1" class="clusterblast-orf" id="dummy-1_h1_4_10"  />
</g>
<g id="a1_0011"  >
<polygon points="482,85 487,80 506,80 506,90 487,90 482,85 " style="fill:#15d8d8; stroke-width:1; stroke:black; " description="&lt;b&gt;AMK48233.1&lt;/b&gt;&lt;br&gt;salicylate synthase&lt;br&gt;Location: 25874 - 27208&lt;br&gt;&lt;br&gt;&lt;b&gt;BlastP hit with ctg10_29&lt;/b&gt;&lt;br&gt;Percentage identity: 48&lt;br&gt;Percentage coverage: 98&lt;br&gt;BLAST bit score: 332&lt;br&gt;E-value: 1.2e-90" locus_tag="AMK48233.1" class="clusterblast-orf" id="dummy-1_h1_4_11"  />
</g>
<g id="a1_0012"  >
<polygon points="511,90 536,90 541,85 536,80 511,80 511,90 " style="fill:#b1d815; stroke-width:1; stroke:black; " description="&lt;b&gt;AMK48234.1&lt;/b&gt;&lt;br&gt;salicylate-AMP ligase&lt;br&gt;Location: 27449 - 29083&lt;br&gt;&lt;br&gt;&lt;b&gt;BlastP hit with ctg10_23&lt;/b&gt;&lt;br&gt;Percentage identity: 57&lt;br&gt;Percentage coverage: 97&lt;br&gt;BLAST bit score: 572&lt;br&gt;E-value: 6.7e-163" locus_tag="AMK48234.1" class="clusterblast-orf" id="dummy-1_h1_4_12"  />
</g>
<g id="a1_0013"  >
<polygon points="541,90 555,90 560,85 555,80 541,80 541,90 " style="fill:white; stroke-width:1; stroke:black; " description="&lt;b&gt;AMK48235.1&lt;/b&gt;&lt;br&gt;iron ABC transporter permease&lt;br&gt;Location: 29073 - 30131" locus_tag="AMK48235.1" class="clusterblast-orf" id="dummy-1_h1_4_13"  />
</g>
<g id="a1_0014"  >
<polygon points="560,90 574,90 579,85 574,80 560,80 560,90 " style="fill:white; stroke-width:1; stroke:black; " description="&lt;b&gt;AMK48236.1&lt;/b&gt;&lt;br&gt;iron ABC transporter permease&lt;br&gt;Location: 30128 - 31189" locus_tag="AMK48236.1" class="clusterblast-orf" id="dummy-1_h1_4_14"  />
</g>
<g id="a1_0015"  >
<polygon points="581,85 586,80 615,80 615,90 586,90 581,85 " style="fill:white; stroke-width:1; stroke:black; " description="&lt;b&gt;AMK48237.1&lt;/b&gt;&lt;br&gt;FAD/iron sulfur cluster binding oxidoreductase&lt;br&gt;Location: 31284 - 33128" locus_tag="AMK48237.1" class="clusterblast-orf" id="dummy-1_h1_4_15"  />
</g>
<g id="a1_0016"  >
<polygon points="614,85 619,80 634,80 634,90 619,90 614,85 " style="fill:white; stroke-width:1; stroke:black; " description="&lt;b&gt;AMK48238.1&lt;/b&gt;&lt;br&gt;putative peptidase C45, acyl-coenzyme A/6-aminopenicillanic acid acyl-transferase&lt;br&gt;Location: 33113 - 34198" locus_tag="AMK48238.1" class="clusterblast-orf" id="dummy-1_h1_4_16"  />
</g>
<g id="a1_0017"  >
<polygon points="634,85 639,80 653,80 653,90 639,90 634,85 " style="fill:white; stroke-width:1; stroke:black; " description="&lt;b&gt;AMK48239.1&lt;/b&gt;&lt;br&gt;putative 6-aminohexanoate-oligomer hydrolase&lt;br&gt;Location: 34183 - 35217" locus_tag="AMK48239.1" class="clusterblast-orf" id="dummy-1_h1_4_17"  />
</g>
<g id="a1_0018"  >
<polygon points="653,85 658,80 667,80 667,90 658,90 653,85 " style="fill:white; stroke-width:1; stroke:black; " description="&lt;b&gt;AMK48243.1&lt;/b&gt;&lt;br&gt;putative ABC transporter ATPase&lt;br&gt;Location: 35214 - 35969" locus_tag="AMK48243.1" class="clusterblast-orf" id="dummy-1_h1_4_18"  />
</g>
<g id="a1_0019"  >
<polygon points="666,85 671,80 685,80 685,90 671,90 666,85 " style="fill:white; stroke-width:1; stroke:black; " description="&lt;b&gt;AMK48242.1&lt;/b&gt;&lt;br&gt;putative ABC transporter ATPase&lt;br&gt;Location: 35966 - 36955" locus_tag="AMK48242.1" class="clusterblast-orf" id="dummy-1_h1_4_19"  />
</g>
<g id="a1_0020"  >
<polygon points="685,85 690,80 700,80 700,90 690,90 685,85 " style="fill:white; stroke-width:1; stroke:black; " description="&lt;b&gt;AMK48241.1&lt;/b&gt;&lt;br&gt;putative ABC transporter permease&lt;br&gt;Location: 36952 - 37812" locus_tag="AMK48241.1" class="clusterblast-orf" id="dummy-1_h1_4_20"  />
</g>
<g id="a1_0021"  >
<polygon points="700,85 705,80 718,80 718,90 705,90 700,85 " style="fill:white; stroke-width:1; stroke:black; " description="&lt;b&gt;AMK48240.1&lt;/b&gt;&lt;br&gt;putative ABC transporter permease&lt;br&gt;Location: 37809 - 38780" locus_tag="AMK48240.1" class="clusterblast-orf" id="dummy-1_h1_4_21"  />
</g>
<g id="a1_0022"  >
<polygon points="718,85 723,80 746,80 746,90 723,90 718,85 " style="fill:white; stroke-width:1; stroke:black; " description="&lt;b&gt;AMK48244.1&lt;/b&gt;&lt;br&gt;putative extracellular solute-binding protein&lt;br&gt;Location: 38787 - 40343" locus_tag="AMK48244.1" class="clusterblast-orf" id="dummy-1_h1_4_22"  />
</g>
<g id="a1_0023"  >
<polygon points="751,85 756,80 770,80 770,90 756,90 751,85 " style="fill:white; stroke-width:1; stroke:black; " description="&lt;b&gt;AMK48245.1&lt;/b&gt;&lt;br&gt;LacI-family transcriptional regulator&lt;br&gt;Location: 40607 - 41608" locus_tag="AMK48245.1" class="clusterblast-orf" id="dummy-1_h1_4_23"  />
</g>
</svg>
