<svg xmlns="http://www.w3.org/2000/svg" xmlns:xlink="http://www.w3.org/1999/xlink" version="1.1" x="0" y="0" height="230" width="800" viewBox="0 0 800 230" preserveAspectRatio="none"  >
<g label="Query sequence" class="clusterblast-cluster"  >
<text x="5" y="20" class="clusterblast-acc"  >
Query sequence</text>
<line x1="10" y1="35" x2="778.0" y2="35" style="stroke-width:1; stroke:grey; "  />
<polygon points="0,35 5,30 14,30 14,40 5,40 0,35 " style="fill:white; stroke-width:1; stroke:black; " description="&lt;b&gt;ctg10_3&lt;/b&gt;&lt;br&gt;ctg10 3&lt;br&gt;Location: 1323 - 2112" locus_tag="ctg10_3" class="clusterblast-orf" id="dummy-1_q0_0_all"  />
<polygon points="16,35 21,30 30,30 30,40 21,40 16,35 " style="fill:#d81515; stroke-width:1; stroke:black; " description="&lt;b&gt;ctg10_4&lt;/b&gt;&lt;br&gt;ctg10 4&lt;br&gt;Location: 2216 - 2984" locus_tag="ctg10_4" class="clusterblast-orf" id="dummy-1_q1_0_all"  />
<polygon points="30,35 35,30 49,30 49,40 35,40 30,35 " style="fill:#3cd815; stroke-width:1; stroke:black; " description="&lt;b&gt;ctg10_5&lt;/b&gt;&lt;br&gt;ctg10 5&lt;br&gt;Location: 2980 - 4036" locus_tag="ctg10_5" class="clusterblast-orf" id="dummy-1_q2_0_all"  />
<polygon points="49,35 54,30 68,30 68,40 54,40 49,35 " style="fill:white; stroke-width:1; stroke:black; " description="&lt;b&gt;ctg10_6&lt;/b&gt;&lt;br&gt;ctg10 6&lt;br&gt;Location: 4013 - 5075" locus_tag="ctg10_6" class="clusterblast-orf" id="dummy-1_q3_0_all"  />
<polygon points="71,35 76,30 78,30 78,40 76,40 71,35 " style="fill:white; stroke-width:1; stroke:black; " description="&lt;b&gt;ctg10_7&lt;/b&gt;&lt;br&gt;ctg10 7&lt;br&gt;Location: 5216 - 5612" locus_tag="ctg10_7" class="clusterblast-orf" id="dummy-1_q4_0_all"  />
<polygon points="78,35 81,30 81,40 78,35 " style="fill:white; stroke-width:1; stroke:black; " description="&lt;b&gt;ctg10_8&lt;/b&gt;&lt;br&gt;ctg10 8&lt;br&gt;Location: 5608 - 5755" locus_tag="ctg10_8" class="clusterblast-orf" id="dummy-1_q5_0_all"  />
<polygon points="81,35 86,30 97,30 97,40 86,40 81,35 " style="fill:white; stroke-width:1; stroke:black; " description="&lt;b&gt;ctg10_9&lt;/b&gt;&lt;br&gt;ctg10 9&lt;br&gt;Location: 5754 - 6642" locus_tag="ctg10_9" class="clusterblast-orf" id="dummy-1_q6_0_all"  />
<polygon points="97,35 102,30 108,30 108,40 102,40 97,35 " style="fill:white; stroke-width:1; stroke:black; " description="&lt;b&gt;ctg10_10&lt;/b&gt;&lt;br&gt;ctg10 10&lt;br&gt;Location: 6641 - 7232" locus_tag="ctg10_10" class="clusterblast-orf" id="dummy-1_q7_0_all"  />
<polygon points="110,35 115,30 130,30 130,40 115,40 110,35 " style="fill:white; stroke-width:1; stroke:black; " description="&lt;b&gt;ctg10_11&lt;/b&gt;&lt;br&gt;ctg10 11&lt;br&gt;Location: 7374 - 8433" locus_tag="ctg10_11" class="clusterblast-orf" id="dummy-1_q8_0_all"  />
<polygon points="131,35 136,30 161,30 161,40 136,40 131,35 " style="fill:white; stroke-width:1; stroke:black; " description="&lt;b&gt;ctg10_12&lt;/b&gt;&lt;br&gt;ctg10 12&lt;br&gt;Location: 8508 - 10176" locus_tag="ctg10_12" class="clusterblast-orf" id="dummy-1_q9_0_all"  />
<polygon points="164,35 169,30 190,30 190,40 169,40 164,35 " style="fill:white; stroke-width:1; stroke:black; " description="&lt;b&gt;ctg10_13&lt;/b&gt;&lt;br&gt;ctg10 13&lt;br&gt;Location: 10316 - 11744" locus_tag="ctg10_13" class="clusterblast-orf" id="dummy-1_q10_0_all"  />
<polygon points="206,40 218,40 223,35 218,30 206,30 206,40 " style="fill:white; stroke-width:1; stroke:black; " description="&lt;b&gt;ctg10_14&lt;/b&gt;&lt;br&gt;ctg10 14&lt;br&gt;Location: 12589 - 13531" locus_tag="ctg10_14" class="clusterblast-orf" id="dummy-1_q11_0_all"  />
<polygon points="224,35 229,30 246,30 246,40 229,40 224,35 " style="fill:white; stroke-width:1; stroke:black; " description="&lt;b&gt;ctg10_15&lt;/b&gt;&lt;br&gt;ctg10 15&lt;br&gt;Location: 13580 - 14822" locus_tag="ctg10_15" class="clusterblast-orf" id="dummy-1_q12_0_all"  />
<polygon points="248,35 253,30 261,30 261,40 253,40 248,35 " style="fill:#1563d8; stroke-width:1; stroke:black; " description="&lt;b&gt;ctg10_16&lt;/b&gt;&lt;br&gt;ctg10 16&lt;br&gt;Location: 14902 - 15634" locus_tag="ctg10_16" class="clusterblast-orf" id="dummy-1_q13_0_all"  />
<polygon points="261,35 266,30 276,30 276,40 266,40 261,35 " style="fill:#b115d8; stroke-width:1; stroke:black; " description="&lt;b&gt;ctg10_17&lt;/b&gt;&lt;br&gt;ctg10 17&lt;br&gt;Location: 15649 - 16441" locus_tag="ctg10_17" class="clusterblast-orf" id="dummy-1_q14_0_all"  />
<polygon points="279,40 297,40 302,35 297,30 279,30 279,40 " style="fill:#d88a15; stroke-width:1; stroke:black; " description="&lt;b&gt;ctg10_18&lt;/b&gt;&lt;br&gt;ctg10 18&lt;br&gt;Location: 16592 - 17858" locus_tag="ctg10_18" class="clusterblast-orf" id="dummy-1_q15_0_all"  />
<polygon points="302,35 307,30 338,30 338,40 307,40 302,35 " style="fill:#1563d8; stroke-width:1; stroke:black; " description="&lt;b&gt;ctg10_19&lt;/b&gt;&lt;br&gt;ctg10 19&lt;br&gt;Location: 17847 - 19836" locus_tag="ctg10_19" class="clusterblast-orf" id="dummy-1_q16_0_all"  />
<polygon points="338,35 343,30 359,30 359,40 343,40 338,35 " style="fill:#15d863; stroke-width:1; stroke:black; " description="&lt;b&gt;ctg10_20&lt;/b&gt;&lt;br&gt;ctg10 20&lt;br&gt;Location: 19832 - 20975" locus_tag="ctg10_20" class="clusterblast-orf" id="dummy-1_q17_0_all"  />
<polygon points="359,35 364,30 459,30 459,40 364,40 359,35 " style="fill:#3c15d8; stroke-width:1; stroke:black; " description="&lt;b&gt;ctg10_21&lt;/b&gt;&lt;br&gt;ctg10 21&lt;br&gt;Location: 20971 - 26440" locus_tag="ctg10_21" class="clusterblast-orf" id="dummy-1_q18_0_all"  />
<polygon points="459,35 464,30 580,30 580,40 464,40 459,35 " style="fill:#d8158a; stroke-width:1; stroke:black; " description="&lt;b&gt;ctg10_22&lt;/b&gt;&lt;br&gt;ctg10 22&lt;br&gt;Location: 26436 - 33066" locus_tag="ctg10_22" class="clusterblast-orf" id="dummy-1_q19_0_all"  />
<polygon points="584,40 609,40 614,35 609,30 584,30 584,40 " style="fill:#b1d815; stroke-width:1; stroke:black; " description="&lt;b&gt;ctg10_23&lt;/b&gt;&lt;br&gt;ctg10 23&lt;br&gt;Location: 33293 - 34934" locus_tag="ctg10_23" class="clusterblast-orf" id="dummy-1_q20_0_all"  />
<polygon points="615,40 619,35 615,30 615,40 " style="fill:white; stroke-width:1; stroke:black; " description="&lt;b&gt;ctg10_24&lt;/b&gt;&lt;br&gt;ctg10 24&lt;br&gt;Location: 35016 - 35214" locus_tag="ctg10_24" class="clusterblast-orf" id="dummy-1_q21_0_all"  />
<polygon points="620,40 644,40 649,35 644,30 620,30 620,40 " style="fill:white; stroke-width:1; stroke:black; " description="&lt;b&gt;ctg10_25&lt;/b&gt;&lt;br&gt;ctg10 25&lt;br&gt;Location: 35279 - 36863" locus_tag="ctg10_25" class="clusterblast-orf" id="dummy-1_q22_0_all"  />
<polygon points="649,40 661,40 666,35 661,30 649,30 649,40 " style="fill:white; stroke-width:1; stroke:black; " description="&lt;b&gt;ctg10_26&lt;/b&gt;&lt;br&gt;ctg10 26&lt;br&gt;Location: 36859 - 37813" locus_tag="ctg10_26" class="clusterblast-orf" id="dummy-1_q23_0_all"  />
<polygon points="666,40 677,40 682,35 677,30 666,30 666,40 " style="fill:white; stroke-width:1; stroke:black; " description="&lt;b&gt;ctg10_27&lt;/b&gt;&lt;br&gt;ctg10 27&lt;br&gt;Location: 37809 - 38679" locus_tag="ctg10_27" class="clusterblast-orf" id="dummy-1_q24_0_all"  />
<polygon points="682,40 705,40 710,35 705,30 682,30 682,40 " style="fill:white; stroke-width:1; stroke:black; " description="&lt;b&gt;ctg10_28&lt;/b&gt;&lt;br&gt;ctg10 28&lt;br&gt;Location: 38671 - 40213" locus_tag="ctg10_28" class="clusterblast-orf" id="dummy-1_q25_0_all"  />
<polygon points="711,35 716,30 736,30 736,40 716,40 711,35 " style="fill:#15d8d8; stroke-width:1; stroke:black; " description="&lt;b&gt;ctg10_29&lt;/b&gt;&lt;br&gt;ctg10 29&lt;br&gt;Location: 40283 - 41624" locus_tag="ctg10_29" class="clusterblast-orf" id="dummy-1_q26_0_all"  />
<polygon points="742,40 745,40 750,35 745,30 742,30 742,40 " style="fill:white; stroke-width:1; stroke:black; " description="&lt;b&gt;ctg10_30&lt;/b&gt;&lt;br&gt;ctg10 30&lt;br&gt;Location: 41976 - 42363" locus_tag="ctg10_30" class="clusterblast-orf" id="dummy-1_q27_0_all"  />
<polygon points="756,40 757,40 762,35 757,30 756,30 756,40 " style="fill:white; stroke-width:1; stroke:black; " description="&lt;b&gt;ctg10_31&lt;/b&gt;&lt;br&gt;ctg10 31&lt;br&gt;Location: 42745 - 43039" locus_tag="ctg10_31" class="clusterblast-orf" id="dummy-1_q28_0_all"  />
<polygon points="763,35 768,30 780,30 780,40 768,40 763,35 " style="fill:white; stroke-width:1; stroke:black; " description="&lt;b&gt;ctg10_32&lt;/b&gt;&lt;br&gt;ctg10 32&lt;br&gt;Location: 43112 - 44015" locus_tag="ctg10_32" class="clusterblast-orf" id="dummy-1_q29_0_all"  />
</g>
<g label="BGC0000324" description="BGC0000324_c1: Coelibactin (81% of genes show similarity), nrps" class="clusterblast-cluster"  >
<text x="5" y="70" class="clusterblast-acc"  >
<a xlink:href="https://mibig.secondarymetabolites.org/go/BGC0000324/1" target="_blank">BGC0000324</a>:                                                                      Coelibactin (81% of genes show similarity), nrps</text>
<line x1="10" y1="85" x2="778.0" y2="85" style="stroke-width:1; stroke:grey; "  />
</g>
<g id="a1_000"  >
<polygon points="160,85 165,80 186,80 186,90 165,90 160,85 " style="fill:#15d8d8; stroke-width:1; stroke:black; " description="&lt;b&gt;CAC17508.1&lt;/b&gt;&lt;br&gt;putative lyase&lt;br&gt;Location: 25121 - 23706&lt;br&gt;&lt;br&gt;&lt;b&gt;BlastP hit with ctg10_29&lt;/b&gt;&lt;br&gt;Percentage identity: 47&lt;br&gt;Percentage coverage: 101&lt;br&gt;BLAST bit score: 329&lt;br&gt;E-value: 8.1e-90" locus_tag="CAC17508.1" class="clusterblast-orf" id="dummy-1_h1_1_0"  />
</g>
<g id="a1_001"  >
<polygon points="187,85 192,80 219,80 219,90 192,90 187,85 " style="fill:white; stroke-width:1; stroke:black; " description="&lt;b&gt;CAC17507.1&lt;/b&gt;&lt;br&gt;putative ABC transporter ATP-binding protein&lt;br&gt;Location: 23647 - 21884" locus_tag="CAC17507.1" class="clusterblast-orf" id="dummy-1_h1_1_1"  />
</g>
<g id="a1_002"  >
<polygon points="219,85 224,80 252,80 252,90 224,90 219,85 " style="fill:white; stroke-width:1; stroke:black; " description="&lt;b&gt;CAC17506.1&lt;/b&gt;&lt;br&gt;putative ABC transporter ATP-binding protein&lt;br&gt;Location: 21887 - 20061" locus_tag="CAC17506.1" class="clusterblast-orf" id="dummy-1_h1_1_2"  />
</g>
<g id="a1_003"  >
<polygon points="253,85 258,80 266,80 266,90 258,90 253,85 " style="fill:#1563d8; stroke-width:1; stroke:black; " description="&lt;b&gt;CAC17505.1&lt;/b&gt;&lt;br&gt;conserved hypothetical protein&lt;br&gt;Location: 20028 - 19300&lt;br&gt;&lt;br&gt;&lt;b&gt;BlastP hit with ctg10_16&lt;/b&gt;&lt;br&gt;Percentage identity: 63&lt;br&gt;Percentage coverage: 98&lt;br&gt;BLAST bit score: 294&lt;br&gt;E-value: 2e-79" locus_tag="CAC17505.1" class="clusterblast-orf" id="dummy-1_h1_1_3"  />
</g>
<g id="a1_004"  >
<polygon points="267,85 272,80 282,80 282,90 272,90 267,85 " style="fill:#b115d8; stroke-width:1; stroke:black; " description="&lt;b&gt;CAC17504.1&lt;/b&gt;&lt;br&gt;putative thioesterase&lt;br&gt;Location: 19289 - 18456&lt;br&gt;&lt;br&gt;&lt;b&gt;BlastP hit with ctg10_17&lt;/b&gt;&lt;br&gt;Percentage identity: 50&lt;br&gt;Percentage coverage: 98&lt;br&gt;BLAST bit score: 259&lt;br&gt;E-value: 6e-69" locus_tag="CAC17504.1" class="clusterblast-orf" id="dummy-1_h1_1_4"  />
</g>
<g id="a1_005"  >
<polygon points="282,85 287,80 304,80 304,90 287,90 282,85 " style="fill:#d88a15; stroke-width:1; stroke:black; " description="&lt;b&gt;CAC17503.1&lt;/b&gt;&lt;br&gt;putative cytochrome P450&lt;br&gt;Location: 18459 - 17224&lt;br&gt;&lt;br&gt;&lt;b&gt;BlastP hit with ctg10_18&lt;/b&gt;&lt;br&gt;Percentage identity: 58&lt;br&gt;Percentage coverage: 96&lt;br&gt;BLAST bit score: 432&lt;br&gt;E-value: 6.4e-121" locus_tag="CAC17503.1" class="clusterblast-orf" id="dummy-1_h1_1_5"  />
</g>
<g id="a1_006"  >
<polygon points="304,85 309,80 342,80 342,90 309,90 304,85 " style="fill:#1563d8; stroke-width:1; stroke:black; " description="&lt;b&gt;CAC17502.1&lt;/b&gt;&lt;br&gt;conserved hypothetical protein&lt;br&gt;Location: 17215 - 15182&lt;br&gt;&lt;br&gt;&lt;b&gt;BlastP hit with ctg10_16&lt;/b&gt;&lt;br&gt;Percentage identity: 48&lt;br&gt;Percentage coverage: 100&lt;br&gt;BLAST bit score: 198&lt;br&gt;E-value: 1.2e-50&lt;br&gt;&lt;br&gt;&lt;b&gt;BlastP hit with ctg10_19&lt;/b&gt;&lt;br&gt;Percentage identity: 56&lt;br&gt;Percentage coverage: 102&lt;br&gt;BLAST bit score: 617&lt;br&gt;E-value: 2.2e-176" locus_tag="CAC17502.1" class="clusterblast-orf" id="dummy-1_h1_1_6"  />
</g>
<g id="a1_007"  >
<polygon points="342,85 347,80 363,80 363,90 347,90 342,85 " style="fill:#15d863; stroke-width:1; stroke:black; " description="&lt;b&gt;CAC17501.1&lt;/b&gt;&lt;br&gt;conserved hypothetical protein&lt;br&gt;Location: 15185 - 14034&lt;br&gt;&lt;br&gt;&lt;b&gt;BlastP hit with ctg10_20&lt;/b&gt;&lt;br&gt;Percentage identity: 50&lt;br&gt;Percentage coverage: 98&lt;br&gt;BLAST bit score: 273&lt;br&gt;E-value: 4.5e-73" locus_tag="CAC17501.1" class="clusterblast-orf" id="dummy-1_h1_1_7"  />
</g>
<g id="a1_008"  >
<polygon points="363,85 368,80 464,80 464,90 368,90 363,85 " style="fill:#3c15d8; stroke-width:1; stroke:black; " description="&lt;b&gt;CAC17500.1&lt;/b&gt;&lt;br&gt;putative non-ribosomal peptide synthase&lt;br&gt;Location: 14037 - 8509&lt;br&gt;&lt;br&gt;&lt;b&gt;BlastP hit with ctg10_21&lt;/b&gt;&lt;br&gt;Percentage identity: 52&lt;br&gt;Percentage coverage: 102&lt;br&gt;BLAST bit score: 1653&lt;br&gt;E-value: 0.0" locus_tag="CAC17500.1" class="clusterblast-orf" id="dummy-1_h1_1_8"  />
</g>
<g id="a1_009"  >
<polygon points="463,85 468,80 586,80 586,90 468,90 463,85 " style="fill:#d8158a; stroke-width:1; stroke:black; " description="&lt;b&gt;CAC17499.1&lt;/b&gt;&lt;br&gt;putative non-ribosomal peptide synthase&lt;br&gt;Location: 8512 - 1823&lt;br&gt;&lt;br&gt;&lt;b&gt;BlastP hit with ctg10_22&lt;/b&gt;&lt;br&gt;Percentage identity: 51&lt;br&gt;Percentage coverage: 101&lt;br&gt;BLAST bit score: 1936&lt;br&gt;E-value: 0.0" locus_tag="CAC17499.1" class="clusterblast-orf" id="dummy-1_h1_1_9"  />
</g>
<g id="a1_0010"  >
<polygon points="589,90 614,90 619,85 614,80 589,80 589,90 " style="fill:#b1d815; stroke-width:1; stroke:black; " description="&lt;b&gt;CAC17498.1&lt;/b&gt;&lt;br&gt;putative AMP-binding ligase&lt;br&gt;Location: 1662 - 1&lt;br&gt;&lt;br&gt;&lt;b&gt;BlastP hit with ctg10_23&lt;/b&gt;&lt;br&gt;Percentage identity: 56&lt;br&gt;Percentage coverage: 99&lt;br&gt;BLAST bit score: 581&lt;br&gt;E-value: 1.1e-165" locus_tag="CAC17498.1" class="clusterblast-orf" id="dummy-1_h1_1_10"  />
</g>
</svg>
