<svg xmlns="http://www.w3.org/2000/svg" xmlns:xlink="http://www.w3.org/1999/xlink" version="1.1" x="0" y="0" height="230" width="800" viewBox="0 0 800 230" preserveAspectRatio="none"  >
<g label="Query sequence" class="clusterblast-cluster"  >
<text x="5" y="20" class="clusterblast-acc"  >
Query sequence</text>
<line x1="10" y1="35" x2="778.0" y2="35" style="stroke-width:1; stroke:grey; "  />
<polygon points="183,35 188,30 195,30 195,40 188,40 183,35 " style="fill:white; stroke-width:1; stroke:black; " description="&lt;b&gt;ctg48_1&lt;/b&gt;&lt;br&gt;ctg48 1&lt;br&gt;Location: 69 - 801" locus_tag="ctg48_1" class="clusterblast-orf" id="dummy-1_q0_0_all"  />
<polygon points="195,35 200,30 210,30 210,40 200,40 195,35 " style="fill:white; stroke-width:1; stroke:black; " description="&lt;b&gt;ctg48_2&lt;/b&gt;&lt;br&gt;ctg48 2&lt;br&gt;Location: 797 - 1688" locus_tag="ctg48_2" class="clusterblast-orf" id="dummy-1_q1_0_all"  />
<polygon points="210,35 215,30 227,30 227,40 215,40 210,35 " style="fill:white; stroke-width:1; stroke:black; " description="&lt;b&gt;ctg48_3&lt;/b&gt;&lt;br&gt;ctg48 3&lt;br&gt;Location: 1695 - 2766" locus_tag="ctg48_3" class="clusterblast-orf" id="dummy-1_q2_0_all"  />
<polygon points="227,35 232,30 255,30 255,40 232,40 227,35 " style="fill:white; stroke-width:1; stroke:black; " description="&lt;b&gt;ctg48_4&lt;/b&gt;&lt;br&gt;ctg48 4&lt;br&gt;Location: 2747 - 4439" locus_tag="ctg48_4" class="clusterblast-orf" id="dummy-1_q3_0_all"  />
<polygon points="256,35 261,30 272,30 272,40 261,40 256,35 " style="fill:white; stroke-width:1; stroke:black; " description="&lt;b&gt;ctg48_5&lt;/b&gt;&lt;br&gt;ctg48 5&lt;br&gt;Location: 4490 - 5474" locus_tag="ctg48_5" class="clusterblast-orf" id="dummy-1_q4_0_all"  />
<polygon points="273,40 292,40 297,35 292,30 273,30 273,40 " style="fill:white; stroke-width:1; stroke:black; " description="&lt;b&gt;ctg48_6&lt;/b&gt;&lt;br&gt;ctg48 6&lt;br&gt;Location: 5567 - 6998" locus_tag="ctg48_6" class="clusterblast-orf" id="dummy-1_q5_0_all"  />
<polygon points="302,40 317,40 322,35 317,30 302,30 302,40 " style="fill:#d81515; stroke-width:1; stroke:black; " description="&lt;b&gt;ctg48_7&lt;/b&gt;&lt;br&gt;ctg48 7&lt;br&gt;Location: 7302 - 8499" locus_tag="ctg48_7" class="clusterblast-orf" id="dummy-1_q6_0_all"  />
<polygon points="323,35 328,30 340,30 340,40 328,40 323,35 " style="fill:#15d815; stroke-width:1; stroke:black; " description="&lt;b&gt;ctg48_8&lt;/b&gt;&lt;br&gt;ctg48 8&lt;br&gt;Location: 8559 - 9639" locus_tag="ctg48_8" class="clusterblast-orf" id="dummy-1_q7_0_all"  />
<polygon points="341,35 346,30 356,30 356,40 346,40 341,35 " style="fill:#1597d8; stroke-width:1; stroke:black; " description="&lt;b&gt;ctg48_9&lt;/b&gt;&lt;br&gt;ctg48 9&lt;br&gt;Location: 9659 - 10583" locus_tag="ctg48_9" class="clusterblast-orf" id="dummy-1_q8_0_all"  />
<polygon points="359,35 364,30 373,30 373,40 364,40 359,35 " style="fill:#9715d8; stroke-width:1; stroke:black; " description="&lt;b&gt;ctg48_10&lt;/b&gt;&lt;br&gt;ctg48 10&lt;br&gt;Location: 10784 - 11618" locus_tag="ctg48_10" class="clusterblast-orf" id="dummy-1_q9_0_all"  />
<polygon points="373,35 378,30 392,30 392,40 378,40 373,35 " style="fill:#d89715; stroke-width:1; stroke:black; " description="&lt;b&gt;ctg48_11&lt;/b&gt;&lt;br&gt;ctg48 11&lt;br&gt;Location: 11614 - 12766" locus_tag="ctg48_11" class="clusterblast-orf" id="dummy-1_q10_0_all"  />
<polygon points="392,40 407,40 412,35 407,30 392,30 392,40 " style="fill:white; stroke-width:1; stroke:black; " description="&lt;b&gt;ctg48_12&lt;/b&gt;&lt;br&gt;ctg48 12&lt;br&gt;Location: 12786 - 13989" locus_tag="ctg48_12" class="clusterblast-orf" id="dummy-1_q11_0_all"  />
<polygon points="413,35 418,30 426,30 426,40 418,40 413,35 " style="fill:white; stroke-width:1; stroke:black; " description="&lt;b&gt;ctg48_13&lt;/b&gt;&lt;br&gt;ctg48 13&lt;br&gt;Location: 14051 - 14882" locus_tag="ctg48_13" class="clusterblast-orf" id="dummy-1_q12_0_all"  />
<polygon points="426,35 431,30 448,30 448,40 431,40 426,35 " style="fill:#15d897; stroke-width:1; stroke:black; " description="&lt;b&gt;ctg48_14&lt;/b&gt;&lt;br&gt;ctg48 14&lt;br&gt;Location: 14878 - 16189" locus_tag="ctg48_14" class="clusterblast-orf" id="dummy-1_q13_0_all"  />
<polygon points="448,35 453,30 466,30 466,40 453,40 448,35 " style="fill:#1515d8; stroke-width:1; stroke:black; " description="&lt;b&gt;ctg48_15&lt;/b&gt;&lt;br&gt;ctg48 15&lt;br&gt;Location: 16185 - 17301" locus_tag="ctg48_15" class="clusterblast-orf" id="dummy-1_q14_0_all"  />
<polygon points="468,35 472,30 472,40 468,35 " style="fill:#d81597; stroke-width:1; stroke:black; " description="&lt;b&gt;ctg48_16&lt;/b&gt;&lt;br&gt;ctg48 16&lt;br&gt;Location: 17403 - 17676" locus_tag="ctg48_16" class="clusterblast-orf" id="dummy-1_q15_0_all"  />
<polygon points="478,35 483,30 596,30 596,40 483,40 478,35 " style="fill:#97d815; stroke-width:1; stroke:black; " description="&lt;b&gt;ctg48_17&lt;/b&gt;&lt;br&gt;ctg48 17&lt;br&gt;Location: 18022 - 25219" locus_tag="ctg48_17" class="clusterblast-orf" id="dummy-1_q16_0_all"  />
</g>
<g label="BGC0000333" description="BGC0000333_c1: Cyclomarin (13% of genes show similarity), nrps" class="clusterblast-cluster"  >
<text x="5" y="70" class="clusterblast-acc"  >
<a xlink:href="https://mibig.secondarymetabolites.org/go/BGC0000333/1" target="_blank">BGC0000333</a>:                                                                       Cyclomarin (13% of genes show similarity), nrps</text>
<line x1="10" y1="85" x2="778.0" y2="85" style="stroke-width:1; stroke:grey; "  />
</g>
<g id="a1_000"  >
<polygon points="0,85 5,80 13,80 13,90 5,90 0,85 " style="fill:white; stroke-width:1; stroke:black; " description="&lt;b&gt;Sare_4569&lt;/b&gt;&lt;br&gt;4-oxalocrotonate decarboxylase&lt;br&gt;Location: 47477 - 46683" locus_tag="Sare_4569" class="clusterblast-orf" id="dummy-1_h1_2_0"  />
</g>
<g id="a1_001"  >
<polygon points="12,85 17,80 29,80 29,90 17,90 12,85 " style="fill:white; stroke-width:1; stroke:black; " description="&lt;b&gt;Sare_4568&lt;/b&gt;&lt;br&gt;Methyltransferase type 12&lt;br&gt;Location: 46686 - 45703" locus_tag="Sare_4568" class="clusterblast-orf" id="dummy-1_h1_2_1"  />
</g>
<g id="a1_002"  >
<polygon points="29,85 34,80 46,80 46,90 34,90 29,85 " style="fill:white; stroke-width:1; stroke:black; " description="&lt;b&gt;Sare_4567&lt;/b&gt;&lt;br&gt;pyruvate carboxyltransferase&lt;br&gt;Location: 45684 - 44638" locus_tag="Sare_4567" class="clusterblast-orf" id="dummy-1_h1_2_2"  />
</g>
<g id="a1_003"  >
<polygon points="46,85 51,80 61,80 61,90 51,90 46,85 " style="fill:white; stroke-width:1; stroke:black; " description="&lt;b&gt;Sare_4566&lt;/b&gt;&lt;br&gt;Acetaldehyde dehydrogenase&lt;br&gt;Location: 44638 - 43751" locus_tag="Sare_4566" class="clusterblast-orf" id="dummy-1_h1_2_3"  />
</g>
<g id="a1_004"  >
<polygon points="61,85 66,80 79,80 79,90 66,90 61,85 " style="fill:white; stroke-width:1; stroke:black; " description="&lt;b&gt;Sare_4565&lt;/b&gt;&lt;br&gt;hypothetical protein&lt;br&gt;Location: 43754 - 42633" locus_tag="Sare_4565" class="clusterblast-orf" id="dummy-1_h1_2_4"  />
</g>
<g id="a1_005"  >
<polygon points="80,85 85,80 90,80 90,90 85,90 80,85 " style="fill:white; stroke-width:1; stroke:black; " description="&lt;b&gt;Sare_4564&lt;/b&gt;&lt;br&gt;isopentenyl-diphosphate delta-isomerase, type 1&lt;br&gt;Location: 42589 - 41999" locus_tag="Sare_4564" class="clusterblast-orf" id="dummy-1_h1_2_5"  />
</g>
<g id="a1_006"  >
<polygon points="90,85 93,80 93,90 90,85 " style="fill:white; stroke-width:1; stroke:black; " description="&lt;b&gt;Sare_4563&lt;/b&gt;&lt;br&gt;MbtH domain protein&lt;br&gt;Location: 41995 - 41780" locus_tag="Sare_4563" class="clusterblast-orf" id="dummy-1_h1_2_6"  />
</g>
<g id="a1_007"  >
<polygon points="93,85 98,80 477,80 477,90 98,90 93,85 " style="fill:#97d815; stroke-width:1; stroke:black; " description="&lt;b&gt;Sare_4562&lt;/b&gt;&lt;br&gt;amino acid adenylation domain&lt;br&gt;Location: 41780 - 18423&lt;br&gt;&lt;br&gt;&lt;b&gt;BlastP hit with ctg48_17&lt;/b&gt;&lt;br&gt;Percentage identity: 54&lt;br&gt;Percentage coverage: 90&lt;br&gt;BLAST bit score: 2086&lt;br&gt;E-value: 0.0" locus_tag="Sare_4562" class="clusterblast-orf" id="dummy-1_h1_2_7"  />
</g>
<g id="a1_008"  >
<polygon points="478,85 483,80 491,80 491,90 483,90 478,85 " style="fill:white; stroke-width:1; stroke:black; " description="&lt;b&gt;Sare_4561&lt;/b&gt;&lt;br&gt;Phytanoyl-CoA dioxygenase&lt;br&gt;Location: 18382 - 17588" locus_tag="Sare_4561" class="clusterblast-orf" id="dummy-1_h1_2_8"  />
</g>
<g id="a1_009"  >
<polygon points="492,85 497,80 511,80 511,90 497,90 492,85 " style="fill:white; stroke-width:1; stroke:black; " description="&lt;b&gt;Sare_4560&lt;/b&gt;&lt;br&gt;cytochrome P450&lt;br&gt;Location: 17508 - 16321" locus_tag="Sare_4560" class="clusterblast-orf" id="dummy-1_h1_2_9"  />
</g>
<g id="a1_0010"  >
<polygon points="514,85 519,80 557,80 557,90 519,90 514,85 " style="fill:white; stroke-width:1; stroke:black; " description="&lt;b&gt;Sare_4559&lt;/b&gt;&lt;br&gt;transcriptional regulator, LuxR family&lt;br&gt;Location: 16189 - 13556" locus_tag="Sare_4559" class="clusterblast-orf" id="dummy-1_h1_2_10"  />
</g>
<g id="a1_0011"  >
<polygon points="562,85 567,80 576,80 576,90 567,90 562,85 " style="fill:white; stroke-width:1; stroke:black; " description="&lt;b&gt;Sare_4558&lt;/b&gt;&lt;br&gt;transposase IS4 family protein&lt;br&gt;Location: 13218 - 12394" locus_tag="Sare_4558" class="clusterblast-orf" id="dummy-1_h1_2_11"  />
</g>
<g id="a1_0012"  >
<polygon points="582,90 597,90 602,85 597,80 582,80 582,90 " style="fill:white; stroke-width:1; stroke:black; " description="&lt;b&gt;Sare_4557&lt;/b&gt;&lt;br&gt;cytochrome P450&lt;br&gt;Location: 12045 - 10783" locus_tag="Sare_4557" class="clusterblast-orf" id="dummy-1_h1_2_12"  />
</g>
<g id="a1_0013"  >
<polygon points="603,85 608,80 611,80 611,90 608,90 603,85 " style="fill:white; stroke-width:1; stroke:black; " description="&lt;b&gt;Sare_4556&lt;/b&gt;&lt;br&gt;hypothetical protein&lt;br&gt;Location: 10756 - 10265" locus_tag="Sare_4556" class="clusterblast-orf" id="dummy-1_h1_2_13"  />
</g>
<g id="a1_0014"  >
<polygon points="611,85 616,80 623,80 623,90 616,90 611,85 " style="fill:white; stroke-width:1; stroke:black; " description="&lt;b&gt;Sare_4555&lt;/b&gt;&lt;br&gt;Thioesterase&lt;br&gt;Location: 10255 - 9527" locus_tag="Sare_4555" class="clusterblast-orf" id="dummy-1_h1_2_14"  />
</g>
<g id="a1_0015"  >
<polygon points="623,85 628,80 636,80 636,90 628,90 623,85 " style="fill:white; stroke-width:1; stroke:black; " description="&lt;b&gt;Sare_4554&lt;/b&gt;&lt;br&gt;methyltransferase FkbM family&lt;br&gt;Location: 9530 - 8739" locus_tag="Sare_4554" class="clusterblast-orf" id="dummy-1_h1_2_15"  />
</g>
<g id="a1_0016"  >
<polygon points="636,85 641,80 656,80 656,90 641,90 636,85 " style="fill:#d81515; stroke-width:1; stroke:black; " description="&lt;b&gt;Sare_4553&lt;/b&gt;&lt;br&gt;cytochrome P450&lt;br&gt;Location: 8742 - 7528&lt;br&gt;&lt;br&gt;&lt;b&gt;BlastP hit with ctg48_7&lt;/b&gt;&lt;br&gt;Percentage identity: 64&lt;br&gt;Percentage coverage: 97&lt;br&gt;BLAST bit score: 499&lt;br&gt;E-value: 5.2e-141" locus_tag="Sare_4553" class="clusterblast-orf" id="dummy-1_h1_2_16"  />
</g>
<g id="a1_0017"  >
<polygon points="659,90 705,90 710,85 705,80 659,80 659,90 " style="fill:white; stroke-width:1; stroke:black; " description="&lt;b&gt;Sare_4552&lt;/b&gt;&lt;br&gt;transcriptional regulator, winged helix family&lt;br&gt;Location: 7358 - 4227" locus_tag="Sare_4552" class="clusterblast-orf" id="dummy-1_h1_2_17"  />
</g>
<g id="a1_0018"  >
<polygon points="709,85 714,80 722,80 722,90 714,90 709,85 " style="fill:white; stroke-width:1; stroke:black; " description="&lt;b&gt;Sare_4551&lt;/b&gt;&lt;br&gt;ABC-2 type transporter&lt;br&gt;Location: 4309 - 3515" locus_tag="Sare_4551" class="clusterblast-orf" id="dummy-1_h1_2_18"  />
</g>
<g id="a1_0019"  >
<polygon points="722,85 727,80 737,80 737,90 727,90 722,85 " style="fill:#d89715; stroke-width:1; stroke:black; " description="&lt;b&gt;Sare_4550&lt;/b&gt;&lt;br&gt;daunorubicin resistance ABC transporter ATPase subunit&lt;br&gt;Location: 3518 - 2574&lt;br&gt;&lt;br&gt;&lt;b&gt;BlastP hit with ctg48_11&lt;/b&gt;&lt;br&gt;Percentage identity: 54&lt;br&gt;Percentage coverage: 80&lt;br&gt;BLAST bit score: 302&lt;br&gt;E-value: 1.2e-81" locus_tag="Sare_4550" class="clusterblast-orf" id="dummy-1_h1_2_19"  />
</g>
<g id="a1_0020"  >
<polygon points="738,85 743,80 748,80 748,90 743,90 738,85 " style="fill:white; stroke-width:1; stroke:black; " description="&lt;b&gt;Sare_4549&lt;/b&gt;&lt;br&gt;Phosphoglycerate mutase&lt;br&gt;Location: 2508 - 1906" locus_tag="Sare_4549" class="clusterblast-orf" id="dummy-1_h1_2_20"  />
</g>
<g id="a1_0021"  >
<polygon points="748,85 753,80 759,80 759,90 753,90 748,85 " style="fill:white; stroke-width:1; stroke:black; " description="&lt;b&gt;Sare_4548&lt;/b&gt;&lt;br&gt;conserved hypothetical protein&lt;br&gt;Location: 1896 - 1252" locus_tag="Sare_4548" class="clusterblast-orf" id="dummy-1_h1_2_21"  />
</g>
<g id="a1_0022"  >
<polygon points="760,90 775,90 780,85 775,80 760,80 760,90 " style="fill:white; stroke-width:1; stroke:black; " description="&lt;b&gt;Sare_4547&lt;/b&gt;&lt;br&gt;pyruvate phosphate dikinase PEP/pyruvate-binding&lt;br&gt;Location: 1161 - 1" locus_tag="Sare_4547" class="clusterblast-orf" id="dummy-1_h1_2_22"  />
</g>
</svg>
