<svg xmlns="http://www.w3.org/2000/svg" xmlns:xlink="http://www.w3.org/1999/xlink" version="1.1" x="0" y="0" height="230" width="800" viewBox="0 0 800 230" preserveAspectRatio="none"  >
<g label="Query sequence" class="clusterblast-cluster"  >
<text x="5" y="20" class="clusterblast-acc"  >
Query sequence</text>
<line x1="10" y1="35" x2="778.0" y2="35" style="stroke-width:1; stroke:grey; "  />
<polygon points="279,35 284,30 286,30 286,40 284,40 279,35 " style="fill:white; stroke-width:1; stroke:black; " description="&lt;b&gt;ctg48_1&lt;/b&gt;&lt;br&gt;ctg48 1&lt;br&gt;Location: 69 - 801" locus_tag="ctg48_1" class="clusterblast-orf" id="dummy-1_q0_0_all"  />
<polygon points="286,35 291,30 293,30 293,40 291,40 286,35 " style="fill:white; stroke-width:1; stroke:black; " description="&lt;b&gt;ctg48_2&lt;/b&gt;&lt;br&gt;ctg48 2&lt;br&gt;Location: 797 - 1688" locus_tag="ctg48_2" class="clusterblast-orf" id="dummy-1_q1_0_all"  />
<polygon points="293,35 298,30 303,30 303,40 298,40 293,35 " style="fill:white; stroke-width:1; stroke:black; " description="&lt;b&gt;ctg48_3&lt;/b&gt;&lt;br&gt;ctg48 3&lt;br&gt;Location: 1695 - 2766" locus_tag="ctg48_3" class="clusterblast-orf" id="dummy-1_q2_0_all"  />
<polygon points="303,35 308,30 318,30 318,40 308,40 303,35 " style="fill:white; stroke-width:1; stroke:black; " description="&lt;b&gt;ctg48_4&lt;/b&gt;&lt;br&gt;ctg48 4&lt;br&gt;Location: 2747 - 4439" locus_tag="ctg48_4" class="clusterblast-orf" id="dummy-1_q3_0_all"  />
<polygon points="318,35 323,30 327,30 327,40 323,40 318,35 " style="fill:white; stroke-width:1; stroke:black; " description="&lt;b&gt;ctg48_5&lt;/b&gt;&lt;br&gt;ctg48 5&lt;br&gt;Location: 4490 - 5474" locus_tag="ctg48_5" class="clusterblast-orf" id="dummy-1_q4_0_all"  />
<polygon points="327,40 335,40 340,35 335,30 327,30 327,40 " style="fill:white; stroke-width:1; stroke:black; " description="&lt;b&gt;ctg48_6&lt;/b&gt;&lt;br&gt;ctg48 6&lt;br&gt;Location: 5567 - 6998" locus_tag="ctg48_6" class="clusterblast-orf" id="dummy-1_q5_0_all"  />
<polygon points="343,40 348,40 353,35 348,30 343,30 343,40 " style="fill:#d81515; stroke-width:1; stroke:black; " description="&lt;b&gt;ctg48_7&lt;/b&gt;&lt;br&gt;ctg48 7&lt;br&gt;Location: 7302 - 8499" locus_tag="ctg48_7" class="clusterblast-orf" id="dummy-1_q6_0_all"  />
<polygon points="354,35 359,30 363,30 363,40 359,40 354,35 " style="fill:#15d815; stroke-width:1; stroke:black; " description="&lt;b&gt;ctg48_8&lt;/b&gt;&lt;br&gt;ctg48 8&lt;br&gt;Location: 8559 - 9639" locus_tag="ctg48_8" class="clusterblast-orf" id="dummy-1_q7_0_all"  />
<polygon points="363,35 368,30 371,30 371,40 368,40 363,35 " style="fill:#1597d8; stroke-width:1; stroke:black; " description="&lt;b&gt;ctg48_9&lt;/b&gt;&lt;br&gt;ctg48 9&lt;br&gt;Location: 9659 - 10583" locus_tag="ctg48_9" class="clusterblast-orf" id="dummy-1_q8_0_all"  />
<polygon points="373,35 378,30 381,30 381,40 378,40 373,35 " style="fill:#9715d8; stroke-width:1; stroke:black; " description="&lt;b&gt;ctg48_10&lt;/b&gt;&lt;br&gt;ctg48 10&lt;br&gt;Location: 10784 - 11618" locus_tag="ctg48_10" class="clusterblast-orf" id="dummy-1_q9_0_all"  />
<polygon points="381,35 386,30 391,30 391,40 386,40 381,35 " style="fill:#d89715; stroke-width:1; stroke:black; " description="&lt;b&gt;ctg48_11&lt;/b&gt;&lt;br&gt;ctg48 11&lt;br&gt;Location: 11614 - 12766" locus_tag="ctg48_11" class="clusterblast-orf" id="dummy-1_q10_0_all"  />
<polygon points="391,40 396,40 401,35 396,30 391,30 391,40 " style="fill:white; stroke-width:1; stroke:black; " description="&lt;b&gt;ctg48_12&lt;/b&gt;&lt;br&gt;ctg48 12&lt;br&gt;Location: 12786 - 13989" locus_tag="ctg48_12" class="clusterblast-orf" id="dummy-1_q11_0_all"  />
<polygon points="402,35 407,30 409,30 409,40 407,40 402,35 " style="fill:white; stroke-width:1; stroke:black; " description="&lt;b&gt;ctg48_13&lt;/b&gt;&lt;br&gt;ctg48 13&lt;br&gt;Location: 14051 - 14882" locus_tag="ctg48_13" class="clusterblast-orf" id="dummy-1_q12_0_all"  />
<polygon points="409,35 414,30 421,30 421,40 414,40 409,35 " style="fill:#15d897; stroke-width:1; stroke:black; " description="&lt;b&gt;ctg48_14&lt;/b&gt;&lt;br&gt;ctg48 14&lt;br&gt;Location: 14878 - 16189" locus_tag="ctg48_14" class="clusterblast-orf" id="dummy-1_q13_0_all"  />
<polygon points="421,35 426,30 430,30 430,40 426,40 421,35 " style="fill:#1515d8; stroke-width:1; stroke:black; " description="&lt;b&gt;ctg48_15&lt;/b&gt;&lt;br&gt;ctg48 15&lt;br&gt;Location: 16185 - 17301" locus_tag="ctg48_15" class="clusterblast-orf" id="dummy-1_q14_0_all"  />
<polygon points="431,35 434,30 434,40 431,35 " style="fill:#d81597; stroke-width:1; stroke:black; " description="&lt;b&gt;ctg48_16&lt;/b&gt;&lt;br&gt;ctg48 16&lt;br&gt;Location: 17403 - 17676" locus_tag="ctg48_16" class="clusterblast-orf" id="dummy-1_q15_0_all"  />
<polygon points="437,35 442,30 500,30 500,40 442,40 437,35 " style="fill:#97d815; stroke-width:1; stroke:black; " description="&lt;b&gt;ctg48_17&lt;/b&gt;&lt;br&gt;ctg48 17&lt;br&gt;Location: 18022 - 25219" locus_tag="ctg48_17" class="clusterblast-orf" id="dummy-1_q16_0_all"  />
</g>
<g label="BGC0000379" description="BGC0000379_c1: Laspartomycin (4% of genes show similarity), nrps" class="clusterblast-cluster"  >
<text x="5" y="70" class="clusterblast-acc"  >
<a xlink:href="https://mibig.secondarymetabolites.org/go/BGC0000379/1" target="_blank">BGC0000379</a>:                                                                    Laspartomycin (4% of genes show similarity), nrps</text>
<line x1="10" y1="85" x2="778.0" y2="85" style="stroke-width:1; stroke:grey; "  />
</g>
<g id="a1_000"  >
<polygon points="0,85 5,80 5,80 5,90 5,90 0,85 " style="fill:white; stroke-width:1; stroke:black; " description="&lt;b&gt;AEG64695.1&lt;/b&gt;&lt;br&gt;response regulator&lt;br&gt;Location: 88912 - 88235" locus_tag="AEG64695.1" class="clusterblast-orf" id="dummy-1_h1_10_0"  />
</g>
<g id="a1_001"  >
<polygon points="8,85 13,80 17,80 17,90 13,90 8,85 " style="fill:white; stroke-width:1; stroke:black; " description="&lt;b&gt;AEG64694.1&lt;/b&gt;&lt;br&gt;hypothetical protein&lt;br&gt;Location: 87937 - 86903" locus_tag="AEG64694.1" class="clusterblast-orf" id="dummy-1_h1_10_1"  />
</g>
<g id="a1_002"  >
<polygon points="19,85 24,80 25,80 25,90 24,90 19,85 " style="fill:white; stroke-width:1; stroke:black; " description="&lt;b&gt;AEG64693.1&lt;/b&gt;&lt;br&gt;two component system response regulator&lt;br&gt;Location: 86636 - 85953" locus_tag="AEG64693.1" class="clusterblast-orf" id="dummy-1_h1_10_2"  />
</g>
<g id="a1_003"  >
<polygon points="25,85 30,80 40,80 40,90 30,90 25,85 " style="fill:white; stroke-width:1; stroke:black; " description="&lt;b&gt;AEG64692.1&lt;/b&gt;&lt;br&gt;two component system histidine kinase&lt;br&gt;Location: 85956 - 84295" locus_tag="AEG64692.1" class="clusterblast-orf" id="dummy-1_h1_10_3"  />
</g>
<g id="a1_004"  >
<polygon points="41,90 45,90 50,85 45,80 41,80 41,90 " style="fill:white; stroke-width:1; stroke:black; " description="&lt;b&gt;AEF16038.1&lt;/b&gt;&lt;br&gt;hypothetical protein&lt;br&gt;Location: 84137 - 83181" locus_tag="AEF16038.1" class="clusterblast-orf" id="dummy-1_h1_10_4"  />
</g>
<g id="a1_005"  >
<polygon points="50,90 50,90 55,85 50,80 50,80 50,90 " style="fill:white; stroke-width:1; stroke:black; " description="&lt;b&gt;AEF16037.1&lt;/b&gt;&lt;br&gt;integral membrane protein&lt;br&gt;Location: 83184 - 82645" locus_tag="AEF16037.1" class="clusterblast-orf" id="dummy-1_h1_10_5"  />
</g>
<g id="a1_006"  >
<polygon points="55,90 63,90 68,85 63,80 55,80 55,90 " style="fill:white; stroke-width:1; stroke:black; " description="&lt;b&gt;AEF16036.1&lt;/b&gt;&lt;br&gt;integral membrane protein&lt;br&gt;Location: 82637 - 81132" locus_tag="AEF16036.1" class="clusterblast-orf" id="dummy-1_h1_10_6"  />
</g>
<g id="a1_007"  >
<polygon points="71,90 76,90 81,85 76,80 71,80 71,90 " style="fill:white; stroke-width:1; stroke:black; " description="&lt;b&gt;AEF16035.1&lt;/b&gt;&lt;br&gt;integral membrane protein&lt;br&gt;Location: 80737 - 79616" locus_tag="AEF16035.1" class="clusterblast-orf" id="dummy-1_h1_10_7"  />
</g>
<g id="a1_008"  >
<polygon points="82,90 93,90 98,85 93,80 82,80 82,90 " style="fill:white; stroke-width:1; stroke:black; " description="&lt;b&gt;AEF16034.1&lt;/b&gt;&lt;br&gt;VanW family protein&lt;br&gt;Location: 79493 - 77739" locus_tag="AEF16034.1" class="clusterblast-orf" id="dummy-1_h1_10_8"  />
</g>
<g id="a1_009"  >
<polygon points="98,90 100,90 105,85 100,80 98,80 98,90 " style="fill:white; stroke-width:1; stroke:black; " description="&lt;b&gt;AEF16033.1&lt;/b&gt;&lt;br&gt;hypothetical protein&lt;br&gt;Location: 77711 - 76908" locus_tag="AEF16033.1" class="clusterblast-orf" id="dummy-1_h1_10_9"  />
</g>
<g id="a1_0010"  >
<polygon points="105,90 111,90 116,85 111,80 105,80 105,90 " style="fill:white; stroke-width:1; stroke:black; " description="&lt;b&gt;AEF16032.1&lt;/b&gt;&lt;br&gt;regulatory protein D&lt;br&gt;Location: 76899 - 75613" locus_tag="AEF16032.1" class="clusterblast-orf" id="dummy-1_h1_10_10"  />
</g>
<g id="a1_0011"  >
<polygon points="116,90 117,90 122,85 117,80 116,80 116,90 " style="fill:white; stroke-width:1; stroke:black; " description="&lt;b&gt;AEF16031.1&lt;/b&gt;&lt;br&gt;regulatory protein C&lt;br&gt;Location: 75622 - 74978" locus_tag="AEF16031.1" class="clusterblast-orf" id="dummy-1_h1_10_11"  />
</g>
<g id="a1_0012"  >
<polygon points="124,85 129,80 133,80 133,90 129,90 124,85 " style="fill:white; stroke-width:1; stroke:black; " description="&lt;b&gt;AEF16030.1&lt;/b&gt;&lt;br&gt;lysine cyclodeaminase&lt;br&gt;Location: 74780 - 73752" locus_tag="AEF16030.1" class="clusterblast-orf" id="dummy-1_h1_10_12"  />
</g>
<g id="a1_0013"  >
<polygon points="135,90 150,90 155,85 150,80 135,80 135,90 " style="fill:white; stroke-width:1; stroke:black; " description="&lt;b&gt;AEF16029.1&lt;/b&gt;&lt;br&gt;putative drug exporter&lt;br&gt;Location: 73497 - 71176" locus_tag="AEF16029.1" class="clusterblast-orf" id="dummy-1_h1_10_13"  />
</g>
<g id="a1_0014"  >
<polygon points="156,85 161,80 163,80 163,90 161,90 156,85 " style="fill:white; stroke-width:1; stroke:black; " description="&lt;b&gt;AEF16028.1&lt;/b&gt;&lt;br&gt;LipE-like protein&lt;br&gt;Location: 71071 - 70265" locus_tag="AEF16028.1" class="clusterblast-orf" id="dummy-1_h1_10_14"  />
</g>
<g id="a1_0015"  >
<polygon points="164,85 166,80 166,90 164,85 " style="fill:white; stroke-width:1; stroke:black; " description="&lt;b&gt;AEG64691.1&lt;/b&gt;&lt;br&gt;MbtH-like protein&lt;br&gt;Location: 70174 - 69950" locus_tag="AEG64691.1" class="clusterblast-orf" id="dummy-1_h1_10_15"  />
</g>
<g id="a1_0016"  >
<polygon points="166,85 171,80 230,80 230,90 171,90 166,85 " style="fill:white; stroke-width:1; stroke:black; " description="&lt;b&gt;AEG64698.1&lt;/b&gt;&lt;br&gt;LpmD&lt;br&gt;Location: 69918 - 62701" locus_tag="AEG64698.1" class="clusterblast-orf" id="dummy-1_h1_10_16"  />
</g>
<g id="a1_0017"  >
<polygon points="230,85 235,80 408,80 408,90 235,90 230,85 " style="fill:#97d815; stroke-width:1; stroke:black; " description="&lt;b&gt;AEG64697.1&lt;/b&gt;&lt;br&gt;LpmC&lt;br&gt;Location: 62701 - 42386&lt;br&gt;&lt;br&gt;&lt;b&gt;BlastP hit with ctg48_17&lt;/b&gt;&lt;br&gt;Percentage identity: 51&lt;br&gt;Percentage coverage: 93&lt;br&gt;BLAST bit score: 1991&lt;br&gt;E-value: 0.0" locus_tag="AEG64697.1" class="clusterblast-orf" id="dummy-1_h1_10_17"  />
</g>
<g id="a1_0018"  >
<polygon points="409,85 414,80 493,80 493,90 414,90 409,85 " style="fill:white; stroke-width:1; stroke:black; " description="&lt;b&gt;AEG64696.1&lt;/b&gt;&lt;br&gt;LpmB&lt;br&gt;Location: 42275 - 32712" locus_tag="AEG64696.1" class="clusterblast-orf" id="dummy-1_h1_10_18"  />
</g>
<g id="a1_0019"  >
<polygon points="494,85 497,80 497,90 494,85 " style="fill:white; stroke-width:1; stroke:black; " description="&lt;b&gt;AEF16024.1&lt;/b&gt;&lt;br&gt;acyl carrier protein&lt;br&gt;Location: 32542 - 32261" locus_tag="AEF16024.1" class="clusterblast-orf" id="dummy-1_h1_10_19"  />
</g>
<g id="a1_0020"  >
<polygon points="497,85 502,80 504,80 504,90 502,90 497,85 " style="fill:white; stroke-width:1; stroke:black; " description="&lt;b&gt;AEF16023.1&lt;/b&gt;&lt;br&gt;hypothetical protein&lt;br&gt;Location: 32240 - 31434" locus_tag="AEF16023.1" class="clusterblast-orf" id="dummy-1_h1_10_20"  />
</g>
<g id="a1_0021"  >
<polygon points="504,85 509,80 519,80 519,90 509,90 504,85 " style="fill:white; stroke-width:1; stroke:black; " description="&lt;b&gt;AEG64690.1&lt;/b&gt;&lt;br&gt;acyl-CoA dehydrogenase&lt;br&gt;Location: 31437 - 29698" locus_tag="AEG64690.1" class="clusterblast-orf" id="dummy-1_h1_10_21"  />
</g>
<g id="a1_0022"  >
<polygon points="519,85 524,80 535,80 535,90 524,90 519,85 " style="fill:white; stroke-width:1; stroke:black; " description="&lt;b&gt;AEF16021.1&lt;/b&gt;&lt;br&gt;acyl-CoA synthase&lt;br&gt;Location: 29701 - 27878" locus_tag="AEF16021.1" class="clusterblast-orf" id="dummy-1_h1_10_22"  />
</g>
<g id="a1_0023"  >
<polygon points="538,90 540,90 545,85 540,80 538,80 538,90 " style="fill:white; stroke-width:1; stroke:black; " description="&lt;b&gt;AEF16020.1&lt;/b&gt;&lt;br&gt;ABC transporter protein&lt;br&gt;Location: 27579 - 26737" locus_tag="AEF16020.1" class="clusterblast-orf" id="dummy-1_h1_10_23"  />
</g>
<g id="a1_0024"  >
<polygon points="546,90 549,90 554,85 549,80 546,80 546,90 " style="fill:white; stroke-width:1; stroke:black; " description="&lt;b&gt;AEF16019.1&lt;/b&gt;&lt;br&gt;regulatory protein B&lt;br&gt;Location: 26695 - 25748" locus_tag="AEF16019.1" class="clusterblast-orf" id="dummy-1_h1_10_24"  />
</g>
<g id="a1_0025"  >
<polygon points="555,85 560,80 580,80 580,90 560,90 555,85 " style="fill:white; stroke-width:1; stroke:black; " description="&lt;b&gt;AEG64689.1&lt;/b&gt;&lt;br&gt;LpmA&lt;br&gt;Location: 25616 - 22788" locus_tag="AEG64689.1" class="clusterblast-orf" id="dummy-1_h1_10_25"  />
</g>
<g id="a1_0026"  >
<polygon points="580,85 585,80 591,80 591,90 585,90 580,85 " style="fill:white; stroke-width:1; stroke:black; " description="&lt;b&gt;AEG64688.1&lt;/b&gt;&lt;br&gt;diaminobutyric acid synthase C&lt;br&gt;Location: 22791 - 21517" locus_tag="AEG64688.1" class="clusterblast-orf" id="dummy-1_h1_10_26"  />
</g>
<g id="a1_0027"  >
<polygon points="591,85 596,80 603,80 603,90 596,90 591,85 " style="fill:white; stroke-width:1; stroke:black; " description="&lt;b&gt;AEG64687.1&lt;/b&gt;&lt;br&gt;diaminobutyric acid synthase B&lt;br&gt;Location: 21520 - 20102" locus_tag="AEG64687.1" class="clusterblast-orf" id="dummy-1_h1_10_27"  />
</g>
<g id="a1_0028"  >
<polygon points="604,85 609,80 614,80 614,90 609,90 604,85 " style="fill:white; stroke-width:1; stroke:black; " description="&lt;b&gt;AEG64686.1&lt;/b&gt;&lt;br&gt;diaminobutyric acid synthase A&lt;br&gt;Location: 20018 - 18942" locus_tag="AEG64686.1" class="clusterblast-orf" id="dummy-1_h1_10_28"  />
</g>
<g id="a1_0029"  >
<polygon points="614,85 619,80 624,80 624,90 619,90 614,85 " style="fill:#d89715; stroke-width:1; stroke:black; " description="&lt;b&gt;AEG64685.1&lt;/b&gt;&lt;br&gt;Daunorubicin resistance ABC transporter ATPase subunit&lt;br&gt;Location: 18837 - 17743&lt;br&gt;&lt;br&gt;&lt;b&gt;BlastP hit with ctg48_11&lt;/b&gt;&lt;br&gt;Percentage identity: 51&lt;br&gt;Percentage coverage: 78&lt;br&gt;BLAST bit score: 261&lt;br&gt;E-value: 1.8e-69" locus_tag="AEG64685.1" class="clusterblast-orf" id="dummy-1_h1_10_29"  />
</g>
<g id="a1_0030"  >
<polygon points="624,85 629,80 632,80 632,90 629,90 624,85 " style="fill:white; stroke-width:1; stroke:black; " description="&lt;b&gt;AEG64684.1&lt;/b&gt;&lt;br&gt;regulatory protein A&lt;br&gt;Location: 17719 - 16883" locus_tag="AEG64684.1" class="clusterblast-orf" id="dummy-1_h1_10_30"  />
</g>
<g id="a1_0031"  >
<polygon points="635,85 640,80 641,80 641,90 640,90 635,85 " style="fill:white; stroke-width:1; stroke:black; " description="&lt;b&gt;AEG64683.1&lt;/b&gt;&lt;br&gt;HAD superfamily (subfamily IIIB) phosphatase&lt;br&gt;Location: 16465 - 15806" locus_tag="AEG64683.1" class="clusterblast-orf" id="dummy-1_h1_10_31"  />
</g>
<g id="a1_0032"  >
<polygon points="645,90 648,90 653,85 648,80 645,80 645,90 " style="fill:white; stroke-width:1; stroke:black; " description="&lt;b&gt;AEG64682.1&lt;/b&gt;&lt;br&gt;LysR-type transcriptional regulator&lt;br&gt;Location: 15320 - 14403" locus_tag="AEG64682.1" class="clusterblast-orf" id="dummy-1_h1_10_32"  />
</g>
<g id="a1_0033"  >
<polygon points="655,90 657,90 662,85 657,80 655,80 655,90 " style="fill:white; stroke-width:1; stroke:black; " description="&lt;b&gt;AEG64681.1&lt;/b&gt;&lt;br&gt;2-deoxy-D-gluconate 3-dehydrogenase&lt;br&gt;Location: 14228 - 13386" locus_tag="AEG64681.1" class="clusterblast-orf" id="dummy-1_h1_10_33"  />
</g>
<g id="a1_0034"  >
<polygon points="662,90 669,90 674,85 669,80 662,80 662,90 " style="fill:white; stroke-width:1; stroke:black; " description="&lt;b&gt;AEG64680.1&lt;/b&gt;&lt;br&gt;NADH dehydrogenase&lt;br&gt;Location: 13379 - 12039" locus_tag="AEG64680.1" class="clusterblast-orf" id="dummy-1_h1_10_34"  />
</g>
<g id="a1_0035"  >
<polygon points="674,90 682,90 687,85 682,80 674,80 674,90 " style="fill:white; stroke-width:1; stroke:black; " description="&lt;b&gt;AEG64679.1&lt;/b&gt;&lt;br&gt;cytochrome bd-I oxidase subunit I&lt;br&gt;Location: 12010 - 10562" locus_tag="AEG64679.1" class="clusterblast-orf" id="dummy-1_h1_10_35"  />
</g>
<g id="a1_0036"  >
<polygon points="687,90 691,90 696,85 691,80 687,80 687,90 " style="fill:white; stroke-width:1; stroke:black; " description="&lt;b&gt;AEG64678.1&lt;/b&gt;&lt;br&gt;cytochrome d ubiquinol oxidase subunit II&lt;br&gt;Location: 10562 - 9522" locus_tag="AEG64678.1" class="clusterblast-orf" id="dummy-1_h1_10_36"  />
</g>
<g id="a1_0037"  >
<polygon points="696,85 701,80 710,80 710,90 701,90 696,85 " style="fill:white; stroke-width:1; stroke:black; " description="&lt;b&gt;AEG64677.1&lt;/b&gt;&lt;br&gt;putative choline dehydrogenase&lt;br&gt;Location: 9516 - 7936" locus_tag="AEG64677.1" class="clusterblast-orf" id="dummy-1_h1_10_37"  />
</g>
<g id="a1_0038"  >
<polygon points="711,85 716,80 719,80 719,90 716,90 711,85 " style="fill:white; stroke-width:1; stroke:black; " description="&lt;b&gt;AEG64676.1&lt;/b&gt;&lt;br&gt;cyclase&lt;br&gt;Location: 7854 - 6910" locus_tag="AEG64676.1" class="clusterblast-orf" id="dummy-1_h1_10_38"  />
</g>
<g id="a1_0039"  >
<polygon points="719,85 724,80 735,80 735,90 724,90 719,85 " style="fill:white; stroke-width:1; stroke:black; " description="&lt;b&gt;AEG64675.1&lt;/b&gt;&lt;br&gt;glycosyl hydrolase&lt;br&gt;Location: 6905 - 5088" locus_tag="AEG64675.1" class="clusterblast-orf" id="dummy-1_h1_10_39"  />
</g>
<g id="a1_0040"  >
<polygon points="737,90 740,90 745,85 740,80 737,80 737,90 " style="fill:white; stroke-width:1; stroke:black; " description="&lt;b&gt;AEG64674.1&lt;/b&gt;&lt;br&gt;integral membrane protein&lt;br&gt;Location: 4926 - 3976" locus_tag="AEG64674.1" class="clusterblast-orf" id="dummy-1_h1_10_40"  />
</g>
<g id="a1_0041"  >
<polygon points="745,90 756,90 761,85 756,80 745,80 745,90 " style="fill:white; stroke-width:1; stroke:black; " description="&lt;b&gt;AEG64673.1&lt;/b&gt;&lt;br&gt;sodium/hydrogen exchanger&lt;br&gt;Location: 3959 - 2193" locus_tag="AEG64673.1" class="clusterblast-orf" id="dummy-1_h1_10_41"  />
</g>
<g id="a1_0042"  >
<polygon points="763,90 775,90 780,85 775,80 763,80 763,90 " style="fill:white; stroke-width:1; stroke:black; " description="&lt;b&gt;AEG64672.1&lt;/b&gt;&lt;br&gt;ABC transporter-like protein&lt;br&gt;Location: 1925 - 36" locus_tag="AEG64672.1" class="clusterblast-orf" id="dummy-1_h1_10_42"  />
</g>
</svg>
