<svg xmlns="http://www.w3.org/2000/svg" xmlns:xlink="http://www.w3.org/1999/xlink" version="1.1" x="0" y="0" height="230" width="800" viewBox="0 0 800 230" preserveAspectRatio="none"  >
<g label="Query sequence" class="clusterblast-cluster"  >
<text x="5" y="20" class="clusterblast-acc"  >
Query sequence</text>
<line x1="10" y1="35" x2="778.0" y2="35" style="stroke-width:1; stroke:grey; "  />
<polygon points="0,40 4,40 9,35 4,30 0,30 0,40 " style="fill:white; stroke-width:1; stroke:black; " description="&lt;b&gt;ctg2_1&lt;/b&gt;&lt;br&gt;ctg2 1&lt;br&gt;Location: 2 - 317" locus_tag="ctg2_1" class="clusterblast-orf" id="dummy-1_q0_0_all"  />
<polygon points="9,35 14,30 51,30 51,40 14,40 9,35 " style="fill:white; stroke-width:1; stroke:black; " description="&lt;b&gt;ctg2_2&lt;/b&gt;&lt;br&gt;ctg2 2&lt;br&gt;Location: 345 - 1809" locus_tag="ctg2_2" class="clusterblast-orf" id="dummy-1_q1_0_all"  />
<polygon points="51,35 56,30 172,30 172,40 56,40 51,35 " style="fill:white; stroke-width:1; stroke:black; " description="&lt;b&gt;ctg2_3&lt;/b&gt;&lt;br&gt;ctg2 3&lt;br&gt;Location: 1805 - 6122" locus_tag="ctg2_3" class="clusterblast-orf" id="dummy-1_q2_0_all"  />
<polygon points="172,35 177,30 179,30 179,40 177,40 172,35 " style="fill:white; stroke-width:1; stroke:black; " description="&lt;b&gt;ctg2_4&lt;/b&gt;&lt;br&gt;ctg2 4&lt;br&gt;Location: 6114 - 6354" locus_tag="ctg2_4" class="clusterblast-orf" id="dummy-1_q3_0_all"  />
<polygon points="187,35 192,30 232,30 232,40 192,40 187,35 " style="fill:#d81515; stroke-width:1; stroke:black; " description="&lt;b&gt;ctg2_5&lt;/b&gt;&lt;br&gt;ctg2 5&lt;br&gt;Location: 6627 - 8220" locus_tag="ctg2_5" class="clusterblast-orf" id="dummy-1_q4_0_all"  />
<polygon points="231,35 236,30 246,30 246,40 236,40 231,35 " style="fill:white; stroke-width:1; stroke:black; " description="&lt;b&gt;ctg2_6&lt;/b&gt;&lt;br&gt;ctg2 6&lt;br&gt;Location: 8185 - 8728" locus_tag="ctg2_6" class="clusterblast-orf" id="dummy-1_q5_0_all"  />
<polygon points="246,35 251,30 270,30 270,40 251,40 246,35 " style="fill:#15d815; stroke-width:1; stroke:black; " description="&lt;b&gt;ctg2_7&lt;/b&gt;&lt;br&gt;ctg2 7&lt;br&gt;Location: 8724 - 9585" locus_tag="ctg2_7" class="clusterblast-orf" id="dummy-1_q6_0_all"  />
<polygon points="272,35 277,30 279,30 279,40 277,40 272,35 " style="fill:white; stroke-width:1; stroke:black; " description="&lt;b&gt;ctg2_8&lt;/b&gt;&lt;br&gt;ctg2 8&lt;br&gt;Location: 9670 - 9913" locus_tag="ctg2_8" class="clusterblast-orf" id="dummy-1_q7_0_all"  />
<polygon points="279,35 284,30 308,30 308,40 284,40 279,35 " style="fill:#1515d8; stroke-width:1; stroke:black; " description="&lt;b&gt;ctg2_9&lt;/b&gt;&lt;br&gt;ctg2 9&lt;br&gt;Location: 9909 - 10923" locus_tag="ctg2_9" class="clusterblast-orf" id="dummy-1_q8_0_all"  />
<polygon points="311,40 336,40 341,35 336,30 311,30 311,40 " style="fill:white; stroke-width:1; stroke:black; " description="&lt;b&gt;ctg2_10&lt;/b&gt;&lt;br&gt;ctg2 10&lt;br&gt;Location: 11023 - 12100" locus_tag="ctg2_10" class="clusterblast-orf" id="dummy-1_q9_0_all"  />
<polygon points="340,40 365,40 370,35 365,30 340,30 340,40 " style="fill:#d815d8; stroke-width:1; stroke:black; " description="&lt;b&gt;ctg2_11&lt;/b&gt;&lt;br&gt;ctg2 11&lt;br&gt;Location: 12077 - 13133" locus_tag="ctg2_11" class="clusterblast-orf" id="dummy-1_q10_0_all"  />
<polygon points="370,40 388,40 393,35 388,30 370,30 370,40 " style="fill:#d8d815; stroke-width:1; stroke:black; " description="&lt;b&gt;ctg2_12&lt;/b&gt;&lt;br&gt;ctg2 12&lt;br&gt;Location: 13129 - 13927" locus_tag="ctg2_12" class="clusterblast-orf" id="dummy-1_q11_0_all"  />
<polygon points="396,35 401,30 436,30 436,40 401,40 396,35 " style="fill:white; stroke-width:1; stroke:black; " description="&lt;b&gt;ctg2_13&lt;/b&gt;&lt;br&gt;ctg2 13&lt;br&gt;Location: 14040 - 15462" locus_tag="ctg2_13" class="clusterblast-orf" id="dummy-1_q12_0_all"  />
<polygon points="443,40 459,40 464,35 459,30 443,30 443,40 " style="fill:white; stroke-width:1; stroke:black; " description="&lt;b&gt;ctg2_14&lt;/b&gt;&lt;br&gt;ctg2 14&lt;br&gt;Location: 15729 - 16473" locus_tag="ctg2_14" class="clusterblast-orf" id="dummy-1_q13_0_all"  />
<polygon points="468,40 481,40 486,35 481,30 468,30 468,40 " style="fill:white; stroke-width:1; stroke:black; " description="&lt;b&gt;ctg2_15&lt;/b&gt;&lt;br&gt;ctg2 15&lt;br&gt;Location: 16596 - 17250" locus_tag="ctg2_15" class="clusterblast-orf" id="dummy-1_q14_0_all"  />
<polygon points="488,35 493,30 503,30 503,40 493,40 488,35 " style="fill:white; stroke-width:1; stroke:black; " description="&lt;b&gt;ctg2_16&lt;/b&gt;&lt;br&gt;ctg2 16&lt;br&gt;Location: 17309 - 17846" locus_tag="ctg2_16" class="clusterblast-orf" id="dummy-1_q15_0_all"  />
<polygon points="503,35 508,30 567,30 567,40 508,40 503,35 " style="fill:#15d8d8; stroke-width:1; stroke:black; " description="&lt;b&gt;ctg2_17&lt;/b&gt;&lt;br&gt;ctg2 17&lt;br&gt;Location: 17842 - 20098" locus_tag="ctg2_17" class="clusterblast-orf" id="dummy-1_q16_0_all"  />
<polygon points="567,35 572,30 573,30 573,40 572,40 567,35 " style="fill:white; stroke-width:1; stroke:black; " description="&lt;b&gt;ctg2_18&lt;/b&gt;&lt;br&gt;ctg2 18&lt;br&gt;Location: 20094 - 20307" locus_tag="ctg2_18" class="clusterblast-orf" id="dummy-1_q17_0_all"  />
<polygon points="581,35 586,30 656,30 656,40 586,40 581,35 " style="fill:white; stroke-width:1; stroke:black; " description="&lt;b&gt;ctg2_19&lt;/b&gt;&lt;br&gt;ctg2 19&lt;br&gt;Location: 20604 - 23250" locus_tag="ctg2_19" class="clusterblast-orf" id="dummy-1_q18_0_all"  />
<polygon points="659,35 664,30 686,30 686,40 664,40 659,35 " style="fill:white; stroke-width:1; stroke:black; " description="&lt;b&gt;ctg2_20&lt;/b&gt;&lt;br&gt;ctg2 20&lt;br&gt;Location: 23381 - 24332" locus_tag="ctg2_20" class="clusterblast-orf" id="dummy-1_q19_0_all"  />
<polygon points="694,40 713,40 718,35 713,30 694,30 694,40 " style="fill:white; stroke-width:1; stroke:black; " description="&lt;b&gt;ctg2_21&lt;/b&gt;&lt;br&gt;ctg2 21&lt;br&gt;Location: 24626 - 25457" locus_tag="ctg2_21" class="clusterblast-orf" id="dummy-1_q20_0_all"  />
<polygon points="729,40 738,40 743,35 738,30 729,30 729,40 " style="fill:white; stroke-width:1; stroke:black; " description="&lt;b&gt;ctg2_22&lt;/b&gt;&lt;br&gt;ctg2 22&lt;br&gt;Location: 25860 - 26349" locus_tag="ctg2_22" class="clusterblast-orf" id="dummy-1_q21_0_all"  />
<polygon points="744,35 749,30 755,30 755,40 749,40 744,35 " style="fill:white; stroke-width:1; stroke:black; " description="&lt;b&gt;ctg2_23&lt;/b&gt;&lt;br&gt;ctg2 23&lt;br&gt;Location: 26373 - 26781" locus_tag="ctg2_23" class="clusterblast-orf" id="dummy-1_q22_0_all"  />
<polygon points="755,35 760,30 780,30 780,40 760,40 755,35 " style="fill:white; stroke-width:1; stroke:black; " description="&lt;b&gt;ctg2_24&lt;/b&gt;&lt;br&gt;ctg2 24&lt;br&gt;Location: 26793 - 27654" locus_tag="ctg2_24" class="clusterblast-orf" id="dummy-1_q23_0_all"  />
</g>
<g label="BGC0001504" description="BGC0001504_c1: Amycomicin (25% of genes show similarity), t1pks" class="clusterblast-cluster"  >
<text x="5" y="70" class="clusterblast-acc"  >
<a xlink:href="https://mibig.secondarymetabolites.org/go/BGC0001504/1" target="_blank">BGC0001504</a>:                                                                       Amycomicin (25% of genes show similarity), t1pks</text>
<line x1="10" y1="85" x2="778.0" y2="85" style="stroke-width:1; stroke:grey; "  />
</g>
<g id="a1_000"  >
<polygon points="196,85 201,80 240,80 240,90 201,90 196,85 " style="fill:#d81515; stroke-width:1; stroke:black; " description="&lt;b&gt;CU254_21755&lt;/b&gt;&lt;br&gt;long-chain fatty acid--CoA ligase&lt;br&gt;Location: 1 - 1569&lt;br&gt;&lt;br&gt;&lt;b&gt;BlastP hit with ctg2_5&lt;/b&gt;&lt;br&gt;Percentage identity: 54&lt;br&gt;Percentage coverage: 98&lt;br&gt;BLAST bit score: 549&lt;br&gt;E-value: 4.5e-156" locus_tag="CU254_21755" class="clusterblast-orf" id="dummy-1_h1_2_0"  />
</g>
<g id="a1_001"  >
<polygon points="241,85 246,80 284,80 284,90 246,90 241,85 " style="fill:white; stroke-width:1; stroke:black; " description="&lt;b&gt;CU254_21760&lt;/b&gt;&lt;br&gt;polyketide synthase&lt;br&gt;Location: 1593 - 3122" locus_tag="CU254_21760" class="clusterblast-orf" id="dummy-1_h1_2_1"  />
</g>
<g id="a1_002"  >
<polygon points="282,85 287,80 461,80 461,90 287,90 282,85 " style="fill:white; stroke-width:1; stroke:black; " description="&lt;b&gt;CU254_21765&lt;/b&gt;&lt;br&gt;type I polyketide synthase&lt;br&gt;Location: 3046 - 9405" locus_tag="CU254_21765" class="clusterblast-orf" id="dummy-1_h1_2_2"  />
</g>
<g id="a1_003"  >
<polygon points="462,85 467,80 470,80 470,90 467,90 462,85 " style="fill:white; stroke-width:1; stroke:black; " description="&lt;b&gt;CU254_21770&lt;/b&gt;&lt;br&gt;acyl carrier protein&lt;br&gt;Location: 9455 - 9730" locus_tag="CU254_21770" class="clusterblast-orf" id="dummy-1_h1_2_3"  />
</g>
<g id="a1_004"  >
<polygon points="473,85 478,80 489,80 489,90 478,90 473,85 " style="fill:white; stroke-width:1; stroke:black; " description="&lt;b&gt;CU254_21775&lt;/b&gt;&lt;br&gt;hypothetical protein&lt;br&gt;Location: 9834 - 10391" locus_tag="CU254_21775" class="clusterblast-orf" id="dummy-1_h1_2_4"  />
</g>
<g id="a1_005"  >
<polygon points="489,85 494,80 523,80 523,90 494,90 489,85 " style="fill:white; stroke-width:1; stroke:black; " description="&lt;b&gt;CU254_21780&lt;/b&gt;&lt;br&gt;cytochrome P450&lt;br&gt;Location: 10388 - 11590" locus_tag="CU254_21780" class="clusterblast-orf" id="dummy-1_h1_2_5"  />
</g>
<g id="a1_006"  >
<polygon points="523,85 528,80 557,80 557,90 528,90 523,85 " style="fill:white; stroke-width:1; stroke:black; " description="&lt;b&gt;CU254_21785&lt;/b&gt;&lt;br&gt;cytochrome P450&lt;br&gt;Location: 11608 - 12819" locus_tag="CU254_21785" class="clusterblast-orf" id="dummy-1_h1_2_6"  />
</g>
<g id="a1_007"  >
<polygon points="558,85 563,80 583,80 583,90 563,90 558,85 " style="fill:#15d815; stroke-width:1; stroke:black; " description="&lt;b&gt;CU254_21790&lt;/b&gt;&lt;br&gt;TauD/TfdA family dioxygenase&lt;br&gt;Location: 12853 - 13734&lt;br&gt;&lt;br&gt;&lt;b&gt;BlastP hit with ctg2_7&lt;/b&gt;&lt;br&gt;Percentage identity: 60&lt;br&gt;Percentage coverage: 96&lt;br&gt;BLAST bit score: 335&lt;br&gt;E-value: 7.2e-92" locus_tag="CU254_21790" class="clusterblast-orf" id="dummy-1_h1_2_7"  />
</g>
</svg>
