<svg xmlns="http://www.w3.org/2000/svg" xmlns:xlink="http://www.w3.org/1999/xlink" version="1.1" x="0" y="0" height="50" width="800" viewBox="0 0 800 50" preserveAspectRatio="none"  >
<g label="Query sequence" class="clusterblast-cluster"  >
<text x="5" y="20" class="clusterblast-acc"  >
Query sequence</text>
<line x1="10" y1="35" x2="778.0" y2="35" style="stroke-width:1; stroke:grey; "  />
<polygon points="1,40 160,40 165,35 160,30 1,30 1,40 " style="fill:white; stroke-width:1; stroke:black; " description="&lt;b&gt;ctg335_1&lt;/b&gt;&lt;br&gt;ctg335 1&lt;br&gt;Location: 2 - 1154" locus_tag="ctg335_1" class="clusterblast-orf" id="subclusterblast-1_q0_0_all"  />
<polygon points="165,40 339,40 344,35 339,30 165,30 165,40 " style="fill:white; stroke-width:1; stroke:black; " description="&lt;b&gt;ctg335_2&lt;/b&gt;&lt;br&gt;ctg335 2&lt;br&gt;Location: 1150 - 2404" locus_tag="ctg335_2" class="clusterblast-orf" id="subclusterblast-1_q1_0_all"  />
<polygon points="371,35 376,30 491,30 491,40 376,40 371,35 " style="fill:white; stroke-width:1; stroke:black; " description="&lt;b&gt;ctg335_3&lt;/b&gt;&lt;br&gt;ctg335 3&lt;br&gt;Location: 2595 - 3435" locus_tag="ctg335_3" class="clusterblast-orf" id="subclusterblast-1_q2_0_all"  />
<polygon points="494,35 499,30 622,30 622,40 499,40 494,35 " style="fill:white; stroke-width:1; stroke:black; " description="&lt;b&gt;ctg335_4&lt;/b&gt;&lt;br&gt;ctg335 4&lt;br&gt;Location: 3452 - 4349" locus_tag="ctg335_4" class="clusterblast-orf" id="subclusterblast-1_q3_0_all"  />
<polygon points="671,40 776,40 781,35 776,30 671,30 671,40 " style="fill:white; stroke-width:1; stroke:black; " description="&lt;b&gt;ctg335_5&lt;/b&gt;&lt;br&gt;ctg335 5&lt;br&gt;Location: 4695 - 5463" locus_tag="ctg335_5" class="clusterblast-orf" id="subclusterblast-1_q4_0_all"  />
</g>
</svg>
