<svg xmlns="http://www.w3.org/2000/svg" xmlns:xlink="http://www.w3.org/1999/xlink" version="1.1" x="0" y="0" height="50" width="800" viewBox="0 0 800 50" preserveAspectRatio="none"  >
<g label="Query sequence" class="clusterblast-cluster"  >
<text x="5" y="20" class="clusterblast-acc"  >
Query sequence</text>
<line x1="10" y1="35" x2="778.0" y2="35" style="stroke-width:1; stroke:grey; "  />
<polygon points="0,40 24,40 29,35 24,30 0,30 0,40 " style="fill:white; stroke-width:1; stroke:black; " description="&lt;b&gt;ctg39_1&lt;/b&gt;&lt;br&gt;ctg39 1&lt;br&gt;Location: 2 - 641" locus_tag="ctg39_1" class="clusterblast-orf" id="subclusterblast-1_q0_0_all"  />
<polygon points="30,40 34,40 39,35 34,30 30,30 30,40 " style="fill:white; stroke-width:1; stroke:black; " description="&lt;b&gt;ctg39_2&lt;/b&gt;&lt;br&gt;ctg39 2&lt;br&gt;Location: 664 - 877" locus_tag="ctg39_2" class="clusterblast-orf" id="subclusterblast-1_q1_0_all"  />
<polygon points="41,35 46,30 79,30 79,40 46,40 41,35 " style="fill:white; stroke-width:1; stroke:black; " description="&lt;b&gt;ctg39_3&lt;/b&gt;&lt;br&gt;ctg39 3&lt;br&gt;Location: 917 - 1754" locus_tag="ctg39_3" class="clusterblast-orf" id="subclusterblast-1_q2_0_all"  />
<polygon points="79,35 84,30 125,30 125,40 84,40 79,35 " style="fill:white; stroke-width:1; stroke:black; " description="&lt;b&gt;ctg39_4&lt;/b&gt;&lt;br&gt;ctg39 4&lt;br&gt;Location: 1750 - 2785" locus_tag="ctg39_4" class="clusterblast-orf" id="subclusterblast-1_q3_0_all"  />
<polygon points="128,35 133,30 167,30 167,40 133,40 128,35 " style="fill:white; stroke-width:1; stroke:black; " description="&lt;b&gt;ctg39_5&lt;/b&gt;&lt;br&gt;ctg39 5&lt;br&gt;Location: 2836 - 3700" locus_tag="ctg39_5" class="clusterblast-orf" id="subclusterblast-1_q4_0_all"  />
<polygon points="177,40 217,40 222,35 217,30 177,30 177,40 " style="fill:white; stroke-width:1; stroke:black; " description="&lt;b&gt;ctg39_6&lt;/b&gt;&lt;br&gt;ctg39 6&lt;br&gt;Location: 3933 - 4938" locus_tag="ctg39_6" class="clusterblast-orf" id="subclusterblast-1_q5_0_all"  />
<polygon points="230,40 265,40 270,35 265,30 230,30 230,40 " style="fill:white; stroke-width:1; stroke:black; " description="&lt;b&gt;ctg39_7&lt;/b&gt;&lt;br&gt;ctg39 7&lt;br&gt;Location: 5099 - 5999" locus_tag="ctg39_7" class="clusterblast-orf" id="subclusterblast-1_q6_0_all"  />
<polygon points="273,40 294,40 299,35 294,30 273,30 273,40 " style="fill:white; stroke-width:1; stroke:black; " description="&lt;b&gt;ctg39_8&lt;/b&gt;&lt;br&gt;ctg39 8&lt;br&gt;Location: 6054 - 6639" locus_tag="ctg39_8" class="clusterblast-orf" id="subclusterblast-1_q7_0_all"  />
<polygon points="302,35 307,30 307,30 307,40 307,40 302,35 " style="fill:white; stroke-width:1; stroke:black; " description="&lt;b&gt;ctg39_9&lt;/b&gt;&lt;br&gt;ctg39 9&lt;br&gt;Location: 6695 - 6806" locus_tag="ctg39_9" class="clusterblast-orf" id="subclusterblast-1_q8_0_all"  />
<polygon points="307,40 351,40 356,35 351,30 307,30 307,40 " style="fill:white; stroke-width:1; stroke:black; " description="&lt;b&gt;ctg39_10&lt;/b&gt;&lt;br&gt;ctg39 10&lt;br&gt;Location: 6815 - 7913" locus_tag="ctg39_10" class="clusterblast-orf" id="subclusterblast-1_q9_0_all"  />
<polygon points="354,35 359,30 425,30 425,40 359,40 354,35 " style="fill:white; stroke-width:1; stroke:black; " description="&lt;b&gt;ctg39_11&lt;/b&gt;&lt;br&gt;ctg39 11&lt;br&gt;Location: 7866 - 9432" locus_tag="ctg39_11" class="clusterblast-orf" id="subclusterblast-1_q10_0_all"  />
<polygon points="425,35 430,30 453,30 453,40 430,40 425,35 " style="fill:white; stroke-width:1; stroke:black; " description="&lt;b&gt;ctg39_12&lt;/b&gt;&lt;br&gt;ctg39 12&lt;br&gt;Location: 9428 - 10058" locus_tag="ctg39_12" class="clusterblast-orf" id="subclusterblast-1_q11_0_all"  />
<polygon points="452,35 457,30 470,30 470,40 457,40 452,35 " style="fill:white; stroke-width:1; stroke:black; " description="&lt;b&gt;ctg39_13&lt;/b&gt;&lt;br&gt;ctg39 13&lt;br&gt;Location: 10038 - 10437" locus_tag="ctg39_13" class="clusterblast-orf" id="subclusterblast-1_q12_0_all"  />
<polygon points="470,35 475,30 489,30 489,40 475,40 470,35 " style="fill:white; stroke-width:1; stroke:black; " description="&lt;b&gt;ctg39_14&lt;/b&gt;&lt;br&gt;ctg39 14&lt;br&gt;Location: 10433 - 10844" locus_tag="ctg39_14" class="clusterblast-orf" id="subclusterblast-1_q13_0_all"  />
<polygon points="490,35 495,30 555,30 555,40 495,40 490,35 " style="fill:white; stroke-width:1; stroke:black; " description="&lt;b&gt;ctg39_15&lt;/b&gt;&lt;br&gt;ctg39 15&lt;br&gt;Location: 10868 - 12326" locus_tag="ctg39_15" class="clusterblast-orf" id="subclusterblast-1_q14_0_all"  />
<polygon points="564,35 569,30 572,30 572,40 569,40 564,35 " style="fill:white; stroke-width:1; stroke:black; " description="&lt;b&gt;ctg39_16&lt;/b&gt;&lt;br&gt;ctg39 16&lt;br&gt;Location: 12510 - 12690" locus_tag="ctg39_16" class="clusterblast-orf" id="subclusterblast-1_q15_0_all"  />
<polygon points="583,40 638,40 643,35 638,30 583,30 583,40 " style="fill:white; stroke-width:1; stroke:black; " description="&lt;b&gt;ctg39_17&lt;/b&gt;&lt;br&gt;ctg39 17&lt;br&gt;Location: 12934 - 14275" locus_tag="ctg39_17" class="clusterblast-orf" id="subclusterblast-1_q16_0_all"  />
<polygon points="643,40 775,40 780,35 775,30 643,30 643,40 " style="fill:white; stroke-width:1; stroke:black; " description="&lt;b&gt;ctg39_18&lt;/b&gt;&lt;br&gt;ctg39 18&lt;br&gt;Location: 14271 - 17310" locus_tag="ctg39_18" class="clusterblast-orf" id="subclusterblast-1_q17_0_all"  />
</g>
</svg>
