<svg xmlns="http://www.w3.org/2000/svg" xmlns:xlink="http://www.w3.org/1999/xlink" version="1.1" x="0" y="0" height="230" width="800" viewBox="0 0 800 230" preserveAspectRatio="none"  >
<g label="Query sequence" class="clusterblast-cluster"  >
<text x="5" y="20" class="clusterblast-acc"  >
Query sequence</text>
<line x1="10" y1="35" x2="778.0" y2="35" style="stroke-width:1; stroke:grey; "  />
<polygon points="0,35 5,30 7,30 7,40 5,40 0,35 " style="fill:white; stroke-width:1; stroke:black; " description="&lt;b&gt;ctg28_1&lt;/b&gt;&lt;br&gt;ctg28 1&lt;br&gt;Location: 1 - 268" locus_tag="ctg28_1" class="clusterblast-orf" id="dummy-1_q0_0_all"  />
<polygon points="7,35 12,30 20,30 20,40 12,40 7,35 " style="fill:white; stroke-width:1; stroke:black; " description="&lt;b&gt;ctg28_2&lt;/b&gt;&lt;br&gt;ctg28 2&lt;br&gt;Location: 267 - 792" locus_tag="ctg28_2" class="clusterblast-orf" id="dummy-1_q1_0_all"  />
<polygon points="21,35 26,30 27,30 27,40 26,40 21,35 " style="fill:white; stroke-width:1; stroke:black; " description="&lt;b&gt;ctg28_3&lt;/b&gt;&lt;br&gt;ctg28 3&lt;br&gt;Location: 825 - 1089" locus_tag="ctg28_3" class="clusterblast-orf" id="dummy-1_q2_0_all"  />
<polygon points="27,35 32,30 47,30 47,40 32,40 27,35 " style="fill:white; stroke-width:1; stroke:black; " description="&lt;b&gt;ctg28_4&lt;/b&gt;&lt;br&gt;ctg28 4&lt;br&gt;Location: 1090 - 1858" locus_tag="ctg28_4" class="clusterblast-orf" id="dummy-1_q3_0_all"  />
<polygon points="47,35 52,30 58,30 58,40 52,40 47,35 " style="fill:white; stroke-width:1; stroke:black; " description="&lt;b&gt;ctg28_5&lt;/b&gt;&lt;br&gt;ctg28 5&lt;br&gt;Location: 1859 - 2303" locus_tag="ctg28_5" class="clusterblast-orf" id="dummy-1_q4_0_all"  />
<polygon points="59,35 64,30 66,30 66,40 64,40 59,35 " style="fill:white; stroke-width:1; stroke:black; " description="&lt;b&gt;ctg28_6&lt;/b&gt;&lt;br&gt;ctg28 6&lt;br&gt;Location: 2325 - 2616" locus_tag="ctg28_6" class="clusterblast-orf" id="dummy-1_q5_0_all"  />
<polygon points="83,40 87,35 83,30 83,40 " style="fill:white; stroke-width:1; stroke:black; " description="&lt;b&gt;ctg28_7&lt;/b&gt;&lt;br&gt;ctg28 7&lt;br&gt;Location: 3262 - 3430" locus_tag="ctg28_7" class="clusterblast-orf" id="dummy-1_q6_0_all"  />
<polygon points="90,40 107,40 112,35 107,30 90,30 90,40 " style="fill:white; stroke-width:1; stroke:black; " description="&lt;b&gt;ctg28_8&lt;/b&gt;&lt;br&gt;ctg28 8&lt;br&gt;Location: 3562 - 4429" locus_tag="ctg28_8" class="clusterblast-orf" id="dummy-1_q7_0_all"  />
<polygon points="114,35 119,30 126,30 126,40 119,40 114,35 " style="fill:white; stroke-width:1; stroke:black; " description="&lt;b&gt;ctg28_9&lt;/b&gt;&lt;br&gt;ctg28 9&lt;br&gt;Location: 4518 - 4956" locus_tag="ctg28_9" class="clusterblast-orf" id="dummy-1_q8_0_all"  />
<polygon points="129,35 134,30 172,30 172,40 134,40 129,35 " style="fill:white; stroke-width:1; stroke:black; " description="&lt;b&gt;ctg28_10&lt;/b&gt;&lt;br&gt;ctg28 10&lt;br&gt;Location: 5075 - 6770" locus_tag="ctg28_10" class="clusterblast-orf" id="dummy-1_q9_0_all"  />
<polygon points="174,35 179,30 198,30 198,40 179,40 174,35 " style="fill:#d81515; stroke-width:1; stroke:black; " description="&lt;b&gt;ctg28_11&lt;/b&gt;&lt;br&gt;ctg28 11&lt;br&gt;Location: 6854 - 7814" locus_tag="ctg28_11" class="clusterblast-orf" id="dummy-1_q10_0_all"  />
<polygon points="198,35 203,30 234,30 234,40 203,40 198,35 " style="fill:#63d815; stroke-width:1; stroke:black; " description="&lt;b&gt;ctg28_12&lt;/b&gt;&lt;br&gt;ctg28 12&lt;br&gt;Location: 7810 - 9211" locus_tag="ctg28_12" class="clusterblast-orf" id="dummy-1_q11_0_all"  />
<polygon points="235,35 240,30 259,30 259,40 240,40 235,35 " style="fill:white; stroke-width:1; stroke:black; " description="&lt;b&gt;ctg28_13&lt;/b&gt;&lt;br&gt;ctg28 13&lt;br&gt;Location: 9281 - 10226" locus_tag="ctg28_13" class="clusterblast-orf" id="dummy-1_q12_0_all"  />
<polygon points="261,35 266,30 294,30 294,40 266,40 261,35 " style="fill:#15b1d8; stroke-width:1; stroke:black; " description="&lt;b&gt;ctg28_14&lt;/b&gt;&lt;br&gt;ctg28 14&lt;br&gt;Location: 10298 - 11603" locus_tag="ctg28_14" class="clusterblast-orf" id="dummy-1_q13_0_all"  />
<polygon points="294,35 299,30 322,30 322,40 299,40 294,35 " style="fill:white; stroke-width:1; stroke:black; " description="&lt;b&gt;ctg28_15&lt;/b&gt;&lt;br&gt;ctg28 15&lt;br&gt;Location: 11599 - 12679" locus_tag="ctg28_15" class="clusterblast-orf" id="dummy-1_q14_0_all"  />
<polygon points="321,35 326,30 346,30 346,40 326,40 321,35 " style="fill:#b115d8; stroke-width:1; stroke:black; " description="&lt;b&gt;ctg28_16&lt;/b&gt;&lt;br&gt;ctg28 16&lt;br&gt;Location: 12650 - 13634" locus_tag="ctg28_16" class="clusterblast-orf" id="dummy-1_q15_0_all"  />
<polygon points="346,35 351,30 373,30 373,40 351,40 346,35 " style="fill:#d86315; stroke-width:1; stroke:black; " description="&lt;b&gt;ctg28_17&lt;/b&gt;&lt;br&gt;ctg28 17&lt;br&gt;Location: 13630 - 14698" locus_tag="ctg28_17" class="clusterblast-orf" id="dummy-1_q16_0_all"  />
<polygon points="374,35 379,30 403,30 403,40 379,40 374,35 " style="fill:#15d815; stroke-width:1; stroke:black; " description="&lt;b&gt;ctg28_18&lt;/b&gt;&lt;br&gt;ctg28 18&lt;br&gt;Location: 14723 - 15863" locus_tag="ctg28_18" class="clusterblast-orf" id="dummy-1_q17_0_all"  />
<polygon points="402,35 407,30 417,30 417,40 407,40 402,35 " style="fill:#1563d8; stroke-width:1; stroke:black; " description="&lt;b&gt;ctg28_19&lt;/b&gt;&lt;br&gt;ctg28 19&lt;br&gt;Location: 15859 - 16441" locus_tag="ctg28_19" class="clusterblast-orf" id="dummy-1_q18_0_all"  />
<polygon points="417,35 422,30 448,30 448,40 422,40 417,35 " style="fill:#d815b1; stroke-width:1; stroke:black; " description="&lt;b&gt;ctg28_20&lt;/b&gt;&lt;br&gt;ctg28 20&lt;br&gt;Location: 16440 - 17637" locus_tag="ctg28_20" class="clusterblast-orf" id="dummy-1_q19_0_all"  />
<polygon points="448,35 453,30 481,30 481,40 453,40 448,35 " style="fill:#d8b115; stroke-width:1; stroke:black; " description="&lt;b&gt;ctg28_21&lt;/b&gt;&lt;br&gt;ctg28 21&lt;br&gt;Location: 17665 - 18958" locus_tag="ctg28_21" class="clusterblast-orf" id="dummy-1_q20_0_all"  />
<polygon points="483,35 488,30 514,30 514,40 488,40 483,35 " style="fill:white; stroke-width:1; stroke:black; " description="&lt;b&gt;ctg28_22&lt;/b&gt;&lt;br&gt;ctg28 22&lt;br&gt;Location: 19016 - 20237" locus_tag="ctg28_22" class="clusterblast-orf" id="dummy-1_q21_0_all"  />
<polygon points="514,35 519,30 564,30 564,40 519,40 514,35 " style="fill:white; stroke-width:1; stroke:black; " description="&lt;b&gt;ctg28_23&lt;/b&gt;&lt;br&gt;ctg28 23&lt;br&gt;Location: 20245 - 22225" locus_tag="ctg28_23" class="clusterblast-orf" id="dummy-1_q22_0_all"  />
<polygon points="564,35 569,30 588,30 588,40 569,40 564,35 " style="fill:#15d863; stroke-width:1; stroke:black; " description="&lt;b&gt;ctg28_24&lt;/b&gt;&lt;br&gt;ctg28 24&lt;br&gt;Location: 22227 - 23163" locus_tag="ctg28_24" class="clusterblast-orf" id="dummy-1_q23_0_all"  />
<polygon points="588,35 593,30 608,30 608,40 593,40 588,35 " style="fill:#1515d8; stroke-width:1; stroke:black; " description="&lt;b&gt;ctg28_25&lt;/b&gt;&lt;br&gt;ctg28 25&lt;br&gt;Location: 23182 - 23968" locus_tag="ctg28_25" class="clusterblast-orf" id="dummy-1_q24_0_all"  />
<polygon points="612,35 617,30 619,30 619,40 617,40 612,35 " style="fill:#d81563; stroke-width:1; stroke:black; " description="&lt;b&gt;ctg28_26&lt;/b&gt;&lt;br&gt;ctg28 26&lt;br&gt;Location: 24103 - 24373" locus_tag="ctg28_26" class="clusterblast-orf" id="dummy-1_q25_0_all"  />
<polygon points="621,35 626,30 652,30 652,40 626,40 621,35 " style="fill:#b1d815; stroke-width:1; stroke:black; " description="&lt;b&gt;ctg28_27&lt;/b&gt;&lt;br&gt;ctg28 27&lt;br&gt;Location: 24460 - 25684" locus_tag="ctg28_27" class="clusterblast-orf" id="dummy-1_q26_0_all"  />
<polygon points="652,35 657,30 684,30 684,40 657,40 652,35 " style="fill:#15d8b1; stroke-width:1; stroke:black; " description="&lt;b&gt;ctg28_28&lt;/b&gt;&lt;br&gt;ctg28 28&lt;br&gt;Location: 25680 - 26961" locus_tag="ctg28_28" class="clusterblast-orf" id="dummy-1_q27_0_all"  />
<polygon points="684,35 689,30 690,30 690,40 689,40 684,35 " style="fill:#6315d8; stroke-width:1; stroke:black; " description="&lt;b&gt;ctg28_29&lt;/b&gt;&lt;br&gt;ctg28 29&lt;br&gt;Location: 26957 - 27185" locus_tag="ctg28_29" class="clusterblast-orf" id="dummy-1_q28_0_all"  />
<polygon points="693,35 698,30 731,30 731,40 698,40 693,35 " style="fill:white; stroke-width:1; stroke:black; " description="&lt;b&gt;ctg28_30&lt;/b&gt;&lt;br&gt;ctg28 30&lt;br&gt;Location: 27295 - 28783" locus_tag="ctg28_30" class="clusterblast-orf" id="dummy-1_q29_0_all"  />
<polygon points="733,40 734,40 739,35 734,30 733,30 733,40 " style="fill:white; stroke-width:1; stroke:black; " description="&lt;b&gt;ctg28_31&lt;/b&gt;&lt;br&gt;ctg28 31&lt;br&gt;Location: 28868 - 29126" locus_tag="ctg28_31" class="clusterblast-orf" id="dummy-1_q30_0_all"  />
<polygon points="739,35 744,30 755,30 755,40 744,40 739,35 " style="fill:white; stroke-width:1; stroke:black; " description="&lt;b&gt;ctg28_32&lt;/b&gt;&lt;br&gt;ctg28 32&lt;br&gt;Location: 29105 - 29753" locus_tag="ctg28_32" class="clusterblast-orf" id="dummy-1_q31_0_all"  />
<polygon points="764,35 769,30 780,30 780,40 769,40 764,35 " style="fill:white; stroke-width:1; stroke:black; " description="&lt;b&gt;ctg28_33&lt;/b&gt;&lt;br&gt;ctg28 33&lt;br&gt;Location: 30087 - 30720" locus_tag="ctg28_33" class="clusterblast-orf" id="dummy-1_q32_0_all"  />
</g>
<g label="AF080235" description="AF080235_c2: landomycin D-olivose / L-rhodinose (66% of genes show similarity), sugar" class="clusterblast-cluster"  >
<text x="5" y="70" class="clusterblast-acc"  >
AF080235_c2: landomycin D-olivose / L-rhodinose (66% of genes show similarity), sugar</text>
<line x1="10" y1="85" x2="778.0" y2="85" style="stroke-width:1; stroke:grey; "  />
</g>
<g id="a1_000"  >
<polygon points="104,85 109,80 136,80 136,90 109,90 104,85 " style="fill:#d8b115; stroke-width:1; stroke:black; " description="&lt;b&gt;AF080235_2_lanGT4&lt;/b&gt;&lt;br&gt;glycosyl transferase homolog&lt;br&gt;Location: 31314 - 30061&lt;br&gt;&lt;br&gt;&lt;b&gt;BlastP hit with ctg28_21&lt;/b&gt;&lt;br&gt;Percentage identity: 47&lt;br&gt;Percentage coverage: 100&lt;br&gt;BLAST bit score: 352&lt;br&gt;E-value: 8.28e-119" locus_tag="AF080235_2_lanGT4" class="clusterblast-orf" id="dummy-1_h1_2_0"  />
</g>
<g id="a1_001"  >
<polygon points="190,85 195,80 220,80 220,90 195,90 190,85 " style="fill:#d815b1; stroke-width:1; stroke:black; " description="&lt;b&gt;AF080235_2_lanGT3&lt;/b&gt;&lt;br&gt;glycosyl transferase homolog&lt;br&gt;Location: 27924 - 26719&lt;br&gt;&lt;br&gt;&lt;b&gt;BlastP hit with ctg28_20&lt;/b&gt;&lt;br&gt;Percentage identity: 49&lt;br&gt;Percentage coverage: 99&lt;br&gt;BLAST bit score: 306&lt;br&gt;E-value: 1.47e-101" locus_tag="AF080235_2_lanGT3" class="clusterblast-orf" id="dummy-1_h1_2_1"  />
</g>
<g id="a1_002"  >
<polygon points="300,85 305,80 330,80 330,90 305,90 300,85 " style="fill:#d815b1; stroke-width:1; stroke:black; " description="&lt;b&gt;AF080235_2_lanGT1&lt;/b&gt;&lt;br&gt;glycosyl transferase homolog&lt;br&gt;Location: 23589 - 22417&lt;br&gt;&lt;br&gt;&lt;b&gt;BlastP hit with ctg28_20&lt;/b&gt;&lt;br&gt;Percentage identity: 50&lt;br&gt;Percentage coverage: 99&lt;br&gt;BLAST bit score: 350&lt;br&gt;E-value: 8.87e-119" locus_tag="AF080235_2_lanGT1" class="clusterblast-orf" id="dummy-1_h1_2_2"  />
</g>
<g id="a1_003"  >
<polygon points="345,85 350,80 374,80 374,90 350,90 345,85 " style="fill:#15d815; stroke-width:1; stroke:black; " description="&lt;b&gt;AF080235_2_lanGT2&lt;/b&gt;&lt;br&gt;glycosyl transferase homolog&lt;br&gt;Location: 21808 - 20687&lt;br&gt;&lt;br&gt;&lt;b&gt;BlastP hit with ctg28_18&lt;/b&gt;&lt;br&gt;Percentage identity: 56&lt;br&gt;Percentage coverage: 99&lt;br&gt;BLAST bit score: 386&lt;br&gt;E-value: 1.9e-133" locus_tag="AF080235_2_lanGT2" class="clusterblast-orf" id="dummy-1_h1_2_3"  />
</g>
<g id="a1_004"  >
<polygon points="449,85 454,80 484,80 484,90 454,90 449,85 " style="fill:#63d815; stroke-width:1; stroke:black; " description="&lt;b&gt;AF080235_2_lanS&lt;/b&gt;&lt;br&gt;NDP-hexose 2,3-dehydratase homolog&lt;br&gt;Location: 17727 - 16318&lt;br&gt;&lt;br&gt;&lt;b&gt;BlastP hit with ctg28_12&lt;/b&gt;&lt;br&gt;Percentage identity: 74&lt;br&gt;Percentage coverage: 96&lt;br&gt;BLAST bit score: 658&lt;br&gt;E-value: 0.0" locus_tag="AF080235_2_lanS" class="clusterblast-orf" id="dummy-1_h1_2_4"  />
</g>
<g id="a1_005"  >
<polygon points="485,85 490,80 505,80 505,90 490,90 485,85 " style="fill:white; stroke-width:1; stroke:black; " description="&lt;b&gt;AF080235_2_lanR&lt;/b&gt;&lt;br&gt;4-keto reductase homolog&lt;br&gt;Location: 16278 - 15517" locus_tag="AF080235_2_lanR" class="clusterblast-orf" id="dummy-1_h1_2_5"  />
</g>
<g id="a1_006"  >
<polygon points="505,85 510,80 538,80 538,90 510,90 505,85 " style="fill:#15b1d8; stroke-width:1; stroke:black; " description="&lt;b&gt;AF080235_2_lanQ&lt;/b&gt;&lt;br&gt;NDP-hexose 3,4-dehydratase homolog&lt;br&gt;Location: 15520 - 14216&lt;br&gt;&lt;br&gt;&lt;b&gt;BlastP hit with ctg28_14&lt;/b&gt;&lt;br&gt;Percentage identity: 82&lt;br&gt;Percentage coverage: 100&lt;br&gt;BLAST bit score: 758&lt;br&gt;E-value: 0.0" locus_tag="AF080235_2_lanQ" class="clusterblast-orf" id="dummy-1_h1_2_6"  />
</g>
<g id="a1_007"  >
<polygon points="540,85 545,80 565,80 565,90 545,90 540,85 " style="fill:#b115d8; stroke-width:1; stroke:black; " description="&lt;b&gt;AF080235_2_lanH14&lt;/b&gt;&lt;br&gt;NDP-hexose 4,6-dehydratase homolog&lt;br&gt;Location: 14130 - 13150&lt;br&gt;&lt;br&gt;&lt;b&gt;BlastP hit with ctg28_16&lt;/b&gt;&lt;br&gt;Percentage identity: 75&lt;br&gt;Percentage coverage: 98&lt;br&gt;BLAST bit score: 501&lt;br&gt;E-value: 3.04e-180" locus_tag="AF080235_2_lanH14" class="clusterblast-orf" id="dummy-1_h1_2_7"  />
</g>
<g id="a1_008"  >
<polygon points="565,85 570,80 592,80 592,90 570,90 565,85 " style="fill:#d86315; stroke-width:1; stroke:black; " description="&lt;b&gt;AF080235_2_lanG&lt;/b&gt;&lt;br&gt;NDP-hexose synthetase homolog&lt;br&gt;Location: 13153 - 12086&lt;br&gt;&lt;br&gt;&lt;b&gt;BlastP hit with ctg28_17&lt;/b&gt;&lt;br&gt;Percentage identity: 69&lt;br&gt;Percentage coverage: 100&lt;br&gt;BLAST bit score: 495&lt;br&gt;E-value: 4.73e-177" locus_tag="AF080235_2_lanG" class="clusterblast-orf" id="dummy-1_h1_2_8"  />
</g>
<g id="a1_009"  >
<polygon points="600,85 605,80 640,80 640,90 605,90 600,85 " style="fill:white; stroke-width:1; stroke:black; " description="&lt;b&gt;AF080235_2_lanP1&lt;/b&gt;&lt;br&gt;decarboxylase homolog&lt;br&gt;Location: 11784 - 10210" locus_tag="AF080235_2_lanP1" class="clusterblast-orf" id="dummy-1_h1_2_9"  />
</g>
<g id="a1_0010"  >
<polygon points="640,85 645,80 654,80 654,90 645,90 640,85 " style="fill:white; stroke-width:1; stroke:black; " description="&lt;b&gt;AF080235_2_lanO&lt;/b&gt;&lt;br&gt;reductase homolog&lt;br&gt;Location: 10207 - 9626" locus_tag="AF080235_2_lanO" class="clusterblast-orf" id="dummy-1_h1_2_10"  />
</g>
<g id="a1_0011"  >
<polygon points="658,85 663,80 675,80 675,90 663,90 658,85 " style="fill:white; stroke-width:1; stroke:black; " description="&lt;b&gt;AF080235_2_lanN&lt;/b&gt;&lt;br&gt;reductase homolog&lt;br&gt;Location: 9471 - 8803" locus_tag="AF080235_2_lanN" class="clusterblast-orf" id="dummy-1_h1_2_11"  />
</g>
</svg>
