<svg xmlns="http://www.w3.org/2000/svg" xmlns:xlink="http://www.w3.org/1999/xlink" version="1.1" x="0" y="0" height="50" width="800" viewBox="0 0 800 50" preserveAspectRatio="none"  >
<g label="Query sequence" class="clusterblast-cluster"  >
<text x="5" y="20" class="clusterblast-acc"  >
Query sequence</text>
<line x1="10" y1="35" x2="778.0" y2="35" style="stroke-width:1; stroke:grey; "  />
<polygon points="0,40 65,40 70,35 65,30 0,30 0,40 " style="fill:white; stroke-width:1; stroke:black; " description="&lt;b&gt;ctg19_20&lt;/b&gt;&lt;br&gt;ctg19 20&lt;br&gt;Location: 25668 - 26610" locus_tag="ctg19_20" class="clusterblast-orf" id="subclusterblast-1_q0_0_all"  />
<polygon points="75,40 93,40 98,35 93,30 75,30 75,40 " style="fill:white; stroke-width:1; stroke:black; " description="&lt;b&gt;ctg19_21&lt;/b&gt;&lt;br&gt;ctg19 21&lt;br&gt;Location: 26677 - 26998" locus_tag="ctg19_21" class="clusterblast-orf" id="subclusterblast-1_q1_0_all"  />
<polygon points="95,40 173,40 178,35 173,30 95,30 95,40 " style="fill:white; stroke-width:1; stroke:black; " description="&lt;b&gt;ctg19_22&lt;/b&gt;&lt;br&gt;ctg19 22&lt;br&gt;Location: 26949 - 28083" locus_tag="ctg19_22" class="clusterblast-orf" id="subclusterblast-1_q2_0_all"  />
<polygon points="177,35 182,30 250,30 250,40 182,40 177,35 " style="fill:white; stroke-width:1; stroke:black; " description="&lt;b&gt;ctg19_23&lt;/b&gt;&lt;br&gt;ctg19 23&lt;br&gt;Location: 28070 - 29060" locus_tag="ctg19_23" class="clusterblast-orf" id="subclusterblast-1_q3_0_all"  />
<polygon points="254,35 259,30 316,30 316,40 259,40 254,35 " style="fill:white; stroke-width:1; stroke:black; " description="&lt;b&gt;ctg19_24&lt;/b&gt;&lt;br&gt;ctg19 24&lt;br&gt;Location: 29114 - 29960" locus_tag="ctg19_24" class="clusterblast-orf" id="subclusterblast-1_q4_0_all"  />
<polygon points="316,35 321,30 399,30 399,40 321,40 316,35 " style="fill:white; stroke-width:1; stroke:black; " description="&lt;b&gt;ctg19_25&lt;/b&gt;&lt;br&gt;ctg19 25&lt;br&gt;Location: 29956 - 31087" locus_tag="ctg19_25" class="clusterblast-orf" id="subclusterblast-1_q5_0_all"  />
<polygon points="402,40 498,40 503,35 498,30 402,30 402,40 " style="fill:white; stroke-width:1; stroke:black; " description="&lt;b&gt;ctg19_26&lt;/b&gt;&lt;br&gt;ctg19 26&lt;br&gt;Location: 31121 - 32492" locus_tag="ctg19_26" class="clusterblast-orf" id="subclusterblast-1_q6_0_all"  />
<polygon points="503,40 531,40 536,35 531,30 503,30 503,40 " style="fill:white; stroke-width:1; stroke:black; " description="&lt;b&gt;ctg19_27&lt;/b&gt;&lt;br&gt;ctg19 27&lt;br&gt;Location: 32488 - 32944" locus_tag="ctg19_27" class="clusterblast-orf" id="subclusterblast-1_q7_0_all"  />
<polygon points="537,40 605,40 610,35 605,30 537,30 537,40 " style="fill:white; stroke-width:1; stroke:black; " description="&lt;b&gt;ctg19_28&lt;/b&gt;&lt;br&gt;ctg19 28&lt;br&gt;Location: 32956 - 33949" locus_tag="ctg19_28" class="clusterblast-orf" id="subclusterblast-1_q8_0_all"  />
<polygon points="614,40 775,40 780,35 775,30 614,30 614,40 " style="fill:white; stroke-width:1; stroke:black; " description="&lt;b&gt;ctg19_29&lt;/b&gt;&lt;br&gt;ctg19 29&lt;br&gt;Location: 33997 - 36259" locus_tag="ctg19_29" class="clusterblast-orf" id="subclusterblast-1_q9_0_all"  />
</g>
</svg>
