<svg xmlns="http://www.w3.org/2000/svg" xmlns:xlink="http://www.w3.org/1999/xlink" version="1.1" x="0" y="0" height="230" width="800" viewBox="0 0 800 230" preserveAspectRatio="none"  >
<g label="Query sequence" class="clusterblast-cluster"  >
<text x="5" y="20" class="clusterblast-acc"  >
Query sequence</text>
<line x1="10" y1="35" x2="778.0" y2="35" style="stroke-width:1; stroke:grey; "  />
<polygon points="0,40 43,40 48,35 43,30 0,30 0,40 " style="fill:#d81515; stroke-width:1; stroke:black; " description="&lt;b&gt;ctg1_19&lt;/b&gt;&lt;br&gt;ctg1 19&lt;br&gt;Location: 23995 - 25576" locus_tag="ctg1_19" class="clusterblast-orf" id="dummy-1_q0_0_all"  />
<polygon points="49,40 72,40 77,35 72,30 49,30 49,40 " style="fill:#4dd815; stroke-width:1; stroke:black; " description="&lt;b&gt;ctg1_20&lt;/b&gt;&lt;br&gt;ctg1 20&lt;br&gt;Location: 25600 - 26527" locus_tag="ctg1_20" class="clusterblast-orf" id="dummy-1_q1_0_all"  />
<polygon points="77,40 96,40 101,35 96,30 77,30 77,40 " style="fill:#15bcd8; stroke-width:1; stroke:black; " description="&lt;b&gt;ctg1_21&lt;/b&gt;&lt;br&gt;ctg1 21&lt;br&gt;Location: 26523 - 27318" locus_tag="ctg1_21" class="clusterblast-orf" id="dummy-1_q2_0_all"  />
<polygon points="102,40 127,40 132,35 127,30 102,30 102,40 " style="fill:#8515d8; stroke-width:1; stroke:black; " description="&lt;b&gt;ctg1_22&lt;/b&gt;&lt;br&gt;ctg1 22&lt;br&gt;Location: 27333 - 28311" locus_tag="ctg1_22" class="clusterblast-orf" id="dummy-1_q3_0_all"  />
<polygon points="135,40 158,40 163,35 158,30 135,30 135,40 " style="fill:#d84d15; stroke-width:1; stroke:black; " description="&lt;b&gt;ctg1_23&lt;/b&gt;&lt;br&gt;ctg1 23&lt;br&gt;Location: 28407 - 29325" locus_tag="ctg1_23" class="clusterblast-orf" id="dummy-1_q4_0_all"  />
<polygon points="163,35 168,30 172,30 172,40 168,40 163,35 " style="fill:#15d815; stroke-width:1; stroke:black; " description="&lt;b&gt;ctg1_24&lt;/b&gt;&lt;br&gt;ctg1 24&lt;br&gt;Location: 29328 - 29634" locus_tag="ctg1_24" class="clusterblast-orf" id="dummy-1_q5_0_all"  />
<polygon points="174,40 199,40 204,35 199,30 174,30 174,40 " style="fill:#1585d8; stroke-width:1; stroke:black; " description="&lt;b&gt;ctg1_25&lt;/b&gt;&lt;br&gt;ctg1 25&lt;br&gt;Location: 29712 - 30684" locus_tag="ctg1_25" class="clusterblast-orf" id="dummy-1_q6_0_all"  />
<polygon points="215,35 220,30 246,30 246,40 220,40 215,35 " style="fill:#bc15d8; stroke-width:1; stroke:black; " description="&lt;b&gt;ctg1_26&lt;/b&gt;&lt;br&gt;ctg1 26&lt;br&gt;Location: 31053 - 32058" locus_tag="ctg1_26" class="clusterblast-orf" id="dummy-1_q7_0_all"  />
<polygon points="246,35 251,30 291,30 291,40 251,40 246,35 " style="fill:#d88515; stroke-width:1; stroke:black; " description="&lt;b&gt;ctg1_27&lt;/b&gt;&lt;br&gt;ctg1 27&lt;br&gt;Location: 32061 - 33534" locus_tag="ctg1_27" class="clusterblast-orf" id="dummy-1_q8_0_all"  />
<polygon points="291,35 296,30 349,30 349,40 296,40 291,35 " style="fill:#15d84d; stroke-width:1; stroke:black; " description="&lt;b&gt;ctg1_28&lt;/b&gt;&lt;br&gt;ctg1 28&lt;br&gt;Location: 33530 - 35432" locus_tag="ctg1_28" class="clusterblast-orf" id="dummy-1_q9_0_all"  />
<polygon points="349,35 354,30 380,30 380,40 354,40 349,35 " style="fill:#154dd8; stroke-width:1; stroke:black; " description="&lt;b&gt;ctg1_29&lt;/b&gt;&lt;br&gt;ctg1 29&lt;br&gt;Location: 35432 - 36443" locus_tag="ctg1_29" class="clusterblast-orf" id="dummy-1_q10_0_all"  />
<polygon points="380,35 385,30 421,30 421,40 385,40 380,35 " style="fill:#d815bc; stroke-width:1; stroke:black; " description="&lt;b&gt;ctg1_30&lt;/b&gt;&lt;br&gt;ctg1 30&lt;br&gt;Location: 36439 - 37795" locus_tag="ctg1_30" class="clusterblast-orf" id="dummy-1_q11_0_all"  />
<polygon points="421,35 426,30 448,30 448,40 426,40 421,35 " style="fill:#d8bc15; stroke-width:1; stroke:black; " description="&lt;b&gt;ctg1_31&lt;/b&gt;&lt;br&gt;ctg1 31&lt;br&gt;Location: 37791 - 38652" locus_tag="ctg1_31" class="clusterblast-orf" id="dummy-1_q12_0_all"  />
<polygon points="448,35 453,30 475,30 475,40 453,40 448,35 " style="fill:#d8bc15; stroke-width:1; stroke:black; " description="&lt;b&gt;ctg1_32&lt;/b&gt;&lt;br&gt;ctg1 32&lt;br&gt;Location: 38648 - 39551" locus_tag="ctg1_32" class="clusterblast-orf" id="dummy-1_q13_0_all"  />
<polygon points="479,40 511,40 516,35 511,30 479,30 479,40 " style="fill:#15d885; stroke-width:1; stroke:black; " description="&lt;b&gt;ctg1_33&lt;/b&gt;&lt;br&gt;ctg1 33&lt;br&gt;Location: 39687 - 40905" locus_tag="ctg1_33" class="clusterblast-orf" id="dummy-1_q14_0_all"  />
<polygon points="517,35 522,30 577,30 577,40 522,40 517,35 " style="fill:#1515d8; stroke-width:1; stroke:black; " description="&lt;b&gt;ctg1_34&lt;/b&gt;&lt;br&gt;ctg1 34&lt;br&gt;Location: 40911 - 42870" locus_tag="ctg1_34" class="clusterblast-orf" id="dummy-1_q15_0_all"  />
<polygon points="580,35 585,30 601,30 601,40 585,40 580,35 " style="fill:#d81585; stroke-width:1; stroke:black; " description="&lt;b&gt;ctg1_35&lt;/b&gt;&lt;br&gt;ctg1 35&lt;br&gt;Location: 42978 - 43665" locus_tag="ctg1_35" class="clusterblast-orf" id="dummy-1_q16_0_all"  />
<polygon points="604,35 609,30 634,30 634,40 609,40 604,35 " style="fill:#bcd815; stroke-width:1; stroke:black; " description="&lt;b&gt;ctg1_36&lt;/b&gt;&lt;br&gt;ctg1 36&lt;br&gt;Location: 43777 - 44755" locus_tag="ctg1_36" class="clusterblast-orf" id="dummy-1_q17_0_all"  />
<polygon points="635,35 640,30 659,30 659,40 640,40 635,35 " style="fill:#15d8bc; stroke-width:1; stroke:black; " description="&lt;b&gt;ctg1_37&lt;/b&gt;&lt;br&gt;ctg1 37&lt;br&gt;Location: 44797 - 45559" locus_tag="ctg1_37" class="clusterblast-orf" id="dummy-1_q18_0_all"  />
<polygon points="659,35 664,30 677,30 677,40 664,40 659,35 " style="fill:#4d15d8; stroke-width:1; stroke:black; " description="&lt;b&gt;ctg1_38&lt;/b&gt;&lt;br&gt;ctg1 38&lt;br&gt;Location: 45571 - 46159" locus_tag="ctg1_38" class="clusterblast-orf" id="dummy-1_q19_0_all"  />
<polygon points="678,35 683,30 745,30 745,40 683,40 678,35 " style="fill:#d8154d; stroke-width:1; stroke:black; " description="&lt;b&gt;ctg1_39&lt;/b&gt;&lt;br&gt;ctg1 39&lt;br&gt;Location: 46189 - 48394" locus_tag="ctg1_39" class="clusterblast-orf" id="dummy-1_q20_0_all"  />
<polygon points="750,35 755,30 780,30 780,40 755,40 750,35 " style="fill:#85d815; stroke-width:1; stroke:black; " description="&lt;b&gt;ctg1_40&lt;/b&gt;&lt;br&gt;ctg1 40&lt;br&gt;Location: 48545 - 49523" locus_tag="ctg1_40" class="clusterblast-orf" id="dummy-1_q21_0_all"  />
</g>
<g label="NC_015312" description="NC_015312_c7: Pseudonocardia dioxanivorans CB1190, complete genome (47% of genes show similarity), terpene" class="clusterblast-cluster"  >
<text x="5" y="70" class="clusterblast-acc"  >
<a xlink:href="https://antismash-db.secondarymetabolites.org/go/NC_015312/7" target="_blank">NC_015312_c7</a>: Pseudonocardia dioxanivorans CB1190, complete genome (47% of genes show similarity), terpene</text>
<line x1="10" y1="85" x2="778.0" y2="85" style="stroke-width:1; stroke:grey; "  />
</g>
<g id="a1_000"  >
<polygon points="8,90 16,90 21,85 16,80 8,80 8,90 " style="fill:white; stroke-width:1; stroke:black; " description="&lt;b&gt;PSED_RS18410&lt;/b&gt;&lt;br&gt;type II 3-dehydroquinate dehydratase&lt;br&gt;Location: 3946354 - 3945914" locus_tag="PSED_RS18410" class="clusterblast-orf" id="dummy-1_h1_10_0"  />
</g>
<g id="a1_001"  >
<polygon points="29,85 34,80 52,80 52,90 34,90 29,85 " style="fill:#15d8bc; stroke-width:1; stroke:black; " description="&lt;b&gt;PSED_RS18405&lt;/b&gt;&lt;br&gt;KR domain-containing protein&lt;br&gt;Location: 3945665 - 3944922&lt;br&gt;&lt;br&gt;&lt;b&gt;BlastP hit with ctg1_37&lt;/b&gt;&lt;br&gt;Percentage identity: 56&lt;br&gt;Percentage coverage: 97&lt;br&gt;BLAST bit score: 220&lt;br&gt;E-value: 1.7e-55" locus_tag="PSED_RS18405" class="clusterblast-orf" id="dummy-1_h1_10_1"  />
</g>
<g id="a1_002"  >
<polygon points="51,85 56,80 80,80 80,90 56,90 51,85 " style="fill:#bcd815; stroke-width:1; stroke:black; " description="&lt;b&gt;PSED_RS18400&lt;/b&gt;&lt;br&gt;hypothetical protein&lt;br&gt;Location: 3944925 - 3943996&lt;br&gt;&lt;br&gt;&lt;b&gt;BlastP hit with ctg1_36&lt;/b&gt;&lt;br&gt;Percentage identity: 32&lt;br&gt;Percentage coverage: 90&lt;br&gt;BLAST bit score: 85&lt;br&gt;E-value: 1.4e-14" locus_tag="PSED_RS18400" class="clusterblast-orf" id="dummy-1_h1_10_2"  />
</g>
<g id="a1_003"  >
<polygon points="81,85 86,80 160,80 160,90 86,90 81,85 " style="fill:white; stroke-width:1; stroke:black; " description="&lt;b&gt;PSED_RS18395&lt;/b&gt;&lt;br&gt;DUF1298 domain-containing protein&lt;br&gt;Location: 3943964 - 3941364" locus_tag="PSED_RS18395" class="clusterblast-orf" id="dummy-1_h1_10_3"  />
</g>
<g id="a1_004"  >
<polygon points="163,90 192,90 197,85 192,80 163,80 163,90 " style="fill:white; stroke-width:1; stroke:black; " description="&lt;b&gt;PSED_RS18390&lt;/b&gt;&lt;br&gt;monogalactosyldiacylglycerol synthase&lt;br&gt;Location: 3941265 - 3940153" locus_tag="PSED_RS18390" class="clusterblast-orf" id="dummy-1_h1_10_4"  />
</g>
<g id="a1_005"  >
<polygon points="198,85 203,80 218,80 218,90 203,90 198,85 " style="fill:white; stroke-width:1; stroke:black; " description="&lt;b&gt;PSED_RS18385&lt;/b&gt;&lt;br&gt;DUF3159 domain-containing protein&lt;br&gt;Location: 3940135 - 3939461" locus_tag="PSED_RS18385" class="clusterblast-orf" id="dummy-1_h1_10_5"  />
</g>
<g id="a1_006"  >
<polygon points="222,85 227,80 253,80 253,90 227,90 222,85 " style="fill:#bc15d8; stroke-width:1; stroke:black; " description="&lt;b&gt;PSED_RS18380&lt;/b&gt;&lt;br&gt;hopanoid biosynthesis associated radical SAM protein HpnH&lt;br&gt;Location: 3939328 - 3938324&lt;br&gt;&lt;br&gt;&lt;b&gt;BlastP hit with ctg1_26&lt;/b&gt;&lt;br&gt;Percentage identity: 80&lt;br&gt;Percentage coverage: 99&lt;br&gt;BLAST bit score: 567&lt;br&gt;E-value: 1.3e-159" locus_tag="PSED_RS18380" class="clusterblast-orf" id="dummy-1_h1_10_6"  />
</g>
<g id="a1_007"  >
<polygon points="253,85 258,80 300,80 300,90 258,90 253,85 " style="fill:#d88515; stroke-width:1; stroke:black; " description="&lt;b&gt;PSED_RS18375&lt;/b&gt;&lt;br&gt;4-hydroxy-3-methylbut-2-enyl diphosphate reductase&lt;br&gt;Location: 3938324 - 3936795&lt;br&gt;&lt;br&gt;&lt;b&gt;BlastP hit with ctg1_27&lt;/b&gt;&lt;br&gt;Percentage identity: 64&lt;br&gt;Percentage coverage: 101&lt;br&gt;BLAST bit score: 571&lt;br&gt;E-value: 7.5e-161" locus_tag="PSED_RS18375" class="clusterblast-orf" id="dummy-1_h1_10_7"  />
</g>
<g id="a1_008"  >
<polygon points="300,85 305,80 358,80 358,90 305,90 300,85 " style="fill:#15d84d; stroke-width:1; stroke:black; " description="&lt;b&gt;PSED_RS18370&lt;/b&gt;&lt;br&gt;squalene--hopene cyclase&lt;br&gt;Location: 3936798 - 3934891&lt;br&gt;&lt;br&gt;&lt;b&gt;BlastP hit with ctg1_28&lt;/b&gt;&lt;br&gt;Percentage identity: 71&lt;br&gt;Percentage coverage: 100&lt;br&gt;BLAST bit score: 926&lt;br&gt;E-value: 1.2e-267" locus_tag="PSED_RS18370" class="clusterblast-orf" id="dummy-1_h1_10_8"  />
</g>
<g id="a1_009"  >
<polygon points="358,85 363,80 391,80 391,90 363,90 358,85 " style="fill:#154dd8; stroke-width:1; stroke:black; " description="&lt;b&gt;PSED_RS18365&lt;/b&gt;&lt;br&gt;dimethylallyltranstransferase&lt;br&gt;Location: 3934891 - 3933821&lt;br&gt;&lt;br&gt;&lt;b&gt;BlastP hit with ctg1_29&lt;/b&gt;&lt;br&gt;Percentage identity: 65&lt;br&gt;Percentage coverage: 98&lt;br&gt;BLAST bit score: 387&lt;br&gt;E-value: 1.8e-105" locus_tag="PSED_RS18365" class="clusterblast-orf" id="dummy-1_h1_10_9"  />
</g>
<g id="a1_0010"  >
<polygon points="391,85 396,80 434,80 434,90 396,90 391,85 " style="fill:#d815bc; stroke-width:1; stroke:black; " description="&lt;b&gt;PSED_RS18360&lt;/b&gt;&lt;br&gt;FAD-dependent oxidoreductase&lt;br&gt;Location: 3933824 - 3932391&lt;br&gt;&lt;br&gt;&lt;b&gt;BlastP hit with ctg1_30&lt;/b&gt;&lt;br&gt;Percentage identity: 61&lt;br&gt;Percentage coverage: 103&lt;br&gt;BLAST bit score: 497&lt;br&gt;E-value: 2.2e-138" locus_tag="PSED_RS18360" class="clusterblast-orf" id="dummy-1_h1_10_10"  />
</g>
<g id="a1_0011"  >
<polygon points="434,85 439,80 463,80 463,90 439,90 434,85 " style="fill:#d8bc15; stroke-width:1; stroke:black; " description="&lt;b&gt;PSED_RS18355&lt;/b&gt;&lt;br&gt;phytoene synthase&lt;br&gt;Location: 3932394 - 3931462&lt;br&gt;&lt;br&gt;&lt;b&gt;BlastP hit with ctg1_31&lt;/b&gt;&lt;br&gt;Percentage identity: 64&lt;br&gt;Percentage coverage: 103&lt;br&gt;BLAST bit score: 348&lt;br&gt;E-value: 7.9e-94&lt;br&gt;&lt;br&gt;&lt;b&gt;BlastP hit with ctg1_32&lt;/b&gt;&lt;br&gt;Percentage identity: 35&lt;br&gt;Percentage coverage: 82&lt;br&gt;BLAST bit score: 91&lt;br&gt;E-value: 2.4e-16" locus_tag="PSED_RS18355" class="clusterblast-orf" id="dummy-1_h1_10_11"  />
</g>
<g id="a1_0012"  >
<polygon points="463,85 468,80 491,80 491,90 468,90 463,85 " style="fill:#d8bc15; stroke-width:1; stroke:black; " description="&lt;b&gt;PSED_RS18350&lt;/b&gt;&lt;br&gt;squalene synthase HpnC&lt;br&gt;Location: 3931465 - 3930545&lt;br&gt;&lt;br&gt;&lt;b&gt;BlastP hit with ctg1_32&lt;/b&gt;&lt;br&gt;Percentage identity: 49&lt;br&gt;Percentage coverage: 102&lt;br&gt;BLAST bit score: 249&lt;br&gt;E-value: 4e-64" locus_tag="PSED_RS18350" class="clusterblast-orf" id="dummy-1_h1_10_12"  />
</g>
<g id="a1_0013"  >
<polygon points="496,90 528,90 533,85 528,80 496,80 496,90 " style="fill:#15d885; stroke-width:1; stroke:black; " description="&lt;b&gt;PSED_RS18345&lt;/b&gt;&lt;br&gt;PucR family transcriptional regulator&lt;br&gt;Location: 3930382 - 3929159&lt;br&gt;&lt;br&gt;&lt;b&gt;BlastP hit with ctg1_33&lt;/b&gt;&lt;br&gt;Percentage identity: 56&lt;br&gt;Percentage coverage: 100&lt;br&gt;BLAST bit score: 418&lt;br&gt;E-value: 8.8e-115" locus_tag="PSED_RS18345" class="clusterblast-orf" id="dummy-1_h1_10_13"  />
</g>
<g id="a1_0014"  >
<polygon points="533,85 538,80 553,80 553,90 538,90 533,85 " style="fill:white; stroke-width:1; stroke:black; " description="&lt;b&gt;PSED_RS18340&lt;/b&gt;&lt;br&gt;fuculose phosphate aldolase&lt;br&gt;Location: 3929172 - 3928504" locus_tag="PSED_RS18340" class="clusterblast-orf" id="dummy-1_h1_10_14"  />
</g>
<g id="a1_0015"  >
<polygon points="555,90 594,90 599,85 594,80 555,80 555,90 " style="fill:white; stroke-width:1; stroke:black; " description="&lt;b&gt;PSED_RS18335&lt;/b&gt;&lt;br&gt;hypothetical protein&lt;br&gt;Location: 3928450 - 3926996" locus_tag="PSED_RS18335" class="clusterblast-orf" id="dummy-1_h1_10_15"  />
</g>
<g id="a1_0016"  >
<polygon points="601,85 606,80 619,80 619,90 606,90 601,85 " style="fill:white; stroke-width:1; stroke:black; " description="&lt;b&gt;PSED_RS18330&lt;/b&gt;&lt;br&gt;hypothetical protein&lt;br&gt;Location: 3926934 - 3926353" locus_tag="PSED_RS18330" class="clusterblast-orf" id="dummy-1_h1_10_16"  />
</g>
<g id="a1_0017"  >
<polygon points="635,90 652,90 657,85 652,80 635,80 635,90 " style="fill:white; stroke-width:1; stroke:black; " description="&lt;b&gt;PSED_RS18325&lt;/b&gt;&lt;br&gt;GntR family transcriptional regulator&lt;br&gt;Location: 3925843 - 3925091" locus_tag="PSED_RS18325" class="clusterblast-orf" id="dummy-1_h1_10_17"  />
</g>
<g id="a1_0018"  >
<polygon points="657,85 662,80 692,80 692,90 662,90 657,85 " style="fill:white; stroke-width:1; stroke:black; " description="&lt;b&gt;PSED_RS18320&lt;/b&gt;&lt;br&gt;acyl-CoA dehydrogenase&lt;br&gt;Location: 3925113 - 3923959" locus_tag="PSED_RS18320" class="clusterblast-orf" id="dummy-1_h1_10_18"  />
</g>
<g id="a1_0019"  >
<polygon points="708,85 713,80 715,80 715,90 713,90 708,85 " style="fill:white; stroke-width:1; stroke:black; " description="&lt;b&gt;PSED_RS18315&lt;/b&gt;&lt;br&gt;hypothetical protein&lt;br&gt;Location: 3923444 - 3923193" locus_tag="PSED_RS18315" class="clusterblast-orf" id="dummy-1_h1_10_19"  />
</g>
<g id="a1_0020"  >
<polygon points="719,85 724,80 771,80 771,90 724,90 719,85 " style="fill:white; stroke-width:1; stroke:black; " description="&lt;b&gt;PSED_RS18310&lt;/b&gt;&lt;br&gt;SSS sodium solute transporter superfamily protein&lt;br&gt;Location: 3923071 - 3921371" locus_tag="PSED_RS18310" class="clusterblast-orf" id="dummy-1_h1_10_20"  />
</g>
</svg>
