<svg xmlns="http://www.w3.org/2000/svg" xmlns:xlink="http://www.w3.org/1999/xlink" version="1.1" x="0" y="0" height="230" width="800" viewBox="0 0 800 230" preserveAspectRatio="none"  >
<g label="Query sequence" class="clusterblast-cluster"  >
<text x="5" y="20" class="clusterblast-acc"  >
Query sequence</text>
<line x1="10" y1="35" x2="778.0" y2="35" style="stroke-width:1; stroke:grey; "  />
<polygon points="292,35 295,30 295,40 292,35 " style="fill:white; stroke-width:1; stroke:black; " description="&lt;b&gt;ctg28_1&lt;/b&gt;&lt;br&gt;ctg28 1&lt;br&gt;Location: 0 - 228" locus_tag="ctg28_1" class="clusterblast-orf" id="dummy-1_q0_0_all"  />
<polygon points="295,40 297,40 302,35 297,30 295,30 295,40 " style="fill:white; stroke-width:1; stroke:black; " description="&lt;b&gt;ctg28_2&lt;/b&gt;&lt;br&gt;ctg28 2&lt;br&gt;Location: 273 - 906" locus_tag="ctg28_2" class="clusterblast-orf" id="dummy-1_q1_0_all"  />
<polygon points="302,40 302,40 307,35 302,30 302,30 302,40 " style="fill:white; stroke-width:1; stroke:black; " description="&lt;b&gt;ctg28_3&lt;/b&gt;&lt;br&gt;ctg28 3&lt;br&gt;Location: 902 - 1358" locus_tag="ctg28_3" class="clusterblast-orf" id="dummy-1_q2_0_all"  />
<polygon points="307,35 312,30 318,30 318,40 312,40 307,35 " style="fill:#d81515; stroke-width:1; stroke:black; " description="&lt;b&gt;ctg28_4&lt;/b&gt;&lt;br&gt;ctg28 4&lt;br&gt;Location: 1362 - 2313" locus_tag="ctg28_4" class="clusterblast-orf" id="dummy-1_q3_0_all"  />
<polygon points="318,35 323,30 336,30 336,40 323,40 318,35 " style="fill:#77d815; stroke-width:1; stroke:black; " description="&lt;b&gt;ctg28_5&lt;/b&gt;&lt;br&gt;ctg28 5&lt;br&gt;Location: 2309 - 3920" locus_tag="ctg28_5" class="clusterblast-orf" id="dummy-1_q4_0_all"  />
<polygon points="336,35 341,30 345,30 345,40 341,40 336,35 " style="fill:#15d8d8; stroke-width:1; stroke:black; " description="&lt;b&gt;ctg28_6&lt;/b&gt;&lt;br&gt;ctg28 6&lt;br&gt;Location: 3925 - 4675" locus_tag="ctg28_6" class="clusterblast-orf" id="dummy-1_q5_0_all"  />
<polygon points="345,35 350,30 358,30 358,40 350,40 345,35 " style="fill:#7715d8; stroke-width:1; stroke:black; " description="&lt;b&gt;ctg28_7&lt;/b&gt;&lt;br&gt;ctg28 7&lt;br&gt;Location: 4676 - 5867" locus_tag="ctg28_7" class="clusterblast-orf" id="dummy-1_q6_0_all"  />
<polygon points="358,35 363,30 366,30 366,40 363,40 358,35 " style="fill:#15d8d8; stroke-width:1; stroke:black; " description="&lt;b&gt;ctg28_8&lt;/b&gt;&lt;br&gt;ctg28 8&lt;br&gt;Location: 5863 - 6598" locus_tag="ctg28_8" class="clusterblast-orf" id="dummy-1_q7_0_all"  />
<polygon points="366,35 371,30 376,30 376,40 371,40 366,35 " style="fill:#d8a715; stroke-width:1; stroke:black; " description="&lt;b&gt;ctg28_9&lt;/b&gt;&lt;br&gt;ctg28 9&lt;br&gt;Location: 6590 - 7517" locus_tag="ctg28_9" class="clusterblast-orf" id="dummy-1_q8_0_all"  />
<polygon points="377,35 382,30 383,30 383,40 382,40 377,35 " style="fill:#15d846; stroke-width:1; stroke:black; " description="&lt;b&gt;ctg28_10&lt;/b&gt;&lt;br&gt;ctg28 10&lt;br&gt;Location: 7581 - 8097" locus_tag="ctg28_10" class="clusterblast-orf" id="dummy-1_q9_0_all"  />
<polygon points="384,40 393,40 398,35 393,30 384,30 384,40 " style="fill:#1546d8; stroke-width:1; stroke:black; " description="&lt;b&gt;ctg28_11&lt;/b&gt;&lt;br&gt;ctg28 11&lt;br&gt;Location: 8163 - 9498" locus_tag="ctg28_11" class="clusterblast-orf" id="dummy-1_q10_0_all"  />
<polygon points="399,40 401,40 406,35 401,30 399,30 399,40 " style="fill:white; stroke-width:1; stroke:black; " description="&lt;b&gt;ctg28_12&lt;/b&gt;&lt;br&gt;ctg28 12&lt;br&gt;Location: 9580 - 10147" locus_tag="ctg28_12" class="clusterblast-orf" id="dummy-1_q11_0_all"  />
<polygon points="406,40 408,40 413,35 408,30 406,30 406,40 " style="fill:white; stroke-width:1; stroke:black; " description="&lt;b&gt;ctg28_13&lt;/b&gt;&lt;br&gt;ctg28 13&lt;br&gt;Location: 10182 - 10761" locus_tag="ctg28_13" class="clusterblast-orf" id="dummy-1_q12_0_all"  />
<polygon points="413,35 417,30 417,40 413,35 " style="fill:white; stroke-width:1; stroke:black; " description="&lt;b&gt;ctg28_14&lt;/b&gt;&lt;br&gt;ctg28 14&lt;br&gt;Location: 10764 - 11163" locus_tag="ctg28_14" class="clusterblast-orf" id="dummy-1_q13_0_all"  />
<polygon points="426,35 431,30 431,30 431,40 431,40 426,35 " style="fill:white; stroke-width:1; stroke:black; " description="&lt;b&gt;ctg28_15&lt;/b&gt;&lt;br&gt;ctg28 15&lt;br&gt;Location: 11945 - 12437" locus_tag="ctg28_15" class="clusterblast-orf" id="dummy-1_q14_0_all"  />
<polygon points="433,40 435,40 440,35 435,30 433,30 433,40 " style="fill:white; stroke-width:1; stroke:black; " description="&lt;b&gt;ctg28_16&lt;/b&gt;&lt;br&gt;ctg28 16&lt;br&gt;Location: 12553 - 13216" locus_tag="ctg28_16" class="clusterblast-orf" id="dummy-1_q15_0_all"  />
<polygon points="440,35 445,30 448,30 448,40 445,40 440,35 " style="fill:white; stroke-width:1; stroke:black; " description="&lt;b&gt;ctg28_17&lt;/b&gt;&lt;br&gt;ctg28 17&lt;br&gt;Location: 13216 - 13882" locus_tag="ctg28_17" class="clusterblast-orf" id="dummy-1_q16_0_all"  />
<polygon points="448,40 456,40 461,35 456,30 448,30 448,40 " style="fill:white; stroke-width:1; stroke:black; " description="&lt;b&gt;ctg28_18&lt;/b&gt;&lt;br&gt;ctg28 18&lt;br&gt;Location: 13938 - 15120" locus_tag="ctg28_18" class="clusterblast-orf" id="dummy-1_q17_0_all"  />
<polygon points="461,40 464,40 469,35 464,30 461,30 461,40 " style="fill:#d815a7; stroke-width:1; stroke:black; " description="&lt;b&gt;ctg28_19&lt;/b&gt;&lt;br&gt;ctg28 19&lt;br&gt;Location: 15107 - 15788" locus_tag="ctg28_19" class="clusterblast-orf" id="dummy-1_q18_0_all"  />
<polygon points="470,40 482,40 487,35 482,30 470,30 470,40 " style="fill:white; stroke-width:1; stroke:black; " description="&lt;b&gt;ctg28_20&lt;/b&gt;&lt;br&gt;ctg28 20&lt;br&gt;Location: 15866 - 17411" locus_tag="ctg28_20" class="clusterblast-orf" id="dummy-1_q19_0_all"  />
</g>
<g label="NZ_ASXH01000101" description="NZ_ASXH01000101_c13: Amycolatopsis orientalis DSM 46075 contig 8, whole genom... (16% of genes show similarity), nrps" class="clusterblast-cluster"  >
<text x="5" y="70" class="clusterblast-acc"  >
<a xlink:href="https://antismash-db.secondarymetabolites.org/go/NZ_ASXH01000101/13" target="_blank">NZ_ASXH01000101_c13</a>: Amycolatopsis orientalis DSM 46075 contig 8, whole genom... (16% of genes show similarity), nrps</text>
<line x1="10" y1="85" x2="778.0" y2="85" style="stroke-width:1; stroke:grey; "  />
</g>
<g id="a1_000"  >
<polygon points="0,90 1,90 6,85 1,80 0,80 0,90 " style="fill:white; stroke-width:1; stroke:black; " description="&lt;b&gt;L943_RS22080&lt;/b&gt;&lt;br&gt;hypothetical protein&lt;br&gt;Location: 70095 - 69511" locus_tag="L943_RS22080" class="clusterblast-orf" id="dummy-1_h1_4_0"  />
</g>
<g id="a1_001"  >
<polygon points="6,90 10,90 15,85 10,80 6,80 6,90 " style="fill:white; stroke-width:1; stroke:black; " description="&lt;b&gt;L943_RS22075&lt;/b&gt;&lt;br&gt;alpha/beta hydrolase&lt;br&gt;Location: 69544 - 68690" locus_tag="L943_RS22075" class="clusterblast-orf" id="dummy-1_h1_4_1"  />
</g>
<g id="a1_002"  >
<polygon points="15,85 20,80 28,80 28,90 20,90 15,85 " style="fill:white; stroke-width:1; stroke:black; " description="&lt;b&gt;L943_RS22070&lt;/b&gt;&lt;br&gt;alpha-hydroxy-acid oxidizing enzyme&lt;br&gt;Location: 68681 - 67509" locus_tag="L943_RS22070" class="clusterblast-orf" id="dummy-1_h1_4_2"  />
</g>
<g id="a1_003"  >
<polygon points="28,85 33,80 44,80 44,90 33,90 28,85 " style="fill:white; stroke-width:1; stroke:black; " description="&lt;b&gt;L943_RS22065&lt;/b&gt;&lt;br&gt;mycofactocin system glycosyltransferase&lt;br&gt;Location: 67512 - 66085" locus_tag="L943_RS22065" class="clusterblast-orf" id="dummy-1_h1_4_3"  />
</g>
<g id="a1_004"  >
<polygon points="44,85 49,80 53,80 53,90 49,90 44,85 " style="fill:white; stroke-width:1; stroke:black; " description="&lt;b&gt;L943_RS22060&lt;/b&gt;&lt;br&gt;SDR family NAD(P)-dependent oxidoreductase&lt;br&gt;Location: 66088 - 65300" locus_tag="L943_RS22060" class="clusterblast-orf" id="dummy-1_h1_4_4"  />
</g>
<g id="a1_005"  >
<polygon points="53,85 58,80 61,80 61,90 58,90 53,85 " style="fill:white; stroke-width:1; stroke:black; " description="&lt;b&gt;L943_RS22055&lt;/b&gt;&lt;br&gt;mycofactocin biosynthesis peptidyl-dipeptidase MftE&lt;br&gt;Location: 65303 - 64614" locus_tag="L943_RS22055" class="clusterblast-orf" id="dummy-1_h1_4_5"  />
</g>
<g id="a1_006"  >
<polygon points="61,85 66,80 74,80 74,90 66,90 61,85 " style="fill:white; stroke-width:1; stroke:black; " description="&lt;b&gt;L943_RS22050&lt;/b&gt;&lt;br&gt;mycofactocin radical SAM maturase&lt;br&gt;Location: 64612 - 63419" locus_tag="L943_RS22050" class="clusterblast-orf" id="dummy-1_h1_4_6"  />
</g>
<g id="a1_007"  >
<polygon points="74,85 77,80 77,90 74,85 " style="fill:white; stroke-width:1; stroke:black; " description="&lt;b&gt;L943_RS22045&lt;/b&gt;&lt;br&gt;mycofactocin biosynthesis chaperone MftB&lt;br&gt;Location: 63419 - 63126" locus_tag="L943_RS22045" class="clusterblast-orf" id="dummy-1_h1_4_7"  />
</g>
<g id="a1_008"  >
<polygon points="77,85 79,80 79,90 77,85 " style="fill:white; stroke-width:1; stroke:black; " description="&lt;b&gt;L943_RS22040&lt;/b&gt;&lt;br&gt;mycofactocin precursor&lt;br&gt;Location: 63136 - 63032" locus_tag="L943_RS22040" class="clusterblast-orf" id="dummy-1_h1_4_8"  />
</g>
<g id="a1_009"  >
<polygon points="81,90 88,90 93,85 88,80 81,80 81,90 " style="fill:white; stroke-width:1; stroke:black; " description="&lt;b&gt;L943_RS44865&lt;/b&gt;&lt;br&gt;peptidase&lt;br&gt;Location: 62840 - 61725" locus_tag="L943_RS44865" class="clusterblast-orf" id="dummy-1_h1_4_9"  />
</g>
<g id="a1_0010"  >
<polygon points="100,90 102,90 107,85 102,80 100,80 100,90 " style="fill:white; stroke-width:1; stroke:black; " description="&lt;b&gt;L943_RS22030&lt;/b&gt;&lt;br&gt;DUF5134 domain-containing protein&lt;br&gt;Location: 61125 - 60517" locus_tag="L943_RS22030" class="clusterblast-orf" id="dummy-1_h1_4_10"  />
</g>
<g id="a1_0011"  >
<polygon points="112,85 117,80 121,80 121,90 117,90 112,85 " style="fill:white; stroke-width:1; stroke:black; " description="&lt;b&gt;L943_RS22025&lt;/b&gt;&lt;br&gt;hypothetical protein&lt;br&gt;Location: 60007 - 59267" locus_tag="L943_RS22025" class="clusterblast-orf" id="dummy-1_h1_4_11"  />
</g>
<g id="a1_0012"  >
<polygon points="122,90 123,90 128,85 123,80 122,80 122,90 " style="fill:white; stroke-width:1; stroke:black; " description="&lt;b&gt;L943_RS22020&lt;/b&gt;&lt;br&gt;RNA polymerase subunit sigma&lt;br&gt;Location: 59166 - 58597" locus_tag="L943_RS22020" class="clusterblast-orf" id="dummy-1_h1_4_12"  />
</g>
<g id="a1_0013"  >
<polygon points="132,90 149,90 154,85 149,80 132,80 132,90 " style="fill:white; stroke-width:1; stroke:black; " description="&lt;b&gt;L943_RS22015&lt;/b&gt;&lt;br&gt;copper resistance protein CopD&lt;br&gt;Location: 58223 - 56286" locus_tag="L943_RS22015" class="clusterblast-orf" id="dummy-1_h1_4_13"  />
</g>
<g id="a1_0014"  >
<polygon points="156,85 158,80 158,90 156,85 " style="fill:white; stroke-width:1; stroke:black; " description="&lt;b&gt;L943_RS22010&lt;/b&gt;&lt;br&gt;hypothetical protein&lt;br&gt;Location: 56124 - 55891" locus_tag="L943_RS22010" class="clusterblast-orf" id="dummy-1_h1_4_14"  />
</g>
<g id="a1_0015"  >
<polygon points="161,90 181,90 186,85 181,80 161,80 161,90 " style="fill:white; stroke-width:1; stroke:black; " description="&lt;b&gt;L943_RS22005&lt;/b&gt;&lt;br&gt;Cu(2+)-exporting ATPase&lt;br&gt;Location: 55701 - 53467" locus_tag="L943_RS22005" class="clusterblast-orf" id="dummy-1_h1_4_15"  />
</g>
<g id="a1_0016"  >
<polygon points="187,90 188,85 187,80 187,90 " style="fill:white; stroke-width:1; stroke:black; " description="&lt;b&gt;L943_RS45570&lt;/b&gt;&lt;br&gt;2,3-dihydro-2,3-dihydroxybenzoate dehydrogenase&lt;br&gt;Location: 53377 - 53216" locus_tag="L943_RS45570" class="clusterblast-orf" id="dummy-1_h1_4_16"  />
</g>
<g id="a1_0017"  >
<polygon points="191,90 194,90 199,85 194,80 191,80 191,90 " style="fill:white; stroke-width:1; stroke:black; " description="&lt;b&gt;L943_RS22000&lt;/b&gt;&lt;br&gt;2,3-dihydro-2,3-dihydroxybenzoate dehydrogenase&lt;br&gt;Location: 52969 - 52226" locus_tag="L943_RS22000" class="clusterblast-orf" id="dummy-1_h1_4_17"  />
</g>
<g id="a1_0018"  >
<polygon points="201,90 204,85 201,80 201,90 " style="fill:white; stroke-width:1; stroke:black; " description="&lt;b&gt;L943_RS46405&lt;/b&gt;&lt;br&gt;isochorismate synthase&lt;br&gt;Location: 52072 - 51785" locus_tag="L943_RS46405" class="clusterblast-orf" id="dummy-1_h1_4_18"  />
</g>
<g id="a1_0019"  >
<polygon points="205,90 214,90 219,85 214,80 205,80 205,90 " style="fill:white; stroke-width:1; stroke:black; " description="&lt;b&gt;L943_RS44860&lt;/b&gt;&lt;br&gt;isochorismate synthase&lt;br&gt;Location: 51691 - 50507" locus_tag="L943_RS44860" class="clusterblast-orf" id="dummy-1_h1_4_19"  />
</g>
<g id="a1_0020"  >
<polygon points="219,90 232,90 237,85 232,80 219,80 219,90 " style="fill:white; stroke-width:1; stroke:black; " description="&lt;b&gt;L943_RS21990&lt;/b&gt;&lt;br&gt;2,3-dihydroxybenzoate-AMP ligase&lt;br&gt;Location: 50436 - 48835" locus_tag="L943_RS21990" class="clusterblast-orf" id="dummy-1_h1_4_20"  />
</g>
<g id="a1_0021"  >
<polygon points="237,90 240,90 245,85 240,80 237,80 237,90 " style="fill:white; stroke-width:1; stroke:black; " description="&lt;b&gt;L943_RS21985&lt;/b&gt;&lt;br&gt;2,3-dihydro-2,3-dihydroxybenzoate synthetase&lt;br&gt;Location: 48831 - 48169" locus_tag="L943_RS21985" class="clusterblast-orf" id="dummy-1_h1_4_21"  />
</g>
<g id="a1_0022"  >
<polygon points="245,90 247,85 245,80 245,90 " style="fill:white; stroke-width:1; stroke:black; " description="&lt;b&gt;L943_RS21980&lt;/b&gt;&lt;br&gt;acyl carrier protein&lt;br&gt;Location: 48172 - 47930" locus_tag="L943_RS21980" class="clusterblast-orf" id="dummy-1_h1_4_22"  />
</g>
<g id="a1_0023"  >
<polygon points="247,90 252,90 257,85 252,80 247,80 247,90 " style="fill:white; stroke-width:1; stroke:black; " description="&lt;b&gt;L943_RS21975&lt;/b&gt;&lt;br&gt;siderophore-interacting protein&lt;br&gt;Location: 47933 - 47079" locus_tag="L943_RS21975" class="clusterblast-orf" id="dummy-1_h1_4_23"  />
</g>
<g id="a1_0024"  >
<polygon points="258,90 264,90 269,85 264,80 258,80 258,90 " style="fill:white; stroke-width:1; stroke:black; " description="&lt;b&gt;L943_RS21970&lt;/b&gt;&lt;br&gt;ABC transporter substrate-binding protein&lt;br&gt;Location: 46985 - 45984" locus_tag="L943_RS21970" class="clusterblast-orf" id="dummy-1_h1_4_24"  />
</g>
<g id="a1_0025"  >
<polygon points="269,90 275,90 280,85 275,80 269,80 269,90 " style="fill:white; stroke-width:1; stroke:black; " description="&lt;b&gt;L943_RS21965&lt;/b&gt;&lt;br&gt;iron ABC transporter permease&lt;br&gt;Location: 45987 - 45004" locus_tag="L943_RS21965" class="clusterblast-orf" id="dummy-1_h1_4_25"  />
</g>
<g id="a1_0026"  >
<polygon points="280,90 287,90 292,85 287,80 280,80 280,90 " style="fill:white; stroke-width:1; stroke:black; " description="&lt;b&gt;L943_RS21960&lt;/b&gt;&lt;br&gt;iron ABC transporter permease&lt;br&gt;Location: 45007 - 43985" locus_tag="L943_RS21960" class="clusterblast-orf" id="dummy-1_h1_4_26"  />
</g>
<g id="a1_0027"  >
<polygon points="292,90 295,90 300,85 295,80 292,80 292,90 " style="fill:white; stroke-width:1; stroke:black; " description="&lt;b&gt;L943_RS21955&lt;/b&gt;&lt;br&gt;ABC transporter ATP-binding protein&lt;br&gt;Location: 43988 - 43212" locus_tag="L943_RS21955" class="clusterblast-orf" id="dummy-1_h1_4_27"  />
</g>
<g id="a1_0028"  >
<polygon points="300,90 405,90 410,85 405,80 300,80 300,90 " style="fill:white; stroke-width:1; stroke:black; " description="&lt;b&gt;L943_RS21950&lt;/b&gt;&lt;br&gt;non-ribosomal peptide synthetase&lt;br&gt;Location: 43195 - 33362" locus_tag="L943_RS21950" class="clusterblast-orf" id="dummy-1_h1_4_28"  />
</g>
<g id="a1_0029"  >
<polygon points="411,90 421,90 426,85 421,80 411,80 411,90 " style="fill:white; stroke-width:1; stroke:black; " description="&lt;b&gt;L943_RS21945&lt;/b&gt;&lt;br&gt;MFS transporter&lt;br&gt;Location: 33320 - 32010" locus_tag="L943_RS21945" class="clusterblast-orf" id="dummy-1_h1_4_29"  />
</g>
<g id="a1_0030"  >
<polygon points="426,90 432,90 437,85 432,80 426,80 426,90 " style="fill:white; stroke-width:1; stroke:black; " description="&lt;b&gt;L943_RS21940&lt;/b&gt;&lt;br&gt;3-deoxy-7-phosphoheptulonate synthase&lt;br&gt;Location: 32009 - 31008" locus_tag="L943_RS21940" class="clusterblast-orf" id="dummy-1_h1_4_30"  />
</g>
<g id="a1_0031"  >
<polygon points="438,85 443,80 448,80 448,90 443,90 438,85 " style="fill:white; stroke-width:1; stroke:black; " description="&lt;b&gt;L943_RS21935&lt;/b&gt;&lt;br&gt;helix-turn-helix transcriptional regulator&lt;br&gt;Location: 30891 - 30052" locus_tag="L943_RS21935" class="clusterblast-orf" id="dummy-1_h1_4_31"  />
</g>
<g id="a1_0032"  >
<polygon points="450,90 463,90 468,85 463,80 450,80 450,90 " style="fill:white; stroke-width:1; stroke:black; " description="&lt;b&gt;L943_RS21930&lt;/b&gt;&lt;br&gt;AMP-dependent synthetase&lt;br&gt;Location: 29846 - 28218" locus_tag="L943_RS21930" class="clusterblast-orf" id="dummy-1_h1_4_32"  />
</g>
<g id="a1_0033"  >
<polygon points="468,90 473,90 478,85 473,80 468,80 468,90 " style="fill:white; stroke-width:1; stroke:black; " description="&lt;b&gt;L943_RS21925&lt;/b&gt;&lt;br&gt;short-chain dehydrogenase&lt;br&gt;Location: 28186 - 27299" locus_tag="L943_RS21925" class="clusterblast-orf" id="dummy-1_h1_4_33"  />
</g>
<g id="a1_0034"  >
<polygon points="479,85 484,80 490,80 490,90 484,90 479,85 " style="fill:#d81515; stroke-width:1; stroke:black; " description="&lt;b&gt;L943_RS21920&lt;/b&gt;&lt;br&gt;2-nitropropane dioxygenase&lt;br&gt;Location: 27256 - 26291&lt;br&gt;&lt;br&gt;&lt;b&gt;BlastP hit with ctg28_4&lt;/b&gt;&lt;br&gt;Percentage identity: 70&lt;br&gt;Percentage coverage: 99&lt;br&gt;BLAST bit score: 405&lt;br&gt;E-value: 6e-111" locus_tag="L943_RS21920" class="clusterblast-orf" id="dummy-1_h1_4_34"  />
</g>
<g id="a1_0035"  >
<polygon points="490,85 495,80 507,80 507,90 495,90 490,85 " style="fill:#77d815; stroke-width:1; stroke:black; " description="&lt;b&gt;L943_RS21915&lt;/b&gt;&lt;br&gt;fatty-acid--CoA ligase&lt;br&gt;Location: 26294 - 24723&lt;br&gt;&lt;br&gt;&lt;b&gt;BlastP hit with ctg28_5&lt;/b&gt;&lt;br&gt;Percentage identity: 64&lt;br&gt;Percentage coverage: 99&lt;br&gt;BLAST bit score: 664&lt;br&gt;E-value: 9.3e-189" locus_tag="L943_RS21915" class="clusterblast-orf" id="dummy-1_h1_4_35"  />
</g>
<g id="a1_0036"  >
<polygon points="507,85 512,80 515,80 515,90 512,90 507,85 " style="fill:#15d8d8; stroke-width:1; stroke:black; " description="&lt;b&gt;L943_RS21910&lt;/b&gt;&lt;br&gt;enoyl-CoA hydratase/isomerase family protein&lt;br&gt;Location: 24726 - 23986&lt;br&gt;&lt;br&gt;&lt;b&gt;BlastP hit with ctg28_6&lt;/b&gt;&lt;br&gt;Percentage identity: 65&lt;br&gt;Percentage coverage: 98&lt;br&gt;BLAST bit score: 289&lt;br&gt;E-value: 3.8e-76&lt;br&gt;&lt;br&gt;&lt;b&gt;BlastP hit with ctg28_8&lt;/b&gt;&lt;br&gt;Percentage identity: 39&lt;br&gt;Percentage coverage: 85&lt;br&gt;BLAST bit score: 95&lt;br&gt;E-value: 7.9e-18" locus_tag="L943_RS21910" class="clusterblast-orf" id="dummy-1_h1_4_36"  />
</g>
<g id="a1_0037"  >
<polygon points="515,85 520,80 529,80 529,90 520,90 515,85 " style="fill:#7715d8; stroke-width:1; stroke:black; " description="&lt;b&gt;L943_RS21905&lt;/b&gt;&lt;br&gt;CoA transferase&lt;br&gt;Location: 23986 - 22796&lt;br&gt;&lt;br&gt;&lt;b&gt;BlastP hit with ctg28_7&lt;/b&gt;&lt;br&gt;Percentage identity: 68&lt;br&gt;Percentage coverage: 100&lt;br&gt;BLAST bit score: 540&lt;br&gt;E-value: 2e-151" locus_tag="L943_RS21905" class="clusterblast-orf" id="dummy-1_h1_4_37"  />
</g>
<g id="a1_0038"  >
<polygon points="529,85 534,80 537,80 537,90 534,90 529,85 " style="fill:#15d8d8; stroke-width:1; stroke:black; " description="&lt;b&gt;L943_RS21900&lt;/b&gt;&lt;br&gt;enoyl-CoA hydratase/isomerase family protein&lt;br&gt;Location: 22799 - 22059&lt;br&gt;&lt;br&gt;&lt;b&gt;BlastP hit with ctg28_6&lt;/b&gt;&lt;br&gt;Percentage identity: 35&lt;br&gt;Percentage coverage: 90&lt;br&gt;BLAST bit score: 100&lt;br&gt;E-value: 3.3e-19&lt;br&gt;&lt;br&gt;&lt;b&gt;BlastP hit with ctg28_8&lt;/b&gt;&lt;br&gt;Percentage identity: 66&lt;br&gt;Percentage coverage: 97&lt;br&gt;BLAST bit score: 303&lt;br&gt;E-value: 1.9e-80" locus_tag="L943_RS21900" class="clusterblast-orf" id="dummy-1_h1_4_38"  />
</g>
<g id="a1_0039"  >
<polygon points="537,85 542,80 547,80 547,90 542,90 537,85 " style="fill:#d8a715; stroke-width:1; stroke:black; " description="&lt;b&gt;L943_RS21895&lt;/b&gt;&lt;br&gt;hydroxymethylglutaryl-CoA lyase&lt;br&gt;Location: 22062 - 21142&lt;br&gt;&lt;br&gt;&lt;b&gt;BlastP hit with ctg28_9&lt;/b&gt;&lt;br&gt;Percentage identity: 74&lt;br&gt;Percentage coverage: 98&lt;br&gt;BLAST bit score: 453&lt;br&gt;E-value: 2.5e-125" locus_tag="L943_RS21895" class="clusterblast-orf" id="dummy-1_h1_4_39"  />
</g>
<g id="a1_0040"  >
<polygon points="548,85 553,80 553,80 553,90 553,90 548,85 " style="fill:#15d846; stroke-width:1; stroke:black; " description="&lt;b&gt;L943_RS21890&lt;/b&gt;&lt;br&gt;MarR family transcriptional regulator&lt;br&gt;Location: 21080 - 20595&lt;br&gt;&lt;br&gt;&lt;b&gt;BlastP hit with ctg28_10&lt;/b&gt;&lt;br&gt;Percentage identity: 62&lt;br&gt;Percentage coverage: 85&lt;br&gt;BLAST bit score: 165&lt;br&gt;E-value: 7.4e-39" locus_tag="L943_RS21890" class="clusterblast-orf" id="dummy-1_h1_4_40"  />
</g>
<g id="a1_0041"  >
<polygon points="554,90 564,90 569,85 564,80 554,80 554,90 " style="fill:#1546d8; stroke-width:1; stroke:black; " description="&lt;b&gt;L943_RS21885&lt;/b&gt;&lt;br&gt;MFS transporter&lt;br&gt;Location: 20497 - 19160&lt;br&gt;&lt;br&gt;&lt;b&gt;BlastP hit with ctg28_11&lt;/b&gt;&lt;br&gt;Percentage identity: 61&lt;br&gt;Percentage coverage: 99&lt;br&gt;BLAST bit score: 512&lt;br&gt;E-value: 4.9e-143" locus_tag="L943_RS21885" class="clusterblast-orf" id="dummy-1_h1_4_41"  />
</g>
<g id="a1_0042"  >
<polygon points="572,90 583,90 588,85 583,80 572,80 572,90 " style="fill:white; stroke-width:1; stroke:black; " description="&lt;b&gt;L943_RS21880&lt;/b&gt;&lt;br&gt;LytR family transcriptional regulator&lt;br&gt;Location: 18926 - 17493" locus_tag="L943_RS21880" class="clusterblast-orf" id="dummy-1_h1_4_42"  />
</g>
<g id="a1_0043"  >
<polygon points="591,90 630,90 635,85 630,80 591,80 591,90 " style="fill:white; stroke-width:1; stroke:black; " description="&lt;b&gt;L943_RS21875&lt;/b&gt;&lt;br&gt;amino acid adenylation protein&lt;br&gt;Location: 17254 - 13337" locus_tag="L943_RS21875" class="clusterblast-orf" id="dummy-1_h1_4_43"  />
</g>
<g id="a1_0044"  >
<polygon points="635,85 640,80 649,80 649,90 640,90 635,85 " style="fill:#7715d8; stroke-width:1; stroke:black; " description="&lt;b&gt;L943_RS21870&lt;/b&gt;&lt;br&gt;CoA transferase&lt;br&gt;Location: 13283 - 12045&lt;br&gt;&lt;br&gt;&lt;b&gt;BlastP hit with ctg28_7&lt;/b&gt;&lt;br&gt;Percentage identity: 40&lt;br&gt;Percentage coverage: 98&lt;br&gt;BLAST bit score: 245&lt;br&gt;E-value: 1e-62" locus_tag="L943_RS21870" class="clusterblast-orf" id="dummy-1_h1_4_44"  />
</g>
<g id="a1_0045"  >
<polygon points="649,85 654,80 662,80 662,90 654,90 649,85 " style="fill:white; stroke-width:1; stroke:black; " description="&lt;b&gt;L943_RS21865&lt;/b&gt;&lt;br&gt;acyl-CoA dehydrogenase&lt;br&gt;Location: 12045 - 10879" locus_tag="L943_RS21865" class="clusterblast-orf" id="dummy-1_h1_4_45"  />
</g>
<g id="a1_0046"  >
<polygon points="664,90 667,90 672,85 667,80 664,80 664,90 " style="fill:white; stroke-width:1; stroke:black; " description="&lt;b&gt;L943_RS21860&lt;/b&gt;&lt;br&gt;IclR family transcriptional regulator&lt;br&gt;Location: 10736 - 9996" locus_tag="L943_RS21860" class="clusterblast-orf" id="dummy-1_h1_4_46"  />
</g>
<g id="a1_0047"  >
<polygon points="674,90 684,90 689,85 684,80 674,80 674,90 " style="fill:white; stroke-width:1; stroke:black; " description="&lt;b&gt;L943_RS21855&lt;/b&gt;&lt;br&gt;MFS transporter&lt;br&gt;Location: 9805 - 8489" locus_tag="L943_RS21855" class="clusterblast-orf" id="dummy-1_h1_4_47"  />
</g>
<g id="a1_0048"  >
<polygon points="689,85 694,80 702,80 702,90 694,90 689,85 " style="fill:white; stroke-width:1; stroke:black; " description="&lt;b&gt;L943_RS21850&lt;/b&gt;&lt;br&gt;polysaccharide pyruvyl transferase family protein&lt;br&gt;Location: 8496 - 7324" locus_tag="L943_RS21850" class="clusterblast-orf" id="dummy-1_h1_4_48"  />
</g>
<g id="a1_0049"  >
<polygon points="702,85 707,80 708,80 708,90 707,90 702,85 " style="fill:white; stroke-width:1; stroke:black; " description="&lt;b&gt;L943_RS21845&lt;/b&gt;&lt;br&gt;hypothetical protein&lt;br&gt;Location: 7327 - 6758" locus_tag="L943_RS21845" class="clusterblast-orf" id="dummy-1_h1_4_49"  />
</g>
<g id="a1_0050"  >
<polygon points="713,90 715,90 720,85 715,80 713,80 713,90 " style="fill:white; stroke-width:1; stroke:black; " description="&lt;b&gt;L943_RS21840&lt;/b&gt;&lt;br&gt;DUF998 domain-containing protein&lt;br&gt;Location: 6362 - 5730" locus_tag="L943_RS21840" class="clusterblast-orf" id="dummy-1_h1_4_50"  />
</g>
<g id="a1_0051"  >
<polygon points="720,90 737,90 742,85 737,80 720,80 720,90 " style="fill:white; stroke-width:1; stroke:black; " description="&lt;b&gt;L943_RS21835&lt;/b&gt;&lt;br&gt;glycosyltransferase family 4 protein&lt;br&gt;Location: 5733 - 3718" locus_tag="L943_RS21835" class="clusterblast-orf" id="dummy-1_h1_4_51"  />
</g>
<g id="a1_0052"  >
<polygon points="743,85 748,80 780,80 780,90 748,90 743,85 " style="fill:white; stroke-width:1; stroke:black; " description="&lt;b&gt;L943_RS21830&lt;/b&gt;&lt;br&gt;alpha-mannosidase&lt;br&gt;Location: 3645 - 379" locus_tag="L943_RS21830" class="clusterblast-orf" id="dummy-1_h1_4_52"  />
</g>
</svg>
