<svg xmlns="http://www.w3.org/2000/svg" xmlns:xlink="http://www.w3.org/1999/xlink" version="1.1" x="0" y="0" height="230" width="800" viewBox="0 0 800 230" preserveAspectRatio="none"  >
<g label="Query sequence" class="clusterblast-cluster"  >
<text x="5" y="20" class="clusterblast-acc"  >
Query sequence</text>
<line x1="10" y1="35" x2="778.0" y2="35" style="stroke-width:1; stroke:grey; "  />
<polygon points="49,40 100,40 105,35 100,30 49,30 49,40 " style="fill:#d81515; stroke-width:1; stroke:black; " description="&lt;b&gt;ctg33_16&lt;/b&gt;&lt;br&gt;ctg33 16&lt;br&gt;Location: 17109 - 17847" locus_tag="ctg33_16" class="clusterblast-orf" id="dummy-1_q0_0_all"  />
<polygon points="110,40 221,40 226,35 221,30 110,30 110,40 " style="fill:#3cd815; stroke-width:1; stroke:black; " description="&lt;b&gt;ctg33_17&lt;/b&gt;&lt;br&gt;ctg33 17&lt;br&gt;Location: 17914 - 19423" locus_tag="ctg33_17" class="clusterblast-orf" id="dummy-1_q1_0_all"  />
<polygon points="227,40 245,40 250,35 245,30 227,30 227,40 " style="fill:#1563d8; stroke-width:1; stroke:black; " description="&lt;b&gt;ctg33_18&lt;/b&gt;&lt;br&gt;ctg33 18&lt;br&gt;Location: 19438 - 19741" locus_tag="ctg33_18" class="clusterblast-orf" id="dummy-1_q2_0_all"  />
<polygon points="251,40 279,40 284,35 279,30 251,30 251,40 " style="fill:#b115d8; stroke-width:1; stroke:black; " description="&lt;b&gt;ctg33_19&lt;/b&gt;&lt;br&gt;ctg33 19&lt;br&gt;Location: 19751 - 20186" locus_tag="ctg33_19" class="clusterblast-orf" id="dummy-1_q3_0_all"  />
<polygon points="290,40 356,40 361,35 356,30 290,30 290,40 " style="fill:#d88a15; stroke-width:1; stroke:black; " description="&lt;b&gt;ctg33_20&lt;/b&gt;&lt;br&gt;ctg33 20&lt;br&gt;Location: 20267 - 21203" locus_tag="ctg33_20" class="clusterblast-orf" id="dummy-1_q4_0_all"  />
<polygon points="358,40 416,40 421,35 416,30 358,30 358,40 " style="fill:#15d863; stroke-width:1; stroke:black; " description="&lt;b&gt;ctg33_21&lt;/b&gt;&lt;br&gt;ctg33 21&lt;br&gt;Location: 21162 - 21984" locus_tag="ctg33_21" class="clusterblast-orf" id="dummy-1_q5_0_all"  />
<polygon points="421,40 441,40 446,35 441,30 421,30 421,40 " style="fill:#3c15d8; stroke-width:1; stroke:black; " description="&lt;b&gt;ctg33_22&lt;/b&gt;&lt;br&gt;ctg33 22&lt;br&gt;Location: 21980 - 22319" locus_tag="ctg33_22" class="clusterblast-orf" id="dummy-1_q6_0_all"  />
<polygon points="471,35 476,30 572,30 572,40 476,40 471,35 " style="fill:#d8158a; stroke-width:1; stroke:black; " description="&lt;b&gt;ctg33_23&lt;/b&gt;&lt;br&gt;ctg33 23&lt;br&gt;Location: 22642 - 23962" locus_tag="ctg33_23" class="clusterblast-orf" id="dummy-1_q7_0_all"  />
<polygon points="572,35 577,30 625,30 625,40 577,40 572,35 " style="fill:#b1d815; stroke-width:1; stroke:black; " description="&lt;b&gt;ctg33_24&lt;/b&gt;&lt;br&gt;ctg33 24&lt;br&gt;Location: 23962 - 24655" locus_tag="ctg33_24" class="clusterblast-orf" id="dummy-1_q8_0_all"  />
<polygon points="627,35 632,30 732,30 732,40 632,40 627,35 " style="fill:#15d8d8; stroke-width:1; stroke:black; " description="&lt;b&gt;ctg33_25&lt;/b&gt;&lt;br&gt;ctg33 25&lt;br&gt;Location: 24688 - 26056" locus_tag="ctg33_25" class="clusterblast-orf" id="dummy-1_q9_0_all"  />
</g>
<g label="NZ_CP016174" description="NZ_CP016174_c12: Amycolatopsis orientalis strain B-37, complete genome (81% of genes show similarity), bacteriocin" class="clusterblast-cluster"  >
<text x="5" y="70" class="clusterblast-acc"  >
<a xlink:href="https://antismash-db.secondarymetabolites.org/go/NZ_CP016174/12" target="_blank">NZ_CP016174_c12</a>: Amycolatopsis orientalis strain B-37, complete genome (81% of genes show similarity), bacteriocin</text>
<line x1="10" y1="85" x2="778.0" y2="85" style="stroke-width:1; stroke:grey; "  />
</g>
<g id="a1_000"  >
<polygon points="0,90 125,90 130,85 125,80 0,80 0,90 " style="fill:#3cd815; stroke-width:1; stroke:black; " description="&lt;b&gt;SD37_RS14295&lt;/b&gt;&lt;br&gt;serine/threonine protein kinase&lt;br&gt;Location: 3194015 - 3192309&lt;br&gt;&lt;br&gt;&lt;b&gt;BlastP hit with ctg33_17&lt;/b&gt;&lt;br&gt;Percentage identity: 65&lt;br&gt;Percentage coverage: 107&lt;br&gt;BLAST bit score: 443&lt;br&gt;E-value: 2.4e-122" locus_tag="SD37_RS14295" class="clusterblast-orf" id="dummy-1_h1_7_0"  />
</g>
<g id="a1_001"  >
<polygon points="135,90 154,90 159,85 154,80 135,80 135,90 " style="fill:#1563d8; stroke-width:1; stroke:black; " description="&lt;b&gt;SD37_RS14290&lt;/b&gt;&lt;br&gt;hypothetical protein&lt;br&gt;Location: 3192235 - 3191930&lt;br&gt;&lt;br&gt;&lt;b&gt;BlastP hit with ctg33_18&lt;/b&gt;&lt;br&gt;Percentage identity: 64&lt;br&gt;Percentage coverage: 89&lt;br&gt;BLAST bit score: 127&lt;br&gt;E-value: 1e-27" locus_tag="SD37_RS14290" class="clusterblast-orf" id="dummy-1_h1_7_1"  />
</g>
<g id="a1_002"  >
<polygon points="160,90 187,90 192,85 187,80 160,80 160,90 " style="fill:#b115d8; stroke-width:1; stroke:black; " description="&lt;b&gt;SD37_RS14285&lt;/b&gt;&lt;br&gt;peptide-methionine (R)-S-oxide reductase&lt;br&gt;Location: 3191910 - 3191488&lt;br&gt;&lt;br&gt;&lt;b&gt;BlastP hit with ctg33_19&lt;/b&gt;&lt;br&gt;Percentage identity: 86&lt;br&gt;Percentage coverage: 96&lt;br&gt;BLAST bit score: 262&lt;br&gt;E-value: 2.9e-68" locus_tag="SD37_RS14285" class="clusterblast-orf" id="dummy-1_h1_7_2"  />
</g>
<g id="a1_003"  >
<polygon points="198,90 257,90 262,85 257,80 198,80 198,90 " style="fill:white; stroke-width:1; stroke:black; " description="&lt;b&gt;SD37_RS14280&lt;/b&gt;&lt;br&gt;TIGR04222 domain-containing membrane protein&lt;br&gt;Location: 3191412 - 3190570" locus_tag="SD37_RS14280" class="clusterblast-orf" id="dummy-1_h1_7_3"  />
</g>
<g id="a1_004"  >
<polygon points="271,90 338,90 343,85 338,80 271,80 271,90 " style="fill:#d88a15; stroke-width:1; stroke:black; " description="&lt;b&gt;SD37_RS14275&lt;/b&gt;&lt;br&gt;TIGR04222 domain-containing membrane protein&lt;br&gt;Location: 3190456 - 3189512&lt;br&gt;&lt;br&gt;&lt;b&gt;BlastP hit with ctg33_20&lt;/b&gt;&lt;br&gt;Percentage identity: 33&lt;br&gt;Percentage coverage: 69&lt;br&gt;BLAST bit score: 77&lt;br&gt;E-value: 2.8e-12" locus_tag="SD37_RS14275" class="clusterblast-orf" id="dummy-1_h1_7_4"  />
</g>
<g id="a1_005"  >
<polygon points="340,90 399,90 404,85 399,80 340,80 340,90 " style="fill:#15d863; stroke-width:1; stroke:black; " description="&lt;b&gt;SD37_RS14270&lt;/b&gt;&lt;br&gt;DUF692 domain-containing protein&lt;br&gt;Location: 3189555 - 3188707&lt;br&gt;&lt;br&gt;&lt;b&gt;BlastP hit with ctg33_21&lt;/b&gt;&lt;br&gt;Percentage identity: 77&lt;br&gt;Percentage coverage: 99&lt;br&gt;BLAST bit score: 418&lt;br&gt;E-value: 7.7e-115" locus_tag="SD37_RS14270" class="clusterblast-orf" id="dummy-1_h1_7_5"  />
</g>
<g id="a1_006"  >
<polygon points="404,90 425,90 430,85 425,80 404,80 404,90 " style="fill:#3c15d8; stroke-width:1; stroke:black; " description="&lt;b&gt;SD37_RS14265&lt;/b&gt;&lt;br&gt;hypothetical protein&lt;br&gt;Location: 3188710 - 3188366&lt;br&gt;&lt;br&gt;&lt;b&gt;BlastP hit with ctg33_22&lt;/b&gt;&lt;br&gt;Percentage identity: 55&lt;br&gt;Percentage coverage: 89&lt;br&gt;BLAST bit score: 101&lt;br&gt;E-value: 6.6e-20" locus_tag="SD37_RS14265" class="clusterblast-orf" id="dummy-1_h1_7_6"  />
</g>
<g id="a1_007"  >
<polygon points="434,85 439,80 537,80 537,90 439,90 434,85 " style="fill:#d8158a; stroke-width:1; stroke:black; " description="&lt;b&gt;SD37_RS14260&lt;/b&gt;&lt;br&gt;carnitine dehydratase&lt;br&gt;Location: 3188315 - 3186969&lt;br&gt;&lt;br&gt;&lt;b&gt;BlastP hit with ctg33_23&lt;/b&gt;&lt;br&gt;Percentage identity: 54&lt;br&gt;Percentage coverage: 101&lt;br&gt;BLAST bit score: 432&lt;br&gt;E-value: 4.9e-119" locus_tag="SD37_RS14260" class="clusterblast-orf" id="dummy-1_h1_7_7"  />
</g>
<g id="a1_008"  >
<polygon points="538,85 543,80 591,80 591,90 543,90 538,85 " style="fill:#b1d815; stroke-width:1; stroke:black; " description="&lt;b&gt;SD37_RS14255&lt;/b&gt;&lt;br&gt;hypothetical protein&lt;br&gt;Location: 3186957 - 3186265&lt;br&gt;&lt;br&gt;&lt;b&gt;BlastP hit with ctg33_24&lt;/b&gt;&lt;br&gt;Percentage identity: 85&lt;br&gt;Percentage coverage: 100&lt;br&gt;BLAST bit score: 420&lt;br&gt;E-value: 1.3e-115" locus_tag="SD37_RS14255" class="clusterblast-orf" id="dummy-1_h1_7_8"  />
</g>
<g id="a1_009"  >
<polygon points="593,85 598,80 698,80 698,90 598,90 593,85 " style="fill:#15d8d8; stroke-width:1; stroke:black; " description="&lt;b&gt;SD37_RS14250&lt;/b&gt;&lt;br&gt;protoporphyrinogen oxidase&lt;br&gt;Location: 3186239 - 3184860&lt;br&gt;&lt;br&gt;&lt;b&gt;BlastP hit with ctg33_25&lt;/b&gt;&lt;br&gt;Percentage identity: 62&lt;br&gt;Percentage coverage: 99&lt;br&gt;BLAST bit score: 495&lt;br&gt;E-value: 6.4e-138" locus_tag="SD37_RS14250" class="clusterblast-orf" id="dummy-1_h1_7_9"  />
</g>
<g id="a1_0010"  >
<polygon points="698,85 703,80 780,80 780,90 703,90 698,85 " style="fill:white; stroke-width:1; stroke:black; " description="&lt;b&gt;SD37_RS14245&lt;/b&gt;&lt;br&gt;uroporphyrinogen decarboxylase&lt;br&gt;Location: 3184863 - 3183790" locus_tag="SD37_RS14245" class="clusterblast-orf" id="dummy-1_h1_7_10"  />
</g>
</svg>
