<svg xmlns="http://www.w3.org/2000/svg" xmlns:xlink="http://www.w3.org/1999/xlink" version="1.1" x="0" y="0" height="230" width="800" viewBox="0 0 800 230" preserveAspectRatio="none"  >
<g label="Query sequence" class="clusterblast-cluster"  >
<text x="5" y="20" class="clusterblast-acc"  >
Query sequence</text>
<line x1="10" y1="35" x2="778.0" y2="35" style="stroke-width:1; stroke:grey; "  />
<polygon points="112,35 117,30 120,30 120,40 117,40 112,35 " style="fill:white; stroke-width:1; stroke:black; " description="&lt;b&gt;ctg71_10&lt;/b&gt;&lt;br&gt;ctg71 10&lt;br&gt;Location: 9779 - 10166" locus_tag="ctg71_10" class="clusterblast-orf" id="dummy-1_q0_0_all"  />
<polygon points="123,40 123,40 128,35 123,30 123,30 123,40 " style="fill:white; stroke-width:1; stroke:black; " description="&lt;b&gt;ctg71_11&lt;/b&gt;&lt;br&gt;ctg71 11&lt;br&gt;Location: 10355 - 10583" locus_tag="ctg71_11" class="clusterblast-orf" id="dummy-1_q1_0_all"  />
<polygon points="130,35 135,30 148,30 148,40 135,40 130,35 " style="fill:#d81515; stroke-width:1; stroke:black; " description="&lt;b&gt;ctg71_12&lt;/b&gt;&lt;br&gt;ctg71 12&lt;br&gt;Location: 10705 - 11614" locus_tag="ctg71_12" class="clusterblast-orf" id="dummy-1_q2_0_all"  />
<polygon points="149,40 160,40 165,35 160,30 149,30 149,40 " style="fill:#77d815; stroke-width:1; stroke:black; " description="&lt;b&gt;ctg71_13&lt;/b&gt;&lt;br&gt;ctg71 13&lt;br&gt;Location: 11698 - 12526" locus_tag="ctg71_13" class="clusterblast-orf" id="dummy-1_q3_0_all"  />
<polygon points="165,35 170,30 189,30 189,40 170,40 165,35 " style="fill:#15d8d8; stroke-width:1; stroke:black; " description="&lt;b&gt;ctg71_14&lt;/b&gt;&lt;br&gt;ctg71 14&lt;br&gt;Location: 12518 - 13805" locus_tag="ctg71_14" class="clusterblast-orf" id="dummy-1_q4_0_all"  />
<polygon points="190,40 219,40 224,35 219,30 190,30 190,40 " style="fill:#7715d8; stroke-width:1; stroke:black; " description="&lt;b&gt;ctg71_15&lt;/b&gt;&lt;br&gt;ctg71 15&lt;br&gt;Location: 13851 - 15603" locus_tag="ctg71_15" class="clusterblast-orf" id="dummy-1_q5_0_all"  />
<polygon points="224,40 231,40 236,35 231,30 224,30 224,40 " style="fill:#d84615; stroke-width:1; stroke:black; " description="&lt;b&gt;ctg71_16&lt;/b&gt;&lt;br&gt;ctg71 16&lt;br&gt;Location: 15599 - 16226" locus_tag="ctg71_16" class="clusterblast-orf" id="dummy-1_q6_0_all"  />
<polygon points="236,40 249,40 254,35 249,30 236,30 236,40 " style="fill:#46d815; stroke-width:1; stroke:black; " description="&lt;b&gt;ctg71_17&lt;/b&gt;&lt;br&gt;ctg71 17&lt;br&gt;Location: 16248 - 17175" locus_tag="ctg71_17" class="clusterblast-orf" id="dummy-1_q7_0_all"  />
<polygon points="255,40 269,40 274,35 269,30 255,30 255,40 " style="fill:#15a7d8; stroke-width:1; stroke:black; " description="&lt;b&gt;ctg71_18&lt;/b&gt;&lt;br&gt;ctg71 18&lt;br&gt;Location: 17261 - 18236" locus_tag="ctg71_18" class="clusterblast-orf" id="dummy-1_q8_0_all"  />
<polygon points="274,40 277,40 282,35 277,30 274,30 274,40 " style="fill:#a715d8; stroke-width:1; stroke:black; " description="&lt;b&gt;ctg71_19&lt;/b&gt;&lt;br&gt;ctg71 19&lt;br&gt;Location: 18232 - 18658" locus_tag="ctg71_19" class="clusterblast-orf" id="dummy-1_q9_0_all"  />
<polygon points="282,40 293,40 298,35 293,30 282,30 282,40 " style="fill:#d87715; stroke-width:1; stroke:black; " description="&lt;b&gt;ctg71_20&lt;/b&gt;&lt;br&gt;ctg71 20&lt;br&gt;Location: 18654 - 19512" locus_tag="ctg71_20" class="clusterblast-orf" id="dummy-1_q10_0_all"  />
<polygon points="298,40 314,40 319,35 314,30 298,30 298,40 " style="fill:#15d815; stroke-width:1; stroke:black; " description="&lt;b&gt;ctg71_21&lt;/b&gt;&lt;br&gt;ctg71 21&lt;br&gt;Location: 19508 - 20609" locus_tag="ctg71_21" class="clusterblast-orf" id="dummy-1_q11_0_all"  />
<polygon points="319,40 328,40 333,35 328,30 319,30 319,40 " style="fill:#1577d8; stroke-width:1; stroke:black; " description="&lt;b&gt;ctg71_22&lt;/b&gt;&lt;br&gt;ctg71 22&lt;br&gt;Location: 20598 - 21342" locus_tag="ctg71_22" class="clusterblast-orf" id="dummy-1_q12_0_all"  />
<polygon points="334,40 365,40 370,35 365,30 334,30 334,40 " style="fill:#d815d8; stroke-width:1; stroke:black; " description="&lt;b&gt;ctg71_23&lt;/b&gt;&lt;br&gt;ctg71 23&lt;br&gt;Location: 21401 - 23243" locus_tag="ctg71_23" class="clusterblast-orf" id="dummy-1_q13_0_all"  />
<polygon points="370,40 371,40 376,35 371,30 370,30 370,40 " style="fill:#d8a715; stroke-width:1; stroke:black; " description="&lt;b&gt;ctg71_24&lt;/b&gt;&lt;br&gt;ctg71 24&lt;br&gt;Location: 23242 - 23599" locus_tag="ctg71_24" class="clusterblast-orf" id="dummy-1_q14_0_all"  />
<polygon points="387,35 392,30 410,30 410,40 392,40 387,35 " style="fill:#15d846; stroke-width:1; stroke:black; " description="&lt;b&gt;ctg71_25&lt;/b&gt;&lt;br&gt;ctg71 25&lt;br&gt;Location: 24141 - 25341" locus_tag="ctg71_25" class="clusterblast-orf" id="dummy-1_q15_0_all"  />
<polygon points="410,35 415,30 419,30 419,40 415,40 410,35 " style="fill:#1546d8; stroke-width:1; stroke:black; " description="&lt;b&gt;ctg71_26&lt;/b&gt;&lt;br&gt;ctg71 26&lt;br&gt;Location: 25345 - 25837" locus_tag="ctg71_26" class="clusterblast-orf" id="dummy-1_q16_0_all"  />
<polygon points="421,40 430,40 435,35 430,30 421,30 421,40 " style="fill:#d815a7; stroke-width:1; stroke:black; " description="&lt;b&gt;ctg71_27&lt;/b&gt;&lt;br&gt;ctg71 27&lt;br&gt;Location: 25921 - 26644" locus_tag="ctg71_27" class="clusterblast-orf" id="dummy-1_q17_0_all"  />
<polygon points="434,40 442,40 447,35 442,30 434,30 434,40 " style="fill:#d8d815; stroke-width:1; stroke:black; " description="&lt;b&gt;ctg71_28&lt;/b&gt;&lt;br&gt;ctg71 28&lt;br&gt;Location: 26640 - 27318" locus_tag="ctg71_28" class="clusterblast-orf" id="dummy-1_q18_0_all"  />
<polygon points="447,40 470,40 475,35 470,30 447,30 447,40 " style="fill:#15d877; stroke-width:1; stroke:black; " description="&lt;b&gt;ctg71_29&lt;/b&gt;&lt;br&gt;ctg71 29&lt;br&gt;Location: 27314 - 28739" locus_tag="ctg71_29" class="clusterblast-orf" id="dummy-1_q19_0_all"  />
<polygon points="477,40 546,40 551,35 546,30 477,30 477,40 " style="fill:#1515d8; stroke-width:1; stroke:black; " description="&lt;b&gt;ctg71_30&lt;/b&gt;&lt;br&gt;ctg71 30&lt;br&gt;Location: 28877 - 32738" locus_tag="ctg71_30" class="clusterblast-orf" id="dummy-1_q20_0_all"  />
<polygon points="551,40 570,40 575,35 570,30 551,30 551,40 " style="fill:#d81577; stroke-width:1; stroke:black; " description="&lt;b&gt;ctg71_31&lt;/b&gt;&lt;br&gt;ctg71 31&lt;br&gt;Location: 32734 - 33976" locus_tag="ctg71_31" class="clusterblast-orf" id="dummy-1_q21_0_all"  />
<polygon points="578,40 594,40 599,35 594,30 578,30 578,40 " style="fill:#a7d815; stroke-width:1; stroke:black; " description="&lt;b&gt;ctg71_32&lt;/b&gt;&lt;br&gt;ctg71 32&lt;br&gt;Location: 34160 - 35279" locus_tag="ctg71_32" class="clusterblast-orf" id="dummy-1_q22_0_all"  />
<polygon points="601,40 611,40 616,35 611,30 601,30 601,40 " style="fill:#15d8a7; stroke-width:1; stroke:black; " description="&lt;b&gt;ctg71_33&lt;/b&gt;&lt;br&gt;ctg71 33&lt;br&gt;Location: 35371 - 36145" locus_tag="ctg71_33" class="clusterblast-orf" id="dummy-1_q23_0_all"  />
<polygon points="616,40 639,40 644,35 639,30 616,30 616,40 " style="fill:#4615d8; stroke-width:1; stroke:black; " description="&lt;b&gt;ctg71_34&lt;/b&gt;&lt;br&gt;ctg71 34&lt;br&gt;Location: 36141 - 37590" locus_tag="ctg71_34" class="clusterblast-orf" id="dummy-1_q24_0_all"  />
<polygon points="644,40 662,40 667,35 662,30 644,30 644,40 " style="fill:#d81546; stroke-width:1; stroke:black; " description="&lt;b&gt;ctg71_35&lt;/b&gt;&lt;br&gt;ctg71 35&lt;br&gt;Location: 37635 - 38811" locus_tag="ctg71_35" class="clusterblast-orf" id="dummy-1_q25_0_all"  />
</g>
<g label="NZ_JNYZ01000031" description="NZ_JNYZ01000031_c21: Amycolatopsis jejuensis strain NRRL B-24427 contig31.1, ... (50% of genes show similarity), other" class="clusterblast-cluster"  >
<text x="5" y="70" class="clusterblast-acc"  >
<a xlink:href="https://antismash-db.secondarymetabolites.org/go/NZ_JNYZ01000031/21" target="_blank">NZ_JNYZ01000031_c21</a>: Amycolatopsis jejuensis strain NRRL B-24427 contig31.1, ... (50% of genes show similarity), other</text>
<line x1="10" y1="85" x2="778.0" y2="85" style="stroke-width:1; stroke:grey; "  />
</g>
<g id="a1_000"  >
<polygon points="0,90 16,90 21,85 16,80 0,80 0,90 " style="fill:white; stroke-width:1; stroke:black; " description="&lt;b&gt;OO71_RS35395&lt;/b&gt;&lt;br&gt;acyltransferase&lt;br&gt;Location: 96047 - 94908" locus_tag="OO71_RS35395" class="clusterblast-orf" id="dummy-1_h1_5_0"  />
</g>
<g id="a1_001"  >
<polygon points="22,90 30,90 35,85 30,80 22,80 22,90 " style="fill:white; stroke-width:1; stroke:black; " description="&lt;b&gt;OO71_RS35390&lt;/b&gt;&lt;br&gt;GntR family transcriptional regulator&lt;br&gt;Location: 94859 - 94197" locus_tag="OO71_RS35390" class="clusterblast-orf" id="dummy-1_h1_5_1"  />
</g>
<g id="a1_002"  >
<polygon points="35,85 40,80 59,80 59,90 40,90 35,85 " style="fill:#15d8d8; stroke-width:1; stroke:black; " description="&lt;b&gt;OO71_RS35385&lt;/b&gt;&lt;br&gt;3-phosphoshikimate 1-carboxyvinyltransferase&lt;br&gt;Location: 94196 - 92910&lt;br&gt;&lt;br&gt;&lt;b&gt;BlastP hit with ctg71_14&lt;/b&gt;&lt;br&gt;Percentage identity: 76&lt;br&gt;Percentage coverage: 97&lt;br&gt;BLAST bit score: 618&lt;br&gt;E-value: 8e-175" locus_tag="OO71_RS35385" class="clusterblast-orf" id="dummy-1_h1_5_2"  />
</g>
<g id="a1_003"  >
<polygon points="61,90 89,90 94,85 89,80 61,80 61,90 " style="fill:#7715d8; stroke-width:1; stroke:black; " description="&lt;b&gt;OO71_RS35380&lt;/b&gt;&lt;br&gt;CTP synthase&lt;br&gt;Location: 92813 - 91113&lt;br&gt;&lt;br&gt;&lt;b&gt;BlastP hit with ctg71_15&lt;/b&gt;&lt;br&gt;Percentage identity: 89&lt;br&gt;Percentage coverage: 97&lt;br&gt;BLAST bit score: 1002&lt;br&gt;E-value: 2.1e-290" locus_tag="OO71_RS35380" class="clusterblast-orf" id="dummy-1_h1_5_3"  />
</g>
<g id="a1_004"  >
<polygon points="94,90 101,90 106,85 101,80 94,80 94,90 " style="fill:#d84615; stroke-width:1; stroke:black; " description="&lt;b&gt;OO71_RS35375&lt;/b&gt;&lt;br&gt;NUDIX hydrolase&lt;br&gt;Location: 91116 - 90484&lt;br&gt;&lt;br&gt;&lt;b&gt;BlastP hit with ctg71_16&lt;/b&gt;&lt;br&gt;Percentage identity: 74&lt;br&gt;Percentage coverage: 100&lt;br&gt;BLAST bit score: 311&lt;br&gt;E-value: 6e-83" locus_tag="OO71_RS35375" class="clusterblast-orf" id="dummy-1_h1_5_4"  />
</g>
<g id="a1_005"  >
<polygon points="108,90 120,90 125,85 120,80 108,80 108,90 " style="fill:#46d815; stroke-width:1; stroke:black; " description="&lt;b&gt;OO71_RS35370&lt;/b&gt;&lt;br&gt;site-specific tyrosine recombinase XerD&lt;br&gt;Location: 90360 - 89458&lt;br&gt;&lt;br&gt;&lt;b&gt;BlastP hit with ctg71_17&lt;/b&gt;&lt;br&gt;Percentage identity: 83&lt;br&gt;Percentage coverage: 97&lt;br&gt;BLAST bit score: 481&lt;br&gt;E-value: 6.4e-134" locus_tag="OO71_RS35370" class="clusterblast-orf" id="dummy-1_h1_5_5"  />
</g>
<g id="a1_006"  >
<polygon points="128,90 142,90 147,85 142,80 128,80 128,90 " style="fill:#15a7d8; stroke-width:1; stroke:black; " description="&lt;b&gt;OO71_RS35365&lt;/b&gt;&lt;br&gt;ParA family protein&lt;br&gt;Location: 89325 - 88318&lt;br&gt;&lt;br&gt;&lt;b&gt;BlastP hit with ctg71_18&lt;/b&gt;&lt;br&gt;Percentage identity: 80&lt;br&gt;Percentage coverage: 103&lt;br&gt;BLAST bit score: 503&lt;br&gt;E-value: 1.3e-140" locus_tag="OO71_RS35365" class="clusterblast-orf" id="dummy-1_h1_5_6"  />
</g>
<g id="a1_007"  >
<polygon points="147,90 150,90 155,85 150,80 147,80 147,90 " style="fill:#a715d8; stroke-width:1; stroke:black; " description="&lt;b&gt;OO71_RS35360&lt;/b&gt;&lt;br&gt;hypothetical protein&lt;br&gt;Location: 88321 - 87923&lt;br&gt;&lt;br&gt;&lt;b&gt;BlastP hit with ctg71_19&lt;/b&gt;&lt;br&gt;Percentage identity: 70&lt;br&gt;Percentage coverage: 96&lt;br&gt;BLAST bit score: 153&lt;br&gt;E-value: 1.4e-35" locus_tag="OO71_RS35360" class="clusterblast-orf" id="dummy-1_h1_5_7"  />
</g>
<g id="a1_008"  >
<polygon points="155,90 168,90 173,85 168,80 155,80 155,90 " style="fill:#d87715; stroke-width:1; stroke:black; " description="&lt;b&gt;OO71_RS35355&lt;/b&gt;&lt;br&gt;segregation/condensation protein A&lt;br&gt;Location: 87923 - 86982&lt;br&gt;&lt;br&gt;&lt;b&gt;BlastP hit with ctg71_20&lt;/b&gt;&lt;br&gt;Percentage identity: 83&lt;br&gt;Percentage coverage: 94&lt;br&gt;BLAST bit score: 433&lt;br&gt;E-value: 1.4e-119" locus_tag="OO71_RS35355" class="clusterblast-orf" id="dummy-1_h1_5_8"  />
</g>
<g id="a1_009"  >
<polygon points="173,90 184,90 189,85 184,80 173,80 173,90 " style="fill:#15d815; stroke-width:1; stroke:black; " description="&lt;b&gt;OO71_RS35350&lt;/b&gt;&lt;br&gt;SMC-Scp complex subunit ScpB&lt;br&gt;Location: 86946 - 86134&lt;br&gt;&lt;br&gt;&lt;b&gt;BlastP hit with ctg71_21&lt;/b&gt;&lt;br&gt;Percentage identity: 85&lt;br&gt;Percentage coverage: 48&lt;br&gt;BLAST bit score: 281&lt;br&gt;E-value: 1.5e-73" locus_tag="OO71_RS35350" class="clusterblast-orf" id="dummy-1_h1_5_9"  />
</g>
<g id="a1_0010"  >
<polygon points="189,90 198,90 203,85 198,80 189,80 189,90 " style="fill:#1577d8; stroke-width:1; stroke:black; " description="&lt;b&gt;OO71_RS35345&lt;/b&gt;&lt;br&gt;rRNA pseudouridine synthase&lt;br&gt;Location: 86144 - 85392&lt;br&gt;&lt;br&gt;&lt;b&gt;BlastP hit with ctg71_22&lt;/b&gt;&lt;br&gt;Percentage identity: 74&lt;br&gt;Percentage coverage: 101&lt;br&gt;BLAST bit score: 372&lt;br&gt;E-value: 4.4e-101" locus_tag="OO71_RS35345" class="clusterblast-orf" id="dummy-1_h1_5_10"  />
</g>
<g id="a1_0011"  >
<polygon points="205,90 235,90 240,85 235,80 205,80 205,90 " style="fill:white; stroke-width:1; stroke:black; " description="&lt;b&gt;OO71_RS35340&lt;/b&gt;&lt;br&gt;Xaa-Pro dipeptidyl-peptidase&lt;br&gt;Location: 85304 - 83436" locus_tag="OO71_RS35340" class="clusterblast-orf" id="dummy-1_h1_5_11"  />
</g>
<g id="a1_0012"  >
<polygon points="243,85 248,80 266,80 266,90 248,90 243,85 " style="fill:#15d846; stroke-width:1; stroke:black; " description="&lt;b&gt;OO71_RS35335&lt;/b&gt;&lt;br&gt;cation:proton antiporter&lt;br&gt;Location: 83281 - 82082&lt;br&gt;&lt;br&gt;&lt;b&gt;BlastP hit with ctg71_25&lt;/b&gt;&lt;br&gt;Percentage identity: 89&lt;br&gt;Percentage coverage: 97&lt;br&gt;BLAST bit score: 629&lt;br&gt;E-value: 2.5e-178" locus_tag="OO71_RS35335" class="clusterblast-orf" id="dummy-1_h1_5_12"  />
</g>
<g id="a1_0013"  >
<polygon points="266,85 271,80 275,80 275,90 271,90 266,85 " style="fill:#1546d8; stroke-width:1; stroke:black; " description="&lt;b&gt;OO71_RS35330&lt;/b&gt;&lt;br&gt;potassium transporter TrkA&lt;br&gt;Location: 82082 - 81600&lt;br&gt;&lt;br&gt;&lt;b&gt;BlastP hit with ctg71_26&lt;/b&gt;&lt;br&gt;Percentage identity: 90&lt;br&gt;Percentage coverage: 98&lt;br&gt;BLAST bit score: 284&lt;br&gt;E-value: 6.1e-75" locus_tag="OO71_RS35330" class="clusterblast-orf" id="dummy-1_h1_5_13"  />
</g>
<g id="a1_0014"  >
<polygon points="279,90 288,90 293,85 288,80 279,80 279,90 " style="fill:#d815a7; stroke-width:1; stroke:black; " description="&lt;b&gt;OO71_RS35325&lt;/b&gt;&lt;br&gt;(d)CMP kinase&lt;br&gt;Location: 81431 - 80703&lt;br&gt;&lt;br&gt;&lt;b&gt;BlastP hit with ctg71_27&lt;/b&gt;&lt;br&gt;Percentage identity: 75&lt;br&gt;Percentage coverage: 95&lt;br&gt;BLAST bit score: 304&lt;br&gt;E-value: 1.4e-80" locus_tag="OO71_RS35325" class="clusterblast-orf" id="dummy-1_h1_5_14"  />
</g>
<g id="a1_0015"  >
<polygon points="294,90 300,90 305,85 300,80 294,80 294,90 " style="fill:#d8d815; stroke-width:1; stroke:black; " description="&lt;b&gt;OO71_RS35320&lt;/b&gt;&lt;br&gt;1-acyl-sn-glycerol-3-phosphate acyltransferase&lt;br&gt;Location: 80610 - 80056&lt;br&gt;&lt;br&gt;&lt;b&gt;BlastP hit with ctg71_28&lt;/b&gt;&lt;br&gt;Percentage identity: 67&lt;br&gt;Percentage coverage: 79&lt;br&gt;BLAST bit score: 247&lt;br&gt;E-value: 1.5e-63" locus_tag="OO71_RS35320" class="clusterblast-orf" id="dummy-1_h1_5_15"  />
</g>
<g id="a1_0016"  >
<polygon points="307,90 329,90 334,85 329,80 307,80 307,90 " style="fill:#15d877; stroke-width:1; stroke:black; " description="&lt;b&gt;OO71_RS35315&lt;/b&gt;&lt;br&gt;ribosome biogenesis GTPase Der&lt;br&gt;Location: 79962 - 78520&lt;br&gt;&lt;br&gt;&lt;b&gt;BlastP hit with ctg71_29&lt;/b&gt;&lt;br&gt;Percentage identity: 85&lt;br&gt;Percentage coverage: 99&lt;br&gt;BLAST bit score: 772&lt;br&gt;E-value: 2.2e-221" locus_tag="OO71_RS35315" class="clusterblast-orf" id="dummy-1_h1_5_16"  />
</g>
<g id="a1_0017"  >
<polygon points="340,90 409,90 414,85 409,80 340,80 340,90 " style="fill:#1515d8; stroke-width:1; stroke:black; " description="&lt;b&gt;OO71_RS35310&lt;/b&gt;&lt;br&gt;amino acid adenylation protein&lt;br&gt;Location: 78242 - 74349&lt;br&gt;&lt;br&gt;&lt;b&gt;BlastP hit with ctg71_30&lt;/b&gt;&lt;br&gt;Percentage identity: 71&lt;br&gt;Percentage coverage: 99&lt;br&gt;BLAST bit score: 1784&lt;br&gt;E-value: 0.0" locus_tag="OO71_RS35310" class="clusterblast-orf" id="dummy-1_h1_5_17"  />
</g>
<g id="a1_0018"  >
<polygon points="415,90 436,90 441,85 436,80 415,80 415,90 " style="fill:#d81577; stroke-width:1; stroke:black; " description="&lt;b&gt;OO71_RS35305&lt;/b&gt;&lt;br&gt;M1 family peptidase&lt;br&gt;Location: 74275 - 72917&lt;br&gt;&lt;br&gt;&lt;b&gt;BlastP hit with ctg71_31&lt;/b&gt;&lt;br&gt;Percentage identity: 64&lt;br&gt;Percentage coverage: 103&lt;br&gt;BLAST bit score: 552&lt;br&gt;E-value: 5.2e-155" locus_tag="OO71_RS35305" class="clusterblast-orf" id="dummy-1_h1_5_18"  />
</g>
<g id="a1_0019"  >
<polygon points="442,85 447,80 476,80 476,90 447,90 442,85 " style="fill:white; stroke-width:1; stroke:black; " description="&lt;b&gt;OO71_RS35300&lt;/b&gt;&lt;br&gt;2,4-dichlorophenol 6-monooxygenase&lt;br&gt;Location: 72850 - 71120" locus_tag="OO71_RS35300" class="clusterblast-orf" id="dummy-1_h1_5_19"  />
</g>
<g id="a1_0020"  >
<polygon points="476,85 481,80 512,80 512,90 481,90 476,85 " style="fill:white; stroke-width:1; stroke:black; " description="&lt;b&gt;OO71_RS35295&lt;/b&gt;&lt;br&gt;alcohol dehydrogenase&lt;br&gt;Location: 71103 - 69196" locus_tag="OO71_RS35295" class="clusterblast-orf" id="dummy-1_h1_5_20"  />
</g>
<g id="a1_0021"  >
<polygon points="514,85 519,80 531,80 531,90 519,90 514,85 " style="fill:white; stroke-width:1; stroke:black; " description="&lt;b&gt;OO71_RS35290&lt;/b&gt;&lt;br&gt;AraC family transcriptional regulator&lt;br&gt;Location: 69101 - 68220" locus_tag="OO71_RS35290" class="clusterblast-orf" id="dummy-1_h1_5_21"  />
</g>
<g id="a1_0022"  >
<polygon points="532,85 537,80 547,80 547,90 537,90 532,85 " style="fill:white; stroke-width:1; stroke:black; " description="&lt;b&gt;OO71_RS35285&lt;/b&gt;&lt;br&gt;NAD(P)-dependent oxidoreductase&lt;br&gt;Location: 68176 - 67370" locus_tag="OO71_RS35285" class="clusterblast-orf" id="dummy-1_h1_5_22"  />
</g>
<g id="a1_0023"  >
<polygon points="548,85 553,80 563,80 563,90 553,90 548,85 " style="fill:white; stroke-width:1; stroke:black; " description="&lt;b&gt;OO71_RS35280&lt;/b&gt;&lt;br&gt;IclR family transcriptional regulator&lt;br&gt;Location: 67348 - 66542" locus_tag="OO71_RS35280" class="clusterblast-orf" id="dummy-1_h1_5_23"  />
</g>
<g id="a1_0024"  >
<polygon points="565,90 578,90 583,85 578,80 565,80 565,90 " style="fill:white; stroke-width:1; stroke:black; " description="&lt;b&gt;OO71_RS35275&lt;/b&gt;&lt;br&gt;5-dehydro-4-deoxyglucarate dehydratase&lt;br&gt;Location: 66417 - 65491" locus_tag="OO71_RS35275" class="clusterblast-orf" id="dummy-1_h1_5_24"  />
</g>
<g id="a1_0025"  >
<polygon points="583,90 602,90 607,85 602,80 583,80 583,90 " style="fill:white; stroke-width:1; stroke:black; " description="&lt;b&gt;OO71_RS35270&lt;/b&gt;&lt;br&gt;glucarate dehydratase&lt;br&gt;Location: 65491 - 64235" locus_tag="OO71_RS35270" class="clusterblast-orf" id="dummy-1_h1_5_25"  />
</g>
<g id="a1_0026"  >
<polygon points="607,90 623,90 628,85 623,80 607,80 607,90 " style="fill:white; stroke-width:1; stroke:black; " description="&lt;b&gt;OO71_RS46735&lt;/b&gt;&lt;br&gt;hypothetical protein&lt;br&gt;Location: 64230 - 63128" locus_tag="OO71_RS46735" class="clusterblast-orf" id="dummy-1_h1_5_26"  />
</g>
<g id="a1_0027"  >
<polygon points="628,90 651,90 656,85 651,80 628,80 628,90 " style="fill:white; stroke-width:1; stroke:black; " description="&lt;b&gt;OO71_RS35260&lt;/b&gt;&lt;br&gt;aldehyde dehydrogenase (NADP(+))&lt;br&gt;Location: 63120 - 61648" locus_tag="OO71_RS35260" class="clusterblast-orf" id="dummy-1_h1_5_27"  />
</g>
<g id="a1_0028"  >
<polygon points="656,90 695,90 700,85 695,80 656,80 656,90 " style="fill:white; stroke-width:1; stroke:black; " description="&lt;b&gt;OO71_RS35255&lt;/b&gt;&lt;br&gt;hyaluronate lyase&lt;br&gt;Location: 61657 - 59378" locus_tag="OO71_RS35255" class="clusterblast-orf" id="dummy-1_h1_5_28"  />
</g>
<g id="a1_0029"  >
<polygon points="712,90 735,90 740,85 735,80 712,80 712,90 " style="fill:white; stroke-width:1; stroke:black; " description="&lt;b&gt;OO71_RS35250&lt;/b&gt;&lt;br&gt;NAD(P)/FAD-dependent oxidoreductase&lt;br&gt;Location: 58761 - 57286" locus_tag="OO71_RS35250" class="clusterblast-orf" id="dummy-1_h1_5_29"  />
</g>
<g id="a1_0030"  >
<polygon points="747,85 750,80 750,90 747,85 " style="fill:white; stroke-width:1; stroke:black; " description="&lt;b&gt;OO71_RS35245&lt;/b&gt;&lt;br&gt;50S ribosomal protein L36&lt;br&gt;Location: 56878 - 56756" locus_tag="OO71_RS35245" class="clusterblast-orf" id="dummy-1_h1_5_30"  />
</g>
<g id="a1_0031"  >
<polygon points="758,85 763,80 779,80 779,90 763,90 758,85 " style="fill:white; stroke-width:1; stroke:black; " description="&lt;b&gt;OO71_RS35240&lt;/b&gt;&lt;br&gt;VWA domain-containing protein&lt;br&gt;Location: 56350 - 55202" locus_tag="OO71_RS35240" class="clusterblast-orf" id="dummy-1_h1_5_31"  />
</g>
</svg>
