<svg xmlns="http://www.w3.org/2000/svg" xmlns:xlink="http://www.w3.org/1999/xlink" version="1.1" x="0" y="0" height="230" width="800" viewBox="0 0 800 230" preserveAspectRatio="none"  >
<g label="Query sequence" class="clusterblast-cluster"  >
<text x="5" y="20" class="clusterblast-acc"  >
Query sequence</text>
<line x1="10" y1="35" x2="778.0" y2="35" style="stroke-width:1; stroke:grey; "  />
<polygon points="170,40 185,40 190,35 185,30 170,30 170,40 " style="fill:white; stroke-width:1; stroke:black; " description="&lt;b&gt;ctg108_1&lt;/b&gt;&lt;br&gt;ctg108 1&lt;br&gt;Location: 2 - 1151" locus_tag="ctg108_1" class="clusterblast-orf" id="dummy-1_q0_0_all"  />
<polygon points="194,35 199,30 216,30 216,40 199,40 194,35 " style="fill:#d81515; stroke-width:1; stroke:black; " description="&lt;b&gt;ctg108_2&lt;/b&gt;&lt;br&gt;ctg108 2&lt;br&gt;Location: 1417 - 2638" locus_tag="ctg108_2" class="clusterblast-orf" id="dummy-1_q1_0_all"  />
<polygon points="216,35 221,30 232,30 232,40 221,40 216,35 " style="fill:#63d815; stroke-width:1; stroke:black; " description="&lt;b&gt;ctg108_3&lt;/b&gt;&lt;br&gt;ctg108 3&lt;br&gt;Location: 2660 - 3620" locus_tag="ctg108_3" class="clusterblast-orf" id="dummy-1_q2_0_all"  />
<polygon points="234,35 239,30 261,30 261,40 239,40 234,35 " style="fill:#15b1d8; stroke-width:1; stroke:black; " description="&lt;b&gt;ctg108_4&lt;/b&gt;&lt;br&gt;ctg108 4&lt;br&gt;Location: 3681 - 5262" locus_tag="ctg108_4" class="clusterblast-orf" id="dummy-1_q3_0_all"  />
<polygon points="261,35 266,30 367,30 367,40 266,40 261,35 " style="fill:#b115d8; stroke-width:1; stroke:black; " description="&lt;b&gt;ctg108_5&lt;/b&gt;&lt;br&gt;ctg108 5&lt;br&gt;Location: 5269 - 11404" locus_tag="ctg108_5" class="clusterblast-orf" id="dummy-1_q4_0_all"  />
<polygon points="367,35 372,30 395,30 395,40 372,40 367,35 " style="fill:#d86315; stroke-width:1; stroke:black; " description="&lt;b&gt;ctg108_6&lt;/b&gt;&lt;br&gt;ctg108 6&lt;br&gt;Location: 11400 - 13026" locus_tag="ctg108_6" class="clusterblast-orf" id="dummy-1_q5_0_all"  />
<polygon points="397,35 402,30 422,30 422,40 402,40 397,35 " style="fill:#15d815; stroke-width:1; stroke:black; " description="&lt;b&gt;ctg108_7&lt;/b&gt;&lt;br&gt;ctg108 7&lt;br&gt;Location: 13163 - 14585" locus_tag="ctg108_7" class="clusterblast-orf" id="dummy-1_q6_0_all"  />
<polygon points="422,35 427,30 438,30 438,40 427,40 422,35 " style="fill:#1563d8; stroke-width:1; stroke:black; " description="&lt;b&gt;ctg108_8&lt;/b&gt;&lt;br&gt;ctg108 8&lt;br&gt;Location: 14591 - 15524" locus_tag="ctg108_8" class="clusterblast-orf" id="dummy-1_q7_0_all"  />
<polygon points="438,35 443,30 466,30 466,40 443,40 438,35 " style="fill:#d815b1; stroke-width:1; stroke:black; " description="&lt;b&gt;ctg108_9&lt;/b&gt;&lt;br&gt;ctg108 9&lt;br&gt;Location: 15524 - 17135" locus_tag="ctg108_9" class="clusterblast-orf" id="dummy-1_q8_0_all"  />
<polygon points="466,35 471,30 500,30 500,40 471,40 466,35 " style="fill:#d8b115; stroke-width:1; stroke:black; " description="&lt;b&gt;ctg108_10&lt;/b&gt;&lt;br&gt;ctg108 10&lt;br&gt;Location: 17131 - 19117" locus_tag="ctg108_10" class="clusterblast-orf" id="dummy-1_q9_0_all"  />
<polygon points="503,40 519,40 524,35 519,30 503,30 503,40 " style="fill:#15d863; stroke-width:1; stroke:black; " description="&lt;b&gt;ctg108_11&lt;/b&gt;&lt;br&gt;ctg108 11&lt;br&gt;Location: 19287 - 20532" locus_tag="ctg108_11" class="clusterblast-orf" id="dummy-1_q10_0_all"  />
<polygon points="530,40 534,35 530,30 530,40 " style="fill:white; stroke-width:1; stroke:black; " description="&lt;b&gt;ctg108_12&lt;/b&gt;&lt;br&gt;ctg108 12&lt;br&gt;Location: 20867 - 21101" locus_tag="ctg108_12" class="clusterblast-orf" id="dummy-1_q11_0_all"  />
<polygon points="538,40 539,40 544,35 539,30 538,30 538,40 " style="fill:white; stroke-width:1; stroke:black; " description="&lt;b&gt;ctg108_13&lt;/b&gt;&lt;br&gt;ctg108 13&lt;br&gt;Location: 21335 - 21662" locus_tag="ctg108_13" class="clusterblast-orf" id="dummy-1_q12_0_all"  />
<polygon points="544,35 549,30 560,30 560,40 549,40 544,35 " style="fill:#1515d8; stroke-width:1; stroke:black; " description="&lt;b&gt;ctg108_14&lt;/b&gt;&lt;br&gt;ctg108 14&lt;br&gt;Location: 21658 - 22600" locus_tag="ctg108_14" class="clusterblast-orf" id="dummy-1_q13_0_all"  />
<polygon points="560,35 565,30 566,30 566,40 565,40 560,35 " style="fill:#d81563; stroke-width:1; stroke:black; " description="&lt;b&gt;ctg108_15&lt;/b&gt;&lt;br&gt;ctg108 15&lt;br&gt;Location: 22575 - 22962" locus_tag="ctg108_15" class="clusterblast-orf" id="dummy-1_q14_0_all"  />
<polygon points="566,35 571,30 573,30 573,40 571,40 566,35 " style="fill:#b1d815; stroke-width:1; stroke:black; " description="&lt;b&gt;ctg108_16&lt;/b&gt;&lt;br&gt;ctg108 16&lt;br&gt;Location: 22971 - 23382" locus_tag="ctg108_16" class="clusterblast-orf" id="dummy-1_q15_0_all"  />
<polygon points="574,35 579,30 579,30 579,40 579,40 574,35 " style="fill:#15d8b1; stroke-width:1; stroke:black; " description="&lt;b&gt;ctg108_17&lt;/b&gt;&lt;br&gt;ctg108 17&lt;br&gt;Location: 23392 - 23704" locus_tag="ctg108_17" class="clusterblast-orf" id="dummy-1_q16_0_all"  />
<polygon points="579,35 584,30 609,30 609,40 584,40 579,35 " style="fill:#6315d8; stroke-width:1; stroke:black; " description="&lt;b&gt;ctg108_18&lt;/b&gt;&lt;br&gt;ctg108 18&lt;br&gt;Location: 23703 - 25461" locus_tag="ctg108_18" class="clusterblast-orf" id="dummy-1_q17_0_all"  />
</g>
<g label="NZ_FPJG01000006" description="NZ_FPJG01000006_c14: Amycolatopsis australiensis strain DSM 44671, whole geno... (22% of genes show similarity), t1pks" class="clusterblast-cluster"  >
<text x="5" y="70" class="clusterblast-acc"  >
<a xlink:href="https://antismash-db.secondarymetabolites.org/go/NZ_FPJG01000006/14" target="_blank">NZ_FPJG01000006_c14</a>: Amycolatopsis australiensis strain DSM 44671, whole geno... (22% of genes show similarity), t1pks</text>
<line x1="10" y1="85" x2="778.0" y2="85" style="stroke-width:1; stroke:grey; "  />
</g>
<g id="a1_000"  >
<polygon points="0,85 5,80 19,80 19,90 5,90 0,85 " style="fill:white; stroke-width:1; stroke:black; " description="&lt;b&gt;BT341_RS29640&lt;/b&gt;&lt;br&gt;acyl-CoA dehydrogenase&lt;br&gt;Location: 6065719 - 6066849" locus_tag="BT341_RS29640" class="clusterblast-orf" id="dummy-1_h1_9_0"  />
</g>
<g id="a1_001"  >
<polygon points="19,85 24,80 34,80 34,90 24,90 19,85 " style="fill:white; stroke-width:1; stroke:black; " description="&lt;b&gt;BT341_RS29645&lt;/b&gt;&lt;br&gt;enoyl-CoA hydratase&lt;br&gt;Location: 6066849 - 6067694" locus_tag="BT341_RS29645" class="clusterblast-orf" id="dummy-1_h1_9_1"  />
</g>
<g id="a1_002"  >
<polygon points="34,85 39,80 60,80 60,90 39,90 34,85 " style="fill:white; stroke-width:1; stroke:black; " description="&lt;b&gt;BT341_RS29650&lt;/b&gt;&lt;br&gt;fatty acid--CoA ligase&lt;br&gt;Location: 6067691 - 6069220" locus_tag="BT341_RS29650" class="clusterblast-orf" id="dummy-1_h1_9_2"  />
</g>
<g id="a1_003"  >
<polygon points="61,90 76,90 81,85 76,80 61,80 61,90 " style="fill:white; stroke-width:1; stroke:black; " description="&lt;b&gt;BT341_RS29655&lt;/b&gt;&lt;br&gt;acyl-CoA dehydrogenase&lt;br&gt;Location: 6069303 - 6070448" locus_tag="BT341_RS29655" class="clusterblast-orf" id="dummy-1_h1_9_3"  />
</g>
<g id="a1_004"  >
<polygon points="81,90 89,90 94,85 89,80 81,80 81,90 " style="fill:white; stroke-width:1; stroke:black; " description="&lt;b&gt;BT341_RS29660&lt;/b&gt;&lt;br&gt;short chain dehydrogenase&lt;br&gt;Location: 6070445 - 6071215" locus_tag="BT341_RS29660" class="clusterblast-orf" id="dummy-1_h1_9_4"  />
</g>
<g id="a1_005"  >
<polygon points="95,90 109,90 114,85 109,80 95,80 95,90 " style="fill:white; stroke-width:1; stroke:black; " description="&lt;b&gt;BT341_RS29665&lt;/b&gt;&lt;br&gt;acetyl-CoA C-acyltransferase&lt;br&gt;Location: 6071225 - 6072376" locus_tag="BT341_RS29665" class="clusterblast-orf" id="dummy-1_h1_9_5"  />
</g>
<g id="a1_006"  >
<polygon points="114,85 119,80 132,80 132,90 119,90 114,85 " style="fill:white; stroke-width:1; stroke:black; " description="&lt;b&gt;BT341_RS29670&lt;/b&gt;&lt;br&gt;glucose-6-phosphate dehydrogenase (coenzyme-F420)&lt;br&gt;Location: 6072378 - 6073382" locus_tag="BT341_RS29670" class="clusterblast-orf" id="dummy-1_h1_9_6"  />
</g>
<g id="a1_007"  >
<polygon points="132,85 137,80 150,80 150,90 137,90 132,85 " style="fill:white; stroke-width:1; stroke:black; " description="&lt;b&gt;BT341_RS29675&lt;/b&gt;&lt;br&gt;2-nitropropane dioxygenase&lt;br&gt;Location: 6073389 - 6074444" locus_tag="BT341_RS29675" class="clusterblast-orf" id="dummy-1_h1_9_7"  />
</g>
<g id="a1_008"  >
<polygon points="150,85 155,80 163,80 163,90 155,90 150,85 " style="fill:white; stroke-width:1; stroke:black; " description="&lt;b&gt;BT341_RS29680&lt;/b&gt;&lt;br&gt;CoA-transferase&lt;br&gt;Location: 6074441 - 6075172" locus_tag="BT341_RS29680" class="clusterblast-orf" id="dummy-1_h1_9_8"  />
</g>
<g id="a1_009"  >
<polygon points="163,85 168,80 177,80 177,90 168,90 163,85 " style="fill:white; stroke-width:1; stroke:black; " description="&lt;b&gt;BT341_RS29685&lt;/b&gt;&lt;br&gt;CoA transferase subunit A&lt;br&gt;Location: 6075169 - 6076032" locus_tag="BT341_RS29685" class="clusterblast-orf" id="dummy-1_h1_9_9"  />
</g>
<g id="a1_0010"  >
<polygon points="177,85 182,80 190,80 190,90 182,90 177,85 " style="fill:white; stroke-width:1; stroke:black; " description="&lt;b&gt;BT341_RS29690&lt;/b&gt;&lt;br&gt;enoyl-CoA hydratase&lt;br&gt;Location: 6076022 - 6076762" locus_tag="BT341_RS29690" class="clusterblast-orf" id="dummy-1_h1_9_10"  />
</g>
<g id="a1_0011"  >
<polygon points="190,85 195,80 205,80 205,90 195,90 190,85 " style="fill:white; stroke-width:1; stroke:black; " description="&lt;b&gt;BT341_RS29695&lt;/b&gt;&lt;br&gt;KR domain-containing protein&lt;br&gt;Location: 6076762 - 6077643" locus_tag="BT341_RS29695" class="clusterblast-orf" id="dummy-1_h1_9_11"  />
</g>
<g id="a1_0012"  >
<polygon points="205,85 210,80 218,80 218,90 210,90 205,85 " style="fill:white; stroke-width:1; stroke:black; " description="&lt;b&gt;BT341_RS29700&lt;/b&gt;&lt;br&gt;short chain dehydrogenase&lt;br&gt;Location: 6077640 - 6078407" locus_tag="BT341_RS29700" class="clusterblast-orf" id="dummy-1_h1_9_12"  />
</g>
<g id="a1_0013"  >
<polygon points="223,85 228,80 242,80 242,90 228,90 223,85 " style="fill:#15d863; stroke-width:1; stroke:black; " description="&lt;b&gt;BT341_RS29705&lt;/b&gt;&lt;br&gt;PucR family transcriptional regulator&lt;br&gt;Location: 6078690 - 6079784&lt;br&gt;&lt;br&gt;&lt;b&gt;BlastP hit with ctg108_11&lt;/b&gt;&lt;br&gt;Percentage identity: 42&lt;br&gt;Percentage coverage: 89&lt;br&gt;BLAST bit score: 243&lt;br&gt;E-value: 5.2e-62" locus_tag="BT341_RS29705" class="clusterblast-orf" id="dummy-1_h1_9_13"  />
</g>
<g id="a1_0014"  >
<polygon points="245,90 251,90 256,85 251,80 245,80 245,90 " style="fill:white; stroke-width:1; stroke:black; " description="&lt;b&gt;BT341_RS29710&lt;/b&gt;&lt;br&gt;TetR/AcrR family transcriptional regulator&lt;br&gt;Location: 6079938 - 6080603" locus_tag="BT341_RS29710" class="clusterblast-orf" id="dummy-1_h1_9_14"  />
</g>
<g id="a1_0015"  >
<polygon points="259,90 266,90 271,85 266,80 259,80 259,90 " style="fill:white; stroke-width:1; stroke:black; " description="&lt;b&gt;BT341_RS29715&lt;/b&gt;&lt;br&gt;cutinase family protein&lt;br&gt;Location: 6080774 - 6081433" locus_tag="BT341_RS29715" class="clusterblast-orf" id="dummy-1_h1_9_15"  />
</g>
<g id="a1_0016"  >
<polygon points="271,85 276,80 291,80 291,90 276,90 271,85 " style="fill:#d81515; stroke-width:1; stroke:black; " description="&lt;b&gt;BT341_RS29720&lt;/b&gt;&lt;br&gt;lipase&lt;br&gt;Location: 6081437 - 6082627&lt;br&gt;&lt;br&gt;&lt;b&gt;BlastP hit with ctg108_2&lt;/b&gt;&lt;br&gt;Percentage identity: 78&lt;br&gt;Percentage coverage: 98&lt;br&gt;BLAST bit score: 634&lt;br&gt;E-value: 7.8e-180" locus_tag="BT341_RS29720" class="clusterblast-orf" id="dummy-1_h1_9_16"  />
</g>
<g id="a1_0017"  >
<polygon points="292,85 297,80 309,80 309,90 297,90 292,85 " style="fill:#63d815; stroke-width:1; stroke:black; " description="&lt;b&gt;BT341_RS29725&lt;/b&gt;&lt;br&gt;esterase family protein&lt;br&gt;Location: 6082681 - 6083649&lt;br&gt;&lt;br&gt;&lt;b&gt;BlastP hit with ctg108_3&lt;/b&gt;&lt;br&gt;Percentage identity: 77&lt;br&gt;Percentage coverage: 92&lt;br&gt;BLAST bit score: 497&lt;br&gt;E-value: 1.2e-138" locus_tag="BT341_RS29725" class="clusterblast-orf" id="dummy-1_h1_9_17"  />
</g>
<g id="a1_0018"  >
<polygon points="309,85 314,80 336,80 336,90 314,90 309,85 " style="fill:#15b1d8; stroke-width:1; stroke:black; " description="&lt;b&gt;BT341_RS29730&lt;/b&gt;&lt;br&gt;acyl-CoA carboxylase subunit beta&lt;br&gt;Location: 6083661 - 6085238&lt;br&gt;&lt;br&gt;&lt;b&gt;BlastP hit with ctg108_4&lt;/b&gt;&lt;br&gt;Percentage identity: 84&lt;br&gt;Percentage coverage: 99&lt;br&gt;BLAST bit score: 876&lt;br&gt;E-value: 1.2e-252" locus_tag="BT341_RS29730" class="clusterblast-orf" id="dummy-1_h1_9_18"  />
</g>
<g id="a1_0019"  >
<polygon points="336,85 341,80 444,80 444,90 341,90 336,85 " style="fill:#b115d8; stroke-width:1; stroke:black; " description="&lt;b&gt;BT341_RS29735&lt;/b&gt;&lt;br&gt;polyketide synthase&lt;br&gt;Location: 6085238 - 6091466&lt;br&gt;&lt;br&gt;&lt;b&gt;BlastP hit with ctg108_5&lt;/b&gt;&lt;br&gt;Percentage identity: 62&lt;br&gt;Percentage coverage: 80&lt;br&gt;BLAST bit score: 1781&lt;br&gt;E-value: 0.0" locus_tag="BT341_RS29735" class="clusterblast-orf" id="dummy-1_h1_9_19"  />
</g>
<g id="a1_0020"  >
<polygon points="444,85 449,80 473,80 473,90 449,90 444,85 " style="fill:#d86315; stroke-width:1; stroke:black; " description="&lt;b&gt;BT341_RS29740&lt;/b&gt;&lt;br&gt;fatty-acid--CoA ligase&lt;br&gt;Location: 6091463 - 6093181&lt;br&gt;&lt;br&gt;&lt;b&gt;BlastP hit with ctg108_6&lt;/b&gt;&lt;br&gt;Percentage identity: 71&lt;br&gt;Percentage coverage: 101&lt;br&gt;BLAST bit score: 732&lt;br&gt;E-value: 3.7e-209" locus_tag="BT341_RS29740" class="clusterblast-orf" id="dummy-1_h1_9_20"  />
</g>
<g id="a1_0021"  >
<polygon points="475,85 480,80 499,80 499,90 480,90 475,85 " style="fill:#15d815; stroke-width:1; stroke:black; " description="&lt;b&gt;BT341_RS29745&lt;/b&gt;&lt;br&gt;MFS transporter&lt;br&gt;Location: 6093274 - 6094670&lt;br&gt;&lt;br&gt;&lt;b&gt;BlastP hit with ctg108_7&lt;/b&gt;&lt;br&gt;Percentage identity: 61&lt;br&gt;Percentage coverage: 97&lt;br&gt;BLAST bit score: 478&lt;br&gt;E-value: 6.4e-133" locus_tag="BT341_RS29745" class="clusterblast-orf" id="dummy-1_h1_9_21"  />
</g>
<g id="a1_0022"  >
<polygon points="499,85 504,80 533,80 533,90 504,90 499,85 " style="fill:#d8b115; stroke-width:1; stroke:black; " description="&lt;b&gt;BT341_RS29750&lt;/b&gt;&lt;br&gt;hypothetical protein&lt;br&gt;Location: 6094667 - 6096652&lt;br&gt;&lt;br&gt;&lt;b&gt;BlastP hit with ctg108_10&lt;/b&gt;&lt;br&gt;Percentage identity: 63&lt;br&gt;Percentage coverage: 99&lt;br&gt;BLAST bit score: 656&lt;br&gt;E-value: 2.4e-186" locus_tag="BT341_RS29750" class="clusterblast-orf" id="dummy-1_h1_9_22"  />
</g>
<g id="a1_0023"  >
<polygon points="540,90 554,90 559,85 554,80 540,80 540,90 " style="fill:white; stroke-width:1; stroke:black; " description="&lt;b&gt;BT341_RS29755&lt;/b&gt;&lt;br&gt;galactose-1-epimerase&lt;br&gt;Location: 6097065 - 6098117" locus_tag="BT341_RS29755" class="clusterblast-orf" id="dummy-1_h1_9_23"  />
</g>
<g id="a1_0024"  >
<polygon points="559,90 567,90 572,85 567,80 559,80 559,90 " style="fill:white; stroke-width:1; stroke:black; " description="&lt;b&gt;BT341_RS29760&lt;/b&gt;&lt;br&gt;ABC transporter substrate-binding protein&lt;br&gt;Location: 6098167 - 6098871" locus_tag="BT341_RS29760" class="clusterblast-orf" id="dummy-1_h1_9_24"  />
</g>
<g id="a1_0025"  >
<polygon points="572,85 577,80 580,80 580,90 577,90 572,85 " style="fill:white; stroke-width:1; stroke:black; " description="&lt;b&gt;BT341_RS29765&lt;/b&gt;&lt;br&gt;nitroreductase family deazaflavin-dependent oxidoreductase&lt;br&gt;Location: 6098916 - 6099335" locus_tag="BT341_RS29765" class="clusterblast-orf" id="dummy-1_h1_9_25"  />
</g>
<g id="a1_0026"  >
<polygon points="579,85 584,80 588,80 588,90 584,90 579,85 " style="fill:white; stroke-width:1; stroke:black; " description="&lt;b&gt;BT341_RS29770&lt;/b&gt;&lt;br&gt;hypothetical protein&lt;br&gt;Location: 6099332 - 6099820" locus_tag="BT341_RS29770" class="clusterblast-orf" id="dummy-1_h1_9_26"  />
</g>
<g id="a1_0027"  >
<polygon points="582,90 625,90 630,85 625,80 582,80 582,90 " style="fill:white; stroke-width:1; stroke:black; " description="&lt;b&gt;BT341_RS29775&lt;/b&gt;&lt;br&gt;helix-turn-helix domain-containing protein&lt;br&gt;Location: 6099491 - 6102283" locus_tag="BT341_RS29775" class="clusterblast-orf" id="dummy-1_h1_9_27"  />
</g>
<g id="a1_0028"  >
<polygon points="637,90 638,90 643,85 638,80 637,80 637,90 " style="fill:white; stroke-width:1; stroke:black; " description="&lt;b&gt;BT341_RS29780&lt;/b&gt;&lt;br&gt;hypothetical protein&lt;br&gt;Location: 6102680 - 6103039" locus_tag="BT341_RS29780" class="clusterblast-orf" id="dummy-1_h1_9_28"  />
</g>
<g id="a1_0029"  >
<polygon points="643,90 649,90 654,85 649,80 643,80 643,90 " style="fill:white; stroke-width:1; stroke:black; " description="&lt;b&gt;BT341_RS29785&lt;/b&gt;&lt;br&gt;hypothetical protein&lt;br&gt;Location: 6103036 - 6103644" locus_tag="BT341_RS29785" class="clusterblast-orf" id="dummy-1_h1_9_29"  />
</g>
<g id="a1_0030"  >
<polygon points="656,90 678,90 683,85 678,80 656,80 656,90 " style="fill:white; stroke-width:1; stroke:black; " description="&lt;b&gt;BT341_RS29790&lt;/b&gt;&lt;br&gt;2-aminobenzoate-CoA ligase&lt;br&gt;Location: 6103754 - 6105352" locus_tag="BT341_RS29790" class="clusterblast-orf" id="dummy-1_h1_9_30"  />
</g>
<g id="a1_0031"  >
<polygon points="689,90 703,90 708,85 703,80 689,80 689,90 " style="fill:white; stroke-width:1; stroke:black; " description="&lt;b&gt;BT341_RS29795&lt;/b&gt;&lt;br&gt;molecular chaperone DnaJ&lt;br&gt;Location: 6105690 - 6106784" locus_tag="BT341_RS29795" class="clusterblast-orf" id="dummy-1_h1_9_31"  />
</g>
<g id="a1_0032"  >
<polygon points="711,90 717,90 722,85 717,80 711,80 711,90 " style="fill:white; stroke-width:1; stroke:black; " description="&lt;b&gt;BT341_RS29800&lt;/b&gt;&lt;br&gt;threonine transporter&lt;br&gt;Location: 6106965 - 6107600" locus_tag="BT341_RS29800" class="clusterblast-orf" id="dummy-1_h1_9_32"  />
</g>
<g id="a1_0033"  >
<polygon points="723,85 728,80 765,80 765,90 728,90 723,85 " style="fill:white; stroke-width:1; stroke:black; " description="&lt;b&gt;BT341_RS29805&lt;/b&gt;&lt;br&gt;peptidase M14&lt;br&gt;Location: 6107645 - 6110104" locus_tag="BT341_RS29805" class="clusterblast-orf" id="dummy-1_h1_9_33"  />
</g>
<g id="a1_0034"  >
<polygon points="769,90 775,90 780,85 775,80 769,80 769,90 " style="fill:white; stroke-width:1; stroke:black; " description="&lt;b&gt;BT341_RS29810&lt;/b&gt;&lt;br&gt;hypothetical protein&lt;br&gt;Location: 6110316 - 6110924" locus_tag="BT341_RS29810" class="clusterblast-orf" id="dummy-1_h1_9_34"  />
</g>
</svg>
