<svg xmlns="http://www.w3.org/2000/svg" xmlns:xlink="http://www.w3.org/1999/xlink" version="1.1" x="0" y="0" height="230" width="800" viewBox="0 0 800 230" preserveAspectRatio="none"  >
<g label="Query sequence" class="clusterblast-cluster"  >
<text x="5" y="20" class="clusterblast-acc"  >
Query sequence</text>
<line x1="10" y1="35" x2="778.0" y2="35" style="stroke-width:1; stroke:grey; "  />
<polygon points="239,40 248,40 253,35 248,30 239,30 239,40 " style="fill:#d81515; stroke-width:1; stroke:black; " description="&lt;b&gt;ctg11_38&lt;/b&gt;&lt;br&gt;ctg11 38&lt;br&gt;Location: 39413 - 40448" locus_tag="ctg11_38" class="clusterblast-orf" id="dummy-1_q0_0_all"  />
<polygon points="253,40 262,40 267,35 262,30 253,30 253,40 " style="fill:#43d815; stroke-width:1; stroke:black; " description="&lt;b&gt;ctg11_39&lt;/b&gt;&lt;br&gt;ctg11 39&lt;br&gt;Location: 40463 - 41453" locus_tag="ctg11_39" class="clusterblast-orf" id="dummy-1_q1_0_all"  />
<polygon points="268,35 273,30 281,30 281,40 273,40 268,35 " style="fill:#15b6d8; stroke-width:1; stroke:black; " description="&lt;b&gt;ctg11_40&lt;/b&gt;&lt;br&gt;ctg11 40&lt;br&gt;Location: 41503 - 42484" locus_tag="ctg11_40" class="clusterblast-orf" id="dummy-1_q2_0_all"  />
<polygon points="283,40 298,40 303,35 298,30 283,30 283,40 " style="fill:#8815d8; stroke-width:1; stroke:black; " description="&lt;b&gt;ctg11_41&lt;/b&gt;&lt;br&gt;ctg11 41&lt;br&gt;Location: 42605 - 44021" locus_tag="ctg11_41" class="clusterblast-orf" id="dummy-1_q3_0_all"  />
<polygon points="303,40 319,40 324,35 319,30 303,30 303,40 " style="fill:#d85a15; stroke-width:1; stroke:black; " description="&lt;b&gt;ctg11_42&lt;/b&gt;&lt;br&gt;ctg11 42&lt;br&gt;Location: 44013 - 45504" locus_tag="ctg11_42" class="clusterblast-orf" id="dummy-1_q4_0_all"  />
<polygon points="324,40 329,40 334,35 329,30 324,30 324,40 " style="fill:#15d82c; stroke-width:1; stroke:black; " description="&lt;b&gt;ctg11_43&lt;/b&gt;&lt;br&gt;ctg11 43&lt;br&gt;Location: 45513 - 46218" locus_tag="ctg11_43" class="clusterblast-orf" id="dummy-1_q5_0_all"  />
<polygon points="336,40 338,40 343,35 338,30 336,30 336,40 " style="fill:#1571d8; stroke-width:1; stroke:black; " description="&lt;b&gt;ctg11_44&lt;/b&gt;&lt;br&gt;ctg11 44&lt;br&gt;Location: 46422 - 46857" locus_tag="ctg11_44" class="clusterblast-orf" id="dummy-1_q6_0_all"  />
<polygon points="343,40 348,40 353,35 348,30 343,30 343,40 " style="fill:#cd15d8; stroke-width:1; stroke:black; " description="&lt;b&gt;ctg11_45&lt;/b&gt;&lt;br&gt;ctg11 45&lt;br&gt;Location: 46912 - 47629" locus_tag="ctg11_45" class="clusterblast-orf" id="dummy-1_q7_0_all"  />
<polygon points="353,40 356,40 361,35 356,30 353,30 353,40 " style="fill:#d89f15; stroke-width:1; stroke:black; " description="&lt;b&gt;ctg11_46&lt;/b&gt;&lt;br&gt;ctg11 46&lt;br&gt;Location: 47638 - 48145" locus_tag="ctg11_46" class="clusterblast-orf" id="dummy-1_q8_0_all"  />
<polygon points="361,35 366,30 370,30 370,40 366,40 361,35 " style="fill:#15d871; stroke-width:1; stroke:black; " description="&lt;b&gt;ctg11_47&lt;/b&gt;&lt;br&gt;ctg11 47&lt;br&gt;Location: 48151 - 48808" locus_tag="ctg11_47" class="clusterblast-orf" id="dummy-1_q9_0_all"  />
<polygon points="373,40 399,40 404,35 399,30 373,30 373,40 " style="fill:#152cd8; stroke-width:1; stroke:black; " description="&lt;b&gt;ctg11_48&lt;/b&gt;&lt;br&gt;ctg11 48&lt;br&gt;Location: 49069 - 51262" locus_tag="ctg11_48" class="clusterblast-orf" id="dummy-1_q10_0_all"  />
<polygon points="415,35 420,30 421,30 421,40 420,40 415,35 " style="fill:#d8159f; stroke-width:1; stroke:black; " description="&lt;b&gt;ctg11_49&lt;/b&gt;&lt;br&gt;ctg11 49&lt;br&gt;Location: 52034 - 52472" locus_tag="ctg11_49" class="clusterblast-orf" id="dummy-1_q11_0_all"  />
<polygon points="423,40 429,40 434,35 429,30 423,30 423,40 " style="fill:#cdd815; stroke-width:1; stroke:black; " description="&lt;b&gt;ctg11_50&lt;/b&gt;&lt;br&gt;ctg11 50&lt;br&gt;Location: 52626 - 53397" locus_tag="ctg11_50" class="clusterblast-orf" id="dummy-1_q12_0_all"  />
<polygon points="434,40 455,40 460,35 455,30 434,30 434,40 " style="fill:#15d8b6; stroke-width:1; stroke:black; " description="&lt;b&gt;ctg11_51&lt;/b&gt;&lt;br&gt;ctg11 51&lt;br&gt;Location: 53398 - 55252" locus_tag="ctg11_51" class="clusterblast-orf" id="dummy-1_q13_0_all"  />
<polygon points="460,35 465,30 466,30 466,40 465,40 460,35 " style="fill:#4315d8; stroke-width:1; stroke:black; " description="&lt;b&gt;ctg11_52&lt;/b&gt;&lt;br&gt;ctg11 52&lt;br&gt;Location: 55256 - 55718" locus_tag="ctg11_52" class="clusterblast-orf" id="dummy-1_q14_0_all"  />
<polygon points="468,35 473,30 477,30 477,40 473,40 468,35 " style="fill:#d8155a; stroke-width:1; stroke:black; " description="&lt;b&gt;ctg11_53&lt;/b&gt;&lt;br&gt;ctg11 53&lt;br&gt;Location: 55830 - 56511" locus_tag="ctg11_53" class="clusterblast-orf" id="dummy-1_q15_0_all"  />
<polygon points="478,40 490,40 495,35 490,30 478,30 478,40 " style="fill:#88d815; stroke-width:1; stroke:black; " description="&lt;b&gt;ctg11_54&lt;/b&gt;&lt;br&gt;ctg11 54&lt;br&gt;Location: 56576 - 57767" locus_tag="ctg11_54" class="clusterblast-orf" id="dummy-1_q16_0_all"  />
<polygon points="495,40 504,40 509,35 504,30 495,30 495,40 " style="fill:#88d815; stroke-width:1; stroke:black; " description="&lt;b&gt;ctg11_55&lt;/b&gt;&lt;br&gt;ctg11 55&lt;br&gt;Location: 57787 - 58735" locus_tag="ctg11_55" class="clusterblast-orf" id="dummy-1_q17_0_all"  />
<polygon points="509,40 518,40 523,35 518,30 509,30 509,40 " style="fill:white; stroke-width:1; stroke:black; " description="&lt;b&gt;ctg11_56&lt;/b&gt;&lt;br&gt;ctg11 56&lt;br&gt;Location: 58734 - 59736" locus_tag="ctg11_56" class="clusterblast-orf" id="dummy-1_q18_0_all"  />
<polygon points="524,40 536,40 541,35 536,30 524,30 524,40 " style="fill:#88d815; stroke-width:1; stroke:black; " description="&lt;b&gt;ctg11_57&lt;/b&gt;&lt;br&gt;ctg11 57&lt;br&gt;Location: 59817 - 61038" locus_tag="ctg11_57" class="clusterblast-orf" id="dummy-1_q19_0_all"  />
</g>
<g label="NZ_FPJO01000004" description="NZ_FPJO01000004_c18: Streptomyces atratus strain OK807, whole genome shotgun ... (8% of genes show similarity), t2pks-terpene" class="clusterblast-cluster"  >
<text x="5" y="70" class="clusterblast-acc"  >
<a xlink:href="https://antismash-db.secondarymetabolites.org/go/NZ_FPJO01000004/18" target="_blank">NZ_FPJO01000004_c18</a>: Streptomyces atratus strain OK807, whole genome shotgun ... (8% of genes show similarity), t2pks-terpene</text>
<line x1="10" y1="85" x2="778.0" y2="85" style="stroke-width:1; stroke:grey; "  />
</g>
<g id="a1_000"  >
<polygon points="0,90 10,90 15,85 10,80 0,80 0,90 " style="fill:white; stroke-width:1; stroke:black; " description="&lt;b&gt;BT364_RS09805&lt;/b&gt;&lt;br&gt;LacI family transcriptional regulator&lt;br&gt;Location: 192969 - 194060" locus_tag="BT364_RS09805" class="clusterblast-orf" id="dummy-1_h1_9_0"  />
</g>
<g id="a1_001"  >
<polygon points="17,90 21,85 17,80 17,90 " style="fill:white; stroke-width:1; stroke:black; " description="&lt;b&gt;BT364_RS39050&lt;/b&gt;&lt;br&gt;hypothetical protein&lt;br&gt;Location: 194223 - 194498" locus_tag="BT364_RS39050" class="clusterblast-orf" id="dummy-1_h1_9_1"  />
</g>
<g id="a1_002"  >
<polygon points="21,85 26,80 47,80 47,90 26,90 21,85 " style="fill:white; stroke-width:1; stroke:black; " description="&lt;b&gt;BT364_RS09815&lt;/b&gt;&lt;br&gt;serine hydrolase&lt;br&gt;Location: 194517 - 196367" locus_tag="BT364_RS09815" class="clusterblast-orf" id="dummy-1_h1_9_2"  />
</g>
<g id="a1_003"  >
<polygon points="50,90 60,90 65,85 60,80 50,80 50,90 " style="fill:white; stroke-width:1; stroke:black; " description="&lt;b&gt;BT364_RS09820&lt;/b&gt;&lt;br&gt;nitronate monooxygenase&lt;br&gt;Location: 196550 - 197659" locus_tag="BT364_RS09820" class="clusterblast-orf" id="dummy-1_h1_9_3"  />
</g>
<g id="a1_004"  >
<polygon points="65,90 82,90 87,85 82,80 65,80 65,90 " style="fill:white; stroke-width:1; stroke:black; " description="&lt;b&gt;BT364_RS09825&lt;/b&gt;&lt;br&gt;acyl-CoA synthetase&lt;br&gt;Location: 197656 - 199206" locus_tag="BT364_RS09825" class="clusterblast-orf" id="dummy-1_h1_9_4"  />
</g>
<g id="a1_005"  >
<polygon points="87,90 98,90 103,85 98,80 87,80 87,90 " style="fill:white; stroke-width:1; stroke:black; " description="&lt;b&gt;BT364_RS09830&lt;/b&gt;&lt;br&gt;ionic transporter y4hA&lt;br&gt;Location: 199267 - 200373" locus_tag="BT364_RS09830" class="clusterblast-orf" id="dummy-1_h1_9_5"  />
</g>
<g id="a1_006"  >
<polygon points="104,85 109,80 137,80 137,90 109,90 104,85 " style="fill:white; stroke-width:1; stroke:black; " description="&lt;b&gt;BT364_RS09835&lt;/b&gt;&lt;br&gt;penicillin amidase&lt;br&gt;Location: 200414 - 202831" locus_tag="BT364_RS09835" class="clusterblast-orf" id="dummy-1_h1_9_6"  />
</g>
<g id="a1_007"  >
<polygon points="139,90 155,90 160,85 155,80 139,80 139,90 " style="fill:white; stroke-width:1; stroke:black; " description="&lt;b&gt;BT364_RS09840&lt;/b&gt;&lt;br&gt;acyl-CoA synthetase&lt;br&gt;Location: 202982 - 204481" locus_tag="BT364_RS09840" class="clusterblast-orf" id="dummy-1_h1_9_7"  />
</g>
<g id="a1_008"  >
<polygon points="161,90 161,90 166,85 161,80 161,80 161,90 " style="fill:white; stroke-width:1; stroke:black; " description="&lt;b&gt;BT364_RS09845&lt;/b&gt;&lt;br&gt;ArsR family transcriptional regulator&lt;br&gt;Location: 204562 - 204855" locus_tag="BT364_RS09845" class="clusterblast-orf" id="dummy-1_h1_9_8"  />
</g>
<g id="a1_009"  >
<polygon points="166,90 166,90 171,85 166,80 166,80 166,90 " style="fill:white; stroke-width:1; stroke:black; " description="&lt;b&gt;BT364_RS09850&lt;/b&gt;&lt;br&gt;VOC family protein&lt;br&gt;Location: 204852 - 205241" locus_tag="BT364_RS09850" class="clusterblast-orf" id="dummy-1_h1_9_9"  />
</g>
<g id="a1_0010"  >
<polygon points="172,85 177,80 190,80 190,90 177,90 172,85 " style="fill:white; stroke-width:1; stroke:black; " description="&lt;b&gt;BT364_RS09855&lt;/b&gt;&lt;br&gt;phenylacetate--CoA ligase&lt;br&gt;Location: 205321 - 206610" locus_tag="BT364_RS09855" class="clusterblast-orf" id="dummy-1_h1_9_10"  />
</g>
<g id="a1_0011"  >
<polygon points="193,90 209,90 214,85 209,80 193,80 193,90 " style="fill:white; stroke-width:1; stroke:black; " description="&lt;b&gt;BT364_RS09860&lt;/b&gt;&lt;br&gt;alpha/beta hydrolase&lt;br&gt;Location: 206783 - 208306" locus_tag="BT364_RS09860" class="clusterblast-orf" id="dummy-1_h1_9_11"  />
</g>
<g id="a1_0012"  >
<polygon points="214,85 219,80 237,80 237,90 219,90 214,85 " style="fill:white; stroke-width:1; stroke:black; " description="&lt;b&gt;BT364_RS09865&lt;/b&gt;&lt;br&gt;monooxygenase&lt;br&gt;Location: 208314 - 209942" locus_tag="BT364_RS09865" class="clusterblast-orf" id="dummy-1_h1_9_12"  />
</g>
<g id="a1_0013"  >
<polygon points="240,90 251,90 256,85 251,80 240,80 240,90 " style="fill:white; stroke-width:1; stroke:black; " description="&lt;b&gt;BT364_RS09870&lt;/b&gt;&lt;br&gt;protein in whiE locus&lt;br&gt;Location: 210211 - 211332" locus_tag="BT364_RS09870" class="clusterblast-orf" id="dummy-1_h1_9_13"  />
</g>
<g id="a1_0014"  >
<polygon points="257,90 258,90 263,85 258,80 257,80 257,90 " style="fill:white; stroke-width:1; stroke:black; " description="&lt;b&gt;BT364_RS09875&lt;/b&gt;&lt;br&gt;cupin domain-containing protein&lt;br&gt;Location: 211409 - 211843" locus_tag="BT364_RS09875" class="clusterblast-orf" id="dummy-1_h1_9_14"  />
</g>
<g id="a1_0015"  >
<polygon points="263,90 276,90 281,85 276,80 263,80 263,90 " style="fill:white; stroke-width:1; stroke:black; " description="&lt;b&gt;BT364_RS09880&lt;/b&gt;&lt;br&gt;beta-ketoacyl-[acyl-carrier-protein] synthase family protein&lt;br&gt;Location: 211840 - 213108" locus_tag="BT364_RS09880" class="clusterblast-orf" id="dummy-1_h1_9_15"  />
</g>
<g id="a1_0016"  >
<polygon points="281,90 293,90 298,85 293,80 281,80 281,90 " style="fill:white; stroke-width:1; stroke:black; " description="&lt;b&gt;BT364_RS09885&lt;/b&gt;&lt;br&gt;ketosynthase chain-length factor&lt;br&gt;Location: 213105 - 214355" locus_tag="BT364_RS09885" class="clusterblast-orf" id="dummy-1_h1_9_16"  />
</g>
<g id="a1_0017"  >
<polygon points="299,90 302,85 299,80 299,90 " style="fill:white; stroke-width:1; stroke:black; " description="&lt;b&gt;BT364_RS09890&lt;/b&gt;&lt;br&gt;acyl carrier protein&lt;br&gt;Location: 214371 - 214628" locus_tag="BT364_RS09890" class="clusterblast-orf" id="dummy-1_h1_9_17"  />
</g>
<g id="a1_0018"  >
<polygon points="302,90 304,90 309,85 304,80 302,80 302,90 " style="fill:white; stroke-width:1; stroke:black; " description="&lt;b&gt;BT364_RS09895&lt;/b&gt;&lt;br&gt;polyketide cyclase&lt;br&gt;Location: 214630 - 215109" locus_tag="BT364_RS09895" class="clusterblast-orf" id="dummy-1_h1_9_18"  />
</g>
<g id="a1_0019"  >
<polygon points="310,90 310,90 315,85 310,80 310,80 310,90 " style="fill:white; stroke-width:1; stroke:black; " description="&lt;b&gt;BT364_RS09900&lt;/b&gt;&lt;br&gt;TcmI family type II polyketide cyclase&lt;br&gt;Location: 215183 - 215515" locus_tag="BT364_RS09900" class="clusterblast-orf" id="dummy-1_h1_9_19"  />
</g>
<g id="a1_0020"  >
<polygon points="316,85 321,80 331,80 331,90 321,90 316,85 " style="fill:white; stroke-width:1; stroke:black; " description="&lt;b&gt;BT364_RS09905&lt;/b&gt;&lt;br&gt;methyltransferase&lt;br&gt;Location: 215591 - 216667" locus_tag="BT364_RS09905" class="clusterblast-orf" id="dummy-1_h1_9_20"  />
</g>
<g id="a1_0021"  >
<polygon points="331,85 336,80 346,80 346,90 336,90 331,85 " style="fill:white; stroke-width:1; stroke:black; " description="&lt;b&gt;BT364_RS09910&lt;/b&gt;&lt;br&gt;DUF1565 domain-containing protein&lt;br&gt;Location: 216703 - 217770" locus_tag="BT364_RS09910" class="clusterblast-orf" id="dummy-1_h1_9_21"  />
</g>
<g id="a1_0022"  >
<polygon points="348,85 353,80 371,80 371,90 353,90 348,85 " style="fill:white; stroke-width:1; stroke:black; " description="&lt;b&gt;BT364_RS09915&lt;/b&gt;&lt;br&gt;acyl-CoA synthetase&lt;br&gt;Location: 217906 - 219534" locus_tag="BT364_RS09915" class="clusterblast-orf" id="dummy-1_h1_9_22"  />
</g>
<g id="a1_0023"  >
<polygon points="373,90 379,90 384,85 379,80 373,80 373,90 " style="fill:white; stroke-width:1; stroke:black; " description="&lt;b&gt;BT364_RS09920&lt;/b&gt;&lt;br&gt;crotonase/enoyl-CoA hydratase family protein&lt;br&gt;Location: 219702 - 220502" locus_tag="BT364_RS09920" class="clusterblast-orf" id="dummy-1_h1_9_23"  />
</g>
<g id="a1_0024"  >
<polygon points="384,90 393,90 398,85 393,80 384,80 384,90 " style="fill:white; stroke-width:1; stroke:black; " description="&lt;b&gt;BT364_RS09925&lt;/b&gt;&lt;br&gt;DNA-binding protein&lt;br&gt;Location: 220518 - 221465" locus_tag="BT364_RS09925" class="clusterblast-orf" id="dummy-1_h1_9_24"  />
</g>
<g id="a1_0025"  >
<polygon points="398,90 407,90 412,85 407,80 398,80 398,90 " style="fill:white; stroke-width:1; stroke:black; " description="&lt;b&gt;BT364_RS09930&lt;/b&gt;&lt;br&gt;lipid-transfer protein&lt;br&gt;Location: 221466 - 222518" locus_tag="BT364_RS09930" class="clusterblast-orf" id="dummy-1_h1_9_25"  />
</g>
<g id="a1_0026"  >
<polygon points="412,90 424,90 429,85 424,80 412,80 412,90 " style="fill:white; stroke-width:1; stroke:black; " description="&lt;b&gt;BT364_RS09935&lt;/b&gt;&lt;br&gt;thiolase domain-containing protein&lt;br&gt;Location: 222511 - 223677" locus_tag="BT364_RS09935" class="clusterblast-orf" id="dummy-1_h1_9_26"  />
</g>
<g id="a1_0027"  >
<polygon points="431,90 432,90 437,85 432,80 431,80 431,90 " style="fill:white; stroke-width:1; stroke:black; " description="&lt;b&gt;BT364_RS09940&lt;/b&gt;&lt;br&gt;hypothetical protein&lt;br&gt;Location: 223817 - 224317" locus_tag="BT364_RS09940" class="clusterblast-orf" id="dummy-1_h1_9_27"  />
</g>
<g id="a1_0028"  >
<polygon points="440,90 468,90 473,85 468,80 440,80 440,90 " style="fill:white; stroke-width:1; stroke:black; " description="&lt;b&gt;BT364_RS09945&lt;/b&gt;&lt;br&gt;glycoside hydrolase family 95 protein&lt;br&gt;Location: 224464 - 226857" locus_tag="BT364_RS09945" class="clusterblast-orf" id="dummy-1_h1_9_28"  />
</g>
<g id="a1_0029"  >
<polygon points="473,85 478,80 504,80 504,90 478,90 473,85 " style="fill:#152cd8; stroke-width:1; stroke:black; " description="&lt;b&gt;BT364_RS09950&lt;/b&gt;&lt;br&gt;germacradienol/geosmin synthase&lt;br&gt;Location: 226833 - 229046&lt;br&gt;&lt;br&gt;&lt;b&gt;BlastP hit with ctg11_48&lt;/b&gt;&lt;br&gt;Percentage identity: 58&lt;br&gt;Percentage coverage: 101&lt;br&gt;BLAST bit score: 868&lt;br&gt;E-value: 4.4e-250" locus_tag="BT364_RS09950" class="clusterblast-orf" id="dummy-1_h1_9_29"  />
</g>
<g id="a1_0030"  >
<polygon points="509,90 523,90 528,85 523,80 509,80 509,90 " style="fill:white; stroke-width:1; stroke:black; " description="&lt;b&gt;BT364_RS09955&lt;/b&gt;&lt;br&gt;N-acetylmuramoyl-L-alanine amidase&lt;br&gt;Location: 229432 - 230763" locus_tag="BT364_RS09955" class="clusterblast-orf" id="dummy-1_h1_9_30"  />
</g>
<g id="a1_0031"  >
<polygon points="529,90 532,85 529,80 529,90 " style="fill:white; stroke-width:1; stroke:black; " description="&lt;b&gt;BT364_RS09960&lt;/b&gt;&lt;br&gt;hypothetical protein&lt;br&gt;Location: 230832 - 231101" locus_tag="BT364_RS09960" class="clusterblast-orf" id="dummy-1_h1_9_31"  />
</g>
<g id="a1_0032"  >
<polygon points="533,85 538,80 550,80 550,90 538,90 533,85 " style="fill:white; stroke-width:1; stroke:black; " description="&lt;b&gt;BT364_RS09965&lt;/b&gt;&lt;br&gt;ROK family transcriptional regulator&lt;br&gt;Location: 231170 - 232357" locus_tag="BT364_RS09965" class="clusterblast-orf" id="dummy-1_h1_9_32"  />
</g>
<g id="a1_0033"  >
<polygon points="552,90 568,90 573,85 568,80 552,80 552,90 " style="fill:white; stroke-width:1; stroke:black; " description="&lt;b&gt;BT364_RS09970&lt;/b&gt;&lt;br&gt;sugar ABC transporter ATP-binding protein&lt;br&gt;Location: 232523 - 234010" locus_tag="BT364_RS09970" class="clusterblast-orf" id="dummy-1_h1_9_33"  />
</g>
<g id="a1_0034"  >
<polygon points="573,90 582,90 587,85 582,80 573,80 573,90 " style="fill:#d81515; stroke-width:1; stroke:black; " description="&lt;b&gt;BT364_RS09975&lt;/b&gt;&lt;br&gt;ABC transporter permease&lt;br&gt;Location: 234007 - 235023&lt;br&gt;&lt;br&gt;&lt;b&gt;BlastP hit with ctg11_38&lt;/b&gt;&lt;br&gt;Percentage identity: 36&lt;br&gt;Percentage coverage: 83&lt;br&gt;BLAST bit score: 139&lt;br&gt;E-value: 6.7e-31" locus_tag="BT364_RS09975" class="clusterblast-orf" id="dummy-1_h1_9_34"  />
</g>
<g id="a1_0035"  >
<polygon points="587,90 596,90 601,85 596,80 587,80 587,90 " style="fill:#d81515; stroke-width:1; stroke:black; " description="&lt;b&gt;BT364_RS09980&lt;/b&gt;&lt;br&gt;ABC transporter permease&lt;br&gt;Location: 235020 - 236027&lt;br&gt;&lt;br&gt;&lt;b&gt;BlastP hit with ctg11_38&lt;/b&gt;&lt;br&gt;Percentage identity: 32&lt;br&gt;Percentage coverage: 84&lt;br&gt;BLAST bit score: 89&lt;br&gt;E-value: 1e-15" locus_tag="BT364_RS09980" class="clusterblast-orf" id="dummy-1_h1_9_35"  />
</g>
<g id="a1_0036"  >
<polygon points="601,90 613,90 618,85 613,80 601,80 601,90 " style="fill:#43d815; stroke-width:1; stroke:black; " description="&lt;b&gt;BT364_RS09985&lt;/b&gt;&lt;br&gt;ABC transporter substrate-binding protein&lt;br&gt;Location: 236024 - 237238&lt;br&gt;&lt;br&gt;&lt;b&gt;BlastP hit with ctg11_39&lt;/b&gt;&lt;br&gt;Percentage identity: 31&lt;br&gt;Percentage coverage: 88&lt;br&gt;BLAST bit score: 78&lt;br&gt;E-value: 1.8e-12" locus_tag="BT364_RS09985" class="clusterblast-orf" id="dummy-1_h1_9_36"  />
</g>
<g id="a1_0037"  >
<polygon points="618,90 626,90 631,85 626,80 618,80 618,90 " style="fill:white; stroke-width:1; stroke:black; " description="&lt;b&gt;BT364_RS09990&lt;/b&gt;&lt;br&gt;sugar phosphate isomerase/epimerase&lt;br&gt;Location: 237235 - 238134" locus_tag="BT364_RS09990" class="clusterblast-orf" id="dummy-1_h1_9_37"  />
</g>
<g id="a1_0038"  >
<polygon points="631,90 670,90 675,85 670,80 631,80 631,90 " style="fill:white; stroke-width:1; stroke:black; " description="&lt;b&gt;BT364_RS09995&lt;/b&gt;&lt;br&gt;PKD domain-containing protein&lt;br&gt;Location: 238170 - 241286" locus_tag="BT364_RS09995" class="clusterblast-orf" id="dummy-1_h1_9_38"  />
</g>
<g id="a1_0039"  >
<polygon points="676,85 681,80 691,80 691,90 681,90 676,85 " style="fill:white; stroke-width:1; stroke:black; " description="&lt;b&gt;BT364_RS10000&lt;/b&gt;&lt;br&gt;aminoglycoside phosphotransferase family protein&lt;br&gt;Location: 241356 - 242492" locus_tag="BT364_RS10000" class="clusterblast-orf" id="dummy-1_h1_9_39"  />
</g>
<g id="a1_0040"  >
<polygon points="695,90 711,90 716,85 711,80 695,80 695,90 " style="fill:white; stroke-width:1; stroke:black; " description="&lt;b&gt;BT364_RS10005&lt;/b&gt;&lt;br&gt;hypothetical protein&lt;br&gt;Location: 242724 - 244223" locus_tag="BT364_RS10005" class="clusterblast-orf" id="dummy-1_h1_9_40"  />
</g>
<g id="a1_0041"  >
<polygon points="718,85 723,80 738,80 738,90 723,90 718,85 " style="fill:white; stroke-width:1; stroke:black; " description="&lt;b&gt;BT364_RS10010&lt;/b&gt;&lt;br&gt;phosphatase&lt;br&gt;Location: 244365 - 245831" locus_tag="BT364_RS10010" class="clusterblast-orf" id="dummy-1_h1_9_41"  />
</g>
<g id="a1_0042"  >
<polygon points="743,90 746,85 743,80 743,90 " style="fill:white; stroke-width:1; stroke:black; " description="&lt;b&gt;BT364_RS10015&lt;/b&gt;&lt;br&gt;50S ribosomal protein L33&lt;br&gt;Location: 246217 - 246381" locus_tag="BT364_RS10015" class="clusterblast-orf" id="dummy-1_h1_9_42"  />
</g>
<g id="a1_0043"  >
<polygon points="747,85 752,80 757,80 757,90 752,90 747,85 " style="fill:white; stroke-width:1; stroke:black; " description="&lt;b&gt;BT364_RS10020&lt;/b&gt;&lt;br&gt;DUF1275 domain-containing protein&lt;br&gt;Location: 246470 - 247176" locus_tag="BT364_RS10020" class="clusterblast-orf" id="dummy-1_h1_9_43"  />
</g>
<g id="a1_0044"  >
<polygon points="761,90 767,90 772,85 767,80 761,80 761,90 " style="fill:white; stroke-width:1; stroke:black; " description="&lt;b&gt;BT364_RS10025&lt;/b&gt;&lt;br&gt;DUF4389 domain-containing protein&lt;br&gt;Location: 247461 - 248237" locus_tag="BT364_RS10025" class="clusterblast-orf" id="dummy-1_h1_9_44"  />
</g>
<g id="a1_0045"  >
<polygon points="772,90 775,90 780,85 775,80 772,80 772,90 " style="fill:white; stroke-width:1; stroke:black; " description="&lt;b&gt;BT364_RS10030&lt;/b&gt;&lt;br&gt;DinB family protein&lt;br&gt;Location: 248281 - 248796" locus_tag="BT364_RS10030" class="clusterblast-orf" id="dummy-1_h1_9_45"  />
</g>
</svg>
