<svg xmlns="http://www.w3.org/2000/svg" xmlns:xlink="http://www.w3.org/1999/xlink" version="1.1" x="0" y="0" height="230" width="800" viewBox="0 0 800 230" preserveAspectRatio="none"  >
<g label="Query sequence" class="clusterblast-cluster"  >
<text x="5" y="20" class="clusterblast-acc"  >
Query sequence</text>
<line x1="10" y1="35" x2="778.0" y2="35" style="stroke-width:1; stroke:grey; "  />
<polygon points="125,35 130,30 167,30 167,40 130,40 125,35 " style="fill:#d81515; stroke-width:1; stroke:black; " description="&lt;b&gt;ctg19_63&lt;/b&gt;&lt;br&gt;ctg19 63&lt;br&gt;Location: 70846 - 72163" locus_tag="ctg19_63" class="clusterblast-orf" id="dummy-2_q0_0_all"  />
<polygon points="171,35 176,30 198,30 198,40 176,40 171,35 " style="fill:#4dd815; stroke-width:1; stroke:black; " description="&lt;b&gt;ctg19_64&lt;/b&gt;&lt;br&gt;ctg19 64&lt;br&gt;Location: 72291 - 73164" locus_tag="ctg19_64" class="clusterblast-orf" id="dummy-2_q1_0_all"  />
<polygon points="200,35 205,30 231,30 231,40 205,40 200,35 " style="fill:#1585d8; stroke-width:1; stroke:black; " description="&lt;b&gt;ctg19_65&lt;/b&gt;&lt;br&gt;ctg19 65&lt;br&gt;Location: 73213 - 74197" locus_tag="ctg19_65" class="clusterblast-orf" id="dummy-2_q2_0_all"  />
<polygon points="236,40 258,40 263,35 258,30 236,30 236,40 " style="fill:#a115d8; stroke-width:1; stroke:black; " description="&lt;b&gt;ctg19_66&lt;/b&gt;&lt;br&gt;ctg19 66&lt;br&gt;Location: 74353 - 75220" locus_tag="ctg19_66" class="clusterblast-orf" id="dummy-2_q3_0_all"  />
<polygon points="281,35 286,30 309,30 309,40 286,40 281,35 " style="fill:#d86915; stroke-width:1; stroke:black; " description="&lt;b&gt;ctg19_67&lt;/b&gt;&lt;br&gt;ctg19 67&lt;br&gt;Location: 75771 - 76653" locus_tag="ctg19_67" class="clusterblast-orf" id="dummy-2_q4_0_all"  />
<polygon points="313,40 334,40 339,35 334,30 313,30 313,40 " style="fill:#15d831; stroke-width:1; stroke:black; " description="&lt;b&gt;ctg19_68&lt;/b&gt;&lt;br&gt;ctg19 68&lt;br&gt;Location: 76785 - 77616" locus_tag="ctg19_68" class="clusterblast-orf" id="dummy-2_q5_0_all"  />
<polygon points="339,40 353,40 358,35 353,30 339,30 339,40 " style="fill:#1531d8; stroke-width:1; stroke:black; " description="&lt;b&gt;ctg19_69&lt;/b&gt;&lt;br&gt;ctg19 69&lt;br&gt;Location: 77620 - 78211" locus_tag="ctg19_69" class="clusterblast-orf" id="dummy-2_q6_0_all"  />
<polygon points="359,40 374,40 379,35 374,30 359,30 359,40 " style="fill:#d815bc; stroke-width:1; stroke:black; " description="&lt;b&gt;ctg19_70&lt;/b&gt;&lt;br&gt;ctg19 70&lt;br&gt;Location: 78245 - 78887" locus_tag="ctg19_70" class="clusterblast-orf" id="dummy-2_q7_0_all"  />
<polygon points="378,35 383,30 414,30 414,40 383,40 378,35 " style="fill:#d8bc15; stroke-width:1; stroke:black; " description="&lt;b&gt;ctg19_71&lt;/b&gt;&lt;br&gt;ctg19 71&lt;br&gt;Location: 78859 - 79996" locus_tag="ctg19_71" class="clusterblast-orf" id="dummy-2_q8_0_all"  />
<polygon points="420,40 424,35 420,30 420,40 " style="fill:white; stroke-width:1; stroke:black; " description="&lt;b&gt;ctg19_72&lt;/b&gt;&lt;br&gt;ctg19 72&lt;br&gt;Location: 80184 - 80313" locus_tag="ctg19_72" class="clusterblast-orf" id="dummy-2_q9_0_all"  />
<polygon points="426,40 511,40 516,35 511,30 426,30 426,40 " style="fill:#15d885; stroke-width:1; stroke:black; " description="&lt;b&gt;ctg19_73&lt;/b&gt;&lt;br&gt;ctg19 73&lt;br&gt;Location: 80374 - 83221" locus_tag="ctg19_73" class="clusterblast-orf" id="dummy-2_q10_0_all"  />
<polygon points="519,40 551,40 556,35 551,30 519,30 519,40 " style="fill:#4d15d8; stroke-width:1; stroke:black; " description="&lt;b&gt;ctg19_74&lt;/b&gt;&lt;br&gt;ctg19 74&lt;br&gt;Location: 83315 - 84488" locus_tag="ctg19_74" class="clusterblast-orf" id="dummy-2_q11_0_all"  />
<polygon points="557,35 562,30 573,30 573,40 562,40 557,35 " style="fill:#d81569; stroke-width:1; stroke:black; " description="&lt;b&gt;ctg19_75&lt;/b&gt;&lt;br&gt;ctg19 75&lt;br&gt;Location: 84512 - 85004" locus_tag="ctg19_75" class="clusterblast-orf" id="dummy-2_q12_0_all"  />
<polygon points="583,35 588,30 626,30 626,40 588,40 583,35 " style="fill:#a1d815; stroke-width:1; stroke:black; " description="&lt;b&gt;ctg19_76&lt;/b&gt;&lt;br&gt;ctg19 76&lt;br&gt;Location: 85324 - 86704" locus_tag="ctg19_76" class="clusterblast-orf" id="dummy-2_q13_0_all"  />
<polygon points="626,35 631,30 632,30 632,40 631,40 626,35 " style="fill:#15d8d8; stroke-width:1; stroke:black; " description="&lt;b&gt;ctg19_77&lt;/b&gt;&lt;br&gt;ctg19 77&lt;br&gt;Location: 86703 - 86892" locus_tag="ctg19_77" class="clusterblast-orf" id="dummy-2_q14_0_all"  />
<polygon points="640,35 645,30 655,30 655,40 645,40 640,35 " style="fill:white; stroke-width:1; stroke:black; " description="&lt;b&gt;ctg19_78&lt;/b&gt;&lt;br&gt;ctg19 78&lt;br&gt;Location: 87125 - 87593" locus_tag="ctg19_78" class="clusterblast-orf" id="dummy-2_q15_0_all"  />
</g>
<g label="NZ_CM001439" description="NZ_CM001439_c1: Saccharomonospora marina XMU15 chromosome, whole genome shotg... (15% of genes show similarity), lantipeptide" class="clusterblast-cluster"  >
<text x="5" y="70" class="clusterblast-acc"  >
<a xlink:href="https://antismash-db.secondarymetabolites.org/go/NZ_CM001439/1" target="_blank">NZ_CM001439_c1</a>: Saccharomonospora marina XMU15 chromosome, whole genome shotg... (15% of genes show similarity), lantipeptide</text>
<line x1="10" y1="85" x2="778.0" y2="85" style="stroke-width:1; stroke:grey; "  />
</g>
<g id="a2_000"  >
<polygon points="0,85 5,80 13,80 13,90 5,90 0,85 " style="fill:white; stroke-width:1; stroke:black; " description="&lt;b&gt;SACMADRAFT_RS28820&lt;/b&gt;&lt;br&gt;NUDIX hydrolase&lt;br&gt;Location: 88976 - 89404" locus_tag="SACMADRAFT_RS28820" class="clusterblast-orf" id="dummy-2_h2_10_0"  />
</g>
<g id="a2_001"  >
<polygon points="16,85 21,80 31,80 31,90 21,90 16,85 " style="fill:white; stroke-width:1; stroke:black; " description="&lt;b&gt;SACMADRAFT_RS28345&lt;/b&gt;&lt;br&gt;hypothetical protein&lt;br&gt;Location: 89501 - 89968" locus_tag="SACMADRAFT_RS28345" class="clusterblast-orf" id="dummy-2_h2_10_1"  />
</g>
<g id="a2_002"  >
<polygon points="36,85 41,80 106,80 106,90 41,90 36,85 " style="fill:white; stroke-width:1; stroke:black; " description="&lt;b&gt;SACMADRAFT_RS00485&lt;/b&gt;&lt;br&gt;hypothetical protein&lt;br&gt;Location: 90129 - 92351" locus_tag="SACMADRAFT_RS00485" class="clusterblast-orf" id="dummy-2_h2_10_2"  />
</g>
<g id="a2_003"  >
<polygon points="109,85 114,80 168,80 168,90 114,90 109,85 " style="fill:white; stroke-width:1; stroke:black; " description="&lt;b&gt;SACMADRAFT_RS00490&lt;/b&gt;&lt;br&gt;hypothetical protein&lt;br&gt;Location: 92432 - 94297" locus_tag="SACMADRAFT_RS00490" class="clusterblast-orf" id="dummy-2_h2_10_3"  />
</g>
<g id="a2_004"  >
<polygon points="172,85 177,80 218,80 218,90 177,90 172,85 " style="fill:white; stroke-width:1; stroke:black; " description="&lt;b&gt;SACMADRAFT_RS00495&lt;/b&gt;&lt;br&gt;recombinase XerD&lt;br&gt;Location: 94417 - 95871" locus_tag="SACMADRAFT_RS00495" class="clusterblast-orf" id="dummy-2_h2_10_4"  />
</g>
<g id="a2_005"  >
<polygon points="221,85 226,80 227,80 227,90 226,90 221,85 " style="fill:white; stroke-width:1; stroke:black; " description="&lt;b&gt;SACMADRAFT_RS00500&lt;/b&gt;&lt;br&gt;DNA mismatch repair protein MutT&lt;br&gt;Location: 95974 - 96183" locus_tag="SACMADRAFT_RS00500" class="clusterblast-orf" id="dummy-2_h2_10_5"  />
</g>
<g id="a2_006"  >
<polygon points="227,85 232,80 239,80 239,90 232,90 227,85 " style="fill:white; stroke-width:1; stroke:black; " description="&lt;b&gt;SACMADRAFT_RS00505&lt;/b&gt;&lt;br&gt;hypothetical protein&lt;br&gt;Location: 96176 - 96535" locus_tag="SACMADRAFT_RS00505" class="clusterblast-orf" id="dummy-2_h2_10_6"  />
</g>
<g id="a2_007"  >
<polygon points="239,85 244,80 280,80 280,90 244,90 239,85 " style="fill:white; stroke-width:1; stroke:black; " description="&lt;b&gt;SACMADRAFT_RS00510&lt;/b&gt;&lt;br&gt;transcriptional regulator&lt;br&gt;Location: 96550 - 97833" locus_tag="SACMADRAFT_RS00510" class="clusterblast-orf" id="dummy-2_h2_10_7"  />
</g>
<g id="a2_008"  >
<polygon points="294,90 295,90 300,85 295,80 294,80 294,90 " style="fill:white; stroke-width:1; stroke:black; " description="&lt;b&gt;SACMADRAFT_RS28825&lt;/b&gt;&lt;br&gt;FxLD family lantipeptide&lt;br&gt;Location: 98293 - 98466" locus_tag="SACMADRAFT_RS28825" class="clusterblast-orf" id="dummy-2_h2_10_8"  />
</g>
<g id="a2_009"  >
<polygon points="302,90 396,90 401,85 396,80 302,80 302,90 " style="fill:#15d885; stroke-width:1; stroke:black; " description="&lt;b&gt;SACMADRAFT_RS00515&lt;/b&gt;&lt;br&gt;bacteriocin biosynthesis protein&lt;br&gt;Location: 98548 - 101661&lt;br&gt;&lt;br&gt;&lt;b&gt;BlastP hit with ctg19_73&lt;/b&gt;&lt;br&gt;Percentage identity: 32&lt;br&gt;Percentage coverage: 101&lt;br&gt;BLAST bit score: 362&lt;br&gt;E-value: 1.3e-97" locus_tag="SACMADRAFT_RS00515" class="clusterblast-orf" id="dummy-2_h2_10_9"  />
</g>
<g id="a2_0010"  >
<polygon points="401,90 435,90 440,85 435,80 401,80 401,90 " style="fill:#4d15d8; stroke-width:1; stroke:black; " description="&lt;b&gt;SACMADRAFT_RS00520&lt;/b&gt;&lt;br&gt;lanthionine synthetase&lt;br&gt;Location: 101658 - 102908&lt;br&gt;&lt;br&gt;&lt;b&gt;BlastP hit with ctg19_74&lt;/b&gt;&lt;br&gt;Percentage identity: 33&lt;br&gt;Percentage coverage: 109&lt;br&gt;BLAST bit score: 148&lt;br&gt;E-value: 1.6e-33" locus_tag="SACMADRAFT_RS00520" class="clusterblast-orf" id="dummy-2_h2_10_10"  />
</g>
<g id="a2_0011"  >
<polygon points="442,90 503,90 508,85 503,80 442,80 442,90 " style="fill:white; stroke-width:1; stroke:black; " description="&lt;b&gt;SACMADRAFT_RS28830&lt;/b&gt;&lt;br&gt;methyltransferase, FxLD system&lt;br&gt;Location: 102954 - 105047" locus_tag="SACMADRAFT_RS28830" class="clusterblast-orf" id="dummy-2_h2_10_11"  />
</g>
<g id="a2_0012"  >
<polygon points="508,90 538,90 543,85 538,80 508,80 508,90 " style="fill:white; stroke-width:1; stroke:black; " description="&lt;b&gt;SACMADRAFT_RS00530&lt;/b&gt;&lt;br&gt;hypothetical protein&lt;br&gt;Location: 105053 - 106171" locus_tag="SACMADRAFT_RS00530" class="clusterblast-orf" id="dummy-2_h2_10_12"  />
</g>
<g id="a2_0013"  >
<polygon points="547,90 561,90 566,85 561,80 547,80 547,90 " style="fill:white; stroke-width:1; stroke:black; " description="&lt;b&gt;SACMADRAFT_RS00535&lt;/b&gt;&lt;br&gt;protein-L-isoaspartate carboxylmethyltransferase&lt;br&gt;Location: 106291 - 106884" locus_tag="SACMADRAFT_RS00535" class="clusterblast-orf" id="dummy-2_h2_10_13"  />
</g>
<g id="a2_0014"  >
<polygon points="568,85 573,80 601,80 601,90 573,90 568,85 " style="fill:white; stroke-width:1; stroke:black; " description="&lt;b&gt;SACMADRAFT_RS00540&lt;/b&gt;&lt;br&gt;PDZ domain-containing protein&lt;br&gt;Location: 106955 - 107992" locus_tag="SACMADRAFT_RS00540" class="clusterblast-orf" id="dummy-2_h2_10_14"  />
</g>
<g id="a2_0015"  >
<polygon points="601,85 606,80 631,80 631,90 606,90 601,85 " style="fill:#a115d8; stroke-width:1; stroke:black; " description="&lt;b&gt;SACMADRAFT_RS00545&lt;/b&gt;&lt;br&gt;protease HtpX&lt;br&gt;Location: 107989 - 108942&lt;br&gt;&lt;br&gt;&lt;b&gt;BlastP hit with ctg19_66&lt;/b&gt;&lt;br&gt;Percentage identity: 60&lt;br&gt;Percentage coverage: 97&lt;br&gt;BLAST bit score: 300&lt;br&gt;E-value: 1.9e-79" locus_tag="SACMADRAFT_RS00545" class="clusterblast-orf" id="dummy-2_h2_10_15"  />
</g>
<g id="a2_0016"  >
<polygon points="632,85 637,80 716,80 716,90 637,90 632,85 " style="fill:white; stroke-width:1; stroke:black; " description="&lt;b&gt;SACMADRAFT_RS00550&lt;/b&gt;&lt;br&gt;ATP-dependent chaperone ClpB&lt;br&gt;Location: 108979 - 111648" locus_tag="SACMADRAFT_RS00550" class="clusterblast-orf" id="dummy-2_h2_10_16"  />
</g>
<g id="a2_0017"  >
<polygon points="717,85 722,80 728,80 728,90 722,90 717,85 " style="fill:white; stroke-width:1; stroke:black; " description="&lt;b&gt;SACMADRAFT_RS00555&lt;/b&gt;&lt;br&gt;MerR family transcriptional regulator&lt;br&gt;Location: 111652 - 112008" locus_tag="SACMADRAFT_RS00555" class="clusterblast-orf" id="dummy-2_h2_10_17"  />
</g>
<g id="a2_0018"  >
<polygon points="728,85 733,80 759,80 759,90 733,90 728,85 " style="fill:white; stroke-width:1; stroke:black; " description="&lt;b&gt;SACMADRAFT_RS00560&lt;/b&gt;&lt;br&gt;cytochrome c biogenesis protein&lt;br&gt;Location: 112005 - 112997" locus_tag="SACMADRAFT_RS00560" class="clusterblast-orf" id="dummy-2_h2_10_18"  />
</g>
<g id="a2_0019"  >
<polygon points="759,85 764,80 780,80 780,90 764,90 759,85 " style="fill:white; stroke-width:1; stroke:black; " description="&lt;b&gt;SACMADRAFT_RS00565&lt;/b&gt;&lt;br&gt;nucleotide exchange factor GrpE&lt;br&gt;Location: 113004 - 113642" locus_tag="SACMADRAFT_RS00565" class="clusterblast-orf" id="dummy-2_h2_10_19"  />
</g>
</svg>
