<svg xmlns="http://www.w3.org/2000/svg" xmlns:xlink="http://www.w3.org/1999/xlink" version="1.1" x="0" y="0" height="230" width="800" viewBox="0 0 800 230" preserveAspectRatio="none"  >
<g label="Query sequence" class="clusterblast-cluster"  >
<text x="5" y="20" class="clusterblast-acc"  >
Query sequence</text>
<line x1="10" y1="35" x2="778.0" y2="35" style="stroke-width:1; stroke:grey; "  />
<polygon points="286,35 289,30 289,40 286,35 " style="fill:white; stroke-width:1; stroke:black; " description="&lt;b&gt;ctg28_1&lt;/b&gt;&lt;br&gt;ctg28 1&lt;br&gt;Location: 0 - 228" locus_tag="ctg28_1" class="clusterblast-orf" id="dummy-1_q0_0_all"  />
<polygon points="290,40 292,40 297,35 292,30 290,30 290,40 " style="fill:white; stroke-width:1; stroke:black; " description="&lt;b&gt;ctg28_2&lt;/b&gt;&lt;br&gt;ctg28 2&lt;br&gt;Location: 273 - 906" locus_tag="ctg28_2" class="clusterblast-orf" id="dummy-1_q1_0_all"  />
<polygon points="297,40 297,40 302,35 297,30 297,30 297,40 " style="fill:white; stroke-width:1; stroke:black; " description="&lt;b&gt;ctg28_3&lt;/b&gt;&lt;br&gt;ctg28 3&lt;br&gt;Location: 902 - 1358" locus_tag="ctg28_3" class="clusterblast-orf" id="dummy-1_q2_0_all"  />
<polygon points="303,35 308,30 314,30 314,40 308,40 303,35 " style="fill:#d81515; stroke-width:1; stroke:black; " description="&lt;b&gt;ctg28_4&lt;/b&gt;&lt;br&gt;ctg28 4&lt;br&gt;Location: 1362 - 2313" locus_tag="ctg28_4" class="clusterblast-orf" id="dummy-1_q3_0_all"  />
<polygon points="314,35 319,30 333,30 333,40 319,40 314,35 " style="fill:#77d815; stroke-width:1; stroke:black; " description="&lt;b&gt;ctg28_5&lt;/b&gt;&lt;br&gt;ctg28 5&lt;br&gt;Location: 2309 - 3920" locus_tag="ctg28_5" class="clusterblast-orf" id="dummy-1_q4_0_all"  />
<polygon points="333,35 338,30 342,30 342,40 338,40 333,35 " style="fill:#15d8d8; stroke-width:1; stroke:black; " description="&lt;b&gt;ctg28_6&lt;/b&gt;&lt;br&gt;ctg28 6&lt;br&gt;Location: 3925 - 4675" locus_tag="ctg28_6" class="clusterblast-orf" id="dummy-1_q5_0_all"  />
<polygon points="342,35 347,30 356,30 356,40 347,40 342,35 " style="fill:#7715d8; stroke-width:1; stroke:black; " description="&lt;b&gt;ctg28_7&lt;/b&gt;&lt;br&gt;ctg28 7&lt;br&gt;Location: 4676 - 5867" locus_tag="ctg28_7" class="clusterblast-orf" id="dummy-1_q6_0_all"  />
<polygon points="356,35 361,30 365,30 365,40 361,40 356,35 " style="fill:#15d8d8; stroke-width:1; stroke:black; " description="&lt;b&gt;ctg28_8&lt;/b&gt;&lt;br&gt;ctg28 8&lt;br&gt;Location: 5863 - 6598" locus_tag="ctg28_8" class="clusterblast-orf" id="dummy-1_q7_0_all"  />
<polygon points="365,35 370,30 376,30 376,40 370,40 365,35 " style="fill:#d8a715; stroke-width:1; stroke:black; " description="&lt;b&gt;ctg28_9&lt;/b&gt;&lt;br&gt;ctg28 9&lt;br&gt;Location: 6590 - 7517" locus_tag="ctg28_9" class="clusterblast-orf" id="dummy-1_q8_0_all"  />
<polygon points="376,35 381,30 382,30 382,40 381,40 376,35 " style="fill:#15d846; stroke-width:1; stroke:black; " description="&lt;b&gt;ctg28_10&lt;/b&gt;&lt;br&gt;ctg28 10&lt;br&gt;Location: 7581 - 8097" locus_tag="ctg28_10" class="clusterblast-orf" id="dummy-1_q9_0_all"  />
<polygon points="383,40 394,40 399,35 394,30 383,30 383,40 " style="fill:#1546d8; stroke-width:1; stroke:black; " description="&lt;b&gt;ctg28_11&lt;/b&gt;&lt;br&gt;ctg28 11&lt;br&gt;Location: 8163 - 9498" locus_tag="ctg28_11" class="clusterblast-orf" id="dummy-1_q10_0_all"  />
<polygon points="400,40 402,40 407,35 402,30 400,30 400,40 " style="fill:white; stroke-width:1; stroke:black; " description="&lt;b&gt;ctg28_12&lt;/b&gt;&lt;br&gt;ctg28 12&lt;br&gt;Location: 9580 - 10147" locus_tag="ctg28_12" class="clusterblast-orf" id="dummy-1_q11_0_all"  />
<polygon points="407,40 409,40 414,35 409,30 407,30 407,40 " style="fill:white; stroke-width:1; stroke:black; " description="&lt;b&gt;ctg28_13&lt;/b&gt;&lt;br&gt;ctg28 13&lt;br&gt;Location: 10182 - 10761" locus_tag="ctg28_13" class="clusterblast-orf" id="dummy-1_q12_0_all"  />
<polygon points="414,35 419,30 419,30 419,40 419,40 414,35 " style="fill:white; stroke-width:1; stroke:black; " description="&lt;b&gt;ctg28_14&lt;/b&gt;&lt;br&gt;ctg28 14&lt;br&gt;Location: 10764 - 11163" locus_tag="ctg28_14" class="clusterblast-orf" id="dummy-1_q13_0_all"  />
<polygon points="428,35 433,30 434,30 434,40 433,40 428,35 " style="fill:white; stroke-width:1; stroke:black; " description="&lt;b&gt;ctg28_15&lt;/b&gt;&lt;br&gt;ctg28 15&lt;br&gt;Location: 11945 - 12437" locus_tag="ctg28_15" class="clusterblast-orf" id="dummy-1_q14_0_all"  />
<polygon points="435,40 438,40 443,35 438,30 435,30 435,40 " style="fill:white; stroke-width:1; stroke:black; " description="&lt;b&gt;ctg28_16&lt;/b&gt;&lt;br&gt;ctg28 16&lt;br&gt;Location: 12553 - 13216" locus_tag="ctg28_16" class="clusterblast-orf" id="dummy-1_q15_0_all"  />
<polygon points="443,35 448,30 451,30 451,40 448,40 443,35 " style="fill:white; stroke-width:1; stroke:black; " description="&lt;b&gt;ctg28_17&lt;/b&gt;&lt;br&gt;ctg28 17&lt;br&gt;Location: 13216 - 13882" locus_tag="ctg28_17" class="clusterblast-orf" id="dummy-1_q16_0_all"  />
<polygon points="452,40 461,40 466,35 461,30 452,30 452,40 " style="fill:white; stroke-width:1; stroke:black; " description="&lt;b&gt;ctg28_18&lt;/b&gt;&lt;br&gt;ctg28 18&lt;br&gt;Location: 13938 - 15120" locus_tag="ctg28_18" class="clusterblast-orf" id="dummy-1_q17_0_all"  />
<polygon points="466,40 469,40 474,35 469,30 466,30 466,40 " style="fill:#d815a7; stroke-width:1; stroke:black; " description="&lt;b&gt;ctg28_19&lt;/b&gt;&lt;br&gt;ctg28 19&lt;br&gt;Location: 15107 - 15788" locus_tag="ctg28_19" class="clusterblast-orf" id="dummy-1_q18_0_all"  />
<polygon points="475,40 488,40 493,35 488,30 475,30 475,40 " style="fill:white; stroke-width:1; stroke:black; " description="&lt;b&gt;ctg28_20&lt;/b&gt;&lt;br&gt;ctg28 20&lt;br&gt;Location: 15866 - 17411" locus_tag="ctg28_20" class="clusterblast-orf" id="dummy-1_q19_0_all"  />
</g>
<g label="NZ_JNYZ01000007" description="NZ_JNYZ01000007_c5: Amycolatopsis jejuensis strain NRRL B-24427 contig7.1, wh... (14% of genes show similarity), nrps" class="clusterblast-cluster"  >
<text x="5" y="70" class="clusterblast-acc"  >
<a xlink:href="https://antismash-db.secondarymetabolites.org/go/NZ_JNYZ01000007/5" target="_blank">NZ_JNYZ01000007_c5</a>: Amycolatopsis jejuensis strain NRRL B-24427 contig7.1, wh... (14% of genes show similarity), nrps</text>
<line x1="10" y1="85" x2="778.0" y2="85" style="stroke-width:1; stroke:grey; "  />
</g>
<g id="a1_000"  >
<polygon points="0,85 5,80 9,80 9,90 5,90 0,85 " style="fill:white; stroke-width:1; stroke:black; " description="&lt;b&gt;OO71_RS10615&lt;/b&gt;&lt;br&gt;SDR family mycofactocin-dependent oxidoreductase&lt;br&gt;Location: 129539 - 128751" locus_tag="OO71_RS10615" class="clusterblast-orf" id="dummy-1_h1_2_0"  />
</g>
<g id="a1_001"  >
<polygon points="9,85 14,80 17,80 17,90 14,90 9,85 " style="fill:white; stroke-width:1; stroke:black; " description="&lt;b&gt;OO71_RS10610&lt;/b&gt;&lt;br&gt;mycofactocin biosynthesis peptidyl-dipeptidase MftE&lt;br&gt;Location: 128754 - 128071" locus_tag="OO71_RS10610" class="clusterblast-orf" id="dummy-1_h1_2_1"  />
</g>
<g id="a1_002"  >
<polygon points="17,85 22,80 31,80 31,90 22,90 17,85 " style="fill:white; stroke-width:1; stroke:black; " description="&lt;b&gt;OO71_RS10605&lt;/b&gt;&lt;br&gt;mycofactocin radical SAM maturase&lt;br&gt;Location: 128069 - 126897" locus_tag="OO71_RS10605" class="clusterblast-orf" id="dummy-1_h1_2_2"  />
</g>
<g id="a1_003"  >
<polygon points="31,85 34,80 34,90 31,85 " style="fill:white; stroke-width:1; stroke:black; " description="&lt;b&gt;OO71_RS10600&lt;/b&gt;&lt;br&gt;mycofactocin biosynthesis chaperone MftB&lt;br&gt;Location: 126897 - 126604" locus_tag="OO71_RS10600" class="clusterblast-orf" id="dummy-1_h1_2_3"  />
</g>
<g id="a1_004"  >
<polygon points="34,85 35,80 35,90 34,85 " style="fill:white; stroke-width:1; stroke:black; " description="&lt;b&gt;OO71_RS10595&lt;/b&gt;&lt;br&gt;mycofactocin precursor&lt;br&gt;Location: 126614 - 126513" locus_tag="OO71_RS10595" class="clusterblast-orf" id="dummy-1_h1_2_4"  />
</g>
<g id="a1_005"  >
<polygon points="37,85 42,80 47,80 47,90 42,90 37,85 " style="fill:white; stroke-width:1; stroke:black; " description="&lt;b&gt;OO71_RS10590&lt;/b&gt;&lt;br&gt;hypothetical protein&lt;br&gt;Location: 126385 - 125540" locus_tag="OO71_RS10590" class="clusterblast-orf" id="dummy-1_h1_2_5"  />
</g>
<g id="a1_006"  >
<polygon points="47,85 52,80 58,80 58,90 52,90 47,85 " style="fill:white; stroke-width:1; stroke:black; " description="&lt;b&gt;OO71_RS10585&lt;/b&gt;&lt;br&gt;Lrp/AsnC family transcriptional regulator&lt;br&gt;Location: 125530 - 124571" locus_tag="OO71_RS10585" class="clusterblast-orf" id="dummy-1_h1_2_6"  />
</g>
<g id="a1_007"  >
<polygon points="59,90 67,90 72,85 67,80 59,80 59,90 " style="fill:white; stroke-width:1; stroke:black; " description="&lt;b&gt;OO71_RS10580&lt;/b&gt;&lt;br&gt;NADP-dependent oxidoreductase&lt;br&gt;Location: 124481 - 123399" locus_tag="OO71_RS10580" class="clusterblast-orf" id="dummy-1_h1_2_7"  />
</g>
<g id="a1_008"  >
<polygon points="73,90 76,85 73,80 73,90 " style="fill:white; stroke-width:1; stroke:black; " description="&lt;b&gt;OO71_RS47260&lt;/b&gt;&lt;br&gt;antibiotic biosynthesis monooxygenase&lt;br&gt;Location: 123384 - 123073" locus_tag="OO71_RS47260" class="clusterblast-orf" id="dummy-1_h1_2_8"  />
</g>
<g id="a1_009"  >
<polygon points="77,90 79,90 84,85 79,80 77,80 77,90 " style="fill:white; stroke-width:1; stroke:black; " description="&lt;b&gt;OO71_RS48685&lt;/b&gt;&lt;br&gt;peptidase&lt;br&gt;Location: 122993 - 122424" locus_tag="OO71_RS48685" class="clusterblast-orf" id="dummy-1_h1_2_9"  />
</g>
<g id="a1_0010"  >
<polygon points="86,90 91,90 96,85 91,80 86,80 86,90 " style="fill:white; stroke-width:1; stroke:black; " description="&lt;b&gt;OO71_RS48680&lt;/b&gt;&lt;br&gt;hypothetical protein&lt;br&gt;Location: 122228 - 121431" locus_tag="OO71_RS48680" class="clusterblast-orf" id="dummy-1_h1_2_10"  />
</g>
<g id="a1_0011"  >
<polygon points="103,90 104,90 109,85 104,80 103,80 103,90 " style="fill:white; stroke-width:1; stroke:black; " description="&lt;b&gt;OO71_RS10565&lt;/b&gt;&lt;br&gt;DUF5134 domain-containing protein&lt;br&gt;Location: 120837 - 120274" locus_tag="OO71_RS10565" class="clusterblast-orf" id="dummy-1_h1_2_11"  />
</g>
<g id="a1_0012"  >
<polygon points="109,85 114,80 118,80 118,90 114,90 109,85 " style="fill:white; stroke-width:1; stroke:black; " description="&lt;b&gt;OO71_RS10560&lt;/b&gt;&lt;br&gt;membrane protein&lt;br&gt;Location: 120273 - 119545" locus_tag="OO71_RS10560" class="clusterblast-orf" id="dummy-1_h1_2_12"  />
</g>
<g id="a1_0013"  >
<polygon points="119,90 121,90 126,85 121,80 119,80 119,90 " style="fill:white; stroke-width:1; stroke:black; " description="&lt;b&gt;OO71_RS10555&lt;/b&gt;&lt;br&gt;RNA polymerase sigma factor SigC&lt;br&gt;Location: 119441 - 118866" locus_tag="OO71_RS10555" class="clusterblast-orf" id="dummy-1_h1_2_13"  />
</g>
<g id="a1_0014"  >
<polygon points="128,90 146,90 151,85 146,80 128,80 128,90 " style="fill:white; stroke-width:1; stroke:black; " description="&lt;b&gt;OO71_RS10550&lt;/b&gt;&lt;br&gt;cytochrome c oxidase assembly protein&lt;br&gt;Location: 118693 - 116753" locus_tag="OO71_RS10550" class="clusterblast-orf" id="dummy-1_h1_2_14"  />
</g>
<g id="a1_0015"  >
<polygon points="153,85 156,80 156,90 153,85 " style="fill:white; stroke-width:1; stroke:black; " description="&lt;b&gt;OO71_RS10545&lt;/b&gt;&lt;br&gt;hypothetical protein&lt;br&gt;Location: 116566 - 116327" locus_tag="OO71_RS10545" class="clusterblast-orf" id="dummy-1_h1_2_15"  />
</g>
<g id="a1_0016"  >
<polygon points="158,90 180,90 185,85 180,80 158,80 158,90 " style="fill:white; stroke-width:1; stroke:black; " description="&lt;b&gt;OO71_RS10540&lt;/b&gt;&lt;br&gt;heavy metal translocating P-type ATPase&lt;br&gt;Location: 116147 - 113910" locus_tag="OO71_RS10540" class="clusterblast-orf" id="dummy-1_h1_2_16"  />
</g>
<g id="a1_0017"  >
<polygon points="190,90 193,90 198,85 193,80 190,80 190,90 " style="fill:white; stroke-width:1; stroke:black; " description="&lt;b&gt;OO71_RS10535&lt;/b&gt;&lt;br&gt;2,3-dihydro-2,3-dihydroxybenzoate dehydrogenase&lt;br&gt;Location: 113485 - 112763" locus_tag="OO71_RS10535" class="clusterblast-orf" id="dummy-1_h1_2_17"  />
</g>
<g id="a1_0018"  >
<polygon points="201,90 204,85 201,80 201,90 " style="fill:white; stroke-width:1; stroke:black; " description="&lt;b&gt;OO71_RS48675&lt;/b&gt;&lt;br&gt;isochorismate synthase&lt;br&gt;Location: 112585 - 112292" locus_tag="OO71_RS48675" class="clusterblast-orf" id="dummy-1_h1_2_18"  />
</g>
<g id="a1_0019"  >
<polygon points="209,90 215,90 220,85 215,80 209,80 209,90 " style="fill:white; stroke-width:1; stroke:black; " description="&lt;b&gt;OO71_RS10530&lt;/b&gt;&lt;br&gt;isochorismate synthase&lt;br&gt;Location: 111841 - 110909" locus_tag="OO71_RS10530" class="clusterblast-orf" id="dummy-1_h1_2_19"  />
</g>
<g id="a1_0020"  >
<polygon points="227,90 237,90 242,85 237,80 227,80 227,90 " style="fill:white; stroke-width:1; stroke:black; " description="&lt;b&gt;OO71_RS10525&lt;/b&gt;&lt;br&gt;hypothetical protein&lt;br&gt;Location: 110338 - 109064" locus_tag="OO71_RS10525" class="clusterblast-orf" id="dummy-1_h1_2_20"  />
</g>
<g id="a1_0021"  >
<polygon points="242,90 245,90 250,85 245,80 242,80 242,90 " style="fill:white; stroke-width:1; stroke:black; " description="&lt;b&gt;OO71_RS10520&lt;/b&gt;&lt;br&gt;2,3-dihydro-2,3-dihydroxybenzoate synthetase&lt;br&gt;Location: 109060 - 108404" locus_tag="OO71_RS10520" class="clusterblast-orf" id="dummy-1_h1_2_21"  />
</g>
<g id="a1_0022"  >
<polygon points="250,90 253,85 250,80 250,90 " style="fill:white; stroke-width:1; stroke:black; " description="&lt;b&gt;OO71_RS10515&lt;/b&gt;&lt;br&gt;acyl carrier protein&lt;br&gt;Location: 108407 - 108174" locus_tag="OO71_RS10515" class="clusterblast-orf" id="dummy-1_h1_2_22"  />
</g>
<g id="a1_0023"  >
<polygon points="253,90 258,90 263,85 258,80 253,80 253,90 " style="fill:white; stroke-width:1; stroke:black; " description="&lt;b&gt;OO71_RS10510&lt;/b&gt;&lt;br&gt;siderophore-interacting protein&lt;br&gt;Location: 108177 - 107314" locus_tag="OO71_RS10510" class="clusterblast-orf" id="dummy-1_h1_2_23"  />
</g>
<g id="a1_0024"  >
<polygon points="264,90 270,90 275,85 270,80 264,80 264,90 " style="fill:white; stroke-width:1; stroke:black; " description="&lt;b&gt;OO71_RS10505&lt;/b&gt;&lt;br&gt;ABC transporter substrate-binding protein&lt;br&gt;Location: 107275 - 106286" locus_tag="OO71_RS10505" class="clusterblast-orf" id="dummy-1_h1_2_24"  />
</g>
<g id="a1_0025"  >
<polygon points="275,90 282,90 287,85 282,80 275,80 275,90 " style="fill:white; stroke-width:1; stroke:black; " description="&lt;b&gt;OO71_RS10500&lt;/b&gt;&lt;br&gt;iron ABC transporter permease&lt;br&gt;Location: 106289 - 105306" locus_tag="OO71_RS10500" class="clusterblast-orf" id="dummy-1_h1_2_25"  />
</g>
<g id="a1_0026"  >
<polygon points="287,90 294,90 299,85 294,80 287,80 287,90 " style="fill:white; stroke-width:1; stroke:black; " description="&lt;b&gt;OO71_RS10495&lt;/b&gt;&lt;br&gt;iron ABC transporter permease&lt;br&gt;Location: 105267 - 104287" locus_tag="OO71_RS10495" class="clusterblast-orf" id="dummy-1_h1_2_26"  />
</g>
<g id="a1_0027"  >
<polygon points="299,90 410,90 415,85 410,80 299,80 299,90 " style="fill:white; stroke-width:1; stroke:black; " description="&lt;b&gt;OO71_RS10490&lt;/b&gt;&lt;br&gt;non-ribosomal peptide synthetase&lt;br&gt;Location: 104290 - 94481" locus_tag="OO71_RS10490" class="clusterblast-orf" id="dummy-1_h1_2_27"  />
</g>
<g id="a1_0028"  >
<polygon points="415,90 427,90 432,85 427,80 415,80 415,90 " style="fill:white; stroke-width:1; stroke:black; " description="&lt;b&gt;OO71_RS10485&lt;/b&gt;&lt;br&gt;MFS transporter&lt;br&gt;Location: 94484 - 93117" locus_tag="OO71_RS10485" class="clusterblast-orf" id="dummy-1_h1_2_28"  />
</g>
<g id="a1_0029"  >
<polygon points="432,90 438,90 443,85 438,80 432,80 432,90 " style="fill:white; stroke-width:1; stroke:black; " description="&lt;b&gt;OO71_RS10480&lt;/b&gt;&lt;br&gt;3-deoxy-7-phosphoheptulonate synthase&lt;br&gt;Location: 93116 - 92109" locus_tag="OO71_RS10480" class="clusterblast-orf" id="dummy-1_h1_2_29"  />
</g>
<g id="a1_0030"  >
<polygon points="448,85 453,80 457,80 457,90 453,90 448,85 " style="fill:white; stroke-width:1; stroke:black; " description="&lt;b&gt;OO71_RS10475&lt;/b&gt;&lt;br&gt;transcriptional regulator&lt;br&gt;Location: 91762 - 90932" locus_tag="OO71_RS10475" class="clusterblast-orf" id="dummy-1_h1_2_30"  />
</g>
<g id="a1_0031"  >
<polygon points="459,90 473,90 478,85 473,80 459,80 459,90 " style="fill:white; stroke-width:1; stroke:black; " description="&lt;b&gt;OO71_RS10470&lt;/b&gt;&lt;br&gt;AMP-dependent synthetase&lt;br&gt;Location: 90805 - 89174" locus_tag="OO71_RS10470" class="clusterblast-orf" id="dummy-1_h1_2_31"  />
</g>
<g id="a1_0032"  >
<polygon points="479,90 484,90 489,85 484,80 479,80 479,90 " style="fill:white; stroke-width:1; stroke:black; " description="&lt;b&gt;OO71_RS10465&lt;/b&gt;&lt;br&gt;short-chain dehydrogenase&lt;br&gt;Location: 89135 - 88257" locus_tag="OO71_RS10465" class="clusterblast-orf" id="dummy-1_h1_2_32"  />
</g>
<g id="a1_0033"  >
<polygon points="489,85 494,80 497,80 497,90 494,90 489,85 " style="fill:white; stroke-width:1; stroke:black; " description="&lt;b&gt;OO71_RS47255&lt;/b&gt;&lt;br&gt;TetR family transcriptional regulator&lt;br&gt;Location: 88253 - 87600" locus_tag="OO71_RS47255" class="clusterblast-orf" id="dummy-1_h1_2_33"  />
</g>
<g id="a1_0034"  >
<polygon points="499,90 511,90 516,85 511,80 499,80 499,90 " style="fill:white; stroke-width:1; stroke:black; " description="&lt;b&gt;OO71_RS10455&lt;/b&gt;&lt;br&gt;MFS transporter&lt;br&gt;Location: 87432 - 86032" locus_tag="OO71_RS10455" class="clusterblast-orf" id="dummy-1_h1_2_34"  />
</g>
<g id="a1_0035"  >
<polygon points="516,85 521,80 527,80 527,90 521,90 516,85 " style="fill:#d81515; stroke-width:1; stroke:black; " description="&lt;b&gt;OO71_RS10450&lt;/b&gt;&lt;br&gt;2-nitropropane dioxygenase&lt;br&gt;Location: 86019 - 85060&lt;br&gt;&lt;br&gt;&lt;b&gt;BlastP hit with ctg28_4&lt;/b&gt;&lt;br&gt;Percentage identity: 69&lt;br&gt;Percentage coverage: 99&lt;br&gt;BLAST bit score: 398&lt;br&gt;E-value: 7.4e-109" locus_tag="OO71_RS10450" class="clusterblast-orf" id="dummy-1_h1_2_35"  />
</g>
<g id="a1_0036"  >
<polygon points="527,85 532,80 546,80 546,90 532,90 527,85 " style="fill:#77d815; stroke-width:1; stroke:black; " description="&lt;b&gt;OO71_RS10445&lt;/b&gt;&lt;br&gt;fatty-acid--CoA ligase&lt;br&gt;Location: 85063 - 83498&lt;br&gt;&lt;br&gt;&lt;b&gt;BlastP hit with ctg28_5&lt;/b&gt;&lt;br&gt;Percentage identity: 63&lt;br&gt;Percentage coverage: 99&lt;br&gt;BLAST bit score: 644&lt;br&gt;E-value: 1e-182" locus_tag="OO71_RS10445" class="clusterblast-orf" id="dummy-1_h1_2_36"  />
</g>
<g id="a1_0037"  >
<polygon points="546,85 551,80 554,80 554,90 551,90 546,85 " style="fill:#15d8d8; stroke-width:1; stroke:black; " description="&lt;b&gt;OO71_RS10440&lt;/b&gt;&lt;br&gt;enoyl-CoA hydratase/isomerase family protein&lt;br&gt;Location: 83501 - 82758&lt;br&gt;&lt;br&gt;&lt;b&gt;BlastP hit with ctg28_6&lt;/b&gt;&lt;br&gt;Percentage identity: 70&lt;br&gt;Percentage coverage: 94&lt;br&gt;BLAST bit score: 307&lt;br&gt;E-value: 1.3e-81&lt;br&gt;&lt;br&gt;&lt;b&gt;BlastP hit with ctg28_8&lt;/b&gt;&lt;br&gt;Percentage identity: 35&lt;br&gt;Percentage coverage: 96&lt;br&gt;BLAST bit score: 95&lt;br&gt;E-value: 1e-17" locus_tag="OO71_RS10440" class="clusterblast-orf" id="dummy-1_h1_2_37"  />
</g>
<g id="a1_0038"  >
<polygon points="554,85 559,80 569,80 569,90 559,90 554,85 " style="fill:#7715d8; stroke-width:1; stroke:black; " description="&lt;b&gt;OO71_RS10435&lt;/b&gt;&lt;br&gt;CoA transferase&lt;br&gt;Location: 82758 - 81568&lt;br&gt;&lt;br&gt;&lt;b&gt;BlastP hit with ctg28_7&lt;/b&gt;&lt;br&gt;Percentage identity: 69&lt;br&gt;Percentage coverage: 100&lt;br&gt;BLAST bit score: 548&lt;br&gt;E-value: 5.5e-154" locus_tag="OO71_RS10435" class="clusterblast-orf" id="dummy-1_h1_2_38"  />
</g>
<g id="a1_0039"  >
<polygon points="568,85 573,80 577,80 577,90 573,90 568,85 " style="fill:#15d8d8; stroke-width:1; stroke:black; " description="&lt;b&gt;OO71_RS10430&lt;/b&gt;&lt;br&gt;enoyl-CoA hydratase/isomerase family protein&lt;br&gt;Location: 81571 - 80837&lt;br&gt;&lt;br&gt;&lt;b&gt;BlastP hit with ctg28_6&lt;/b&gt;&lt;br&gt;Percentage identity: 35&lt;br&gt;Percentage coverage: 92&lt;br&gt;BLAST bit score: 103&lt;br&gt;E-value: 2.9e-20&lt;br&gt;&lt;br&gt;&lt;b&gt;BlastP hit with ctg28_8&lt;/b&gt;&lt;br&gt;Percentage identity: 65&lt;br&gt;Percentage coverage: 97&lt;br&gt;BLAST bit score: 299&lt;br&gt;E-value: 4.7e-79" locus_tag="OO71_RS10430" class="clusterblast-orf" id="dummy-1_h1_2_39"  />
</g>
<g id="a1_0040"  >
<polygon points="577,85 582,80 588,80 588,90 582,90 577,85 " style="fill:#d8a715; stroke-width:1; stroke:black; " description="&lt;b&gt;OO71_RS10425&lt;/b&gt;&lt;br&gt;hydroxymethylglutaryl-CoA lyase&lt;br&gt;Location: 80837 - 79923&lt;br&gt;&lt;br&gt;&lt;b&gt;BlastP hit with ctg28_9&lt;/b&gt;&lt;br&gt;Percentage identity: 74&lt;br&gt;Percentage coverage: 97&lt;br&gt;BLAST bit score: 448&lt;br&gt;E-value: 4.6e-124" locus_tag="OO71_RS10425" class="clusterblast-orf" id="dummy-1_h1_2_40"  />
</g>
<g id="a1_0041"  >
<polygon points="589,85 594,80 594,80 594,90 594,90 589,85 " style="fill:#15d846; stroke-width:1; stroke:black; " description="&lt;b&gt;OO71_RS10420&lt;/b&gt;&lt;br&gt;transcriptional regulator&lt;br&gt;Location: 79861 - 79388&lt;br&gt;&lt;br&gt;&lt;b&gt;BlastP hit with ctg28_10&lt;/b&gt;&lt;br&gt;Percentage identity: 63&lt;br&gt;Percentage coverage: 86&lt;br&gt;BLAST bit score: 168&lt;br&gt;E-value: 6.7e-40" locus_tag="OO71_RS10420" class="clusterblast-orf" id="dummy-1_h1_2_41"  />
</g>
<g id="a1_0042"  >
<polygon points="596,90 606,90 611,85 606,80 596,80 596,90 " style="fill:#1546d8; stroke-width:1; stroke:black; " description="&lt;b&gt;OO71_RS10415&lt;/b&gt;&lt;br&gt;MFS transporter&lt;br&gt;Location: 79290 - 77953&lt;br&gt;&lt;br&gt;&lt;b&gt;BlastP hit with ctg28_11&lt;/b&gt;&lt;br&gt;Percentage identity: 62&lt;br&gt;Percentage coverage: 99&lt;br&gt;BLAST bit score: 522&lt;br&gt;E-value: 6.2e-146" locus_tag="OO71_RS10415" class="clusterblast-orf" id="dummy-1_h1_2_42"  />
</g>
<g id="a1_0043"  >
<polygon points="612,90 623,90 628,85 623,80 612,80 612,90 " style="fill:white; stroke-width:1; stroke:black; " description="&lt;b&gt;OO71_RS10410&lt;/b&gt;&lt;br&gt;LytR family transcriptional regulator&lt;br&gt;Location: 77884 - 76583" locus_tag="OO71_RS10410" class="clusterblast-orf" id="dummy-1_h1_2_43"  />
</g>
<g id="a1_0044"  >
<polygon points="628,85 633,80 634,80 634,90 633,90 628,85 " style="fill:white; stroke-width:1; stroke:black; " description="&lt;b&gt;OO71_RS46345&lt;/b&gt;&lt;br&gt;hypothetical protein&lt;br&gt;Location: 76563 - 76087" locus_tag="OO71_RS46345" class="clusterblast-orf" id="dummy-1_h1_2_44"  />
</g>
<g id="a1_0045"  >
<polygon points="638,90 640,90 645,85 640,80 638,80 638,90 " style="fill:white; stroke-width:1; stroke:black; " description="&lt;b&gt;OO71_RS10400&lt;/b&gt;&lt;br&gt;DUF998 domain-containing protein&lt;br&gt;Location: 75745 - 75080" locus_tag="OO71_RS10400" class="clusterblast-orf" id="dummy-1_h1_2_45"  />
</g>
<g id="a1_0046"  >
<polygon points="645,90 664,90 669,85 664,80 645,80 645,90 " style="fill:white; stroke-width:1; stroke:black; " description="&lt;b&gt;OO71_RS10395&lt;/b&gt;&lt;br&gt;glycosyltransferase family 4 protein&lt;br&gt;Location: 75083 - 73062" locus_tag="OO71_RS10395" class="clusterblast-orf" id="dummy-1_h1_2_46"  />
</g>
<g id="a1_0047"  >
<polygon points="671,90 674,85 671,80 671,90 " style="fill:white; stroke-width:1; stroke:black; " description="&lt;b&gt;OO71_RS10390&lt;/b&gt;&lt;br&gt;hypothetical protein&lt;br&gt;Location: 72957 - 72676" locus_tag="OO71_RS10390" class="clusterblast-orf" id="dummy-1_h1_2_47"  />
</g>
<g id="a1_0048"  >
<polygon points="674,85 679,80 713,80 713,90 679,90 674,85 " style="fill:white; stroke-width:1; stroke:black; " description="&lt;b&gt;OO71_RS10385&lt;/b&gt;&lt;br&gt;alpha-mannosidase&lt;br&gt;Location: 72683 - 69414" locus_tag="OO71_RS10385" class="clusterblast-orf" id="dummy-1_h1_2_48"  />
</g>
<g id="a1_0049"  >
<polygon points="717,85 722,80 731,80 731,90 722,90 717,85 " style="fill:white; stroke-width:1; stroke:black; " description="&lt;b&gt;OO71_RS10380&lt;/b&gt;&lt;br&gt;sensor histidine kinase&lt;br&gt;Location: 69043 - 67838" locus_tag="OO71_RS10380" class="clusterblast-orf" id="dummy-1_h1_2_49"  />
</g>
<g id="a1_0050"  >
<polygon points="731,85 736,80 739,80 739,90 736,90 731,85 " style="fill:white; stroke-width:1; stroke:black; " description="&lt;b&gt;OO71_RS10375&lt;/b&gt;&lt;br&gt;DNA-binding response regulator&lt;br&gt;Location: 67841 - 67164" locus_tag="OO71_RS10375" class="clusterblast-orf" id="dummy-1_h1_2_50"  />
</g>
<g id="a1_0051"  >
<polygon points="739,85 744,80 746,80 746,90 744,90 739,85 " style="fill:white; stroke-width:1; stroke:black; " description="&lt;b&gt;OO71_RS47250&lt;/b&gt;&lt;br&gt;hypothetical protein&lt;br&gt;Location: 67161 - 66643" locus_tag="OO71_RS47250" class="clusterblast-orf" id="dummy-1_h1_2_51"  />
</g>
<g id="a1_0052"  >
<polygon points="748,90 756,90 761,85 756,80 748,80 748,90 " style="fill:white; stroke-width:1; stroke:black; " description="&lt;b&gt;OO71_RS10365&lt;/b&gt;&lt;br&gt;DUF418 domain-containing protein&lt;br&gt;Location: 66464 - 65343" locus_tag="OO71_RS10365" class="clusterblast-orf" id="dummy-1_h1_2_52"  />
</g>
<g id="a1_0053"  >
<polygon points="762,85 767,80 780,80 780,90 767,90 762,85 " style="fill:white; stroke-width:1; stroke:black; " description="&lt;b&gt;OO71_RS10360&lt;/b&gt;&lt;br&gt;methylmalonate-semialdehyde dehydrogenase (CoA acylating)&lt;br&gt;Location: 65272 - 63782" locus_tag="OO71_RS10360" class="clusterblast-orf" id="dummy-1_h1_2_53"  />
</g>
</svg>
