<svg xmlns="http://www.w3.org/2000/svg" xmlns:xlink="http://www.w3.org/1999/xlink" version="1.1" x="0" y="0" height="230" width="800" viewBox="0 0 800 230" preserveAspectRatio="none"  >
<g label="Query sequence" class="clusterblast-cluster"  >
<text x="5" y="20" class="clusterblast-acc"  >
Query sequence</text>
<line x1="10" y1="35" x2="778.0" y2="35" style="stroke-width:1; stroke:grey; "  />
<polygon points="111,40 131,40 136,35 131,30 111,30 111,40 " style="fill:white; stroke-width:1; stroke:black; " description="&lt;b&gt;ctg108_1&lt;/b&gt;&lt;br&gt;ctg108 1&lt;br&gt;Location: 2 - 1151" locus_tag="ctg108_1" class="clusterblast-orf" id="dummy-1_q0_0_all"  />
<polygon points="142,35 147,30 169,30 169,40 147,40 142,35 " style="fill:#d81515; stroke-width:1; stroke:black; " description="&lt;b&gt;ctg108_2&lt;/b&gt;&lt;br&gt;ctg108 2&lt;br&gt;Location: 1417 - 2638" locus_tag="ctg108_2" class="clusterblast-orf" id="dummy-1_q1_0_all"  />
<polygon points="169,35 174,30 190,30 190,40 174,40 169,35 " style="fill:#63d815; stroke-width:1; stroke:black; " description="&lt;b&gt;ctg108_3&lt;/b&gt;&lt;br&gt;ctg108 3&lt;br&gt;Location: 2660 - 3620" locus_tag="ctg108_3" class="clusterblast-orf" id="dummy-1_q2_0_all"  />
<polygon points="191,35 196,30 226,30 226,40 196,40 191,35 " style="fill:#15b1d8; stroke-width:1; stroke:black; " description="&lt;b&gt;ctg108_4&lt;/b&gt;&lt;br&gt;ctg108 4&lt;br&gt;Location: 3681 - 5262" locus_tag="ctg108_4" class="clusterblast-orf" id="dummy-1_q3_0_all"  />
<polygon points="226,35 231,30 361,30 361,40 231,40 226,35 " style="fill:#b115d8; stroke-width:1; stroke:black; " description="&lt;b&gt;ctg108_5&lt;/b&gt;&lt;br&gt;ctg108 5&lt;br&gt;Location: 5269 - 11404" locus_tag="ctg108_5" class="clusterblast-orf" id="dummy-1_q4_0_all"  />
<polygon points="361,35 366,30 396,30 396,40 366,40 361,35 " style="fill:#d86315; stroke-width:1; stroke:black; " description="&lt;b&gt;ctg108_6&lt;/b&gt;&lt;br&gt;ctg108 6&lt;br&gt;Location: 11400 - 13026" locus_tag="ctg108_6" class="clusterblast-orf" id="dummy-1_q5_0_all"  />
<polygon points="399,35 404,30 430,30 430,40 404,40 399,35 " style="fill:#15d815; stroke-width:1; stroke:black; " description="&lt;b&gt;ctg108_7&lt;/b&gt;&lt;br&gt;ctg108 7&lt;br&gt;Location: 13163 - 14585" locus_tag="ctg108_7" class="clusterblast-orf" id="dummy-1_q6_0_all"  />
<polygon points="430,35 435,30 451,30 451,40 435,40 430,35 " style="fill:#1563d8; stroke-width:1; stroke:black; " description="&lt;b&gt;ctg108_8&lt;/b&gt;&lt;br&gt;ctg108 8&lt;br&gt;Location: 14591 - 15524" locus_tag="ctg108_8" class="clusterblast-orf" id="dummy-1_q7_0_all"  />
<polygon points="451,35 456,30 486,30 486,40 456,40 451,35 " style="fill:#d815b1; stroke-width:1; stroke:black; " description="&lt;b&gt;ctg108_9&lt;/b&gt;&lt;br&gt;ctg108 9&lt;br&gt;Location: 15524 - 17135" locus_tag="ctg108_9" class="clusterblast-orf" id="dummy-1_q8_0_all"  />
<polygon points="486,35 491,30 530,30 530,40 491,40 486,35 " style="fill:#d8b115; stroke-width:1; stroke:black; " description="&lt;b&gt;ctg108_10&lt;/b&gt;&lt;br&gt;ctg108 10&lt;br&gt;Location: 17131 - 19117" locus_tag="ctg108_10" class="clusterblast-orf" id="dummy-1_q9_0_all"  />
<polygon points="533,40 556,40 561,35 556,30 533,30 533,40 " style="fill:#15d863; stroke-width:1; stroke:black; " description="&lt;b&gt;ctg108_11&lt;/b&gt;&lt;br&gt;ctg108 11&lt;br&gt;Location: 19287 - 20532" locus_tag="ctg108_11" class="clusterblast-orf" id="dummy-1_q10_0_all"  />
<polygon points="568,40 568,40 573,35 568,30 568,30 568,40 " style="fill:white; stroke-width:1; stroke:black; " description="&lt;b&gt;ctg108_12&lt;/b&gt;&lt;br&gt;ctg108 12&lt;br&gt;Location: 20867 - 21101" locus_tag="ctg108_12" class="clusterblast-orf" id="dummy-1_q11_0_all"  />
<polygon points="578,40 580,40 585,35 580,30 578,30 578,40 " style="fill:white; stroke-width:1; stroke:black; " description="&lt;b&gt;ctg108_13&lt;/b&gt;&lt;br&gt;ctg108 13&lt;br&gt;Location: 21335 - 21662" locus_tag="ctg108_13" class="clusterblast-orf" id="dummy-1_q12_0_all"  />
<polygon points="585,35 590,30 606,30 606,40 590,40 585,35 " style="fill:#1515d8; stroke-width:1; stroke:black; " description="&lt;b&gt;ctg108_14&lt;/b&gt;&lt;br&gt;ctg108 14&lt;br&gt;Location: 21658 - 22600" locus_tag="ctg108_14" class="clusterblast-orf" id="dummy-1_q13_0_all"  />
<polygon points="605,35 610,30 614,30 614,40 610,40 605,35 " style="fill:#d81563; stroke-width:1; stroke:black; " description="&lt;b&gt;ctg108_15&lt;/b&gt;&lt;br&gt;ctg108 15&lt;br&gt;Location: 22575 - 22962" locus_tag="ctg108_15" class="clusterblast-orf" id="dummy-1_q14_0_all"  />
<polygon points="614,35 619,30 623,30 623,40 619,40 614,35 " style="fill:#b1d815; stroke-width:1; stroke:black; " description="&lt;b&gt;ctg108_16&lt;/b&gt;&lt;br&gt;ctg108 16&lt;br&gt;Location: 22971 - 23382" locus_tag="ctg108_16" class="clusterblast-orf" id="dummy-1_q15_0_all"  />
<polygon points="623,35 628,30 630,30 630,40 628,40 623,35 " style="fill:#15d8b1; stroke-width:1; stroke:black; " description="&lt;b&gt;ctg108_17&lt;/b&gt;&lt;br&gt;ctg108 17&lt;br&gt;Location: 23392 - 23704" locus_tag="ctg108_17" class="clusterblast-orf" id="dummy-1_q16_0_all"  />
<polygon points="630,35 635,30 669,30 669,40 635,40 630,35 " style="fill:#6315d8; stroke-width:1; stroke:black; " description="&lt;b&gt;ctg108_18&lt;/b&gt;&lt;br&gt;ctg108 18&lt;br&gt;Location: 23703 - 25461" locus_tag="ctg108_18" class="clusterblast-orf" id="dummy-1_q17_0_all"  />
</g>
<g label="NZ_AYXG01000084" description="NZ_AYXG01000084_c18: Actinokineospora spheciospongiae strain EG49 contig1265 ... (28% of genes show similarity), t1pks" class="clusterblast-cluster"  >
<text x="5" y="70" class="clusterblast-acc"  >
<a xlink:href="https://antismash-db.secondarymetabolites.org/go/NZ_AYXG01000084/18" target="_blank">NZ_AYXG01000084_c18</a>: Actinokineospora spheciospongiae strain EG49 contig1265 ... (28% of genes show similarity), t1pks</text>
<line x1="10" y1="85" x2="778.0" y2="85" style="stroke-width:1; stroke:grey; "  />
</g>
<g id="a1_000"  >
<polygon points="0,85 5,80 24,80 24,90 5,90 0,85 " style="fill:#15d863; stroke-width:1; stroke:black; " description="&lt;b&gt;UO65_RS11980&lt;/b&gt;&lt;br&gt;PucR family transcriptional regulator&lt;br&gt;Location: 11698 - 12813&lt;br&gt;&lt;br&gt;&lt;b&gt;BlastP hit with ctg108_11&lt;/b&gt;&lt;br&gt;Percentage identity: 35&lt;br&gt;Percentage coverage: 81&lt;br&gt;BLAST bit score: 193&lt;br&gt;E-value: 6.1e-47" locus_tag="UO65_RS11980" class="clusterblast-orf" id="dummy-1_h1_10_0"  />
</g>
<g id="a1_001"  >
<polygon points="28,90 44,90 49,85 44,80 28,80 28,90 " style="fill:white; stroke-width:1; stroke:black; " description="&lt;b&gt;UO65_RS11985&lt;/b&gt;&lt;br&gt;ATP-dependent DNA ligase&lt;br&gt;Location: 12999 - 13943" locus_tag="UO65_RS11985" class="clusterblast-orf" id="dummy-1_h1_10_1"  />
</g>
<g id="a1_002"  >
<polygon points="49,90 57,90 62,85 57,80 49,80 49,90 " style="fill:white; stroke-width:1; stroke:black; " description="&lt;b&gt;UO65_RS11990&lt;/b&gt;&lt;br&gt;hypothetical protein&lt;br&gt;Location: 13958 - 14560" locus_tag="UO65_RS11990" class="clusterblast-orf" id="dummy-1_h1_10_2"  />
</g>
<g id="a1_003"  >
<polygon points="64,90 74,90 79,85 74,80 64,80 64,90 " style="fill:white; stroke-width:1; stroke:black; " description="&lt;b&gt;UO65_RS11995&lt;/b&gt;&lt;br&gt;DNA-binding response regulator&lt;br&gt;Location: 14662 - 15327" locus_tag="UO65_RS11995" class="clusterblast-orf" id="dummy-1_h1_10_3"  />
</g>
<g id="a1_004"  >
<polygon points="79,85 84,80 107,80 107,90 84,90 79,85 " style="fill:white; stroke-width:1; stroke:black; " description="&lt;b&gt;UO65_RS12000&lt;/b&gt;&lt;br&gt;sensor histidine kinase&lt;br&gt;Location: 15330 - 16598" locus_tag="UO65_RS12000" class="clusterblast-orf" id="dummy-1_h1_10_4"  />
</g>
<g id="a1_005"  >
<polygon points="108,85 113,80 135,80 135,90 113,90 108,85 " style="fill:white; stroke-width:1; stroke:black; " description="&lt;b&gt;UO65_RS12005&lt;/b&gt;&lt;br&gt;DUF1501 domain-containing protein&lt;br&gt;Location: 16634 - 17881" locus_tag="UO65_RS12005" class="clusterblast-orf" id="dummy-1_h1_10_5"  />
</g>
<g id="a1_006"  >
<polygon points="135,85 140,80 163,80 163,90 140,90 135,85 " style="fill:white; stroke-width:1; stroke:black; " description="&lt;b&gt;UO65_RS12010&lt;/b&gt;&lt;br&gt;DUF1800 domain-containing protein&lt;br&gt;Location: 17891 - 19159" locus_tag="UO65_RS12010" class="clusterblast-orf" id="dummy-1_h1_10_6"  />
</g>
<g id="a1_007"  >
<polygon points="165,85 170,80 192,80 192,90 170,90 165,85 " style="fill:white; stroke-width:1; stroke:black; " description="&lt;b&gt;UO65_RS12015&lt;/b&gt;&lt;br&gt;cytochrome P450&lt;br&gt;Location: 19234 - 20499" locus_tag="UO65_RS12015" class="clusterblast-orf" id="dummy-1_h1_10_7"  />
</g>
<g id="a1_008"  >
<polygon points="197,90 198,90 203,85 198,80 197,80 197,90 " style="fill:white; stroke-width:1; stroke:black; " description="&lt;b&gt;UO65_RS12020&lt;/b&gt;&lt;br&gt;hypothetical protein&lt;br&gt;Location: 20714 - 20998" locus_tag="UO65_RS12020" class="clusterblast-orf" id="dummy-1_h1_10_8"  />
</g>
<g id="a1_009"  >
<polygon points="207,85 212,80 234,80 234,90 212,90 207,85 " style="fill:white; stroke-width:1; stroke:black; " description="&lt;b&gt;UO65_RS12025&lt;/b&gt;&lt;br&gt;MFS transporter&lt;br&gt;Location: 21155 - 22381" locus_tag="UO65_RS12025" class="clusterblast-orf" id="dummy-1_h1_10_9"  />
</g>
<g id="a1_0010"  >
<polygon points="235,85 240,80 263,80 263,90 240,90 235,85 " style="fill:white; stroke-width:1; stroke:black; " description="&lt;b&gt;UO65_RS12030&lt;/b&gt;&lt;br&gt;hypothetical protein&lt;br&gt;Location: 22442 - 23722" locus_tag="UO65_RS12030" class="clusterblast-orf" id="dummy-1_h1_10_10"  />
</g>
<g id="a1_0011"  >
<polygon points="269,90 283,90 288,85 283,80 269,80 269,90 " style="fill:white; stroke-width:1; stroke:black; " description="&lt;b&gt;UO65_RS12035&lt;/b&gt;&lt;br&gt;amino acid ABC transporter substrate-binding protein&lt;br&gt;Location: 24020 - 24865" locus_tag="UO65_RS12035" class="clusterblast-orf" id="dummy-1_h1_10_11"  />
</g>
<g id="a1_0012"  >
<polygon points="286,90 301,90 306,85 301,80 286,80 286,90 " style="fill:white; stroke-width:1; stroke:black; " description="&lt;b&gt;UO65_RS12040&lt;/b&gt;&lt;br&gt;amino acid ABC transporter permease&lt;br&gt;Location: 24763 - 25692" locus_tag="UO65_RS12040" class="clusterblast-orf" id="dummy-1_h1_10_12"  />
</g>
<g id="a1_0013"  >
<polygon points="306,90 318,90 323,85 318,80 306,80 306,90 " style="fill:white; stroke-width:1; stroke:black; " description="&lt;b&gt;UO65_RS12045&lt;/b&gt;&lt;br&gt;amino acid ABC transporter ATP-binding protein&lt;br&gt;Location: 25689 - 26465" locus_tag="UO65_RS12045" class="clusterblast-orf" id="dummy-1_h1_10_13"  />
</g>
<g id="a1_0014"  >
<polygon points="323,85 328,80 334,80 334,90 328,90 323,85 " style="fill:white; stroke-width:1; stroke:black; " description="&lt;b&gt;UO65_RS12050&lt;/b&gt;&lt;br&gt;hypothetical protein&lt;br&gt;Location: 26475 - 26957" locus_tag="UO65_RS12050" class="clusterblast-orf" id="dummy-1_h1_10_14"  />
</g>
<g id="a1_0015"  >
<polygon points="339,85 344,80 361,80 361,90 344,90 339,85 " style="fill:white; stroke-width:1; stroke:black; " description="&lt;b&gt;UO65_RS12055&lt;/b&gt;&lt;br&gt;TerC family protein&lt;br&gt;Location: 27215 - 28219" locus_tag="UO65_RS12055" class="clusterblast-orf" id="dummy-1_h1_10_15"  />
</g>
<g id="a1_0016"  >
<polygon points="368,85 373,80 393,80 393,90 373,90 368,85 " style="fill:#63d815; stroke-width:1; stroke:black; " description="&lt;b&gt;UO65_RS12060&lt;/b&gt;&lt;br&gt;esterase family protein&lt;br&gt;Location: 28539 - 29639&lt;br&gt;&lt;br&gt;&lt;b&gt;BlastP hit with ctg108_3&lt;/b&gt;&lt;br&gt;Percentage identity: 67&lt;br&gt;Percentage coverage: 95&lt;br&gt;BLAST bit score: 438&lt;br&gt;E-value: 6.5e-121" locus_tag="UO65_RS12060" class="clusterblast-orf" id="dummy-1_h1_10_16"  />
</g>
<g id="a1_0017"  >
<polygon points="393,85 398,80 428,80 428,90 398,90 393,85 " style="fill:#15b1d8; stroke-width:1; stroke:black; " description="&lt;b&gt;UO65_RS12065&lt;/b&gt;&lt;br&gt;acyl-CoA carboxylase subunit beta&lt;br&gt;Location: 29670 - 31271&lt;br&gt;&lt;br&gt;&lt;b&gt;BlastP hit with ctg108_4&lt;/b&gt;&lt;br&gt;Percentage identity: 79&lt;br&gt;Percentage coverage: 99&lt;br&gt;BLAST bit score: 837&lt;br&gt;E-value: 6e-241" locus_tag="UO65_RS12065" class="clusterblast-orf" id="dummy-1_h1_10_17"  />
</g>
<g id="a1_0018"  >
<polygon points="430,85 435,80 573,80 573,90 435,90 430,85 " style="fill:#b115d8; stroke-width:1; stroke:black; " description="&lt;b&gt;UO65_RS12070&lt;/b&gt;&lt;br&gt;KR domain-containing protein&lt;br&gt;Location: 31332 - 37883&lt;br&gt;&lt;br&gt;&lt;b&gt;BlastP hit with ctg108_5&lt;/b&gt;&lt;br&gt;Percentage identity: 61&lt;br&gt;Percentage coverage: 106&lt;br&gt;BLAST bit score: 2367&lt;br&gt;E-value: 0.0" locus_tag="UO65_RS12070" class="clusterblast-orf" id="dummy-1_h1_10_18"  />
</g>
<g id="a1_0019"  >
<polygon points="573,85 578,80 612,80 612,90 578,90 573,85 " style="fill:#d86315; stroke-width:1; stroke:black; " description="&lt;b&gt;UO65_RS12075&lt;/b&gt;&lt;br&gt;hypothetical protein&lt;br&gt;Location: 37880 - 39673&lt;br&gt;&lt;br&gt;&lt;b&gt;BlastP hit with ctg108_6&lt;/b&gt;&lt;br&gt;Percentage identity: 53&lt;br&gt;Percentage coverage: 104&lt;br&gt;BLAST bit score: 550&lt;br&gt;E-value: 2e-154" locus_tag="UO65_RS12075" class="clusterblast-orf" id="dummy-1_h1_10_19"  />
</g>
<g id="a1_0020"  >
<polygon points="620,85 625,80 643,80 643,90 625,90 620,85 " style="fill:#1563d8; stroke-width:1; stroke:black; " description="&lt;b&gt;UO65_RS12080&lt;/b&gt;&lt;br&gt;ribonucleotide-diphosphate reductase subunit beta&lt;br&gt;Location: 40025 - 41053&lt;br&gt;&lt;br&gt;&lt;b&gt;BlastP hit with ctg108_8&lt;/b&gt;&lt;br&gt;Percentage identity: 78&lt;br&gt;Percentage coverage: 98&lt;br&gt;BLAST bit score: 514&lt;br&gt;E-value: 6.9e-144" locus_tag="UO65_RS12080" class="clusterblast-orf" id="dummy-1_h1_10_20"  />
</g>
<g id="a1_0021"  >
<polygon points="642,85 647,80 680,80 680,90 647,90 642,85 " style="fill:#d815b1; stroke-width:1; stroke:black; " description="&lt;b&gt;UO65_RS12085&lt;/b&gt;&lt;br&gt;hypothetical protein&lt;br&gt;Location: 41034 - 42755&lt;br&gt;&lt;br&gt;&lt;b&gt;BlastP hit with ctg108_9&lt;/b&gt;&lt;br&gt;Percentage identity: 58&lt;br&gt;Percentage coverage: 101&lt;br&gt;BLAST bit score: 626&lt;br&gt;E-value: 3.7e-177" locus_tag="UO65_RS12085" class="clusterblast-orf" id="dummy-1_h1_10_21"  />
</g>
<g id="a1_0022"  >
<polygon points="689,90 690,90 695,85 690,80 689,80 689,90 " style="fill:white; stroke-width:1; stroke:black; " description="&lt;b&gt;UO65_RS12090&lt;/b&gt;&lt;br&gt;hypothetical protein&lt;br&gt;Location: 43172 - 43453" locus_tag="UO65_RS12090" class="clusterblast-orf" id="dummy-1_h1_10_22"  />
</g>
<g id="a1_0023"  >
<polygon points="698,85 703,80 712,80 712,90 703,90 698,85 " style="fill:white; stroke-width:1; stroke:black; " description="&lt;b&gt;UO65_RS12095&lt;/b&gt;&lt;br&gt;TetR/AcrR family transcriptional regulator&lt;br&gt;Location: 43603 - 44211" locus_tag="UO65_RS12095" class="clusterblast-orf" id="dummy-1_h1_10_23"  />
</g>
<g id="a1_0024"  >
<polygon points="715,85 720,80 780,80 780,90 720,90 715,85 " style="fill:white; stroke-width:1; stroke:black; " description="&lt;b&gt;UO65_RS12100&lt;/b&gt;&lt;br&gt;peptidase M28&lt;br&gt;Location: 44369 - 47302" locus_tag="UO65_RS12100" class="clusterblast-orf" id="dummy-1_h1_10_24"  />
</g>
</svg>
