<svg xmlns="http://www.w3.org/2000/svg" xmlns:xlink="http://www.w3.org/1999/xlink" version="1.1" x="0" y="0" height="230" width="800" viewBox="0 0 800 230" preserveAspectRatio="none"  >
<g label="Query sequence" class="clusterblast-cluster"  >
<text x="5" y="20" class="clusterblast-acc"  >
Query sequence</text>
<line x1="10" y1="35" x2="778.0" y2="35" style="stroke-width:1; stroke:grey; "  />
<polygon points="298,35 303,30 308,30 308,40 303,40 298,35 " style="fill:white; stroke-width:1; stroke:black; " description="&lt;b&gt;ctg7_88&lt;/b&gt;&lt;br&gt;ctg7 88&lt;br&gt;Location: 106219 - 106864" locus_tag="ctg7_88" class="clusterblast-orf" id="dummy-2_q0_0_all"  />
<polygon points="309,35 314,30 322,30 322,40 314,40 309,35 " style="fill:white; stroke-width:1; stroke:black; " description="&lt;b&gt;ctg7_89&lt;/b&gt;&lt;br&gt;ctg7 89&lt;br&gt;Location: 106937 - 107699" locus_tag="ctg7_89" class="clusterblast-orf" id="dummy-2_q1_0_all"  />
<polygon points="324,35 329,30 329,30 329,40 329,40 324,35 " style="fill:#d81515; stroke-width:1; stroke:black; " description="&lt;b&gt;ctg7_90&lt;/b&gt;&lt;br&gt;ctg7 90&lt;br&gt;Location: 107811 - 108099" locus_tag="ctg7_90" class="clusterblast-orf" id="dummy-2_q2_0_all"  />
<polygon points="328,35 331,30 331,40 328,35 " style="fill:white; stroke-width:1; stroke:black; " description="&lt;b&gt;ctg7_91&lt;/b&gt;&lt;br&gt;ctg7 91&lt;br&gt;Location: 108095 - 108224" locus_tag="ctg7_91" class="clusterblast-orf" id="dummy-2_q3_0_all"  />
<polygon points="334,35 339,30 344,30 344,40 339,40 334,35 " style="fill:#3cd815; stroke-width:1; stroke:black; " description="&lt;b&gt;ctg7_92&lt;/b&gt;&lt;br&gt;ctg7 92&lt;br&gt;Location: 108414 - 109062" locus_tag="ctg7_92" class="clusterblast-orf" id="dummy-2_q4_0_all"  />
<polygon points="344,35 349,30 363,30 363,40 349,40 344,35 " style="fill:#1563d8; stroke-width:1; stroke:black; " description="&lt;b&gt;ctg7_93&lt;/b&gt;&lt;br&gt;ctg7 93&lt;br&gt;Location: 109058 - 110189" locus_tag="ctg7_93" class="clusterblast-orf" id="dummy-2_q5_0_all"  />
<polygon points="365,40 368,40 373,35 368,30 365,30 365,40 " style="fill:#b115d8; stroke-width:1; stroke:black; " description="&lt;b&gt;ctg7_94&lt;/b&gt;&lt;br&gt;ctg7 94&lt;br&gt;Location: 110297 - 110825" locus_tag="ctg7_94" class="clusterblast-orf" id="dummy-2_q6_0_all"  />
<polygon points="374,40 375,40 380,35 375,30 374,30 374,40 " style="fill:white; stroke-width:1; stroke:black; " description="&lt;b&gt;ctg7_95&lt;/b&gt;&lt;br&gt;ctg7 95&lt;br&gt;Location: 110888 - 111260" locus_tag="ctg7_95" class="clusterblast-orf" id="dummy-2_q7_0_all"  />
<polygon points="381,35 386,30 398,30 398,40 386,40 381,35 " style="fill:#d88a15; stroke-width:1; stroke:black; " description="&lt;b&gt;ctg7_96&lt;/b&gt;&lt;br&gt;ctg7 96&lt;br&gt;Location: 111307 - 112330" locus_tag="ctg7_96" class="clusterblast-orf" id="dummy-2_q8_0_all"  />
<polygon points="398,35 403,30 409,30 409,40 403,40 398,35 " style="fill:#15d863; stroke-width:1; stroke:black; " description="&lt;b&gt;ctg7_97&lt;/b&gt;&lt;br&gt;ctg7 97&lt;br&gt;Location: 112326 - 112983" locus_tag="ctg7_97" class="clusterblast-orf" id="dummy-2_q9_0_all"  />
<polygon points="409,35 414,30 427,30 427,40 414,40 409,35 " style="fill:#3c15d8; stroke-width:1; stroke:black; " description="&lt;b&gt;ctg7_98&lt;/b&gt;&lt;br&gt;ctg7 98&lt;br&gt;Location: 112999 - 114094" locus_tag="ctg7_98" class="clusterblast-orf" id="dummy-2_q10_0_all"  />
<polygon points="433,40 449,40 454,35 449,30 433,30 433,40 " style="fill:#d8158a; stroke-width:1; stroke:black; " description="&lt;b&gt;ctg7_99&lt;/b&gt;&lt;br&gt;ctg7 99&lt;br&gt;Location: 114433 - 115711" locus_tag="ctg7_99" class="clusterblast-orf" id="dummy-2_q11_0_all"  />
<polygon points="454,40 466,40 471,35 466,30 454,30 454,40 " style="fill:#b1d815; stroke-width:1; stroke:black; " description="&lt;b&gt;ctg7_100&lt;/b&gt;&lt;br&gt;ctg7 100&lt;br&gt;Location: 115707 - 116751" locus_tag="ctg7_100" class="clusterblast-orf" id="dummy-2_q12_0_all"  />
<polygon points="471,40 471,40 476,35 471,30 471,30 471,40 " style="fill:#15d8d8; stroke-width:1; stroke:black; " description="&lt;b&gt;ctg7_101&lt;/b&gt;&lt;br&gt;ctg7 101&lt;br&gt;Location: 116783 - 117059" locus_tag="ctg7_101" class="clusterblast-orf" id="dummy-2_q13_0_all"  />
<polygon points="479,40 482,35 479,30 479,40 " style="fill:white; stroke-width:1; stroke:black; " description="&lt;b&gt;ctg7_102&lt;/b&gt;&lt;br&gt;ctg7 102&lt;br&gt;Location: 117285 - 117420" locus_tag="ctg7_102" class="clusterblast-orf" id="dummy-2_q14_0_all"  />
</g>
<g label="NZ_JOCQ01000010" description="NZ_JOCQ01000010_c8: Streptomyces rimosus subsp. rimosus strain NRRL WC-3904 c... (7% of genes show similarity), terpene-nrps" class="clusterblast-cluster"  >
<text x="5" y="70" class="clusterblast-acc"  >
<a xlink:href="https://antismash-db.secondarymetabolites.org/go/NZ_JOCQ01000010/8" target="_blank">NZ_JOCQ01000010_c8</a>: Streptomyces rimosus subsp. rimosus strain NRRL WC-3904 c... (7% of genes show similarity), terpene-nrps</text>
<line x1="10" y1="85" x2="778.0" y2="85" style="stroke-width:1; stroke:grey; "  />
</g>
<g id="a2_000"  >
<polygon points="0,90 6,90 11,85 6,80 0,80 0,90 " style="fill:white; stroke-width:1; stroke:black; " description="&lt;b&gt;IH45_RS0107935&lt;/b&gt;&lt;br&gt;DeoR family transcriptional regulator&lt;br&gt;Location: 193838 - 193158" locus_tag="IH45_RS0107935" class="clusterblast-orf" id="dummy-2_h2_8_0"  />
</g>
<g id="a2_001"  >
<polygon points="11,90 28,90 33,85 28,80 11,80 11,90 " style="fill:white; stroke-width:1; stroke:black; " description="&lt;b&gt;IH45_RS0107930&lt;/b&gt;&lt;br&gt;protein-L-isoaspartate O-methyltransferase&lt;br&gt;Location: 193111 - 191819" locus_tag="IH45_RS0107930" class="clusterblast-orf" id="dummy-2_h2_8_1"  />
</g>
<g id="a2_002"  >
<polygon points="34,90 40,90 45,85 40,80 34,80 34,90 " style="fill:white; stroke-width:1; stroke:black; " description="&lt;b&gt;IH45_RS0107925&lt;/b&gt;&lt;br&gt;phosphoribosyltransferase&lt;br&gt;Location: 191756 - 191076" locus_tag="IH45_RS0107925" class="clusterblast-orf" id="dummy-2_h2_8_2"  />
</g>
<g id="a2_003"  >
<polygon points="46,85 51,80 51,80 51,90 51,90 46,85 " style="fill:white; stroke-width:1; stroke:black; " description="&lt;b&gt;IH45_RS0107920&lt;/b&gt;&lt;br&gt;DUF3817 domain-containing protein&lt;br&gt;Location: 191000 - 190713" locus_tag="IH45_RS0107920" class="clusterblast-orf" id="dummy-2_h2_8_3"  />
</g>
<g id="a2_004"  >
<polygon points="51,85 56,80 59,80 59,90 56,90 51,85 " style="fill:white; stroke-width:1; stroke:black; " description="&lt;b&gt;IH45_RS0107915&lt;/b&gt;&lt;br&gt;membrane protein&lt;br&gt;Location: 190710 - 190243" locus_tag="IH45_RS0107915" class="clusterblast-orf" id="dummy-2_h2_8_4"  />
</g>
<g id="a2_005"  >
<polygon points="63,90 74,90 79,85 74,80 63,80 63,90 " style="fill:white; stroke-width:1; stroke:black; " description="&lt;b&gt;IH45_RS0107910&lt;/b&gt;&lt;br&gt;AraC family transcriptional regulator&lt;br&gt;Location: 189976 - 189026" locus_tag="IH45_RS0107910" class="clusterblast-orf" id="dummy-2_h2_8_5"  />
</g>
<g id="a2_006"  >
<polygon points="80,90 85,90 90,85 85,80 80,80 80,90 " style="fill:white; stroke-width:1; stroke:black; " description="&lt;b&gt;IH45_RS0107905&lt;/b&gt;&lt;br&gt;hydrolase&lt;br&gt;Location: 188924 - 188301" locus_tag="IH45_RS0107905" class="clusterblast-orf" id="dummy-2_h2_8_6"  />
</g>
<g id="a2_007"  >
<polygon points="91,85 96,80 105,80 105,90 96,90 91,85 " style="fill:white; stroke-width:1; stroke:black; " description="&lt;b&gt;IH45_RS0107900&lt;/b&gt;&lt;br&gt;class I SAM-dependent methyltransferase&lt;br&gt;Location: 188258 - 187407" locus_tag="IH45_RS0107900" class="clusterblast-orf" id="dummy-2_h2_8_7"  />
</g>
<g id="a2_008"  >
<polygon points="106,90 111,90 116,85 111,80 106,80 106,90 " style="fill:white; stroke-width:1; stroke:black; " description="&lt;b&gt;IH45_RS0107895&lt;/b&gt;&lt;br&gt;TetR/AcrR family transcriptional regulator&lt;br&gt;Location: 187333 - 186734" locus_tag="IH45_RS0107895" class="clusterblast-orf" id="dummy-2_h2_8_8"  />
</g>
<g id="a2_009"  >
<polygon points="120,90 158,90 163,85 158,80 120,80 120,90 " style="fill:white; stroke-width:1; stroke:black; " description="&lt;b&gt;IH45_RS0107890&lt;/b&gt;&lt;br&gt;PAS domain S-box protein&lt;br&gt;Location: 186525 - 183895" locus_tag="IH45_RS0107890" class="clusterblast-orf" id="dummy-2_h2_8_9"  />
</g>
<g id="a2_0010"  >
<polygon points="168,85 173,80 181,80 181,90 173,90 168,85 " style="fill:white; stroke-width:1; stroke:black; " description="&lt;b&gt;IH45_RS0107885&lt;/b&gt;&lt;br&gt;N-acetyltransferase&lt;br&gt;Location: 183556 - 182759" locus_tag="IH45_RS0107885" class="clusterblast-orf" id="dummy-2_h2_8_10"  />
</g>
<g id="a2_0011"  >
<polygon points="183,85 188,80 192,80 192,90 188,90 183,85 " style="fill:white; stroke-width:1; stroke:black; " description="&lt;b&gt;IH45_RS0107880&lt;/b&gt;&lt;br&gt;TetR/AcrR family transcriptional regulator&lt;br&gt;Location: 182638 - 182131" locus_tag="IH45_RS0107880" class="clusterblast-orf" id="dummy-2_h2_8_11"  />
</g>
<g id="a2_0012"  >
<polygon points="194,90 198,85 194,80 194,90 " style="fill:white; stroke-width:1; stroke:black; " description="&lt;b&gt;IH45_RS0107875&lt;/b&gt;&lt;br&gt;hypothetical protein&lt;br&gt;Location: 181968 - 181750" locus_tag="IH45_RS0107875" class="clusterblast-orf" id="dummy-2_h2_8_12"  />
</g>
<g id="a2_0013"  >
<polygon points="201,90 209,90 214,85 209,80 201,80 201,90 " style="fill:white; stroke-width:1; stroke:black; " description="&lt;b&gt;IH45_RS0107870&lt;/b&gt;&lt;br&gt;SAM-dependent methyltransferase&lt;br&gt;Location: 181576 - 180767" locus_tag="IH45_RS0107870" class="clusterblast-orf" id="dummy-2_h2_8_13"  />
</g>
<g id="a2_0014"  >
<polygon points="215,85 220,80 222,80 222,90 220,90 215,85 " style="fill:white; stroke-width:1; stroke:black; " description="&lt;b&gt;IH45_RS0107865&lt;/b&gt;&lt;br&gt;hypothetical protein&lt;br&gt;Location: 180734 - 180288" locus_tag="IH45_RS0107865" class="clusterblast-orf" id="dummy-2_h2_8_14"  />
</g>
<g id="a2_0015"  >
<polygon points="226,90 230,90 235,85 230,80 226,80 226,90 " style="fill:white; stroke-width:1; stroke:black; " description="&lt;b&gt;IH45_RS1000000147740&lt;/b&gt;&lt;br&gt;hypothetical protein&lt;br&gt;Location: 180040 - 179531" locus_tag="IH45_RS1000000147740" class="clusterblast-orf" id="dummy-2_h2_8_15"  />
</g>
<g id="a2_0016"  >
<polygon points="235,90 243,90 248,85 243,80 235,80 235,90 " style="fill:white; stroke-width:1; stroke:black; " description="&lt;b&gt;IH45_RS0107855&lt;/b&gt;&lt;br&gt;3-oxoacyl-ACP reductase&lt;br&gt;Location: 179508 - 178732" locus_tag="IH45_RS0107855" class="clusterblast-orf" id="dummy-2_h2_8_16"  />
</g>
<g id="a2_0017"  >
<polygon points="254,90 272,90 277,85 272,80 254,80 254,90 " style="fill:white; stroke-width:1; stroke:black; " description="&lt;b&gt;IH45_RS0107850&lt;/b&gt;&lt;br&gt;hypothetical protein&lt;br&gt;Location: 178318 - 176921" locus_tag="IH45_RS0107850" class="clusterblast-orf" id="dummy-2_h2_8_17"  />
</g>
<g id="a2_0018"  >
<polygon points="290,90 304,90 309,85 304,80 290,80 290,90 " style="fill:#3c15d8; stroke-width:1; stroke:black; " description="&lt;b&gt;IH45_RS0107845&lt;/b&gt;&lt;br&gt;polyprenyl synthetase family protein&lt;br&gt;Location: 176156 - 174975&lt;br&gt;&lt;br&gt;&lt;b&gt;BlastP hit with ctg7_98&lt;/b&gt;&lt;br&gt;Percentage identity: 56&lt;br&gt;Percentage coverage: 94&lt;br&gt;BLAST bit score: 329&lt;br&gt;E-value: 6.3e-88" locus_tag="IH45_RS0107845" class="clusterblast-orf" id="dummy-2_h2_8_18"  />
</g>
<g id="a2_0019"  >
<polygon points="310,90 320,90 325,85 320,80 310,80 310,90 " style="fill:#d8158a; stroke-width:1; stroke:black; " description="&lt;b&gt;IH45_RS0107840&lt;/b&gt;&lt;br&gt;4-hydroxy-3-methylbut-2-enyl diphosphate reductase&lt;br&gt;Location: 174939 - 173995&lt;br&gt;&lt;br&gt;&lt;b&gt;BlastP hit with ctg7_99&lt;/b&gt;&lt;br&gt;Percentage identity: 53&lt;br&gt;Percentage coverage: 72&lt;br&gt;BLAST bit score: 286&lt;br&gt;E-value: 4.2e-75" locus_tag="IH45_RS0107840" class="clusterblast-orf" id="dummy-2_h2_8_19"  />
</g>
<g id="a2_0020"  >
<polygon points="326,90 339,90 344,85 339,80 326,80 326,90 " style="fill:#b1d815; stroke-width:1; stroke:black; " description="&lt;b&gt;IH45_RS0107835&lt;/b&gt;&lt;br&gt;hypothetical protein&lt;br&gt;Location: 173975 - 172896&lt;br&gt;&lt;br&gt;&lt;b&gt;BlastP hit with ctg7_100&lt;/b&gt;&lt;br&gt;Percentage identity: 53&lt;br&gt;Percentage coverage: 101&lt;br&gt;BLAST bit score: 341&lt;br&gt;E-value: 9e-92" locus_tag="IH45_RS0107835" class="clusterblast-orf" id="dummy-2_h2_8_20"  />
</g>
<g id="a2_0021"  >
<polygon points="345,85 350,80 362,80 362,90 350,90 345,85 " style="fill:white; stroke-width:1; stroke:black; " description="&lt;b&gt;IH45_RS0107830&lt;/b&gt;&lt;br&gt;ABC transporter permease&lt;br&gt;Location: 172799 - 171747" locus_tag="IH45_RS0107830" class="clusterblast-orf" id="dummy-2_h2_8_21"  />
</g>
<g id="a2_0022"  >
<polygon points="364,85 369,80 380,80 380,90 369,90 364,85 " style="fill:white; stroke-width:1; stroke:black; " description="&lt;b&gt;IH45_RS0107825&lt;/b&gt;&lt;br&gt;iron ABC transporter permease&lt;br&gt;Location: 171666 - 170662" locus_tag="IH45_RS0107825" class="clusterblast-orf" id="dummy-2_h2_8_22"  />
</g>
<g id="a2_0023"  >
<polygon points="384,90 395,90 400,85 395,80 384,80 384,90 " style="fill:white; stroke-width:1; stroke:black; " description="&lt;b&gt;IH45_RS0107820&lt;/b&gt;&lt;br&gt;iron-siderophore ABC transporter substrate-binding protein&lt;br&gt;Location: 170435 - 169455" locus_tag="IH45_RS0107820" class="clusterblast-orf" id="dummy-2_h2_8_23"  />
</g>
<g id="a2_0024"  >
<polygon points="402,90 406,85 402,80 402,90 " style="fill:white; stroke-width:1; stroke:black; " description="&lt;b&gt;IH45_RS0107815&lt;/b&gt;&lt;br&gt;isochorismatase&lt;br&gt;Location: 169323 - 169093" locus_tag="IH45_RS0107815" class="clusterblast-orf" id="dummy-2_h2_8_24"  />
</g>
<g id="a2_0025"  >
<polygon points="407,90 466,90 471,85 466,80 407,80 407,90 " style="fill:white; stroke-width:1; stroke:black; " description="&lt;b&gt;IH45_RS0107810&lt;/b&gt;&lt;br&gt;non-ribosomal peptide synthetase&lt;br&gt;Location: 169009 - 165134" locus_tag="IH45_RS0107810" class="clusterblast-orf" id="dummy-2_h2_8_25"  />
</g>
<g id="a2_0026"  >
<polygon points="474,90 487,90 492,85 487,80 474,80 474,90 " style="fill:white; stroke-width:1; stroke:black; " description="&lt;b&gt;IH45_RS0107805&lt;/b&gt;&lt;br&gt;YncE family protein&lt;br&gt;Location: 164961 - 163858" locus_tag="IH45_RS0107805" class="clusterblast-orf" id="dummy-2_h2_8_26"  />
</g>
<g id="a2_0027"  >
<polygon points="493,85 498,80 509,80 509,90 498,90 493,85 " style="fill:white; stroke-width:1; stroke:black; " description="&lt;b&gt;IH45_RS0107800&lt;/b&gt;&lt;br&gt;transcriptional regulator&lt;br&gt;Location: 163823 - 162834" locus_tag="IH45_RS0107800" class="clusterblast-orf" id="dummy-2_h2_8_27"  />
</g>
<g id="a2_0028"  >
<polygon points="511,90 526,90 531,85 526,80 511,80 511,90 " style="fill:white; stroke-width:1; stroke:black; " description="&lt;b&gt;IH45_RS0107795&lt;/b&gt;&lt;br&gt;MFS transporter&lt;br&gt;Location: 162721 - 161474" locus_tag="IH45_RS0107795" class="clusterblast-orf" id="dummy-2_h2_8_28"  />
</g>
<g id="a2_0029"  >
<polygon points="530,85 535,80 551,80 551,90 535,90 530,85 " style="fill:white; stroke-width:1; stroke:black; " description="&lt;b&gt;IH45_RS0107790&lt;/b&gt;&lt;br&gt;enterochelin esterase&lt;br&gt;Location: 161558 - 160272" locus_tag="IH45_RS0107790" class="clusterblast-orf" id="dummy-2_h2_8_29"  />
</g>
<g id="a2_0030"  >
<polygon points="552,85 557,80 562,80 562,90 557,90 552,85 " style="fill:white; stroke-width:1; stroke:black; " description="&lt;b&gt;IH45_RS0107785&lt;/b&gt;&lt;br&gt;N-acetyltransferase&lt;br&gt;Location: 160191 - 159589" locus_tag="IH45_RS0107785" class="clusterblast-orf" id="dummy-2_h2_8_30"  />
</g>
<g id="a2_0031"  >
<polygon points="565,90 574,90 579,85 574,80 565,80 565,90 " style="fill:white; stroke-width:1; stroke:black; " description="&lt;b&gt;IH45_RS0107780&lt;/b&gt;&lt;br&gt;alpha/beta hydrolase&lt;br&gt;Location: 159417 - 158539" locus_tag="IH45_RS0107780" class="clusterblast-orf" id="dummy-2_h2_8_31"  />
</g>
<g id="a2_0032"  >
<polygon points="580,85 585,80 593,80 593,90 585,90 580,85 " style="fill:white; stroke-width:1; stroke:black; " description="&lt;b&gt;IH45_RS0107775&lt;/b&gt;&lt;br&gt;AraC family transcriptional regulator&lt;br&gt;Location: 158497 - 157733" locus_tag="IH45_RS0107775" class="clusterblast-orf" id="dummy-2_h2_8_32"  />
</g>
<g id="a2_0033"  >
<polygon points="593,90 598,90 603,85 598,80 593,80 593,90 " style="fill:white; stroke-width:1; stroke:black; " description="&lt;b&gt;IH45_RS0107770&lt;/b&gt;&lt;br&gt;class I SAM-dependent methyltransferase&lt;br&gt;Location: 157678 - 157103" locus_tag="IH45_RS0107770" class="clusterblast-orf" id="dummy-2_h2_8_33"  />
</g>
<g id="a2_0034"  >
<polygon points="603,85 608,80 625,80 625,90 608,90 603,85 " style="fill:white; stroke-width:1; stroke:black; " description="&lt;b&gt;IH45_RS0107765&lt;/b&gt;&lt;br&gt;hypothetical protein&lt;br&gt;Location: 157069 - 155741" locus_tag="IH45_RS0107765" class="clusterblast-orf" id="dummy-2_h2_8_34"  />
</g>
<g id="a2_0035"  >
<polygon points="625,85 630,80 643,80 643,90 630,90 625,85 " style="fill:white; stroke-width:1; stroke:black; " description="&lt;b&gt;IH45_RS0107760&lt;/b&gt;&lt;br&gt;membrane protein&lt;br&gt;Location: 155732 - 154659" locus_tag="IH45_RS0107760" class="clusterblast-orf" id="dummy-2_h2_8_35"  />
</g>
<g id="a2_0036"  >
<polygon points="643,85 648,80 660,80 660,90 648,90 643,85 " style="fill:white; stroke-width:1; stroke:black; " description="&lt;b&gt;IH45_RS0107755&lt;/b&gt;&lt;br&gt;iron ABC transporter permease&lt;br&gt;Location: 154662 - 153601" locus_tag="IH45_RS0107755" class="clusterblast-orf" id="dummy-2_h2_8_36"  />
</g>
<g id="a2_0037"  >
<polygon points="660,85 665,80 670,80 670,90 665,90 660,85 " style="fill:white; stroke-width:1; stroke:black; " description="&lt;b&gt;IH45_RS0107750&lt;/b&gt;&lt;br&gt;dTDP-4-keto-6-deoxy-D-glucose epimerase&lt;br&gt;Location: 153604 - 153002" locus_tag="IH45_RS0107750" class="clusterblast-orf" id="dummy-2_h2_8_37"  />
</g>
<g id="a2_0038"  >
<polygon points="670,85 675,80 685,80 685,90 675,90 670,85 " style="fill:white; stroke-width:1; stroke:black; " description="&lt;b&gt;IH45_RS0107745&lt;/b&gt;&lt;br&gt;dTDP-4-dehydrorhamnose reductase&lt;br&gt;Location: 153014 - 152127" locus_tag="IH45_RS0107745" class="clusterblast-orf" id="dummy-2_h2_8_38"  />
</g>
<g id="a2_0039"  >
<polygon points="685,85 690,80 701,80 701,90 690,90 685,85 " style="fill:white; stroke-width:1; stroke:black; " description="&lt;b&gt;IH45_RS0107740&lt;/b&gt;&lt;br&gt;dTDP-glucose 4,6-dehydratase&lt;br&gt;Location: 152130 - 151132" locus_tag="IH45_RS0107740" class="clusterblast-orf" id="dummy-2_h2_8_39"  />
</g>
<g id="a2_0040"  >
<polygon points="702,85 707,80 719,80 719,90 707,90 702,85 " style="fill:white; stroke-width:1; stroke:black; " description="&lt;b&gt;IH45_RS0107735&lt;/b&gt;&lt;br&gt;glucose-1-phosphate thymidylyltransferase&lt;br&gt;Location: 151082 - 150015" locus_tag="IH45_RS0107735" class="clusterblast-orf" id="dummy-2_h2_8_40"  />
</g>
<g id="a2_0041"  >
<polygon points="719,85 724,80 780,80 780,90 724,90 719,85 " style="fill:white; stroke-width:1; stroke:black; " description="&lt;b&gt;IH45_RS0107730&lt;/b&gt;&lt;br&gt;ABC transporter ATP-binding protein&lt;br&gt;Location: 150007 - 146354" locus_tag="IH45_RS0107730" class="clusterblast-orf" id="dummy-2_h2_8_41"  />
</g>
</svg>
