<svg xmlns="http://www.w3.org/2000/svg" xmlns:xlink="http://www.w3.org/1999/xlink" version="1.1" x="0" y="0" height="230" width="800" viewBox="0 0 800 230" preserveAspectRatio="none"  >
<g label="Query sequence" class="clusterblast-cluster"  >
<text x="5" y="20" class="clusterblast-acc"  >
Query sequence</text>
<line x1="10" y1="35" x2="778.0" y2="35" style="stroke-width:1; stroke:grey; "  />
<polygon points="146,35 151,30 174,30 174,40 151,40 146,35 " style="fill:white; stroke-width:1; stroke:black; " description="&lt;b&gt;ctg7_88&lt;/b&gt;&lt;br&gt;ctg7 88&lt;br&gt;Location: 106219 - 106864" locus_tag="ctg7_88" class="clusterblast-orf" id="dummy-2_q0_0_all"  />
<polygon points="178,35 183,30 211,30 211,40 183,40 178,35 " style="fill:white; stroke-width:1; stroke:black; " description="&lt;b&gt;ctg7_89&lt;/b&gt;&lt;br&gt;ctg7 89&lt;br&gt;Location: 106937 - 107699" locus_tag="ctg7_89" class="clusterblast-orf" id="dummy-2_q1_0_all"  />
<polygon points="216,35 221,30 228,30 228,40 221,40 216,35 " style="fill:#d81515; stroke-width:1; stroke:black; " description="&lt;b&gt;ctg7_90&lt;/b&gt;&lt;br&gt;ctg7 90&lt;br&gt;Location: 107811 - 108099" locus_tag="ctg7_90" class="clusterblast-orf" id="dummy-2_q2_0_all"  />
<polygon points="228,35 233,30 234,30 234,40 233,40 228,35 " style="fill:white; stroke-width:1; stroke:black; " description="&lt;b&gt;ctg7_91&lt;/b&gt;&lt;br&gt;ctg7 91&lt;br&gt;Location: 108095 - 108224" locus_tag="ctg7_91" class="clusterblast-orf" id="dummy-2_q3_0_all"  />
<polygon points="242,35 247,30 270,30 270,40 247,40 242,35 " style="fill:#3cd815; stroke-width:1; stroke:black; " description="&lt;b&gt;ctg7_92&lt;/b&gt;&lt;br&gt;ctg7 92&lt;br&gt;Location: 108414 - 109062" locus_tag="ctg7_92" class="clusterblast-orf" id="dummy-2_q4_0_all"  />
<polygon points="270,35 275,30 319,30 319,40 275,40 270,35 " style="fill:#1563d8; stroke-width:1; stroke:black; " description="&lt;b&gt;ctg7_93&lt;/b&gt;&lt;br&gt;ctg7 93&lt;br&gt;Location: 109058 - 110189" locus_tag="ctg7_93" class="clusterblast-orf" id="dummy-2_q5_0_all"  />
<polygon points="324,40 342,40 347,35 342,30 324,30 324,40 " style="fill:#b115d8; stroke-width:1; stroke:black; " description="&lt;b&gt;ctg7_94&lt;/b&gt;&lt;br&gt;ctg7 94&lt;br&gt;Location: 110297 - 110825" locus_tag="ctg7_94" class="clusterblast-orf" id="dummy-2_q6_0_all"  />
<polygon points="349,40 361,40 366,35 361,30 349,30 349,40 " style="fill:white; stroke-width:1; stroke:black; " description="&lt;b&gt;ctg7_95&lt;/b&gt;&lt;br&gt;ctg7 95&lt;br&gt;Location: 110888 - 111260" locus_tag="ctg7_95" class="clusterblast-orf" id="dummy-2_q7_0_all"  />
<polygon points="368,35 373,30 412,30 412,40 373,40 368,35 " style="fill:#d88a15; stroke-width:1; stroke:black; " description="&lt;b&gt;ctg7_96&lt;/b&gt;&lt;br&gt;ctg7 96&lt;br&gt;Location: 111307 - 112330" locus_tag="ctg7_96" class="clusterblast-orf" id="dummy-2_q8_0_all"  />
<polygon points="412,35 417,30 441,30 441,40 417,40 412,35 " style="fill:#15d863; stroke-width:1; stroke:black; " description="&lt;b&gt;ctg7_97&lt;/b&gt;&lt;br&gt;ctg7 97&lt;br&gt;Location: 112326 - 112983" locus_tag="ctg7_97" class="clusterblast-orf" id="dummy-2_q9_0_all"  />
<polygon points="441,35 446,30 489,30 489,40 446,40 441,35 " style="fill:#3c15d8; stroke-width:1; stroke:black; " description="&lt;b&gt;ctg7_98&lt;/b&gt;&lt;br&gt;ctg7 98&lt;br&gt;Location: 112999 - 114094" locus_tag="ctg7_98" class="clusterblast-orf" id="dummy-2_q10_0_all"  />
<polygon points="504,40 554,40 559,35 554,30 504,30 504,40 " style="fill:#d8158a; stroke-width:1; stroke:black; " description="&lt;b&gt;ctg7_99&lt;/b&gt;&lt;br&gt;ctg7 99&lt;br&gt;Location: 114433 - 115711" locus_tag="ctg7_99" class="clusterblast-orf" id="dummy-2_q11_0_all"  />
<polygon points="559,40 599,40 604,35 599,30 559,30 559,40 " style="fill:#b1d815; stroke-width:1; stroke:black; " description="&lt;b&gt;ctg7_100&lt;/b&gt;&lt;br&gt;ctg7 100&lt;br&gt;Location: 115707 - 116751" locus_tag="ctg7_100" class="clusterblast-orf" id="dummy-2_q12_0_all"  />
<polygon points="606,40 613,40 618,35 613,30 606,30 606,40 " style="fill:#15d8d8; stroke-width:1; stroke:black; " description="&lt;b&gt;ctg7_101&lt;/b&gt;&lt;br&gt;ctg7 101&lt;br&gt;Location: 116783 - 117059" locus_tag="ctg7_101" class="clusterblast-orf" id="dummy-2_q13_0_all"  />
<polygon points="628,40 628,40 633,35 628,30 628,30 628,40 " style="fill:white; stroke-width:1; stroke:black; " description="&lt;b&gt;ctg7_102&lt;/b&gt;&lt;br&gt;ctg7 102&lt;br&gt;Location: 117285 - 117420" locus_tag="ctg7_102" class="clusterblast-orf" id="dummy-2_q14_0_all"  />
</g>
<g label="NZ_FORP01000001" description="NZ_FORP01000001_c6: Amycolatopsis sacchari strain DSM 44468, whole genome sho... (26% of genes show similarity), terpene" class="clusterblast-cluster"  >
<text x="5" y="70" class="clusterblast-acc"  >
<a xlink:href="https://antismash-db.secondarymetabolites.org/go/NZ_FORP01000001/6" target="_blank">NZ_FORP01000001_c6</a>: Amycolatopsis sacchari strain DSM 44468, whole genome sho... (26% of genes show similarity), terpene</text>
<line x1="10" y1="85" x2="778.0" y2="85" style="stroke-width:1; stroke:grey; "  />
</g>
<g id="a2_000"  >
<polygon points="0,90 40,90 45,85 40,80 0,80 0,90 " style="fill:white; stroke-width:1; stroke:black; " description="&lt;b&gt;BMZ92_RS02610&lt;/b&gt;&lt;br&gt;LacI family transcriptional regulator&lt;br&gt;Location: 538785 - 537730" locus_tag="BMZ92_RS02610" class="clusterblast-orf" id="dummy-2_h2_3_0"  />
</g>
<g id="a2_001"  >
<polygon points="43,85 48,80 106,80 106,90 48,90 43,85 " style="fill:white; stroke-width:1; stroke:black; " description="&lt;b&gt;BMZ92_RS02605&lt;/b&gt;&lt;br&gt;sensor histidine kinase&lt;br&gt;Location: 537776 - 536331" locus_tag="BMZ92_RS02605" class="clusterblast-orf" id="dummy-2_h2_3_1"  />
</g>
<g id="a2_002"  >
<polygon points="106,85 111,80 136,80 136,90 111,90 106,85 " style="fill:white; stroke-width:1; stroke:black; " description="&lt;b&gt;BMZ92_RS02600&lt;/b&gt;&lt;br&gt;DNA-binding response regulator&lt;br&gt;Location: 536334 - 535639" locus_tag="BMZ92_RS02600" class="clusterblast-orf" id="dummy-2_h2_3_2"  />
</g>
<g id="a2_003"  >
<polygon points="138,85 143,80 161,80 161,90 143,90 138,85 " style="fill:white; stroke-width:1; stroke:black; " description="&lt;b&gt;BMZ92_RS02595&lt;/b&gt;&lt;br&gt;D-alanyl-D-alanine carboxypeptidase&lt;br&gt;Location: 535602 - 535075" locus_tag="BMZ92_RS02595" class="clusterblast-orf" id="dummy-2_h2_3_3"  />
</g>
<g id="a2_004"  >
<polygon points="168,85 173,80 184,80 184,90 173,90 168,85 " style="fill:white; stroke-width:1; stroke:black; " description="&lt;b&gt;BMZ92_RS02590&lt;/b&gt;&lt;br&gt;fluoride efflux transporter CrcB&lt;br&gt;Location: 534903 - 534538" locus_tag="BMZ92_RS02590" class="clusterblast-orf" id="dummy-2_h2_3_4"  />
</g>
<g id="a2_005"  >
<polygon points="184,85 189,80 205,80 205,90 189,90 184,85 " style="fill:white; stroke-width:1; stroke:black; " description="&lt;b&gt;BMZ92_RS02585&lt;/b&gt;&lt;br&gt;fluoride efflux transporter CrcB&lt;br&gt;Location: 534541 - 534065" locus_tag="BMZ92_RS02585" class="clusterblast-orf" id="dummy-2_h2_3_5"  />
</g>
<g id="a2_006"  >
<polygon points="210,85 215,80 231,80 231,90 215,90 210,85 " style="fill:white; stroke-width:1; stroke:black; " description="&lt;b&gt;BMZ92_RS02580&lt;/b&gt;&lt;br&gt;hypothetical protein&lt;br&gt;Location: 533950 - 533471" locus_tag="BMZ92_RS02580" class="clusterblast-orf" id="dummy-2_h2_3_6"  />
</g>
<g id="a2_007"  >
<polygon points="231,85 236,80 272,80 272,90 236,90 231,85 " style="fill:#d88a15; stroke-width:1; stroke:black; " description="&lt;b&gt;BMZ92_RS02575&lt;/b&gt;&lt;br&gt;ABC transporter permease&lt;br&gt;Location: 533452 - 532520&lt;br&gt;&lt;br&gt;&lt;b&gt;BlastP hit with ctg7_96&lt;/b&gt;&lt;br&gt;Percentage identity: 72&lt;br&gt;Percentage coverage: 90&lt;br&gt;BLAST bit score: 422&lt;br&gt;E-value: 5.1e-116" locus_tag="BMZ92_RS02575" class="clusterblast-orf" id="dummy-2_h2_3_7"  />
</g>
<g id="a2_008"  >
<polygon points="272,85 277,80 300,80 300,90 277,90 272,85 " style="fill:#15d863; stroke-width:1; stroke:black; " description="&lt;b&gt;BMZ92_RS02570&lt;/b&gt;&lt;br&gt;ABC transporter ATP-binding protein&lt;br&gt;Location: 532523 - 531873&lt;br&gt;&lt;br&gt;&lt;b&gt;BlastP hit with ctg7_97&lt;/b&gt;&lt;br&gt;Percentage identity: 78&lt;br&gt;Percentage coverage: 92&lt;br&gt;BLAST bit score: 323&lt;br&gt;E-value: 1.6e-86" locus_tag="BMZ92_RS02570" class="clusterblast-orf" id="dummy-2_h2_3_8"  />
</g>
<g id="a2_009"  >
<polygon points="300,85 305,80 348,80 348,90 305,90 300,85 " style="fill:#3c15d8; stroke-width:1; stroke:black; " description="&lt;b&gt;BMZ92_RS02565&lt;/b&gt;&lt;br&gt;hypothetical protein&lt;br&gt;Location: 531876 - 530782&lt;br&gt;&lt;br&gt;&lt;b&gt;BlastP hit with ctg7_98&lt;/b&gt;&lt;br&gt;Percentage identity: 71&lt;br&gt;Percentage coverage: 101&lt;br&gt;BLAST bit score: 501&lt;br&gt;E-value: 9.3e-140" locus_tag="BMZ92_RS02565" class="clusterblast-orf" id="dummy-2_h2_3_9"  />
</g>
<g id="a2_0010"  >
<polygon points="361,90 404,90 409,85 404,80 361,80 361,90 " style="fill:#b1d815; stroke-width:1; stroke:black; " description="&lt;b&gt;BMZ92_RS02560&lt;/b&gt;&lt;br&gt;hypothetical protein&lt;br&gt;Location: 530461 - 529379&lt;br&gt;&lt;br&gt;&lt;b&gt;BlastP hit with ctg7_100&lt;/b&gt;&lt;br&gt;Percentage identity: 67&lt;br&gt;Percentage coverage: 101&lt;br&gt;BLAST bit score: 484&lt;br&gt;E-value: 8.6e-135" locus_tag="BMZ92_RS02560" class="clusterblast-orf" id="dummy-2_h2_3_10"  />
</g>
<g id="a2_0011"  >
<polygon points="408,90 414,90 419,85 414,80 408,80 408,90 " style="fill:#15d8d8; stroke-width:1; stroke:black; " description="&lt;b&gt;BMZ92_RS02555&lt;/b&gt;&lt;br&gt;hypothetical protein&lt;br&gt;Location: 529389 - 529132&lt;br&gt;&lt;br&gt;&lt;b&gt;BlastP hit with ctg7_101&lt;/b&gt;&lt;br&gt;Percentage identity: 58&lt;br&gt;Percentage coverage: 95&lt;br&gt;BLAST bit score: 102&lt;br&gt;E-value: 3.1e-20" locus_tag="BMZ92_RS02555" class="clusterblast-orf" id="dummy-2_h2_3_11"  />
</g>
<g id="a2_0012"  >
<polygon points="419,85 424,80 471,80 471,90 424,90 419,85 " style="fill:white; stroke-width:1; stroke:black; " description="&lt;b&gt;BMZ92_RS02550&lt;/b&gt;&lt;br&gt;cation:proton antiporter&lt;br&gt;Location: 529127 - 527931" locus_tag="BMZ92_RS02550" class="clusterblast-orf" id="dummy-2_h2_3_12"  />
</g>
<g id="a2_0013"  >
<polygon points="475,85 480,80 488,80 488,90 480,90 475,85 " style="fill:white; stroke-width:1; stroke:black; " description="&lt;b&gt;BMZ92_RS02545&lt;/b&gt;&lt;br&gt;hypothetical protein&lt;br&gt;Location: 527858 - 527547" locus_tag="BMZ92_RS02545" class="clusterblast-orf" id="dummy-2_h2_3_13"  />
</g>
<g id="a2_0014"  >
<polygon points="492,90 529,90 534,85 529,80 492,80 492,90 " style="fill:white; stroke-width:1; stroke:black; " description="&lt;b&gt;BMZ92_RS02540&lt;/b&gt;&lt;br&gt;ATP-dependent DNA ligase&lt;br&gt;Location: 527448 - 526483" locus_tag="BMZ92_RS02540" class="clusterblast-orf" id="dummy-2_h2_3_14"  />
</g>
<g id="a2_0015"  >
<polygon points="537,85 542,80 620,80 620,90 542,90 537,85 " style="fill:white; stroke-width:1; stroke:black; " description="&lt;b&gt;BMZ92_RS02535&lt;/b&gt;&lt;br&gt;beta-glucosidase&lt;br&gt;Location: 526431 - 524506" locus_tag="BMZ92_RS02535" class="clusterblast-orf" id="dummy-2_h2_3_15"  />
</g>
<g id="a2_0016"  >
<polygon points="631,90 671,90 676,85 671,80 631,80 631,90 " style="fill:white; stroke-width:1; stroke:black; " description="&lt;b&gt;BMZ92_RS02530&lt;/b&gt;&lt;br&gt;LLM class flavin-dependent oxidoreductase&lt;br&gt;Location: 524265 - 523231" locus_tag="BMZ92_RS02530" class="clusterblast-orf" id="dummy-2_h2_3_16"  />
</g>
<g id="a2_0017"  >
<polygon points="679,90 726,90 731,85 726,80 679,80 679,90 " style="fill:white; stroke-width:1; stroke:black; " description="&lt;b&gt;BMZ92_RS02525&lt;/b&gt;&lt;br&gt;MFS transporter&lt;br&gt;Location: 523152 - 521956" locus_tag="BMZ92_RS02525" class="clusterblast-orf" id="dummy-2_h2_3_17"  />
</g>
<g id="a2_0018"  >
<polygon points="734,85 739,80 780,80 780,90 739,90 734,85 " style="fill:white; stroke-width:1; stroke:black; " description="&lt;b&gt;BMZ92_RS02520&lt;/b&gt;&lt;br&gt;ABC transporter permease&lt;br&gt;Location: 521888 - 520848" locus_tag="BMZ92_RS02520" class="clusterblast-orf" id="dummy-2_h2_3_18"  />
</g>
</svg>
