<svg xmlns="http://www.w3.org/2000/svg" xmlns:xlink="http://www.w3.org/1999/xlink" version="1.1" x="0" y="0" height="230" width="800" viewBox="0 0 800 230" preserveAspectRatio="none"  >
<g label="Query sequence" class="clusterblast-cluster"  >
<text x="5" y="20" class="clusterblast-acc"  >
Query sequence</text>
<line x1="10" y1="35" x2="778.0" y2="35" style="stroke-width:1; stroke:grey; "  />
<polygon points="5,40 37,40 42,35 37,30 5,30 5,40 " style="fill:#d81515; stroke-width:1; stroke:black; " description="&lt;b&gt;ctg11_38&lt;/b&gt;&lt;br&gt;ctg11 38&lt;br&gt;Location: 39413 - 40448" locus_tag="ctg11_38" class="clusterblast-orf" id="dummy-1_q0_0_all"  />
<polygon points="43,40 73,40 78,35 73,30 43,30 43,40 " style="fill:#43d815; stroke-width:1; stroke:black; " description="&lt;b&gt;ctg11_39&lt;/b&gt;&lt;br&gt;ctg11 39&lt;br&gt;Location: 40463 - 41453" locus_tag="ctg11_39" class="clusterblast-orf" id="dummy-1_q1_0_all"  />
<polygon points="80,35 85,30 115,30 115,40 85,40 80,35 " style="fill:#15b6d8; stroke-width:1; stroke:black; " description="&lt;b&gt;ctg11_40&lt;/b&gt;&lt;br&gt;ctg11 40&lt;br&gt;Location: 41503 - 42484" locus_tag="ctg11_40" class="clusterblast-orf" id="dummy-1_q2_0_all"  />
<polygon points="119,40 164,40 169,35 164,30 119,30 119,40 " style="fill:#8815d8; stroke-width:1; stroke:black; " description="&lt;b&gt;ctg11_41&lt;/b&gt;&lt;br&gt;ctg11 41&lt;br&gt;Location: 42605 - 44021" locus_tag="ctg11_41" class="clusterblast-orf" id="dummy-1_q3_0_all"  />
<polygon points="169,40 217,40 222,35 217,30 169,30 169,40 " style="fill:#d85a15; stroke-width:1; stroke:black; " description="&lt;b&gt;ctg11_42&lt;/b&gt;&lt;br&gt;ctg11 42&lt;br&gt;Location: 44013 - 45504" locus_tag="ctg11_42" class="clusterblast-orf" id="dummy-1_q4_0_all"  />
<polygon points="222,40 242,40 247,35 242,30 222,30 222,40 " style="fill:#15d82c; stroke-width:1; stroke:black; " description="&lt;b&gt;ctg11_43&lt;/b&gt;&lt;br&gt;ctg11 43&lt;br&gt;Location: 45513 - 46218" locus_tag="ctg11_43" class="clusterblast-orf" id="dummy-1_q5_0_all"  />
<polygon points="255,40 265,40 270,35 265,30 255,30 255,40 " style="fill:#1571d8; stroke-width:1; stroke:black; " description="&lt;b&gt;ctg11_44&lt;/b&gt;&lt;br&gt;ctg11 44&lt;br&gt;Location: 46422 - 46857" locus_tag="ctg11_44" class="clusterblast-orf" id="dummy-1_q6_0_all"  />
<polygon points="272,40 293,40 298,35 293,30 272,30 272,40 " style="fill:#cd15d8; stroke-width:1; stroke:black; " description="&lt;b&gt;ctg11_45&lt;/b&gt;&lt;br&gt;ctg11 45&lt;br&gt;Location: 46912 - 47629" locus_tag="ctg11_45" class="clusterblast-orf" id="dummy-1_q7_0_all"  />
<polygon points="298,40 311,40 316,35 311,30 298,30 298,40 " style="fill:#d89f15; stroke-width:1; stroke:black; " description="&lt;b&gt;ctg11_46&lt;/b&gt;&lt;br&gt;ctg11 46&lt;br&gt;Location: 47638 - 48145" locus_tag="ctg11_46" class="clusterblast-orf" id="dummy-1_q8_0_all"  />
<polygon points="316,35 321,30 339,30 339,40 321,40 316,35 " style="fill:#15d871; stroke-width:1; stroke:black; " description="&lt;b&gt;ctg11_47&lt;/b&gt;&lt;br&gt;ctg11 47&lt;br&gt;Location: 48151 - 48808" locus_tag="ctg11_47" class="clusterblast-orf" id="dummy-1_q9_0_all"  />
<polygon points="349,40 422,40 427,35 422,30 349,30 349,40 " style="fill:#152cd8; stroke-width:1; stroke:black; " description="&lt;b&gt;ctg11_48&lt;/b&gt;&lt;br&gt;ctg11 48&lt;br&gt;Location: 49069 - 51262" locus_tag="ctg11_48" class="clusterblast-orf" id="dummy-1_q10_0_all"  />
<polygon points="454,35 459,30 470,30 470,40 459,40 454,35 " style="fill:#d8159f; stroke-width:1; stroke:black; " description="&lt;b&gt;ctg11_49&lt;/b&gt;&lt;br&gt;ctg11 49&lt;br&gt;Location: 52034 - 52472" locus_tag="ctg11_49" class="clusterblast-orf" id="dummy-1_q11_0_all"  />
<polygon points="475,40 498,40 503,35 498,30 475,30 475,40 " style="fill:#cdd815; stroke-width:1; stroke:black; " description="&lt;b&gt;ctg11_50&lt;/b&gt;&lt;br&gt;ctg11 50&lt;br&gt;Location: 52626 - 53397" locus_tag="ctg11_50" class="clusterblast-orf" id="dummy-1_q12_0_all"  />
<polygon points="503,40 564,40 569,35 564,30 503,30 503,40 " style="fill:#15d8b6; stroke-width:1; stroke:black; " description="&lt;b&gt;ctg11_51&lt;/b&gt;&lt;br&gt;ctg11 51&lt;br&gt;Location: 53398 - 55252" locus_tag="ctg11_51" class="clusterblast-orf" id="dummy-1_q13_0_all"  />
<polygon points="569,35 574,30 585,30 585,40 574,40 569,35 " style="fill:#4315d8; stroke-width:1; stroke:black; " description="&lt;b&gt;ctg11_52&lt;/b&gt;&lt;br&gt;ctg11 52&lt;br&gt;Location: 55256 - 55718" locus_tag="ctg11_52" class="clusterblast-orf" id="dummy-1_q14_0_all"  />
<polygon points="589,35 594,30 613,30 613,40 594,40 589,35 " style="fill:#d8155a; stroke-width:1; stroke:black; " description="&lt;b&gt;ctg11_53&lt;/b&gt;&lt;br&gt;ctg11 53&lt;br&gt;Location: 55830 - 56511" locus_tag="ctg11_53" class="clusterblast-orf" id="dummy-1_q15_0_all"  />
<polygon points="616,40 653,40 658,35 653,30 616,30 616,40 " style="fill:#88d815; stroke-width:1; stroke:black; " description="&lt;b&gt;ctg11_54&lt;/b&gt;&lt;br&gt;ctg11 54&lt;br&gt;Location: 56576 - 57767" locus_tag="ctg11_54" class="clusterblast-orf" id="dummy-1_q16_0_all"  />
<polygon points="659,40 687,40 692,35 687,30 659,30 659,40 " style="fill:#88d815; stroke-width:1; stroke:black; " description="&lt;b&gt;ctg11_55&lt;/b&gt;&lt;br&gt;ctg11 55&lt;br&gt;Location: 57787 - 58735" locus_tag="ctg11_55" class="clusterblast-orf" id="dummy-1_q17_0_all"  />
<polygon points="692,40 723,40 728,35 723,30 692,30 692,40 " style="fill:white; stroke-width:1; stroke:black; " description="&lt;b&gt;ctg11_56&lt;/b&gt;&lt;br&gt;ctg11 56&lt;br&gt;Location: 58734 - 59736" locus_tag="ctg11_56" class="clusterblast-orf" id="dummy-1_q18_0_all"  />
<polygon points="731,40 769,40 774,35 769,30 731,30 731,40 " style="fill:#88d815; stroke-width:1; stroke:black; " description="&lt;b&gt;ctg11_57&lt;/b&gt;&lt;br&gt;ctg11 57&lt;br&gt;Location: 59817 - 61038" locus_tag="ctg11_57" class="clusterblast-orf" id="dummy-1_q19_0_all"  />
</g>
<g label="NZ_CP016353" description="NZ_CP016353_c9: Prauserella marina strain DSM 45268 chromosome, complete genome (10% of genes show similarity), terpene" class="clusterblast-cluster"  >
<text x="5" y="70" class="clusterblast-acc"  >
<a xlink:href="https://antismash-db.secondarymetabolites.org/go/NZ_CP016353/9" target="_blank">NZ_CP016353_c9</a>: Prauserella marina strain DSM 45268 chromosome, complete genome (10% of genes show similarity), terpene</text>
<line x1="10" y1="85" x2="778.0" y2="85" style="stroke-width:1; stroke:grey; "  />
</g>
<g id="a1_000"  >
<polygon points="0,85 5,80 12,80 12,90 5,90 0,85 " style="fill:white; stroke-width:1; stroke:black; " description="&lt;b&gt;BAY61_RS21615&lt;/b&gt;&lt;br&gt;hypothetical protein&lt;br&gt;Location: 4611979 - 4611614" locus_tag="BAY61_RS21615" class="clusterblast-orf" id="dummy-1_h1_7_0"  />
</g>
<g id="a1_001"  >
<polygon points="12,85 17,80 40,80 40,90 17,90 12,85 " style="fill:white; stroke-width:1; stroke:black; " description="&lt;b&gt;BAY61_RS21610&lt;/b&gt;&lt;br&gt;hypothetical protein&lt;br&gt;Location: 4611617 - 4610835" locus_tag="BAY61_RS21610" class="clusterblast-orf" id="dummy-1_h1_7_1"  />
</g>
<g id="a1_002"  >
<polygon points="41,85 46,80 84,80 84,90 46,90 41,85 " style="fill:white; stroke-width:1; stroke:black; " description="&lt;b&gt;BAY61_RS21605&lt;/b&gt;&lt;br&gt;thiolase family protein&lt;br&gt;Location: 4610823 - 4609615" locus_tag="BAY61_RS21605" class="clusterblast-orf" id="dummy-1_h1_7_2"  />
</g>
<g id="a1_003"  >
<polygon points="82,85 87,80 139,80 139,90 87,90 82,85 " style="fill:white; stroke-width:1; stroke:black; " description="&lt;b&gt;BAY61_RS21600&lt;/b&gt;&lt;br&gt;hypothetical protein&lt;br&gt;Location: 4609648 - 4608053" locus_tag="BAY61_RS21600" class="clusterblast-orf" id="dummy-1_h1_7_3"  />
</g>
<g id="a1_004"  >
<polygon points="146,90 200,90 205,85 200,80 146,80 146,90 " style="fill:white; stroke-width:1; stroke:black; " description="&lt;b&gt;BAY61_RS21595&lt;/b&gt;&lt;br&gt;hypothetical protein&lt;br&gt;Location: 4607864 - 4606200" locus_tag="BAY61_RS21595" class="clusterblast-orf" id="dummy-1_h1_7_4"  />
</g>
<g id="a1_005"  >
<polygon points="206,90 252,90 257,85 252,80 206,80 206,90 " style="fill:white; stroke-width:1; stroke:black; " description="&lt;b&gt;BAY61_RS21590&lt;/b&gt;&lt;br&gt;hypothetical protein&lt;br&gt;Location: 4606163 - 4604745" locus_tag="BAY61_RS21590" class="clusterblast-orf" id="dummy-1_h1_7_5"  />
</g>
<g id="a1_006"  >
<polygon points="258,90 266,90 271,85 266,80 258,80 258,90 " style="fill:white; stroke-width:1; stroke:black; " description="&lt;b&gt;BAY61_RS21585&lt;/b&gt;&lt;br&gt;ArsR family transcriptional regulator&lt;br&gt;Location: 4604703 - 4604350" locus_tag="BAY61_RS21585" class="clusterblast-orf" id="dummy-1_h1_7_6"  />
</g>
<g id="a1_007"  >
<polygon points="271,90 281,90 286,85 281,80 271,80 271,90 " style="fill:white; stroke-width:1; stroke:black; " description="&lt;b&gt;BAY61_RS21580&lt;/b&gt;&lt;br&gt;hypothetical protein&lt;br&gt;Location: 4604353 - 4603922" locus_tag="BAY61_RS21580" class="clusterblast-orf" id="dummy-1_h1_7_7"  />
</g>
<g id="a1_008"  >
<polygon points="287,90 316,90 321,85 316,80 287,80 287,90 " style="fill:white; stroke-width:1; stroke:black; " description="&lt;b&gt;BAY61_RS21575&lt;/b&gt;&lt;br&gt;hypothetical protein&lt;br&gt;Location: 4603908 - 4602952" locus_tag="BAY61_RS21575" class="clusterblast-orf" id="dummy-1_h1_7_8"  />
</g>
<g id="a1_009"  >
<polygon points="323,90 333,90 338,85 333,80 323,80 323,90 " style="fill:white; stroke-width:1; stroke:black; " description="&lt;b&gt;BAY61_RS21570&lt;/b&gt;&lt;br&gt;pyridoxamine 5'-phosphate oxidase&lt;br&gt;Location: 4602874 - 4602452" locus_tag="BAY61_RS21570" class="clusterblast-orf" id="dummy-1_h1_7_9"  />
</g>
<g id="a1_0010"  >
<polygon points="347,90 421,90 426,85 421,80 347,80 347,90 " style="fill:#152cd8; stroke-width:1; stroke:black; " description="&lt;b&gt;BAY61_RS21565&lt;/b&gt;&lt;br&gt;Geosmin synthase&lt;br&gt;Location: 4602213 - 4599991&lt;br&gt;&lt;br&gt;&lt;b&gt;BlastP hit with ctg11_48&lt;/b&gt;&lt;br&gt;Percentage identity: 68&lt;br&gt;Percentage coverage: 97&lt;br&gt;BLAST bit score: 1010&lt;br&gt;E-value: 9.4e-293" locus_tag="BAY61_RS21565" class="clusterblast-orf" id="dummy-1_h1_7_10"  />
</g>
<g id="a1_0011"  >
<polygon points="427,85 432,80 446,80 446,90 432,90 427,85 " style="fill:#d8159f; stroke-width:1; stroke:black; " description="&lt;b&gt;BAY61_RS21560&lt;/b&gt;&lt;br&gt;ribonuclease HI&lt;br&gt;Location: 4599947 - 4599435&lt;br&gt;&lt;br&gt;&lt;b&gt;BlastP hit with ctg11_49&lt;/b&gt;&lt;br&gt;Percentage identity: 76&lt;br&gt;Percentage coverage: 99&lt;br&gt;BLAST bit score: 247&lt;br&gt;E-value: 1.3e-63" locus_tag="BAY61_RS21560" class="clusterblast-orf" id="dummy-1_h1_7_11"  />
</g>
<g id="a1_0012"  >
<polygon points="446,85 451,80 514,80 514,90 451,90 446,85 " style="fill:white; stroke-width:1; stroke:black; " description="&lt;b&gt;BAY61_RS21555&lt;/b&gt;&lt;br&gt;hypothetical protein&lt;br&gt;Location: 4599416 - 4597506" locus_tag="BAY61_RS21555" class="clusterblast-orf" id="dummy-1_h1_7_12"  />
</g>
<g id="a1_0013"  >
<polygon points="502,85 507,80 520,80 520,90 507,90 502,85 " style="fill:white; stroke-width:1; stroke:black; " description="&lt;b&gt;BAY61_RS21550&lt;/b&gt;&lt;br&gt;hypothetical protein&lt;br&gt;Location: 4597854 - 4597330" locus_tag="BAY61_RS21550" class="clusterblast-orf" id="dummy-1_h1_7_13"  />
</g>
<g id="a1_0014"  >
<polygon points="527,90 531,90 536,85 531,80 527,80 527,90 " style="fill:white; stroke-width:1; stroke:black; " description="&lt;b&gt;BAY61_RS21545&lt;/b&gt;&lt;br&gt;type II toxin-antitoxin system Phd/YefM family antitoxin&lt;br&gt;Location: 4597159 - 4596881" locus_tag="BAY61_RS21545" class="clusterblast-orf" id="dummy-1_h1_7_14"  />
</g>
<g id="a1_0015"  >
<polygon points="537,90 546,90 551,85 546,80 537,80 537,90 " style="fill:white; stroke-width:1; stroke:black; " description="&lt;b&gt;BAY61_RS21540&lt;/b&gt;&lt;br&gt;twitching motility protein PilT&lt;br&gt;Location: 4596864 - 4596484" locus_tag="BAY61_RS21540" class="clusterblast-orf" id="dummy-1_h1_7_15"  />
</g>
<g id="a1_0016"  >
<polygon points="553,90 597,90 602,85 597,80 553,80 553,90 " style="fill:white; stroke-width:1; stroke:black; " description="&lt;b&gt;BAY61_RS21535&lt;/b&gt;&lt;br&gt;DUF4365 domain-containing protein&lt;br&gt;Location: 4596413 - 4595028" locus_tag="BAY61_RS21535" class="clusterblast-orf" id="dummy-1_h1_7_16"  />
</g>
<g id="a1_0017"  >
<polygon points="604,85 609,80 627,80 627,90 609,90 604,85 " style="fill:white; stroke-width:1; stroke:black; " description="&lt;b&gt;BAY61_RS21530&lt;/b&gt;&lt;br&gt;MBL fold metallo-hydrolase&lt;br&gt;Location: 4594994 - 4594320" locus_tag="BAY61_RS21530" class="clusterblast-orf" id="dummy-1_h1_7_17"  />
</g>
<g id="a1_0018"  >
<polygon points="635,90 671,90 676,85 671,80 635,80 635,90 " style="fill:white; stroke-width:1; stroke:black; " description="&lt;b&gt;BAY61_RS21525&lt;/b&gt;&lt;br&gt;acyltransferase&lt;br&gt;Location: 4594107 - 4592956" locus_tag="BAY61_RS21525" class="clusterblast-orf" id="dummy-1_h1_7_18"  />
</g>
<g id="a1_0019"  >
<polygon points="678,90 775,90 780,85 775,80 678,80 678,90 " style="fill:white; stroke-width:1; stroke:black; " description="&lt;b&gt;BAY61_RS21520&lt;/b&gt;&lt;br&gt;excinuclease ABC subunit UvrA&lt;br&gt;Location: 4592900 - 4590045" locus_tag="BAY61_RS21520" class="clusterblast-orf" id="dummy-1_h1_7_19"  />
</g>
</svg>
