<svg xmlns="http://www.w3.org/2000/svg" xmlns:xlink="http://www.w3.org/1999/xlink" version="1.1" x="0" y="0" height="230" width="800" viewBox="0 0 800 230" preserveAspectRatio="none"  >
<g label="Query sequence" class="clusterblast-cluster"  >
<text x="5" y="20" class="clusterblast-acc"  >
Query sequence</text>
<line x1="10" y1="35" x2="778.0" y2="35" style="stroke-width:1; stroke:grey; "  />
<polygon points="13,40 15,40 20,35 15,30 13,30 13,40 " style="fill:white; stroke-width:1; stroke:black; " description="&lt;b&gt;ctg36_7&lt;/b&gt;&lt;br&gt;ctg36 7&lt;br&gt;Location: 3104 - 3671" locus_tag="ctg36_7" class="clusterblast-orf" id="dummy-1_q0_0_all"  />
<polygon points="20,40 22,40 27,35 22,30 20,30 20,40 " style="fill:white; stroke-width:1; stroke:black; " description="&lt;b&gt;ctg36_8&lt;/b&gt;&lt;br&gt;ctg36 8&lt;br&gt;Location: 3661 - 4210" locus_tag="ctg36_8" class="clusterblast-orf" id="dummy-1_q1_0_all"  />
<polygon points="27,40 27,40 32,35 27,30 27,30 27,40 " style="fill:white; stroke-width:1; stroke:black; " description="&lt;b&gt;ctg36_9&lt;/b&gt;&lt;br&gt;ctg36 9&lt;br&gt;Location: 4256 - 4646" locus_tag="ctg36_9" class="clusterblast-orf" id="dummy-1_q2_0_all"  />
<polygon points="32,40 36,35 32,30 32,40 " style="fill:white; stroke-width:1; stroke:black; " description="&lt;b&gt;ctg36_10&lt;/b&gt;&lt;br&gt;ctg36 10&lt;br&gt;Location: 4642 - 4978" locus_tag="ctg36_10" class="clusterblast-orf" id="dummy-1_q3_0_all"  />
<polygon points="37,40 38,40 43,35 38,30 37,30 37,40 " style="fill:white; stroke-width:1; stroke:black; " description="&lt;b&gt;ctg36_11&lt;/b&gt;&lt;br&gt;ctg36 11&lt;br&gt;Location: 5080 - 5554" locus_tag="ctg36_11" class="clusterblast-orf" id="dummy-1_q4_0_all"  />
<polygon points="43,40 47,35 43,30 43,40 " style="fill:white; stroke-width:1; stroke:black; " description="&lt;b&gt;ctg36_12&lt;/b&gt;&lt;br&gt;ctg36 12&lt;br&gt;Location: 5550 - 5844" locus_tag="ctg36_12" class="clusterblast-orf" id="dummy-1_q5_0_all"  />
<polygon points="47,40 50,35 47,30 47,40 " style="fill:white; stroke-width:1; stroke:black; " description="&lt;b&gt;ctg36_13&lt;/b&gt;&lt;br&gt;ctg36 13&lt;br&gt;Location: 5875 - 6052" locus_tag="ctg36_13" class="clusterblast-orf" id="dummy-1_q6_0_all"  />
<polygon points="50,40 50,40 55,35 50,30 50,30 50,40 " style="fill:white; stroke-width:1; stroke:black; " description="&lt;b&gt;ctg36_14&lt;/b&gt;&lt;br&gt;ctg36 14&lt;br&gt;Location: 6058 - 6448" locus_tag="ctg36_14" class="clusterblast-orf" id="dummy-1_q7_0_all"  />
<polygon points="55,40 56,40 61,35 56,30 55,30 55,40 " style="fill:white; stroke-width:1; stroke:black; " description="&lt;b&gt;ctg36_15&lt;/b&gt;&lt;br&gt;ctg36 15&lt;br&gt;Location: 6444 - 6978" locus_tag="ctg36_15" class="clusterblast-orf" id="dummy-1_q8_0_all"  />
<polygon points="61,40 64,40 69,35 64,30 61,30 61,40 " style="fill:white; stroke-width:1; stroke:black; " description="&lt;b&gt;ctg36_16&lt;/b&gt;&lt;br&gt;ctg36 16&lt;br&gt;Location: 6977 - 7553" locus_tag="ctg36_16" class="clusterblast-orf" id="dummy-1_q9_0_all"  />
<polygon points="69,35 73,30 73,40 69,35 " style="fill:white; stroke-width:1; stroke:black; " description="&lt;b&gt;ctg36_17&lt;/b&gt;&lt;br&gt;ctg36 17&lt;br&gt;Location: 7565 - 7922" locus_tag="ctg36_17" class="clusterblast-orf" id="dummy-1_q10_0_all"  />
<polygon points="74,40 77,35 74,30 74,40 " style="fill:white; stroke-width:1; stroke:black; " description="&lt;b&gt;ctg36_18&lt;/b&gt;&lt;br&gt;ctg36 18&lt;br&gt;Location: 7990 - 8212" locus_tag="ctg36_18" class="clusterblast-orf" id="dummy-1_q11_0_all"  />
<polygon points="80,35 85,30 86,30 86,40 85,40 80,35 " style="fill:white; stroke-width:1; stroke:black; " description="&lt;b&gt;ctg36_19&lt;/b&gt;&lt;br&gt;ctg36 19&lt;br&gt;Location: 8457 - 8949" locus_tag="ctg36_19" class="clusterblast-orf" id="dummy-1_q12_0_all"  />
<polygon points="92,35 97,30 100,30 100,40 97,40 92,35 " style="fill:white; stroke-width:1; stroke:black; " description="&lt;b&gt;ctg36_20&lt;/b&gt;&lt;br&gt;ctg36 20&lt;br&gt;Location: 9380 - 10028" locus_tag="ctg36_20" class="clusterblast-orf" id="dummy-1_q13_0_all"  />
<polygon points="101,40 105,40 110,35 105,30 101,30 101,40 " style="fill:white; stroke-width:1; stroke:black; " description="&lt;b&gt;ctg36_21&lt;/b&gt;&lt;br&gt;ctg36 21&lt;br&gt;Location: 10106 - 10841" locus_tag="ctg36_21" class="clusterblast-orf" id="dummy-1_q14_0_all"  />
<polygon points="110,40 116,40 121,35 116,30 110,30 110,40 " style="fill:white; stroke-width:1; stroke:black; " description="&lt;b&gt;ctg36_22&lt;/b&gt;&lt;br&gt;ctg36 22&lt;br&gt;Location: 10837 - 11695" locus_tag="ctg36_22" class="clusterblast-orf" id="dummy-1_q15_0_all"  />
<polygon points="120,35 125,30 147,30 147,40 125,40 120,35 " style="fill:white; stroke-width:1; stroke:black; " description="&lt;b&gt;ctg36_23&lt;/b&gt;&lt;br&gt;ctg36 23&lt;br&gt;Location: 11667 - 13809" locus_tag="ctg36_23" class="clusterblast-orf" id="dummy-1_q16_0_all"  />
<polygon points="148,35 151,30 151,40 148,35 " style="fill:white; stroke-width:1; stroke:black; " description="&lt;b&gt;ctg36_24&lt;/b&gt;&lt;br&gt;ctg36 24&lt;br&gt;Location: 13817 - 14096" locus_tag="ctg36_24" class="clusterblast-orf" id="dummy-1_q17_0_all"  />
<polygon points="153,40 157,40 162,35 157,30 153,30 153,40 " style="fill:#d81515; stroke-width:1; stroke:black; " description="&lt;b&gt;ctg36_25&lt;/b&gt;&lt;br&gt;ctg36 25&lt;br&gt;Location: 14269 - 14974" locus_tag="ctg36_25" class="clusterblast-orf" id="dummy-1_q18_0_all"  />
<polygon points="163,40 174,40 179,35 174,30 163,30 163,40 " style="fill:#4dd815; stroke-width:1; stroke:black; " description="&lt;b&gt;ctg36_26&lt;/b&gt;&lt;br&gt;ctg36 26&lt;br&gt;Location: 15016 - 16327" locus_tag="ctg36_26" class="clusterblast-orf" id="dummy-1_q19_0_all"  />
<polygon points="179,40 188,40 193,35 188,30 179,30 179,40 " style="fill:#1585d8; stroke-width:1; stroke:black; " description="&lt;b&gt;ctg36_27&lt;/b&gt;&lt;br&gt;ctg36 27&lt;br&gt;Location: 16323 - 17439" locus_tag="ctg36_27" class="clusterblast-orf" id="dummy-1_q20_0_all"  />
<polygon points="193,40 197,40 202,35 197,30 193,30 193,40 " style="fill:#a115d8; stroke-width:1; stroke:black; " description="&lt;b&gt;ctg36_28&lt;/b&gt;&lt;br&gt;ctg36 28&lt;br&gt;Location: 17432 - 18143" locus_tag="ctg36_28" class="clusterblast-orf" id="dummy-1_q21_0_all"  />
<polygon points="203,40 217,40 222,35 217,30 203,30 203,40 " style="fill:#d86915; stroke-width:1; stroke:black; " description="&lt;b&gt;ctg36_29&lt;/b&gt;&lt;br&gt;ctg36 29&lt;br&gt;Location: 18181 - 19726" locus_tag="ctg36_29" class="clusterblast-orf" id="dummy-1_q22_0_all"  />
<polygon points="222,40 229,40 234,35 229,30 222,30 222,40 " style="fill:#15d831; stroke-width:1; stroke:black; " description="&lt;b&gt;ctg36_30&lt;/b&gt;&lt;br&gt;ctg36 30&lt;br&gt;Location: 19722 - 20682" locus_tag="ctg36_30" class="clusterblast-orf" id="dummy-1_q23_0_all"  />
<polygon points="234,40 239,40 244,35 239,30 234,30 234,40 " style="fill:#1531d8; stroke-width:1; stroke:black; " description="&lt;b&gt;ctg36_31&lt;/b&gt;&lt;br&gt;ctg36 31&lt;br&gt;Location: 20678 - 21482" locus_tag="ctg36_31" class="clusterblast-orf" id="dummy-1_q24_0_all"  />
<polygon points="244,40 258,40 263,35 258,30 244,30 244,40 " style="fill:#d815bc; stroke-width:1; stroke:black; " description="&lt;b&gt;ctg36_32&lt;/b&gt;&lt;br&gt;ctg36 32&lt;br&gt;Location: 21478 - 22984" locus_tag="ctg36_32" class="clusterblast-orf" id="dummy-1_q25_0_all"  />
<polygon points="263,40 327,40 332,35 327,30 263,30 263,40 " style="fill:#d8bc15; stroke-width:1; stroke:black; " description="&lt;b&gt;ctg36_33&lt;/b&gt;&lt;br&gt;ctg36 33&lt;br&gt;Location: 22980 - 28428" locus_tag="ctg36_33" class="clusterblast-orf" id="dummy-1_q26_0_all"  />
<polygon points="332,40 350,40 355,35 350,30 332,30 332,40 " style="fill:#15d885; stroke-width:1; stroke:black; " description="&lt;b&gt;ctg36_34&lt;/b&gt;&lt;br&gt;ctg36 34&lt;br&gt;Location: 28430 - 30248" locus_tag="ctg36_34" class="clusterblast-orf" id="dummy-1_q27_0_all"  />
<polygon points="355,40 371,40 376,35 371,30 355,30 355,40 " style="fill:#15d885; stroke-width:1; stroke:black; " description="&lt;b&gt;ctg36_35&lt;/b&gt;&lt;br&gt;ctg36 35&lt;br&gt;Location: 30244 - 31987" locus_tag="ctg36_35" class="clusterblast-orf" id="dummy-1_q28_0_all"  />
<polygon points="376,40 385,40 390,35 385,30 376,30 376,40 " style="fill:#4d15d8; stroke-width:1; stroke:black; " description="&lt;b&gt;ctg36_36&lt;/b&gt;&lt;br&gt;ctg36 36&lt;br&gt;Location: 31983 - 33072" locus_tag="ctg36_36" class="clusterblast-orf" id="dummy-1_q29_0_all"  />
<polygon points="390,40 416,40 421,35 416,30 390,30 390,40 " style="fill:#d8bc15; stroke-width:1; stroke:black; " description="&lt;b&gt;ctg36_37&lt;/b&gt;&lt;br&gt;ctg36 37&lt;br&gt;Location: 33068 - 35528" locus_tag="ctg36_37" class="clusterblast-orf" id="dummy-1_q30_0_all"  />
<polygon points="421,40 440,40 445,35 440,30 421,30 421,40 " style="fill:#d81569; stroke-width:1; stroke:black; " description="&lt;b&gt;ctg36_38&lt;/b&gt;&lt;br&gt;ctg36 38&lt;br&gt;Location: 35544 - 37386" locus_tag="ctg36_38" class="clusterblast-orf" id="dummy-1_q31_0_all"  />
<polygon points="445,40 455,40 460,35 455,30 445,30 445,40 " style="fill:#a1d815; stroke-width:1; stroke:black; " description="&lt;b&gt;ctg36_39&lt;/b&gt;&lt;br&gt;ctg36 39&lt;br&gt;Location: 37397 - 38612" locus_tag="ctg36_39" class="clusterblast-orf" id="dummy-1_q32_0_all"  />
<polygon points="460,40 475,40 480,35 475,30 460,30 460,40 " style="fill:#15d8d8; stroke-width:1; stroke:black; " description="&lt;b&gt;ctg36_40&lt;/b&gt;&lt;br&gt;ctg36 40&lt;br&gt;Location: 38608 - 40204" locus_tag="ctg36_40" class="clusterblast-orf" id="dummy-1_q33_0_all"  />
<polygon points="480,40 490,40 495,35 490,30 480,30 480,40 " style="fill:#a1d815; stroke-width:1; stroke:black; " description="&lt;b&gt;ctg36_41&lt;/b&gt;&lt;br&gt;ctg36 41&lt;br&gt;Location: 40196 - 41381" locus_tag="ctg36_41" class="clusterblast-orf" id="dummy-1_q34_0_all"  />
<polygon points="495,40 571,40 576,35 571,30 495,30 495,40 " style="fill:#d8bc15; stroke-width:1; stroke:black; " description="&lt;b&gt;ctg36_42&lt;/b&gt;&lt;br&gt;ctg36 42&lt;br&gt;Location: 41409 - 47793" locus_tag="ctg36_42" class="clusterblast-orf" id="dummy-1_q35_0_all"  />
<polygon points="576,40 579,40 584,35 579,30 576,30 576,40 " style="fill:white; stroke-width:1; stroke:black; " description="&lt;b&gt;ctg36_43&lt;/b&gt;&lt;br&gt;ctg36 43&lt;br&gt;Location: 47809 - 48424" locus_tag="ctg36_43" class="clusterblast-orf" id="dummy-1_q36_0_all"  />
<polygon points="584,40 587,40 592,35 587,30 584,30 584,40 " style="fill:white; stroke-width:1; stroke:black; " description="&lt;b&gt;ctg36_44&lt;/b&gt;&lt;br&gt;ctg36 44&lt;br&gt;Location: 48427 - 49078" locus_tag="ctg36_44" class="clusterblast-orf" id="dummy-1_q37_0_all"  />
<polygon points="592,40 599,40 604,35 599,30 592,30 592,40 " style="fill:#15d831; stroke-width:1; stroke:black; " description="&lt;b&gt;ctg36_45&lt;/b&gt;&lt;br&gt;ctg36 45&lt;br&gt;Location: 49074 - 50019" locus_tag="ctg36_45" class="clusterblast-orf" id="dummy-1_q38_0_all"  />
<polygon points="604,40 609,40 614,35 609,30 604,30 604,40 " style="fill:#1531d8; stroke-width:1; stroke:black; " description="&lt;b&gt;ctg36_46&lt;/b&gt;&lt;br&gt;ctg36 46&lt;br&gt;Location: 50015 - 50828" locus_tag="ctg36_46" class="clusterblast-orf" id="dummy-1_q39_0_all"  />
<polygon points="614,40 614,40 619,35 614,30 614,30 614,40 " style="fill:#d815bc; stroke-width:1; stroke:black; " description="&lt;b&gt;ctg36_47&lt;/b&gt;&lt;br&gt;ctg36 47&lt;br&gt;Location: 50824 - 51223" locus_tag="ctg36_47" class="clusterblast-orf" id="dummy-1_q40_0_all"  />
<polygon points="619,40 621,35 619,30 619,40 " style="fill:white; stroke-width:1; stroke:black; " description="&lt;b&gt;ctg36_48&lt;/b&gt;&lt;br&gt;ctg36 48&lt;br&gt;Location: 51219 - 51432" locus_tag="ctg36_48" class="clusterblast-orf" id="dummy-1_q41_0_all"  />
<polygon points="622,35 627,30 632,30 632,40 627,40 622,35 " style="fill:white; stroke-width:1; stroke:black; " description="&lt;b&gt;ctg36_49&lt;/b&gt;&lt;br&gt;ctg36 49&lt;br&gt;Location: 51447 - 52263" locus_tag="ctg36_49" class="clusterblast-orf" id="dummy-1_q42_0_all"  />
<polygon points="633,40 637,35 633,30 633,40 " style="fill:white; stroke-width:1; stroke:black; " description="&lt;b&gt;ctg36_50&lt;/b&gt;&lt;br&gt;ctg36 50&lt;br&gt;Location: 52381 - 52657" locus_tag="ctg36_50" class="clusterblast-orf" id="dummy-1_q43_0_all"  />
<polygon points="639,40 641,35 639,30 639,40 " style="fill:white; stroke-width:1; stroke:black; " description="&lt;b&gt;ctg36_51&lt;/b&gt;&lt;br&gt;ctg36 51&lt;br&gt;Location: 52830 - 53007" locus_tag="ctg36_51" class="clusterblast-orf" id="dummy-1_q44_0_all"  />
<polygon points="645,35 650,30 650,30 650,40 650,40 645,35 " style="fill:white; stroke-width:1; stroke:black; " description="&lt;b&gt;ctg36_52&lt;/b&gt;&lt;br&gt;ctg36 52&lt;br&gt;Location: 53324 - 53690" locus_tag="ctg36_52" class="clusterblast-orf" id="dummy-1_q45_0_all"  />
<polygon points="652,35 657,30 658,30 658,40 657,40 652,35 " style="fill:white; stroke-width:1; stroke:black; " description="&lt;b&gt;ctg36_53&lt;/b&gt;&lt;br&gt;ctg36 53&lt;br&gt;Location: 53824 - 54319" locus_tag="ctg36_53" class="clusterblast-orf" id="dummy-1_q46_0_all"  />
<polygon points="659,35 664,30 666,30 666,40 664,40 659,35 " style="fill:white; stroke-width:1; stroke:black; " description="&lt;b&gt;ctg36_54&lt;/b&gt;&lt;br&gt;ctg36 54&lt;br&gt;Location: 54386 - 54995" locus_tag="ctg36_54" class="clusterblast-orf" id="dummy-1_q47_0_all"  />
<polygon points="671,40 675,35 671,30 671,40 " style="fill:white; stroke-width:1; stroke:black; " description="&lt;b&gt;ctg36_55&lt;/b&gt;&lt;br&gt;ctg36 55&lt;br&gt;Location: 55341 - 55686" locus_tag="ctg36_55" class="clusterblast-orf" id="dummy-1_q48_0_all"  />
<polygon points="683,40 685,40 690,35 685,30 683,30 683,40 " style="fill:white; stroke-width:1; stroke:black; " description="&lt;b&gt;ctg36_56&lt;/b&gt;&lt;br&gt;ctg36 56&lt;br&gt;Location: 56327 - 56840" locus_tag="ctg36_56" class="clusterblast-orf" id="dummy-1_q49_0_all"  />
<polygon points="698,35 703,30 718,30 718,40 703,40 698,35 " style="fill:white; stroke-width:1; stroke:black; " description="&lt;b&gt;ctg36_57&lt;/b&gt;&lt;br&gt;ctg36 57&lt;br&gt;Location: 57479 - 59060" locus_tag="ctg36_57" class="clusterblast-orf" id="dummy-1_q50_0_all"  />
<polygon points="718,35 723,30 723,30 723,40 723,40 718,35 " style="fill:white; stroke-width:1; stroke:black; " description="&lt;b&gt;ctg36_58&lt;/b&gt;&lt;br&gt;ctg36 58&lt;br&gt;Location: 59056 - 59470" locus_tag="ctg36_58" class="clusterblast-orf" id="dummy-1_q51_0_all"  />
<polygon points="724,40 727,40 732,35 727,30 724,30 724,40 " style="fill:white; stroke-width:1; stroke:black; " description="&lt;b&gt;ctg36_59&lt;/b&gt;&lt;br&gt;ctg36 59&lt;br&gt;Location: 59550 - 60195" locus_tag="ctg36_59" class="clusterblast-orf" id="dummy-1_q52_0_all"  />
<polygon points="732,40 739,40 744,35 739,30 732,30 732,40 " style="fill:#d815bc; stroke-width:1; stroke:black; " description="&lt;b&gt;ctg36_60&lt;/b&gt;&lt;br&gt;ctg36 60&lt;br&gt;Location: 60191 - 61127" locus_tag="ctg36_60" class="clusterblast-orf" id="dummy-1_q53_0_all"  />
<polygon points="744,40 749,40 754,35 749,30 744,30 744,40 " style="fill:white; stroke-width:1; stroke:black; " description="&lt;b&gt;ctg36_61&lt;/b&gt;&lt;br&gt;ctg36 61&lt;br&gt;Location: 61123 - 61921" locus_tag="ctg36_61" class="clusterblast-orf" id="dummy-1_q54_0_all"  />
<polygon points="754,40 756,35 754,30 754,40 " style="fill:white; stroke-width:1; stroke:black; " description="&lt;b&gt;ctg36_62&lt;/b&gt;&lt;br&gt;ctg36 62&lt;br&gt;Location: 61947 - 62076" locus_tag="ctg36_62" class="clusterblast-orf" id="dummy-1_q55_0_all"  />
<polygon points="756,35 761,30 762,30 762,40 761,40 756,35 " style="fill:white; stroke-width:1; stroke:black; " description="&lt;b&gt;ctg36_63&lt;/b&gt;&lt;br&gt;ctg36 63&lt;br&gt;Location: 62088 - 62604" locus_tag="ctg36_63" class="clusterblast-orf" id="dummy-1_q56_0_all"  />
<polygon points="763,35 767,30 767,40 763,35 " style="fill:white; stroke-width:1; stroke:black; " description="&lt;b&gt;ctg36_64&lt;/b&gt;&lt;br&gt;ctg36 64&lt;br&gt;Location: 62656 - 62956" locus_tag="ctg36_64" class="clusterblast-orf" id="dummy-1_q57_0_all"  />
</g>
<g label="NZ_CP013854" description="NZ_CP013854_c12: Pseudonocardia sp. HH130630-07, complete genome (41% of genes show similarity), nrps" class="clusterblast-cluster"  >
<text x="5" y="70" class="clusterblast-acc"  >
<a xlink:href="https://antismash-db.secondarymetabolites.org/go/NZ_CP013854/12" target="_blank">NZ_CP013854_c12</a>: Pseudonocardia sp. HH130630-07, complete genome (41% of genes show similarity), nrps</text>
<line x1="10" y1="85" x2="778.0" y2="85" style="stroke-width:1; stroke:grey; "  />
</g>
<g id="a1_000"  >
<polygon points="0,90 11,90 16,85 11,80 0,80 0,90 " style="fill:white; stroke-width:1; stroke:black; " description="&lt;b&gt;AFB00_RS19430&lt;/b&gt;&lt;br&gt;YeeE/YedE family protein&lt;br&gt;Location: 4092646 - 4093932" locus_tag="AFB00_RS19430" class="clusterblast-orf" id="dummy-1_h1_3_0"  />
</g>
<g id="a1_001"  >
<polygon points="16,85 21,80 26,80 26,90 21,90 16,85 " style="fill:white; stroke-width:1; stroke:black; " description="&lt;b&gt;AFB00_RS19435&lt;/b&gt;&lt;br&gt;hypothetical protein&lt;br&gt;Location: 4093951 - 4094754" locus_tag="AFB00_RS19435" class="clusterblast-orf" id="dummy-1_h1_3_1"  />
</g>
<g id="a1_002"  >
<polygon points="26,85 31,80 36,80 36,90 31,90 26,85 " style="fill:white; stroke-width:1; stroke:black; " description="&lt;b&gt;AFB00_RS19440&lt;/b&gt;&lt;br&gt;carboxypeptidase regulatory-like domain-containing protein&lt;br&gt;Location: 4094751 - 4095557" locus_tag="AFB00_RS19440" class="clusterblast-orf" id="dummy-1_h1_3_2"  />
</g>
<g id="a1_003"  >
<polygon points="38,90 45,90 50,85 45,80 38,80 38,90 " style="fill:white; stroke-width:1; stroke:black; " description="&lt;b&gt;AFB00_RS19445&lt;/b&gt;&lt;br&gt;diiron oxygenase&lt;br&gt;Location: 4095709 - 4096623" locus_tag="AFB00_RS19445" class="clusterblast-orf" id="dummy-1_h1_3_3"  />
</g>
<g id="a1_004"  >
<polygon points="50,90 64,90 69,85 64,80 50,80 50,90 " style="fill:white; stroke-width:1; stroke:black; " description="&lt;b&gt;AFB00_RS19450&lt;/b&gt;&lt;br&gt;ferredoxin-NADP reductase&lt;br&gt;Location: 4096637 - 4098175" locus_tag="AFB00_RS19450" class="clusterblast-orf" id="dummy-1_h1_3_4"  />
</g>
<g id="a1_005"  >
<polygon points="70,90 90,90 95,85 90,80 70,80 70,90 " style="fill:white; stroke-width:1; stroke:black; " description="&lt;b&gt;AFB00_RS19455&lt;/b&gt;&lt;br&gt;S9 family peptidase&lt;br&gt;Location: 4098242 - 4100197" locus_tag="AFB00_RS19455" class="clusterblast-orf" id="dummy-1_h1_3_5"  />
</g>
<g id="a1_006"  >
<polygon points="96,90 108,90 113,85 108,80 96,80 96,90 " style="fill:white; stroke-width:1; stroke:black; " description="&lt;b&gt;AFB00_RS19460&lt;/b&gt;&lt;br&gt;MFS transporter&lt;br&gt;Location: 4100270 - 4101664" locus_tag="AFB00_RS19460" class="clusterblast-orf" id="dummy-1_h1_3_6"  />
</g>
<g id="a1_007"  >
<polygon points="114,85 119,80 123,80 123,90 119,90 114,85 " style="fill:white; stroke-width:1; stroke:black; " description="&lt;b&gt;AFB00_RS19465&lt;/b&gt;&lt;br&gt;hypothetical protein&lt;br&gt;Location: 4101713 - 4102465" locus_tag="AFB00_RS19465" class="clusterblast-orf" id="dummy-1_h1_3_7"  />
</g>
<g id="a1_008"  >
<polygon points="129,90 133,90 138,85 133,80 129,80 129,90 " style="fill:#d81515; stroke-width:1; stroke:black; " description="&lt;b&gt;AFB00_RS19470&lt;/b&gt;&lt;br&gt;thioesterase&lt;br&gt;Location: 4102914 - 4103642&lt;br&gt;&lt;br&gt;&lt;b&gt;BlastP hit with ctg36_25&lt;/b&gt;&lt;br&gt;Percentage identity: 62&lt;br&gt;Percentage coverage: 95&lt;br&gt;BLAST bit score: 267&lt;br&gt;E-value: 1.1e-69" locus_tag="AFB00_RS19470" class="clusterblast-orf" id="dummy-1_h1_3_8"  />
</g>
<g id="a1_009"  >
<polygon points="138,90 151,90 156,85 151,80 138,80 138,90 " style="fill:#4dd815; stroke-width:1; stroke:black; " description="&lt;b&gt;AFB00_RS19475&lt;/b&gt;&lt;br&gt;salicylate synthase&lt;br&gt;Location: 4103645 - 4105051&lt;br&gt;&lt;br&gt;&lt;b&gt;BlastP hit with ctg36_26&lt;/b&gt;&lt;br&gt;Percentage identity: 57&lt;br&gt;Percentage coverage: 100&lt;br&gt;BLAST bit score: 431&lt;br&gt;E-value: 1.1e-118" locus_tag="AFB00_RS19475" class="clusterblast-orf" id="dummy-1_h1_3_9"  />
</g>
<g id="a1_0010"  >
<polygon points="156,90 164,90 169,85 164,80 156,80 156,90 " style="fill:#1585d8; stroke-width:1; stroke:black; " description="&lt;b&gt;AFB00_RS19480&lt;/b&gt;&lt;br&gt;thiazolinyl imide reductase&lt;br&gt;Location: 4105048 - 4106118&lt;br&gt;&lt;br&gt;&lt;b&gt;BlastP hit with ctg36_27&lt;/b&gt;&lt;br&gt;Percentage identity: 67&lt;br&gt;Percentage coverage: 98&lt;br&gt;BLAST bit score: 468&lt;br&gt;E-value: 6.8e-130" locus_tag="AFB00_RS19480" class="clusterblast-orf" id="dummy-1_h1_3_10"  />
</g>
<g id="a1_0011"  >
<polygon points="169,90 172,90 177,85 172,80 169,80 169,90 " style="fill:#a115d8; stroke-width:1; stroke:black; " description="&lt;b&gt;AFB00_RS19485&lt;/b&gt;&lt;br&gt;hypothetical protein&lt;br&gt;Location: 4106115 - 4106762&lt;br&gt;&lt;br&gt;&lt;b&gt;BlastP hit with ctg36_28&lt;/b&gt;&lt;br&gt;Percentage identity: 57&lt;br&gt;Percentage coverage: 95&lt;br&gt;BLAST bit score: 242&lt;br&gt;E-value: 3.9e-62" locus_tag="AFB00_RS19485" class="clusterblast-orf" id="dummy-1_h1_3_11"  />
</g>
<g id="a1_0012"  >
<polygon points="178,90 193,90 198,85 193,80 178,80 178,90 " style="fill:#d86915; stroke-width:1; stroke:black; " description="&lt;b&gt;AFB00_RS19490&lt;/b&gt;&lt;br&gt;ABC transporter substrate-binding protein&lt;br&gt;Location: 4106829 - 4108376&lt;br&gt;&lt;br&gt;&lt;b&gt;BlastP hit with ctg36_29&lt;/b&gt;&lt;br&gt;Percentage identity: 60&lt;br&gt;Percentage coverage: 91&lt;br&gt;BLAST bit score: 549&lt;br&gt;E-value: 4.2e-154" locus_tag="AFB00_RS19490" class="clusterblast-orf" id="dummy-1_h1_3_12"  />
</g>
<g id="a1_0013"  >
<polygon points="198,90 205,90 210,85 205,80 198,80 198,90 " style="fill:#15d831; stroke-width:1; stroke:black; " description="&lt;b&gt;AFB00_RS19495&lt;/b&gt;&lt;br&gt;ABC transporter permease&lt;br&gt;Location: 4108373 - 4109323&lt;br&gt;&lt;br&gt;&lt;b&gt;BlastP hit with ctg36_30&lt;/b&gt;&lt;br&gt;Percentage identity: 73&lt;br&gt;Percentage coverage: 97&lt;br&gt;BLAST bit score: 386&lt;br&gt;E-value: 2.9e-105&lt;br&gt;&lt;br&gt;&lt;b&gt;BlastP hit with ctg36_45&lt;/b&gt;&lt;br&gt;Percentage identity: 36&lt;br&gt;Percentage coverage: 101&lt;br&gt;BLAST bit score: 130&lt;br&gt;E-value: 2.8e-28" locus_tag="AFB00_RS19495" class="clusterblast-orf" id="dummy-1_h1_3_13"  />
</g>
<g id="a1_0014"  >
<polygon points="210,90 215,90 220,85 215,80 210,80 210,90 " style="fill:#1531d8; stroke-width:1; stroke:black; " description="&lt;b&gt;AFB00_RS19500&lt;/b&gt;&lt;br&gt;ABC transporter permease&lt;br&gt;Location: 4109320 - 4110120&lt;br&gt;&lt;br&gt;&lt;b&gt;BlastP hit with ctg36_31&lt;/b&gt;&lt;br&gt;Percentage identity: 71&lt;br&gt;Percentage coverage: 94&lt;br&gt;BLAST bit score: 322&lt;br&gt;E-value: 5.7e-86&lt;br&gt;&lt;br&gt;&lt;b&gt;BlastP hit with ctg36_46&lt;/b&gt;&lt;br&gt;Percentage identity: 39&lt;br&gt;Percentage coverage: 99&lt;br&gt;BLAST bit score: 125&lt;br&gt;E-value: 7.9e-27" locus_tag="AFB00_RS19500" class="clusterblast-orf" id="dummy-1_h1_3_14"  />
</g>
<g id="a1_0015"  >
<polygon points="220,90 234,90 239,85 234,80 220,80 220,90 " style="fill:#d815bc; stroke-width:1; stroke:black; " description="&lt;b&gt;AFB00_RS19505&lt;/b&gt;&lt;br&gt;ABC transporter ATP-binding protein&lt;br&gt;Location: 4110117 - 4111646&lt;br&gt;&lt;br&gt;&lt;b&gt;BlastP hit with ctg36_32&lt;/b&gt;&lt;br&gt;Percentage identity: 61&lt;br&gt;Percentage coverage: 99&lt;br&gt;BLAST bit score: 533&lt;br&gt;E-value: 3e-149&lt;br&gt;&lt;br&gt;&lt;b&gt;BlastP hit with ctg36_47&lt;/b&gt;&lt;br&gt;Percentage identity: 43&lt;br&gt;Percentage coverage: 92&lt;br&gt;BLAST bit score: 67&lt;br&gt;E-value: 9.5e-10" locus_tag="AFB00_RS19505" class="clusterblast-orf" id="dummy-1_h1_3_15"  />
</g>
<g id="a1_0016"  >
<polygon points="239,90 299,90 304,85 299,80 239,80 239,90 " style="fill:#d8bc15; stroke-width:1; stroke:black; " description="&lt;b&gt;AFB00_RS19510&lt;/b&gt;&lt;br&gt;methyltransferase domain-containing protein&lt;br&gt;Location: 4111643 - 4116820&lt;br&gt;&lt;br&gt;&lt;b&gt;BlastP hit with ctg36_33&lt;/b&gt;&lt;br&gt;Percentage identity: 65&lt;br&gt;Percentage coverage: 100&lt;br&gt;BLAST bit score: 2160&lt;br&gt;E-value: 0.0&lt;br&gt;&lt;br&gt;&lt;b&gt;BlastP hit with ctg36_37&lt;/b&gt;&lt;br&gt;Percentage identity: 38&lt;br&gt;Percentage coverage: 41&lt;br&gt;BLAST bit score: 174&lt;br&gt;E-value: 5.8e-41&lt;br&gt;&lt;br&gt;&lt;b&gt;BlastP hit with ctg36_42&lt;/b&gt;&lt;br&gt;Percentage identity: 46&lt;br&gt;Percentage coverage: 48&lt;br&gt;BLAST bit score: 722&lt;br&gt;E-value: 1.5e-205" locus_tag="AFB00_RS19510" class="clusterblast-orf" id="dummy-1_h1_3_16"  />
</g>
<g id="a1_0017"  >
<polygon points="304,90 322,90 327,85 322,80 304,80 304,90 " style="fill:#15d885; stroke-width:1; stroke:black; " description="&lt;b&gt;AFB00_RS19515&lt;/b&gt;&lt;br&gt;ABC transporter ATP-binding protein&lt;br&gt;Location: 4116817 - 4118616&lt;br&gt;&lt;br&gt;&lt;b&gt;BlastP hit with ctg36_34&lt;/b&gt;&lt;br&gt;Percentage identity: 71&lt;br&gt;Percentage coverage: 96&lt;br&gt;BLAST bit score: 799&lt;br&gt;E-value: 3.6e-229&lt;br&gt;&lt;br&gt;&lt;b&gt;BlastP hit with ctg36_35&lt;/b&gt;&lt;br&gt;Percentage identity: 38&lt;br&gt;Percentage coverage: 83&lt;br&gt;BLAST bit score: 274&lt;br&gt;E-value: 2.9e-71" locus_tag="AFB00_RS19515" class="clusterblast-orf" id="dummy-1_h1_3_17"  />
</g>
<g id="a1_0018"  >
<polygon points="327,90 344,90 349,85 344,80 327,80 327,90 " style="fill:#15d885; stroke-width:1; stroke:black; " description="&lt;b&gt;AFB00_RS19520&lt;/b&gt;&lt;br&gt;ABC transporter ATP-binding protein&lt;br&gt;Location: 4118613 - 4120355&lt;br&gt;&lt;br&gt;&lt;b&gt;BlastP hit with ctg36_34&lt;/b&gt;&lt;br&gt;Percentage identity: 35&lt;br&gt;Percentage coverage: 87&lt;br&gt;BLAST bit score: 275&lt;br&gt;E-value: 1.1e-71&lt;br&gt;&lt;br&gt;&lt;b&gt;BlastP hit with ctg36_35&lt;/b&gt;&lt;br&gt;Percentage identity: 69&lt;br&gt;Percentage coverage: 100&lt;br&gt;BLAST bit score: 747&lt;br&gt;E-value: 9.1e-214" locus_tag="AFB00_RS19520" class="clusterblast-orf" id="dummy-1_h1_3_18"  />
</g>
<g id="a1_0019"  >
<polygon points="349,90 356,90 361,85 356,80 349,80 349,90 " style="fill:#4d15d8; stroke-width:1; stroke:black; " description="&lt;b&gt;AFB00_RS19525&lt;/b&gt;&lt;br&gt;hypothetical protein&lt;br&gt;Location: 4120352 - 4121356&lt;br&gt;&lt;br&gt;&lt;b&gt;BlastP hit with ctg36_36&lt;/b&gt;&lt;br&gt;Percentage identity: 44&lt;br&gt;Percentage coverage: 101&lt;br&gt;BLAST bit score: 230&lt;br&gt;E-value: 3e-58" locus_tag="AFB00_RS19525" class="clusterblast-orf" id="dummy-1_h1_3_19"  />
</g>
<g id="a1_0020"  >
<polygon points="361,90 384,90 389,85 384,80 361,80 361,90 " style="fill:#d8bc15; stroke-width:1; stroke:black; " description="&lt;b&gt;AFB00_RS19530&lt;/b&gt;&lt;br&gt;methyltransferase domain-containing protein&lt;br&gt;Location: 4121353 - 4123572&lt;br&gt;&lt;br&gt;&lt;b&gt;BlastP hit with ctg36_37&lt;/b&gt;&lt;br&gt;Percentage identity: 47&lt;br&gt;Percentage coverage: 99&lt;br&gt;BLAST bit score: 529&lt;br&gt;E-value: 9.3e-148" locus_tag="AFB00_RS19530" class="clusterblast-orf" id="dummy-1_h1_3_20"  />
</g>
<g id="a1_0021"  >
<polygon points="390,90 408,90 413,85 408,80 390,80 390,90 " style="fill:#d81569; stroke-width:1; stroke:black; " description="&lt;b&gt;AFB00_RS19535&lt;/b&gt;&lt;br&gt;asparagine synthase (glutamine-hydrolyzing)&lt;br&gt;Location: 4123616 - 4125457&lt;br&gt;&lt;br&gt;&lt;b&gt;BlastP hit with ctg36_38&lt;/b&gt;&lt;br&gt;Percentage identity: 74&lt;br&gt;Percentage coverage: 100&lt;br&gt;BLAST bit score: 921&lt;br&gt;E-value: 6.3e-266" locus_tag="AFB00_RS19535" class="clusterblast-orf" id="dummy-1_h1_3_21"  />
</g>
<g id="a1_0022"  >
<polygon points="413,90 424,90 429,85 424,80 413,80 413,90 " style="fill:#a1d815; stroke-width:1; stroke:black; " description="&lt;b&gt;AFB00_RS19540&lt;/b&gt;&lt;br&gt;cytochrome P450&lt;br&gt;Location: 4125479 - 4126699&lt;br&gt;&lt;br&gt;&lt;b&gt;BlastP hit with ctg36_39&lt;/b&gt;&lt;br&gt;Percentage identity: 72&lt;br&gt;Percentage coverage: 99&lt;br&gt;BLAST bit score: 561&lt;br&gt;E-value: 1.1e-157&lt;br&gt;&lt;br&gt;&lt;b&gt;BlastP hit with ctg36_41&lt;/b&gt;&lt;br&gt;Percentage identity: 40&lt;br&gt;Percentage coverage: 95&lt;br&gt;BLAST bit score: 226&lt;br&gt;E-value: 4.8e-57" locus_tag="AFB00_RS19540" class="clusterblast-orf" id="dummy-1_h1_3_22"  />
</g>
<g id="a1_0023"  >
<polygon points="429,90 443,90 448,85 443,80 429,80 429,90 " style="fill:#15d8d8; stroke-width:1; stroke:black; " description="&lt;b&gt;AFB00_RS19545&lt;/b&gt;&lt;br&gt;2,3-dihydroxybenzoate-AMP ligase&lt;br&gt;Location: 4126696 - 4128270&lt;br&gt;&lt;br&gt;&lt;b&gt;BlastP hit with ctg36_40&lt;/b&gt;&lt;br&gt;Percentage identity: 66&lt;br&gt;Percentage coverage: 98&lt;br&gt;BLAST bit score: 645&lt;br&gt;E-value: 5.8e-183" locus_tag="AFB00_RS19545" class="clusterblast-orf" id="dummy-1_h1_3_23"  />
</g>
<g id="a1_0024"  >
<polygon points="448,90 524,90 529,85 524,80 448,80 448,90 " style="fill:#d8bc15; stroke-width:1; stroke:black; " description="&lt;b&gt;AFB00_RS19550&lt;/b&gt;&lt;br&gt;non-ribosomal peptide synthetase&lt;br&gt;Location: 4128267 - 4134671&lt;br&gt;&lt;br&gt;&lt;b&gt;BlastP hit with ctg36_33&lt;/b&gt;&lt;br&gt;Percentage identity: 45&lt;br&gt;Percentage coverage: 49&lt;br&gt;BLAST bit score: 641&lt;br&gt;E-value: 2.2e-181&lt;br&gt;&lt;br&gt;&lt;b&gt;BlastP hit with ctg36_42&lt;/b&gt;&lt;br&gt;Percentage identity: 63&lt;br&gt;Percentage coverage: 102&lt;br&gt;BLAST bit score: 2491&lt;br&gt;E-value: 0.0" locus_tag="AFB00_RS19550" class="clusterblast-orf" id="dummy-1_h1_3_24"  />
</g>
<g id="a1_0025"  >
<polygon points="529,85 534,80 537,80 537,90 534,90 529,85 " style="fill:white; stroke-width:1; stroke:black; " description="&lt;b&gt;AFB00_RS19555&lt;/b&gt;&lt;br&gt;hypothetical protein&lt;br&gt;Location: 4134688 - 4135320" locus_tag="AFB00_RS19555" class="clusterblast-orf" id="dummy-1_h1_3_25"  />
</g>
<g id="a1_0026"  >
<polygon points="537,85 542,80 556,80 556,90 542,90 537,85 " style="fill:white; stroke-width:1; stroke:black; " description="&lt;b&gt;AFB00_RS19560&lt;/b&gt;&lt;br&gt;acyltransferase&lt;br&gt;Location: 4135317 - 4136786" locus_tag="AFB00_RS19560" class="clusterblast-orf" id="dummy-1_h1_3_26"  />
</g>
<g id="a1_0027"  >
<polygon points="561,85 566,80 575,80 575,90 566,90 561,85 " style="fill:white; stroke-width:1; stroke:black; " description="&lt;b&gt;AFB00_RS19570&lt;/b&gt;&lt;br&gt;sensor histidine kinase&lt;br&gt;Location: 4137226 - 4138353" locus_tag="AFB00_RS19570" class="clusterblast-orf" id="dummy-1_h1_3_27"  />
</g>
<g id="a1_0028"  >
<polygon points="576,85 581,80 584,80 584,90 581,90 576,85 " style="fill:white; stroke-width:1; stroke:black; " description="&lt;b&gt;AFB00_RS19575&lt;/b&gt;&lt;br&gt;DNA-binding response regulator&lt;br&gt;Location: 4138380 - 4139051" locus_tag="AFB00_RS19575" class="clusterblast-orf" id="dummy-1_h1_3_28"  />
</g>
<g id="a1_0029"  >
<polygon points="590,90 594,90 599,85 594,80 590,80 590,90 " style="fill:white; stroke-width:1; stroke:black; " description="&lt;b&gt;AFB00_RS19585&lt;/b&gt;&lt;br&gt;serine/threonine-protein phosphatase&lt;br&gt;Location: 4139479 - 4140237" locus_tag="AFB00_RS19585" class="clusterblast-orf" id="dummy-1_h1_3_29"  />
</g>
<g id="a1_0030"  >
<polygon points="599,85 604,80 607,80 607,90 604,90 599,85 " style="fill:white; stroke-width:1; stroke:black; " description="&lt;b&gt;AFB00_RS19590&lt;/b&gt;&lt;br&gt;methyltransferase domain-containing protein&lt;br&gt;Location: 4140247 - 4140873" locus_tag="AFB00_RS19590" class="clusterblast-orf" id="dummy-1_h1_3_30"  />
</g>
<g id="a1_0031"  >
<polygon points="684,90 695,90 700,85 695,80 684,80 684,90 " style="fill:white; stroke-width:1; stroke:black; " description="&lt;b&gt;AFB00_RS19615&lt;/b&gt;&lt;br&gt;IS3 family transposase&lt;br&gt;Location: 4146950 - 4148247" locus_tag="AFB00_RS19615" class="clusterblast-orf" id="dummy-1_h1_3_31"  />
</g>
<g id="a1_0032"  >
<polygon points="701,90 702,90 707,85 702,80 701,80 701,90 " style="fill:white; stroke-width:1; stroke:black; " description="&lt;b&gt;AFB00_RS19620&lt;/b&gt;&lt;br&gt;hypothetical protein&lt;br&gt;Location: 4148300 - 4148776" locus_tag="AFB00_RS19620" class="clusterblast-orf" id="dummy-1_h1_3_32"  />
</g>
<g id="a1_0033"  >
<polygon points="708,90 719,90 724,85 719,80 708,80 708,90 " style="fill:white; stroke-width:1; stroke:black; " description="&lt;b&gt;AFB00_RS19625&lt;/b&gt;&lt;br&gt;IS256 family transposase&lt;br&gt;Location: 4148900 - 4150176" locus_tag="AFB00_RS19625" class="clusterblast-orf" id="dummy-1_h1_3_33"  />
</g>
<g id="a1_0034"  >
<polygon points="724,85 728,80 728,90 724,85 " style="fill:white; stroke-width:1; stroke:black; " description="&lt;b&gt;AFB00_RS32120&lt;/b&gt;&lt;br&gt;hypothetical protein&lt;br&gt;Location: 4150136 - 4150480" locus_tag="AFB00_RS32120" class="clusterblast-orf" id="dummy-1_h1_3_34"  />
</g>
<g id="a1_0035"  >
<polygon points="729,90 732,85 729,80 729,90 " style="fill:white; stroke-width:1; stroke:black; " description="&lt;b&gt;AFB00_RS19630&lt;/b&gt;&lt;br&gt;transposase&lt;br&gt;Location: 4150513 - 4150803" locus_tag="AFB00_RS19630" class="clusterblast-orf" id="dummy-1_h1_3_35"  />
</g>
<g id="a1_0036"  >
<polygon points="732,90 739,90 744,85 739,80 732,80 732,90 " style="fill:white; stroke-width:1; stroke:black; " description="&lt;b&gt;AFB00_RS19635&lt;/b&gt;&lt;br&gt;transposase&lt;br&gt;Location: 4150800 - 4151708" locus_tag="AFB00_RS19635" class="clusterblast-orf" id="dummy-1_h1_3_36"  />
</g>
<g id="a1_0037"  >
<polygon points="743,85 748,80 754,80 754,90 748,90 743,85 " style="fill:white; stroke-width:1; stroke:black; " description="&lt;b&gt;AFB00_RS19640&lt;/b&gt;&lt;br&gt;IS3 family transposase&lt;br&gt;Location: 4151672 - 4152535" locus_tag="AFB00_RS19640" class="clusterblast-orf" id="dummy-1_h1_3_37"  />
</g>
<g id="a1_0038"  >
<polygon points="754,85 758,80 758,90 754,85 " style="fill:white; stroke-width:1; stroke:black; " description="&lt;b&gt;AFB00_RS19645&lt;/b&gt;&lt;br&gt;hypothetical protein&lt;br&gt;Location: 4152556 - 4152876" locus_tag="AFB00_RS19645" class="clusterblast-orf" id="dummy-1_h1_3_38"  />
</g>
<g id="a1_0039"  >
<polygon points="759,85 764,80 770,80 770,90 764,90 759,85 " style="fill:white; stroke-width:1; stroke:black; " description="&lt;b&gt;AFB00_RS32125&lt;/b&gt;&lt;br&gt;IS5/IS1182 family transposase&lt;br&gt;Location: 4152922 - 4153819" locus_tag="AFB00_RS32125" class="clusterblast-orf" id="dummy-1_h1_3_39"  />
</g>
<g id="a1_0040"  >
<polygon points="771,90 775,90 780,85 775,80 771,80 771,90 " style="fill:white; stroke-width:1; stroke:black; " description="&lt;b&gt;AFB00_RS19660&lt;/b&gt;&lt;br&gt;single-stranded DNA-binding protein&lt;br&gt;Location: 4153896 - 4154552" locus_tag="AFB00_RS19660" class="clusterblast-orf" id="dummy-1_h1_3_40"  />
</g>
</svg>
