<svg xmlns="http://www.w3.org/2000/svg" xmlns:xlink="http://www.w3.org/1999/xlink" version="1.1" x="0" y="0" height="230" width="800" viewBox="0 0 800 230" preserveAspectRatio="none"  >
<g label="Query sequence" class="clusterblast-cluster"  >
<text x="5" y="20" class="clusterblast-acc"  >
Query sequence</text>
<line x1="10" y1="35" x2="778.0" y2="35" style="stroke-width:1; stroke:grey; "  />
<polygon points="3,40 35,40 40,35 35,30 3,30 3,40 " style="fill:#d81515; stroke-width:1; stroke:black; " description="&lt;b&gt;ctg11_38&lt;/b&gt;&lt;br&gt;ctg11 38&lt;br&gt;Location: 39413 - 40448" locus_tag="ctg11_38" class="clusterblast-orf" id="dummy-1_q0_0_all"  />
<polygon points="41,40 71,40 76,35 71,30 41,30 41,40 " style="fill:#43d815; stroke-width:1; stroke:black; " description="&lt;b&gt;ctg11_39&lt;/b&gt;&lt;br&gt;ctg11 39&lt;br&gt;Location: 40463 - 41453" locus_tag="ctg11_39" class="clusterblast-orf" id="dummy-1_q1_0_all"  />
<polygon points="78,35 83,30 113,30 113,40 83,40 78,35 " style="fill:#15b6d8; stroke-width:1; stroke:black; " description="&lt;b&gt;ctg11_40&lt;/b&gt;&lt;br&gt;ctg11 40&lt;br&gt;Location: 41503 - 42484" locus_tag="ctg11_40" class="clusterblast-orf" id="dummy-1_q2_0_all"  />
<polygon points="118,40 163,40 168,35 163,30 118,30 118,40 " style="fill:#8815d8; stroke-width:1; stroke:black; " description="&lt;b&gt;ctg11_41&lt;/b&gt;&lt;br&gt;ctg11 41&lt;br&gt;Location: 42605 - 44021" locus_tag="ctg11_41" class="clusterblast-orf" id="dummy-1_q3_0_all"  />
<polygon points="168,40 216,40 221,35 216,30 168,30 168,40 " style="fill:#d85a15; stroke-width:1; stroke:black; " description="&lt;b&gt;ctg11_42&lt;/b&gt;&lt;br&gt;ctg11 42&lt;br&gt;Location: 44013 - 45504" locus_tag="ctg11_42" class="clusterblast-orf" id="dummy-1_q4_0_all"  />
<polygon points="221,40 242,40 247,35 242,30 221,30 221,40 " style="fill:#15d82c; stroke-width:1; stroke:black; " description="&lt;b&gt;ctg11_43&lt;/b&gt;&lt;br&gt;ctg11 43&lt;br&gt;Location: 45513 - 46218" locus_tag="ctg11_43" class="clusterblast-orf" id="dummy-1_q5_0_all"  />
<polygon points="254,40 264,40 269,35 264,30 254,30 254,40 " style="fill:#1571d8; stroke-width:1; stroke:black; " description="&lt;b&gt;ctg11_44&lt;/b&gt;&lt;br&gt;ctg11 44&lt;br&gt;Location: 46422 - 46857" locus_tag="ctg11_44" class="clusterblast-orf" id="dummy-1_q6_0_all"  />
<polygon points="271,40 292,40 297,35 292,30 271,30 271,40 " style="fill:#cd15d8; stroke-width:1; stroke:black; " description="&lt;b&gt;ctg11_45&lt;/b&gt;&lt;br&gt;ctg11 45&lt;br&gt;Location: 46912 - 47629" locus_tag="ctg11_45" class="clusterblast-orf" id="dummy-1_q7_0_all"  />
<polygon points="297,40 310,40 315,35 310,30 297,30 297,40 " style="fill:#d89f15; stroke-width:1; stroke:black; " description="&lt;b&gt;ctg11_46&lt;/b&gt;&lt;br&gt;ctg11 46&lt;br&gt;Location: 47638 - 48145" locus_tag="ctg11_46" class="clusterblast-orf" id="dummy-1_q8_0_all"  />
<polygon points="316,35 321,30 339,30 339,40 321,40 316,35 " style="fill:#15d871; stroke-width:1; stroke:black; " description="&lt;b&gt;ctg11_47&lt;/b&gt;&lt;br&gt;ctg11 47&lt;br&gt;Location: 48151 - 48808" locus_tag="ctg11_47" class="clusterblast-orf" id="dummy-1_q9_0_all"  />
<polygon points="349,40 422,40 427,35 422,30 349,30 349,40 " style="fill:#152cd8; stroke-width:1; stroke:black; " description="&lt;b&gt;ctg11_48&lt;/b&gt;&lt;br&gt;ctg11 48&lt;br&gt;Location: 49069 - 51262" locus_tag="ctg11_48" class="clusterblast-orf" id="dummy-1_q10_0_all"  />
<polygon points="454,35 459,30 470,30 470,40 459,40 454,35 " style="fill:#d8159f; stroke-width:1; stroke:black; " description="&lt;b&gt;ctg11_49&lt;/b&gt;&lt;br&gt;ctg11 49&lt;br&gt;Location: 52034 - 52472" locus_tag="ctg11_49" class="clusterblast-orf" id="dummy-1_q11_0_all"  />
<polygon points="476,40 498,40 503,35 498,30 476,30 476,40 " style="fill:#cdd815; stroke-width:1; stroke:black; " description="&lt;b&gt;ctg11_50&lt;/b&gt;&lt;br&gt;ctg11 50&lt;br&gt;Location: 52626 - 53397" locus_tag="ctg11_50" class="clusterblast-orf" id="dummy-1_q12_0_all"  />
<polygon points="503,40 564,40 569,35 564,30 503,30 503,40 " style="fill:#15d8b6; stroke-width:1; stroke:black; " description="&lt;b&gt;ctg11_51&lt;/b&gt;&lt;br&gt;ctg11 51&lt;br&gt;Location: 53398 - 55252" locus_tag="ctg11_51" class="clusterblast-orf" id="dummy-1_q13_0_all"  />
<polygon points="570,35 575,30 586,30 586,40 575,40 570,35 " style="fill:#4315d8; stroke-width:1; stroke:black; " description="&lt;b&gt;ctg11_52&lt;/b&gt;&lt;br&gt;ctg11 52&lt;br&gt;Location: 55256 - 55718" locus_tag="ctg11_52" class="clusterblast-orf" id="dummy-1_q14_0_all"  />
<polygon points="590,35 595,30 614,30 614,40 595,40 590,35 " style="fill:#d8155a; stroke-width:1; stroke:black; " description="&lt;b&gt;ctg11_53&lt;/b&gt;&lt;br&gt;ctg11 53&lt;br&gt;Location: 55830 - 56511" locus_tag="ctg11_53" class="clusterblast-orf" id="dummy-1_q15_0_all"  />
<polygon points="617,40 654,40 659,35 654,30 617,30 617,40 " style="fill:#88d815; stroke-width:1; stroke:black; " description="&lt;b&gt;ctg11_54&lt;/b&gt;&lt;br&gt;ctg11 54&lt;br&gt;Location: 56576 - 57767" locus_tag="ctg11_54" class="clusterblast-orf" id="dummy-1_q16_0_all"  />
<polygon points="660,40 689,40 694,35 689,30 660,30 660,40 " style="fill:#88d815; stroke-width:1; stroke:black; " description="&lt;b&gt;ctg11_55&lt;/b&gt;&lt;br&gt;ctg11 55&lt;br&gt;Location: 57787 - 58735" locus_tag="ctg11_55" class="clusterblast-orf" id="dummy-1_q17_0_all"  />
<polygon points="694,40 725,40 730,35 725,30 694,30 694,40 " style="fill:white; stroke-width:1; stroke:black; " description="&lt;b&gt;ctg11_56&lt;/b&gt;&lt;br&gt;ctg11 56&lt;br&gt;Location: 58734 - 59736" locus_tag="ctg11_56" class="clusterblast-orf" id="dummy-1_q18_0_all"  />
<polygon points="733,40 771,40 776,35 771,30 733,30 733,40 " style="fill:#88d815; stroke-width:1; stroke:black; " description="&lt;b&gt;ctg11_57&lt;/b&gt;&lt;br&gt;ctg11 57&lt;br&gt;Location: 59817 - 61038" locus_tag="ctg11_57" class="clusterblast-orf" id="dummy-1_q19_0_all"  />
</g>
<g label="NZ_KI421511" description="NZ_KI421511_c7: Amycolatopsis thermoflava N1165 AmythDRAFT Scaffold1.2, whole... (90% of genes show similarity), terpene" class="clusterblast-cluster"  >
<text x="5" y="70" class="clusterblast-acc"  >
<a xlink:href="https://antismash-db.secondarymetabolites.org/go/NZ_KI421511/7" target="_blank">NZ_KI421511_c7</a>: Amycolatopsis thermoflava N1165 AmythDRAFT Scaffold1.2, whole... (90% of genes show similarity), terpene</text>
<line x1="10" y1="85" x2="778.0" y2="85" style="stroke-width:1; stroke:grey; "  />
</g>
<g id="a1_000"  >
<polygon points="0,90 31,90 36,85 31,80 0,80 0,90 " style="fill:#d81515; stroke-width:1; stroke:black; " description="&lt;b&gt;AMYTH_RS0113590&lt;/b&gt;&lt;br&gt;ABC transporter permease&lt;br&gt;Location: 2704158 - 2703133&lt;br&gt;&lt;br&gt;&lt;b&gt;BlastP hit with ctg11_38&lt;/b&gt;&lt;br&gt;Percentage identity: 96&lt;br&gt;Percentage coverage: 99&lt;br&gt;BLAST bit score: 589&lt;br&gt;E-value: 3.2e-166" locus_tag="AMYTH_RS0113590" class="clusterblast-orf" id="dummy-1_h1_1_0"  />
</g>
<g id="a1_001"  >
<polygon points="37,90 67,90 72,85 67,80 37,80 37,90 " style="fill:#43d815; stroke-width:1; stroke:black; " description="&lt;b&gt;AMYTH_RS0113585&lt;/b&gt;&lt;br&gt;ABC transporter substrate-binding protein&lt;br&gt;Location: 2703114 - 2702119&lt;br&gt;&lt;br&gt;&lt;b&gt;BlastP hit with ctg11_39&lt;/b&gt;&lt;br&gt;Percentage identity: 95&lt;br&gt;Percentage coverage: 100&lt;br&gt;BLAST bit score: 612&lt;br&gt;E-value: 2.6e-173" locus_tag="AMYTH_RS0113585" class="clusterblast-orf" id="dummy-1_h1_1_1"  />
</g>
<g id="a1_002"  >
<polygon points="75,85 80,80 110,80 110,90 80,90 75,85 " style="fill:#15b6d8; stroke-width:1; stroke:black; " description="&lt;b&gt;AMYTH_RS0113580&lt;/b&gt;&lt;br&gt;LacI family transcriptional regulator&lt;br&gt;Location: 2702050 - 2701070&lt;br&gt;&lt;br&gt;&lt;b&gt;BlastP hit with ctg11_40&lt;/b&gt;&lt;br&gt;Percentage identity: 91&lt;br&gt;Percentage coverage: 100&lt;br&gt;BLAST bit score: 563&lt;br&gt;E-value: 1.8e-158" locus_tag="AMYTH_RS0113580" class="clusterblast-orf" id="dummy-1_h1_1_2"  />
</g>
<g id="a1_003"  >
<polygon points="114,90 159,90 164,85 159,80 114,80 114,90 " style="fill:#8815d8; stroke-width:1; stroke:black; " description="&lt;b&gt;AMYTH_RS0113575&lt;/b&gt;&lt;br&gt;fucose isomerase&lt;br&gt;Location: 2700959 - 2699544&lt;br&gt;&lt;br&gt;&lt;b&gt;BlastP hit with ctg11_41&lt;/b&gt;&lt;br&gt;Percentage identity: 92&lt;br&gt;Percentage coverage: 100&lt;br&gt;BLAST bit score: 891&lt;br&gt;E-value: 4.1e-257" locus_tag="AMYTH_RS0113575" class="clusterblast-orf" id="dummy-1_h1_1_3"  />
</g>
<g id="a1_004"  >
<polygon points="164,90 212,90 217,85 212,80 164,80 164,90 " style="fill:#d85a15; stroke-width:1; stroke:black; " description="&lt;b&gt;AMYTH_RS0113570&lt;/b&gt;&lt;br&gt;sugar kinase&lt;br&gt;Location: 2699551 - 2698061&lt;br&gt;&lt;br&gt;&lt;b&gt;BlastP hit with ctg11_42&lt;/b&gt;&lt;br&gt;Percentage identity: 92&lt;br&gt;Percentage coverage: 100&lt;br&gt;BLAST bit score: 928&lt;br&gt;E-value: 3.2e-268" locus_tag="AMYTH_RS0113570" class="clusterblast-orf" id="dummy-1_h1_1_4"  />
</g>
<g id="a1_005"  >
<polygon points="218,90 238,90 243,85 238,80 218,80 218,90 " style="fill:#15d82c; stroke-width:1; stroke:black; " description="&lt;b&gt;AMYTH_RS0113565&lt;/b&gt;&lt;br&gt;MgtC/SapB family protein&lt;br&gt;Location: 2698051 - 2697347&lt;br&gt;&lt;br&gt;&lt;b&gt;BlastP hit with ctg11_43&lt;/b&gt;&lt;br&gt;Percentage identity: 90&lt;br&gt;Percentage coverage: 100&lt;br&gt;BLAST bit score: 401&lt;br&gt;E-value: 6.4e-110" locus_tag="AMYTH_RS0113565" class="clusterblast-orf" id="dummy-1_h1_1_5"  />
</g>
<g id="a1_006"  >
<polygon points="250,90 261,90 266,85 261,80 250,80 250,90 " style="fill:#1571d8; stroke-width:1; stroke:black; " description="&lt;b&gt;AMYTH_RS0113560&lt;/b&gt;&lt;br&gt;hypothetical protein&lt;br&gt;Location: 2697141 - 2696707&lt;br&gt;&lt;br&gt;&lt;b&gt;BlastP hit with ctg11_44&lt;/b&gt;&lt;br&gt;Percentage identity: 83&lt;br&gt;Percentage coverage: 100&lt;br&gt;BLAST bit score: 232&lt;br&gt;E-value: 3.2e-59" locus_tag="AMYTH_RS0113560" class="clusterblast-orf" id="dummy-1_h1_1_6"  />
</g>
<g id="a1_007"  >
<polygon points="267,90 289,90 294,85 289,80 267,80 267,90 " style="fill:#cd15d8; stroke-width:1; stroke:black; " description="&lt;b&gt;AMYTH_RS0113555&lt;/b&gt;&lt;br&gt;ABC transporter permease&lt;br&gt;Location: 2696660 - 2695914&lt;br&gt;&lt;br&gt;&lt;b&gt;BlastP hit with ctg11_45&lt;/b&gt;&lt;br&gt;Percentage identity: 85&lt;br&gt;Percentage coverage: 100&lt;br&gt;BLAST bit score: 356&lt;br&gt;E-value: 3.2e-96" locus_tag="AMYTH_RS0113555" class="clusterblast-orf" id="dummy-1_h1_1_7"  />
</g>
<g id="a1_008"  >
<polygon points="295,90 308,90 313,85 308,80 295,80 295,90 " style="fill:#d89f15; stroke-width:1; stroke:black; " description="&lt;b&gt;AMYTH_RS0113550&lt;/b&gt;&lt;br&gt;DUF664 domain-containing protein&lt;br&gt;Location: 2695889 - 2695398&lt;br&gt;&lt;br&gt;&lt;b&gt;BlastP hit with ctg11_46&lt;/b&gt;&lt;br&gt;Percentage identity: 89&lt;br&gt;Percentage coverage: 97&lt;br&gt;BLAST bit score: 306&lt;br&gt;E-value: 2e-81" locus_tag="AMYTH_RS0113550" class="clusterblast-orf" id="dummy-1_h1_1_8"  />
</g>
<g id="a1_009"  >
<polygon points="312,85 317,80 336,80 336,90 317,90 312,85 " style="fill:#15d871; stroke-width:1; stroke:black; " description="&lt;b&gt;AMYTH_RS0113545&lt;/b&gt;&lt;br&gt;hypothetical protein&lt;br&gt;Location: 2695401 - 2694754&lt;br&gt;&lt;br&gt;&lt;b&gt;BlastP hit with ctg11_47&lt;/b&gt;&lt;br&gt;Percentage identity: 80&lt;br&gt;Percentage coverage: 96&lt;br&gt;BLAST bit score: 262&lt;br&gt;E-value: 4.3e-68" locus_tag="AMYTH_RS0113545" class="clusterblast-orf" id="dummy-1_h1_1_9"  />
</g>
<g id="a1_0010"  >
<polygon points="345,90 418,90 423,85 418,80 345,80 345,90 " style="fill:#152cd8; stroke-width:1; stroke:black; " description="&lt;b&gt;AMYTH_RS0113540&lt;/b&gt;&lt;br&gt;geosmin synthase&lt;br&gt;Location: 2694491 - 2692305&lt;br&gt;&lt;br&gt;&lt;b&gt;BlastP hit with ctg11_48&lt;/b&gt;&lt;br&gt;Percentage identity: 90&lt;br&gt;Percentage coverage: 100&lt;br&gt;BLAST bit score: 1373&lt;br&gt;E-value: 0.0" locus_tag="AMYTH_RS0113540" class="clusterblast-orf" id="dummy-1_h1_1_10"  />
</g>
<g id="a1_0011"  >
<polygon points="430,85 435,80 447,80 447,90 435,90 430,85 " style="fill:#d8159f; stroke-width:1; stroke:black; " description="&lt;b&gt;AMYTH_RS0113535&lt;/b&gt;&lt;br&gt;ribonuclease HI&lt;br&gt;Location: 2692103 - 2691645&lt;br&gt;&lt;br&gt;&lt;b&gt;BlastP hit with ctg11_49&lt;/b&gt;&lt;br&gt;Percentage identity: 95&lt;br&gt;Percentage coverage: 99&lt;br&gt;BLAST bit score: 297&lt;br&gt;E-value: 8.1e-79" locus_tag="AMYTH_RS0113535" class="clusterblast-orf" id="dummy-1_h1_1_11"  />
</g>
<g id="a1_0012"  >
<polygon points="451,90 474,90 479,85 474,80 451,80 451,90 " style="fill:#cdd815; stroke-width:1; stroke:black; " description="&lt;b&gt;AMYTH_RS0113530&lt;/b&gt;&lt;br&gt;hypothetical protein&lt;br&gt;Location: 2691522 - 2690752&lt;br&gt;&lt;br&gt;&lt;b&gt;BlastP hit with ctg11_50&lt;/b&gt;&lt;br&gt;Percentage identity: 87&lt;br&gt;Percentage coverage: 100&lt;br&gt;BLAST bit score: 497&lt;br&gt;E-value: 1.2e-138" locus_tag="AMYTH_RS0113530" class="clusterblast-orf" id="dummy-1_h1_1_12"  />
</g>
<g id="a1_0013"  >
<polygon points="479,90 540,90 545,85 540,80 479,80 479,90 " style="fill:#15d8b6; stroke-width:1; stroke:black; " description="&lt;b&gt;AMYTH_RS0113525&lt;/b&gt;&lt;br&gt;endonuclease&lt;br&gt;Location: 2690750 - 2688897&lt;br&gt;&lt;br&gt;&lt;b&gt;BlastP hit with ctg11_51&lt;/b&gt;&lt;br&gt;Percentage identity: 88&lt;br&gt;Percentage coverage: 100&lt;br&gt;BLAST bit score: 1095&lt;br&gt;E-value: 0.0" locus_tag="AMYTH_RS0113525" class="clusterblast-orf" id="dummy-1_h1_1_13"  />
</g>
<g id="a1_0014"  >
<polygon points="546,85 551,80 563,80 563,90 551,90 546,85 " style="fill:#4315d8; stroke-width:1; stroke:black; " description="&lt;b&gt;AMYTH_RS0113520&lt;/b&gt;&lt;br&gt;anti-sigma factor antagonist&lt;br&gt;Location: 2688878 - 2688402&lt;br&gt;&lt;br&gt;&lt;b&gt;BlastP hit with ctg11_52&lt;/b&gt;&lt;br&gt;Percentage identity: 77&lt;br&gt;Percentage coverage: 100&lt;br&gt;BLAST bit score: 222&lt;br&gt;E-value: 4.6e-56" locus_tag="AMYTH_RS0113520" class="clusterblast-orf" id="dummy-1_h1_1_14"  />
</g>
<g id="a1_0015"  >
<polygon points="566,85 571,80 590,80 590,90 571,90 566,85 " style="fill:#d8155a; stroke-width:1; stroke:black; " description="&lt;b&gt;AMYTH_RS0113515&lt;/b&gt;&lt;br&gt;transcriptional regulator&lt;br&gt;Location: 2688302 - 2687622&lt;br&gt;&lt;br&gt;&lt;b&gt;BlastP hit with ctg11_53&lt;/b&gt;&lt;br&gt;Percentage identity: 88&lt;br&gt;Percentage coverage: 100&lt;br&gt;BLAST bit score: 371&lt;br&gt;E-value: 9e-101" locus_tag="AMYTH_RS0113515" class="clusterblast-orf" id="dummy-1_h1_1_15"  />
</g>
<g id="a1_0016"  >
<polygon points="593,90 631,90 636,85 631,80 593,80 593,90 " style="fill:#88d815; stroke-width:1; stroke:black; " description="&lt;b&gt;AMYTH_RS0113510&lt;/b&gt;&lt;br&gt;monooxygenase&lt;br&gt;Location: 2687556 - 2686357&lt;br&gt;&lt;br&gt;&lt;b&gt;BlastP hit with ctg11_54&lt;/b&gt;&lt;br&gt;Percentage identity: 85&lt;br&gt;Percentage coverage: 101&lt;br&gt;BLAST bit score: 691&lt;br&gt;E-value: 4e-197&lt;br&gt;&lt;br&gt;&lt;b&gt;BlastP hit with ctg11_57&lt;/b&gt;&lt;br&gt;Percentage identity: 55&lt;br&gt;Percentage coverage: 99&lt;br&gt;BLAST bit score: 447&lt;br&gt;E-value: 1.8e-123" locus_tag="AMYTH_RS0113510" class="clusterblast-orf" id="dummy-1_h1_1_16"  />
</g>
<g id="a1_0017"  >
<polygon points="636,90 665,90 670,85 665,80 636,80 636,90 " style="fill:#88d815; stroke-width:1; stroke:black; " description="&lt;b&gt;AMYTH_RS0113505&lt;/b&gt;&lt;br&gt;transcriptional regulator&lt;br&gt;Location: 2686336 - 2685404&lt;br&gt;&lt;br&gt;&lt;b&gt;BlastP hit with ctg11_55&lt;/b&gt;&lt;br&gt;Percentage identity: 79&lt;br&gt;Percentage coverage: 100&lt;br&gt;BLAST bit score: 503&lt;br&gt;E-value: 2.1e-140" locus_tag="AMYTH_RS0113505" class="clusterblast-orf" id="dummy-1_h1_1_17"  />
</g>
<g id="a1_0018"  >
<polygon points="673,90 719,90 724,85 719,80 673,80 673,90 " style="fill:white; stroke-width:1; stroke:black; " description="&lt;b&gt;AMYTH_RS0113500&lt;/b&gt;&lt;br&gt;aldehyde dehydrogenase&lt;br&gt;Location: 2685324 - 2683894" locus_tag="AMYTH_RS0113500" class="clusterblast-orf" id="dummy-1_h1_1_18"  />
</g>
<g id="a1_0019"  >
<polygon points="724,90 763,90 768,85 763,80 724,80 724,90 " style="fill:#88d815; stroke-width:1; stroke:black; " description="&lt;b&gt;AMYTH_RS0113495&lt;/b&gt;&lt;br&gt;hypothetical protein&lt;br&gt;Location: 2683879 - 2682656&lt;br&gt;&lt;br&gt;&lt;b&gt;BlastP hit with ctg11_54&lt;/b&gt;&lt;br&gt;Percentage identity: 56&lt;br&gt;Percentage coverage: 101&lt;br&gt;BLAST bit score: 424&lt;br&gt;E-value: 1.2e-116&lt;br&gt;&lt;br&gt;&lt;b&gt;BlastP hit with ctg11_57&lt;/b&gt;&lt;br&gt;Percentage identity: 91&lt;br&gt;Percentage coverage: 100&lt;br&gt;BLAST bit score: 769&lt;br&gt;E-value: 1.6e-220" locus_tag="AMYTH_RS0113495" class="clusterblast-orf" id="dummy-1_h1_1_19"  />
</g>
<g id="a1_0020"  >
<polygon points="768,90 775,90 780,85 775,80 768,80 768,90 " style="fill:white; stroke-width:1; stroke:black; " description="&lt;b&gt;AMYTH_RS0113490&lt;/b&gt;&lt;br&gt;EthD family reductase&lt;br&gt;Location: 2682638 - 2682330" locus_tag="AMYTH_RS0113490" class="clusterblast-orf" id="dummy-1_h1_1_20"  />
</g>
</svg>
