<svg xmlns="http://www.w3.org/2000/svg" xmlns:xlink="http://www.w3.org/1999/xlink" version="1.1" x="0" y="0" height="230" width="800" viewBox="0 0 800 230" preserveAspectRatio="none"  >
<g label="Query sequence" class="clusterblast-cluster"  >
<text x="5" y="20" class="clusterblast-acc"  >
Query sequence</text>
<line x1="10" y1="35" x2="778.0" y2="35" style="stroke-width:1; stroke:grey; "  />
<polygon points="198,35 203,30 228,30 228,40 203,40 198,35 " style="fill:#d81515; stroke-width:1; stroke:black; " description="&lt;b&gt;ctg19_63&lt;/b&gt;&lt;br&gt;ctg19 63&lt;br&gt;Location: 70846 - 72163" locus_tag="ctg19_63" class="clusterblast-orf" id="dummy-2_q0_0_all"  />
<polygon points="231,35 236,30 251,30 251,40 236,40 231,35 " style="fill:#4dd815; stroke-width:1; stroke:black; " description="&lt;b&gt;ctg19_64&lt;/b&gt;&lt;br&gt;ctg19 64&lt;br&gt;Location: 72291 - 73164" locus_tag="ctg19_64" class="clusterblast-orf" id="dummy-2_q1_0_all"  />
<polygon points="252,35 257,30 274,30 274,40 257,40 252,35 " style="fill:#1585d8; stroke-width:1; stroke:black; " description="&lt;b&gt;ctg19_65&lt;/b&gt;&lt;br&gt;ctg19 65&lt;br&gt;Location: 73213 - 74197" locus_tag="ctg19_65" class="clusterblast-orf" id="dummy-2_q2_0_all"  />
<polygon points="278,40 293,40 298,35 293,30 278,30 278,40 " style="fill:#a115d8; stroke-width:1; stroke:black; " description="&lt;b&gt;ctg19_66&lt;/b&gt;&lt;br&gt;ctg19 66&lt;br&gt;Location: 74353 - 75220" locus_tag="ctg19_66" class="clusterblast-orf" id="dummy-2_q3_0_all"  />
<polygon points="311,35 316,30 331,30 331,40 316,40 311,35 " style="fill:#d86915; stroke-width:1; stroke:black; " description="&lt;b&gt;ctg19_67&lt;/b&gt;&lt;br&gt;ctg19 67&lt;br&gt;Location: 75771 - 76653" locus_tag="ctg19_67" class="clusterblast-orf" id="dummy-2_q4_0_all"  />
<polygon points="334,40 348,40 353,35 348,30 334,30 334,40 " style="fill:#15d831; stroke-width:1; stroke:black; " description="&lt;b&gt;ctg19_68&lt;/b&gt;&lt;br&gt;ctg19 68&lt;br&gt;Location: 76785 - 77616" locus_tag="ctg19_68" class="clusterblast-orf" id="dummy-2_q5_0_all"  />
<polygon points="353,40 362,40 367,35 362,30 353,30 353,40 " style="fill:#1531d8; stroke-width:1; stroke:black; " description="&lt;b&gt;ctg19_69&lt;/b&gt;&lt;br&gt;ctg19 69&lt;br&gt;Location: 77620 - 78211" locus_tag="ctg19_69" class="clusterblast-orf" id="dummy-2_q6_0_all"  />
<polygon points="367,40 377,40 382,35 377,30 367,30 367,40 " style="fill:#d815bc; stroke-width:1; stroke:black; " description="&lt;b&gt;ctg19_70&lt;/b&gt;&lt;br&gt;ctg19 70&lt;br&gt;Location: 78245 - 78887" locus_tag="ctg19_70" class="clusterblast-orf" id="dummy-2_q7_0_all"  />
<polygon points="381,35 386,30 408,30 408,40 386,40 381,35 " style="fill:#d8bc15; stroke-width:1; stroke:black; " description="&lt;b&gt;ctg19_71&lt;/b&gt;&lt;br&gt;ctg19 71&lt;br&gt;Location: 78859 - 79996" locus_tag="ctg19_71" class="clusterblast-orf" id="dummy-2_q8_0_all"  />
<polygon points="412,40 415,35 412,30 412,40 " style="fill:white; stroke-width:1; stroke:black; " description="&lt;b&gt;ctg19_72&lt;/b&gt;&lt;br&gt;ctg19 72&lt;br&gt;Location: 80184 - 80313" locus_tag="ctg19_72" class="clusterblast-orf" id="dummy-2_q9_0_all"  />
<polygon points="416,40 477,40 482,35 477,30 416,30 416,40 " style="fill:#15d885; stroke-width:1; stroke:black; " description="&lt;b&gt;ctg19_73&lt;/b&gt;&lt;br&gt;ctg19 73&lt;br&gt;Location: 80374 - 83221" locus_tag="ctg19_73" class="clusterblast-orf" id="dummy-2_q10_0_all"  />
<polygon points="484,40 506,40 511,35 506,30 484,30 484,40 " style="fill:#4d15d8; stroke-width:1; stroke:black; " description="&lt;b&gt;ctg19_74&lt;/b&gt;&lt;br&gt;ctg19 74&lt;br&gt;Location: 83315 - 84488" locus_tag="ctg19_74" class="clusterblast-orf" id="dummy-2_q11_0_all"  />
<polygon points="511,35 516,30 522,30 522,40 516,40 511,35 " style="fill:#d81569; stroke-width:1; stroke:black; " description="&lt;b&gt;ctg19_75&lt;/b&gt;&lt;br&gt;ctg19 75&lt;br&gt;Location: 84512 - 85004" locus_tag="ctg19_75" class="clusterblast-orf" id="dummy-2_q12_0_all"  />
<polygon points="530,35 535,30 562,30 562,40 535,40 530,35 " style="fill:#a1d815; stroke-width:1; stroke:black; " description="&lt;b&gt;ctg19_76&lt;/b&gt;&lt;br&gt;ctg19 76&lt;br&gt;Location: 85324 - 86704" locus_tag="ctg19_76" class="clusterblast-orf" id="dummy-2_q13_0_all"  />
<polygon points="561,35 566,30 566,30 566,40 566,40 561,35 " style="fill:#15d8d8; stroke-width:1; stroke:black; " description="&lt;b&gt;ctg19_77&lt;/b&gt;&lt;br&gt;ctg19 77&lt;br&gt;Location: 86703 - 86892" locus_tag="ctg19_77" class="clusterblast-orf" id="dummy-2_q14_0_all"  />
<polygon points="571,35 576,30 582,30 582,40 576,40 571,35 " style="fill:white; stroke-width:1; stroke:black; " description="&lt;b&gt;ctg19_78&lt;/b&gt;&lt;br&gt;ctg19 78&lt;br&gt;Location: 87125 - 87593" locus_tag="ctg19_78" class="clusterblast-orf" id="dummy-2_q15_0_all"  />
</g>
<g label="NZ_KQ257877" description="NZ_KQ257877_c33: Streptomyces stelliscabiei strain P3825 scf 652 123.1, whole... (12% of genes show similarity), lantipeptide" class="clusterblast-cluster"  >
<text x="5" y="70" class="clusterblast-acc"  >
<a xlink:href="https://antismash-db.secondarymetabolites.org/go/NZ_KQ257877/33" target="_blank">NZ_KQ257877_c33</a>: Streptomyces stelliscabiei strain P3825 scf 652 123.1, whole... (12% of genes show similarity), lantipeptide</text>
<line x1="10" y1="85" x2="778.0" y2="85" style="stroke-width:1; stroke:grey; "  />
</g>
<g id="a2_000"  >
<polygon points="0,85 5,80 11,80 11,90 5,90 0,85 " style="fill:white; stroke-width:1; stroke:black; " description="&lt;b&gt;IQ64_RS44880&lt;/b&gt;&lt;br&gt;tRNA modification GTPase&lt;br&gt;Location: 158200 - 157688" locus_tag="IQ64_RS44880" class="clusterblast-orf" id="dummy-2_h2_4_0"  />
</g>
<g id="a2_001"  >
<polygon points="15,90 32,90 37,85 32,80 15,80 15,90 " style="fill:white; stroke-width:1; stroke:black; " description="&lt;b&gt;IQ64_RS44875&lt;/b&gt;&lt;br&gt;hypothetical protein&lt;br&gt;Location: 157538 - 156582" locus_tag="IQ64_RS44875" class="clusterblast-orf" id="dummy-2_h2_4_1"  />
</g>
<g id="a2_002"  >
<polygon points="39,85 44,80 52,80 52,90 44,90 39,85 " style="fill:white; stroke-width:1; stroke:black; " description="&lt;b&gt;IQ64_RS44870&lt;/b&gt;&lt;br&gt;hypothetical protein&lt;br&gt;Location: 156479 - 155901" locus_tag="IQ64_RS44870" class="clusterblast-orf" id="dummy-2_h2_4_2"  />
</g>
<g id="a2_003"  >
<polygon points="50,85 54,80 54,90 50,85 " style="fill:white; stroke-width:1; stroke:black; " description="&lt;b&gt;IQ64_RS48380&lt;/b&gt;&lt;br&gt;hypothetical protein&lt;br&gt;Location: 156003 - 155806" locus_tag="IQ64_RS48380" class="clusterblast-orf" id="dummy-2_h2_4_3"  />
</g>
<g id="a2_004"  >
<polygon points="59,90 76,90 81,85 76,80 59,80 59,90 " style="fill:white; stroke-width:1; stroke:black; " description="&lt;b&gt;IQ64_RS44865&lt;/b&gt;&lt;br&gt;alpha/beta hydrolase&lt;br&gt;Location: 155595 - 154669" locus_tag="IQ64_RS44865" class="clusterblast-orf" id="dummy-2_h2_4_4"  />
</g>
<g id="a2_005"  >
<polygon points="81,90 96,90 101,85 96,80 81,80 81,90 " style="fill:white; stroke-width:1; stroke:black; " description="&lt;b&gt;IQ64_RS44860&lt;/b&gt;&lt;br&gt;KR domain-containing protein&lt;br&gt;Location: 154656 - 153772" locus_tag="IQ64_RS44860" class="clusterblast-orf" id="dummy-2_h2_4_5"  />
</g>
<g id="a2_006"  >
<polygon points="101,90 117,90 122,85 117,80 101,80 101,90 " style="fill:white; stroke-width:1; stroke:black; " description="&lt;b&gt;IQ64_RS44855&lt;/b&gt;&lt;br&gt;KR domain-containing protein&lt;br&gt;Location: 153765 - 152884" locus_tag="IQ64_RS44855" class="clusterblast-orf" id="dummy-2_h2_4_6"  />
</g>
<g id="a2_007"  >
<polygon points="123,90 132,90 137,85 132,80 123,80 123,90 " style="fill:white; stroke-width:1; stroke:black; " description="&lt;b&gt;IQ64_RS44850&lt;/b&gt;&lt;br&gt;TetR/AcrR family transcriptional regulator&lt;br&gt;Location: 152815 - 152201" locus_tag="IQ64_RS44850" class="clusterblast-orf" id="dummy-2_h2_4_7"  />
</g>
<g id="a2_008"  >
<polygon points="136,90 145,90 150,85 145,80 136,80 136,90 " style="fill:white; stroke-width:1; stroke:black; " description="&lt;b&gt;IQ64_RS48375&lt;/b&gt;&lt;br&gt;hypothetical protein&lt;br&gt;Location: 152241 - 151644" locus_tag="IQ64_RS48375" class="clusterblast-orf" id="dummy-2_h2_4_8"  />
</g>
<g id="a2_009"  >
<polygon points="153,90 160,90 165,85 160,80 153,80 153,90 " style="fill:white; stroke-width:1; stroke:black; " description="&lt;b&gt;IQ64_RS47420&lt;/b&gt;&lt;br&gt;hypothetical protein&lt;br&gt;Location: 151504 - 150981" locus_tag="IQ64_RS47420" class="clusterblast-orf" id="dummy-2_h2_4_9"  />
</g>
<g id="a2_0010"  >
<polygon points="170,90 214,90 219,85 214,80 170,80 170,90 " style="fill:white; stroke-width:1; stroke:black; " description="&lt;b&gt;IQ64_RS44845&lt;/b&gt;&lt;br&gt;phosphatase&lt;br&gt;Location: 150774 - 148636" locus_tag="IQ64_RS44845" class="clusterblast-orf" id="dummy-2_h2_4_10"  />
</g>
<g id="a2_0011"  >
<polygon points="220,85 225,80 238,80 238,90 225,90 220,85 " style="fill:white; stroke-width:1; stroke:black; " description="&lt;b&gt;IQ64_RS44840&lt;/b&gt;&lt;br&gt;IS5/IS1182 family transposase&lt;br&gt;Location: 148575 - 147816" locus_tag="IQ64_RS44840" class="clusterblast-orf" id="dummy-2_h2_4_11"  />
</g>
<g id="a2_0012"  >
<polygon points="244,90 253,90 258,85 253,80 244,80 244,90 " style="fill:white; stroke-width:1; stroke:black; " description="&lt;b&gt;IQ64_RS47415&lt;/b&gt;&lt;br&gt;hypothetical protein&lt;br&gt;Location: 147567 - 146920" locus_tag="IQ64_RS47415" class="clusterblast-orf" id="dummy-2_h2_4_12"  />
</g>
<g id="a2_0013"  >
<polygon points="259,90 275,90 280,85 275,80 259,80 259,90 " style="fill:white; stroke-width:1; stroke:black; " description="&lt;b&gt;IQ64_RS44835&lt;/b&gt;&lt;br&gt;hypothetical protein&lt;br&gt;Location: 146884 - 145982" locus_tag="IQ64_RS44835" class="clusterblast-orf" id="dummy-2_h2_4_13"  />
</g>
<g id="a2_0014"  >
<polygon points="280,90 307,90 312,85 307,80 280,80 280,90 " style="fill:white; stroke-width:1; stroke:black; " description="&lt;b&gt;IQ64_RS44830&lt;/b&gt;&lt;br&gt;amidase&lt;br&gt;Location: 145985 - 144576" locus_tag="IQ64_RS44830" class="clusterblast-orf" id="dummy-2_h2_4_14"  />
</g>
<g id="a2_0015"  >
<polygon points="315,85 320,80 335,80 335,90 320,90 315,85 " style="fill:white; stroke-width:1; stroke:black; " description="&lt;b&gt;IQ64_RS44825&lt;/b&gt;&lt;br&gt;aminoglycoside phosphotransferase family protein&lt;br&gt;Location: 144468 - 143587" locus_tag="IQ64_RS44825" class="clusterblast-orf" id="dummy-2_h2_4_15"  />
</g>
<g id="a2_0016"  >
<polygon points="335,85 340,80 367,80 367,90 340,90 335,85 " style="fill:white; stroke-width:1; stroke:black; " description="&lt;b&gt;IQ64_RS44820&lt;/b&gt;&lt;br&gt;XRE family transcriptional regulator&lt;br&gt;Location: 143590 - 142190" locus_tag="IQ64_RS44820" class="clusterblast-orf" id="dummy-2_h2_4_16"  />
</g>
<g id="a2_0017"  >
<polygon points="371,90 377,90 382,85 377,80 371,80 371,90 " style="fill:white; stroke-width:1; stroke:black; " description="&lt;b&gt;IQ64_RS44815&lt;/b&gt;&lt;br&gt;ATP-binding protein&lt;br&gt;Location: 142028 - 141528" locus_tag="IQ64_RS44815" class="clusterblast-orf" id="dummy-2_h2_4_17"  />
</g>
<g id="a2_0018"  >
<polygon points="382,90 390,90 395,85 390,80 382,80 382,90 " style="fill:white; stroke-width:1; stroke:black; " description="&lt;b&gt;IQ64_RS44810&lt;/b&gt;&lt;br&gt;hypothetical protein&lt;br&gt;Location: 141531 - 140983" locus_tag="IQ64_RS44810" class="clusterblast-orf" id="dummy-2_h2_4_18"  />
</g>
<g id="a2_0019"  >
<polygon points="402,90 403,90 408,85 403,80 402,80 402,90 " style="fill:white; stroke-width:1; stroke:black; " description="&lt;b&gt;IQ64_RS47410&lt;/b&gt;&lt;br&gt;hypothetical protein&lt;br&gt;Location: 140682 - 140416" locus_tag="IQ64_RS47410" class="clusterblast-orf" id="dummy-2_h2_4_19"  />
</g>
<g id="a2_0020"  >
<polygon points="409,90 433,90 438,85 433,80 409,80 409,90 " style="fill:white; stroke-width:1; stroke:black; " description="&lt;b&gt;IQ64_RS44805&lt;/b&gt;&lt;br&gt;methyltransferase, FxLD system&lt;br&gt;Location: 140353 - 139109" locus_tag="IQ64_RS44805" class="clusterblast-orf" id="dummy-2_h2_4_20"  />
</g>
<g id="a2_0021"  >
<polygon points="440,90 443,85 440,80 440,90 " style="fill:white; stroke-width:1; stroke:black; " description="&lt;b&gt;IQ64_RS44800&lt;/b&gt;&lt;br&gt;FxLD family lantipeptide&lt;br&gt;Location: 138993 - 138856" locus_tag="IQ64_RS44800" class="clusterblast-orf" id="dummy-2_h2_4_21"  />
</g>
<g id="a2_0022"  >
<polygon points="446,90 510,90 515,85 510,80 446,80 446,90 " style="fill:#15d885; stroke-width:1; stroke:black; " description="&lt;b&gt;IQ64_RS44795&lt;/b&gt;&lt;br&gt;bacteriocin biosynthesis protein&lt;br&gt;Location: 138736 - 135761&lt;br&gt;&lt;br&gt;&lt;b&gt;BlastP hit with ctg19_73&lt;/b&gt;&lt;br&gt;Percentage identity: 34&lt;br&gt;Percentage coverage: 100&lt;br&gt;BLAST bit score: 395&lt;br&gt;E-value: 1.9e-107" locus_tag="IQ64_RS44795" class="clusterblast-orf" id="dummy-2_h2_4_22"  />
</g>
<g id="a2_0023"  >
<polygon points="514,90 536,90 541,85 536,80 514,80 514,90 " style="fill:#4d15d8; stroke-width:1; stroke:black; " description="&lt;b&gt;IQ64_RS44790&lt;/b&gt;&lt;br&gt;lanthionine synthetase&lt;br&gt;Location: 135764 - 134619&lt;br&gt;&lt;br&gt;&lt;b&gt;BlastP hit with ctg19_74&lt;/b&gt;&lt;br&gt;Percentage identity: 37&lt;br&gt;Percentage coverage: 72&lt;br&gt;BLAST bit score: 132&lt;br&gt;E-value: 9.3e-29" locus_tag="IQ64_RS44790" class="clusterblast-orf" id="dummy-2_h2_4_23"  />
</g>
<g id="a2_0024"  >
<polygon points="546,90 558,90 563,85 558,80 546,80 546,90 " style="fill:white; stroke-width:1; stroke:black; " description="&lt;b&gt;IQ64_RS47405&lt;/b&gt;&lt;br&gt;bacteriocin biosynthesis protein&lt;br&gt;Location: 134406 - 133636" locus_tag="IQ64_RS47405" class="clusterblast-orf" id="dummy-2_h2_4_24"  />
</g>
<g id="a2_0025"  >
<polygon points="594,90 598,85 594,80 594,90 " style="fill:#15d8d8; stroke-width:1; stroke:black; " description="&lt;b&gt;IQ64_RS47400&lt;/b&gt;&lt;br&gt;excisionase&lt;br&gt;Location: 132319 - 132122&lt;br&gt;&lt;br&gt;&lt;b&gt;BlastP hit with ctg19_77&lt;/b&gt;&lt;br&gt;Percentage identity: 50&lt;br&gt;Percentage coverage: 84&lt;br&gt;BLAST bit score: 56&lt;br&gt;E-value: 1.8e-06" locus_tag="IQ64_RS47400" class="clusterblast-orf" id="dummy-2_h2_4_25"  />
</g>
<g id="a2_0026"  >
<polygon points="598,90 625,90 630,85 625,80 598,80 598,90 " style="fill:#a1d815; stroke-width:1; stroke:black; " description="&lt;b&gt;IQ64_RS44780&lt;/b&gt;&lt;br&gt;integrase&lt;br&gt;Location: 132125 - 130737&lt;br&gt;&lt;br&gt;&lt;b&gt;BlastP hit with ctg19_76&lt;/b&gt;&lt;br&gt;Percentage identity: 42&lt;br&gt;Percentage coverage: 100&lt;br&gt;BLAST bit score: 324&lt;br&gt;E-value: 2e-86" locus_tag="IQ64_RS44780" class="clusterblast-orf" id="dummy-2_h2_4_26"  />
</g>
<g id="a2_0027"  >
<polygon points="635,85 638,80 638,90 635,85 " style="fill:white; stroke-width:1; stroke:black; " description="&lt;b&gt;IQ64_RS48370&lt;/b&gt;&lt;br&gt;ferrochelatase&lt;br&gt;Location: 130490 - 130365" locus_tag="IQ64_RS48370" class="clusterblast-orf" id="dummy-2_h2_4_27"  />
</g>
<g id="a2_0028"  >
<polygon points="648,90 700,90 705,85 700,80 648,80 648,90 " style="fill:white; stroke-width:1; stroke:black; " description="&lt;b&gt;IQ64_RS44775&lt;/b&gt;&lt;br&gt;PKD domain-containing protein&lt;br&gt;Location: 129942 - 127443" locus_tag="IQ64_RS44775" class="clusterblast-orf" id="dummy-2_h2_4_28"  />
</g>
<g id="a2_0029"  >
<polygon points="706,90 709,85 706,80 706,90 " style="fill:white; stroke-width:1; stroke:black; " description="&lt;b&gt;IQ64_RS47395&lt;/b&gt;&lt;br&gt;hypothetical protein&lt;br&gt;Location: 127432 - 127305" locus_tag="IQ64_RS47395" class="clusterblast-orf" id="dummy-2_h2_4_29"  />
</g>
<g id="a2_0030"  >
<polygon points="709,90 744,90 749,85 744,80 709,80 709,90 " style="fill:white; stroke-width:1; stroke:black; " description="&lt;b&gt;IQ64_RS44770&lt;/b&gt;&lt;br&gt;DUF1080 domain-containing protein&lt;br&gt;Location: 127305 - 125563" locus_tag="IQ64_RS44770" class="clusterblast-orf" id="dummy-2_h2_4_30"  />
</g>
<g id="a2_0031"  >
<polygon points="750,85 755,80 780,80 780,90 755,90 750,85 " style="fill:white; stroke-width:1; stroke:black; " description="&lt;b&gt;IQ64_RS44765&lt;/b&gt;&lt;br&gt;poly(3-hydroxybutyrate) depolymerase&lt;br&gt;Location: 125504 - 124215" locus_tag="IQ64_RS44765" class="clusterblast-orf" id="dummy-2_h2_4_31"  />
</g>
</svg>
