<svg xmlns="http://www.w3.org/2000/svg" xmlns:xlink="http://www.w3.org/1999/xlink" version="1.1" x="0" y="0" height="230" width="800" viewBox="0 0 800 230" preserveAspectRatio="none"  >
<g label="Query sequence" class="clusterblast-cluster"  >
<text x="5" y="20" class="clusterblast-acc"  >
Query sequence</text>
<line x1="10" y1="35" x2="778.0" y2="35" style="stroke-width:1; stroke:grey; "  />
<polygon points="69,40 140,40 145,35 140,30 69,30 69,40 " style="fill:#d81515; stroke-width:1; stroke:black; " description="&lt;b&gt;ctg155_1&lt;/b&gt;&lt;br&gt;ctg155 1&lt;br&gt;Location: 0 - 990" locus_tag="ctg155_1" class="clusterblast-orf" id="dummy-1_q0_0_all"  />
<polygon points="145,40 239,40 244,35 239,30 145,30 145,40 " style="fill:#15d863; stroke-width:1; stroke:black; " description="&lt;b&gt;ctg155_2&lt;/b&gt;&lt;br&gt;ctg155 2&lt;br&gt;Location: 986 - 2267" locus_tag="ctg155_2" class="clusterblast-orf" id="dummy-1_q1_0_all"  />
<polygon points="244,40 376,40 381,35 376,30 244,30 244,40 " style="fill:#1563d8; stroke-width:1; stroke:black; " description="&lt;b&gt;ctg155_3&lt;/b&gt;&lt;br&gt;ctg155 3&lt;br&gt;Location: 2269 - 4033" locus_tag="ctg155_3" class="clusterblast-orf" id="dummy-1_q2_0_all"  />
<polygon points="380,40 478,40 483,35 478,30 380,30 380,40 " style="fill:#b115d8; stroke-width:1; stroke:black; " description="&lt;b&gt;ctg155_4&lt;/b&gt;&lt;br&gt;ctg155 4&lt;br&gt;Location: 4026 - 5355" locus_tag="ctg155_4" class="clusterblast-orf" id="dummy-1_q3_0_all"  />
<polygon points="479,35 484,30 575,30 575,40 484,40 479,35 " style="fill:#b1d815; stroke-width:1; stroke:black; " description="&lt;b&gt;ctg155_5&lt;/b&gt;&lt;br&gt;ctg155 5&lt;br&gt;Location: 5314 - 6553" locus_tag="ctg155_5" class="clusterblast-orf" id="dummy-1_q4_0_all"  />
<polygon points="608,35 613,30 697,30 697,40 613,40 608,35 " style="fill:white; stroke-width:1; stroke:black; " description="&lt;b&gt;ctg155_6&lt;/b&gt;&lt;br&gt;ctg155 6&lt;br&gt;Location: 6976 - 8128" locus_tag="ctg155_6" class="clusterblast-orf" id="dummy-1_q5_0_all"  />
<polygon points="696,35 701,30 712,30 712,40 701,40 696,35 " style="fill:white; stroke-width:1; stroke:black; " description="&lt;b&gt;ctg155_7&lt;/b&gt;&lt;br&gt;ctg155 7&lt;br&gt;Location: 8111 - 8318" locus_tag="ctg155_7" class="clusterblast-orf" id="dummy-1_q6_0_all"  />
</g>
<g label="NZ_AFWY03000023" description="NZ_AFWY03000023_c8: Amycolatopsis sp. ATCC 39116 strain 75iv2 Amy contig00045... (62% of genes show similarity), siderophore" class="clusterblast-cluster"  >
<text x="5" y="70" class="clusterblast-acc"  >
<a xlink:href="https://antismash-db.secondarymetabolites.org/go/NZ_AFWY03000023/8" target="_blank">NZ_AFWY03000023_c8</a>: Amycolatopsis sp. ATCC 39116 strain 75iv2 Amy contig00045... (62% of genes show similarity), siderophore</text>
<line x1="10" y1="85" x2="778.0" y2="85" style="stroke-width:1; stroke:grey; "  />
</g>
<g id="a1_000"  >
<polygon points="0,90 68,90 73,85 68,80 0,80 0,90 " style="fill:white; stroke-width:1; stroke:black; " description="&lt;b&gt;AMY39116_RS0322965&lt;/b&gt;&lt;br&gt;LLM class F420-dependent oxidoreductase&lt;br&gt;Location: 80564 - 79614" locus_tag="AMY39116_RS0322965" class="clusterblast-orf" id="dummy-1_h1_2_0"  />
</g>
<g id="a1_001"  >
<polygon points="84,90 189,90 194,85 189,80 84,80 84,90 " style="fill:#d81515; stroke-width:1; stroke:black; " description="&lt;b&gt;AMY39116_RS0322960&lt;/b&gt;&lt;br&gt;aspartate aminotransferase family protein&lt;br&gt;Location: 79466 - 78048&lt;br&gt;&lt;br&gt;&lt;b&gt;BlastP hit with ctg155_1&lt;/b&gt;&lt;br&gt;Percentage identity: 86&lt;br&gt;Percentage coverage: 98&lt;br&gt;BLAST bit score: 540&lt;br&gt;E-value: 1.6e-151" locus_tag="AMY39116_RS0322960" class="clusterblast-orf" id="dummy-1_h1_2_1"  />
</g>
<g id="a1_002"  >
<polygon points="194,90 287,90 292,85 287,80 194,80 194,90 " style="fill:#15d863; stroke-width:1; stroke:black; " description="&lt;b&gt;AMY39116_RS0322955&lt;/b&gt;&lt;br&gt;lysine 6-monooxygenase&lt;br&gt;Location: 78051 - 76771&lt;br&gt;&lt;br&gt;&lt;b&gt;BlastP hit with ctg155_2&lt;/b&gt;&lt;br&gt;Percentage identity: 87&lt;br&gt;Percentage coverage: 100&lt;br&gt;BLAST bit score: 769&lt;br&gt;E-value: 1.6e-220" locus_tag="AMY39116_RS0322955" class="clusterblast-orf" id="dummy-1_h1_2_2"  />
</g>
<g id="a1_003"  >
<polygon points="292,90 423,90 428,85 423,80 292,80 292,90 " style="fill:#1563d8; stroke-width:1; stroke:black; " description="&lt;b&gt;AMY39116_RS0322950&lt;/b&gt;&lt;br&gt;siderophore biosynthesis protein IucA&lt;br&gt;Location: 76774 - 75014&lt;br&gt;&lt;br&gt;&lt;b&gt;BlastP hit with ctg155_3&lt;/b&gt;&lt;br&gt;Percentage identity: 88&lt;br&gt;Percentage coverage: 100&lt;br&gt;BLAST bit score: 1068&lt;br&gt;E-value: 2.4e-310" locus_tag="AMY39116_RS0322950" class="clusterblast-orf" id="dummy-1_h1_2_3"  />
</g>
<g id="a1_004"  >
<polygon points="428,90 525,90 530,85 525,80 428,80 428,90 " style="fill:#b115d8; stroke-width:1; stroke:black; " description="&lt;b&gt;AMY39116_RS0322945&lt;/b&gt;&lt;br&gt;glutamine synthetase&lt;br&gt;Location: 75020 - 73692&lt;br&gt;&lt;br&gt;&lt;b&gt;BlastP hit with ctg155_4&lt;/b&gt;&lt;br&gt;Percentage identity: 85&lt;br&gt;Percentage coverage: 100&lt;br&gt;BLAST bit score: 752&lt;br&gt;E-value: 2.1e-215" locus_tag="AMY39116_RS0322945" class="clusterblast-orf" id="dummy-1_h1_2_4"  />
</g>
<g id="a1_005"  >
<polygon points="527,85 532,80 623,80 623,90 532,90 527,85 " style="fill:#b1d815; stroke-width:1; stroke:black; " description="&lt;b&gt;AMY39116_RS0322940&lt;/b&gt;&lt;br&gt;DUF2029 domain-containing protein&lt;br&gt;Location: 73732 - 72497&lt;br&gt;&lt;br&gt;&lt;b&gt;BlastP hit with ctg155_5&lt;/b&gt;&lt;br&gt;Percentage identity: 87&lt;br&gt;Percentage coverage: 100&lt;br&gt;BLAST bit score: 705&lt;br&gt;E-value: 3.7e-201" locus_tag="AMY39116_RS0322940" class="clusterblast-orf" id="dummy-1_h1_2_5"  />
</g>
<g id="a1_006"  >
<polygon points="639,90 680,90 685,85 680,80 639,80 639,90 " style="fill:white; stroke-width:1; stroke:black; " description="&lt;b&gt;AMY39116_RS0322935&lt;/b&gt;&lt;br&gt;PadR family transcriptional regulator&lt;br&gt;Location: 72285 - 71686" locus_tag="AMY39116_RS0322935" class="clusterblast-orf" id="dummy-1_h1_2_6"  />
</g>
<g id="a1_007"  >
<polygon points="689,90 775,90 780,85 775,80 689,80 689,90 " style="fill:white; stroke-width:1; stroke:black; " description="&lt;b&gt;AMY39116_RS43445&lt;/b&gt;&lt;br&gt;FAD-dependent monooxygenase&lt;br&gt;Location: 71644 - 70466" locus_tag="AMY39116_RS43445" class="clusterblast-orf" id="dummy-1_h1_2_7"  />
</g>
</svg>
