<svg xmlns="http://www.w3.org/2000/svg" xmlns:xlink="http://www.w3.org/1999/xlink" version="1.1" x="0" y="0" height="230" width="800" viewBox="0 0 800 230" preserveAspectRatio="none"  >
<g label="Query sequence" class="clusterblast-cluster"  >
<text x="5" y="20" class="clusterblast-acc"  >
Query sequence</text>
<line x1="10" y1="35" x2="778.0" y2="35" style="stroke-width:1; stroke:grey; "  />
<polygon points="144,35 149,30 182,30 182,40 149,40 144,35 " style="fill:#d81515; stroke-width:1; stroke:black; " description="&lt;b&gt;ctg19_63&lt;/b&gt;&lt;br&gt;ctg19 63&lt;br&gt;Location: 70846 - 72163" locus_tag="ctg19_63" class="clusterblast-orf" id="dummy-2_q0_0_all"  />
<polygon points="186,35 191,30 212,30 212,40 191,40 186,35 " style="fill:#4dd815; stroke-width:1; stroke:black; " description="&lt;b&gt;ctg19_64&lt;/b&gt;&lt;br&gt;ctg19 64&lt;br&gt;Location: 72291 - 73164" locus_tag="ctg19_64" class="clusterblast-orf" id="dummy-2_q1_0_all"  />
<polygon points="213,35 218,30 242,30 242,40 218,40 213,35 " style="fill:#1585d8; stroke-width:1; stroke:black; " description="&lt;b&gt;ctg19_65&lt;/b&gt;&lt;br&gt;ctg19 65&lt;br&gt;Location: 73213 - 74197" locus_tag="ctg19_65" class="clusterblast-orf" id="dummy-2_q2_0_all"  />
<polygon points="247,40 267,40 272,35 267,30 247,30 247,40 " style="fill:#a115d8; stroke-width:1; stroke:black; " description="&lt;b&gt;ctg19_66&lt;/b&gt;&lt;br&gt;ctg19 66&lt;br&gt;Location: 74353 - 75220" locus_tag="ctg19_66" class="clusterblast-orf" id="dummy-2_q3_0_all"  />
<polygon points="288,35 293,30 314,30 314,40 293,40 288,35 " style="fill:#d86915; stroke-width:1; stroke:black; " description="&lt;b&gt;ctg19_67&lt;/b&gt;&lt;br&gt;ctg19 67&lt;br&gt;Location: 75771 - 76653" locus_tag="ctg19_67" class="clusterblast-orf" id="dummy-2_q4_0_all"  />
<polygon points="318,40 338,40 343,35 338,30 318,30 318,40 " style="fill:#15d831; stroke-width:1; stroke:black; " description="&lt;b&gt;ctg19_68&lt;/b&gt;&lt;br&gt;ctg19 68&lt;br&gt;Location: 76785 - 77616" locus_tag="ctg19_68" class="clusterblast-orf" id="dummy-2_q5_0_all"  />
<polygon points="343,40 355,40 360,35 355,30 343,30 343,40 " style="fill:#1531d8; stroke-width:1; stroke:black; " description="&lt;b&gt;ctg19_69&lt;/b&gt;&lt;br&gt;ctg19 69&lt;br&gt;Location: 77620 - 78211" locus_tag="ctg19_69" class="clusterblast-orf" id="dummy-2_q6_0_all"  />
<polygon points="361,40 375,40 380,35 375,30 361,30 361,40 " style="fill:#d815bc; stroke-width:1; stroke:black; " description="&lt;b&gt;ctg19_70&lt;/b&gt;&lt;br&gt;ctg19 70&lt;br&gt;Location: 78245 - 78887" locus_tag="ctg19_70" class="clusterblast-orf" id="dummy-2_q7_0_all"  />
<polygon points="379,35 384,30 413,30 413,40 384,40 379,35 " style="fill:#d8bc15; stroke-width:1; stroke:black; " description="&lt;b&gt;ctg19_71&lt;/b&gt;&lt;br&gt;ctg19 71&lt;br&gt;Location: 78859 - 79996" locus_tag="ctg19_71" class="clusterblast-orf" id="dummy-2_q8_0_all"  />
<polygon points="418,40 422,35 418,30 418,40 " style="fill:white; stroke-width:1; stroke:black; " description="&lt;b&gt;ctg19_72&lt;/b&gt;&lt;br&gt;ctg19 72&lt;br&gt;Location: 80184 - 80313" locus_tag="ctg19_72" class="clusterblast-orf" id="dummy-2_q9_0_all"  />
<polygon points="424,40 502,40 507,35 502,30 424,30 424,40 " style="fill:#15d885; stroke-width:1; stroke:black; " description="&lt;b&gt;ctg19_73&lt;/b&gt;&lt;br&gt;ctg19 73&lt;br&gt;Location: 80374 - 83221" locus_tag="ctg19_73" class="clusterblast-orf" id="dummy-2_q10_0_all"  />
<polygon points="510,40 540,40 545,35 540,30 510,30 510,40 " style="fill:#4d15d8; stroke-width:1; stroke:black; " description="&lt;b&gt;ctg19_74&lt;/b&gt;&lt;br&gt;ctg19 74&lt;br&gt;Location: 83315 - 84488" locus_tag="ctg19_74" class="clusterblast-orf" id="dummy-2_q11_0_all"  />
<polygon points="545,35 550,30 560,30 560,40 550,40 545,35 " style="fill:#d81569; stroke-width:1; stroke:black; " description="&lt;b&gt;ctg19_75&lt;/b&gt;&lt;br&gt;ctg19 75&lt;br&gt;Location: 84512 - 85004" locus_tag="ctg19_75" class="clusterblast-orf" id="dummy-2_q12_0_all"  />
<polygon points="569,35 574,30 610,30 610,40 574,40 569,35 " style="fill:#a1d815; stroke-width:1; stroke:black; " description="&lt;b&gt;ctg19_76&lt;/b&gt;&lt;br&gt;ctg19 76&lt;br&gt;Location: 85324 - 86704" locus_tag="ctg19_76" class="clusterblast-orf" id="dummy-2_q13_0_all"  />
<polygon points="610,35 615,30 615,30 615,40 615,40 610,35 " style="fill:#15d8d8; stroke-width:1; stroke:black; " description="&lt;b&gt;ctg19_77&lt;/b&gt;&lt;br&gt;ctg19 77&lt;br&gt;Location: 86703 - 86892" locus_tag="ctg19_77" class="clusterblast-orf" id="dummy-2_q14_0_all"  />
<polygon points="622,35 627,30 636,30 636,40 627,40 622,35 " style="fill:white; stroke-width:1; stroke:black; " description="&lt;b&gt;ctg19_78&lt;/b&gt;&lt;br&gt;ctg19 78&lt;br&gt;Location: 87125 - 87593" locus_tag="ctg19_78" class="clusterblast-orf" id="dummy-2_q15_0_all"  />
</g>
<g label="NZ_JRHJ01000078" description="NZ_JRHJ01000078_c26: Streptomyces galbus strain KCCM 41354 contig00093, whole... (17% of genes show similarity), lantipeptide" class="clusterblast-cluster"  >
<text x="5" y="70" class="clusterblast-acc"  >
<a xlink:href="https://antismash-db.secondarymetabolites.org/go/NZ_JRHJ01000078/26" target="_blank">NZ_JRHJ01000078_c26</a>: Streptomyces galbus strain KCCM 41354 contig00093, whole... (17% of genes show similarity), lantipeptide</text>
<line x1="10" y1="85" x2="778.0" y2="85" style="stroke-width:1; stroke:grey; "  />
</g>
<g id="a2_000"  >
<polygon points="0,85 5,80 18,80 18,90 5,90 0,85 " style="fill:white; stroke-width:1; stroke:black; " description="&lt;b&gt;KS09_RS34665&lt;/b&gt;&lt;br&gt;NAD(P)-dependent oxidoreductase&lt;br&gt;Location: 325087 - 325713" locus_tag="KS09_RS34665" class="clusterblast-orf" id="dummy-2_h2_5_0"  />
</g>
<g id="a2_001"  >
<polygon points="23,85 28,80 36,80 36,90 28,90 23,85 " style="fill:white; stroke-width:1; stroke:black; " description="&lt;b&gt;KS09_RS34670&lt;/b&gt;&lt;br&gt;SRPBCC domain-containing protein&lt;br&gt;Location: 325880 - 326329" locus_tag="KS09_RS34670" class="clusterblast-orf" id="dummy-2_h2_5_1"  />
</g>
<g id="a2_002"  >
<polygon points="52,85 57,80 85,80 85,90 57,90 52,85 " style="fill:white; stroke-width:1; stroke:black; " description="&lt;b&gt;KS09_RS34675&lt;/b&gt;&lt;br&gt;epoxide hydrolase&lt;br&gt;Location: 326875 - 328008" locus_tag="KS09_RS34675" class="clusterblast-orf" id="dummy-2_h2_5_2"  />
</g>
<g id="a2_003"  >
<polygon points="95,85 100,80 141,80 141,90 100,90 95,85 " style="fill:white; stroke-width:1; stroke:black; " description="&lt;b&gt;KS09_RS34680&lt;/b&gt;&lt;br&gt;MFS transporter&lt;br&gt;Location: 328352 - 329917" locus_tag="KS09_RS34680" class="clusterblast-orf" id="dummy-2_h2_5_3"  />
</g>
<g id="a2_004"  >
<polygon points="147,85 152,80 172,80 172,90 152,90 147,85 " style="fill:white; stroke-width:1; stroke:black; " description="&lt;b&gt;KS09_RS34685&lt;/b&gt;&lt;br&gt;hypothetical protein&lt;br&gt;Location: 330105 - 330965" locus_tag="KS09_RS34685" class="clusterblast-orf" id="dummy-2_h2_5_4"  />
</g>
<g id="a2_005"  >
<polygon points="174,85 179,80 219,80 219,90 179,90 174,85 " style="fill:white; stroke-width:1; stroke:black; " description="&lt;b&gt;KS09_RS34690&lt;/b&gt;&lt;br&gt;aldehyde dehydrogenase&lt;br&gt;Location: 331039 - 332544" locus_tag="KS09_RS34690" class="clusterblast-orf" id="dummy-2_h2_5_5"  />
</g>
<g id="a2_006"  >
<polygon points="223,85 228,80 258,80 258,90 228,90 223,85 " style="fill:white; stroke-width:1; stroke:black; " description="&lt;b&gt;KS09_RS34695&lt;/b&gt;&lt;br&gt;ferredoxin reductase&lt;br&gt;Location: 332710 - 333894" locus_tag="KS09_RS34695" class="clusterblast-orf" id="dummy-2_h2_5_6"  />
</g>
<g id="a2_007"  >
<polygon points="258,85 263,80 264,80 264,90 263,90 258,85 " style="fill:white; stroke-width:1; stroke:black; " description="&lt;b&gt;KS09_RS34700&lt;/b&gt;&lt;br&gt;ferredoxin&lt;br&gt;Location: 333891 - 334085" locus_tag="KS09_RS34700" class="clusterblast-orf" id="dummy-2_h2_5_7"  />
</g>
<g id="a2_008"  >
<polygon points="266,85 271,80 302,80 302,90 271,90 266,85 " style="fill:white; stroke-width:1; stroke:black; " description="&lt;b&gt;KS09_RS34705&lt;/b&gt;&lt;br&gt;cytochrome P450&lt;br&gt;Location: 334141 - 335373" locus_tag="KS09_RS34705" class="clusterblast-orf" id="dummy-2_h2_5_8"  />
</g>
<g id="a2_009"  >
<polygon points="308,85 311,80 311,90 308,85 " style="fill:white; stroke-width:1; stroke:black; " description="&lt;b&gt;KS09_RS47555&lt;/b&gt;&lt;br&gt;hypothetical protein&lt;br&gt;Location: 335589 - 335705" locus_tag="KS09_RS47555" class="clusterblast-orf" id="dummy-2_h2_5_9"  />
</g>
<g id="a2_0010"  >
<polygon points="311,85 316,80 321,80 321,90 316,90 311,85 " style="fill:white; stroke-width:1; stroke:black; " description="&lt;b&gt;KS09_RS44195&lt;/b&gt;&lt;br&gt;partitioning protein parA&lt;br&gt;Location: 335689 - 336014" locus_tag="KS09_RS44195" class="clusterblast-orf" id="dummy-2_h2_5_10"  />
</g>
<g id="a2_0011"  >
<polygon points="327,85 332,80 343,80 343,90 332,90 327,85 " style="fill:white; stroke-width:1; stroke:black; " description="&lt;b&gt;KS09_RS34715&lt;/b&gt;&lt;br&gt;acetyltransferase&lt;br&gt;Location: 336224 - 336763" locus_tag="KS09_RS34715" class="clusterblast-orf" id="dummy-2_h2_5_11"  />
</g>
<g id="a2_0012"  >
<polygon points="342,85 347,80 380,80 380,90 347,90 342,85 " style="fill:white; stroke-width:1; stroke:black; " description="&lt;b&gt;KS09_RS34720&lt;/b&gt;&lt;br&gt;Tat pathway signal sequence domain protein&lt;br&gt;Location: 336760 - 338046" locus_tag="KS09_RS34720" class="clusterblast-orf" id="dummy-2_h2_5_12"  />
</g>
<g id="a2_0013"  >
<polygon points="387,90 395,90 400,85 395,80 387,80 387,90 " style="fill:white; stroke-width:1; stroke:black; " description="&lt;b&gt;KS09_RS34725&lt;/b&gt;&lt;br&gt;ATP-binding protein&lt;br&gt;Location: 338287 - 338733" locus_tag="KS09_RS34725" class="clusterblast-orf" id="dummy-2_h2_5_13"  />
</g>
<g id="a2_0014"  >
<polygon points="407,90 408,90 413,85 408,80 407,80 407,90 " style="fill:white; stroke-width:1; stroke:black; " description="&lt;b&gt;KS09_RS34730&lt;/b&gt;&lt;br&gt;hypothetical protein&lt;br&gt;Location: 338963 - 339151" locus_tag="KS09_RS34730" class="clusterblast-orf" id="dummy-2_h2_5_14"  />
</g>
<g id="a2_0015"  >
<polygon points="415,90 416,90 421,85 416,80 415,80 415,90 " style="fill:white; stroke-width:1; stroke:black; " description="&lt;b&gt;KS09_RS34735&lt;/b&gt;&lt;br&gt;FxLD family lantipeptide&lt;br&gt;Location: 339245 - 339424" locus_tag="KS09_RS34735" class="clusterblast-orf" id="dummy-2_h2_5_15"  />
</g>
<g id="a2_0016"  >
<polygon points="427,90 509,90 514,85 509,80 427,80 427,90 " style="fill:#15d885; stroke-width:1; stroke:black; " description="&lt;b&gt;KS09_RS34740&lt;/b&gt;&lt;br&gt;lantibiotic dehydratase&lt;br&gt;Location: 339653 - 342598&lt;br&gt;&lt;br&gt;&lt;b&gt;BlastP hit with ctg19_73&lt;/b&gt;&lt;br&gt;Percentage identity: 33&lt;br&gt;Percentage coverage: 101&lt;br&gt;BLAST bit score: 371&lt;br&gt;E-value: 2.9e-100" locus_tag="KS09_RS34740" class="clusterblast-orf" id="dummy-2_h2_5_16"  />
</g>
<g id="a2_0017"  >
<polygon points="514,90 546,90 551,85 546,80 514,80 514,90 " style="fill:#4d15d8; stroke-width:1; stroke:black; " description="&lt;b&gt;KS09_RS34745&lt;/b&gt;&lt;br&gt;lanthionine synthetase&lt;br&gt;Location: 342595 - 343863&lt;br&gt;&lt;br&gt;&lt;b&gt;BlastP hit with ctg19_74&lt;/b&gt;&lt;br&gt;Percentage identity: 34&lt;br&gt;Percentage coverage: 109&lt;br&gt;BLAST bit score: 133&lt;br&gt;E-value: 4.2e-29" locus_tag="KS09_RS34745" class="clusterblast-orf" id="dummy-2_h2_5_17"  />
</g>
<g id="a2_0018"  >
<polygon points="552,90 608,90 613,85 608,80 552,80 552,90 " style="fill:white; stroke-width:1; stroke:black; " description="&lt;b&gt;KS09_RS34750&lt;/b&gt;&lt;br&gt;methyltransferase, FxLD system&lt;br&gt;Location: 343886 - 345976" locus_tag="KS09_RS34750" class="clusterblast-orf" id="dummy-2_h2_5_18"  />
</g>
<g id="a2_0019"  >
<polygon points="616,90 644,90 649,85 644,80 616,80 616,90 " style="fill:white; stroke-width:1; stroke:black; " description="&lt;b&gt;KS09_RS34755&lt;/b&gt;&lt;br&gt;hypothetical protein&lt;br&gt;Location: 346064 - 347197" locus_tag="KS09_RS34755" class="clusterblast-orf" id="dummy-2_h2_5_19"  />
</g>
<g id="a2_0020"  >
<polygon points="684,90 684,90 689,85 684,80 684,80 684,90 " style="fill:#15d8d8; stroke-width:1; stroke:black; " description="&lt;b&gt;KS09_RS46390&lt;/b&gt;&lt;br&gt;excisionase&lt;br&gt;Location: 348369 - 348566&lt;br&gt;&lt;br&gt;&lt;b&gt;BlastP hit with ctg19_77&lt;/b&gt;&lt;br&gt;Percentage identity: 52&lt;br&gt;Percentage coverage: 84&lt;br&gt;BLAST bit score: 57&lt;br&gt;E-value: 4.6e-07" locus_tag="KS09_RS46390" class="clusterblast-orf" id="dummy-2_h2_5_20"  />
</g>
<g id="a2_0021"  >
<polygon points="689,90 725,90 730,85 725,80 689,80 689,90 " style="fill:#a1d815; stroke-width:1; stroke:black; " description="&lt;b&gt;KS09_RS34760&lt;/b&gt;&lt;br&gt;integrase&lt;br&gt;Location: 348563 - 349951&lt;br&gt;&lt;br&gt;&lt;b&gt;BlastP hit with ctg19_76&lt;/b&gt;&lt;br&gt;Percentage identity: 43&lt;br&gt;Percentage coverage: 100&lt;br&gt;BLAST bit score: 318&lt;br&gt;E-value: 1.1e-84" locus_tag="KS09_RS34760" class="clusterblast-orf" id="dummy-2_h2_5_21"  />
</g>
<g id="a2_0022"  >
<polygon points="735,85 740,80 780,80 780,90 740,90 735,85 " style="fill:white; stroke-width:1; stroke:black; " description="&lt;b&gt;KS09_RS34765&lt;/b&gt;&lt;br&gt;aldehyde dehydrogenase&lt;br&gt;Location: 350113 - 351636" locus_tag="KS09_RS34765" class="clusterblast-orf" id="dummy-2_h2_5_22"  />
</g>
</svg>
