<svg xmlns="http://www.w3.org/2000/svg" xmlns:xlink="http://www.w3.org/1999/xlink" version="1.1" x="0" y="0" height="230" width="800" viewBox="0 0 800 230" preserveAspectRatio="none"  >
<g label="Query sequence" class="clusterblast-cluster"  >
<text x="5" y="20" class="clusterblast-acc"  >
Query sequence</text>
<line x1="10" y1="35" x2="778.0" y2="35" style="stroke-width:1; stroke:grey; "  />
<polygon points="0,35 3,30 3,40 0,35 " style="fill:white; stroke-width:1; stroke:black; " description="&lt;b&gt;ctg68_3&lt;/b&gt;&lt;br&gt;ctg68 3&lt;br&gt;Location: 1428 - 1599" locus_tag="ctg68_3" class="clusterblast-orf" id="dummy-1_q0_0_all"  />
<polygon points="11,35 16,30 55,30 55,40 16,40 11,35 " style="fill:#d81515; stroke-width:1; stroke:black; " description="&lt;b&gt;ctg68_4&lt;/b&gt;&lt;br&gt;ctg68 4&lt;br&gt;Location: 2015 - 4208" locus_tag="ctg68_4" class="clusterblast-orf" id="dummy-1_q1_0_all"  />
<polygon points="55,35 60,30 78,30 78,40 60,40 55,35 " style="fill:#6ad815; stroke-width:1; stroke:black; " description="&lt;b&gt;ctg68_5&lt;/b&gt;&lt;br&gt;ctg68 5&lt;br&gt;Location: 4204 - 5329" locus_tag="ctg68_5" class="clusterblast-orf" id="dummy-1_q2_0_all"  />
<polygon points="78,35 83,30 84,30 84,40 83,40 78,35 " style="fill:white; stroke-width:1; stroke:black; " description="&lt;b&gt;ctg68_6&lt;/b&gt;&lt;br&gt;ctg68 6&lt;br&gt;Location: 5328 - 5637" locus_tag="ctg68_6" class="clusterblast-orf" id="dummy-1_q3_0_all"  />
<polygon points="83,35 88,30 89,30 89,40 88,40 83,35 " style="fill:#15bfd8; stroke-width:1; stroke:black; " description="&lt;b&gt;ctg68_7&lt;/b&gt;&lt;br&gt;ctg68 7&lt;br&gt;Location: 5623 - 5878" locus_tag="ctg68_7" class="clusterblast-orf" id="dummy-1_q4_0_all"  />
<polygon points="89,35 94,30 97,30 97,40 94,40 89,35 " style="fill:white; stroke-width:1; stroke:black; " description="&lt;b&gt;ctg68_8&lt;/b&gt;&lt;br&gt;ctg68 8&lt;br&gt;Location: 5877 - 6321" locus_tag="ctg68_8" class="clusterblast-orf" id="dummy-1_q5_0_all"  />
<polygon points="97,35 102,30 103,30 103,40 102,40 97,35 " style="fill:white; stroke-width:1; stroke:black; " description="&lt;b&gt;ctg68_9&lt;/b&gt;&lt;br&gt;ctg68 9&lt;br&gt;Location: 6320 - 6608" locus_tag="ctg68_9" class="clusterblast-orf" id="dummy-1_q6_0_all"  />
<polygon points="106,40 108,40 113,35 108,30 106,30 106,40 " style="fill:white; stroke-width:1; stroke:black; " description="&lt;b&gt;ctg68_10&lt;/b&gt;&lt;br&gt;ctg68 10&lt;br&gt;Location: 6747 - 7104" locus_tag="ctg68_10" class="clusterblast-orf" id="dummy-1_q7_0_all"  />
<polygon points="114,40 114,40 119,35 114,30 114,30 114,40 " style="fill:white; stroke-width:1; stroke:black; " description="&lt;b&gt;ctg68_11&lt;/b&gt;&lt;br&gt;ctg68 11&lt;br&gt;Location: 7161 - 7422" locus_tag="ctg68_11" class="clusterblast-orf" id="dummy-1_q8_0_all"  />
<polygon points="120,40 138,40 143,35 138,30 120,30 120,40 " style="fill:white; stroke-width:1; stroke:black; " description="&lt;b&gt;ctg68_12&lt;/b&gt;&lt;br&gt;ctg68 12&lt;br&gt;Location: 7466 - 8609" locus_tag="ctg68_12" class="clusterblast-orf" id="dummy-1_q9_0_all"  />
<polygon points="143,35 148,30 157,30 157,40 148,40 143,35 " style="fill:white; stroke-width:1; stroke:black; " description="&lt;b&gt;ctg68_13&lt;/b&gt;&lt;br&gt;ctg68 13&lt;br&gt;Location: 8594 - 9296" locus_tag="ctg68_13" class="clusterblast-orf" id="dummy-1_q10_0_all"  />
<polygon points="158,40 173,40 178,35 173,30 158,30 158,40 " style="fill:white; stroke-width:1; stroke:black; " description="&lt;b&gt;ctg68_14&lt;/b&gt;&lt;br&gt;ctg68 14&lt;br&gt;Location: 9343 - 10384" locus_tag="ctg68_14" class="clusterblast-orf" id="dummy-1_q11_0_all"  />
<polygon points="181,40 185,35 181,30 181,40 " style="fill:white; stroke-width:1; stroke:black; " description="&lt;b&gt;ctg68_15&lt;/b&gt;&lt;br&gt;ctg68 15&lt;br&gt;Location: 10516 - 10708" locus_tag="ctg68_15" class="clusterblast-orf" id="dummy-1_q12_0_all"  />
<polygon points="183,35 188,30 202,30 202,40 188,40 183,35 " style="fill:white; stroke-width:1; stroke:black; " description="&lt;b&gt;ctg68_16&lt;/b&gt;&lt;br&gt;ctg68 16&lt;br&gt;Location: 10633 - 11551" locus_tag="ctg68_16" class="clusterblast-orf" id="dummy-1_q13_0_all"  />
<polygon points="202,40 202,40 207,35 202,30 202,30 202,40 " style="fill:white; stroke-width:1; stroke:black; " description="&lt;b&gt;ctg68_17&lt;/b&gt;&lt;br&gt;ctg68 17&lt;br&gt;Location: 11572 - 11800" locus_tag="ctg68_17" class="clusterblast-orf" id="dummy-1_q14_0_all"  />
<polygon points="207,40 211,35 207,30 207,40 " style="fill:white; stroke-width:1; stroke:black; " description="&lt;b&gt;ctg68_18&lt;/b&gt;&lt;br&gt;ctg68 18&lt;br&gt;Location: 11796 - 11991" locus_tag="ctg68_18" class="clusterblast-orf" id="dummy-1_q15_0_all"  />
<polygon points="222,40 222,40 227,35 222,30 222,30 222,40 " style="fill:white; stroke-width:1; stroke:black; " description="&lt;b&gt;ctg68_19&lt;/b&gt;&lt;br&gt;ctg68 19&lt;br&gt;Location: 12546 - 12792" locus_tag="ctg68_19" class="clusterblast-orf" id="dummy-1_q16_0_all"  />
<polygon points="226,35 230,30 230,40 226,35 " style="fill:white; stroke-width:1; stroke:black; " description="&lt;b&gt;ctg68_20&lt;/b&gt;&lt;br&gt;ctg68 20&lt;br&gt;Location: 12788 - 12974" locus_tag="ctg68_20" class="clusterblast-orf" id="dummy-1_q17_0_all"  />
<polygon points="234,35 239,30 243,30 243,40 239,40 234,35 " style="fill:white; stroke-width:1; stroke:black; " description="&lt;b&gt;ctg68_21&lt;/b&gt;&lt;br&gt;ctg68 21&lt;br&gt;Location: 13157 - 13622" locus_tag="ctg68_21" class="clusterblast-orf" id="dummy-1_q18_0_all"  />
<polygon points="245,40 253,40 258,35 253,30 245,30 245,40 " style="fill:white; stroke-width:1; stroke:black; " description="&lt;b&gt;ctg68_22&lt;/b&gt;&lt;br&gt;ctg68 22&lt;br&gt;Location: 13709 - 14369" locus_tag="ctg68_22" class="clusterblast-orf" id="dummy-1_q19_0_all"  />
<polygon points="259,40 263,40 268,35 263,30 259,30 259,40 " style="fill:#9d15d8; stroke-width:1; stroke:black; " description="&lt;b&gt;ctg68_23&lt;/b&gt;&lt;br&gt;ctg68 23&lt;br&gt;Location: 14434 - 14860" locus_tag="ctg68_23" class="clusterblast-orf" id="dummy-1_q20_0_all"  />
<polygon points="270,40 283,40 288,35 283,30 270,30 270,40 " style="fill:white; stroke-width:1; stroke:black; " description="&lt;b&gt;ctg68_24&lt;/b&gt;&lt;br&gt;ctg68 24&lt;br&gt;Location: 14985 - 15846" locus_tag="ctg68_24" class="clusterblast-orf" id="dummy-1_q21_0_all"  />
<polygon points="288,35 293,30 304,30 304,40 293,40 288,35 " style="fill:#d84815; stroke-width:1; stroke:black; " description="&lt;b&gt;ctg68_25&lt;/b&gt;&lt;br&gt;ctg68 25&lt;br&gt;Location: 15892 - 16660" locus_tag="ctg68_25" class="clusterblast-orf" id="dummy-1_q22_0_all"  />
<polygon points="305,40 321,40 326,35 321,30 305,30 305,40 " style="fill:#37d815; stroke-width:1; stroke:black; " description="&lt;b&gt;ctg68_26&lt;/b&gt;&lt;br&gt;ctg68 26&lt;br&gt;Location: 16703 - 17762" locus_tag="ctg68_26" class="clusterblast-orf" id="dummy-1_q23_0_all"  />
<polygon points="325,35 330,30 380,30 380,40 330,40 325,35 " style="fill:#158cd8; stroke-width:1; stroke:black; " description="&lt;b&gt;ctg68_27&lt;/b&gt;&lt;br&gt;ctg68 27&lt;br&gt;Location: 17719 - 20455" locus_tag="ctg68_27" class="clusterblast-orf" id="dummy-1_q24_0_all"  />
<polygon points="383,40 401,40 406,35 401,30 383,30 383,40 " style="fill:#d015d8; stroke-width:1; stroke:black; " description="&lt;b&gt;ctg68_28&lt;/b&gt;&lt;br&gt;ctg68 28&lt;br&gt;Location: 20646 - 21807" locus_tag="ctg68_28" class="clusterblast-orf" id="dummy-1_q25_0_all"  />
<polygon points="408,40 426,40 431,35 426,30 408,30 408,40 " style="fill:#d87b15; stroke-width:1; stroke:black; " description="&lt;b&gt;ctg68_29&lt;/b&gt;&lt;br&gt;ctg68 29&lt;br&gt;Location: 21877 - 23023" locus_tag="ctg68_29" class="clusterblast-orf" id="dummy-1_q26_0_all"  />
<polygon points="431,40 441,40 446,35 441,30 431,30 431,40 " style="fill:#15d826; stroke-width:1; stroke:black; " description="&lt;b&gt;ctg68_30&lt;/b&gt;&lt;br&gt;ctg68 30&lt;br&gt;Location: 23032 - 23809" locus_tag="ctg68_30" class="clusterblast-orf" id="dummy-1_q27_0_all"  />
<polygon points="446,35 451,30 464,30 464,40 451,40 446,35 " style="fill:white; stroke-width:1; stroke:black; " description="&lt;b&gt;ctg68_31&lt;/b&gt;&lt;br&gt;ctg68 31&lt;br&gt;Location: 23805 - 24678" locus_tag="ctg68_31" class="clusterblast-orf" id="dummy-1_q28_0_all"  />
<polygon points="466,40 472,40 477,35 472,30 466,30 466,40 " style="fill:white; stroke-width:1; stroke:black; " description="&lt;b&gt;ctg68_32&lt;/b&gt;&lt;br&gt;ctg68 32&lt;br&gt;Location: 24766 - 25333" locus_tag="ctg68_32" class="clusterblast-orf" id="dummy-1_q29_0_all"  />
<polygon points="479,40 497,40 502,35 497,30 479,30 479,40 " style="fill:#1559d8; stroke-width:1; stroke:black; " description="&lt;b&gt;ctg68_33&lt;/b&gt;&lt;br&gt;ctg68 33&lt;br&gt;Location: 25417 - 26599" locus_tag="ctg68_33" class="clusterblast-orf" id="dummy-1_q30_0_all"  />
<polygon points="506,40 515,40 520,35 515,30 506,30 506,40 " style="fill:#d815ae; stroke-width:1; stroke:black; " description="&lt;b&gt;ctg68_34&lt;/b&gt;&lt;br&gt;ctg68 34&lt;br&gt;Location: 26775 - 27492" locus_tag="ctg68_34" class="clusterblast-orf" id="dummy-1_q31_0_all"  />
<polygon points="521,35 526,30 549,30 549,40 526,40 521,35 " style="fill:#d8ae15; stroke-width:1; stroke:black; " description="&lt;b&gt;ctg68_35&lt;/b&gt;&lt;br&gt;ctg68 35&lt;br&gt;Location: 27526 - 28924" locus_tag="ctg68_35" class="clusterblast-orf" id="dummy-1_q32_0_all"  />
<polygon points="554,40 566,40 571,35 566,30 554,30 554,40 " style="fill:#15d859; stroke-width:1; stroke:black; " description="&lt;b&gt;ctg68_36&lt;/b&gt;&lt;br&gt;ctg68 36&lt;br&gt;Location: 29186 - 30044" locus_tag="ctg68_36" class="clusterblast-orf" id="dummy-1_q33_0_all"  />
<polygon points="572,40 584,40 589,35 584,30 572,30 572,40 " style="fill:#1526d8; stroke-width:1; stroke:black; " description="&lt;b&gt;ctg68_37&lt;/b&gt;&lt;br&gt;ctg68 37&lt;br&gt;Location: 30080 - 30926" locus_tag="ctg68_37" class="clusterblast-orf" id="dummy-1_q34_0_all"  />
<polygon points="592,35 595,30 595,40 592,35 " style="fill:white; stroke-width:1; stroke:black; " description="&lt;b&gt;ctg68_38&lt;/b&gt;&lt;br&gt;ctg68 38&lt;br&gt;Location: 31092 - 31260" locus_tag="ctg68_38" class="clusterblast-orf" id="dummy-1_q35_0_all"  />
<polygon points="595,35 600,30 604,30 604,40 600,40 595,35 " style="fill:#d8157b; stroke-width:1; stroke:black; " description="&lt;b&gt;ctg68_39&lt;/b&gt;&lt;br&gt;ctg68 39&lt;br&gt;Location: 31256 - 31700" locus_tag="ctg68_39" class="clusterblast-orf" id="dummy-1_q36_0_all"  />
<polygon points="607,40 608,40 613,35 608,30 607,30 607,40 " style="fill:#d0d815; stroke-width:1; stroke:black; " description="&lt;b&gt;ctg68_40&lt;/b&gt;&lt;br&gt;ctg68 40&lt;br&gt;Location: 31875 - 32127" locus_tag="ctg68_40" class="clusterblast-orf" id="dummy-1_q37_0_all"  />
<polygon points="614,35 619,30 627,30 627,40 619,40 614,35 " style="fill:#15d88c; stroke-width:1; stroke:black; " description="&lt;b&gt;ctg68_41&lt;/b&gt;&lt;br&gt;ctg68 41&lt;br&gt;Location: 32224 - 32830" locus_tag="ctg68_41" class="clusterblast-orf" id="dummy-1_q38_0_all"  />
<polygon points="629,40 640,40 645,35 640,30 629,30 629,40 " style="fill:#3715d8; stroke-width:1; stroke:black; " description="&lt;b&gt;ctg68_42&lt;/b&gt;&lt;br&gt;ctg68 42&lt;br&gt;Location: 32930 - 33749" locus_tag="ctg68_42" class="clusterblast-orf" id="dummy-1_q39_0_all"  />
<polygon points="644,40 669,40 674,35 669,30 644,30 644,40 " style="fill:#d81548; stroke-width:1; stroke:black; " description="&lt;b&gt;ctg68_43&lt;/b&gt;&lt;br&gt;ctg68 43&lt;br&gt;Location: 33726 - 35223" locus_tag="ctg68_43" class="clusterblast-orf" id="dummy-1_q40_0_all"  />
<polygon points="676,40 696,40 701,35 696,30 676,30 676,40 " style="fill:#9dd815; stroke-width:1; stroke:black; " description="&lt;b&gt;ctg68_44&lt;/b&gt;&lt;br&gt;ctg68 44&lt;br&gt;Location: 35301 - 36537" locus_tag="ctg68_44" class="clusterblast-orf" id="dummy-1_q41_0_all"  />
<polygon points="701,40 733,40 738,35 733,30 701,30 701,40 " style="fill:#15d8bf; stroke-width:1; stroke:black; " description="&lt;b&gt;ctg68_45&lt;/b&gt;&lt;br&gt;ctg68 45&lt;br&gt;Location: 36552 - 38403" locus_tag="ctg68_45" class="clusterblast-orf" id="dummy-1_q42_0_all"  />
<polygon points="745,40 775,40 780,35 775,30 745,30 745,40 " style="fill:#6a15d8; stroke-width:1; stroke:black; " description="&lt;b&gt;ctg68_46&lt;/b&gt;&lt;br&gt;ctg68 46&lt;br&gt;Location: 38751 - 40503" locus_tag="ctg68_46" class="clusterblast-orf" id="dummy-1_q43_0_all"  />
</g>
<g label="NZ_JPLW01000007" description="NZ_JPLW01000007_c25: Amycolatopsis sp. MJM2582 contig00007, whole genome shot... (7% of genes show similarity), arylpolyene" class="clusterblast-cluster"  >
<text x="5" y="70" class="clusterblast-acc"  >
<a xlink:href="https://antismash-db.secondarymetabolites.org/go/NZ_JPLW01000007/25" target="_blank">NZ_JPLW01000007_c25</a>: Amycolatopsis sp. MJM2582 contig00007, whole genome shot... (7% of genes show similarity), arylpolyene</text>
<line x1="10" y1="85" x2="778.0" y2="85" style="stroke-width:1; stroke:grey; "  />
</g>
<g id="a1_000"  >
<polygon points="4,90 16,90 21,85 16,80 4,80 4,90 " style="fill:white; stroke-width:1; stroke:black; " description="&lt;b&gt;ED92_RS35240&lt;/b&gt;&lt;br&gt;carbohydrate ABC transporter permease&lt;br&gt;Location: 113773 - 112943" locus_tag="ED92_RS35240" class="clusterblast-orf" id="dummy-1_h1_10_0"  />
</g>
<g id="a1_001"  >
<polygon points="21,90 45,90 50,85 45,80 21,80 21,90 " style="fill:white; stroke-width:1; stroke:black; " description="&lt;b&gt;ED92_RS35235&lt;/b&gt;&lt;br&gt;beta-N-acetylhexosaminidase&lt;br&gt;Location: 112939 - 111497" locus_tag="ED92_RS35235" class="clusterblast-orf" id="dummy-1_h1_10_1"  />
</g>
<g id="a1_002"  >
<polygon points="54,90 87,90 92,85 87,80 54,80 54,90 " style="fill:white; stroke-width:1; stroke:black; " description="&lt;b&gt;ED92_RS35230&lt;/b&gt;&lt;br&gt;GTP-binding protein&lt;br&gt;Location: 111286 - 109385" locus_tag="ED92_RS35230" class="clusterblast-orf" id="dummy-1_h1_10_2"  />
</g>
<g id="a1_003"  >
<polygon points="92,90 106,90 111,85 106,80 92,80 92,90 " style="fill:white; stroke-width:1; stroke:black; " description="&lt;b&gt;ED92_RS35225&lt;/b&gt;&lt;br&gt;LLM class flavin-dependent oxidoreductase&lt;br&gt;Location: 109369 - 108407" locus_tag="ED92_RS35225" class="clusterblast-orf" id="dummy-1_h1_10_3"  />
</g>
<g id="a1_004"  >
<polygon points="112,85 117,80 130,80 130,90 117,90 112,85 " style="fill:white; stroke-width:1; stroke:black; " description="&lt;b&gt;ED92_RS35220&lt;/b&gt;&lt;br&gt;NAD(P)-dependent oxidoreductase&lt;br&gt;Location: 108351 - 107488" locus_tag="ED92_RS35220" class="clusterblast-orf" id="dummy-1_h1_10_4"  />
</g>
<g id="a1_005"  >
<polygon points="132,90 136,85 132,80 132,90 " style="fill:white; stroke-width:1; stroke:black; " description="&lt;b&gt;ED92_RS35215&lt;/b&gt;&lt;br&gt;hypothetical protein&lt;br&gt;Location: 107383 - 107183" locus_tag="ED92_RS35215" class="clusterblast-orf" id="dummy-1_h1_10_5"  />
</g>
<g id="a1_006"  >
<polygon points="136,85 141,80 151,80 151,90 141,90 136,85 " style="fill:white; stroke-width:1; stroke:black; " description="&lt;b&gt;ED92_RS35210&lt;/b&gt;&lt;br&gt;long-chain-fatty-acid--CoA ligase&lt;br&gt;Location: 107177 - 106440" locus_tag="ED92_RS35210" class="clusterblast-orf" id="dummy-1_h1_10_6"  />
</g>
<g id="a1_007"  >
<polygon points="152,85 157,80 172,80 172,90 157,90 152,85 " style="fill:white; stroke-width:1; stroke:black; " description="&lt;b&gt;ED92_RS35205&lt;/b&gt;&lt;br&gt;glycosyl hydrolase&lt;br&gt;Location: 106384 - 105380" locus_tag="ED92_RS35205" class="clusterblast-orf" id="dummy-1_h1_10_7"  />
</g>
<g id="a1_008"  >
<polygon points="175,85 180,80 191,80 191,90 180,90 175,85 " style="fill:white; stroke-width:1; stroke:black; " description="&lt;b&gt;ED92_RS35200&lt;/b&gt;&lt;br&gt;myo-inositol-1-monophosphatase&lt;br&gt;Location: 105211 - 104423" locus_tag="ED92_RS35200" class="clusterblast-orf" id="dummy-1_h1_10_8"  />
</g>
<g id="a1_009"  >
<polygon points="191,90 200,90 205,85 200,80 191,80 191,90 " style="fill:white; stroke-width:1; stroke:black; " description="&lt;b&gt;ED92_RS35195&lt;/b&gt;&lt;br&gt;creatininase&lt;br&gt;Location: 104404 - 103709" locus_tag="ED92_RS35195" class="clusterblast-orf" id="dummy-1_h1_10_9"  />
</g>
<g id="a1_0010"  >
<polygon points="204,85 209,80 236,80 236,90 209,90 204,85 " style="fill:white; stroke-width:1; stroke:black; " description="&lt;b&gt;ED92_RS42180&lt;/b&gt;&lt;br&gt;GTP cyclohydrolase II&lt;br&gt;Location: 103753 - 102161" locus_tag="ED92_RS42180" class="clusterblast-orf" id="dummy-1_h1_10_10"  />
</g>
<g id="a1_0011"  >
<polygon points="236,85 241,80 252,80 252,90 241,90 236,85 " style="fill:white; stroke-width:1; stroke:black; " description="&lt;b&gt;ED92_RS35180&lt;/b&gt;&lt;br&gt;methyltransferase domain-containing protein&lt;br&gt;Location: 102164 - 101346" locus_tag="ED92_RS35180" class="clusterblast-orf" id="dummy-1_h1_10_11"  />
</g>
<g id="a1_0012"  >
<polygon points="252,85 257,80 274,80 274,90 257,90 252,85 " style="fill:white; stroke-width:1; stroke:black; " description="&lt;b&gt;ED92_RS35175&lt;/b&gt;&lt;br&gt;glycosyltransferase family 1 protein&lt;br&gt;Location: 101349 - 100282" locus_tag="ED92_RS35175" class="clusterblast-orf" id="dummy-1_h1_10_12"  />
</g>
<g id="a1_0013"  >
<polygon points="273,85 278,80 281,80 281,90 278,90 273,85 " style="fill:white; stroke-width:1; stroke:black; " description="&lt;b&gt;ED92_RS35170&lt;/b&gt;&lt;br&gt;6-carboxytetrahydropterin synthase&lt;br&gt;Location: 100285 - 99887" locus_tag="ED92_RS35170" class="clusterblast-orf" id="dummy-1_h1_10_13"  />
</g>
<g id="a1_0014"  >
<polygon points="282,85 287,80 301,80 301,90 287,90 282,85 " style="fill:white; stroke-width:1; stroke:black; " description="&lt;b&gt;ED92_RS35165&lt;/b&gt;&lt;br&gt;dehydrogenase&lt;br&gt;Location: 99865 - 98885" locus_tag="ED92_RS35165" class="clusterblast-orf" id="dummy-1_h1_10_14"  />
</g>
<g id="a1_0015"  >
<polygon points="303,90 311,90 316,85 311,80 303,80 303,90 " style="fill:white; stroke-width:1; stroke:black; " description="&lt;b&gt;ED92_RS35160&lt;/b&gt;&lt;br&gt;CDP-alcohol phosphatidyltransferase&lt;br&gt;Location: 98824 - 98129" locus_tag="ED92_RS35160" class="clusterblast-orf" id="dummy-1_h1_10_15"  />
</g>
<g id="a1_0016"  >
<polygon points="317,85 322,80 324,80 324,90 322,90 317,85 " style="fill:white; stroke-width:1; stroke:black; " description="&lt;b&gt;ED92_RS35155&lt;/b&gt;&lt;br&gt;tautomerase family protein&lt;br&gt;Location: 98128 - 97766" locus_tag="ED92_RS35155" class="clusterblast-orf" id="dummy-1_h1_10_16"  />
</g>
<g id="a1_0017"  >
<polygon points="324,85 329,80 335,80 335,90 329,90 324,85 " style="fill:white; stroke-width:1; stroke:black; " description="&lt;b&gt;ED92_RS35150&lt;/b&gt;&lt;br&gt;TetR/AcrR family transcriptional regulator&lt;br&gt;Location: 97764 - 97186" locus_tag="ED92_RS35150" class="clusterblast-orf" id="dummy-1_h1_10_17"  />
</g>
<g id="a1_0018"  >
<polygon points="336,85 341,80 388,80 388,90 341,90 336,85 " style="fill:#158cd8; stroke-width:1; stroke:black; " description="&lt;b&gt;ED92_RS35145&lt;/b&gt;&lt;br&gt;GGDEF domain-containing protein&lt;br&gt;Location: 97153 - 94553&lt;br&gt;&lt;br&gt;&lt;b&gt;BlastP hit with ctg68_27&lt;/b&gt;&lt;br&gt;Percentage identity: 52&lt;br&gt;Percentage coverage: 86&lt;br&gt;BLAST bit score: 748&lt;br&gt;E-value: 6.4e-214" locus_tag="ED92_RS35145" class="clusterblast-orf" id="dummy-1_h1_10_18"  />
</g>
<g id="a1_0019"  >
<polygon points="391,90 409,90 414,85 409,80 391,80 391,90 " style="fill:#d015d8; stroke-width:1; stroke:black; " description="&lt;b&gt;ED92_RS35140&lt;/b&gt;&lt;br&gt;3-oxoacyl-ACP synthase&lt;br&gt;Location: 94418 - 93267&lt;br&gt;&lt;br&gt;&lt;b&gt;BlastP hit with ctg68_28&lt;/b&gt;&lt;br&gt;Percentage identity: 53&lt;br&gt;Percentage coverage: 98&lt;br&gt;BLAST bit score: 398&lt;br&gt;E-value: 1.2e-108" locus_tag="ED92_RS35140" class="clusterblast-orf" id="dummy-1_h1_10_19"  />
</g>
<g id="a1_0020"  >
<polygon points="415,90 423,90 428,85 423,80 415,80 415,90 " style="fill:white; stroke-width:1; stroke:black; " description="&lt;b&gt;ED92_RS35135&lt;/b&gt;&lt;br&gt;DUF998 domain-containing protein&lt;br&gt;Location: 93185 - 92520" locus_tag="ED92_RS35135" class="clusterblast-orf" id="dummy-1_h1_10_20"  />
</g>
<g id="a1_0021"  >
<polygon points="430,90 437,90 442,85 437,80 430,80 430,90 " style="fill:white; stroke-width:1; stroke:black; " description="&lt;b&gt;ED92_RS35130&lt;/b&gt;&lt;br&gt;Zeta toxin&lt;br&gt;Location: 92464 - 91838" locus_tag="ED92_RS35130" class="clusterblast-orf" id="dummy-1_h1_10_21"  />
</g>
<g id="a1_0022"  >
<polygon points="445,85 450,80 468,80 468,90 450,90 445,85 " style="fill:#1559d8; stroke-width:1; stroke:black; " description="&lt;b&gt;ED92_RS35125&lt;/b&gt;&lt;br&gt;4-hydroxybenzoate 3-monooxygenase&lt;br&gt;Location: 91690 - 90536&lt;br&gt;&lt;br&gt;&lt;b&gt;BlastP hit with ctg68_33&lt;/b&gt;&lt;br&gt;Percentage identity: 42&lt;br&gt;Percentage coverage: 100&lt;br&gt;BLAST bit score: 273&lt;br&gt;E-value: 4.4e-71" locus_tag="ED92_RS35125" class="clusterblast-orf" id="dummy-1_h1_10_22"  />
</g>
<g id="a1_0023"  >
<polygon points="470,85 475,80 488,80 488,90 475,90 470,85 " style="fill:white; stroke-width:1; stroke:black; " description="&lt;b&gt;ED92_RS35120&lt;/b&gt;&lt;br&gt;ATP-dependent DNA ligase&lt;br&gt;Location: 90463 - 89522" locus_tag="ED92_RS35120" class="clusterblast-orf" id="dummy-1_h1_10_23"  />
</g>
<g id="a1_0024"  >
<polygon points="490,85 495,80 500,80 500,90 495,90 490,85 " style="fill:white; stroke-width:1; stroke:black; " description="&lt;b&gt;ED92_RS35115&lt;/b&gt;&lt;br&gt;chitin-binding protein&lt;br&gt;Location: 89444 - 88929" locus_tag="ED92_RS35115" class="clusterblast-orf" id="dummy-1_h1_10_24"  />
</g>
<g id="a1_0025"  >
<polygon points="504,85 509,80 557,80 557,90 509,90 504,85 " style="fill:white; stroke-width:1; stroke:black; " description="&lt;b&gt;ED92_RS35110&lt;/b&gt;&lt;br&gt;CHAT domain-containing protein&lt;br&gt;Location: 88715 - 86103" locus_tag="ED92_RS35110" class="clusterblast-orf" id="dummy-1_h1_10_25"  />
</g>
<g id="a1_0026"  >
<polygon points="569,90 577,90 582,85 577,80 569,80 569,90 " style="fill:white; stroke-width:1; stroke:black; " description="&lt;b&gt;ED92_RS35105&lt;/b&gt;&lt;br&gt;hypothetical protein&lt;br&gt;Location: 85470 - 84838" locus_tag="ED92_RS35105" class="clusterblast-orf" id="dummy-1_h1_10_26"  />
</g>
<g id="a1_0027"  >
<polygon points="580,90 584,90 589,85 584,80 580,80 580,90 " style="fill:white; stroke-width:1; stroke:black; " description="&lt;b&gt;ED92_RS35100&lt;/b&gt;&lt;br&gt;hypothetical protein&lt;br&gt;Location: 84920 - 84498" locus_tag="ED92_RS35100" class="clusterblast-orf" id="dummy-1_h1_10_27"  />
</g>
<g id="a1_0028"  >
<polygon points="589,85 594,80 599,80 599,90 594,90 589,85 " style="fill:white; stroke-width:1; stroke:black; " description="&lt;b&gt;ED92_RS35095&lt;/b&gt;&lt;br&gt;membrane protein&lt;br&gt;Location: 84458 - 84000" locus_tag="ED92_RS35095" class="clusterblast-orf" id="dummy-1_h1_10_28"  />
</g>
<g id="a1_0029"  >
<polygon points="602,90 615,90 620,85 615,80 602,80 602,90 " style="fill:white; stroke-width:1; stroke:black; " description="&lt;b&gt;ED92_RS35090&lt;/b&gt;&lt;br&gt;ABC transporter ATP-binding protein&lt;br&gt;Location: 83843 - 82947" locus_tag="ED92_RS35090" class="clusterblast-orf" id="dummy-1_h1_10_29"  />
</g>
<g id="a1_0030"  >
<polygon points="619,90 631,90 636,85 631,80 619,80 619,90 " style="fill:white; stroke-width:1; stroke:black; " description="&lt;b&gt;ED92_RS35085&lt;/b&gt;&lt;br&gt;ABC transporter permease&lt;br&gt;Location: 82957 - 82133" locus_tag="ED92_RS35085" class="clusterblast-orf" id="dummy-1_h1_10_30"  />
</g>
<g id="a1_0031"  >
<polygon points="637,85 642,80 654,80 654,90 642,90 637,85 " style="fill:white; stroke-width:1; stroke:black; " description="&lt;b&gt;ED92_RS35080&lt;/b&gt;&lt;br&gt;oxidoreductase&lt;br&gt;Location: 82073 - 81216" locus_tag="ED92_RS35080" class="clusterblast-orf" id="dummy-1_h1_10_31"  />
</g>
<g id="a1_0032"  >
<polygon points="656,85 661,80 669,80 669,90 661,90 656,85 " style="fill:white; stroke-width:1; stroke:black; " description="&lt;b&gt;ED92_RS35075&lt;/b&gt;&lt;br&gt;TetR/AcrR family transcriptional regulator&lt;br&gt;Location: 81129 - 80461" locus_tag="ED92_RS35075" class="clusterblast-orf" id="dummy-1_h1_10_32"  />
</g>
<g id="a1_0033"  >
<polygon points="670,85 675,80 678,80 678,90 675,90 670,85 " style="fill:white; stroke-width:1; stroke:black; " description="&lt;b&gt;ED92_RS35070&lt;/b&gt;&lt;br&gt;hypothetical protein&lt;br&gt;Location: 80431 - 80018" locus_tag="ED92_RS35070" class="clusterblast-orf" id="dummy-1_h1_10_33"  />
</g>
<g id="a1_0034"  >
<polygon points="681,90 682,90 687,85 682,80 681,80 681,90 " style="fill:white; stroke-width:1; stroke:black; " description="&lt;b&gt;ED92_RS35065&lt;/b&gt;&lt;br&gt;transcription initiation protein&lt;br&gt;Location: 79888 - 79547" locus_tag="ED92_RS35065" class="clusterblast-orf" id="dummy-1_h1_10_34"  />
</g>
<g id="a1_0035"  >
<polygon points="692,85 697,80 703,80 703,90 697,90 692,85 " style="fill:white; stroke-width:1; stroke:black; " description="&lt;b&gt;ED92_RS35060&lt;/b&gt;&lt;br&gt;FMN reductase&lt;br&gt;Location: 79331 - 78750" locus_tag="ED92_RS35060" class="clusterblast-orf" id="dummy-1_h1_10_35"  />
</g>
<g id="a1_0036"  >
<polygon points="703,85 708,80 725,80 725,90 708,90 703,85 " style="fill:white; stroke-width:1; stroke:black; " description="&lt;b&gt;ED92_RS35055&lt;/b&gt;&lt;br&gt;5,10-methylenetetrahydromethanopterin reductase&lt;br&gt;Location: 78753 - 77680" locus_tag="ED92_RS35055" class="clusterblast-orf" id="dummy-1_h1_10_36"  />
</g>
<g id="a1_0037"  >
<polygon points="728,90 751,90 756,85 751,80 728,80 728,90 " style="fill:white; stroke-width:1; stroke:black; " description="&lt;b&gt;ED92_RS35050&lt;/b&gt;&lt;br&gt;glycosyl hydrolase&lt;br&gt;Location: 77514 - 76123" locus_tag="ED92_RS35050" class="clusterblast-orf" id="dummy-1_h1_10_37"  />
</g>
<g id="a1_0038"  >
<polygon points="755,85 760,80 775,80 775,90 760,90 755,85 " style="fill:white; stroke-width:1; stroke:black; " description="&lt;b&gt;ED92_RS35045&lt;/b&gt;&lt;br&gt;hypothetical protein&lt;br&gt;Location: 76139 - 75171" locus_tag="ED92_RS35045" class="clusterblast-orf" id="dummy-1_h1_10_38"  />
</g>
</svg>
