<svg xmlns="http://www.w3.org/2000/svg" xmlns:xlink="http://www.w3.org/1999/xlink" version="1.1" x="0" y="0" height="230" width="800" viewBox="0 0 800 230" preserveAspectRatio="none"  >
<g label="Query sequence" class="clusterblast-cluster"  >
<text x="5" y="20" class="clusterblast-acc"  >
Query sequence</text>
<line x1="10" y1="35" x2="778.0" y2="35" style="stroke-width:1; stroke:grey; "  />
<polygon points="113,35 118,30 145,30 145,40 118,40 113,35 " style="fill:white; stroke-width:1; stroke:black; " description="&lt;b&gt;ctg7_88&lt;/b&gt;&lt;br&gt;ctg7 88&lt;br&gt;Location: 106219 - 106864" locus_tag="ctg7_88" class="clusterblast-orf" id="dummy-2_q0_0_all"  />
<polygon points="149,35 154,30 186,30 186,40 154,40 149,35 " style="fill:white; stroke-width:1; stroke:black; " description="&lt;b&gt;ctg7_89&lt;/b&gt;&lt;br&gt;ctg7 89&lt;br&gt;Location: 106937 - 107699" locus_tag="ctg7_89" class="clusterblast-orf" id="dummy-2_q1_0_all"  />
<polygon points="192,35 197,30 206,30 206,40 197,40 192,35 " style="fill:#d81515; stroke-width:1; stroke:black; " description="&lt;b&gt;ctg7_90&lt;/b&gt;&lt;br&gt;ctg7 90&lt;br&gt;Location: 107811 - 108099" locus_tag="ctg7_90" class="clusterblast-orf" id="dummy-2_q2_0_all"  />
<polygon points="206,35 211,30 212,30 212,40 211,40 206,35 " style="fill:white; stroke-width:1; stroke:black; " description="&lt;b&gt;ctg7_91&lt;/b&gt;&lt;br&gt;ctg7 91&lt;br&gt;Location: 108095 - 108224" locus_tag="ctg7_91" class="clusterblast-orf" id="dummy-2_q3_0_all"  />
<polygon points="222,35 227,30 254,30 254,40 227,40 222,35 " style="fill:#3cd815; stroke-width:1; stroke:black; " description="&lt;b&gt;ctg7_92&lt;/b&gt;&lt;br&gt;ctg7 92&lt;br&gt;Location: 108414 - 109062" locus_tag="ctg7_92" class="clusterblast-orf" id="dummy-2_q4_0_all"  />
<polygon points="254,35 259,30 309,30 309,40 259,40 254,35 " style="fill:#1563d8; stroke-width:1; stroke:black; " description="&lt;b&gt;ctg7_93&lt;/b&gt;&lt;br&gt;ctg7 93&lt;br&gt;Location: 109058 - 110189" locus_tag="ctg7_93" class="clusterblast-orf" id="dummy-2_q5_0_all"  />
<polygon points="315,40 336,40 341,35 336,30 315,30 315,40 " style="fill:#b115d8; stroke-width:1; stroke:black; " description="&lt;b&gt;ctg7_94&lt;/b&gt;&lt;br&gt;ctg7 94&lt;br&gt;Location: 110297 - 110825" locus_tag="ctg7_94" class="clusterblast-orf" id="dummy-2_q6_0_all"  />
<polygon points="344,40 357,40 362,35 357,30 344,30 344,40 " style="fill:white; stroke-width:1; stroke:black; " description="&lt;b&gt;ctg7_95&lt;/b&gt;&lt;br&gt;ctg7 95&lt;br&gt;Location: 110888 - 111260" locus_tag="ctg7_95" class="clusterblast-orf" id="dummy-2_q7_0_all"  />
<polygon points="365,35 370,30 415,30 415,40 370,40 365,35 " style="fill:#d88a15; stroke-width:1; stroke:black; " description="&lt;b&gt;ctg7_96&lt;/b&gt;&lt;br&gt;ctg7 96&lt;br&gt;Location: 111307 - 112330" locus_tag="ctg7_96" class="clusterblast-orf" id="dummy-2_q8_0_all"  />
<polygon points="415,35 420,30 447,30 447,40 420,40 415,35 " style="fill:#15d863; stroke-width:1; stroke:black; " description="&lt;b&gt;ctg7_97&lt;/b&gt;&lt;br&gt;ctg7 97&lt;br&gt;Location: 112326 - 112983" locus_tag="ctg7_97" class="clusterblast-orf" id="dummy-2_q9_0_all"  />
<polygon points="448,35 453,30 502,30 502,40 453,40 448,35 " style="fill:#3c15d8; stroke-width:1; stroke:black; " description="&lt;b&gt;ctg7_98&lt;/b&gt;&lt;br&gt;ctg7 98&lt;br&gt;Location: 112999 - 114094" locus_tag="ctg7_98" class="clusterblast-orf" id="dummy-2_q10_0_all"  />
<polygon points="519,40 577,40 582,35 577,30 519,30 519,40 " style="fill:#d8158a; stroke-width:1; stroke:black; " description="&lt;b&gt;ctg7_99&lt;/b&gt;&lt;br&gt;ctg7 99&lt;br&gt;Location: 114433 - 115711" locus_tag="ctg7_99" class="clusterblast-orf" id="dummy-2_q11_0_all"  />
<polygon points="582,40 629,40 634,35 629,30 582,30 582,40 " style="fill:#b1d815; stroke-width:1; stroke:black; " description="&lt;b&gt;ctg7_100&lt;/b&gt;&lt;br&gt;ctg7 100&lt;br&gt;Location: 115707 - 116751" locus_tag="ctg7_100" class="clusterblast-orf" id="dummy-2_q12_0_all"  />
<polygon points="635,40 644,40 649,35 644,30 635,30 635,40 " style="fill:#15d8d8; stroke-width:1; stroke:black; " description="&lt;b&gt;ctg7_101&lt;/b&gt;&lt;br&gt;ctg7 101&lt;br&gt;Location: 116783 - 117059" locus_tag="ctg7_101" class="clusterblast-orf" id="dummy-2_q13_0_all"  />
<polygon points="660,40 662,40 667,35 662,30 660,30 660,40 " style="fill:white; stroke-width:1; stroke:black; " description="&lt;b&gt;ctg7_102&lt;/b&gt;&lt;br&gt;ctg7 102&lt;br&gt;Location: 117285 - 117420" locus_tag="ctg7_102" class="clusterblast-orf" id="dummy-2_q14_0_all"  />
</g>
<g label="NZ_LWLC01000049" description="NZ_LWLC01000049_c37: Saccharothrix sp. CB00851 scaffold53, whole genome shotg... (20% of genes show similarity), terpene" class="clusterblast-cluster"  >
<text x="5" y="70" class="clusterblast-acc"  >
<a xlink:href="https://antismash-db.secondarymetabolites.org/go/NZ_LWLC01000049/37" target="_blank">NZ_LWLC01000049_c37</a>: Saccharothrix sp. CB00851 scaffold53, whole genome shotg... (20% of genes show similarity), terpene</text>
<line x1="10" y1="85" x2="778.0" y2="85" style="stroke-width:1; stroke:grey; "  />
</g>
<g id="a2_000"  >
<polygon points="0,90 24,90 29,85 24,80 0,80 0,90 " style="fill:white; stroke-width:1; stroke:black; " description="&lt;b&gt;A6A25_RS36645&lt;/b&gt;&lt;br&gt;TetR/AcrR family transcriptional regulator&lt;br&gt;Location: 16295 - 15705" locus_tag="A6A25_RS36645" class="clusterblast-orf" id="dummy-2_h2_5_0"  />
</g>
<g id="a2_001"  >
<polygon points="28,85 33,80 82,80 82,90 33,90 28,85 " style="fill:white; stroke-width:1; stroke:black; " description="&lt;b&gt;A6A25_RS36640&lt;/b&gt;&lt;br&gt;gfo/Idh/MocA family oxidoreductase&lt;br&gt;Location: 15724 - 14618" locus_tag="A6A25_RS36640" class="clusterblast-orf" id="dummy-2_h2_5_1"  />
</g>
<g id="a2_002"  >
<polygon points="82,85 87,80 118,80 118,90 87,90 82,85 " style="fill:white; stroke-width:1; stroke:black; " description="&lt;b&gt;A6A25_RS36635&lt;/b&gt;&lt;br&gt;xylose isomerase&lt;br&gt;Location: 14621 - 13887" locus_tag="A6A25_RS36635" class="clusterblast-orf" id="dummy-2_h2_5_2"  />
</g>
<g id="a2_003"  >
<polygon points="126,90 146,90 151,85 146,80 126,80 126,90 " style="fill:white; stroke-width:1; stroke:black; " description="&lt;b&gt;A6A25_RS36630&lt;/b&gt;&lt;br&gt;MerR family transcriptional regulator&lt;br&gt;Location: 13742 - 13230" locus_tag="A6A25_RS36630" class="clusterblast-orf" id="dummy-2_h2_5_3"  />
</g>
<g id="a2_004"  >
<polygon points="151,90 159,90 164,85 159,80 151,80 151,90 " style="fill:white; stroke-width:1; stroke:black; " description="&lt;b&gt;A6A25_RS36625&lt;/b&gt;&lt;br&gt;hypothetical protein&lt;br&gt;Location: 13223 - 12960" locus_tag="A6A25_RS36625" class="clusterblast-orf" id="dummy-2_h2_5_4"  />
</g>
<g id="a2_005"  >
<polygon points="167,90 219,90 224,85 219,80 167,80 167,90 " style="fill:white; stroke-width:1; stroke:black; " description="&lt;b&gt;A6A25_RS36620&lt;/b&gt;&lt;br&gt;alpha/beta hydrolase&lt;br&gt;Location: 12910 - 11751" locus_tag="A6A25_RS36620" class="clusterblast-orf" id="dummy-2_h2_5_5"  />
</g>
<g id="a2_006"  >
<polygon points="226,85 231,80 239,80 239,90 231,90 226,85 " style="fill:white; stroke-width:1; stroke:black; " description="&lt;b&gt;A6A25_RS36615&lt;/b&gt;&lt;br&gt;hypothetical protein&lt;br&gt;Location: 11703 - 11437" locus_tag="A6A25_RS36615" class="clusterblast-orf" id="dummy-2_h2_5_6"  />
</g>
<g id="a2_007"  >
<polygon points="244,85 249,80 294,80 294,90 249,90 244,85 " style="fill:#d88a15; stroke-width:1; stroke:black; " description="&lt;b&gt;A6A25_RS36610&lt;/b&gt;&lt;br&gt;ABC transporter permease&lt;br&gt;Location: 11336 - 10332&lt;br&gt;&lt;br&gt;&lt;b&gt;BlastP hit with ctg7_96&lt;/b&gt;&lt;br&gt;Percentage identity: 56&lt;br&gt;Percentage coverage: 90&lt;br&gt;BLAST bit score: 309&lt;br&gt;E-value: 6.3e-82" locus_tag="A6A25_RS36610" class="clusterblast-orf" id="dummy-2_h2_5_7"  />
</g>
<g id="a2_008"  >
<polygon points="294,85 299,80 325,80 325,90 299,90 294,85 " style="fill:#15d863; stroke-width:1; stroke:black; " description="&lt;b&gt;A6A25_RS36605&lt;/b&gt;&lt;br&gt;ABC transporter ATP-binding protein&lt;br&gt;Location: 10323 - 9697&lt;br&gt;&lt;br&gt;&lt;b&gt;BlastP hit with ctg7_97&lt;/b&gt;&lt;br&gt;Percentage identity: 71&lt;br&gt;Percentage coverage: 92&lt;br&gt;BLAST bit score: 296&lt;br&gt;E-value: 2.7e-78" locus_tag="A6A25_RS36605" class="clusterblast-orf" id="dummy-2_h2_5_8"  />
</g>
<g id="a2_009"  >
<polygon points="326,85 331,80 379,80 379,90 331,90 326,85 " style="fill:#3c15d8; stroke-width:1; stroke:black; " description="&lt;b&gt;A6A25_RS36600&lt;/b&gt;&lt;br&gt;hypothetical protein&lt;br&gt;Location: 9691 - 8609&lt;br&gt;&lt;br&gt;&lt;b&gt;BlastP hit with ctg7_98&lt;/b&gt;&lt;br&gt;Percentage identity: 59&lt;br&gt;Percentage coverage: 96&lt;br&gt;BLAST bit score: 387&lt;br&gt;E-value: 1.5e-105" locus_tag="A6A25_RS36600" class="clusterblast-orf" id="dummy-2_h2_5_9"  />
</g>
<g id="a2_0010"  >
<polygon points="400,90 483,90 488,85 483,80 400,80 400,90 " style="fill:white; stroke-width:1; stroke:black; " description="&lt;b&gt;A6A25_RS36595&lt;/b&gt;&lt;br&gt;1-deoxy-D-xylulose-5-phosphate synthase&lt;br&gt;Location: 8178 - 6412" locus_tag="A6A25_RS36595" class="clusterblast-orf" id="dummy-2_h2_5_10"  />
</g>
<g id="a2_0011"  >
<polygon points="487,90 534,90 539,85 534,80 487,80 487,90 " style="fill:#b1d815; stroke-width:1; stroke:black; " description="&lt;b&gt;A6A25_RS36590&lt;/b&gt;&lt;br&gt;hypothetical protein&lt;br&gt;Location: 6424 - 5369&lt;br&gt;&lt;br&gt;&lt;b&gt;BlastP hit with ctg7_100&lt;/b&gt;&lt;br&gt;Percentage identity: 55&lt;br&gt;Percentage coverage: 99&lt;br&gt;BLAST bit score: 389&lt;br&gt;E-value: 3.7e-106" locus_tag="A6A25_RS36590" class="clusterblast-orf" id="dummy-2_h2_5_11"  />
</g>
<g id="a2_0012"  >
<polygon points="540,90 546,90 551,85 546,80 540,80 540,90 " style="fill:white; stroke-width:1; stroke:black; " description="&lt;b&gt;A6A25_RS36585&lt;/b&gt;&lt;br&gt;hypothetical protein&lt;br&gt;Location: 5343 - 5137" locus_tag="A6A25_RS36585" class="clusterblast-orf" id="dummy-2_h2_5_12"  />
</g>
<g id="a2_0013"  >
<polygon points="551,85 556,80 585,80 585,90 556,90 551,85 " style="fill:white; stroke-width:1; stroke:black; " description="&lt;b&gt;A6A25_RS36580&lt;/b&gt;&lt;br&gt;lipoate-protein ligase B&lt;br&gt;Location: 5121 - 4441" locus_tag="A6A25_RS36580" class="clusterblast-orf" id="dummy-2_h2_5_13"  />
</g>
<g id="a2_0014"  >
<polygon points="585,85 590,80 609,80 609,90 590,90 585,85 " style="fill:white; stroke-width:1; stroke:black; " description="&lt;b&gt;A6A25_RS36575&lt;/b&gt;&lt;br&gt;hypothetical protein&lt;br&gt;Location: 4439 - 3963" locus_tag="A6A25_RS36575" class="clusterblast-orf" id="dummy-2_h2_5_14"  />
</g>
<g id="a2_0015"  >
<polygon points="608,85 613,80 625,80 625,90 613,90 608,85 " style="fill:white; stroke-width:1; stroke:black; " description="&lt;b&gt;A6A25_RS36570&lt;/b&gt;&lt;br&gt;hypothetical protein&lt;br&gt;Location: 3966 - 3631" locus_tag="A6A25_RS36570" class="clusterblast-orf" id="dummy-2_h2_5_15"  />
</g>
<g id="a2_0016"  >
<polygon points="625,85 630,80 672,80 672,90 630,90 625,85 " style="fill:white; stroke-width:1; stroke:black; " description="&lt;b&gt;A6A25_RS36565&lt;/b&gt;&lt;br&gt;ketoacyl-ACP synthase III&lt;br&gt;Location: 3634 - 2675" locus_tag="A6A25_RS36565" class="clusterblast-orf" id="dummy-2_h2_5_16"  />
</g>
<g id="a2_0017"  >
<polygon points="673,85 678,80 732,80 732,90 678,90 673,85 " style="fill:white; stroke-width:1; stroke:black; " description="&lt;b&gt;A6A25_RS36560&lt;/b&gt;&lt;br&gt;beta-ketoacyl-[acyl-carrier-protein] synthase family protein&lt;br&gt;Location: 2665 - 1454" locus_tag="A6A25_RS36560" class="clusterblast-orf" id="dummy-2_h2_5_17"  />
</g>
<g id="a2_0018"  >
<polygon points="732,85 737,80 743,80 743,90 737,90 732,85 " style="fill:white; stroke-width:1; stroke:black; " description="&lt;b&gt;A6A25_RS36555&lt;/b&gt;&lt;br&gt;acyl carrier protein&lt;br&gt;Location: 1467 - 1234" locus_tag="A6A25_RS36555" class="clusterblast-orf" id="dummy-2_h2_5_18"  />
</g>
<g id="a2_0019"  >
<polygon points="749,90 775,90 780,85 775,80 749,80 749,90 " style="fill:white; stroke-width:1; stroke:black; " description="&lt;b&gt;A6A25_RS36550&lt;/b&gt;&lt;br&gt;DUF4230 domain-containing protein&lt;br&gt;Location: 1125 - 502" locus_tag="A6A25_RS36550" class="clusterblast-orf" id="dummy-2_h2_5_19"  />
</g>
</svg>
