<svg xmlns="http://www.w3.org/2000/svg" xmlns:xlink="http://www.w3.org/1999/xlink" version="1.1" x="0" y="0" height="230" width="800" viewBox="0 0 800 230" preserveAspectRatio="none"  >
<g label="Query sequence" class="clusterblast-cluster"  >
<text x="5" y="20" class="clusterblast-acc"  >
Query sequence</text>
<line x1="10" y1="35" x2="778.0" y2="35" style="stroke-width:1; stroke:grey; "  />
<polygon points="202,40 238,40 243,35 238,30 202,30 202,40 " style="fill:white; stroke-width:1; stroke:black; " description="&lt;b&gt;ctg29_26&lt;/b&gt;&lt;br&gt;ctg29 26&lt;br&gt;Location: 27339 - 29730" locus_tag="ctg29_26" class="clusterblast-orf" id="dummy-1_q0_0_all"  />
<polygon points="248,40 270,40 275,35 270,30 248,30 248,40 " style="fill:white; stroke-width:1; stroke:black; " description="&lt;b&gt;ctg29_27&lt;/b&gt;&lt;br&gt;ctg29 27&lt;br&gt;Location: 29970 - 31569" locus_tag="ctg29_27" class="clusterblast-orf" id="dummy-1_q1_0_all"  />
<polygon points="277,40 329,40 334,35 329,30 277,30 277,40 " style="fill:white; stroke-width:1; stroke:black; " description="&lt;b&gt;ctg29_28&lt;/b&gt;&lt;br&gt;ctg29 28&lt;br&gt;Location: 31677 - 34989" locus_tag="ctg29_28" class="clusterblast-orf" id="dummy-1_q2_0_all"  />
<polygon points="337,40 350,40 355,35 350,30 337,30 337,40 " style="fill:#d81515; stroke-width:1; stroke:black; " description="&lt;b&gt;ctg29_29&lt;/b&gt;&lt;br&gt;ctg29 29&lt;br&gt;Location: 35155 - 36199" locus_tag="ctg29_29" class="clusterblast-orf" id="dummy-1_q3_0_all"  />
<polygon points="358,40 381,40 386,35 381,30 358,30 358,40 " style="fill:#77d815; stroke-width:1; stroke:black; " description="&lt;b&gt;ctg29_30&lt;/b&gt;&lt;br&gt;ctg29 30&lt;br&gt;Location: 36429 - 38031" locus_tag="ctg29_30" class="clusterblast-orf" id="dummy-1_q4_0_all"  />
<polygon points="387,40 415,40 420,35 415,30 387,30 387,40 " style="fill:#15d8d8; stroke-width:1; stroke:black; " description="&lt;b&gt;ctg29_31&lt;/b&gt;&lt;br&gt;ctg29 31&lt;br&gt;Location: 38084 - 40034" locus_tag="ctg29_31" class="clusterblast-orf" id="dummy-1_q5_0_all"  />
<polygon points="421,35 424,30 424,40 421,35 " style="fill:white; stroke-width:1; stroke:black; " description="&lt;b&gt;ctg29_32&lt;/b&gt;&lt;br&gt;ctg29 32&lt;br&gt;Location: 40065 - 40263" locus_tag="ctg29_32" class="clusterblast-orf" id="dummy-1_q6_0_all"  />
<polygon points="424,35 429,30 440,30 440,40 429,40 424,35 " style="fill:white; stroke-width:1; stroke:black; " description="&lt;b&gt;ctg29_33&lt;/b&gt;&lt;br&gt;ctg29 33&lt;br&gt;Location: 40272 - 41196" locus_tag="ctg29_33" class="clusterblast-orf" id="dummy-1_q7_0_all"  />
<polygon points="442,40 450,40 455,35 450,30 442,30 442,40 " style="fill:#7715d8; stroke-width:1; stroke:black; " description="&lt;b&gt;ctg29_34&lt;/b&gt;&lt;br&gt;ctg29 34&lt;br&gt;Location: 41311 - 42070" locus_tag="ctg29_34" class="clusterblast-orf" id="dummy-1_q8_0_all"  />
<polygon points="467,35 472,30 488,30 488,40 472,40 467,35 " style="fill:white; stroke-width:1; stroke:black; " description="&lt;b&gt;ctg29_35&lt;/b&gt;&lt;br&gt;ctg29 35&lt;br&gt;Location: 42739 - 43954" locus_tag="ctg29_35" class="clusterblast-orf" id="dummy-1_q9_0_all"  />
<polygon points="489,40 510,40 515,35 510,30 489,30 489,40 " style="fill:white; stroke-width:1; stroke:black; " description="&lt;b&gt;ctg29_36&lt;/b&gt;&lt;br&gt;ctg29 36&lt;br&gt;Location: 44044 - 45526" locus_tag="ctg29_36" class="clusterblast-orf" id="dummy-1_q10_0_all"  />
<polygon points="517,40 525,40 530,35 525,30 517,30 517,40 " style="fill:white; stroke-width:1; stroke:black; " description="&lt;b&gt;ctg29_37&lt;/b&gt;&lt;br&gt;ctg29 37&lt;br&gt;Location: 45646 - 46405" locus_tag="ctg29_37" class="clusterblast-orf" id="dummy-1_q11_0_all"  />
<polygon points="537,40 541,40 546,35 541,30 537,30 537,40 " style="fill:white; stroke-width:1; stroke:black; " description="&lt;b&gt;ctg29_38&lt;/b&gt;&lt;br&gt;ctg29 38&lt;br&gt;Location: 46813 - 47356" locus_tag="ctg29_38" class="clusterblast-orf" id="dummy-1_q12_0_all"  />
<polygon points="546,35 550,30 550,40 546,35 " style="fill:white; stroke-width:1; stroke:black; " description="&lt;b&gt;ctg29_39&lt;/b&gt;&lt;br&gt;ctg29 39&lt;br&gt;Location: 47366 - 47570" locus_tag="ctg29_39" class="clusterblast-orf" id="dummy-1_q13_0_all"  />
<polygon points="554,40 559,40 564,35 559,30 554,30 554,40 " style="fill:white; stroke-width:1; stroke:black; " description="&lt;b&gt;ctg29_40&lt;/b&gt;&lt;br&gt;ctg29 40&lt;br&gt;Location: 47837 - 48377" locus_tag="ctg29_40" class="clusterblast-orf" id="dummy-1_q14_0_all"  />
<polygon points="566,35 571,30 577,30 577,40 571,40 566,35 " style="fill:white; stroke-width:1; stroke:black; " description="&lt;b&gt;ctg29_41&lt;/b&gt;&lt;br&gt;ctg29 41&lt;br&gt;Location: 48524 - 49151" locus_tag="ctg29_41" class="clusterblast-orf" id="dummy-1_q15_0_all"  />
</g>
<g label="NZ_LQYB01000015" description="NZ_LQYB01000015_c18: Streptomyces sp. IMTB 1903 contig 21, whole genome shotg... (7% of genes show similarity), nrps" class="clusterblast-cluster"  >
<text x="5" y="70" class="clusterblast-acc"  >
<a xlink:href="https://antismash-db.secondarymetabolites.org/go/NZ_LQYB01000015/18" target="_blank">NZ_LQYB01000015_c18</a>: Streptomyces sp. IMTB 1903 contig 21, whole genome shotg... (7% of genes show similarity), nrps</text>
<line x1="10" y1="85" x2="778.0" y2="85" style="stroke-width:1; stroke:grey; "  />
</g>
<g id="a1_000"  >
<polygon points="0,90 17,90 22,85 17,80 0,80 0,90 " style="fill:white; stroke-width:1; stroke:black; " description="&lt;b&gt;AV648_RS21010&lt;/b&gt;&lt;br&gt;adenosylmethionine--8-amino-7-oxononanoate transaminase&lt;br&gt;Location: 30497 - 31798" locus_tag="AV648_RS21010" class="clusterblast-orf" id="dummy-1_h1_6_0"  />
</g>
<g id="a1_001"  >
<polygon points="29,90 58,90 63,85 58,80 29,80 29,90 " style="fill:white; stroke-width:1; stroke:black; " description="&lt;b&gt;AV648_RS21015&lt;/b&gt;&lt;br&gt;aminodeoxychorismate synthase component I&lt;br&gt;Location: 32219 - 34219" locus_tag="AV648_RS21015" class="clusterblast-orf" id="dummy-1_h1_6_1"  />
</g>
<g id="a1_002"  >
<polygon points="63,90 67,90 72,85 67,80 63,80 63,90 " style="fill:white; stroke-width:1; stroke:black; " description="&lt;b&gt;AV648_RS21020&lt;/b&gt;&lt;br&gt;GNAT family N-acetyltransferase&lt;br&gt;Location: 34216 - 34704" locus_tag="AV648_RS21020" class="clusterblast-orf" id="dummy-1_h1_6_2"  />
</g>
<g id="a1_003"  >
<polygon points="72,90 83,90 88,85 83,80 72,80 72,90 " style="fill:white; stroke-width:1; stroke:black; " description="&lt;b&gt;AV648_RS21025&lt;/b&gt;&lt;br&gt;hypothetical protein&lt;br&gt;Location: 34701 - 35648" locus_tag="AV648_RS21025" class="clusterblast-orf" id="dummy-1_h1_6_3"  />
</g>
<g id="a1_004"  >
<polygon points="88,90 88,90 93,85 88,80 88,80 88,90 " style="fill:white; stroke-width:1; stroke:black; " description="&lt;b&gt;AV648_RS21030&lt;/b&gt;&lt;br&gt;hypothetical protein&lt;br&gt;Location: 35645 - 35965" locus_tag="AV648_RS21030" class="clusterblast-orf" id="dummy-1_h1_6_4"  />
</g>
<g id="a1_005"  >
<polygon points="93,90 98,90 103,85 98,80 93,80 93,90 " style="fill:white; stroke-width:1; stroke:black; " description="&lt;b&gt;AV648_RS21035&lt;/b&gt;&lt;br&gt;hypothetical protein&lt;br&gt;Location: 35962 - 36549" locus_tag="AV648_RS21035" class="clusterblast-orf" id="dummy-1_h1_6_5"  />
</g>
<g id="a1_006"  >
<polygon points="103,90 118,90 123,85 118,80 103,80 103,90 " style="fill:#77d815; stroke-width:1; stroke:black; " description="&lt;b&gt;AV648_RS21040&lt;/b&gt;&lt;br&gt;hypothetical protein&lt;br&gt;Location: 36546 - 37706&lt;br&gt;&lt;br&gt;&lt;b&gt;BlastP hit with ctg29_30&lt;/b&gt;&lt;br&gt;Percentage identity: 32&lt;br&gt;Percentage coverage: 64&lt;br&gt;BLAST bit score: 132&lt;br&gt;E-value: 1.3e-28" locus_tag="AV648_RS21040" class="clusterblast-orf" id="dummy-1_h1_6_6"  />
</g>
<g id="a1_007"  >
<polygon points="123,90 132,90 137,85 132,80 123,80 123,90 " style="fill:white; stroke-width:1; stroke:black; " description="&lt;b&gt;AV648_RS21045&lt;/b&gt;&lt;br&gt;class I SAM-dependent methyltransferase&lt;br&gt;Location: 37703 - 38479" locus_tag="AV648_RS21045" class="clusterblast-orf" id="dummy-1_h1_6_7"  />
</g>
<g id="a1_008"  >
<polygon points="136,90 153,90 158,85 153,80 136,80 136,90 " style="fill:white; stroke-width:1; stroke:black; " description="&lt;b&gt;AV648_RS21050&lt;/b&gt;&lt;br&gt;GNAT family N-acetyltransferase&lt;br&gt;Location: 38469 - 39716" locus_tag="AV648_RS21050" class="clusterblast-orf" id="dummy-1_h1_6_8"  />
</g>
<g id="a1_009"  >
<polygon points="158,90 188,90 193,85 188,80 158,80 158,90 " style="fill:white; stroke-width:1; stroke:black; " description="&lt;b&gt;AV648_RS21055&lt;/b&gt;&lt;br&gt;hypothetical protein&lt;br&gt;Location: 39713 - 41752" locus_tag="AV648_RS21055" class="clusterblast-orf" id="dummy-1_h1_6_9"  />
</g>
<g id="a1_0010"  >
<polygon points="193,90 206,90 211,85 206,80 193,80 193,90 " style="fill:#d81515; stroke-width:1; stroke:black; " description="&lt;b&gt;AV648_RS21060&lt;/b&gt;&lt;br&gt;isocitrate/isopropylmalate dehydrogenase family protein&lt;br&gt;Location: 41749 - 42816&lt;br&gt;&lt;br&gt;&lt;b&gt;BlastP hit with ctg29_29&lt;/b&gt;&lt;br&gt;Percentage identity: 41&lt;br&gt;Percentage coverage: 101&lt;br&gt;BLAST bit score: 226&lt;br&gt;E-value: 5.5e-57" locus_tag="AV648_RS21060" class="clusterblast-orf" id="dummy-1_h1_6_10"  />
</g>
<g id="a1_0011"  >
<polygon points="211,90 222,90 227,85 222,80 211,80 211,90 " style="fill:white; stroke-width:1; stroke:black; " description="&lt;b&gt;AV648_RS21065&lt;/b&gt;&lt;br&gt;hypothetical protein&lt;br&gt;Location: 42822 - 43730" locus_tag="AV648_RS21065" class="clusterblast-orf" id="dummy-1_h1_6_11"  />
</g>
<g id="a1_0012"  >
<polygon points="226,90 245,90 250,85 245,80 226,80 226,90 " style="fill:white; stroke-width:1; stroke:black; " description="&lt;b&gt;AV648_RS21070&lt;/b&gt;&lt;br&gt;hypothetical protein&lt;br&gt;Location: 43712 - 45085" locus_tag="AV648_RS21070" class="clusterblast-orf" id="dummy-1_h1_6_12"  />
</g>
<g id="a1_0013"  >
<polygon points="251,90 267,90 272,85 267,80 251,80 251,90 " style="fill:white; stroke-width:1; stroke:black; " description="&lt;b&gt;AV648_RS21075&lt;/b&gt;&lt;br&gt;MFS transporter&lt;br&gt;Location: 45115 - 46356" locus_tag="AV648_RS21075" class="clusterblast-orf" id="dummy-1_h1_6_13"  />
</g>
<g id="a1_0014"  >
<polygon points="272,90 288,90 293,85 288,80 272,80 272,90 " style="fill:white; stroke-width:1; stroke:black; " description="&lt;b&gt;AV648_RS21080&lt;/b&gt;&lt;br&gt;phospho-2-dehydro-3-deoxyheptonate aldolase&lt;br&gt;Location: 46386 - 47602" locus_tag="AV648_RS21080" class="clusterblast-orf" id="dummy-1_h1_6_14"  />
</g>
<g id="a1_0015"  >
<polygon points="294,85 299,80 306,80 306,90 299,90 294,85 " style="fill:white; stroke-width:1; stroke:black; " description="&lt;b&gt;AV648_RS21085&lt;/b&gt;&lt;br&gt;hypothetical protein&lt;br&gt;Location: 47617 - 48318" locus_tag="AV648_RS21085" class="clusterblast-orf" id="dummy-1_h1_6_15"  />
</g>
<g id="a1_0016"  >
<polygon points="308,90 326,90 331,85 326,80 308,80 308,90 " style="fill:white; stroke-width:1; stroke:black; " description="&lt;b&gt;AV648_RS21090&lt;/b&gt;&lt;br&gt;cytochrome P450&lt;br&gt;Location: 48450 - 49808" locus_tag="AV648_RS21090" class="clusterblast-orf" id="dummy-1_h1_6_16"  />
</g>
<g id="a1_0017"  >
<polygon points="333,85 338,80 362,80 362,90 338,90 333,85 " style="fill:#15d8d8; stroke-width:1; stroke:black; " description="&lt;b&gt;AV648_RS21095&lt;/b&gt;&lt;br&gt;hypothetical protein&lt;br&gt;Location: 49905 - 51614&lt;br&gt;&lt;br&gt;&lt;b&gt;BlastP hit with ctg29_31&lt;/b&gt;&lt;br&gt;Percentage identity: 40&lt;br&gt;Percentage coverage: 14&lt;br&gt;BLAST bit score: 64&lt;br&gt;E-value: 4e-08" locus_tag="AV648_RS21095" class="clusterblast-orf" id="dummy-1_h1_6_17"  />
</g>
<g id="a1_0018"  >
<polygon points="362,85 367,80 443,80 443,90 367,90 362,85 " style="fill:white; stroke-width:1; stroke:black; " description="&lt;b&gt;AV648_RS21100&lt;/b&gt;&lt;br&gt;non-ribosomal peptide synthetase&lt;br&gt;Location: 51611 - 56323" locus_tag="AV648_RS21100" class="clusterblast-orf" id="dummy-1_h1_6_18"  />
</g>
<g id="a1_0019"  >
<polygon points="443,85 448,80 460,80 460,90 448,90 443,85 " style="fill:white; stroke-width:1; stroke:black; " description="&lt;b&gt;AV648_RS21105&lt;/b&gt;&lt;br&gt;KR domain-containing protein&lt;br&gt;Location: 56349 - 57290" locus_tag="AV648_RS21105" class="clusterblast-orf" id="dummy-1_h1_6_19"  />
</g>
<g id="a1_0020"  >
<polygon points="459,85 464,80 478,80 478,90 464,90 459,85 " style="fill:white; stroke-width:1; stroke:black; " description="&lt;b&gt;AV648_RS21110&lt;/b&gt;&lt;br&gt;MFS transporter&lt;br&gt;Location: 57224 - 58375" locus_tag="AV648_RS21110" class="clusterblast-orf" id="dummy-1_h1_6_20"  />
</g>
<g id="a1_0021"  >
<polygon points="482,85 487,80 491,80 491,90 487,90 482,85 " style="fill:white; stroke-width:1; stroke:black; " description="&lt;b&gt;AV648_RS21115&lt;/b&gt;&lt;br&gt;hypothetical protein&lt;br&gt;Location: 58602 - 59132" locus_tag="AV648_RS21115" class="clusterblast-orf" id="dummy-1_h1_6_21"  />
</g>
<g id="a1_0022"  >
<polygon points="496,85 501,80 523,80 523,90 501,90 496,85 " style="fill:white; stroke-width:1; stroke:black; " description="&lt;b&gt;AV648_RS21120&lt;/b&gt;&lt;br&gt;hypothetical protein&lt;br&gt;Location: 59387 - 60952" locus_tag="AV648_RS21120" class="clusterblast-orf" id="dummy-1_h1_6_22"  />
</g>
<g id="a1_0023"  >
<polygon points="525,85 528,80 528,90 525,85 " style="fill:white; stroke-width:1; stroke:black; " description="&lt;b&gt;AV648_RS21125&lt;/b&gt;&lt;br&gt;hypothetical protein&lt;br&gt;Location: 61083 - 61277" locus_tag="AV648_RS21125" class="clusterblast-orf" id="dummy-1_h1_6_23"  />
</g>
<g id="a1_0024"  >
<polygon points="529,85 534,80 541,80 541,90 534,90 529,85 " style="fill:white; stroke-width:1; stroke:black; " description="&lt;b&gt;AV648_RS21130&lt;/b&gt;&lt;br&gt;ABC transporter&lt;br&gt;Location: 61322 - 62035" locus_tag="AV648_RS21130" class="clusterblast-orf" id="dummy-1_h1_6_24"  />
</g>
<g id="a1_0025"  >
<polygon points="541,85 546,80 558,80 558,90 546,90 541,85 " style="fill:white; stroke-width:1; stroke:black; " description="&lt;b&gt;AV648_RS21135&lt;/b&gt;&lt;br&gt;ABC transporter ATP-binding protein&lt;br&gt;Location: 62028 - 63002" locus_tag="AV648_RS21135" class="clusterblast-orf" id="dummy-1_h1_6_25"  />
</g>
<g id="a1_0026"  >
<polygon points="560,85 565,80 575,80 575,90 565,90 560,85 " style="fill:white; stroke-width:1; stroke:black; " description="&lt;b&gt;AV648_RS21140&lt;/b&gt;&lt;br&gt;ABC transporter permease&lt;br&gt;Location: 63128 - 63994" locus_tag="AV648_RS21140" class="clusterblast-orf" id="dummy-1_h1_6_26"  />
</g>
<g id="a1_0027"  >
<polygon points="575,85 580,80 591,80 591,90 580,90 575,85 " style="fill:white; stroke-width:1; stroke:black; " description="&lt;b&gt;AV648_RS21145&lt;/b&gt;&lt;br&gt;ABC transporter permease&lt;br&gt;Location: 63987 - 64952" locus_tag="AV648_RS21145" class="clusterblast-orf" id="dummy-1_h1_6_27"  />
</g>
<g id="a1_0028"  >
<polygon points="592,85 597,80 620,80 620,90 597,90 592,85 " style="fill:white; stroke-width:1; stroke:black; " description="&lt;b&gt;AV648_RS21150&lt;/b&gt;&lt;br&gt;ABC transporter substrate-binding protein&lt;br&gt;Location: 64999 - 66597" locus_tag="AV648_RS21150" class="clusterblast-orf" id="dummy-1_h1_6_28"  />
</g>
<g id="a1_0029"  >
<polygon points="621,90 634,90 639,85 634,80 621,80 621,90 " style="fill:white; stroke-width:1; stroke:black; " description="&lt;b&gt;AV648_RS21155&lt;/b&gt;&lt;br&gt;fibronectin type III domain-containing protein&lt;br&gt;Location: 66712 - 67743" locus_tag="AV648_RS21155" class="clusterblast-orf" id="dummy-1_h1_6_29"  />
</g>
<g id="a1_0030"  >
<polygon points="640,90 671,90 676,85 671,80 640,80 640,90 " style="fill:white; stroke-width:1; stroke:black; " description="&lt;b&gt;AV648_RS21160&lt;/b&gt;&lt;br&gt;hypothetical protein&lt;br&gt;Location: 67807 - 69903" locus_tag="AV648_RS21160" class="clusterblast-orf" id="dummy-1_h1_6_30"  />
</g>
<g id="a1_0031"  >
<polygon points="679,85 682,80 682,90 679,85 " style="fill:white; stroke-width:1; stroke:black; " description="&lt;b&gt;AV648_RS21165&lt;/b&gt;&lt;br&gt;hypothetical protein&lt;br&gt;Location: 70056 - 70241" locus_tag="AV648_RS21165" class="clusterblast-orf" id="dummy-1_h1_6_31"  />
</g>
<g id="a1_0032"  >
<polygon points="685,90 687,90 692,85 687,80 685,80 685,90 " style="fill:white; stroke-width:1; stroke:black; " description="&lt;b&gt;AV648_RS21170&lt;/b&gt;&lt;br&gt;Immediate-early protein 2&lt;br&gt;Location: 70397 - 70834" locus_tag="AV648_RS21170" class="clusterblast-orf" id="dummy-1_h1_6_32"  />
</g>
<g id="a1_0033"  >
<polygon points="696,90 701,90 706,85 701,80 696,80 696,90 " style="fill:white; stroke-width:1; stroke:black; " description="&lt;b&gt;AV648_RS21175&lt;/b&gt;&lt;br&gt;hypothetical protein&lt;br&gt;Location: 71023 - 71607" locus_tag="AV648_RS21175" class="clusterblast-orf" id="dummy-1_h1_6_33"  />
</g>
<g id="a1_0034"  >
<polygon points="709,85 714,80 731,80 731,90 714,90 709,85 " style="fill:white; stroke-width:1; stroke:black; " description="&lt;b&gt;AV648_RS21180&lt;/b&gt;&lt;br&gt;acyl-CoA dehydrogenase&lt;br&gt;Location: 71837 - 73066" locus_tag="AV648_RS21180" class="clusterblast-orf" id="dummy-1_h1_6_34"  />
</g>
<g id="a1_0035"  >
<polygon points="734,90 740,90 745,85 740,80 734,80 734,90 " style="fill:white; stroke-width:1; stroke:black; " description="&lt;b&gt;AV648_RS21185&lt;/b&gt;&lt;br&gt;TetR/AcrR family transcriptional regulator&lt;br&gt;Location: 73281 - 73925" locus_tag="AV648_RS21185" class="clusterblast-orf" id="dummy-1_h1_6_35"  />
</g>
<g id="a1_0036"  >
<polygon points="747,85 752,80 756,80 756,90 752,90 747,85 " style="fill:white; stroke-width:1; stroke:black; " description="&lt;b&gt;AV648_RS21190&lt;/b&gt;&lt;br&gt;peptide deformylase&lt;br&gt;Location: 73997 - 74551" locus_tag="AV648_RS21190" class="clusterblast-orf" id="dummy-1_h1_6_36"  />
</g>
<g id="a1_0037"  >
<polygon points="758,90 775,90 780,85 775,80 758,80 758,90 " style="fill:white; stroke-width:1; stroke:black; " description="&lt;b&gt;AV648_RS21195&lt;/b&gt;&lt;br&gt;DUF1727 domain-containing protein&lt;br&gt;Location: 74675 - 75913" locus_tag="AV648_RS21195" class="clusterblast-orf" id="dummy-1_h1_6_37"  />
</g>
</svg>
