<svg xmlns="http://www.w3.org/2000/svg" xmlns:xlink="http://www.w3.org/1999/xlink" version="1.1" x="0" y="0" height="230" width="800" viewBox="0 0 800 230" preserveAspectRatio="none"  >
<g label="Query sequence" class="clusterblast-cluster"  >
<text x="5" y="20" class="clusterblast-acc"  >
Query sequence</text>
<line x1="10" y1="35" x2="778.0" y2="35" style="stroke-width:1; stroke:grey; "  />
<polygon points="0,40 43,40 48,35 43,30 0,30 0,40 " style="fill:#d81515; stroke-width:1; stroke:black; " description="&lt;b&gt;ctg1_19&lt;/b&gt;&lt;br&gt;ctg1 19&lt;br&gt;Location: 23995 - 25576" locus_tag="ctg1_19" class="clusterblast-orf" id="dummy-1_q0_0_all"  />
<polygon points="49,40 72,40 77,35 72,30 49,30 49,40 " style="fill:#4dd815; stroke-width:1; stroke:black; " description="&lt;b&gt;ctg1_20&lt;/b&gt;&lt;br&gt;ctg1 20&lt;br&gt;Location: 25600 - 26527" locus_tag="ctg1_20" class="clusterblast-orf" id="dummy-1_q1_0_all"  />
<polygon points="77,40 96,40 101,35 96,30 77,30 77,40 " style="fill:#15bcd8; stroke-width:1; stroke:black; " description="&lt;b&gt;ctg1_21&lt;/b&gt;&lt;br&gt;ctg1 21&lt;br&gt;Location: 26523 - 27318" locus_tag="ctg1_21" class="clusterblast-orf" id="dummy-1_q2_0_all"  />
<polygon points="102,40 127,40 132,35 127,30 102,30 102,40 " style="fill:#8515d8; stroke-width:1; stroke:black; " description="&lt;b&gt;ctg1_22&lt;/b&gt;&lt;br&gt;ctg1 22&lt;br&gt;Location: 27333 - 28311" locus_tag="ctg1_22" class="clusterblast-orf" id="dummy-1_q3_0_all"  />
<polygon points="135,40 158,40 163,35 158,30 135,30 135,40 " style="fill:#d84d15; stroke-width:1; stroke:black; " description="&lt;b&gt;ctg1_23&lt;/b&gt;&lt;br&gt;ctg1 23&lt;br&gt;Location: 28407 - 29325" locus_tag="ctg1_23" class="clusterblast-orf" id="dummy-1_q4_0_all"  />
<polygon points="163,35 168,30 172,30 172,40 168,40 163,35 " style="fill:#15d815; stroke-width:1; stroke:black; " description="&lt;b&gt;ctg1_24&lt;/b&gt;&lt;br&gt;ctg1 24&lt;br&gt;Location: 29328 - 29634" locus_tag="ctg1_24" class="clusterblast-orf" id="dummy-1_q5_0_all"  />
<polygon points="174,40 199,40 204,35 199,30 174,30 174,40 " style="fill:#1585d8; stroke-width:1; stroke:black; " description="&lt;b&gt;ctg1_25&lt;/b&gt;&lt;br&gt;ctg1 25&lt;br&gt;Location: 29712 - 30684" locus_tag="ctg1_25" class="clusterblast-orf" id="dummy-1_q6_0_all"  />
<polygon points="215,35 220,30 246,30 246,40 220,40 215,35 " style="fill:#bc15d8; stroke-width:1; stroke:black; " description="&lt;b&gt;ctg1_26&lt;/b&gt;&lt;br&gt;ctg1 26&lt;br&gt;Location: 31053 - 32058" locus_tag="ctg1_26" class="clusterblast-orf" id="dummy-1_q7_0_all"  />
<polygon points="246,35 251,30 291,30 291,40 251,40 246,35 " style="fill:#d88515; stroke-width:1; stroke:black; " description="&lt;b&gt;ctg1_27&lt;/b&gt;&lt;br&gt;ctg1 27&lt;br&gt;Location: 32061 - 33534" locus_tag="ctg1_27" class="clusterblast-orf" id="dummy-1_q8_0_all"  />
<polygon points="291,35 296,30 349,30 349,40 296,40 291,35 " style="fill:#15d84d; stroke-width:1; stroke:black; " description="&lt;b&gt;ctg1_28&lt;/b&gt;&lt;br&gt;ctg1 28&lt;br&gt;Location: 33530 - 35432" locus_tag="ctg1_28" class="clusterblast-orf" id="dummy-1_q9_0_all"  />
<polygon points="349,35 354,30 380,30 380,40 354,40 349,35 " style="fill:#154dd8; stroke-width:1; stroke:black; " description="&lt;b&gt;ctg1_29&lt;/b&gt;&lt;br&gt;ctg1 29&lt;br&gt;Location: 35432 - 36443" locus_tag="ctg1_29" class="clusterblast-orf" id="dummy-1_q10_0_all"  />
<polygon points="380,35 385,30 421,30 421,40 385,40 380,35 " style="fill:#d815bc; stroke-width:1; stroke:black; " description="&lt;b&gt;ctg1_30&lt;/b&gt;&lt;br&gt;ctg1 30&lt;br&gt;Location: 36439 - 37795" locus_tag="ctg1_30" class="clusterblast-orf" id="dummy-1_q11_0_all"  />
<polygon points="421,35 426,30 448,30 448,40 426,40 421,35 " style="fill:#d8bc15; stroke-width:1; stroke:black; " description="&lt;b&gt;ctg1_31&lt;/b&gt;&lt;br&gt;ctg1 31&lt;br&gt;Location: 37791 - 38652" locus_tag="ctg1_31" class="clusterblast-orf" id="dummy-1_q12_0_all"  />
<polygon points="448,35 453,30 475,30 475,40 453,40 448,35 " style="fill:#d8bc15; stroke-width:1; stroke:black; " description="&lt;b&gt;ctg1_32&lt;/b&gt;&lt;br&gt;ctg1 32&lt;br&gt;Location: 38648 - 39551" locus_tag="ctg1_32" class="clusterblast-orf" id="dummy-1_q13_0_all"  />
<polygon points="479,40 511,40 516,35 511,30 479,30 479,40 " style="fill:#15d885; stroke-width:1; stroke:black; " description="&lt;b&gt;ctg1_33&lt;/b&gt;&lt;br&gt;ctg1 33&lt;br&gt;Location: 39687 - 40905" locus_tag="ctg1_33" class="clusterblast-orf" id="dummy-1_q14_0_all"  />
<polygon points="517,35 522,30 577,30 577,40 522,40 517,35 " style="fill:#1515d8; stroke-width:1; stroke:black; " description="&lt;b&gt;ctg1_34&lt;/b&gt;&lt;br&gt;ctg1 34&lt;br&gt;Location: 40911 - 42870" locus_tag="ctg1_34" class="clusterblast-orf" id="dummy-1_q15_0_all"  />
<polygon points="580,35 585,30 601,30 601,40 585,40 580,35 " style="fill:#d81585; stroke-width:1; stroke:black; " description="&lt;b&gt;ctg1_35&lt;/b&gt;&lt;br&gt;ctg1 35&lt;br&gt;Location: 42978 - 43665" locus_tag="ctg1_35" class="clusterblast-orf" id="dummy-1_q16_0_all"  />
<polygon points="604,35 609,30 634,30 634,40 609,40 604,35 " style="fill:#bcd815; stroke-width:1; stroke:black; " description="&lt;b&gt;ctg1_36&lt;/b&gt;&lt;br&gt;ctg1 36&lt;br&gt;Location: 43777 - 44755" locus_tag="ctg1_36" class="clusterblast-orf" id="dummy-1_q17_0_all"  />
<polygon points="635,35 640,30 659,30 659,40 640,40 635,35 " style="fill:#15d8bc; stroke-width:1; stroke:black; " description="&lt;b&gt;ctg1_37&lt;/b&gt;&lt;br&gt;ctg1 37&lt;br&gt;Location: 44797 - 45559" locus_tag="ctg1_37" class="clusterblast-orf" id="dummy-1_q18_0_all"  />
<polygon points="659,35 664,30 677,30 677,40 664,40 659,35 " style="fill:#4d15d8; stroke-width:1; stroke:black; " description="&lt;b&gt;ctg1_38&lt;/b&gt;&lt;br&gt;ctg1 38&lt;br&gt;Location: 45571 - 46159" locus_tag="ctg1_38" class="clusterblast-orf" id="dummy-1_q19_0_all"  />
<polygon points="678,35 683,30 745,30 745,40 683,40 678,35 " style="fill:#d8154d; stroke-width:1; stroke:black; " description="&lt;b&gt;ctg1_39&lt;/b&gt;&lt;br&gt;ctg1 39&lt;br&gt;Location: 46189 - 48394" locus_tag="ctg1_39" class="clusterblast-orf" id="dummy-1_q20_0_all"  />
<polygon points="750,35 755,30 780,30 780,40 755,40 750,35 " style="fill:#85d815; stroke-width:1; stroke:black; " description="&lt;b&gt;ctg1_40&lt;/b&gt;&lt;br&gt;ctg1 40&lt;br&gt;Location: 48545 - 49523" locus_tag="ctg1_40" class="clusterblast-orf" id="dummy-1_q21_0_all"  />
</g>
<g label="NZ_CP009110" description="NZ_CP009110_c8: Amycolatopsis methanolica 239, complete genome (90% of genes show similarity), terpene" class="clusterblast-cluster"  >
<text x="5" y="70" class="clusterblast-acc"  >
<a xlink:href="https://antismash-db.secondarymetabolites.org/go/NZ_CP009110/8" target="_blank">NZ_CP009110_c8</a>: Amycolatopsis methanolica 239, complete genome (90% of genes show similarity), terpene</text>
<line x1="10" y1="85" x2="778.0" y2="85" style="stroke-width:1; stroke:grey; "  />
</g>
<g id="a1_000"  >
<polygon points="29,90 73,90 78,85 73,80 29,80 29,90 " style="fill:#d81515; stroke-width:1; stroke:black; " description="&lt;b&gt;AMETH_RS20370&lt;/b&gt;&lt;br&gt;membrane protein&lt;br&gt;Location: 4202638 - 4204248&lt;br&gt;&lt;br&gt;&lt;b&gt;BlastP hit with ctg1_19&lt;/b&gt;&lt;br&gt;Percentage identity: 92&lt;br&gt;Percentage coverage: 100&lt;br&gt;BLAST bit score: 949&lt;br&gt;E-value: 1.4e-274" locus_tag="AMETH_RS20370" class="clusterblast-orf" id="dummy-1_h1_1_0"  />
</g>
<g id="a1_001"  >
<polygon points="79,90 102,90 107,85 102,80 79,80 79,90 " style="fill:#4dd815; stroke-width:1; stroke:black; " description="&lt;b&gt;AMETH_RS20375&lt;/b&gt;&lt;br&gt;ABC transporter ATP-binding protein&lt;br&gt;Location: 4204273 - 4205199&lt;br&gt;&lt;br&gt;&lt;b&gt;BlastP hit with ctg1_20&lt;/b&gt;&lt;br&gt;Percentage identity: 96&lt;br&gt;Percentage coverage: 100&lt;br&gt;BLAST bit score: 584&lt;br&gt;E-value: 9.2e-165" locus_tag="AMETH_RS20375" class="clusterblast-orf" id="dummy-1_h1_1_1"  />
</g>
<g id="a1_002"  >
<polygon points="109,90 127,90 132,85 127,80 109,80 109,90 " style="fill:#15bcd8; stroke-width:1; stroke:black; " description="&lt;b&gt;AMETH_RS20380&lt;/b&gt;&lt;br&gt;multidrug ABC transporter permease&lt;br&gt;Location: 4205265 - 4205990&lt;br&gt;&lt;br&gt;&lt;b&gt;BlastP hit with ctg1_21&lt;/b&gt;&lt;br&gt;Percentage identity: 75&lt;br&gt;Percentage coverage: 91&lt;br&gt;BLAST bit score: 280&lt;br&gt;E-value: 1.9e-73" locus_tag="AMETH_RS20380" class="clusterblast-orf" id="dummy-1_h1_1_2"  />
</g>
<g id="a1_003"  >
<polygon points="133,90 157,90 162,85 157,80 133,80 133,90 " style="fill:#8515d8; stroke-width:1; stroke:black; " description="&lt;b&gt;AMETH_RS20385&lt;/b&gt;&lt;br&gt;heme A synthase&lt;br&gt;Location: 4206021 - 4206983&lt;br&gt;&lt;br&gt;&lt;b&gt;BlastP hit with ctg1_22&lt;/b&gt;&lt;br&gt;Percentage identity: 91&lt;br&gt;Percentage coverage: 98&lt;br&gt;BLAST bit score: 573&lt;br&gt;E-value: 1.3e-161" locus_tag="AMETH_RS20385" class="clusterblast-orf" id="dummy-1_h1_1_3"  />
</g>
<g id="a1_004"  >
<polygon points="165,90 188,90 193,85 188,80 165,80 165,90 " style="fill:#d84d15; stroke-width:1; stroke:black; " description="&lt;b&gt;AMETH_RS20390&lt;/b&gt;&lt;br&gt;acyl-CoA desaturase&lt;br&gt;Location: 4207096 - 4208010&lt;br&gt;&lt;br&gt;&lt;b&gt;BlastP hit with ctg1_23&lt;/b&gt;&lt;br&gt;Percentage identity: 99&lt;br&gt;Percentage coverage: 100&lt;br&gt;BLAST bit score: 634&lt;br&gt;E-value: 5.9e-180" locus_tag="AMETH_RS20390" class="clusterblast-orf" id="dummy-1_h1_1_4"  />
</g>
<g id="a1_005"  >
<polygon points="193,85 198,80 203,80 203,90 198,90 193,85 " style="fill:#15d815; stroke-width:1; stroke:black; " description="&lt;b&gt;AMETH_RS20395&lt;/b&gt;&lt;br&gt;hypothetical protein&lt;br&gt;Location: 4208014 - 4208319&lt;br&gt;&lt;br&gt;&lt;b&gt;BlastP hit with ctg1_24&lt;/b&gt;&lt;br&gt;Percentage identity: 90&lt;br&gt;Percentage coverage: 100&lt;br&gt;BLAST bit score: 186&lt;br&gt;E-value: 1.4e-45" locus_tag="AMETH_RS20395" class="clusterblast-orf" id="dummy-1_h1_1_5"  />
</g>
<g id="a1_006"  >
<polygon points="205,90 230,90 235,85 230,80 205,80 205,90 " style="fill:#1585d8; stroke-width:1; stroke:black; " description="&lt;b&gt;AMETH_RS20400&lt;/b&gt;&lt;br&gt;quinone oxidoreductase&lt;br&gt;Location: 4208398 - 4209369&lt;br&gt;&lt;br&gt;&lt;b&gt;BlastP hit with ctg1_25&lt;/b&gt;&lt;br&gt;Percentage identity: 93&lt;br&gt;Percentage coverage: 100&lt;br&gt;BLAST bit score: 585&lt;br&gt;E-value: 4.3e-165" locus_tag="AMETH_RS20400" class="clusterblast-orf" id="dummy-1_h1_1_6"  />
</g>
<g id="a1_007"  >
<polygon points="237,85 242,80 268,80 268,90 242,90 237,85 " style="fill:#bc15d8; stroke-width:1; stroke:black; " description="&lt;b&gt;AMETH_RS20405&lt;/b&gt;&lt;br&gt;hopanoid biosynthesis associated radical SAM protein HpnH&lt;br&gt;Location: 4209452 - 4210456&lt;br&gt;&lt;br&gt;&lt;b&gt;BlastP hit with ctg1_26&lt;/b&gt;&lt;br&gt;Percentage identity: 96&lt;br&gt;Percentage coverage: 100&lt;br&gt;BLAST bit score: 673&lt;br&gt;E-value: 1.6e-191" locus_tag="AMETH_RS20405" class="clusterblast-orf" id="dummy-1_h1_1_7"  />
</g>
<g id="a1_008"  >
<polygon points="268,85 273,80 313,80 313,90 273,90 268,85 " style="fill:#d88515; stroke-width:1; stroke:black; " description="&lt;b&gt;AMETH_RS20410&lt;/b&gt;&lt;br&gt;4-hydroxy-3-methylbut-2-enyl diphosphate reductase&lt;br&gt;Location: 4210460 - 4211932&lt;br&gt;&lt;br&gt;&lt;b&gt;BlastP hit with ctg1_27&lt;/b&gt;&lt;br&gt;Percentage identity: 88&lt;br&gt;Percentage coverage: 100&lt;br&gt;BLAST bit score: 821&lt;br&gt;E-value: 4.2e-236" locus_tag="AMETH_RS20410" class="clusterblast-orf" id="dummy-1_h1_1_8"  />
</g>
<g id="a1_009"  >
<polygon points="313,85 318,80 371,80 371,90 318,90 313,85 " style="fill:#15d84d; stroke-width:1; stroke:black; " description="&lt;b&gt;AMETH_RS20415&lt;/b&gt;&lt;br&gt;squalene--hopene cyclase&lt;br&gt;Location: 4211929 - 4213830&lt;br&gt;&lt;br&gt;&lt;b&gt;BlastP hit with ctg1_28&lt;/b&gt;&lt;br&gt;Percentage identity: 91&lt;br&gt;Percentage coverage: 100&lt;br&gt;BLAST bit score: 1174&lt;br&gt;E-value: 0.0" locus_tag="AMETH_RS20415" class="clusterblast-orf" id="dummy-1_h1_1_9"  />
</g>
<g id="a1_0010"  >
<polygon points="371,85 376,80 402,80 402,90 376,90 371,85 " style="fill:#154dd8; stroke-width:1; stroke:black; " description="&lt;b&gt;AMETH_RS20420&lt;/b&gt;&lt;br&gt;polyprenyl synthetase family protein&lt;br&gt;Location: 4213831 - 4214841&lt;br&gt;&lt;br&gt;&lt;b&gt;BlastP hit with ctg1_29&lt;/b&gt;&lt;br&gt;Percentage identity: 96&lt;br&gt;Percentage coverage: 100&lt;br&gt;BLAST bit score: 607&lt;br&gt;E-value: 6.5e-172" locus_tag="AMETH_RS20420" class="clusterblast-orf" id="dummy-1_h1_1_10"  />
</g>
<g id="a1_0011"  >
<polygon points="402,85 407,80 443,80 443,90 407,90 402,85 " style="fill:#d815bc; stroke-width:1; stroke:black; " description="&lt;b&gt;AMETH_RS20425&lt;/b&gt;&lt;br&gt;phytoene dehydrogenase&lt;br&gt;Location: 4214838 - 4216193&lt;br&gt;&lt;br&gt;&lt;b&gt;BlastP hit with ctg1_30&lt;/b&gt;&lt;br&gt;Percentage identity: 87&lt;br&gt;Percentage coverage: 97&lt;br&gt;BLAST bit score: 740&lt;br&gt;E-value: 1.1e-211" locus_tag="AMETH_RS20425" class="clusterblast-orf" id="dummy-1_h1_1_11"  />
</g>
<g id="a1_0012"  >
<polygon points="443,85 448,80 470,80 470,90 448,90 443,85 " style="fill:#d8bc15; stroke-width:1; stroke:black; " description="&lt;b&gt;AMETH_RS20430&lt;/b&gt;&lt;br&gt;squalene synthase HpnD&lt;br&gt;Location: 4216190 - 4217050&lt;br&gt;&lt;br&gt;&lt;b&gt;BlastP hit with ctg1_31&lt;/b&gt;&lt;br&gt;Percentage identity: 91&lt;br&gt;Percentage coverage: 100&lt;br&gt;BLAST bit score: 536&lt;br&gt;E-value: 1.6e-150&lt;br&gt;&lt;br&gt;&lt;b&gt;BlastP hit with ctg1_32&lt;/b&gt;&lt;br&gt;Percentage identity: 35&lt;br&gt;Percentage coverage: 77&lt;br&gt;BLAST bit score: 100&lt;br&gt;E-value: 3e-19" locus_tag="AMETH_RS20430" class="clusterblast-orf" id="dummy-1_h1_1_12"  />
</g>
<g id="a1_0013"  >
<polygon points="469,85 474,80 497,80 497,90 474,90 469,85 " style="fill:#d8bc15; stroke-width:1; stroke:black; " description="&lt;b&gt;AMETH_RS37080&lt;/b&gt;&lt;br&gt;squalene synthase HpnC&lt;br&gt;Location: 4217047 - 4217943&lt;br&gt;&lt;br&gt;&lt;b&gt;BlastP hit with ctg1_31&lt;/b&gt;&lt;br&gt;Percentage identity: 33&lt;br&gt;Percentage coverage: 81&lt;br&gt;BLAST bit score: 104&lt;br&gt;E-value: 2.6e-20&lt;br&gt;&lt;br&gt;&lt;b&gt;BlastP hit with ctg1_32&lt;/b&gt;&lt;br&gt;Percentage identity: 86&lt;br&gt;Percentage coverage: 99&lt;br&gt;BLAST bit score: 496&lt;br&gt;E-value: 1.9e-138" locus_tag="AMETH_RS37080" class="clusterblast-orf" id="dummy-1_h1_1_13"  />
</g>
<g id="a1_0014"  >
<polygon points="501,90 533,90 538,85 533,80 501,80 501,90 " style="fill:#15d885; stroke-width:1; stroke:black; " description="&lt;b&gt;AMETH_RS20440&lt;/b&gt;&lt;br&gt;PucR family transcriptional regulator&lt;br&gt;Location: 4218065 - 4219297&lt;br&gt;&lt;br&gt;&lt;b&gt;BlastP hit with ctg1_33&lt;/b&gt;&lt;br&gt;Percentage identity: 93&lt;br&gt;Percentage coverage: 100&lt;br&gt;BLAST bit score: 735&lt;br&gt;E-value: 3.3e-210" locus_tag="AMETH_RS20440" class="clusterblast-orf" id="dummy-1_h1_1_14"  />
</g>
<g id="a1_0015"  >
<polygon points="538,85 543,80 599,80 599,90 543,90 538,85 " style="fill:#1515d8; stroke-width:1; stroke:black; " description="&lt;b&gt;AMETH_RS35970&lt;/b&gt;&lt;br&gt;hypothetical protein&lt;br&gt;Location: 4219299 - 4221293&lt;br&gt;&lt;br&gt;&lt;b&gt;BlastP hit with ctg1_34&lt;/b&gt;&lt;br&gt;Percentage identity: 89&lt;br&gt;Percentage coverage: 100&lt;br&gt;BLAST bit score: 1196&lt;br&gt;E-value: 0.0" locus_tag="AMETH_RS35970" class="clusterblast-orf" id="dummy-1_h1_1_15"  />
</g>
<g id="a1_0016"  >
<polygon points="601,85 606,80 619,80 619,90 606,90 601,85 " style="fill:white; stroke-width:1; stroke:black; " description="&lt;b&gt;AMETH_RS20450&lt;/b&gt;&lt;br&gt;riboflavin biosynthesis protein&lt;br&gt;Location: 4221336 - 4221929" locus_tag="AMETH_RS20450" class="clusterblast-orf" id="dummy-1_h1_1_16"  />
</g>
<g id="a1_0017"  >
<polygon points="621,90 630,90 635,85 630,80 621,80 621,90 " style="fill:white; stroke-width:1; stroke:black; " description="&lt;b&gt;AMETH_RS20455&lt;/b&gt;&lt;br&gt;transcriptional regulator&lt;br&gt;Location: 4222019 - 4222471" locus_tag="AMETH_RS20455" class="clusterblast-orf" id="dummy-1_h1_1_17"  />
</g>
<g id="a1_0018"  >
<polygon points="644,85 649,80 665,80 665,90 649,90 644,85 " style="fill:#d81585; stroke-width:1; stroke:black; " description="&lt;b&gt;AMETH_RS20460&lt;/b&gt;&lt;br&gt;hypothetical protein&lt;br&gt;Location: 4222751 - 4223437&lt;br&gt;&lt;br&gt;&lt;b&gt;BlastP hit with ctg1_35&lt;/b&gt;&lt;br&gt;Percentage identity: 93&lt;br&gt;Percentage coverage: 100&lt;br&gt;BLAST bit score: 401&lt;br&gt;E-value: 8.2e-110" locus_tag="AMETH_RS20460" class="clusterblast-orf" id="dummy-1_h1_1_18"  />
</g>
<g id="a1_0019"  >
<polygon points="668,85 673,80 698,80 698,90 673,90 668,85 " style="fill:#bcd815; stroke-width:1; stroke:black; " description="&lt;b&gt;AMETH_RS20465&lt;/b&gt;&lt;br&gt;hypothetical protein&lt;br&gt;Location: 4223548 - 4224525&lt;br&gt;&lt;br&gt;&lt;b&gt;BlastP hit with ctg1_36&lt;/b&gt;&lt;br&gt;Percentage identity: 91&lt;br&gt;Percentage coverage: 100&lt;br&gt;BLAST bit score: 554&lt;br&gt;E-value: 1.1e-155" locus_tag="AMETH_RS20465" class="clusterblast-orf" id="dummy-1_h1_1_19"  />
</g>
<g id="a1_0020"  >
<polygon points="698,85 703,80 722,80 722,90 703,90 698,85 " style="fill:#15d8bc; stroke-width:1; stroke:black; " description="&lt;b&gt;AMETH_RS20470&lt;/b&gt;&lt;br&gt;NAD(P)-dependent oxidoreductase&lt;br&gt;Location: 4224534 - 4225328&lt;br&gt;&lt;br&gt;&lt;b&gt;BlastP hit with ctg1_37&lt;/b&gt;&lt;br&gt;Percentage identity: 88&lt;br&gt;Percentage coverage: 100&lt;br&gt;BLAST bit score: 412&lt;br&gt;E-value: 3.9e-113" locus_tag="AMETH_RS20470" class="clusterblast-orf" id="dummy-1_h1_1_20"  />
</g>
<g id="a1_0021"  >
<polygon points="732,85 737,80 750,80 750,90 737,90 732,85 " style="fill:#4d15d8; stroke-width:1; stroke:black; " description="&lt;b&gt;AMETH_RS20475&lt;/b&gt;&lt;br&gt;peptidylprolyl isomerase&lt;br&gt;Location: 4225634 - 4226221&lt;br&gt;&lt;br&gt;&lt;b&gt;BlastP hit with ctg1_38&lt;/b&gt;&lt;br&gt;Percentage identity: 83&lt;br&gt;Percentage coverage: 100&lt;br&gt;BLAST bit score: 318&lt;br&gt;E-value: 6e-85" locus_tag="AMETH_RS20475" class="clusterblast-orf" id="dummy-1_h1_1_21"  />
</g>
</svg>
