<svg xmlns="http://www.w3.org/2000/svg" xmlns:xlink="http://www.w3.org/1999/xlink" version="1.1" x="0" y="0" height="230" width="800" viewBox="0 0 800 230" preserveAspectRatio="none"  >
<g label="Query sequence" class="clusterblast-cluster"  >
<text x="5" y="20" class="clusterblast-acc"  >
Query sequence</text>
<line x1="10" y1="35" x2="778.0" y2="35" style="stroke-width:1; stroke:grey; "  />
<polygon points="123,35 128,30 130,30 130,40 128,40 123,35 " style="fill:white; stroke-width:1; stroke:black; " description="&lt;b&gt;ctg71_10&lt;/b&gt;&lt;br&gt;ctg71 10&lt;br&gt;Location: 9779 - 10166" locus_tag="ctg71_10" class="clusterblast-orf" id="dummy-1_q0_0_all"  />
<polygon points="134,40 138,35 134,30 134,40 " style="fill:white; stroke-width:1; stroke:black; " description="&lt;b&gt;ctg71_11&lt;/b&gt;&lt;br&gt;ctg71 11&lt;br&gt;Location: 10355 - 10583" locus_tag="ctg71_11" class="clusterblast-orf" id="dummy-1_q1_0_all"  />
<polygon points="140,35 145,30 157,30 157,40 145,40 140,35 " style="fill:#d81515; stroke-width:1; stroke:black; " description="&lt;b&gt;ctg71_12&lt;/b&gt;&lt;br&gt;ctg71 12&lt;br&gt;Location: 10705 - 11614" locus_tag="ctg71_12" class="clusterblast-orf" id="dummy-1_q2_0_all"  />
<polygon points="158,40 168,40 173,35 168,30 158,30 158,40 " style="fill:#77d815; stroke-width:1; stroke:black; " description="&lt;b&gt;ctg71_13&lt;/b&gt;&lt;br&gt;ctg71 13&lt;br&gt;Location: 11698 - 12526" locus_tag="ctg71_13" class="clusterblast-orf" id="dummy-1_q3_0_all"  />
<polygon points="173,35 178,30 197,30 197,40 178,40 173,35 " style="fill:#15d8d8; stroke-width:1; stroke:black; " description="&lt;b&gt;ctg71_14&lt;/b&gt;&lt;br&gt;ctg71 14&lt;br&gt;Location: 12518 - 13805" locus_tag="ctg71_14" class="clusterblast-orf" id="dummy-1_q4_0_all"  />
<polygon points="198,40 225,40 230,35 225,30 198,30 198,40 " style="fill:#7715d8; stroke-width:1; stroke:black; " description="&lt;b&gt;ctg71_15&lt;/b&gt;&lt;br&gt;ctg71 15&lt;br&gt;Location: 13851 - 15603" locus_tag="ctg71_15" class="clusterblast-orf" id="dummy-1_q5_0_all"  />
<polygon points="230,40 236,40 241,35 236,30 230,30 230,40 " style="fill:#d84615; stroke-width:1; stroke:black; " description="&lt;b&gt;ctg71_16&lt;/b&gt;&lt;br&gt;ctg71 16&lt;br&gt;Location: 15599 - 16226" locus_tag="ctg71_16" class="clusterblast-orf" id="dummy-1_q6_0_all"  />
<polygon points="242,40 254,40 259,35 254,30 242,30 242,40 " style="fill:#46d815; stroke-width:1; stroke:black; " description="&lt;b&gt;ctg71_17&lt;/b&gt;&lt;br&gt;ctg71 17&lt;br&gt;Location: 16248 - 17175" locus_tag="ctg71_17" class="clusterblast-orf" id="dummy-1_q7_0_all"  />
<polygon points="260,40 273,40 278,35 273,30 260,30 260,40 " style="fill:#15a7d8; stroke-width:1; stroke:black; " description="&lt;b&gt;ctg71_18&lt;/b&gt;&lt;br&gt;ctg71 18&lt;br&gt;Location: 17261 - 18236" locus_tag="ctg71_18" class="clusterblast-orf" id="dummy-1_q8_0_all"  />
<polygon points="278,40 281,40 286,35 281,30 278,30 278,40 " style="fill:#a715d8; stroke-width:1; stroke:black; " description="&lt;b&gt;ctg71_19&lt;/b&gt;&lt;br&gt;ctg71 19&lt;br&gt;Location: 18232 - 18658" locus_tag="ctg71_19" class="clusterblast-orf" id="dummy-1_q9_0_all"  />
<polygon points="286,40 297,40 302,35 297,30 286,30 286,40 " style="fill:#d87715; stroke-width:1; stroke:black; " description="&lt;b&gt;ctg71_20&lt;/b&gt;&lt;br&gt;ctg71 20&lt;br&gt;Location: 18654 - 19512" locus_tag="ctg71_20" class="clusterblast-orf" id="dummy-1_q10_0_all"  />
<polygon points="302,40 317,40 322,35 317,30 302,30 302,40 " style="fill:#15d815; stroke-width:1; stroke:black; " description="&lt;b&gt;ctg71_21&lt;/b&gt;&lt;br&gt;ctg71 21&lt;br&gt;Location: 19508 - 20609" locus_tag="ctg71_21" class="clusterblast-orf" id="dummy-1_q11_0_all"  />
<polygon points="322,40 330,40 335,35 330,30 322,30 322,40 " style="fill:#1577d8; stroke-width:1; stroke:black; " description="&lt;b&gt;ctg71_22&lt;/b&gt;&lt;br&gt;ctg71 22&lt;br&gt;Location: 20598 - 21342" locus_tag="ctg71_22" class="clusterblast-orf" id="dummy-1_q12_0_all"  />
<polygon points="337,40 365,40 370,35 365,30 337,30 337,40 " style="fill:#d815d8; stroke-width:1; stroke:black; " description="&lt;b&gt;ctg71_23&lt;/b&gt;&lt;br&gt;ctg71 23&lt;br&gt;Location: 21401 - 23243" locus_tag="ctg71_23" class="clusterblast-orf" id="dummy-1_q13_0_all"  />
<polygon points="370,40 372,40 377,35 372,30 370,30 370,40 " style="fill:#d8a715; stroke-width:1; stroke:black; " description="&lt;b&gt;ctg71_24&lt;/b&gt;&lt;br&gt;ctg71 24&lt;br&gt;Location: 23242 - 23599" locus_tag="ctg71_24" class="clusterblast-orf" id="dummy-1_q14_0_all"  />
<polygon points="387,35 392,30 409,30 409,40 392,40 387,35 " style="fill:#15d846; stroke-width:1; stroke:black; " description="&lt;b&gt;ctg71_25&lt;/b&gt;&lt;br&gt;ctg71 25&lt;br&gt;Location: 24141 - 25341" locus_tag="ctg71_25" class="clusterblast-orf" id="dummy-1_q15_0_all"  />
<polygon points="409,35 414,30 418,30 418,40 414,40 409,35 " style="fill:#1546d8; stroke-width:1; stroke:black; " description="&lt;b&gt;ctg71_26&lt;/b&gt;&lt;br&gt;ctg71 26&lt;br&gt;Location: 25345 - 25837" locus_tag="ctg71_26" class="clusterblast-orf" id="dummy-1_q16_0_all"  />
<polygon points="420,40 428,40 433,35 428,30 420,30 420,40 " style="fill:#d815a7; stroke-width:1; stroke:black; " description="&lt;b&gt;ctg71_27&lt;/b&gt;&lt;br&gt;ctg71 27&lt;br&gt;Location: 25921 - 26644" locus_tag="ctg71_27" class="clusterblast-orf" id="dummy-1_q17_0_all"  />
<polygon points="433,40 440,40 445,35 440,30 433,30 433,40 " style="fill:#d8d815; stroke-width:1; stroke:black; " description="&lt;b&gt;ctg71_28&lt;/b&gt;&lt;br&gt;ctg71 28&lt;br&gt;Location: 26640 - 27318" locus_tag="ctg71_28" class="clusterblast-orf" id="dummy-1_q18_0_all"  />
<polygon points="445,40 466,40 471,35 466,30 445,30 445,40 " style="fill:#15d877; stroke-width:1; stroke:black; " description="&lt;b&gt;ctg71_29&lt;/b&gt;&lt;br&gt;ctg71 29&lt;br&gt;Location: 27314 - 28739" locus_tag="ctg71_29" class="clusterblast-orf" id="dummy-1_q19_0_all"  />
<polygon points="474,40 540,40 545,35 540,30 474,30 474,40 " style="fill:#1515d8; stroke-width:1; stroke:black; " description="&lt;b&gt;ctg71_30&lt;/b&gt;&lt;br&gt;ctg71 30&lt;br&gt;Location: 28877 - 32738" locus_tag="ctg71_30" class="clusterblast-orf" id="dummy-1_q20_0_all"  />
<polygon points="545,40 563,40 568,35 563,30 545,30 545,40 " style="fill:#d81577; stroke-width:1; stroke:black; " description="&lt;b&gt;ctg71_31&lt;/b&gt;&lt;br&gt;ctg71 31&lt;br&gt;Location: 32734 - 33976" locus_tag="ctg71_31" class="clusterblast-orf" id="dummy-1_q21_0_all"  />
<polygon points="571,40 587,40 592,35 587,30 571,30 571,40 " style="fill:#a7d815; stroke-width:1; stroke:black; " description="&lt;b&gt;ctg71_32&lt;/b&gt;&lt;br&gt;ctg71 32&lt;br&gt;Location: 34160 - 35279" locus_tag="ctg71_32" class="clusterblast-orf" id="dummy-1_q22_0_all"  />
<polygon points="593,40 602,40 607,35 602,30 593,30 593,40 " style="fill:#15d8a7; stroke-width:1; stroke:black; " description="&lt;b&gt;ctg71_33&lt;/b&gt;&lt;br&gt;ctg71 33&lt;br&gt;Location: 35371 - 36145" locus_tag="ctg71_33" class="clusterblast-orf" id="dummy-1_q23_0_all"  />
<polygon points="607,40 629,40 634,35 629,30 607,30 607,40 " style="fill:#4615d8; stroke-width:1; stroke:black; " description="&lt;b&gt;ctg71_34&lt;/b&gt;&lt;br&gt;ctg71 34&lt;br&gt;Location: 36141 - 37590" locus_tag="ctg71_34" class="clusterblast-orf" id="dummy-1_q24_0_all"  />
<polygon points="635,40 651,40 656,35 651,30 635,30 635,40 " style="fill:#d81546; stroke-width:1; stroke:black; " description="&lt;b&gt;ctg71_35&lt;/b&gt;&lt;br&gt;ctg71 35&lt;br&gt;Location: 37635 - 38811" locus_tag="ctg71_35" class="clusterblast-orf" id="dummy-1_q25_0_all"  />
</g>
<g label="NZ_CP016174" description="NZ_CP016174_c22: Amycolatopsis orientalis strain B-37, complete genome (43% of genes show similarity), other" class="clusterblast-cluster"  >
<text x="5" y="70" class="clusterblast-acc"  >
<a xlink:href="https://antismash-db.secondarymetabolites.org/go/NZ_CP016174/22" target="_blank">NZ_CP016174_c22</a>: Amycolatopsis orientalis strain B-37, complete genome (43% of genes show similarity), other</text>
<line x1="10" y1="85" x2="778.0" y2="85" style="stroke-width:1; stroke:grey; "  />
</g>
<g id="a1_000"  >
<polygon points="0,85 5,80 26,80 26,90 5,90 0,85 " style="fill:white; stroke-width:1; stroke:black; " description="&lt;b&gt;SD37_RS24790&lt;/b&gt;&lt;br&gt;cytosine permease&lt;br&gt;Location: 5684538 - 5683096" locus_tag="SD37_RS24790" class="clusterblast-orf" id="dummy-1_h1_7_0"  />
</g>
<g id="a1_001"  >
<polygon points="29,90 36,90 41,85 36,80 29,80 29,90 " style="fill:white; stroke-width:1; stroke:black; " description="&lt;b&gt;SD37_RS24785&lt;/b&gt;&lt;br&gt;GntR family transcriptional regulator&lt;br&gt;Location: 5682937 - 5682260" locus_tag="SD37_RS24785" class="clusterblast-orf" id="dummy-1_h1_7_1"  />
</g>
<g id="a1_002"  >
<polygon points="47,90 58,90 63,85 58,80 47,80 47,90 " style="fill:white; stroke-width:1; stroke:black; " description="&lt;b&gt;SD37_RS24780&lt;/b&gt;&lt;br&gt;hypothetical protein&lt;br&gt;Location: 5681973 - 5681059" locus_tag="SD37_RS24780" class="clusterblast-orf" id="dummy-1_h1_7_2"  />
</g>
<g id="a1_003"  >
<polygon points="68,85 73,80 92,80 92,90 73,90 68,85 " style="fill:#15d8d8; stroke-width:1; stroke:black; " description="&lt;b&gt;SD37_RS24775&lt;/b&gt;&lt;br&gt;3-phosphoshikimate 1-carboxyvinyltransferase&lt;br&gt;Location: 5680796 - 5679513&lt;br&gt;&lt;br&gt;&lt;b&gt;BlastP hit with ctg71_14&lt;/b&gt;&lt;br&gt;Percentage identity: 74&lt;br&gt;Percentage coverage: 100&lt;br&gt;BLAST bit score: 608&lt;br&gt;E-value: 6.3e-172" locus_tag="SD37_RS24775" class="clusterblast-orf" id="dummy-1_h1_7_3"  />
</g>
<g id="a1_004"  >
<polygon points="93,90 120,90 125,85 120,80 93,80 93,90 " style="fill:#7715d8; stroke-width:1; stroke:black; " description="&lt;b&gt;SD37_RS24770&lt;/b&gt;&lt;br&gt;CTP synthase&lt;br&gt;Location: 5679424 - 5677724&lt;br&gt;&lt;br&gt;&lt;b&gt;BlastP hit with ctg71_15&lt;/b&gt;&lt;br&gt;Percentage identity: 89&lt;br&gt;Percentage coverage: 96&lt;br&gt;BLAST bit score: 992&lt;br&gt;E-value: 1.6e-287" locus_tag="SD37_RS24770" class="clusterblast-orf" id="dummy-1_h1_7_4"  />
</g>
<g id="a1_005"  >
<polygon points="125,90 131,90 136,85 131,80 125,80 125,90 " style="fill:#d84615; stroke-width:1; stroke:black; " description="&lt;b&gt;SD37_RS24765&lt;/b&gt;&lt;br&gt;NUDIX hydrolase&lt;br&gt;Location: 5677727 - 5677092&lt;br&gt;&lt;br&gt;&lt;b&gt;BlastP hit with ctg71_16&lt;/b&gt;&lt;br&gt;Percentage identity: 76&lt;br&gt;Percentage coverage: 100&lt;br&gt;BLAST bit score: 322&lt;br&gt;E-value: 3.4e-86" locus_tag="SD37_RS24765" class="clusterblast-orf" id="dummy-1_h1_7_5"  />
</g>
<g id="a1_006"  >
<polygon points="138,90 150,90 155,85 150,80 138,80 138,90 " style="fill:#46d815; stroke-width:1; stroke:black; " description="&lt;b&gt;SD37_RS24760&lt;/b&gt;&lt;br&gt;site-specific tyrosine recombinase XerD&lt;br&gt;Location: 5676986 - 5676084&lt;br&gt;&lt;br&gt;&lt;b&gt;BlastP hit with ctg71_17&lt;/b&gt;&lt;br&gt;Percentage identity: 82&lt;br&gt;Percentage coverage: 97&lt;br&gt;BLAST bit score: 477&lt;br&gt;E-value: 1.2e-132" locus_tag="SD37_RS24760" class="clusterblast-orf" id="dummy-1_h1_7_6"  />
</g>
<g id="a1_007"  >
<polygon points="157,90 170,90 175,85 170,80 157,80 157,90 " style="fill:#15a7d8; stroke-width:1; stroke:black; " description="&lt;b&gt;SD37_RS24755&lt;/b&gt;&lt;br&gt;ParA family protein&lt;br&gt;Location: 5675993 - 5674977&lt;br&gt;&lt;br&gt;&lt;b&gt;BlastP hit with ctg71_18&lt;/b&gt;&lt;br&gt;Percentage identity: 89&lt;br&gt;Percentage coverage: 85&lt;br&gt;BLAST bit score: 490&lt;br&gt;E-value: 1.5e-136" locus_tag="SD37_RS24755" class="clusterblast-orf" id="dummy-1_h1_7_7"  />
</g>
<g id="a1_008"  >
<polygon points="175,90 178,90 183,85 178,80 175,80 175,90 " style="fill:#a715d8; stroke-width:1; stroke:black; " description="&lt;b&gt;SD37_RS24750&lt;/b&gt;&lt;br&gt;hypothetical protein&lt;br&gt;Location: 5674980 - 5674555&lt;br&gt;&lt;br&gt;&lt;b&gt;BlastP hit with ctg71_19&lt;/b&gt;&lt;br&gt;Percentage identity: 62&lt;br&gt;Percentage coverage: 98&lt;br&gt;BLAST bit score: 143&lt;br&gt;E-value: 2.5e-32" locus_tag="SD37_RS24750" class="clusterblast-orf" id="dummy-1_h1_7_8"  />
</g>
<g id="a1_009"  >
<polygon points="183,90 195,90 200,85 195,80 183,80 183,90 " style="fill:#d87715; stroke-width:1; stroke:black; " description="&lt;b&gt;SD37_RS24745&lt;/b&gt;&lt;br&gt;segregation/condensation protein A&lt;br&gt;Location: 5674555 - 5673620&lt;br&gt;&lt;br&gt;&lt;b&gt;BlastP hit with ctg71_20&lt;/b&gt;&lt;br&gt;Percentage identity: 85&lt;br&gt;Percentage coverage: 95&lt;br&gt;BLAST bit score: 443&lt;br&gt;E-value: 2.3e-122" locus_tag="SD37_RS24745" class="clusterblast-orf" id="dummy-1_h1_7_9"  />
</g>
<g id="a1_0010"  >
<polygon points="200,90 208,90 213,85 208,80 200,80 200,90 " style="fill:#15d815; stroke-width:1; stroke:black; " description="&lt;b&gt;SD37_RS24740&lt;/b&gt;&lt;br&gt;SMC-Scp complex subunit ScpB&lt;br&gt;Location: 5673623 - 5672910&lt;br&gt;&lt;br&gt;&lt;b&gt;BlastP hit with ctg71_21&lt;/b&gt;&lt;br&gt;Percentage identity: 79&lt;br&gt;Percentage coverage: 55&lt;br&gt;BLAST bit score: 297&lt;br&gt;E-value: 2.7e-78" locus_tag="SD37_RS24740" class="clusterblast-orf" id="dummy-1_h1_7_10"  />
</g>
<g id="a1_0011"  >
<polygon points="213,90 222,90 227,85 222,80 213,80 213,90 " style="fill:#1577d8; stroke-width:1; stroke:black; " description="&lt;b&gt;SD37_RS24735&lt;/b&gt;&lt;br&gt;rRNA pseudouridine synthase&lt;br&gt;Location: 5672920 - 5672168&lt;br&gt;&lt;br&gt;&lt;b&gt;BlastP hit with ctg71_22&lt;/b&gt;&lt;br&gt;Percentage identity: 74&lt;br&gt;Percentage coverage: 101&lt;br&gt;BLAST bit score: 371&lt;br&gt;E-value: 9.8e-101" locus_tag="SD37_RS24735" class="clusterblast-orf" id="dummy-1_h1_7_11"  />
</g>
<g id="a1_0012"  >
<polygon points="229,90 258,90 263,85 258,80 229,80 229,90 " style="fill:white; stroke-width:1; stroke:black; " description="&lt;b&gt;SD37_RS24730&lt;/b&gt;&lt;br&gt;Xaa-Pro dipeptidyl-peptidase&lt;br&gt;Location: 5672062 - 5670194" locus_tag="SD37_RS24730" class="clusterblast-orf" id="dummy-1_h1_7_12"  />
</g>
<g id="a1_0013"  >
<polygon points="264,85 269,80 286,80 286,90 269,90 264,85 " style="fill:#15d846; stroke-width:1; stroke:black; " description="&lt;b&gt;SD37_RS24725&lt;/b&gt;&lt;br&gt;cation:proton antiporter&lt;br&gt;Location: 5670119 - 5668923&lt;br&gt;&lt;br&gt;&lt;b&gt;BlastP hit with ctg71_25&lt;/b&gt;&lt;br&gt;Percentage identity: 88&lt;br&gt;Percentage coverage: 97&lt;br&gt;BLAST bit score: 626&lt;br&gt;E-value: 2.1e-177" locus_tag="SD37_RS24725" class="clusterblast-orf" id="dummy-1_h1_7_13"  />
</g>
<g id="a1_0014"  >
<polygon points="287,85 292,80 295,80 295,90 292,90 287,85 " style="fill:#1546d8; stroke-width:1; stroke:black; " description="&lt;b&gt;SD37_RS24720&lt;/b&gt;&lt;br&gt;potassium transporter TrkA&lt;br&gt;Location: 5668916 - 5668434&lt;br&gt;&lt;br&gt;&lt;b&gt;BlastP hit with ctg71_26&lt;/b&gt;&lt;br&gt;Percentage identity: 89&lt;br&gt;Percentage coverage: 98&lt;br&gt;BLAST bit score: 292&lt;br&gt;E-value: 2.9e-77" locus_tag="SD37_RS24720" class="clusterblast-orf" id="dummy-1_h1_7_14"  />
</g>
<g id="a1_0015"  >
<polygon points="296,85 301,80 303,80 303,90 301,90 296,85 " style="fill:white; stroke-width:1; stroke:black; " description="&lt;b&gt;SD37_RS24715&lt;/b&gt;&lt;br&gt;DUF4267 domain-containing protein&lt;br&gt;Location: 5668418 - 5668026" locus_tag="SD37_RS24715" class="clusterblast-orf" id="dummy-1_h1_7_15"  />
</g>
<g id="a1_0016"  >
<polygon points="307,90 315,90 320,85 315,80 307,80 307,90 " style="fill:#d815a7; stroke-width:1; stroke:black; " description="&lt;b&gt;SD37_RS24710&lt;/b&gt;&lt;br&gt;(d)CMP kinase&lt;br&gt;Location: 5667817 - 5667113&lt;br&gt;&lt;br&gt;&lt;b&gt;BlastP hit with ctg71_27&lt;/b&gt;&lt;br&gt;Percentage identity: 72&lt;br&gt;Percentage coverage: 95&lt;br&gt;BLAST bit score: 285&lt;br&gt;E-value: 6.9e-75" locus_tag="SD37_RS24710" class="clusterblast-orf" id="dummy-1_h1_7_16"  />
</g>
<g id="a1_0017"  >
<polygon points="320,90 327,90 332,85 327,80 320,80 320,90 " style="fill:#d8d815; stroke-width:1; stroke:black; " description="&lt;b&gt;SD37_RS24705&lt;/b&gt;&lt;br&gt;1-acyl-sn-glycerol-3-phosphate acyltransferase&lt;br&gt;Location: 5667116 - 5666448&lt;br&gt;&lt;br&gt;&lt;b&gt;BlastP hit with ctg71_28&lt;/b&gt;&lt;br&gt;Percentage identity: 61&lt;br&gt;Percentage coverage: 96&lt;br&gt;BLAST bit score: 278&lt;br&gt;E-value: 7.9e-73" locus_tag="SD37_RS24705" class="clusterblast-orf" id="dummy-1_h1_7_17"  />
</g>
<g id="a1_0018"  >
<polygon points="332,90 354,90 359,85 354,80 332,80 332,90 " style="fill:#15d877; stroke-width:1; stroke:black; " description="&lt;b&gt;SD37_RS24700&lt;/b&gt;&lt;br&gt;ribosome biogenesis GTPase Der&lt;br&gt;Location: 5666442 - 5664958&lt;br&gt;&lt;br&gt;&lt;b&gt;BlastP hit with ctg71_29&lt;/b&gt;&lt;br&gt;Percentage identity: 86&lt;br&gt;Percentage coverage: 99&lt;br&gt;BLAST bit score: 782&lt;br&gt;E-value: 2.7e-224" locus_tag="SD37_RS24700" class="clusterblast-orf" id="dummy-1_h1_7_18"  />
</g>
<g id="a1_0019"  >
<polygon points="364,90 431,90 436,85 431,80 364,80 364,90 " style="fill:#1515d8; stroke-width:1; stroke:black; " description="&lt;b&gt;SD37_RS24695&lt;/b&gt;&lt;br&gt;amino acid adenylation protein&lt;br&gt;Location: 5664711 - 5660809&lt;br&gt;&lt;br&gt;&lt;b&gt;BlastP hit with ctg71_30&lt;/b&gt;&lt;br&gt;Percentage identity: 72&lt;br&gt;Percentage coverage: 100&lt;br&gt;BLAST bit score: 1793&lt;br&gt;E-value: 0.0" locus_tag="SD37_RS24695" class="clusterblast-orf" id="dummy-1_h1_7_19"  />
</g>
<g id="a1_0020"  >
<polygon points="436,90 457,90 462,85 457,80 436,80 436,90 " style="fill:#d81577; stroke-width:1; stroke:black; " description="&lt;b&gt;SD37_RS24690&lt;/b&gt;&lt;br&gt;M1 family peptidase&lt;br&gt;Location: 5660788 - 5659376&lt;br&gt;&lt;br&gt;&lt;b&gt;BlastP hit with ctg71_31&lt;/b&gt;&lt;br&gt;Percentage identity: 61&lt;br&gt;Percentage coverage: 106&lt;br&gt;BLAST bit score: 534&lt;br&gt;E-value: 8.6e-150" locus_tag="SD37_RS24690" class="clusterblast-orf" id="dummy-1_h1_7_20"  />
</g>
<g id="a1_0021"  >
<polygon points="465,90 478,90 483,85 478,80 465,80 465,90 " style="fill:white; stroke-width:1; stroke:black; " description="&lt;b&gt;SD37_RS24685&lt;/b&gt;&lt;br&gt;hypothetical protein&lt;br&gt;Location: 5659192 - 5658251" locus_tag="SD37_RS24685" class="clusterblast-orf" id="dummy-1_h1_7_21"  />
</g>
<g id="a1_0022"  >
<polygon points="491,90 528,90 533,85 528,80 491,80 491,90 " style="fill:white; stroke-width:1; stroke:black; " description="&lt;b&gt;SD37_RS24680&lt;/b&gt;&lt;br&gt;hypothetical protein&lt;br&gt;Location: 5657773 - 5655488" locus_tag="SD37_RS24680" class="clusterblast-orf" id="dummy-1_h1_7_22"  />
</g>
<g id="a1_0023"  >
<polygon points="534,90 571,90 576,85 571,80 534,80 534,90 " style="fill:white; stroke-width:1; stroke:black; " description="&lt;b&gt;SD37_RS24675&lt;/b&gt;&lt;br&gt;hypothetical protein&lt;br&gt;Location: 5655450 - 5653159" locus_tag="SD37_RS24675" class="clusterblast-orf" id="dummy-1_h1_7_23"  />
</g>
<g id="a1_0024"  >
<polygon points="578,90 589,90 594,85 589,80 578,80 578,90 " style="fill:white; stroke-width:1; stroke:black; " description="&lt;b&gt;SD37_RS24670&lt;/b&gt;&lt;br&gt;peptidylprolyl isomerase&lt;br&gt;Location: 5653085 - 5652198" locus_tag="SD37_RS24670" class="clusterblast-orf" id="dummy-1_h1_7_24"  />
</g>
<g id="a1_0025"  >
<polygon points="594,85 599,80 602,80 602,90 599,90 594,85 " style="fill:white; stroke-width:1; stroke:black; " description="&lt;b&gt;SD37_RS24665&lt;/b&gt;&lt;br&gt;hypothetical protein&lt;br&gt;Location: 5652163 - 5651771" locus_tag="SD37_RS24665" class="clusterblast-orf" id="dummy-1_h1_7_25"  />
</g>
<g id="a1_0026"  >
<polygon points="606,90 614,90 619,85 614,80 606,80 606,90 " style="fill:white; stroke-width:1; stroke:black; " description="&lt;b&gt;SD37_RS24660&lt;/b&gt;&lt;br&gt;hypothetical protein&lt;br&gt;Location: 5651531 - 5650833" locus_tag="SD37_RS24660" class="clusterblast-orf" id="dummy-1_h1_7_26"  />
</g>
<g id="a1_0027"  >
<polygon points="619,85 623,80 623,90 619,85 " style="fill:white; stroke-width:1; stroke:black; " description="&lt;b&gt;SD37_RS42135&lt;/b&gt;&lt;br&gt;hypothetical protein&lt;br&gt;Location: 5650826 - 5650611" locus_tag="SD37_RS42135" class="clusterblast-orf" id="dummy-1_h1_7_27"  />
</g>
<g id="a1_0028"  >
<polygon points="624,85 629,80 632,80 632,90 629,90 624,85 " style="fill:white; stroke-width:1; stroke:black; " description="&lt;b&gt;SD37_RS24655&lt;/b&gt;&lt;br&gt;MarR family transcriptional regulator&lt;br&gt;Location: 5650534 - 5650115" locus_tag="SD37_RS24655" class="clusterblast-orf" id="dummy-1_h1_7_28"  />
</g>
<g id="a1_0029"  >
<polygon points="633,90 638,90 643,85 638,80 633,80 633,90 " style="fill:white; stroke-width:1; stroke:black; " description="&lt;b&gt;SD37_RS24650&lt;/b&gt;&lt;br&gt;hypothetical protein&lt;br&gt;Location: 5650058 - 5649534" locus_tag="SD37_RS24650" class="clusterblast-orf" id="dummy-1_h1_7_29"  />
</g>
<g id="a1_0030"  >
<polygon points="643,90 650,90 655,85 650,80 643,80 643,90 " style="fill:white; stroke-width:1; stroke:black; " description="&lt;b&gt;SD37_RS24645&lt;/b&gt;&lt;br&gt;DUF1211 domain-containing protein&lt;br&gt;Location: 5649512 - 5648871" locus_tag="SD37_RS24645" class="clusterblast-orf" id="dummy-1_h1_7_30"  />
</g>
<g id="a1_0031"  >
<polygon points="656,85 661,80 671,80 671,90 661,90 656,85 " style="fill:white; stroke-width:1; stroke:black; " description="&lt;b&gt;SD37_RS24640&lt;/b&gt;&lt;br&gt;NAD(P)-dependent oxidoreductase&lt;br&gt;Location: 5648837 - 5648013" locus_tag="SD37_RS24640" class="clusterblast-orf" id="dummy-1_h1_7_31"  />
</g>
<g id="a1_0032"  >
<polygon points="671,85 676,80 686,80 686,90 676,90 671,85 " style="fill:white; stroke-width:1; stroke:black; " description="&lt;b&gt;SD37_RS24635&lt;/b&gt;&lt;br&gt;IclR family transcriptional regulator&lt;br&gt;Location: 5647976 - 5647164" locus_tag="SD37_RS24635" class="clusterblast-orf" id="dummy-1_h1_7_32"  />
</g>
<g id="a1_0033"  >
<polygon points="689,90 712,90 717,85 712,80 689,80 689,90 " style="fill:white; stroke-width:1; stroke:black; " description="&lt;b&gt;SD37_RS24630&lt;/b&gt;&lt;br&gt;Na+:solute symporter&lt;br&gt;Location: 5647009 - 5645498" locus_tag="SD37_RS24630" class="clusterblast-orf" id="dummy-1_h1_7_33"  />
</g>
<g id="a1_0034"  >
<polygon points="718,90 730,90 735,85 730,80 718,80 718,90 " style="fill:white; stroke-width:1; stroke:black; " description="&lt;b&gt;SD37_RS24625&lt;/b&gt;&lt;br&gt;5-dehydro-4-deoxyglucarate dehydratase&lt;br&gt;Location: 5645450 - 5644506" locus_tag="SD37_RS24625" class="clusterblast-orf" id="dummy-1_h1_7_34"  />
</g>
<g id="a1_0035"  >
<polygon points="735,90 753,90 758,85 753,80 735,80 735,90 " style="fill:white; stroke-width:1; stroke:black; " description="&lt;b&gt;SD37_RS24620&lt;/b&gt;&lt;br&gt;glucarate dehydratase&lt;br&gt;Location: 5644503 - 5643247" locus_tag="SD37_RS24620" class="clusterblast-orf" id="dummy-1_h1_7_35"  />
</g>
<g id="a1_0036"  >
<polygon points="758,90 775,90 780,85 775,80 758,80 758,90 " style="fill:white; stroke-width:1; stroke:black; " description="&lt;b&gt;SD37_RS24615&lt;/b&gt;&lt;br&gt;alanine-rich protein&lt;br&gt;Location: 5643242 - 5642094" locus_tag="SD37_RS24615" class="clusterblast-orf" id="dummy-1_h1_7_36"  />
</g>
</svg>
