<svg xmlns="http://www.w3.org/2000/svg" xmlns:xlink="http://www.w3.org/1999/xlink" version="1.1" x="0" y="0" height="230" width="800" viewBox="0 0 800 230" preserveAspectRatio="none"  >
<g label="Query sequence" class="clusterblast-cluster"  >
<text x="5" y="20" class="clusterblast-acc"  >
Query sequence</text>
<line x1="10" y1="35" x2="778.0" y2="35" style="stroke-width:1; stroke:grey; "  />
<polygon points="0,35 5,30 21,30 21,40 5,40 0,35 " style="fill:white; stroke-width:1; stroke:black; " description="&lt;b&gt;ctg42_16&lt;/b&gt;&lt;br&gt;ctg42 16&lt;br&gt;Location: 19230 - 19800" locus_tag="ctg42_16" class="clusterblast-orf" id="dummy-1_q0_0_all"  />
<polygon points="25,40 56,40 61,35 56,30 25,30 25,40 " style="fill:white; stroke-width:1; stroke:black; " description="&lt;b&gt;ctg42_17&lt;/b&gt;&lt;br&gt;ctg42 17&lt;br&gt;Location: 19883 - 20843" locus_tag="ctg42_17" class="clusterblast-orf" id="dummy-1_q1_0_all"  />
<polygon points="66,40 125,40 130,35 125,30 66,30 66,40 " style="fill:white; stroke-width:1; stroke:black; " description="&lt;b&gt;ctg42_18&lt;/b&gt;&lt;br&gt;ctg42 18&lt;br&gt;Location: 20966 - 22664" locus_tag="ctg42_18" class="clusterblast-orf" id="dummy-1_q2_0_all"  />
<polygon points="136,35 141,30 153,30 153,40 141,40 136,35 " style="fill:white; stroke-width:1; stroke:black; " description="&lt;b&gt;ctg42_19&lt;/b&gt;&lt;br&gt;ctg42 19&lt;br&gt;Location: 22808 - 23261" locus_tag="ctg42_19" class="clusterblast-orf" id="dummy-1_q3_0_all"  />
<polygon points="155,40 165,40 170,35 165,30 155,30 155,40 " style="fill:#d81515; stroke-width:1; stroke:black; " description="&lt;b&gt;ctg42_20&lt;/b&gt;&lt;br&gt;ctg42 20&lt;br&gt;Location: 23322 - 23718" locus_tag="ctg42_20" class="clusterblast-orf" id="dummy-1_q4_0_all"  />
<polygon points="170,35 175,30 193,30 193,40 175,40 170,35 " style="fill:#77d815; stroke-width:1; stroke:black; " description="&lt;b&gt;ctg42_21&lt;/b&gt;&lt;br&gt;ctg42 21&lt;br&gt;Location: 23719 - 24319" locus_tag="ctg42_21" class="clusterblast-orf" id="dummy-1_q5_0_all"  />
<polygon points="198,35 203,30 230,30 230,40 203,40 198,35 " style="fill:white; stroke-width:1; stroke:black; " description="&lt;b&gt;ctg42_22&lt;/b&gt;&lt;br&gt;ctg42 22&lt;br&gt;Location: 24447 - 25305" locus_tag="ctg42_22" class="clusterblast-orf" id="dummy-1_q6_0_all"  />
<polygon points="236,40 269,40 274,35 269,30 236,30 236,40 " style="fill:#15d8d8; stroke-width:1; stroke:black; " description="&lt;b&gt;ctg42_23&lt;/b&gt;&lt;br&gt;ctg42 23&lt;br&gt;Location: 25451 - 26456" locus_tag="ctg42_23" class="clusterblast-orf" id="dummy-1_q7_0_all"  />
<polygon points="274,35 279,30 308,30 308,40 279,40 274,35 " style="fill:#7715d8; stroke-width:1; stroke:black; " description="&lt;b&gt;ctg42_24&lt;/b&gt;&lt;br&gt;ctg42 24&lt;br&gt;Location: 26452 - 27355" locus_tag="ctg42_24" class="clusterblast-orf" id="dummy-1_q8_0_all"  />
<polygon points="314,40 366,40 371,35 366,30 314,30 314,40 " style="fill:#d87715; stroke-width:1; stroke:black; " description="&lt;b&gt;ctg42_25&lt;/b&gt;&lt;br&gt;ctg42 25&lt;br&gt;Location: 27523 - 29005" locus_tag="ctg42_25" class="clusterblast-orf" id="dummy-1_q9_0_all"  />
<polygon points="370,40 402,40 407,35 402,30 370,30 370,40 " style="fill:#15d815; stroke-width:1; stroke:black; " description="&lt;b&gt;ctg42_26&lt;/b&gt;&lt;br&gt;ctg42 26&lt;br&gt;Location: 29001 - 29964" locus_tag="ctg42_26" class="clusterblast-orf" id="dummy-1_q10_0_all"  />
<polygon points="407,40 415,40 420,35 415,30 407,30 407,40 " style="fill:#1577d8; stroke-width:1; stroke:black; " description="&lt;b&gt;ctg42_27&lt;/b&gt;&lt;br&gt;ctg42 27&lt;br&gt;Location: 29963 - 30299" locus_tag="ctg42_27" class="clusterblast-orf" id="dummy-1_q11_0_all"  />
<polygon points="419,40 427,40 432,35 427,30 419,30 419,40 " style="fill:#d815d8; stroke-width:1; stroke:black; " description="&lt;b&gt;ctg42_28&lt;/b&gt;&lt;br&gt;ctg42 28&lt;br&gt;Location: 30295 - 30619" locus_tag="ctg42_28" class="clusterblast-orf" id="dummy-1_q12_0_all"  />
<polygon points="432,40 454,40 459,35 454,30 432,30 432,40 " style="fill:#d8d815; stroke-width:1; stroke:black; " description="&lt;b&gt;ctg42_29&lt;/b&gt;&lt;br&gt;ctg42 29&lt;br&gt;Location: 30615 - 31350" locus_tag="ctg42_29" class="clusterblast-orf" id="dummy-1_q13_0_all"  />
<polygon points="459,40 511,40 516,35 511,30 459,30 459,40 " style="fill:#15d877; stroke-width:1; stroke:black; " description="&lt;b&gt;ctg42_30&lt;/b&gt;&lt;br&gt;ctg42 30&lt;br&gt;Location: 31346 - 32828" locus_tag="ctg42_30" class="clusterblast-orf" id="dummy-1_q14_0_all"  />
<polygon points="516,40 548,40 553,35 548,30 516,30 516,40 " style="fill:#1515d8; stroke-width:1; stroke:black; " description="&lt;b&gt;ctg42_31&lt;/b&gt;&lt;br&gt;ctg42 31&lt;br&gt;Location: 32830 - 33823" locus_tag="ctg42_31" class="clusterblast-orf" id="dummy-1_q15_0_all"  />
<polygon points="559,40 574,40 579,35 574,30 559,30 559,40 " style="fill:white; stroke-width:1; stroke:black; " description="&lt;b&gt;ctg42_32&lt;/b&gt;&lt;br&gt;ctg42 32&lt;br&gt;Location: 33984 - 34506" locus_tag="ctg42_32" class="clusterblast-orf" id="dummy-1_q16_0_all"  />
<polygon points="580,40 619,40 624,35 619,30 580,30 580,40 " style="fill:white; stroke-width:1; stroke:black; " description="&lt;b&gt;ctg42_33&lt;/b&gt;&lt;br&gt;ctg42 33&lt;br&gt;Location: 34516 - 35680" locus_tag="ctg42_33" class="clusterblast-orf" id="dummy-1_q17_0_all"  />
<polygon points="634,40 634,40 639,35 634,30 634,30 634,40 " style="fill:white; stroke-width:1; stroke:black; " description="&lt;b&gt;ctg42_34&lt;/b&gt;&lt;br&gt;ctg42 34&lt;br&gt;Location: 35947 - 36088" locus_tag="ctg42_34" class="clusterblast-orf" id="dummy-1_q18_0_all"  />
<polygon points="646,35 651,30 676,30 676,40 651,40 646,35 " style="fill:white; stroke-width:1; stroke:black; " description="&lt;b&gt;ctg42_35&lt;/b&gt;&lt;br&gt;ctg42 35&lt;br&gt;Location: 36266 - 37067" locus_tag="ctg42_35" class="clusterblast-orf" id="dummy-1_q19_0_all"  />
<polygon points="681,35 686,30 699,30 699,40 686,40 681,35 " style="fill:white; stroke-width:1; stroke:black; " description="&lt;b&gt;ctg42_36&lt;/b&gt;&lt;br&gt;ctg42 36&lt;br&gt;Location: 37192 - 37672" locus_tag="ctg42_36" class="clusterblast-orf" id="dummy-1_q20_0_all"  />
<polygon points="699,35 704,30 718,30 718,40 704,40 699,35 " style="fill:#d81577; stroke-width:1; stroke:black; " description="&lt;b&gt;ctg42_37&lt;/b&gt;&lt;br&gt;ctg42 37&lt;br&gt;Location: 37672 - 38164" locus_tag="ctg42_37" class="clusterblast-orf" id="dummy-1_q21_0_all"  />
<polygon points="718,35 723,30 735,30 735,40 723,40 718,35 " style="fill:white; stroke-width:1; stroke:black; " description="&lt;b&gt;ctg42_38&lt;/b&gt;&lt;br&gt;ctg42 38&lt;br&gt;Location: 38160 - 38613" locus_tag="ctg42_38" class="clusterblast-orf" id="dummy-1_q22_0_all"  />
<polygon points="733,35 738,30 752,30 752,40 738,40 733,35 " style="fill:white; stroke-width:1; stroke:black; " description="&lt;b&gt;ctg42_39&lt;/b&gt;&lt;br&gt;ctg42 39&lt;br&gt;Location: 38555 - 39062" locus_tag="ctg42_39" class="clusterblast-orf" id="dummy-1_q23_0_all"  />
<polygon points="761,35 766,30 769,30 769,40 766,40 761,35 " style="fill:white; stroke-width:1; stroke:black; " description="&lt;b&gt;ctg42_40&lt;/b&gt;&lt;br&gt;ctg42 40&lt;br&gt;Location: 39297 - 39504" locus_tag="ctg42_40" class="clusterblast-orf" id="dummy-1_q24_0_all"  />
<polygon points="772,40 775,40 780,35 775,30 772,30 772,40 " style="fill:white; stroke-width:1; stroke:black; " description="&lt;b&gt;ctg42_41&lt;/b&gt;&lt;br&gt;ctg42 41&lt;br&gt;Location: 39592 - 39799" locus_tag="ctg42_41" class="clusterblast-orf" id="dummy-1_q25_0_all"  />
</g>
<g label="NZ_MIHA01000001" description="NZ_MIHA01000001_c2: Mycolicibacterium flavescens strain M6 PROKKA contig00000... (38% of genes show similarity), terpene" class="clusterblast-cluster"  >
<text x="5" y="70" class="clusterblast-acc"  >
<a xlink:href="https://antismash-db.secondarymetabolites.org/go/NZ_MIHA01000001/2" target="_blank">NZ_MIHA01000001_c2</a>: Mycolicibacterium flavescens strain M6 PROKKA contig00000... (38% of genes show similarity), terpene</text>
<line x1="10" y1="85" x2="778.0" y2="85" style="stroke-width:1; stroke:grey; "  />
</g>
<g id="a1_000"  >
<polygon points="8,85 13,80 38,80 38,90 13,90 8,85 " style="fill:white; stroke-width:1; stroke:black; " description="&lt;b&gt;BHQ18_RS01105&lt;/b&gt;&lt;br&gt;FAA hydrolase family protein&lt;br&gt;Location: 227711 - 228499" locus_tag="BHQ18_RS01105" class="clusterblast-orf" id="dummy-1_h1_4_0"  />
</g>
<g id="a1_001"  >
<polygon points="42,90 83,90 88,85 83,80 42,80 42,90 " style="fill:white; stroke-width:1; stroke:black; " description="&lt;b&gt;BHQ18_RS01110&lt;/b&gt;&lt;br&gt;MFS transporter&lt;br&gt;Location: 228612 - 229814" locus_tag="BHQ18_RS01110" class="clusterblast-orf" id="dummy-1_h1_4_1"  />
</g>
<g id="a1_002"  >
<polygon points="89,85 94,80 128,80 128,90 94,90 89,85 " style="fill:white; stroke-width:1; stroke:black; " description="&lt;b&gt;BHQ18_RS01115&lt;/b&gt;&lt;br&gt;3-isopropylmalate dehydrogenase&lt;br&gt;Location: 229848 - 230858" locus_tag="BHQ18_RS01115" class="clusterblast-orf" id="dummy-1_h1_4_2"  />
</g>
<g id="a1_003"  >
<polygon points="128,85 133,80 188,80 188,90 133,90 128,85 " style="fill:white; stroke-width:1; stroke:black; " description="&lt;b&gt;BHQ18_RS01120&lt;/b&gt;&lt;br&gt;phosphoglycerate dehydrogenase&lt;br&gt;Location: 230855 - 232441" locus_tag="BHQ18_RS01120" class="clusterblast-orf" id="dummy-1_h1_4_3"  />
</g>
<g id="a1_004"  >
<polygon points="188,90 239,90 244,85 239,80 188,80 188,90 " style="fill:white; stroke-width:1; stroke:black; " description="&lt;b&gt;BHQ18_RS01125&lt;/b&gt;&lt;br&gt;NAD(P)/FAD-dependent oxidoreductase&lt;br&gt;Location: 232454 - 233926" locus_tag="BHQ18_RS01125" class="clusterblast-orf" id="dummy-1_h1_4_4"  />
</g>
<g id="a1_005"  >
<polygon points="256,90 294,90 299,85 294,80 256,80 256,90 " style="fill:white; stroke-width:1; stroke:black; " description="&lt;b&gt;BHQ18_RS01130&lt;/b&gt;&lt;br&gt;polyprenyl synthetase family protein&lt;br&gt;Location: 234231 - 235370" locus_tag="BHQ18_RS01130" class="clusterblast-orf" id="dummy-1_h1_4_5"  />
</g>
<g id="a1_006"  >
<polygon points="299,90 351,90 356,85 351,80 299,80 299,90 " style="fill:#d87715; stroke-width:1; stroke:black; " description="&lt;b&gt;BHQ18_RS01135&lt;/b&gt;&lt;br&gt;phytoene desaturase&lt;br&gt;Location: 235370 - 236878&lt;br&gt;&lt;br&gt;&lt;b&gt;BlastP hit with ctg42_25&lt;/b&gt;&lt;br&gt;Percentage identity: 67&lt;br&gt;Percentage coverage: 99&lt;br&gt;BLAST bit score: 649&lt;br&gt;E-value: 2.9e-184" locus_tag="BHQ18_RS01135" class="clusterblast-orf" id="dummy-1_h1_4_6"  />
</g>
<g id="a1_007"  >
<polygon points="356,90 387,90 392,85 387,80 356,80 356,90 " style="fill:#15d815; stroke-width:1; stroke:black; " description="&lt;b&gt;BHQ18_RS01140&lt;/b&gt;&lt;br&gt;phytoene/squalene synthase family protein&lt;br&gt;Location: 236875 - 237822&lt;br&gt;&lt;br&gt;&lt;b&gt;BlastP hit with ctg42_26&lt;/b&gt;&lt;br&gt;Percentage identity: 65&lt;br&gt;Percentage coverage: 95&lt;br&gt;BLAST bit score: 377&lt;br&gt;E-value: 1.4e-102" locus_tag="BHQ18_RS01140" class="clusterblast-orf" id="dummy-1_h1_4_7"  />
</g>
<g id="a1_008"  >
<polygon points="392,90 400,90 405,85 400,80 392,80 392,90 " style="fill:#1577d8; stroke-width:1; stroke:black; " description="&lt;b&gt;BHQ18_RS01145&lt;/b&gt;&lt;br&gt;lycopene cyclase domain-containing protein&lt;br&gt;Location: 237825 - 238169&lt;br&gt;&lt;br&gt;&lt;b&gt;BlastP hit with ctg42_27&lt;/b&gt;&lt;br&gt;Percentage identity: 59&lt;br&gt;Percentage coverage: 96&lt;br&gt;BLAST bit score: 127&lt;br&gt;E-value: 1.1e-27" locus_tag="BHQ18_RS01145" class="clusterblast-orf" id="dummy-1_h1_4_8"  />
</g>
<g id="a1_009"  >
<polygon points="405,90 412,90 417,85 412,80 405,80 405,90 " style="fill:#d815d8; stroke-width:1; stroke:black; " description="&lt;b&gt;BHQ18_RS01150&lt;/b&gt;&lt;br&gt;lycopene cyclase domain-containing protein&lt;br&gt;Location: 238166 - 238489&lt;br&gt;&lt;br&gt;&lt;b&gt;BlastP hit with ctg42_28&lt;/b&gt;&lt;br&gt;Percentage identity: 79&lt;br&gt;Percentage coverage: 100&lt;br&gt;BLAST bit score: 176&lt;br&gt;E-value: 1.5e-42" locus_tag="BHQ18_RS01150" class="clusterblast-orf" id="dummy-1_h1_4_9"  />
</g>
<g id="a1_0010"  >
<polygon points="417,90 439,90 444,85 439,80 417,80 417,90 " style="fill:#d8d815; stroke-width:1; stroke:black; " description="&lt;b&gt;BHQ18_RS01155&lt;/b&gt;&lt;br&gt;methyltransferase domain-containing protein&lt;br&gt;Location: 238486 - 239208&lt;br&gt;&lt;br&gt;&lt;b&gt;BlastP hit with ctg42_29&lt;/b&gt;&lt;br&gt;Percentage identity: 69&lt;br&gt;Percentage coverage: 98&lt;br&gt;BLAST bit score: 328&lt;br&gt;E-value: 7.2e-88" locus_tag="BHQ18_RS01155" class="clusterblast-orf" id="dummy-1_h1_4_10"  />
</g>
<g id="a1_0011"  >
<polygon points="444,90 497,90 502,85 497,80 444,80 444,90 " style="fill:#15d877; stroke-width:1; stroke:black; " description="&lt;b&gt;BHQ18_RS01160&lt;/b&gt;&lt;br&gt;FAD-dependent oxidoreductase&lt;br&gt;Location: 239205 - 240722&lt;br&gt;&lt;br&gt;&lt;b&gt;BlastP hit with ctg42_30&lt;/b&gt;&lt;br&gt;Percentage identity: 68&lt;br&gt;Percentage coverage: 102&lt;br&gt;BLAST bit score: 649&lt;br&gt;E-value: 3.7e-184" locus_tag="BHQ18_RS01160" class="clusterblast-orf" id="dummy-1_h1_4_11"  />
</g>
<g id="a1_0012"  >
<polygon points="502,90 535,90 540,85 535,80 502,80 502,90 " style="fill:#1515d8; stroke-width:1; stroke:black; " description="&lt;b&gt;BHQ18_RS01165&lt;/b&gt;&lt;br&gt;2Fe-2S ferredoxin&lt;br&gt;Location: 240719 - 241726&lt;br&gt;&lt;br&gt;&lt;b&gt;BlastP hit with ctg42_31&lt;/b&gt;&lt;br&gt;Percentage identity: 64&lt;br&gt;Percentage coverage: 99&lt;br&gt;BLAST bit score: 417&lt;br&gt;E-value: 1.6e-114" locus_tag="BHQ18_RS01165" class="clusterblast-orf" id="dummy-1_h1_4_12"  />
</g>
<g id="a1_0013"  >
<polygon points="541,90 544,90 549,85 544,80 541,80 541,90 " style="fill:white; stroke-width:1; stroke:black; " description="&lt;b&gt;BHQ18_RS01170&lt;/b&gt;&lt;br&gt;DUF2945 domain-containing protein&lt;br&gt;Location: 241764 - 241973" locus_tag="BHQ18_RS01170" class="clusterblast-orf" id="dummy-1_h1_4_13"  />
</g>
<g id="a1_0014"  >
<polygon points="549,90 557,90 562,85 557,80 549,80 549,90 " style="fill:white; stroke-width:1; stroke:black; " description="&lt;b&gt;BHQ18_RS01175&lt;/b&gt;&lt;br&gt;DUF3140 domain-containing protein&lt;br&gt;Location: 241981 - 242316" locus_tag="BHQ18_RS01175" class="clusterblast-orf" id="dummy-1_h1_4_14"  />
</g>
<g id="a1_0015"  >
<polygon points="560,85 565,80 582,80 582,90 565,90 560,85 " style="fill:white; stroke-width:1; stroke:black; " description="&lt;b&gt;BHQ18_RS28905&lt;/b&gt;&lt;br&gt;isopentenyl-diphosphate Delta-isomerase&lt;br&gt;Location: 242255 - 242833" locus_tag="BHQ18_RS28905" class="clusterblast-orf" id="dummy-1_h1_4_15"  />
</g>
<g id="a1_0016"  >
<polygon points="585,85 590,80 617,80 617,90 590,90 585,85 " style="fill:white; stroke-width:1; stroke:black; " description="&lt;b&gt;BHQ18_RS01180&lt;/b&gt;&lt;br&gt;transcriptional regulator&lt;br&gt;Location: 242918 - 243754" locus_tag="BHQ18_RS01180" class="clusterblast-orf" id="dummy-1_h1_4_16"  />
</g>
<g id="a1_0017"  >
<polygon points="621,90 633,90 638,85 633,80 621,80 621,90 " style="fill:#d81577; stroke-width:1; stroke:black; " description="&lt;b&gt;BHQ18_RS01185&lt;/b&gt;&lt;br&gt;hypothetical protein&lt;br&gt;Location: 243881 - 244321&lt;br&gt;&lt;br&gt;&lt;b&gt;BlastP hit with ctg42_37&lt;/b&gt;&lt;br&gt;Percentage identity: 55&lt;br&gt;Percentage coverage: 87&lt;br&gt;BLAST bit score: 156&lt;br&gt;E-value: 2.5e-36" locus_tag="BHQ18_RS01185" class="clusterblast-orf" id="dummy-1_h1_4_17"  />
</g>
<g id="a1_0018"  >
<polygon points="641,85 646,80 679,80 679,90 646,90 641,85 " style="fill:white; stroke-width:1; stroke:black; " description="&lt;b&gt;BHQ18_RS01190&lt;/b&gt;&lt;br&gt;ketol-acid reductoisomerase&lt;br&gt;Location: 244388 - 245401" locus_tag="BHQ18_RS01190" class="clusterblast-orf" id="dummy-1_h1_4_18"  />
</g>
<g id="a1_0019"  >
<polygon points="681,85 686,80 700,80 700,90 686,90 681,85 " style="fill:white; stroke-width:1; stroke:black; " description="&lt;b&gt;BHQ18_RS01195&lt;/b&gt;&lt;br&gt;acetolactate synthase small subunit&lt;br&gt;Location: 245451 - 245957" locus_tag="BHQ18_RS01195" class="clusterblast-orf" id="dummy-1_h1_4_19"  />
</g>
<g id="a1_0020"  >
<polygon points="700,85 705,80 771,80 771,90 705,90 700,85 " style="fill:white; stroke-width:1; stroke:black; " description="&lt;b&gt;BHQ18_RS01200&lt;/b&gt;&lt;br&gt;acetolactate synthase large subunit&lt;br&gt;Location: 245957 - 247816" locus_tag="BHQ18_RS01200" class="clusterblast-orf" id="dummy-1_h1_4_20"  />
</g>
</svg>
