<svg xmlns="http://www.w3.org/2000/svg" xmlns:xlink="http://www.w3.org/1999/xlink" version="1.1" x="0" y="0" height="230" width="800" viewBox="0 0 800 230" preserveAspectRatio="none"  >
<g label="Query sequence" class="clusterblast-cluster"  >
<text x="5" y="20" class="clusterblast-acc"  >
Query sequence</text>
<line x1="10" y1="35" x2="778.0" y2="35" style="stroke-width:1; stroke:grey; "  />
<polygon points="0,40 43,40 48,35 43,30 0,30 0,40 " style="fill:#d81515; stroke-width:1; stroke:black; " description="&lt;b&gt;ctg1_19&lt;/b&gt;&lt;br&gt;ctg1 19&lt;br&gt;Location: 23995 - 25576" locus_tag="ctg1_19" class="clusterblast-orf" id="dummy-1_q0_0_all"  />
<polygon points="49,40 72,40 77,35 72,30 49,30 49,40 " style="fill:#4dd815; stroke-width:1; stroke:black; " description="&lt;b&gt;ctg1_20&lt;/b&gt;&lt;br&gt;ctg1 20&lt;br&gt;Location: 25600 - 26527" locus_tag="ctg1_20" class="clusterblast-orf" id="dummy-1_q1_0_all"  />
<polygon points="77,40 96,40 101,35 96,30 77,30 77,40 " style="fill:#15bcd8; stroke-width:1; stroke:black; " description="&lt;b&gt;ctg1_21&lt;/b&gt;&lt;br&gt;ctg1 21&lt;br&gt;Location: 26523 - 27318" locus_tag="ctg1_21" class="clusterblast-orf" id="dummy-1_q2_0_all"  />
<polygon points="102,40 127,40 132,35 127,30 102,30 102,40 " style="fill:#8515d8; stroke-width:1; stroke:black; " description="&lt;b&gt;ctg1_22&lt;/b&gt;&lt;br&gt;ctg1 22&lt;br&gt;Location: 27333 - 28311" locus_tag="ctg1_22" class="clusterblast-orf" id="dummy-1_q3_0_all"  />
<polygon points="135,40 158,40 163,35 158,30 135,30 135,40 " style="fill:#d84d15; stroke-width:1; stroke:black; " description="&lt;b&gt;ctg1_23&lt;/b&gt;&lt;br&gt;ctg1 23&lt;br&gt;Location: 28407 - 29325" locus_tag="ctg1_23" class="clusterblast-orf" id="dummy-1_q4_0_all"  />
<polygon points="163,35 168,30 172,30 172,40 168,40 163,35 " style="fill:#15d815; stroke-width:1; stroke:black; " description="&lt;b&gt;ctg1_24&lt;/b&gt;&lt;br&gt;ctg1 24&lt;br&gt;Location: 29328 - 29634" locus_tag="ctg1_24" class="clusterblast-orf" id="dummy-1_q5_0_all"  />
<polygon points="174,40 199,40 204,35 199,30 174,30 174,40 " style="fill:#1585d8; stroke-width:1; stroke:black; " description="&lt;b&gt;ctg1_25&lt;/b&gt;&lt;br&gt;ctg1 25&lt;br&gt;Location: 29712 - 30684" locus_tag="ctg1_25" class="clusterblast-orf" id="dummy-1_q6_0_all"  />
<polygon points="215,35 220,30 246,30 246,40 220,40 215,35 " style="fill:#bc15d8; stroke-width:1; stroke:black; " description="&lt;b&gt;ctg1_26&lt;/b&gt;&lt;br&gt;ctg1 26&lt;br&gt;Location: 31053 - 32058" locus_tag="ctg1_26" class="clusterblast-orf" id="dummy-1_q7_0_all"  />
<polygon points="246,35 251,30 291,30 291,40 251,40 246,35 " style="fill:#d88515; stroke-width:1; stroke:black; " description="&lt;b&gt;ctg1_27&lt;/b&gt;&lt;br&gt;ctg1 27&lt;br&gt;Location: 32061 - 33534" locus_tag="ctg1_27" class="clusterblast-orf" id="dummy-1_q8_0_all"  />
<polygon points="291,35 296,30 349,30 349,40 296,40 291,35 " style="fill:#15d84d; stroke-width:1; stroke:black; " description="&lt;b&gt;ctg1_28&lt;/b&gt;&lt;br&gt;ctg1 28&lt;br&gt;Location: 33530 - 35432" locus_tag="ctg1_28" class="clusterblast-orf" id="dummy-1_q9_0_all"  />
<polygon points="349,35 354,30 380,30 380,40 354,40 349,35 " style="fill:#154dd8; stroke-width:1; stroke:black; " description="&lt;b&gt;ctg1_29&lt;/b&gt;&lt;br&gt;ctg1 29&lt;br&gt;Location: 35432 - 36443" locus_tag="ctg1_29" class="clusterblast-orf" id="dummy-1_q10_0_all"  />
<polygon points="380,35 385,30 421,30 421,40 385,40 380,35 " style="fill:#d815bc; stroke-width:1; stroke:black; " description="&lt;b&gt;ctg1_30&lt;/b&gt;&lt;br&gt;ctg1 30&lt;br&gt;Location: 36439 - 37795" locus_tag="ctg1_30" class="clusterblast-orf" id="dummy-1_q11_0_all"  />
<polygon points="421,35 426,30 448,30 448,40 426,40 421,35 " style="fill:#d8bc15; stroke-width:1; stroke:black; " description="&lt;b&gt;ctg1_31&lt;/b&gt;&lt;br&gt;ctg1 31&lt;br&gt;Location: 37791 - 38652" locus_tag="ctg1_31" class="clusterblast-orf" id="dummy-1_q12_0_all"  />
<polygon points="448,35 453,30 475,30 475,40 453,40 448,35 " style="fill:#d8bc15; stroke-width:1; stroke:black; " description="&lt;b&gt;ctg1_32&lt;/b&gt;&lt;br&gt;ctg1 32&lt;br&gt;Location: 38648 - 39551" locus_tag="ctg1_32" class="clusterblast-orf" id="dummy-1_q13_0_all"  />
<polygon points="479,40 511,40 516,35 511,30 479,30 479,40 " style="fill:#15d885; stroke-width:1; stroke:black; " description="&lt;b&gt;ctg1_33&lt;/b&gt;&lt;br&gt;ctg1 33&lt;br&gt;Location: 39687 - 40905" locus_tag="ctg1_33" class="clusterblast-orf" id="dummy-1_q14_0_all"  />
<polygon points="517,35 522,30 577,30 577,40 522,40 517,35 " style="fill:#1515d8; stroke-width:1; stroke:black; " description="&lt;b&gt;ctg1_34&lt;/b&gt;&lt;br&gt;ctg1 34&lt;br&gt;Location: 40911 - 42870" locus_tag="ctg1_34" class="clusterblast-orf" id="dummy-1_q15_0_all"  />
<polygon points="580,35 585,30 601,30 601,40 585,40 580,35 " style="fill:#d81585; stroke-width:1; stroke:black; " description="&lt;b&gt;ctg1_35&lt;/b&gt;&lt;br&gt;ctg1 35&lt;br&gt;Location: 42978 - 43665" locus_tag="ctg1_35" class="clusterblast-orf" id="dummy-1_q16_0_all"  />
<polygon points="604,35 609,30 634,30 634,40 609,40 604,35 " style="fill:#bcd815; stroke-width:1; stroke:black; " description="&lt;b&gt;ctg1_36&lt;/b&gt;&lt;br&gt;ctg1 36&lt;br&gt;Location: 43777 - 44755" locus_tag="ctg1_36" class="clusterblast-orf" id="dummy-1_q17_0_all"  />
<polygon points="635,35 640,30 659,30 659,40 640,40 635,35 " style="fill:#15d8bc; stroke-width:1; stroke:black; " description="&lt;b&gt;ctg1_37&lt;/b&gt;&lt;br&gt;ctg1 37&lt;br&gt;Location: 44797 - 45559" locus_tag="ctg1_37" class="clusterblast-orf" id="dummy-1_q18_0_all"  />
<polygon points="659,35 664,30 677,30 677,40 664,40 659,35 " style="fill:#4d15d8; stroke-width:1; stroke:black; " description="&lt;b&gt;ctg1_38&lt;/b&gt;&lt;br&gt;ctg1 38&lt;br&gt;Location: 45571 - 46159" locus_tag="ctg1_38" class="clusterblast-orf" id="dummy-1_q19_0_all"  />
<polygon points="678,35 683,30 745,30 745,40 683,40 678,35 " style="fill:#d8154d; stroke-width:1; stroke:black; " description="&lt;b&gt;ctg1_39&lt;/b&gt;&lt;br&gt;ctg1 39&lt;br&gt;Location: 46189 - 48394" locus_tag="ctg1_39" class="clusterblast-orf" id="dummy-1_q20_0_all"  />
<polygon points="750,35 755,30 780,30 780,40 755,40 750,35 " style="fill:#85d815; stroke-width:1; stroke:black; " description="&lt;b&gt;ctg1_40&lt;/b&gt;&lt;br&gt;ctg1 40&lt;br&gt;Location: 48545 - 49523" locus_tag="ctg1_40" class="clusterblast-orf" id="dummy-1_q21_0_all"  />
</g>
<g label="NZ_JAFB01000003" description="NZ_JAFB01000003_c1: Amycolatopsis taiwanensis DSM 45107 A3CUDRAFT scaffold 1.... (81% of genes show similarity), terpene" class="clusterblast-cluster"  >
<text x="5" y="70" class="clusterblast-acc"  >
<a xlink:href="https://antismash-db.secondarymetabolites.org/go/NZ_JAFB01000003/1" target="_blank">NZ_JAFB01000003_c1</a>: Amycolatopsis taiwanensis DSM 45107 A3CUDRAFT scaffold 1.... (81% of genes show similarity), terpene</text>
<line x1="10" y1="85" x2="778.0" y2="85" style="stroke-width:1; stroke:grey; "  />
</g>
<g id="a1_000"  >
<polygon points="0,90 23,90 28,85 23,80 0,80 0,90 " style="fill:#4dd815; stroke-width:1; stroke:black; " description="&lt;b&gt;A3CU_RS0100920&lt;/b&gt;&lt;br&gt;ABC transporter ATP-binding protein&lt;br&gt;Location: 199200 - 200126&lt;br&gt;&lt;br&gt;&lt;b&gt;BlastP hit with ctg1_20&lt;/b&gt;&lt;br&gt;Percentage identity: 88&lt;br&gt;Percentage coverage: 100&lt;br&gt;BLAST bit score: 542&lt;br&gt;E-value: 4e-152" locus_tag="A3CU_RS0100920" class="clusterblast-orf" id="dummy-1_h1_3_0"  />
</g>
<g id="a1_001"  >
<polygon points="31,90 48,90 53,85 48,80 31,80 31,90 " style="fill:#15bcd8; stroke-width:1; stroke:black; " description="&lt;b&gt;A3CU_RS0100925&lt;/b&gt;&lt;br&gt;multidrug ABC transporter permease&lt;br&gt;Location: 200204 - 200929&lt;br&gt;&lt;br&gt;&lt;b&gt;BlastP hit with ctg1_21&lt;/b&gt;&lt;br&gt;Percentage identity: 64&lt;br&gt;Percentage coverage: 91&lt;br&gt;BLAST bit score: 267&lt;br&gt;E-value: 1.6e-69" locus_tag="A3CU_RS0100925" class="clusterblast-orf" id="dummy-1_h1_3_1"  />
</g>
<g id="a1_002"  >
<polygon points="58,90 81,90 86,85 81,80 58,80 58,90 " style="fill:#8515d8; stroke-width:1; stroke:black; " description="&lt;b&gt;A3CU_RS0100930&lt;/b&gt;&lt;br&gt;heme A synthase&lt;br&gt;Location: 201083 - 202000&lt;br&gt;&lt;br&gt;&lt;b&gt;BlastP hit with ctg1_22&lt;/b&gt;&lt;br&gt;Percentage identity: 70&lt;br&gt;Percentage coverage: 92&lt;br&gt;BLAST bit score: 433&lt;br&gt;E-value: 2.8e-119" locus_tag="A3CU_RS0100930" class="clusterblast-orf" id="dummy-1_h1_3_2"  />
</g>
<g id="a1_003"  >
<polygon points="87,90 96,90 101,85 96,80 87,80 87,90 " style="fill:white; stroke-width:1; stroke:black; " description="&lt;b&gt;A3CU_RS0100935&lt;/b&gt;&lt;br&gt;hypothetical protein&lt;br&gt;Location: 202055 - 202489" locus_tag="A3CU_RS0100935" class="clusterblast-orf" id="dummy-1_h1_3_3"  />
</g>
<g id="a1_004"  >
<polygon points="105,90 109,90 114,85 109,80 105,80 105,90 " style="fill:white; stroke-width:1; stroke:black; " description="&lt;b&gt;A3CU_RS49585&lt;/b&gt;&lt;br&gt;DUF86 domain-containing protein&lt;br&gt;Location: 202641 - 202937" locus_tag="A3CU_RS49585" class="clusterblast-orf" id="dummy-1_h1_3_4"  />
</g>
<g id="a1_005"  >
<polygon points="115,85 120,80 124,80 124,90 120,90 115,85 " style="fill:#15d815; stroke-width:1; stroke:black; " description="&lt;b&gt;A3CU_RS0100945&lt;/b&gt;&lt;br&gt;hypothetical protein&lt;br&gt;Location: 202947 - 203264&lt;br&gt;&lt;br&gt;&lt;b&gt;BlastP hit with ctg1_24&lt;/b&gt;&lt;br&gt;Percentage identity: 65&lt;br&gt;Percentage coverage: 99&lt;br&gt;BLAST bit score: 124&lt;br&gt;E-value: 8.6e-27" locus_tag="A3CU_RS0100945" class="clusterblast-orf" id="dummy-1_h1_3_5"  />
</g>
<g id="a1_006"  >
<polygon points="130,90 154,90 159,85 154,80 130,80 130,90 " style="fill:#1585d8; stroke-width:1; stroke:black; " description="&lt;b&gt;A3CU_RS0100950&lt;/b&gt;&lt;br&gt;quinone oxidoreductase&lt;br&gt;Location: 203436 - 204407&lt;br&gt;&lt;br&gt;&lt;b&gt;BlastP hit with ctg1_25&lt;/b&gt;&lt;br&gt;Percentage identity: 79&lt;br&gt;Percentage coverage: 100&lt;br&gt;BLAST bit score: 498&lt;br&gt;E-value: 4.1e-139" locus_tag="A3CU_RS0100950" class="clusterblast-orf" id="dummy-1_h1_3_6"  />
</g>
<g id="a1_007"  >
<polygon points="162,90 199,90 204,85 199,80 162,80 162,90 " style="fill:white; stroke-width:1; stroke:black; " description="&lt;b&gt;A3CU_RS0100955&lt;/b&gt;&lt;br&gt;hypothetical protein&lt;br&gt;Location: 204493 - 205875" locus_tag="A3CU_RS0100955" class="clusterblast-orf" id="dummy-1_h1_3_7"  />
</g>
<g id="a1_008"  >
<polygon points="207,85 212,80 238,80 238,90 212,90 207,85 " style="fill:#bc15d8; stroke-width:1; stroke:black; " description="&lt;b&gt;A3CU_RS0100960&lt;/b&gt;&lt;br&gt;hopanoid biosynthesis associated radical SAM protein HpnH&lt;br&gt;Location: 205981 - 206985&lt;br&gt;&lt;br&gt;&lt;b&gt;BlastP hit with ctg1_26&lt;/b&gt;&lt;br&gt;Percentage identity: 94&lt;br&gt;Percentage coverage: 99&lt;br&gt;BLAST bit score: 655&lt;br&gt;E-value: 2.7e-186" locus_tag="A3CU_RS0100960" class="clusterblast-orf" id="dummy-1_h1_3_8"  />
</g>
<g id="a1_009"  >
<polygon points="238,85 243,80 283,80 283,90 243,90 238,85 " style="fill:#d88515; stroke-width:1; stroke:black; " description="&lt;b&gt;A3CU_RS0100965&lt;/b&gt;&lt;br&gt;4-hydroxy-3-methylbut-2-enyl diphosphate reductase&lt;br&gt;Location: 206988 - 208457&lt;br&gt;&lt;br&gt;&lt;b&gt;BlastP hit with ctg1_27&lt;/b&gt;&lt;br&gt;Percentage identity: 77&lt;br&gt;Percentage coverage: 100&lt;br&gt;BLAST bit score: 708&lt;br&gt;E-value: 6.7e-202" locus_tag="A3CU_RS0100965" class="clusterblast-orf" id="dummy-1_h1_3_9"  />
</g>
<g id="a1_0010"  >
<polygon points="284,85 289,80 343,80 343,90 289,90 284,85 " style="fill:#15d84d; stroke-width:1; stroke:black; " description="&lt;b&gt;A3CU_RS42980&lt;/b&gt;&lt;br&gt;squalene--hopene cyclase&lt;br&gt;Location: 208506 - 210428&lt;br&gt;&lt;br&gt;&lt;b&gt;BlastP hit with ctg1_28&lt;/b&gt;&lt;br&gt;Percentage identity: 78&lt;br&gt;Percentage coverage: 97&lt;br&gt;BLAST bit score: 990&lt;br&gt;E-value: 1.1e-286" locus_tag="A3CU_RS42980" class="clusterblast-orf" id="dummy-1_h1_3_10"  />
</g>
<g id="a1_0011"  >
<polygon points="348,85 353,80 379,80 379,90 353,90 348,85 " style="fill:#154dd8; stroke-width:1; stroke:black; " description="&lt;b&gt;A3CU_RS0100975&lt;/b&gt;&lt;br&gt;polyprenyl synthetase family protein&lt;br&gt;Location: 210577 - 211590&lt;br&gt;&lt;br&gt;&lt;b&gt;BlastP hit with ctg1_29&lt;/b&gt;&lt;br&gt;Percentage identity: 83&lt;br&gt;Percentage coverage: 100&lt;br&gt;BLAST bit score: 534&lt;br&gt;E-value: 9.1e-150" locus_tag="A3CU_RS0100975" class="clusterblast-orf" id="dummy-1_h1_3_11"  />
</g>
<g id="a1_0012"  >
<polygon points="381,85 386,80 423,80 423,90 386,90 381,85 " style="fill:#d815bc; stroke-width:1; stroke:black; " description="&lt;b&gt;A3CU_RS0100980&lt;/b&gt;&lt;br&gt;FAD-dependent oxidoreductase&lt;br&gt;Location: 211658 - 213052&lt;br&gt;&lt;br&gt;&lt;b&gt;BlastP hit with ctg1_30&lt;/b&gt;&lt;br&gt;Percentage identity: 70&lt;br&gt;Percentage coverage: 97&lt;br&gt;BLAST bit score: 561&lt;br&gt;E-value: 9.4e-158" locus_tag="A3CU_RS0100980" class="clusterblast-orf" id="dummy-1_h1_3_12"  />
</g>
<g id="a1_0013"  >
<polygon points="423,85 428,80 450,80 450,90 428,90 423,85 " style="fill:#d8bc15; stroke-width:1; stroke:black; " description="&lt;b&gt;A3CU_RS0100985&lt;/b&gt;&lt;br&gt;squalene synthase HpnD&lt;br&gt;Location: 213049 - 213915&lt;br&gt;&lt;br&gt;&lt;b&gt;BlastP hit with ctg1_31&lt;/b&gt;&lt;br&gt;Percentage identity: 79&lt;br&gt;Percentage coverage: 98&lt;br&gt;BLAST bit score: 455&lt;br&gt;E-value: 4.6e-126&lt;br&gt;&lt;br&gt;&lt;b&gt;BlastP hit with ctg1_32&lt;/b&gt;&lt;br&gt;Percentage identity: 34&lt;br&gt;Percentage coverage: 78&lt;br&gt;BLAST bit score: 89&lt;br&gt;E-value: 6.9e-16" locus_tag="A3CU_RS0100985" class="clusterblast-orf" id="dummy-1_h1_3_13"  />
</g>
<g id="a1_0014"  >
<polygon points="450,85 455,80 475,80 475,90 455,90 450,85 " style="fill:#d8bc15; stroke-width:1; stroke:black; " description="&lt;b&gt;A3CU_RS0100990&lt;/b&gt;&lt;br&gt;hypothetical protein&lt;br&gt;Location: 213912 - 214754&lt;br&gt;&lt;br&gt;&lt;b&gt;BlastP hit with ctg1_31&lt;/b&gt;&lt;br&gt;Percentage identity: 34&lt;br&gt;Percentage coverage: 82&lt;br&gt;BLAST bit score: 100&lt;br&gt;E-value: 3.7e-19&lt;br&gt;&lt;br&gt;&lt;b&gt;BlastP hit with ctg1_32&lt;/b&gt;&lt;br&gt;Percentage identity: 67&lt;br&gt;Percentage coverage: 95&lt;br&gt;BLAST bit score: 351&lt;br&gt;E-value: 1.3e-94" locus_tag="A3CU_RS0100990" class="clusterblast-orf" id="dummy-1_h1_3_14"  />
</g>
<g id="a1_0015"  >
<polygon points="483,90 514,90 519,85 514,80 483,80 483,90 " style="fill:#15d885; stroke-width:1; stroke:black; " description="&lt;b&gt;A3CU_RS0100995&lt;/b&gt;&lt;br&gt;PucR family transcriptional regulator&lt;br&gt;Location: 215015 - 216190&lt;br&gt;&lt;br&gt;&lt;b&gt;BlastP hit with ctg1_33&lt;/b&gt;&lt;br&gt;Percentage identity: 79&lt;br&gt;Percentage coverage: 96&lt;br&gt;BLAST bit score: 616&lt;br&gt;E-value: 2.2e-174" locus_tag="A3CU_RS0100995" class="clusterblast-orf" id="dummy-1_h1_3_15"  />
</g>
<g id="a1_0016"  >
<polygon points="520,85 525,80 559,80 559,90 525,90 520,85 " style="fill:#1515d8; stroke-width:1; stroke:black; " description="&lt;b&gt;A3CU_RS0101000&lt;/b&gt;&lt;br&gt;DUF1298 domain-containing protein&lt;br&gt;Location: 216211 - 217488&lt;br&gt;&lt;br&gt;&lt;b&gt;BlastP hit with ctg1_34&lt;/b&gt;&lt;br&gt;Percentage identity: 59&lt;br&gt;Percentage coverage: 64&lt;br&gt;BLAST bit score: 487&lt;br&gt;E-value: 1.9e-135" locus_tag="A3CU_RS0101000" class="clusterblast-orf" id="dummy-1_h1_3_16"  />
</g>
<g id="a1_0017"  >
<polygon points="561,85 566,80 584,80 584,90 566,90 561,85 " style="fill:#15d8bc; stroke-width:1; stroke:black; " description="&lt;b&gt;A3CU_RS0101005&lt;/b&gt;&lt;br&gt;KR domain-containing protein&lt;br&gt;Location: 217562 - 218314&lt;br&gt;&lt;br&gt;&lt;b&gt;BlastP hit with ctg1_37&lt;/b&gt;&lt;br&gt;Percentage identity: 71&lt;br&gt;Percentage coverage: 100&lt;br&gt;BLAST bit score: 329&lt;br&gt;E-value: 2.6e-88" locus_tag="A3CU_RS0101005" class="clusterblast-orf" id="dummy-1_h1_3_17"  />
</g>
<g id="a1_0018"  >
<polygon points="584,85 589,80 602,80 602,90 589,90 584,85 " style="fill:#4d15d8; stroke-width:1; stroke:black; " description="&lt;b&gt;A3CU_RS0101010&lt;/b&gt;&lt;br&gt;peptidylprolyl isomerase&lt;br&gt;Location: 218323 - 218907&lt;br&gt;&lt;br&gt;&lt;b&gt;BlastP hit with ctg1_38&lt;/b&gt;&lt;br&gt;Percentage identity: 66&lt;br&gt;Percentage coverage: 100&lt;br&gt;BLAST bit score: 256&lt;br&gt;E-value: 2.8e-66" locus_tag="A3CU_RS0101010" class="clusterblast-orf" id="dummy-1_h1_3_18"  />
</g>
<g id="a1_0019"  >
<polygon points="603,85 608,80 671,80 671,90 608,90 603,85 " style="fill:#d8154d; stroke-width:1; stroke:black; " description="&lt;b&gt;A3CU_RS0101015&lt;/b&gt;&lt;br&gt;helicase&lt;br&gt;Location: 218940 - 221162&lt;br&gt;&lt;br&gt;&lt;b&gt;BlastP hit with ctg1_39&lt;/b&gt;&lt;br&gt;Percentage identity: 71&lt;br&gt;Percentage coverage: 100&lt;br&gt;BLAST bit score: 970&lt;br&gt;E-value: 8.3e-281" locus_tag="A3CU_RS0101015" class="clusterblast-orf" id="dummy-1_h1_3_19"  />
</g>
<g id="a1_0020"  >
<polygon points="677,85 682,80 706,80 706,90 682,90 677,85 " style="fill:#85d815; stroke-width:1; stroke:black; " description="&lt;b&gt;A3CU_RS0101020&lt;/b&gt;&lt;br&gt;protoheme IX farnesyltransferase&lt;br&gt;Location: 221347 - 222309&lt;br&gt;&lt;br&gt;&lt;b&gt;BlastP hit with ctg1_40&lt;/b&gt;&lt;br&gt;Percentage identity: 84&lt;br&gt;Percentage coverage: 100&lt;br&gt;BLAST bit score: 530&lt;br&gt;E-value: 1.3e-148" locus_tag="A3CU_RS0101020" class="clusterblast-orf" id="dummy-1_h1_3_20"  />
</g>
<g id="a1_0021"  >
<polygon points="715,90 774,90 779,85 774,80 715,80 715,90 " style="fill:white; stroke-width:1; stroke:black; " description="&lt;b&gt;A3CU_RS0101025&lt;/b&gt;&lt;br&gt;transketolase&lt;br&gt;Location: 222585 - 224687" locus_tag="A3CU_RS0101025" class="clusterblast-orf" id="dummy-1_h1_3_21"  />
</g>
</svg>
