<svg xmlns="http://www.w3.org/2000/svg" xmlns:xlink="http://www.w3.org/1999/xlink" version="1.1" x="0" y="0" height="230" width="800" viewBox="0 0 800 230" preserveAspectRatio="none"  >
<g label="Query sequence" class="clusterblast-cluster"  >
<text x="5" y="20" class="clusterblast-acc"  >
Query sequence</text>
<line x1="10" y1="35" x2="778.0" y2="35" style="stroke-width:1; stroke:grey; "  />
<polygon points="175,40 217,40 222,35 217,30 175,30 175,40 " style="fill:white; stroke-width:1; stroke:black; " description="&lt;b&gt;ctg29_26&lt;/b&gt;&lt;br&gt;ctg29 26&lt;br&gt;Location: 27339 - 29730" locus_tag="ctg29_26" class="clusterblast-orf" id="dummy-1_q0_0_all"  />
<polygon points="227,40 253,40 258,35 253,30 227,30 227,40 " style="fill:white; stroke-width:1; stroke:black; " description="&lt;b&gt;ctg29_27&lt;/b&gt;&lt;br&gt;ctg29 27&lt;br&gt;Location: 29970 - 31569" locus_tag="ctg29_27" class="clusterblast-orf" id="dummy-1_q1_0_all"  />
<polygon points="260,40 321,40 326,35 321,30 260,30 260,40 " style="fill:white; stroke-width:1; stroke:black; " description="&lt;b&gt;ctg29_28&lt;/b&gt;&lt;br&gt;ctg29 28&lt;br&gt;Location: 31677 - 34989" locus_tag="ctg29_28" class="clusterblast-orf" id="dummy-1_q2_0_all"  />
<polygon points="329,40 344,40 349,35 344,30 329,30 329,40 " style="fill:#d81515; stroke-width:1; stroke:black; " description="&lt;b&gt;ctg29_29&lt;/b&gt;&lt;br&gt;ctg29 29&lt;br&gt;Location: 35155 - 36199" locus_tag="ctg29_29" class="clusterblast-orf" id="dummy-1_q3_0_all"  />
<polygon points="354,40 380,40 385,35 380,30 354,30 354,40 " style="fill:#77d815; stroke-width:1; stroke:black; " description="&lt;b&gt;ctg29_30&lt;/b&gt;&lt;br&gt;ctg29 30&lt;br&gt;Location: 36429 - 38031" locus_tag="ctg29_30" class="clusterblast-orf" id="dummy-1_q4_0_all"  />
<polygon points="387,40 420,40 425,35 420,30 387,30 387,40 " style="fill:#15d8d8; stroke-width:1; stroke:black; " description="&lt;b&gt;ctg29_31&lt;/b&gt;&lt;br&gt;ctg29 31&lt;br&gt;Location: 38084 - 40034" locus_tag="ctg29_31" class="clusterblast-orf" id="dummy-1_q5_0_all"  />
<polygon points="425,35 429,30 429,40 425,35 " style="fill:white; stroke-width:1; stroke:black; " description="&lt;b&gt;ctg29_32&lt;/b&gt;&lt;br&gt;ctg29 32&lt;br&gt;Location: 40065 - 40263" locus_tag="ctg29_32" class="clusterblast-orf" id="dummy-1_q6_0_all"  />
<polygon points="430,35 435,30 448,30 448,40 435,40 430,35 " style="fill:white; stroke-width:1; stroke:black; " description="&lt;b&gt;ctg29_33&lt;/b&gt;&lt;br&gt;ctg29 33&lt;br&gt;Location: 40272 - 41196" locus_tag="ctg29_33" class="clusterblast-orf" id="dummy-1_q7_0_all"  />
<polygon points="450,40 460,40 465,35 460,30 450,30 450,40 " style="fill:#7715d8; stroke-width:1; stroke:black; " description="&lt;b&gt;ctg29_34&lt;/b&gt;&lt;br&gt;ctg29 34&lt;br&gt;Location: 41311 - 42070" locus_tag="ctg29_34" class="clusterblast-orf" id="dummy-1_q8_0_all"  />
<polygon points="478,35 483,30 502,30 502,40 483,40 478,35 " style="fill:white; stroke-width:1; stroke:black; " description="&lt;b&gt;ctg29_35&lt;/b&gt;&lt;br&gt;ctg29 35&lt;br&gt;Location: 42739 - 43954" locus_tag="ctg29_35" class="clusterblast-orf" id="dummy-1_q9_0_all"  />
<polygon points="504,40 528,40 533,35 528,30 504,30 504,40 " style="fill:white; stroke-width:1; stroke:black; " description="&lt;b&gt;ctg29_36&lt;/b&gt;&lt;br&gt;ctg29 36&lt;br&gt;Location: 44044 - 45526" locus_tag="ctg29_36" class="clusterblast-orf" id="dummy-1_q10_0_all"  />
<polygon points="535,40 545,40 550,35 545,30 535,30 535,40 " style="fill:white; stroke-width:1; stroke:black; " description="&lt;b&gt;ctg29_37&lt;/b&gt;&lt;br&gt;ctg29 37&lt;br&gt;Location: 45646 - 46405" locus_tag="ctg29_37" class="clusterblast-orf" id="dummy-1_q11_0_all"  />
<polygon points="558,40 564,40 569,35 564,30 558,30 558,40 " style="fill:white; stroke-width:1; stroke:black; " description="&lt;b&gt;ctg29_38&lt;/b&gt;&lt;br&gt;ctg29 38&lt;br&gt;Location: 46813 - 47356" locus_tag="ctg29_38" class="clusterblast-orf" id="dummy-1_q12_0_all"  />
<polygon points="569,35 573,30 573,40 569,35 " style="fill:white; stroke-width:1; stroke:black; " description="&lt;b&gt;ctg29_39&lt;/b&gt;&lt;br&gt;ctg29 39&lt;br&gt;Location: 47366 - 47570" locus_tag="ctg29_39" class="clusterblast-orf" id="dummy-1_q13_0_all"  />
<polygon points="578,40 584,40 589,35 584,30 578,30 578,40 " style="fill:white; stroke-width:1; stroke:black; " description="&lt;b&gt;ctg29_40&lt;/b&gt;&lt;br&gt;ctg29 40&lt;br&gt;Location: 47837 - 48377" locus_tag="ctg29_40" class="clusterblast-orf" id="dummy-1_q14_0_all"  />
<polygon points="592,35 597,30 604,30 604,40 597,40 592,35 " style="fill:white; stroke-width:1; stroke:black; " description="&lt;b&gt;ctg29_41&lt;/b&gt;&lt;br&gt;ctg29 41&lt;br&gt;Location: 48524 - 49151" locus_tag="ctg29_41" class="clusterblast-orf" id="dummy-1_q15_0_all"  />
</g>
<g label="NZ_FQWO01000005" description="NZ_FQWO01000005_c3: Flavobacterium granuli strain DSM 19729, whole genome sho... (6% of genes show similarity), t3pks" class="clusterblast-cluster"  >
<text x="5" y="70" class="clusterblast-acc"  >
<a xlink:href="https://antismash-db.secondarymetabolites.org/go/NZ_FQWO01000005/3" target="_blank">NZ_FQWO01000005_c3</a>: Flavobacterium granuli strain DSM 19729, whole genome sho... (6% of genes show similarity), t3pks</text>
<line x1="10" y1="85" x2="778.0" y2="85" style="stroke-width:1; stroke:grey; "  />
</g>
<g id="a1_000"  >
<polygon points="0,90 33,90 38,85 33,80 0,80 0,90 " style="fill:white; stroke-width:1; stroke:black; " description="&lt;b&gt;BUB25_RS08440&lt;/b&gt;&lt;br&gt;dehydrogenase&lt;br&gt;Location: 65869 - 67845" locus_tag="BUB25_RS08440" class="clusterblast-orf" id="dummy-1_h1_8_0"  />
</g>
<g id="a1_001"  >
<polygon points="40,85 45,80 58,80 58,90 45,90 40,85 " style="fill:white; stroke-width:1; stroke:black; " description="&lt;b&gt;BUB25_RS08445&lt;/b&gt;&lt;br&gt;LysR family transcriptional regulator&lt;br&gt;Location: 67928 - 68821" locus_tag="BUB25_RS08445" class="clusterblast-orf" id="dummy-1_h1_8_1"  />
</g>
<g id="a1_002"  >
<polygon points="59,90 66,90 71,85 66,80 59,80 59,90 " style="fill:white; stroke-width:1; stroke:black; " description="&lt;b&gt;BUB25_RS08450&lt;/b&gt;&lt;br&gt;flavodoxin family protein&lt;br&gt;Location: 68917 - 69510" locus_tag="BUB25_RS08450" class="clusterblast-orf" id="dummy-1_h1_8_2"  />
</g>
<g id="a1_003"  >
<polygon points="73,90 73,90 78,85 73,80 73,80 73,90 " style="fill:white; stroke-width:1; stroke:black; " description="&lt;b&gt;BUB25_RS08455&lt;/b&gt;&lt;br&gt;hypothetical protein&lt;br&gt;Location: 69614 - 69835" locus_tag="BUB25_RS08455" class="clusterblast-orf" id="dummy-1_h1_8_3"  />
</g>
<g id="a1_004"  >
<polygon points="78,90 108,90 113,85 108,80 78,80 78,90 " style="fill:white; stroke-width:1; stroke:black; " description="&lt;b&gt;BUB25_RS08460&lt;/b&gt;&lt;br&gt;DUF885 domain-containing protein&lt;br&gt;Location: 69884 - 71632" locus_tag="BUB25_RS08460" class="clusterblast-orf" id="dummy-1_h1_8_4"  />
</g>
<g id="a1_005"  >
<polygon points="114,85 119,80 144,80 144,90 119,90 114,85 " style="fill:white; stroke-width:1; stroke:black; " description="&lt;b&gt;BUB25_RS08465&lt;/b&gt;&lt;br&gt;hypothetical protein&lt;br&gt;Location: 71688 - 73232" locus_tag="BUB25_RS08465" class="clusterblast-orf" id="dummy-1_h1_8_5"  />
</g>
<g id="a1_006"  >
<polygon points="147,90 166,90 171,85 166,80 147,80 147,90 " style="fill:#77d815; stroke-width:1; stroke:black; " description="&lt;b&gt;BUB25_RS08470&lt;/b&gt;&lt;br&gt;2-isopropylmalate synthase&lt;br&gt;Location: 73388 - 74563&lt;br&gt;&lt;br&gt;&lt;b&gt;BlastP hit with ctg29_30&lt;/b&gt;&lt;br&gt;Percentage identity: 31&lt;br&gt;Percentage coverage: 66&lt;br&gt;BLAST bit score: 139&lt;br&gt;E-value: 7.9e-31" locus_tag="BUB25_RS08470" class="clusterblast-orf" id="dummy-1_h1_8_6"  />
</g>
<g id="a1_007"  >
<polygon points="171,90 188,90 193,85 188,80 171,80 171,90 " style="fill:#d81515; stroke-width:1; stroke:black; " description="&lt;b&gt;BUB25_RS08475&lt;/b&gt;&lt;br&gt;3-isopropylmalate dehydrogenase&lt;br&gt;Location: 74586 - 75704&lt;br&gt;&lt;br&gt;&lt;b&gt;BlastP hit with ctg29_29&lt;/b&gt;&lt;br&gt;Percentage identity: 40&lt;br&gt;Percentage coverage: 99&lt;br&gt;BLAST bit score: 201&lt;br&gt;E-value: 1.1e-49" locus_tag="BUB25_RS08475" class="clusterblast-orf" id="dummy-1_h1_8_7"  />
</g>
<g id="a1_008"  >
<polygon points="198,90 226,90 231,85 226,80 198,80 198,90 " style="fill:white; stroke-width:1; stroke:black; " description="&lt;b&gt;BUB25_RS08480&lt;/b&gt;&lt;br&gt;dihydroxy-acid dehydratase&lt;br&gt;Location: 75977 - 77650" locus_tag="BUB25_RS08480" class="clusterblast-orf" id="dummy-1_h1_8_8"  />
</g>
<g id="a1_009"  >
<polygon points="232,90 261,90 266,85 261,80 232,80 232,90 " style="fill:white; stroke-width:1; stroke:black; " description="&lt;b&gt;BUB25_RS08485&lt;/b&gt;&lt;br&gt;acetolactate synthase, large subunit, biosynthetic type&lt;br&gt;Location: 77706 - 79400" locus_tag="BUB25_RS08485" class="clusterblast-orf" id="dummy-1_h1_8_9"  />
</g>
<g id="a1_0010"  >
<polygon points="266,90 271,90 276,85 271,80 266,80 266,90 " style="fill:white; stroke-width:1; stroke:black; " description="&lt;b&gt;BUB25_RS08490&lt;/b&gt;&lt;br&gt;acetolactate synthase small subunit&lt;br&gt;Location: 79405 - 79929" locus_tag="BUB25_RS08490" class="clusterblast-orf" id="dummy-1_h1_8_10"  />
</g>
<g id="a1_0011"  >
<polygon points="276,90 300,90 305,85 300,80 276,80 276,90 " style="fill:white; stroke-width:1; stroke:black; " description="&lt;b&gt;BUB25_RS08495&lt;/b&gt;&lt;br&gt;ketol-acid reductoisomerase&lt;br&gt;Location: 79940 - 81406" locus_tag="BUB25_RS08495" class="clusterblast-orf" id="dummy-1_h1_8_11"  />
</g>
<g id="a1_0012"  >
<polygon points="315,90 348,90 353,85 348,80 315,80 315,90 " style="fill:white; stroke-width:1; stroke:black; " description="&lt;b&gt;BUB25_RS08500&lt;/b&gt;&lt;br&gt;acetate--CoA ligase&lt;br&gt;Location: 81908 - 83815" locus_tag="BUB25_RS08500" class="clusterblast-orf" id="dummy-1_h1_8_12"  />
</g>
<g id="a1_0013"  >
<polygon points="355,90 372,90 377,85 372,80 355,80 355,90 " style="fill:white; stroke-width:1; stroke:black; " description="&lt;b&gt;BUB25_RS08505&lt;/b&gt;&lt;br&gt;NAD(P)/FAD-dependent oxidoreductase&lt;br&gt;Location: 83919 - 85043" locus_tag="BUB25_RS08505" class="clusterblast-orf" id="dummy-1_h1_8_13"  />
</g>
<g id="a1_0014"  >
<polygon points="377,90 386,90 391,85 386,80 377,80 377,90 " style="fill:white; stroke-width:1; stroke:black; " description="&lt;b&gt;BUB25_RS08510&lt;/b&gt;&lt;br&gt;methyltransferase domain-containing protein&lt;br&gt;Location: 85055 - 85768" locus_tag="BUB25_RS08510" class="clusterblast-orf" id="dummy-1_h1_8_14"  />
</g>
<g id="a1_0015"  >
<polygon points="391,90 407,90 412,85 407,80 391,80 391,90 " style="fill:white; stroke-width:1; stroke:black; " description="&lt;b&gt;BUB25_RS08515&lt;/b&gt;&lt;br&gt;type III polyketide synthase&lt;br&gt;Location: 85765 - 86817" locus_tag="BUB25_RS08515" class="clusterblast-orf" id="dummy-1_h1_8_15"  />
</g>
<g id="a1_0016"  >
<polygon points="412,90 415,90 420,85 415,80 412,80 412,90 " style="fill:white; stroke-width:1; stroke:black; " description="&lt;b&gt;BUB25_RS08520&lt;/b&gt;&lt;br&gt;hydroxymyristoyl-ACP dehydratase&lt;br&gt;Location: 86830 - 87258" locus_tag="BUB25_RS08520" class="clusterblast-orf" id="dummy-1_h1_8_16"  />
</g>
<g id="a1_0017"  >
<polygon points="422,90 442,90 447,85 442,80 422,80 422,90 " style="fill:white; stroke-width:1; stroke:black; " description="&lt;b&gt;BUB25_RS08525&lt;/b&gt;&lt;br&gt;beta-ketoacyl-[acyl-carrier-protein] synthase family protein&lt;br&gt;Location: 87347 - 88621" locus_tag="BUB25_RS08525" class="clusterblast-orf" id="dummy-1_h1_8_17"  />
</g>
<g id="a1_0018"  >
<polygon points="447,90 447,90 452,85 447,80 447,80 447,90 " style="fill:white; stroke-width:1; stroke:black; " description="&lt;b&gt;BUB25_RS08530&lt;/b&gt;&lt;br&gt;acyl carrier protein&lt;br&gt;Location: 88632 - 88886" locus_tag="BUB25_RS08530" class="clusterblast-orf" id="dummy-1_h1_8_18"  />
</g>
<g id="a1_0019"  >
<polygon points="452,90 457,90 462,85 457,80 452,80 452,90 " style="fill:white; stroke-width:1; stroke:black; " description="&lt;b&gt;BUB25_RS08535&lt;/b&gt;&lt;br&gt;phosphopantetheinyl transferase&lt;br&gt;Location: 88883 - 89386" locus_tag="BUB25_RS08535" class="clusterblast-orf" id="dummy-1_h1_8_19"  />
</g>
<g id="a1_0020"  >
<polygon points="462,85 467,80 474,80 474,90 467,90 462,85 " style="fill:white; stroke-width:1; stroke:black; " description="&lt;b&gt;BUB25_RS08540&lt;/b&gt;&lt;br&gt;3'-5' exonuclease&lt;br&gt;Location: 89372 - 89968" locus_tag="BUB25_RS08540" class="clusterblast-orf" id="dummy-1_h1_8_20"  />
</g>
<g id="a1_0021"  >
<polygon points="474,85 479,80 511,80 511,90 479,90 474,85 " style="fill:white; stroke-width:1; stroke:black; " description="&lt;b&gt;BUB25_RS08545&lt;/b&gt;&lt;br&gt;CBS domain-containing protein&lt;br&gt;Location: 89971 - 91887" locus_tag="BUB25_RS08545" class="clusterblast-orf" id="dummy-1_h1_8_21"  />
</g>
<g id="a1_0022"  >
<polygon points="518,85 523,80 544,80 544,90 523,90 518,85 " style="fill:white; stroke-width:1; stroke:black; " description="&lt;b&gt;BUB25_RS08550&lt;/b&gt;&lt;br&gt;L-fucose:H+ symporter permease&lt;br&gt;Location: 92233 - 93555" locus_tag="BUB25_RS08550" class="clusterblast-orf" id="dummy-1_h1_8_22"  />
</g>
<g id="a1_0023"  >
<polygon points="544,85 549,80 563,80 563,90 549,90 544,85 " style="fill:white; stroke-width:1; stroke:black; " description="&lt;b&gt;BUB25_RS08555&lt;/b&gt;&lt;br&gt;carbohydrate kinase&lt;br&gt;Location: 93572 - 94510" locus_tag="BUB25_RS08555" class="clusterblast-orf" id="dummy-1_h1_8_23"  />
</g>
<g id="a1_0024"  >
<polygon points="564,85 569,80 581,80 581,90 569,90 564,85 " style="fill:white; stroke-width:1; stroke:black; " description="&lt;b&gt;BUB25_RS08560&lt;/b&gt;&lt;br&gt;sugar phosphate isomerase/epimerase&lt;br&gt;Location: 94564 - 95418" locus_tag="BUB25_RS08560" class="clusterblast-orf" id="dummy-1_h1_8_24"  />
</g>
<g id="a1_0025"  >
<polygon points="582,85 587,80 609,80 609,90 587,90 582,85 " style="fill:white; stroke-width:1; stroke:black; " description="&lt;b&gt;BUB25_RS08565&lt;/b&gt;&lt;br&gt;maltoporin&lt;br&gt;Location: 95462 - 96844" locus_tag="BUB25_RS08565" class="clusterblast-orf" id="dummy-1_h1_8_25"  />
</g>
<g id="a1_0026"  >
<polygon points="618,90 627,90 632,85 627,80 618,80 618,90 " style="fill:white; stroke-width:1; stroke:black; " description="&lt;b&gt;BUB25_RS08570&lt;/b&gt;&lt;br&gt;NUDIX hydrolase&lt;br&gt;Location: 97311 - 98045" locus_tag="BUB25_RS08570" class="clusterblast-orf" id="dummy-1_h1_8_26"  />
</g>
<g id="a1_0027"  >
<polygon points="635,90 654,90 659,85 654,80 635,80 635,90 " style="fill:white; stroke-width:1; stroke:black; " description="&lt;b&gt;BUB25_RS08575&lt;/b&gt;&lt;br&gt;MFS transporter&lt;br&gt;Location: 98178 - 99371" locus_tag="BUB25_RS08575" class="clusterblast-orf" id="dummy-1_h1_8_27"  />
</g>
<g id="a1_0028"  >
<polygon points="660,85 665,80 686,80 686,90 665,90 660,85 " style="fill:white; stroke-width:1; stroke:black; " description="&lt;b&gt;BUB25_RS08580&lt;/b&gt;&lt;br&gt;NAD(P)/FAD-dependent oxidoreductase&lt;br&gt;Location: 99456 - 100742" locus_tag="BUB25_RS08580" class="clusterblast-orf" id="dummy-1_h1_8_28"  />
</g>
<g id="a1_0029"  >
<polygon points="690,85 695,80 716,80 716,90 695,90 690,85 " style="fill:white; stroke-width:1; stroke:black; " description="&lt;b&gt;BUB25_RS08585&lt;/b&gt;&lt;br&gt;ATP-dependent helicase&lt;br&gt;Location: 100954 - 102291" locus_tag="BUB25_RS08585" class="clusterblast-orf" id="dummy-1_h1_8_29"  />
</g>
<g id="a1_0030"  >
<polygon points="718,85 723,80 748,80 748,90 723,90 718,85 " style="fill:white; stroke-width:1; stroke:black; " description="&lt;b&gt;BUB25_RS08590&lt;/b&gt;&lt;br&gt;ATP-dependent helicase&lt;br&gt;Location: 102394 - 103938" locus_tag="BUB25_RS08590" class="clusterblast-orf" id="dummy-1_h1_8_30"  />
</g>
<g id="a1_0031"  >
<polygon points="750,85 755,80 761,80 761,90 755,90 750,85 " style="fill:white; stroke-width:1; stroke:black; " description="&lt;b&gt;BUB25_RS08595&lt;/b&gt;&lt;br&gt;hypothetical protein&lt;br&gt;Location: 104043 - 104570" locus_tag="BUB25_RS08595" class="clusterblast-orf" id="dummy-1_h1_8_31"  />
</g>
<g id="a1_0032"  >
<polygon points="768,90 775,90 780,85 775,80 768,80 768,90 " style="fill:white; stroke-width:1; stroke:black; " description="&lt;b&gt;BUB25_RS08600&lt;/b&gt;&lt;br&gt;twin-arginine translocation pathway signal protein&lt;br&gt;Location: 104958 - 105518" locus_tag="BUB25_RS08600" class="clusterblast-orf" id="dummy-1_h1_8_32"  />
</g>
</svg>
