<svg xmlns="http://www.w3.org/2000/svg" xmlns:xlink="http://www.w3.org/1999/xlink" version="1.1" x="0" y="0" height="230" width="800" viewBox="0 0 800 230" preserveAspectRatio="none"  >
<g label="Query sequence" class="clusterblast-cluster"  >
<text x="5" y="20" class="clusterblast-acc"  >
Query sequence</text>
<line x1="10" y1="35" x2="778.0" y2="35" style="stroke-width:1; stroke:grey; "  />
<polygon points="175,35 180,30 200,30 200,40 180,40 175,35 " style="fill:white; stroke-width:1; stroke:black; " description="&lt;b&gt;ctg7_88&lt;/b&gt;&lt;br&gt;ctg7 88&lt;br&gt;Location: 106219 - 106864" locus_tag="ctg7_88" class="clusterblast-orf" id="dummy-2_q0_0_all"  />
<polygon points="203,35 208,30 232,30 232,40 208,40 203,35 " style="fill:white; stroke-width:1; stroke:black; " description="&lt;b&gt;ctg7_89&lt;/b&gt;&lt;br&gt;ctg7 89&lt;br&gt;Location: 106937 - 107699" locus_tag="ctg7_89" class="clusterblast-orf" id="dummy-2_q1_0_all"  />
<polygon points="236,35 241,30 247,30 247,40 241,40 236,35 " style="fill:#d81515; stroke-width:1; stroke:black; " description="&lt;b&gt;ctg7_90&lt;/b&gt;&lt;br&gt;ctg7 90&lt;br&gt;Location: 107811 - 108099" locus_tag="ctg7_90" class="clusterblast-orf" id="dummy-2_q2_0_all"  />
<polygon points="247,35 252,30 252,30 252,40 252,40 247,35 " style="fill:white; stroke-width:1; stroke:black; " description="&lt;b&gt;ctg7_91&lt;/b&gt;&lt;br&gt;ctg7 91&lt;br&gt;Location: 108095 - 108224" locus_tag="ctg7_91" class="clusterblast-orf" id="dummy-2_q3_0_all"  />
<polygon points="259,35 264,30 284,30 284,40 264,40 259,35 " style="fill:#3cd815; stroke-width:1; stroke:black; " description="&lt;b&gt;ctg7_92&lt;/b&gt;&lt;br&gt;ctg7 92&lt;br&gt;Location: 108414 - 109062" locus_tag="ctg7_92" class="clusterblast-orf" id="dummy-2_q4_0_all"  />
<polygon points="284,35 289,30 327,30 327,40 289,40 284,35 " style="fill:#1563d8; stroke-width:1; stroke:black; " description="&lt;b&gt;ctg7_93&lt;/b&gt;&lt;br&gt;ctg7 93&lt;br&gt;Location: 109058 - 110189" locus_tag="ctg7_93" class="clusterblast-orf" id="dummy-2_q5_0_all"  />
<polygon points="332,40 347,40 352,35 347,30 332,30 332,40 " style="fill:#b115d8; stroke-width:1; stroke:black; " description="&lt;b&gt;ctg7_94&lt;/b&gt;&lt;br&gt;ctg7 94&lt;br&gt;Location: 110297 - 110825" locus_tag="ctg7_94" class="clusterblast-orf" id="dummy-2_q6_0_all"  />
<polygon points="354,40 363,40 368,35 363,30 354,30 354,40 " style="fill:white; stroke-width:1; stroke:black; " description="&lt;b&gt;ctg7_95&lt;/b&gt;&lt;br&gt;ctg7 95&lt;br&gt;Location: 110888 - 111260" locus_tag="ctg7_95" class="clusterblast-orf" id="dummy-2_q7_0_all"  />
<polygon points="370,35 375,30 409,30 409,40 375,40 370,35 " style="fill:#d88a15; stroke-width:1; stroke:black; " description="&lt;b&gt;ctg7_96&lt;/b&gt;&lt;br&gt;ctg7 96&lt;br&gt;Location: 111307 - 112330" locus_tag="ctg7_96" class="clusterblast-orf" id="dummy-2_q8_0_all"  />
<polygon points="409,35 414,30 434,30 434,40 414,40 409,35 " style="fill:#15d863; stroke-width:1; stroke:black; " description="&lt;b&gt;ctg7_97&lt;/b&gt;&lt;br&gt;ctg7 97&lt;br&gt;Location: 112326 - 112983" locus_tag="ctg7_97" class="clusterblast-orf" id="dummy-2_q9_0_all"  />
<polygon points="435,35 440,30 477,30 477,40 440,40 435,35 " style="fill:#3c15d8; stroke-width:1; stroke:black; " description="&lt;b&gt;ctg7_98&lt;/b&gt;&lt;br&gt;ctg7 98&lt;br&gt;Location: 112999 - 114094" locus_tag="ctg7_98" class="clusterblast-orf" id="dummy-2_q10_0_all"  />
<polygon points="490,40 534,40 539,35 534,30 490,30 490,40 " style="fill:#d8158a; stroke-width:1; stroke:black; " description="&lt;b&gt;ctg7_99&lt;/b&gt;&lt;br&gt;ctg7 99&lt;br&gt;Location: 114433 - 115711" locus_tag="ctg7_99" class="clusterblast-orf" id="dummy-2_q11_0_all"  />
<polygon points="539,40 574,40 579,35 574,30 539,30 539,40 " style="fill:#b1d815; stroke-width:1; stroke:black; " description="&lt;b&gt;ctg7_100&lt;/b&gt;&lt;br&gt;ctg7 100&lt;br&gt;Location: 115707 - 116751" locus_tag="ctg7_100" class="clusterblast-orf" id="dummy-2_q12_0_all"  />
<polygon points="580,40 586,40 591,35 586,30 580,30 580,40 " style="fill:#15d8d8; stroke-width:1; stroke:black; " description="&lt;b&gt;ctg7_101&lt;/b&gt;&lt;br&gt;ctg7 101&lt;br&gt;Location: 116783 - 117059" locus_tag="ctg7_101" class="clusterblast-orf" id="dummy-2_q13_0_all"  />
<polygon points="599,40 599,40 604,35 599,30 599,30 599,40 " style="fill:white; stroke-width:1; stroke:black; " description="&lt;b&gt;ctg7_102&lt;/b&gt;&lt;br&gt;ctg7 102&lt;br&gt;Location: 117285 - 117420" locus_tag="ctg7_102" class="clusterblast-orf" id="dummy-2_q14_0_all"  />
</g>
<g label="NZ_LGED01000231" description="NZ_LGED01000231_c30: Saccharothrix sp. NRRL B-16348 P442contig59.1, whole gen... (16% of genes show similarity), terpene" class="clusterblast-cluster"  >
<text x="5" y="70" class="clusterblast-acc"  >
<a xlink:href="https://antismash-db.secondarymetabolites.org/go/NZ_LGED01000231/30" target="_blank">NZ_LGED01000231_c30</a>: Saccharothrix sp. NRRL B-16348 P442contig59.1, whole gen... (16% of genes show similarity), terpene</text>
<line x1="10" y1="85" x2="778.0" y2="85" style="stroke-width:1; stroke:grey; "  />
</g>
<g id="a2_000"  >
<polygon points="0,85 5,80 42,80 42,90 5,90 0,85 " style="fill:white; stroke-width:1; stroke:black; " description="&lt;b&gt;ADK67_RS35405&lt;/b&gt;&lt;br&gt;gfo/Idh/MocA family oxidoreductase&lt;br&gt;Location: 126485 - 125376" locus_tag="ADK67_RS35405" class="clusterblast-orf" id="dummy-2_h2_4_0"  />
</g>
<g id="a2_001"  >
<polygon points="42,85 47,80 70,80 70,90 47,90 42,85 " style="fill:white; stroke-width:1; stroke:black; " description="&lt;b&gt;ADK67_RS35400&lt;/b&gt;&lt;br&gt;sugar phosphate isomerase/epimerase&lt;br&gt;Location: 125379 - 124645" locus_tag="ADK67_RS35400" class="clusterblast-orf" id="dummy-2_h2_4_1"  />
</g>
<g id="a2_002"  >
<polygon points="76,90 101,90 106,85 101,80 76,80 76,90 " style="fill:white; stroke-width:1; stroke:black; " description="&lt;b&gt;ADK67_RS35395&lt;/b&gt;&lt;br&gt;MerR family transcriptional regulator&lt;br&gt;Location: 124496 - 123714" locus_tag="ADK67_RS35395" class="clusterblast-orf" id="dummy-2_h2_4_2"  />
</g>
<g id="a2_003"  >
<polygon points="106,90 146,90 151,85 146,80 106,80 106,90 " style="fill:white; stroke-width:1; stroke:black; " description="&lt;b&gt;ADK67_RS35390&lt;/b&gt;&lt;br&gt;acetylhydrolase&lt;br&gt;Location: 123693 - 122521" locus_tag="ADK67_RS35390" class="clusterblast-orf" id="dummy-2_h2_4_3"  />
</g>
<g id="a2_004"  >
<polygon points="151,85 156,80 160,80 160,90 156,90 151,85 " style="fill:white; stroke-width:1; stroke:black; " description="&lt;b&gt;ADK67_RS35385&lt;/b&gt;&lt;br&gt;hypothetical protein&lt;br&gt;Location: 122524 - 122291" locus_tag="ADK67_RS35385" class="clusterblast-orf" id="dummy-2_h2_4_4"  />
</g>
<g id="a2_005"  >
<polygon points="171,85 176,80 182,80 182,90 176,90 171,85 " style="fill:white; stroke-width:1; stroke:black; " description="&lt;b&gt;ADK67_RS35380&lt;/b&gt;&lt;br&gt;hypothetical protein&lt;br&gt;Location: 121996 - 121730" locus_tag="ADK67_RS35380" class="clusterblast-orf" id="dummy-2_h2_4_5"  />
</g>
<g id="a2_006"  >
<polygon points="186,85 191,80 227,80 227,90 191,90 186,85 " style="fill:#d88a15; stroke-width:1; stroke:black; " description="&lt;b&gt;ADK67_RS35375&lt;/b&gt;&lt;br&gt;ABC transporter permease&lt;br&gt;Location: 121618 - 120548&lt;br&gt;&lt;br&gt;&lt;b&gt;BlastP hit with ctg7_96&lt;/b&gt;&lt;br&gt;Percentage identity: 56&lt;br&gt;Percentage coverage: 90&lt;br&gt;BLAST bit score: 309&lt;br&gt;E-value: 3.7e-82" locus_tag="ADK67_RS35375" class="clusterblast-orf" id="dummy-2_h2_4_6"  />
</g>
<g id="a2_007"  >
<polygon points="227,85 232,80 251,80 251,90 232,90 227,85 " style="fill:#15d863; stroke-width:1; stroke:black; " description="&lt;b&gt;ADK67_RS35370&lt;/b&gt;&lt;br&gt;ABC transporter ATP-binding protein&lt;br&gt;Location: 120551 - 119925&lt;br&gt;&lt;br&gt;&lt;b&gt;BlastP hit with ctg7_97&lt;/b&gt;&lt;br&gt;Percentage identity: 71&lt;br&gt;Percentage coverage: 92&lt;br&gt;BLAST bit score: 297&lt;br&gt;E-value: 1.6e-78" locus_tag="ADK67_RS35370" class="clusterblast-orf" id="dummy-2_h2_4_7"  />
</g>
<g id="a2_008"  >
<polygon points="251,85 256,80 292,80 292,90 256,90 251,85 " style="fill:#3c15d8; stroke-width:1; stroke:black; " description="&lt;b&gt;ADK67_RS35365&lt;/b&gt;&lt;br&gt;hypothetical protein&lt;br&gt;Location: 119919 - 118837&lt;br&gt;&lt;br&gt;&lt;b&gt;BlastP hit with ctg7_98&lt;/b&gt;&lt;br&gt;Percentage identity: 59&lt;br&gt;Percentage coverage: 96&lt;br&gt;BLAST bit score: 392&lt;br&gt;E-value: 6.1e-107" locus_tag="ADK67_RS35365" class="clusterblast-orf" id="dummy-2_h2_4_8"  />
</g>
<g id="a2_009"  >
<polygon points="309,90 372,90 377,85 372,80 309,80 309,90 " style="fill:white; stroke-width:1; stroke:black; " description="&lt;b&gt;ADK67_RS35360&lt;/b&gt;&lt;br&gt;1-deoxy-D-xylulose-5-phosphate synthase&lt;br&gt;Location: 118409 - 116643" locus_tag="ADK67_RS35360" class="clusterblast-orf" id="dummy-2_h2_4_9"  />
</g>
<g id="a2_0010"  >
<polygon points="376,90 412,90 417,85 412,80 376,80 376,90 " style="fill:#b1d815; stroke-width:1; stroke:black; " description="&lt;b&gt;ADK67_RS35355&lt;/b&gt;&lt;br&gt;hypothetical protein&lt;br&gt;Location: 116646 - 115600&lt;br&gt;&lt;br&gt;&lt;b&gt;BlastP hit with ctg7_100&lt;/b&gt;&lt;br&gt;Percentage identity: 56&lt;br&gt;Percentage coverage: 99&lt;br&gt;BLAST bit score: 387&lt;br&gt;E-value: 1.9e-105" locus_tag="ADK67_RS35355" class="clusterblast-orf" id="dummy-2_h2_4_10"  />
</g>
<g id="a2_0011"  >
<polygon points="418,90 420,90 425,85 420,80 418,80 418,90 " style="fill:white; stroke-width:1; stroke:black; " description="&lt;b&gt;ADK67_RS35350&lt;/b&gt;&lt;br&gt;hypothetical protein&lt;br&gt;Location: 115573 - 115367" locus_tag="ADK67_RS35350" class="clusterblast-orf" id="dummy-2_h2_4_11"  />
</g>
<g id="a2_0012"  >
<polygon points="426,85 431,80 452,80 452,90 431,90 426,85 " style="fill:white; stroke-width:1; stroke:black; " description="&lt;b&gt;ADK67_RS35345&lt;/b&gt;&lt;br&gt;lipoate-protein ligase B&lt;br&gt;Location: 115351 - 114671" locus_tag="ADK67_RS35345" class="clusterblast-orf" id="dummy-2_h2_4_12"  />
</g>
<g id="a2_0013"  >
<polygon points="456,85 461,80 485,80 485,90 461,90 456,85 " style="fill:white; stroke-width:1; stroke:black; " description="&lt;b&gt;ADK67_RS35340&lt;/b&gt;&lt;br&gt;pentapeptide repeat-containing protein&lt;br&gt;Location: 114571 - 113801" locus_tag="ADK67_RS35340" class="clusterblast-orf" id="dummy-2_h2_4_13"  />
</g>
<g id="a2_0014"  >
<polygon points="496,85 501,80 512,80 512,90 501,90 496,85 " style="fill:white; stroke-width:1; stroke:black; " description="&lt;b&gt;ADK67_RS35335&lt;/b&gt;&lt;br&gt;beta-hydroxyacyl-ACP dehydratase&lt;br&gt;Location: 113532 - 113101" locus_tag="ADK67_RS35335" class="clusterblast-orf" id="dummy-2_h2_4_14"  />
</g>
<g id="a2_0015"  >
<polygon points="512,85 517,80 523,80 523,90 517,90 512,85 " style="fill:white; stroke-width:1; stroke:black; " description="&lt;b&gt;ADK67_RS35330&lt;/b&gt;&lt;br&gt;hypothetical protein&lt;br&gt;Location: 113107 - 112826" locus_tag="ADK67_RS35330" class="clusterblast-orf" id="dummy-2_h2_4_15"  />
</g>
<g id="a2_0016"  >
<polygon points="525,85 530,80 562,80 562,90 530,90 525,85 " style="fill:white; stroke-width:1; stroke:black; " description="&lt;b&gt;ADK67_RS35325&lt;/b&gt;&lt;br&gt;ketoacyl-ACP synthase III&lt;br&gt;Location: 112763 - 111792" locus_tag="ADK67_RS35325" class="clusterblast-orf" id="dummy-2_h2_4_16"  />
</g>
<g id="a2_0017"  >
<polygon points="563,85 568,80 609,80 609,90 568,90 563,85 " style="fill:white; stroke-width:1; stroke:black; " description="&lt;b&gt;ADK67_RS35320&lt;/b&gt;&lt;br&gt;beta-ketoacyl-[acyl-carrier-protein] synthase family protein&lt;br&gt;Location: 111778 - 110567" locus_tag="ADK67_RS35320" class="clusterblast-orf" id="dummy-2_h2_4_17"  />
</g>
<g id="a2_0018"  >
<polygon points="609,85 614,80 618,80 618,90 614,90 609,85 " style="fill:white; stroke-width:1; stroke:black; " description="&lt;b&gt;ADK67_RS35315&lt;/b&gt;&lt;br&gt;acyl carrier protein&lt;br&gt;Location: 110580 - 110347" locus_tag="ADK67_RS35315" class="clusterblast-orf" id="dummy-2_h2_4_18"  />
</g>
<g id="a2_0019"  >
<polygon points="622,90 643,90 648,85 643,80 622,80 622,90 " style="fill:white; stroke-width:1; stroke:black; " description="&lt;b&gt;ADK67_RS35310&lt;/b&gt;&lt;br&gt;short-chain dehydrogenase&lt;br&gt;Location: 110236 - 109556" locus_tag="ADK67_RS35310" class="clusterblast-orf" id="dummy-2_h2_4_19"  />
</g>
<g id="a2_0020"  >
<polygon points="649,90 668,90 673,85 668,80 649,80 649,90 " style="fill:white; stroke-width:1; stroke:black; " description="&lt;b&gt;ADK67_RS35305&lt;/b&gt;&lt;br&gt;DUF4230 domain-containing protein&lt;br&gt;Location: 109533 - 108910" locus_tag="ADK67_RS35305" class="clusterblast-orf" id="dummy-2_h2_4_20"  />
</g>
<g id="a2_0021"  >
<polygon points="672,85 677,80 698,80 698,90 677,90 672,85 " style="fill:white; stroke-width:1; stroke:black; " description="&lt;b&gt;ADK67_RS35300&lt;/b&gt;&lt;br&gt;TetR/AcrR family transcriptional regulator&lt;br&gt;Location: 108926 - 108261" locus_tag="ADK67_RS35300" class="clusterblast-orf" id="dummy-2_h2_4_21"  />
</g>
<g id="a2_0022"  >
<polygon points="701,90 718,90 723,85 718,80 701,80 701,90 " style="fill:white; stroke-width:1; stroke:black; " description="&lt;b&gt;ADK67_RS35295&lt;/b&gt;&lt;br&gt;DUF4386 domain-containing protein&lt;br&gt;Location: 108171 - 107593" locus_tag="ADK67_RS35295" class="clusterblast-orf" id="dummy-2_h2_4_22"  />
</g>
<g id="a2_0023"  >
<polygon points="723,90 753,90 758,85 753,80 723,80 723,90 " style="fill:white; stroke-width:1; stroke:black; " description="&lt;b&gt;ADK67_RS35290&lt;/b&gt;&lt;br&gt;pseudouridylate synthase&lt;br&gt;Location: 107590 - 106688" locus_tag="ADK67_RS35290" class="clusterblast-orf" id="dummy-2_h2_4_23"  />
</g>
<g id="a2_0024"  >
<polygon points="758,85 763,80 779,80 779,90 763,90 758,85 " style="fill:white; stroke-width:1; stroke:black; " description="&lt;b&gt;ADK67_RS35285&lt;/b&gt;&lt;br&gt;DUF305 domain-containing protein&lt;br&gt;Location: 106691 - 106125" locus_tag="ADK67_RS35285" class="clusterblast-orf" id="dummy-2_h2_4_24"  />
</g>
</svg>
