<svg xmlns="http://www.w3.org/2000/svg" xmlns:xlink="http://www.w3.org/1999/xlink" version="1.1" x="0" y="0" height="230" width="800" viewBox="0 0 800 230" preserveAspectRatio="none"  >
<g label="Query sequence" class="clusterblast-cluster"  >
<text x="5" y="20" class="clusterblast-acc"  >
Query sequence</text>
<line x1="10" y1="35" x2="778.0" y2="35" style="stroke-width:1; stroke:grey; "  />
<polygon points="129,35 134,30 136,30 136,40 134,40 129,35 " style="fill:white; stroke-width:1; stroke:black; " description="&lt;b&gt;ctg71_10&lt;/b&gt;&lt;br&gt;ctg71 10&lt;br&gt;Location: 9779 - 10166" locus_tag="ctg71_10" class="clusterblast-orf" id="dummy-1_q0_0_all"  />
<polygon points="139,40 139,40 144,35 139,30 139,30 139,40 " style="fill:white; stroke-width:1; stroke:black; " description="&lt;b&gt;ctg71_11&lt;/b&gt;&lt;br&gt;ctg71 11&lt;br&gt;Location: 10355 - 10583" locus_tag="ctg71_11" class="clusterblast-orf" id="dummy-1_q1_0_all"  />
<polygon points="146,35 151,30 162,30 162,40 151,40 146,35 " style="fill:#d81515; stroke-width:1; stroke:black; " description="&lt;b&gt;ctg71_12&lt;/b&gt;&lt;br&gt;ctg71 12&lt;br&gt;Location: 10705 - 11614" locus_tag="ctg71_12" class="clusterblast-orf" id="dummy-1_q2_0_all"  />
<polygon points="164,40 173,40 178,35 173,30 164,30 164,40 " style="fill:#77d815; stroke-width:1; stroke:black; " description="&lt;b&gt;ctg71_13&lt;/b&gt;&lt;br&gt;ctg71 13&lt;br&gt;Location: 11698 - 12526" locus_tag="ctg71_13" class="clusterblast-orf" id="dummy-1_q3_0_all"  />
<polygon points="178,35 183,30 201,30 201,40 183,40 178,35 " style="fill:#15d8d8; stroke-width:1; stroke:black; " description="&lt;b&gt;ctg71_14&lt;/b&gt;&lt;br&gt;ctg71 14&lt;br&gt;Location: 12518 - 13805" locus_tag="ctg71_14" class="clusterblast-orf" id="dummy-1_q4_0_all"  />
<polygon points="202,40 229,40 234,35 229,30 202,30 202,40 " style="fill:#7715d8; stroke-width:1; stroke:black; " description="&lt;b&gt;ctg71_15&lt;/b&gt;&lt;br&gt;ctg71 15&lt;br&gt;Location: 13851 - 15603" locus_tag="ctg71_15" class="clusterblast-orf" id="dummy-1_q5_0_all"  />
<polygon points="234,40 240,40 245,35 240,30 234,30 234,40 " style="fill:#d84615; stroke-width:1; stroke:black; " description="&lt;b&gt;ctg71_16&lt;/b&gt;&lt;br&gt;ctg71 16&lt;br&gt;Location: 15599 - 16226" locus_tag="ctg71_16" class="clusterblast-orf" id="dummy-1_q6_0_all"  />
<polygon points="245,40 257,40 262,35 257,30 245,30 245,40 " style="fill:#46d815; stroke-width:1; stroke:black; " description="&lt;b&gt;ctg71_17&lt;/b&gt;&lt;br&gt;ctg71 17&lt;br&gt;Location: 16248 - 17175" locus_tag="ctg71_17" class="clusterblast-orf" id="dummy-1_q7_0_all"  />
<polygon points="263,40 276,40 281,35 276,30 263,30 263,40 " style="fill:#15a7d8; stroke-width:1; stroke:black; " description="&lt;b&gt;ctg71_18&lt;/b&gt;&lt;br&gt;ctg71 18&lt;br&gt;Location: 17261 - 18236" locus_tag="ctg71_18" class="clusterblast-orf" id="dummy-1_q8_0_all"  />
<polygon points="281,40 283,40 288,35 283,30 281,30 281,40 " style="fill:#a715d8; stroke-width:1; stroke:black; " description="&lt;b&gt;ctg71_19&lt;/b&gt;&lt;br&gt;ctg71 19&lt;br&gt;Location: 18232 - 18658" locus_tag="ctg71_19" class="clusterblast-orf" id="dummy-1_q9_0_all"  />
<polygon points="288,40 299,40 304,35 299,30 288,30 288,40 " style="fill:#d87715; stroke-width:1; stroke:black; " description="&lt;b&gt;ctg71_20&lt;/b&gt;&lt;br&gt;ctg71 20&lt;br&gt;Location: 18654 - 19512" locus_tag="ctg71_20" class="clusterblast-orf" id="dummy-1_q10_0_all"  />
<polygon points="304,40 319,40 324,35 319,30 304,30 304,40 " style="fill:#15d815; stroke-width:1; stroke:black; " description="&lt;b&gt;ctg71_21&lt;/b&gt;&lt;br&gt;ctg71 21&lt;br&gt;Location: 19508 - 20609" locus_tag="ctg71_21" class="clusterblast-orf" id="dummy-1_q11_0_all"  />
<polygon points="323,40 332,40 337,35 332,30 323,30 323,40 " style="fill:#1577d8; stroke-width:1; stroke:black; " description="&lt;b&gt;ctg71_22&lt;/b&gt;&lt;br&gt;ctg71 22&lt;br&gt;Location: 20598 - 21342" locus_tag="ctg71_22" class="clusterblast-orf" id="dummy-1_q12_0_all"  />
<polygon points="338,40 366,40 371,35 366,30 338,30 338,40 " style="fill:#d815d8; stroke-width:1; stroke:black; " description="&lt;b&gt;ctg71_23&lt;/b&gt;&lt;br&gt;ctg71 23&lt;br&gt;Location: 21401 - 23243" locus_tag="ctg71_23" class="clusterblast-orf" id="dummy-1_q13_0_all"  />
<polygon points="371,40 372,40 377,35 372,30 371,30 371,40 " style="fill:#d8a715; stroke-width:1; stroke:black; " description="&lt;b&gt;ctg71_24&lt;/b&gt;&lt;br&gt;ctg71 24&lt;br&gt;Location: 23242 - 23599" locus_tag="ctg71_24" class="clusterblast-orf" id="dummy-1_q14_0_all"  />
<polygon points="387,35 392,30 408,30 408,40 392,40 387,35 " style="fill:#15d846; stroke-width:1; stroke:black; " description="&lt;b&gt;ctg71_25&lt;/b&gt;&lt;br&gt;ctg71 25&lt;br&gt;Location: 24141 - 25341" locus_tag="ctg71_25" class="clusterblast-orf" id="dummy-1_q15_0_all"  />
<polygon points="409,35 414,30 417,30 417,40 414,40 409,35 " style="fill:#1546d8; stroke-width:1; stroke:black; " description="&lt;b&gt;ctg71_26&lt;/b&gt;&lt;br&gt;ctg71 26&lt;br&gt;Location: 25345 - 25837" locus_tag="ctg71_26" class="clusterblast-orf" id="dummy-1_q16_0_all"  />
<polygon points="419,40 427,40 432,35 427,30 419,30 419,40 " style="fill:#d815a7; stroke-width:1; stroke:black; " description="&lt;b&gt;ctg71_27&lt;/b&gt;&lt;br&gt;ctg71 27&lt;br&gt;Location: 25921 - 26644" locus_tag="ctg71_27" class="clusterblast-orf" id="dummy-1_q17_0_all"  />
<polygon points="432,40 439,40 444,35 439,30 432,30 432,40 " style="fill:#d8d815; stroke-width:1; stroke:black; " description="&lt;b&gt;ctg71_28&lt;/b&gt;&lt;br&gt;ctg71 28&lt;br&gt;Location: 26640 - 27318" locus_tag="ctg71_28" class="clusterblast-orf" id="dummy-1_q18_0_all"  />
<polygon points="444,40 464,40 469,35 464,30 444,30 444,40 " style="fill:#15d877; stroke-width:1; stroke:black; " description="&lt;b&gt;ctg71_29&lt;/b&gt;&lt;br&gt;ctg71 29&lt;br&gt;Location: 27314 - 28739" locus_tag="ctg71_29" class="clusterblast-orf" id="dummy-1_q19_0_all"  />
<polygon points="472,40 536,40 541,35 536,30 472,30 472,40 " style="fill:#1515d8; stroke-width:1; stroke:black; " description="&lt;b&gt;ctg71_30&lt;/b&gt;&lt;br&gt;ctg71 30&lt;br&gt;Location: 28877 - 32738" locus_tag="ctg71_30" class="clusterblast-orf" id="dummy-1_q20_0_all"  />
<polygon points="541,40 558,40 563,35 558,30 541,30 541,40 " style="fill:#d81577; stroke-width:1; stroke:black; " description="&lt;b&gt;ctg71_31&lt;/b&gt;&lt;br&gt;ctg71 31&lt;br&gt;Location: 32734 - 33976" locus_tag="ctg71_31" class="clusterblast-orf" id="dummy-1_q21_0_all"  />
<polygon points="567,40 582,40 587,35 582,30 567,30 567,40 " style="fill:#a7d815; stroke-width:1; stroke:black; " description="&lt;b&gt;ctg71_32&lt;/b&gt;&lt;br&gt;ctg71 32&lt;br&gt;Location: 34160 - 35279" locus_tag="ctg71_32" class="clusterblast-orf" id="dummy-1_q22_0_all"  />
<polygon points="588,40 597,40 602,35 597,30 588,30 588,40 " style="fill:#15d8a7; stroke-width:1; stroke:black; " description="&lt;b&gt;ctg71_33&lt;/b&gt;&lt;br&gt;ctg71 33&lt;br&gt;Location: 35371 - 36145" locus_tag="ctg71_33" class="clusterblast-orf" id="dummy-1_q23_0_all"  />
<polygon points="602,40 623,40 628,35 623,30 602,30 602,40 " style="fill:#4615d8; stroke-width:1; stroke:black; " description="&lt;b&gt;ctg71_34&lt;/b&gt;&lt;br&gt;ctg71 34&lt;br&gt;Location: 36141 - 37590" locus_tag="ctg71_34" class="clusterblast-orf" id="dummy-1_q24_0_all"  />
<polygon points="629,40 645,40 650,35 645,30 629,30 629,40 " style="fill:#d81546; stroke-width:1; stroke:black; " description="&lt;b&gt;ctg71_35&lt;/b&gt;&lt;br&gt;ctg71 35&lt;br&gt;Location: 37635 - 38811" locus_tag="ctg71_35" class="clusterblast-orf" id="dummy-1_q25_0_all"  />
</g>
<g label="NZ_FOEF01000025" description="NZ_FOEF01000025_c6: Amycolatopsis saalfeldensis strain DSM 44993, whole genom... (47% of genes show similarity), other" class="clusterblast-cluster"  >
<text x="5" y="70" class="clusterblast-acc"  >
<a xlink:href="https://antismash-db.secondarymetabolites.org/go/NZ_FOEF01000025/6" target="_blank">NZ_FOEF01000025_c6</a>: Amycolatopsis saalfeldensis strain DSM 44993, whole genom... (47% of genes show similarity), other</text>
<line x1="10" y1="85" x2="778.0" y2="85" style="stroke-width:1; stroke:grey; "  />
</g>
<g id="a1_000"  >
<polygon points="0,85 5,80 12,80 12,90 5,90 0,85 " style="fill:white; stroke-width:1; stroke:black; " description="&lt;b&gt;BMY97_RS38690&lt;/b&gt;&lt;br&gt;Asp/Glu/hydantoin racemase&lt;br&gt;Location: 16857 - 17576" locus_tag="BMY97_RS38690" class="clusterblast-orf" id="dummy-1_h1_6_0"  />
</g>
<g id="a1_001"  >
<polygon points="12,85 17,80 38,80 38,90 17,90 12,85 " style="fill:white; stroke-width:1; stroke:black; " description="&lt;b&gt;BMY97_RS38695&lt;/b&gt;&lt;br&gt;nitrate reductase&lt;br&gt;Location: 17576 - 19015" locus_tag="BMY97_RS38695" class="clusterblast-orf" id="dummy-1_h1_6_1"  />
</g>
<g id="a1_002"  >
<polygon points="41,90 48,90 53,85 48,80 41,80 41,90 " style="fill:white; stroke-width:1; stroke:black; " description="&lt;b&gt;BMY97_RS38700&lt;/b&gt;&lt;br&gt;GntR family transcriptional regulator&lt;br&gt;Location: 19160 - 19846" locus_tag="BMY97_RS38700" class="clusterblast-orf" id="dummy-1_h1_6_2"  />
</g>
<g id="a1_003"  >
<polygon points="53,85 58,80 76,80 76,90 58,90 53,85 " style="fill:#15d8d8; stroke-width:1; stroke:black; " description="&lt;b&gt;BMY97_RS38705&lt;/b&gt;&lt;br&gt;3-phosphoshikimate 1-carboxyvinyltransferase&lt;br&gt;Location: 19853 - 21133&lt;br&gt;&lt;br&gt;&lt;b&gt;BlastP hit with ctg71_14&lt;/b&gt;&lt;br&gt;Percentage identity: 75&lt;br&gt;Percentage coverage: 99&lt;br&gt;BLAST bit score: 621&lt;br&gt;E-value: 7.2e-176" locus_tag="BMY97_RS38705" class="clusterblast-orf" id="dummy-1_h1_6_3"  />
</g>
<g id="a1_004"  >
<polygon points="78,90 104,90 109,85 104,80 78,80 78,90 " style="fill:#7715d8; stroke-width:1; stroke:black; " description="&lt;b&gt;BMY97_RS38710&lt;/b&gt;&lt;br&gt;CTP synthase&lt;br&gt;Location: 21254 - 22954&lt;br&gt;&lt;br&gt;&lt;b&gt;BlastP hit with ctg71_15&lt;/b&gt;&lt;br&gt;Percentage identity: 88&lt;br&gt;Percentage coverage: 97&lt;br&gt;BLAST bit score: 989&lt;br&gt;E-value: 1.4e-286" locus_tag="BMY97_RS38710" class="clusterblast-orf" id="dummy-1_h1_6_4"  />
</g>
<g id="a1_005"  >
<polygon points="109,90 115,90 120,85 115,80 109,80 109,90 " style="fill:#d84615; stroke-width:1; stroke:black; " description="&lt;b&gt;BMY97_RS38715&lt;/b&gt;&lt;br&gt;NUDIX hydrolase&lt;br&gt;Location: 22951 - 23583&lt;br&gt;&lt;br&gt;&lt;b&gt;BlastP hit with ctg71_16&lt;/b&gt;&lt;br&gt;Percentage identity: 76&lt;br&gt;Percentage coverage: 99&lt;br&gt;BLAST bit score: 319&lt;br&gt;E-value: 3.7e-85" locus_tag="BMY97_RS38715" class="clusterblast-orf" id="dummy-1_h1_6_5"  />
</g>
<g id="a1_006"  >
<polygon points="122,90 133,90 138,85 133,80 122,80 122,90 " style="fill:#46d815; stroke-width:1; stroke:black; " description="&lt;b&gt;BMY97_RS38720&lt;/b&gt;&lt;br&gt;site-specific tyrosine recombinase XerD&lt;br&gt;Location: 23685 - 24587&lt;br&gt;&lt;br&gt;&lt;b&gt;BlastP hit with ctg71_17&lt;/b&gt;&lt;br&gt;Percentage identity: 83&lt;br&gt;Percentage coverage: 97&lt;br&gt;BLAST bit score: 480&lt;br&gt;E-value: 1.1e-133" locus_tag="BMY97_RS38720" class="clusterblast-orf" id="dummy-1_h1_6_6"  />
</g>
<g id="a1_007"  >
<polygon points="142,90 155,90 160,85 155,80 142,80 142,90 " style="fill:#15a7d8; stroke-width:1; stroke:black; " description="&lt;b&gt;BMY97_RS38725&lt;/b&gt;&lt;br&gt;ParA family protein&lt;br&gt;Location: 24804 - 25811&lt;br&gt;&lt;br&gt;&lt;b&gt;BlastP hit with ctg71_18&lt;/b&gt;&lt;br&gt;Percentage identity: 89&lt;br&gt;Percentage coverage: 85&lt;br&gt;BLAST bit score: 487&lt;br&gt;E-value: 1.2e-135" locus_tag="BMY97_RS38725" class="clusterblast-orf" id="dummy-1_h1_6_7"  />
</g>
<g id="a1_008"  >
<polygon points="160,90 162,90 167,85 162,80 160,80 160,90 " style="fill:#a715d8; stroke-width:1; stroke:black; " description="&lt;b&gt;BMY97_RS38730&lt;/b&gt;&lt;br&gt;cobyrinic acid a,c-diamide synthase&lt;br&gt;Location: 25808 - 26212&lt;br&gt;&lt;br&gt;&lt;b&gt;BlastP hit with ctg71_19&lt;/b&gt;&lt;br&gt;Percentage identity: 65&lt;br&gt;Percentage coverage: 99&lt;br&gt;BLAST bit score: 144&lt;br&gt;E-value: 6.5e-33" locus_tag="BMY97_RS38730" class="clusterblast-orf" id="dummy-1_h1_6_8"  />
</g>
<g id="a1_009"  >
<polygon points="167,90 179,90 184,85 179,80 167,80 167,90 " style="fill:#d87715; stroke-width:1; stroke:black; " description="&lt;b&gt;BMY97_RS38735&lt;/b&gt;&lt;br&gt;segregation/condensation protein A&lt;br&gt;Location: 26212 - 27135&lt;br&gt;&lt;br&gt;&lt;b&gt;BlastP hit with ctg71_20&lt;/b&gt;&lt;br&gt;Percentage identity: 83&lt;br&gt;Percentage coverage: 95&lt;br&gt;BLAST bit score: 435&lt;br&gt;E-value: 4.9e-120" locus_tag="BMY97_RS38735" class="clusterblast-orf" id="dummy-1_h1_6_9"  />
</g>
<g id="a1_0010"  >
<polygon points="195,90 204,90 209,85 204,80 195,80 195,90 " style="fill:#15d815; stroke-width:1; stroke:black; " description="&lt;b&gt;BMY97_RS38740&lt;/b&gt;&lt;br&gt;SMC-Scp complex subunit ScpB&lt;br&gt;Location: 27774 - 28544&lt;br&gt;&lt;br&gt;&lt;b&gt;BlastP hit with ctg71_21&lt;/b&gt;&lt;br&gt;Percentage identity: 79&lt;br&gt;Percentage coverage: 54&lt;br&gt;BLAST bit score: 292&lt;br&gt;E-value: 8.6e-77" locus_tag="BMY97_RS38740" class="clusterblast-orf" id="dummy-1_h1_6_10"  />
</g>
<g id="a1_0011"  >
<polygon points="209,90 218,90 223,85 218,80 209,80 209,90 " style="fill:#1577d8; stroke-width:1; stroke:black; " description="&lt;b&gt;BMY97_RS38745&lt;/b&gt;&lt;br&gt;rRNA pseudouridine synthase&lt;br&gt;Location: 28534 - 29286&lt;br&gt;&lt;br&gt;&lt;b&gt;BlastP hit with ctg71_22&lt;/b&gt;&lt;br&gt;Percentage identity: 74&lt;br&gt;Percentage coverage: 101&lt;br&gt;BLAST bit score: 370&lt;br&gt;E-value: 1.7e-100" locus_tag="BMY97_RS38745" class="clusterblast-orf" id="dummy-1_h1_6_11"  />
</g>
<g id="a1_0012"  >
<polygon points="225,90 254,90 259,85 254,80 225,80 225,90 " style="fill:white; stroke-width:1; stroke:black; " description="&lt;b&gt;BMY97_RS38750&lt;/b&gt;&lt;br&gt;Xaa-Pro dipeptidyl-peptidase&lt;br&gt;Location: 29426 - 31321" locus_tag="BMY97_RS38750" class="clusterblast-orf" id="dummy-1_h1_6_12"  />
</g>
<g id="a1_0013"  >
<polygon points="260,85 265,80 282,80 282,90 265,90 260,85 " style="fill:#15d846; stroke-width:1; stroke:black; " description="&lt;b&gt;BMY97_RS38755&lt;/b&gt;&lt;br&gt;cation:proton antiporter&lt;br&gt;Location: 31375 - 32571&lt;br&gt;&lt;br&gt;&lt;b&gt;BlastP hit with ctg71_25&lt;/b&gt;&lt;br&gt;Percentage identity: 88&lt;br&gt;Percentage coverage: 100&lt;br&gt;BLAST bit score: 639&lt;br&gt;E-value: 3.1e-181" locus_tag="BMY97_RS38755" class="clusterblast-orf" id="dummy-1_h1_6_13"  />
</g>
<g id="a1_0014"  >
<polygon points="282,85 287,80 291,80 291,90 287,90 282,85 " style="fill:#1546d8; stroke-width:1; stroke:black; " description="&lt;b&gt;BMY97_RS38760&lt;/b&gt;&lt;br&gt;potassium transporter TrkA&lt;br&gt;Location: 32571 - 33071&lt;br&gt;&lt;br&gt;&lt;b&gt;BlastP hit with ctg71_26&lt;/b&gt;&lt;br&gt;Percentage identity: 93&lt;br&gt;Percentage coverage: 98&lt;br&gt;BLAST bit score: 295&lt;br&gt;E-value: 4.5e-78" locus_tag="BMY97_RS38760" class="clusterblast-orf" id="dummy-1_h1_6_14"  />
</g>
<g id="a1_0015"  >
<polygon points="291,85 296,80 298,80 298,90 296,90 291,85 " style="fill:white; stroke-width:1; stroke:black; " description="&lt;b&gt;BMY97_RS38765&lt;/b&gt;&lt;br&gt;DUF4267 domain-containing protein&lt;br&gt;Location: 33101 - 33469" locus_tag="BMY97_RS38765" class="clusterblast-orf" id="dummy-1_h1_6_15"  />
</g>
<g id="a1_0016"  >
<polygon points="301,90 309,90 314,85 309,80 301,80 301,90 " style="fill:#d815a7; stroke-width:1; stroke:black; " description="&lt;b&gt;BMY97_RS38770&lt;/b&gt;&lt;br&gt;(d)CMP kinase&lt;br&gt;Location: 33657 - 34370&lt;br&gt;&lt;br&gt;&lt;b&gt;BlastP hit with ctg71_27&lt;/b&gt;&lt;br&gt;Percentage identity: 73&lt;br&gt;Percentage coverage: 99&lt;br&gt;BLAST bit score: 301&lt;br&gt;E-value: 9.3e-80" locus_tag="BMY97_RS38770" class="clusterblast-orf" id="dummy-1_h1_6_16"  />
</g>
<g id="a1_0017"  >
<polygon points="316,90 321,90 326,85 321,80 316,80 316,90 " style="fill:#d8d815; stroke-width:1; stroke:black; " description="&lt;b&gt;BMY97_RS38775&lt;/b&gt;&lt;br&gt;1-acyl-sn-glycerol-3-phosphate acyltransferase&lt;br&gt;Location: 34466 - 35026&lt;br&gt;&lt;br&gt;&lt;b&gt;BlastP hit with ctg71_28&lt;/b&gt;&lt;br&gt;Percentage identity: 72&lt;br&gt;Percentage coverage: 80&lt;br&gt;BLAST bit score: 264&lt;br&gt;E-value: 1.2e-68" locus_tag="BMY97_RS38775" class="clusterblast-orf" id="dummy-1_h1_6_17"  />
</g>
<g id="a1_0018"  >
<polygon points="326,90 348,90 353,85 348,80 326,80 326,90 " style="fill:#15d877; stroke-width:1; stroke:black; " description="&lt;b&gt;BMY97_RS38780&lt;/b&gt;&lt;br&gt;ribosome biogenesis GTPase Der&lt;br&gt;Location: 35042 - 36529&lt;br&gt;&lt;br&gt;&lt;b&gt;BlastP hit with ctg71_29&lt;/b&gt;&lt;br&gt;Percentage identity: 85&lt;br&gt;Percentage coverage: 100&lt;br&gt;BLAST bit score: 778&lt;br&gt;E-value: 5.1e-223" locus_tag="BMY97_RS38780" class="clusterblast-orf" id="dummy-1_h1_6_18"  />
</g>
<g id="a1_0019"  >
<polygon points="358,90 422,90 427,85 422,80 358,80 358,90 " style="fill:#1515d8; stroke-width:1; stroke:black; " description="&lt;b&gt;BMY97_RS38785&lt;/b&gt;&lt;br&gt;amino acid adenylation protein&lt;br&gt;Location: 36803 - 40696&lt;br&gt;&lt;br&gt;&lt;b&gt;BlastP hit with ctg71_30&lt;/b&gt;&lt;br&gt;Percentage identity: 71&lt;br&gt;Percentage coverage: 100&lt;br&gt;BLAST bit score: 1770&lt;br&gt;E-value: 0.0" locus_tag="BMY97_RS38785" class="clusterblast-orf" id="dummy-1_h1_6_19"  />
</g>
<g id="a1_0020"  >
<polygon points="429,90 449,90 454,85 449,80 429,80 429,90 " style="fill:#d81577; stroke-width:1; stroke:black; " description="&lt;b&gt;BMY97_RS38790&lt;/b&gt;&lt;br&gt;M1 family peptidase&lt;br&gt;Location: 40779 - 42182&lt;br&gt;&lt;br&gt;&lt;b&gt;BlastP hit with ctg71_31&lt;/b&gt;&lt;br&gt;Percentage identity: 63&lt;br&gt;Percentage coverage: 107&lt;br&gt;BLAST bit score: 554&lt;br&gt;E-value: 1e-155" locus_tag="BMY97_RS38790" class="clusterblast-orf" id="dummy-1_h1_6_20"  />
</g>
<g id="a1_0021"  >
<polygon points="455,90 478,90 483,85 478,80 455,80 455,90 " style="fill:white; stroke-width:1; stroke:black; " description="&lt;b&gt;BMY97_RS38795&lt;/b&gt;&lt;br&gt;hypothetical protein&lt;br&gt;Location: 42241 - 43773" locus_tag="BMY97_RS38795" class="clusterblast-orf" id="dummy-1_h1_6_21"  />
</g>
<g id="a1_0022"  >
<polygon points="484,90 506,90 511,85 506,80 484,80 484,90 " style="fill:white; stroke-width:1; stroke:black; " description="&lt;b&gt;BMY97_RS38800&lt;/b&gt;&lt;br&gt;hypothetical protein&lt;br&gt;Location: 43826 - 45370" locus_tag="BMY97_RS38800" class="clusterblast-orf" id="dummy-1_h1_6_22"  />
</g>
<g id="a1_0023"  >
<polygon points="512,85 517,80 543,80 543,90 517,90 512,85 " style="fill:white; stroke-width:1; stroke:black; " description="&lt;b&gt;BMY97_RS38805&lt;/b&gt;&lt;br&gt;2,4-dichlorophenol 6-monooxygenase&lt;br&gt;Location: 45401 - 47155" locus_tag="BMY97_RS38805" class="clusterblast-orf" id="dummy-1_h1_6_23"  />
</g>
<g id="a1_0024"  >
<polygon points="544,85 549,80 578,80 578,90 549,90 544,85 " style="fill:white; stroke-width:1; stroke:black; " description="&lt;b&gt;BMY97_RS38810&lt;/b&gt;&lt;br&gt;alcohol dehydrogenase&lt;br&gt;Location: 47169 - 49079" locus_tag="BMY97_RS38810" class="clusterblast-orf" id="dummy-1_h1_6_24"  />
</g>
<g id="a1_0025"  >
<polygon points="580,85 585,80 595,80 595,90 585,90 580,85 " style="fill:white; stroke-width:1; stroke:black; " description="&lt;b&gt;BMY97_RS38815&lt;/b&gt;&lt;br&gt;AraC family transcriptional regulator&lt;br&gt;Location: 49175 - 50059" locus_tag="BMY97_RS38815" class="clusterblast-orf" id="dummy-1_h1_6_25"  />
</g>
<g id="a1_0026"  >
<polygon points="597,85 602,80 611,80 611,90 602,90 597,85 " style="fill:white; stroke-width:1; stroke:black; " description="&lt;b&gt;BMY97_RS38820&lt;/b&gt;&lt;br&gt;NAD(P)-dependent oxidoreductase&lt;br&gt;Location: 50127 - 50951" locus_tag="BMY97_RS38820" class="clusterblast-orf" id="dummy-1_h1_6_26"  />
</g>
<g id="a1_0027"  >
<polygon points="613,85 618,80 628,80 628,90 618,90 613,85 " style="fill:white; stroke-width:1; stroke:black; " description="&lt;b&gt;BMY97_RS38825&lt;/b&gt;&lt;br&gt;IclR family transcriptional regulator&lt;br&gt;Location: 51041 - 51856" locus_tag="BMY97_RS38825" class="clusterblast-orf" id="dummy-1_h1_6_27"  />
</g>
<g id="a1_0028"  >
<polygon points="632,90 644,90 649,85 644,80 632,80 632,90 " style="fill:white; stroke-width:1; stroke:black; " description="&lt;b&gt;BMY97_RS38830&lt;/b&gt;&lt;br&gt;5-dehydro-4-deoxyglucarate dehydratase&lt;br&gt;Location: 52078 - 53019" locus_tag="BMY97_RS38830" class="clusterblast-orf" id="dummy-1_h1_6_28"  />
</g>
<g id="a1_0029"  >
<polygon points="649,90 666,90 671,85 666,80 649,80 649,90 " style="fill:white; stroke-width:1; stroke:black; " description="&lt;b&gt;BMY97_RS38835&lt;/b&gt;&lt;br&gt;glucarate dehydratase&lt;br&gt;Location: 53019 - 54275" locus_tag="BMY97_RS38835" class="clusterblast-orf" id="dummy-1_h1_6_29"  />
</g>
<g id="a1_0030"  >
<polygon points="671,90 687,90 692,85 687,80 671,80 671,90 " style="fill:white; stroke-width:1; stroke:black; " description="&lt;b&gt;BMY97_RS38840&lt;/b&gt;&lt;br&gt;hypothetical protein&lt;br&gt;Location: 54280 - 55425" locus_tag="BMY97_RS38840" class="clusterblast-orf" id="dummy-1_h1_6_30"  />
</g>
<g id="a1_0031"  >
<polygon points="692,90 713,90 718,85 713,80 692,80 692,90 " style="fill:white; stroke-width:1; stroke:black; " description="&lt;b&gt;BMY97_RS38845&lt;/b&gt;&lt;br&gt;aldehyde dehydrogenase (NADP(+))&lt;br&gt;Location: 55458 - 56912" locus_tag="BMY97_RS38845" class="clusterblast-orf" id="dummy-1_h1_6_31"  />
</g>
<g id="a1_0032"  >
<polygon points="720,90 758,90 763,85 758,80 720,80 720,90 " style="fill:white; stroke-width:1; stroke:black; " description="&lt;b&gt;BMY97_RS38850&lt;/b&gt;&lt;br&gt;hyaluronate lyase&lt;br&gt;Location: 57007 - 59370" locus_tag="BMY97_RS38850" class="clusterblast-orf" id="dummy-1_h1_6_32"  />
</g>
<g id="a1_0033"  >
<polygon points="764,85 769,80 779,80 779,90 769,90 764,85 " style="fill:white; stroke-width:1; stroke:black; " description="&lt;b&gt;BMY97_RS38855&lt;/b&gt;&lt;br&gt;epoxide hydrolase&lt;br&gt;Location: 59458 - 60313" locus_tag="BMY97_RS38855" class="clusterblast-orf" id="dummy-1_h1_6_33"  />
</g>
</svg>
