<svg xmlns="http://www.w3.org/2000/svg" xmlns:xlink="http://www.w3.org/1999/xlink" version="1.1" x="0" y="0" height="230" width="800" viewBox="0 0 800 230" preserveAspectRatio="none"  >
<g label="Query sequence" class="clusterblast-cluster"  >
<text x="5" y="20" class="clusterblast-acc"  >
Query sequence</text>
<line x1="10" y1="35" x2="778.0" y2="35" style="stroke-width:1; stroke:grey; "  />
<polygon points="1,35 6,30 259,30 259,40 6,40 1,35 " style="fill:#d81515; stroke-width:1; stroke:black; " description="&lt;b&gt;ctg3_36&lt;/b&gt;&lt;br&gt;ctg3 36&lt;br&gt;Location: 35638 - 38770" locus_tag="ctg3_36" class="clusterblast-orf" id="dummy-1_q0_0_all"  />
<polygon points="279,35 284,30 354,30 354,40 284,40 279,35 " style="fill:#15d815; stroke-width:1; stroke:black; " description="&lt;b&gt;ctg3_37&lt;/b&gt;&lt;br&gt;ctg3 37&lt;br&gt;Location: 39014 - 39917" locus_tag="ctg3_37" class="clusterblast-orf" id="dummy-1_q1_0_all"  />
<polygon points="359,35 364,30 392,30 392,40 364,40 359,35 " style="fill:#1597d8; stroke-width:1; stroke:black; " description="&lt;b&gt;ctg3_38&lt;/b&gt;&lt;br&gt;ctg3 38&lt;br&gt;Location: 39975 - 40383" locus_tag="ctg3_38" class="clusterblast-orf" id="dummy-1_q2_0_all"  />
<polygon points="394,35 399,30 497,30 497,40 399,40 394,35 " style="fill:#9715d8; stroke-width:1; stroke:black; " description="&lt;b&gt;ctg3_39&lt;/b&gt;&lt;br&gt;ctg3 39&lt;br&gt;Location: 40405 - 41659" locus_tag="ctg3_39" class="clusterblast-orf" id="dummy-1_q3_0_all"  />
<polygon points="503,35 508,30 544,30 544,40 508,40 503,35 " style="fill:#d89715; stroke-width:1; stroke:black; " description="&lt;b&gt;ctg3_40&lt;/b&gt;&lt;br&gt;ctg3 40&lt;br&gt;Location: 41726 - 42227" locus_tag="ctg3_40" class="clusterblast-orf" id="dummy-1_q4_0_all"  />
<polygon points="561,35 566,30 625,30 625,40 566,40 561,35 " style="fill:#15d897; stroke-width:1; stroke:black; " description="&lt;b&gt;ctg3_41&lt;/b&gt;&lt;br&gt;ctg3 41&lt;br&gt;Location: 42435 - 43212" locus_tag="ctg3_41" class="clusterblast-orf" id="dummy-1_q5_0_all"  />
<polygon points="628,35 633,30 656,30 656,40 633,40 628,35 " style="fill:#1515d8; stroke-width:1; stroke:black; " description="&lt;b&gt;ctg3_42&lt;/b&gt;&lt;br&gt;ctg3 42&lt;br&gt;Location: 43244 - 43592" locus_tag="ctg3_42" class="clusterblast-orf" id="dummy-1_q6_0_all"  />
<polygon points="660,35 665,30 727,30 727,40 665,40 660,35 " style="fill:#d81597; stroke-width:1; stroke:black; " description="&lt;b&gt;ctg3_43&lt;/b&gt;&lt;br&gt;ctg3 43&lt;br&gt;Location: 43635 - 44451" locus_tag="ctg3_43" class="clusterblast-orf" id="dummy-1_q7_0_all"  />
<polygon points="730,40 774,40 779,35 774,30 730,30 730,40 " style="fill:#97d815; stroke-width:1; stroke:black; " description="&lt;b&gt;ctg3_44&lt;/b&gt;&lt;br&gt;ctg3 44&lt;br&gt;Location: 44488 - 45085" locus_tag="ctg3_44" class="clusterblast-orf" id="dummy-1_q8_0_all"  />
</g>
<g label="NZ_AFWY03000004" description="NZ_AFWY03000004_c15: Amycolatopsis sp. ATCC 39116 strain 75iv2 Amy contig0008... (90% of genes show similarity), ectoine" class="clusterblast-cluster"  >
<text x="5" y="70" class="clusterblast-acc"  >
<a xlink:href="https://antismash-db.secondarymetabolites.org/go/NZ_AFWY03000004/15" target="_blank">NZ_AFWY03000004_c15</a>: Amycolatopsis sp. ATCC 39116 strain 75iv2 Amy contig0008... (90% of genes show similarity), ectoine</text>
<line x1="10" y1="85" x2="778.0" y2="85" style="stroke-width:1; stroke:grey; "  />
</g>
<g id="a1_000"  >
<polygon points="0,85 5,80 20,80 20,90 5,90 0,85 " style="fill:white; stroke-width:1; stroke:black; " description="&lt;b&gt;AMY39116_RS0307070&lt;/b&gt;&lt;br&gt;hypothetical protein&lt;br&gt;Location: 188181 - 188435" locus_tag="AMY39116_RS0307070" class="clusterblast-orf" id="dummy-1_h1_1_0"  />
</g>
<g id="a1_001"  >
<polygon points="36,85 41,80 259,80 259,90 41,90 36,85 " style="fill:#d81515; stroke-width:1; stroke:black; " description="&lt;b&gt;AMY39116_RS0307075&lt;/b&gt;&lt;br&gt;tetratricopeptide repeat protein&lt;br&gt;Location: 188627 - 191332&lt;br&gt;&lt;br&gt;&lt;b&gt;BlastP hit with ctg3_36&lt;/b&gt;&lt;br&gt;Percentage identity: 66&lt;br&gt;Percentage coverage: 86&lt;br&gt;BLAST bit score: 1099&lt;br&gt;E-value: 0.0" locus_tag="AMY39116_RS0307075" class="clusterblast-orf" id="dummy-1_h1_1_1"  />
</g>
<g id="a1_002"  >
<polygon points="279,85 284,80 353,80 353,90 284,90 279,85 " style="fill:#15d815; stroke-width:1; stroke:black; " description="&lt;b&gt;AMY39116_RS0307080&lt;/b&gt;&lt;br&gt;ectoine hydroxylase&lt;br&gt;Location: 191578 - 192480&lt;br&gt;&lt;br&gt;&lt;b&gt;BlastP hit with ctg3_37&lt;/b&gt;&lt;br&gt;Percentage identity: 95&lt;br&gt;Percentage coverage: 100&lt;br&gt;BLAST bit score: 595&lt;br&gt;E-value: 3e-168" locus_tag="AMY39116_RS0307080" class="clusterblast-orf" id="dummy-1_h1_1_2"  />
</g>
<g id="a1_003"  >
<polygon points="358,85 363,80 392,80 392,90 363,90 358,85 " style="fill:#1597d8; stroke-width:1; stroke:black; " description="&lt;b&gt;AMY39116_RS0307085&lt;/b&gt;&lt;br&gt;ectoine synthase&lt;br&gt;Location: 192538 - 192951&lt;br&gt;&lt;br&gt;&lt;b&gt;BlastP hit with ctg3_38&lt;/b&gt;&lt;br&gt;Percentage identity: 89&lt;br&gt;Percentage coverage: 101&lt;br&gt;BLAST bit score: 258&lt;br&gt;E-value: 5.1e-67" locus_tag="AMY39116_RS0307085" class="clusterblast-orf" id="dummy-1_h1_1_3"  />
</g>
<g id="a1_004"  >
<polygon points="394,85 399,80 497,80 497,90 399,90 394,85 " style="fill:#9715d8; stroke-width:1; stroke:black; " description="&lt;b&gt;AMY39116_RS0307090&lt;/b&gt;&lt;br&gt;diaminobutyrate--2-oxoglutarate transaminase&lt;br&gt;Location: 192976 - 194229&lt;br&gt;&lt;br&gt;&lt;b&gt;BlastP hit with ctg3_39&lt;/b&gt;&lt;br&gt;Percentage identity: 96&lt;br&gt;Percentage coverage: 100&lt;br&gt;BLAST bit score: 822&lt;br&gt;E-value: 1.6e-236" locus_tag="AMY39116_RS0307090" class="clusterblast-orf" id="dummy-1_h1_1_4"  />
</g>
<g id="a1_005"  >
<polygon points="503,85 508,80 544,80 544,90 508,90 503,85 " style="fill:#d89715; stroke-width:1; stroke:black; " description="&lt;b&gt;AMY39116_RS0307095&lt;/b&gt;&lt;br&gt;diaminobutyrate acetyltransferase&lt;br&gt;Location: 194298 - 194798&lt;br&gt;&lt;br&gt;&lt;b&gt;BlastP hit with ctg3_40&lt;/b&gt;&lt;br&gt;Percentage identity: 94&lt;br&gt;Percentage coverage: 100&lt;br&gt;BLAST bit score: 322&lt;br&gt;E-value: 3.5e-86" locus_tag="AMY39116_RS0307095" class="clusterblast-orf" id="dummy-1_h1_1_5"  />
</g>
<g id="a1_006"  >
<polygon points="562,85 567,80 625,80 625,90 567,90 562,85 " style="fill:#15d897; stroke-width:1; stroke:black; " description="&lt;b&gt;AMY39116_RS0307100&lt;/b&gt;&lt;br&gt;DUF4393 domain-containing protein&lt;br&gt;Location: 195009 - 195785&lt;br&gt;&lt;br&gt;&lt;b&gt;BlastP hit with ctg3_41&lt;/b&gt;&lt;br&gt;Percentage identity: 92&lt;br&gt;Percentage coverage: 100&lt;br&gt;BLAST bit score: 474&lt;br&gt;E-value: 6.6e-132" locus_tag="AMY39116_RS0307100" class="clusterblast-orf" id="dummy-1_h1_1_6"  />
</g>
<g id="a1_007"  >
<polygon points="628,85 633,80 657,80 657,90 633,90 628,85 " style="fill:#1515d8; stroke-width:1; stroke:black; " description="&lt;b&gt;AMY39116_RS0307105&lt;/b&gt;&lt;br&gt;DUF1049 domain-containing protein&lt;br&gt;Location: 195819 - 196163&lt;br&gt;&lt;br&gt;&lt;b&gt;BlastP hit with ctg3_42&lt;/b&gt;&lt;br&gt;Percentage identity: 89&lt;br&gt;Percentage coverage: 100&lt;br&gt;BLAST bit score: 160&lt;br&gt;E-value: 1.2e-37" locus_tag="AMY39116_RS0307105" class="clusterblast-orf" id="dummy-1_h1_1_7"  />
</g>
<g id="a1_008"  >
<polygon points="660,85 665,80 727,80 727,90 665,90 660,85 " style="fill:#d81597; stroke-width:1; stroke:black; " description="&lt;b&gt;AMY39116_RS0307110&lt;/b&gt;&lt;br&gt;class I SAM-dependent methyltransferase&lt;br&gt;Location: 196206 - 197021&lt;br&gt;&lt;br&gt;&lt;b&gt;BlastP hit with ctg3_43&lt;/b&gt;&lt;br&gt;Percentage identity: 80&lt;br&gt;Percentage coverage: 100&lt;br&gt;BLAST bit score: 443&lt;br&gt;E-value: 1.3e-122" locus_tag="AMY39116_RS0307110" class="clusterblast-orf" id="dummy-1_h1_1_8"  />
</g>
<g id="a1_009"  >
<polygon points="732,90 775,90 780,85 775,80 732,80 732,90 " style="fill:#97d815; stroke-width:1; stroke:black; " description="&lt;b&gt;AMY39116_RS0307115&lt;/b&gt;&lt;br&gt;TetR/AcrR family transcriptional regulator&lt;br&gt;Location: 197084 - 197656&lt;br&gt;&lt;br&gt;&lt;b&gt;BlastP hit with ctg3_44&lt;/b&gt;&lt;br&gt;Percentage identity: 91&lt;br&gt;Percentage coverage: 96&lt;br&gt;BLAST bit score: 342&lt;br&gt;E-value: 3e-92" locus_tag="AMY39116_RS0307115" class="clusterblast-orf" id="dummy-1_h1_1_9"  />
</g>
</svg>
