<svg xmlns="http://www.w3.org/2000/svg" xmlns:xlink="http://www.w3.org/1999/xlink" version="1.1" x="0" y="0" height="230" width="800" viewBox="0 0 800 230" preserveAspectRatio="none"  >
<g label="Query sequence" class="clusterblast-cluster"  >
<text x="5" y="20" class="clusterblast-acc"  >
Query sequence</text>
<line x1="10" y1="35" x2="778.0" y2="35" style="stroke-width:1; stroke:grey; "  />
<polygon points="323,40 334,40 339,35 334,30 323,30 323,40 " style="fill:#d81515; stroke-width:1; stroke:black; " description="&lt;b&gt;ctg155_1&lt;/b&gt;&lt;br&gt;ctg155 1&lt;br&gt;Location: 0 - 990" locus_tag="ctg155_1" class="clusterblast-orf" id="dummy-1_q0_0_all"  />
<polygon points="339,40 355,40 360,35 355,30 339,30 339,40 " style="fill:#15d863; stroke-width:1; stroke:black; " description="&lt;b&gt;ctg155_2&lt;/b&gt;&lt;br&gt;ctg155 2&lt;br&gt;Location: 986 - 2267" locus_tag="ctg155_2" class="clusterblast-orf" id="dummy-1_q1_0_all"  />
<polygon points="360,40 383,40 388,35 383,30 360,30 360,40 " style="fill:#1563d8; stroke-width:1; stroke:black; " description="&lt;b&gt;ctg155_3&lt;/b&gt;&lt;br&gt;ctg155 3&lt;br&gt;Location: 2269 - 4033" locus_tag="ctg155_3" class="clusterblast-orf" id="dummy-1_q2_0_all"  />
<polygon points="388,40 404,40 409,35 404,30 388,30 388,40 " style="fill:#b115d8; stroke-width:1; stroke:black; " description="&lt;b&gt;ctg155_4&lt;/b&gt;&lt;br&gt;ctg155 4&lt;br&gt;Location: 4026 - 5355" locus_tag="ctg155_4" class="clusterblast-orf" id="dummy-1_q3_0_all"  />
<polygon points="408,35 413,30 428,30 428,40 413,40 408,35 " style="fill:#b1d815; stroke-width:1; stroke:black; " description="&lt;b&gt;ctg155_5&lt;/b&gt;&lt;br&gt;ctg155 5&lt;br&gt;Location: 5314 - 6553" locus_tag="ctg155_5" class="clusterblast-orf" id="dummy-1_q4_0_all"  />
<polygon points="435,35 440,30 453,30 453,40 440,40 435,35 " style="fill:white; stroke-width:1; stroke:black; " description="&lt;b&gt;ctg155_6&lt;/b&gt;&lt;br&gt;ctg155 6&lt;br&gt;Location: 6976 - 8128" locus_tag="ctg155_6" class="clusterblast-orf" id="dummy-1_q5_0_all"  />
<polygon points="453,35 456,30 456,40 453,35 " style="fill:white; stroke-width:1; stroke:black; " description="&lt;b&gt;ctg155_7&lt;/b&gt;&lt;br&gt;ctg155 7&lt;br&gt;Location: 8111 - 8318" locus_tag="ctg155_7" class="clusterblast-orf" id="dummy-1_q6_0_all"  />
</g>
<g label="NZ_ARVW01000001" description="NZ_ARVW01000001_c21: Amycolatopsis nigrescens CSC17Ta-90 AmyniDRAFT Contig68.... (10% of genes show similarity), arylpolyene-siderophore" class="clusterblast-cluster"  >
<text x="5" y="70" class="clusterblast-acc"  >
<a xlink:href="https://antismash-db.secondarymetabolites.org/go/NZ_ARVW01000001/21" target="_blank">NZ_ARVW01000001_c21</a>: Amycolatopsis nigrescens CSC17Ta-90 AmyniDRAFT Contig68.... (10% of genes show similarity), arylpolyene-siderophore</text>
<line x1="10" y1="85" x2="778.0" y2="85" style="stroke-width:1; stroke:grey; "  />
</g>
<g id="a1_000"  >
<polygon points="0,85 5,80 8,80 8,90 5,90 0,85 " style="fill:white; stroke-width:1; stroke:black; " description="&lt;b&gt;AMYNI_RS0130765&lt;/b&gt;&lt;br&gt;GNAT family N-acetyltransferase&lt;br&gt;Location: 6454637 - 6455158" locus_tag="AMYNI_RS0130765" class="clusterblast-orf" id="dummy-1_h1_5_0"  />
</g>
<g id="a1_001"  >
<polygon points="8,85 13,80 18,80 18,90 13,90 8,85 " style="fill:white; stroke-width:1; stroke:black; " description="&lt;b&gt;AMYNI_RS0130770&lt;/b&gt;&lt;br&gt;hypothetical protein&lt;br&gt;Location: 6455184 - 6455786" locus_tag="AMYNI_RS0130770" class="clusterblast-orf" id="dummy-1_h1_5_1"  />
</g>
<g id="a1_002"  >
<polygon points="18,85 23,80 26,80 26,90 23,90 18,85 " style="fill:white; stroke-width:1; stroke:black; " description="&lt;b&gt;AMYNI_RS0130775&lt;/b&gt;&lt;br&gt;hypothetical protein&lt;br&gt;Location: 6455783 - 6456319" locus_tag="AMYNI_RS0130775" class="clusterblast-orf" id="dummy-1_h1_5_2"  />
</g>
<g id="a1_003"  >
<polygon points="27,85 32,80 32,80 32,90 32,90 27,85 " style="fill:white; stroke-width:1; stroke:black; " description="&lt;b&gt;AMYNI_RS0130780&lt;/b&gt;&lt;br&gt;Asp23/Gls24 family envelope stress response protein&lt;br&gt;Location: 6456351 - 6456707" locus_tag="AMYNI_RS0130780" class="clusterblast-orf" id="dummy-1_h1_5_3"  />
</g>
<g id="a1_004"  >
<polygon points="36,85 40,80 40,90 36,85 " style="fill:white; stroke-width:1; stroke:black; " description="&lt;b&gt;AMYNI_RS45660&lt;/b&gt;&lt;br&gt;hypothetical protein&lt;br&gt;Location: 6456910 - 6457209" locus_tag="AMYNI_RS45660" class="clusterblast-orf" id="dummy-1_h1_5_4"  />
</g>
<g id="a1_005"  >
<polygon points="40,85 45,80 46,80 46,90 45,90 40,85 " style="fill:white; stroke-width:1; stroke:black; " description="&lt;b&gt;AMYNI_RS0130795&lt;/b&gt;&lt;br&gt;hypothetical protein&lt;br&gt;Location: 6457206 - 6457544" locus_tag="AMYNI_RS0130795" class="clusterblast-orf" id="dummy-1_h1_5_5"  />
</g>
<g id="a1_006"  >
<polygon points="47,85 52,80 54,80 54,90 52,90 47,85 " style="fill:white; stroke-width:1; stroke:black; " description="&lt;b&gt;AMYNI_RS0130800&lt;/b&gt;&lt;br&gt;Asp23/Gls24 family envelope stress response protein&lt;br&gt;Location: 6457591 - 6458055" locus_tag="AMYNI_RS0130800" class="clusterblast-orf" id="dummy-1_h1_5_6"  />
</g>
<g id="a1_007"  >
<polygon points="56,85 61,80 62,80 62,90 61,90 56,85 " style="fill:white; stroke-width:1; stroke:black; " description="&lt;b&gt;AMYNI_RS0130805&lt;/b&gt;&lt;br&gt;hypothetical protein&lt;br&gt;Location: 6458157 - 6458546" locus_tag="AMYNI_RS0130805" class="clusterblast-orf" id="dummy-1_h1_5_7"  />
</g>
<g id="a1_008"  >
<polygon points="63,85 68,80 72,80 72,90 68,90 63,85 " style="fill:white; stroke-width:1; stroke:black; " description="&lt;b&gt;AMYNI_RS0130810&lt;/b&gt;&lt;br&gt;hypothetical protein&lt;br&gt;Location: 6458594 - 6459217" locus_tag="AMYNI_RS0130810" class="clusterblast-orf" id="dummy-1_h1_5_8"  />
</g>
<g id="a1_009"  >
<polygon points="72,85 77,80 85,80 85,90 77,90 72,85 " style="fill:white; stroke-width:1; stroke:black; " description="&lt;b&gt;AMYNI_RS0130815&lt;/b&gt;&lt;br&gt;pyrimidine reductase family protein&lt;br&gt;Location: 6459214 - 6459984" locus_tag="AMYNI_RS0130815" class="clusterblast-orf" id="dummy-1_h1_5_9"  />
</g>
<g id="a1_0010"  >
<polygon points="86,90 98,90 103,85 98,80 86,80 86,90 " style="fill:white; stroke-width:1; stroke:black; " description="&lt;b&gt;AMYNI_RS0130820&lt;/b&gt;&lt;br&gt;cell division protein ZapE&lt;br&gt;Location: 6460060 - 6461109" locus_tag="AMYNI_RS0130820" class="clusterblast-orf" id="dummy-1_h1_5_10"  />
</g>
<g id="a1_0011"  >
<polygon points="101,85 106,80 111,80 111,90 106,90 101,85 " style="fill:white; stroke-width:1; stroke:black; " description="&lt;b&gt;AMYNI_RS45665&lt;/b&gt;&lt;br&gt;phosphatase PAP2 family protein&lt;br&gt;Location: 6461009 - 6461653" locus_tag="AMYNI_RS45665" class="clusterblast-orf" id="dummy-1_h1_5_11"  />
</g>
<g id="a1_0012"  >
<polygon points="113,90 133,90 138,85 133,80 113,80 113,90 " style="fill:white; stroke-width:1; stroke:black; " description="&lt;b&gt;AMYNI_RS0130830&lt;/b&gt;&lt;br&gt;ABC transporter ATP-binding protein&lt;br&gt;Location: 6461736 - 6463358" locus_tag="AMYNI_RS0130830" class="clusterblast-orf" id="dummy-1_h1_5_12"  />
</g>
<g id="a1_0013"  >
<polygon points="139,90 148,90 153,85 148,80 139,80 139,90 " style="fill:white; stroke-width:1; stroke:black; " description="&lt;b&gt;AMYNI_RS0130835&lt;/b&gt;&lt;br&gt;FAD-dependent oxidoreductase&lt;br&gt;Location: 6463368 - 6464276" locus_tag="AMYNI_RS0130835" class="clusterblast-orf" id="dummy-1_h1_5_13"  />
</g>
<g id="a1_0014"  >
<polygon points="155,85 160,80 177,80 177,90 160,90 155,85 " style="fill:white; stroke-width:1; stroke:black; " description="&lt;b&gt;AMYNI_RS0130840&lt;/b&gt;&lt;br&gt;DUF2252 domain-containing protein&lt;br&gt;Location: 6464399 - 6465793" locus_tag="AMYNI_RS0130840" class="clusterblast-orf" id="dummy-1_h1_5_14"  />
</g>
<g id="a1_0015"  >
<polygon points="179,85 184,80 198,80 198,90 184,90 179,85 " style="fill:white; stroke-width:1; stroke:black; " description="&lt;b&gt;AMYNI_RS0130845&lt;/b&gt;&lt;br&gt;ornithine--oxo-acid transaminase&lt;br&gt;Location: 6465874 - 6467100" locus_tag="AMYNI_RS0130845" class="clusterblast-orf" id="dummy-1_h1_5_15"  />
</g>
<g id="a1_0016"  >
<polygon points="201,90 210,90 215,85 210,80 201,80 201,90 " style="fill:white; stroke-width:1; stroke:black; " description="&lt;b&gt;AMYNI_RS0130850&lt;/b&gt;&lt;br&gt;phosphate--nucleotide phosphotransferase&lt;br&gt;Location: 6467279 - 6468142" locus_tag="AMYNI_RS0130850" class="clusterblast-orf" id="dummy-1_h1_5_16"  />
</g>
<g id="a1_0017"  >
<polygon points="215,90 243,90 248,85 243,80 215,80 215,90 " style="fill:white; stroke-width:1; stroke:black; " description="&lt;b&gt;AMYNI_RS0130855&lt;/b&gt;&lt;br&gt;S9 family peptidase&lt;br&gt;Location: 6468164 - 6470236" locus_tag="AMYNI_RS0130855" class="clusterblast-orf" id="dummy-1_h1_5_17"  />
</g>
<g id="a1_0018"  >
<polygon points="248,90 258,90 263,85 258,80 248,80 248,90 " style="fill:white; stroke-width:1; stroke:black; " description="&lt;b&gt;AMYNI_RS0130860&lt;/b&gt;&lt;br&gt;LLM class F420-dependent oxidoreductase&lt;br&gt;Location: 6470248 - 6471198" locus_tag="AMYNI_RS0130860" class="clusterblast-orf" id="dummy-1_h1_5_18"  />
</g>
<g id="a1_0019"  >
<polygon points="271,90 290,90 295,85 290,80 271,80 271,90 " style="fill:#d81515; stroke-width:1; stroke:black; " description="&lt;b&gt;AMYNI_RS45670&lt;/b&gt;&lt;br&gt;aspartate aminotransferase family protein&lt;br&gt;Location: 6471699 - 6473192&lt;br&gt;&lt;br&gt;&lt;b&gt;BlastP hit with ctg155_1&lt;/b&gt;&lt;br&gt;Percentage identity: 70&lt;br&gt;Percentage coverage: 104&lt;br&gt;BLAST bit score: 448&lt;br&gt;E-value: 8.4e-124" locus_tag="AMYNI_RS45670" class="clusterblast-orf" id="dummy-1_h1_5_19"  />
</g>
<g id="a1_0020"  >
<polygon points="295,90 311,90 316,85 311,80 295,80 295,90 " style="fill:#15d863; stroke-width:1; stroke:black; " description="&lt;b&gt;AMYNI_RS0130875&lt;/b&gt;&lt;br&gt;hypothetical protein&lt;br&gt;Location: 6473189 - 6474490&lt;br&gt;&lt;br&gt;&lt;b&gt;BlastP hit with ctg155_2&lt;/b&gt;&lt;br&gt;Percentage identity: 72&lt;br&gt;Percentage coverage: 100&lt;br&gt;BLAST bit score: 623&lt;br&gt;E-value: 2.5e-176" locus_tag="AMYNI_RS0130875" class="clusterblast-orf" id="dummy-1_h1_5_20"  />
</g>
<g id="a1_0021"  >
<polygon points="316,90 340,90 345,85 340,80 316,80 316,90 " style="fill:#1563d8; stroke-width:1; stroke:black; " description="&lt;b&gt;AMYNI_RS0130880&lt;/b&gt;&lt;br&gt;IucA/IucC family siderophore biosynthesis protein&lt;br&gt;Location: 6474493 - 6476298&lt;br&gt;&lt;br&gt;&lt;b&gt;BlastP hit with ctg155_3&lt;/b&gt;&lt;br&gt;Percentage identity: 76&lt;br&gt;Percentage coverage: 101&lt;br&gt;BLAST bit score: 923&lt;br&gt;E-value: 1.2e-266" locus_tag="AMYNI_RS0130880" class="clusterblast-orf" id="dummy-1_h1_5_21"  />
</g>
<g id="a1_0022"  >
<polygon points="345,90 361,90 366,85 361,80 345,80 345,90 " style="fill:#b115d8; stroke-width:1; stroke:black; " description="&lt;b&gt;AMYNI_RS0130885&lt;/b&gt;&lt;br&gt;glutamine synthetase&lt;br&gt;Location: 6476292 - 6477659&lt;br&gt;&lt;br&gt;&lt;b&gt;BlastP hit with ctg155_4&lt;/b&gt;&lt;br&gt;Percentage identity: 67&lt;br&gt;Percentage coverage: 103&lt;br&gt;BLAST bit score: 558&lt;br&gt;E-value: 7.8e-157" locus_tag="AMYNI_RS0130885" class="clusterblast-orf" id="dummy-1_h1_5_22"  />
</g>
<g id="a1_0023"  >
<polygon points="366,85 371,80 385,80 385,90 371,90 366,85 " style="fill:#b1d815; stroke-width:1; stroke:black; " description="&lt;b&gt;AMYNI_RS0130890&lt;/b&gt;&lt;br&gt;DUF2029 domain-containing protein&lt;br&gt;Location: 6477619 - 6478854&lt;br&gt;&lt;br&gt;&lt;b&gt;BlastP hit with ctg155_5&lt;/b&gt;&lt;br&gt;Percentage identity: 58&lt;br&gt;Percentage coverage: 100&lt;br&gt;BLAST bit score: 454&lt;br&gt;E-value: 1.1e-125" locus_tag="AMYNI_RS0130890" class="clusterblast-orf" id="dummy-1_h1_5_23"  />
</g>
<g id="a1_0024"  >
<polygon points="388,90 394,90 399,85 394,80 388,80 388,90 " style="fill:white; stroke-width:1; stroke:black; " description="&lt;b&gt;AMYNI_RS0130895&lt;/b&gt;&lt;br&gt;DJ-1/PfpI family protein&lt;br&gt;Location: 6478990 - 6479694" locus_tag="AMYNI_RS0130895" class="clusterblast-orf" id="dummy-1_h1_5_24"  />
</g>
<g id="a1_0025"  >
<polygon points="400,85 405,80 444,80 444,90 405,90 400,85 " style="fill:white; stroke-width:1; stroke:black; " description="&lt;b&gt;AMYNI_RS0130900&lt;/b&gt;&lt;br&gt;PAS domain S-box protein&lt;br&gt;Location: 6479759 - 6482554" locus_tag="AMYNI_RS0130900" class="clusterblast-orf" id="dummy-1_h1_5_25"  />
</g>
<g id="a1_0026"  >
<polygon points="449,90 461,90 466,85 461,80 449,80 449,90 " style="fill:white; stroke-width:1; stroke:black; " description="&lt;b&gt;AMYNI_RS0130905&lt;/b&gt;&lt;br&gt;hypothetical protein&lt;br&gt;Location: 6482836 - 6483930" locus_tag="AMYNI_RS0130905" class="clusterblast-orf" id="dummy-1_h1_5_26"  />
</g>
<g id="a1_0027"  >
<polygon points="467,85 471,80 471,90 467,85 " style="fill:white; stroke-width:1; stroke:black; " description="&lt;b&gt;AMYNI_RS45675&lt;/b&gt;&lt;br&gt;hypothetical protein&lt;br&gt;Location: 6483987 - 6484208" locus_tag="AMYNI_RS45675" class="clusterblast-orf" id="dummy-1_h1_5_27"  />
</g>
<g id="a1_0028"  >
<polygon points="483,90 493,90 498,85 493,80 483,80 483,90 " style="fill:white; stroke-width:1; stroke:black; " description="&lt;b&gt;AMYNI_RS0130915&lt;/b&gt;&lt;br&gt;hypothetical protein&lt;br&gt;Location: 6484970 - 6485923" locus_tag="AMYNI_RS0130915" class="clusterblast-orf" id="dummy-1_h1_5_28"  />
</g>
<g id="a1_0029"  >
<polygon points="500,90 518,90 523,85 518,80 500,80 500,90 " style="fill:white; stroke-width:1; stroke:black; " description="&lt;b&gt;AMYNI_RS0130920&lt;/b&gt;&lt;br&gt;amino acid permease&lt;br&gt;Location: 6486051 - 6487469" locus_tag="AMYNI_RS0130920" class="clusterblast-orf" id="dummy-1_h1_5_29"  />
</g>
<g id="a1_0030"  >
<polygon points="524,90 531,90 536,85 531,80 524,80 524,90 " style="fill:white; stroke-width:1; stroke:black; " description="&lt;b&gt;AMYNI_RS0130925&lt;/b&gt;&lt;br&gt;magnesium transporter MgtC&lt;br&gt;Location: 6487530 - 6488282" locus_tag="AMYNI_RS0130925" class="clusterblast-orf" id="dummy-1_h1_5_30"  />
</g>
<g id="a1_0031"  >
<polygon points="536,90 555,90 560,85 555,80 536,80 536,90 " style="fill:white; stroke-width:1; stroke:black; " description="&lt;b&gt;AMYNI_RS0130930&lt;/b&gt;&lt;br&gt;DUF2867 domain-containing protein&lt;br&gt;Location: 6488279 - 6489802" locus_tag="AMYNI_RS0130930" class="clusterblast-orf" id="dummy-1_h1_5_31"  />
</g>
<g id="a1_0032"  >
<polygon points="561,90 565,90 570,85 565,80 561,80 561,90 " style="fill:white; stroke-width:1; stroke:black; " description="&lt;b&gt;AMYNI_RS0130935&lt;/b&gt;&lt;br&gt;hypothetical protein&lt;br&gt;Location: 6489885 - 6490424" locus_tag="AMYNI_RS0130935" class="clusterblast-orf" id="dummy-1_h1_5_32"  />
</g>
<g id="a1_0033"  >
<polygon points="571,90 575,85 571,80 571,90 " style="fill:white; stroke-width:1; stroke:black; " description="&lt;b&gt;AMYNI_RS0130940&lt;/b&gt;&lt;br&gt;transcriptional regulator&lt;br&gt;Location: 6490499 - 6490768" locus_tag="AMYNI_RS0130940" class="clusterblast-orf" id="dummy-1_h1_5_33"  />
</g>
<g id="a1_0034"  >
<polygon points="576,90 583,90 588,85 583,80 576,80 576,90 " style="fill:white; stroke-width:1; stroke:black; " description="&lt;b&gt;AMYNI_RS0130945&lt;/b&gt;&lt;br&gt;hypothetical protein&lt;br&gt;Location: 6490823 - 6491590" locus_tag="AMYNI_RS0130945" class="clusterblast-orf" id="dummy-1_h1_5_34"  />
</g>
<g id="a1_0035"  >
<polygon points="588,85 593,80 599,80 599,90 593,90 588,85 " style="fill:white; stroke-width:1; stroke:black; " description="&lt;b&gt;AMYNI_RS0130950&lt;/b&gt;&lt;br&gt;histidine phosphatase family protein&lt;br&gt;Location: 6491553 - 6492236" locus_tag="AMYNI_RS0130950" class="clusterblast-orf" id="dummy-1_h1_5_35"  />
</g>
<g id="a1_0036"  >
<polygon points="599,85 604,80 605,80 605,90 604,90 599,85 " style="fill:white; stroke-width:1; stroke:black; " description="&lt;b&gt;AMYNI_RS0130955&lt;/b&gt;&lt;br&gt;hypothetical protein&lt;br&gt;Location: 6492258 - 6492650" locus_tag="AMYNI_RS0130955" class="clusterblast-orf" id="dummy-1_h1_5_36"  />
</g>
<g id="a1_0037"  >
<polygon points="611,90 614,85 611,80 611,90 " style="fill:white; stroke-width:1; stroke:black; " description="&lt;b&gt;AMYNI_RS45680&lt;/b&gt;&lt;br&gt;hypothetical protein&lt;br&gt;Location: 6493011 - 6493214" locus_tag="AMYNI_RS45680" class="clusterblast-orf" id="dummy-1_h1_5_37"  />
</g>
<g id="a1_0038"  >
<polygon points="617,85 622,80 635,80 635,90 622,90 617,85 " style="fill:white; stroke-width:1; stroke:black; " description="&lt;b&gt;AMYNI_RS0130970&lt;/b&gt;&lt;br&gt;alanine dehydrogenase&lt;br&gt;Location: 6493376 - 6494521" locus_tag="AMYNI_RS0130970" class="clusterblast-orf" id="dummy-1_h1_5_38"  />
</g>
<g id="a1_0039"  >
<polygon points="636,85 641,80 643,80 643,90 641,90 636,85 " style="fill:white; stroke-width:1; stroke:black; " description="&lt;b&gt;AMYNI_RS0130975&lt;/b&gt;&lt;br&gt;ribonuclease HI&lt;br&gt;Location: 6494596 - 6495033" locus_tag="AMYNI_RS0130975" class="clusterblast-orf" id="dummy-1_h1_5_39"  />
</g>
<g id="a1_0040"  >
<polygon points="644,85 649,80 654,80 654,90 649,90 644,85 " style="fill:white; stroke-width:1; stroke:black; " description="&lt;b&gt;AMYNI_RS0130980&lt;/b&gt;&lt;br&gt;hypothetical protein&lt;br&gt;Location: 6495100 - 6495735" locus_tag="AMYNI_RS0130980" class="clusterblast-orf" id="dummy-1_h1_5_40"  />
</g>
<g id="a1_0041"  >
<polygon points="657,85 662,80 680,80 680,90 662,90 657,85 " style="fill:white; stroke-width:1; stroke:black; " description="&lt;b&gt;AMYNI_RS0130985&lt;/b&gt;&lt;br&gt;MFS transporter&lt;br&gt;Location: 6495891 - 6497345" locus_tag="AMYNI_RS0130985" class="clusterblast-orf" id="dummy-1_h1_5_41"  />
</g>
<g id="a1_0042"  >
<polygon points="681,90 682,90 687,85 682,80 681,80 681,90 " style="fill:white; stroke-width:1; stroke:black; " description="&lt;b&gt;AMYNI_RS0130990&lt;/b&gt;&lt;br&gt;MarR family transcriptional regulator&lt;br&gt;Location: 6497431 - 6497814" locus_tag="AMYNI_RS0130990" class="clusterblast-orf" id="dummy-1_h1_5_42"  />
</g>
<g id="a1_0043"  >
<polygon points="692,90 703,90 708,85 703,80 692,80 692,90 " style="fill:white; stroke-width:1; stroke:black; " description="&lt;b&gt;AMYNI_RS0131000&lt;/b&gt;&lt;br&gt;AraC family transcriptional regulator&lt;br&gt;Location: 6498092 - 6499090" locus_tag="AMYNI_RS0131000" class="clusterblast-orf" id="dummy-1_h1_5_43"  />
</g>
<g id="a1_0044"  >
<polygon points="710,90 724,90 729,85 724,80 710,80 710,90 " style="fill:white; stroke-width:1; stroke:black; " description="&lt;b&gt;AMYNI_RS0131005&lt;/b&gt;&lt;br&gt;Bcr/CflA family drug resistance efflux transporter&lt;br&gt;Location: 6499220 - 6500440" locus_tag="AMYNI_RS0131005" class="clusterblast-orf" id="dummy-1_h1_5_44"  />
</g>
<g id="a1_0045"  >
<polygon points="732,90 743,90 748,85 743,80 732,80 732,90 " style="fill:white; stroke-width:1; stroke:black; " description="&lt;b&gt;AMYNI_RS0131010&lt;/b&gt;&lt;br&gt;hypothetical protein&lt;br&gt;Location: 6500624 - 6501619" locus_tag="AMYNI_RS0131010" class="clusterblast-orf" id="dummy-1_h1_5_45"  />
</g>
<g id="a1_0046"  >
<polygon points="754,90 758,85 754,80 754,90 " style="fill:white; stroke-width:1; stroke:black; " description="&lt;b&gt;AMYNI_RS0131020&lt;/b&gt;&lt;br&gt;prevent-host-death family protein&lt;br&gt;Location: 6501996 - 6502274" locus_tag="AMYNI_RS0131020" class="clusterblast-orf" id="dummy-1_h1_5_46"  />
</g>
<g id="a1_0047"  >
<polygon points="758,90 760,90 765,85 760,80 758,80 758,90 " style="fill:white; stroke-width:1; stroke:black; " description="&lt;b&gt;AMYNI_RS0131025&lt;/b&gt;&lt;br&gt;twitching motility protein PilT&lt;br&gt;Location: 6502267 - 6502671" locus_tag="AMYNI_RS0131025" class="clusterblast-orf" id="dummy-1_h1_5_47"  />
</g>
<g id="a1_0048"  >
<polygon points="769,85 774,80 779,80 779,90 774,90 769,85 " style="fill:white; stroke-width:1; stroke:black; " description="&lt;b&gt;AMYNI_RS0131030&lt;/b&gt;&lt;br&gt;MBL fold metallo-hydrolase&lt;br&gt;Location: 6502916 - 6503593" locus_tag="AMYNI_RS0131030" class="clusterblast-orf" id="dummy-1_h1_5_48"  />
</g>
</svg>
