<svg xmlns="http://www.w3.org/2000/svg" xmlns:xlink="http://www.w3.org/1999/xlink" version="1.1" x="0" y="0" height="230" width="800" viewBox="0 0 800 230" preserveAspectRatio="none"  >
<g label="Query sequence" class="clusterblast-cluster"  >
<text x="5" y="20" class="clusterblast-acc"  >
Query sequence</text>
<line x1="10" y1="35" x2="778.0" y2="35" style="stroke-width:1; stroke:grey; "  />
<polygon points="174,40 189,40 194,35 189,30 174,30 174,40 " style="fill:white; stroke-width:1; stroke:black; " description="&lt;b&gt;ctg108_1&lt;/b&gt;&lt;br&gt;ctg108 1&lt;br&gt;Location: 2 - 1151" locus_tag="ctg108_1" class="clusterblast-orf" id="dummy-1_q0_0_all"  />
<polygon points="198,35 203,30 219,30 219,40 203,40 198,35 " style="fill:#d81515; stroke-width:1; stroke:black; " description="&lt;b&gt;ctg108_2&lt;/b&gt;&lt;br&gt;ctg108 2&lt;br&gt;Location: 1417 - 2638" locus_tag="ctg108_2" class="clusterblast-orf" id="dummy-1_q1_0_all"  />
<polygon points="219,35 224,30 235,30 235,40 224,40 219,35 " style="fill:#63d815; stroke-width:1; stroke:black; " description="&lt;b&gt;ctg108_3&lt;/b&gt;&lt;br&gt;ctg108 3&lt;br&gt;Location: 2660 - 3620" locus_tag="ctg108_3" class="clusterblast-orf" id="dummy-1_q2_0_all"  />
<polygon points="236,35 241,30 263,30 263,40 241,40 236,35 " style="fill:#15b1d8; stroke-width:1; stroke:black; " description="&lt;b&gt;ctg108_4&lt;/b&gt;&lt;br&gt;ctg108 4&lt;br&gt;Location: 3681 - 5262" locus_tag="ctg108_4" class="clusterblast-orf" id="dummy-1_q3_0_all"  />
<polygon points="263,35 268,30 367,30 367,40 268,40 263,35 " style="fill:#b115d8; stroke-width:1; stroke:black; " description="&lt;b&gt;ctg108_5&lt;/b&gt;&lt;br&gt;ctg108 5&lt;br&gt;Location: 5269 - 11404" locus_tag="ctg108_5" class="clusterblast-orf" id="dummy-1_q4_0_all"  />
<polygon points="367,35 372,30 395,30 395,40 372,40 367,35 " style="fill:#d86315; stroke-width:1; stroke:black; " description="&lt;b&gt;ctg108_6&lt;/b&gt;&lt;br&gt;ctg108 6&lt;br&gt;Location: 11400 - 13026" locus_tag="ctg108_6" class="clusterblast-orf" id="dummy-1_q5_0_all"  />
<polygon points="397,35 402,30 421,30 421,40 402,40 397,35 " style="fill:#15d815; stroke-width:1; stroke:black; " description="&lt;b&gt;ctg108_7&lt;/b&gt;&lt;br&gt;ctg108 7&lt;br&gt;Location: 13163 - 14585" locus_tag="ctg108_7" class="clusterblast-orf" id="dummy-1_q6_0_all"  />
<polygon points="421,35 426,30 437,30 437,40 426,40 421,35 " style="fill:#1563d8; stroke-width:1; stroke:black; " description="&lt;b&gt;ctg108_8&lt;/b&gt;&lt;br&gt;ctg108 8&lt;br&gt;Location: 14591 - 15524" locus_tag="ctg108_8" class="clusterblast-orf" id="dummy-1_q7_0_all"  />
<polygon points="437,35 442,30 464,30 464,40 442,40 437,35 " style="fill:#d815b1; stroke-width:1; stroke:black; " description="&lt;b&gt;ctg108_9&lt;/b&gt;&lt;br&gt;ctg108 9&lt;br&gt;Location: 15524 - 17135" locus_tag="ctg108_9" class="clusterblast-orf" id="dummy-1_q8_0_all"  />
<polygon points="464,35 469,30 498,30 498,40 469,40 464,35 " style="fill:#d8b115; stroke-width:1; stroke:black; " description="&lt;b&gt;ctg108_10&lt;/b&gt;&lt;br&gt;ctg108 10&lt;br&gt;Location: 17131 - 19117" locus_tag="ctg108_10" class="clusterblast-orf" id="dummy-1_q9_0_all"  />
<polygon points="501,40 517,40 522,35 517,30 501,30 501,40 " style="fill:#15d863; stroke-width:1; stroke:black; " description="&lt;b&gt;ctg108_11&lt;/b&gt;&lt;br&gt;ctg108 11&lt;br&gt;Location: 19287 - 20532" locus_tag="ctg108_11" class="clusterblast-orf" id="dummy-1_q10_0_all"  />
<polygon points="527,40 531,35 527,30 527,40 " style="fill:white; stroke-width:1; stroke:black; " description="&lt;b&gt;ctg108_12&lt;/b&gt;&lt;br&gt;ctg108 12&lt;br&gt;Location: 20867 - 21101" locus_tag="ctg108_12" class="clusterblast-orf" id="dummy-1_q11_0_all"  />
<polygon points="535,40 536,40 541,35 536,30 535,30 535,40 " style="fill:white; stroke-width:1; stroke:black; " description="&lt;b&gt;ctg108_13&lt;/b&gt;&lt;br&gt;ctg108 13&lt;br&gt;Location: 21335 - 21662" locus_tag="ctg108_13" class="clusterblast-orf" id="dummy-1_q12_0_all"  />
<polygon points="541,35 546,30 557,30 557,40 546,40 541,35 " style="fill:#1515d8; stroke-width:1; stroke:black; " description="&lt;b&gt;ctg108_14&lt;/b&gt;&lt;br&gt;ctg108 14&lt;br&gt;Location: 21658 - 22600" locus_tag="ctg108_14" class="clusterblast-orf" id="dummy-1_q13_0_all"  />
<polygon points="556,35 561,30 563,30 563,40 561,40 556,35 " style="fill:#d81563; stroke-width:1; stroke:black; " description="&lt;b&gt;ctg108_15&lt;/b&gt;&lt;br&gt;ctg108 15&lt;br&gt;Location: 22575 - 22962" locus_tag="ctg108_15" class="clusterblast-orf" id="dummy-1_q14_0_all"  />
<polygon points="563,35 568,30 570,30 570,40 568,40 563,35 " style="fill:#b1d815; stroke-width:1; stroke:black; " description="&lt;b&gt;ctg108_16&lt;/b&gt;&lt;br&gt;ctg108 16&lt;br&gt;Location: 22971 - 23382" locus_tag="ctg108_16" class="clusterblast-orf" id="dummy-1_q15_0_all"  />
<polygon points="570,35 575,30 575,30 575,40 575,40 570,35 " style="fill:#15d8b1; stroke-width:1; stroke:black; " description="&lt;b&gt;ctg108_17&lt;/b&gt;&lt;br&gt;ctg108 17&lt;br&gt;Location: 23392 - 23704" locus_tag="ctg108_17" class="clusterblast-orf" id="dummy-1_q16_0_all"  />
<polygon points="575,35 580,30 605,30 605,40 580,40 575,35 " style="fill:#6315d8; stroke-width:1; stroke:black; " description="&lt;b&gt;ctg108_18&lt;/b&gt;&lt;br&gt;ctg108 18&lt;br&gt;Location: 23703 - 25461" locus_tag="ctg108_18" class="clusterblast-orf" id="dummy-1_q17_0_all"  />
</g>
<g label="NZ_KI421511" description="NZ_KI421511_c14: Amycolatopsis thermoflava N1165 AmythDRAFT Scaffold1.2, whol... (41% of genes show similarity), t1pks" class="clusterblast-cluster"  >
<text x="5" y="70" class="clusterblast-acc"  >
<a xlink:href="https://antismash-db.secondarymetabolites.org/go/NZ_KI421511/14" target="_blank">NZ_KI421511_c14</a>: Amycolatopsis thermoflava N1165 AmythDRAFT Scaffold1.2, whol... (41% of genes show similarity), t1pks</text>
<line x1="10" y1="85" x2="778.0" y2="85" style="stroke-width:1; stroke:grey; "  />
</g>
<g id="a1_000"  >
<polygon points="0,85 5,80 14,80 14,90 5,90 0,85 " style="fill:white; stroke-width:1; stroke:black; " description="&lt;b&gt;AMYTH_RS0134670&lt;/b&gt;&lt;br&gt;hypothetical protein&lt;br&gt;Location: 6981558 - 6980722" locus_tag="AMYTH_RS0134670" class="clusterblast-orf" id="dummy-1_h1_2_0"  />
</g>
<g id="a1_001"  >
<polygon points="17,90 46,90 51,85 46,80 17,80 17,90 " style="fill:white; stroke-width:1; stroke:black; " description="&lt;b&gt;AMYTH_RS0134665&lt;/b&gt;&lt;br&gt;short chain dehydrogenase&lt;br&gt;Location: 6980531 - 6978537" locus_tag="AMYTH_RS0134665" class="clusterblast-orf" id="dummy-1_h1_2_1"  />
</g>
<g id="a1_002"  >
<polygon points="52,90 73,90 78,85 73,80 52,80 52,90 " style="fill:white; stroke-width:1; stroke:black; " description="&lt;b&gt;AMYTH_RS0134660&lt;/b&gt;&lt;br&gt;hypothetical protein&lt;br&gt;Location: 6978476 - 6976926" locus_tag="AMYTH_RS0134660" class="clusterblast-orf" id="dummy-1_h1_2_2"  />
</g>
<g id="a1_003"  >
<polygon points="86,85 91,80 108,80 108,90 91,90 86,85 " style="fill:white; stroke-width:1; stroke:black; " description="&lt;b&gt;AMYTH_RS0134655&lt;/b&gt;&lt;br&gt;amidase&lt;br&gt;Location: 6976448 - 6975147" locus_tag="AMYTH_RS0134655" class="clusterblast-orf" id="dummy-1_h1_2_3"  />
</g>
<g id="a1_004"  >
<polygon points="120,90 156,90 161,85 156,80 120,80 120,90 " style="fill:white; stroke-width:1; stroke:black; " description="&lt;b&gt;AMYTH_RS0134650&lt;/b&gt;&lt;br&gt;histidine kinase&lt;br&gt;Location: 6974471 - 6972051" locus_tag="AMYTH_RS0134650" class="clusterblast-orf" id="dummy-1_h1_2_4"  />
</g>
<g id="a1_005"  >
<polygon points="160,90 162,90 167,85 162,80 160,80 160,90 " style="fill:white; stroke-width:1; stroke:black; " description="&lt;b&gt;AMYTH_RS0134645&lt;/b&gt;&lt;br&gt;dynein regulation protein LC7&lt;br&gt;Location: 6972054 - 6971644" locus_tag="AMYTH_RS0134645" class="clusterblast-orf" id="dummy-1_h1_2_5"  />
</g>
<g id="a1_006"  >
<polygon points="167,90 169,90 174,85 169,80 167,80 167,90 " style="fill:white; stroke-width:1; stroke:black; " description="&lt;b&gt;AMYTH_RS0134640&lt;/b&gt;&lt;br&gt;DUF742 domain-containing protein&lt;br&gt;Location: 6971644 - 6971270" locus_tag="AMYTH_RS0134640" class="clusterblast-orf" id="dummy-1_h1_2_6"  />
</g>
<g id="a1_007"  >
<polygon points="173,90 178,90 183,85 178,80 173,80 173,90 " style="fill:white; stroke-width:1; stroke:black; " description="&lt;b&gt;AMYTH_RS0134635&lt;/b&gt;&lt;br&gt;ATP/GTP-binding protein&lt;br&gt;Location: 6971289 - 6970699" locus_tag="AMYTH_RS0134635" class="clusterblast-orf" id="dummy-1_h1_2_7"  />
</g>
<g id="a1_008"  >
<polygon points="184,85 189,80 202,80 202,90 189,90 184,85 " style="fill:white; stroke-width:1; stroke:black; " description="&lt;b&gt;AMYTH_RS0134630&lt;/b&gt;&lt;br&gt;xylanase&lt;br&gt;Location: 6970655 - 6969630" locus_tag="AMYTH_RS0134630" class="clusterblast-orf" id="dummy-1_h1_2_8"  />
</g>
<g id="a1_009"  >
<polygon points="204,90 225,90 230,85 225,80 204,80 204,90 " style="fill:white; stroke-width:1; stroke:black; " description="&lt;b&gt;AMYTH_RS0134625&lt;/b&gt;&lt;br&gt;hypothetical protein&lt;br&gt;Location: 6969501 - 6967927" locus_tag="AMYTH_RS0134625" class="clusterblast-orf" id="dummy-1_h1_2_9"  />
</g>
<g id="a1_0010"  >
<polygon points="230,85 235,80 247,80 247,90 235,90 230,85 " style="fill:white; stroke-width:1; stroke:black; " description="&lt;b&gt;AMYTH_RS0134620&lt;/b&gt;&lt;br&gt;hypothetical protein&lt;br&gt;Location: 6967922 - 6966933" locus_tag="AMYTH_RS0134620" class="clusterblast-orf" id="dummy-1_h1_2_10"  />
</g>
<g id="a1_0011"  >
<polygon points="250,90 257,90 262,85 257,80 250,80 250,90 " style="fill:white; stroke-width:1; stroke:black; " description="&lt;b&gt;AMYTH_RS0134615&lt;/b&gt;&lt;br&gt;ANTAR domain-containing protein&lt;br&gt;Location: 6966757 - 6966086" locus_tag="AMYTH_RS0134615" class="clusterblast-orf" id="dummy-1_h1_2_11"  />
</g>
<g id="a1_0012"  >
<polygon points="264,90 265,90 270,85 265,80 264,80 264,90 " style="fill:white; stroke-width:1; stroke:black; " description="&lt;b&gt;AMYTH_RS0134610&lt;/b&gt;&lt;br&gt;hypothetical protein&lt;br&gt;Location: 6965941 - 6965615" locus_tag="AMYTH_RS0134610" class="clusterblast-orf" id="dummy-1_h1_2_12"  />
</g>
<g id="a1_0013"  >
<polygon points="271,85 276,80 293,80 293,90 276,90 271,85 " style="fill:#d81515; stroke-width:1; stroke:black; " description="&lt;b&gt;AMYTH_RS0134605&lt;/b&gt;&lt;br&gt;lipase&lt;br&gt;Location: 6965502 - 6964255&lt;br&gt;&lt;br&gt;&lt;b&gt;BlastP hit with ctg108_2&lt;/b&gt;&lt;br&gt;Percentage identity: 86&lt;br&gt;Percentage coverage: 102&lt;br&gt;BLAST bit score: 701&lt;br&gt;E-value: 5.2e-200" locus_tag="AMYTH_RS0134605" class="clusterblast-orf" id="dummy-1_h1_2_13"  />
</g>
<g id="a1_0014"  >
<polygon points="293,85 298,80 310,80 310,90 298,90 293,85 " style="fill:#63d815; stroke-width:1; stroke:black; " description="&lt;b&gt;AMYTH_RS0134600&lt;/b&gt;&lt;br&gt;esterase family protein&lt;br&gt;Location: 6964244 - 6963246&lt;br&gt;&lt;br&gt;&lt;b&gt;BlastP hit with ctg108_3&lt;/b&gt;&lt;br&gt;Percentage identity: 92&lt;br&gt;Percentage coverage: 99&lt;br&gt;BLAST bit score: 624&lt;br&gt;E-value: 4.9e-177" locus_tag="AMYTH_RS0134600" class="clusterblast-orf" id="dummy-1_h1_2_14"  />
</g>
<g id="a1_0015"  >
<polygon points="310,85 315,80 337,80 337,90 315,90 310,85 " style="fill:#15b1d8; stroke-width:1; stroke:black; " description="&lt;b&gt;AMYTH_RS0134595&lt;/b&gt;&lt;br&gt;acyl-CoA carboxylase subunit beta&lt;br&gt;Location: 6963226 - 6961646&lt;br&gt;&lt;br&gt;&lt;b&gt;BlastP hit with ctg108_4&lt;/b&gt;&lt;br&gt;Percentage identity: 95&lt;br&gt;Percentage coverage: 100&lt;br&gt;BLAST bit score: 996&lt;br&gt;E-value: 1.3e-288" locus_tag="AMYTH_RS0134595" class="clusterblast-orf" id="dummy-1_h1_2_15"  />
</g>
<g id="a1_0016"  >
<polygon points="337,85 342,80 441,80 441,90 342,90 337,85 " style="fill:#b115d8; stroke-width:1; stroke:black; " description="&lt;b&gt;AMYTH_RS0134590&lt;/b&gt;&lt;br&gt;KR domain-containing protein&lt;br&gt;Location: 6961637 - 6955500&lt;br&gt;&lt;br&gt;&lt;b&gt;BlastP hit with ctg108_5&lt;/b&gt;&lt;br&gt;Percentage identity: 86&lt;br&gt;Percentage coverage: 100&lt;br&gt;BLAST bit score: 3499&lt;br&gt;E-value: 0.0" locus_tag="AMYTH_RS0134590" class="clusterblast-orf" id="dummy-1_h1_2_16"  />
</g>
<g id="a1_0017"  >
<polygon points="441,85 446,80 469,80 469,90 446,90 441,85 " style="fill:#d86315; stroke-width:1; stroke:black; " description="&lt;b&gt;AMYTH_RS0134585&lt;/b&gt;&lt;br&gt;fatty-acid--CoA ligase&lt;br&gt;Location: 6955503 - 6953830&lt;br&gt;&lt;br&gt;&lt;b&gt;BlastP hit with ctg108_6&lt;/b&gt;&lt;br&gt;Percentage identity: 88&lt;br&gt;Percentage coverage: 100&lt;br&gt;BLAST bit score: 938&lt;br&gt;E-value: 4.4e-271" locus_tag="AMYTH_RS0134585" class="clusterblast-orf" id="dummy-1_h1_2_17"  />
</g>
<g id="a1_0018"  >
<polygon points="471,85 476,80 495,80 495,90 476,90 471,85 " style="fill:#15d815; stroke-width:1; stroke:black; " description="&lt;b&gt;AMYTH_RS0134580&lt;/b&gt;&lt;br&gt;MFS transporter&lt;br&gt;Location: 6953739 - 6952318&lt;br&gt;&lt;br&gt;&lt;b&gt;BlastP hit with ctg108_7&lt;/b&gt;&lt;br&gt;Percentage identity: 91&lt;br&gt;Percentage coverage: 100&lt;br&gt;BLAST bit score: 790&lt;br&gt;E-value: 1.3e-226" locus_tag="AMYTH_RS0134580" class="clusterblast-orf" id="dummy-1_h1_2_18"  />
</g>
<g id="a1_0019"  >
<polygon points="495,85 500,80 511,80 511,90 500,90 495,85 " style="fill:#1563d8; stroke-width:1; stroke:black; " description="&lt;b&gt;AMYTH_RS0134575&lt;/b&gt;&lt;br&gt;ribonucleotide-diphosphate reductase subunit beta&lt;br&gt;Location: 6952311 - 6951379&lt;br&gt;&lt;br&gt;&lt;b&gt;BlastP hit with ctg108_8&lt;/b&gt;&lt;br&gt;Percentage identity: 96&lt;br&gt;Percentage coverage: 100&lt;br&gt;BLAST bit score: 626&lt;br&gt;E-value: 2.1e-177" locus_tag="AMYTH_RS0134575" class="clusterblast-orf" id="dummy-1_h1_2_19"  />
</g>
<g id="a1_0020"  >
<polygon points="511,85 516,80 537,80 537,90 516,90 511,85 " style="fill:#d815b1; stroke-width:1; stroke:black; " description="&lt;b&gt;AMYTH_RS0134570&lt;/b&gt;&lt;br&gt;hypothetical protein&lt;br&gt;Location: 6951378 - 6949804&lt;br&gt;&lt;br&gt;&lt;b&gt;BlastP hit with ctg108_9&lt;/b&gt;&lt;br&gt;Percentage identity: 86&lt;br&gt;Percentage coverage: 98&lt;br&gt;BLAST bit score: 924&lt;br&gt;E-value: 6.5e-267" locus_tag="AMYTH_RS0134570" class="clusterblast-orf" id="dummy-1_h1_2_20"  />
</g>
<g id="a1_0021"  >
<polygon points="538,85 543,80 571,80 571,90 543,90 538,85 " style="fill:#d8b115; stroke-width:1; stroke:black; " description="&lt;b&gt;AMYTH_RS46300&lt;/b&gt;&lt;br&gt;MMPL family transporter&lt;br&gt;Location: 6949771 - 6947795&lt;br&gt;&lt;br&gt;&lt;b&gt;BlastP hit with ctg108_10&lt;/b&gt;&lt;br&gt;Percentage identity: 86&lt;br&gt;Percentage coverage: 100&lt;br&gt;BLAST bit score: 975&lt;br&gt;E-value: 3e-282" locus_tag="AMYTH_RS46300" class="clusterblast-orf" id="dummy-1_h1_2_21"  />
</g>
<g id="a1_0022"  >
<polygon points="574,90 589,90 594,85 589,80 574,80 574,90 " style="fill:#15d863; stroke-width:1; stroke:black; " description="&lt;b&gt;AMYTH_RS0134560&lt;/b&gt;&lt;br&gt;PucR family transcriptional regulator&lt;br&gt;Location: 6947618 - 6946440&lt;br&gt;&lt;br&gt;&lt;b&gt;BlastP hit with ctg108_11&lt;/b&gt;&lt;br&gt;Percentage identity: 82&lt;br&gt;Percentage coverage: 94&lt;br&gt;BLAST bit score: 640&lt;br&gt;E-value: 1.5e-181" locus_tag="AMYTH_RS0134560" class="clusterblast-orf" id="dummy-1_h1_2_22"  />
</g>
<g id="a1_0023"  >
<polygon points="595,85 599,80 599,90 595,85 " style="fill:white; stroke-width:1; stroke:black; " description="&lt;b&gt;AMYTH_RS0134555&lt;/b&gt;&lt;br&gt;hypothetical protein&lt;br&gt;Location: 6946424 - 6946140" locus_tag="AMYTH_RS0134555" class="clusterblast-orf" id="dummy-1_h1_2_23"  />
</g>
<g id="a1_0024"  >
<polygon points="601,85 606,80 613,80 613,90 606,90 601,85 " style="fill:#1515d8; stroke-width:1; stroke:black; " description="&lt;b&gt;AMYTH_RS48255&lt;/b&gt;&lt;br&gt;methyltransferase domain-containing protein&lt;br&gt;Location: 6946015 - 6945320&lt;br&gt;&lt;br&gt;&lt;b&gt;BlastP hit with ctg108_14&lt;/b&gt;&lt;br&gt;Percentage identity: 45&lt;br&gt;Percentage coverage: 98&lt;br&gt;BLAST bit score: 223&lt;br&gt;E-value: 2.5e-56" locus_tag="AMYTH_RS48255" class="clusterblast-orf" id="dummy-1_h1_2_24"  />
</g>
<g id="a1_0025"  >
<polygon points="615,85 620,80 622,80 622,90 620,90 615,85 " style="fill:#b1d815; stroke-width:1; stroke:black; " description="&lt;b&gt;AMYTH_RS0134540&lt;/b&gt;&lt;br&gt;heme-binding protein&lt;br&gt;Location: 6945242 - 6944823&lt;br&gt;&lt;br&gt;&lt;b&gt;BlastP hit with ctg108_16&lt;/b&gt;&lt;br&gt;Percentage identity: 88&lt;br&gt;Percentage coverage: 100&lt;br&gt;BLAST bit score: 218&lt;br&gt;E-value: 3.4e-55" locus_tag="AMYTH_RS0134540" class="clusterblast-orf" id="dummy-1_h1_2_25"  />
</g>
<g id="a1_0026"  >
<polygon points="622,85 627,80 627,80 627,90 627,90 622,85 " style="fill:#15d8b1; stroke-width:1; stroke:black; " description="&lt;b&gt;AMYTH_RS0134535&lt;/b&gt;&lt;br&gt;hypothetical protein&lt;br&gt;Location: 6944812 - 6944501&lt;br&gt;&lt;br&gt;&lt;b&gt;BlastP hit with ctg108_17&lt;/b&gt;&lt;br&gt;Percentage identity: 79&lt;br&gt;Percentage coverage: 100&lt;br&gt;BLAST bit score: 163&lt;br&gt;E-value: 1.3e-38" locus_tag="AMYTH_RS0134535" class="clusterblast-orf" id="dummy-1_h1_2_26"  />
</g>
<g id="a1_0027"  >
<polygon points="627,85 632,80 658,80 658,90 632,90 627,85 " style="fill:#6315d8; stroke-width:1; stroke:black; " description="&lt;b&gt;AMYTH_RS0134530&lt;/b&gt;&lt;br&gt;diol dehydratase reactivase subunit alpha&lt;br&gt;Location: 6944501 - 6942666&lt;br&gt;&lt;br&gt;&lt;b&gt;BlastP hit with ctg108_18&lt;/b&gt;&lt;br&gt;Percentage identity: 92&lt;br&gt;Percentage coverage: 100&lt;br&gt;BLAST bit score: 1006&lt;br&gt;E-value: 1.1e-291" locus_tag="AMYTH_RS0134530" class="clusterblast-orf" id="dummy-1_h1_2_27"  />
</g>
<g id="a1_0028"  >
<polygon points="658,85 663,80 668,80 668,90 663,90 658,85 " style="fill:white; stroke-width:1; stroke:black; " description="&lt;b&gt;AMYTH_RS0134525&lt;/b&gt;&lt;br&gt;propanediol dehydratase medium subunit PduD&lt;br&gt;Location: 6942660 - 6942070" locus_tag="AMYTH_RS0134525" class="clusterblast-orf" id="dummy-1_h1_2_28"  />
</g>
<g id="a1_0029"  >
<polygon points="668,85 673,80 697,80 697,90 673,90 668,85 " style="fill:white; stroke-width:1; stroke:black; " description="&lt;b&gt;AMYTH_RS0134520&lt;/b&gt;&lt;br&gt;propanediol dehydratase large subunit PduC&lt;br&gt;Location: 6942058 - 6940370" locus_tag="AMYTH_RS0134520" class="clusterblast-orf" id="dummy-1_h1_2_29"  />
</g>
<g id="a1_0030"  >
<polygon points="697,85 702,80 704,80 704,90 702,90 697,85 " style="fill:white; stroke-width:1; stroke:black; " description="&lt;b&gt;AMYTH_RS0134515&lt;/b&gt;&lt;br&gt;propanediol dehydratase small subunit PduE&lt;br&gt;Location: 6940373 - 6939948" locus_tag="AMYTH_RS0134515" class="clusterblast-orf" id="dummy-1_h1_2_30"  />
</g>
<g id="a1_0031"  >
<polygon points="711,90 721,90 726,85 721,80 711,80 711,90 " style="fill:white; stroke-width:1; stroke:black; " description="&lt;b&gt;AMYTH_RS0134510&lt;/b&gt;&lt;br&gt;aquaporin family protein&lt;br&gt;Location: 6939544 - 6938675" locus_tag="AMYTH_RS0134510" class="clusterblast-orf" id="dummy-1_h1_2_31"  />
</g>
<g id="a1_0032"  >
<polygon points="726,85 731,80 751,80 751,90 731,90 726,85 " style="fill:white; stroke-width:1; stroke:black; " description="&lt;b&gt;AMYTH_RS0134505&lt;/b&gt;&lt;br&gt;transcriptional regulator&lt;br&gt;Location: 6938678 - 6937185" locus_tag="AMYTH_RS0134505" class="clusterblast-orf" id="dummy-1_h1_2_32"  />
</g>
<g id="a1_0033"  >
<polygon points="754,90 775,90 780,85 775,80 754,80 754,90 " style="fill:white; stroke-width:1; stroke:black; " description="&lt;b&gt;AMYTH_RS0134500&lt;/b&gt;&lt;br&gt;aldehyde dehydrogenase&lt;br&gt;Location: 6937024 - 6935501" locus_tag="AMYTH_RS0134500" class="clusterblast-orf" id="dummy-1_h1_2_33"  />
</g>
</svg>
