<svg xmlns="http://www.w3.org/2000/svg" xmlns:xlink="http://www.w3.org/1999/xlink" version="1.1" x="0" y="0" height="230" width="800" viewBox="0 0 800 230" preserveAspectRatio="none"  >
<g label="Query sequence" class="clusterblast-cluster"  >
<text x="5" y="20" class="clusterblast-acc"  >
Query sequence</text>
<line x1="10" y1="35" x2="778.0" y2="35" style="stroke-width:1; stroke:grey; "  />
<polygon points="284,35 286,30 286,40 284,35 " style="fill:white; stroke-width:1; stroke:black; " description="&lt;b&gt;ctg28_1&lt;/b&gt;&lt;br&gt;ctg28 1&lt;br&gt;Location: 0 - 228" locus_tag="ctg28_1" class="clusterblast-orf" id="dummy-1_q0_0_all"  />
<polygon points="287,40 290,40 295,35 290,30 287,30 287,40 " style="fill:white; stroke-width:1; stroke:black; " description="&lt;b&gt;ctg28_2&lt;/b&gt;&lt;br&gt;ctg28 2&lt;br&gt;Location: 273 - 906" locus_tag="ctg28_2" class="clusterblast-orf" id="dummy-1_q1_0_all"  />
<polygon points="295,40 295,40 300,35 295,30 295,30 295,40 " style="fill:white; stroke-width:1; stroke:black; " description="&lt;b&gt;ctg28_3&lt;/b&gt;&lt;br&gt;ctg28 3&lt;br&gt;Location: 902 - 1358" locus_tag="ctg28_3" class="clusterblast-orf" id="dummy-1_q2_0_all"  />
<polygon points="300,35 305,30 312,30 312,40 305,40 300,35 " style="fill:#d81515; stroke-width:1; stroke:black; " description="&lt;b&gt;ctg28_4&lt;/b&gt;&lt;br&gt;ctg28 4&lt;br&gt;Location: 1362 - 2313" locus_tag="ctg28_4" class="clusterblast-orf" id="dummy-1_q3_0_all"  />
<polygon points="312,35 317,30 331,30 331,40 317,40 312,35 " style="fill:#77d815; stroke-width:1; stroke:black; " description="&lt;b&gt;ctg28_5&lt;/b&gt;&lt;br&gt;ctg28 5&lt;br&gt;Location: 2309 - 3920" locus_tag="ctg28_5" class="clusterblast-orf" id="dummy-1_q4_0_all"  />
<polygon points="331,35 336,30 341,30 341,40 336,40 331,35 " style="fill:#15d8d8; stroke-width:1; stroke:black; " description="&lt;b&gt;ctg28_6&lt;/b&gt;&lt;br&gt;ctg28 6&lt;br&gt;Location: 3925 - 4675" locus_tag="ctg28_6" class="clusterblast-orf" id="dummy-1_q5_0_all"  />
<polygon points="341,35 346,30 355,30 355,40 346,40 341,35 " style="fill:#7715d8; stroke-width:1; stroke:black; " description="&lt;b&gt;ctg28_7&lt;/b&gt;&lt;br&gt;ctg28 7&lt;br&gt;Location: 4676 - 5867" locus_tag="ctg28_7" class="clusterblast-orf" id="dummy-1_q6_0_all"  />
<polygon points="355,35 360,30 364,30 364,40 360,40 355,35 " style="fill:#15d8d8; stroke-width:1; stroke:black; " description="&lt;b&gt;ctg28_8&lt;/b&gt;&lt;br&gt;ctg28 8&lt;br&gt;Location: 5863 - 6598" locus_tag="ctg28_8" class="clusterblast-orf" id="dummy-1_q7_0_all"  />
<polygon points="364,35 369,30 375,30 375,40 369,40 364,35 " style="fill:#d8a715; stroke-width:1; stroke:black; " description="&lt;b&gt;ctg28_9&lt;/b&gt;&lt;br&gt;ctg28 9&lt;br&gt;Location: 6590 - 7517" locus_tag="ctg28_9" class="clusterblast-orf" id="dummy-1_q8_0_all"  />
<polygon points="376,35 381,30 382,30 382,40 381,40 376,35 " style="fill:#15d846; stroke-width:1; stroke:black; " description="&lt;b&gt;ctg28_10&lt;/b&gt;&lt;br&gt;ctg28 10&lt;br&gt;Location: 7581 - 8097" locus_tag="ctg28_10" class="clusterblast-orf" id="dummy-1_q9_0_all"  />
<polygon points="383,40 394,40 399,35 394,30 383,30 383,40 " style="fill:#1546d8; stroke-width:1; stroke:black; " description="&lt;b&gt;ctg28_11&lt;/b&gt;&lt;br&gt;ctg28 11&lt;br&gt;Location: 8163 - 9498" locus_tag="ctg28_11" class="clusterblast-orf" id="dummy-1_q10_0_all"  />
<polygon points="400,40 402,40 407,35 402,30 400,30 400,40 " style="fill:white; stroke-width:1; stroke:black; " description="&lt;b&gt;ctg28_12&lt;/b&gt;&lt;br&gt;ctg28 12&lt;br&gt;Location: 9580 - 10147" locus_tag="ctg28_12" class="clusterblast-orf" id="dummy-1_q11_0_all"  />
<polygon points="408,40 410,40 415,35 410,30 408,30 408,40 " style="fill:white; stroke-width:1; stroke:black; " description="&lt;b&gt;ctg28_13&lt;/b&gt;&lt;br&gt;ctg28 13&lt;br&gt;Location: 10182 - 10761" locus_tag="ctg28_13" class="clusterblast-orf" id="dummy-1_q12_0_all"  />
<polygon points="415,35 420,30 420,30 420,40 420,40 415,35 " style="fill:white; stroke-width:1; stroke:black; " description="&lt;b&gt;ctg28_14&lt;/b&gt;&lt;br&gt;ctg28 14&lt;br&gt;Location: 10764 - 11163" locus_tag="ctg28_14" class="clusterblast-orf" id="dummy-1_q13_0_all"  />
<polygon points="429,35 434,30 435,30 435,40 434,40 429,35 " style="fill:white; stroke-width:1; stroke:black; " description="&lt;b&gt;ctg28_15&lt;/b&gt;&lt;br&gt;ctg28 15&lt;br&gt;Location: 11945 - 12437" locus_tag="ctg28_15" class="clusterblast-orf" id="dummy-1_q14_0_all"  />
<polygon points="436,40 439,40 444,35 439,30 436,30 436,40 " style="fill:white; stroke-width:1; stroke:black; " description="&lt;b&gt;ctg28_16&lt;/b&gt;&lt;br&gt;ctg28 16&lt;br&gt;Location: 12553 - 13216" locus_tag="ctg28_16" class="clusterblast-orf" id="dummy-1_q15_0_all"  />
<polygon points="444,35 449,30 453,30 453,40 449,40 444,35 " style="fill:white; stroke-width:1; stroke:black; " description="&lt;b&gt;ctg28_17&lt;/b&gt;&lt;br&gt;ctg28 17&lt;br&gt;Location: 13216 - 13882" locus_tag="ctg28_17" class="clusterblast-orf" id="dummy-1_q16_0_all"  />
<polygon points="453,40 463,40 468,35 463,30 453,30 453,40 " style="fill:white; stroke-width:1; stroke:black; " description="&lt;b&gt;ctg28_18&lt;/b&gt;&lt;br&gt;ctg28 18&lt;br&gt;Location: 13938 - 15120" locus_tag="ctg28_18" class="clusterblast-orf" id="dummy-1_q17_0_all"  />
<polygon points="467,40 471,40 476,35 471,30 467,30 467,40 " style="fill:#d815a7; stroke-width:1; stroke:black; " description="&lt;b&gt;ctg28_19&lt;/b&gt;&lt;br&gt;ctg28 19&lt;br&gt;Location: 15107 - 15788" locus_tag="ctg28_19" class="clusterblast-orf" id="dummy-1_q18_0_all"  />
<polygon points="477,40 491,40 496,35 491,30 477,30 477,40 " style="fill:white; stroke-width:1; stroke:black; " description="&lt;b&gt;ctg28_20&lt;/b&gt;&lt;br&gt;ctg28 20&lt;br&gt;Location: 15866 - 17411" locus_tag="ctg28_20" class="clusterblast-orf" id="dummy-1_q19_0_all"  />
</g>
<g label="NZ_JOIQ01000034" description="NZ_JOIQ01000034_c26: Streptomyces sp. NRRL F-3213 contig34.1, whole genome sh... (19% of genes show similarity), nrps" class="clusterblast-cluster"  >
<text x="5" y="70" class="clusterblast-acc"  >
<a xlink:href="https://antismash-db.secondarymetabolites.org/go/NZ_JOIQ01000034/26" target="_blank">NZ_JOIQ01000034_c26</a>: Streptomyces sp. NRRL F-3213 contig34.1, whole genome sh... (19% of genes show similarity), nrps</text>
<line x1="10" y1="85" x2="778.0" y2="85" style="stroke-width:1; stroke:grey; "  />
</g>
<g id="a1_000"  >
<polygon points="0,90 18,90 23,85 18,80 0,80 0,90 " style="fill:white; stroke-width:1; stroke:black; " description="&lt;b&gt;IF70_RS42005&lt;/b&gt;&lt;br&gt;copper resistance protein CopD&lt;br&gt;Location: 105925 - 103988" locus_tag="IF70_RS42005" class="clusterblast-orf" id="dummy-1_h1_5_0"  />
</g>
<g id="a1_001"  >
<polygon points="25,85 28,80 28,90 25,85 " style="fill:white; stroke-width:1; stroke:black; " description="&lt;b&gt;IF70_RS42000&lt;/b&gt;&lt;br&gt;hypothetical protein&lt;br&gt;Location: 103828 - 103595" locus_tag="IF70_RS42000" class="clusterblast-orf" id="dummy-1_h1_5_1"  />
</g>
<g id="a1_002"  >
<polygon points="30,90 52,90 57,85 52,80 30,80 30,90 " style="fill:white; stroke-width:1; stroke:black; " description="&lt;b&gt;IF70_RS41995&lt;/b&gt;&lt;br&gt;Cu(2+)-exporting ATPase&lt;br&gt;Location: 103405 - 101171" locus_tag="IF70_RS41995" class="clusterblast-orf" id="dummy-1_h1_5_2"  />
</g>
<g id="a1_003"  >
<polygon points="58,90 60,85 58,80 58,90 " style="fill:white; stroke-width:1; stroke:black; " description="&lt;b&gt;IF70_RS47115&lt;/b&gt;&lt;br&gt;D-threitol dehydrogenase&lt;br&gt;Location: 101080 - 100946" locus_tag="IF70_RS47115" class="clusterblast-orf" id="dummy-1_h1_5_3"  />
</g>
<g id="a1_004"  >
<polygon points="63,90 67,90 72,85 67,80 63,80 63,90 " style="fill:white; stroke-width:1; stroke:black; " description="&lt;b&gt;IF70_RS47110&lt;/b&gt;&lt;br&gt;2,3-dihydro-2,3-dihydroxybenzoate dehydrogenase&lt;br&gt;Location: 100672 - 99929" locus_tag="IF70_RS47110" class="clusterblast-orf" id="dummy-1_h1_5_4"  />
</g>
<g id="a1_005"  >
<polygon points="74,90 78,85 74,80 74,90 " style="fill:white; stroke-width:1; stroke:black; " description="&lt;b&gt;IF70_RS47105&lt;/b&gt;&lt;br&gt;isochorismate synthase&lt;br&gt;Location: 99775 - 99488" locus_tag="IF70_RS47105" class="clusterblast-orf" id="dummy-1_h1_5_5"  />
</g>
<g id="a1_006"  >
<polygon points="83,90 88,90 93,85 88,80 83,80 83,90 " style="fill:white; stroke-width:1; stroke:black; " description="&lt;b&gt;IF70_RS45425&lt;/b&gt;&lt;br&gt;isochorismate synthase&lt;br&gt;Location: 99049 - 98198" locus_tag="IF70_RS45425" class="clusterblast-orf" id="dummy-1_h1_5_6"  />
</g>
<g id="a1_007"  >
<polygon points="96,90 110,90 115,85 110,80 96,80 96,90 " style="fill:white; stroke-width:1; stroke:black; " description="&lt;b&gt;IF70_RS41980&lt;/b&gt;&lt;br&gt;2,3-dihydroxybenzoate-AMP ligase&lt;br&gt;Location: 97996 - 96398" locus_tag="IF70_RS41980" class="clusterblast-orf" id="dummy-1_h1_5_7"  />
</g>
<g id="a1_008"  >
<polygon points="115,90 118,90 123,85 118,80 115,80 115,90 " style="fill:white; stroke-width:1; stroke:black; " description="&lt;b&gt;IF70_RS41975&lt;/b&gt;&lt;br&gt;2,3-dihydro-2,3-dihydroxybenzoate synthetase&lt;br&gt;Location: 96394 - 95732" locus_tag="IF70_RS41975" class="clusterblast-orf" id="dummy-1_h1_5_8"  />
</g>
<g id="a1_009"  >
<polygon points="123,90 126,85 123,80 123,90 " style="fill:white; stroke-width:1; stroke:black; " description="&lt;b&gt;IF70_RS41970&lt;/b&gt;&lt;br&gt;acyl carrier protein&lt;br&gt;Location: 95735 - 95493" locus_tag="IF70_RS41970" class="clusterblast-orf" id="dummy-1_h1_5_9"  />
</g>
<g id="a1_0010"  >
<polygon points="126,90 132,90 137,85 132,80 126,80 126,90 " style="fill:white; stroke-width:1; stroke:black; " description="&lt;b&gt;IF70_RS41965&lt;/b&gt;&lt;br&gt;siderophore-interacting protein&lt;br&gt;Location: 95496 - 94642" locus_tag="IF70_RS41965" class="clusterblast-orf" id="dummy-1_h1_5_10"  />
</g>
<g id="a1_0011"  >
<polygon points="137,90 144,90 149,85 144,80 137,80 137,90 " style="fill:white; stroke-width:1; stroke:black; " description="&lt;b&gt;IF70_RS41960&lt;/b&gt;&lt;br&gt;ABC transporter substrate-binding protein&lt;br&gt;Location: 94614 - 93613" locus_tag="IF70_RS41960" class="clusterblast-orf" id="dummy-1_h1_5_11"  />
</g>
<g id="a1_0012"  >
<polygon points="149,90 156,90 161,85 156,80 149,80 149,90 " style="fill:white; stroke-width:1; stroke:black; " description="&lt;b&gt;IF70_RS41955&lt;/b&gt;&lt;br&gt;iron ABC transporter permease&lt;br&gt;Location: 93616 - 92633" locus_tag="IF70_RS41955" class="clusterblast-orf" id="dummy-1_h1_5_12"  />
</g>
<g id="a1_0013"  >
<polygon points="161,90 169,90 174,85 169,80 161,80 161,90 " style="fill:white; stroke-width:1; stroke:black; " description="&lt;b&gt;IF70_RS41950&lt;/b&gt;&lt;br&gt;iron ABC transporter permease&lt;br&gt;Location: 92636 - 91614" locus_tag="IF70_RS41950" class="clusterblast-orf" id="dummy-1_h1_5_13"  />
</g>
<g id="a1_0014"  >
<polygon points="174,90 178,90 183,85 178,80 174,80 174,90 " style="fill:white; stroke-width:1; stroke:black; " description="&lt;b&gt;IF70_RS41945&lt;/b&gt;&lt;br&gt;ABC transporter ATP-binding protein&lt;br&gt;Location: 91617 - 90841" locus_tag="IF70_RS41945" class="clusterblast-orf" id="dummy-1_h1_5_14"  />
</g>
<g id="a1_0015"  >
<polygon points="183,90 298,90 303,85 298,80 183,80 183,90 " style="fill:white; stroke-width:1; stroke:black; " description="&lt;b&gt;IF70_RS41940&lt;/b&gt;&lt;br&gt;non-ribosomal peptide synthetase&lt;br&gt;Location: 90824 - 80991" locus_tag="IF70_RS41940" class="clusterblast-orf" id="dummy-1_h1_5_15"  />
</g>
<g id="a1_0016"  >
<polygon points="303,90 314,90 319,85 314,80 303,80 303,90 " style="fill:white; stroke-width:1; stroke:black; " description="&lt;b&gt;IF70_RS41935&lt;/b&gt;&lt;br&gt;MFS transporter&lt;br&gt;Location: 80949 - 79639" locus_tag="IF70_RS41935" class="clusterblast-orf" id="dummy-1_h1_5_16"  />
</g>
<g id="a1_0017"  >
<polygon points="319,90 326,90 331,85 326,80 319,80 319,90 " style="fill:white; stroke-width:1; stroke:black; " description="&lt;b&gt;IF70_RS41930&lt;/b&gt;&lt;br&gt;3-deoxy-7-phosphoheptulonate synthase&lt;br&gt;Location: 79638 - 78637" locus_tag="IF70_RS41930" class="clusterblast-orf" id="dummy-1_h1_5_17"  />
</g>
<g id="a1_0018"  >
<polygon points="333,85 338,80 343,80 343,90 338,90 333,85 " style="fill:white; stroke-width:1; stroke:black; " description="&lt;b&gt;IF70_RS41925&lt;/b&gt;&lt;br&gt;helix-turn-helix transcriptional regulator&lt;br&gt;Location: 78546 - 77707" locus_tag="IF70_RS41925" class="clusterblast-orf" id="dummy-1_h1_5_18"  />
</g>
<g id="a1_0019"  >
<polygon points="345,90 360,90 365,85 360,80 345,80 345,90 " style="fill:white; stroke-width:1; stroke:black; " description="&lt;b&gt;IF70_RS41920&lt;/b&gt;&lt;br&gt;AMP-dependent synthetase&lt;br&gt;Location: 77502 - 75874" locus_tag="IF70_RS41920" class="clusterblast-orf" id="dummy-1_h1_5_19"  />
</g>
<g id="a1_0020"  >
<polygon points="365,90 371,90 376,85 371,80 365,80 365,90 " style="fill:white; stroke-width:1; stroke:black; " description="&lt;b&gt;IF70_RS41915&lt;/b&gt;&lt;br&gt;short-chain dehydrogenase&lt;br&gt;Location: 75842 - 74961" locus_tag="IF70_RS41915" class="clusterblast-orf" id="dummy-1_h1_5_20"  />
</g>
<g id="a1_0021"  >
<polygon points="377,85 382,80 388,80 388,90 382,90 377,85 " style="fill:#d81515; stroke-width:1; stroke:black; " description="&lt;b&gt;IF70_RS41910&lt;/b&gt;&lt;br&gt;2-nitropropane dioxygenase&lt;br&gt;Location: 74931 - 73966&lt;br&gt;&lt;br&gt;&lt;b&gt;BlastP hit with ctg28_4&lt;/b&gt;&lt;br&gt;Percentage identity: 70&lt;br&gt;Percentage coverage: 99&lt;br&gt;BLAST bit score: 400&lt;br&gt;E-value: 1.5e-109" locus_tag="IF70_RS41910" class="clusterblast-orf" id="dummy-1_h1_5_21"  />
</g>
<g id="a1_0022"  >
<polygon points="388,85 393,80 407,80 407,90 393,90 388,85 " style="fill:#77d815; stroke-width:1; stroke:black; " description="&lt;b&gt;IF70_RS41905&lt;/b&gt;&lt;br&gt;fatty-acid--CoA ligase&lt;br&gt;Location: 73969 - 72398&lt;br&gt;&lt;br&gt;&lt;b&gt;BlastP hit with ctg28_5&lt;/b&gt;&lt;br&gt;Percentage identity: 65&lt;br&gt;Percentage coverage: 99&lt;br&gt;BLAST bit score: 665&lt;br&gt;E-value: 5.5e-189" locus_tag="IF70_RS41905" class="clusterblast-orf" id="dummy-1_h1_5_22"  />
</g>
<g id="a1_0023"  >
<polygon points="407,85 412,80 416,80 416,90 412,90 407,85 " style="fill:#15d8d8; stroke-width:1; stroke:black; " description="&lt;b&gt;IF70_RS41900&lt;/b&gt;&lt;br&gt;enoyl-CoA hydratase/isomerase family protein&lt;br&gt;Location: 72401 - 71661&lt;br&gt;&lt;br&gt;&lt;b&gt;BlastP hit with ctg28_6&lt;/b&gt;&lt;br&gt;Percentage identity: 65&lt;br&gt;Percentage coverage: 98&lt;br&gt;BLAST bit score: 289&lt;br&gt;E-value: 3.8e-76&lt;br&gt;&lt;br&gt;&lt;b&gt;BlastP hit with ctg28_8&lt;/b&gt;&lt;br&gt;Percentage identity: 39&lt;br&gt;Percentage coverage: 85&lt;br&gt;BLAST bit score: 94&lt;br&gt;E-value: 1.3e-17" locus_tag="IF70_RS41900" class="clusterblast-orf" id="dummy-1_h1_5_23"  />
</g>
<g id="a1_0024"  >
<polygon points="416,85 421,80 431,80 431,90 421,90 416,85 " style="fill:#7715d8; stroke-width:1; stroke:black; " description="&lt;b&gt;IF70_RS41895&lt;/b&gt;&lt;br&gt;CoA transferase&lt;br&gt;Location: 71661 - 70471&lt;br&gt;&lt;br&gt;&lt;b&gt;BlastP hit with ctg28_7&lt;/b&gt;&lt;br&gt;Percentage identity: 69&lt;br&gt;Percentage coverage: 100&lt;br&gt;BLAST bit score: 543&lt;br&gt;E-value: 1.8e-152" locus_tag="IF70_RS41895" class="clusterblast-orf" id="dummy-1_h1_5_24"  />
</g>
<g id="a1_0025"  >
<polygon points="431,85 436,80 439,80 439,90 436,90 431,85 " style="fill:#15d8d8; stroke-width:1; stroke:black; " description="&lt;b&gt;IF70_RS41890&lt;/b&gt;&lt;br&gt;enoyl-CoA hydratase/isomerase family protein&lt;br&gt;Location: 70474 - 69758&lt;br&gt;&lt;br&gt;&lt;b&gt;BlastP hit with ctg28_6&lt;/b&gt;&lt;br&gt;Percentage identity: 35&lt;br&gt;Percentage coverage: 85&lt;br&gt;BLAST bit score: 100&lt;br&gt;E-value: 2.5e-19&lt;br&gt;&lt;br&gt;&lt;b&gt;BlastP hit with ctg28_8&lt;/b&gt;&lt;br&gt;Percentage identity: 66&lt;br&gt;Percentage coverage: 97&lt;br&gt;BLAST bit score: 303&lt;br&gt;E-value: 1.9e-80" locus_tag="IF70_RS41890" class="clusterblast-orf" id="dummy-1_h1_5_25"  />
</g>
<g id="a1_0026"  >
<polygon points="440,85 445,80 451,80 451,90 445,90 440,85 " style="fill:#d8a715; stroke-width:1; stroke:black; " description="&lt;b&gt;IF70_RS41885&lt;/b&gt;&lt;br&gt;hydroxymethylglutaryl-CoA lyase&lt;br&gt;Location: 69736 - 68816&lt;br&gt;&lt;br&gt;&lt;b&gt;BlastP hit with ctg28_9&lt;/b&gt;&lt;br&gt;Percentage identity: 74&lt;br&gt;Percentage coverage: 98&lt;br&gt;BLAST bit score: 451&lt;br&gt;E-value: 5.5e-125" locus_tag="IF70_RS41885" class="clusterblast-orf" id="dummy-1_h1_5_26"  />
</g>
<g id="a1_0027"  >
<polygon points="452,85 457,80 458,80 458,90 457,90 452,85 " style="fill:#15d846; stroke-width:1; stroke:black; " description="&lt;b&gt;IF70_RS41880&lt;/b&gt;&lt;br&gt;MarR family transcriptional regulator&lt;br&gt;Location: 68754 - 68269&lt;br&gt;&lt;br&gt;&lt;b&gt;BlastP hit with ctg28_10&lt;/b&gt;&lt;br&gt;Percentage identity: 62&lt;br&gt;Percentage coverage: 85&lt;br&gt;BLAST bit score: 165&lt;br&gt;E-value: 7.4e-39" locus_tag="IF70_RS41880" class="clusterblast-orf" id="dummy-1_h1_5_27"  />
</g>
<g id="a1_0028"  >
<polygon points="459,90 470,90 475,85 470,80 459,80 459,90 " style="fill:#1546d8; stroke-width:1; stroke:black; " description="&lt;b&gt;IF70_RS41875&lt;/b&gt;&lt;br&gt;MFS transporter&lt;br&gt;Location: 68171 - 66834&lt;br&gt;&lt;br&gt;&lt;b&gt;BlastP hit with ctg28_11&lt;/b&gt;&lt;br&gt;Percentage identity: 61&lt;br&gt;Percentage coverage: 99&lt;br&gt;BLAST bit score: 512&lt;br&gt;E-value: 4.9e-143" locus_tag="IF70_RS41875" class="clusterblast-orf" id="dummy-1_h1_5_28"  />
</g>
<g id="a1_0029"  >
<polygon points="477,90 489,90 494,85 489,80 477,80 477,90 " style="fill:white; stroke-width:1; stroke:black; " description="&lt;b&gt;IF70_RS41870&lt;/b&gt;&lt;br&gt;LytR family transcriptional regulator&lt;br&gt;Location: 66699 - 65266" locus_tag="IF70_RS41870" class="clusterblast-orf" id="dummy-1_h1_5_29"  />
</g>
<g id="a1_0030"  >
<polygon points="497,90 540,90 545,85 540,80 497,80 497,90 " style="fill:white; stroke-width:1; stroke:black; " description="&lt;b&gt;IF70_RS41865&lt;/b&gt;&lt;br&gt;amino acid adenylation protein&lt;br&gt;Location: 65027 - 61110" locus_tag="IF70_RS41865" class="clusterblast-orf" id="dummy-1_h1_5_30"  />
</g>
<g id="a1_0031"  >
<polygon points="545,90 545,90 550,85 545,80 545,80 545,90 " style="fill:white; stroke-width:1; stroke:black; " description="&lt;b&gt;IF70_RS41860&lt;/b&gt;&lt;br&gt;hypothetical protein&lt;br&gt;Location: 61085 - 60696" locus_tag="IF70_RS41860" class="clusterblast-orf" id="dummy-1_h1_5_31"  />
</g>
<g id="a1_0032"  >
<polygon points="550,85 555,80 564,80 564,90 555,90 550,85 " style="fill:#7715d8; stroke-width:1; stroke:black; " description="&lt;b&gt;IF70_RS41855&lt;/b&gt;&lt;br&gt;CoA transferase&lt;br&gt;Location: 60678 - 59479&lt;br&gt;&lt;br&gt;&lt;b&gt;BlastP hit with ctg28_7&lt;/b&gt;&lt;br&gt;Percentage identity: 39&lt;br&gt;Percentage coverage: 98&lt;br&gt;BLAST bit score: 244&lt;br&gt;E-value: 1.7e-62" locus_tag="IF70_RS41855" class="clusterblast-orf" id="dummy-1_h1_5_32"  />
</g>
<g id="a1_0033"  >
<polygon points="564,85 569,80 579,80 579,90 569,90 564,85 " style="fill:white; stroke-width:1; stroke:black; " description="&lt;b&gt;IF70_RS41850&lt;/b&gt;&lt;br&gt;acyl-CoA dehydrogenase&lt;br&gt;Location: 59479 - 58313" locus_tag="IF70_RS41850" class="clusterblast-orf" id="dummy-1_h1_5_33"  />
</g>
<g id="a1_0034"  >
<polygon points="580,90 584,90 589,85 584,80 580,80 580,90 " style="fill:white; stroke-width:1; stroke:black; " description="&lt;b&gt;IF70_RS41845&lt;/b&gt;&lt;br&gt;IclR family transcriptional regulator&lt;br&gt;Location: 58170 - 57430" locus_tag="IF70_RS41845" class="clusterblast-orf" id="dummy-1_h1_5_34"  />
</g>
<g id="a1_0035"  >
<polygon points="592,90 603,90 608,85 603,80 592,80 592,90 " style="fill:white; stroke-width:1; stroke:black; " description="&lt;b&gt;IF70_RS41840&lt;/b&gt;&lt;br&gt;MFS transporter&lt;br&gt;Location: 57238 - 55922" locus_tag="IF70_RS41840" class="clusterblast-orf" id="dummy-1_h1_5_35"  />
</g>
<g id="a1_0036"  >
<polygon points="608,85 613,80 622,80 622,90 613,90 608,85 " style="fill:white; stroke-width:1; stroke:black; " description="&lt;b&gt;IF70_RS41835&lt;/b&gt;&lt;br&gt;polysaccharide pyruvyl transferase family protein&lt;br&gt;Location: 55929 - 54757" locus_tag="IF70_RS41835" class="clusterblast-orf" id="dummy-1_h1_5_36"  />
</g>
<g id="a1_0037"  >
<polygon points="622,85 627,80 629,80 629,90 627,90 622,85 " style="fill:white; stroke-width:1; stroke:black; " description="&lt;b&gt;IF70_RS41830&lt;/b&gt;&lt;br&gt;hypothetical protein&lt;br&gt;Location: 54760 - 54191" locus_tag="IF70_RS41830" class="clusterblast-orf" id="dummy-1_h1_5_37"  />
</g>
<g id="a1_0038"  >
<polygon points="634,90 636,90 641,85 636,80 634,80 634,90 " style="fill:white; stroke-width:1; stroke:black; " description="&lt;b&gt;IF70_RS41825&lt;/b&gt;&lt;br&gt;DUF998 domain-containing protein&lt;br&gt;Location: 53793 - 53167" locus_tag="IF70_RS41825" class="clusterblast-orf" id="dummy-1_h1_5_38"  />
</g>
<g id="a1_0039"  >
<polygon points="641,90 661,90 666,85 661,80 641,80 641,90 " style="fill:white; stroke-width:1; stroke:black; " description="&lt;b&gt;IF70_RS46395&lt;/b&gt;&lt;br&gt;glycosyl transferase family 1&lt;br&gt;Location: 53152 - 51152" locus_tag="IF70_RS46395" class="clusterblast-orf" id="dummy-1_h1_5_39"  />
</g>
<g id="a1_0040"  >
<polygon points="667,85 672,80 707,80 707,90 672,90 667,85 " style="fill:white; stroke-width:1; stroke:black; " description="&lt;b&gt;IF70_RS41815&lt;/b&gt;&lt;br&gt;alpha-mannosidase&lt;br&gt;Location: 51075 - 47803" locus_tag="IF70_RS41815" class="clusterblast-orf" id="dummy-1_h1_5_40"  />
</g>
<g id="a1_0041"  >
<polygon points="714,85 719,80 728,80 728,90 719,90 714,85 " style="fill:white; stroke-width:1; stroke:black; " description="&lt;b&gt;IF70_RS41810&lt;/b&gt;&lt;br&gt;HAMP domain-containing protein&lt;br&gt;Location: 47224 - 46034" locus_tag="IF70_RS41810" class="clusterblast-orf" id="dummy-1_h1_5_41"  />
</g>
<g id="a1_0042"  >
<polygon points="728,85 733,80 736,80 736,90 733,90 728,85 " style="fill:white; stroke-width:1; stroke:black; " description="&lt;b&gt;IF70_RS41805&lt;/b&gt;&lt;br&gt;DNA-binding response regulator&lt;br&gt;Location: 46037 - 45366" locus_tag="IF70_RS41805" class="clusterblast-orf" id="dummy-1_h1_5_42"  />
</g>
<g id="a1_0043"  >
<polygon points="736,85 741,80 742,80 742,90 741,90 736,85 " style="fill:white; stroke-width:1; stroke:black; " description="&lt;b&gt;IF70_RS45295&lt;/b&gt;&lt;br&gt;hypothetical protein&lt;br&gt;Location: 45357 - 44854" locus_tag="IF70_RS45295" class="clusterblast-orf" id="dummy-1_h1_5_43"  />
</g>
<g id="a1_0044"  >
<polygon points="745,90 754,90 759,85 754,80 745,80 745,90 " style="fill:white; stroke-width:1; stroke:black; " description="&lt;b&gt;IF70_RS41795&lt;/b&gt;&lt;br&gt;DUF418 domain-containing protein&lt;br&gt;Location: 44668 - 43511" locus_tag="IF70_RS41795" class="clusterblast-orf" id="dummy-1_h1_5_44"  />
</g>
<g id="a1_0045"  >
<polygon points="759,85 763,80 763,90 759,85 " style="fill:white; stroke-width:1; stroke:black; " description="&lt;b&gt;IF70_RS46390&lt;/b&gt;&lt;br&gt;MFS transporter&lt;br&gt;Location: 43507 - 43150" locus_tag="IF70_RS46390" class="clusterblast-orf" id="dummy-1_h1_5_45"  />
</g>
<g id="a1_0046"  >
<polygon points="763,85 768,80 780,80 780,90 768,90 763,85 " style="fill:white; stroke-width:1; stroke:black; " description="&lt;b&gt;IF70_RS41785&lt;/b&gt;&lt;br&gt;MFS transporter&lt;br&gt;Location: 43150 - 41804" locus_tag="IF70_RS41785" class="clusterblast-orf" id="dummy-1_h1_5_46"  />
</g>
</svg>
