<svg xmlns="http://www.w3.org/2000/svg" xmlns:xlink="http://www.w3.org/1999/xlink" version="1.1" x="0" y="0" height="230" width="800" viewBox="0 0 800 230" preserveAspectRatio="none"  >
<g label="Query sequence" class="clusterblast-cluster"  >
<text x="5" y="20" class="clusterblast-acc"  >
Query sequence</text>
<line x1="10" y1="35" x2="778.0" y2="35" style="stroke-width:1; stroke:grey; "  />
<polygon points="0,40 45,40 50,35 45,30 0,30 0,40 " style="fill:#d81515; stroke-width:1; stroke:black; " description="&lt;b&gt;ctg2_107&lt;/b&gt;&lt;br&gt;ctg2 107&lt;br&gt;Location: 115813 - 118081" locus_tag="ctg2_107" class="clusterblast-orf" id="dummy-1_q0_0_all"  />
<polygon points="50,40 65,40 70,35 65,30 50,30 50,40 " style="fill:#6ad815; stroke-width:1; stroke:black; " description="&lt;b&gt;ctg2_108&lt;/b&gt;&lt;br&gt;ctg2 108&lt;br&gt;Location: 118100 - 118964" locus_tag="ctg2_108" class="clusterblast-orf" id="dummy-1_q1_0_all"  />
<polygon points="77,35 82,30 91,30 91,40 82,40 77,35 " style="fill:#15bfd8; stroke-width:1; stroke:black; " description="&lt;b&gt;ctg2_109&lt;/b&gt;&lt;br&gt;ctg2 109&lt;br&gt;Location: 119308 - 119923" locus_tag="ctg2_109" class="clusterblast-orf" id="dummy-1_q2_0_all"  />
<polygon points="93,40 97,40 102,35 97,30 93,30 93,40 " style="fill:#9d15d8; stroke-width:1; stroke:black; " description="&lt;b&gt;ctg2_110&lt;/b&gt;&lt;br&gt;ctg2 110&lt;br&gt;Location: 120025 - 120436" locus_tag="ctg2_110" class="clusterblast-orf" id="dummy-1_q3_0_all"  />
<polygon points="103,40 150,40 155,35 150,30 103,30 103,40 " style="fill:#d84815; stroke-width:1; stroke:black; " description="&lt;b&gt;ctg2_111&lt;/b&gt;&lt;br&gt;ctg2 111&lt;br&gt;Location: 120481 - 122830" locus_tag="ctg2_111" class="clusterblast-orf" id="dummy-1_q4_0_all"  />
<polygon points="160,40 176,40 181,35 176,30 160,30 160,40 " style="fill:#37d815; stroke-width:1; stroke:black; " description="&lt;b&gt;ctg2_112&lt;/b&gt;&lt;br&gt;ctg2 112&lt;br&gt;Location: 123049 - 123976" locus_tag="ctg2_112" class="clusterblast-orf" id="dummy-1_q5_0_all"  />
<polygon points="181,40 228,40 233,35 228,30 181,30 181,40 " style="fill:#158cd8; stroke-width:1; stroke:black; " description="&lt;b&gt;ctg2_113&lt;/b&gt;&lt;br&gt;ctg2 113&lt;br&gt;Location: 123968 - 126317" locus_tag="ctg2_113" class="clusterblast-orf" id="dummy-1_q6_0_all"  />
<polygon points="233,40 237,35 233,30 233,40 " style="fill:white; stroke-width:1; stroke:black; " description="&lt;b&gt;ctg2_114&lt;/b&gt;&lt;br&gt;ctg2 114&lt;br&gt;Location: 126338 - 126497" locus_tag="ctg2_114" class="clusterblast-orf" id="dummy-1_q7_0_all"  />
<polygon points="237,40 255,40 260,35 255,30 237,30 237,40 " style="fill:#d015d8; stroke-width:1; stroke:black; " description="&lt;b&gt;ctg2_115&lt;/b&gt;&lt;br&gt;ctg2 115&lt;br&gt;Location: 126507 - 127548" locus_tag="ctg2_115" class="clusterblast-orf" id="dummy-1_q8_0_all"  />
<polygon points="264,35 269,30 271,30 271,40 269,40 264,35 " style="fill:#d87b15; stroke-width:1; stroke:black; " description="&lt;b&gt;ctg2_116&lt;/b&gt;&lt;br&gt;ctg2 116&lt;br&gt;Location: 127707 - 128046" locus_tag="ctg2_116" class="clusterblast-orf" id="dummy-1_q9_0_all"  />
<polygon points="276,40 298,40 303,35 298,30 276,30 276,40 " style="fill:white; stroke-width:1; stroke:black; " description="&lt;b&gt;ctg2_117&lt;/b&gt;&lt;br&gt;ctg2 117&lt;br&gt;Location: 128271 - 129462" locus_tag="ctg2_117" class="clusterblast-orf" id="dummy-1_q10_0_all"  />
<polygon points="303,35 308,30 311,30 311,40 308,40 303,35 " style="fill:white; stroke-width:1; stroke:black; " description="&lt;b&gt;ctg2_118&lt;/b&gt;&lt;br&gt;ctg2 118&lt;br&gt;Location: 129484 - 129832" locus_tag="ctg2_118" class="clusterblast-orf" id="dummy-1_q11_0_all"  />
<polygon points="313,40 326,40 331,35 326,30 313,30 313,40 " style="fill:white; stroke-width:1; stroke:black; " description="&lt;b&gt;ctg2_119&lt;/b&gt;&lt;br&gt;ctg2 119&lt;br&gt;Location: 129950 - 130739" locus_tag="ctg2_119" class="clusterblast-orf" id="dummy-1_q12_0_all"  />
<polygon points="331,35 336,30 344,30 344,40 336,40 331,35 " style="fill:#15d826; stroke-width:1; stroke:black; " description="&lt;b&gt;ctg2_120&lt;/b&gt;&lt;br&gt;ctg2 120&lt;br&gt;Location: 130761 - 131343" locus_tag="ctg2_120" class="clusterblast-orf" id="dummy-1_q13_0_all"  />
<polygon points="346,40 377,40 382,35 377,30 346,30 346,40 " style="fill:#1559d8; stroke-width:1; stroke:black; " description="&lt;b&gt;ctg2_121&lt;/b&gt;&lt;br&gt;ctg2 121&lt;br&gt;Location: 131410 - 133021" locus_tag="ctg2_121" class="clusterblast-orf" id="dummy-1_q14_0_all"  />
<polygon points="388,40 434,40 439,35 434,30 388,30 388,40 " style="fill:#d815ae; stroke-width:1; stroke:black; " description="&lt;b&gt;ctg2_122&lt;/b&gt;&lt;br&gt;ctg2 122&lt;br&gt;Location: 133316 - 135611" locus_tag="ctg2_122" class="clusterblast-orf" id="dummy-1_q15_0_all"  />
<polygon points="439,40 444,40 449,35 444,30 439,30 439,40 " style="fill:#d8ae15; stroke-width:1; stroke:black; " description="&lt;b&gt;ctg2_123&lt;/b&gt;&lt;br&gt;ctg2 123&lt;br&gt;Location: 135628 - 136066" locus_tag="ctg2_123" class="clusterblast-orf" id="dummy-1_q16_0_all"  />
<polygon points="449,40 452,40 457,35 452,30 449,30 449,40 " style="fill:#15d859; stroke-width:1; stroke:black; " description="&lt;b&gt;ctg2_124&lt;/b&gt;&lt;br&gt;ctg2 124&lt;br&gt;Location: 136062 - 136443" locus_tag="ctg2_124" class="clusterblast-orf" id="dummy-1_q17_0_all"  />
<polygon points="457,40 466,40 471,35 466,30 457,30 457,40 " style="fill:#1526d8; stroke-width:1; stroke:black; " description="&lt;b&gt;ctg2_125&lt;/b&gt;&lt;br&gt;ctg2 125&lt;br&gt;Location: 136423 - 137038" locus_tag="ctg2_125" class="clusterblast-orf" id="dummy-1_q18_0_all"  />
<polygon points="472,35 477,30 508,30 508,40 477,40 472,35 " style="fill:#1559d8; stroke-width:1; stroke:black; " description="&lt;b&gt;ctg2_126&lt;/b&gt;&lt;br&gt;ctg2 126&lt;br&gt;Location: 137087 - 138728" locus_tag="ctg2_126" class="clusterblast-orf" id="dummy-1_q19_0_all"  />
<polygon points="513,40 522,40 527,35 522,30 513,30 513,40 " style="fill:#d8157b; stroke-width:1; stroke:black; " description="&lt;b&gt;ctg2_127&lt;/b&gt;&lt;br&gt;ctg2 127&lt;br&gt;Location: 138967 - 139576" locus_tag="ctg2_127" class="clusterblast-orf" id="dummy-1_q20_0_all"  />
<polygon points="529,40 539,40 544,35 539,30 529,30 529,40 " style="fill:#d0d815; stroke-width:1; stroke:black; " description="&lt;b&gt;ctg2_128&lt;/b&gt;&lt;br&gt;ctg2 128&lt;br&gt;Location: 139684 - 140356" locus_tag="ctg2_128" class="clusterblast-orf" id="dummy-1_q21_0_all"  />
<polygon points="545,35 550,30 566,30 566,40 550,40 545,35 " style="fill:#15d88c; stroke-width:1; stroke:black; " description="&lt;b&gt;ctg2_129&lt;/b&gt;&lt;br&gt;ctg2 129&lt;br&gt;Location: 140367 - 141345" locus_tag="ctg2_129" class="clusterblast-orf" id="dummy-1_q22_0_all"  />
<polygon points="574,40 594,40 599,35 594,30 574,30 574,40 " style="fill:#3715d8; stroke-width:1; stroke:black; " description="&lt;b&gt;ctg2_130&lt;/b&gt;&lt;br&gt;ctg2 130&lt;br&gt;Location: 141689 - 142835" locus_tag="ctg2_130" class="clusterblast-orf" id="dummy-1_q23_0_all"  />
<polygon points="601,35 606,30 631,30 631,40 606,40 601,35 " style="fill:#d81548; stroke-width:1; stroke:black; " description="&lt;b&gt;ctg2_131&lt;/b&gt;&lt;br&gt;ctg2 131&lt;br&gt;Location: 142922 - 144260" locus_tag="ctg2_131" class="clusterblast-orf" id="dummy-1_q24_0_all"  />
<polygon points="632,35 637,30 650,30 650,40 637,40 632,35 " style="fill:#9dd815; stroke-width:1; stroke:black; " description="&lt;b&gt;ctg2_132&lt;/b&gt;&lt;br&gt;ctg2 132&lt;br&gt;Location: 144292 - 145138" locus_tag="ctg2_132" class="clusterblast-orf" id="dummy-1_q25_0_all"  />
<polygon points="653,40 668,40 673,35 668,30 653,30 653,40 " style="fill:#15d8bf; stroke-width:1; stroke:black; " description="&lt;b&gt;ctg2_133&lt;/b&gt;&lt;br&gt;ctg2 133&lt;br&gt;Location: 145248 - 146163" locus_tag="ctg2_133" class="clusterblast-orf" id="dummy-1_q26_0_all"  />
<polygon points="676,35 681,30 694,30 694,40 681,40 676,35 " style="fill:white; stroke-width:1; stroke:black; " description="&lt;b&gt;ctg2_134&lt;/b&gt;&lt;br&gt;ctg2 134&lt;br&gt;Location: 146271 - 147105" locus_tag="ctg2_134" class="clusterblast-orf" id="dummy-1_q27_0_all"  />
<polygon points="697,35 702,30 711,30 711,40 702,40 697,35 " style="fill:white; stroke-width:1; stroke:black; " description="&lt;b&gt;ctg2_135&lt;/b&gt;&lt;br&gt;ctg2 135&lt;br&gt;Location: 147246 - 147885" locus_tag="ctg2_135" class="clusterblast-orf" id="dummy-1_q28_0_all"  />
<polygon points="713,40 739,40 744,35 739,30 713,30 713,40 " style="fill:white; stroke-width:1; stroke:black; " description="&lt;b&gt;ctg2_136&lt;/b&gt;&lt;br&gt;ctg2 136&lt;br&gt;Location: 147950 - 149336" locus_tag="ctg2_136" class="clusterblast-orf" id="dummy-1_q29_0_all"  />
<polygon points="744,40 755,40 760,35 755,30 744,30 744,40 " style="fill:white; stroke-width:1; stroke:black; " description="&lt;b&gt;ctg2_137&lt;/b&gt;&lt;br&gt;ctg2 137&lt;br&gt;Location: 149355 - 150066" locus_tag="ctg2_137" class="clusterblast-orf" id="dummy-1_q30_0_all"  />
<polygon points="760,40 769,40 774,35 769,30 760,30 760,40 " style="fill:#6a15d8; stroke-width:1; stroke:black; " description="&lt;b&gt;ctg2_138&lt;/b&gt;&lt;br&gt;ctg2 138&lt;br&gt;Location: 150076 - 150691" locus_tag="ctg2_138" class="clusterblast-orf" id="dummy-1_q31_0_all"  />
<polygon points="775,35 780,30 780,30 780,40 780,40 775,35 " style="fill:white; stroke-width:1; stroke:black; " description="&lt;b&gt;ctg2_139&lt;/b&gt;&lt;br&gt;ctg2 139&lt;br&gt;Location: 150734 - 150968" locus_tag="ctg2_139" class="clusterblast-orf" id="dummy-1_q32_0_all"  />
</g>
<g label="NZ_KI421511" description="NZ_KI421511_c15: Amycolatopsis thermoflava N1165 AmythDRAFT Scaffold1.2, whol... (55% of genes show similarity), terpene" class="clusterblast-cluster"  >
<text x="5" y="70" class="clusterblast-acc"  >
<a xlink:href="https://antismash-db.secondarymetabolites.org/go/NZ_KI421511/15" target="_blank">NZ_KI421511_c15</a>: Amycolatopsis thermoflava N1165 AmythDRAFT Scaffold1.2, whol... (55% of genes show similarity), terpene</text>
<line x1="10" y1="85" x2="778.0" y2="85" style="stroke-width:1; stroke:grey; "  />
</g>
<g id="a1_000"  >
<polygon points="172,90 184,90 189,85 184,80 172,80 172,90 " style="fill:white; stroke-width:1; stroke:black; " description="&lt;b&gt;AMYTH_RS0136415&lt;/b&gt;&lt;br&gt;MerR family transcriptional regulator&lt;br&gt;Location: 7332865 - 7333623" locus_tag="AMYTH_RS0136415" class="clusterblast-orf" id="dummy-1_h1_3_0"  />
</g>
<g id="a1_001"  >
<polygon points="190,85 195,80 203,80 203,90 195,90 190,85 " style="fill:#15d826; stroke-width:1; stroke:black; " description="&lt;b&gt;AMYTH_RS0136420&lt;/b&gt;&lt;br&gt;hypothetical protein&lt;br&gt;Location: 7333661 - 7334251&lt;br&gt;&lt;br&gt;&lt;b&gt;BlastP hit with ctg2_120&lt;/b&gt;&lt;br&gt;Percentage identity: 83&lt;br&gt;Percentage coverage: 98&lt;br&gt;BLAST bit score: 313&lt;br&gt;E-value: 1.9e-83" locus_tag="AMYTH_RS0136420" class="clusterblast-orf" id="dummy-1_h1_3_1"  />
</g>
<g id="a1_002"  >
<polygon points="205,90 235,90 240,85 235,80 205,80 205,90 " style="fill:#1559d8; stroke-width:1; stroke:black; " description="&lt;b&gt;AMYTH_RS0136425&lt;/b&gt;&lt;br&gt;pyruvate, phosphate dikinase&lt;br&gt;Location: 7334340 - 7335947&lt;br&gt;&lt;br&gt;&lt;b&gt;BlastP hit with ctg2_121&lt;/b&gt;&lt;br&gt;Percentage identity: 87&lt;br&gt;Percentage coverage: 100&lt;br&gt;BLAST bit score: 901&lt;br&gt;E-value: 3.5e-260&lt;br&gt;&lt;br&gt;&lt;b&gt;BlastP hit with ctg2_126&lt;/b&gt;&lt;br&gt;Percentage identity: 40&lt;br&gt;Percentage coverage: 22&lt;br&gt;BLAST bit score: 68&lt;br&gt;E-value: 2.3e-09" locus_tag="AMYTH_RS0136425" class="clusterblast-orf" id="dummy-1_h1_3_2"  />
</g>
<g id="a1_003"  >
<polygon points="243,90 293,90 298,85 293,80 243,80 243,90 " style="fill:#d815ae; stroke-width:1; stroke:black; " description="&lt;b&gt;AMYTH_RS0136430&lt;/b&gt;&lt;br&gt;HAMP domain-containing protein&lt;br&gt;Location: 7336065 - 7338554&lt;br&gt;&lt;br&gt;&lt;b&gt;BlastP hit with ctg2_122&lt;/b&gt;&lt;br&gt;Percentage identity: 91&lt;br&gt;Percentage coverage: 101&lt;br&gt;BLAST bit score: 1297&lt;br&gt;E-value: 0.0" locus_tag="AMYTH_RS0136430" class="clusterblast-orf" id="dummy-1_h1_3_3"  />
</g>
<g id="a1_004"  >
<polygon points="299,90 303,90 308,85 303,80 299,80 299,90 " style="fill:#d8ae15; stroke-width:1; stroke:black; " description="&lt;b&gt;AMYTH_RS0136435&lt;/b&gt;&lt;br&gt;dynein regulation protein LC7&lt;br&gt;Location: 7338572 - 7339009&lt;br&gt;&lt;br&gt;&lt;b&gt;BlastP hit with ctg2_123&lt;/b&gt;&lt;br&gt;Percentage identity: 96&lt;br&gt;Percentage coverage: 100&lt;br&gt;BLAST bit score: 268&lt;br&gt;E-value: 5.3e-70" locus_tag="AMYTH_RS0136435" class="clusterblast-orf" id="dummy-1_h1_3_4"  />
</g>
<g id="a1_005"  >
<polygon points="308,90 312,90 317,85 312,80 308,80 308,90 " style="fill:#15d859; stroke-width:1; stroke:black; " description="&lt;b&gt;AMYTH_RS0136440&lt;/b&gt;&lt;br&gt;DUF742 domain-containing protein&lt;br&gt;Location: 7339006 - 7339386&lt;br&gt;&lt;br&gt;&lt;b&gt;BlastP hit with ctg2_124&lt;/b&gt;&lt;br&gt;Percentage identity: 98&lt;br&gt;Percentage coverage: 100&lt;br&gt;BLAST bit score: 246&lt;br&gt;E-value: 1.4e-63" locus_tag="AMYTH_RS0136440" class="clusterblast-orf" id="dummy-1_h1_3_5"  />
</g>
<g id="a1_006"  >
<polygon points="316,90 325,90 330,85 325,80 316,80 316,90 " style="fill:#1526d8; stroke-width:1; stroke:black; " description="&lt;b&gt;AMYTH_RS0136445&lt;/b&gt;&lt;br&gt;ATP-binding protein&lt;br&gt;Location: 7339367 - 7339981&lt;br&gt;&lt;br&gt;&lt;b&gt;BlastP hit with ctg2_125&lt;/b&gt;&lt;br&gt;Percentage identity: 97&lt;br&gt;Percentage coverage: 100&lt;br&gt;BLAST bit score: 391&lt;br&gt;E-value: 4.4e-107" locus_tag="AMYTH_RS0136445" class="clusterblast-orf" id="dummy-1_h1_3_6"  />
</g>
<g id="a1_007"  >
<polygon points="331,85 336,80 366,80 366,90 336,90 331,85 " style="fill:#1559d8; stroke-width:1; stroke:black; " description="&lt;b&gt;AMYTH_RS0136450&lt;/b&gt;&lt;br&gt;phosphoenolpyruvate carboxykinase&lt;br&gt;Location: 7340030 - 7341607&lt;br&gt;&lt;br&gt;&lt;b&gt;BlastP hit with ctg2_126&lt;/b&gt;&lt;br&gt;Percentage identity: 93&lt;br&gt;Percentage coverage: 96&lt;br&gt;BLAST bit score: 961&lt;br&gt;E-value: 4.9e-278" locus_tag="AMYTH_RS0136450" class="clusterblast-orf" id="dummy-1_h1_3_7"  />
</g>
<g id="a1_008"  >
<polygon points="374,90 383,90 388,85 383,80 374,80 374,90 " style="fill:#d0d815; stroke-width:1; stroke:black; " description="&lt;b&gt;AMYTH_RS0136455&lt;/b&gt;&lt;br&gt;TetR family transcriptional regulator&lt;br&gt;Location: 7341986 - 7342615&lt;br&gt;&lt;br&gt;&lt;b&gt;BlastP hit with ctg2_128&lt;/b&gt;&lt;br&gt;Percentage identity: 88&lt;br&gt;Percentage coverage: 94&lt;br&gt;BLAST bit score: 350&lt;br&gt;E-value: 1.2e-94" locus_tag="AMYTH_RS0136455" class="clusterblast-orf" id="dummy-1_h1_3_8"  />
</g>
<g id="a1_009"  >
<polygon points="389,85 394,80 401,80 401,90 394,90 389,85 " style="fill:#15d88c; stroke-width:1; stroke:black; " description="&lt;b&gt;AMYTH_RS48305&lt;/b&gt;&lt;br&gt;hypothetical protein&lt;br&gt;Location: 7342649 - 7343191&lt;br&gt;&lt;br&gt;&lt;b&gt;BlastP hit with ctg2_129&lt;/b&gt;&lt;br&gt;Percentage identity: 96&lt;br&gt;Percentage coverage: 55&lt;br&gt;BLAST bit score: 340&lt;br&gt;E-value: 1.9e-91" locus_tag="AMYTH_RS48305" class="clusterblast-orf" id="dummy-1_h1_3_9"  />
</g>
<g id="a1_0010"  >
<polygon points="418,90 439,90 444,85 439,80 418,80 418,90 " style="fill:#3715d8; stroke-width:1; stroke:black; " description="&lt;b&gt;AMYTH_RS0136465&lt;/b&gt;&lt;br&gt;glycosyltransferase&lt;br&gt;Location: 7343959 - 7345104&lt;br&gt;&lt;br&gt;&lt;b&gt;BlastP hit with ctg2_130&lt;/b&gt;&lt;br&gt;Percentage identity: 86&lt;br&gt;Percentage coverage: 100&lt;br&gt;BLAST bit score: 657&lt;br&gt;E-value: 8.1e-187" locus_tag="AMYTH_RS0136465" class="clusterblast-orf" id="dummy-1_h1_3_10"  />
</g>
<g id="a1_0011"  >
<polygon points="457,90 478,90 483,85 478,80 457,80 457,90 " style="fill:white; stroke-width:1; stroke:black; " description="&lt;b&gt;AMYTH_RS0136475&lt;/b&gt;&lt;br&gt;hypothetical protein&lt;br&gt;Location: 7345707 - 7346897" locus_tag="AMYTH_RS0136475" class="clusterblast-orf" id="dummy-1_h1_3_11"  />
</g>
<g id="a1_0012"  >
<polygon points="496,85 501,80 510,80 510,90 501,90 496,85 " style="fill:white; stroke-width:1; stroke:black; " description="&lt;b&gt;AMYTH_RS0136485&lt;/b&gt;&lt;br&gt;oligoribonuclease&lt;br&gt;Location: 7347478 - 7348086" locus_tag="AMYTH_RS0136485" class="clusterblast-orf" id="dummy-1_h1_3_12"  />
</g>
<g id="a1_0013"  >
<polygon points="512,85 517,80 532,80 532,90 517,90 512,85 " style="fill:white; stroke-width:1; stroke:black; " description="&lt;b&gt;AMYTH_RS0136490&lt;/b&gt;&lt;br&gt;serine protease&lt;br&gt;Location: 7348171 - 7349097" locus_tag="AMYTH_RS0136490" class="clusterblast-orf" id="dummy-1_h1_3_13"  />
</g>
<g id="a1_0014"  >
<polygon points="534,85 539,80 550,80 550,90 539,90 534,85 " style="fill:white; stroke-width:1; stroke:black; " description="&lt;b&gt;AMYTH_RS0136495&lt;/b&gt;&lt;br&gt;methyltransferase domain-containing protein&lt;br&gt;Location: 7349173 - 7349916" locus_tag="AMYTH_RS0136495" class="clusterblast-orf" id="dummy-1_h1_3_14"  />
</g>
<g id="a1_0015"  >
<polygon points="557,90 573,90 578,85 573,80 557,80 557,90 " style="fill:white; stroke-width:1; stroke:black; " description="&lt;b&gt;AMYTH_RS0136500&lt;/b&gt;&lt;br&gt;DNA-3-methyladenine glycosylase 2 family protein&lt;br&gt;Location: 7350199 - 7351143" locus_tag="AMYTH_RS0136500" class="clusterblast-orf" id="dummy-1_h1_3_15"  />
</g>
<g id="a1_0016"  >
<polygon points="581,85 586,80 586,80 586,90 586,90 581,85 " style="fill:white; stroke-width:1; stroke:black; " description="&lt;b&gt;AMYTH_RS48310&lt;/b&gt;&lt;br&gt;hypothetical protein&lt;br&gt;Location: 7351314 - 7351537" locus_tag="AMYTH_RS48310" class="clusterblast-orf" id="dummy-1_h1_3_16"  />
</g>
<g id="a1_0017"  >
<polygon points="591,90 602,90 607,85 602,80 591,80 591,90 " style="fill:white; stroke-width:1; stroke:black; " description="&lt;b&gt;AMYTH_RS0136505&lt;/b&gt;&lt;br&gt;membrane protein&lt;br&gt;Location: 7351735 - 7352463" locus_tag="AMYTH_RS0136505" class="clusterblast-orf" id="dummy-1_h1_3_17"  />
</g>
</svg>
