<svg xmlns="http://www.w3.org/2000/svg" xmlns:xlink="http://www.w3.org/1999/xlink" version="1.1" x="0" y="0" height="230" width="800" viewBox="0 0 800 230" preserveAspectRatio="none"  >
<g label="Query sequence" class="clusterblast-cluster"  >
<text x="5" y="20" class="clusterblast-acc"  >
Query sequence</text>
<line x1="10" y1="35" x2="778.0" y2="35" style="stroke-width:1; stroke:grey; "  />
<polygon points="7,35 10,30 10,40 7,35 " style="fill:white; stroke-width:1; stroke:black; " description="&lt;b&gt;ctg68_3&lt;/b&gt;&lt;br&gt;ctg68 3&lt;br&gt;Location: 1428 - 1599" locus_tag="ctg68_3" class="clusterblast-orf" id="dummy-1_q0_0_all"  />
<polygon points="18,35 23,30 61,30 61,40 23,40 18,35 " style="fill:#d81515; stroke-width:1; stroke:black; " description="&lt;b&gt;ctg68_4&lt;/b&gt;&lt;br&gt;ctg68 4&lt;br&gt;Location: 2015 - 4208" locus_tag="ctg68_4" class="clusterblast-orf" id="dummy-1_q1_0_all"  />
<polygon points="61,35 66,30 83,30 83,40 66,40 61,35 " style="fill:#6ad815; stroke-width:1; stroke:black; " description="&lt;b&gt;ctg68_5&lt;/b&gt;&lt;br&gt;ctg68 5&lt;br&gt;Location: 4204 - 5329" locus_tag="ctg68_5" class="clusterblast-orf" id="dummy-1_q2_0_all"  />
<polygon points="83,35 88,30 89,30 89,40 88,40 83,35 " style="fill:white; stroke-width:1; stroke:black; " description="&lt;b&gt;ctg68_6&lt;/b&gt;&lt;br&gt;ctg68 6&lt;br&gt;Location: 5328 - 5637" locus_tag="ctg68_6" class="clusterblast-orf" id="dummy-1_q3_0_all"  />
<polygon points="89,35 94,30 94,30 94,40 94,40 89,35 " style="fill:#15bfd8; stroke-width:1; stroke:black; " description="&lt;b&gt;ctg68_7&lt;/b&gt;&lt;br&gt;ctg68 7&lt;br&gt;Location: 5623 - 5878" locus_tag="ctg68_7" class="clusterblast-orf" id="dummy-1_q4_0_all"  />
<polygon points="94,35 99,30 103,30 103,40 99,40 94,35 " style="fill:white; stroke-width:1; stroke:black; " description="&lt;b&gt;ctg68_8&lt;/b&gt;&lt;br&gt;ctg68 8&lt;br&gt;Location: 5877 - 6321" locus_tag="ctg68_8" class="clusterblast-orf" id="dummy-1_q5_0_all"  />
<polygon points="103,35 108,30 108,30 108,40 108,40 103,35 " style="fill:white; stroke-width:1; stroke:black; " description="&lt;b&gt;ctg68_9&lt;/b&gt;&lt;br&gt;ctg68 9&lt;br&gt;Location: 6320 - 6608" locus_tag="ctg68_9" class="clusterblast-orf" id="dummy-1_q6_0_all"  />
<polygon points="111,40 113,40 118,35 113,30 111,30 111,40 " style="fill:white; stroke-width:1; stroke:black; " description="&lt;b&gt;ctg68_10&lt;/b&gt;&lt;br&gt;ctg68 10&lt;br&gt;Location: 6747 - 7104" locus_tag="ctg68_10" class="clusterblast-orf" id="dummy-1_q7_0_all"  />
<polygon points="119,40 119,40 124,35 119,30 119,30 119,40 " style="fill:white; stroke-width:1; stroke:black; " description="&lt;b&gt;ctg68_11&lt;/b&gt;&lt;br&gt;ctg68 11&lt;br&gt;Location: 7161 - 7422" locus_tag="ctg68_11" class="clusterblast-orf" id="dummy-1_q8_0_all"  />
<polygon points="125,40 143,40 148,35 143,30 125,30 125,40 " style="fill:white; stroke-width:1; stroke:black; " description="&lt;b&gt;ctg68_12&lt;/b&gt;&lt;br&gt;ctg68 12&lt;br&gt;Location: 7466 - 8609" locus_tag="ctg68_12" class="clusterblast-orf" id="dummy-1_q9_0_all"  />
<polygon points="147,35 152,30 161,30 161,40 152,40 147,35 " style="fill:white; stroke-width:1; stroke:black; " description="&lt;b&gt;ctg68_13&lt;/b&gt;&lt;br&gt;ctg68 13&lt;br&gt;Location: 8594 - 9296" locus_tag="ctg68_13" class="clusterblast-orf" id="dummy-1_q10_0_all"  />
<polygon points="162,40 177,40 182,35 177,30 162,30 162,40 " style="fill:white; stroke-width:1; stroke:black; " description="&lt;b&gt;ctg68_14&lt;/b&gt;&lt;br&gt;ctg68 14&lt;br&gt;Location: 9343 - 10384" locus_tag="ctg68_14" class="clusterblast-orf" id="dummy-1_q11_0_all"  />
<polygon points="185,40 189,35 185,30 185,40 " style="fill:white; stroke-width:1; stroke:black; " description="&lt;b&gt;ctg68_15&lt;/b&gt;&lt;br&gt;ctg68 15&lt;br&gt;Location: 10516 - 10708" locus_tag="ctg68_15" class="clusterblast-orf" id="dummy-1_q12_0_all"  />
<polygon points="187,35 192,30 205,30 205,40 192,40 187,35 " style="fill:white; stroke-width:1; stroke:black; " description="&lt;b&gt;ctg68_16&lt;/b&gt;&lt;br&gt;ctg68 16&lt;br&gt;Location: 10633 - 11551" locus_tag="ctg68_16" class="clusterblast-orf" id="dummy-1_q13_0_all"  />
<polygon points="206,40 210,35 206,30 206,40 " style="fill:white; stroke-width:1; stroke:black; " description="&lt;b&gt;ctg68_17&lt;/b&gt;&lt;br&gt;ctg68 17&lt;br&gt;Location: 11572 - 11800" locus_tag="ctg68_17" class="clusterblast-orf" id="dummy-1_q14_0_all"  />
<polygon points="210,40 214,35 210,30 210,40 " style="fill:white; stroke-width:1; stroke:black; " description="&lt;b&gt;ctg68_18&lt;/b&gt;&lt;br&gt;ctg68 18&lt;br&gt;Location: 11796 - 11991" locus_tag="ctg68_18" class="clusterblast-orf" id="dummy-1_q15_0_all"  />
<polygon points="225,40 225,40 230,35 225,30 225,30 225,40 " style="fill:white; stroke-width:1; stroke:black; " description="&lt;b&gt;ctg68_19&lt;/b&gt;&lt;br&gt;ctg68 19&lt;br&gt;Location: 12546 - 12792" locus_tag="ctg68_19" class="clusterblast-orf" id="dummy-1_q16_0_all"  />
<polygon points="229,35 233,30 233,40 229,35 " style="fill:white; stroke-width:1; stroke:black; " description="&lt;b&gt;ctg68_20&lt;/b&gt;&lt;br&gt;ctg68 20&lt;br&gt;Location: 12788 - 12974" locus_tag="ctg68_20" class="clusterblast-orf" id="dummy-1_q17_0_all"  />
<polygon points="237,35 242,30 246,30 246,40 242,40 237,35 " style="fill:white; stroke-width:1; stroke:black; " description="&lt;b&gt;ctg68_21&lt;/b&gt;&lt;br&gt;ctg68 21&lt;br&gt;Location: 13157 - 13622" locus_tag="ctg68_21" class="clusterblast-orf" id="dummy-1_q18_0_all"  />
<polygon points="248,40 255,40 260,35 255,30 248,30 248,40 " style="fill:white; stroke-width:1; stroke:black; " description="&lt;b&gt;ctg68_22&lt;/b&gt;&lt;br&gt;ctg68 22&lt;br&gt;Location: 13709 - 14369" locus_tag="ctg68_22" class="clusterblast-orf" id="dummy-1_q19_0_all"  />
<polygon points="262,40 265,40 270,35 265,30 262,30 262,40 " style="fill:#9d15d8; stroke-width:1; stroke:black; " description="&lt;b&gt;ctg68_23&lt;/b&gt;&lt;br&gt;ctg68 23&lt;br&gt;Location: 14434 - 14860" locus_tag="ctg68_23" class="clusterblast-orf" id="dummy-1_q20_0_all"  />
<polygon points="273,40 284,40 289,35 284,30 273,30 273,40 " style="fill:white; stroke-width:1; stroke:black; " description="&lt;b&gt;ctg68_24&lt;/b&gt;&lt;br&gt;ctg68 24&lt;br&gt;Location: 14985 - 15846" locus_tag="ctg68_24" class="clusterblast-orf" id="dummy-1_q21_0_all"  />
<polygon points="290,35 295,30 305,30 305,40 295,40 290,35 " style="fill:#d84815; stroke-width:1; stroke:black; " description="&lt;b&gt;ctg68_25&lt;/b&gt;&lt;br&gt;ctg68 25&lt;br&gt;Location: 15892 - 16660" locus_tag="ctg68_25" class="clusterblast-orf" id="dummy-1_q22_0_all"  />
<polygon points="306,40 322,40 327,35 322,30 306,30 306,40 " style="fill:#37d815; stroke-width:1; stroke:black; " description="&lt;b&gt;ctg68_26&lt;/b&gt;&lt;br&gt;ctg68 26&lt;br&gt;Location: 16703 - 17762" locus_tag="ctg68_26" class="clusterblast-orf" id="dummy-1_q23_0_all"  />
<polygon points="326,35 331,30 380,30 380,40 331,40 326,35 " style="fill:#158cd8; stroke-width:1; stroke:black; " description="&lt;b&gt;ctg68_27&lt;/b&gt;&lt;br&gt;ctg68 27&lt;br&gt;Location: 17719 - 20455" locus_tag="ctg68_27" class="clusterblast-orf" id="dummy-1_q24_0_all"  />
<polygon points="383,40 401,40 406,35 401,30 383,30 383,40 " style="fill:#d015d8; stroke-width:1; stroke:black; " description="&lt;b&gt;ctg68_28&lt;/b&gt;&lt;br&gt;ctg68 28&lt;br&gt;Location: 20646 - 21807" locus_tag="ctg68_28" class="clusterblast-orf" id="dummy-1_q25_0_all"  />
<polygon points="408,40 425,40 430,35 425,30 408,30 408,40 " style="fill:#d87b15; stroke-width:1; stroke:black; " description="&lt;b&gt;ctg68_29&lt;/b&gt;&lt;br&gt;ctg68 29&lt;br&gt;Location: 21877 - 23023" locus_tag="ctg68_29" class="clusterblast-orf" id="dummy-1_q26_0_all"  />
<polygon points="430,40 440,40 445,35 440,30 430,30 430,40 " style="fill:#15d826; stroke-width:1; stroke:black; " description="&lt;b&gt;ctg68_30&lt;/b&gt;&lt;br&gt;ctg68 30&lt;br&gt;Location: 23032 - 23809" locus_tag="ctg68_30" class="clusterblast-orf" id="dummy-1_q27_0_all"  />
<polygon points="445,35 450,30 462,30 462,40 450,40 445,35 " style="fill:white; stroke-width:1; stroke:black; " description="&lt;b&gt;ctg68_31&lt;/b&gt;&lt;br&gt;ctg68 31&lt;br&gt;Location: 23805 - 24678" locus_tag="ctg68_31" class="clusterblast-orf" id="dummy-1_q28_0_all"  />
<polygon points="464,40 470,40 475,35 470,30 464,30 464,40 " style="fill:white; stroke-width:1; stroke:black; " description="&lt;b&gt;ctg68_32&lt;/b&gt;&lt;br&gt;ctg68 32&lt;br&gt;Location: 24766 - 25333" locus_tag="ctg68_32" class="clusterblast-orf" id="dummy-1_q29_0_all"  />
<polygon points="477,40 495,40 500,35 495,30 477,30 477,40 " style="fill:#1559d8; stroke-width:1; stroke:black; " description="&lt;b&gt;ctg68_33&lt;/b&gt;&lt;br&gt;ctg68 33&lt;br&gt;Location: 25417 - 26599" locus_tag="ctg68_33" class="clusterblast-orf" id="dummy-1_q30_0_all"  />
<polygon points="504,40 513,40 518,35 513,30 504,30 504,40 " style="fill:#d815ae; stroke-width:1; stroke:black; " description="&lt;b&gt;ctg68_34&lt;/b&gt;&lt;br&gt;ctg68 34&lt;br&gt;Location: 26775 - 27492" locus_tag="ctg68_34" class="clusterblast-orf" id="dummy-1_q31_0_all"  />
<polygon points="518,35 523,30 546,30 546,40 523,40 518,35 " style="fill:#d8ae15; stroke-width:1; stroke:black; " description="&lt;b&gt;ctg68_35&lt;/b&gt;&lt;br&gt;ctg68 35&lt;br&gt;Location: 27526 - 28924" locus_tag="ctg68_35" class="clusterblast-orf" id="dummy-1_q32_0_all"  />
<polygon points="551,40 563,40 568,35 563,30 551,30 551,40 " style="fill:#15d859; stroke-width:1; stroke:black; " description="&lt;b&gt;ctg68_36&lt;/b&gt;&lt;br&gt;ctg68 36&lt;br&gt;Location: 29186 - 30044" locus_tag="ctg68_36" class="clusterblast-orf" id="dummy-1_q33_0_all"  />
<polygon points="568,40 580,40 585,35 580,30 568,30 568,40 " style="fill:#1526d8; stroke-width:1; stroke:black; " description="&lt;b&gt;ctg68_37&lt;/b&gt;&lt;br&gt;ctg68 37&lt;br&gt;Location: 30080 - 30926" locus_tag="ctg68_37" class="clusterblast-orf" id="dummy-1_q34_0_all"  />
<polygon points="588,35 591,30 591,40 588,35 " style="fill:white; stroke-width:1; stroke:black; " description="&lt;b&gt;ctg68_38&lt;/b&gt;&lt;br&gt;ctg68 38&lt;br&gt;Location: 31092 - 31260" locus_tag="ctg68_38" class="clusterblast-orf" id="dummy-1_q35_0_all"  />
<polygon points="591,35 596,30 600,30 600,40 596,40 591,35 " style="fill:#d8157b; stroke-width:1; stroke:black; " description="&lt;b&gt;ctg68_39&lt;/b&gt;&lt;br&gt;ctg68 39&lt;br&gt;Location: 31256 - 31700" locus_tag="ctg68_39" class="clusterblast-orf" id="dummy-1_q36_0_all"  />
<polygon points="603,40 603,40 608,35 603,30 603,30 603,40 " style="fill:#d0d815; stroke-width:1; stroke:black; " description="&lt;b&gt;ctg68_40&lt;/b&gt;&lt;br&gt;ctg68 40&lt;br&gt;Location: 31875 - 32127" locus_tag="ctg68_40" class="clusterblast-orf" id="dummy-1_q37_0_all"  />
<polygon points="610,35 615,30 622,30 622,40 615,40 610,35 " style="fill:#15d88c; stroke-width:1; stroke:black; " description="&lt;b&gt;ctg68_41&lt;/b&gt;&lt;br&gt;ctg68 41&lt;br&gt;Location: 32224 - 32830" locus_tag="ctg68_41" class="clusterblast-orf" id="dummy-1_q38_0_all"  />
<polygon points="624,40 635,40 640,35 635,30 624,30 624,40 " style="fill:#3715d8; stroke-width:1; stroke:black; " description="&lt;b&gt;ctg68_42&lt;/b&gt;&lt;br&gt;ctg68 42&lt;br&gt;Location: 32930 - 33749" locus_tag="ctg68_42" class="clusterblast-orf" id="dummy-1_q39_0_all"  />
<polygon points="640,40 664,40 669,35 664,30 640,30 640,40 " style="fill:#d81548; stroke-width:1; stroke:black; " description="&lt;b&gt;ctg68_43&lt;/b&gt;&lt;br&gt;ctg68 43&lt;br&gt;Location: 33726 - 35223" locus_tag="ctg68_43" class="clusterblast-orf" id="dummy-1_q40_0_all"  />
<polygon points="671,40 690,40 695,35 690,30 671,30 671,40 " style="fill:#9dd815; stroke-width:1; stroke:black; " description="&lt;b&gt;ctg68_44&lt;/b&gt;&lt;br&gt;ctg68 44&lt;br&gt;Location: 35301 - 36537" locus_tag="ctg68_44" class="clusterblast-orf" id="dummy-1_q41_0_all"  />
<polygon points="695,40 726,40 731,35 726,30 695,30 695,40 " style="fill:#15d8bf; stroke-width:1; stroke:black; " description="&lt;b&gt;ctg68_45&lt;/b&gt;&lt;br&gt;ctg68 45&lt;br&gt;Location: 36552 - 38403" locus_tag="ctg68_45" class="clusterblast-orf" id="dummy-1_q42_0_all"  />
<polygon points="738,40 768,40 773,35 768,30 738,30 738,40 " style="fill:#6a15d8; stroke-width:1; stroke:black; " description="&lt;b&gt;ctg68_46&lt;/b&gt;&lt;br&gt;ctg68 46&lt;br&gt;Location: 38751 - 40503" locus_tag="ctg68_46" class="clusterblast-orf" id="dummy-1_q43_0_all"  />
</g>
<g label="NZ_AFWY03000010" description="NZ_AFWY03000010_c11: Amycolatopsis sp. ATCC 39116 strain 75iv2 Amy contig0009... (52% of genes show similarity), arylpolyene" class="clusterblast-cluster"  >
<text x="5" y="70" class="clusterblast-acc"  >
<a xlink:href="https://antismash-db.secondarymetabolites.org/go/NZ_AFWY03000010/11" target="_blank">NZ_AFWY03000010_c11</a>: Amycolatopsis sp. ATCC 39116 strain 75iv2 Amy contig0009... (52% of genes show similarity), arylpolyene</text>
<line x1="10" y1="85" x2="778.0" y2="85" style="stroke-width:1; stroke:grey; "  />
</g>
<g id="a1_000"  >
<polygon points="0,85 5,80 9,80 9,90 5,90 0,85 " style="fill:white; stroke-width:1; stroke:black; " description="&lt;b&gt;AMY39116_RS0314110&lt;/b&gt;&lt;br&gt;PaaI family thioesterase&lt;br&gt;Location: 39806 - 39321" locus_tag="AMY39116_RS0314110" class="clusterblast-orf" id="dummy-1_h1_1_0"  />
</g>
<g id="a1_001"  >
<polygon points="14,90 36,90 41,85 36,80 14,80 14,90 " style="fill:white; stroke-width:1; stroke:black; " description="&lt;b&gt;AMY39116_RS0314105&lt;/b&gt;&lt;br&gt;MFS transporter&lt;br&gt;Location: 39064 - 37703" locus_tag="AMY39116_RS0314105" class="clusterblast-orf" id="dummy-1_h1_1_1"  />
</g>
<g id="a1_002"  >
<polygon points="52,85 57,80 76,80 76,90 57,90 52,85 " style="fill:white; stroke-width:1; stroke:black; " description="&lt;b&gt;AMY39116_RS0314090&lt;/b&gt;&lt;br&gt;transpeptidase&lt;br&gt;Location: 37116 - 35914" locus_tag="AMY39116_RS0314090" class="clusterblast-orf" id="dummy-1_h1_1_2"  />
</g>
<g id="a1_003"  >
<polygon points="83,90 87,85 83,80 83,90 " style="fill:white; stroke-width:1; stroke:black; " description="&lt;b&gt;AMY39116_RS0314085&lt;/b&gt;&lt;br&gt;cold-shock protein&lt;br&gt;Location: 35543 - 35340" locus_tag="AMY39116_RS0314085" class="clusterblast-orf" id="dummy-1_h1_1_3"  />
</g>
<g id="a1_004"  >
<polygon points="88,85 93,80 97,80 97,90 93,90 88,85 " style="fill:white; stroke-width:1; stroke:black; " description="&lt;b&gt;AMY39116_RS0314080&lt;/b&gt;&lt;br&gt;hypothetical protein&lt;br&gt;Location: 35273 - 34839" locus_tag="AMY39116_RS0314080" class="clusterblast-orf" id="dummy-1_h1_1_4"  />
</g>
<g id="a1_005"  >
<polygon points="106,90 106,90 111,85 106,80 106,80 106,90 " style="fill:white; stroke-width:1; stroke:black; " description="&lt;b&gt;AMY39116_RS0314075&lt;/b&gt;&lt;br&gt;hypothetical protein&lt;br&gt;Location: 34365 - 34129" locus_tag="AMY39116_RS0314075" class="clusterblast-orf" id="dummy-1_h1_1_5"  />
</g>
<g id="a1_006"  >
<polygon points="115,90 124,90 129,85 124,80 115,80 115,90 " style="fill:white; stroke-width:1; stroke:black; " description="&lt;b&gt;AMY39116_RS0314070&lt;/b&gt;&lt;br&gt;hypothetical protein&lt;br&gt;Location: 33934 - 33194" locus_tag="AMY39116_RS0314070" class="clusterblast-orf" id="dummy-1_h1_1_6"  />
</g>
<g id="a1_007"  >
<polygon points="148,90 161,90 166,85 161,80 148,80 148,90 " style="fill:white; stroke-width:1; stroke:black; " description="&lt;b&gt;AMY39116_RS42825&lt;/b&gt;&lt;br&gt;hypothetical protein&lt;br&gt;Location: 32213 - 31305" locus_tag="AMY39116_RS42825" class="clusterblast-orf" id="dummy-1_h1_1_7"  />
</g>
<g id="a1_008"  >
<polygon points="166,85 171,80 181,80 181,90 171,90 166,85 " style="fill:white; stroke-width:1; stroke:black; " description="&lt;b&gt;AMY39116_RS0314040&lt;/b&gt;&lt;br&gt;TetR/AcrR family transcriptional regulator&lt;br&gt;Location: 31300 - 30548" locus_tag="AMY39116_RS0314040" class="clusterblast-orf" id="dummy-1_h1_1_8"  />
</g>
<g id="a1_009"  >
<polygon points="182,90 191,90 196,85 191,80 182,80 182,90 " style="fill:white; stroke-width:1; stroke:black; " description="&lt;b&gt;AMY39116_RS0314035&lt;/b&gt;&lt;br&gt;DUF2306 domain-containing protein&lt;br&gt;Location: 30471 - 29761" locus_tag="AMY39116_RS0314035" class="clusterblast-orf" id="dummy-1_h1_1_9"  />
</g>
<g id="a1_0010"  >
<polygon points="196,85 201,80 211,80 211,90 201,90 196,85 " style="fill:white; stroke-width:1; stroke:black; " description="&lt;b&gt;AMY39116_RS0314030&lt;/b&gt;&lt;br&gt;class I SAM-dependent methyltransferase&lt;br&gt;Location: 29785 - 28991" locus_tag="AMY39116_RS0314030" class="clusterblast-orf" id="dummy-1_h1_1_10"  />
</g>
<g id="a1_0011"  >
<polygon points="212,85 217,80 219,80 219,90 217,90 212,85 " style="fill:white; stroke-width:1; stroke:black; " description="&lt;b&gt;AMY39116_RS42820&lt;/b&gt;&lt;br&gt;transcriptional regulator&lt;br&gt;Location: 28985 - 28620" locus_tag="AMY39116_RS42820" class="clusterblast-orf" id="dummy-1_h1_1_11"  />
</g>
<g id="a1_0012"  >
<polygon points="219,90 234,90 239,85 234,80 219,80 219,90 " style="fill:white; stroke-width:1; stroke:black; " description="&lt;b&gt;AMY39116_RS0314020&lt;/b&gt;&lt;br&gt;cation transporter&lt;br&gt;Location: 28605 - 27607" locus_tag="AMY39116_RS0314020" class="clusterblast-orf" id="dummy-1_h1_1_12"  />
</g>
<g id="a1_0013"  >
<polygon points="246,90 249,90 254,85 249,80 246,80 246,90 " style="fill:#9d15d8; stroke-width:1; stroke:black; " description="&lt;b&gt;AMY39116_RS0314015&lt;/b&gt;&lt;br&gt;hypothetical protein&lt;br&gt;Location: 27247 - 26825&lt;br&gt;&lt;br&gt;&lt;b&gt;BlastP hit with ctg68_23&lt;/b&gt;&lt;br&gt;Percentage identity: 76&lt;br&gt;Percentage coverage: 99&lt;br&gt;BLAST bit score: 230&lt;br&gt;E-value: 1.5e-58" locus_tag="AMY39116_RS0314015" class="clusterblast-orf" id="dummy-1_h1_1_13"  />
</g>
<g id="a1_0014"  >
<polygon points="254,90 267,90 272,85 267,80 254,80 254,90 " style="fill:white; stroke-width:1; stroke:black; " description="&lt;b&gt;AMY39116_RS42815&lt;/b&gt;&lt;br&gt;winged helix DNA-binding domain-containing protein&lt;br&gt;Location: 26815 - 25877" locus_tag="AMY39116_RS42815" class="clusterblast-orf" id="dummy-1_h1_1_14"  />
</g>
<g id="a1_0015"  >
<polygon points="275,90 292,90 297,85 292,80 275,80 275,90 " style="fill:white; stroke-width:1; stroke:black; " description="&lt;b&gt;AMY39116_RS0314005&lt;/b&gt;&lt;br&gt;MFS transporter&lt;br&gt;Location: 25763 - 24621" locus_tag="AMY39116_RS0314005" class="clusterblast-orf" id="dummy-1_h1_1_15"  />
</g>
<g id="a1_0016"  >
<polygon points="296,85 301,80 312,80 312,90 301,90 296,85 " style="fill:#d84815; stroke-width:1; stroke:black; " description="&lt;b&gt;AMY39116_RS0314000&lt;/b&gt;&lt;br&gt;flavodoxin family protein&lt;br&gt;Location: 24677 - 23856&lt;br&gt;&lt;br&gt;&lt;b&gt;BlastP hit with ctg68_25&lt;/b&gt;&lt;br&gt;Percentage identity: 86&lt;br&gt;Percentage coverage: 100&lt;br&gt;BLAST bit score: 466&lt;br&gt;E-value: 2.3e-129" locus_tag="AMY39116_RS0314000" class="clusterblast-orf" id="dummy-1_h1_1_16"  />
</g>
<g id="a1_0017"  >
<polygon points="312,90 328,90 333,85 328,80 312,80 312,90 " style="fill:#37d815; stroke-width:1; stroke:black; " description="&lt;b&gt;AMY39116_RS0313995&lt;/b&gt;&lt;br&gt;AraC family transcriptional regulator&lt;br&gt;Location: 23866 - 22808&lt;br&gt;&lt;br&gt;&lt;b&gt;BlastP hit with ctg68_26&lt;/b&gt;&lt;br&gt;Percentage identity: 90&lt;br&gt;Percentage coverage: 100&lt;br&gt;BLAST bit score: 640&lt;br&gt;E-value: 9.5e-182" locus_tag="AMY39116_RS0313995" class="clusterblast-orf" id="dummy-1_h1_1_17"  />
</g>
<g id="a1_0018"  >
<polygon points="332,85 337,80 385,80 385,90 337,90 332,85 " style="fill:#158cd8; stroke-width:1; stroke:black; " description="&lt;b&gt;AMY39116_RS0313990&lt;/b&gt;&lt;br&gt;GGDEF domain-containing protein&lt;br&gt;Location: 22850 - 20118&lt;br&gt;&lt;br&gt;&lt;b&gt;BlastP hit with ctg68_27&lt;/b&gt;&lt;br&gt;Percentage identity: 92&lt;br&gt;Percentage coverage: 100&lt;br&gt;BLAST bit score: 1646&lt;br&gt;E-value: 0.0" locus_tag="AMY39116_RS0313990" class="clusterblast-orf" id="dummy-1_h1_1_18"  />
</g>
<g id="a1_0019"  >
<polygon points="389,90 407,90 412,85 407,80 389,80 389,90 " style="fill:#d015d8; stroke-width:1; stroke:black; " description="&lt;b&gt;AMY39116_RS0313985&lt;/b&gt;&lt;br&gt;3-oxoacyl-ACP synthase&lt;br&gt;Location: 19909 - 18764&lt;br&gt;&lt;br&gt;&lt;b&gt;BlastP hit with ctg68_28&lt;/b&gt;&lt;br&gt;Percentage identity: 92&lt;br&gt;Percentage coverage: 99&lt;br&gt;BLAST bit score: 724&lt;br&gt;E-value: 5.5e-207" locus_tag="AMY39116_RS0313985" class="clusterblast-orf" id="dummy-1_h1_1_19"  />
</g>
<g id="a1_0020"  >
<polygon points="414,90 431,90 436,85 431,80 414,80 414,90 " style="fill:#d87b15; stroke-width:1; stroke:black; " description="&lt;b&gt;AMY39116_RS0313980&lt;/b&gt;&lt;br&gt;5-methyltetrahydropteroyltriglutamate-- homocysteine S-methyltransferase&lt;br&gt;Location: 18673 - 17549&lt;br&gt;&lt;br&gt;&lt;b&gt;BlastP hit with ctg68_29&lt;/b&gt;&lt;br&gt;Percentage identity: 94&lt;br&gt;Percentage coverage: 98&lt;br&gt;BLAST bit score: 720&lt;br&gt;E-value: 7.8e-206" locus_tag="AMY39116_RS0313980" class="clusterblast-orf" id="dummy-1_h1_1_20"  />
</g>
<g id="a1_0021"  >
<polygon points="436,90 446,90 451,85 446,80 436,80 436,90 " style="fill:#15d826; stroke-width:1; stroke:black; " description="&lt;b&gt;AMY39116_RS0313975&lt;/b&gt;&lt;br&gt;IclR family transcriptional regulator&lt;br&gt;Location: 17539 - 16763&lt;br&gt;&lt;br&gt;&lt;b&gt;BlastP hit with ctg68_30&lt;/b&gt;&lt;br&gt;Percentage identity: 95&lt;br&gt;Percentage coverage: 100&lt;br&gt;BLAST bit score: 472&lt;br&gt;E-value: 4.3e-131" locus_tag="AMY39116_RS0313975" class="clusterblast-orf" id="dummy-1_h1_1_21"  />
</g>
<g id="a1_0022"  >
<polygon points="454,85 459,80 463,80 463,90 459,90 454,85 " style="fill:white; stroke-width:1; stroke:black; " description="&lt;b&gt;AMY39116_RS0313970&lt;/b&gt;&lt;br&gt;Rrf2 family transcriptional regulator&lt;br&gt;Location: 16629 - 16138" locus_tag="AMY39116_RS0313970" class="clusterblast-orf" id="dummy-1_h1_1_22"  />
</g>
<g id="a1_0023"  >
<polygon points="464,90 474,90 479,85 474,80 464,80 464,90 " style="fill:white; stroke-width:1; stroke:black; " description="&lt;b&gt;AMY39116_RS0313965&lt;/b&gt;&lt;br&gt;NmrA family transcriptional regulator&lt;br&gt;Location: 16081 - 15338" locus_tag="AMY39116_RS0313965" class="clusterblast-orf" id="dummy-1_h1_1_23"  />
</g>
<g id="a1_0024"  >
<polygon points="481,90 499,90 504,85 499,80 481,80 481,90 " style="fill:#1559d8; stroke-width:1; stroke:black; " description="&lt;b&gt;AMY39116_RS0313960&lt;/b&gt;&lt;br&gt;4-hydroxybenzoate 3-monooxygenase&lt;br&gt;Location: 15251 - 14070&lt;br&gt;&lt;br&gt;&lt;b&gt;BlastP hit with ctg68_33&lt;/b&gt;&lt;br&gt;Percentage identity: 94&lt;br&gt;Percentage coverage: 100&lt;br&gt;BLAST bit score: 761&lt;br&gt;E-value: 5.4e-218" locus_tag="AMY39116_RS0313960" class="clusterblast-orf" id="dummy-1_h1_1_24"  />
</g>
<g id="a1_0025"  >
<polygon points="508,90 517,90 522,85 517,80 508,80 508,90 " style="fill:#d815ae; stroke-width:1; stroke:black; " description="&lt;b&gt;AMY39116_RS0313955&lt;/b&gt;&lt;br&gt;hypothetical protein&lt;br&gt;Location: 13871 - 13155&lt;br&gt;&lt;br&gt;&lt;b&gt;BlastP hit with ctg68_34&lt;/b&gt;&lt;br&gt;Percentage identity: 77&lt;br&gt;Percentage coverage: 100&lt;br&gt;BLAST bit score: 372&lt;br&gt;E-value: 4.2e-101" locus_tag="AMY39116_RS0313955" class="clusterblast-orf" id="dummy-1_h1_1_25"  />
</g>
<g id="a1_0026"  >
<polygon points="523,85 528,80 552,80 552,90 528,90 523,85 " style="fill:#d8ae15; stroke-width:1; stroke:black; " description="&lt;b&gt;AMY39116_RS0313950&lt;/b&gt;&lt;br&gt;phosphogluconate dehydrogenase (NADP(+)-dependent, decarboxylating)&lt;br&gt;Location: 13073 - 11634&lt;br&gt;&lt;br&gt;&lt;b&gt;BlastP hit with ctg68_35&lt;/b&gt;&lt;br&gt;Percentage identity: 96&lt;br&gt;Percentage coverage: 100&lt;br&gt;BLAST bit score: 898&lt;br&gt;E-value: 4.3e-259" locus_tag="AMY39116_RS0313950" class="clusterblast-orf" id="dummy-1_h1_1_26"  />
</g>
<g id="a1_0027"  >
<polygon points="556,90 568,90 573,85 568,80 556,80 556,90 " style="fill:#15d859; stroke-width:1; stroke:black; " description="&lt;b&gt;AMY39116_RS0313945&lt;/b&gt;&lt;br&gt;XRE family transcriptional regulator&lt;br&gt;Location: 11414 - 10557&lt;br&gt;&lt;br&gt;&lt;b&gt;BlastP hit with ctg68_36&lt;/b&gt;&lt;br&gt;Percentage identity: 95&lt;br&gt;Percentage coverage: 100&lt;br&gt;BLAST bit score: 554&lt;br&gt;E-value: 7.2e-156" locus_tag="AMY39116_RS0313945" class="clusterblast-orf" id="dummy-1_h1_1_27"  />
</g>
<g id="a1_0028"  >
<polygon points="574,90 585,90 590,85 585,80 574,80 574,90 " style="fill:#1526d8; stroke-width:1; stroke:black; " description="&lt;b&gt;AMY39116_RS0313940&lt;/b&gt;&lt;br&gt;methyltransferase&lt;br&gt;Location: 10468 - 9677&lt;br&gt;&lt;br&gt;&lt;b&gt;BlastP hit with ctg68_37&lt;/b&gt;&lt;br&gt;Percentage identity: 82&lt;br&gt;Percentage coverage: 93&lt;br&gt;BLAST bit score: 448&lt;br&gt;E-value: 5.5e-124" locus_tag="AMY39116_RS0313940" class="clusterblast-orf" id="dummy-1_h1_1_28"  />
</g>
<g id="a1_0029"  >
<polygon points="595,85 600,80 604,80 604,90 600,90 595,85 " style="fill:#d8157b; stroke-width:1; stroke:black; " description="&lt;b&gt;AMY39116_RS44700&lt;/b&gt;&lt;br&gt;hypothetical protein&lt;br&gt;Location: 9414 - 8980&lt;br&gt;&lt;br&gt;&lt;b&gt;BlastP hit with ctg68_39&lt;/b&gt;&lt;br&gt;Percentage identity: 82&lt;br&gt;Percentage coverage: 96&lt;br&gt;BLAST bit score: 246&lt;br&gt;E-value: 2.2e-63" locus_tag="AMY39116_RS44700" class="clusterblast-orf" id="dummy-1_h1_1_29"  />
</g>
<g id="a1_0030"  >
<polygon points="608,90 608,90 613,85 608,80 608,80 608,90 " style="fill:#d0d815; stroke-width:1; stroke:black; " description="&lt;b&gt;AMY39116_RS0313925&lt;/b&gt;&lt;br&gt;DUF397 domain-containing protein&lt;br&gt;Location: 8767 - 8516&lt;br&gt;&lt;br&gt;&lt;b&gt;BlastP hit with ctg68_40&lt;/b&gt;&lt;br&gt;Percentage identity: 89&lt;br&gt;Percentage coverage: 100&lt;br&gt;BLAST bit score: 159&lt;br&gt;E-value: 2e-37" locus_tag="AMY39116_RS0313925" class="clusterblast-orf" id="dummy-1_h1_1_30"  />
</g>
<g id="a1_0031"  >
<polygon points="614,85 619,80 626,80 626,90 619,90 614,85 " style="fill:#15d88c; stroke-width:1; stroke:black; " description="&lt;b&gt;AMY39116_RS0313920&lt;/b&gt;&lt;br&gt;hypothetical protein&lt;br&gt;Location: 8426 - 7839&lt;br&gt;&lt;br&gt;&lt;b&gt;BlastP hit with ctg68_41&lt;/b&gt;&lt;br&gt;Percentage identity: 78&lt;br&gt;Percentage coverage: 82&lt;br&gt;BLAST bit score: 181&lt;br&gt;E-value: 9e-44" locus_tag="AMY39116_RS0313920" class="clusterblast-orf" id="dummy-1_h1_1_31"  />
</g>
<g id="a1_0032"  >
<polygon points="629,90 639,90 644,85 639,80 629,80 629,90 " style="fill:#3715d8; stroke-width:1; stroke:black; " description="&lt;b&gt;AMY39116_RS0313915&lt;/b&gt;&lt;br&gt;DNA-binding response regulator&lt;br&gt;Location: 7661 - 6912&lt;br&gt;&lt;br&gt;&lt;b&gt;BlastP hit with ctg68_42&lt;/b&gt;&lt;br&gt;Percentage identity: 97&lt;br&gt;Percentage coverage: 92&lt;br&gt;BLAST bit score: 468&lt;br&gt;E-value: 3.8e-130" locus_tag="AMY39116_RS0313915" class="clusterblast-orf" id="dummy-1_h1_1_32"  />
</g>
<g id="a1_0033"  >
<polygon points="644,90 668,90 673,85 668,80 644,80 644,90 " style="fill:#d81548; stroke-width:1; stroke:black; " description="&lt;b&gt;AMY39116_RS0313910&lt;/b&gt;&lt;br&gt;two-component sensor histidine kinase&lt;br&gt;Location: 6934 - 5438&lt;br&gt;&lt;br&gt;&lt;b&gt;BlastP hit with ctg68_43&lt;/b&gt;&lt;br&gt;Percentage identity: 92&lt;br&gt;Percentage coverage: 100&lt;br&gt;BLAST bit score: 882&lt;br&gt;E-value: 2e-254" locus_tag="AMY39116_RS0313910" class="clusterblast-orf" id="dummy-1_h1_1_33"  />
</g>
<g id="a1_0034"  >
<polygon points="675,90 694,90 699,85 694,80 675,80 675,90 " style="fill:#9dd815; stroke-width:1; stroke:black; " description="&lt;b&gt;AMY39116_RS0313905&lt;/b&gt;&lt;br&gt;sugar translocase&lt;br&gt;Location: 5359 - 4127&lt;br&gt;&lt;br&gt;&lt;b&gt;BlastP hit with ctg68_44&lt;/b&gt;&lt;br&gt;Percentage identity: 91&lt;br&gt;Percentage coverage: 100&lt;br&gt;BLAST bit score: 725&lt;br&gt;E-value: 3.4e-207" locus_tag="AMY39116_RS0313905" class="clusterblast-orf" id="dummy-1_h1_1_34"  />
</g>
<g id="a1_0035"  >
<polygon points="699,90 730,90 735,85 730,80 699,80 699,90 " style="fill:#15d8bf; stroke-width:1; stroke:black; " description="&lt;b&gt;AMY39116_RS0313900&lt;/b&gt;&lt;br&gt;phospholipid carrier-dependent glycosyltransferase&lt;br&gt;Location: 4111 - 2264&lt;br&gt;&lt;br&gt;&lt;b&gt;BlastP hit with ctg68_45&lt;/b&gt;&lt;br&gt;Percentage identity: 85&lt;br&gt;Percentage coverage: 100&lt;br&gt;BLAST bit score: 972&lt;br&gt;E-value: 3.1e-281" locus_tag="AMY39116_RS0313900" class="clusterblast-orf" id="dummy-1_h1_1_35"  />
</g>
<g id="a1_0036"  >
<polygon points="740,85 745,80 754,80 754,90 745,90 740,85 " style="fill:white; stroke-width:1; stroke:black; " description="&lt;b&gt;AMY39116_RS0313895&lt;/b&gt;&lt;br&gt;class I SAM-dependent methyltransferase&lt;br&gt;Location: 2033 - 1323" locus_tag="AMY39116_RS0313895" class="clusterblast-orf" id="dummy-1_h1_1_36"  />
</g>
<g id="a1_0037"  >
<polygon points="755,90 775,90 780,85 775,80 755,80 755,90 " style="fill:#6a15d8; stroke-width:1; stroke:black; " description="&lt;b&gt;AMY39116_RS0313890&lt;/b&gt;&lt;br&gt;DNA polymerase III subunit gamma and tau&lt;br&gt;Location: 1272 - 1&lt;br&gt;&lt;br&gt;&lt;b&gt;BlastP hit with ctg68_46&lt;/b&gt;&lt;br&gt;Percentage identity: 95&lt;br&gt;Percentage coverage: 73&lt;br&gt;BLAST bit score: 784&lt;br&gt;E-value: 8.8e-225" locus_tag="AMY39116_RS0313890" class="clusterblast-orf" id="dummy-1_h1_1_37"  />
</g>
</svg>
