<svg xmlns="http://www.w3.org/2000/svg" xmlns:xlink="http://www.w3.org/1999/xlink" version="1.1" x="0" y="0" height="230" width="800" viewBox="0 0 800 230" preserveAspectRatio="none"  >
<g label="Query sequence" class="clusterblast-cluster"  >
<text x="5" y="20" class="clusterblast-acc"  >
Query sequence</text>
<line x1="10" y1="35" x2="778.0" y2="35" style="stroke-width:1; stroke:grey; "  />
<polygon points="46,35 51,30 58,30 58,40 51,40 46,35 " style="fill:white; stroke-width:1; stroke:black; " description="&lt;b&gt;ctg7_4&lt;/b&gt;&lt;br&gt;ctg7 4&lt;br&gt;Location: 3375 - 4446" locus_tag="ctg7_4" class="clusterblast-orf" id="dummy-1_q0_0_all"  />
<polygon points="58,35 63,30 66,30 66,40 63,40 58,35 " style="fill:white; stroke-width:1; stroke:black; " description="&lt;b&gt;ctg7_5&lt;/b&gt;&lt;br&gt;ctg7 5&lt;br&gt;Location: 4442 - 5096" locus_tag="ctg7_5" class="clusterblast-orf" id="dummy-1_q1_0_all"  />
<polygon points="66,35 71,30 85,30 85,40 71,40 66,35 " style="fill:white; stroke-width:1; stroke:black; " description="&lt;b&gt;ctg7_6&lt;/b&gt;&lt;br&gt;ctg7 6&lt;br&gt;Location: 5121 - 6645" locus_tag="ctg7_6" class="clusterblast-orf" id="dummy-1_q2_0_all"  />
<polygon points="87,35 92,30 99,30 99,40 92,40 87,35 " style="fill:white; stroke-width:1; stroke:black; " description="&lt;b&gt;ctg7_7&lt;/b&gt;&lt;br&gt;ctg7 7&lt;br&gt;Location: 6875 - 7856" locus_tag="ctg7_7" class="clusterblast-orf" id="dummy-1_q3_0_all"  />
<polygon points="99,35 104,30 109,30 109,40 104,40 99,35 " style="fill:white; stroke-width:1; stroke:black; " description="&lt;b&gt;ctg7_8&lt;/b&gt;&lt;br&gt;ctg7 8&lt;br&gt;Location: 7852 - 8671" locus_tag="ctg7_8" class="clusterblast-orf" id="dummy-1_q4_0_all"  />
<polygon points="117,40 117,40 122,35 117,30 117,30 117,40 " style="fill:white; stroke-width:1; stroke:black; " description="&lt;b&gt;ctg7_9&lt;/b&gt;&lt;br&gt;ctg7 9&lt;br&gt;Location: 9348 - 9774" locus_tag="ctg7_9" class="clusterblast-orf" id="dummy-1_q5_0_all"  />
<polygon points="130,40 131,40 136,35 131,30 130,30 130,40 " style="fill:white; stroke-width:1; stroke:black; " description="&lt;b&gt;ctg7_10&lt;/b&gt;&lt;br&gt;ctg7 10&lt;br&gt;Location: 10449 - 10962" locus_tag="ctg7_10" class="clusterblast-orf" id="dummy-1_q6_0_all"  />
<polygon points="139,40 142,40 147,35 142,30 139,30 139,40 " style="fill:white; stroke-width:1; stroke:black; " description="&lt;b&gt;ctg7_11&lt;/b&gt;&lt;br&gt;ctg7 11&lt;br&gt;Location: 11156 - 11849" locus_tag="ctg7_11" class="clusterblast-orf" id="dummy-1_q7_0_all"  />
<polygon points="147,40 151,40 156,35 151,30 147,30 147,40 " style="fill:white; stroke-width:1; stroke:black; " description="&lt;b&gt;ctg7_12&lt;/b&gt;&lt;br&gt;ctg7 12&lt;br&gt;Location: 11875 - 12640" locus_tag="ctg7_12" class="clusterblast-orf" id="dummy-1_q8_0_all"  />
<polygon points="157,35 162,30 164,30 164,40 162,40 157,35 " style="fill:white; stroke-width:1; stroke:black; " description="&lt;b&gt;ctg7_13&lt;/b&gt;&lt;br&gt;ctg7 13&lt;br&gt;Location: 12724 - 13324" locus_tag="ctg7_13" class="clusterblast-orf" id="dummy-1_q9_0_all"  />
<polygon points="165,35 170,30 175,30 175,40 170,40 165,35 " style="fill:white; stroke-width:1; stroke:black; " description="&lt;b&gt;ctg7_14&lt;/b&gt;&lt;br&gt;ctg7 14&lt;br&gt;Location: 13408 - 14188" locus_tag="ctg7_14" class="clusterblast-orf" id="dummy-1_q10_0_all"  />
<polygon points="175,35 180,30 187,30 187,40 180,40 175,35 " style="fill:white; stroke-width:1; stroke:black; " description="&lt;b&gt;ctg7_15&lt;/b&gt;&lt;br&gt;ctg7 15&lt;br&gt;Location: 14236 - 15202" locus_tag="ctg7_15" class="clusterblast-orf" id="dummy-1_q11_0_all"  />
<polygon points="188,40 189,40 194,35 189,30 188,30 188,40 " style="fill:#d81515; stroke-width:1; stroke:black; " description="&lt;b&gt;ctg7_16&lt;/b&gt;&lt;br&gt;ctg7 16&lt;br&gt;Location: 15334 - 15799" locus_tag="ctg7_16" class="clusterblast-orf" id="dummy-1_q12_0_all"  />
<polygon points="205,35 210,30 217,30 217,40 210,40 205,35 " style="fill:#77d815; stroke-width:1; stroke:black; " description="&lt;b&gt;ctg7_17&lt;/b&gt;&lt;br&gt;ctg7 17&lt;br&gt;Location: 16707 - 17724" locus_tag="ctg7_17" class="clusterblast-orf" id="dummy-1_q13_0_all"  />
<polygon points="217,35 222,30 230,30 230,40 222,40 217,35 " style="fill:#77d815; stroke-width:1; stroke:black; " description="&lt;b&gt;ctg7_18&lt;/b&gt;&lt;br&gt;ctg7 18&lt;br&gt;Location: 17720 - 18854" locus_tag="ctg7_18" class="clusterblast-orf" id="dummy-1_q14_0_all"  />
<polygon points="231,40 238,40 243,35 238,30 231,30 231,40 " style="fill:#15d8d8; stroke-width:1; stroke:black; " description="&lt;b&gt;ctg7_19&lt;/b&gt;&lt;br&gt;ctg7 19&lt;br&gt;Location: 18909 - 19884" locus_tag="ctg7_19" class="clusterblast-orf" id="dummy-1_q15_0_all"  />
<polygon points="243,40 248,40 253,35 248,30 243,30 243,40 " style="fill:#7715d8; stroke-width:1; stroke:black; " description="&lt;b&gt;ctg7_20&lt;/b&gt;&lt;br&gt;ctg7 20&lt;br&gt;Location: 19883 - 20708" locus_tag="ctg7_20" class="clusterblast-orf" id="dummy-1_q16_0_all"  />
<polygon points="253,40 262,40 267,35 262,30 253,30 253,40 " style="fill:#d85015; stroke-width:1; stroke:black; " description="&lt;b&gt;ctg7_21&lt;/b&gt;&lt;br&gt;ctg7 21&lt;br&gt;Location: 20708 - 21950" locus_tag="ctg7_21" class="clusterblast-orf" id="dummy-1_q17_0_all"  />
<polygon points="268,35 273,30 450,30 450,40 273,40 268,35 " style="fill:#3cd815; stroke-width:1; stroke:black; " description="&lt;b&gt;ctg7_22&lt;/b&gt;&lt;br&gt;ctg7 22&lt;br&gt;Location: 21983 - 37223" locus_tag="ctg7_22" class="clusterblast-orf" id="dummy-1_q18_0_all"  />
<polygon points="450,35 455,30 455,30 455,40 455,40 450,35 " style="fill:#159ed8; stroke-width:1; stroke:black; " description="&lt;b&gt;ctg7_23&lt;/b&gt;&lt;br&gt;ctg7 23&lt;br&gt;Location: 37245 - 37662" locus_tag="ctg7_23" class="clusterblast-orf" id="dummy-1_q19_0_all"  />
<polygon points="455,35 460,30 473,30 473,40 460,40 455,35 " style="fill:#b115d8; stroke-width:1; stroke:black; " description="&lt;b&gt;ctg7_24&lt;/b&gt;&lt;br&gt;ctg7 24&lt;br&gt;Location: 37672 - 39193" locus_tag="ctg7_24" class="clusterblast-orf" id="dummy-1_q20_0_all"  />
<polygon points="473,35 476,30 476,40 473,35 " style="fill:#d88a15; stroke-width:1; stroke:black; " description="&lt;b&gt;ctg7_25&lt;/b&gt;&lt;br&gt;ctg7 25&lt;br&gt;Location: 39208 - 39445" locus_tag="ctg7_25" class="clusterblast-orf" id="dummy-1_q21_0_all"  />
<polygon points="476,35 481,30 484,30 484,40 481,40 476,35 " style="fill:#15d829; stroke-width:1; stroke:black; " description="&lt;b&gt;ctg7_26&lt;/b&gt;&lt;br&gt;ctg7 26&lt;br&gt;Location: 39423 - 40098" locus_tag="ctg7_26" class="clusterblast-orf" id="dummy-1_q22_0_all"  />
<polygon points="484,35 489,30 503,30 503,40 489,40 484,35 " style="fill:#1563d8; stroke-width:1; stroke:black; " description="&lt;b&gt;ctg7_27&lt;/b&gt;&lt;br&gt;ctg7 27&lt;br&gt;Location: 40103 - 41717" locus_tag="ctg7_27" class="clusterblast-orf" id="dummy-1_q23_0_all"  />
<polygon points="503,35 508,30 517,30 517,40 508,40 503,35 " style="fill:#d815c5; stroke-width:1; stroke:black; " description="&lt;b&gt;ctg7_28&lt;/b&gt;&lt;br&gt;ctg7 28&lt;br&gt;Location: 41713 - 42829" locus_tag="ctg7_28" class="clusterblast-orf" id="dummy-1_q24_0_all"  />
<polygon points="517,35 522,30 526,30 526,40 522,40 517,35 " style="fill:#d8c515; stroke-width:1; stroke:black; " description="&lt;b&gt;ctg7_29&lt;/b&gt;&lt;br&gt;ctg7 29&lt;br&gt;Location: 42825 - 43647" locus_tag="ctg7_29" class="clusterblast-orf" id="dummy-1_q25_0_all"  />
<polygon points="528,40 538,40 543,35 538,30 528,30 528,40 " style="fill:#15d863; stroke-width:1; stroke:black; " description="&lt;b&gt;ctg7_30&lt;/b&gt;&lt;br&gt;ctg7 30&lt;br&gt;Location: 43788 - 45003" locus_tag="ctg7_30" class="clusterblast-orf" id="dummy-1_q26_0_all"  />
<polygon points="542,35 546,30 546,40 542,35 " style="fill:white; stroke-width:1; stroke:black; " description="&lt;b&gt;ctg7_31&lt;/b&gt;&lt;br&gt;ctg7 31&lt;br&gt;Location: 44956 - 45265" locus_tag="ctg7_31" class="clusterblast-orf" id="dummy-1_q27_0_all"  />
<polygon points="546,35 551,30 561,30 561,40 551,40 546,35 " style="fill:white; stroke-width:1; stroke:black; " description="&lt;b&gt;ctg7_32&lt;/b&gt;&lt;br&gt;ctg7 32&lt;br&gt;Location: 45276 - 46572" locus_tag="ctg7_32" class="clusterblast-orf" id="dummy-1_q28_0_all"  />
<polygon points="562,40 564,40 569,35 564,30 562,30 562,40 " style="fill:white; stroke-width:1; stroke:black; " description="&lt;b&gt;ctg7_33&lt;/b&gt;&lt;br&gt;ctg7 33&lt;br&gt;Location: 46658 - 47201" locus_tag="ctg7_33" class="clusterblast-orf" id="dummy-1_q29_0_all"  />
<polygon points="569,35 574,30 576,30 576,40 574,40 569,35 " style="fill:white; stroke-width:1; stroke:black; " description="&lt;b&gt;ctg7_34&lt;/b&gt;&lt;br&gt;ctg7 34&lt;br&gt;Location: 47206 - 47803" locus_tag="ctg7_34" class="clusterblast-orf" id="dummy-1_q30_0_all"  />
<polygon points="577,40 588,40 593,35 588,30 577,30 577,40 " style="fill:white; stroke-width:1; stroke:black; " description="&lt;b&gt;ctg7_35&lt;/b&gt;&lt;br&gt;ctg7 35&lt;br&gt;Location: 47901 - 49203" locus_tag="ctg7_35" class="clusterblast-orf" id="dummy-1_q31_0_all"  />
<polygon points="596,35 601,30 603,30 603,40 601,40 596,35 " style="fill:white; stroke-width:1; stroke:black; " description="&lt;b&gt;ctg7_36&lt;/b&gt;&lt;br&gt;ctg7 36&lt;br&gt;Location: 49437 - 50055" locus_tag="ctg7_36" class="clusterblast-orf" id="dummy-1_q32_0_all"  />
<polygon points="604,40 617,40 622,35 617,30 604,30 604,40 " style="fill:#1529d8; stroke-width:1; stroke:black; " description="&lt;b&gt;ctg7_37&lt;/b&gt;&lt;br&gt;ctg7 37&lt;br&gt;Location: 50177 - 51671" locus_tag="ctg7_37" class="clusterblast-orf" id="dummy-1_q33_0_all"  />
<polygon points="624,40 636,40 641,35 636,30 624,30 624,40 " style="fill:#d8158a; stroke-width:1; stroke:black; " description="&lt;b&gt;ctg7_38&lt;/b&gt;&lt;br&gt;ctg7 38&lt;br&gt;Location: 51789 - 53256" locus_tag="ctg7_38" class="clusterblast-orf" id="dummy-1_q34_0_all"  />
<polygon points="641,40 650,40 655,35 650,30 641,30 641,40 " style="fill:#b1d815; stroke-width:1; stroke:black; " description="&lt;b&gt;ctg7_39&lt;/b&gt;&lt;br&gt;ctg7 39&lt;br&gt;Location: 53252 - 54461" locus_tag="ctg7_39" class="clusterblast-orf" id="dummy-1_q35_0_all"  />
<polygon points="656,40 661,40 666,35 661,30 656,30 656,40 " style="fill:#15d89e; stroke-width:1; stroke:black; " description="&lt;b&gt;ctg7_40&lt;/b&gt;&lt;br&gt;ctg7 40&lt;br&gt;Location: 54468 - 55344" locus_tag="ctg7_40" class="clusterblast-orf" id="dummy-1_q36_0_all"  />
<polygon points="666,40 688,40 693,35 688,30 666,30 666,40 " style="fill:#3c15d8; stroke-width:1; stroke:black; " description="&lt;b&gt;ctg7_41&lt;/b&gt;&lt;br&gt;ctg7 41&lt;br&gt;Location: 55340 - 57638" locus_tag="ctg7_41" class="clusterblast-orf" id="dummy-1_q37_0_all"  />
<polygon points="702,35 706,30 706,40 702,35 " style="fill:white; stroke-width:1; stroke:black; " description="&lt;b&gt;ctg7_42&lt;/b&gt;&lt;br&gt;ctg7 42&lt;br&gt;Location: 58340 - 58655" locus_tag="ctg7_42" class="clusterblast-orf" id="dummy-1_q38_0_all"  />
<polygon points="707,35 712,30 717,30 717,40 712,40 707,35 " style="fill:#d81550; stroke-width:1; stroke:black; " description="&lt;b&gt;ctg7_43&lt;/b&gt;&lt;br&gt;ctg7 43&lt;br&gt;Location: 58799 - 59603" locus_tag="ctg7_43" class="clusterblast-orf" id="dummy-1_q39_0_all"  />
<polygon points="718,40 721,40 726,35 721,30 718,30 718,40 " style="fill:white; stroke-width:1; stroke:black; " description="&lt;b&gt;ctg7_44&lt;/b&gt;&lt;br&gt;ctg7 44&lt;br&gt;Location: 59664 - 60330" locus_tag="ctg7_44" class="clusterblast-orf" id="dummy-1_q40_0_all"  />
<polygon points="726,35 731,30 734,30 734,40 731,40 726,35 " style="fill:white; stroke-width:1; stroke:black; " description="&lt;b&gt;ctg7_45&lt;/b&gt;&lt;br&gt;ctg7 45&lt;br&gt;Location: 60338 - 61007" locus_tag="ctg7_45" class="clusterblast-orf" id="dummy-1_q41_0_all"  />
</g>
<g label="NZ_ANAS01000014" description="NZ_ANAS01000014_c5: Nocardiopsis baichengensis YIM 90130 Scaffold6 2, whole g... (25% of genes show similarity), nrps" class="clusterblast-cluster"  >
<text x="5" y="70" class="clusterblast-acc"  >
<a xlink:href="https://antismash-db.secondarymetabolites.org/go/NZ_ANAS01000014/5" target="_blank">NZ_ANAS01000014_c5</a>: Nocardiopsis baichengensis YIM 90130 Scaffold6 2, whole g... (25% of genes show similarity), nrps</text>
<line x1="10" y1="85" x2="778.0" y2="85" style="stroke-width:1; stroke:grey; "  />
</g>
<g id="a1_000"  >
<polygon points="0,90 9,90 14,85 9,80 0,80 0,90 " style="fill:white; stroke-width:1; stroke:black; " description="&lt;b&gt;C892_RS0113640&lt;/b&gt;&lt;br&gt;hypothetical protein&lt;br&gt;Location: 92823 - 91642" locus_tag="C892_RS0113640" class="clusterblast-orf" id="dummy-1_h1_10_0"  />
</g>
<g id="a1_001"  >
<polygon points="14,85 19,80 23,80 23,90 19,90 14,85 " style="fill:white; stroke-width:1; stroke:black; " description="&lt;b&gt;C892_RS0113635&lt;/b&gt;&lt;br&gt;TetR family transcriptional regulator&lt;br&gt;Location: 91620 - 90847" locus_tag="C892_RS0113635" class="clusterblast-orf" id="dummy-1_h1_10_1"  />
</g>
<g id="a1_002"  >
<polygon points="24,85 29,80 42,80 42,90 29,90 24,85 " style="fill:white; stroke-width:1; stroke:black; " description="&lt;b&gt;C892_RS0113630&lt;/b&gt;&lt;br&gt;MFS transporter&lt;br&gt;Location: 90741 - 89272" locus_tag="C892_RS0113630" class="clusterblast-orf" id="dummy-1_h1_10_2"  />
</g>
<g id="a1_003"  >
<polygon points="48,90 53,90 58,85 53,80 48,80 48,90 " style="fill:white; stroke-width:1; stroke:black; " description="&lt;b&gt;C892_RS0113625&lt;/b&gt;&lt;br&gt;hypothetical protein&lt;br&gt;Location: 88797 - 87931" locus_tag="C892_RS0113625" class="clusterblast-orf" id="dummy-1_h1_10_3"  />
</g>
<g id="a1_004"  >
<polygon points="60,90 63,85 60,80 60,90 " style="fill:white; stroke-width:1; stroke:black; " description="&lt;b&gt;C892_RS0113620&lt;/b&gt;&lt;br&gt;hypothetical protein&lt;br&gt;Location: 87771 - 87472" locus_tag="C892_RS0113620" class="clusterblast-orf" id="dummy-1_h1_10_4"  />
</g>
<g id="a1_005"  >
<polygon points="64,90 65,90 70,85 65,80 64,80 64,90 " style="fill:white; stroke-width:1; stroke:black; " description="&lt;b&gt;C892_RS28935&lt;/b&gt;&lt;br&gt;glyoxalase&lt;br&gt;Location: 87413 - 86946" locus_tag="C892_RS28935" class="clusterblast-orf" id="dummy-1_h1_10_5"  />
</g>
<g id="a1_006"  >
<polygon points="70,85 75,80 78,80 78,90 75,90 70,85 " style="fill:white; stroke-width:1; stroke:black; " description="&lt;b&gt;C892_RS0113610&lt;/b&gt;&lt;br&gt;Solo B3/4 domain-containing protein&lt;br&gt;Location: 86928 - 86221" locus_tag="C892_RS0113610" class="clusterblast-orf" id="dummy-1_h1_10_6"  />
</g>
<g id="a1_007"  >
<polygon points="81,90 83,90 88,85 83,80 81,80 81,90 " style="fill:white; stroke-width:1; stroke:black; " description="&lt;b&gt;C892_RS0113605&lt;/b&gt;&lt;br&gt;XRE family transcriptional regulator&lt;br&gt;Location: 86023 - 85433" locus_tag="C892_RS0113605" class="clusterblast-orf" id="dummy-1_h1_10_7"  />
</g>
<g id="a1_008"  >
<polygon points="89,85 94,80 109,80 109,90 94,90 89,85 " style="fill:white; stroke-width:1; stroke:black; " description="&lt;b&gt;C892_RS0113600&lt;/b&gt;&lt;br&gt;hypothetical protein&lt;br&gt;Location: 85292 - 83610" locus_tag="C892_RS0113600" class="clusterblast-orf" id="dummy-1_h1_10_8"  />
</g>
<g id="a1_009"  >
<polygon points="114,85 119,80 120,80 120,90 119,90 114,85 " style="fill:white; stroke-width:1; stroke:black; " description="&lt;b&gt;C892_RS0113595&lt;/b&gt;&lt;br&gt;DUF4352 domain-containing protein&lt;br&gt;Location: 83204 - 82698" locus_tag="C892_RS0113595" class="clusterblast-orf" id="dummy-1_h1_10_9"  />
</g>
<g id="a1_0010"  >
<polygon points="121,90 123,85 121,80 121,90 " style="fill:white; stroke-width:1; stroke:black; " description="&lt;b&gt;C892_RS31025&lt;/b&gt;&lt;br&gt;peptide-binding protein&lt;br&gt;Location: 82621 - 82445" locus_tag="C892_RS31025" class="clusterblast-orf" id="dummy-1_h1_10_10"  />
</g>
<g id="a1_0011"  >
<polygon points="129,85 134,80 144,80 144,90 134,90 129,85 " style="fill:white; stroke-width:1; stroke:black; " description="&lt;b&gt;C892_RS0113590&lt;/b&gt;&lt;br&gt;MFS transporter&lt;br&gt;Location: 81995 - 80712" locus_tag="C892_RS0113590" class="clusterblast-orf" id="dummy-1_h1_10_11"  />
</g>
<g id="a1_0012"  >
<polygon points="145,85 149,80 149,90 145,85 " style="fill:white; stroke-width:1; stroke:black; " description="&lt;b&gt;C892_RS28930&lt;/b&gt;&lt;br&gt;hypothetical protein&lt;br&gt;Location: 80628 - 80341" locus_tag="C892_RS28930" class="clusterblast-orf" id="dummy-1_h1_10_12"  />
</g>
<g id="a1_0013"  >
<polygon points="155,85 160,80 160,80 160,90 160,90 155,85 " style="fill:#159ed8; stroke-width:1; stroke:black; " description="&lt;b&gt;C892_RS0113580&lt;/b&gt;&lt;br&gt;aspartate 1-decarboxylase&lt;br&gt;Location: 79838 - 79416&lt;br&gt;&lt;br&gt;&lt;b&gt;BlastP hit with ctg7_23&lt;/b&gt;&lt;br&gt;Percentage identity: 72&lt;br&gt;Percentage coverage: 98&lt;br&gt;BLAST bit score: 190&lt;br&gt;E-value: 1e-46" locus_tag="C892_RS0113580" class="clusterblast-orf" id="dummy-1_h1_10_13"  />
</g>
<g id="a1_0014"  >
<polygon points="162,85 167,80 172,80 172,90 167,90 162,85 " style="fill:#7715d8; stroke-width:1; stroke:black; " description="&lt;b&gt;C892_RS0113575&lt;/b&gt;&lt;br&gt;siderophore-interacting protein&lt;br&gt;Location: 79176 - 78364&lt;br&gt;&lt;br&gt;&lt;b&gt;BlastP hit with ctg7_20&lt;/b&gt;&lt;br&gt;Percentage identity: 40&lt;br&gt;Percentage coverage: 95&lt;br&gt;BLAST bit score: 163&lt;br&gt;E-value: 2.6e-38" locus_tag="C892_RS0113575" class="clusterblast-orf" id="dummy-1_h1_10_14"  />
</g>
<g id="a1_0015"  >
<polygon points="172,85 177,80 188,80 188,90 177,90 172,85 " style="fill:#d85015; stroke-width:1; stroke:black; " description="&lt;b&gt;C892_RS0113570&lt;/b&gt;&lt;br&gt;enterobactin transporter EntS&lt;br&gt;Location: 78367 - 77003&lt;br&gt;&lt;br&gt;&lt;b&gt;BlastP hit with ctg7_21&lt;/b&gt;&lt;br&gt;Percentage identity: 38&lt;br&gt;Percentage coverage: 93&lt;br&gt;BLAST bit score: 208&lt;br&gt;E-value: 1.1e-51" locus_tag="C892_RS0113570" class="clusterblast-orf" id="dummy-1_h1_10_15"  />
</g>
<g id="a1_0016"  >
<polygon points="188,85 191,80 191,90 188,85 " style="fill:white; stroke-width:1; stroke:black; " description="&lt;b&gt;C892_RS0113565&lt;/b&gt;&lt;br&gt;MbtH family protein&lt;br&gt;Location: 77006 - 76776" locus_tag="C892_RS0113565" class="clusterblast-orf" id="dummy-1_h1_10_16"  />
</g>
<g id="a1_0017"  >
<polygon points="192,85 197,80 208,80 208,90 197,90 192,85 " style="fill:#d85015; stroke-width:1; stroke:black; " description="&lt;b&gt;C892_RS0113560&lt;/b&gt;&lt;br&gt;enterobactin transporter EntS&lt;br&gt;Location: 76672 - 75383&lt;br&gt;&lt;br&gt;&lt;b&gt;BlastP hit with ctg7_21&lt;/b&gt;&lt;br&gt;Percentage identity: 42&lt;br&gt;Percentage coverage: 100&lt;br&gt;BLAST bit score: 243&lt;br&gt;E-value: 4e-62" locus_tag="C892_RS0113560" class="clusterblast-orf" id="dummy-1_h1_10_17"  />
</g>
<g id="a1_0018"  >
<polygon points="208,85 213,80 215,80 215,90 213,90 208,85 " style="fill:white; stroke-width:1; stroke:black; " description="&lt;b&gt;C892_RS0113555&lt;/b&gt;&lt;br&gt;N-acetyltransferase&lt;br&gt;Location: 75358 - 74732" locus_tag="C892_RS0113555" class="clusterblast-orf" id="dummy-1_h1_10_18"  />
</g>
<g id="a1_0019"  >
<polygon points="217,85 222,80 229,80 229,90 222,90 217,85 " style="fill:white; stroke-width:1; stroke:black; " description="&lt;b&gt;C892_RS0113550&lt;/b&gt;&lt;br&gt;ABC transporter substrate-binding protein&lt;br&gt;Location: 74605 - 73619" locus_tag="C892_RS0113550" class="clusterblast-orf" id="dummy-1_h1_10_19"  />
</g>
<g id="a1_0020"  >
<polygon points="229,85 234,80 314,80 314,90 234,90 229,85 " style="fill:white; stroke-width:1; stroke:black; " description="&lt;b&gt;C892_RS0113545&lt;/b&gt;&lt;br&gt;non-ribosomal peptide synthetase&lt;br&gt;Location: 73561 - 66437" locus_tag="C892_RS0113545" class="clusterblast-orf" id="dummy-1_h1_10_20"  />
</g>
<g id="a1_0021"  >
<polygon points="317,85 322,80 492,80 492,90 322,90 317,85 " style="fill:#3cd815; stroke-width:1; stroke:black; " description="&lt;b&gt;C892_RS0113540&lt;/b&gt;&lt;br&gt;non-ribosomal peptide synthetase&lt;br&gt;Location: 66267 - 51589&lt;br&gt;&lt;br&gt;&lt;b&gt;BlastP hit with ctg7_22&lt;/b&gt;&lt;br&gt;Percentage identity: 40&lt;br&gt;Percentage coverage: 91&lt;br&gt;BLAST bit score: 2532&lt;br&gt;E-value: 0.0" locus_tag="C892_RS0113540" class="clusterblast-orf" id="dummy-1_h1_10_21"  />
</g>
<g id="a1_0022"  >
<polygon points="493,85 496,80 496,90 493,85 " style="fill:#d88a15; stroke-width:1; stroke:black; " description="&lt;b&gt;C892_RS0113535&lt;/b&gt;&lt;br&gt;hypothetical protein&lt;br&gt;Location: 51499 - 51260&lt;br&gt;&lt;br&gt;&lt;b&gt;BlastP hit with ctg7_25&lt;/b&gt;&lt;br&gt;Percentage identity: 57&lt;br&gt;Percentage coverage: 95&lt;br&gt;BLAST bit score: 81&lt;br&gt;E-value: 3.8e-14" locus_tag="C892_RS0113535" class="clusterblast-orf" id="dummy-1_h1_10_22"  />
</g>
<g id="a1_0023"  >
<polygon points="497,85 502,80 512,80 512,90 502,90 497,85 " style="fill:white; stroke-width:1; stroke:black; " description="&lt;b&gt;C892_RS0113530&lt;/b&gt;&lt;br&gt;hypothetical protein&lt;br&gt;Location: 51177 - 49873" locus_tag="C892_RS0113530" class="clusterblast-orf" id="dummy-1_h1_10_23"  />
</g>
<g id="a1_0024"  >
<polygon points="513,85 518,80 521,80 521,90 518,90 513,85 " style="fill:#15d829; stroke-width:1; stroke:black; " description="&lt;b&gt;C892_RS0113525&lt;/b&gt;&lt;br&gt;hypothetical protein&lt;br&gt;Location: 49817 - 49161&lt;br&gt;&lt;br&gt;&lt;b&gt;BlastP hit with ctg7_26&lt;/b&gt;&lt;br&gt;Percentage identity: 58&lt;br&gt;Percentage coverage: 96&lt;br&gt;BLAST bit score: 251&lt;br&gt;E-value: 1e-64" locus_tag="C892_RS0113525" class="clusterblast-orf" id="dummy-1_h1_10_24"  />
</g>
<g id="a1_0025"  >
<polygon points="521,85 526,80 541,80 541,90 526,90 521,85 " style="fill:#1563d8; stroke-width:1; stroke:black; " description="&lt;b&gt;C892_RS0113520&lt;/b&gt;&lt;br&gt;2,3-dihydroxybenzoate-AMP ligase&lt;br&gt;Location: 49131 - 47464&lt;br&gt;&lt;br&gt;&lt;b&gt;BlastP hit with ctg7_27&lt;/b&gt;&lt;br&gt;Percentage identity: 61&lt;br&gt;Percentage coverage: 101&lt;br&gt;BLAST bit score: 623&lt;br&gt;E-value: 3.1e-176" locus_tag="C892_RS0113520" class="clusterblast-orf" id="dummy-1_h1_10_25"  />
</g>
<g id="a1_0026"  >
<polygon points="542,85 547,80 556,80 556,90 547,90 542,85 " style="fill:#d815c5; stroke-width:1; stroke:black; " description="&lt;b&gt;C892_RS0113515&lt;/b&gt;&lt;br&gt;isochorismate synthase&lt;br&gt;Location: 47383 - 46193&lt;br&gt;&lt;br&gt;&lt;b&gt;BlastP hit with ctg7_28&lt;/b&gt;&lt;br&gt;Percentage identity: 53&lt;br&gt;Percentage coverage: 102&lt;br&gt;BLAST bit score: 343&lt;br&gt;E-value: 2.5e-92" locus_tag="C892_RS0113515" class="clusterblast-orf" id="dummy-1_h1_10_26"  />
</g>
<g id="a1_0027"  >
<polygon points="557,85 562,80 566,80 566,90 562,90 557,85 " style="fill:#d8c515; stroke-width:1; stroke:black; " description="&lt;b&gt;C892_RS0113510&lt;/b&gt;&lt;br&gt;2,3-dihydro-2,3-dihydroxybenzoate dehydrogenase&lt;br&gt;Location: 46136 - 45351&lt;br&gt;&lt;br&gt;&lt;b&gt;BlastP hit with ctg7_29&lt;/b&gt;&lt;br&gt;Percentage identity: 54&lt;br&gt;Percentage coverage: 91&lt;br&gt;BLAST bit score: 225&lt;br&gt;E-value: 5.6e-57" locus_tag="C892_RS0113510" class="clusterblast-orf" id="dummy-1_h1_10_27"  />
</g>
<g id="a1_0028"  >
<polygon points="570,90 574,90 579,85 574,80 570,80 570,90 " style="fill:white; stroke-width:1; stroke:black; " description="&lt;b&gt;C892_RS0113505&lt;/b&gt;&lt;br&gt;DUF4239 domain-containing protein&lt;br&gt;Location: 45020 - 44244" locus_tag="C892_RS0113505" class="clusterblast-orf" id="dummy-1_h1_10_28"  />
</g>
<g id="a1_0029"  >
<polygon points="580,85 585,80 588,80 588,90 585,90 580,85 " style="fill:white; stroke-width:1; stroke:black; " description="&lt;b&gt;C892_RS30015&lt;/b&gt;&lt;br&gt;hypothetical protein&lt;br&gt;Location: 44178 - 43513" locus_tag="C892_RS30015" class="clusterblast-orf" id="dummy-1_h1_10_29"  />
</g>
<g id="a1_0030"  >
<polygon points="592,90 594,85 592,80 592,90 " style="fill:white; stroke-width:1; stroke:black; " description="&lt;b&gt;C892_RS0113495&lt;/b&gt;&lt;br&gt;hypothetical protein&lt;br&gt;Location: 43206 - 42985" locus_tag="C892_RS0113495" class="clusterblast-orf" id="dummy-1_h1_10_30"  />
</g>
<g id="a1_0031"  >
<polygon points="595,90 598,85 595,80 595,90 " style="fill:white; stroke-width:1; stroke:black; " description="&lt;b&gt;C892_RS0113490&lt;/b&gt;&lt;br&gt;hypothetical protein&lt;br&gt;Location: 42908 - 42696" locus_tag="C892_RS0113490" class="clusterblast-orf" id="dummy-1_h1_10_31"  />
</g>
<g id="a1_0032"  >
<polygon points="600,90 615,90 620,85 615,80 600,80 600,90 " style="fill:white; stroke-width:1; stroke:black; " description="&lt;b&gt;C892_RS0113485&lt;/b&gt;&lt;br&gt;aspartate 4-decarboxylase&lt;br&gt;Location: 42495 - 40852" locus_tag="C892_RS0113485" class="clusterblast-orf" id="dummy-1_h1_10_32"  />
</g>
<g id="a1_0033"  >
<polygon points="621,90 625,85 621,80 621,90 " style="fill:white; stroke-width:1; stroke:black; " description="&lt;b&gt;C892_RS0113480&lt;/b&gt;&lt;br&gt;DUF488 domain-containing protein&lt;br&gt;Location: 40796 - 40413" locus_tag="C892_RS0113480" class="clusterblast-orf" id="dummy-1_h1_10_33"  />
</g>
<g id="a1_0034"  >
<polygon points="626,85 631,80 636,80 636,90 631,90 626,85 " style="fill:white; stroke-width:1; stroke:black; " description="&lt;b&gt;C892_RS0113475&lt;/b&gt;&lt;br&gt;hypothetical protein&lt;br&gt;Location: 40309 - 39464" locus_tag="C892_RS0113475" class="clusterblast-orf" id="dummy-1_h1_10_34"  />
</g>
<g id="a1_0035"  >
<polygon points="644,85 649,80 658,80 658,90 649,90 644,85 " style="fill:white; stroke-width:1; stroke:black; " description="&lt;b&gt;C892_RS0113470&lt;/b&gt;&lt;br&gt;AI-2E family transporter&lt;br&gt;Location: 38861 - 37662" locus_tag="C892_RS0113470" class="clusterblast-orf" id="dummy-1_h1_10_35"  />
</g>
<g id="a1_0036"  >
<polygon points="662,85 667,80 686,80 686,90 667,90 662,85 " style="fill:white; stroke-width:1; stroke:black; " description="&lt;b&gt;C892_RS0113465&lt;/b&gt;&lt;br&gt;heavy metal translocating P-type ATPase&lt;br&gt;Location: 37306 - 35312" locus_tag="C892_RS0113465" class="clusterblast-orf" id="dummy-1_h1_10_36"  />
</g>
<g id="a1_0037"  >
<polygon points="688,90 692,85 688,80 688,90 " style="fill:white; stroke-width:1; stroke:black; " description="&lt;b&gt;C892_RS0113460&lt;/b&gt;&lt;br&gt;transcriptional regulator&lt;br&gt;Location: 35183 - 34818" locus_tag="C892_RS0113460" class="clusterblast-orf" id="dummy-1_h1_10_37"  />
</g>
<g id="a1_0038"  >
<polygon points="693,85 698,80 715,80 715,90 698,90 693,85 " style="fill:white; stroke-width:1; stroke:black; " description="&lt;b&gt;C892_RS0113455&lt;/b&gt;&lt;br&gt;hypothetical protein&lt;br&gt;Location: 34754 - 32877" locus_tag="C892_RS0113455" class="clusterblast-orf" id="dummy-1_h1_10_38"  />
</g>
<g id="a1_0039"  >
<polygon points="721,90 730,90 735,85 730,80 721,80 721,90 " style="fill:white; stroke-width:1; stroke:black; " description="&lt;b&gt;C892_RS0113450&lt;/b&gt;&lt;br&gt;hypothetical protein&lt;br&gt;Location: 32350 - 31253" locus_tag="C892_RS0113450" class="clusterblast-orf" id="dummy-1_h1_10_39"  />
</g>
<g id="a1_0040"  >
<polygon points="734,90 743,90 748,85 743,80 734,80 734,90 " style="fill:#77d815; stroke-width:1; stroke:black; " description="&lt;b&gt;C892_RS0113445&lt;/b&gt;&lt;br&gt;iron ABC transporter permease&lt;br&gt;Location: 31256 - 30153&lt;br&gt;&lt;br&gt;&lt;b&gt;BlastP hit with ctg7_17&lt;/b&gt;&lt;br&gt;Percentage identity: 37&lt;br&gt;Percentage coverage: 98&lt;br&gt;BLAST bit score: 146&lt;br&gt;E-value: 5.4e-33&lt;br&gt;&lt;br&gt;&lt;b&gt;BlastP hit with ctg7_18&lt;/b&gt;&lt;br&gt;Percentage identity: 36&lt;br&gt;Percentage coverage: 89&lt;br&gt;BLAST bit score: 155&lt;br&gt;E-value: 9.9e-36" locus_tag="C892_RS0113445" class="clusterblast-orf" id="dummy-1_h1_10_40"  />
</g>
<g id="a1_0041"  >
<polygon points="748,90 752,90 757,85 752,80 748,80 748,90 " style="fill:white; stroke-width:1; stroke:black; " description="&lt;b&gt;C892_RS0113440&lt;/b&gt;&lt;br&gt;ABC transporter ATP-binding protein&lt;br&gt;Location: 30156 - 29383" locus_tag="C892_RS0113440" class="clusterblast-orf" id="dummy-1_h1_10_41"  />
</g>
<g id="a1_0042"  >
<polygon points="762,90 775,90 780,85 775,80 762,80 762,90 " style="fill:white; stroke-width:1; stroke:black; " description="&lt;b&gt;C892_RS0113435&lt;/b&gt;&lt;br&gt;hypothetical protein&lt;br&gt;Location: 28981 - 27485" locus_tag="C892_RS0113435" class="clusterblast-orf" id="dummy-1_h1_10_42"  />
</g>
</svg>
