<svg xmlns="http://www.w3.org/2000/svg" xmlns:xlink="http://www.w3.org/1999/xlink" version="1.1" x="0" y="0" height="230" width="800" viewBox="0 0 800 230" preserveAspectRatio="none"  >
<g label="Query sequence" class="clusterblast-cluster"  >
<text x="5" y="20" class="clusterblast-acc"  >
Query sequence</text>
<line x1="10" y1="35" x2="778.0" y2="35" style="stroke-width:1; stroke:grey; "  />
<polygon points="0,35 5,30 259,30 259,40 5,40 0,35 " style="fill:#d81515; stroke-width:1; stroke:black; " description="&lt;b&gt;ctg3_36&lt;/b&gt;&lt;br&gt;ctg3 36&lt;br&gt;Location: 35638 - 38770" locus_tag="ctg3_36" class="clusterblast-orf" id="dummy-1_q0_0_all"  />
<polygon points="279,35 284,30 354,30 354,40 284,40 279,35 " style="fill:#15d815; stroke-width:1; stroke:black; " description="&lt;b&gt;ctg3_37&lt;/b&gt;&lt;br&gt;ctg3 37&lt;br&gt;Location: 39014 - 39917" locus_tag="ctg3_37" class="clusterblast-orf" id="dummy-1_q1_0_all"  />
<polygon points="358,35 363,30 392,30 392,40 363,40 358,35 " style="fill:#1597d8; stroke-width:1; stroke:black; " description="&lt;b&gt;ctg3_38&lt;/b&gt;&lt;br&gt;ctg3 38&lt;br&gt;Location: 39975 - 40383" locus_tag="ctg3_38" class="clusterblast-orf" id="dummy-1_q2_0_all"  />
<polygon points="394,35 399,30 497,30 497,40 399,40 394,35 " style="fill:#9715d8; stroke-width:1; stroke:black; " description="&lt;b&gt;ctg3_39&lt;/b&gt;&lt;br&gt;ctg3 39&lt;br&gt;Location: 40405 - 41659" locus_tag="ctg3_39" class="clusterblast-orf" id="dummy-1_q3_0_all"  />
<polygon points="503,35 508,30 544,30 544,40 508,40 503,35 " style="fill:#d89715; stroke-width:1; stroke:black; " description="&lt;b&gt;ctg3_40&lt;/b&gt;&lt;br&gt;ctg3 40&lt;br&gt;Location: 41726 - 42227" locus_tag="ctg3_40" class="clusterblast-orf" id="dummy-1_q4_0_all"  />
<polygon points="562,35 567,30 626,30 626,40 567,40 562,35 " style="fill:#15d897; stroke-width:1; stroke:black; " description="&lt;b&gt;ctg3_41&lt;/b&gt;&lt;br&gt;ctg3 41&lt;br&gt;Location: 42435 - 43212" locus_tag="ctg3_41" class="clusterblast-orf" id="dummy-1_q5_0_all"  />
<polygon points="628,35 633,30 657,30 657,40 633,40 628,35 " style="fill:#1515d8; stroke-width:1; stroke:black; " description="&lt;b&gt;ctg3_42&lt;/b&gt;&lt;br&gt;ctg3 42&lt;br&gt;Location: 43244 - 43592" locus_tag="ctg3_42" class="clusterblast-orf" id="dummy-1_q6_0_all"  />
<polygon points="661,35 666,30 728,30 728,40 666,40 661,35 " style="fill:#d81597; stroke-width:1; stroke:black; " description="&lt;b&gt;ctg3_43&lt;/b&gt;&lt;br&gt;ctg3 43&lt;br&gt;Location: 43635 - 44451" locus_tag="ctg3_43" class="clusterblast-orf" id="dummy-1_q7_0_all"  />
<polygon points="731,40 775,40 780,35 775,30 731,30 731,40 " style="fill:#97d815; stroke-width:1; stroke:black; " description="&lt;b&gt;ctg3_44&lt;/b&gt;&lt;br&gt;ctg3 44&lt;br&gt;Location: 44488 - 45085" locus_tag="ctg3_44" class="clusterblast-orf" id="dummy-1_q8_0_all"  />
</g>
<g label="NZ_FORP01000025" description="NZ_FORP01000025_c15: Amycolatopsis sacchari strain DSM 44468, whole genome sh... (63% of genes show similarity), ectoine" class="clusterblast-cluster"  >
<text x="5" y="70" class="clusterblast-acc"  >
<a xlink:href="https://antismash-db.secondarymetabolites.org/go/NZ_FORP01000025/15" target="_blank">NZ_FORP01000025_c15</a>: Amycolatopsis sacchari strain DSM 44468, whole genome sh... (63% of genes show similarity), ectoine</text>
<line x1="10" y1="85" x2="778.0" y2="85" style="stroke-width:1; stroke:grey; "  />
</g>
<g id="a1_000"  >
<polygon points="15,85 20,80 69,80 69,90 20,90 15,85 " style="fill:white; stroke-width:1; stroke:black; " description="&lt;b&gt;BMZ92_RS29860&lt;/b&gt;&lt;br&gt;DUF3159 domain-containing protein&lt;br&gt;Location: 9059 - 9718" locus_tag="BMZ92_RS29860" class="clusterblast-orf" id="dummy-1_h1_5_0"  />
</g>
<g id="a1_001"  >
<polygon points="86,90 150,90 155,85 150,80 86,80 86,90 " style="fill:white; stroke-width:1; stroke:black; " description="&lt;b&gt;BMZ92_RS29865&lt;/b&gt;&lt;br&gt;SGNH/GDSL hydrolase family protein&lt;br&gt;Location: 9920 - 10750" locus_tag="BMZ92_RS29865" class="clusterblast-orf" id="dummy-1_h1_5_1"  />
</g>
<g id="a1_002"  >
<polygon points="170,90 205,90 210,85 205,80 170,80 170,90 " style="fill:white; stroke-width:1; stroke:black; " description="&lt;b&gt;BMZ92_RS29870&lt;/b&gt;&lt;br&gt;hypothetical protein&lt;br&gt;Location: 10940 - 11419" locus_tag="BMZ92_RS29870" class="clusterblast-orf" id="dummy-1_h1_5_2"  />
</g>
<g id="a1_003"  >
<polygon points="209,90 277,90 282,85 277,80 209,80 209,90 " style="fill:white; stroke-width:1; stroke:black; " description="&lt;b&gt;BMZ92_RS29875&lt;/b&gt;&lt;br&gt;hypothetical protein&lt;br&gt;Location: 11413 - 12297" locus_tag="BMZ92_RS29875" class="clusterblast-orf" id="dummy-1_h1_5_3"  />
</g>
<g id="a1_004"  >
<polygon points="322,85 327,80 395,80 395,90 327,90 322,85 " style="fill:#15d815; stroke-width:1; stroke:black; " description="&lt;b&gt;BMZ92_RS29880&lt;/b&gt;&lt;br&gt;ectoine hydroxylase&lt;br&gt;Location: 12771 - 13664&lt;br&gt;&lt;br&gt;&lt;b&gt;BlastP hit with ctg3_37&lt;/b&gt;&lt;br&gt;Percentage identity: 89&lt;br&gt;Percentage coverage: 99&lt;br&gt;BLAST bit score: 565&lt;br&gt;E-value: 3.3e-159" locus_tag="BMZ92_RS29880" class="clusterblast-orf" id="dummy-1_h1_5_4"  />
</g>
<g id="a1_005"  >
<polygon points="400,85 405,80 433,80 433,90 405,90 400,85 " style="fill:#1597d8; stroke-width:1; stroke:black; " description="&lt;b&gt;BMZ92_RS29885&lt;/b&gt;&lt;br&gt;ectoine synthase&lt;br&gt;Location: 13726 - 14118&lt;br&gt;&lt;br&gt;&lt;b&gt;BlastP hit with ctg3_38&lt;/b&gt;&lt;br&gt;Percentage identity: 85&lt;br&gt;Percentage coverage: 96&lt;br&gt;BLAST bit score: 252&lt;br&gt;E-value: 3.6e-65" locus_tag="BMZ92_RS29885" class="clusterblast-orf" id="dummy-1_h1_5_5"  />
</g>
<g id="a1_006"  >
<polygon points="434,85 439,80 537,80 537,90 439,90 434,85 " style="fill:#9715d8; stroke-width:1; stroke:black; " description="&lt;b&gt;BMZ92_RS29890&lt;/b&gt;&lt;br&gt;diaminobutyrate--2-oxoglutarate transaminase&lt;br&gt;Location: 14134 - 15387&lt;br&gt;&lt;br&gt;&lt;b&gt;BlastP hit with ctg3_39&lt;/b&gt;&lt;br&gt;Percentage identity: 91&lt;br&gt;Percentage coverage: 100&lt;br&gt;BLAST bit score: 788&lt;br&gt;E-value: 4.4e-226" locus_tag="BMZ92_RS29890" class="clusterblast-orf" id="dummy-1_h1_5_6"  />
</g>
<g id="a1_007"  >
<polygon points="542,85 547,80 583,80 583,90 547,90 542,85 " style="fill:#d89715; stroke-width:1; stroke:black; " description="&lt;b&gt;BMZ92_RS29895&lt;/b&gt;&lt;br&gt;diaminobutyrate acetyltransferase&lt;br&gt;Location: 15436 - 15936&lt;br&gt;&lt;br&gt;&lt;b&gt;BlastP hit with ctg3_40&lt;/b&gt;&lt;br&gt;Percentage identity: 82&lt;br&gt;Percentage coverage: 98&lt;br&gt;BLAST bit score: 282&lt;br&gt;E-value: 4e-74" locus_tag="BMZ92_RS29895" class="clusterblast-orf" id="dummy-1_h1_5_7"  />
</g>
<g id="a1_008"  >
<polygon points="600,85 605,80 660,80 660,90 605,90 600,85 " style="fill:#15d897; stroke-width:1; stroke:black; " description="&lt;b&gt;BMZ92_RS29900&lt;/b&gt;&lt;br&gt;DUF4393 domain-containing protein&lt;br&gt;Location: 16146 - 16865&lt;br&gt;&lt;br&gt;&lt;b&gt;BlastP hit with ctg3_41&lt;/b&gt;&lt;br&gt;Percentage identity: 73&lt;br&gt;Percentage coverage: 90&lt;br&gt;BLAST bit score: 313&lt;br&gt;E-value: 1.9e-83" locus_tag="BMZ92_RS29900" class="clusterblast-orf" id="dummy-1_h1_5_8"  />
</g>
<g id="a1_009"  >
<polygon points="666,85 671,80 698,80 698,90 671,90 666,85 " style="fill:#1515d8; stroke-width:1; stroke:black; " description="&lt;b&gt;BMZ92_RS29905&lt;/b&gt;&lt;br&gt;DUF1049 domain-containing protein&lt;br&gt;Location: 16948 - 17325&lt;br&gt;&lt;br&gt;&lt;b&gt;BlastP hit with ctg3_42&lt;/b&gt;&lt;br&gt;Percentage identity: 58&lt;br&gt;Percentage coverage: 74&lt;br&gt;BLAST bit score: 66&lt;br&gt;E-value: 3.1e-09" locus_tag="BMZ92_RS29905" class="clusterblast-orf" id="dummy-1_h1_5_9"  />
</g>
<g id="a1_0010"  >
<polygon points="701,85 706,80 764,80 764,90 706,90 701,85 " style="fill:#d81597; stroke-width:1; stroke:black; " description="&lt;b&gt;BMZ92_RS29910&lt;/b&gt;&lt;br&gt;class I SAM-dependent methyltransferase&lt;br&gt;Location: 17363 - 18130&lt;br&gt;&lt;br&gt;&lt;b&gt;BlastP hit with ctg3_43&lt;/b&gt;&lt;br&gt;Percentage identity: 60&lt;br&gt;Percentage coverage: 99&lt;br&gt;BLAST bit score: 295&lt;br&gt;E-value: 7.5e-78" locus_tag="BMZ92_RS29910" class="clusterblast-orf" id="dummy-1_h1_5_10"  />
</g>
</svg>
