<svg xmlns="http://www.w3.org/2000/svg" xmlns:xlink="http://www.w3.org/1999/xlink" version="1.1" x="0" y="0" height="230" width="800" viewBox="0 0 800 230" preserveAspectRatio="none"  >
<g label="Query sequence" class="clusterblast-cluster"  >
<text x="5" y="20" class="clusterblast-acc"  >
Query sequence</text>
<line x1="10" y1="35" x2="778.0" y2="35" style="stroke-width:1; stroke:grey; "  />
<polygon points="76,40 146,40 151,35 146,30 76,30 76,40 " style="fill:#d81515; stroke-width:1; stroke:black; " description="&lt;b&gt;ctg155_1&lt;/b&gt;&lt;br&gt;ctg155 1&lt;br&gt;Location: 0 - 990" locus_tag="ctg155_1" class="clusterblast-orf" id="dummy-1_q0_0_all"  />
<polygon points="150,40 242,40 247,35 242,30 150,30 150,40 " style="fill:#15d863; stroke-width:1; stroke:black; " description="&lt;b&gt;ctg155_2&lt;/b&gt;&lt;br&gt;ctg155 2&lt;br&gt;Location: 986 - 2267" locus_tag="ctg155_2" class="clusterblast-orf" id="dummy-1_q1_0_all"  />
<polygon points="247,40 376,40 381,35 376,30 247,30 247,40 " style="fill:#1563d8; stroke-width:1; stroke:black; " description="&lt;b&gt;ctg155_3&lt;/b&gt;&lt;br&gt;ctg155 3&lt;br&gt;Location: 2269 - 4033" locus_tag="ctg155_3" class="clusterblast-orf" id="dummy-1_q2_0_all"  />
<polygon points="380,40 476,40 481,35 476,30 380,30 380,40 " style="fill:#b115d8; stroke-width:1; stroke:black; " description="&lt;b&gt;ctg155_4&lt;/b&gt;&lt;br&gt;ctg155 4&lt;br&gt;Location: 4026 - 5355" locus_tag="ctg155_4" class="clusterblast-orf" id="dummy-1_q3_0_all"  />
<polygon points="477,35 482,30 571,30 571,40 482,40 477,35 " style="fill:#b1d815; stroke-width:1; stroke:black; " description="&lt;b&gt;ctg155_5&lt;/b&gt;&lt;br&gt;ctg155 5&lt;br&gt;Location: 5314 - 6553" locus_tag="ctg155_5" class="clusterblast-orf" id="dummy-1_q4_0_all"  />
<polygon points="603,35 608,30 690,30 690,40 608,40 603,35 " style="fill:white; stroke-width:1; stroke:black; " description="&lt;b&gt;ctg155_6&lt;/b&gt;&lt;br&gt;ctg155 6&lt;br&gt;Location: 6976 - 8128" locus_tag="ctg155_6" class="clusterblast-orf" id="dummy-1_q5_0_all"  />
<polygon points="689,35 694,30 704,30 704,40 694,40 689,35 " style="fill:white; stroke-width:1; stroke:black; " description="&lt;b&gt;ctg155_7&lt;/b&gt;&lt;br&gt;ctg155 7&lt;br&gt;Location: 8111 - 8318" locus_tag="ctg155_7" class="clusterblast-orf" id="dummy-1_q6_0_all"  />
</g>
<g label="NZ_FOEF01000009" description="NZ_FOEF01000009_c4: Amycolatopsis saalfeldensis strain DSM 44993, whole genom... (66% of genes show similarity), siderophore" class="clusterblast-cluster"  >
<text x="5" y="70" class="clusterblast-acc"  >
<a xlink:href="https://antismash-db.secondarymetabolites.org/go/NZ_FOEF01000009/4" target="_blank">NZ_FOEF01000009_c4</a>: Amycolatopsis saalfeldensis strain DSM 44993, whole genom... (66% of genes show similarity), siderophore</text>
<line x1="10" y1="85" x2="778.0" y2="85" style="stroke-width:1; stroke:grey; "  />
</g>
<g id="a1_000"  >
<polygon points="0,90 84,90 89,85 84,80 0,80 0,90 " style="fill:white; stroke-width:1; stroke:black; " description="&lt;b&gt;BMY97_RS21055&lt;/b&gt;&lt;br&gt;cytochrome P450&lt;br&gt;Location: 34145 - 35335" locus_tag="BMY97_RS21055" class="clusterblast-orf" id="dummy-1_h1_6_0"  />
</g>
<g id="a1_001"  >
<polygon points="100,90 206,90 211,85 206,80 100,80 100,90 " style="fill:#d81515; stroke-width:1; stroke:black; " description="&lt;b&gt;BMY97_RS21060&lt;/b&gt;&lt;br&gt;aspartate aminotransferase family protein&lt;br&gt;Location: 35480 - 36949&lt;br&gt;&lt;br&gt;&lt;b&gt;BlastP hit with ctg155_1&lt;/b&gt;&lt;br&gt;Percentage identity: 69&lt;br&gt;Percentage coverage: 101&lt;br&gt;BLAST bit score: 440&lt;br&gt;E-value: 2.3e-121" locus_tag="BMY97_RS21060" class="clusterblast-orf" id="dummy-1_h1_6_1"  />
</g>
<g id="a1_002"  >
<polygon points="211,90 304,90 309,85 304,80 211,80 211,90 " style="fill:#15d863; stroke-width:1; stroke:black; " description="&lt;b&gt;BMY97_RS21065&lt;/b&gt;&lt;br&gt;lysine 6-monooxygenase&lt;br&gt;Location: 36946 - 38247&lt;br&gt;&lt;br&gt;&lt;b&gt;BlastP hit with ctg155_2&lt;/b&gt;&lt;br&gt;Percentage identity: 68&lt;br&gt;Percentage coverage: 100&lt;br&gt;BLAST bit score: 569&lt;br&gt;E-value: 4.2e-160" locus_tag="BMY97_RS21065" class="clusterblast-orf" id="dummy-1_h1_6_2"  />
</g>
<g id="a1_003"  >
<polygon points="315,90 441,90 446,85 441,80 315,80 315,90 " style="fill:#1563d8; stroke-width:1; stroke:black; " description="&lt;b&gt;BMY97_RS21070&lt;/b&gt;&lt;br&gt;IucA/IucC family protein&lt;br&gt;Location: 38316 - 40052&lt;br&gt;&lt;br&gt;&lt;b&gt;BlastP hit with ctg155_3&lt;/b&gt;&lt;br&gt;Percentage identity: 77&lt;br&gt;Percentage coverage: 99&lt;br&gt;BLAST bit score: 902&lt;br&gt;E-value: 2.2e-260" locus_tag="BMY97_RS21070" class="clusterblast-orf" id="dummy-1_h1_6_3"  />
</g>
<g id="a1_004"  >
<polygon points="446,90 540,90 545,85 540,80 446,80 446,90 " style="fill:#b115d8; stroke-width:1; stroke:black; " description="&lt;b&gt;BMY97_RS21075&lt;/b&gt;&lt;br&gt;glutamine synthetase&lt;br&gt;Location: 40049 - 41362&lt;br&gt;&lt;br&gt;&lt;b&gt;BlastP hit with ctg155_4&lt;/b&gt;&lt;br&gt;Percentage identity: 64&lt;br&gt;Percentage coverage: 100&lt;br&gt;BLAST bit score: 525&lt;br&gt;E-value: 5.6e-147" locus_tag="BMY97_RS21075" class="clusterblast-orf" id="dummy-1_h1_6_4"  />
</g>
<g id="a1_005"  >
<polygon points="545,85 550,80 780,80 780,90 550,90 545,85 " style="fill:white; stroke-width:1; stroke:black; " description="&lt;b&gt;BMY97_RS21080&lt;/b&gt;&lt;br&gt;hypothetical protein&lt;br&gt;Location: 41364 - 44468" locus_tag="BMY97_RS21080" class="clusterblast-orf" id="dummy-1_h1_6_5"  />
</g>
</svg>
