<svg xmlns="http://www.w3.org/2000/svg" xmlns:xlink="http://www.w3.org/1999/xlink" version="1.1" x="0" y="0" height="230" width="800" viewBox="0 0 800 230" preserveAspectRatio="none"  >
<g label="Query sequence" class="clusterblast-cluster"  >
<text x="5" y="20" class="clusterblast-acc"  >
Query sequence</text>
<line x1="10" y1="35" x2="778.0" y2="35" style="stroke-width:1; stroke:grey; "  />
<polygon points="230,40 246,40 251,35 246,30 230,30 230,40 " style="fill:#d81515; stroke-width:1; stroke:black; " description="&lt;b&gt;ctg2_107&lt;/b&gt;&lt;br&gt;ctg2 107&lt;br&gt;Location: 115813 - 118081" locus_tag="ctg2_107" class="clusterblast-orf" id="dummy-1_q0_0_all"  />
<polygon points="251,40 254,40 259,35 254,30 251,30 251,40 " style="fill:#6ad815; stroke-width:1; stroke:black; " description="&lt;b&gt;ctg2_108&lt;/b&gt;&lt;br&gt;ctg2 108&lt;br&gt;Location: 118100 - 118964" locus_tag="ctg2_108" class="clusterblast-orf" id="dummy-1_q1_0_all"  />
<polygon points="262,35 267,30 267,30 267,40 267,40 262,35 " style="fill:#15bfd8; stroke-width:1; stroke:black; " description="&lt;b&gt;ctg2_109&lt;/b&gt;&lt;br&gt;ctg2 109&lt;br&gt;Location: 119308 - 119923" locus_tag="ctg2_109" class="clusterblast-orf" id="dummy-1_q2_0_all"  />
<polygon points="268,40 272,35 268,30 268,40 " style="fill:#9d15d8; stroke-width:1; stroke:black; " description="&lt;b&gt;ctg2_110&lt;/b&gt;&lt;br&gt;ctg2 110&lt;br&gt;Location: 120025 - 120436" locus_tag="ctg2_110" class="clusterblast-orf" id="dummy-1_q3_0_all"  />
<polygon points="272,40 289,40 294,35 289,30 272,30 272,40 " style="fill:#d84815; stroke-width:1; stroke:black; " description="&lt;b&gt;ctg2_111&lt;/b&gt;&lt;br&gt;ctg2 111&lt;br&gt;Location: 120481 - 122830" locus_tag="ctg2_111" class="clusterblast-orf" id="dummy-1_q4_0_all"  />
<polygon points="296,40 299,40 304,35 299,30 296,30 296,40 " style="fill:#37d815; stroke-width:1; stroke:black; " description="&lt;b&gt;ctg2_112&lt;/b&gt;&lt;br&gt;ctg2 112&lt;br&gt;Location: 123049 - 123976" locus_tag="ctg2_112" class="clusterblast-orf" id="dummy-1_q5_0_all"  />
<polygon points="304,40 320,40 325,35 320,30 304,30 304,40 " style="fill:#158cd8; stroke-width:1; stroke:black; " description="&lt;b&gt;ctg2_113&lt;/b&gt;&lt;br&gt;ctg2 113&lt;br&gt;Location: 123968 - 126317" locus_tag="ctg2_113" class="clusterblast-orf" id="dummy-1_q6_0_all"  />
<polygon points="326,40 327,35 326,30 326,40 " style="fill:white; stroke-width:1; stroke:black; " description="&lt;b&gt;ctg2_114&lt;/b&gt;&lt;br&gt;ctg2 114&lt;br&gt;Location: 126338 - 126497" locus_tag="ctg2_114" class="clusterblast-orf" id="dummy-1_q7_0_all"  />
<polygon points="327,40 332,40 337,35 332,30 327,30 327,40 " style="fill:#d015d8; stroke-width:1; stroke:black; " description="&lt;b&gt;ctg2_115&lt;/b&gt;&lt;br&gt;ctg2 115&lt;br&gt;Location: 126507 - 127548" locus_tag="ctg2_115" class="clusterblast-orf" id="dummy-1_q8_0_all"  />
<polygon points="338,35 341,30 341,40 338,35 " style="fill:#d87b15; stroke-width:1; stroke:black; " description="&lt;b&gt;ctg2_116&lt;/b&gt;&lt;br&gt;ctg2 116&lt;br&gt;Location: 127707 - 128046" locus_tag="ctg2_116" class="clusterblast-orf" id="dummy-1_q9_0_all"  />
<polygon points="343,40 349,40 354,35 349,30 343,30 343,40 " style="fill:white; stroke-width:1; stroke:black; " description="&lt;b&gt;ctg2_117&lt;/b&gt;&lt;br&gt;ctg2 117&lt;br&gt;Location: 128271 - 129462" locus_tag="ctg2_117" class="clusterblast-orf" id="dummy-1_q10_0_all"  />
<polygon points="354,35 357,30 357,40 354,35 " style="fill:white; stroke-width:1; stroke:black; " description="&lt;b&gt;ctg2_118&lt;/b&gt;&lt;br&gt;ctg2 118&lt;br&gt;Location: 129484 - 129832" locus_tag="ctg2_118" class="clusterblast-orf" id="dummy-1_q11_0_all"  />
<polygon points="358,40 361,40 366,35 361,30 358,30 358,40 " style="fill:white; stroke-width:1; stroke:black; " description="&lt;b&gt;ctg2_119&lt;/b&gt;&lt;br&gt;ctg2 119&lt;br&gt;Location: 129950 - 130739" locus_tag="ctg2_119" class="clusterblast-orf" id="dummy-1_q12_0_all"  />
<polygon points="366,35 371,30 371,30 371,40 371,40 366,35 " style="fill:#15d826; stroke-width:1; stroke:black; " description="&lt;b&gt;ctg2_120&lt;/b&gt;&lt;br&gt;ctg2 120&lt;br&gt;Location: 130761 - 131343" locus_tag="ctg2_120" class="clusterblast-orf" id="dummy-1_q13_0_all"  />
<polygon points="372,40 381,40 386,35 381,30 372,30 372,40 " style="fill:#1559d8; stroke-width:1; stroke:black; " description="&lt;b&gt;ctg2_121&lt;/b&gt;&lt;br&gt;ctg2 121&lt;br&gt;Location: 131410 - 133021" locus_tag="ctg2_121" class="clusterblast-orf" id="dummy-1_q14_0_all"  />
<polygon points="389,40 405,40 410,35 405,30 389,30 389,40 " style="fill:#d815ae; stroke-width:1; stroke:black; " description="&lt;b&gt;ctg2_122&lt;/b&gt;&lt;br&gt;ctg2 122&lt;br&gt;Location: 133316 - 135611" locus_tag="ctg2_122" class="clusterblast-orf" id="dummy-1_q15_0_all"  />
<polygon points="410,40 414,35 410,30 410,40 " style="fill:#d8ae15; stroke-width:1; stroke:black; " description="&lt;b&gt;ctg2_123&lt;/b&gt;&lt;br&gt;ctg2 123&lt;br&gt;Location: 135628 - 136066" locus_tag="ctg2_123" class="clusterblast-orf" id="dummy-1_q16_0_all"  />
<polygon points="414,40 417,35 414,30 414,40 " style="fill:#15d859; stroke-width:1; stroke:black; " description="&lt;b&gt;ctg2_124&lt;/b&gt;&lt;br&gt;ctg2 124&lt;br&gt;Location: 136062 - 136443" locus_tag="ctg2_124" class="clusterblast-orf" id="dummy-1_q17_0_all"  />
<polygon points="417,40 418,40 423,35 418,30 417,30 417,40 " style="fill:#1526d8; stroke-width:1; stroke:black; " description="&lt;b&gt;ctg2_125&lt;/b&gt;&lt;br&gt;ctg2 125&lt;br&gt;Location: 136423 - 137038" locus_tag="ctg2_125" class="clusterblast-orf" id="dummy-1_q18_0_all"  />
<polygon points="423,35 428,30 438,30 438,40 428,40 423,35 " style="fill:#1559d8; stroke-width:1; stroke:black; " description="&lt;b&gt;ctg2_126&lt;/b&gt;&lt;br&gt;ctg2 126&lt;br&gt;Location: 137087 - 138728" locus_tag="ctg2_126" class="clusterblast-orf" id="dummy-1_q19_0_all"  />
<polygon points="440,40 441,40 446,35 441,30 440,30 440,40 " style="fill:#d8157b; stroke-width:1; stroke:black; " description="&lt;b&gt;ctg2_127&lt;/b&gt;&lt;br&gt;ctg2 127&lt;br&gt;Location: 138967 - 139576" locus_tag="ctg2_127" class="clusterblast-orf" id="dummy-1_q20_0_all"  />
<polygon points="447,40 448,40 453,35 448,30 447,30 447,40 " style="fill:#d0d815; stroke-width:1; stroke:black; " description="&lt;b&gt;ctg2_128&lt;/b&gt;&lt;br&gt;ctg2 128&lt;br&gt;Location: 139684 - 140356" locus_tag="ctg2_128" class="clusterblast-orf" id="dummy-1_q21_0_all"  />
<polygon points="453,35 458,30 462,30 462,40 458,40 453,35 " style="fill:#15d88c; stroke-width:1; stroke:black; " description="&lt;b&gt;ctg2_129&lt;/b&gt;&lt;br&gt;ctg2 129&lt;br&gt;Location: 140367 - 141345" locus_tag="ctg2_129" class="clusterblast-orf" id="dummy-1_q22_0_all"  />
<polygon points="465,40 470,40 475,35 470,30 465,30 465,40 " style="fill:#3715d8; stroke-width:1; stroke:black; " description="&lt;b&gt;ctg2_130&lt;/b&gt;&lt;br&gt;ctg2 130&lt;br&gt;Location: 141689 - 142835" locus_tag="ctg2_130" class="clusterblast-orf" id="dummy-1_q23_0_all"  />
<polygon points="476,35 481,30 488,30 488,40 481,40 476,35 " style="fill:#d81548; stroke-width:1; stroke:black; " description="&lt;b&gt;ctg2_131&lt;/b&gt;&lt;br&gt;ctg2 131&lt;br&gt;Location: 142922 - 144260" locus_tag="ctg2_131" class="clusterblast-orf" id="dummy-1_q24_0_all"  />
<polygon points="489,35 494,30 496,30 496,40 494,40 489,35 " style="fill:#9dd815; stroke-width:1; stroke:black; " description="&lt;b&gt;ctg2_132&lt;/b&gt;&lt;br&gt;ctg2 132&lt;br&gt;Location: 144292 - 145138" locus_tag="ctg2_132" class="clusterblast-orf" id="dummy-1_q25_0_all"  />
<polygon points="497,40 501,40 506,35 501,30 497,30 497,40 " style="fill:#15d8bf; stroke-width:1; stroke:black; " description="&lt;b&gt;ctg2_133&lt;/b&gt;&lt;br&gt;ctg2 133&lt;br&gt;Location: 145248 - 146163" locus_tag="ctg2_133" class="clusterblast-orf" id="dummy-1_q26_0_all"  />
<polygon points="507,35 512,30 514,30 514,40 512,40 507,35 " style="fill:white; stroke-width:1; stroke:black; " description="&lt;b&gt;ctg2_134&lt;/b&gt;&lt;br&gt;ctg2 134&lt;br&gt;Location: 146271 - 147105" locus_tag="ctg2_134" class="clusterblast-orf" id="dummy-1_q27_0_all"  />
<polygon points="515,35 520,30 521,30 521,40 520,40 515,35 " style="fill:white; stroke-width:1; stroke:black; " description="&lt;b&gt;ctg2_135&lt;/b&gt;&lt;br&gt;ctg2 135&lt;br&gt;Location: 147246 - 147885" locus_tag="ctg2_135" class="clusterblast-orf" id="dummy-1_q28_0_all"  />
<polygon points="522,40 529,40 534,35 529,30 522,30 522,40 " style="fill:white; stroke-width:1; stroke:black; " description="&lt;b&gt;ctg2_136&lt;/b&gt;&lt;br&gt;ctg2 136&lt;br&gt;Location: 147950 - 149336" locus_tag="ctg2_136" class="clusterblast-orf" id="dummy-1_q29_0_all"  />
<polygon points="535,40 536,40 541,35 536,30 535,30 535,40 " style="fill:white; stroke-width:1; stroke:black; " description="&lt;b&gt;ctg2_137&lt;/b&gt;&lt;br&gt;ctg2 137&lt;br&gt;Location: 149355 - 150066" locus_tag="ctg2_137" class="clusterblast-orf" id="dummy-1_q30_0_all"  />
<polygon points="541,40 542,40 547,35 542,30 541,30 541,40 " style="fill:#6a15d8; stroke-width:1; stroke:black; " description="&lt;b&gt;ctg2_138&lt;/b&gt;&lt;br&gt;ctg2 138&lt;br&gt;Location: 150076 - 150691" locus_tag="ctg2_138" class="clusterblast-orf" id="dummy-1_q31_0_all"  />
<polygon points="547,35 549,30 549,40 547,35 " style="fill:white; stroke-width:1; stroke:black; " description="&lt;b&gt;ctg2_139&lt;/b&gt;&lt;br&gt;ctg2 139&lt;br&gt;Location: 150734 - 150968" locus_tag="ctg2_139" class="clusterblast-orf" id="dummy-1_q32_0_all"  />
</g>
<g label="NZ_AYXG01000004" description="NZ_AYXG01000004_c5: Actinokineospora spheciospongiae strain EG49 contig1284 2... (5% of genes show similarity), t3pks-lantipeptide-t1pks-otherks" class="clusterblast-cluster"  >
<text x="5" y="70" class="clusterblast-acc"  >
<a xlink:href="https://antismash-db.secondarymetabolites.org/go/NZ_AYXG01000004/5" target="_blank">NZ_AYXG01000004_c5</a>: Actinokineospora spheciospongiae strain EG49 contig1284 2... (5% of genes show similarity), t3pks-lantipeptide-t1pks-otherks</text>
<line x1="10" y1="85" x2="778.0" y2="85" style="stroke-width:1; stroke:grey; "  />
</g>
<g id="a1_000"  >
<polygon points="0,85 5,80 7,80 7,90 5,90 0,85 " style="fill:white; stroke-width:1; stroke:black; " description="&lt;b&gt;UO65_RS34140&lt;/b&gt;&lt;br&gt;IS5/IS1182 family transposase&lt;br&gt;Location: 224745 - 223868" locus_tag="UO65_RS34140" class="clusterblast-orf" id="dummy-1_h1_9_0"  />
</g>
<g id="a1_001"  >
<polygon points="9,90 9,90 14,85 9,80 9,80 9,90 " style="fill:white; stroke-width:1; stroke:black; " description="&lt;b&gt;UO65_RS01155&lt;/b&gt;&lt;br&gt;TetR/AcrR family transcriptional regulator&lt;br&gt;Location: 223675 - 223112" locus_tag="UO65_RS01155" class="clusterblast-orf" id="dummy-1_h1_9_1"  />
</g>
<g id="a1_002"  >
<polygon points="15,85 20,80 24,80 24,90 20,90 15,85 " style="fill:white; stroke-width:1; stroke:black; " description="&lt;b&gt;UO65_RS01150&lt;/b&gt;&lt;br&gt;hypothetical protein&lt;br&gt;Location: 223015 - 221999" locus_tag="UO65_RS01150" class="clusterblast-orf" id="dummy-1_h1_9_2"  />
</g>
<g id="a1_003"  >
<polygon points="26,85 31,80 37,80 37,90 31,90 26,85 " style="fill:white; stroke-width:1; stroke:black; " description="&lt;b&gt;UO65_RS01145&lt;/b&gt;&lt;br&gt;DUF3500 domain-containing protein&lt;br&gt;Location: 221863 - 220607" locus_tag="UO65_RS01145" class="clusterblast-orf" id="dummy-1_h1_9_3"  />
</g>
<g id="a1_004"  >
<polygon points="37,85 42,80 51,80 51,90 42,90 37,85 " style="fill:#d81548; stroke-width:1; stroke:black; " description="&lt;b&gt;UO65_RS01140&lt;/b&gt;&lt;br&gt;MFS transporter&lt;br&gt;Location: 220596 - 219025&lt;br&gt;&lt;br&gt;&lt;b&gt;BlastP hit with ctg2_131&lt;/b&gt;&lt;br&gt;Percentage identity: 35&lt;br&gt;Percentage coverage: 98&lt;br&gt;BLAST bit score: 182&lt;br&gt;E-value: 1.2e-43" locus_tag="UO65_RS01140" class="clusterblast-orf" id="dummy-1_h1_9_4"  />
</g>
<g id="a1_005"  >
<polygon points="54,90 56,90 61,85 56,80 54,80 54,90 " style="fill:white; stroke-width:1; stroke:black; " description="&lt;b&gt;UO65_RS01135&lt;/b&gt;&lt;br&gt;alpha/beta hydrolase&lt;br&gt;Location: 218767 - 217955" locus_tag="UO65_RS01135" class="clusterblast-orf" id="dummy-1_h1_9_5"  />
</g>
<g id="a1_006"  >
<polygon points="61,90 61,90 66,85 61,80 61,80 61,90 " style="fill:white; stroke-width:1; stroke:black; " description="&lt;b&gt;UO65_RS01130&lt;/b&gt;&lt;br&gt;TetR/AcrR family transcriptional regulator&lt;br&gt;Location: 217967 - 217371" locus_tag="UO65_RS01130" class="clusterblast-orf" id="dummy-1_h1_9_6"  />
</g>
<g id="a1_007"  >
<polygon points="67,90 71,85 67,80 67,90 " style="fill:white; stroke-width:1; stroke:black; " description="&lt;b&gt;UO65_RS01125&lt;/b&gt;&lt;br&gt;DUF4260 domain-containing protein&lt;br&gt;Location: 217277 - 216843" locus_tag="UO65_RS01125" class="clusterblast-orf" id="dummy-1_h1_9_7"  />
</g>
<g id="a1_008"  >
<polygon points="72,90 78,90 83,85 78,80 72,80 72,90 " style="fill:white; stroke-width:1; stroke:black; " description="&lt;b&gt;UO65_RS01120&lt;/b&gt;&lt;br&gt;cytochrome P450&lt;br&gt;Location: 216763 - 215543" locus_tag="UO65_RS01120" class="clusterblast-orf" id="dummy-1_h1_9_8"  />
</g>
<g id="a1_009"  >
<polygon points="84,90 93,90 98,85 93,80 84,80 84,90 " style="fill:white; stroke-width:1; stroke:black; " description="&lt;b&gt;UO65_RS01115&lt;/b&gt;&lt;br&gt;hypothetical protein&lt;br&gt;Location: 215461 - 213938" locus_tag="UO65_RS01115" class="clusterblast-orf" id="dummy-1_h1_9_9"  />
</g>
<g id="a1_0010"  >
<polygon points="98,85 103,80 118,80 118,90 103,90 98,85 " style="fill:white; stroke-width:1; stroke:black; " description="&lt;b&gt;UO65_RS01110&lt;/b&gt;&lt;br&gt;MMPL family transporter&lt;br&gt;Location: 213904 - 211691" locus_tag="UO65_RS01110" class="clusterblast-orf" id="dummy-1_h1_9_10"  />
</g>
<g id="a1_0011"  >
<polygon points="120,90 126,90 131,85 126,80 120,80 120,90 " style="fill:white; stroke-width:1; stroke:black; " description="&lt;b&gt;UO65_RS01105&lt;/b&gt;&lt;br&gt;FAD-binding protein&lt;br&gt;Location: 211450 - 210233" locus_tag="UO65_RS01105" class="clusterblast-orf" id="dummy-1_h1_9_11"  />
</g>
<g id="a1_0012"  >
<polygon points="132,85 137,80 140,80 140,90 137,90 132,85 " style="fill:white; stroke-width:1; stroke:black; " description="&lt;b&gt;UO65_RS01100&lt;/b&gt;&lt;br&gt;NADPH-dependent oxidoreductase&lt;br&gt;Location: 210127 - 209306" locus_tag="UO65_RS01100" class="clusterblast-orf" id="dummy-1_h1_9_12"  />
</g>
<g id="a1_0013"  >
<polygon points="137,85 142,80 149,80 149,90 142,90 137,85 " style="fill:white; stroke-width:1; stroke:black; " description="&lt;b&gt;UO65_RS01095&lt;/b&gt;&lt;br&gt;FAD-dependent oxidoreductase&lt;br&gt;Location: 209564 - 208338" locus_tag="UO65_RS01095" class="clusterblast-orf" id="dummy-1_h1_9_13"  />
</g>
<g id="a1_0014"  >
<polygon points="152,85 157,80 166,80 166,90 157,90 152,85 " style="fill:white; stroke-width:1; stroke:black; " description="&lt;b&gt;UO65_RS01090&lt;/b&gt;&lt;br&gt;hypothetical protein&lt;br&gt;Location: 208014 - 206464" locus_tag="UO65_RS01090" class="clusterblast-orf" id="dummy-1_h1_9_14"  />
</g>
<g id="a1_0015"  >
<polygon points="166,85 171,80 179,80 179,90 171,90 166,85 " style="fill:white; stroke-width:1; stroke:black; " description="&lt;b&gt;UO65_RS01085&lt;/b&gt;&lt;br&gt;hypothetical protein&lt;br&gt;Location: 206467 - 204992" locus_tag="UO65_RS01085" class="clusterblast-orf" id="dummy-1_h1_9_15"  />
</g>
<g id="a1_0016"  >
<polygon points="179,85 184,80 187,80 187,90 184,90 179,85 " style="fill:white; stroke-width:1; stroke:black; " description="&lt;b&gt;UO65_RS01080&lt;/b&gt;&lt;br&gt;SAM-dependent methyltransferase&lt;br&gt;Location: 204995 - 204111" locus_tag="UO65_RS01080" class="clusterblast-orf" id="dummy-1_h1_9_16"  />
</g>
<g id="a1_0017"  >
<polygon points="187,85 192,80 197,80 197,90 192,90 187,85 " style="fill:white; stroke-width:1; stroke:black; " description="&lt;b&gt;UO65_RS01075&lt;/b&gt;&lt;br&gt;type III polyketide synthase&lt;br&gt;Location: 204070 - 203024" locus_tag="UO65_RS01075" class="clusterblast-orf" id="dummy-1_h1_9_17"  />
</g>
<g id="a1_0018"  >
<polygon points="197,85 201,80 201,90 197,85 " style="fill:white; stroke-width:1; stroke:black; " description="&lt;b&gt;UO65_RS01070&lt;/b&gt;&lt;br&gt;hypothetical protein&lt;br&gt;Location: 203027 - 202551" locus_tag="UO65_RS01070" class="clusterblast-orf" id="dummy-1_h1_9_18"  />
</g>
<g id="a1_0019"  >
<polygon points="201,85 206,80 209,80 209,90 206,90 201,85 " style="fill:white; stroke-width:1; stroke:black; " description="&lt;b&gt;UO65_RS01065&lt;/b&gt;&lt;br&gt;3-demethylubiquinone-9 3-O-methyltransferase&lt;br&gt;Location: 202541 - 201738" locus_tag="UO65_RS01065" class="clusterblast-orf" id="dummy-1_h1_9_19"  />
</g>
<g id="a1_0020"  >
<polygon points="209,85 214,80 220,80 220,90 214,90 209,85 " style="fill:white; stroke-width:1; stroke:black; " description="&lt;b&gt;UO65_RS01060&lt;/b&gt;&lt;br&gt;acyl-CoA dehydrogenase&lt;br&gt;Location: 201738 - 200503" locus_tag="UO65_RS01060" class="clusterblast-orf" id="dummy-1_h1_9_20"  />
</g>
<g id="a1_0021"  >
<polygon points="220,85 225,80 231,80 231,90 225,90 220,85 " style="fill:white; stroke-width:1; stroke:black; " description="&lt;b&gt;UO65_RS01055&lt;/b&gt;&lt;br&gt;acyl-CoA dehydrogenase&lt;br&gt;Location: 200501 - 199314" locus_tag="UO65_RS01055" class="clusterblast-orf" id="dummy-1_h1_9_21"  />
</g>
<g id="a1_0022"  >
<polygon points="230,85 233,80 233,90 230,85 " style="fill:white; stroke-width:1; stroke:black; " description="&lt;b&gt;UO65_RS01050&lt;/b&gt;&lt;br&gt;hypothetical protein&lt;br&gt;Location: 199321 - 199043" locus_tag="UO65_RS01050" class="clusterblast-orf" id="dummy-1_h1_9_22"  />
</g>
<g id="a1_0023"  >
<polygon points="233,85 237,80 237,90 233,85 " style="fill:white; stroke-width:1; stroke:black; " description="&lt;b&gt;UO65_RS32910&lt;/b&gt;&lt;br&gt;DUF59 domain-containing protein&lt;br&gt;Location: 199046 - 198606" locus_tag="UO65_RS32910" class="clusterblast-orf" id="dummy-1_h1_9_23"  />
</g>
<g id="a1_0024"  >
<polygon points="237,85 242,80 247,80 247,90 242,90 237,85 " style="fill:white; stroke-width:1; stroke:black; " description="&lt;b&gt;UO65_RS01040&lt;/b&gt;&lt;br&gt;hypothetical protein&lt;br&gt;Location: 198609 - 197500" locus_tag="UO65_RS01040" class="clusterblast-orf" id="dummy-1_h1_9_24"  />
</g>
<g id="a1_0025"  >
<polygon points="249,90 260,90 265,85 260,80 249,80 249,90 " style="fill:white; stroke-width:1; stroke:black; " description="&lt;b&gt;UO65_RS01035&lt;/b&gt;&lt;br&gt;hypothetical protein&lt;br&gt;Location: 197284 - 195563" locus_tag="UO65_RS01035" class="clusterblast-orf" id="dummy-1_h1_9_25"  />
</g>
<g id="a1_0026"  >
<polygon points="265,90 276,90 281,85 276,80 265,80 265,90 " style="fill:white; stroke-width:1; stroke:black; " description="&lt;b&gt;UO65_RS01030&lt;/b&gt;&lt;br&gt;acyl-CoA dehydrogenase&lt;br&gt;Location: 195566 - 193815" locus_tag="UO65_RS01030" class="clusterblast-orf" id="dummy-1_h1_9_26"  />
</g>
<g id="a1_0027"  >
<polygon points="280,90 290,90 295,85 290,80 280,80 280,90 " style="fill:white; stroke-width:1; stroke:black; " description="&lt;b&gt;UO65_RS01025&lt;/b&gt;&lt;br&gt;acyl-CoA dehydrogenase&lt;br&gt;Location: 193818 - 192187" locus_tag="UO65_RS01025" class="clusterblast-orf" id="dummy-1_h1_9_27"  />
</g>
<g id="a1_0028"  >
<polygon points="295,90 298,85 295,80 295,90 " style="fill:white; stroke-width:1; stroke:black; " description="&lt;b&gt;UO65_RS01020&lt;/b&gt;&lt;br&gt;polyketide synthase&lt;br&gt;Location: 192173 - 191898" locus_tag="UO65_RS01020" class="clusterblast-orf" id="dummy-1_h1_9_28"  />
</g>
<g id="a1_0029"  >
<polygon points="298,90 320,90 325,85 320,80 298,80 298,90 " style="fill:white; stroke-width:1; stroke:black; " description="&lt;b&gt;UO65_RS01015&lt;/b&gt;&lt;br&gt;type I polyketide synthase&lt;br&gt;Location: 191898 - 188866" locus_tag="UO65_RS01015" class="clusterblast-orf" id="dummy-1_h1_9_29"  />
</g>
<g id="a1_0030"  >
<polygon points="325,90 330,90 335,85 330,80 325,80 325,90 " style="fill:white; stroke-width:1; stroke:black; " description="&lt;b&gt;UO65_RS01010&lt;/b&gt;&lt;br&gt;3-oxoacyl-ACP synthase&lt;br&gt;Location: 188869 - 187850" locus_tag="UO65_RS01010" class="clusterblast-orf" id="dummy-1_h1_9_30"  />
</g>
<g id="a1_0031"  >
<polygon points="335,90 347,90 352,85 347,80 335,80 335,90 " style="fill:white; stroke-width:1; stroke:black; " description="&lt;b&gt;UO65_RS01005&lt;/b&gt;&lt;br&gt;hypothetical protein&lt;br&gt;Location: 187838 - 186000" locus_tag="UO65_RS01005" class="clusterblast-orf" id="dummy-1_h1_9_31"  />
</g>
<g id="a1_0032"  >
<polygon points="352,90 354,85 352,80 352,90 " style="fill:white; stroke-width:1; stroke:black; " description="&lt;b&gt;UO65_RS01000&lt;/b&gt;&lt;br&gt;acyl carrier protein&lt;br&gt;Location: 185988 - 185755" locus_tag="UO65_RS01000" class="clusterblast-orf" id="dummy-1_h1_9_32"  />
</g>
<g id="a1_0033"  >
<polygon points="354,90 356,90 361,85 356,80 354,80 354,90 " style="fill:white; stroke-width:1; stroke:black; " description="&lt;b&gt;UO65_RS00995&lt;/b&gt;&lt;br&gt;hypothetical protein&lt;br&gt;Location: 185740 - 184928" locus_tag="UO65_RS00995" class="clusterblast-orf" id="dummy-1_h1_9_33"  />
</g>
<g id="a1_0034"  >
<polygon points="360,90 361,90 366,85 361,80 360,80 360,90 " style="fill:white; stroke-width:1; stroke:black; " description="&lt;b&gt;UO65_RS00990&lt;/b&gt;&lt;br&gt;hypothetical protein&lt;br&gt;Location: 185016 - 184396" locus_tag="UO65_RS00990" class="clusterblast-orf" id="dummy-1_h1_9_34"  />
</g>
<g id="a1_0035"  >
<polygon points="366,90 371,90 376,85 371,80 366,80 366,90 " style="fill:white; stroke-width:1; stroke:black; " description="&lt;b&gt;UO65_RS00985&lt;/b&gt;&lt;br&gt;alpha/beta hydrolase&lt;br&gt;Location: 184378 - 183305" locus_tag="UO65_RS00985" class="clusterblast-orf" id="dummy-1_h1_9_35"  />
</g>
<g id="a1_0036"  >
<polygon points="376,90 378,90 383,85 378,80 376,80 376,90 " style="fill:white; stroke-width:1; stroke:black; " description="&lt;b&gt;UO65_RS00980&lt;/b&gt;&lt;br&gt;thioesterase&lt;br&gt;Location: 183308 - 182586" locus_tag="UO65_RS00980" class="clusterblast-orf" id="dummy-1_h1_9_36"  />
</g>
<g id="a1_0037"  >
<polygon points="387,90 390,85 387,80 387,90 " style="fill:white; stroke-width:1; stroke:black; " description="&lt;b&gt;UO65_RS00975&lt;/b&gt;&lt;br&gt;hypothetical protein&lt;br&gt;Location: 182121 - 181762" locus_tag="UO65_RS00975" class="clusterblast-orf" id="dummy-1_h1_9_37"  />
</g>
<g id="a1_0038"  >
<polygon points="393,90 397,90 402,85 397,80 393,80 393,90 " style="fill:white; stroke-width:1; stroke:black; " description="&lt;b&gt;UO65_RS00970&lt;/b&gt;&lt;br&gt;LysR family transcriptional regulator&lt;br&gt;Location: 181413 - 180463" locus_tag="UO65_RS00970" class="clusterblast-orf" id="dummy-1_h1_9_38"  />
</g>
<g id="a1_0039"  >
<polygon points="402,90 406,85 402,80 402,90 " style="fill:white; stroke-width:1; stroke:black; " description="&lt;b&gt;UO65_RS00965&lt;/b&gt;&lt;br&gt;hypothetical protein&lt;br&gt;Location: 180388 - 180002" locus_tag="UO65_RS00965" class="clusterblast-orf" id="dummy-1_h1_9_39"  />
</g>
<g id="a1_0040"  >
<polygon points="406,85 411,80 412,80 412,90 411,90 406,85 " style="fill:white; stroke-width:1; stroke:black; " description="&lt;b&gt;UO65_RS00960&lt;/b&gt;&lt;br&gt;hypothetical protein&lt;br&gt;Location: 179997 - 179302" locus_tag="UO65_RS00960" class="clusterblast-orf" id="dummy-1_h1_9_40"  />
</g>
<g id="a1_0041"  >
<polygon points="414,85 419,80 431,80 431,90 419,90 414,85 " style="fill:white; stroke-width:1; stroke:black; " description="&lt;b&gt;UO65_RS00955&lt;/b&gt;&lt;br&gt;ABC transporter ATP-binding protein&lt;br&gt;Location: 179069 - 177231" locus_tag="UO65_RS00955" class="clusterblast-orf" id="dummy-1_h1_9_41"  />
</g>
<g id="a1_0042"  >
<polygon points="435,90 457,90 462,85 457,80 435,80 435,90 " style="fill:white; stroke-width:1; stroke:black; " description="&lt;b&gt;UO65_RS00950&lt;/b&gt;&lt;br&gt;glycine--tRNA ligase&lt;br&gt;Location: 176821 - 173849" locus_tag="UO65_RS00950" class="clusterblast-orf" id="dummy-1_h1_9_42"  />
</g>
<g id="a1_0043"  >
<polygon points="463,85 468,80 473,80 473,90 468,90 463,85 " style="fill:white; stroke-width:1; stroke:black; " description="&lt;b&gt;UO65_RS00945&lt;/b&gt;&lt;br&gt;winged helix DNA-binding domain-containing protein&lt;br&gt;Location: 173770 - 172673" locus_tag="UO65_RS00945" class="clusterblast-orf" id="dummy-1_h1_9_43"  />
</g>
<g id="a1_0044"  >
<polygon points="473,85 478,80 478,80 478,90 478,90 473,85 " style="fill:white; stroke-width:1; stroke:black; " description="&lt;b&gt;UO65_RS00940&lt;/b&gt;&lt;br&gt;DinB family protein&lt;br&gt;Location: 172668 - 172081" locus_tag="UO65_RS00940" class="clusterblast-orf" id="dummy-1_h1_9_44"  />
</g>
<g id="a1_0045"  >
<polygon points="479,90 483,90 488,85 483,80 479,80 479,90 " style="fill:white; stroke-width:1; stroke:black; " description="&lt;b&gt;UO65_RS00935&lt;/b&gt;&lt;br&gt;WYL domain-containing protein&lt;br&gt;Location: 172019 - 170979" locus_tag="UO65_RS00935" class="clusterblast-orf" id="dummy-1_h1_9_45"  />
</g>
<g id="a1_0046"  >
<polygon points="488,90 492,85 488,80 488,90 " style="fill:white; stroke-width:1; stroke:black; " description="&lt;b&gt;UO65_RS00930&lt;/b&gt;&lt;br&gt;AraC family transcriptional regulator&lt;br&gt;Location: 170998 - 170549" locus_tag="UO65_RS00930" class="clusterblast-orf" id="dummy-1_h1_9_46"  />
</g>
<g id="a1_0047"  >
<polygon points="492,90 496,85 492,80 492,90 " style="fill:white; stroke-width:1; stroke:black; " description="&lt;b&gt;UO65_RS00925&lt;/b&gt;&lt;br&gt;VOC family protein&lt;br&gt;Location: 170543 - 170133" locus_tag="UO65_RS00925" class="clusterblast-orf" id="dummy-1_h1_9_47"  />
</g>
<g id="a1_0048"  >
<polygon points="496,90 513,90 518,85 513,80 496,80 496,90 " style="fill:white; stroke-width:1; stroke:black; " description="&lt;b&gt;UO65_RS00920&lt;/b&gt;&lt;br&gt;excinuclease ABC subunit UvrA&lt;br&gt;Location: 170104 - 167720" locus_tag="UO65_RS00920" class="clusterblast-orf" id="dummy-1_h1_9_48"  />
</g>
<g id="a1_0049"  >
<polygon points="520,90 523,85 520,80 520,90 " style="fill:white; stroke-width:1; stroke:black; " description="&lt;b&gt;UO65_RS00915&lt;/b&gt;&lt;br&gt;hypothetical protein&lt;br&gt;Location: 167443 - 167162" locus_tag="UO65_RS00915" class="clusterblast-orf" id="dummy-1_h1_9_49"  />
</g>
<g id="a1_0050"  >
<polygon points="523,85 528,80 541,80 541,90 528,90 523,85 " style="fill:white; stroke-width:1; stroke:black; " description="&lt;b&gt;UO65_RS00910&lt;/b&gt;&lt;br&gt;1-deoxy-D-xylulose-5-phosphate synthase&lt;br&gt;Location: 167074 - 165164" locus_tag="UO65_RS00910" class="clusterblast-orf" id="dummy-1_h1_9_50"  />
</g>
<g id="a1_0051"  >
<polygon points="545,90 550,90 555,85 550,80 545,80 545,90 " style="fill:white; stroke-width:1; stroke:black; " description="&lt;b&gt;UO65_RS00905&lt;/b&gt;&lt;br&gt;hypothetical protein&lt;br&gt;Location: 164671 - 163586" locus_tag="UO65_RS00905" class="clusterblast-orf" id="dummy-1_h1_9_51"  />
</g>
<g id="a1_0052"  >
<polygon points="556,90 558,85 556,80 556,90 " style="fill:white; stroke-width:1; stroke:black; " description="&lt;b&gt;UO65_RS00900&lt;/b&gt;&lt;br&gt;hypothetical protein&lt;br&gt;Location: 163518 - 163231" locus_tag="UO65_RS00900" class="clusterblast-orf" id="dummy-1_h1_9_52"  />
</g>
<g id="a1_0053"  >
<polygon points="559,90 563,90 568,85 563,80 559,80 559,90 " style="fill:#37d815; stroke-width:1; stroke:black; " description="&lt;b&gt;UO65_RS00895&lt;/b&gt;&lt;br&gt;hypothetical protein&lt;br&gt;Location: 163139 - 162183&lt;br&gt;&lt;br&gt;&lt;b&gt;BlastP hit with ctg2_112&lt;/b&gt;&lt;br&gt;Percentage identity: 52&lt;br&gt;Percentage coverage: 102&lt;br&gt;BLAST bit score: 312&lt;br&gt;E-value: 5.2e-83" locus_tag="UO65_RS00895" class="clusterblast-orf" id="dummy-1_h1_9_53"  />
</g>
<g id="a1_0054"  >
<polygon points="568,90 585,90 590,85 585,80 568,80 568,90 " style="fill:#158cd8; stroke-width:1; stroke:black; " description="&lt;b&gt;UO65_RS00890&lt;/b&gt;&lt;br&gt;hypothetical protein&lt;br&gt;Location: 162193 - 159722&lt;br&gt;&lt;br&gt;&lt;b&gt;BlastP hit with ctg2_113&lt;/b&gt;&lt;br&gt;Percentage identity: 53&lt;br&gt;Percentage coverage: 102&lt;br&gt;BLAST bit score: 741&lt;br&gt;E-value: 8.8e-212" locus_tag="UO65_RS00890" class="clusterblast-orf" id="dummy-1_h1_9_54"  />
</g>
<g id="a1_0055"  >
<polygon points="593,90 598,90 603,85 598,80 593,80 593,90 " style="fill:#d015d8; stroke-width:1; stroke:black; " description="&lt;b&gt;UO65_RS00885&lt;/b&gt;&lt;br&gt;hypothetical protein&lt;br&gt;Location: 159472 - 158276&lt;br&gt;&lt;br&gt;&lt;b&gt;BlastP hit with ctg2_115&lt;/b&gt;&lt;br&gt;Percentage identity: 50&lt;br&gt;Percentage coverage: 111&lt;br&gt;BLAST bit score: 295&lt;br&gt;E-value: 7.3e-78" locus_tag="UO65_RS00885" class="clusterblast-orf" id="dummy-1_h1_9_55"  />
</g>
<g id="a1_0056"  >
<polygon points="604,90 606,90 611,85 606,80 604,80 604,90 " style="fill:white; stroke-width:1; stroke:black; " description="&lt;b&gt;UO65_RS00880&lt;/b&gt;&lt;br&gt;ABC transporter ATP-binding protein&lt;br&gt;Location: 158224 - 157394" locus_tag="UO65_RS00880" class="clusterblast-orf" id="dummy-1_h1_9_56"  />
</g>
<g id="a1_0057"  >
<polygon points="611,90 615,90 620,85 615,80 611,80 611,90 " style="fill:white; stroke-width:1; stroke:black; " description="&lt;b&gt;UO65_RS00875&lt;/b&gt;&lt;br&gt;hypothetical protein&lt;br&gt;Location: 157397 - 156477" locus_tag="UO65_RS00875" class="clusterblast-orf" id="dummy-1_h1_9_57"  />
</g>
<g id="a1_0058"  >
<polygon points="622,90 628,90 633,85 628,80 622,80 622,90 " style="fill:white; stroke-width:1; stroke:black; " description="&lt;b&gt;UO65_RS00870&lt;/b&gt;&lt;br&gt;hypothetical protein&lt;br&gt;Location: 156194 - 154989" locus_tag="UO65_RS00870" class="clusterblast-orf" id="dummy-1_h1_9_58"  />
</g>
<g id="a1_0059"  >
<polygon points="639,90 640,85 639,80 639,90 " style="fill:white; stroke-width:1; stroke:black; " description="&lt;b&gt;UO65_RS34135&lt;/b&gt;&lt;br&gt;transposase&lt;br&gt;Location: 154348 - 154211" locus_tag="UO65_RS34135" class="clusterblast-orf" id="dummy-1_h1_9_59"  />
</g>
<g id="a1_0060"  >
<polygon points="645,90 662,90 667,85 662,80 645,80 645,90 " style="fill:white; stroke-width:1; stroke:black; " description="&lt;b&gt;UO65_RS00860&lt;/b&gt;&lt;br&gt;type I restriction-modification system subunit M&lt;br&gt;Location: 153745 - 151295" locus_tag="UO65_RS00860" class="clusterblast-orf" id="dummy-1_h1_9_60"  />
</g>
<g id="a1_0061"  >
<polygon points="667,90 673,90 678,85 673,80 667,80 667,90 " style="fill:white; stroke-width:1; stroke:black; " description="&lt;b&gt;UO65_RS32905&lt;/b&gt;&lt;br&gt;restriction endonuclease subunit S&lt;br&gt;Location: 151298 - 150069" locus_tag="UO65_RS32905" class="clusterblast-orf" id="dummy-1_h1_9_61"  />
</g>
<g id="a1_0062"  >
<polygon points="678,90 701,90 706,85 701,80 678,80 678,90 " style="fill:white; stroke-width:1; stroke:black; " description="&lt;b&gt;UO65_RS00850&lt;/b&gt;&lt;br&gt;type I restriction endonuclease subunit R&lt;br&gt;Location: 150072 - 146962" locus_tag="UO65_RS00850" class="clusterblast-orf" id="dummy-1_h1_9_62"  />
</g>
<g id="a1_0063"  >
<polygon points="706,90 708,90 713,85 708,80 706,80 706,90 " style="fill:white; stroke-width:1; stroke:black; " description="&lt;b&gt;UO65_RS00845&lt;/b&gt;&lt;br&gt;M48 family peptidase&lt;br&gt;Location: 146975 - 146250" locus_tag="UO65_RS00845" class="clusterblast-orf" id="dummy-1_h1_9_63"  />
</g>
<g id="a1_0064"  >
<polygon points="715,90 715,90 720,85 715,80 715,80 715,90 " style="fill:white; stroke-width:1; stroke:black; " description="&lt;b&gt;UO65_RS00840&lt;/b&gt;&lt;br&gt;hypothetical protein&lt;br&gt;Location: 146019 - 145393" locus_tag="UO65_RS00840" class="clusterblast-orf" id="dummy-1_h1_9_64"  />
</g>
<g id="a1_0065"  >
<polygon points="721,90 721,90 726,85 721,80 721,80 721,90 " style="fill:white; stroke-width:1; stroke:black; " description="&lt;b&gt;UO65_RS00835&lt;/b&gt;&lt;br&gt;NUDIX hydrolase&lt;br&gt;Location: 145293 - 144788" locus_tag="UO65_RS00835" class="clusterblast-orf" id="dummy-1_h1_9_65"  />
</g>
<g id="a1_0066"  >
<polygon points="727,90 729,85 727,80 727,90 " style="fill:white; stroke-width:1; stroke:black; " description="&lt;b&gt;UO65_RS00830&lt;/b&gt;&lt;br&gt;hypothetical protein&lt;br&gt;Location: 144717 - 144412" locus_tag="UO65_RS00830" class="clusterblast-orf" id="dummy-1_h1_9_66"  />
</g>
<g id="a1_0067"  >
<polygon points="729,90 735,90 740,85 735,80 729,80 729,90 " style="fill:white; stroke-width:1; stroke:black; " description="&lt;b&gt;UO65_RS00825&lt;/b&gt;&lt;br&gt;hypothetical protein&lt;br&gt;Location: 144398 - 143196" locus_tag="UO65_RS00825" class="clusterblast-orf" id="dummy-1_h1_9_67"  />
</g>
<g id="a1_0068"  >
<polygon points="743,85 748,80 752,80 752,90 748,90 743,85 " style="fill:white; stroke-width:1; stroke:black; " description="&lt;b&gt;UO65_RS00820&lt;/b&gt;&lt;br&gt;restriction endonuclease&lt;br&gt;Location: 142899 - 141865" locus_tag="UO65_RS00820" class="clusterblast-orf" id="dummy-1_h1_9_68"  />
</g>
<g id="a1_0069"  >
<polygon points="759,85 761,80 761,90 759,85 " style="fill:white; stroke-width:1; stroke:black; " description="&lt;b&gt;UO65_RS00815&lt;/b&gt;&lt;br&gt;hypothetical protein&lt;br&gt;Location: 141143 - 140901" locus_tag="UO65_RS00815" class="clusterblast-orf" id="dummy-1_h1_9_69"  />
</g>
<g id="a1_0070"  >
<polygon points="765,85 768,80 768,90 765,85 " style="fill:white; stroke-width:1; stroke:black; " description="&lt;b&gt;UO65_RS00810&lt;/b&gt;&lt;br&gt;hypothetical protein&lt;br&gt;Location: 140463 - 140173" locus_tag="UO65_RS00810" class="clusterblast-orf" id="dummy-1_h1_9_70"  />
</g>
<g id="a1_0071"  >
<polygon points="774,85 779,80 780,80 780,90 779,90 774,85 " style="fill:white; stroke-width:1; stroke:black; " description="&lt;b&gt;UO65_RS00805&lt;/b&gt;&lt;br&gt;hypothetical protein&lt;br&gt;Location: 139495 - 138890" locus_tag="UO65_RS00805" class="clusterblast-orf" id="dummy-1_h1_9_71"  />
</g>
</svg>
