<svg xmlns="http://www.w3.org/2000/svg" xmlns:xlink="http://www.w3.org/1999/xlink" version="1.1" x="0" y="0" height="230" width="800" viewBox="0 0 800 230" preserveAspectRatio="none"  >
<g label="Query sequence" class="clusterblast-cluster"  >
<text x="5" y="20" class="clusterblast-acc"  >
Query sequence</text>
<line x1="10" y1="35" x2="778.0" y2="35" style="stroke-width:1; stroke:grey; "  />
<polygon points="286,35 289,30 289,40 286,35 " style="fill:white; stroke-width:1; stroke:black; " description="&lt;b&gt;ctg28_1&lt;/b&gt;&lt;br&gt;ctg28 1&lt;br&gt;Location: 0 - 228" locus_tag="ctg28_1" class="clusterblast-orf" id="dummy-1_q0_0_all"  />
<polygon points="290,40 292,40 297,35 292,30 290,30 290,40 " style="fill:white; stroke-width:1; stroke:black; " description="&lt;b&gt;ctg28_2&lt;/b&gt;&lt;br&gt;ctg28 2&lt;br&gt;Location: 273 - 906" locus_tag="ctg28_2" class="clusterblast-orf" id="dummy-1_q1_0_all"  />
<polygon points="297,40 297,40 302,35 297,30 297,30 297,40 " style="fill:white; stroke-width:1; stroke:black; " description="&lt;b&gt;ctg28_3&lt;/b&gt;&lt;br&gt;ctg28 3&lt;br&gt;Location: 902 - 1358" locus_tag="ctg28_3" class="clusterblast-orf" id="dummy-1_q2_0_all"  />
<polygon points="303,35 308,30 314,30 314,40 308,40 303,35 " style="fill:#d81515; stroke-width:1; stroke:black; " description="&lt;b&gt;ctg28_4&lt;/b&gt;&lt;br&gt;ctg28 4&lt;br&gt;Location: 1362 - 2313" locus_tag="ctg28_4" class="clusterblast-orf" id="dummy-1_q3_0_all"  />
<polygon points="314,35 319,30 333,30 333,40 319,40 314,35 " style="fill:#77d815; stroke-width:1; stroke:black; " description="&lt;b&gt;ctg28_5&lt;/b&gt;&lt;br&gt;ctg28 5&lt;br&gt;Location: 2309 - 3920" locus_tag="ctg28_5" class="clusterblast-orf" id="dummy-1_q4_0_all"  />
<polygon points="333,35 338,30 342,30 342,40 338,40 333,35 " style="fill:#15d8d8; stroke-width:1; stroke:black; " description="&lt;b&gt;ctg28_6&lt;/b&gt;&lt;br&gt;ctg28 6&lt;br&gt;Location: 3925 - 4675" locus_tag="ctg28_6" class="clusterblast-orf" id="dummy-1_q5_0_all"  />
<polygon points="342,35 347,30 356,30 356,40 347,40 342,35 " style="fill:#7715d8; stroke-width:1; stroke:black; " description="&lt;b&gt;ctg28_7&lt;/b&gt;&lt;br&gt;ctg28 7&lt;br&gt;Location: 4676 - 5867" locus_tag="ctg28_7" class="clusterblast-orf" id="dummy-1_q6_0_all"  />
<polygon points="356,35 361,30 365,30 365,40 361,40 356,35 " style="fill:#15d8d8; stroke-width:1; stroke:black; " description="&lt;b&gt;ctg28_8&lt;/b&gt;&lt;br&gt;ctg28 8&lt;br&gt;Location: 5863 - 6598" locus_tag="ctg28_8" class="clusterblast-orf" id="dummy-1_q7_0_all"  />
<polygon points="365,35 370,30 376,30 376,40 370,40 365,35 " style="fill:#d8a715; stroke-width:1; stroke:black; " description="&lt;b&gt;ctg28_9&lt;/b&gt;&lt;br&gt;ctg28 9&lt;br&gt;Location: 6590 - 7517" locus_tag="ctg28_9" class="clusterblast-orf" id="dummy-1_q8_0_all"  />
<polygon points="376,35 381,30 382,30 382,40 381,40 376,35 " style="fill:#15d846; stroke-width:1; stroke:black; " description="&lt;b&gt;ctg28_10&lt;/b&gt;&lt;br&gt;ctg28 10&lt;br&gt;Location: 7581 - 8097" locus_tag="ctg28_10" class="clusterblast-orf" id="dummy-1_q9_0_all"  />
<polygon points="383,40 394,40 399,35 394,30 383,30 383,40 " style="fill:#1546d8; stroke-width:1; stroke:black; " description="&lt;b&gt;ctg28_11&lt;/b&gt;&lt;br&gt;ctg28 11&lt;br&gt;Location: 8163 - 9498" locus_tag="ctg28_11" class="clusterblast-orf" id="dummy-1_q10_0_all"  />
<polygon points="400,40 402,40 407,35 402,30 400,30 400,40 " style="fill:white; stroke-width:1; stroke:black; " description="&lt;b&gt;ctg28_12&lt;/b&gt;&lt;br&gt;ctg28 12&lt;br&gt;Location: 9580 - 10147" locus_tag="ctg28_12" class="clusterblast-orf" id="dummy-1_q11_0_all"  />
<polygon points="407,40 409,40 414,35 409,30 407,30 407,40 " style="fill:white; stroke-width:1; stroke:black; " description="&lt;b&gt;ctg28_13&lt;/b&gt;&lt;br&gt;ctg28 13&lt;br&gt;Location: 10182 - 10761" locus_tag="ctg28_13" class="clusterblast-orf" id="dummy-1_q12_0_all"  />
<polygon points="414,35 419,30 419,30 419,40 419,40 414,35 " style="fill:white; stroke-width:1; stroke:black; " description="&lt;b&gt;ctg28_14&lt;/b&gt;&lt;br&gt;ctg28 14&lt;br&gt;Location: 10764 - 11163" locus_tag="ctg28_14" class="clusterblast-orf" id="dummy-1_q13_0_all"  />
<polygon points="428,35 433,30 434,30 434,40 433,40 428,35 " style="fill:white; stroke-width:1; stroke:black; " description="&lt;b&gt;ctg28_15&lt;/b&gt;&lt;br&gt;ctg28 15&lt;br&gt;Location: 11945 - 12437" locus_tag="ctg28_15" class="clusterblast-orf" id="dummy-1_q14_0_all"  />
<polygon points="435,40 438,40 443,35 438,30 435,30 435,40 " style="fill:white; stroke-width:1; stroke:black; " description="&lt;b&gt;ctg28_16&lt;/b&gt;&lt;br&gt;ctg28 16&lt;br&gt;Location: 12553 - 13216" locus_tag="ctg28_16" class="clusterblast-orf" id="dummy-1_q15_0_all"  />
<polygon points="443,35 448,30 451,30 451,40 448,40 443,35 " style="fill:white; stroke-width:1; stroke:black; " description="&lt;b&gt;ctg28_17&lt;/b&gt;&lt;br&gt;ctg28 17&lt;br&gt;Location: 13216 - 13882" locus_tag="ctg28_17" class="clusterblast-orf" id="dummy-1_q16_0_all"  />
<polygon points="452,40 461,40 466,35 461,30 452,30 452,40 " style="fill:white; stroke-width:1; stroke:black; " description="&lt;b&gt;ctg28_18&lt;/b&gt;&lt;br&gt;ctg28 18&lt;br&gt;Location: 13938 - 15120" locus_tag="ctg28_18" class="clusterblast-orf" id="dummy-1_q17_0_all"  />
<polygon points="466,40 469,40 474,35 469,30 466,30 466,40 " style="fill:#d815a7; stroke-width:1; stroke:black; " description="&lt;b&gt;ctg28_19&lt;/b&gt;&lt;br&gt;ctg28 19&lt;br&gt;Location: 15107 - 15788" locus_tag="ctg28_19" class="clusterblast-orf" id="dummy-1_q18_0_all"  />
<polygon points="475,40 488,40 493,35 488,30 475,30 475,40 " style="fill:white; stroke-width:1; stroke:black; " description="&lt;b&gt;ctg28_20&lt;/b&gt;&lt;br&gt;ctg28 20&lt;br&gt;Location: 15866 - 17411" locus_tag="ctg28_20" class="clusterblast-orf" id="dummy-1_q19_0_all"  />
</g>
<g label="NZ_AWOO02000001" description="NZ_AWOO02000001_c2: Actinomadura madurae LIID-AJ290 contig00001, whole genome... (15% of genes show similarity), nrps" class="clusterblast-cluster"  >
<text x="5" y="70" class="clusterblast-acc"  >
<a xlink:href="https://antismash-db.secondarymetabolites.org/go/NZ_AWOO02000001/2" target="_blank">NZ_AWOO02000001_c2</a>: Actinomadura madurae LIID-AJ290 contig00001, whole genome... (15% of genes show similarity), nrps</text>
<line x1="10" y1="85" x2="778.0" y2="85" style="stroke-width:1; stroke:grey; "  />
</g>
<g id="a1_000"  >
<polygon points="0,85 5,80 16,80 16,90 5,90 0,85 " style="fill:white; stroke-width:1; stroke:black; " description="&lt;b&gt;DZ96_RS0200255&lt;/b&gt;&lt;br&gt;tannase/feruloyl esterase family alpha/beta hydrolase&lt;br&gt;Location: 101084 - 102460" locus_tag="DZ96_RS0200255" class="clusterblast-orf" id="dummy-1_h1_9_0"  />
</g>
<g id="a1_001"  >
<polygon points="19,85 24,80 28,80 28,90 24,90 19,85 " style="fill:white; stroke-width:1; stroke:black; " description="&lt;b&gt;DZ96_RS0200260&lt;/b&gt;&lt;br&gt;ABC transporter permease&lt;br&gt;Location: 102704 - 103486" locus_tag="DZ96_RS0200260" class="clusterblast-orf" id="dummy-1_h1_9_1"  />
</g>
<g id="a1_002"  >
<polygon points="28,85 33,80 40,80 40,90 33,90 28,85 " style="fill:white; stroke-width:1; stroke:black; " description="&lt;b&gt;DZ96_RS0200265&lt;/b&gt;&lt;br&gt;ABC transporter ATP-binding protein&lt;br&gt;Location: 103486 - 104469" locus_tag="DZ96_RS0200265" class="clusterblast-orf" id="dummy-1_h1_9_2"  />
</g>
<g id="a1_003"  >
<polygon points="41,90 43,90 48,85 43,80 41,80 41,90 " style="fill:white; stroke-width:1; stroke:black; " description="&lt;b&gt;DZ96_RS0200270&lt;/b&gt;&lt;br&gt;TetR/AcrR family transcriptional regulator&lt;br&gt;Location: 104569 - 105180" locus_tag="DZ96_RS0200270" class="clusterblast-orf" id="dummy-1_h1_9_3"  />
</g>
<g id="a1_004"  >
<polygon points="55,90 63,90 68,85 63,80 55,80 55,90 " style="fill:white; stroke-width:1; stroke:black; " description="&lt;b&gt;DZ96_RS0200275&lt;/b&gt;&lt;br&gt;iron ABC transporter permease&lt;br&gt;Location: 105751 - 106857" locus_tag="DZ96_RS0200275" class="clusterblast-orf" id="dummy-1_h1_9_4"  />
</g>
<g id="a1_005"  >
<polygon points="68,90 73,90 78,85 73,80 68,80 68,90 " style="fill:white; stroke-width:1; stroke:black; " description="&lt;b&gt;DZ96_RS0200280&lt;/b&gt;&lt;br&gt;ABC transporter ATP-binding protein&lt;br&gt;Location: 106865 - 107674" locus_tag="DZ96_RS0200280" class="clusterblast-orf" id="dummy-1_h1_9_5"  />
</g>
<g id="a1_006"  >
<polygon points="78,90 85,90 90,85 85,80 78,80 78,90 " style="fill:white; stroke-width:1; stroke:black; " description="&lt;b&gt;DZ96_RS0200285&lt;/b&gt;&lt;br&gt;hypothetical protein&lt;br&gt;Location: 107706 - 108689" locus_tag="DZ96_RS0200285" class="clusterblast-orf" id="dummy-1_h1_9_6"  />
</g>
<g id="a1_007"  >
<polygon points="90,90 93,90 98,85 93,80 90,80 90,90 " style="fill:white; stroke-width:1; stroke:black; " description="&lt;b&gt;DZ96_RS0200290&lt;/b&gt;&lt;br&gt;class I SAM-dependent methyltransferase&lt;br&gt;Location: 108694 - 109416" locus_tag="DZ96_RS0200290" class="clusterblast-orf" id="dummy-1_h1_9_7"  />
</g>
<g id="a1_008"  >
<polygon points="99,85 104,80 119,80 119,90 104,90 99,85 " style="fill:white; stroke-width:1; stroke:black; " description="&lt;b&gt;DZ96_RS0200295&lt;/b&gt;&lt;br&gt;ABC transporter ATP-binding protein&lt;br&gt;Location: 109431 - 111173" locus_tag="DZ96_RS0200295" class="clusterblast-orf" id="dummy-1_h1_9_8"  />
</g>
<g id="a1_009"  >
<polygon points="119,85 124,80 143,80 143,90 124,90 119,85 " style="fill:white; stroke-width:1; stroke:black; " description="&lt;b&gt;DZ96_RS0200300&lt;/b&gt;&lt;br&gt;ABC transporter ATP-binding protein&lt;br&gt;Location: 111170 - 113182" locus_tag="DZ96_RS0200300" class="clusterblast-orf" id="dummy-1_h1_9_9"  />
</g>
<g id="a1_0010"  >
<polygon points="143,90 148,90 153,85 148,80 143,80 143,90 " style="fill:white; stroke-width:1; stroke:black; " description="&lt;b&gt;DZ96_RS0200305&lt;/b&gt;&lt;br&gt;hypothetical protein&lt;br&gt;Location: 113182 - 114015" locus_tag="DZ96_RS0200305" class="clusterblast-orf" id="dummy-1_h1_9_10"  />
</g>
<g id="a1_0011"  >
<polygon points="153,90 163,90 168,85 163,80 153,80 153,90 " style="fill:white; stroke-width:1; stroke:black; " description="&lt;b&gt;DZ96_RS0200310&lt;/b&gt;&lt;br&gt;serine hydroxymethyltransferase&lt;br&gt;Location: 114012 - 115292" locus_tag="DZ96_RS0200310" class="clusterblast-orf" id="dummy-1_h1_9_11"  />
</g>
<g id="a1_0012"  >
<polygon points="169,90 183,90 188,85 183,80 169,80 169,90 " style="fill:white; stroke-width:1; stroke:black; " description="&lt;b&gt;DZ96_RS0200315&lt;/b&gt;&lt;br&gt;hypothetical protein&lt;br&gt;Location: 115411 - 117003" locus_tag="DZ96_RS0200315" class="clusterblast-orf" id="dummy-1_h1_9_12"  />
</g>
<g id="a1_0013"  >
<polygon points="189,90 195,90 200,85 195,80 189,80 189,90 " style="fill:white; stroke-width:1; stroke:black; " description="&lt;b&gt;DZ96_RS0200320&lt;/b&gt;&lt;br&gt;ABC transporter permease&lt;br&gt;Location: 117047 - 118003" locus_tag="DZ96_RS0200320" class="clusterblast-orf" id="dummy-1_h1_9_13"  />
</g>
<g id="a1_0014"  >
<polygon points="200,90 223,90 228,85 223,80 200,80 200,90 " style="fill:white; stroke-width:1; stroke:black; " description="&lt;b&gt;DZ96_RS53765&lt;/b&gt;&lt;br&gt;hypothetical protein&lt;br&gt;Location: 117955 - 120339" locus_tag="DZ96_RS53765" class="clusterblast-orf" id="dummy-1_h1_9_14"  />
</g>
<g id="a1_0015"  >
<polygon points="228,90 360,90 365,85 360,80 228,80 228,90 " style="fill:white; stroke-width:1; stroke:black; " description="&lt;b&gt;DZ96_RS55310&lt;/b&gt;&lt;br&gt;non-ribosomal peptide synthase&lt;br&gt;Location: 120332 - 131860" locus_tag="DZ96_RS55310" class="clusterblast-orf" id="dummy-1_h1_9_15"  />
</g>
<g id="a1_0016"  >
<polygon points="366,90 425,90 430,85 425,80 366,80 366,90 " style="fill:white; stroke-width:1; stroke:black; " description="&lt;b&gt;DZ96_RS0200335&lt;/b&gt;&lt;br&gt;methyltransferase domain-containing protein&lt;br&gt;Location: 132016 - 137379" locus_tag="DZ96_RS0200335" class="clusterblast-orf" id="dummy-1_h1_9_16"  />
</g>
<g id="a1_0017"  >
<polygon points="430,90 438,90 443,85 438,80 430,80 430,90 " style="fill:white; stroke-width:1; stroke:black; " description="&lt;b&gt;DZ96_RS0200340&lt;/b&gt;&lt;br&gt;hypothetical protein&lt;br&gt;Location: 137376 - 138464" locus_tag="DZ96_RS0200340" class="clusterblast-orf" id="dummy-1_h1_9_17"  />
</g>
<g id="a1_0018"  >
<polygon points="443,90 447,90 452,85 447,80 443,80 443,90 " style="fill:white; stroke-width:1; stroke:black; " description="&lt;b&gt;DZ96_RS0200345&lt;/b&gt;&lt;br&gt;thioesterase&lt;br&gt;Location: 138461 - 139246" locus_tag="DZ96_RS0200345" class="clusterblast-orf" id="dummy-1_h1_9_18"  />
</g>
<g id="a1_0019"  >
<polygon points="452,85 457,80 461,80 461,90 457,90 452,85 " style="fill:white; stroke-width:1; stroke:black; " description="&lt;b&gt;DZ96_RS48410&lt;/b&gt;&lt;br&gt;ABC transporter permease&lt;br&gt;Location: 139272 - 140006" locus_tag="DZ96_RS48410" class="clusterblast-orf" id="dummy-1_h1_9_19"  />
</g>
<g id="a1_0020"  >
<polygon points="461,85 466,80 470,80 470,90 466,90 461,85 " style="fill:white; stroke-width:1; stroke:black; " description="&lt;b&gt;DZ96_RS0200355&lt;/b&gt;&lt;br&gt;ABC transporter ATP-binding protein&lt;br&gt;Location: 140003 - 140722" locus_tag="DZ96_RS0200355" class="clusterblast-orf" id="dummy-1_h1_9_20"  />
</g>
<g id="a1_0021"  >
<polygon points="470,85 475,80 475,80 475,90 475,90 470,85 " style="fill:white; stroke-width:1; stroke:black; " description="&lt;b&gt;DZ96_RS0200360&lt;/b&gt;&lt;br&gt;TetR/AcrR family transcriptional regulator&lt;br&gt;Location: 140719 - 141210" locus_tag="DZ96_RS0200360" class="clusterblast-orf" id="dummy-1_h1_9_21"  />
</g>
<g id="a1_0022"  >
<polygon points="477,90 480,90 485,85 480,80 477,80 477,90 " style="fill:white; stroke-width:1; stroke:black; " description="&lt;b&gt;DZ96_RS0200365&lt;/b&gt;&lt;br&gt;TetR/AcrR family transcriptional regulator&lt;br&gt;Location: 141357 - 142034" locus_tag="DZ96_RS0200365" class="clusterblast-orf" id="dummy-1_h1_9_22"  />
</g>
<g id="a1_0023"  >
<polygon points="486,90 492,90 497,85 492,80 486,80 486,90 " style="fill:white; stroke-width:1; stroke:black; " description="&lt;b&gt;DZ96_RS0200370&lt;/b&gt;&lt;br&gt;ABC transporter ATP-binding protein&lt;br&gt;Location: 142123 - 143049" locus_tag="DZ96_RS0200370" class="clusterblast-orf" id="dummy-1_h1_9_23"  />
</g>
<g id="a1_0024"  >
<polygon points="497,90 512,90 517,85 512,80 497,80 497,90 " style="fill:white; stroke-width:1; stroke:black; " description="&lt;b&gt;DZ96_RS0200375&lt;/b&gt;&lt;br&gt;hypothetical protein&lt;br&gt;Location: 143046 - 144698" locus_tag="DZ96_RS0200375" class="clusterblast-orf" id="dummy-1_h1_9_24"  />
</g>
<g id="a1_0025"  >
<polygon points="517,85 522,80 529,80 529,90 522,90 517,85 " style="fill:#d81515; stroke-width:1; stroke:black; " description="&lt;b&gt;DZ96_RS0200380&lt;/b&gt;&lt;br&gt;hypothetical protein&lt;br&gt;Location: 144747 - 145706&lt;br&gt;&lt;br&gt;&lt;b&gt;BlastP hit with ctg28_4&lt;/b&gt;&lt;br&gt;Percentage identity: 70&lt;br&gt;Percentage coverage: 100&lt;br&gt;BLAST bit score: 402&lt;br&gt;E-value: 3.9e-110" locus_tag="DZ96_RS0200380" class="clusterblast-orf" id="dummy-1_h1_9_25"  />
</g>
<g id="a1_0026"  >
<polygon points="529,85 534,80 548,80 548,90 534,90 529,85 " style="fill:#77d815; stroke-width:1; stroke:black; " description="&lt;b&gt;DZ96_RS0200385&lt;/b&gt;&lt;br&gt;hypothetical protein&lt;br&gt;Location: 145703 - 147328&lt;br&gt;&lt;br&gt;&lt;b&gt;BlastP hit with ctg28_5&lt;/b&gt;&lt;br&gt;Percentage identity: 68&lt;br&gt;Percentage coverage: 99&lt;br&gt;BLAST bit score: 734&lt;br&gt;E-value: 9.6e-210" locus_tag="DZ96_RS0200385" class="clusterblast-orf" id="dummy-1_h1_9_26"  />
</g>
<g id="a1_0027"  >
<polygon points="548,85 553,80 557,80 557,90 553,90 548,85 " style="fill:#15d8d8; stroke-width:1; stroke:black; " description="&lt;b&gt;DZ96_RS0200390&lt;/b&gt;&lt;br&gt;enoyl-CoA hydratase/isomerase family protein&lt;br&gt;Location: 147334 - 148122&lt;br&gt;&lt;br&gt;&lt;b&gt;BlastP hit with ctg28_6&lt;/b&gt;&lt;br&gt;Percentage identity: 66&lt;br&gt;Percentage coverage: 98&lt;br&gt;BLAST bit score: 314&lt;br&gt;E-value: 1.4e-83&lt;br&gt;&lt;br&gt;&lt;b&gt;BlastP hit with ctg28_8&lt;/b&gt;&lt;br&gt;Percentage identity: 32&lt;br&gt;Percentage coverage: 85&lt;br&gt;BLAST bit score: 87&lt;br&gt;E-value: 1.6e-15" locus_tag="DZ96_RS0200390" class="clusterblast-orf" id="dummy-1_h1_9_27"  />
</g>
<g id="a1_0028"  >
<polygon points="557,85 562,80 572,80 572,90 562,90 557,85 " style="fill:#7715d8; stroke-width:1; stroke:black; " description="&lt;b&gt;DZ96_RS0200395&lt;/b&gt;&lt;br&gt;CoA transferase&lt;br&gt;Location: 148119 - 149324&lt;br&gt;&lt;br&gt;&lt;b&gt;BlastP hit with ctg28_7&lt;/b&gt;&lt;br&gt;Percentage identity: 66&lt;br&gt;Percentage coverage: 100&lt;br&gt;BLAST bit score: 511&lt;br&gt;E-value: 9.8e-143" locus_tag="DZ96_RS0200395" class="clusterblast-orf" id="dummy-1_h1_9_28"  />
</g>
<g id="a1_0029"  >
<polygon points="572,85 577,80 580,80 580,90 577,90 572,85 " style="fill:#15d8d8; stroke-width:1; stroke:black; " description="&lt;b&gt;DZ96_RS0200400&lt;/b&gt;&lt;br&gt;enoyl-CoA hydratase/isomerase family protein&lt;br&gt;Location: 149321 - 150040&lt;br&gt;&lt;br&gt;&lt;b&gt;BlastP hit with ctg28_6&lt;/b&gt;&lt;br&gt;Percentage identity: 34&lt;br&gt;Percentage coverage: 81&lt;br&gt;BLAST bit score: 106&lt;br&gt;E-value: 3.5e-21&lt;br&gt;&lt;br&gt;&lt;b&gt;BlastP hit with ctg28_8&lt;/b&gt;&lt;br&gt;Percentage identity: 63&lt;br&gt;Percentage coverage: 97&lt;br&gt;BLAST bit score: 288&lt;br&gt;E-value: 6.3e-76" locus_tag="DZ96_RS0200400" class="clusterblast-orf" id="dummy-1_h1_9_29"  />
</g>
<g id="a1_0030"  >
<polygon points="580,85 585,80 592,80 592,90 585,90 580,85 " style="fill:#d8a715; stroke-width:1; stroke:black; " description="&lt;b&gt;DZ96_RS0200405&lt;/b&gt;&lt;br&gt;hydroxymethylglutaryl-CoA lyase&lt;br&gt;Location: 150042 - 150995&lt;br&gt;&lt;br&gt;&lt;b&gt;BlastP hit with ctg28_9&lt;/b&gt;&lt;br&gt;Percentage identity: 73&lt;br&gt;Percentage coverage: 99&lt;br&gt;BLAST bit score: 449&lt;br&gt;E-value: 2.7e-124" locus_tag="DZ96_RS0200405" class="clusterblast-orf" id="dummy-1_h1_9_30"  />
</g>
<g id="a1_0031"  >
<polygon points="593,85 598,80 599,80 599,90 598,90 593,85 " style="fill:#15d846; stroke-width:1; stroke:black; " description="&lt;b&gt;DZ96_RS0200410&lt;/b&gt;&lt;br&gt;transcriptional regulator&lt;br&gt;Location: 151137 - 151637&lt;br&gt;&lt;br&gt;&lt;b&gt;BlastP hit with ctg28_10&lt;/b&gt;&lt;br&gt;Percentage identity: 71&lt;br&gt;Percentage coverage: 85&lt;br&gt;BLAST bit score: 197&lt;br&gt;E-value: 1.3e-48" locus_tag="DZ96_RS0200410" class="clusterblast-orf" id="dummy-1_h1_9_31"  />
</g>
<g id="a1_0032"  >
<polygon points="602,90 614,90 619,85 614,80 602,80 602,90 " style="fill:white; stroke-width:1; stroke:black; " description="&lt;b&gt;DZ96_RS0200415&lt;/b&gt;&lt;br&gt;NAD-dependent succinate-semialdehyde dehydrogenase&lt;br&gt;Location: 151877 - 153337" locus_tag="DZ96_RS0200415" class="clusterblast-orf" id="dummy-1_h1_9_32"  />
</g>
<g id="a1_0033"  >
<polygon points="619,90 630,90 635,85 630,80 619,80 619,90 " style="fill:white; stroke-width:1; stroke:black; " description="&lt;b&gt;DZ96_RS0200420&lt;/b&gt;&lt;br&gt;aspartate aminotransferase family protein&lt;br&gt;Location: 153352 - 154668" locus_tag="DZ96_RS0200420" class="clusterblast-orf" id="dummy-1_h1_9_33"  />
</g>
<g id="a1_0034"  >
<polygon points="635,90 641,90 646,85 641,80 635,80 635,90 " style="fill:white; stroke-width:1; stroke:black; " description="&lt;b&gt;DZ96_RS0200425&lt;/b&gt;&lt;br&gt;ABC transporter permease&lt;br&gt;Location: 154665 - 155561" locus_tag="DZ96_RS0200425" class="clusterblast-orf" id="dummy-1_h1_9_34"  />
</g>
<g id="a1_0035"  >
<polygon points="647,90 650,90 655,85 650,80 647,80 647,90 " style="fill:white; stroke-width:1; stroke:black; " description="&lt;b&gt;DZ96_RS0200430&lt;/b&gt;&lt;br&gt;ABC transporter permease&lt;br&gt;Location: 155656 - 156366" locus_tag="DZ96_RS0200430" class="clusterblast-orf" id="dummy-1_h1_9_35"  />
</g>
<g id="a1_0036"  >
<polygon points="655,90 663,90 668,85 663,80 655,80 655,90 " style="fill:white; stroke-width:1; stroke:black; " description="&lt;b&gt;DZ96_RS0200435&lt;/b&gt;&lt;br&gt;ABC transporter ATP-binding protein&lt;br&gt;Location: 156363 - 157445" locus_tag="DZ96_RS0200435" class="clusterblast-orf" id="dummy-1_h1_9_36"  />
</g>
<g id="a1_0037"  >
<polygon points="669,90 676,90 681,85 676,80 669,80 669,90 " style="fill:white; stroke-width:1; stroke:black; " description="&lt;b&gt;DZ96_RS0200440&lt;/b&gt;&lt;br&gt;hypothetical protein&lt;br&gt;Location: 157516 - 158562" locus_tag="DZ96_RS0200440" class="clusterblast-orf" id="dummy-1_h1_9_37"  />
</g>
<g id="a1_0038"  >
<polygon points="682,90 688,90 693,85 688,80 682,80 682,90 " style="fill:white; stroke-width:1; stroke:black; " description="&lt;b&gt;DZ96_RS0200445&lt;/b&gt;&lt;br&gt;alpha/beta hydrolase&lt;br&gt;Location: 158648 - 159520" locus_tag="DZ96_RS0200445" class="clusterblast-orf" id="dummy-1_h1_9_38"  />
</g>
<g id="a1_0039"  >
<polygon points="694,90 711,90 716,85 711,80 694,80 694,90 " style="fill:white; stroke-width:1; stroke:black; " description="&lt;b&gt;DZ96_RS0200450&lt;/b&gt;&lt;br&gt;amidohydrolase&lt;br&gt;Location: 159608 - 161458" locus_tag="DZ96_RS0200450" class="clusterblast-orf" id="dummy-1_h1_9_39"  />
</g>
<g id="a1_0040"  >
<polygon points="717,90 725,90 730,85 725,80 717,80 717,90 " style="fill:white; stroke-width:1; stroke:black; " description="&lt;b&gt;DZ96_RS0200455&lt;/b&gt;&lt;br&gt;alanine dehydrogenase&lt;br&gt;Location: 161575 - 162696" locus_tag="DZ96_RS0200455" class="clusterblast-orf" id="dummy-1_h1_9_40"  />
</g>
<g id="a1_0041"  >
<polygon points="731,85 736,80 748,80 748,90 736,90 731,85 " style="fill:white; stroke-width:1; stroke:black; " description="&lt;b&gt;DZ96_RS0200460&lt;/b&gt;&lt;br&gt;endo-1,4-beta-xylanase&lt;br&gt;Location: 162756 - 164174" locus_tag="DZ96_RS0200460" class="clusterblast-orf" id="dummy-1_h1_9_41"  />
</g>
<g id="a1_0042"  >
<polygon points="753,90 759,90 764,85 759,80 753,80 753,90 " style="fill:white; stroke-width:1; stroke:black; " description="&lt;b&gt;DZ96_RS0200465&lt;/b&gt;&lt;br&gt;alpha-L-arabinofuranosidase&lt;br&gt;Location: 164617 - 165570" locus_tag="DZ96_RS0200465" class="clusterblast-orf" id="dummy-1_h1_9_42"  />
</g>
<g id="a1_0043"  >
<polygon points="767,85 772,80 780,80 780,90 772,90 767,85 " style="fill:white; stroke-width:1; stroke:black; " description="&lt;b&gt;DZ96_RS55510&lt;/b&gt;&lt;br&gt;hypothetical protein&lt;br&gt;Location: 165777 - 166844" locus_tag="DZ96_RS55510" class="clusterblast-orf" id="dummy-1_h1_9_43"  />
</g>
</svg>
