<svg xmlns="http://www.w3.org/2000/svg" xmlns:xlink="http://www.w3.org/1999/xlink" version="1.1" x="0" y="0" height="230" width="800" viewBox="0 0 800 230" preserveAspectRatio="none"  >
<g label="Query sequence" class="clusterblast-cluster"  >
<text x="5" y="20" class="clusterblast-acc"  >
Query sequence</text>
<line x1="10" y1="35" x2="778.0" y2="35" style="stroke-width:1; stroke:grey; "  />
<polygon points="0,35 5,30 6,30 6,40 5,40 0,35 " style="fill:white; stroke-width:1; stroke:black; " description="&lt;b&gt;ctg23_19&lt;/b&gt;&lt;br&gt;ctg23 19&lt;br&gt;Location: 28055 - 28256" locus_tag="ctg23_19" class="clusterblast-orf" id="dummy-1_q0_0_all"  />
<polygon points="42,40 99,40 104,35 99,30 42,30 42,40 " style="fill:white; stroke-width:1; stroke:black; " description="&lt;b&gt;ctg23_20&lt;/b&gt;&lt;br&gt;ctg23 20&lt;br&gt;Location: 29363 - 31307" locus_tag="ctg23_20" class="clusterblast-orf" id="dummy-1_q1_0_all"  />
<polygon points="116,35 121,30 131,30 131,40 121,40 116,35 " style="fill:white; stroke-width:1; stroke:black; " description="&lt;b&gt;ctg23_21&lt;/b&gt;&lt;br&gt;ctg23 21&lt;br&gt;Location: 31683 - 32151" locus_tag="ctg23_21" class="clusterblast-orf" id="dummy-1_q2_0_all"  />
<polygon points="132,40 141,40 146,35 141,30 132,30 132,40 " style="fill:white; stroke-width:1; stroke:black; " description="&lt;b&gt;ctg23_22&lt;/b&gt;&lt;br&gt;ctg23 22&lt;br&gt;Location: 32165 - 32621" locus_tag="ctg23_22" class="clusterblast-orf" id="dummy-1_q3_0_all"  />
<polygon points="156,35 161,30 196,30 196,40 161,40 156,35 " style="fill:#d81515; stroke-width:1; stroke:black; " description="&lt;b&gt;ctg23_23&lt;/b&gt;&lt;br&gt;ctg23 23&lt;br&gt;Location: 32941 - 34192" locus_tag="ctg23_23" class="clusterblast-orf" id="dummy-1_q4_0_all"  />
<polygon points="197,35 202,30 210,30 210,40 202,40 197,35 " style="fill:#15d815; stroke-width:1; stroke:black; " description="&lt;b&gt;ctg23_24&lt;/b&gt;&lt;br&gt;ctg23 24&lt;br&gt;Location: 34200 - 34617" locus_tag="ctg23_24" class="clusterblast-orf" id="dummy-1_q5_0_all"  />
<polygon points="215,40 235,40 240,35 235,30 215,30 215,40 " style="fill:#1597d8; stroke-width:1; stroke:black; " description="&lt;b&gt;ctg23_25&lt;/b&gt;&lt;br&gt;ctg23 25&lt;br&gt;Location: 34784 - 35555" locus_tag="ctg23_25" class="clusterblast-orf" id="dummy-1_q6_0_all"  />
<polygon points="241,40 242,40 247,35 242,30 241,30 241,40 " style="fill:white; stroke-width:1; stroke:black; " description="&lt;b&gt;ctg23_26&lt;/b&gt;&lt;br&gt;ctg23 26&lt;br&gt;Location: 35584 - 35758" locus_tag="ctg23_26" class="clusterblast-orf" id="dummy-1_q7_0_all"  />
<polygon points="253,40 289,40 294,35 289,30 253,30 253,40 " style="fill:#9715d8; stroke-width:1; stroke:black; " description="&lt;b&gt;ctg23_27&lt;/b&gt;&lt;br&gt;ctg23 27&lt;br&gt;Location: 35967 - 37242" locus_tag="ctg23_27" class="clusterblast-orf" id="dummy-1_q8_0_all"  />
<polygon points="294,40 296,40 301,35 296,30 294,30 294,40 " style="fill:#d89715; stroke-width:1; stroke:black; " description="&lt;b&gt;ctg23_28&lt;/b&gt;&lt;br&gt;ctg23 28&lt;br&gt;Location: 37254 - 37455" locus_tag="ctg23_28" class="clusterblast-orf" id="dummy-1_q9_0_all"  />
<polygon points="304,40 399,40 404,35 399,30 304,30 304,40 " style="fill:#15d897; stroke-width:1; stroke:black; " description="&lt;b&gt;ctg23_29&lt;/b&gt;&lt;br&gt;ctg23 29&lt;br&gt;Location: 37549 - 40687" locus_tag="ctg23_29" class="clusterblast-orf" id="dummy-1_q10_0_all"  />
<polygon points="405,40 438,40 443,35 438,30 405,30 405,40 " style="fill:#1515d8; stroke-width:1; stroke:black; " description="&lt;b&gt;ctg23_30&lt;/b&gt;&lt;br&gt;ctg23 30&lt;br&gt;Location: 40722 - 41895" locus_tag="ctg23_30" class="clusterblast-orf" id="dummy-1_q11_0_all"  />
<polygon points="442,40 469,40 474,35 469,30 442,30 442,40 " style="fill:#d81597; stroke-width:1; stroke:black; " description="&lt;b&gt;ctg23_31&lt;/b&gt;&lt;br&gt;ctg23 31&lt;br&gt;Location: 41876 - 42857" locus_tag="ctg23_31" class="clusterblast-orf" id="dummy-1_q12_0_all"  />
<polygon points="474,40 505,40 510,35 505,30 474,30 474,40 " style="fill:#97d815; stroke-width:1; stroke:black; " description="&lt;b&gt;ctg23_32&lt;/b&gt;&lt;br&gt;ctg23 32&lt;br&gt;Location: 42859 - 43990" locus_tag="ctg23_32" class="clusterblast-orf" id="dummy-1_q13_0_all"  />
<polygon points="515,40 516,40 521,35 516,30 515,30 515,40 " style="fill:white; stroke-width:1; stroke:black; " description="&lt;b&gt;ctg23_33&lt;/b&gt;&lt;br&gt;ctg23 33&lt;br&gt;Location: 44140 - 44320" locus_tag="ctg23_33" class="clusterblast-orf" id="dummy-1_q14_0_all"  />
<polygon points="531,35 536,30 565,30 565,40 536,40 531,35 " style="fill:white; stroke-width:1; stroke:black; " description="&lt;b&gt;ctg23_34&lt;/b&gt;&lt;br&gt;ctg23 34&lt;br&gt;Location: 44657 - 45719" locus_tag="ctg23_34" class="clusterblast-orf" id="dummy-1_q15_0_all"  />
<polygon points="565,35 570,30 583,30 583,40 570,40 565,35 " style="fill:white; stroke-width:1; stroke:black; " description="&lt;b&gt;ctg23_35&lt;/b&gt;&lt;br&gt;ctg23 35&lt;br&gt;Location: 45718 - 46258" locus_tag="ctg23_35" class="clusterblast-orf" id="dummy-1_q16_0_all"  />
<polygon points="590,40 593,40 598,35 593,30 590,30 590,40 " style="fill:white; stroke-width:1; stroke:black; " description="&lt;b&gt;ctg23_36&lt;/b&gt;&lt;br&gt;ctg23 36&lt;br&gt;Location: 46475 - 46733" locus_tag="ctg23_36" class="clusterblast-orf" id="dummy-1_q17_0_all"  />
<polygon points="599,35 604,30 607,30 607,40 604,40 599,35 " style="fill:white; stroke-width:1; stroke:black; " description="&lt;b&gt;ctg23_37&lt;/b&gt;&lt;br&gt;ctg23 37&lt;br&gt;Location: 46783 - 47017" locus_tag="ctg23_37" class="clusterblast-orf" id="dummy-1_q18_0_all"  />
<polygon points="609,35 614,30 619,30 619,40 614,40 609,35 " style="fill:white; stroke-width:1; stroke:black; " description="&lt;b&gt;ctg23_38&lt;/b&gt;&lt;br&gt;ctg23 38&lt;br&gt;Location: 47069 - 47393" locus_tag="ctg23_38" class="clusterblast-orf" id="dummy-1_q19_0_all"  />
<polygon points="621,35 626,30 642,30 642,40 626,40 621,35 " style="fill:white; stroke-width:1; stroke:black; " description="&lt;b&gt;ctg23_39&lt;/b&gt;&lt;br&gt;ctg23 39&lt;br&gt;Location: 47462 - 48107" locus_tag="ctg23_39" class="clusterblast-orf" id="dummy-1_q20_0_all"  />
<polygon points="642,35 647,30 672,30 672,40 647,40 642,35 " style="fill:white; stroke-width:1; stroke:black; " description="&lt;b&gt;ctg23_40&lt;/b&gt;&lt;br&gt;ctg23 40&lt;br&gt;Location: 48103 - 49054" locus_tag="ctg23_40" class="clusterblast-orf" id="dummy-1_q21_0_all"  />
<polygon points="672,35 677,30 679,30 679,40 677,40 672,35 " style="fill:white; stroke-width:1; stroke:black; " description="&lt;b&gt;ctg23_41&lt;/b&gt;&lt;br&gt;ctg23 41&lt;br&gt;Location: 49050 - 49266" locus_tag="ctg23_41" class="clusterblast-orf" id="dummy-1_q22_0_all"  />
<polygon points="686,35 691,30 694,30 694,40 691,40 686,35 " style="fill:white; stroke-width:1; stroke:black; " description="&lt;b&gt;ctg23_42&lt;/b&gt;&lt;br&gt;ctg23 42&lt;br&gt;Location: 49480 - 49738" locus_tag="ctg23_42" class="clusterblast-orf" id="dummy-1_q23_0_all"  />
<polygon points="694,35 699,30 706,30 706,40 699,40 694,35 " style="fill:white; stroke-width:1; stroke:black; " description="&lt;b&gt;ctg23_43&lt;/b&gt;&lt;br&gt;ctg23 43&lt;br&gt;Location: 49734 - 50103" locus_tag="ctg23_43" class="clusterblast-orf" id="dummy-1_q24_0_all"  />
<polygon points="706,35 711,30 725,30 725,40 711,40 706,35 " style="fill:white; stroke-width:1; stroke:black; " description="&lt;b&gt;ctg23_44&lt;/b&gt;&lt;br&gt;ctg23 44&lt;br&gt;Location: 50099 - 50705" locus_tag="ctg23_44" class="clusterblast-orf" id="dummy-1_q25_0_all"  />
<polygon points="727,40 747,40 752,35 747,30 727,30 727,40 " style="fill:white; stroke-width:1; stroke:black; " description="&lt;b&gt;ctg23_45&lt;/b&gt;&lt;br&gt;ctg23 45&lt;br&gt;Location: 50782 - 51541" locus_tag="ctg23_45" class="clusterblast-orf" id="dummy-1_q26_0_all"  />
<polygon points="771,35 776,30 780,30 780,40 776,40 771,35 " style="fill:white; stroke-width:1; stroke:black; " description="&lt;b&gt;ctg23_46&lt;/b&gt;&lt;br&gt;ctg23 46&lt;br&gt;Location: 52143 - 52410" locus_tag="ctg23_46" class="clusterblast-orf" id="dummy-1_q27_0_all"  />
</g>
<g label="NZ_FOFT01000002" description="NZ_FOFT01000002_c17: Lentzea flaviverrucosa strain CGMCC 4.578, whole genome ... (26% of genes show similarity), lantipeptide" class="clusterblast-cluster"  >
<text x="5" y="70" class="clusterblast-acc"  >
<a xlink:href="https://antismash-db.secondarymetabolites.org/go/NZ_FOFT01000002/17" target="_blank">NZ_FOFT01000002_c17</a>: Lentzea flaviverrucosa strain CGMCC 4.578, whole genome ... (26% of genes show similarity), lantipeptide</text>
<line x1="10" y1="85" x2="778.0" y2="85" style="stroke-width:1; stroke:grey; "  />
</g>
<g id="a1_000"  >
<polygon points="0,90 17,90 22,85 17,80 0,80 0,90 " style="fill:white; stroke-width:1; stroke:black; " description="&lt;b&gt;BMZ12_RS05585&lt;/b&gt;&lt;br&gt;CHRD domain-containing protein&lt;br&gt;Location: 113379 - 112681" locus_tag="BMZ12_RS05585" class="clusterblast-orf" id="dummy-1_h1_2_0"  />
</g>
<g id="a1_001"  >
<polygon points="58,90 60,90 65,85 60,80 58,80 58,90 " style="fill:white; stroke-width:1; stroke:black; " description="&lt;b&gt;BMZ12_RS05580&lt;/b&gt;&lt;br&gt;hypothetical protein&lt;br&gt;Location: 111549 - 111343" locus_tag="BMZ12_RS05580" class="clusterblast-orf" id="dummy-1_h1_2_1"  />
</g>
<g id="a1_002"  >
<polygon points="73,90 113,90 118,85 113,80 73,80 73,90 " style="fill:white; stroke-width:1; stroke:black; " description="&lt;b&gt;BMZ12_RS05575&lt;/b&gt;&lt;br&gt;pentapeptide repeat-containing protein&lt;br&gt;Location: 111091 - 109667" locus_tag="BMZ12_RS05575" class="clusterblast-orf" id="dummy-1_h1_2_2"  />
</g>
<g id="a1_003"  >
<polygon points="127,90 129,90 134,85 129,80 127,80 127,90 " style="fill:white; stroke-width:1; stroke:black; " description="&lt;b&gt;BMZ12_RS05570&lt;/b&gt;&lt;br&gt;hypothetical protein&lt;br&gt;Location: 109388 - 109164" locus_tag="BMZ12_RS05570" class="clusterblast-orf" id="dummy-1_h1_2_3"  />
</g>
<g id="a1_004"  >
<polygon points="138,85 143,80 150,80 150,90 143,90 138,85 " style="fill:white; stroke-width:1; stroke:black; " description="&lt;b&gt;BMZ12_RS05565&lt;/b&gt;&lt;br&gt;hypothetical protein&lt;br&gt;Location: 109044 - 108676" locus_tag="BMZ12_RS05565" class="clusterblast-orf" id="dummy-1_h1_2_4"  />
</g>
<g id="a1_005"  >
<polygon points="151,85 156,80 192,80 192,90 156,90 151,85 " style="fill:white; stroke-width:1; stroke:black; " description="&lt;b&gt;BMZ12_RS05560&lt;/b&gt;&lt;br&gt;XRE family transcriptional regulator&lt;br&gt;Location: 108655 - 107360" locus_tag="BMZ12_RS05560" class="clusterblast-orf" id="dummy-1_h1_2_5"  />
</g>
<g id="a1_006"  >
<polygon points="196,90 210,90 215,85 210,80 196,80 196,90 " style="fill:white; stroke-width:1; stroke:black; " description="&lt;b&gt;BMZ12_RS05555&lt;/b&gt;&lt;br&gt;DUF4254 domain-containing protein&lt;br&gt;Location: 107238 - 106633" locus_tag="BMZ12_RS05555" class="clusterblast-orf" id="dummy-1_h1_2_6"  />
</g>
<g id="a1_007"  >
<polygon points="215,90 219,90 224,85 219,80 215,80 215,90 " style="fill:white; stroke-width:1; stroke:black; " description="&lt;b&gt;BMZ12_RS05550&lt;/b&gt;&lt;br&gt;hypothetical protein&lt;br&gt;Location: 106636 - 106361" locus_tag="BMZ12_RS05550" class="clusterblast-orf" id="dummy-1_h1_2_7"  />
</g>
<g id="a1_008"  >
<polygon points="225,90 231,90 236,85 231,80 225,80 225,90 " style="fill:white; stroke-width:1; stroke:black; " description="&lt;b&gt;BMZ12_RS05545&lt;/b&gt;&lt;br&gt;hypothetical protein&lt;br&gt;Location: 106328 - 105996" locus_tag="BMZ12_RS05545" class="clusterblast-orf" id="dummy-1_h1_2_8"  />
</g>
<g id="a1_009"  >
<polygon points="257,90 259,90 264,85 259,80 257,80 257,90 " style="fill:white; stroke-width:1; stroke:black; " description="&lt;b&gt;BMZ12_RS05540&lt;/b&gt;&lt;br&gt;hypothetical protein&lt;br&gt;Location: 105330 - 105121" locus_tag="BMZ12_RS05540" class="clusterblast-orf" id="dummy-1_h1_2_9"  />
</g>
<g id="a1_0010"  >
<polygon points="277,90 312,90 317,85 312,80 277,80 277,90 " style="fill:#9715d8; stroke-width:1; stroke:black; " description="&lt;b&gt;BMZ12_RS05535&lt;/b&gt;&lt;br&gt;methyltransferase, FxLD system&lt;br&gt;Location: 104724 - 103450&lt;br&gt;&lt;br&gt;&lt;b&gt;BlastP hit with ctg23_27&lt;/b&gt;&lt;br&gt;Percentage identity: 77&lt;br&gt;Percentage coverage: 100&lt;br&gt;BLAST bit score: 651&lt;br&gt;E-value: 6.5e-185" locus_tag="BMZ12_RS05535" class="clusterblast-orf" id="dummy-1_h1_2_10"  />
</g>
<g id="a1_0011"  >
<polygon points="318,90 319,90 324,85 319,80 318,80 318,90 " style="fill:#d89715; stroke-width:1; stroke:black; " description="&lt;b&gt;BMZ12_RS05530&lt;/b&gt;&lt;br&gt;FxLD family lantipeptide&lt;br&gt;Location: 103424 - 103230&lt;br&gt;&lt;br&gt;&lt;b&gt;BlastP hit with ctg23_28&lt;/b&gt;&lt;br&gt;Percentage identity: 72&lt;br&gt;Percentage coverage: 103&lt;br&gt;BLAST bit score: 87&lt;br&gt;E-value: 7.6e-16" locus_tag="BMZ12_RS05530" class="clusterblast-orf" id="dummy-1_h1_2_11"  />
</g>
<g id="a1_0012"  >
<polygon points="327,90 423,90 428,85 423,80 327,80 327,90 " style="fill:#15d897; stroke-width:1; stroke:black; " description="&lt;b&gt;BMZ12_RS05525&lt;/b&gt;&lt;br&gt;lantibiotic dehydratase&lt;br&gt;Location: 103139 - 99984&lt;br&gt;&lt;br&gt;&lt;b&gt;BlastP hit with ctg23_29&lt;/b&gt;&lt;br&gt;Percentage identity: 77&lt;br&gt;Percentage coverage: 101&lt;br&gt;BLAST bit score: 1545&lt;br&gt;E-value: 0.0" locus_tag="BMZ12_RS05525" class="clusterblast-orf" id="dummy-1_h1_2_12"  />
</g>
<g id="a1_0013"  >
<polygon points="429,90 462,90 467,85 462,80 429,80 429,90 " style="fill:#1515d8; stroke-width:1; stroke:black; " description="&lt;b&gt;BMZ12_RS05520&lt;/b&gt;&lt;br&gt;lanthionine synthetase&lt;br&gt;Location: 99948 - 98776&lt;br&gt;&lt;br&gt;&lt;b&gt;BlastP hit with ctg23_30&lt;/b&gt;&lt;br&gt;Percentage identity: 75&lt;br&gt;Percentage coverage: 100&lt;br&gt;BLAST bit score: 589&lt;br&gt;E-value: 2.1e-166" locus_tag="BMZ12_RS05520" class="clusterblast-orf" id="dummy-1_h1_2_13"  />
</g>
<g id="a1_0014"  >
<polygon points="466,90 493,90 498,85 493,80 466,80 466,90 " style="fill:#d81597; stroke-width:1; stroke:black; " description="&lt;b&gt;BMZ12_RS05515&lt;/b&gt;&lt;br&gt;hypothetical protein&lt;br&gt;Location: 98794 - 97814&lt;br&gt;&lt;br&gt;&lt;b&gt;BlastP hit with ctg23_31&lt;/b&gt;&lt;br&gt;Percentage identity: 71&lt;br&gt;Percentage coverage: 100&lt;br&gt;BLAST bit score: 462&lt;br&gt;E-value: 3.3e-128" locus_tag="BMZ12_RS05515" class="clusterblast-orf" id="dummy-1_h1_2_14"  />
</g>
<g id="a1_0015"  >
<polygon points="498,90 529,90 534,85 529,80 498,80 498,90 " style="fill:#97d815; stroke-width:1; stroke:black; " description="&lt;b&gt;BMZ12_RS05510&lt;/b&gt;&lt;br&gt;hypothetical protein&lt;br&gt;Location: 97811 - 96666&lt;br&gt;&lt;br&gt;&lt;b&gt;BlastP hit with ctg23_32&lt;/b&gt;&lt;br&gt;Percentage identity: 65&lt;br&gt;Percentage coverage: 100&lt;br&gt;BLAST bit score: 475&lt;br&gt;E-value: 7.4e-132" locus_tag="BMZ12_RS05510" class="clusterblast-orf" id="dummy-1_h1_2_15"  />
</g>
<g id="a1_0016"  >
<polygon points="565,85 570,80 586,80 586,90 570,90 565,85 " style="fill:white; stroke-width:1; stroke:black; " description="&lt;b&gt;BMZ12_RS05505&lt;/b&gt;&lt;br&gt;Crp/Fnr family transcriptional regulator&lt;br&gt;Location: 95722 - 95060" locus_tag="BMZ12_RS05505" class="clusterblast-orf" id="dummy-1_h1_2_16"  />
</g>
<g id="a1_0017"  >
<polygon points="590,85 595,80 609,80 609,90 595,90 590,85 " style="fill:white; stroke-width:1; stroke:black; " description="&lt;b&gt;BMZ12_RS05500&lt;/b&gt;&lt;br&gt;transcriptional regulator&lt;br&gt;Location: 94941 - 94327" locus_tag="BMZ12_RS05500" class="clusterblast-orf" id="dummy-1_h1_2_17"  />
</g>
<g id="a1_0018"  >
<polygon points="625,85 630,80 652,80 652,90 630,90 625,85 " style="fill:white; stroke-width:1; stroke:black; " description="&lt;b&gt;BMZ12_RS05495&lt;/b&gt;&lt;br&gt;hypothetical protein&lt;br&gt;Location: 93843 - 92980" locus_tag="BMZ12_RS05495" class="clusterblast-orf" id="dummy-1_h1_2_18"  />
</g>
<g id="a1_0019"  >
<polygon points="673,85 678,80 682,80 682,90 678,90 673,85 " style="fill:white; stroke-width:1; stroke:black; " description="&lt;b&gt;BMZ12_RS05490&lt;/b&gt;&lt;br&gt;hypothetical protein&lt;br&gt;Location: 92338 - 92045" locus_tag="BMZ12_RS05490" class="clusterblast-orf" id="dummy-1_h1_2_19"  />
</g>
<g id="a1_0020"  >
<polygon points="685,85 690,80 708,80 708,90 690,90 685,85 " style="fill:white; stroke-width:1; stroke:black; " description="&lt;b&gt;BMZ12_RS05485&lt;/b&gt;&lt;br&gt;hypothetical protein&lt;br&gt;Location: 91960 - 91241" locus_tag="BMZ12_RS05485" class="clusterblast-orf" id="dummy-1_h1_2_20"  />
</g>
<g id="a1_0021"  >
<polygon points="708,85 713,80 755,80 755,90 713,90 708,85 " style="fill:white; stroke-width:1; stroke:black; " description="&lt;b&gt;BMZ12_RS05480&lt;/b&gt;&lt;br&gt;APC family permease&lt;br&gt;Location: 91244 - 89772" locus_tag="BMZ12_RS05480" class="clusterblast-orf" id="dummy-1_h1_2_21"  />
</g>
<g id="a1_0022"  >
<polygon points="757,85 762,80 780,80 780,90 762,90 757,85 " style="fill:white; stroke-width:1; stroke:black; " description="&lt;b&gt;BMZ12_RS05475&lt;/b&gt;&lt;br&gt;hypothetical protein&lt;br&gt;Location: 89726 - 89010" locus_tag="BMZ12_RS05475" class="clusterblast-orf" id="dummy-1_h1_2_22"  />
</g>
</svg>
