<svg xmlns="http://www.w3.org/2000/svg" xmlns:xlink="http://www.w3.org/1999/xlink" version="1.1" x="0" y="0" height="230" width="800" viewBox="0 0 800 230" preserveAspectRatio="none"  >
<g label="Query sequence" class="clusterblast-cluster"  >
<text x="5" y="20" class="clusterblast-acc"  >
Query sequence</text>
<line x1="10" y1="35" x2="778.0" y2="35" style="stroke-width:1; stroke:grey; "  />
<polygon points="16,35 20,30 20,40 16,35 " style="fill:white; stroke-width:1; stroke:black; " description="&lt;b&gt;ctg68_3&lt;/b&gt;&lt;br&gt;ctg68 3&lt;br&gt;Location: 1428 - 1599" locus_tag="ctg68_3" class="clusterblast-orf" id="dummy-1_q0_0_all"  />
<polygon points="28,35 33,30 70,30 70,40 33,40 28,35 " style="fill:#d81515; stroke-width:1; stroke:black; " description="&lt;b&gt;ctg68_4&lt;/b&gt;&lt;br&gt;ctg68 4&lt;br&gt;Location: 2015 - 4208" locus_tag="ctg68_4" class="clusterblast-orf" id="dummy-1_q1_0_all"  />
<polygon points="69,35 74,30 91,30 91,40 74,40 69,35 " style="fill:#6ad815; stroke-width:1; stroke:black; " description="&lt;b&gt;ctg68_5&lt;/b&gt;&lt;br&gt;ctg68 5&lt;br&gt;Location: 4204 - 5329" locus_tag="ctg68_5" class="clusterblast-orf" id="dummy-1_q2_0_all"  />
<polygon points="91,35 96,30 97,30 97,40 96,40 91,35 " style="fill:white; stroke-width:1; stroke:black; " description="&lt;b&gt;ctg68_6&lt;/b&gt;&lt;br&gt;ctg68 6&lt;br&gt;Location: 5328 - 5637" locus_tag="ctg68_6" class="clusterblast-orf" id="dummy-1_q3_0_all"  />
<polygon points="97,35 101,30 101,40 97,35 " style="fill:#15bfd8; stroke-width:1; stroke:black; " description="&lt;b&gt;ctg68_7&lt;/b&gt;&lt;br&gt;ctg68 7&lt;br&gt;Location: 5623 - 5878" locus_tag="ctg68_7" class="clusterblast-orf" id="dummy-1_q4_0_all"  />
<polygon points="101,35 106,30 110,30 110,40 106,40 101,35 " style="fill:white; stroke-width:1; stroke:black; " description="&lt;b&gt;ctg68_8&lt;/b&gt;&lt;br&gt;ctg68 8&lt;br&gt;Location: 5877 - 6321" locus_tag="ctg68_8" class="clusterblast-orf" id="dummy-1_q5_0_all"  />
<polygon points="110,35 115,30 115,30 115,40 115,40 110,35 " style="fill:white; stroke-width:1; stroke:black; " description="&lt;b&gt;ctg68_9&lt;/b&gt;&lt;br&gt;ctg68 9&lt;br&gt;Location: 6320 - 6608" locus_tag="ctg68_9" class="clusterblast-orf" id="dummy-1_q6_0_all"  />
<polygon points="118,40 120,40 125,35 120,30 118,30 118,40 " style="fill:white; stroke-width:1; stroke:black; " description="&lt;b&gt;ctg68_10&lt;/b&gt;&lt;br&gt;ctg68 10&lt;br&gt;Location: 6747 - 7104" locus_tag="ctg68_10" class="clusterblast-orf" id="dummy-1_q7_0_all"  />
<polygon points="126,40 126,40 131,35 126,30 126,30 126,40 " style="fill:white; stroke-width:1; stroke:black; " description="&lt;b&gt;ctg68_11&lt;/b&gt;&lt;br&gt;ctg68 11&lt;br&gt;Location: 7161 - 7422" locus_tag="ctg68_11" class="clusterblast-orf" id="dummy-1_q8_0_all"  />
<polygon points="132,40 149,40 154,35 149,30 132,30 132,40 " style="fill:white; stroke-width:1; stroke:black; " description="&lt;b&gt;ctg68_12&lt;/b&gt;&lt;br&gt;ctg68 12&lt;br&gt;Location: 7466 - 8609" locus_tag="ctg68_12" class="clusterblast-orf" id="dummy-1_q9_0_all"  />
<polygon points="153,35 158,30 167,30 167,40 158,40 153,35 " style="fill:white; stroke-width:1; stroke:black; " description="&lt;b&gt;ctg68_13&lt;/b&gt;&lt;br&gt;ctg68 13&lt;br&gt;Location: 8594 - 9296" locus_tag="ctg68_13" class="clusterblast-orf" id="dummy-1_q10_0_all"  />
<polygon points="168,40 183,40 188,35 183,30 168,30 168,40 " style="fill:white; stroke-width:1; stroke:black; " description="&lt;b&gt;ctg68_14&lt;/b&gt;&lt;br&gt;ctg68 14&lt;br&gt;Location: 9343 - 10384" locus_tag="ctg68_14" class="clusterblast-orf" id="dummy-1_q11_0_all"  />
<polygon points="190,40 194,35 190,30 190,40 " style="fill:white; stroke-width:1; stroke:black; " description="&lt;b&gt;ctg68_15&lt;/b&gt;&lt;br&gt;ctg68 15&lt;br&gt;Location: 10516 - 10708" locus_tag="ctg68_15" class="clusterblast-orf" id="dummy-1_q12_0_all"  />
<polygon points="192,35 197,30 210,30 210,40 197,40 192,35 " style="fill:white; stroke-width:1; stroke:black; " description="&lt;b&gt;ctg68_16&lt;/b&gt;&lt;br&gt;ctg68 16&lt;br&gt;Location: 10633 - 11551" locus_tag="ctg68_16" class="clusterblast-orf" id="dummy-1_q13_0_all"  />
<polygon points="210,40 210,40 215,35 210,30 210,30 210,40 " style="fill:white; stroke-width:1; stroke:black; " description="&lt;b&gt;ctg68_17&lt;/b&gt;&lt;br&gt;ctg68 17&lt;br&gt;Location: 11572 - 11800" locus_tag="ctg68_17" class="clusterblast-orf" id="dummy-1_q14_0_all"  />
<polygon points="215,40 218,35 215,30 215,40 " style="fill:white; stroke-width:1; stroke:black; " description="&lt;b&gt;ctg68_18&lt;/b&gt;&lt;br&gt;ctg68 18&lt;br&gt;Location: 11796 - 11991" locus_tag="ctg68_18" class="clusterblast-orf" id="dummy-1_q15_0_all"  />
<polygon points="229,40 229,40 234,35 229,30 229,30 229,40 " style="fill:white; stroke-width:1; stroke:black; " description="&lt;b&gt;ctg68_19&lt;/b&gt;&lt;br&gt;ctg68 19&lt;br&gt;Location: 12546 - 12792" locus_tag="ctg68_19" class="clusterblast-orf" id="dummy-1_q16_0_all"  />
<polygon points="233,35 237,30 237,40 233,35 " style="fill:white; stroke-width:1; stroke:black; " description="&lt;b&gt;ctg68_20&lt;/b&gt;&lt;br&gt;ctg68 20&lt;br&gt;Location: 12788 - 12974" locus_tag="ctg68_20" class="clusterblast-orf" id="dummy-1_q17_0_all"  />
<polygon points="241,35 246,30 249,30 249,40 246,40 241,35 " style="fill:white; stroke-width:1; stroke:black; " description="&lt;b&gt;ctg68_21&lt;/b&gt;&lt;br&gt;ctg68 21&lt;br&gt;Location: 13157 - 13622" locus_tag="ctg68_21" class="clusterblast-orf" id="dummy-1_q18_0_all"  />
<polygon points="251,40 259,40 264,35 259,30 251,30 251,40 " style="fill:white; stroke-width:1; stroke:black; " description="&lt;b&gt;ctg68_22&lt;/b&gt;&lt;br&gt;ctg68 22&lt;br&gt;Location: 13709 - 14369" locus_tag="ctg68_22" class="clusterblast-orf" id="dummy-1_q19_0_all"  />
<polygon points="265,40 268,40 273,35 268,30 265,30 265,40 " style="fill:#9d15d8; stroke-width:1; stroke:black; " description="&lt;b&gt;ctg68_23&lt;/b&gt;&lt;br&gt;ctg68 23&lt;br&gt;Location: 14434 - 14860" locus_tag="ctg68_23" class="clusterblast-orf" id="dummy-1_q20_0_all"  />
<polygon points="275,40 287,40 292,35 287,30 275,30 275,40 " style="fill:white; stroke-width:1; stroke:black; " description="&lt;b&gt;ctg68_24&lt;/b&gt;&lt;br&gt;ctg68 24&lt;br&gt;Location: 14985 - 15846" locus_tag="ctg68_24" class="clusterblast-orf" id="dummy-1_q21_0_all"  />
<polygon points="293,35 298,30 307,30 307,40 298,40 293,35 " style="fill:#d84815; stroke-width:1; stroke:black; " description="&lt;b&gt;ctg68_25&lt;/b&gt;&lt;br&gt;ctg68 25&lt;br&gt;Location: 15892 - 16660" locus_tag="ctg68_25" class="clusterblast-orf" id="dummy-1_q22_0_all"  />
<polygon points="308,40 323,40 328,35 323,30 308,30 308,40 " style="fill:#37d815; stroke-width:1; stroke:black; " description="&lt;b&gt;ctg68_26&lt;/b&gt;&lt;br&gt;ctg68 26&lt;br&gt;Location: 16703 - 17762" locus_tag="ctg68_26" class="clusterblast-orf" id="dummy-1_q23_0_all"  />
<polygon points="328,35 333,30 380,30 380,40 333,40 328,35 " style="fill:#158cd8; stroke-width:1; stroke:black; " description="&lt;b&gt;ctg68_27&lt;/b&gt;&lt;br&gt;ctg68 27&lt;br&gt;Location: 17719 - 20455" locus_tag="ctg68_27" class="clusterblast-orf" id="dummy-1_q24_0_all"  />
<polygon points="384,40 401,40 406,35 401,30 384,30 384,40 " style="fill:#d015d8; stroke-width:1; stroke:black; " description="&lt;b&gt;ctg68_28&lt;/b&gt;&lt;br&gt;ctg68 28&lt;br&gt;Location: 20646 - 21807" locus_tag="ctg68_28" class="clusterblast-orf" id="dummy-1_q25_0_all"  />
<polygon points="407,40 424,40 429,35 424,30 407,30 407,40 " style="fill:#d87b15; stroke-width:1; stroke:black; " description="&lt;b&gt;ctg68_29&lt;/b&gt;&lt;br&gt;ctg68 29&lt;br&gt;Location: 21877 - 23023" locus_tag="ctg68_29" class="clusterblast-orf" id="dummy-1_q26_0_all"  />
<polygon points="429,40 439,40 444,35 439,30 429,30 429,40 " style="fill:#15d826; stroke-width:1; stroke:black; " description="&lt;b&gt;ctg68_30&lt;/b&gt;&lt;br&gt;ctg68 30&lt;br&gt;Location: 23032 - 23809" locus_tag="ctg68_30" class="clusterblast-orf" id="dummy-1_q27_0_all"  />
<polygon points="444,35 449,30 461,30 461,40 449,40 444,35 " style="fill:white; stroke-width:1; stroke:black; " description="&lt;b&gt;ctg68_31&lt;/b&gt;&lt;br&gt;ctg68 31&lt;br&gt;Location: 23805 - 24678" locus_tag="ctg68_31" class="clusterblast-orf" id="dummy-1_q28_0_all"  />
<polygon points="462,40 468,40 473,35 468,30 462,30 462,40 " style="fill:white; stroke-width:1; stroke:black; " description="&lt;b&gt;ctg68_32&lt;/b&gt;&lt;br&gt;ctg68 32&lt;br&gt;Location: 24766 - 25333" locus_tag="ctg68_32" class="clusterblast-orf" id="dummy-1_q29_0_all"  />
<polygon points="475,40 492,40 497,35 492,30 475,30 475,40 " style="fill:#1559d8; stroke-width:1; stroke:black; " description="&lt;b&gt;ctg68_33&lt;/b&gt;&lt;br&gt;ctg68 33&lt;br&gt;Location: 25417 - 26599" locus_tag="ctg68_33" class="clusterblast-orf" id="dummy-1_q30_0_all"  />
<polygon points="501,40 509,40 514,35 509,30 501,30 501,40 " style="fill:#d815ae; stroke-width:1; stroke:black; " description="&lt;b&gt;ctg68_34&lt;/b&gt;&lt;br&gt;ctg68 34&lt;br&gt;Location: 26775 - 27492" locus_tag="ctg68_34" class="clusterblast-orf" id="dummy-1_q31_0_all"  />
<polygon points="515,35 520,30 542,30 542,40 520,40 515,35 " style="fill:#d8ae15; stroke-width:1; stroke:black; " description="&lt;b&gt;ctg68_35&lt;/b&gt;&lt;br&gt;ctg68 35&lt;br&gt;Location: 27526 - 28924" locus_tag="ctg68_35" class="clusterblast-orf" id="dummy-1_q32_0_all"  />
<polygon points="547,40 558,40 563,35 558,30 547,30 547,40 " style="fill:#15d859; stroke-width:1; stroke:black; " description="&lt;b&gt;ctg68_36&lt;/b&gt;&lt;br&gt;ctg68 36&lt;br&gt;Location: 29186 - 30044" locus_tag="ctg68_36" class="clusterblast-orf" id="dummy-1_q33_0_all"  />
<polygon points="564,40 575,40 580,35 575,30 564,30 564,40 " style="fill:#1526d8; stroke-width:1; stroke:black; " description="&lt;b&gt;ctg68_37&lt;/b&gt;&lt;br&gt;ctg68 37&lt;br&gt;Location: 30080 - 30926" locus_tag="ctg68_37" class="clusterblast-orf" id="dummy-1_q34_0_all"  />
<polygon points="583,35 586,30 586,40 583,35 " style="fill:white; stroke-width:1; stroke:black; " description="&lt;b&gt;ctg68_38&lt;/b&gt;&lt;br&gt;ctg68 38&lt;br&gt;Location: 31092 - 31260" locus_tag="ctg68_38" class="clusterblast-orf" id="dummy-1_q35_0_all"  />
<polygon points="586,35 591,30 595,30 595,40 591,40 586,35 " style="fill:#d8157b; stroke-width:1; stroke:black; " description="&lt;b&gt;ctg68_39&lt;/b&gt;&lt;br&gt;ctg68 39&lt;br&gt;Location: 31256 - 31700" locus_tag="ctg68_39" class="clusterblast-orf" id="dummy-1_q36_0_all"  />
<polygon points="598,40 598,40 603,35 598,30 598,30 598,40 " style="fill:#d0d815; stroke-width:1; stroke:black; " description="&lt;b&gt;ctg68_40&lt;/b&gt;&lt;br&gt;ctg68 40&lt;br&gt;Location: 31875 - 32127" locus_tag="ctg68_40" class="clusterblast-orf" id="dummy-1_q37_0_all"  />
<polygon points="605,35 610,30 616,30 616,40 610,40 605,35 " style="fill:#15d88c; stroke-width:1; stroke:black; " description="&lt;b&gt;ctg68_41&lt;/b&gt;&lt;br&gt;ctg68 41&lt;br&gt;Location: 32224 - 32830" locus_tag="ctg68_41" class="clusterblast-orf" id="dummy-1_q38_0_all"  />
<polygon points="618,40 629,40 634,35 629,30 618,30 618,40 " style="fill:#3715d8; stroke-width:1; stroke:black; " description="&lt;b&gt;ctg68_42&lt;/b&gt;&lt;br&gt;ctg68 42&lt;br&gt;Location: 32930 - 33749" locus_tag="ctg68_42" class="clusterblast-orf" id="dummy-1_q39_0_all"  />
<polygon points="633,40 657,40 662,35 657,30 633,30 633,40 " style="fill:#d81548; stroke-width:1; stroke:black; " description="&lt;b&gt;ctg68_43&lt;/b&gt;&lt;br&gt;ctg68 43&lt;br&gt;Location: 33726 - 35223" locus_tag="ctg68_43" class="clusterblast-orf" id="dummy-1_q40_0_all"  />
<polygon points="664,40 682,40 687,35 682,30 664,30 664,40 " style="fill:#9dd815; stroke-width:1; stroke:black; " description="&lt;b&gt;ctg68_44&lt;/b&gt;&lt;br&gt;ctg68 44&lt;br&gt;Location: 35301 - 36537" locus_tag="ctg68_44" class="clusterblast-orf" id="dummy-1_q41_0_all"  />
<polygon points="687,40 718,40 723,35 718,30 687,30 687,40 " style="fill:#15d8bf; stroke-width:1; stroke:black; " description="&lt;b&gt;ctg68_45&lt;/b&gt;&lt;br&gt;ctg68 45&lt;br&gt;Location: 36552 - 38403" locus_tag="ctg68_45" class="clusterblast-orf" id="dummy-1_q42_0_all"  />
<polygon points="729,40 758,40 763,35 758,30 729,30 729,40 " style="fill:#6a15d8; stroke-width:1; stroke:black; " description="&lt;b&gt;ctg68_46&lt;/b&gt;&lt;br&gt;ctg68 46&lt;br&gt;Location: 38751 - 40503" locus_tag="ctg68_46" class="clusterblast-orf" id="dummy-1_q43_0_all"  />
</g>
<g label="NC_013159" description="NC_013159_c8: Saccharomonospora viridis DSM 43017, complete genome (8% of genes show similarity), arylpolyene" class="clusterblast-cluster"  >
<text x="5" y="70" class="clusterblast-acc"  >
<a xlink:href="https://antismash-db.secondarymetabolites.org/go/NC_013159/8" target="_blank">NC_013159_c8</a>: Saccharomonospora viridis DSM 43017, complete genome (8% of genes show similarity), arylpolyene</text>
<line x1="10" y1="85" x2="778.0" y2="85" style="stroke-width:1; stroke:grey; "  />
</g>
<g id="a1_000"  >
<polygon points="0,85 5,80 8,80 8,90 5,90 0,85 " style="fill:white; stroke-width:1; stroke:black; " description="&lt;b&gt;SVIR_RS18245&lt;/b&gt;&lt;br&gt;hypothetical protein&lt;br&gt;Location: 4047430 - 4046993" locus_tag="SVIR_RS18245" class="clusterblast-orf" id="dummy-1_h1_5_0"  />
</g>
<g id="a1_001"  >
<polygon points="8,85 13,80 15,80 15,90 13,90 8,85 " style="fill:white; stroke-width:1; stroke:black; " description="&lt;b&gt;SVIR_RS18240&lt;/b&gt;&lt;br&gt;hypothetical protein&lt;br&gt;Location: 4047000 - 4046635" locus_tag="SVIR_RS18240" class="clusterblast-orf" id="dummy-1_h1_5_1"  />
</g>
<g id="a1_002"  >
<polygon points="16,85 21,80 24,80 24,90 21,90 16,85 " style="fill:white; stroke-width:1; stroke:black; " description="&lt;b&gt;SVIR_RS18235&lt;/b&gt;&lt;br&gt;acyl-CoA thioesterase&lt;br&gt;Location: 4046578 - 4046168" locus_tag="SVIR_RS18235" class="clusterblast-orf" id="dummy-1_h1_5_2"  />
</g>
<g id="a1_003"  >
<polygon points="27,90 49,90 54,85 49,80 27,80 27,90 " style="fill:white; stroke-width:1; stroke:black; " description="&lt;b&gt;SVIR_RS18230&lt;/b&gt;&lt;br&gt;hypothetical protein&lt;br&gt;Location: 4045987 - 4044578" locus_tag="SVIR_RS18230" class="clusterblast-orf" id="dummy-1_h1_5_3"  />
</g>
<g id="a1_004"  >
<polygon points="54,90 68,90 73,85 68,80 54,80 54,90 " style="fill:white; stroke-width:1; stroke:black; " description="&lt;b&gt;SVIR_RS18225&lt;/b&gt;&lt;br&gt;ABC transporter substrate-binding protein&lt;br&gt;Location: 4044578 - 4043604" locus_tag="SVIR_RS18225" class="clusterblast-orf" id="dummy-1_h1_5_4"  />
</g>
<g id="a1_005"  >
<polygon points="73,90 118,90 123,85 118,80 73,80 73,90 " style="fill:white; stroke-width:1; stroke:black; " description="&lt;b&gt;SVIR_RS18220&lt;/b&gt;&lt;br&gt;serine/threonine protein kinase&lt;br&gt;Location: 4043585 - 4040940" locus_tag="SVIR_RS18220" class="clusterblast-orf" id="dummy-1_h1_5_5"  />
</g>
<g id="a1_006"  >
<polygon points="124,85 129,80 148,80 148,90 129,90 124,85 " style="fill:white; stroke-width:1; stroke:black; " description="&lt;b&gt;SVIR_RS18215&lt;/b&gt;&lt;br&gt;metallophosphoesterase&lt;br&gt;Location: 4040932 - 4039646" locus_tag="SVIR_RS18215" class="clusterblast-orf" id="dummy-1_h1_5_6"  />
</g>
<g id="a1_007"  >
<polygon points="148,85 153,80 159,80 159,90 153,90 148,85 " style="fill:white; stroke-width:1; stroke:black; " description="&lt;b&gt;SVIR_RS18210&lt;/b&gt;&lt;br&gt;PaaI family thioesterase&lt;br&gt;Location: 4039646 - 4039080" locus_tag="SVIR_RS18210" class="clusterblast-orf" id="dummy-1_h1_5_7"  />
</g>
<g id="a1_008"  >
<polygon points="161,85 166,80 184,80 184,90 166,90 161,85 " style="fill:white; stroke-width:1; stroke:black; " description="&lt;b&gt;SVIR_RS18205&lt;/b&gt;&lt;br&gt;L,D-transpeptidase&lt;br&gt;Location: 4038978 - 4037764" locus_tag="SVIR_RS18205" class="clusterblast-orf" id="dummy-1_h1_5_8"  />
</g>
<g id="a1_009"  >
<polygon points="192,90 196,85 192,80 192,90 " style="fill:white; stroke-width:1; stroke:black; " description="&lt;b&gt;SVIR_RS18200&lt;/b&gt;&lt;br&gt;cold-shock protein&lt;br&gt;Location: 4037338 - 4037135" locus_tag="SVIR_RS18200" class="clusterblast-orf" id="dummy-1_h1_5_9"  />
</g>
<g id="a1_0010"  >
<polygon points="198,85 203,80 207,80 207,90 203,90 198,85 " style="fill:white; stroke-width:1; stroke:black; " description="&lt;b&gt;SVIR_RS18195&lt;/b&gt;&lt;br&gt;hypothetical protein&lt;br&gt;Location: 4037035 - 4036550" locus_tag="SVIR_RS18195" class="clusterblast-orf" id="dummy-1_h1_5_10"  />
</g>
<g id="a1_0011"  >
<polygon points="216,90 216,90 221,85 216,80 216,80 216,90 " style="fill:white; stroke-width:1; stroke:black; " description="&lt;b&gt;SVIR_RS18190&lt;/b&gt;&lt;br&gt;hypothetical protein&lt;br&gt;Location: 4036073 - 4035828" locus_tag="SVIR_RS18190" class="clusterblast-orf" id="dummy-1_h1_5_11"  />
</g>
<g id="a1_0012"  >
<polygon points="244,90 247,90 252,85 247,80 244,80 244,90 " style="fill:#9d15d8; stroke-width:1; stroke:black; " description="&lt;b&gt;SVIR_RS18170&lt;/b&gt;&lt;br&gt;hypothetical protein&lt;br&gt;Location: 4034638 - 4034213&lt;br&gt;&lt;br&gt;&lt;b&gt;BlastP hit with ctg68_23&lt;/b&gt;&lt;br&gt;Percentage identity: 66&lt;br&gt;Percentage coverage: 99&lt;br&gt;BLAST bit score: 194&lt;br&gt;E-value: 7.2e-48" locus_tag="SVIR_RS18170" class="clusterblast-orf" id="dummy-1_h1_5_12"  />
</g>
<g id="a1_0013"  >
<polygon points="254,85 259,80 264,80 264,90 259,90 254,85 " style="fill:white; stroke-width:1; stroke:black; " description="&lt;b&gt;SVIR_RS18165&lt;/b&gt;&lt;br&gt;YceI family protein&lt;br&gt;Location: 4034089 - 4033571" locus_tag="SVIR_RS18165" class="clusterblast-orf" id="dummy-1_h1_5_13"  />
</g>
<g id="a1_0014"  >
<polygon points="270,90 279,90 284,85 279,80 270,80 270,90 " style="fill:white; stroke-width:1; stroke:black; " description="&lt;b&gt;SVIR_RS18160&lt;/b&gt;&lt;br&gt;(Fe-S)-binding protein&lt;br&gt;Location: 4033276 - 4032560" locus_tag="SVIR_RS18160" class="clusterblast-orf" id="dummy-1_h1_5_14"  />
</g>
<g id="a1_0015"  >
<polygon points="283,90 305,90 310,85 305,80 283,80 283,90 " style="fill:white; stroke-width:1; stroke:black; " description="&lt;b&gt;SVIR_RS18155&lt;/b&gt;&lt;br&gt;iron-sulfur cluster-binding protein&lt;br&gt;Location: 4032578 - 4031151" locus_tag="SVIR_RS18155" class="clusterblast-orf" id="dummy-1_h1_5_15"  />
</g>
<g id="a1_0016"  >
<polygon points="310,90 317,90 322,85 317,80 310,80 310,90 " style="fill:white; stroke-width:1; stroke:black; " description="&lt;b&gt;SVIR_RS18150&lt;/b&gt;&lt;br&gt;lactate utilization protein C&lt;br&gt;Location: 4031158 - 4030547" locus_tag="SVIR_RS18150" class="clusterblast-orf" id="dummy-1_h1_5_16"  />
</g>
<g id="a1_0017"  >
<polygon points="325,85 330,80 377,80 377,90 330,90 325,85 " style="fill:#158cd8; stroke-width:1; stroke:black; " description="&lt;b&gt;SVIR_RS18145&lt;/b&gt;&lt;br&gt;GGDEF domain-containing protein&lt;br&gt;Location: 4030405 - 4027646&lt;br&gt;&lt;br&gt;&lt;b&gt;BlastP hit with ctg68_27&lt;/b&gt;&lt;br&gt;Percentage identity: 62&lt;br&gt;Percentage coverage: 100&lt;br&gt;BLAST bit score: 1074&lt;br&gt;E-value: 6.3e-312" locus_tag="SVIR_RS18145" class="clusterblast-orf" id="dummy-1_h1_5_17"  />
</g>
<g id="a1_0018"  >
<polygon points="381,90 400,90 405,85 400,80 381,80 381,90 " style="fill:#d015d8; stroke-width:1; stroke:black; " description="&lt;b&gt;SVIR_RS18140&lt;/b&gt;&lt;br&gt;3-oxoacyl-ACP synthase&lt;br&gt;Location: 4027435 - 4026206&lt;br&gt;&lt;br&gt;&lt;b&gt;BlastP hit with ctg68_28&lt;/b&gt;&lt;br&gt;Percentage identity: 67&lt;br&gt;Percentage coverage: 104&lt;br&gt;BLAST bit score: 544&lt;br&gt;E-value: 1e-152" locus_tag="SVIR_RS18140" class="clusterblast-orf" id="dummy-1_h1_5_18"  />
</g>
<g id="a1_0019"  >
<polygon points="406,85 411,80 414,80 414,90 411,90 406,85 " style="fill:white; stroke-width:1; stroke:black; " description="&lt;b&gt;SVIR_RS18135&lt;/b&gt;&lt;br&gt;peroxiredoxin&lt;br&gt;Location: 4026175 - 4025744" locus_tag="SVIR_RS18135" class="clusterblast-orf" id="dummy-1_h1_5_19"  />
</g>
<g id="a1_0020"  >
<polygon points="413,85 418,80 430,80 430,90 418,90 413,85 " style="fill:white; stroke-width:1; stroke:black; " description="&lt;b&gt;SVIR_RS18130&lt;/b&gt;&lt;br&gt;TetR/AcrR family transcriptional regulator&lt;br&gt;Location: 4025786 - 4024908" locus_tag="SVIR_RS18130" class="clusterblast-orf" id="dummy-1_h1_5_20"  />
</g>
<g id="a1_0021"  >
<polygon points="433,90 437,90 442,85 437,80 433,80 433,90 " style="fill:white; stroke-width:1; stroke:black; " description="&lt;b&gt;SVIR_RS18125&lt;/b&gt;&lt;br&gt;nitroreductase family deazaflavin-dependent oxidoreductase&lt;br&gt;Location: 4024744 - 4024283" locus_tag="SVIR_RS18125" class="clusterblast-orf" id="dummy-1_h1_5_21"  />
</g>
<g id="a1_0022"  >
<polygon points="443,85 448,80 449,80 449,90 448,90 443,85 " style="fill:white; stroke-width:1; stroke:black; " description="&lt;b&gt;SVIR_RS18120&lt;/b&gt;&lt;br&gt;NrdH-redoxin&lt;br&gt;Location: 4024209 - 4023907" locus_tag="SVIR_RS18120" class="clusterblast-orf" id="dummy-1_h1_5_22"  />
</g>
<g id="a1_0023"  >
<polygon points="450,90 459,90 464,85 459,80 450,80 450,90 " style="fill:white; stroke-width:1; stroke:black; " description="&lt;b&gt;SVIR_RS18115&lt;/b&gt;&lt;br&gt;hypothetical protein&lt;br&gt;Location: 4023836 - 4023090" locus_tag="SVIR_RS18115" class="clusterblast-orf" id="dummy-1_h1_5_23"  />
</g>
<g id="a1_0024"  >
<polygon points="465,85 470,80 493,80 493,90 470,90 465,85 " style="fill:white; stroke-width:1; stroke:black; " description="&lt;b&gt;SVIR_RS18110&lt;/b&gt;&lt;br&gt;NAD-dependent succinate-semialdehyde dehydrogenase&lt;br&gt;Location: 4023071 - 4021617" locus_tag="SVIR_RS18110" class="clusterblast-orf" id="dummy-1_h1_5_24"  />
</g>
<g id="a1_0025"  >
<polygon points="496,90 499,90 504,85 499,80 496,80 496,90 " style="fill:white; stroke-width:1; stroke:black; " description="&lt;b&gt;SVIR_RS18105&lt;/b&gt;&lt;br&gt;hypothetical protein&lt;br&gt;Location: 4021423 - 4021034" locus_tag="SVIR_RS18105" class="clusterblast-orf" id="dummy-1_h1_5_25"  />
</g>
<g id="a1_0026"  >
<polygon points="504,85 509,80 534,80 534,90 509,90 504,85 " style="fill:white; stroke-width:1; stroke:black; " description="&lt;b&gt;SVIR_RS18100&lt;/b&gt;&lt;br&gt;ABC transporter permease&lt;br&gt;Location: 4021032 - 4019467" locus_tag="SVIR_RS18100" class="clusterblast-orf" id="dummy-1_h1_5_26"  />
</g>
<g id="a1_0027"  >
<polygon points="536,85 541,80 553,80 553,90 541,90 536,85 " style="fill:white; stroke-width:1; stroke:black; " description="&lt;b&gt;SVIR_RS18095&lt;/b&gt;&lt;br&gt;ABC transporter ATP-binding protein&lt;br&gt;Location: 4019350 - 4018442" locus_tag="SVIR_RS18095" class="clusterblast-orf" id="dummy-1_h1_5_27"  />
</g>
<g id="a1_0028"  >
<polygon points="555,90 560,90 565,85 560,80 555,80 555,90 " style="fill:white; stroke-width:1; stroke:black; " description="&lt;b&gt;SVIR_RS18090&lt;/b&gt;&lt;br&gt;transcriptional regulator&lt;br&gt;Location: 4018343 - 4017834" locus_tag="SVIR_RS18090" class="clusterblast-orf" id="dummy-1_h1_5_28"  />
</g>
<g id="a1_0029"  >
<polygon points="567,90 600,90 605,85 600,80 567,80 567,90 " style="fill:white; stroke-width:1; stroke:black; " description="&lt;b&gt;SVIR_RS18085&lt;/b&gt;&lt;br&gt;FUSC family protein&lt;br&gt;Location: 4017709 - 4015757" locus_tag="SVIR_RS18085" class="clusterblast-orf" id="dummy-1_h1_5_29"  />
</g>
<g id="a1_0030"  >
<polygon points="606,90 610,85 606,80 606,90 " style="fill:white; stroke-width:1; stroke:black; " description="&lt;b&gt;SVIR_RS18080&lt;/b&gt;&lt;br&gt;antitoxin&lt;br&gt;Location: 4015699 - 4015484" locus_tag="SVIR_RS18080" class="clusterblast-orf" id="dummy-1_h1_5_30"  />
</g>
<g id="a1_0031"  >
<polygon points="612,85 617,80 630,80 630,90 617,90 612,85 " style="fill:white; stroke-width:1; stroke:black; " description="&lt;b&gt;SVIR_RS18075&lt;/b&gt;&lt;br&gt;prephenate dehydrogenase&lt;br&gt;Location: 4015379 - 4014426" locus_tag="SVIR_RS18075" class="clusterblast-orf" id="dummy-1_h1_5_31"  />
</g>
<g id="a1_0032"  >
<polygon points="631,85 636,80 654,80 654,90 636,90 631,85 " style="fill:white; stroke-width:1; stroke:black; " description="&lt;b&gt;SVIR_RS18070&lt;/b&gt;&lt;br&gt;amidohydrolase&lt;br&gt;Location: 4014383 - 4013151" locus_tag="SVIR_RS18070" class="clusterblast-orf" id="dummy-1_h1_5_32"  />
</g>
<g id="a1_0033"  >
<polygon points="656,90 660,90 665,85 660,80 656,80 656,90 " style="fill:white; stroke-width:1; stroke:black; " description="&lt;b&gt;SVIR_RS18065&lt;/b&gt;&lt;br&gt;tRNA adenosine deaminase&lt;br&gt;Location: 4013077 - 4012595" locus_tag="SVIR_RS18065" class="clusterblast-orf" id="dummy-1_h1_5_33"  />
</g>
<g id="a1_0034"  >
<polygon points="665,90 669,90 674,85 669,80 665,80 665,90 " style="fill:white; stroke-width:1; stroke:black; " description="&lt;b&gt;SVIR_RS18060&lt;/b&gt;&lt;br&gt;nucleoside deaminase&lt;br&gt;Location: 4012577 - 4012134" locus_tag="SVIR_RS18060" class="clusterblast-orf" id="dummy-1_h1_5_34"  />
</g>
<g id="a1_0035"  >
<polygon points="680,90 727,90 732,85 727,80 680,80 680,90 " style="fill:white; stroke-width:1; stroke:black; " description="&lt;b&gt;SVIR_RS18050&lt;/b&gt;&lt;br&gt;PKD domain-containing protein&lt;br&gt;Location: 4011806 - 4009095" locus_tag="SVIR_RS18050" class="clusterblast-orf" id="dummy-1_h1_5_35"  />
</g>
<g id="a1_0036"  >
<polygon points="732,85 737,80 780,80 780,90 737,90 732,85 " style="fill:white; stroke-width:1; stroke:black; " description="&lt;b&gt;SVIR_RS18045&lt;/b&gt;&lt;br&gt;LuxR family transcriptional regulator&lt;br&gt;Location: 4009108 - 4006598" locus_tag="SVIR_RS18045" class="clusterblast-orf" id="dummy-1_h1_5_36"  />
</g>
</svg>
