<svg xmlns="http://www.w3.org/2000/svg" xmlns:xlink="http://www.w3.org/1999/xlink" version="1.1" x="0" y="0" height="230" width="800" viewBox="0 0 800 230" preserveAspectRatio="none"  >
<g label="Query sequence" class="clusterblast-cluster"  >
<text x="5" y="20" class="clusterblast-acc"  >
Query sequence</text>
<line x1="10" y1="35" x2="778.0" y2="35" style="stroke-width:1; stroke:grey; "  />
<polygon points="0,40 18,40 23,35 18,30 0,30 0,40 " style="fill:#d81515; stroke-width:1; stroke:black; " description="&lt;b&gt;ctg19_29&lt;/b&gt;&lt;br&gt;ctg19 29&lt;br&gt;Location: 32747 - 33536" locus_tag="ctg19_29" class="clusterblast-orf" id="dummy-1_q0_0_all"  />
<polygon points="23,40 37,40 42,35 37,30 23,30 23,40 " style="fill:#54d815; stroke-width:1; stroke:black; " description="&lt;b&gt;ctg19_30&lt;/b&gt;&lt;br&gt;ctg19 30&lt;br&gt;Location: 33532 - 34174" locus_tag="ctg19_30" class="clusterblast-orf" id="dummy-1_q1_0_all"  />
<polygon points="42,40 68,40 73,35 68,30 42,30 42,40 " style="fill:#15c1d8; stroke-width:1; stroke:black; " description="&lt;b&gt;ctg19_31&lt;/b&gt;&lt;br&gt;ctg19 31&lt;br&gt;Location: 34177 - 35200" locus_tag="ctg19_31" class="clusterblast-orf" id="dummy-1_q2_0_all"  />
<polygon points="73,40 105,40 110,35 105,30 73,30 73,40 " style="fill:#8215d8; stroke-width:1; stroke:black; " description="&lt;b&gt;ctg19_32&lt;/b&gt;&lt;br&gt;ctg19 32&lt;br&gt;Location: 35199 - 36453" locus_tag="ctg19_32" class="clusterblast-orf" id="dummy-1_q3_0_all"  />
<polygon points="110,40 143,40 148,35 143,30 110,30 110,40 " style="fill:#d84415; stroke-width:1; stroke:black; " description="&lt;b&gt;ctg19_33&lt;/b&gt;&lt;br&gt;ctg19 33&lt;br&gt;Location: 36457 - 37738" locus_tag="ctg19_33" class="clusterblast-orf" id="dummy-1_q4_0_all"  />
<polygon points="148,40 168,40 173,35 168,30 148,30 148,40 " style="fill:#25d815; stroke-width:1; stroke:black; " description="&lt;b&gt;ctg19_34&lt;/b&gt;&lt;br&gt;ctg19 34&lt;br&gt;Location: 37734 - 38592" locus_tag="ctg19_34" class="clusterblast-orf" id="dummy-1_q5_0_all"  />
<polygon points="173,40 203,40 208,35 203,30 173,30 173,40 " style="fill:#1592d8; stroke-width:1; stroke:black; " description="&lt;b&gt;ctg19_35&lt;/b&gt;&lt;br&gt;ctg19 35&lt;br&gt;Location: 38588 - 39767" locus_tag="ctg19_35" class="clusterblast-orf" id="dummy-1_q6_0_all"  />
<polygon points="208,40 219,40 224,35 219,30 208,30 208,40 " style="fill:#b115d8; stroke-width:1; stroke:black; " description="&lt;b&gt;ctg19_36&lt;/b&gt;&lt;br&gt;ctg19 36&lt;br&gt;Location: 39763 - 40312" locus_tag="ctg19_36" class="clusterblast-orf" id="dummy-1_q7_0_all"  />
<polygon points="224,40 258,40 263,35 258,30 224,30 224,40 " style="fill:#d87315; stroke-width:1; stroke:black; " description="&lt;b&gt;ctg19_37&lt;/b&gt;&lt;br&gt;ctg19 37&lt;br&gt;Location: 40317 - 41631" locus_tag="ctg19_37" class="clusterblast-orf" id="dummy-1_q8_0_all"  />
<polygon points="262,35 267,30 282,30 282,40 267,40 262,35 " style="fill:#15d834; stroke-width:1; stroke:black; " description="&lt;b&gt;ctg19_38&lt;/b&gt;&lt;br&gt;ctg19 38&lt;br&gt;Location: 41602 - 42271" locus_tag="ctg19_38" class="clusterblast-orf" id="dummy-1_q9_0_all"  />
<polygon points="285,40 288,40 293,35 288,30 285,30 285,40 " style="fill:#1563d8; stroke-width:1; stroke:black; " description="&lt;b&gt;ctg19_39&lt;/b&gt;&lt;br&gt;ctg19 39&lt;br&gt;Location: 42369 - 42621" locus_tag="ctg19_39" class="clusterblast-orf" id="dummy-1_q10_0_all"  />
<polygon points="292,40 320,40 325,35 320,30 292,30 292,40 " style="fill:#d815d0; stroke-width:1; stroke:black; " description="&lt;b&gt;ctg19_40&lt;/b&gt;&lt;br&gt;ctg19 40&lt;br&gt;Location: 42601 - 43720" locus_tag="ctg19_40" class="clusterblast-orf" id="dummy-1_q11_0_all"  />
<polygon points="325,40 332,40 337,35 332,30 325,30 325,40 " style="fill:#d8a215; stroke-width:1; stroke:black; " description="&lt;b&gt;ctg19_41&lt;/b&gt;&lt;br&gt;ctg19 41&lt;br&gt;Location: 43716 - 44127" locus_tag="ctg19_41" class="clusterblast-orf" id="dummy-1_q12_0_all"  />
<polygon points="338,40 360,40 365,35 360,30 338,30 338,40 " style="fill:#15d863; stroke-width:1; stroke:black; " description="&lt;b&gt;ctg19_42&lt;/b&gt;&lt;br&gt;ctg19 42&lt;br&gt;Location: 44132 - 45044" locus_tag="ctg19_42" class="clusterblast-orf" id="dummy-1_q13_0_all"  />
<polygon points="384,35 389,30 437,30 437,40 389,40 384,35 " style="fill:#1534d8; stroke-width:1; stroke:black; " description="&lt;b&gt;ctg19_43&lt;/b&gt;&lt;br&gt;ctg19 43&lt;br&gt;Location: 45709 - 47491" locus_tag="ctg19_43" class="clusterblast-orf" id="dummy-1_q14_0_all"  />
<polygon points="442,40 446,35 442,30 442,40 " style="fill:#d815a2; stroke-width:1; stroke:black; " description="&lt;b&gt;ctg19_44&lt;/b&gt;&lt;br&gt;ctg19 44&lt;br&gt;Location: 47667 - 47805" locus_tag="ctg19_44" class="clusterblast-orf" id="dummy-1_q15_0_all"  />
<polygon points="448,40 452,35 448,30 448,40 " style="fill:#d8d015; stroke-width:1; stroke:black; " description="&lt;b&gt;ctg19_45&lt;/b&gt;&lt;br&gt;ctg19 45&lt;br&gt;Location: 47849 - 47990" locus_tag="ctg19_45" class="clusterblast-orf" id="dummy-1_q16_0_all"  />
<polygon points="455,40 483,40 488,35 483,30 455,30 455,40 " style="fill:#d815d0; stroke-width:1; stroke:black; " description="&lt;b&gt;ctg19_46&lt;/b&gt;&lt;br&gt;ctg19 46&lt;br&gt;Location: 48076 - 49192" locus_tag="ctg19_46" class="clusterblast-orf" id="dummy-1_q17_0_all"  />
<polygon points="488,35 493,30 521,30 521,40 493,40 488,35 " style="fill:#15d892; stroke-width:1; stroke:black; " description="&lt;b&gt;ctg19_47&lt;/b&gt;&lt;br&gt;ctg19 47&lt;br&gt;Location: 49200 - 50328" locus_tag="ctg19_47" class="clusterblast-orf" id="dummy-1_q18_0_all"  />
<polygon points="522,35 527,30 568,30 568,40 527,40 522,35 " style="fill:#2515d8; stroke-width:1; stroke:black; " description="&lt;b&gt;ctg19_48&lt;/b&gt;&lt;br&gt;ctg19 48&lt;br&gt;Location: 50340 - 51891" locus_tag="ctg19_48" class="clusterblast-orf" id="dummy-1_q19_0_all"  />
<polygon points="569,35 574,30 588,30 588,40 574,40 569,35 " style="fill:#15d834; stroke-width:1; stroke:black; " description="&lt;b&gt;ctg19_49&lt;/b&gt;&lt;br&gt;ctg19 49&lt;br&gt;Location: 51950 - 52571" locus_tag="ctg19_49" class="clusterblast-orf" id="dummy-1_q20_0_all"  />
<polygon points="589,35 594,30 619,30 619,40 594,40 589,35 " style="fill:#d81573; stroke-width:1; stroke:black; " description="&lt;b&gt;ctg19_50&lt;/b&gt;&lt;br&gt;ctg19 50&lt;br&gt;Location: 52614 - 53625" locus_tag="ctg19_50" class="clusterblast-orf" id="dummy-1_q21_0_all"  />
<polygon points="618,35 623,30 639,30 639,40 623,40 618,35 " style="fill:#b1d815; stroke-width:1; stroke:black; " description="&lt;b&gt;ctg19_51&lt;/b&gt;&lt;br&gt;ctg19 51&lt;br&gt;Location: 53600 - 54299" locus_tag="ctg19_51" class="clusterblast-orf" id="dummy-1_q22_0_all"  />
<polygon points="639,35 644,30 672,30 672,40 644,40 639,35 " style="fill:#15d8c1; stroke-width:1; stroke:black; " description="&lt;b&gt;ctg19_52&lt;/b&gt;&lt;br&gt;ctg19 52&lt;br&gt;Location: 54295 - 55405" locus_tag="ctg19_52" class="clusterblast-orf" id="dummy-1_q23_0_all"  />
<polygon points="672,35 677,30 706,30 706,40 677,40 672,35 " style="fill:#5415d8; stroke-width:1; stroke:black; " description="&lt;b&gt;ctg19_53&lt;/b&gt;&lt;br&gt;ctg19 53&lt;br&gt;Location: 55401 - 56565" locus_tag="ctg19_53" class="clusterblast-orf" id="dummy-1_q24_0_all"  />
<polygon points="706,35 711,30 741,30 741,40 711,40 706,35 " style="fill:#d81544; stroke-width:1; stroke:black; " description="&lt;b&gt;ctg19_54&lt;/b&gt;&lt;br&gt;ctg19 54&lt;br&gt;Location: 56539 - 57730" locus_tag="ctg19_54" class="clusterblast-orf" id="dummy-1_q25_0_all"  />
<polygon points="743,35 748,30 780,30 780,40 748,40 743,35 " style="fill:#82d815; stroke-width:1; stroke:black; " description="&lt;b&gt;ctg19_55&lt;/b&gt;&lt;br&gt;ctg19 55&lt;br&gt;Location: 57797 - 59042" locus_tag="ctg19_55" class="clusterblast-orf" id="dummy-1_q26_0_all"  />
</g>
<g label="NZ_CP009110" description="NZ_CP009110_c1: Amycolatopsis methanolica 239, complete genome (96% of genes show similarity), lassopeptide" class="clusterblast-cluster"  >
<text x="5" y="70" class="clusterblast-acc"  >
<a xlink:href="https://antismash-db.secondarymetabolites.org/go/NZ_CP009110/1" target="_blank">NZ_CP009110_c1</a>: Amycolatopsis methanolica 239, complete genome (96% of genes show similarity), lassopeptide</text>
<line x1="10" y1="85" x2="778.0" y2="85" style="stroke-width:1; stroke:grey; "  />
</g>
<g id="a1_000"  >
<polygon points="9,90 28,90 33,85 28,80 9,80 9,90 " style="fill:#d81515; stroke-width:1; stroke:black; " description="&lt;b&gt;AMETH_RS02520&lt;/b&gt;&lt;br&gt;glucose-1-phosphate cytidylyltransferase&lt;br&gt;Location: 491617 - 492405&lt;br&gt;&lt;br&gt;&lt;b&gt;BlastP hit with ctg19_29&lt;/b&gt;&lt;br&gt;Percentage identity: 97&lt;br&gt;Percentage coverage: 100&lt;br&gt;BLAST bit score: 545&lt;br&gt;E-value: 4e-153" locus_tag="AMETH_RS02520" class="clusterblast-orf" id="dummy-1_h1_1_0"  />
</g>
<g id="a1_001"  >
<polygon points="32,90 47,90 52,85 47,80 32,80 32,90 " style="fill:#54d815; stroke-width:1; stroke:black; " description="&lt;b&gt;AMETH_RS02525&lt;/b&gt;&lt;br&gt;GlcNAc-PI de-N-acetylase&lt;br&gt;Location: 492402 - 493043&lt;br&gt;&lt;br&gt;&lt;b&gt;BlastP hit with ctg19_30&lt;/b&gt;&lt;br&gt;Percentage identity: 92&lt;br&gt;Percentage coverage: 100&lt;br&gt;BLAST bit score: 405&lt;br&gt;E-value: 4.1e-111" locus_tag="AMETH_RS02525" class="clusterblast-orf" id="dummy-1_h1_1_1"  />
</g>
<g id="a1_002"  >
<polygon points="52,90 77,90 82,85 77,80 52,80 52,90 " style="fill:#15c1d8; stroke-width:1; stroke:black; " description="&lt;b&gt;AMETH_RS02530&lt;/b&gt;&lt;br&gt;NAD(P)-dependent oxidoreductase&lt;br&gt;Location: 493047 - 494069&lt;br&gt;&lt;br&gt;&lt;b&gt;BlastP hit with ctg19_31&lt;/b&gt;&lt;br&gt;Percentage identity: 94&lt;br&gt;Percentage coverage: 100&lt;br&gt;BLAST bit score: 640&lt;br&gt;E-value: 1.2e-181" locus_tag="AMETH_RS02530" class="clusterblast-orf" id="dummy-1_h1_1_2"  />
</g>
<g id="a1_003"  >
<polygon points="82,90 114,90 119,85 114,80 82,80 82,90 " style="fill:#8215d8; stroke-width:1; stroke:black; " description="&lt;b&gt;AMETH_RS02535&lt;/b&gt;&lt;br&gt;DUF4910 domain-containing protein&lt;br&gt;Location: 494069 - 495322&lt;br&gt;&lt;br&gt;&lt;b&gt;BlastP hit with ctg19_32&lt;/b&gt;&lt;br&gt;Percentage identity: 89&lt;br&gt;Percentage coverage: 100&lt;br&gt;BLAST bit score: 778&lt;br&gt;E-value: 4.5e-223" locus_tag="AMETH_RS02535" class="clusterblast-orf" id="dummy-1_h1_1_3"  />
</g>
<g id="a1_004"  >
<polygon points="119,90 152,90 157,85 152,80 119,80 119,90 " style="fill:#d84415; stroke-width:1; stroke:black; " description="&lt;b&gt;AMETH_RS02540&lt;/b&gt;&lt;br&gt;membrane protein&lt;br&gt;Location: 495327 - 496613&lt;br&gt;&lt;br&gt;&lt;b&gt;BlastP hit with ctg19_33&lt;/b&gt;&lt;br&gt;Percentage identity: 90&lt;br&gt;Percentage coverage: 100&lt;br&gt;BLAST bit score: 724&lt;br&gt;E-value: 6e-207" locus_tag="AMETH_RS02540" class="clusterblast-orf" id="dummy-1_h1_1_4"  />
</g>
<g id="a1_005"  >
<polygon points="157,90 178,90 183,85 178,80 157,80 157,90 " style="fill:#25d815; stroke-width:1; stroke:black; " description="&lt;b&gt;AMETH_RS02545&lt;/b&gt;&lt;br&gt;glycosyltransferase family 2 protein&lt;br&gt;Location: 496610 - 497467&lt;br&gt;&lt;br&gt;&lt;b&gt;BlastP hit with ctg19_34&lt;/b&gt;&lt;br&gt;Percentage identity: 89&lt;br&gt;Percentage coverage: 100&lt;br&gt;BLAST bit score: 535&lt;br&gt;E-value: 2.7e-150" locus_tag="AMETH_RS02545" class="clusterblast-orf" id="dummy-1_h1_1_5"  />
</g>
<g id="a1_006"  >
<polygon points="183,90 213,90 218,85 213,80 183,80 183,90 " style="fill:#1592d8; stroke-width:1; stroke:black; " description="&lt;b&gt;AMETH_RS02550&lt;/b&gt;&lt;br&gt;membrane protein&lt;br&gt;Location: 497464 - 498642&lt;br&gt;&lt;br&gt;&lt;b&gt;BlastP hit with ctg19_35&lt;/b&gt;&lt;br&gt;Percentage identity: 88&lt;br&gt;Percentage coverage: 100&lt;br&gt;BLAST bit score: 687&lt;br&gt;E-value: 9.8e-196" locus_tag="AMETH_RS02550" class="clusterblast-orf" id="dummy-1_h1_1_6"  />
</g>
<g id="a1_007"  >
<polygon points="217,90 229,90 234,85 229,80 217,80 217,90 " style="fill:#b115d8; stroke-width:1; stroke:black; " description="&lt;b&gt;AMETH_RS02555&lt;/b&gt;&lt;br&gt;dTDP-4-keto-6-deoxy-D-glucose epimerase&lt;br&gt;Location: 498639 - 499187&lt;br&gt;&lt;br&gt;&lt;b&gt;BlastP hit with ctg19_36&lt;/b&gt;&lt;br&gt;Percentage identity: 90&lt;br&gt;Percentage coverage: 100&lt;br&gt;BLAST bit score: 338&lt;br&gt;E-value: 4e-91" locus_tag="AMETH_RS02555" class="clusterblast-orf" id="dummy-1_h1_1_7"  />
</g>
<g id="a1_008"  >
<polygon points="234,90 268,90 273,85 268,80 234,80 234,90 " style="fill:#d87315; stroke-width:1; stroke:black; " description="&lt;b&gt;AMETH_RS02560&lt;/b&gt;&lt;br&gt;glutamate-1-semialdehyde 2,1-aminomutase&lt;br&gt;Location: 499193 - 500506&lt;br&gt;&lt;br&gt;&lt;b&gt;BlastP hit with ctg19_37&lt;/b&gt;&lt;br&gt;Percentage identity: 91&lt;br&gt;Percentage coverage: 100&lt;br&gt;BLAST bit score: 806&lt;br&gt;E-value: 1.2e-231" locus_tag="AMETH_RS02560" class="clusterblast-orf" id="dummy-1_h1_1_8"  />
</g>
<g id="a1_009"  >
<polygon points="272,85 277,80 292,80 292,90 277,90 272,85 " style="fill:#15d834; stroke-width:1; stroke:black; " description="&lt;b&gt;AMETH_RS02565&lt;/b&gt;&lt;br&gt;phosphatase PAP2 family protein&lt;br&gt;Location: 500478 - 501146&lt;br&gt;&lt;br&gt;&lt;b&gt;BlastP hit with ctg19_38&lt;/b&gt;&lt;br&gt;Percentage identity: 71&lt;br&gt;Percentage coverage: 100&lt;br&gt;BLAST bit score: 307&lt;br&gt;E-value: 1.2e-81&lt;br&gt;&lt;br&gt;&lt;b&gt;BlastP hit with ctg19_49&lt;/b&gt;&lt;br&gt;Percentage identity: 44&lt;br&gt;Percentage coverage: 98&lt;br&gt;BLAST bit score: 149&lt;br&gt;E-value: 5.1e-34" locus_tag="AMETH_RS02565" class="clusterblast-orf" id="dummy-1_h1_1_9"  />
</g>
<g id="a1_0010"  >
<polygon points="295,90 297,90 302,85 297,80 295,80 295,90 " style="fill:#1563d8; stroke-width:1; stroke:black; " description="&lt;b&gt;AMETH_RS02570&lt;/b&gt;&lt;br&gt;PqqD family protein&lt;br&gt;Location: 501245 - 501496&lt;br&gt;&lt;br&gt;&lt;b&gt;BlastP hit with ctg19_39&lt;/b&gt;&lt;br&gt;Percentage identity: 93&lt;br&gt;Percentage coverage: 100&lt;br&gt;BLAST bit score: 149&lt;br&gt;E-value: 1.2e-34" locus_tag="AMETH_RS02570" class="clusterblast-orf" id="dummy-1_h1_1_10"  />
</g>
<g id="a1_0011"  >
<polygon points="302,90 330,90 335,85 330,80 302,80 302,90 " style="fill:#d815d0; stroke-width:1; stroke:black; " description="&lt;b&gt;AMETH_RS02575&lt;/b&gt;&lt;br&gt;hypothetical protein&lt;br&gt;Location: 501477 - 502589&lt;br&gt;&lt;br&gt;&lt;b&gt;BlastP hit with ctg19_40&lt;/b&gt;&lt;br&gt;Percentage identity: 74&lt;br&gt;Percentage coverage: 99&lt;br&gt;BLAST bit score: 520&lt;br&gt;E-value: 1.2e-145&lt;br&gt;&lt;br&gt;&lt;b&gt;BlastP hit with ctg19_46&lt;/b&gt;&lt;br&gt;Percentage identity: 41&lt;br&gt;Percentage coverage: 101&lt;br&gt;BLAST bit score: 237&lt;br&gt;E-value: 2.5e-60" locus_tag="AMETH_RS02575" class="clusterblast-orf" id="dummy-1_h1_1_11"  />
</g>
<g id="a1_0012"  >
<polygon points="335,90 342,90 347,85 342,80 335,80 335,90 " style="fill:#d8a215; stroke-width:1; stroke:black; " description="&lt;b&gt;AMETH_RS02580&lt;/b&gt;&lt;br&gt;hypothetical protein&lt;br&gt;Location: 502610 - 502993&lt;br&gt;&lt;br&gt;&lt;b&gt;BlastP hit with ctg19_41&lt;/b&gt;&lt;br&gt;Percentage identity: 80&lt;br&gt;Percentage coverage: 93&lt;br&gt;BLAST bit score: 195&lt;br&gt;E-value: 5.3e-48" locus_tag="AMETH_RS02580" class="clusterblast-orf" id="dummy-1_h1_1_12"  />
</g>
<g id="a1_0013"  >
<polygon points="347,90 369,90 374,85 369,80 347,80 347,90 " style="fill:#15d863; stroke-width:1; stroke:black; " description="&lt;b&gt;AMETH_RS02585&lt;/b&gt;&lt;br&gt;hypothetical protein&lt;br&gt;Location: 502999 - 503913&lt;br&gt;&lt;br&gt;&lt;b&gt;BlastP hit with ctg19_42&lt;/b&gt;&lt;br&gt;Percentage identity: 81&lt;br&gt;Percentage coverage: 99&lt;br&gt;BLAST bit score: 476&lt;br&gt;E-value: 2e-132" locus_tag="AMETH_RS02585" class="clusterblast-orf" id="dummy-1_h1_1_13"  />
</g>
<g id="a1_0014"  >
<polygon points="374,85 379,80 427,80 427,90 379,90 374,85 " style="fill:#1534d8; stroke-width:1; stroke:black; " description="&lt;b&gt;AMETH_RS02590&lt;/b&gt;&lt;br&gt;ABC transporter ATP-binding protein&lt;br&gt;Location: 503929 - 505707&lt;br&gt;&lt;br&gt;&lt;b&gt;BlastP hit with ctg19_43&lt;/b&gt;&lt;br&gt;Percentage identity: 89&lt;br&gt;Percentage coverage: 100&lt;br&gt;BLAST bit score: 986&lt;br&gt;E-value: 1.2e-285" locus_tag="AMETH_RS02590" class="clusterblast-orf" id="dummy-1_h1_1_14"  />
</g>
<g id="a1_0015"  >
<polygon points="432,90 436,85 432,80 432,90 " style="fill:#d815a2; stroke-width:1; stroke:black; " description="&lt;b&gt;NZ_CP009110_cluster_1_allorf003&lt;/b&gt;&lt;br&gt;&lt;br&gt;Location: 505876 - 506012&lt;br&gt;&lt;br&gt;&lt;b&gt;BlastP hit with ctg19_44&lt;/b&gt;&lt;br&gt;Percentage identity: 91&lt;br&gt;Percentage coverage: 100&lt;br&gt;BLAST bit score: 83&lt;br&gt;E-value: 5.7e-15" locus_tag="NZ_CP009110_cluster_1_allorf003" class="clusterblast-orf" id="dummy-1_h1_1_15"  />
</g>
<g id="a1_0016"  >
<polygon points="436,90 437,90 442,85 437,80 436,80 436,90 " style="fill:#d8d015; stroke-width:1; stroke:black; " description="&lt;b&gt;NZ_CP009110_cluster_1_allorf006&lt;/b&gt;&lt;br&gt;&lt;br&gt;Location: 506010 - 506197&lt;br&gt;&lt;br&gt;&lt;b&gt;BlastP hit with ctg19_45&lt;/b&gt;&lt;br&gt;Percentage identity: 83&lt;br&gt;Percentage coverage: 100&lt;br&gt;BLAST bit score: 86&lt;br&gt;E-value: 9e-16" locus_tag="NZ_CP009110_cluster_1_allorf006" class="clusterblast-orf" id="dummy-1_h1_1_16"  />
</g>
<g id="a1_0017"  >
<polygon points="445,90 473,90 478,85 473,80 445,80 445,90 " style="fill:#d815d0; stroke-width:1; stroke:black; " description="&lt;b&gt;AMETH_RS02595&lt;/b&gt;&lt;br&gt;hypothetical protein&lt;br&gt;Location: 506302 - 507417&lt;br&gt;&lt;br&gt;&lt;b&gt;BlastP hit with ctg19_40&lt;/b&gt;&lt;br&gt;Percentage identity: 42&lt;br&gt;Percentage coverage: 90&lt;br&gt;BLAST bit score: 209&lt;br&gt;E-value: 7.4e-52&lt;br&gt;&lt;br&gt;&lt;b&gt;BlastP hit with ctg19_46&lt;/b&gt;&lt;br&gt;Percentage identity: 85&lt;br&gt;Percentage coverage: 100&lt;br&gt;BLAST bit score: 637&lt;br&gt;E-value: 1.1e-180" locus_tag="AMETH_RS02595" class="clusterblast-orf" id="dummy-1_h1_1_17"  />
</g>
<g id="a1_0018"  >
<polygon points="485,90 528,90 533,85 528,80 485,80 485,90 " style="fill:white; stroke-width:1; stroke:black; " description="&lt;b&gt;AMETH_RS35465&lt;/b&gt;&lt;br&gt;hypothetical protein&lt;br&gt;Location: 507669 - 509276" locus_tag="AMETH_RS35465" class="clusterblast-orf" id="dummy-1_h1_1_18"  />
</g>
<g id="a1_0019"  >
<polygon points="533,85 538,80 567,80 567,90 538,90 533,85 " style="fill:#15d892; stroke-width:1; stroke:black; " description="&lt;b&gt;AMETH_RS02610&lt;/b&gt;&lt;br&gt;hypothetical protein&lt;br&gt;Location: 509280 - 510407&lt;br&gt;&lt;br&gt;&lt;b&gt;BlastP hit with ctg19_47&lt;/b&gt;&lt;br&gt;Percentage identity: 84&lt;br&gt;Percentage coverage: 99&lt;br&gt;BLAST bit score: 623&lt;br&gt;E-value: 2.2e-176" locus_tag="AMETH_RS02610" class="clusterblast-orf" id="dummy-1_h1_1_19"  />
</g>
<g id="a1_0020"  >
<polygon points="567,85 572,80 613,80 613,90 572,90 567,85 " style="fill:#2515d8; stroke-width:1; stroke:black; " description="&lt;b&gt;AMETH_RS02615&lt;/b&gt;&lt;br&gt;right-handed parallel beta-helix repeat-containing protein&lt;br&gt;Location: 510420 - 511967&lt;br&gt;&lt;br&gt;&lt;b&gt;BlastP hit with ctg19_48&lt;/b&gt;&lt;br&gt;Percentage identity: 81&lt;br&gt;Percentage coverage: 100&lt;br&gt;BLAST bit score: 812&lt;br&gt;E-value: 2e-233" locus_tag="AMETH_RS02615" class="clusterblast-orf" id="dummy-1_h1_1_20"  />
</g>
<g id="a1_0021"  >
<polygon points="615,85 620,80 634,80 634,90 620,90 615,85 " style="fill:#15d834; stroke-width:1; stroke:black; " description="&lt;b&gt;AMETH_RS02620&lt;/b&gt;&lt;br&gt;phosphatase PAP2 family protein&lt;br&gt;Location: 512026 - 512688&lt;br&gt;&lt;br&gt;&lt;b&gt;BlastP hit with ctg19_38&lt;/b&gt;&lt;br&gt;Percentage identity: 40&lt;br&gt;Percentage coverage: 94&lt;br&gt;BLAST bit score: 134&lt;br&gt;E-value: 1.4e-29&lt;br&gt;&lt;br&gt;&lt;b&gt;BlastP hit with ctg19_49&lt;/b&gt;&lt;br&gt;Percentage identity: 66&lt;br&gt;Percentage coverage: 100&lt;br&gt;BLAST bit score: 259&lt;br&gt;E-value: 3.5e-67" locus_tag="AMETH_RS02620" class="clusterblast-orf" id="dummy-1_h1_1_21"  />
</g>
<g id="a1_0022"  >
<polygon points="653,85 658,80 683,80 683,90 658,90 653,85 " style="fill:#d81573; stroke-width:1; stroke:black; " description="&lt;b&gt;AMETH_RS02625&lt;/b&gt;&lt;br&gt;GHMP kinase&lt;br&gt;Location: 513329 - 514318&lt;br&gt;&lt;br&gt;&lt;b&gt;BlastP hit with ctg19_50&lt;/b&gt;&lt;br&gt;Percentage identity: 92&lt;br&gt;Percentage coverage: 98&lt;br&gt;BLAST bit score: 599&lt;br&gt;E-value: 1.8e-169" locus_tag="AMETH_RS02625" class="clusterblast-orf" id="dummy-1_h1_1_22"  />
</g>
<g id="a1_0023"  >
<polygon points="683,85 688,80 703,80 703,90 688,90 683,85 " style="fill:#b1d815; stroke-width:1; stroke:black; " description="&lt;b&gt;AMETH_RS02630&lt;/b&gt;&lt;br&gt;nucleotidyltransferase family protein&lt;br&gt;Location: 514315 - 515013&lt;br&gt;&lt;br&gt;&lt;b&gt;BlastP hit with ctg19_51&lt;/b&gt;&lt;br&gt;Percentage identity: 86&lt;br&gt;Percentage coverage: 100&lt;br&gt;BLAST bit score: 410&lt;br&gt;E-value: 1.1e-112" locus_tag="AMETH_RS02630" class="clusterblast-orf" id="dummy-1_h1_1_23"  />
</g>
<g id="a1_0024"  >
<polygon points="703,85 708,80 736,80 736,90 708,90 703,85 " style="fill:#15d8c1; stroke-width:1; stroke:black; " description="&lt;b&gt;AMETH_RS02635&lt;/b&gt;&lt;br&gt;epimerase&lt;br&gt;Location: 515010 - 516122&lt;br&gt;&lt;br&gt;&lt;b&gt;BlastP hit with ctg19_52&lt;/b&gt;&lt;br&gt;Percentage identity: 90&lt;br&gt;Percentage coverage: 100&lt;br&gt;BLAST bit score: 682&lt;br&gt;E-value: 2.3e-194" locus_tag="AMETH_RS02635" class="clusterblast-orf" id="dummy-1_h1_1_24"  />
</g>
<g id="a1_0025"  >
<polygon points="736,85 741,80 770,80 770,90 741,90 736,85 " style="fill:#5415d8; stroke-width:1; stroke:black; " description="&lt;b&gt;AMETH_RS02640&lt;/b&gt;&lt;br&gt;glycosyltransferase family 1 protein&lt;br&gt;Location: 516119 - 517258&lt;br&gt;&lt;br&gt;&lt;b&gt;BlastP hit with ctg19_53&lt;/b&gt;&lt;br&gt;Percentage identity: 90&lt;br&gt;Percentage coverage: 97&lt;br&gt;BLAST bit score: 684&lt;br&gt;E-value: 6.3e-195" locus_tag="AMETH_RS02640" class="clusterblast-orf" id="dummy-1_h1_1_25"  />
</g>
</svg>
