<svg xmlns="http://www.w3.org/2000/svg" xmlns:xlink="http://www.w3.org/1999/xlink" version="1.1" x="0" y="0" height="230" width="800" viewBox="0 0 800 230" preserveAspectRatio="none"  >
<g label="Query sequence" class="clusterblast-cluster"  >
<text x="5" y="20" class="clusterblast-acc"  >
Query sequence</text>
<line x1="10" y1="35" x2="778.0" y2="35" style="stroke-width:1; stroke:grey; "  />
<polygon points="5,35 10,30 260,30 260,40 10,40 5,35 " style="fill:#d81515; stroke-width:1; stroke:black; " description="&lt;b&gt;ctg3_36&lt;/b&gt;&lt;br&gt;ctg3 36&lt;br&gt;Location: 35638 - 38770" locus_tag="ctg3_36" class="clusterblast-orf" id="dummy-1_q0_0_all"  />
<polygon points="280,35 285,30 354,30 354,40 285,40 280,35 " style="fill:#15d815; stroke-width:1; stroke:black; " description="&lt;b&gt;ctg3_37&lt;/b&gt;&lt;br&gt;ctg3 37&lt;br&gt;Location: 39014 - 39917" locus_tag="ctg3_37" class="clusterblast-orf" id="dummy-1_q1_0_all"  />
<polygon points="359,35 364,30 392,30 392,40 364,40 359,35 " style="fill:#1597d8; stroke-width:1; stroke:black; " description="&lt;b&gt;ctg3_38&lt;/b&gt;&lt;br&gt;ctg3 38&lt;br&gt;Location: 39975 - 40383" locus_tag="ctg3_38" class="clusterblast-orf" id="dummy-1_q2_0_all"  />
<polygon points="394,35 399,30 496,30 496,40 399,40 394,35 " style="fill:#9715d8; stroke-width:1; stroke:black; " description="&lt;b&gt;ctg3_39&lt;/b&gt;&lt;br&gt;ctg3 39&lt;br&gt;Location: 40405 - 41659" locus_tag="ctg3_39" class="clusterblast-orf" id="dummy-1_q3_0_all"  />
<polygon points="502,35 507,30 542,30 542,40 507,40 502,35 " style="fill:#d89715; stroke-width:1; stroke:black; " description="&lt;b&gt;ctg3_40&lt;/b&gt;&lt;br&gt;ctg3 40&lt;br&gt;Location: 41726 - 42227" locus_tag="ctg3_40" class="clusterblast-orf" id="dummy-1_q4_0_all"  />
<polygon points="559,35 564,30 623,30 623,40 564,40 559,35 " style="fill:#15d897; stroke-width:1; stroke:black; " description="&lt;b&gt;ctg3_41&lt;/b&gt;&lt;br&gt;ctg3 41&lt;br&gt;Location: 42435 - 43212" locus_tag="ctg3_41" class="clusterblast-orf" id="dummy-1_q5_0_all"  />
<polygon points="625,35 630,30 654,30 654,40 630,40 625,35 " style="fill:#1515d8; stroke-width:1; stroke:black; " description="&lt;b&gt;ctg3_42&lt;/b&gt;&lt;br&gt;ctg3 42&lt;br&gt;Location: 43244 - 43592" locus_tag="ctg3_42" class="clusterblast-orf" id="dummy-1_q6_0_all"  />
<polygon points="657,35 662,30 724,30 724,40 662,40 657,35 " style="fill:#d81597; stroke-width:1; stroke:black; " description="&lt;b&gt;ctg3_43&lt;/b&gt;&lt;br&gt;ctg3 43&lt;br&gt;Location: 43635 - 44451" locus_tag="ctg3_43" class="clusterblast-orf" id="dummy-1_q7_0_all"  />
<polygon points="727,40 771,40 776,35 771,30 727,30 727,40 " style="fill:#97d815; stroke-width:1; stroke:black; " description="&lt;b&gt;ctg3_44&lt;/b&gt;&lt;br&gt;ctg3 44&lt;br&gt;Location: 44488 - 45085" locus_tag="ctg3_44" class="clusterblast-orf" id="dummy-1_q8_0_all"  />
</g>
<g label="NZ_JAFB01000052" description="NZ_JAFB01000052_c12: Amycolatopsis taiwanensis DSM 45107 A3CUDRAFT scaffold 4... (54% of genes show similarity), ectoine" class="clusterblast-cluster"  >
<text x="5" y="70" class="clusterblast-acc"  >
<a xlink:href="https://antismash-db.secondarymetabolites.org/go/NZ_JAFB01000052/12" target="_blank">NZ_JAFB01000052_c12</a>: Amycolatopsis taiwanensis DSM 45107 A3CUDRAFT scaffold 4... (54% of genes show similarity), ectoine</text>
<line x1="10" y1="85" x2="778.0" y2="85" style="stroke-width:1; stroke:grey; "  />
</g>
<g id="a1_000"  >
<polygon points="0,85 5,80 38,80 38,90 5,90 0,85 " style="fill:white; stroke-width:1; stroke:black; " description="&lt;b&gt;A3CU_RS0132380&lt;/b&gt;&lt;br&gt;DUF1772 domain-containing protein&lt;br&gt;Location: 33912 - 34388" locus_tag="A3CU_RS0132380" class="clusterblast-orf" id="dummy-1_h1_7_0"  />
</g>
<g id="a1_001"  >
<polygon points="44,85 49,80 96,80 96,90 49,90 44,85 " style="fill:white; stroke-width:1; stroke:black; " description="&lt;b&gt;A3CU_RS0132385&lt;/b&gt;&lt;br&gt;TetR/AcrR family transcriptional regulator&lt;br&gt;Location: 34456 - 35091" locus_tag="A3CU_RS0132385" class="clusterblast-orf" id="dummy-1_h1_7_1"  />
</g>
<g id="a1_002"  >
<polygon points="103,90 174,90 179,85 174,80 103,80 103,90 " style="fill:white; stroke-width:1; stroke:black; " description="&lt;b&gt;A3CU_RS0132390&lt;/b&gt;&lt;br&gt;EamA/RhaT family transporter&lt;br&gt;Location: 35185 - 36114" locus_tag="A3CU_RS0132390" class="clusterblast-orf" id="dummy-1_h1_7_2"  />
</g>
<g id="a1_003"  >
<polygon points="183,90 255,90 260,85 255,80 183,80 183,90 " style="fill:white; stroke-width:1; stroke:black; " description="&lt;b&gt;A3CU_RS0132395&lt;/b&gt;&lt;br&gt;AraC family transcriptional regulator&lt;br&gt;Location: 36160 - 37104" locus_tag="A3CU_RS0132395" class="clusterblast-orf" id="dummy-1_h1_7_3"  />
</g>
<g id="a1_004"  >
<polygon points="300,85 305,80 374,80 374,90 305,90 300,85 " style="fill:#15d815; stroke-width:1; stroke:black; " description="&lt;b&gt;A3CU_RS0132400&lt;/b&gt;&lt;br&gt;ectoine hydroxylase&lt;br&gt;Location: 37597 - 38499&lt;br&gt;&lt;br&gt;&lt;b&gt;BlastP hit with ctg3_37&lt;/b&gt;&lt;br&gt;Percentage identity: 86&lt;br&gt;Percentage coverage: 100&lt;br&gt;BLAST bit score: 546&lt;br&gt;E-value: 1.6e-153" locus_tag="A3CU_RS0132400" class="clusterblast-orf" id="dummy-1_h1_7_4"  />
</g>
<g id="a1_005"  >
<polygon points="377,85 382,80 409,80 409,90 382,90 377,85 " style="fill:#1597d8; stroke-width:1; stroke:black; " description="&lt;b&gt;A3CU_RS0132405&lt;/b&gt;&lt;br&gt;L-ectoine synthase&lt;br&gt;Location: 38539 - 38928&lt;br&gt;&lt;br&gt;&lt;b&gt;BlastP hit with ctg3_38&lt;/b&gt;&lt;br&gt;Percentage identity: 87&lt;br&gt;Percentage coverage: 96&lt;br&gt;BLAST bit score: 243&lt;br&gt;E-value: 1.7e-62" locus_tag="A3CU_RS0132405" class="clusterblast-orf" id="dummy-1_h1_7_5"  />
</g>
<g id="a1_006"  >
<polygon points="426,85 431,80 529,80 529,90 431,90 426,85 " style="fill:#9715d8; stroke-width:1; stroke:black; " description="&lt;b&gt;A3CU_RS0132410&lt;/b&gt;&lt;br&gt;diaminobutyrate--2-oxoglutarate transaminase&lt;br&gt;Location: 39146 - 40402&lt;br&gt;&lt;br&gt;&lt;b&gt;BlastP hit with ctg3_39&lt;/b&gt;&lt;br&gt;Percentage identity: 87&lt;br&gt;Percentage coverage: 100&lt;br&gt;BLAST bit score: 753&lt;br&gt;E-value: 1.2e-215" locus_tag="A3CU_RS0132410" class="clusterblast-orf" id="dummy-1_h1_7_6"  />
</g>
<g id="a1_007"  >
<polygon points="532,85 537,80 573,80 573,90 537,90 532,85 " style="fill:#d89715; stroke-width:1; stroke:black; " description="&lt;b&gt;A3CU_RS0132415&lt;/b&gt;&lt;br&gt;diaminobutyrate acetyltransferase&lt;br&gt;Location: 40441 - 40941&lt;br&gt;&lt;br&gt;&lt;b&gt;BlastP hit with ctg3_40&lt;/b&gt;&lt;br&gt;Percentage identity: 80&lt;br&gt;Percentage coverage: 98&lt;br&gt;BLAST bit score: 273&lt;br&gt;E-value: 1.4e-71" locus_tag="A3CU_RS0132415" class="clusterblast-orf" id="dummy-1_h1_7_7"  />
</g>
<g id="a1_008"  >
<polygon points="591,85 596,80 633,80 633,90 596,90 591,85 " style="fill:#15d897; stroke-width:1; stroke:black; " description="&lt;b&gt;A3CU_RS47830&lt;/b&gt;&lt;br&gt;DUF4393 domain-containing protein&lt;br&gt;Location: 41165 - 41680&lt;br&gt;&lt;br&gt;&lt;b&gt;BlastP hit with ctg3_41&lt;/b&gt;&lt;br&gt;Percentage identity: 68&lt;br&gt;Percentage coverage: 62&lt;br&gt;BLAST bit score: 195&lt;br&gt;E-value: 1e-47" locus_tag="A3CU_RS47830" class="clusterblast-orf" id="dummy-1_h1_7_8"  />
</g>
<g id="a1_009"  >
<polygon points="649,85 654,80 676,80 676,90 654,90 649,85 " style="fill:#d81597; stroke-width:1; stroke:black; " description="&lt;b&gt;A3CU_RS50235&lt;/b&gt;&lt;br&gt;hypothetical protein&lt;br&gt;Location: 41880 - 42209&lt;br&gt;&lt;br&gt;&lt;b&gt;BlastP hit with ctg3_43&lt;/b&gt;&lt;br&gt;Percentage identity: 65&lt;br&gt;Percentage coverage: 38&lt;br&gt;BLAST bit score: 142&lt;br&gt;E-value: 6.2e-32" locus_tag="A3CU_RS50235" class="clusterblast-orf" id="dummy-1_h1_7_9"  />
</g>
<g id="a1_0010"  >
<polygon points="730,85 735,80 780,80 780,90 735,90 730,85 " style="fill:white; stroke-width:1; stroke:black; " description="&lt;b&gt;A3CU_RS0132430&lt;/b&gt;&lt;br&gt;phospholipase&lt;br&gt;Location: 42865 - 43476" locus_tag="A3CU_RS0132430" class="clusterblast-orf" id="dummy-1_h1_7_10"  />
</g>
</svg>
