<svg xmlns="http://www.w3.org/2000/svg" xmlns:xlink="http://www.w3.org/1999/xlink" version="1.1" x="0" y="0" height="230" width="800" viewBox="0 0 800 230" preserveAspectRatio="none"  >
<g label="Query sequence" class="clusterblast-cluster"  >
<text x="5" y="20" class="clusterblast-acc"  >
Query sequence</text>
<line x1="10" y1="35" x2="778.0" y2="35" style="stroke-width:1; stroke:grey; "  />
<polygon points="13,40 70,40 75,35 70,30 13,30 13,40 " style="fill:#d81515; stroke-width:1; stroke:black; " description="&lt;b&gt;ctg33_16&lt;/b&gt;&lt;br&gt;ctg33 16&lt;br&gt;Location: 17109 - 17847" locus_tag="ctg33_16" class="clusterblast-orf" id="dummy-1_q0_0_all"  />
<polygon points="81,40 203,40 208,35 203,30 81,30 81,40 " style="fill:#3cd815; stroke-width:1; stroke:black; " description="&lt;b&gt;ctg33_17&lt;/b&gt;&lt;br&gt;ctg33 17&lt;br&gt;Location: 17914 - 19423" locus_tag="ctg33_17" class="clusterblast-orf" id="dummy-1_q1_0_all"  />
<polygon points="209,40 230,40 235,35 230,30 209,30 209,40 " style="fill:#1563d8; stroke-width:1; stroke:black; " description="&lt;b&gt;ctg33_18&lt;/b&gt;&lt;br&gt;ctg33 18&lt;br&gt;Location: 19438 - 19741" locus_tag="ctg33_18" class="clusterblast-orf" id="dummy-1_q2_0_all"  />
<polygon points="236,40 268,40 273,35 268,30 236,30 236,40 " style="fill:#b115d8; stroke-width:1; stroke:black; " description="&lt;b&gt;ctg33_19&lt;/b&gt;&lt;br&gt;ctg33 19&lt;br&gt;Location: 19751 - 20186" locus_tag="ctg33_19" class="clusterblast-orf" id="dummy-1_q3_0_all"  />
<polygon points="279,40 353,40 358,35 353,30 279,30 279,40 " style="fill:#d88a15; stroke-width:1; stroke:black; " description="&lt;b&gt;ctg33_20&lt;/b&gt;&lt;br&gt;ctg33 20&lt;br&gt;Location: 20267 - 21203" locus_tag="ctg33_20" class="clusterblast-orf" id="dummy-1_q4_0_all"  />
<polygon points="355,40 419,40 424,35 419,30 355,30 355,40 " style="fill:#15d863; stroke-width:1; stroke:black; " description="&lt;b&gt;ctg33_21&lt;/b&gt;&lt;br&gt;ctg33 21&lt;br&gt;Location: 21162 - 21984" locus_tag="ctg33_21" class="clusterblast-orf" id="dummy-1_q5_0_all"  />
<polygon points="424,40 447,40 452,35 447,30 424,30 424,40 " style="fill:#3c15d8; stroke-width:1; stroke:black; " description="&lt;b&gt;ctg33_22&lt;/b&gt;&lt;br&gt;ctg33 22&lt;br&gt;Location: 21980 - 22319" locus_tag="ctg33_22" class="clusterblast-orf" id="dummy-1_q6_0_all"  />
<polygon points="480,35 485,30 591,30 591,40 485,40 480,35 " style="fill:#d8158a; stroke-width:1; stroke:black; " description="&lt;b&gt;ctg33_23&lt;/b&gt;&lt;br&gt;ctg33 23&lt;br&gt;Location: 22642 - 23962" locus_tag="ctg33_23" class="clusterblast-orf" id="dummy-1_q7_0_all"  />
<polygon points="591,35 596,30 650,30 650,40 596,40 591,35 " style="fill:#b1d815; stroke-width:1; stroke:black; " description="&lt;b&gt;ctg33_24&lt;/b&gt;&lt;br&gt;ctg33 24&lt;br&gt;Location: 23962 - 24655" locus_tag="ctg33_24" class="clusterblast-orf" id="dummy-1_q8_0_all"  />
<polygon points="652,35 657,30 768,30 768,40 657,40 652,35 " style="fill:#15d8d8; stroke-width:1; stroke:black; " description="&lt;b&gt;ctg33_25&lt;/b&gt;&lt;br&gt;ctg33 25&lt;br&gt;Location: 24688 - 26056" locus_tag="ctg33_25" class="clusterblast-orf" id="dummy-1_q9_0_all"  />
</g>
<g label="NZ_JNYY01000008" description="NZ_JNYY01000008_c15: Amycolatopsis vancoresmycina strain NRRL B-24208 contig8... (90% of genes show similarity), bacteriocin" class="clusterblast-cluster"  >
<text x="5" y="70" class="clusterblast-acc"  >
<a xlink:href="https://antismash-db.secondarymetabolites.org/go/NZ_JNYY01000008/15" target="_blank">NZ_JNYY01000008_c15</a>: Amycolatopsis vancoresmycina strain NRRL B-24208 contig8... (90% of genes show similarity), bacteriocin</text>
<line x1="10" y1="85" x2="778.0" y2="85" style="stroke-width:1; stroke:grey; "  />
</g>
<g id="a1_000"  >
<polygon points="0,90 136,90 141,85 136,80 0,80 0,90 " style="fill:#3cd815; stroke-width:1; stroke:black; " description="&lt;b&gt;OO60_RS20165&lt;/b&gt;&lt;br&gt;serine/threonine protein kinase&lt;br&gt;Location: 69460 - 71136&lt;br&gt;&lt;br&gt;&lt;b&gt;BlastP hit with ctg33_17&lt;/b&gt;&lt;br&gt;Percentage identity: 60&lt;br&gt;Percentage coverage: 108&lt;br&gt;BLAST bit score: 436&lt;br&gt;E-value: 5.1e-120" locus_tag="OO60_RS20165" class="clusterblast-orf" id="dummy-1_h1_3_0"  />
</g>
<g id="a1_001"  >
<polygon points="144,90 166,90 171,85 166,80 144,80 144,90 " style="fill:#1563d8; stroke-width:1; stroke:black; " description="&lt;b&gt;OO60_RS20170&lt;/b&gt;&lt;br&gt;hypothetical protein&lt;br&gt;Location: 71172 - 71495&lt;br&gt;&lt;br&gt;&lt;b&gt;BlastP hit with ctg33_18&lt;/b&gt;&lt;br&gt;Percentage identity: 64&lt;br&gt;Percentage coverage: 89&lt;br&gt;BLAST bit score: 125&lt;br&gt;E-value: 2.9e-27" locus_tag="OO60_RS20170" class="clusterblast-orf" id="dummy-1_h1_3_1"  />
</g>
<g id="a1_002"  >
<polygon points="173,90 203,90 208,85 203,80 173,80 173,90 " style="fill:#b115d8; stroke-width:1; stroke:black; " description="&lt;b&gt;OO60_RS20175&lt;/b&gt;&lt;br&gt;peptide-methionine (R)-S-oxide reductase&lt;br&gt;Location: 71515 - 71937&lt;br&gt;&lt;br&gt;&lt;b&gt;BlastP hit with ctg33_19&lt;/b&gt;&lt;br&gt;Percentage identity: 89&lt;br&gt;Percentage coverage: 96&lt;br&gt;BLAST bit score: 272&lt;br&gt;E-value: 2.8e-71" locus_tag="OO60_RS20175" class="clusterblast-orf" id="dummy-1_h1_3_2"  />
</g>
<g id="a1_003"  >
<polygon points="216,90 287,90 292,85 287,80 216,80 216,90 " style="fill:white; stroke-width:1; stroke:black; " description="&lt;b&gt;OO60_RS45015&lt;/b&gt;&lt;br&gt;TIGR04222 domain-containing membrane protein&lt;br&gt;Location: 72027 - 72926" locus_tag="OO60_RS45015" class="clusterblast-orf" id="dummy-1_h1_3_3"  />
</g>
<g id="a1_004"  >
<polygon points="298,90 370,90 375,85 370,80 298,80 298,90 " style="fill:#d88a15; stroke-width:1; stroke:black; " description="&lt;b&gt;OO60_RS20185&lt;/b&gt;&lt;br&gt;TIGR04222 domain-containing membrane protein&lt;br&gt;Location: 72993 - 73907&lt;br&gt;&lt;br&gt;&lt;b&gt;BlastP hit with ctg33_20&lt;/b&gt;&lt;br&gt;Percentage identity: 33&lt;br&gt;Percentage coverage: 73&lt;br&gt;BLAST bit score: 70&lt;br&gt;E-value: 3.5e-10" locus_tag="OO60_RS20185" class="clusterblast-orf" id="dummy-1_h1_3_4"  />
</g>
<g id="a1_005"  >
<polygon points="374,90 437,90 442,85 437,80 374,80 374,90 " style="fill:#15d863; stroke-width:1; stroke:black; " description="&lt;b&gt;OO60_RS20190&lt;/b&gt;&lt;br&gt;DUF692 domain-containing protein&lt;br&gt;Location: 73900 - 74700&lt;br&gt;&lt;br&gt;&lt;b&gt;BlastP hit with ctg33_21&lt;/b&gt;&lt;br&gt;Percentage identity: 81&lt;br&gt;Percentage coverage: 95&lt;br&gt;BLAST bit score: 421&lt;br&gt;E-value: 7e-116" locus_tag="OO60_RS20190" class="clusterblast-orf" id="dummy-1_h1_3_5"  />
</g>
<g id="a1_006"  >
<polygon points="441,90 465,90 470,85 465,80 441,80 441,90 " style="fill:#3c15d8; stroke-width:1; stroke:black; " description="&lt;b&gt;OO60_RS20195&lt;/b&gt;&lt;br&gt;hypothetical protein&lt;br&gt;Location: 74697 - 75035&lt;br&gt;&lt;br&gt;&lt;b&gt;BlastP hit with ctg33_22&lt;/b&gt;&lt;br&gt;Percentage identity: 50&lt;br&gt;Percentage coverage: 101&lt;br&gt;BLAST bit score: 96&lt;br&gt;E-value: 2.1e-18" locus_tag="OO60_RS20195" class="clusterblast-orf" id="dummy-1_h1_3_6"  />
</g>
<g id="a1_007"  >
<polygon points="479,85 484,80 592,80 592,90 484,90 479,85 " style="fill:#d8158a; stroke-width:1; stroke:black; " description="&lt;b&gt;OO60_RS20200&lt;/b&gt;&lt;br&gt;CoA transferase&lt;br&gt;Location: 75143 - 76483&lt;br&gt;&lt;br&gt;&lt;b&gt;BlastP hit with ctg33_23&lt;/b&gt;&lt;br&gt;Percentage identity: 56&lt;br&gt;Percentage coverage: 100&lt;br&gt;BLAST bit score: 459&lt;br&gt;E-value: 3.7e-127" locus_tag="OO60_RS20200" class="clusterblast-orf" id="dummy-1_h1_3_7"  />
</g>
<g id="a1_008"  >
<polygon points="592,85 597,80 650,80 650,90 597,90 592,85 " style="fill:#b1d815; stroke-width:1; stroke:black; " description="&lt;b&gt;OO60_RS20205&lt;/b&gt;&lt;br&gt;hypothetical protein&lt;br&gt;Location: 76483 - 77175&lt;br&gt;&lt;br&gt;&lt;b&gt;BlastP hit with ctg33_24&lt;/b&gt;&lt;br&gt;Percentage identity: 85&lt;br&gt;Percentage coverage: 100&lt;br&gt;BLAST bit score: 418&lt;br&gt;E-value: 3.8e-115" locus_tag="OO60_RS20205" class="clusterblast-orf" id="dummy-1_h1_3_8"  />
</g>
<g id="a1_009"  >
<polygon points="660,85 665,80 780,80 780,90 665,90 660,85 " style="fill:#15d8d8; stroke-width:1; stroke:black; " description="&lt;b&gt;OO60_RS20210&lt;/b&gt;&lt;br&gt;protoporphyrinogen oxidase&lt;br&gt;Location: 77292 - 78707&lt;br&gt;&lt;br&gt;&lt;b&gt;BlastP hit with ctg33_25&lt;/b&gt;&lt;br&gt;Percentage identity: 66&lt;br&gt;Percentage coverage: 101&lt;br&gt;BLAST bit score: 562&lt;br&gt;E-value: 3.2e-158" locus_tag="OO60_RS20210" class="clusterblast-orf" id="dummy-1_h1_3_9"  />
</g>
</svg>
