<svg xmlns="http://www.w3.org/2000/svg" xmlns:xlink="http://www.w3.org/1999/xlink" version="1.1" x="0" y="0" height="230" width="800" viewBox="0 0 800 230" preserveAspectRatio="none"  >
<g label="Query sequence" class="clusterblast-cluster"  >
<text x="5" y="20" class="clusterblast-acc"  >
Query sequence</text>
<line x1="10" y1="35" x2="778.0" y2="35" style="stroke-width:1; stroke:grey; "  />
<polygon points="12,35 16,30 16,40 12,35 " style="fill:white; stroke-width:1; stroke:black; " description="&lt;b&gt;ctg68_3&lt;/b&gt;&lt;br&gt;ctg68 3&lt;br&gt;Location: 1428 - 1599" locus_tag="ctg68_3" class="clusterblast-orf" id="dummy-1_q0_0_all"  />
<polygon points="24,35 29,30 66,30 66,40 29,40 24,35 " style="fill:#d81515; stroke-width:1; stroke:black; " description="&lt;b&gt;ctg68_4&lt;/b&gt;&lt;br&gt;ctg68 4&lt;br&gt;Location: 2015 - 4208" locus_tag="ctg68_4" class="clusterblast-orf" id="dummy-1_q1_0_all"  />
<polygon points="66,35 71,30 88,30 88,40 71,40 66,35 " style="fill:#6ad815; stroke-width:1; stroke:black; " description="&lt;b&gt;ctg68_5&lt;/b&gt;&lt;br&gt;ctg68 5&lt;br&gt;Location: 4204 - 5329" locus_tag="ctg68_5" class="clusterblast-orf" id="dummy-1_q2_0_all"  />
<polygon points="88,35 93,30 94,30 94,40 93,40 88,35 " style="fill:white; stroke-width:1; stroke:black; " description="&lt;b&gt;ctg68_6&lt;/b&gt;&lt;br&gt;ctg68 6&lt;br&gt;Location: 5328 - 5637" locus_tag="ctg68_6" class="clusterblast-orf" id="dummy-1_q3_0_all"  />
<polygon points="93,35 98,30 98,30 98,40 98,40 93,35 " style="fill:#15bfd8; stroke-width:1; stroke:black; " description="&lt;b&gt;ctg68_7&lt;/b&gt;&lt;br&gt;ctg68 7&lt;br&gt;Location: 5623 - 5878" locus_tag="ctg68_7" class="clusterblast-orf" id="dummy-1_q4_0_all"  />
<polygon points="98,35 103,30 107,30 107,40 103,40 98,35 " style="fill:white; stroke-width:1; stroke:black; " description="&lt;b&gt;ctg68_8&lt;/b&gt;&lt;br&gt;ctg68 8&lt;br&gt;Location: 5877 - 6321" locus_tag="ctg68_8" class="clusterblast-orf" id="dummy-1_q5_0_all"  />
<polygon points="107,35 112,30 112,30 112,40 112,40 107,35 " style="fill:white; stroke-width:1; stroke:black; " description="&lt;b&gt;ctg68_9&lt;/b&gt;&lt;br&gt;ctg68 9&lt;br&gt;Location: 6320 - 6608" locus_tag="ctg68_9" class="clusterblast-orf" id="dummy-1_q6_0_all"  />
<polygon points="115,40 117,40 122,35 117,30 115,30 115,40 " style="fill:white; stroke-width:1; stroke:black; " description="&lt;b&gt;ctg68_10&lt;/b&gt;&lt;br&gt;ctg68 10&lt;br&gt;Location: 6747 - 7104" locus_tag="ctg68_10" class="clusterblast-orf" id="dummy-1_q7_0_all"  />
<polygon points="123,40 123,40 128,35 123,30 123,30 123,40 " style="fill:white; stroke-width:1; stroke:black; " description="&lt;b&gt;ctg68_11&lt;/b&gt;&lt;br&gt;ctg68 11&lt;br&gt;Location: 7161 - 7422" locus_tag="ctg68_11" class="clusterblast-orf" id="dummy-1_q8_0_all"  />
<polygon points="129,40 146,40 151,35 146,30 129,30 129,40 " style="fill:white; stroke-width:1; stroke:black; " description="&lt;b&gt;ctg68_12&lt;/b&gt;&lt;br&gt;ctg68 12&lt;br&gt;Location: 7466 - 8609" locus_tag="ctg68_12" class="clusterblast-orf" id="dummy-1_q9_0_all"  />
<polygon points="151,35 156,30 164,30 164,40 156,40 151,35 " style="fill:white; stroke-width:1; stroke:black; " description="&lt;b&gt;ctg68_13&lt;/b&gt;&lt;br&gt;ctg68 13&lt;br&gt;Location: 8594 - 9296" locus_tag="ctg68_13" class="clusterblast-orf" id="dummy-1_q10_0_all"  />
<polygon points="165,40 180,40 185,35 180,30 165,30 165,40 " style="fill:white; stroke-width:1; stroke:black; " description="&lt;b&gt;ctg68_14&lt;/b&gt;&lt;br&gt;ctg68 14&lt;br&gt;Location: 9343 - 10384" locus_tag="ctg68_14" class="clusterblast-orf" id="dummy-1_q11_0_all"  />
<polygon points="188,40 192,35 188,30 188,40 " style="fill:white; stroke-width:1; stroke:black; " description="&lt;b&gt;ctg68_15&lt;/b&gt;&lt;br&gt;ctg68 15&lt;br&gt;Location: 10516 - 10708" locus_tag="ctg68_15" class="clusterblast-orf" id="dummy-1_q12_0_all"  />
<polygon points="190,35 195,30 208,30 208,40 195,40 190,35 " style="fill:white; stroke-width:1; stroke:black; " description="&lt;b&gt;ctg68_16&lt;/b&gt;&lt;br&gt;ctg68 16&lt;br&gt;Location: 10633 - 11551" locus_tag="ctg68_16" class="clusterblast-orf" id="dummy-1_q13_0_all"  />
<polygon points="208,40 208,40 213,35 208,30 208,30 208,40 " style="fill:white; stroke-width:1; stroke:black; " description="&lt;b&gt;ctg68_17&lt;/b&gt;&lt;br&gt;ctg68 17&lt;br&gt;Location: 11572 - 11800" locus_tag="ctg68_17" class="clusterblast-orf" id="dummy-1_q14_0_all"  />
<polygon points="213,40 216,35 213,30 213,40 " style="fill:white; stroke-width:1; stroke:black; " description="&lt;b&gt;ctg68_18&lt;/b&gt;&lt;br&gt;ctg68 18&lt;br&gt;Location: 11796 - 11991" locus_tag="ctg68_18" class="clusterblast-orf" id="dummy-1_q15_0_all"  />
<polygon points="227,40 227,40 232,35 227,30 227,30 227,40 " style="fill:white; stroke-width:1; stroke:black; " description="&lt;b&gt;ctg68_19&lt;/b&gt;&lt;br&gt;ctg68 19&lt;br&gt;Location: 12546 - 12792" locus_tag="ctg68_19" class="clusterblast-orf" id="dummy-1_q16_0_all"  />
<polygon points="232,35 235,30 235,40 232,35 " style="fill:white; stroke-width:1; stroke:black; " description="&lt;b&gt;ctg68_20&lt;/b&gt;&lt;br&gt;ctg68 20&lt;br&gt;Location: 12788 - 12974" locus_tag="ctg68_20" class="clusterblast-orf" id="dummy-1_q17_0_all"  />
<polygon points="239,35 244,30 248,30 248,40 244,40 239,35 " style="fill:white; stroke-width:1; stroke:black; " description="&lt;b&gt;ctg68_21&lt;/b&gt;&lt;br&gt;ctg68 21&lt;br&gt;Location: 13157 - 13622" locus_tag="ctg68_21" class="clusterblast-orf" id="dummy-1_q18_0_all"  />
<polygon points="250,40 257,40 262,35 257,30 250,30 250,40 " style="fill:white; stroke-width:1; stroke:black; " description="&lt;b&gt;ctg68_22&lt;/b&gt;&lt;br&gt;ctg68 22&lt;br&gt;Location: 13709 - 14369" locus_tag="ctg68_22" class="clusterblast-orf" id="dummy-1_q19_0_all"  />
<polygon points="264,40 267,40 272,35 267,30 264,30 264,40 " style="fill:#9d15d8; stroke-width:1; stroke:black; " description="&lt;b&gt;ctg68_23&lt;/b&gt;&lt;br&gt;ctg68 23&lt;br&gt;Location: 14434 - 14860" locus_tag="ctg68_23" class="clusterblast-orf" id="dummy-1_q20_0_all"  />
<polygon points="274,40 286,40 291,35 286,30 274,30 274,40 " style="fill:white; stroke-width:1; stroke:black; " description="&lt;b&gt;ctg68_24&lt;/b&gt;&lt;br&gt;ctg68 24&lt;br&gt;Location: 14985 - 15846" locus_tag="ctg68_24" class="clusterblast-orf" id="dummy-1_q21_0_all"  />
<polygon points="292,35 297,30 307,30 307,40 297,40 292,35 " style="fill:#d84815; stroke-width:1; stroke:black; " description="&lt;b&gt;ctg68_25&lt;/b&gt;&lt;br&gt;ctg68 25&lt;br&gt;Location: 15892 - 16660" locus_tag="ctg68_25" class="clusterblast-orf" id="dummy-1_q22_0_all"  />
<polygon points="307,40 323,40 328,35 323,30 307,30 307,40 " style="fill:#37d815; stroke-width:1; stroke:black; " description="&lt;b&gt;ctg68_26&lt;/b&gt;&lt;br&gt;ctg68 26&lt;br&gt;Location: 16703 - 17762" locus_tag="ctg68_26" class="clusterblast-orf" id="dummy-1_q23_0_all"  />
<polygon points="327,35 332,30 380,30 380,40 332,40 327,35 " style="fill:#158cd8; stroke-width:1; stroke:black; " description="&lt;b&gt;ctg68_27&lt;/b&gt;&lt;br&gt;ctg68 27&lt;br&gt;Location: 17719 - 20455" locus_tag="ctg68_27" class="clusterblast-orf" id="dummy-1_q24_0_all"  />
<polygon points="384,40 401,40 406,35 401,30 384,30 384,40 " style="fill:#d015d8; stroke-width:1; stroke:black; " description="&lt;b&gt;ctg68_28&lt;/b&gt;&lt;br&gt;ctg68 28&lt;br&gt;Location: 20646 - 21807" locus_tag="ctg68_28" class="clusterblast-orf" id="dummy-1_q25_0_all"  />
<polygon points="407,40 424,40 429,35 424,30 407,30 407,40 " style="fill:#d87b15; stroke-width:1; stroke:black; " description="&lt;b&gt;ctg68_29&lt;/b&gt;&lt;br&gt;ctg68 29&lt;br&gt;Location: 21877 - 23023" locus_tag="ctg68_29" class="clusterblast-orf" id="dummy-1_q26_0_all"  />
<polygon points="430,40 440,40 445,35 440,30 430,30 430,40 " style="fill:#15d826; stroke-width:1; stroke:black; " description="&lt;b&gt;ctg68_30&lt;/b&gt;&lt;br&gt;ctg68 30&lt;br&gt;Location: 23032 - 23809" locus_tag="ctg68_30" class="clusterblast-orf" id="dummy-1_q27_0_all"  />
<polygon points="445,35 450,30 461,30 461,40 450,40 445,35 " style="fill:white; stroke-width:1; stroke:black; " description="&lt;b&gt;ctg68_31&lt;/b&gt;&lt;br&gt;ctg68 31&lt;br&gt;Location: 23805 - 24678" locus_tag="ctg68_31" class="clusterblast-orf" id="dummy-1_q28_0_all"  />
<polygon points="463,40 469,40 474,35 469,30 463,30 463,40 " style="fill:white; stroke-width:1; stroke:black; " description="&lt;b&gt;ctg68_32&lt;/b&gt;&lt;br&gt;ctg68 32&lt;br&gt;Location: 24766 - 25333" locus_tag="ctg68_32" class="clusterblast-orf" id="dummy-1_q29_0_all"  />
<polygon points="476,40 493,40 498,35 493,30 476,30 476,40 " style="fill:#1559d8; stroke-width:1; stroke:black; " description="&lt;b&gt;ctg68_33&lt;/b&gt;&lt;br&gt;ctg68 33&lt;br&gt;Location: 25417 - 26599" locus_tag="ctg68_33" class="clusterblast-orf" id="dummy-1_q30_0_all"  />
<polygon points="502,40 511,40 516,35 511,30 502,30 502,40 " style="fill:#d815ae; stroke-width:1; stroke:black; " description="&lt;b&gt;ctg68_34&lt;/b&gt;&lt;br&gt;ctg68 34&lt;br&gt;Location: 26775 - 27492" locus_tag="ctg68_34" class="clusterblast-orf" id="dummy-1_q31_0_all"  />
<polygon points="516,35 521,30 543,30 543,40 521,40 516,35 " style="fill:#d8ae15; stroke-width:1; stroke:black; " description="&lt;b&gt;ctg68_35&lt;/b&gt;&lt;br&gt;ctg68 35&lt;br&gt;Location: 27526 - 28924" locus_tag="ctg68_35" class="clusterblast-orf" id="dummy-1_q32_0_all"  />
<polygon points="548,40 560,40 565,35 560,30 548,30 548,40 " style="fill:#15d859; stroke-width:1; stroke:black; " description="&lt;b&gt;ctg68_36&lt;/b&gt;&lt;br&gt;ctg68 36&lt;br&gt;Location: 29186 - 30044" locus_tag="ctg68_36" class="clusterblast-orf" id="dummy-1_q33_0_all"  />
<polygon points="566,40 577,40 582,35 577,30 566,30 566,40 " style="fill:#1526d8; stroke-width:1; stroke:black; " description="&lt;b&gt;ctg68_37&lt;/b&gt;&lt;br&gt;ctg68 37&lt;br&gt;Location: 30080 - 30926" locus_tag="ctg68_37" class="clusterblast-orf" id="dummy-1_q34_0_all"  />
<polygon points="585,35 588,30 588,40 585,35 " style="fill:white; stroke-width:1; stroke:black; " description="&lt;b&gt;ctg68_38&lt;/b&gt;&lt;br&gt;ctg68 38&lt;br&gt;Location: 31092 - 31260" locus_tag="ctg68_38" class="clusterblast-orf" id="dummy-1_q35_0_all"  />
<polygon points="588,35 593,30 597,30 597,40 593,40 588,35 " style="fill:#d8157b; stroke-width:1; stroke:black; " description="&lt;b&gt;ctg68_39&lt;/b&gt;&lt;br&gt;ctg68 39&lt;br&gt;Location: 31256 - 31700" locus_tag="ctg68_39" class="clusterblast-orf" id="dummy-1_q36_0_all"  />
<polygon points="600,40 600,40 605,35 600,30 600,30 600,40 " style="fill:#d0d815; stroke-width:1; stroke:black; " description="&lt;b&gt;ctg68_40&lt;/b&gt;&lt;br&gt;ctg68 40&lt;br&gt;Location: 31875 - 32127" locus_tag="ctg68_40" class="clusterblast-orf" id="dummy-1_q37_0_all"  />
<polygon points="607,35 612,30 619,30 619,40 612,40 607,35 " style="fill:#15d88c; stroke-width:1; stroke:black; " description="&lt;b&gt;ctg68_41&lt;/b&gt;&lt;br&gt;ctg68 41&lt;br&gt;Location: 32224 - 32830" locus_tag="ctg68_41" class="clusterblast-orf" id="dummy-1_q38_0_all"  />
<polygon points="621,40 632,40 637,35 632,30 621,30 621,40 " style="fill:#3715d8; stroke-width:1; stroke:black; " description="&lt;b&gt;ctg68_42&lt;/b&gt;&lt;br&gt;ctg68 42&lt;br&gt;Location: 32930 - 33749" locus_tag="ctg68_42" class="clusterblast-orf" id="dummy-1_q39_0_all"  />
<polygon points="636,40 660,40 665,35 660,30 636,30 636,40 " style="fill:#d81548; stroke-width:1; stroke:black; " description="&lt;b&gt;ctg68_43&lt;/b&gt;&lt;br&gt;ctg68 43&lt;br&gt;Location: 33726 - 35223" locus_tag="ctg68_43" class="clusterblast-orf" id="dummy-1_q40_0_all"  />
<polygon points="666,40 685,40 690,35 685,30 666,30 666,40 " style="fill:#9dd815; stroke-width:1; stroke:black; " description="&lt;b&gt;ctg68_44&lt;/b&gt;&lt;br&gt;ctg68 44&lt;br&gt;Location: 35301 - 36537" locus_tag="ctg68_44" class="clusterblast-orf" id="dummy-1_q41_0_all"  />
<polygon points="691,40 721,40 726,35 721,30 691,30 691,40 " style="fill:#15d8bf; stroke-width:1; stroke:black; " description="&lt;b&gt;ctg68_45&lt;/b&gt;&lt;br&gt;ctg68 45&lt;br&gt;Location: 36552 - 38403" locus_tag="ctg68_45" class="clusterblast-orf" id="dummy-1_q42_0_all"  />
<polygon points="733,40 762,40 767,35 762,30 733,30 733,40 " style="fill:#6a15d8; stroke-width:1; stroke:black; " description="&lt;b&gt;ctg68_46&lt;/b&gt;&lt;br&gt;ctg68 46&lt;br&gt;Location: 38751 - 40503" locus_tag="ctg68_46" class="clusterblast-orf" id="dummy-1_q43_0_all"  />
</g>
<g label="NZ_KI421511" description="NZ_KI421511_c12: Amycolatopsis thermoflava N1165 AmythDRAFT Scaffold1.2, whol... (50% of genes show similarity), arylpolyene" class="clusterblast-cluster"  >
<text x="5" y="70" class="clusterblast-acc"  >
<a xlink:href="https://antismash-db.secondarymetabolites.org/go/NZ_KI421511/12" target="_blank">NZ_KI421511_c12</a>: Amycolatopsis thermoflava N1165 AmythDRAFT Scaffold1.2, whol... (50% of genes show similarity), arylpolyene</text>
<line x1="10" y1="85" x2="778.0" y2="85" style="stroke-width:1; stroke:grey; "  />
</g>
<g id="a1_000"  >
<polygon points="0,85 5,80 15,80 15,90 5,90 0,85 " style="fill:white; stroke-width:1; stroke:black; " description="&lt;b&gt;AMYTH_RS46015&lt;/b&gt;&lt;br&gt;hypothetical protein&lt;br&gt;Location: 6256021 - 6256846" locus_tag="AMYTH_RS46015" class="clusterblast-orf" id="dummy-1_h1_2_0"  />
</g>
<g id="a1_001"  >
<polygon points="18,90 22,90 27,85 22,80 18,80 18,90 " style="fill:white; stroke-width:1; stroke:black; " description="&lt;b&gt;AMYTH_RS0130910&lt;/b&gt;&lt;br&gt;hypothetical protein&lt;br&gt;Location: 6256996 - 6257451" locus_tag="AMYTH_RS0130910" class="clusterblast-orf" id="dummy-1_h1_2_1"  />
</g>
<g id="a1_002"  >
<polygon points="29,90 33,85 29,80 29,90 " style="fill:white; stroke-width:1; stroke:black; " description="&lt;b&gt;AMYTH_RS0130915&lt;/b&gt;&lt;br&gt;GntR family transcriptional regulator&lt;br&gt;Location: 6257532 - 6257744" locus_tag="AMYTH_RS0130915" class="clusterblast-orf" id="dummy-1_h1_2_2"  />
</g>
<g id="a1_003"  >
<polygon points="43,90 68,90 73,85 68,80 43,80 43,90 " style="fill:white; stroke-width:1; stroke:black; " description="&lt;b&gt;AMYTH_RS0130920&lt;/b&gt;&lt;br&gt;cell division protein FtsK&lt;br&gt;Location: 6258282 - 6259808" locus_tag="AMYTH_RS0130920" class="clusterblast-orf" id="dummy-1_h1_2_3"  />
</g>
<g id="a1_004"  >
<polygon points="73,90 75,90 80,85 75,80 73,80 73,90 " style="fill:white; stroke-width:1; stroke:black; " description="&lt;b&gt;AMYTH_RS0130925&lt;/b&gt;&lt;br&gt;hypothetical protein&lt;br&gt;Location: 6259805 - 6260194" locus_tag="AMYTH_RS0130925" class="clusterblast-orf" id="dummy-1_h1_2_4"  />
</g>
<g id="a1_005"  >
<polygon points="80,90 106,90 111,85 106,80 80,80 80,90 " style="fill:white; stroke-width:1; stroke:black; " description="&lt;b&gt;AMYTH_RS0130930&lt;/b&gt;&lt;br&gt;hypothetical protein&lt;br&gt;Location: 6260212 - 6261798" locus_tag="AMYTH_RS0130930" class="clusterblast-orf" id="dummy-1_h1_2_5"  />
</g>
<g id="a1_006"  >
<polygon points="111,90 115,85 111,80 111,90 " style="fill:white; stroke-width:1; stroke:black; " description="&lt;b&gt;AMYTH_RS0130935&lt;/b&gt;&lt;br&gt;DNA-binding protein&lt;br&gt;Location: 6261811 - 6262020" locus_tag="AMYTH_RS0130935" class="clusterblast-orf" id="dummy-1_h1_2_6"  />
</g>
<g id="a1_007"  >
<polygon points="115,90 132,90 137,85 132,80 115,80 115,90 " style="fill:white; stroke-width:1; stroke:black; " description="&lt;b&gt;AMYTH_RS0130940&lt;/b&gt;&lt;br&gt;site-specific integrase&lt;br&gt;Location: 6262020 - 6263153" locus_tag="AMYTH_RS0130940" class="clusterblast-orf" id="dummy-1_h1_2_7"  />
</g>
<g id="a1_008"  >
<polygon points="145,90 157,90 162,85 157,80 145,80 145,90 " style="fill:white; stroke-width:1; stroke:black; " description="&lt;b&gt;AMYTH_RS46020&lt;/b&gt;&lt;br&gt;hypothetical protein&lt;br&gt;Location: 6263538 - 6264437" locus_tag="AMYTH_RS46020" class="clusterblast-orf" id="dummy-1_h1_2_8"  />
</g>
<g id="a1_009"  >
<polygon points="162,85 167,80 169,80 169,90 167,90 162,85 " style="fill:white; stroke-width:1; stroke:black; " description="&lt;b&gt;AMYTH_RS46025&lt;/b&gt;&lt;br&gt;TetR family transcriptional regulator&lt;br&gt;Location: 6264442 - 6264783" locus_tag="AMYTH_RS46025" class="clusterblast-orf" id="dummy-1_h1_2_9"  />
</g>
<g id="a1_0010"  >
<polygon points="171,90 175,90 180,85 175,80 171,80 171,90 " style="fill:white; stroke-width:1; stroke:black; " description="&lt;b&gt;AMYTH_RS46030&lt;/b&gt;&lt;br&gt;hypothetical protein&lt;br&gt;Location: 6264898 - 6265362" locus_tag="AMYTH_RS46030" class="clusterblast-orf" id="dummy-1_h1_2_10"  />
</g>
<g id="a1_0011"  >
<polygon points="179,85 184,80 195,80 195,90 184,90 179,85 " style="fill:white; stroke-width:1; stroke:black; " description="&lt;b&gt;AMYTH_RS0130960&lt;/b&gt;&lt;br&gt;class I SAM-dependent methyltransferase&lt;br&gt;Location: 6265338 - 6266132" locus_tag="AMYTH_RS0130960" class="clusterblast-orf" id="dummy-1_h1_2_11"  />
</g>
<g id="a1_0012"  >
<polygon points="195,85 200,80 202,80 202,90 200,90 195,85 " style="fill:white; stroke-width:1; stroke:black; " description="&lt;b&gt;AMYTH_RS0130965&lt;/b&gt;&lt;br&gt;transcriptional regulator&lt;br&gt;Location: 6266138 - 6266503" locus_tag="AMYTH_RS0130965" class="clusterblast-orf" id="dummy-1_h1_2_12"  />
</g>
<g id="a1_0013"  >
<polygon points="203,90 217,90 222,85 217,80 203,80 203,90 " style="fill:white; stroke-width:1; stroke:black; " description="&lt;b&gt;AMYTH_RS0130970&lt;/b&gt;&lt;br&gt;cation transporter&lt;br&gt;Location: 6266581 - 6267534" locus_tag="AMYTH_RS0130970" class="clusterblast-orf" id="dummy-1_h1_2_13"  />
</g>
<g id="a1_0014"  >
<polygon points="232,90 235,90 240,85 235,80 232,80 232,90 " style="fill:#9d15d8; stroke-width:1; stroke:black; " description="&lt;b&gt;AMYTH_RS0130975&lt;/b&gt;&lt;br&gt;hypothetical protein&lt;br&gt;Location: 6268063 - 6268485&lt;br&gt;&lt;br&gt;&lt;b&gt;BlastP hit with ctg68_23&lt;/b&gt;&lt;br&gt;Percentage identity: 76&lt;br&gt;Percentage coverage: 99&lt;br&gt;BLAST bit score: 230&lt;br&gt;E-value: 1.5e-58" locus_tag="AMYTH_RS0130975" class="clusterblast-orf" id="dummy-1_h1_2_14"  />
</g>
<g id="a1_0015"  >
<polygon points="240,90 253,90 258,85 253,80 240,80 240,90 " style="fill:white; stroke-width:1; stroke:black; " description="&lt;b&gt;AMYTH_RS0130980&lt;/b&gt;&lt;br&gt;winged helix DNA-binding domain-containing protein&lt;br&gt;Location: 6268495 - 6269433" locus_tag="AMYTH_RS0130980" class="clusterblast-orf" id="dummy-1_h1_2_15"  />
</g>
<g id="a1_0016"  >
<polygon points="261,90 278,90 283,85 278,80 261,80 261,90 " style="fill:white; stroke-width:1; stroke:black; " description="&lt;b&gt;AMYTH_RS0130985&lt;/b&gt;&lt;br&gt;MFS transporter&lt;br&gt;Location: 6269547 - 6270689" locus_tag="AMYTH_RS0130985" class="clusterblast-orf" id="dummy-1_h1_2_16"  />
</g>
<g id="a1_0017"  >
<polygon points="282,85 287,80 297,80 297,90 287,90 282,85 " style="fill:#d84815; stroke-width:1; stroke:black; " description="&lt;b&gt;AMYTH_RS0130990&lt;/b&gt;&lt;br&gt;flavodoxin family protein&lt;br&gt;Location: 6270633 - 6271454&lt;br&gt;&lt;br&gt;&lt;b&gt;BlastP hit with ctg68_25&lt;/b&gt;&lt;br&gt;Percentage identity: 85&lt;br&gt;Percentage coverage: 100&lt;br&gt;BLAST bit score: 463&lt;br&gt;E-value: 2e-128" locus_tag="AMYTH_RS0130990" class="clusterblast-orf" id="dummy-1_h1_2_17"  />
</g>
<g id="a1_0018"  >
<polygon points="297,90 313,90 318,85 313,80 297,80 297,90 " style="fill:#37d815; stroke-width:1; stroke:black; " description="&lt;b&gt;AMYTH_RS46035&lt;/b&gt;&lt;br&gt;AraC family transcriptional regulator&lt;br&gt;Location: 6271444 - 6272502&lt;br&gt;&lt;br&gt;&lt;b&gt;BlastP hit with ctg68_26&lt;/b&gt;&lt;br&gt;Percentage identity: 90&lt;br&gt;Percentage coverage: 100&lt;br&gt;BLAST bit score: 637&lt;br&gt;E-value: 8e-181" locus_tag="AMYTH_RS46035" class="clusterblast-orf" id="dummy-1_h1_2_18"  />
</g>
<g id="a1_0019"  >
<polygon points="317,85 322,80 370,80 370,90 322,90 317,85 " style="fill:#158cd8; stroke-width:1; stroke:black; " description="&lt;b&gt;AMYTH_RS0131000&lt;/b&gt;&lt;br&gt;GGDEF domain-containing protein&lt;br&gt;Location: 6272460 - 6275192&lt;br&gt;&lt;br&gt;&lt;b&gt;BlastP hit with ctg68_27&lt;/b&gt;&lt;br&gt;Percentage identity: 92&lt;br&gt;Percentage coverage: 100&lt;br&gt;BLAST bit score: 1651&lt;br&gt;E-value: 0.0" locus_tag="AMYTH_RS0131000" class="clusterblast-orf" id="dummy-1_h1_2_19"  />
</g>
<g id="a1_0020"  >
<polygon points="374,90 391,90 396,85 391,80 374,80 374,90 " style="fill:#d015d8; stroke-width:1; stroke:black; " description="&lt;b&gt;AMYTH_RS0131005&lt;/b&gt;&lt;br&gt;3-oxoacyl-ACP synthase&lt;br&gt;Location: 6275401 - 6276546&lt;br&gt;&lt;br&gt;&lt;b&gt;BlastP hit with ctg68_28&lt;/b&gt;&lt;br&gt;Percentage identity: 93&lt;br&gt;Percentage coverage: 99&lt;br&gt;BLAST bit score: 730&lt;br&gt;E-value: 7.6e-209" locus_tag="AMYTH_RS0131005" class="clusterblast-orf" id="dummy-1_h1_2_20"  />
</g>
<g id="a1_0021"  >
<polygon points="398,90 414,90 419,85 414,80 398,80 398,90 " style="fill:#d87b15; stroke-width:1; stroke:black; " description="&lt;b&gt;AMYTH_RS0131010&lt;/b&gt;&lt;br&gt;5-methyltetrahydropteroyltriglutamate-- homocysteine S-methyltransferase&lt;br&gt;Location: 6276637 - 6277761&lt;br&gt;&lt;br&gt;&lt;b&gt;BlastP hit with ctg68_29&lt;/b&gt;&lt;br&gt;Percentage identity: 95&lt;br&gt;Percentage coverage: 98&lt;br&gt;BLAST bit score: 721&lt;br&gt;E-value: 4.6e-206" locus_tag="AMYTH_RS0131010" class="clusterblast-orf" id="dummy-1_h1_2_21"  />
</g>
<g id="a1_0022"  >
<polygon points="419,90 429,90 434,85 429,80 419,80 419,90 " style="fill:#15d826; stroke-width:1; stroke:black; " description="&lt;b&gt;AMYTH_RS0131015&lt;/b&gt;&lt;br&gt;IclR family transcriptional regulator&lt;br&gt;Location: 6277771 - 6278547&lt;br&gt;&lt;br&gt;&lt;b&gt;BlastP hit with ctg68_30&lt;/b&gt;&lt;br&gt;Percentage identity: 95&lt;br&gt;Percentage coverage: 100&lt;br&gt;BLAST bit score: 472&lt;br&gt;E-value: 4.3e-131" locus_tag="AMYTH_RS0131015" class="clusterblast-orf" id="dummy-1_h1_2_22"  />
</g>
<g id="a1_0023"  >
<polygon points="438,85 443,80 448,80 448,90 443,90 438,85 " style="fill:white; stroke-width:1; stroke:black; " description="&lt;b&gt;AMYTH_RS0131020&lt;/b&gt;&lt;br&gt;Rrf2 family transcriptional regulator&lt;br&gt;Location: 6278735 - 6279226" locus_tag="AMYTH_RS0131020" class="clusterblast-orf" id="dummy-1_h1_2_23"  />
</g>
<g id="a1_0024"  >
<polygon points="449,90 458,90 463,85 458,80 449,80 449,90 " style="fill:white; stroke-width:1; stroke:black; " description="&lt;b&gt;AMYTH_RS0131025&lt;/b&gt;&lt;br&gt;NmrA family transcriptional regulator&lt;br&gt;Location: 6279282 - 6280025" locus_tag="AMYTH_RS0131025" class="clusterblast-orf" id="dummy-1_h1_2_24"  />
</g>
<g id="a1_0025"  >
<polygon points="465,90 483,90 488,85 483,80 465,80 465,90 " style="fill:#1559d8; stroke-width:1; stroke:black; " description="&lt;b&gt;AMYTH_RS0131030&lt;/b&gt;&lt;br&gt;4-hydroxybenzoate 3-monooxygenase&lt;br&gt;Location: 6280112 - 6281308&lt;br&gt;&lt;br&gt;&lt;b&gt;BlastP hit with ctg68_33&lt;/b&gt;&lt;br&gt;Percentage identity: 94&lt;br&gt;Percentage coverage: 100&lt;br&gt;BLAST bit score: 761&lt;br&gt;E-value: 5.4e-218" locus_tag="AMYTH_RS0131030" class="clusterblast-orf" id="dummy-1_h1_2_25"  />
</g>
<g id="a1_0026"  >
<polygon points="490,90 490,90 495,85 490,80 490,80 490,90 " style="fill:white; stroke-width:1; stroke:black; " description="&lt;b&gt;AMYTH_RS48185&lt;/b&gt;&lt;br&gt;hypothetical protein&lt;br&gt;Location: 6281430 - 6281687" locus_tag="AMYTH_RS48185" class="clusterblast-orf" id="dummy-1_h1_2_26"  />
</g>
<g id="a1_0027"  >
<polygon points="495,90 504,90 509,85 504,80 495,80 495,90 " style="fill:#d815ae; stroke-width:1; stroke:black; " description="&lt;b&gt;AMYTH_RS0131035&lt;/b&gt;&lt;br&gt;hypothetical protein&lt;br&gt;Location: 6281697 - 6282413&lt;br&gt;&lt;br&gt;&lt;b&gt;BlastP hit with ctg68_34&lt;/b&gt;&lt;br&gt;Percentage identity: 77&lt;br&gt;Percentage coverage: 100&lt;br&gt;BLAST bit score: 374&lt;br&gt;E-value: 8.6e-102" locus_tag="AMYTH_RS0131035" class="clusterblast-orf" id="dummy-1_h1_2_27"  />
</g>
<g id="a1_0028"  >
<polygon points="511,85 516,80 539,80 539,90 516,90 511,85 " style="fill:#d8ae15; stroke-width:1; stroke:black; " description="&lt;b&gt;AMYTH_RS0131040&lt;/b&gt;&lt;br&gt;phosphogluconate dehydrogenase (NADP(+)-dependent, decarboxylating)&lt;br&gt;Location: 6282500 - 6283939&lt;br&gt;&lt;br&gt;&lt;b&gt;BlastP hit with ctg68_35&lt;/b&gt;&lt;br&gt;Percentage identity: 96&lt;br&gt;Percentage coverage: 100&lt;br&gt;BLAST bit score: 901&lt;br&gt;E-value: 3.9e-260" locus_tag="AMYTH_RS0131040" class="clusterblast-orf" id="dummy-1_h1_2_28"  />
</g>
<g id="a1_0029"  >
<polygon points="543,90 554,90 559,85 554,80 543,80 543,90 " style="fill:#15d859; stroke-width:1; stroke:black; " description="&lt;b&gt;AMYTH_RS0131045&lt;/b&gt;&lt;br&gt;XRE family transcriptional regulator&lt;br&gt;Location: 6284159 - 6285016&lt;br&gt;&lt;br&gt;&lt;b&gt;BlastP hit with ctg68_36&lt;/b&gt;&lt;br&gt;Percentage identity: 95&lt;br&gt;Percentage coverage: 100&lt;br&gt;BLAST bit score: 555&lt;br&gt;E-value: 3.2e-156" locus_tag="AMYTH_RS0131045" class="clusterblast-orf" id="dummy-1_h1_2_29"  />
</g>
<g id="a1_0030"  >
<polygon points="560,90 571,90 576,85 571,80 560,80 560,90 " style="fill:#1526d8; stroke-width:1; stroke:black; " description="&lt;b&gt;AMYTH_RS0131050&lt;/b&gt;&lt;br&gt;methyltransferase&lt;br&gt;Location: 6285075 - 6285896&lt;br&gt;&lt;br&gt;&lt;b&gt;BlastP hit with ctg68_37&lt;/b&gt;&lt;br&gt;Percentage identity: 81&lt;br&gt;Percentage coverage: 97&lt;br&gt;BLAST bit score: 462&lt;br&gt;E-value: 3.7e-128" locus_tag="AMYTH_RS0131050" class="clusterblast-orf" id="dummy-1_h1_2_30"  />
</g>
<g id="a1_0031"  >
<polygon points="581,85 586,80 590,80 590,90 586,90 581,85 " style="fill:#d8157b; stroke-width:1; stroke:black; " description="&lt;b&gt;AMYTH_RS47240&lt;/b&gt;&lt;br&gt;hypothetical protein&lt;br&gt;Location: 6286159 - 6286593&lt;br&gt;&lt;br&gt;&lt;b&gt;BlastP hit with ctg68_39&lt;/b&gt;&lt;br&gt;Percentage identity: 84&lt;br&gt;Percentage coverage: 96&lt;br&gt;BLAST bit score: 250&lt;br&gt;E-value: 1.2e-64" locus_tag="AMYTH_RS47240" class="clusterblast-orf" id="dummy-1_h1_2_31"  />
</g>
<g id="a1_0032"  >
<polygon points="594,90 594,90 599,85 594,80 594,80 594,90 " style="fill:#d0d815; stroke-width:1; stroke:black; " description="&lt;b&gt;AMYTH_RS0131065&lt;/b&gt;&lt;br&gt;DUF397 domain-containing protein&lt;br&gt;Location: 6286806 - 6287057&lt;br&gt;&lt;br&gt;&lt;b&gt;BlastP hit with ctg68_40&lt;/b&gt;&lt;br&gt;Percentage identity: 90&lt;br&gt;Percentage coverage: 99&lt;br&gt;BLAST bit score: 158&lt;br&gt;E-value: 4.4e-37" locus_tag="AMYTH_RS0131065" class="clusterblast-orf" id="dummy-1_h1_2_32"  />
</g>
<g id="a1_0033"  >
<polygon points="600,85 605,80 612,80 612,90 605,90 600,85 " style="fill:#15d88c; stroke-width:1; stroke:black; " description="&lt;b&gt;AMYTH_RS0131070&lt;/b&gt;&lt;br&gt;hypothetical protein&lt;br&gt;Location: 6287147 - 6287728&lt;br&gt;&lt;br&gt;&lt;b&gt;BlastP hit with ctg68_41&lt;/b&gt;&lt;br&gt;Percentage identity: 77&lt;br&gt;Percentage coverage: 82&lt;br&gt;BLAST bit score: 179&lt;br&gt;E-value: 4.5e-43" locus_tag="AMYTH_RS0131070" class="clusterblast-orf" id="dummy-1_h1_2_33"  />
</g>
<g id="a1_0034"  >
<polygon points="615,90 625,90 630,85 625,80 615,80 615,90 " style="fill:#3715d8; stroke-width:1; stroke:black; " description="&lt;b&gt;AMYTH_RS0131075&lt;/b&gt;&lt;br&gt;DNA-binding response regulator&lt;br&gt;Location: 6287907 - 6288656&lt;br&gt;&lt;br&gt;&lt;b&gt;BlastP hit with ctg68_42&lt;/b&gt;&lt;br&gt;Percentage identity: 96&lt;br&gt;Percentage coverage: 92&lt;br&gt;BLAST bit score: 468&lt;br&gt;E-value: 6.5e-130" locus_tag="AMYTH_RS0131075" class="clusterblast-orf" id="dummy-1_h1_2_34"  />
</g>
<g id="a1_0035"  >
<polygon points="629,90 653,90 658,85 653,80 629,80 629,90 " style="fill:#d81548; stroke-width:1; stroke:black; " description="&lt;b&gt;AMYTH_RS0131080&lt;/b&gt;&lt;br&gt;two-component sensor histidine kinase&lt;br&gt;Location: 6288634 - 6290139&lt;br&gt;&lt;br&gt;&lt;b&gt;BlastP hit with ctg68_43&lt;/b&gt;&lt;br&gt;Percentage identity: 92&lt;br&gt;Percentage coverage: 101&lt;br&gt;BLAST bit score: 880&lt;br&gt;E-value: 1e-253" locus_tag="AMYTH_RS0131080" class="clusterblast-orf" id="dummy-1_h1_2_35"  />
</g>
<g id="a1_0036"  >
<polygon points="660,90 679,90 684,85 679,80 660,80 660,90 " style="fill:#9dd815; stroke-width:1; stroke:black; " description="&lt;b&gt;AMYTH_RS0131085&lt;/b&gt;&lt;br&gt;sugar translocase&lt;br&gt;Location: 6290219 - 6291454&lt;br&gt;&lt;br&gt;&lt;b&gt;BlastP hit with ctg68_44&lt;/b&gt;&lt;br&gt;Percentage identity: 92&lt;br&gt;Percentage coverage: 100&lt;br&gt;BLAST bit score: 732&lt;br&gt;E-value: 2.1e-209" locus_tag="AMYTH_RS0131085" class="clusterblast-orf" id="dummy-1_h1_2_36"  />
</g>
<g id="a1_0037"  >
<polygon points="684,90 715,90 720,85 715,80 684,80 684,90 " style="fill:#15d8bf; stroke-width:1; stroke:black; " description="&lt;b&gt;AMYTH_RS0131090&lt;/b&gt;&lt;br&gt;glycosyl transferase&lt;br&gt;Location: 6291470 - 6293326&lt;br&gt;&lt;br&gt;&lt;b&gt;BlastP hit with ctg68_45&lt;/b&gt;&lt;br&gt;Percentage identity: 86&lt;br&gt;Percentage coverage: 100&lt;br&gt;BLAST bit score: 985&lt;br&gt;E-value: 2.1e-285" locus_tag="AMYTH_RS0131090" class="clusterblast-orf" id="dummy-1_h1_2_37"  />
</g>
<g id="a1_0038"  >
<polygon points="724,85 729,80 738,80 738,90 729,90 724,85 " style="fill:white; stroke-width:1; stroke:black; " description="&lt;b&gt;AMYTH_RS0131095&lt;/b&gt;&lt;br&gt;class I SAM-dependent methyltransferase&lt;br&gt;Location: 6293557 - 6294267" locus_tag="AMYTH_RS0131095" class="clusterblast-orf" id="dummy-1_h1_2_38"  />
</g>
<g id="a1_0039"  >
<polygon points="739,90 775,90 780,85 775,80 739,80 739,90 " style="fill:#6a15d8; stroke-width:1; stroke:black; " description="&lt;b&gt;AMYTH_RS0131100&lt;/b&gt;&lt;br&gt;DNA polymerase III subunit gamma and tau&lt;br&gt;Location: 6294318 - 6296420&lt;br&gt;&lt;br&gt;&lt;b&gt;BlastP hit with ctg68_46&lt;/b&gt;&lt;br&gt;Percentage identity: 88&lt;br&gt;Percentage coverage: 102&lt;br&gt;BLAST bit score: 905&lt;br&gt;E-value: 3.4e-261" locus_tag="AMYTH_RS0131100" class="clusterblast-orf" id="dummy-1_h1_2_39"  />
</g>
</svg>
