<svg xmlns="http://www.w3.org/2000/svg" xmlns:xlink="http://www.w3.org/1999/xlink" version="1.1" x="0" y="0" height="230" width="800" viewBox="0 0 800 230" preserveAspectRatio="none"  >
<g label="Query sequence" class="clusterblast-cluster"  >
<text x="5" y="20" class="clusterblast-acc"  >
Query sequence</text>
<line x1="10" y1="35" x2="778.0" y2="35" style="stroke-width:1; stroke:grey; "  />
<polygon points="0,35 5,30 21,30 21,40 5,40 0,35 " style="fill:white; stroke-width:1; stroke:black; " description="&lt;b&gt;ctg42_16&lt;/b&gt;&lt;br&gt;ctg42 16&lt;br&gt;Location: 19230 - 19800" locus_tag="ctg42_16" class="clusterblast-orf" id="dummy-1_q0_0_all"  />
<polygon points="25,40 56,40 61,35 56,30 25,30 25,40 " style="fill:white; stroke-width:1; stroke:black; " description="&lt;b&gt;ctg42_17&lt;/b&gt;&lt;br&gt;ctg42 17&lt;br&gt;Location: 19883 - 20843" locus_tag="ctg42_17" class="clusterblast-orf" id="dummy-1_q1_0_all"  />
<polygon points="66,40 125,40 130,35 125,30 66,30 66,40 " style="fill:white; stroke-width:1; stroke:black; " description="&lt;b&gt;ctg42_18&lt;/b&gt;&lt;br&gt;ctg42 18&lt;br&gt;Location: 20966 - 22664" locus_tag="ctg42_18" class="clusterblast-orf" id="dummy-1_q2_0_all"  />
<polygon points="136,35 141,30 153,30 153,40 141,40 136,35 " style="fill:white; stroke-width:1; stroke:black; " description="&lt;b&gt;ctg42_19&lt;/b&gt;&lt;br&gt;ctg42 19&lt;br&gt;Location: 22808 - 23261" locus_tag="ctg42_19" class="clusterblast-orf" id="dummy-1_q3_0_all"  />
<polygon points="155,40 165,40 170,35 165,30 155,30 155,40 " style="fill:#d81515; stroke-width:1; stroke:black; " description="&lt;b&gt;ctg42_20&lt;/b&gt;&lt;br&gt;ctg42 20&lt;br&gt;Location: 23322 - 23718" locus_tag="ctg42_20" class="clusterblast-orf" id="dummy-1_q4_0_all"  />
<polygon points="170,35 175,30 193,30 193,40 175,40 170,35 " style="fill:#77d815; stroke-width:1; stroke:black; " description="&lt;b&gt;ctg42_21&lt;/b&gt;&lt;br&gt;ctg42 21&lt;br&gt;Location: 23719 - 24319" locus_tag="ctg42_21" class="clusterblast-orf" id="dummy-1_q5_0_all"  />
<polygon points="198,35 203,30 230,30 230,40 203,40 198,35 " style="fill:white; stroke-width:1; stroke:black; " description="&lt;b&gt;ctg42_22&lt;/b&gt;&lt;br&gt;ctg42 22&lt;br&gt;Location: 24447 - 25305" locus_tag="ctg42_22" class="clusterblast-orf" id="dummy-1_q6_0_all"  />
<polygon points="236,40 269,40 274,35 269,30 236,30 236,40 " style="fill:#15d8d8; stroke-width:1; stroke:black; " description="&lt;b&gt;ctg42_23&lt;/b&gt;&lt;br&gt;ctg42 23&lt;br&gt;Location: 25451 - 26456" locus_tag="ctg42_23" class="clusterblast-orf" id="dummy-1_q7_0_all"  />
<polygon points="274,35 279,30 308,30 308,40 279,40 274,35 " style="fill:#7715d8; stroke-width:1; stroke:black; " description="&lt;b&gt;ctg42_24&lt;/b&gt;&lt;br&gt;ctg42 24&lt;br&gt;Location: 26452 - 27355" locus_tag="ctg42_24" class="clusterblast-orf" id="dummy-1_q8_0_all"  />
<polygon points="314,40 366,40 371,35 366,30 314,30 314,40 " style="fill:#d87715; stroke-width:1; stroke:black; " description="&lt;b&gt;ctg42_25&lt;/b&gt;&lt;br&gt;ctg42 25&lt;br&gt;Location: 27523 - 29005" locus_tag="ctg42_25" class="clusterblast-orf" id="dummy-1_q9_0_all"  />
<polygon points="370,40 402,40 407,35 402,30 370,30 370,40 " style="fill:#15d815; stroke-width:1; stroke:black; " description="&lt;b&gt;ctg42_26&lt;/b&gt;&lt;br&gt;ctg42 26&lt;br&gt;Location: 29001 - 29964" locus_tag="ctg42_26" class="clusterblast-orf" id="dummy-1_q10_0_all"  />
<polygon points="407,40 415,40 420,35 415,30 407,30 407,40 " style="fill:#1577d8; stroke-width:1; stroke:black; " description="&lt;b&gt;ctg42_27&lt;/b&gt;&lt;br&gt;ctg42 27&lt;br&gt;Location: 29963 - 30299" locus_tag="ctg42_27" class="clusterblast-orf" id="dummy-1_q11_0_all"  />
<polygon points="419,40 427,40 432,35 427,30 419,30 419,40 " style="fill:#d815d8; stroke-width:1; stroke:black; " description="&lt;b&gt;ctg42_28&lt;/b&gt;&lt;br&gt;ctg42 28&lt;br&gt;Location: 30295 - 30619" locus_tag="ctg42_28" class="clusterblast-orf" id="dummy-1_q12_0_all"  />
<polygon points="432,40 454,40 459,35 454,30 432,30 432,40 " style="fill:#d8d815; stroke-width:1; stroke:black; " description="&lt;b&gt;ctg42_29&lt;/b&gt;&lt;br&gt;ctg42 29&lt;br&gt;Location: 30615 - 31350" locus_tag="ctg42_29" class="clusterblast-orf" id="dummy-1_q13_0_all"  />
<polygon points="459,40 511,40 516,35 511,30 459,30 459,40 " style="fill:#15d877; stroke-width:1; stroke:black; " description="&lt;b&gt;ctg42_30&lt;/b&gt;&lt;br&gt;ctg42 30&lt;br&gt;Location: 31346 - 32828" locus_tag="ctg42_30" class="clusterblast-orf" id="dummy-1_q14_0_all"  />
<polygon points="516,40 548,40 553,35 548,30 516,30 516,40 " style="fill:#1515d8; stroke-width:1; stroke:black; " description="&lt;b&gt;ctg42_31&lt;/b&gt;&lt;br&gt;ctg42 31&lt;br&gt;Location: 32830 - 33823" locus_tag="ctg42_31" class="clusterblast-orf" id="dummy-1_q15_0_all"  />
<polygon points="559,40 574,40 579,35 574,30 559,30 559,40 " style="fill:white; stroke-width:1; stroke:black; " description="&lt;b&gt;ctg42_32&lt;/b&gt;&lt;br&gt;ctg42 32&lt;br&gt;Location: 33984 - 34506" locus_tag="ctg42_32" class="clusterblast-orf" id="dummy-1_q16_0_all"  />
<polygon points="580,40 619,40 624,35 619,30 580,30 580,40 " style="fill:white; stroke-width:1; stroke:black; " description="&lt;b&gt;ctg42_33&lt;/b&gt;&lt;br&gt;ctg42 33&lt;br&gt;Location: 34516 - 35680" locus_tag="ctg42_33" class="clusterblast-orf" id="dummy-1_q17_0_all"  />
<polygon points="634,40 634,40 639,35 634,30 634,30 634,40 " style="fill:white; stroke-width:1; stroke:black; " description="&lt;b&gt;ctg42_34&lt;/b&gt;&lt;br&gt;ctg42 34&lt;br&gt;Location: 35947 - 36088" locus_tag="ctg42_34" class="clusterblast-orf" id="dummy-1_q18_0_all"  />
<polygon points="646,35 651,30 676,30 676,40 651,40 646,35 " style="fill:white; stroke-width:1; stroke:black; " description="&lt;b&gt;ctg42_35&lt;/b&gt;&lt;br&gt;ctg42 35&lt;br&gt;Location: 36266 - 37067" locus_tag="ctg42_35" class="clusterblast-orf" id="dummy-1_q19_0_all"  />
<polygon points="681,35 686,30 699,30 699,40 686,40 681,35 " style="fill:white; stroke-width:1; stroke:black; " description="&lt;b&gt;ctg42_36&lt;/b&gt;&lt;br&gt;ctg42 36&lt;br&gt;Location: 37192 - 37672" locus_tag="ctg42_36" class="clusterblast-orf" id="dummy-1_q20_0_all"  />
<polygon points="699,35 704,30 718,30 718,40 704,40 699,35 " style="fill:#d81577; stroke-width:1; stroke:black; " description="&lt;b&gt;ctg42_37&lt;/b&gt;&lt;br&gt;ctg42 37&lt;br&gt;Location: 37672 - 38164" locus_tag="ctg42_37" class="clusterblast-orf" id="dummy-1_q21_0_all"  />
<polygon points="718,35 723,30 735,30 735,40 723,40 718,35 " style="fill:white; stroke-width:1; stroke:black; " description="&lt;b&gt;ctg42_38&lt;/b&gt;&lt;br&gt;ctg42 38&lt;br&gt;Location: 38160 - 38613" locus_tag="ctg42_38" class="clusterblast-orf" id="dummy-1_q22_0_all"  />
<polygon points="733,35 738,30 752,30 752,40 738,40 733,35 " style="fill:white; stroke-width:1; stroke:black; " description="&lt;b&gt;ctg42_39&lt;/b&gt;&lt;br&gt;ctg42 39&lt;br&gt;Location: 38555 - 39062" locus_tag="ctg42_39" class="clusterblast-orf" id="dummy-1_q23_0_all"  />
<polygon points="761,35 766,30 769,30 769,40 766,40 761,35 " style="fill:white; stroke-width:1; stroke:black; " description="&lt;b&gt;ctg42_40&lt;/b&gt;&lt;br&gt;ctg42 40&lt;br&gt;Location: 39297 - 39504" locus_tag="ctg42_40" class="clusterblast-orf" id="dummy-1_q24_0_all"  />
<polygon points="772,40 775,40 780,35 775,30 772,30 772,40 " style="fill:white; stroke-width:1; stroke:black; " description="&lt;b&gt;ctg42_41&lt;/b&gt;&lt;br&gt;ctg42 41&lt;br&gt;Location: 39592 - 39799" locus_tag="ctg42_41" class="clusterblast-orf" id="dummy-1_q25_0_all"  />
</g>
<g label="NZ_CP009110" description="NZ_CP009110_c7: Amycolatopsis methanolica 239, complete genome (52% of genes show similarity), terpene" class="clusterblast-cluster"  >
<text x="5" y="70" class="clusterblast-acc"  >
<a xlink:href="https://antismash-db.secondarymetabolites.org/go/NZ_CP009110/7" target="_blank">NZ_CP009110_c7</a>: Amycolatopsis methanolica 239, complete genome (52% of genes show similarity), terpene</text>
<line x1="10" y1="85" x2="778.0" y2="85" style="stroke-width:1; stroke:grey; "  />
</g>
<g id="a1_000"  >
<polygon points="13,90 23,90 28,85 23,80 13,80 13,90 " style="fill:#d81515; stroke-width:1; stroke:black; " description="&lt;b&gt;AMETH_RS16730&lt;/b&gt;&lt;br&gt;hypothetical protein&lt;br&gt;Location: 3461335 - 3460940&lt;br&gt;&lt;br&gt;&lt;b&gt;BlastP hit with ctg42_20&lt;/b&gt;&lt;br&gt;Percentage identity: 84&lt;br&gt;Percentage coverage: 98&lt;br&gt;BLAST bit score: 228&lt;br&gt;E-value: 3.2e-58" locus_tag="AMETH_RS16730" class="clusterblast-orf" id="dummy-1_h1_1_0"  />
</g>
<g id="a1_001"  >
<polygon points="27,85 32,80 48,80 48,90 32,90 27,85 " style="fill:white; stroke-width:1; stroke:black; " description="&lt;b&gt;AMETH_RS36900&lt;/b&gt;&lt;br&gt;alpha/beta hydrolase&lt;br&gt;Location: 3460958 - 3460405" locus_tag="AMETH_RS36900" class="clusterblast-orf" id="dummy-1_h1_1_1"  />
</g>
<g id="a1_002"  >
<polygon points="48,85 53,80 74,80 74,90 53,90 48,85 " style="fill:white; stroke-width:1; stroke:black; " description="&lt;b&gt;AMETH_RS36895&lt;/b&gt;&lt;br&gt;transporter&lt;br&gt;Location: 3460402 - 3459720" locus_tag="AMETH_RS36895" class="clusterblast-orf" id="dummy-1_h1_1_2"  />
</g>
<g id="a1_003"  >
<polygon points="74,85 79,80 132,80 132,90 79,90 74,85 " style="fill:white; stroke-width:1; stroke:black; " description="&lt;b&gt;AMETH_RS16720&lt;/b&gt;&lt;br&gt;FAD-dependent oxidoreductase&lt;br&gt;Location: 3459715 - 3458179" locus_tag="AMETH_RS16720" class="clusterblast-orf" id="dummy-1_h1_1_3"  />
</g>
<g id="a1_004"  >
<polygon points="132,85 137,80 170,80 170,90 137,90 132,85 " style="fill:white; stroke-width:1; stroke:black; " description="&lt;b&gt;AMETH_RS16715&lt;/b&gt;&lt;br&gt;LacI family transcriptional regulator&lt;br&gt;Location: 3458186 - 3457185" locus_tag="AMETH_RS16715" class="clusterblast-orf" id="dummy-1_h1_1_4"  />
</g>
<g id="a1_005"  >
<polygon points="181,90 210,90 215,85 210,80 181,80 181,90 " style="fill:white; stroke-width:1; stroke:black; " description="&lt;b&gt;AMETH_RS16710&lt;/b&gt;&lt;br&gt;hypothetical protein&lt;br&gt;Location: 3456896 - 3456013" locus_tag="AMETH_RS16710" class="clusterblast-orf" id="dummy-1_h1_1_5"  />
</g>
<g id="a1_006"  >
<polygon points="214,85 219,80 237,80 237,90 219,90 214,85 " style="fill:#77d815; stroke-width:1; stroke:black; " description="&lt;b&gt;AMETH_RS16705&lt;/b&gt;&lt;br&gt;hypothetical protein&lt;br&gt;Location: 3456016 - 3455420&lt;br&gt;&lt;br&gt;&lt;b&gt;BlastP hit with ctg42_21&lt;/b&gt;&lt;br&gt;Percentage identity: 53&lt;br&gt;Percentage coverage: 98&lt;br&gt;BLAST bit score: 181&lt;br&gt;E-value: 1.2e-43" locus_tag="AMETH_RS16705" class="clusterblast-orf" id="dummy-1_h1_1_6"  />
</g>
<g id="a1_007"  >
<polygon points="249,90 282,90 287,85 282,80 249,80 249,90 " style="fill:#15d8d8; stroke-width:1; stroke:black; " description="&lt;b&gt;AMETH_RS16700&lt;/b&gt;&lt;br&gt;glycoside hydrolase&lt;br&gt;Location: 3455095 - 3454091&lt;br&gt;&lt;br&gt;&lt;b&gt;BlastP hit with ctg42_23&lt;/b&gt;&lt;br&gt;Percentage identity: 82&lt;br&gt;Percentage coverage: 100&lt;br&gt;BLAST bit score: 562&lt;br&gt;E-value: 2.4e-158" locus_tag="AMETH_RS16700" class="clusterblast-orf" id="dummy-1_h1_1_7"  />
</g>
<g id="a1_008"  >
<polygon points="287,85 292,80 323,80 323,90 292,90 287,85 " style="fill:#7715d8; stroke-width:1; stroke:black; " description="&lt;b&gt;AMETH_RS16695&lt;/b&gt;&lt;br&gt;carboxyvinyl-carboxyphosphonate phosphorylmutase&lt;br&gt;Location: 3454094 - 3453153&lt;br&gt;&lt;br&gt;&lt;b&gt;BlastP hit with ctg42_24&lt;/b&gt;&lt;br&gt;Percentage identity: 89&lt;br&gt;Percentage coverage: 100&lt;br&gt;BLAST bit score: 522&lt;br&gt;E-value: 2.5e-146" locus_tag="AMETH_RS16695" class="clusterblast-orf" id="dummy-1_h1_1_8"  />
</g>
<g id="a1_009"  >
<polygon points="327,90 379,90 384,85 379,80 327,80 327,90 " style="fill:#d87715; stroke-width:1; stroke:black; " description="&lt;b&gt;AMETH_RS16690&lt;/b&gt;&lt;br&gt;phytoene desaturase&lt;br&gt;Location: 3453053 - 3451554&lt;br&gt;&lt;br&gt;&lt;b&gt;BlastP hit with ctg42_25&lt;/b&gt;&lt;br&gt;Percentage identity: 89&lt;br&gt;Percentage coverage: 100&lt;br&gt;BLAST bit score: 880&lt;br&gt;E-value: 9.9e-254" locus_tag="AMETH_RS16690" class="clusterblast-orf" id="dummy-1_h1_1_9"  />
</g>
<g id="a1_0010"  >
<polygon points="383,90 415,90 420,85 415,80 383,80 383,90 " style="fill:#15d815; stroke-width:1; stroke:black; " description="&lt;b&gt;AMETH_RS16685&lt;/b&gt;&lt;br&gt;phytoene/squalene synthase family protein&lt;br&gt;Location: 3451557 - 3450595&lt;br&gt;&lt;br&gt;&lt;b&gt;BlastP hit with ctg42_26&lt;/b&gt;&lt;br&gt;Percentage identity: 90&lt;br&gt;Percentage coverage: 100&lt;br&gt;BLAST bit score: 564&lt;br&gt;E-value: 1e-158" locus_tag="AMETH_RS16685" class="clusterblast-orf" id="dummy-1_h1_1_10"  />
</g>
<g id="a1_0011"  >
<polygon points="420,90 428,90 433,85 428,80 420,80 420,90 " style="fill:#1577d8; stroke-width:1; stroke:black; " description="&lt;b&gt;AMETH_RS16680&lt;/b&gt;&lt;br&gt;lycopene cyclase domain-containing protein&lt;br&gt;Location: 3450594 - 3450259&lt;br&gt;&lt;br&gt;&lt;b&gt;BlastP hit with ctg42_27&lt;/b&gt;&lt;br&gt;Percentage identity: 88&lt;br&gt;Percentage coverage: 100&lt;br&gt;BLAST bit score: 198&lt;br&gt;E-value: 3e-49" locus_tag="AMETH_RS16680" class="clusterblast-orf" id="dummy-1_h1_1_11"  />
</g>
<g id="a1_0012"  >
<polygon points="433,90 440,90 445,85 440,80 433,80 433,90 " style="fill:#d815d8; stroke-width:1; stroke:black; " description="&lt;b&gt;AMETH_RS16675&lt;/b&gt;&lt;br&gt;lycopene cyclase domain-containing protein&lt;br&gt;Location: 3450262 - 3449945&lt;br&gt;&lt;br&gt;&lt;b&gt;BlastP hit with ctg42_28&lt;/b&gt;&lt;br&gt;Percentage identity: 94&lt;br&gt;Percentage coverage: 93&lt;br&gt;BLAST bit score: 198&lt;br&gt;E-value: 2.9e-49" locus_tag="AMETH_RS16675" class="clusterblast-orf" id="dummy-1_h1_1_12"  />
</g>
<g id="a1_0013"  >
<polygon points="445,90 467,90 472,85 467,80 445,80 445,90 " style="fill:#d8d815; stroke-width:1; stroke:black; " description="&lt;b&gt;AMETH_RS16670&lt;/b&gt;&lt;br&gt;ubiquinone biosynthesis methyltransferase UbiE&lt;br&gt;Location: 3449948 - 3449214&lt;br&gt;&lt;br&gt;&lt;b&gt;BlastP hit with ctg42_29&lt;/b&gt;&lt;br&gt;Percentage identity: 92&lt;br&gt;Percentage coverage: 100&lt;br&gt;BLAST bit score: 455&lt;br&gt;E-value: 3.9e-126" locus_tag="AMETH_RS16670" class="clusterblast-orf" id="dummy-1_h1_1_13"  />
</g>
<g id="a1_0014"  >
<polygon points="472,90 524,90 529,85 524,80 472,80 472,90 " style="fill:#15d877; stroke-width:1; stroke:black; " description="&lt;b&gt;AMETH_RS16665&lt;/b&gt;&lt;br&gt;isorenieratene synthase&lt;br&gt;Location: 3449217 - 3447715&lt;br&gt;&lt;br&gt;&lt;b&gt;BlastP hit with ctg42_30&lt;/b&gt;&lt;br&gt;Percentage identity: 85&lt;br&gt;Percentage coverage: 102&lt;br&gt;BLAST bit score: 837&lt;br&gt;E-value: 9.7e-241" locus_tag="AMETH_RS16665" class="clusterblast-orf" id="dummy-1_h1_1_14"  />
</g>
<g id="a1_0015"  >
<polygon points="529,90 561,90 566,85 561,80 529,80 529,90 " style="fill:#1515d8; stroke-width:1; stroke:black; " description="&lt;b&gt;AMETH_RS16660&lt;/b&gt;&lt;br&gt;(2Fe-2S) ferredoxin&lt;br&gt;Location: 3447713 - 3446739&lt;br&gt;&lt;br&gt;&lt;b&gt;BlastP hit with ctg42_31&lt;/b&gt;&lt;br&gt;Percentage identity: 88&lt;br&gt;Percentage coverage: 97&lt;br&gt;BLAST bit score: 599&lt;br&gt;E-value: 3e-169" locus_tag="AMETH_RS16660" class="clusterblast-orf" id="dummy-1_h1_1_15"  />
</g>
<g id="a1_0016"  >
<polygon points="569,85 574,80 583,80 583,90 574,90 569,85 " style="fill:white; stroke-width:1; stroke:black; " description="&lt;b&gt;AMETH_RS16655&lt;/b&gt;&lt;br&gt;LysR family transcriptional regulator&lt;br&gt;Location: 3446661 - 3446287" locus_tag="AMETH_RS16655" class="clusterblast-orf" id="dummy-1_h1_1_16"  />
</g>
<g id="a1_0017"  >
<polygon points="611,90 631,90 636,85 631,80 611,80 611,90 " style="fill:white; stroke-width:1; stroke:black; " description="&lt;b&gt;AMETH_RS16650&lt;/b&gt;&lt;br&gt;DUF4241 domain-containing protein&lt;br&gt;Location: 3445558 - 3444896" locus_tag="AMETH_RS16650" class="clusterblast-orf" id="dummy-1_h1_1_17"  />
</g>
<g id="a1_0018"  >
<polygon points="636,85 641,80 713,80 713,90 641,90 636,85 " style="fill:white; stroke-width:1; stroke:black; " description="&lt;b&gt;AMETH_RS16645&lt;/b&gt;&lt;br&gt;hypothetical protein&lt;br&gt;Location: 3444902 - 3442857" locus_tag="AMETH_RS16645" class="clusterblast-orf" id="dummy-1_h1_1_18"  />
</g>
<g id="a1_0019"  >
<polygon points="735,90 742,90 747,85 742,80 735,80 735,90 " style="fill:white; stroke-width:1; stroke:black; " description="&lt;b&gt;AMETH_RS16640&lt;/b&gt;&lt;br&gt;DUF1540 domain-containing protein&lt;br&gt;Location: 3442284 - 3441982" locus_tag="AMETH_RS16640" class="clusterblast-orf" id="dummy-1_h1_1_19"  />
</g>
<g id="a1_0020"  >
<polygon points="752,90 761,90 766,85 761,80 752,80 752,90 " style="fill:white; stroke-width:1; stroke:black; " description="&lt;b&gt;AMETH_RS16635&lt;/b&gt;&lt;br&gt;hypothetical protein&lt;br&gt;Location: 3441836 - 3441462" locus_tag="AMETH_RS16635" class="clusterblast-orf" id="dummy-1_h1_1_20"  />
</g>
</svg>
