<svg xmlns="http://www.w3.org/2000/svg" xmlns:xlink="http://www.w3.org/1999/xlink" version="1.1" x="0" y="0" height="230" width="800" viewBox="0 0 800 230" preserveAspectRatio="none"  >
<g label="Query sequence" class="clusterblast-cluster"  >
<text x="5" y="20" class="clusterblast-acc"  >
Query sequence</text>
<line x1="10" y1="35" x2="778.0" y2="35" style="stroke-width:1; stroke:grey; "  />
<polygon points="228,35 232,30 232,40 228,35 " style="fill:white; stroke-width:1; stroke:black; " description="&lt;b&gt;ctg28_1&lt;/b&gt;&lt;br&gt;ctg28 1&lt;br&gt;Location: 0 - 228" locus_tag="ctg28_1" class="clusterblast-orf" id="dummy-1_q0_0_all"  />
<polygon points="233,40 240,40 245,35 240,30 233,30 233,40 " style="fill:white; stroke-width:1; stroke:black; " description="&lt;b&gt;ctg28_2&lt;/b&gt;&lt;br&gt;ctg28 2&lt;br&gt;Location: 273 - 906" locus_tag="ctg28_2" class="clusterblast-orf" id="dummy-1_q1_0_all"  />
<polygon points="245,40 248,40 253,35 248,30 245,30 245,40 " style="fill:white; stroke-width:1; stroke:black; " description="&lt;b&gt;ctg28_3&lt;/b&gt;&lt;br&gt;ctg28 3&lt;br&gt;Location: 902 - 1358" locus_tag="ctg28_3" class="clusterblast-orf" id="dummy-1_q2_0_all"  />
<polygon points="253,35 258,30 271,30 271,40 258,40 253,35 " style="fill:#d81515; stroke-width:1; stroke:black; " description="&lt;b&gt;ctg28_4&lt;/b&gt;&lt;br&gt;ctg28 4&lt;br&gt;Location: 1362 - 2313" locus_tag="ctg28_4" class="clusterblast-orf" id="dummy-1_q3_0_all"  />
<polygon points="271,35 276,30 301,30 301,40 276,40 271,35 " style="fill:#77d815; stroke-width:1; stroke:black; " description="&lt;b&gt;ctg28_5&lt;/b&gt;&lt;br&gt;ctg28 5&lt;br&gt;Location: 2309 - 3920" locus_tag="ctg28_5" class="clusterblast-orf" id="dummy-1_q4_0_all"  />
<polygon points="301,35 306,30 315,30 315,40 306,40 301,35 " style="fill:#15d8d8; stroke-width:1; stroke:black; " description="&lt;b&gt;ctg28_6&lt;/b&gt;&lt;br&gt;ctg28 6&lt;br&gt;Location: 3925 - 4675" locus_tag="ctg28_6" class="clusterblast-orf" id="dummy-1_q5_0_all"  />
<polygon points="315,35 320,30 337,30 337,40 320,40 315,35 " style="fill:#7715d8; stroke-width:1; stroke:black; " description="&lt;b&gt;ctg28_7&lt;/b&gt;&lt;br&gt;ctg28 7&lt;br&gt;Location: 4676 - 5867" locus_tag="ctg28_7" class="clusterblast-orf" id="dummy-1_q6_0_all"  />
<polygon points="337,35 342,30 351,30 351,40 342,40 337,35 " style="fill:#15d8d8; stroke-width:1; stroke:black; " description="&lt;b&gt;ctg28_8&lt;/b&gt;&lt;br&gt;ctg28 8&lt;br&gt;Location: 5863 - 6598" locus_tag="ctg28_8" class="clusterblast-orf" id="dummy-1_q7_0_all"  />
<polygon points="350,35 355,30 368,30 368,40 355,40 350,35 " style="fill:#d8a715; stroke-width:1; stroke:black; " description="&lt;b&gt;ctg28_9&lt;/b&gt;&lt;br&gt;ctg28 9&lt;br&gt;Location: 6590 - 7517" locus_tag="ctg28_9" class="clusterblast-orf" id="dummy-1_q8_0_all"  />
<polygon points="369,35 374,30 378,30 378,40 374,40 369,35 " style="fill:#15d846; stroke-width:1; stroke:black; " description="&lt;b&gt;ctg28_10&lt;/b&gt;&lt;br&gt;ctg28 10&lt;br&gt;Location: 7581 - 8097" locus_tag="ctg28_10" class="clusterblast-orf" id="dummy-1_q9_0_all"  />
<polygon points="380,40 399,40 404,35 399,30 380,30 380,40 " style="fill:#1546d8; stroke-width:1; stroke:black; " description="&lt;b&gt;ctg28_11&lt;/b&gt;&lt;br&gt;ctg28 11&lt;br&gt;Location: 8163 - 9498" locus_tag="ctg28_11" class="clusterblast-orf" id="dummy-1_q10_0_all"  />
<polygon points="406,40 411,40 416,35 411,30 406,30 406,40 " style="fill:white; stroke-width:1; stroke:black; " description="&lt;b&gt;ctg28_12&lt;/b&gt;&lt;br&gt;ctg28 12&lt;br&gt;Location: 9580 - 10147" locus_tag="ctg28_12" class="clusterblast-orf" id="dummy-1_q11_0_all"  />
<polygon points="417,40 423,40 428,35 423,30 417,30 417,40 " style="fill:white; stroke-width:1; stroke:black; " description="&lt;b&gt;ctg28_13&lt;/b&gt;&lt;br&gt;ctg28 13&lt;br&gt;Location: 10182 - 10761" locus_tag="ctg28_13" class="clusterblast-orf" id="dummy-1_q12_0_all"  />
<polygon points="428,35 433,30 435,30 435,40 433,40 428,35 " style="fill:white; stroke-width:1; stroke:black; " description="&lt;b&gt;ctg28_14&lt;/b&gt;&lt;br&gt;ctg28 14&lt;br&gt;Location: 10764 - 11163" locus_tag="ctg28_14" class="clusterblast-orf" id="dummy-1_q13_0_all"  />
<polygon points="450,35 455,30 459,30 459,40 455,40 450,35 " style="fill:white; stroke-width:1; stroke:black; " description="&lt;b&gt;ctg28_15&lt;/b&gt;&lt;br&gt;ctg28 15&lt;br&gt;Location: 11945 - 12437" locus_tag="ctg28_15" class="clusterblast-orf" id="dummy-1_q14_0_all"  />
<polygon points="461,40 468,40 473,35 468,30 461,30 461,40 " style="fill:white; stroke-width:1; stroke:black; " description="&lt;b&gt;ctg28_16&lt;/b&gt;&lt;br&gt;ctg28 16&lt;br&gt;Location: 12553 - 13216" locus_tag="ctg28_16" class="clusterblast-orf" id="dummy-1_q15_0_all"  />
<polygon points="473,35 478,30 486,30 486,40 478,40 473,35 " style="fill:white; stroke-width:1; stroke:black; " description="&lt;b&gt;ctg28_17&lt;/b&gt;&lt;br&gt;ctg28 17&lt;br&gt;Location: 13216 - 13882" locus_tag="ctg28_17" class="clusterblast-orf" id="dummy-1_q16_0_all"  />
<polygon points="487,40 504,40 509,35 504,30 487,30 487,40 " style="fill:white; stroke-width:1; stroke:black; " description="&lt;b&gt;ctg28_18&lt;/b&gt;&lt;br&gt;ctg28 18&lt;br&gt;Location: 13938 - 15120" locus_tag="ctg28_18" class="clusterblast-orf" id="dummy-1_q17_0_all"  />
<polygon points="508,40 516,40 521,35 516,30 508,30 508,40 " style="fill:#d815a7; stroke-width:1; stroke:black; " description="&lt;b&gt;ctg28_19&lt;/b&gt;&lt;br&gt;ctg28 19&lt;br&gt;Location: 15107 - 15788" locus_tag="ctg28_19" class="clusterblast-orf" id="dummy-1_q18_0_all"  />
<polygon points="523,40 546,40 551,35 546,30 523,30 523,40 " style="fill:white; stroke-width:1; stroke:black; " description="&lt;b&gt;ctg28_20&lt;/b&gt;&lt;br&gt;ctg28 20&lt;br&gt;Location: 15866 - 17411" locus_tag="ctg28_20" class="clusterblast-orf" id="dummy-1_q19_0_all"  />
</g>
<g label="NZ_CP024894" description="NZ_CP024894_c11: Amycolatopsis sp. AA4 chromosome, complete genome (25% of genes show similarity), other" class="clusterblast-cluster"  >
<text x="5" y="70" class="clusterblast-acc"  >
<a xlink:href="https://antismash-db.secondarymetabolites.org/go/NZ_CP024894/11" target="_blank">NZ_CP024894_c11</a>: Amycolatopsis sp. AA4 chromosome, complete genome (25% of genes show similarity), other</text>
<line x1="10" y1="85" x2="778.0" y2="85" style="stroke-width:1; stroke:grey; "  />
</g>
<g id="a1_000"  >
<polygon points="0,90 3,90 8,85 3,80 0,80 0,90 " style="fill:white; stroke-width:1; stroke:black; " description="&lt;b&gt;CU254_RS14415&lt;/b&gt;&lt;br&gt;hypothetical protein&lt;br&gt;Location: 3060299 - 3060778" locus_tag="CU254_RS14415" class="clusterblast-orf" id="dummy-1_h1_6_0"  />
</g>
<g id="a1_001"  >
<polygon points="11,90 12,90 17,85 12,80 11,80 11,90 " style="fill:white; stroke-width:1; stroke:black; " description="&lt;b&gt;CU254_RS14420&lt;/b&gt;&lt;br&gt;isochorismate synthase&lt;br&gt;Location: 3060931 - 3061218" locus_tag="CU254_RS14420" class="clusterblast-orf" id="dummy-1_h1_6_1"  />
</g>
<g id="a1_002"  >
<polygon points="18,90 32,90 37,85 32,80 18,80 18,90 " style="fill:white; stroke-width:1; stroke:black; " description="&lt;b&gt;CU254_RS14425&lt;/b&gt;&lt;br&gt;isochorismate synthase&lt;br&gt;Location: 3061297 - 3062331" locus_tag="CU254_RS14425" class="clusterblast-orf" id="dummy-1_h1_6_2"  />
</g>
<g id="a1_003"  >
<polygon points="37,90 41,85 37,80 37,90 " style="fill:white; stroke-width:1; stroke:black; " description="&lt;b&gt;CU254_RS14430&lt;/b&gt;&lt;br&gt;3-deoxy-7-phosphoheptulonate synthase&lt;br&gt;Location: 3062312 - 3062521" locus_tag="CU254_RS14430" class="clusterblast-orf" id="dummy-1_h1_6_3"  />
</g>
<g id="a1_004"  >
<polygon points="42,85 47,80 58,80 58,90 47,90 42,85 " style="fill:white; stroke-width:1; stroke:black; " description="&lt;b&gt;CU254_RS14435&lt;/b&gt;&lt;br&gt;transcriptional regulator&lt;br&gt;Location: 3062613 - 3063443" locus_tag="CU254_RS14435" class="clusterblast-orf" id="dummy-1_h1_6_4"  />
</g>
<g id="a1_005"  >
<polygon points="62,90 87,90 92,85 87,80 62,80 62,90 " style="fill:white; stroke-width:1; stroke:black; " description="&lt;b&gt;CU254_RS14440&lt;/b&gt;&lt;br&gt;AMP-dependent synthetase&lt;br&gt;Location: 3063655 - 3065283" locus_tag="CU254_RS14440" class="clusterblast-orf" id="dummy-1_h1_6_5"  />
</g>
<g id="a1_006"  >
<polygon points="93,90 104,90 109,85 104,80 93,80 93,90 " style="fill:white; stroke-width:1; stroke:black; " description="&lt;b&gt;CU254_RS14445&lt;/b&gt;&lt;br&gt;short-chain dehydrogenase&lt;br&gt;Location: 3065315 - 3066202" locus_tag="CU254_RS14445" class="clusterblast-orf" id="dummy-1_h1_6_6"  />
</g>
<g id="a1_007"  >
<polygon points="109,85 114,80 120,80 120,90 114,90 109,85 " style="fill:white; stroke-width:1; stroke:black; " description="&lt;b&gt;CU254_RS14450&lt;/b&gt;&lt;br&gt;hypothetical protein&lt;br&gt;Location: 3066199 - 3066777" locus_tag="CU254_RS14450" class="clusterblast-orf" id="dummy-1_h1_6_7"  />
</g>
<g id="a1_008"  >
<polygon points="121,90 128,90 133,85 128,80 121,80 121,90 " style="fill:white; stroke-width:1; stroke:black; " description="&lt;b&gt;CU254_RS14455&lt;/b&gt;&lt;br&gt;hypothetical protein&lt;br&gt;Location: 3066823 - 3067467" locus_tag="CU254_RS14455" class="clusterblast-orf" id="dummy-1_h1_6_8"  />
</g>
<g id="a1_009"  >
<polygon points="133,85 138,80 147,80 147,90 138,90 133,85 " style="fill:white; stroke-width:1; stroke:black; " description="&lt;b&gt;CU254_RS14460&lt;/b&gt;&lt;br&gt;hypothetical protein&lt;br&gt;Location: 3067482 - 3068237" locus_tag="CU254_RS14460" class="clusterblast-orf" id="dummy-1_h1_6_9"  />
</g>
<g id="a1_0010"  >
<polygon points="156,85 161,80 173,80 173,90 161,90 156,85 " style="fill:#d81515; stroke-width:1; stroke:black; " description="&lt;b&gt;CU254_RS14470&lt;/b&gt;&lt;br&gt;2-nitropropane dioxygenase&lt;br&gt;Location: 3068707 - 3069654&lt;br&gt;&lt;br&gt;&lt;b&gt;BlastP hit with ctg28_4&lt;/b&gt;&lt;br&gt;Percentage identity: 70&lt;br&gt;Percentage coverage: 98&lt;br&gt;BLAST bit score: 394&lt;br&gt;E-value: 1.4e-107" locus_tag="CU254_RS14470" class="clusterblast-orf" id="dummy-1_h1_6_10"  />
</g>
<g id="a1_0011"  >
<polygon points="173,85 178,80 202,80 202,90 178,90 173,85 " style="fill:#77d815; stroke-width:1; stroke:black; " description="&lt;b&gt;CU254_RS14475&lt;/b&gt;&lt;br&gt;fatty-acid--CoA ligase&lt;br&gt;Location: 3069654 - 3071225&lt;br&gt;&lt;br&gt;&lt;b&gt;BlastP hit with ctg28_5&lt;/b&gt;&lt;br&gt;Percentage identity: 63&lt;br&gt;Percentage coverage: 99&lt;br&gt;BLAST bit score: 647&lt;br&gt;E-value: 1.5e-183" locus_tag="CU254_RS14475" class="clusterblast-orf" id="dummy-1_h1_6_11"  />
</g>
<g id="a1_0012"  >
<polygon points="202,85 207,80 216,80 216,90 207,90 202,85 " style="fill:#15d8d8; stroke-width:1; stroke:black; " description="&lt;b&gt;CU254_RS14480&lt;/b&gt;&lt;br&gt;enoyl-CoA hydratase/isomerase family protein&lt;br&gt;Location: 3071222 - 3071962&lt;br&gt;&lt;br&gt;&lt;b&gt;BlastP hit with ctg28_6&lt;/b&gt;&lt;br&gt;Percentage identity: 65&lt;br&gt;Percentage coverage: 96&lt;br&gt;BLAST bit score: 287&lt;br&gt;E-value: 1.1e-75&lt;br&gt;&lt;br&gt;&lt;b&gt;BlastP hit with ctg28_8&lt;/b&gt;&lt;br&gt;Percentage identity: 39&lt;br&gt;Percentage coverage: 85&lt;br&gt;BLAST bit score: 97&lt;br&gt;E-value: 2.7e-18" locus_tag="CU254_RS14480" class="clusterblast-orf" id="dummy-1_h1_6_12"  />
</g>
<g id="a1_0013"  >
<polygon points="216,85 221,80 238,80 238,90 221,90 216,85 " style="fill:#7715d8; stroke-width:1; stroke:black; " description="&lt;b&gt;CU254_RS14485&lt;/b&gt;&lt;br&gt;CoA transferase&lt;br&gt;Location: 3071962 - 3073152&lt;br&gt;&lt;br&gt;&lt;b&gt;BlastP hit with ctg28_7&lt;/b&gt;&lt;br&gt;Percentage identity: 69&lt;br&gt;Percentage coverage: 100&lt;br&gt;BLAST bit score: 547&lt;br&gt;E-value: 1.2e-153" locus_tag="CU254_RS14485" class="clusterblast-orf" id="dummy-1_h1_6_13"  />
</g>
<g id="a1_0014"  >
<polygon points="238,85 243,80 252,80 252,90 243,90 238,85 " style="fill:#15d8d8; stroke-width:1; stroke:black; " description="&lt;b&gt;CU254_RS14490&lt;/b&gt;&lt;br&gt;enoyl-CoA hydratase/isomerase family protein&lt;br&gt;Location: 3073149 - 3073880&lt;br&gt;&lt;br&gt;&lt;b&gt;BlastP hit with ctg28_6&lt;/b&gt;&lt;br&gt;Percentage identity: 35&lt;br&gt;Percentage coverage: 91&lt;br&gt;BLAST bit score: 104&lt;br&gt;E-value: 2.3e-20&lt;br&gt;&lt;br&gt;&lt;b&gt;BlastP hit with ctg28_8&lt;/b&gt;&lt;br&gt;Percentage identity: 67&lt;br&gt;Percentage coverage: 97&lt;br&gt;BLAST bit score: 303&lt;br&gt;E-value: 1.9e-80" locus_tag="CU254_RS14490" class="clusterblast-orf" id="dummy-1_h1_6_14"  />
</g>
<g id="a1_0015"  >
<polygon points="252,85 257,80 269,80 269,90 257,90 252,85 " style="fill:#d8a715; stroke-width:1; stroke:black; " description="&lt;b&gt;CU254_RS14495&lt;/b&gt;&lt;br&gt;hydroxymethylglutaryl-CoA lyase&lt;br&gt;Location: 3073888 - 3074808&lt;br&gt;&lt;br&gt;&lt;b&gt;BlastP hit with ctg28_9&lt;/b&gt;&lt;br&gt;Percentage identity: 74&lt;br&gt;Percentage coverage: 98&lt;br&gt;BLAST bit score: 453&lt;br&gt;E-value: 2.5e-125" locus_tag="CU254_RS14495" class="clusterblast-orf" id="dummy-1_h1_6_15"  />
</g>
<g id="a1_0016"  >
<polygon points="270,85 275,80 279,80 279,90 275,90 270,85 " style="fill:#15d846; stroke-width:1; stroke:black; " description="&lt;b&gt;CU254_RS14500&lt;/b&gt;&lt;br&gt;transcriptional regulator&lt;br&gt;Location: 3074870 - 3075355&lt;br&gt;&lt;br&gt;&lt;b&gt;BlastP hit with ctg28_10&lt;/b&gt;&lt;br&gt;Percentage identity: 62&lt;br&gt;Percentage coverage: 85&lt;br&gt;BLAST bit score: 164&lt;br&gt;E-value: 9.7e-39" locus_tag="CU254_RS14500" class="clusterblast-orf" id="dummy-1_h1_6_16"  />
</g>
<g id="a1_0017"  >
<polygon points="282,90 300,90 305,85 300,80 282,80 282,90 " style="fill:#1546d8; stroke-width:1; stroke:black; " description="&lt;b&gt;CU254_RS14505&lt;/b&gt;&lt;br&gt;MFS transporter&lt;br&gt;Location: 3075540 - 3076790&lt;br&gt;&lt;br&gt;&lt;b&gt;BlastP hit with ctg28_11&lt;/b&gt;&lt;br&gt;Percentage identity: 63&lt;br&gt;Percentage coverage: 93&lt;br&gt;BLAST bit score: 501&lt;br&gt;E-value: 1.1e-139" locus_tag="CU254_RS14505" class="clusterblast-orf" id="dummy-1_h1_6_17"  />
</g>
<g id="a1_0018"  >
<polygon points="308,90 329,90 334,85 329,80 308,80 308,90 " style="fill:white; stroke-width:1; stroke:black; " description="&lt;b&gt;CU254_RS14510&lt;/b&gt;&lt;br&gt;LytR family transcriptional regulator&lt;br&gt;Location: 3076914 - 3078347" locus_tag="CU254_RS14510" class="clusterblast-orf" id="dummy-1_h1_6_18"  />
</g>
<g id="a1_0019"  >
<polygon points="339,90 407,90 412,85 407,80 339,80 339,90 " style="fill:white; stroke-width:1; stroke:black; " description="&lt;b&gt;CU254_RS14515&lt;/b&gt;&lt;br&gt;amino acid adenylation domain-containing protein&lt;br&gt;Location: 3078620 - 3082504" locus_tag="CU254_RS14515" class="clusterblast-orf" id="dummy-1_h1_6_19"  />
</g>
<g id="a1_0020"  >
<polygon points="413,85 418,80 435,80 435,90 418,90 413,85 " style="fill:#7715d8; stroke-width:1; stroke:black; " description="&lt;b&gt;CU254_RS14520&lt;/b&gt;&lt;br&gt;CoA transferase&lt;br&gt;Location: 3082574 - 3083764&lt;br&gt;&lt;br&gt;&lt;b&gt;BlastP hit with ctg28_7&lt;/b&gt;&lt;br&gt;Percentage identity: 38&lt;br&gt;Percentage coverage: 99&lt;br&gt;BLAST bit score: 238&lt;br&gt;E-value: 1.2e-60" locus_tag="CU254_RS14520" class="clusterblast-orf" id="dummy-1_h1_6_20"  />
</g>
<g id="a1_0021"  >
<polygon points="435,85 440,80 457,80 457,90 440,90 435,85 " style="fill:white; stroke-width:1; stroke:black; " description="&lt;b&gt;CU254_RS14525&lt;/b&gt;&lt;br&gt;acyl-CoA dehydrogenase&lt;br&gt;Location: 3083764 - 3084930" locus_tag="CU254_RS14525" class="clusterblast-orf" id="dummy-1_h1_6_21"  />
</g>
<g id="a1_0022"  >
<polygon points="459,90 468,90 473,85 468,80 459,80 459,90 " style="fill:white; stroke-width:1; stroke:black; " description="&lt;b&gt;CU254_RS14530&lt;/b&gt;&lt;br&gt;IclR family transcriptional regulator&lt;br&gt;Location: 3085073 - 3085813" locus_tag="CU254_RS14530" class="clusterblast-orf" id="dummy-1_h1_6_22"  />
</g>
<g id="a1_0023"  >
<polygon points="476,90 495,90 500,85 495,80 476,80 476,90 " style="fill:white; stroke-width:1; stroke:black; " description="&lt;b&gt;CU254_RS14535&lt;/b&gt;&lt;br&gt;MFS transporter&lt;br&gt;Location: 3085959 - 3087275" locus_tag="CU254_RS14535" class="clusterblast-orf" id="dummy-1_h1_6_23"  />
</g>
<g id="a1_0024"  >
<polygon points="502,85 507,80 513,80 513,90 507,90 502,85 " style="fill:white; stroke-width:1; stroke:black; " description="&lt;b&gt;CU254_RS14540&lt;/b&gt;&lt;br&gt;hypothetical protein&lt;br&gt;Location: 3087386 - 3087967" locus_tag="CU254_RS14540" class="clusterblast-orf" id="dummy-1_h1_6_24"  />
</g>
<g id="a1_0025"  >
<polygon points="520,90 527,90 532,85 527,80 520,80 520,90 " style="fill:white; stroke-width:1; stroke:black; " description="&lt;b&gt;CU254_RS14545&lt;/b&gt;&lt;br&gt;DUF998 domain-containing protein&lt;br&gt;Location: 3088349 - 3088981" locus_tag="CU254_RS14545" class="clusterblast-orf" id="dummy-1_h1_6_25"  />
</g>
<g id="a1_0026"  >
<polygon points="532,90 564,90 569,85 564,80 532,80 532,90 " style="fill:white; stroke-width:1; stroke:black; " description="&lt;b&gt;CU254_RS14550&lt;/b&gt;&lt;br&gt;glycosyltransferase family 4 protein&lt;br&gt;Location: 3088978 - 3090993" locus_tag="CU254_RS14550" class="clusterblast-orf" id="dummy-1_h1_6_26"  />
</g>
<g id="a1_0027"  >
<polygon points="570,85 575,80 631,80 631,90 575,90 570,85 " style="fill:white; stroke-width:1; stroke:black; " description="&lt;b&gt;CU254_RS14555&lt;/b&gt;&lt;br&gt;alpha-mannosidase&lt;br&gt;Location: 3091064 - 3094330" locus_tag="CU254_RS14555" class="clusterblast-orf" id="dummy-1_h1_6_27"  />
</g>
<g id="a1_0028"  >
<polygon points="638,85 643,80 664,80 664,90 643,90 638,85 " style="fill:white; stroke-width:1; stroke:black; " description="&lt;b&gt;CU254_RS14560&lt;/b&gt;&lt;br&gt;MFS transporter&lt;br&gt;Location: 3094734 - 3096095" locus_tag="CU254_RS14560" class="clusterblast-orf" id="dummy-1_h1_6_28"  />
</g>
<g id="a1_0029"  >
<polygon points="665,85 670,80 699,80 699,90 670,90 665,85 " style="fill:white; stroke-width:1; stroke:black; " description="&lt;b&gt;CU254_RS14565&lt;/b&gt;&lt;br&gt;3D-(3,5/4)-trihydroxycyclohexane-1,2-dione acylhydrolase (decyclizing)&lt;br&gt;Location: 3096139 - 3097998" locus_tag="CU254_RS14565" class="clusterblast-orf" id="dummy-1_h1_6_29"  />
</g>
<g id="a1_0030"  >
<polygon points="699,85 704,80 714,80 714,90 704,90 699,85 " style="fill:white; stroke-width:1; stroke:black; " description="&lt;b&gt;CU254_RS14570&lt;/b&gt;&lt;br&gt;5-deoxy-glucuronate isomerase&lt;br&gt;Location: 3097995 - 3098801" locus_tag="CU254_RS14570" class="clusterblast-orf" id="dummy-1_h1_6_30"  />
</g>
<g id="a1_0031"  >
<polygon points="714,85 719,80 730,80 730,90 719,90 714,85 " style="fill:white; stroke-width:1; stroke:black; " description="&lt;b&gt;CU254_RS14575&lt;/b&gt;&lt;br&gt;hypothetical protein&lt;br&gt;Location: 3098798 - 3099664" locus_tag="CU254_RS14575" class="clusterblast-orf" id="dummy-1_h1_6_31"  />
</g>
<g id="a1_0032"  >
<polygon points="730,85 735,80 747,80 747,90 735,90 730,85 " style="fill:white; stroke-width:1; stroke:black; " description="&lt;b&gt;CU254_RS14580&lt;/b&gt;&lt;br&gt;5-dehydro-2-deoxygluconokinase&lt;br&gt;Location: 3099661 - 3100608" locus_tag="CU254_RS14580" class="clusterblast-orf" id="dummy-1_h1_6_32"  />
</g>
<g id="a1_0033"  >
<polygon points="749,90 758,90 763,85 758,80 749,80 749,90 " style="fill:white; stroke-width:1; stroke:black; " description="&lt;b&gt;CU254_RS14585&lt;/b&gt;&lt;br&gt;GntR family transcriptional regulator&lt;br&gt;Location: 3100699 - 3101463" locus_tag="CU254_RS14585" class="clusterblast-orf" id="dummy-1_h1_6_33"  />
</g>
<g id="a1_0034"  >
<polygon points="764,85 769,80 779,80 779,90 769,90 764,85 " style="fill:white; stroke-width:1; stroke:black; " description="&lt;b&gt;CU254_RS14590&lt;/b&gt;&lt;br&gt;enoyl-CoA hydratase&lt;br&gt;Location: 3101523 - 3102335" locus_tag="CU254_RS14590" class="clusterblast-orf" id="dummy-1_h1_6_34"  />
</g>
</svg>
