<svg xmlns="http://www.w3.org/2000/svg" xmlns:xlink="http://www.w3.org/1999/xlink" version="1.1" x="0" y="0" height="230" width="800" viewBox="0 0 800 230" preserveAspectRatio="none"  >
<g label="Query sequence" class="clusterblast-cluster"  >
<text x="5" y="20" class="clusterblast-acc"  >
Query sequence</text>
<line x1="10" y1="35" x2="778.0" y2="35" style="stroke-width:1; stroke:grey; "  />
<polygon points="0,40 43,40 48,35 43,30 0,30 0,40 " style="fill:#d81515; stroke-width:1; stroke:black; " description="&lt;b&gt;ctg1_19&lt;/b&gt;&lt;br&gt;ctg1 19&lt;br&gt;Location: 23995 - 25576" locus_tag="ctg1_19" class="clusterblast-orf" id="dummy-1_q0_0_all"  />
<polygon points="49,40 72,40 77,35 72,30 49,30 49,40 " style="fill:#4dd815; stroke-width:1; stroke:black; " description="&lt;b&gt;ctg1_20&lt;/b&gt;&lt;br&gt;ctg1 20&lt;br&gt;Location: 25600 - 26527" locus_tag="ctg1_20" class="clusterblast-orf" id="dummy-1_q1_0_all"  />
<polygon points="77,40 96,40 101,35 96,30 77,30 77,40 " style="fill:#15bcd8; stroke-width:1; stroke:black; " description="&lt;b&gt;ctg1_21&lt;/b&gt;&lt;br&gt;ctg1 21&lt;br&gt;Location: 26523 - 27318" locus_tag="ctg1_21" class="clusterblast-orf" id="dummy-1_q2_0_all"  />
<polygon points="102,40 127,40 132,35 127,30 102,30 102,40 " style="fill:#8515d8; stroke-width:1; stroke:black; " description="&lt;b&gt;ctg1_22&lt;/b&gt;&lt;br&gt;ctg1 22&lt;br&gt;Location: 27333 - 28311" locus_tag="ctg1_22" class="clusterblast-orf" id="dummy-1_q3_0_all"  />
<polygon points="135,40 158,40 163,35 158,30 135,30 135,40 " style="fill:#d84d15; stroke-width:1; stroke:black; " description="&lt;b&gt;ctg1_23&lt;/b&gt;&lt;br&gt;ctg1 23&lt;br&gt;Location: 28407 - 29325" locus_tag="ctg1_23" class="clusterblast-orf" id="dummy-1_q4_0_all"  />
<polygon points="163,35 168,30 172,30 172,40 168,40 163,35 " style="fill:#15d815; stroke-width:1; stroke:black; " description="&lt;b&gt;ctg1_24&lt;/b&gt;&lt;br&gt;ctg1 24&lt;br&gt;Location: 29328 - 29634" locus_tag="ctg1_24" class="clusterblast-orf" id="dummy-1_q5_0_all"  />
<polygon points="174,40 199,40 204,35 199,30 174,30 174,40 " style="fill:#1585d8; stroke-width:1; stroke:black; " description="&lt;b&gt;ctg1_25&lt;/b&gt;&lt;br&gt;ctg1 25&lt;br&gt;Location: 29712 - 30684" locus_tag="ctg1_25" class="clusterblast-orf" id="dummy-1_q6_0_all"  />
<polygon points="215,35 220,30 246,30 246,40 220,40 215,35 " style="fill:#bc15d8; stroke-width:1; stroke:black; " description="&lt;b&gt;ctg1_26&lt;/b&gt;&lt;br&gt;ctg1 26&lt;br&gt;Location: 31053 - 32058" locus_tag="ctg1_26" class="clusterblast-orf" id="dummy-1_q7_0_all"  />
<polygon points="246,35 251,30 291,30 291,40 251,40 246,35 " style="fill:#d88515; stroke-width:1; stroke:black; " description="&lt;b&gt;ctg1_27&lt;/b&gt;&lt;br&gt;ctg1 27&lt;br&gt;Location: 32061 - 33534" locus_tag="ctg1_27" class="clusterblast-orf" id="dummy-1_q8_0_all"  />
<polygon points="291,35 296,30 349,30 349,40 296,40 291,35 " style="fill:#15d84d; stroke-width:1; stroke:black; " description="&lt;b&gt;ctg1_28&lt;/b&gt;&lt;br&gt;ctg1 28&lt;br&gt;Location: 33530 - 35432" locus_tag="ctg1_28" class="clusterblast-orf" id="dummy-1_q9_0_all"  />
<polygon points="349,35 354,30 380,30 380,40 354,40 349,35 " style="fill:#154dd8; stroke-width:1; stroke:black; " description="&lt;b&gt;ctg1_29&lt;/b&gt;&lt;br&gt;ctg1 29&lt;br&gt;Location: 35432 - 36443" locus_tag="ctg1_29" class="clusterblast-orf" id="dummy-1_q10_0_all"  />
<polygon points="380,35 385,30 421,30 421,40 385,40 380,35 " style="fill:#d815bc; stroke-width:1; stroke:black; " description="&lt;b&gt;ctg1_30&lt;/b&gt;&lt;br&gt;ctg1 30&lt;br&gt;Location: 36439 - 37795" locus_tag="ctg1_30" class="clusterblast-orf" id="dummy-1_q11_0_all"  />
<polygon points="421,35 426,30 448,30 448,40 426,40 421,35 " style="fill:#d8bc15; stroke-width:1; stroke:black; " description="&lt;b&gt;ctg1_31&lt;/b&gt;&lt;br&gt;ctg1 31&lt;br&gt;Location: 37791 - 38652" locus_tag="ctg1_31" class="clusterblast-orf" id="dummy-1_q12_0_all"  />
<polygon points="448,35 453,30 475,30 475,40 453,40 448,35 " style="fill:#d8bc15; stroke-width:1; stroke:black; " description="&lt;b&gt;ctg1_32&lt;/b&gt;&lt;br&gt;ctg1 32&lt;br&gt;Location: 38648 - 39551" locus_tag="ctg1_32" class="clusterblast-orf" id="dummy-1_q13_0_all"  />
<polygon points="479,40 511,40 516,35 511,30 479,30 479,40 " style="fill:#15d885; stroke-width:1; stroke:black; " description="&lt;b&gt;ctg1_33&lt;/b&gt;&lt;br&gt;ctg1 33&lt;br&gt;Location: 39687 - 40905" locus_tag="ctg1_33" class="clusterblast-orf" id="dummy-1_q14_0_all"  />
<polygon points="517,35 522,30 577,30 577,40 522,40 517,35 " style="fill:#1515d8; stroke-width:1; stroke:black; " description="&lt;b&gt;ctg1_34&lt;/b&gt;&lt;br&gt;ctg1 34&lt;br&gt;Location: 40911 - 42870" locus_tag="ctg1_34" class="clusterblast-orf" id="dummy-1_q15_0_all"  />
<polygon points="580,35 585,30 601,30 601,40 585,40 580,35 " style="fill:#d81585; stroke-width:1; stroke:black; " description="&lt;b&gt;ctg1_35&lt;/b&gt;&lt;br&gt;ctg1 35&lt;br&gt;Location: 42978 - 43665" locus_tag="ctg1_35" class="clusterblast-orf" id="dummy-1_q16_0_all"  />
<polygon points="604,35 609,30 634,30 634,40 609,40 604,35 " style="fill:#bcd815; stroke-width:1; stroke:black; " description="&lt;b&gt;ctg1_36&lt;/b&gt;&lt;br&gt;ctg1 36&lt;br&gt;Location: 43777 - 44755" locus_tag="ctg1_36" class="clusterblast-orf" id="dummy-1_q17_0_all"  />
<polygon points="635,35 640,30 659,30 659,40 640,40 635,35 " style="fill:#15d8bc; stroke-width:1; stroke:black; " description="&lt;b&gt;ctg1_37&lt;/b&gt;&lt;br&gt;ctg1 37&lt;br&gt;Location: 44797 - 45559" locus_tag="ctg1_37" class="clusterblast-orf" id="dummy-1_q18_0_all"  />
<polygon points="659,35 664,30 677,30 677,40 664,40 659,35 " style="fill:#4d15d8; stroke-width:1; stroke:black; " description="&lt;b&gt;ctg1_38&lt;/b&gt;&lt;br&gt;ctg1 38&lt;br&gt;Location: 45571 - 46159" locus_tag="ctg1_38" class="clusterblast-orf" id="dummy-1_q19_0_all"  />
<polygon points="678,35 683,30 745,30 745,40 683,40 678,35 " style="fill:#d8154d; stroke-width:1; stroke:black; " description="&lt;b&gt;ctg1_39&lt;/b&gt;&lt;br&gt;ctg1 39&lt;br&gt;Location: 46189 - 48394" locus_tag="ctg1_39" class="clusterblast-orf" id="dummy-1_q20_0_all"  />
<polygon points="750,35 755,30 780,30 780,40 755,40 750,35 " style="fill:#85d815; stroke-width:1; stroke:black; " description="&lt;b&gt;ctg1_40&lt;/b&gt;&lt;br&gt;ctg1 40&lt;br&gt;Location: 48545 - 49523" locus_tag="ctg1_40" class="clusterblast-orf" id="dummy-1_q21_0_all"  />
</g>
<g label="NZ_FORP01000007" description="NZ_FORP01000007_c14: Amycolatopsis sacchari strain DSM 44468, whole genome sh... (90% of genes show similarity), terpene" class="clusterblast-cluster"  >
<text x="5" y="70" class="clusterblast-acc"  >
<a xlink:href="https://antismash-db.secondarymetabolites.org/go/NZ_FORP01000007/14" target="_blank">NZ_FORP01000007_c14</a>: Amycolatopsis sacchari strain DSM 44468, whole genome sh... (90% of genes show similarity), terpene</text>
<line x1="10" y1="85" x2="778.0" y2="85" style="stroke-width:1; stroke:grey; "  />
</g>
<g id="a1_000"  >
<polygon points="7,90 26,90 31,85 26,80 7,80 7,90 " style="fill:#15bcd8; stroke-width:1; stroke:black; " description="&lt;b&gt;BMZ92_RS14680&lt;/b&gt;&lt;br&gt;multidrug ABC transporter permease&lt;br&gt;Location: 189344 - 190129&lt;br&gt;&lt;br&gt;&lt;b&gt;BlastP hit with ctg1_21&lt;/b&gt;&lt;br&gt;Percentage identity: 74&lt;br&gt;Percentage coverage: 98&lt;br&gt;BLAST bit score: 300&lt;br&gt;E-value: 2.3e-79" locus_tag="BMZ92_RS14680" class="clusterblast-orf" id="dummy-1_h1_2_0"  />
</g>
<g id="a1_001"  >
<polygon points="32,90 57,90 62,85 57,80 32,80 32,90 " style="fill:#8515d8; stroke-width:1; stroke:black; " description="&lt;b&gt;BMZ92_RS14685&lt;/b&gt;&lt;br&gt;heme A synthase&lt;br&gt;Location: 190177 - 191154&lt;br&gt;&lt;br&gt;&lt;b&gt;BlastP hit with ctg1_22&lt;/b&gt;&lt;br&gt;Percentage identity: 76&lt;br&gt;Percentage coverage: 100&lt;br&gt;BLAST bit score: 484&lt;br&gt;E-value: 8e-135" locus_tag="BMZ92_RS14685" class="clusterblast-orf" id="dummy-1_h1_2_1"  />
</g>
<g id="a1_002"  >
<polygon points="65,90 88,90 93,85 88,80 65,80 65,90 " style="fill:#d84d15; stroke-width:1; stroke:black; " description="&lt;b&gt;BMZ92_RS14690&lt;/b&gt;&lt;br&gt;acyl-CoA desaturase&lt;br&gt;Location: 191248 - 192183&lt;br&gt;&lt;br&gt;&lt;b&gt;BlastP hit with ctg1_23&lt;/b&gt;&lt;br&gt;Percentage identity: 88&lt;br&gt;Percentage coverage: 99&lt;br&gt;BLAST bit score: 576&lt;br&gt;E-value: 2.5e-162" locus_tag="BMZ92_RS14690" class="clusterblast-orf" id="dummy-1_h1_2_2"  />
</g>
<g id="a1_003"  >
<polygon points="93,85 98,80 120,80 120,90 98,90 93,85 " style="fill:white; stroke-width:1; stroke:black; " description="&lt;b&gt;BMZ92_RS14695&lt;/b&gt;&lt;br&gt;cyclase family protein&lt;br&gt;Location: 192184 - 193065" locus_tag="BMZ92_RS14695" class="clusterblast-orf" id="dummy-1_h1_2_3"  />
</g>
<g id="a1_004"  >
<polygon points="122,85 127,80 132,80 132,90 127,90 122,85 " style="fill:#15d815; stroke-width:1; stroke:black; " description="&lt;b&gt;BMZ92_RS14700&lt;/b&gt;&lt;br&gt;hypothetical protein&lt;br&gt;Location: 193126 - 193452&lt;br&gt;&lt;br&gt;&lt;b&gt;BlastP hit with ctg1_24&lt;/b&gt;&lt;br&gt;Percentage identity: 78&lt;br&gt;Percentage coverage: 98&lt;br&gt;BLAST bit score: 152&lt;br&gt;E-value: 2.2e-35" locus_tag="BMZ92_RS14700" class="clusterblast-orf" id="dummy-1_h1_2_4"  />
</g>
<g id="a1_005"  >
<polygon points="134,90 158,90 163,85 158,80 134,80 134,90 " style="fill:#1585d8; stroke-width:1; stroke:black; " description="&lt;b&gt;BMZ92_RS14705&lt;/b&gt;&lt;br&gt;quinone oxidoreductase&lt;br&gt;Location: 193503 - 194474&lt;br&gt;&lt;br&gt;&lt;b&gt;BlastP hit with ctg1_25&lt;/b&gt;&lt;br&gt;Percentage identity: 77&lt;br&gt;Percentage coverage: 100&lt;br&gt;BLAST bit score: 497&lt;br&gt;E-value: 1.2e-138" locus_tag="BMZ92_RS14705" class="clusterblast-orf" id="dummy-1_h1_2_5"  />
</g>
<g id="a1_006"  >
<polygon points="163,85 168,80 208,80 208,90 168,90 163,85 " style="fill:white; stroke-width:1; stroke:black; " description="&lt;b&gt;BMZ92_RS14710&lt;/b&gt;&lt;br&gt;FAD-dependent oxidoreductase&lt;br&gt;Location: 194476 - 195945" locus_tag="BMZ92_RS14710" class="clusterblast-orf" id="dummy-1_h1_2_6"  />
</g>
<g id="a1_007"  >
<polygon points="212,85 217,80 243,80 243,90 217,90 212,85 " style="fill:#bc15d8; stroke-width:1; stroke:black; " description="&lt;b&gt;BMZ92_RS14715&lt;/b&gt;&lt;br&gt;hopanoid biosynthesis associated radical SAM protein HpnH&lt;br&gt;Location: 196066 - 197070&lt;br&gt;&lt;br&gt;&lt;b&gt;BlastP hit with ctg1_26&lt;/b&gt;&lt;br&gt;Percentage identity: 94&lt;br&gt;Percentage coverage: 99&lt;br&gt;BLAST bit score: 659&lt;br&gt;E-value: 1.4e-187" locus_tag="BMZ92_RS14715" class="clusterblast-orf" id="dummy-1_h1_2_7"  />
</g>
<g id="a1_008"  >
<polygon points="243,85 248,80 288,80 288,90 248,90 243,85 " style="fill:#d88515; stroke-width:1; stroke:black; " description="&lt;b&gt;BMZ92_RS14720&lt;/b&gt;&lt;br&gt;4-hydroxy-3-methylbut-2-enyl diphosphate reductase&lt;br&gt;Location: 197073 - 198545&lt;br&gt;&lt;br&gt;&lt;b&gt;BlastP hit with ctg1_27&lt;/b&gt;&lt;br&gt;Percentage identity: 76&lt;br&gt;Percentage coverage: 100&lt;br&gt;BLAST bit score: 714&lt;br&gt;E-value: 7.2e-204" locus_tag="BMZ92_RS14720" class="clusterblast-orf" id="dummy-1_h1_2_8"  />
</g>
<g id="a1_009"  >
<polygon points="288,85 293,80 345,80 345,90 293,90 288,85 " style="fill:#15d84d; stroke-width:1; stroke:black; " description="&lt;b&gt;BMZ92_RS14725&lt;/b&gt;&lt;br&gt;squalene--hopene cyclase&lt;br&gt;Location: 198542 - 200437&lt;br&gt;&lt;br&gt;&lt;b&gt;BlastP hit with ctg1_28&lt;/b&gt;&lt;br&gt;Percentage identity: 75&lt;br&gt;Percentage coverage: 100&lt;br&gt;BLAST bit score: 988&lt;br&gt;E-value: 3.3e-286" locus_tag="BMZ92_RS14725" class="clusterblast-orf" id="dummy-1_h1_2_9"  />
</g>
<g id="a1_0010"  >
<polygon points="345,85 350,80 376,80 376,90 350,90 345,85 " style="fill:#154dd8; stroke-width:1; stroke:black; " description="&lt;b&gt;BMZ92_RS14730&lt;/b&gt;&lt;br&gt;polyprenyl synthetase family protein&lt;br&gt;Location: 200437 - 201447&lt;br&gt;&lt;br&gt;&lt;b&gt;BlastP hit with ctg1_29&lt;/b&gt;&lt;br&gt;Percentage identity: 82&lt;br&gt;Percentage coverage: 100&lt;br&gt;BLAST bit score: 528&lt;br&gt;E-value: 5e-148" locus_tag="BMZ92_RS14730" class="clusterblast-orf" id="dummy-1_h1_2_10"  />
</g>
<g id="a1_0011"  >
<polygon points="376,85 381,80 418,80 418,90 381,90 376,85 " style="fill:#d815bc; stroke-width:1; stroke:black; " description="&lt;b&gt;BMZ92_RS14735&lt;/b&gt;&lt;br&gt;FAD-dependent oxidoreductase&lt;br&gt;Location: 201444 - 202802&lt;br&gt;&lt;br&gt;&lt;b&gt;BlastP hit with ctg1_30&lt;/b&gt;&lt;br&gt;Percentage identity: 72&lt;br&gt;Percentage coverage: 97&lt;br&gt;BLAST bit score: 599&lt;br&gt;E-value: 2.4e-169" locus_tag="BMZ92_RS14735" class="clusterblast-orf" id="dummy-1_h1_2_11"  />
</g>
<g id="a1_0012"  >
<polygon points="418,85 423,80 444,80 444,90 423,90 418,85 " style="fill:#d8bc15; stroke-width:1; stroke:black; " description="&lt;b&gt;BMZ92_RS14740&lt;/b&gt;&lt;br&gt;squalene synthase HpnD&lt;br&gt;Location: 202799 - 203656&lt;br&gt;&lt;br&gt;&lt;b&gt;BlastP hit with ctg1_31&lt;/b&gt;&lt;br&gt;Percentage identity: 81&lt;br&gt;Percentage coverage: 98&lt;br&gt;BLAST bit score: 460&lt;br&gt;E-value: 1.4e-127&lt;br&gt;&lt;br&gt;&lt;b&gt;BlastP hit with ctg1_32&lt;/b&gt;&lt;br&gt;Percentage identity: 34&lt;br&gt;Percentage coverage: 78&lt;br&gt;BLAST bit score: 88&lt;br&gt;E-value: 1.5e-15" locus_tag="BMZ92_RS14740" class="clusterblast-orf" id="dummy-1_h1_2_12"  />
</g>
<g id="a1_0013"  >
<polygon points="444,85 449,80 471,80 471,90 449,90 444,85 " style="fill:#d8bc15; stroke-width:1; stroke:black; " description="&lt;b&gt;BMZ92_RS14745&lt;/b&gt;&lt;br&gt;squalene synthase HpnC&lt;br&gt;Location: 203653 - 204558&lt;br&gt;&lt;br&gt;&lt;b&gt;BlastP hit with ctg1_31&lt;/b&gt;&lt;br&gt;Percentage identity: 31&lt;br&gt;Percentage coverage: 81&lt;br&gt;BLAST bit score: 94&lt;br&gt;E-value: 1.6e-17&lt;br&gt;&lt;br&gt;&lt;b&gt;BlastP hit with ctg1_32&lt;/b&gt;&lt;br&gt;Percentage identity: 69&lt;br&gt;Percentage coverage: 99&lt;br&gt;BLAST bit score: 382&lt;br&gt;E-value: 4e-104" locus_tag="BMZ92_RS14745" class="clusterblast-orf" id="dummy-1_h1_2_13"  />
</g>
<g id="a1_0014"  >
<polygon points="475,90 507,90 512,85 507,80 475,80 475,90 " style="fill:#15d885; stroke-width:1; stroke:black; " description="&lt;b&gt;BMZ92_RS14750&lt;/b&gt;&lt;br&gt;PucR family transcriptional regulator&lt;br&gt;Location: 204678 - 205892&lt;br&gt;&lt;br&gt;&lt;b&gt;BlastP hit with ctg1_33&lt;/b&gt;&lt;br&gt;Percentage identity: 81&lt;br&gt;Percentage coverage: 98&lt;br&gt;BLAST bit score: 631&lt;br&gt;E-value: 5.1e-179" locus_tag="BMZ92_RS14750" class="clusterblast-orf" id="dummy-1_h1_2_14"  />
</g>
<g id="a1_0015"  >
<polygon points="512,85 517,80 573,80 573,90 517,90 512,85 " style="fill:#1515d8; stroke-width:1; stroke:black; " description="&lt;b&gt;BMZ92_RS14755&lt;/b&gt;&lt;br&gt;DUF1298 domain-containing protein&lt;br&gt;Location: 205893 - 207893&lt;br&gt;&lt;br&gt;&lt;b&gt;BlastP hit with ctg1_34&lt;/b&gt;&lt;br&gt;Percentage identity: 67&lt;br&gt;Percentage coverage: 99&lt;br&gt;BLAST bit score: 888&lt;br&gt;E-value: 4.8e-256" locus_tag="BMZ92_RS14755" class="clusterblast-orf" id="dummy-1_h1_2_15"  />
</g>
<g id="a1_0016"  >
<polygon points="575,85 580,80 595,80 595,90 580,90 575,85 " style="fill:#d81585; stroke-width:1; stroke:black; " description="&lt;b&gt;BMZ92_RS14760&lt;/b&gt;&lt;br&gt;hypothetical protein&lt;br&gt;Location: 207933 - 208595&lt;br&gt;&lt;br&gt;&lt;b&gt;BlastP hit with ctg1_35&lt;/b&gt;&lt;br&gt;Percentage identity: 78&lt;br&gt;Percentage coverage: 96&lt;br&gt;BLAST bit score: 318&lt;br&gt;E-value: 7e-85" locus_tag="BMZ92_RS14760" class="clusterblast-orf" id="dummy-1_h1_2_16"  />
</g>
<g id="a1_0017"  >
<polygon points="596,85 601,80 626,80 626,90 601,90 596,85 " style="fill:#bcd815; stroke-width:1; stroke:black; " description="&lt;b&gt;BMZ92_RS14765&lt;/b&gt;&lt;br&gt;hypothetical protein&lt;br&gt;Location: 208641 - 209618&lt;br&gt;&lt;br&gt;&lt;b&gt;BlastP hit with ctg1_36&lt;/b&gt;&lt;br&gt;Percentage identity: 74&lt;br&gt;Percentage coverage: 100&lt;br&gt;BLAST bit score: 445&lt;br&gt;E-value: 4.1e-123" locus_tag="BMZ92_RS14765" class="clusterblast-orf" id="dummy-1_h1_2_17"  />
</g>
<g id="a1_0018"  >
<polygon points="627,85 632,80 651,80 651,90 632,90 627,85 " style="fill:#15d8bc; stroke-width:1; stroke:black; " description="&lt;b&gt;BMZ92_RS14770&lt;/b&gt;&lt;br&gt;SDR family NAD(P)-dependent oxidoreductase&lt;br&gt;Location: 209661 - 210422&lt;br&gt;&lt;br&gt;&lt;b&gt;BlastP hit with ctg1_37&lt;/b&gt;&lt;br&gt;Percentage identity: 76&lt;br&gt;Percentage coverage: 100&lt;br&gt;BLAST bit score: 361&lt;br&gt;E-value: 6.1e-98" locus_tag="BMZ92_RS14770" class="clusterblast-orf" id="dummy-1_h1_2_18"  />
</g>
<g id="a1_0019"  >
<polygon points="651,85 656,80 669,80 669,90 656,90 651,85 " style="fill:#4d15d8; stroke-width:1; stroke:black; " description="&lt;b&gt;BMZ92_RS14775&lt;/b&gt;&lt;br&gt;peptidylprolyl isomerase&lt;br&gt;Location: 210432 - 211010&lt;br&gt;&lt;br&gt;&lt;b&gt;BlastP hit with ctg1_38&lt;/b&gt;&lt;br&gt;Percentage identity: 66&lt;br&gt;Percentage coverage: 100&lt;br&gt;BLAST bit score: 245&lt;br&gt;E-value: 3.8e-63" locus_tag="BMZ92_RS14775" class="clusterblast-orf" id="dummy-1_h1_2_19"  />
</g>
<g id="a1_0020"  >
<polygon points="670,85 675,80 740,80 740,90 675,90 670,85 " style="fill:#d8154d; stroke-width:1; stroke:black; " description="&lt;b&gt;BMZ92_RS14780&lt;/b&gt;&lt;br&gt;helicase&lt;br&gt;Location: 211042 - 213333&lt;br&gt;&lt;br&gt;&lt;b&gt;BlastP hit with ctg1_39&lt;/b&gt;&lt;br&gt;Percentage identity: 74&lt;br&gt;Percentage coverage: 100&lt;br&gt;BLAST bit score: 1010&lt;br&gt;E-value: 7.3e-293" locus_tag="BMZ92_RS14780" class="clusterblast-orf" id="dummy-1_h1_2_20"  />
</g>
<g id="a1_0021"  >
<polygon points="742,85 747,80 772,80 772,90 747,90 742,85 " style="fill:#85d815; stroke-width:1; stroke:black; " description="&lt;b&gt;BMZ92_RS14785&lt;/b&gt;&lt;br&gt;protoheme IX farnesyltransferase&lt;br&gt;Location: 213431 - 214411&lt;br&gt;&lt;br&gt;&lt;b&gt;BlastP hit with ctg1_40&lt;/b&gt;&lt;br&gt;Percentage identity: 87&lt;br&gt;Percentage coverage: 100&lt;br&gt;BLAST bit score: 546&lt;br&gt;E-value: 1.7e-153" locus_tag="BMZ92_RS14785" class="clusterblast-orf" id="dummy-1_h1_2_21"  />
</g>
</svg>
