<svg xmlns="http://www.w3.org/2000/svg" xmlns:xlink="http://www.w3.org/1999/xlink" version="1.1" x="0" y="0" height="230" width="800" viewBox="0 0 800 230" preserveAspectRatio="none"  >
<g label="Query sequence" class="clusterblast-cluster"  >
<text x="5" y="20" class="clusterblast-acc"  >
Query sequence</text>
<line x1="10" y1="35" x2="778.0" y2="35" style="stroke-width:1; stroke:grey; "  />
<polygon points="243,35 244,30 244,40 243,35 " style="fill:white; stroke-width:1; stroke:black; " description="&lt;b&gt;ctg68_3&lt;/b&gt;&lt;br&gt;ctg68 3&lt;br&gt;Location: 1428 - 1599" locus_tag="ctg68_3" class="clusterblast-orf" id="dummy-1_q0_0_all"  />
<polygon points="247,35 252,30 264,30 264,40 252,40 247,35 " style="fill:#d81515; stroke-width:1; stroke:black; " description="&lt;b&gt;ctg68_4&lt;/b&gt;&lt;br&gt;ctg68 4&lt;br&gt;Location: 2015 - 4208" locus_tag="ctg68_4" class="clusterblast-orf" id="dummy-1_q1_0_all"  />
<polygon points="264,35 269,30 272,30 272,40 269,40 264,35 " style="fill:#6ad815; stroke-width:1; stroke:black; " description="&lt;b&gt;ctg68_5&lt;/b&gt;&lt;br&gt;ctg68 5&lt;br&gt;Location: 4204 - 5329" locus_tag="ctg68_5" class="clusterblast-orf" id="dummy-1_q2_0_all"  />
<polygon points="272,35 275,30 275,40 272,35 " style="fill:white; stroke-width:1; stroke:black; " description="&lt;b&gt;ctg68_6&lt;/b&gt;&lt;br&gt;ctg68 6&lt;br&gt;Location: 5328 - 5637" locus_tag="ctg68_6" class="clusterblast-orf" id="dummy-1_q3_0_all"  />
<polygon points="274,35 276,30 276,40 274,35 " style="fill:#15bfd8; stroke-width:1; stroke:black; " description="&lt;b&gt;ctg68_7&lt;/b&gt;&lt;br&gt;ctg68 7&lt;br&gt;Location: 5623 - 5878" locus_tag="ctg68_7" class="clusterblast-orf" id="dummy-1_q4_0_all"  />
<polygon points="276,35 280,30 280,40 276,35 " style="fill:white; stroke-width:1; stroke:black; " description="&lt;b&gt;ctg68_8&lt;/b&gt;&lt;br&gt;ctg68 8&lt;br&gt;Location: 5877 - 6321" locus_tag="ctg68_8" class="clusterblast-orf" id="dummy-1_q5_0_all"  />
<polygon points="280,35 282,30 282,40 280,35 " style="fill:white; stroke-width:1; stroke:black; " description="&lt;b&gt;ctg68_9&lt;/b&gt;&lt;br&gt;ctg68 9&lt;br&gt;Location: 6320 - 6608" locus_tag="ctg68_9" class="clusterblast-orf" id="dummy-1_q6_0_all"  />
<polygon points="283,40 286,35 283,30 283,40 " style="fill:white; stroke-width:1; stroke:black; " description="&lt;b&gt;ctg68_10&lt;/b&gt;&lt;br&gt;ctg68 10&lt;br&gt;Location: 6747 - 7104" locus_tag="ctg68_10" class="clusterblast-orf" id="dummy-1_q7_0_all"  />
<polygon points="286,40 288,35 286,30 286,40 " style="fill:white; stroke-width:1; stroke:black; " description="&lt;b&gt;ctg68_11&lt;/b&gt;&lt;br&gt;ctg68 11&lt;br&gt;Location: 7161 - 7422" locus_tag="ctg68_11" class="clusterblast-orf" id="dummy-1_q8_0_all"  />
<polygon points="288,40 292,40 297,35 292,30 288,30 288,40 " style="fill:white; stroke-width:1; stroke:black; " description="&lt;b&gt;ctg68_12&lt;/b&gt;&lt;br&gt;ctg68 12&lt;br&gt;Location: 7466 - 8609" locus_tag="ctg68_12" class="clusterblast-orf" id="dummy-1_q9_0_all"  />
<polygon points="297,35 302,30 302,30 302,40 302,40 297,35 " style="fill:white; stroke-width:1; stroke:black; " description="&lt;b&gt;ctg68_13&lt;/b&gt;&lt;br&gt;ctg68 13&lt;br&gt;Location: 8594 - 9296" locus_tag="ctg68_13" class="clusterblast-orf" id="dummy-1_q10_0_all"  />
<polygon points="302,40 305,40 310,35 305,30 302,30 302,40 " style="fill:white; stroke-width:1; stroke:black; " description="&lt;b&gt;ctg68_14&lt;/b&gt;&lt;br&gt;ctg68 14&lt;br&gt;Location: 9343 - 10384" locus_tag="ctg68_14" class="clusterblast-orf" id="dummy-1_q11_0_all"  />
<polygon points="311,40 313,35 311,30 311,40 " style="fill:white; stroke-width:1; stroke:black; " description="&lt;b&gt;ctg68_15&lt;/b&gt;&lt;br&gt;ctg68 15&lt;br&gt;Location: 10516 - 10708" locus_tag="ctg68_15" class="clusterblast-orf" id="dummy-1_q12_0_all"  />
<polygon points="312,35 317,30 319,30 319,40 317,40 312,35 " style="fill:white; stroke-width:1; stroke:black; " description="&lt;b&gt;ctg68_16&lt;/b&gt;&lt;br&gt;ctg68 16&lt;br&gt;Location: 10633 - 11551" locus_tag="ctg68_16" class="clusterblast-orf" id="dummy-1_q13_0_all"  />
<polygon points="319,40 321,35 319,30 319,40 " style="fill:white; stroke-width:1; stroke:black; " description="&lt;b&gt;ctg68_17&lt;/b&gt;&lt;br&gt;ctg68 17&lt;br&gt;Location: 11572 - 11800" locus_tag="ctg68_17" class="clusterblast-orf" id="dummy-1_q14_0_all"  />
<polygon points="321,40 322,35 321,30 321,40 " style="fill:white; stroke-width:1; stroke:black; " description="&lt;b&gt;ctg68_18&lt;/b&gt;&lt;br&gt;ctg68 18&lt;br&gt;Location: 11796 - 11991" locus_tag="ctg68_18" class="clusterblast-orf" id="dummy-1_q15_0_all"  />
<polygon points="326,40 328,35 326,30 326,40 " style="fill:white; stroke-width:1; stroke:black; " description="&lt;b&gt;ctg68_19&lt;/b&gt;&lt;br&gt;ctg68 19&lt;br&gt;Location: 12546 - 12792" locus_tag="ctg68_19" class="clusterblast-orf" id="dummy-1_q16_0_all"  />
<polygon points="328,35 330,30 330,40 328,35 " style="fill:white; stroke-width:1; stroke:black; " description="&lt;b&gt;ctg68_20&lt;/b&gt;&lt;br&gt;ctg68 20&lt;br&gt;Location: 12788 - 12974" locus_tag="ctg68_20" class="clusterblast-orf" id="dummy-1_q17_0_all"  />
<polygon points="331,35 334,30 334,40 331,35 " style="fill:white; stroke-width:1; stroke:black; " description="&lt;b&gt;ctg68_21&lt;/b&gt;&lt;br&gt;ctg68 21&lt;br&gt;Location: 13157 - 13622" locus_tag="ctg68_21" class="clusterblast-orf" id="dummy-1_q18_0_all"  />
<polygon points="335,40 335,40 340,35 335,30 335,30 335,40 " style="fill:white; stroke-width:1; stroke:black; " description="&lt;b&gt;ctg68_22&lt;/b&gt;&lt;br&gt;ctg68 22&lt;br&gt;Location: 13709 - 14369" locus_tag="ctg68_22" class="clusterblast-orf" id="dummy-1_q19_0_all"  />
<polygon points="341,40 344,35 341,30 341,40 " style="fill:#9d15d8; stroke-width:1; stroke:black; " description="&lt;b&gt;ctg68_23&lt;/b&gt;&lt;br&gt;ctg68 23&lt;br&gt;Location: 14434 - 14860" locus_tag="ctg68_23" class="clusterblast-orf" id="dummy-1_q20_0_all"  />
<polygon points="345,40 346,40 351,35 346,30 345,30 345,40 " style="fill:white; stroke-width:1; stroke:black; " description="&lt;b&gt;ctg68_24&lt;/b&gt;&lt;br&gt;ctg68 24&lt;br&gt;Location: 14985 - 15846" locus_tag="ctg68_24" class="clusterblast-orf" id="dummy-1_q21_0_all"  />
<polygon points="352,35 357,30 357,30 357,40 357,40 352,35 " style="fill:#d84815; stroke-width:1; stroke:black; " description="&lt;b&gt;ctg68_25&lt;/b&gt;&lt;br&gt;ctg68 25&lt;br&gt;Location: 15892 - 16660" locus_tag="ctg68_25" class="clusterblast-orf" id="dummy-1_q22_0_all"  />
<polygon points="358,40 361,40 366,35 361,30 358,30 358,40 " style="fill:#37d815; stroke-width:1; stroke:black; " description="&lt;b&gt;ctg68_26&lt;/b&gt;&lt;br&gt;ctg68 26&lt;br&gt;Location: 16703 - 17762" locus_tag="ctg68_26" class="clusterblast-orf" id="dummy-1_q23_0_all"  />
<polygon points="365,35 370,30 386,30 386,40 370,40 365,35 " style="fill:#158cd8; stroke-width:1; stroke:black; " description="&lt;b&gt;ctg68_27&lt;/b&gt;&lt;br&gt;ctg68 27&lt;br&gt;Location: 17719 - 20455" locus_tag="ctg68_27" class="clusterblast-orf" id="dummy-1_q24_0_all"  />
<polygon points="387,40 391,40 396,35 391,30 387,30 387,40 " style="fill:#d015d8; stroke-width:1; stroke:black; " description="&lt;b&gt;ctg68_28&lt;/b&gt;&lt;br&gt;ctg68 28&lt;br&gt;Location: 20646 - 21807" locus_tag="ctg68_28" class="clusterblast-orf" id="dummy-1_q25_0_all"  />
<polygon points="396,40 400,40 405,35 400,30 396,30 396,40 " style="fill:#d87b15; stroke-width:1; stroke:black; " description="&lt;b&gt;ctg68_29&lt;/b&gt;&lt;br&gt;ctg68 29&lt;br&gt;Location: 21877 - 23023" locus_tag="ctg68_29" class="clusterblast-orf" id="dummy-1_q26_0_all"  />
<polygon points="405,40 406,40 411,35 406,30 405,30 405,40 " style="fill:#15d826; stroke-width:1; stroke:black; " description="&lt;b&gt;ctg68_30&lt;/b&gt;&lt;br&gt;ctg68 30&lt;br&gt;Location: 23032 - 23809" locus_tag="ctg68_30" class="clusterblast-orf" id="dummy-1_q27_0_all"  />
<polygon points="411,35 416,30 417,30 417,40 416,40 411,35 " style="fill:white; stroke-width:1; stroke:black; " description="&lt;b&gt;ctg68_31&lt;/b&gt;&lt;br&gt;ctg68 31&lt;br&gt;Location: 23805 - 24678" locus_tag="ctg68_31" class="clusterblast-orf" id="dummy-1_q28_0_all"  />
<polygon points="418,40 422,35 418,30 418,40 " style="fill:white; stroke-width:1; stroke:black; " description="&lt;b&gt;ctg68_32&lt;/b&gt;&lt;br&gt;ctg68 32&lt;br&gt;Location: 24766 - 25333" locus_tag="ctg68_32" class="clusterblast-orf" id="dummy-1_q29_0_all"  />
<polygon points="423,40 427,40 432,35 427,30 423,30 423,40 " style="fill:#1559d8; stroke-width:1; stroke:black; " description="&lt;b&gt;ctg68_33&lt;/b&gt;&lt;br&gt;ctg68 33&lt;br&gt;Location: 25417 - 26599" locus_tag="ctg68_33" class="clusterblast-orf" id="dummy-1_q30_0_all"  />
<polygon points="433,40 434,40 439,35 434,30 433,30 433,40 " style="fill:#d815ae; stroke-width:1; stroke:black; " description="&lt;b&gt;ctg68_34&lt;/b&gt;&lt;br&gt;ctg68 34&lt;br&gt;Location: 26775 - 27492" locus_tag="ctg68_34" class="clusterblast-orf" id="dummy-1_q31_0_all"  />
<polygon points="439,35 444,30 449,30 449,40 444,40 439,35 " style="fill:#d8ae15; stroke-width:1; stroke:black; " description="&lt;b&gt;ctg68_35&lt;/b&gt;&lt;br&gt;ctg68 35&lt;br&gt;Location: 27526 - 28924" locus_tag="ctg68_35" class="clusterblast-orf" id="dummy-1_q32_0_all"  />
<polygon points="451,40 453,40 458,35 453,30 451,30 451,40 " style="fill:#15d859; stroke-width:1; stroke:black; " description="&lt;b&gt;ctg68_36&lt;/b&gt;&lt;br&gt;ctg68 36&lt;br&gt;Location: 29186 - 30044" locus_tag="ctg68_36" class="clusterblast-orf" id="dummy-1_q33_0_all"  />
<polygon points="458,40 459,40 464,35 459,30 458,30 458,40 " style="fill:#1526d8; stroke-width:1; stroke:black; " description="&lt;b&gt;ctg68_37&lt;/b&gt;&lt;br&gt;ctg68 37&lt;br&gt;Location: 30080 - 30926" locus_tag="ctg68_37" class="clusterblast-orf" id="dummy-1_q34_0_all"  />
<polygon points="466,35 467,30 467,40 466,35 " style="fill:white; stroke-width:1; stroke:black; " description="&lt;b&gt;ctg68_38&lt;/b&gt;&lt;br&gt;ctg68 38&lt;br&gt;Location: 31092 - 31260" locus_tag="ctg68_38" class="clusterblast-orf" id="dummy-1_q35_0_all"  />
<polygon points="467,35 470,30 470,40 467,35 " style="fill:#d8157b; stroke-width:1; stroke:black; " description="&lt;b&gt;ctg68_39&lt;/b&gt;&lt;br&gt;ctg68 39&lt;br&gt;Location: 31256 - 31700" locus_tag="ctg68_39" class="clusterblast-orf" id="dummy-1_q36_0_all"  />
<polygon points="471,40 473,35 471,30 471,40 " style="fill:#d0d815; stroke-width:1; stroke:black; " description="&lt;b&gt;ctg68_40&lt;/b&gt;&lt;br&gt;ctg68 40&lt;br&gt;Location: 31875 - 32127" locus_tag="ctg68_40" class="clusterblast-orf" id="dummy-1_q37_0_all"  />
<polygon points="474,35 479,30 479,30 479,40 479,40 474,35 " style="fill:#15d88c; stroke-width:1; stroke:black; " description="&lt;b&gt;ctg68_41&lt;/b&gt;&lt;br&gt;ctg68 41&lt;br&gt;Location: 32224 - 32830" locus_tag="ctg68_41" class="clusterblast-orf" id="dummy-1_q38_0_all"  />
<polygon points="479,40 480,40 485,35 480,30 479,30 479,40 " style="fill:#3715d8; stroke-width:1; stroke:black; " description="&lt;b&gt;ctg68_42&lt;/b&gt;&lt;br&gt;ctg68 42&lt;br&gt;Location: 32930 - 33749" locus_tag="ctg68_42" class="clusterblast-orf" id="dummy-1_q39_0_all"  />
<polygon points="485,40 492,40 497,35 492,30 485,30 485,40 " style="fill:#d81548; stroke-width:1; stroke:black; " description="&lt;b&gt;ctg68_43&lt;/b&gt;&lt;br&gt;ctg68 43&lt;br&gt;Location: 33726 - 35223" locus_tag="ctg68_43" class="clusterblast-orf" id="dummy-1_q40_0_all"  />
<polygon points="497,40 501,40 506,35 501,30 497,30 497,40 " style="fill:#9dd815; stroke-width:1; stroke:black; " description="&lt;b&gt;ctg68_44&lt;/b&gt;&lt;br&gt;ctg68 44&lt;br&gt;Location: 35301 - 36537" locus_tag="ctg68_44" class="clusterblast-orf" id="dummy-1_q41_0_all"  />
<polygon points="507,40 515,40 520,35 515,30 507,30 507,40 " style="fill:#15d8bf; stroke-width:1; stroke:black; " description="&lt;b&gt;ctg68_45&lt;/b&gt;&lt;br&gt;ctg68 45&lt;br&gt;Location: 36552 - 38403" locus_tag="ctg68_45" class="clusterblast-orf" id="dummy-1_q42_0_all"  />
<polygon points="523,40 531,40 536,35 531,30 523,30 523,40 " style="fill:#6a15d8; stroke-width:1; stroke:black; " description="&lt;b&gt;ctg68_46&lt;/b&gt;&lt;br&gt;ctg68 46&lt;br&gt;Location: 38751 - 40503" locus_tag="ctg68_46" class="clusterblast-orf" id="dummy-1_q43_0_all"  />
</g>
<g label="NZ_BBOJ01000003" description="NZ_BBOJ01000003_c26: Lechevalieria aerocolonigenes strain NBRC 13195, whole g... (3% of genes show similarity), arylpolyene-nrps" class="clusterblast-cluster"  >
<text x="5" y="70" class="clusterblast-acc"  >
<a xlink:href="https://antismash-db.secondarymetabolites.org/go/NZ_BBOJ01000003/26" target="_blank">NZ_BBOJ01000003_c26</a>: Lechevalieria aerocolonigenes strain NBRC 13195, whole g... (3% of genes show similarity), arylpolyene-nrps</text>
<line x1="10" y1="85" x2="778.0" y2="85" style="stroke-width:1; stroke:grey; "  />
</g>
<g id="a1_000"  >
<polygon points="0,85 4,80 4,90 0,85 " style="fill:white; stroke-width:1; stroke:black; " description="&lt;b&gt;AOM45_RS07730&lt;/b&gt;&lt;br&gt;ATP-binding protein&lt;br&gt;Location: 379789 - 379202" locus_tag="AOM45_RS07730" class="clusterblast-orf" id="dummy-1_h1_6_0"  />
</g>
<g id="a1_001"  >
<polygon points="4,85 6,80 6,90 4,85 " style="fill:white; stroke-width:1; stroke:black; " description="&lt;b&gt;AOM45_RS07725&lt;/b&gt;&lt;br&gt;DUF742 domain-containing protein&lt;br&gt;Location: 379218 - 378868" locus_tag="AOM45_RS07725" class="clusterblast-orf" id="dummy-1_h1_6_1"  />
</g>
<g id="a1_002"  >
<polygon points="6,85 10,80 10,90 6,85 " style="fill:white; stroke-width:1; stroke:black; " description="&lt;b&gt;AOM45_RS07720&lt;/b&gt;&lt;br&gt;dynein regulation protein LC7&lt;br&gt;Location: 378864 - 378427" locus_tag="AOM45_RS07720" class="clusterblast-orf" id="dummy-1_h1_6_2"  />
</g>
<g id="a1_003"  >
<polygon points="12,85 17,80 30,80 30,90 17,90 12,85 " style="fill:white; stroke-width:1; stroke:black; " description="&lt;b&gt;AOM45_RS07715&lt;/b&gt;&lt;br&gt;hypothetical protein&lt;br&gt;Location: 378086 - 375786" locus_tag="AOM45_RS07715" class="clusterblast-orf" id="dummy-1_h1_6_3"  />
</g>
<g id="a1_004"  >
<polygon points="30,85 35,80 35,80 35,90 35,90 30,85 " style="fill:white; stroke-width:1; stroke:black; " description="&lt;b&gt;AOM45_RS07710&lt;/b&gt;&lt;br&gt;ABC transporter ATP-binding protein&lt;br&gt;Location: 375789 - 375022" locus_tag="AOM45_RS07710" class="clusterblast-orf" id="dummy-1_h1_6_4"  />
</g>
<g id="a1_005"  >
<polygon points="35,85 40,80 42,80 42,90 40,90 35,85 " style="fill:white; stroke-width:1; stroke:black; " description="&lt;b&gt;AOM45_RS07705&lt;/b&gt;&lt;br&gt;ABC transporter permease&lt;br&gt;Location: 375025 - 374168" locus_tag="AOM45_RS07705" class="clusterblast-orf" id="dummy-1_h1_6_5"  />
</g>
<g id="a1_006"  >
<polygon points="42,85 47,80 49,80 49,90 47,90 42,85 " style="fill:white; stroke-width:1; stroke:black; " description="&lt;b&gt;AOM45_RS07700&lt;/b&gt;&lt;br&gt;aliphatic sulfonate ABC transporter substrate-binding protein&lt;br&gt;Location: 374171 - 373185" locus_tag="AOM45_RS07700" class="clusterblast-orf" id="dummy-1_h1_6_6"  />
</g>
<g id="a1_007"  >
<polygon points="49,85 54,80 58,80 58,90 54,90 49,85 " style="fill:white; stroke-width:1; stroke:black; " description="&lt;b&gt;AOM45_RS07695&lt;/b&gt;&lt;br&gt;agmatinase&lt;br&gt;Location: 373150 - 372020" locus_tag="AOM45_RS07695" class="clusterblast-orf" id="dummy-1_h1_6_7"  />
</g>
<g id="a1_008"  >
<polygon points="61,85 66,80 93,80 93,90 66,90 61,85 " style="fill:white; stroke-width:1; stroke:black; " description="&lt;b&gt;AOM45_RS07690&lt;/b&gt;&lt;br&gt;hypothetical protein&lt;br&gt;Location: 371613 - 367318" locus_tag="AOM45_RS07690" class="clusterblast-orf" id="dummy-1_h1_6_8"  />
</g>
<g id="a1_009"  >
<polygon points="100,85 105,80 109,80 109,90 105,90 100,85 " style="fill:white; stroke-width:1; stroke:black; " description="&lt;b&gt;AOM45_RS07685&lt;/b&gt;&lt;br&gt;HNH endonuclease&lt;br&gt;Location: 366403 - 365204" locus_tag="AOM45_RS07685" class="clusterblast-orf" id="dummy-1_h1_6_9"  />
</g>
<g id="a1_0010"  >
<polygon points="112,85 117,80 133,80 133,90 117,90 112,85 " style="fill:#158cd8; stroke-width:1; stroke:black; " description="&lt;b&gt;AOM45_RS07680&lt;/b&gt;&lt;br&gt;histidine kinase&lt;br&gt;Location: 364750 - 361991&lt;br&gt;&lt;br&gt;&lt;b&gt;BlastP hit with ctg68_27&lt;/b&gt;&lt;br&gt;Percentage identity: 61&lt;br&gt;Percentage coverage: 100&lt;br&gt;BLAST bit score: 1055&lt;br&gt;E-value: 2.4e-306" locus_tag="AOM45_RS07680" class="clusterblast-orf" id="dummy-1_h1_6_10"  />
</g>
<g id="a1_0011"  >
<polygon points="135,90 138,90 143,85 138,80 135,80 135,90 " style="fill:#d015d8; stroke-width:1; stroke:black; " description="&lt;b&gt;AOM45_RS07675&lt;/b&gt;&lt;br&gt;3-oxoacyl-ACP synthase&lt;br&gt;Location: 361789 - 360629&lt;br&gt;&lt;br&gt;&lt;b&gt;BlastP hit with ctg68_28&lt;/b&gt;&lt;br&gt;Percentage identity: 77&lt;br&gt;Percentage coverage: 100&lt;br&gt;BLAST bit score: 604&lt;br&gt;E-value: 1.1e-170" locus_tag="AOM45_RS07675" class="clusterblast-orf" id="dummy-1_h1_6_11"  />
</g>
<g id="a1_0012"  >
<polygon points="143,85 148,80 148,80 148,90 148,90 143,85 " style="fill:white; stroke-width:1; stroke:black; " description="&lt;b&gt;AOM45_RS07670&lt;/b&gt;&lt;br&gt;TetR/AcrR family transcriptional regulator&lt;br&gt;Location: 360628 - 360029" locus_tag="AOM45_RS07670" class="clusterblast-orf" id="dummy-1_h1_6_12"  />
</g>
<g id="a1_0013"  >
<polygon points="148,85 153,80 156,80 156,90 153,90 148,85 " style="fill:white; stroke-width:1; stroke:black; " description="&lt;b&gt;AOM45_RS07665&lt;/b&gt;&lt;br&gt;hypothetical protein&lt;br&gt;Location: 360000 - 358939" locus_tag="AOM45_RS07665" class="clusterblast-orf" id="dummy-1_h1_6_13"  />
</g>
<g id="a1_0014"  >
<polygon points="156,85 161,80 167,80 167,90 161,90 156,85 " style="fill:white; stroke-width:1; stroke:black; " description="&lt;b&gt;AOM45_RS07660&lt;/b&gt;&lt;br&gt;hypothetical protein&lt;br&gt;Location: 358942 - 357503" locus_tag="AOM45_RS07660" class="clusterblast-orf" id="dummy-1_h1_6_14"  />
</g>
<g id="a1_0015"  >
<polygon points="168,90 172,90 177,85 172,80 168,80 168,90 " style="fill:white; stroke-width:1; stroke:black; " description="&lt;b&gt;AOM45_RS07655&lt;/b&gt;&lt;br&gt;PucR family transcriptional regulator&lt;br&gt;Location: 357290 - 356151" locus_tag="AOM45_RS07655" class="clusterblast-orf" id="dummy-1_h1_6_15"  />
</g>
<g id="a1_0016"  >
<polygon points="177,90 180,90 185,85 180,80 177,80 177,90 " style="fill:white; stroke-width:1; stroke:black; " description="&lt;b&gt;AOM45_RS07650&lt;/b&gt;&lt;br&gt;PucR family transcriptional regulator&lt;br&gt;Location: 356166 - 355033" locus_tag="AOM45_RS07650" class="clusterblast-orf" id="dummy-1_h1_6_16"  />
</g>
<g id="a1_0017"  >
<polygon points="186,85 189,80 189,90 186,85 " style="fill:white; stroke-width:1; stroke:black; " description="&lt;b&gt;AOM45_RS07645&lt;/b&gt;&lt;br&gt;hypothetical protein&lt;br&gt;Location: 354966 - 354595" locus_tag="AOM45_RS07645" class="clusterblast-orf" id="dummy-1_h1_6_17"  />
</g>
<g id="a1_0018"  >
<polygon points="190,90 192,90 197,85 192,80 190,80 190,90 " style="fill:white; stroke-width:1; stroke:black; " description="&lt;b&gt;AOM45_RS07640&lt;/b&gt;&lt;br&gt;hypothetical protein&lt;br&gt;Location: 354414 - 353497" locus_tag="AOM45_RS07640" class="clusterblast-orf" id="dummy-1_h1_6_18"  />
</g>
<g id="a1_0019"  >
<polygon points="197,85 202,80 208,80 208,90 202,90 197,85 " style="fill:white; stroke-width:1; stroke:black; " description="&lt;b&gt;AOM45_RS07635&lt;/b&gt;&lt;br&gt;hypothetical protein&lt;br&gt;Location: 353445 - 352000" locus_tag="AOM45_RS07635" class="clusterblast-orf" id="dummy-1_h1_6_19"  />
</g>
<g id="a1_0020"  >
<polygon points="209,85 214,80 224,80 224,90 214,90 209,85 " style="fill:white; stroke-width:1; stroke:black; " description="&lt;b&gt;AOM45_RS07630&lt;/b&gt;&lt;br&gt;ATP-dependent Clp protease ATP-binding subunit&lt;br&gt;Location: 351854 - 349860" locus_tag="AOM45_RS07630" class="clusterblast-orf" id="dummy-1_h1_6_20"  />
</g>
<g id="a1_0021"  >
<polygon points="225,85 227,80 227,90 225,85 " style="fill:white; stroke-width:1; stroke:black; " description="&lt;b&gt;AOM45_RS07625&lt;/b&gt;&lt;br&gt;hypothetical protein&lt;br&gt;Location: 349744 - 349421" locus_tag="AOM45_RS07625" class="clusterblast-orf" id="dummy-1_h1_6_21"  />
</g>
<g id="a1_0022"  >
<polygon points="227,85 230,80 230,90 227,85 " style="fill:white; stroke-width:1; stroke:black; " description="&lt;b&gt;AOM45_RS07620&lt;/b&gt;&lt;br&gt;cupin domain-containing protein&lt;br&gt;Location: 349424 - 349062" locus_tag="AOM45_RS07620" class="clusterblast-orf" id="dummy-1_h1_6_22"  />
</g>
<g id="a1_0023"  >
<polygon points="231,85 236,80 236,80 236,90 236,90 231,85 " style="fill:white; stroke-width:1; stroke:black; " description="&lt;b&gt;AOM45_RS07615&lt;/b&gt;&lt;br&gt;DNA-binding response regulator&lt;br&gt;Location: 348969 - 348256" locus_tag="AOM45_RS07615" class="clusterblast-orf" id="dummy-1_h1_6_23"  />
</g>
<g id="a1_0024"  >
<polygon points="239,90 244,90 249,85 244,80 239,80 239,90 " style="fill:white; stroke-width:1; stroke:black; " description="&lt;b&gt;AOM45_RS07610&lt;/b&gt;&lt;br&gt;L-lysine 6-monooxygenase&lt;br&gt;Location: 347867 - 346593" locus_tag="AOM45_RS07610" class="clusterblast-orf" id="dummy-1_h1_6_24"  />
</g>
<g id="a1_0025"  >
<polygon points="249,90 255,90 260,85 255,80 249,80 249,90 " style="fill:white; stroke-width:1; stroke:black; " description="&lt;b&gt;AOM45_RS07605&lt;/b&gt;&lt;br&gt;methionine--tRNA ligase&lt;br&gt;Location: 346593 - 345073" locus_tag="AOM45_RS07605" class="clusterblast-orf" id="dummy-1_h1_6_25"  />
</g>
<g id="a1_0026"  >
<polygon points="260,90 263,90 268,85 263,80 260,80 260,90 " style="fill:white; stroke-width:1; stroke:black; " description="&lt;b&gt;AOM45_RS07600&lt;/b&gt;&lt;br&gt;FAD-binding oxidoreductase&lt;br&gt;Location: 345073 - 344039" locus_tag="AOM45_RS07600" class="clusterblast-orf" id="dummy-1_h1_6_26"  />
</g>
<g id="a1_0027"  >
<polygon points="268,90 272,90 277,85 272,80 268,80 268,90 " style="fill:white; stroke-width:1; stroke:black; " description="&lt;b&gt;AOM45_RS07595&lt;/b&gt;&lt;br&gt;MFS transporter&lt;br&gt;Location: 344039 - 342825" locus_tag="AOM45_RS07595" class="clusterblast-orf" id="dummy-1_h1_6_27"  />
</g>
<g id="a1_0028"  >
<polygon points="277,90 281,90 286,85 281,80 277,80 277,90 " style="fill:white; stroke-width:1; stroke:black; " description="&lt;b&gt;AOM45_RS07590&lt;/b&gt;&lt;br&gt;ATP-grasp domain-containing protein&lt;br&gt;Location: 342828 - 341545" locus_tag="AOM45_RS07590" class="clusterblast-orf" id="dummy-1_h1_6_28"  />
</g>
<g id="a1_0029"  >
<polygon points="287,90 292,90 297,85 292,80 287,80 287,90 " style="fill:white; stroke-width:1; stroke:black; " description="&lt;b&gt;AOM45_RS07585&lt;/b&gt;&lt;br&gt;L-lysine 6-monooxygenase&lt;br&gt;Location: 341454 - 340168" locus_tag="AOM45_RS07585" class="clusterblast-orf" id="dummy-1_h1_6_29"  />
</g>
<g id="a1_0030"  >
<polygon points="297,90 301,90 306,85 301,80 297,80 297,90 " style="fill:white; stroke-width:1; stroke:black; " description="&lt;b&gt;AOM45_RS07580&lt;/b&gt;&lt;br&gt;ATP-binding protein&lt;br&gt;Location: 340171 - 338882" locus_tag="AOM45_RS07580" class="clusterblast-orf" id="dummy-1_h1_6_30"  />
</g>
<g id="a1_0031"  >
<polygon points="307,90 311,90 316,85 311,80 307,80 307,90 " style="fill:white; stroke-width:1; stroke:black; " description="&lt;b&gt;AOM45_RS07575&lt;/b&gt;&lt;br&gt;acyl-CoA dehydrogenase&lt;br&gt;Location: 338870 - 337671" locus_tag="AOM45_RS07575" class="clusterblast-orf" id="dummy-1_h1_6_31"  />
</g>
<g id="a1_0032"  >
<polygon points="316,90 320,90 325,85 320,80 316,80 316,90 " style="fill:white; stroke-width:1; stroke:black; " description="&lt;b&gt;AOM45_RS07570&lt;/b&gt;&lt;br&gt;acyl-CoA dehydrogenase&lt;br&gt;Location: 337661 - 336447" locus_tag="AOM45_RS07570" class="clusterblast-orf" id="dummy-1_h1_6_32"  />
</g>
<g id="a1_0033"  >
<polygon points="325,90 333,90 338,85 333,80 325,80 325,90 " style="fill:white; stroke-width:1; stroke:black; " description="&lt;b&gt;AOM45_RS07565&lt;/b&gt;&lt;br&gt;tryptophan 2-C-methyltransferase&lt;br&gt;Location: 336424 - 334739" locus_tag="AOM45_RS07565" class="clusterblast-orf" id="dummy-1_h1_6_33"  />
</g>
<g id="a1_0034"  >
<polygon points="338,90 343,90 348,85 343,80 338,80 338,90 " style="fill:white; stroke-width:1; stroke:black; " description="&lt;b&gt;AOM45_RS07560&lt;/b&gt;&lt;br&gt;FAD-binding oxidoreductase&lt;br&gt;Location: 334628 - 333405" locus_tag="AOM45_RS07560" class="clusterblast-orf" id="dummy-1_h1_6_34"  />
</g>
<g id="a1_0035"  >
<polygon points="348,85 353,80 385,80 385,90 353,90 348,85 " style="fill:white; stroke-width:1; stroke:black; " description="&lt;b&gt;AOM45_RS07555&lt;/b&gt;&lt;br&gt;hypothetical protein&lt;br&gt;Location: 333385 - 328373" locus_tag="AOM45_RS07555" class="clusterblast-orf" id="dummy-1_h1_6_35"  />
</g>
<g id="a1_0036"  >
<polygon points="386,90 390,90 395,85 390,80 386,80 386,90 " style="fill:white; stroke-width:1; stroke:black; " description="&lt;b&gt;AOM45_RS07550&lt;/b&gt;&lt;br&gt;hypothetical protein&lt;br&gt;Location: 328290 - 327040" locus_tag="AOM45_RS07550" class="clusterblast-orf" id="dummy-1_h1_6_36"  />
</g>
<g id="a1_0037"  >
<polygon points="395,90 399,90 404,85 399,80 395,80 395,90 " style="fill:white; stroke-width:1; stroke:black; " description="&lt;b&gt;AOM45_RS07545&lt;/b&gt;&lt;br&gt;aminopeptidase P family protein&lt;br&gt;Location: 327036 - 325870" locus_tag="AOM45_RS07545" class="clusterblast-orf" id="dummy-1_h1_6_37"  />
</g>
<g id="a1_0038"  >
<polygon points="404,90 409,90 414,85 409,80 404,80 404,90 " style="fill:white; stroke-width:1; stroke:black; " description="&lt;b&gt;AOM45_RS07540&lt;/b&gt;&lt;br&gt;DegT/DnrJ/EryC1/StrS family aminotransferase&lt;br&gt;Location: 325873 - 324545" locus_tag="AOM45_RS07540" class="clusterblast-orf" id="dummy-1_h1_6_38"  />
</g>
<g id="a1_0039"  >
<polygon points="412,90 418,90 423,85 418,80 412,80 412,90 " style="fill:white; stroke-width:1; stroke:black; " description="&lt;b&gt;AOM45_RS07535&lt;/b&gt;&lt;br&gt;NAD-dependent alcohol dehydrogenase&lt;br&gt;Location: 324800 - 323403" locus_tag="AOM45_RS07535" class="clusterblast-orf" id="dummy-1_h1_6_39"  />
</g>
<g id="a1_0040"  >
<polygon points="423,90 425,90 430,85 425,80 423,80 423,90 " style="fill:white; stroke-width:1; stroke:black; " description="&lt;b&gt;AOM45_RS07530&lt;/b&gt;&lt;br&gt;hypothetical protein&lt;br&gt;Location: 323403 - 322450" locus_tag="AOM45_RS07530" class="clusterblast-orf" id="dummy-1_h1_6_40"  />
</g>
<g id="a1_0041"  >
<polygon points="430,90 433,90 438,85 433,80 430,80 430,90 " style="fill:white; stroke-width:1; stroke:black; " description="&lt;b&gt;AOM45_RS07525&lt;/b&gt;&lt;br&gt;hypothetical protein&lt;br&gt;Location: 322453 - 321359" locus_tag="AOM45_RS07525" class="clusterblast-orf" id="dummy-1_h1_6_41"  />
</g>
<g id="a1_0042"  >
<polygon points="439,90 448,90 453,85 448,80 439,80 439,90 " style="fill:white; stroke-width:1; stroke:black; " description="&lt;b&gt;AOM45_RS07520&lt;/b&gt;&lt;br&gt;hypothetical protein&lt;br&gt;Location: 321204 - 319399" locus_tag="AOM45_RS07520" class="clusterblast-orf" id="dummy-1_h1_6_42"  />
</g>
<g id="a1_0043"  >
<polygon points="453,90 456,90 461,85 456,80 453,80 453,90 " style="fill:white; stroke-width:1; stroke:black; " description="&lt;b&gt;AOM45_RS07515&lt;/b&gt;&lt;br&gt;pyridoxal phosphate-dependent aminotransferase&lt;br&gt;Location: 319385 - 318300" locus_tag="AOM45_RS07515" class="clusterblast-orf" id="dummy-1_h1_6_43"  />
</g>
<g id="a1_0044"  >
<polygon points="461,90 462,90 467,85 462,80 461,80 461,90 " style="fill:white; stroke-width:1; stroke:black; " description="&lt;b&gt;AOM45_RS07510&lt;/b&gt;&lt;br&gt;GNAT family N-acetyltransferase&lt;br&gt;Location: 318303 - 317455" locus_tag="AOM45_RS07510" class="clusterblast-orf" id="dummy-1_h1_6_44"  />
</g>
<g id="a1_0045"  >
<polygon points="467,90 473,90 478,85 473,80 467,80 467,90 " style="fill:white; stroke-width:1; stroke:black; " description="&lt;b&gt;AOM45_RS07505&lt;/b&gt;&lt;br&gt;hypothetical protein&lt;br&gt;Location: 317458 - 316049" locus_tag="AOM45_RS07505" class="clusterblast-orf" id="dummy-1_h1_6_45"  />
</g>
<g id="a1_0046"  >
<polygon points="478,90 479,90 484,85 479,80 478,80 478,90 " style="fill:white; stroke-width:1; stroke:black; " description="&lt;b&gt;AOM45_RS07500&lt;/b&gt;&lt;br&gt;transketolase&lt;br&gt;Location: 316055 - 315240" locus_tag="AOM45_RS07500" class="clusterblast-orf" id="dummy-1_h1_6_46"  />
</g>
<g id="a1_0047"  >
<polygon points="484,90 486,90 491,85 486,80 484,80 484,90 " style="fill:white; stroke-width:1; stroke:black; " description="&lt;b&gt;AOM45_RS07495&lt;/b&gt;&lt;br&gt;hypothetical protein&lt;br&gt;Location: 315243 - 314281" locus_tag="AOM45_RS07495" class="clusterblast-orf" id="dummy-1_h1_6_47"  />
</g>
<g id="a1_0048"  >
<polygon points="491,90 491,90 496,85 491,80 491,80 491,90 " style="fill:white; stroke-width:1; stroke:black; " description="&lt;b&gt;AOM45_RS07490&lt;/b&gt;&lt;br&gt;hypothetical protein&lt;br&gt;Location: 314272 - 313568" locus_tag="AOM45_RS07490" class="clusterblast-orf" id="dummy-1_h1_6_48"  />
</g>
<g id="a1_0049"  >
<polygon points="496,90 500,90 505,85 500,80 496,80 496,90 " style="fill:white; stroke-width:1; stroke:black; " description="&lt;b&gt;AOM45_RS07485&lt;/b&gt;&lt;br&gt;NAD-dependent alcohol dehydrogenase&lt;br&gt;Location: 313571 - 312486" locus_tag="AOM45_RS07485" class="clusterblast-orf" id="dummy-1_h1_6_49"  />
</g>
<g id="a1_0050"  >
<polygon points="505,85 510,80 516,80 516,90 510,90 505,85 " style="fill:white; stroke-width:1; stroke:black; " description="&lt;b&gt;AOM45_RS07480&lt;/b&gt;&lt;br&gt;MFS transporter&lt;br&gt;Location: 312442 - 310982" locus_tag="AOM45_RS07480" class="clusterblast-orf" id="dummy-1_h1_6_50"  />
</g>
<g id="a1_0051"  >
<polygon points="517,90 519,90 524,85 519,80 517,80 517,90 " style="fill:white; stroke-width:1; stroke:black; " description="&lt;b&gt;AOM45_RS07475&lt;/b&gt;&lt;br&gt;LysR family transcriptional regulator&lt;br&gt;Location: 310861 - 309923" locus_tag="AOM45_RS07475" class="clusterblast-orf" id="dummy-1_h1_6_51"  />
</g>
<g id="a1_0052"  >
<polygon points="524,90 524,90 529,85 524,80 524,80 524,90 " style="fill:white; stroke-width:1; stroke:black; " description="&lt;b&gt;AOM45_RS07470&lt;/b&gt;&lt;br&gt;nitrile hydratase subunit beta&lt;br&gt;Location: 309899 - 309234" locus_tag="AOM45_RS07470" class="clusterblast-orf" id="dummy-1_h1_6_52"  />
</g>
<g id="a1_0053"  >
<polygon points="529,90 533,85 529,80 529,90 " style="fill:white; stroke-width:1; stroke:black; " description="&lt;b&gt;AOM45_RS07465&lt;/b&gt;&lt;br&gt;nitrile hydratase subunit alpha&lt;br&gt;Location: 309221 - 308643" locus_tag="AOM45_RS07465" class="clusterblast-orf" id="dummy-1_h1_6_53"  />
</g>
<g id="a1_0054"  >
<polygon points="533,90 536,85 533,80 533,90 " style="fill:white; stroke-width:1; stroke:black; " description="&lt;b&gt;AOM45_RS07460&lt;/b&gt;&lt;br&gt;nitrile hydratase accessory protein&lt;br&gt;Location: 308646 - 308350" locus_tag="AOM45_RS07460" class="clusterblast-orf" id="dummy-1_h1_6_54"  />
</g>
<g id="a1_0055"  >
<polygon points="538,90 540,85 538,80 538,90 " style="fill:white; stroke-width:1; stroke:black; " description="&lt;b&gt;AOM45_RS07455&lt;/b&gt;&lt;br&gt;hypothetical protein&lt;br&gt;Location: 307989 - 307792" locus_tag="AOM45_RS07455" class="clusterblast-orf" id="dummy-1_h1_6_55"  />
</g>
<g id="a1_0056"  >
<polygon points="540,90 540,90 545,85 540,80 540,80 540,90 " style="fill:white; stroke-width:1; stroke:black; " description="&lt;b&gt;AOM45_RS07450&lt;/b&gt;&lt;br&gt;thioesterase&lt;br&gt;Location: 307788 - 307081" locus_tag="AOM45_RS07450" class="clusterblast-orf" id="dummy-1_h1_6_56"  />
</g>
<g id="a1_0057"  >
<polygon points="545,90 553,90 558,85 553,80 545,80 545,90 " style="fill:white; stroke-width:1; stroke:black; " description="&lt;b&gt;AOM45_RS07445&lt;/b&gt;&lt;br&gt;hypothetical protein&lt;br&gt;Location: 307070 - 305316" locus_tag="AOM45_RS07445" class="clusterblast-orf" id="dummy-1_h1_6_57"  />
</g>
<g id="a1_0058"  >
<polygon points="558,90 562,90 567,85 562,80 558,80 558,90 " style="fill:white; stroke-width:1; stroke:black; " description="&lt;b&gt;AOM45_RS07440&lt;/b&gt;&lt;br&gt;cytochrome P450&lt;br&gt;Location: 305319 - 304120" locus_tag="AOM45_RS07440" class="clusterblast-orf" id="dummy-1_h1_6_58"  />
</g>
<g id="a1_0059"  >
<polygon points="568,85 572,80 572,90 568,85 " style="fill:white; stroke-width:1; stroke:black; " description="&lt;b&gt;AOM45_RS07435&lt;/b&gt;&lt;br&gt;glutamine amidotransferase&lt;br&gt;Location: 304076 - 303489" locus_tag="AOM45_RS07435" class="clusterblast-orf" id="dummy-1_h1_6_59"  />
</g>
<g id="a1_0060"  >
<polygon points="572,85 577,80 582,80 582,90 577,90 572,85 " style="fill:white; stroke-width:1; stroke:black; " description="&lt;b&gt;AOM45_RS07430&lt;/b&gt;&lt;br&gt;anthranilate synthase component I family protein&lt;br&gt;Location: 303492 - 302116" locus_tag="AOM45_RS07430" class="clusterblast-orf" id="dummy-1_h1_6_60"  />
</g>
<g id="a1_0061"  >
<polygon points="582,85 587,80 592,80 592,90 587,90 582,85 " style="fill:white; stroke-width:1; stroke:black; " description="&lt;b&gt;AOM45_RS07425&lt;/b&gt;&lt;br&gt;CoF synthetase&lt;br&gt;Location: 302102 - 300774" locus_tag="AOM45_RS07425" class="clusterblast-orf" id="dummy-1_h1_6_61"  />
</g>
<g id="a1_0062"  >
<polygon points="592,85 597,80 597,80 597,90 597,90 592,85 " style="fill:white; stroke-width:1; stroke:black; " description="&lt;b&gt;AOM45_RS07420&lt;/b&gt;&lt;br&gt;flavodoxin family protein&lt;br&gt;Location: 300770 - 300099" locus_tag="AOM45_RS07420" class="clusterblast-orf" id="dummy-1_h1_6_62"  />
</g>
<g id="a1_0063"  >
<polygon points="598,90 602,85 598,80 598,90 " style="fill:#37d815; stroke-width:1; stroke:black; " description="&lt;b&gt;AOM45_RS07415&lt;/b&gt;&lt;br&gt;DJ-1/PfpI family protein&lt;br&gt;Location: 300043 - 299477&lt;br&gt;&lt;br&gt;&lt;b&gt;BlastP hit with ctg68_26&lt;/b&gt;&lt;br&gt;Percentage identity: 44&lt;br&gt;Percentage coverage: 24&lt;br&gt;BLAST bit score: 81&lt;br&gt;E-value: 2.2e-13" locus_tag="AOM45_RS07415" class="clusterblast-orf" id="dummy-1_h1_6_63"  />
</g>
<g id="a1_0064"  >
<polygon points="603,90 603,90 608,85 603,80 603,80 603,90 " style="fill:white; stroke-width:1; stroke:black; " description="&lt;b&gt;AOM45_RS07410&lt;/b&gt;&lt;br&gt;hypothetical protein&lt;br&gt;Location: 299381 - 298695" locus_tag="AOM45_RS07410" class="clusterblast-orf" id="dummy-1_h1_6_64"  />
</g>
<g id="a1_0065"  >
<polygon points="609,85 614,80 616,80 616,90 614,90 609,85 " style="fill:white; stroke-width:1; stroke:black; " description="&lt;b&gt;AOM45_RS07405&lt;/b&gt;&lt;br&gt;winged helix DNA-binding domain-containing protein&lt;br&gt;Location: 298612 - 297599" locus_tag="AOM45_RS07405" class="clusterblast-orf" id="dummy-1_h1_6_65"  />
</g>
<g id="a1_0066"  >
<polygon points="616,85 621,80 622,80 622,90 621,90 616,85 " style="fill:white; stroke-width:1; stroke:black; " description="&lt;b&gt;AOM45_RS07400&lt;/b&gt;&lt;br&gt;thioesterase&lt;br&gt;Location: 297602 - 296850" locus_tag="AOM45_RS07400" class="clusterblast-orf" id="dummy-1_h1_6_66"  />
</g>
<g id="a1_0067"  >
<polygon points="620,90 626,90 631,85 626,80 620,80 620,90 " style="fill:white; stroke-width:1; stroke:black; " description="&lt;b&gt;AOM45_RS07395&lt;/b&gt;&lt;br&gt;hypothetical protein&lt;br&gt;Location: 297155 - 295608" locus_tag="AOM45_RS07395" class="clusterblast-orf" id="dummy-1_h1_6_67"  />
</g>
<g id="a1_0068"  >
<polygon points="631,90 634,90 639,85 634,80 631,80 631,90 " style="fill:white; stroke-width:1; stroke:black; " description="&lt;b&gt;AOM45_RS07390&lt;/b&gt;&lt;br&gt;3-deoxy-7-phosphoheptulonate synthase&lt;br&gt;Location: 295611 - 294577" locus_tag="AOM45_RS07390" class="clusterblast-orf" id="dummy-1_h1_6_68"  />
</g>
<g id="a1_0069"  >
<polygon points="639,85 644,80 644,80 644,90 644,90 639,85 " style="fill:white; stroke-width:1; stroke:black; " description="&lt;b&gt;AOM45_RS07385&lt;/b&gt;&lt;br&gt;DNA-binding response regulator&lt;br&gt;Location: 294599 - 293955" locus_tag="AOM45_RS07385" class="clusterblast-orf" id="dummy-1_h1_6_69"  />
</g>
<g id="a1_0070"  >
<polygon points="644,85 649,80 650,80 650,90 649,90 644,85 " style="fill:white; stroke-width:1; stroke:black; " description="&lt;b&gt;AOM45_RS07380&lt;/b&gt;&lt;br&gt;sensor histidine kinase&lt;br&gt;Location: 293958 - 293122" locus_tag="AOM45_RS07380" class="clusterblast-orf" id="dummy-1_h1_6_70"  />
</g>
<g id="a1_0071"  >
<polygon points="650,90 651,85 650,80 650,90 " style="fill:white; stroke-width:1; stroke:black; " description="&lt;b&gt;AOM45_RS49265&lt;/b&gt;&lt;br&gt;hypothetical protein&lt;br&gt;Location: 293139 - 292918" locus_tag="AOM45_RS49265" class="clusterblast-orf" id="dummy-1_h1_6_71"  />
</g>
<g id="a1_0072"  >
<polygon points="652,85 657,80 659,80 659,90 657,90 652,85 " style="fill:white; stroke-width:1; stroke:black; " description="&lt;b&gt;AOM45_RS07370&lt;/b&gt;&lt;br&gt;hypothetical protein&lt;br&gt;Location: 292796 - 291888" locus_tag="AOM45_RS07370" class="clusterblast-orf" id="dummy-1_h1_6_72"  />
</g>
<g id="a1_0073"  >
<polygon points="661,90 662,90 667,85 662,80 661,80 661,90 " style="fill:white; stroke-width:1; stroke:black; " description="&lt;b&gt;AOM45_RS07365&lt;/b&gt;&lt;br&gt;SARP family transcriptional regulator&lt;br&gt;Location: 291695 - 290895" locus_tag="AOM45_RS07365" class="clusterblast-orf" id="dummy-1_h1_6_73"  />
</g>
<g id="a1_0074"  >
<polygon points="668,85 673,80 700,80 700,90 673,90 668,85 " style="fill:white; stroke-width:1; stroke:black; " description="&lt;b&gt;AOM45_RS07360&lt;/b&gt;&lt;br&gt;hypothetical protein&lt;br&gt;Location: 290677 - 286472" locus_tag="AOM45_RS07360" class="clusterblast-orf" id="dummy-1_h1_6_74"  />
</g>
<g id="a1_0075"  >
<polygon points="701,85 706,80 725,80 725,90 706,90 701,85 " style="fill:white; stroke-width:1; stroke:black; " description="&lt;b&gt;AOM45_RS07355&lt;/b&gt;&lt;br&gt;hypothetical protein&lt;br&gt;Location: 286364 - 283146" locus_tag="AOM45_RS07355" class="clusterblast-orf" id="dummy-1_h1_6_75"  />
</g>
<g id="a1_0076"  >
<polygon points="725,85 730,80 732,80 732,90 730,90 725,85 " style="fill:white; stroke-width:1; stroke:black; " description="&lt;b&gt;AOM45_RS07350&lt;/b&gt;&lt;br&gt;hypothetical protein&lt;br&gt;Location: 283149 - 282232" locus_tag="AOM45_RS07350" class="clusterblast-orf" id="dummy-1_h1_6_76"  />
</g>
<g id="a1_0077"  >
<polygon points="731,85 735,80 735,90 731,85 " style="fill:white; stroke-width:1; stroke:black; " description="&lt;b&gt;AOM45_RS07345&lt;/b&gt;&lt;br&gt;SigE family RNA polymerase sigma factor&lt;br&gt;Location: 282242 - 281724" locus_tag="AOM45_RS07345" class="clusterblast-orf" id="dummy-1_h1_6_77"  />
</g>
<g id="a1_0078"  >
<polygon points="736,85 741,80 742,80 742,90 741,90 736,85 " style="fill:white; stroke-width:1; stroke:black; " description="&lt;b&gt;AOM45_RS07340&lt;/b&gt;&lt;br&gt;hypothetical protein&lt;br&gt;Location: 281670 - 280873" locus_tag="AOM45_RS07340" class="clusterblast-orf" id="dummy-1_h1_6_78"  />
</g>
<g id="a1_0079"  >
<polygon points="742,85 747,80 752,80 752,90 747,90 742,85 " style="fill:white; stroke-width:1; stroke:black; " description="&lt;b&gt;AOM45_RS07335&lt;/b&gt;&lt;br&gt;hypothetical protein&lt;br&gt;Location: 280847 - 279510" locus_tag="AOM45_RS07335" class="clusterblast-orf" id="dummy-1_h1_6_79"  />
</g>
<g id="a1_0080"  >
<polygon points="752,85 757,80 763,80 763,90 757,90 752,85 " style="fill:white; stroke-width:1; stroke:black; " description="&lt;b&gt;AOM45_RS07330&lt;/b&gt;&lt;br&gt;hypothetical protein&lt;br&gt;Location: 279493 - 278099" locus_tag="AOM45_RS07330" class="clusterblast-orf" id="dummy-1_h1_6_80"  />
</g>
<g id="a1_0081"  >
<polygon points="763,85 768,80 772,80 772,90 768,90 763,85 " style="fill:white; stroke-width:1; stroke:black; " description="&lt;b&gt;AOM45_RS07325&lt;/b&gt;&lt;br&gt;phosphatase PAP2 family protein&lt;br&gt;Location: 278091 - 276826" locus_tag="AOM45_RS07325" class="clusterblast-orf" id="dummy-1_h1_6_81"  />
</g>
<g id="a1_0082"  >
<polygon points="773,85 778,80 780,80 780,90 778,90 773,85 " style="fill:white; stroke-width:1; stroke:black; " description="&lt;b&gt;AOM45_RS07320&lt;/b&gt;&lt;br&gt;aldo/keto reductase&lt;br&gt;Location: 276721 - 275840" locus_tag="AOM45_RS07320" class="clusterblast-orf" id="dummy-1_h1_6_82"  />
</g>
</svg>
