<svg xmlns="http://www.w3.org/2000/svg" xmlns:xlink="http://www.w3.org/1999/xlink" version="1.1" x="0" y="0" height="230" width="800" viewBox="0 0 800 230" preserveAspectRatio="none"  >
<g label="Query sequence" class="clusterblast-cluster"  >
<text x="5" y="20" class="clusterblast-acc"  >
Query sequence</text>
<line x1="10" y1="35" x2="778.0" y2="35" style="stroke-width:1; stroke:grey; "  />
<polygon points="0,40 45,40 50,35 45,30 0,30 0,40 " style="fill:#d81515; stroke-width:1; stroke:black; " description="&lt;b&gt;ctg2_107&lt;/b&gt;&lt;br&gt;ctg2 107&lt;br&gt;Location: 115813 - 118081" locus_tag="ctg2_107" class="clusterblast-orf" id="dummy-1_q0_0_all"  />
<polygon points="50,40 65,40 70,35 65,30 50,30 50,40 " style="fill:#6ad815; stroke-width:1; stroke:black; " description="&lt;b&gt;ctg2_108&lt;/b&gt;&lt;br&gt;ctg2 108&lt;br&gt;Location: 118100 - 118964" locus_tag="ctg2_108" class="clusterblast-orf" id="dummy-1_q1_0_all"  />
<polygon points="77,35 82,30 91,30 91,40 82,40 77,35 " style="fill:#15bfd8; stroke-width:1; stroke:black; " description="&lt;b&gt;ctg2_109&lt;/b&gt;&lt;br&gt;ctg2 109&lt;br&gt;Location: 119308 - 119923" locus_tag="ctg2_109" class="clusterblast-orf" id="dummy-1_q2_0_all"  />
<polygon points="93,40 97,40 102,35 97,30 93,30 93,40 " style="fill:#9d15d8; stroke-width:1; stroke:black; " description="&lt;b&gt;ctg2_110&lt;/b&gt;&lt;br&gt;ctg2 110&lt;br&gt;Location: 120025 - 120436" locus_tag="ctg2_110" class="clusterblast-orf" id="dummy-1_q3_0_all"  />
<polygon points="103,40 150,40 155,35 150,30 103,30 103,40 " style="fill:#d84815; stroke-width:1; stroke:black; " description="&lt;b&gt;ctg2_111&lt;/b&gt;&lt;br&gt;ctg2 111&lt;br&gt;Location: 120481 - 122830" locus_tag="ctg2_111" class="clusterblast-orf" id="dummy-1_q4_0_all"  />
<polygon points="160,40 176,40 181,35 176,30 160,30 160,40 " style="fill:#37d815; stroke-width:1; stroke:black; " description="&lt;b&gt;ctg2_112&lt;/b&gt;&lt;br&gt;ctg2 112&lt;br&gt;Location: 123049 - 123976" locus_tag="ctg2_112" class="clusterblast-orf" id="dummy-1_q5_0_all"  />
<polygon points="181,40 228,40 233,35 228,30 181,30 181,40 " style="fill:#158cd8; stroke-width:1; stroke:black; " description="&lt;b&gt;ctg2_113&lt;/b&gt;&lt;br&gt;ctg2 113&lt;br&gt;Location: 123968 - 126317" locus_tag="ctg2_113" class="clusterblast-orf" id="dummy-1_q6_0_all"  />
<polygon points="233,40 237,35 233,30 233,40 " style="fill:white; stroke-width:1; stroke:black; " description="&lt;b&gt;ctg2_114&lt;/b&gt;&lt;br&gt;ctg2 114&lt;br&gt;Location: 126338 - 126497" locus_tag="ctg2_114" class="clusterblast-orf" id="dummy-1_q7_0_all"  />
<polygon points="237,40 255,40 260,35 255,30 237,30 237,40 " style="fill:#d015d8; stroke-width:1; stroke:black; " description="&lt;b&gt;ctg2_115&lt;/b&gt;&lt;br&gt;ctg2 115&lt;br&gt;Location: 126507 - 127548" locus_tag="ctg2_115" class="clusterblast-orf" id="dummy-1_q8_0_all"  />
<polygon points="264,35 269,30 271,30 271,40 269,40 264,35 " style="fill:#d87b15; stroke-width:1; stroke:black; " description="&lt;b&gt;ctg2_116&lt;/b&gt;&lt;br&gt;ctg2 116&lt;br&gt;Location: 127707 - 128046" locus_tag="ctg2_116" class="clusterblast-orf" id="dummy-1_q9_0_all"  />
<polygon points="276,40 298,40 303,35 298,30 276,30 276,40 " style="fill:white; stroke-width:1; stroke:black; " description="&lt;b&gt;ctg2_117&lt;/b&gt;&lt;br&gt;ctg2 117&lt;br&gt;Location: 128271 - 129462" locus_tag="ctg2_117" class="clusterblast-orf" id="dummy-1_q10_0_all"  />
<polygon points="303,35 308,30 311,30 311,40 308,40 303,35 " style="fill:white; stroke-width:1; stroke:black; " description="&lt;b&gt;ctg2_118&lt;/b&gt;&lt;br&gt;ctg2 118&lt;br&gt;Location: 129484 - 129832" locus_tag="ctg2_118" class="clusterblast-orf" id="dummy-1_q11_0_all"  />
<polygon points="313,40 326,40 331,35 326,30 313,30 313,40 " style="fill:white; stroke-width:1; stroke:black; " description="&lt;b&gt;ctg2_119&lt;/b&gt;&lt;br&gt;ctg2 119&lt;br&gt;Location: 129950 - 130739" locus_tag="ctg2_119" class="clusterblast-orf" id="dummy-1_q12_0_all"  />
<polygon points="331,35 336,30 344,30 344,40 336,40 331,35 " style="fill:#15d826; stroke-width:1; stroke:black; " description="&lt;b&gt;ctg2_120&lt;/b&gt;&lt;br&gt;ctg2 120&lt;br&gt;Location: 130761 - 131343" locus_tag="ctg2_120" class="clusterblast-orf" id="dummy-1_q13_0_all"  />
<polygon points="346,40 377,40 382,35 377,30 346,30 346,40 " style="fill:#1559d8; stroke-width:1; stroke:black; " description="&lt;b&gt;ctg2_121&lt;/b&gt;&lt;br&gt;ctg2 121&lt;br&gt;Location: 131410 - 133021" locus_tag="ctg2_121" class="clusterblast-orf" id="dummy-1_q14_0_all"  />
<polygon points="388,40 434,40 439,35 434,30 388,30 388,40 " style="fill:#d815ae; stroke-width:1; stroke:black; " description="&lt;b&gt;ctg2_122&lt;/b&gt;&lt;br&gt;ctg2 122&lt;br&gt;Location: 133316 - 135611" locus_tag="ctg2_122" class="clusterblast-orf" id="dummy-1_q15_0_all"  />
<polygon points="439,40 444,40 449,35 444,30 439,30 439,40 " style="fill:#d8ae15; stroke-width:1; stroke:black; " description="&lt;b&gt;ctg2_123&lt;/b&gt;&lt;br&gt;ctg2 123&lt;br&gt;Location: 135628 - 136066" locus_tag="ctg2_123" class="clusterblast-orf" id="dummy-1_q16_0_all"  />
<polygon points="449,40 452,40 457,35 452,30 449,30 449,40 " style="fill:#15d859; stroke-width:1; stroke:black; " description="&lt;b&gt;ctg2_124&lt;/b&gt;&lt;br&gt;ctg2 124&lt;br&gt;Location: 136062 - 136443" locus_tag="ctg2_124" class="clusterblast-orf" id="dummy-1_q17_0_all"  />
<polygon points="457,40 466,40 471,35 466,30 457,30 457,40 " style="fill:#1526d8; stroke-width:1; stroke:black; " description="&lt;b&gt;ctg2_125&lt;/b&gt;&lt;br&gt;ctg2 125&lt;br&gt;Location: 136423 - 137038" locus_tag="ctg2_125" class="clusterblast-orf" id="dummy-1_q18_0_all"  />
<polygon points="472,35 477,30 508,30 508,40 477,40 472,35 " style="fill:#1559d8; stroke-width:1; stroke:black; " description="&lt;b&gt;ctg2_126&lt;/b&gt;&lt;br&gt;ctg2 126&lt;br&gt;Location: 137087 - 138728" locus_tag="ctg2_126" class="clusterblast-orf" id="dummy-1_q19_0_all"  />
<polygon points="513,40 522,40 527,35 522,30 513,30 513,40 " style="fill:#d8157b; stroke-width:1; stroke:black; " description="&lt;b&gt;ctg2_127&lt;/b&gt;&lt;br&gt;ctg2 127&lt;br&gt;Location: 138967 - 139576" locus_tag="ctg2_127" class="clusterblast-orf" id="dummy-1_q20_0_all"  />
<polygon points="529,40 539,40 544,35 539,30 529,30 529,40 " style="fill:#d0d815; stroke-width:1; stroke:black; " description="&lt;b&gt;ctg2_128&lt;/b&gt;&lt;br&gt;ctg2 128&lt;br&gt;Location: 139684 - 140356" locus_tag="ctg2_128" class="clusterblast-orf" id="dummy-1_q21_0_all"  />
<polygon points="545,35 550,30 566,30 566,40 550,40 545,35 " style="fill:#15d88c; stroke-width:1; stroke:black; " description="&lt;b&gt;ctg2_129&lt;/b&gt;&lt;br&gt;ctg2 129&lt;br&gt;Location: 140367 - 141345" locus_tag="ctg2_129" class="clusterblast-orf" id="dummy-1_q22_0_all"  />
<polygon points="574,40 594,40 599,35 594,30 574,30 574,40 " style="fill:#3715d8; stroke-width:1; stroke:black; " description="&lt;b&gt;ctg2_130&lt;/b&gt;&lt;br&gt;ctg2 130&lt;br&gt;Location: 141689 - 142835" locus_tag="ctg2_130" class="clusterblast-orf" id="dummy-1_q23_0_all"  />
<polygon points="601,35 606,30 631,30 631,40 606,40 601,35 " style="fill:#d81548; stroke-width:1; stroke:black; " description="&lt;b&gt;ctg2_131&lt;/b&gt;&lt;br&gt;ctg2 131&lt;br&gt;Location: 142922 - 144260" locus_tag="ctg2_131" class="clusterblast-orf" id="dummy-1_q24_0_all"  />
<polygon points="632,35 637,30 650,30 650,40 637,40 632,35 " style="fill:#9dd815; stroke-width:1; stroke:black; " description="&lt;b&gt;ctg2_132&lt;/b&gt;&lt;br&gt;ctg2 132&lt;br&gt;Location: 144292 - 145138" locus_tag="ctg2_132" class="clusterblast-orf" id="dummy-1_q25_0_all"  />
<polygon points="653,40 668,40 673,35 668,30 653,30 653,40 " style="fill:#15d8bf; stroke-width:1; stroke:black; " description="&lt;b&gt;ctg2_133&lt;/b&gt;&lt;br&gt;ctg2 133&lt;br&gt;Location: 145248 - 146163" locus_tag="ctg2_133" class="clusterblast-orf" id="dummy-1_q26_0_all"  />
<polygon points="676,35 681,30 694,30 694,40 681,40 676,35 " style="fill:white; stroke-width:1; stroke:black; " description="&lt;b&gt;ctg2_134&lt;/b&gt;&lt;br&gt;ctg2 134&lt;br&gt;Location: 146271 - 147105" locus_tag="ctg2_134" class="clusterblast-orf" id="dummy-1_q27_0_all"  />
<polygon points="697,35 702,30 711,30 711,40 702,40 697,35 " style="fill:white; stroke-width:1; stroke:black; " description="&lt;b&gt;ctg2_135&lt;/b&gt;&lt;br&gt;ctg2 135&lt;br&gt;Location: 147246 - 147885" locus_tag="ctg2_135" class="clusterblast-orf" id="dummy-1_q28_0_all"  />
<polygon points="713,40 739,40 744,35 739,30 713,30 713,40 " style="fill:white; stroke-width:1; stroke:black; " description="&lt;b&gt;ctg2_136&lt;/b&gt;&lt;br&gt;ctg2 136&lt;br&gt;Location: 147950 - 149336" locus_tag="ctg2_136" class="clusterblast-orf" id="dummy-1_q29_0_all"  />
<polygon points="744,40 755,40 760,35 755,30 744,30 744,40 " style="fill:white; stroke-width:1; stroke:black; " description="&lt;b&gt;ctg2_137&lt;/b&gt;&lt;br&gt;ctg2 137&lt;br&gt;Location: 149355 - 150066" locus_tag="ctg2_137" class="clusterblast-orf" id="dummy-1_q30_0_all"  />
<polygon points="760,40 769,40 774,35 769,30 760,30 760,40 " style="fill:#6a15d8; stroke-width:1; stroke:black; " description="&lt;b&gt;ctg2_138&lt;/b&gt;&lt;br&gt;ctg2 138&lt;br&gt;Location: 150076 - 150691" locus_tag="ctg2_138" class="clusterblast-orf" id="dummy-1_q31_0_all"  />
<polygon points="775,35 780,30 780,30 780,40 780,40 775,35 " style="fill:white; stroke-width:1; stroke:black; " description="&lt;b&gt;ctg2_139&lt;/b&gt;&lt;br&gt;ctg2 139&lt;br&gt;Location: 150734 - 150968" locus_tag="ctg2_139" class="clusterblast-orf" id="dummy-1_q32_0_all"  />
</g>
<g label="NZ_AFWY03000007" description="NZ_AFWY03000007_c12: Amycolatopsis sp. ATCC 39116 strain 75iv2 Amy contig0011... (45% of genes show similarity), lantipeptide" class="clusterblast-cluster"  >
<text x="5" y="70" class="clusterblast-acc"  >
<a xlink:href="https://antismash-db.secondarymetabolites.org/go/NZ_AFWY03000007/12" target="_blank">NZ_AFWY03000007_c12</a>: Amycolatopsis sp. ATCC 39116 strain 75iv2 Amy contig0011... (45% of genes show similarity), lantipeptide</text>
<line x1="10" y1="85" x2="778.0" y2="85" style="stroke-width:1; stroke:grey; "  />
</g>
<g id="a1_000"  >
<polygon points="160,90 205,90 210,85 205,80 160,80 160,90 " style="fill:#d81515; stroke-width:1; stroke:black; " description="&lt;b&gt;AMY39116_RS0310775&lt;/b&gt;&lt;br&gt;ANTAR domain-containing protein&lt;br&gt;Location: 98084 - 95817&lt;br&gt;&lt;br&gt;&lt;b&gt;BlastP hit with ctg2_107&lt;/b&gt;&lt;br&gt;Percentage identity: 84&lt;br&gt;Percentage coverage: 100&lt;br&gt;BLAST bit score: 1238&lt;br&gt;E-value: 0.0" locus_tag="AMY39116_RS0310775" class="clusterblast-orf" id="dummy-1_h1_1_0"  />
</g>
<g id="a1_001"  >
<polygon points="211,90 225,90 230,85 225,80 211,80 211,90 " style="fill:#6ad815; stroke-width:1; stroke:black; " description="&lt;b&gt;AMY39116_RS0310770&lt;/b&gt;&lt;br&gt;DNA-directed RNA polymerase sigma-70 factor&lt;br&gt;Location: 95797 - 94925&lt;br&gt;&lt;br&gt;&lt;b&gt;BlastP hit with ctg2_108&lt;/b&gt;&lt;br&gt;Percentage identity: 84&lt;br&gt;Percentage coverage: 100&lt;br&gt;BLAST bit score: 461&lt;br&gt;E-value: 6.4e-128" locus_tag="AMY39116_RS0310770" class="clusterblast-orf" id="dummy-1_h1_1_1"  />
</g>
<g id="a1_002"  >
<polygon points="230,85 235,80 244,80 244,90 235,90 230,85 " style="fill:#15bfd8; stroke-width:1; stroke:black; " description="&lt;b&gt;AMY39116_RS0310765&lt;/b&gt;&lt;br&gt;hypothetical protein&lt;br&gt;Location: 94931 - 94314&lt;br&gt;&lt;br&gt;&lt;b&gt;BlastP hit with ctg2_109&lt;/b&gt;&lt;br&gt;Percentage identity: 76&lt;br&gt;Percentage coverage: 98&lt;br&gt;BLAST bit score: 321&lt;br&gt;E-value: 5.6e-86" locus_tag="AMY39116_RS0310765" class="clusterblast-orf" id="dummy-1_h1_1_2"  />
</g>
<g id="a1_003"  >
<polygon points="246,90 250,90 255,85 250,80 246,80 246,90 " style="fill:#9d15d8; stroke-width:1; stroke:black; " description="&lt;b&gt;AMY39116_RS0310760&lt;/b&gt;&lt;br&gt;VOC family protein&lt;br&gt;Location: 94213 - 93803&lt;br&gt;&lt;br&gt;&lt;b&gt;BlastP hit with ctg2_110&lt;/b&gt;&lt;br&gt;Percentage identity: 83&lt;br&gt;Percentage coverage: 99&lt;br&gt;BLAST bit score: 248&lt;br&gt;E-value: 5.3e-64" locus_tag="AMY39116_RS0310760" class="clusterblast-orf" id="dummy-1_h1_1_3"  />
</g>
<g id="a1_004"  >
<polygon points="256,90 303,90 308,85 303,80 256,80 256,90 " style="fill:#d84815; stroke-width:1; stroke:black; " description="&lt;b&gt;AMY39116_RS0310755&lt;/b&gt;&lt;br&gt;acetyl-CoA acetyltransferase&lt;br&gt;Location: 93757 - 91409&lt;br&gt;&lt;br&gt;&lt;b&gt;BlastP hit with ctg2_111&lt;/b&gt;&lt;br&gt;Percentage identity: 86&lt;br&gt;Percentage coverage: 100&lt;br&gt;BLAST bit score: 1354&lt;br&gt;E-value: 0.0" locus_tag="AMY39116_RS0310755" class="clusterblast-orf" id="dummy-1_h1_1_4"  />
</g>
<g id="a1_005"  >
<polygon points="313,90 329,90 334,85 329,80 313,80 313,90 " style="fill:#37d815; stroke-width:1; stroke:black; " description="&lt;b&gt;AMY39116_RS0310750&lt;/b&gt;&lt;br&gt;hypothetical protein&lt;br&gt;Location: 91188 - 90265&lt;br&gt;&lt;br&gt;&lt;b&gt;BlastP hit with ctg2_112&lt;/b&gt;&lt;br&gt;Percentage identity: 83&lt;br&gt;Percentage coverage: 100&lt;br&gt;BLAST bit score: 545&lt;br&gt;E-value: 2.8e-153" locus_tag="AMY39116_RS0310750" class="clusterblast-orf" id="dummy-1_h1_1_5"  />
</g>
<g id="a1_006"  >
<polygon points="334,90 380,90 385,85 380,80 334,80 334,90 " style="fill:#158cd8; stroke-width:1; stroke:black; " description="&lt;b&gt;AMY39116_RS0310745&lt;/b&gt;&lt;br&gt;hypothetical protein&lt;br&gt;Location: 90272 - 87930&lt;br&gt;&lt;br&gt;&lt;b&gt;BlastP hit with ctg2_113&lt;/b&gt;&lt;br&gt;Percentage identity: 85&lt;br&gt;Percentage coverage: 100&lt;br&gt;BLAST bit score: 1334&lt;br&gt;E-value: 0.0" locus_tag="AMY39116_RS0310745" class="clusterblast-orf" id="dummy-1_h1_1_6"  />
</g>
<g id="a1_007"  >
<polygon points="390,90 407,90 412,85 407,80 390,80 390,90 " style="fill:#d015d8; stroke-width:1; stroke:black; " description="&lt;b&gt;AMY39116_RS0310735&lt;/b&gt;&lt;br&gt;hypothetical protein&lt;br&gt;Location: 87735 - 86725&lt;br&gt;&lt;br&gt;&lt;b&gt;BlastP hit with ctg2_115&lt;/b&gt;&lt;br&gt;Percentage identity: 72&lt;br&gt;Percentage coverage: 100&lt;br&gt;BLAST bit score: 472&lt;br&gt;E-value: 5.7e-131" locus_tag="AMY39116_RS0310735" class="clusterblast-orf" id="dummy-1_h1_1_7"  />
</g>
<g id="a1_008"  >
<polygon points="413,85 418,80 456,80 456,90 418,90 413,85 " style="fill:white; stroke-width:1; stroke:black; " description="&lt;b&gt;AMY39116_RS0310730&lt;/b&gt;&lt;br&gt;RNA polymerase sigma factor&lt;br&gt;Location: 86694 - 84748" locus_tag="AMY39116_RS0310730" class="clusterblast-orf" id="dummy-1_h1_1_8"  />
</g>
<g id="a1_009"  >
<polygon points="456,85 461,80 463,80 463,90 461,90 456,85 " style="fill:white; stroke-width:1; stroke:black; " description="&lt;b&gt;AMY39116_RS0310725&lt;/b&gt;&lt;br&gt;hypothetical protein&lt;br&gt;Location: 84751 - 84431" locus_tag="AMY39116_RS0310725" class="clusterblast-orf" id="dummy-1_h1_1_9"  />
</g>
<g id="a1_0010"  >
<polygon points="465,90 472,90 477,85 472,80 465,80 465,90 " style="fill:white; stroke-width:1; stroke:black; " description="&lt;b&gt;AMY39116_RS0310720&lt;/b&gt;&lt;br&gt;DUF998 domain-containing protein&lt;br&gt;Location: 84352 - 83798" locus_tag="AMY39116_RS0310720" class="clusterblast-orf" id="dummy-1_h1_1_10"  />
</g>
<g id="a1_0011"  >
<polygon points="477,90 480,90 485,85 480,80 477,80 477,90 " style="fill:white; stroke-width:1; stroke:black; " description="&lt;b&gt;AMY39116_RS0310715&lt;/b&gt;&lt;br&gt;DUF1801 domain-containing protein&lt;br&gt;Location: 83783 - 83442" locus_tag="AMY39116_RS0310715" class="clusterblast-orf" id="dummy-1_h1_1_11"  />
</g>
<g id="a1_0012"  >
<polygon points="486,85 491,80 520,80 520,90 491,90 486,85 " style="fill:#d87b15; stroke-width:1; stroke:black; " description="&lt;b&gt;AMY39116_RS0310710&lt;/b&gt;&lt;br&gt;hypothetical protein&lt;br&gt;Location: 83408 - 81864&lt;br&gt;&lt;br&gt;&lt;b&gt;BlastP hit with ctg2_116&lt;/b&gt;&lt;br&gt;Percentage identity: 49&lt;br&gt;Percentage coverage: 96&lt;br&gt;BLAST bit score: 93&lt;br&gt;E-value: 1.8e-17" locus_tag="AMY39116_RS0310710" class="clusterblast-orf" id="dummy-1_h1_1_12"  />
</g>
<g id="a1_0013"  >
<polygon points="522,85 527,80 530,80 530,90 527,90 522,85 " style="fill:white; stroke-width:1; stroke:black; " description="&lt;b&gt;AMY39116_RS0310705&lt;/b&gt;&lt;br&gt;hypothetical protein&lt;br&gt;Location: 81759 - 81403" locus_tag="AMY39116_RS0310705" class="clusterblast-orf" id="dummy-1_h1_1_13"  />
</g>
<g id="a1_0014"  >
<polygon points="532,90 544,90 549,85 544,80 532,80 532,90 " style="fill:white; stroke-width:1; stroke:black; " description="&lt;b&gt;AMY39116_RS0310700&lt;/b&gt;&lt;br&gt;class I SAM-dependent methyltransferase&lt;br&gt;Location: 81336 - 80572" locus_tag="AMY39116_RS0310700" class="clusterblast-orf" id="dummy-1_h1_1_14"  />
</g>
<g id="a1_0015"  >
<polygon points="551,90 554,90 559,85 554,80 551,80 551,90 " style="fill:white; stroke-width:1; stroke:black; " description="&lt;b&gt;AMY39116_RS45360&lt;/b&gt;&lt;br&gt;hypothetical protein&lt;br&gt;Location: 80483 - 80124" locus_tag="AMY39116_RS45360" class="clusterblast-orf" id="dummy-1_h1_1_15"  />
</g>
<g id="a1_0016"  >
<polygon points="563,85 568,80 582,80 582,90 568,90 563,85 " style="fill:white; stroke-width:1; stroke:black; " description="&lt;b&gt;AMY39116_RS0310690&lt;/b&gt;&lt;br&gt;short-chain dehydrogenase&lt;br&gt;Location: 79951 - 79070" locus_tag="AMY39116_RS0310690" class="clusterblast-orf" id="dummy-1_h1_1_16"  />
</g>
<g id="a1_0017"  >
<polygon points="584,90 598,90 603,85 598,80 584,80 584,90 " style="fill:white; stroke-width:1; stroke:black; " description="&lt;b&gt;AMY39116_RS0310685&lt;/b&gt;&lt;br&gt;XRE family transcriptional regulator&lt;br&gt;Location: 78983 - 78147" locus_tag="AMY39116_RS0310685" class="clusterblast-orf" id="dummy-1_h1_1_17"  />
</g>
<g id="a1_0018"  >
<polygon points="602,85 607,80 611,80 611,90 607,90 602,85 " style="fill:white; stroke-width:1; stroke:black; " description="&lt;b&gt;AMY39116_RS42650&lt;/b&gt;&lt;br&gt;hypothetical protein&lt;br&gt;Location: 78150 - 77761" locus_tag="AMY39116_RS42650" class="clusterblast-orf" id="dummy-1_h1_1_18"  />
</g>
<g id="a1_0019"  >
<polygon points="613,85 618,80 619,80 619,90 618,90 613,85 " style="fill:white; stroke-width:1; stroke:black; " description="&lt;b&gt;AMY39116_RS45355&lt;/b&gt;&lt;br&gt;hypothetical protein&lt;br&gt;Location: 77685 - 77413" locus_tag="AMY39116_RS45355" class="clusterblast-orf" id="dummy-1_h1_1_19"  />
</g>
</svg>
