<svg xmlns="http://www.w3.org/2000/svg" xmlns:xlink="http://www.w3.org/1999/xlink" version="1.1" x="0" y="0" height="230" width="800" viewBox="0 0 800 230" preserveAspectRatio="none"  >
<g label="Query sequence" class="clusterblast-cluster"  >
<text x="5" y="20" class="clusterblast-acc"  >
Query sequence</text>
<line x1="10" y1="35" x2="778.0" y2="35" style="stroke-width:1; stroke:grey; "  />
<polygon points="169,35 171,30 171,40 169,35 " style="fill:white; stroke-width:1; stroke:black; " description="&lt;b&gt;ctg68_3&lt;/b&gt;&lt;br&gt;ctg68 3&lt;br&gt;Location: 1428 - 1599" locus_tag="ctg68_3" class="clusterblast-orf" id="dummy-1_q0_0_all"  />
<polygon points="176,35 181,30 200,30 200,40 181,40 176,35 " style="fill:#d81515; stroke-width:1; stroke:black; " description="&lt;b&gt;ctg68_4&lt;/b&gt;&lt;br&gt;ctg68 4&lt;br&gt;Location: 2015 - 4208" locus_tag="ctg68_4" class="clusterblast-orf" id="dummy-1_q1_0_all"  />
<polygon points="200,35 205,30 213,30 213,40 205,40 200,35 " style="fill:#6ad815; stroke-width:1; stroke:black; " description="&lt;b&gt;ctg68_5&lt;/b&gt;&lt;br&gt;ctg68 5&lt;br&gt;Location: 4204 - 5329" locus_tag="ctg68_5" class="clusterblast-orf" id="dummy-1_q2_0_all"  />
<polygon points="213,35 217,30 217,40 213,35 " style="fill:white; stroke-width:1; stroke:black; " description="&lt;b&gt;ctg68_6&lt;/b&gt;&lt;br&gt;ctg68 6&lt;br&gt;Location: 5328 - 5637" locus_tag="ctg68_6" class="clusterblast-orf" id="dummy-1_q3_0_all"  />
<polygon points="216,35 219,30 219,40 216,35 " style="fill:#15bfd8; stroke-width:1; stroke:black; " description="&lt;b&gt;ctg68_7&lt;/b&gt;&lt;br&gt;ctg68 7&lt;br&gt;Location: 5623 - 5878" locus_tag="ctg68_7" class="clusterblast-orf" id="dummy-1_q4_0_all"  />
<polygon points="219,35 224,30 224,30 224,40 224,40 219,35 " style="fill:white; stroke-width:1; stroke:black; " description="&lt;b&gt;ctg68_8&lt;/b&gt;&lt;br&gt;ctg68 8&lt;br&gt;Location: 5877 - 6321" locus_tag="ctg68_8" class="clusterblast-orf" id="dummy-1_q5_0_all"  />
<polygon points="224,35 228,30 228,40 224,35 " style="fill:white; stroke-width:1; stroke:black; " description="&lt;b&gt;ctg68_9&lt;/b&gt;&lt;br&gt;ctg68 9&lt;br&gt;Location: 6320 - 6608" locus_tag="ctg68_9" class="clusterblast-orf" id="dummy-1_q6_0_all"  />
<polygon points="229,40 233,35 229,30 229,40 " style="fill:white; stroke-width:1; stroke:black; " description="&lt;b&gt;ctg68_10&lt;/b&gt;&lt;br&gt;ctg68 10&lt;br&gt;Location: 6747 - 7104" locus_tag="ctg68_10" class="clusterblast-orf" id="dummy-1_q7_0_all"  />
<polygon points="234,40 237,35 234,30 234,40 " style="fill:white; stroke-width:1; stroke:black; " description="&lt;b&gt;ctg68_11&lt;/b&gt;&lt;br&gt;ctg68 11&lt;br&gt;Location: 7161 - 7422" locus_tag="ctg68_11" class="clusterblast-orf" id="dummy-1_q8_0_all"  />
<polygon points="237,40 245,40 250,35 245,30 237,30 237,40 " style="fill:white; stroke-width:1; stroke:black; " description="&lt;b&gt;ctg68_12&lt;/b&gt;&lt;br&gt;ctg68 12&lt;br&gt;Location: 7466 - 8609" locus_tag="ctg68_12" class="clusterblast-orf" id="dummy-1_q9_0_all"  />
<polygon points="250,35 255,30 258,30 258,40 255,40 250,35 " style="fill:white; stroke-width:1; stroke:black; " description="&lt;b&gt;ctg68_13&lt;/b&gt;&lt;br&gt;ctg68 13&lt;br&gt;Location: 8594 - 9296" locus_tag="ctg68_13" class="clusterblast-orf" id="dummy-1_q10_0_all"  />
<polygon points="258,40 265,40 270,35 265,30 258,30 258,40 " style="fill:white; stroke-width:1; stroke:black; " description="&lt;b&gt;ctg68_14&lt;/b&gt;&lt;br&gt;ctg68 14&lt;br&gt;Location: 9343 - 10384" locus_tag="ctg68_14" class="clusterblast-orf" id="dummy-1_q11_0_all"  />
<polygon points="272,40 274,35 272,30 272,40 " style="fill:white; stroke-width:1; stroke:black; " description="&lt;b&gt;ctg68_15&lt;/b&gt;&lt;br&gt;ctg68 15&lt;br&gt;Location: 10516 - 10708" locus_tag="ctg68_15" class="clusterblast-orf" id="dummy-1_q12_0_all"  />
<polygon points="273,35 278,30 283,30 283,40 278,40 273,35 " style="fill:white; stroke-width:1; stroke:black; " description="&lt;b&gt;ctg68_16&lt;/b&gt;&lt;br&gt;ctg68 16&lt;br&gt;Location: 10633 - 11551" locus_tag="ctg68_16" class="clusterblast-orf" id="dummy-1_q13_0_all"  />
<polygon points="284,40 286,35 284,30 284,40 " style="fill:white; stroke-width:1; stroke:black; " description="&lt;b&gt;ctg68_17&lt;/b&gt;&lt;br&gt;ctg68 17&lt;br&gt;Location: 11572 - 11800" locus_tag="ctg68_17" class="clusterblast-orf" id="dummy-1_q14_0_all"  />
<polygon points="286,40 288,35 286,30 286,40 " style="fill:white; stroke-width:1; stroke:black; " description="&lt;b&gt;ctg68_18&lt;/b&gt;&lt;br&gt;ctg68 18&lt;br&gt;Location: 11796 - 11991" locus_tag="ctg68_18" class="clusterblast-orf" id="dummy-1_q15_0_all"  />
<polygon points="295,40 297,35 295,30 295,40 " style="fill:white; stroke-width:1; stroke:black; " description="&lt;b&gt;ctg68_19&lt;/b&gt;&lt;br&gt;ctg68 19&lt;br&gt;Location: 12546 - 12792" locus_tag="ctg68_19" class="clusterblast-orf" id="dummy-1_q16_0_all"  />
<polygon points="297,35 299,30 299,40 297,35 " style="fill:white; stroke-width:1; stroke:black; " description="&lt;b&gt;ctg68_20&lt;/b&gt;&lt;br&gt;ctg68 20&lt;br&gt;Location: 12788 - 12974" locus_tag="ctg68_20" class="clusterblast-orf" id="dummy-1_q17_0_all"  />
<polygon points="301,35 306,30 307,30 307,40 306,40 301,35 " style="fill:white; stroke-width:1; stroke:black; " description="&lt;b&gt;ctg68_21&lt;/b&gt;&lt;br&gt;ctg68 21&lt;br&gt;Location: 13157 - 13622" locus_tag="ctg68_21" class="clusterblast-orf" id="dummy-1_q18_0_all"  />
<polygon points="308,40 310,40 315,35 310,30 308,30 308,40 " style="fill:white; stroke-width:1; stroke:black; " description="&lt;b&gt;ctg68_22&lt;/b&gt;&lt;br&gt;ctg68 22&lt;br&gt;Location: 13709 - 14369" locus_tag="ctg68_22" class="clusterblast-orf" id="dummy-1_q19_0_all"  />
<polygon points="316,40 316,40 321,35 316,30 316,30 316,40 " style="fill:#9d15d8; stroke-width:1; stroke:black; " description="&lt;b&gt;ctg68_23&lt;/b&gt;&lt;br&gt;ctg68 23&lt;br&gt;Location: 14434 - 14860" locus_tag="ctg68_23" class="clusterblast-orf" id="dummy-1_q20_0_all"  />
<polygon points="322,40 327,40 332,35 327,30 322,30 322,40 " style="fill:white; stroke-width:1; stroke:black; " description="&lt;b&gt;ctg68_24&lt;/b&gt;&lt;br&gt;ctg68 24&lt;br&gt;Location: 14985 - 15846" locus_tag="ctg68_24" class="clusterblast-orf" id="dummy-1_q21_0_all"  />
<polygon points="332,35 337,30 341,30 341,40 337,40 332,35 " style="fill:#d84815; stroke-width:1; stroke:black; " description="&lt;b&gt;ctg68_25&lt;/b&gt;&lt;br&gt;ctg68 25&lt;br&gt;Location: 15892 - 16660" locus_tag="ctg68_25" class="clusterblast-orf" id="dummy-1_q22_0_all"  />
<polygon points="341,40 348,40 353,35 348,30 341,30 341,40 " style="fill:#37d815; stroke-width:1; stroke:black; " description="&lt;b&gt;ctg68_26&lt;/b&gt;&lt;br&gt;ctg68 26&lt;br&gt;Location: 16703 - 17762" locus_tag="ctg68_26" class="clusterblast-orf" id="dummy-1_q23_0_all"  />
<polygon points="353,35 358,30 384,30 384,40 358,40 353,35 " style="fill:#158cd8; stroke-width:1; stroke:black; " description="&lt;b&gt;ctg68_27&lt;/b&gt;&lt;br&gt;ctg68 27&lt;br&gt;Location: 17719 - 20455" locus_tag="ctg68_27" class="clusterblast-orf" id="dummy-1_q24_0_all"  />
<polygon points="386,40 394,40 399,35 394,30 386,30 386,40 " style="fill:#d015d8; stroke-width:1; stroke:black; " description="&lt;b&gt;ctg68_28&lt;/b&gt;&lt;br&gt;ctg68 28&lt;br&gt;Location: 20646 - 21807" locus_tag="ctg68_28" class="clusterblast-orf" id="dummy-1_q25_0_all"  />
<polygon points="400,40 408,40 413,35 408,30 400,30 400,40 " style="fill:#d87b15; stroke-width:1; stroke:black; " description="&lt;b&gt;ctg68_29&lt;/b&gt;&lt;br&gt;ctg68 29&lt;br&gt;Location: 21877 - 23023" locus_tag="ctg68_29" class="clusterblast-orf" id="dummy-1_q26_0_all"  />
<polygon points="413,40 417,40 422,35 417,30 413,30 413,40 " style="fill:#15d826; stroke-width:1; stroke:black; " description="&lt;b&gt;ctg68_30&lt;/b&gt;&lt;br&gt;ctg68 30&lt;br&gt;Location: 23032 - 23809" locus_tag="ctg68_30" class="clusterblast-orf" id="dummy-1_q27_0_all"  />
<polygon points="422,35 427,30 432,30 432,40 427,40 422,35 " style="fill:white; stroke-width:1; stroke:black; " description="&lt;b&gt;ctg68_31&lt;/b&gt;&lt;br&gt;ctg68 31&lt;br&gt;Location: 23805 - 24678" locus_tag="ctg68_31" class="clusterblast-orf" id="dummy-1_q28_0_all"  />
<polygon points="433,40 434,40 439,35 434,30 433,30 433,40 " style="fill:white; stroke-width:1; stroke:black; " description="&lt;b&gt;ctg68_32&lt;/b&gt;&lt;br&gt;ctg68 32&lt;br&gt;Location: 24766 - 25333" locus_tag="ctg68_32" class="clusterblast-orf" id="dummy-1_q29_0_all"  />
<polygon points="440,40 448,40 453,35 448,30 440,30 440,40 " style="fill:#1559d8; stroke-width:1; stroke:black; " description="&lt;b&gt;ctg68_33&lt;/b&gt;&lt;br&gt;ctg68 33&lt;br&gt;Location: 25417 - 26599" locus_tag="ctg68_33" class="clusterblast-orf" id="dummy-1_q30_0_all"  />
<polygon points="455,40 458,40 463,35 458,30 455,30 455,40 " style="fill:#d815ae; stroke-width:1; stroke:black; " description="&lt;b&gt;ctg68_34&lt;/b&gt;&lt;br&gt;ctg68 34&lt;br&gt;Location: 26775 - 27492" locus_tag="ctg68_34" class="clusterblast-orf" id="dummy-1_q31_0_all"  />
<polygon points="464,35 469,30 479,30 479,40 469,40 464,35 " style="fill:#d8ae15; stroke-width:1; stroke:black; " description="&lt;b&gt;ctg68_35&lt;/b&gt;&lt;br&gt;ctg68 35&lt;br&gt;Location: 27526 - 28924" locus_tag="ctg68_35" class="clusterblast-orf" id="dummy-1_q32_0_all"  />
<polygon points="482,40 487,40 492,35 487,30 482,30 482,40 " style="fill:#15d859; stroke-width:1; stroke:black; " description="&lt;b&gt;ctg68_36&lt;/b&gt;&lt;br&gt;ctg68 36&lt;br&gt;Location: 29186 - 30044" locus_tag="ctg68_36" class="clusterblast-orf" id="dummy-1_q33_0_all"  />
<polygon points="493,40 497,40 502,35 497,30 493,30 493,40 " style="fill:#1526d8; stroke-width:1; stroke:black; " description="&lt;b&gt;ctg68_37&lt;/b&gt;&lt;br&gt;ctg68 37&lt;br&gt;Location: 30080 - 30926" locus_tag="ctg68_37" class="clusterblast-orf" id="dummy-1_q34_0_all"  />
<polygon points="504,35 506,30 506,40 504,35 " style="fill:white; stroke-width:1; stroke:black; " description="&lt;b&gt;ctg68_38&lt;/b&gt;&lt;br&gt;ctg68 38&lt;br&gt;Location: 31092 - 31260" locus_tag="ctg68_38" class="clusterblast-orf" id="dummy-1_q35_0_all"  />
<polygon points="506,35 511,30 511,30 511,40 511,40 506,35 " style="fill:#d8157b; stroke-width:1; stroke:black; " description="&lt;b&gt;ctg68_39&lt;/b&gt;&lt;br&gt;ctg68 39&lt;br&gt;Location: 31256 - 31700" locus_tag="ctg68_39" class="clusterblast-orf" id="dummy-1_q36_0_all"  />
<polygon points="513,40 516,35 513,30 513,40 " style="fill:#d0d815; stroke-width:1; stroke:black; " description="&lt;b&gt;ctg68_40&lt;/b&gt;&lt;br&gt;ctg68 40&lt;br&gt;Location: 31875 - 32127" locus_tag="ctg68_40" class="clusterblast-orf" id="dummy-1_q37_0_all"  />
<polygon points="517,35 522,30 524,30 524,40 522,40 517,35 " style="fill:#15d88c; stroke-width:1; stroke:black; " description="&lt;b&gt;ctg68_41&lt;/b&gt;&lt;br&gt;ctg68 41&lt;br&gt;Location: 32224 - 32830" locus_tag="ctg68_41" class="clusterblast-orf" id="dummy-1_q38_0_all"  />
<polygon points="525,40 529,40 534,35 529,30 525,30 525,40 " style="fill:#3715d8; stroke-width:1; stroke:black; " description="&lt;b&gt;ctg68_42&lt;/b&gt;&lt;br&gt;ctg68 42&lt;br&gt;Location: 32930 - 33749" locus_tag="ctg68_42" class="clusterblast-orf" id="dummy-1_q39_0_all"  />
<polygon points="534,40 546,40 551,35 546,30 534,30 534,40 " style="fill:#d81548; stroke-width:1; stroke:black; " description="&lt;b&gt;ctg68_43&lt;/b&gt;&lt;br&gt;ctg68 43&lt;br&gt;Location: 33726 - 35223" locus_tag="ctg68_43" class="clusterblast-orf" id="dummy-1_q40_0_all"  />
<polygon points="551,40 560,40 565,35 560,30 551,30 551,40 " style="fill:#9dd815; stroke-width:1; stroke:black; " description="&lt;b&gt;ctg68_44&lt;/b&gt;&lt;br&gt;ctg68 44&lt;br&gt;Location: 35301 - 36537" locus_tag="ctg68_44" class="clusterblast-orf" id="dummy-1_q41_0_all"  />
<polygon points="566,40 581,40 586,35 581,30 566,30 566,40 " style="fill:#15d8bf; stroke-width:1; stroke:black; " description="&lt;b&gt;ctg68_45&lt;/b&gt;&lt;br&gt;ctg68 45&lt;br&gt;Location: 36552 - 38403" locus_tag="ctg68_45" class="clusterblast-orf" id="dummy-1_q42_0_all"  />
<polygon points="590,40 605,40 610,35 605,30 590,30 590,40 " style="fill:#6a15d8; stroke-width:1; stroke:black; " description="&lt;b&gt;ctg68_46&lt;/b&gt;&lt;br&gt;ctg68 46&lt;br&gt;Location: 38751 - 40503" locus_tag="ctg68_46" class="clusterblast-orf" id="dummy-1_q43_0_all"  />
</g>
<g label="NZ_FOKG01000001" description="NZ_FOKG01000001_c3: Amycolatopsis marina strain CGMCC 4.3568, whole genome sh... (12% of genes show similarity), nrps" class="clusterblast-cluster"  >
<text x="5" y="70" class="clusterblast-acc"  >
<a xlink:href="https://antismash-db.secondarymetabolites.org/go/NZ_FOKG01000001/3" target="_blank">NZ_FOKG01000001_c3</a>: Amycolatopsis marina strain CGMCC 4.3568, whole genome sh... (12% of genes show similarity), nrps</text>
<line x1="10" y1="85" x2="778.0" y2="85" style="stroke-width:1; stroke:grey; "  />
</g>
<g id="a1_000"  >
<polygon points="0,85 4,80 4,90 0,85 " style="fill:white; stroke-width:1; stroke:black; " description="&lt;b&gt;BM199_RS00315&lt;/b&gt;&lt;br&gt;hypothetical protein&lt;br&gt;Location: 73345 - 72986" locus_tag="BM199_RS00315" class="clusterblast-orf" id="dummy-1_h1_4_0"  />
</g>
<g id="a1_001"  >
<polygon points="3,85 8,80 35,80 35,90 8,90 3,85 " style="fill:white; stroke-width:1; stroke:black; " description="&lt;b&gt;BM199_RS00310&lt;/b&gt;&lt;br&gt;cell division protein FtsK&lt;br&gt;Location: 72993 - 70210" locus_tag="BM199_RS00310" class="clusterblast-orf" id="dummy-1_h1_4_1"  />
</g>
<g id="a1_002"  >
<polygon points="35,85 38,80 38,90 35,85 " style="fill:white; stroke-width:1; stroke:black; " description="&lt;b&gt;BM199_RS00305&lt;/b&gt;&lt;br&gt;hypothetical protein&lt;br&gt;Location: 70185 - 69940" locus_tag="BM199_RS00305" class="clusterblast-orf" id="dummy-1_h1_4_2"  />
</g>
<g id="a1_003"  >
<polygon points="38,85 41,80 41,90 38,85 " style="fill:white; stroke-width:1; stroke:black; " description="&lt;b&gt;BM199_RS00300&lt;/b&gt;&lt;br&gt;hypothetical protein&lt;br&gt;Location: 69933 - 69673" locus_tag="BM199_RS00300" class="clusterblast-orf" id="dummy-1_h1_4_3"  />
</g>
<g id="a1_004"  >
<polygon points="47,85 52,80 56,80 56,90 52,90 47,85 " style="fill:white; stroke-width:1; stroke:black; " description="&lt;b&gt;BM199_RS00290&lt;/b&gt;&lt;br&gt;hypothetical protein&lt;br&gt;Location: 69166 - 68328" locus_tag="BM199_RS00290" class="clusterblast-orf" id="dummy-1_h1_4_4"  />
</g>
<g id="a1_005"  >
<polygon points="56,85 59,80 59,90 56,85 " style="fill:white; stroke-width:1; stroke:black; " description="&lt;b&gt;BM199_RS00285&lt;/b&gt;&lt;br&gt;hypothetical protein&lt;br&gt;Location: 68359 - 68087" locus_tag="BM199_RS00285" class="clusterblast-orf" id="dummy-1_h1_4_5"  />
</g>
<g id="a1_006"  >
<polygon points="62,85 67,80 70,80 70,90 67,90 62,85 " style="fill:white; stroke-width:1; stroke:black; " description="&lt;b&gt;BM199_RS00280&lt;/b&gt;&lt;br&gt;TetR/AcrR family transcriptional regulator&lt;br&gt;Location: 67817 - 67083" locus_tag="BM199_RS00280" class="clusterblast-orf" id="dummy-1_h1_4_6"  />
</g>
<g id="a1_007"  >
<polygon points="71,85 76,80 93,80 93,90 76,90 71,85 " style="fill:white; stroke-width:1; stroke:black; " description="&lt;b&gt;BM199_RS00275&lt;/b&gt;&lt;br&gt;short chain dehydrogenase&lt;br&gt;Location: 67036 - 65054" locus_tag="BM199_RS00275" class="clusterblast-orf" id="dummy-1_h1_4_7"  />
</g>
<g id="a1_008"  >
<polygon points="95,90 111,90 116,85 111,80 95,80 95,90 " style="fill:white; stroke-width:1; stroke:black; " description="&lt;b&gt;BM199_RS00270&lt;/b&gt;&lt;br&gt;DUF1906 domain-containing protein&lt;br&gt;Location: 64883 - 63000" locus_tag="BM199_RS00270" class="clusterblast-orf" id="dummy-1_h1_4_8"  />
</g>
<g id="a1_009"  >
<polygon points="116,90 127,90 132,85 127,80 116,80 116,90 " style="fill:white; stroke-width:1; stroke:black; " description="&lt;b&gt;BM199_RS00265&lt;/b&gt;&lt;br&gt;hypothetical protein&lt;br&gt;Location: 63003 - 61627" locus_tag="BM199_RS00265" class="clusterblast-orf" id="dummy-1_h1_4_9"  />
</g>
<g id="a1_0010"  >
<polygon points="133,90 135,90 140,85 135,80 133,80 133,90 " style="fill:#3715d8; stroke-width:1; stroke:black; " description="&lt;b&gt;BM199_RS00260&lt;/b&gt;&lt;br&gt;DNA-binding response regulator&lt;br&gt;Location: 61533 - 60856&lt;br&gt;&lt;br&gt;&lt;b&gt;BlastP hit with ctg68_42&lt;/b&gt;&lt;br&gt;Percentage identity: 40&lt;br&gt;Percentage coverage: 84&lt;br&gt;BLAST bit score: 147&lt;br&gt;E-value: 1.9e-33" locus_tag="BM199_RS00260" class="clusterblast-orf" id="dummy-1_h1_4_10"  />
</g>
<g id="a1_0011"  >
<polygon points="140,90 150,90 155,85 150,80 140,80 140,90 " style="fill:#d81548; stroke-width:1; stroke:black; " description="&lt;b&gt;BM199_RS00255&lt;/b&gt;&lt;br&gt;sensor histidine kinase&lt;br&gt;Location: 60856 - 59606&lt;br&gt;&lt;br&gt;&lt;b&gt;BlastP hit with ctg68_43&lt;/b&gt;&lt;br&gt;Percentage identity: 31&lt;br&gt;Percentage coverage: 57&lt;br&gt;BLAST bit score: 99&lt;br&gt;E-value: 1.1e-18" locus_tag="BM199_RS00255" class="clusterblast-orf" id="dummy-1_h1_4_11"  />
</g>
<g id="a1_0012"  >
<polygon points="155,85 158,80 158,90 155,85 " style="fill:white; stroke-width:1; stroke:black; " description="&lt;b&gt;BM199_RS00250&lt;/b&gt;&lt;br&gt;hypothetical protein&lt;br&gt;Location: 59600 - 59268" locus_tag="BM199_RS00250" class="clusterblast-orf" id="dummy-1_h1_4_12"  />
</g>
<g id="a1_0013"  >
<polygon points="161,90 169,90 174,85 169,80 161,80 161,90 " style="fill:white; stroke-width:1; stroke:black; " description="&lt;b&gt;BM199_RS00245&lt;/b&gt;&lt;br&gt;histidine kinase&lt;br&gt;Location: 59054 - 57930" locus_tag="BM199_RS00245" class="clusterblast-orf" id="dummy-1_h1_4_13"  />
</g>
<g id="a1_0014"  >
<polygon points="173,90 175,90 180,85 175,80 173,80 173,90 " style="fill:white; stroke-width:1; stroke:black; " description="&lt;b&gt;BM199_RS00240&lt;/b&gt;&lt;br&gt;DNA-binding response regulator&lt;br&gt;Location: 57939 - 57313" locus_tag="BM199_RS00240" class="clusterblast-orf" id="dummy-1_h1_4_14"  />
</g>
<g id="a1_0015"  >
<polygon points="181,90 202,90 207,85 202,80 181,80 181,90 " style="fill:white; stroke-width:1; stroke:black; " description="&lt;b&gt;BM199_RS00235&lt;/b&gt;&lt;br&gt;LuxR family transcriptional regulator&lt;br&gt;Location: 57225 - 54938" locus_tag="BM199_RS00235" class="clusterblast-orf" id="dummy-1_h1_4_15"  />
</g>
<g id="a1_0016"  >
<polygon points="208,85 213,80 215,80 215,90 213,90 208,85 " style="fill:white; stroke-width:1; stroke:black; " description="&lt;b&gt;BM199_RS00230&lt;/b&gt;&lt;br&gt;hypothetical protein&lt;br&gt;Location: 54915 - 54214" locus_tag="BM199_RS00230" class="clusterblast-orf" id="dummy-1_h1_4_16"  />
</g>
<g id="a1_0017"  >
<polygon points="219,90 303,90 308,85 303,80 219,80 219,90 " style="fill:white; stroke-width:1; stroke:black; " description="&lt;b&gt;BM199_RS00225&lt;/b&gt;&lt;br&gt;methyltransferase domain-containing protein&lt;br&gt;Location: 53886 - 45976" locus_tag="BM199_RS00225" class="clusterblast-orf" id="dummy-1_h1_4_17"  />
</g>
<g id="a1_0018"  >
<polygon points="307,90 312,90 317,85 312,80 307,80 307,90 " style="fill:white; stroke-width:1; stroke:black; " description="&lt;b&gt;BM199_RS00220&lt;/b&gt;&lt;br&gt;thioesterase&lt;br&gt;Location: 46108 - 45209" locus_tag="BM199_RS00220" class="clusterblast-orf" id="dummy-1_h1_4_18"  />
</g>
<g id="a1_0019"  >
<polygon points="315,90 359,90 364,85 359,80 315,80 315,90 " style="fill:white; stroke-width:1; stroke:black; " description="&lt;b&gt;BM199_RS00215&lt;/b&gt;&lt;br&gt;FkbM family methyltransferase&lt;br&gt;Location: 45386 - 41103" locus_tag="BM199_RS00215" class="clusterblast-orf" id="dummy-1_h1_4_19"  />
</g>
<g id="a1_0020"  >
<polygon points="363,85 368,80 375,80 375,90 368,90 363,85 " style="fill:white; stroke-width:1; stroke:black; " description="&lt;b&gt;BM199_RS00210&lt;/b&gt;&lt;br&gt;class I SAM-dependent methyltransferase&lt;br&gt;Location: 41121 - 40063" locus_tag="BM199_RS00210" class="clusterblast-orf" id="dummy-1_h1_4_20"  />
</g>
<g id="a1_0021"  >
<polygon points="378,90 382,90 387,85 382,80 378,80 378,90 " style="fill:white; stroke-width:1; stroke:black; " description="&lt;b&gt;BM199_RS00205&lt;/b&gt;&lt;br&gt;ABC transporter ATP-binding protein&lt;br&gt;Location: 39822 - 39010" locus_tag="BM199_RS00205" class="clusterblast-orf" id="dummy-1_h1_4_21"  />
</g>
<g id="a1_0022"  >
<polygon points="387,90 392,90 397,85 392,80 387,80 387,90 " style="fill:white; stroke-width:1; stroke:black; " description="&lt;b&gt;BM199_RS00200&lt;/b&gt;&lt;br&gt;ABC transporter ATP-binding protein&lt;br&gt;Location: 39013 - 38168" locus_tag="BM199_RS00200" class="clusterblast-orf" id="dummy-1_h1_4_22"  />
</g>
<g id="a1_0023"  >
<polygon points="397,90 402,90 407,85 402,80 397,80 397,90 " style="fill:white; stroke-width:1; stroke:black; " description="&lt;b&gt;BM199_RS00195&lt;/b&gt;&lt;br&gt;branched-chain amino acid ABC transporter permease&lt;br&gt;Location: 38171 - 37293" locus_tag="BM199_RS00195" class="clusterblast-orf" id="dummy-1_h1_4_23"  />
</g>
<g id="a1_0024"  >
<polygon points="408,90 414,90 419,85 414,80 408,80 408,90 " style="fill:white; stroke-width:1; stroke:black; " description="&lt;b&gt;BM199_RS00190&lt;/b&gt;&lt;br&gt;branched-chain amino acid ABC transporter permease&lt;br&gt;Location: 37168 - 36152" locus_tag="BM199_RS00190" class="clusterblast-orf" id="dummy-1_h1_4_24"  />
</g>
<g id="a1_0025"  >
<polygon points="420,90 429,90 434,85 429,80 420,80 420,90 " style="fill:white; stroke-width:1; stroke:black; " description="&lt;b&gt;BM199_RS00185&lt;/b&gt;&lt;br&gt;ABC transporter substrate-binding protein&lt;br&gt;Location: 36137 - 34890" locus_tag="BM199_RS00185" class="clusterblast-orf" id="dummy-1_h1_4_25"  />
</g>
<g id="a1_0026"  >
<polygon points="437,90 445,90 450,85 445,80 437,80 437,90 " style="fill:white; stroke-width:1; stroke:black; " description="&lt;b&gt;BM199_RS00180&lt;/b&gt;&lt;br&gt;peptidase&lt;br&gt;Location: 34630 - 33428" locus_tag="BM199_RS00180" class="clusterblast-orf" id="dummy-1_h1_4_26"  />
</g>
<g id="a1_0027"  >
<polygon points="452,90 456,85 452,80 452,90 " style="fill:white; stroke-width:1; stroke:black; " description="&lt;b&gt;BM199_RS00175&lt;/b&gt;&lt;br&gt;SRPBCC domain-containing protein&lt;br&gt;Location: 33306 - 32875" locus_tag="BM199_RS00175" class="clusterblast-orf" id="dummy-1_h1_4_27"  />
</g>
<g id="a1_0028"  >
<polygon points="457,85 462,80 464,80 464,90 462,90 457,85 " style="fill:white; stroke-width:1; stroke:black; " description="&lt;b&gt;BM199_RS00170&lt;/b&gt;&lt;br&gt;TrkA family potassium uptake protein&lt;br&gt;Location: 32830 - 32165" locus_tag="BM199_RS00170" class="clusterblast-orf" id="dummy-1_h1_4_28"  />
</g>
<g id="a1_0029"  >
<polygon points="464,85 469,80 480,80 480,90 469,90 464,85 " style="fill:white; stroke-width:1; stroke:black; " description="&lt;b&gt;BM199_RS00165&lt;/b&gt;&lt;br&gt;ATPase&lt;br&gt;Location: 32172 - 30808" locus_tag="BM199_RS00165" class="clusterblast-orf" id="dummy-1_h1_4_29"  />
</g>
<g id="a1_0030"  >
<polygon points="483,90 486,90 491,85 486,80 483,80 483,90 " style="fill:white; stroke-width:1; stroke:black; " description="&lt;b&gt;BM199_RS00160&lt;/b&gt;&lt;br&gt;serine protease&lt;br&gt;Location: 30543 - 29773" locus_tag="BM199_RS00160" class="clusterblast-orf" id="dummy-1_h1_4_30"  />
</g>
<g id="a1_0031"  >
<polygon points="492,85 497,80 508,80 508,90 497,90 492,85 " style="fill:#d8ae15; stroke-width:1; stroke:black; " description="&lt;b&gt;BM199_RS00155&lt;/b&gt;&lt;br&gt;NADP-dependent phosphogluconate dehydrogenase&lt;br&gt;Location: 29715 - 28276&lt;br&gt;&lt;br&gt;&lt;b&gt;BlastP hit with ctg68_35&lt;/b&gt;&lt;br&gt;Percentage identity: 88&lt;br&gt;Percentage coverage: 100&lt;br&gt;BLAST bit score: 831&lt;br&gt;E-value: 3.8e-239" locus_tag="BM199_RS00155" class="clusterblast-orf" id="dummy-1_h1_4_31"  />
</g>
<g id="a1_0032"  >
<polygon points="511,90 516,90 521,85 516,80 511,80 511,90 " style="fill:#15d859; stroke-width:1; stroke:black; " description="&lt;b&gt;BM199_RS00150&lt;/b&gt;&lt;br&gt;XRE family transcriptional regulator&lt;br&gt;Location: 28030 - 27173&lt;br&gt;&lt;br&gt;&lt;b&gt;BlastP hit with ctg68_36&lt;/b&gt;&lt;br&gt;Percentage identity: 88&lt;br&gt;Percentage coverage: 99&lt;br&gt;BLAST bit score: 512&lt;br&gt;E-value: 4.1e-143" locus_tag="BM199_RS00150" class="clusterblast-orf" id="dummy-1_h1_4_32"  />
</g>
<g id="a1_0033"  >
<polygon points="522,90 526,90 531,85 526,80 522,80 522,90 " style="fill:#1526d8; stroke-width:1; stroke:black; " description="&lt;b&gt;BM199_RS00145&lt;/b&gt;&lt;br&gt;methyltransferase&lt;br&gt;Location: 27095 - 26244&lt;br&gt;&lt;br&gt;&lt;b&gt;BlastP hit with ctg68_37&lt;/b&gt;&lt;br&gt;Percentage identity: 48&lt;br&gt;Percentage coverage: 97&lt;br&gt;BLAST bit score: 277&lt;br&gt;E-value: 1.7e-72" locus_tag="BM199_RS00145" class="clusterblast-orf" id="dummy-1_h1_4_33"  />
</g>
<g id="a1_0034"  >
<polygon points="536,90 538,85 536,80 536,90 " style="fill:#d0d815; stroke-width:1; stroke:black; " description="&lt;b&gt;BM199_RS00140&lt;/b&gt;&lt;br&gt;DUF397 domain-containing protein&lt;br&gt;Location: 25868 - 25617&lt;br&gt;&lt;br&gt;&lt;b&gt;BlastP hit with ctg68_40&lt;/b&gt;&lt;br&gt;Percentage identity: 73&lt;br&gt;Percentage coverage: 99&lt;br&gt;BLAST bit score: 121&lt;br&gt;E-value: 4.6e-26" locus_tag="BM199_RS00140" class="clusterblast-orf" id="dummy-1_h1_4_34"  />
</g>
<g id="a1_0035"  >
<polygon points="540,90 552,90 557,85 552,80 540,80 540,90 " style="fill:white; stroke-width:1; stroke:black; " description="&lt;b&gt;BM199_RS00135&lt;/b&gt;&lt;br&gt;o-succinylbenzoate--CoA ligase&lt;br&gt;Location: 25484 - 23943" locus_tag="BM199_RS00135" class="clusterblast-orf" id="dummy-1_h1_4_35"  />
</g>
<g id="a1_0036"  >
<polygon points="560,90 564,85 560,80 560,90 " style="fill:white; stroke-width:1; stroke:black; " description="&lt;b&gt;BM199_RS00125&lt;/b&gt;&lt;br&gt;RNA-binding S4 domain-containing protein&lt;br&gt;Location: 23678 - 23313" locus_tag="BM199_RS00125" class="clusterblast-orf" id="dummy-1_h1_4_36"  />
</g>
<g id="a1_0037"  >
<polygon points="565,90 584,90 589,85 584,80 565,80 565,90 " style="fill:#6a15d8; stroke-width:1; stroke:black; " description="&lt;b&gt;BM199_RS00120&lt;/b&gt;&lt;br&gt;DNA polymerase III subunit gamma and tau&lt;br&gt;Location: 23215 - 21137&lt;br&gt;&lt;br&gt;&lt;b&gt;BlastP hit with ctg68_46&lt;/b&gt;&lt;br&gt;Percentage identity: 77&lt;br&gt;Percentage coverage: 98&lt;br&gt;BLAST bit score: 740&lt;br&gt;E-value: 1.9e-211" locus_tag="BM199_RS00120" class="clusterblast-orf" id="dummy-1_h1_4_37"  />
</g>
<g id="a1_0038"  >
<polygon points="590,85 595,80 599,80 599,90 595,90 590,85 " style="fill:white; stroke-width:1; stroke:black; " description="&lt;b&gt;BM199_RS00115&lt;/b&gt;&lt;br&gt;N-acetylmuramoyl-L-alanine amidase&lt;br&gt;Location: 21044 - 20214" locus_tag="BM199_RS00115" class="clusterblast-orf" id="dummy-1_h1_4_38"  />
</g>
<g id="a1_0039"  >
<polygon points="600,90 604,85 600,80 600,90 " style="fill:white; stroke-width:1; stroke:black; " description="&lt;b&gt;BM199_RS00110&lt;/b&gt;&lt;br&gt;YbaB/EbfC family nucleoid-associated protein&lt;br&gt;Location: 20149 - 19772" locus_tag="BM199_RS00110" class="clusterblast-orf" id="dummy-1_h1_4_39"  />
</g>
<g id="a1_0040"  >
<polygon points="606,90 607,90 612,85 607,80 606,80 606,90 " style="fill:white; stroke-width:1; stroke:black; " description="&lt;b&gt;BM199_RS00105&lt;/b&gt;&lt;br&gt;recombination protein RecR&lt;br&gt;Location: 19657 - 19061" locus_tag="BM199_RS00105" class="clusterblast-orf" id="dummy-1_h1_4_40"  />
</g>
<g id="a1_0041"  >
<polygon points="613,90 614,90 619,85 614,80 613,80 613,90 " style="fill:white; stroke-width:1; stroke:black; " description="&lt;b&gt;BM199_RS00100&lt;/b&gt;&lt;br&gt;uridine kinase&lt;br&gt;Location: 19042 - 18482" locus_tag="BM199_RS00100" class="clusterblast-orf" id="dummy-1_h1_4_41"  />
</g>
<g id="a1_0042"  >
<polygon points="621,90 635,90 640,85 635,80 621,80 621,90 " style="fill:white; stroke-width:1; stroke:black; " description="&lt;b&gt;BM199_RS00095&lt;/b&gt;&lt;br&gt;ABC transporter substrate-binding protein&lt;br&gt;Location: 18259 - 16580" locus_tag="BM199_RS00095" class="clusterblast-orf" id="dummy-1_h1_4_42"  />
</g>
<g id="a1_0043"  >
<polygon points="641,90 648,90 653,85 648,80 641,80 641,90 " style="fill:white; stroke-width:1; stroke:black; " description="&lt;b&gt;BM199_RS00090&lt;/b&gt;&lt;br&gt;ABC transporter permease&lt;br&gt;Location: 16498 - 15494" locus_tag="BM199_RS00090" class="clusterblast-orf" id="dummy-1_h1_4_43"  />
</g>
<g id="a1_0044"  >
<polygon points="653,90 658,90 663,85 658,80 653,80 653,90 " style="fill:white; stroke-width:1; stroke:black; " description="&lt;b&gt;BM199_RS00085&lt;/b&gt;&lt;br&gt;ABC transporter permease&lt;br&gt;Location: 15497 - 14571" locus_tag="BM199_RS00085" class="clusterblast-orf" id="dummy-1_h1_4_44"  />
</g>
<g id="a1_0045"  >
<polygon points="663,90 669,90 674,85 669,80 663,80 663,90 " style="fill:white; stroke-width:1; stroke:black; " description="&lt;b&gt;BM199_RS00080&lt;/b&gt;&lt;br&gt;ABC transporter ATP-binding protein&lt;br&gt;Location: 14565 - 13570" locus_tag="BM199_RS00080" class="clusterblast-orf" id="dummy-1_h1_4_45"  />
</g>
<g id="a1_0046"  >
<polygon points="674,90 682,90 687,85 682,80 674,80 674,90 " style="fill:white; stroke-width:1; stroke:black; " description="&lt;b&gt;BM199_RS00075&lt;/b&gt;&lt;br&gt;ABC transporter ATP-binding protein&lt;br&gt;Location: 13573 - 12464" locus_tag="BM199_RS00075" class="clusterblast-orf" id="dummy-1_h1_4_46"  />
</g>
<g id="a1_0047"  >
<polygon points="688,90 690,90 695,85 690,80 688,80 688,90 " style="fill:white; stroke-width:1; stroke:black; " description="&lt;b&gt;BM199_RS00070&lt;/b&gt;&lt;br&gt;SDR family NAD(P)-dependent oxidoreductase&lt;br&gt;Location: 12404 - 11763" locus_tag="BM199_RS00070" class="clusterblast-orf" id="dummy-1_h1_4_47"  />
</g>
<g id="a1_0048"  >
<polygon points="695,85 700,80 705,80 705,90 700,90 695,85 " style="fill:white; stroke-width:1; stroke:black; " description="&lt;b&gt;BM199_RS00065&lt;/b&gt;&lt;br&gt;EamA family transporter&lt;br&gt;Location: 11757 - 10819" locus_tag="BM199_RS00065" class="clusterblast-orf" id="dummy-1_h1_4_48"  />
</g>
<g id="a1_0049"  >
<polygon points="707,90 712,90 717,85 712,80 707,80 707,90 " style="fill:white; stroke-width:1; stroke:black; " description="&lt;b&gt;BM199_RS00060&lt;/b&gt;&lt;br&gt;LysR family transcriptional regulator&lt;br&gt;Location: 10682 - 9774" locus_tag="BM199_RS00060" class="clusterblast-orf" id="dummy-1_h1_4_49"  />
</g>
<g id="a1_0050"  >
<polygon points="719,85 724,80 725,80 725,90 724,90 719,85 " style="fill:white; stroke-width:1; stroke:black; " description="&lt;b&gt;BM199_RS00055&lt;/b&gt;&lt;br&gt;DedA family protein&lt;br&gt;Location: 9642 - 9088" locus_tag="BM199_RS00055" class="clusterblast-orf" id="dummy-1_h1_4_50"  />
</g>
<g id="a1_0051"  >
<polygon points="727,90 732,90 737,85 732,80 727,80 727,90 " style="fill:white; stroke-width:1; stroke:black; " description="&lt;b&gt;BM199_RS00050&lt;/b&gt;&lt;br&gt;short-chain dehydrogenase&lt;br&gt;Location: 8933 - 8016" locus_tag="BM199_RS00050" class="clusterblast-orf" id="dummy-1_h1_4_51"  />
</g>
<g id="a1_0052"  >
<polygon points="737,85 742,80 748,80 748,90 742,90 737,85 " style="fill:white; stroke-width:1; stroke:black; " description="&lt;b&gt;BM199_RS00045&lt;/b&gt;&lt;br&gt;YafY family transcriptional regulator&lt;br&gt;Location: 8014 - 7034" locus_tag="BM199_RS00045" class="clusterblast-orf" id="dummy-1_h1_4_52"  />
</g>
<g id="a1_0053"  >
<polygon points="748,85 753,80 759,80 759,90 753,90 748,85 " style="fill:white; stroke-width:1; stroke:black; " description="&lt;b&gt;BM199_RS00040&lt;/b&gt;&lt;br&gt;KR domain-containing protein&lt;br&gt;Location: 7026 - 6088" locus_tag="BM199_RS00040" class="clusterblast-orf" id="dummy-1_h1_4_53"  />
</g>
<g id="a1_0054"  >
<polygon points="759,90 761,90 766,85 761,80 759,80 759,90 " style="fill:white; stroke-width:1; stroke:black; " description="&lt;b&gt;BM199_RS00035&lt;/b&gt;&lt;br&gt;TetR family transcriptional regulator&lt;br&gt;Location: 6039 - 5413" locus_tag="BM199_RS00035" class="clusterblast-orf" id="dummy-1_h1_4_54"  />
</g>
<g id="a1_0055"  >
<polygon points="770,90 775,90 780,85 775,80 770,80 770,90 " style="fill:white; stroke-width:1; stroke:black; " description="&lt;b&gt;BM199_RS00030&lt;/b&gt;&lt;br&gt;ESX secretion-associated protein EspG&lt;br&gt;Location: 5095 - 4256" locus_tag="BM199_RS00030" class="clusterblast-orf" id="dummy-1_h1_4_55"  />
</g>
</svg>
