<svg xmlns="http://www.w3.org/2000/svg" xmlns:xlink="http://www.w3.org/1999/xlink" version="1.1" x="0" y="0" height="230" width="800" viewBox="0 0 800 230" preserveAspectRatio="none"  >
<g label="Query sequence" class="clusterblast-cluster"  >
<text x="5" y="20" class="clusterblast-acc"  >
Query sequence</text>
<line x1="10" y1="35" x2="778.0" y2="35" style="stroke-width:1; stroke:grey; "  />
<polygon points="6,40 8,40 13,35 8,30 6,30 6,40 " style="fill:white; stroke-width:1; stroke:black; " description="&lt;b&gt;ctg36_7&lt;/b&gt;&lt;br&gt;ctg36 7&lt;br&gt;Location: 3104 - 3671" locus_tag="ctg36_7" class="clusterblast-orf" id="dummy-1_q0_0_all"  />
<polygon points="13,40 15,40 20,35 15,30 13,30 13,40 " style="fill:white; stroke-width:1; stroke:black; " description="&lt;b&gt;ctg36_8&lt;/b&gt;&lt;br&gt;ctg36 8&lt;br&gt;Location: 3661 - 4210" locus_tag="ctg36_8" class="clusterblast-orf" id="dummy-1_q1_0_all"  />
<polygon points="21,40 21,40 26,35 21,30 21,30 21,40 " style="fill:white; stroke-width:1; stroke:black; " description="&lt;b&gt;ctg36_9&lt;/b&gt;&lt;br&gt;ctg36 9&lt;br&gt;Location: 4256 - 4646" locus_tag="ctg36_9" class="clusterblast-orf" id="dummy-1_q2_0_all"  />
<polygon points="26,40 30,35 26,30 26,40 " style="fill:white; stroke-width:1; stroke:black; " description="&lt;b&gt;ctg36_10&lt;/b&gt;&lt;br&gt;ctg36 10&lt;br&gt;Location: 4642 - 4978" locus_tag="ctg36_10" class="clusterblast-orf" id="dummy-1_q3_0_all"  />
<polygon points="31,40 32,40 37,35 32,30 31,30 31,40 " style="fill:white; stroke-width:1; stroke:black; " description="&lt;b&gt;ctg36_11&lt;/b&gt;&lt;br&gt;ctg36 11&lt;br&gt;Location: 5080 - 5554" locus_tag="ctg36_11" class="clusterblast-orf" id="dummy-1_q4_0_all"  />
<polygon points="37,40 41,35 37,30 37,40 " style="fill:white; stroke-width:1; stroke:black; " description="&lt;b&gt;ctg36_12&lt;/b&gt;&lt;br&gt;ctg36 12&lt;br&gt;Location: 5550 - 5844" locus_tag="ctg36_12" class="clusterblast-orf" id="dummy-1_q5_0_all"  />
<polygon points="42,40 44,35 42,30 42,40 " style="fill:white; stroke-width:1; stroke:black; " description="&lt;b&gt;ctg36_13&lt;/b&gt;&lt;br&gt;ctg36 13&lt;br&gt;Location: 5875 - 6052" locus_tag="ctg36_13" class="clusterblast-orf" id="dummy-1_q6_0_all"  />
<polygon points="44,40 44,40 49,35 44,30 44,30 44,40 " style="fill:white; stroke-width:1; stroke:black; " description="&lt;b&gt;ctg36_14&lt;/b&gt;&lt;br&gt;ctg36 14&lt;br&gt;Location: 6058 - 6448" locus_tag="ctg36_14" class="clusterblast-orf" id="dummy-1_q7_0_all"  />
<polygon points="49,40 51,40 56,35 51,30 49,30 49,40 " style="fill:white; stroke-width:1; stroke:black; " description="&lt;b&gt;ctg36_15&lt;/b&gt;&lt;br&gt;ctg36 15&lt;br&gt;Location: 6444 - 6978" locus_tag="ctg36_15" class="clusterblast-orf" id="dummy-1_q8_0_all"  />
<polygon points="56,40 58,40 63,35 58,30 56,30 56,40 " style="fill:white; stroke-width:1; stroke:black; " description="&lt;b&gt;ctg36_16&lt;/b&gt;&lt;br&gt;ctg36 16&lt;br&gt;Location: 6977 - 7553" locus_tag="ctg36_16" class="clusterblast-orf" id="dummy-1_q9_0_all"  />
<polygon points="63,35 68,30 68,30 68,40 68,40 63,35 " style="fill:white; stroke-width:1; stroke:black; " description="&lt;b&gt;ctg36_17&lt;/b&gt;&lt;br&gt;ctg36 17&lt;br&gt;Location: 7565 - 7922" locus_tag="ctg36_17" class="clusterblast-orf" id="dummy-1_q10_0_all"  />
<polygon points="69,40 71,35 69,30 69,40 " style="fill:white; stroke-width:1; stroke:black; " description="&lt;b&gt;ctg36_18&lt;/b&gt;&lt;br&gt;ctg36 18&lt;br&gt;Location: 7990 - 8212" locus_tag="ctg36_18" class="clusterblast-orf" id="dummy-1_q11_0_all"  />
<polygon points="75,35 80,30 81,30 81,40 80,40 75,35 " style="fill:white; stroke-width:1; stroke:black; " description="&lt;b&gt;ctg36_19&lt;/b&gt;&lt;br&gt;ctg36 19&lt;br&gt;Location: 8457 - 8949" locus_tag="ctg36_19" class="clusterblast-orf" id="dummy-1_q12_0_all"  />
<polygon points="86,35 91,30 95,30 95,40 91,40 86,35 " style="fill:white; stroke-width:1; stroke:black; " description="&lt;b&gt;ctg36_20&lt;/b&gt;&lt;br&gt;ctg36 20&lt;br&gt;Location: 9380 - 10028" locus_tag="ctg36_20" class="clusterblast-orf" id="dummy-1_q13_0_all"  />
<polygon points="96,40 100,40 105,35 100,30 96,30 96,40 " style="fill:white; stroke-width:1; stroke:black; " description="&lt;b&gt;ctg36_21&lt;/b&gt;&lt;br&gt;ctg36 21&lt;br&gt;Location: 10106 - 10841" locus_tag="ctg36_21" class="clusterblast-orf" id="dummy-1_q14_0_all"  />
<polygon points="105,40 111,40 116,35 111,30 105,30 105,40 " style="fill:white; stroke-width:1; stroke:black; " description="&lt;b&gt;ctg36_22&lt;/b&gt;&lt;br&gt;ctg36 22&lt;br&gt;Location: 10837 - 11695" locus_tag="ctg36_22" class="clusterblast-orf" id="dummy-1_q15_0_all"  />
<polygon points="116,35 121,30 143,30 143,40 121,40 116,35 " style="fill:white; stroke-width:1; stroke:black; " description="&lt;b&gt;ctg36_23&lt;/b&gt;&lt;br&gt;ctg36 23&lt;br&gt;Location: 11667 - 13809" locus_tag="ctg36_23" class="clusterblast-orf" id="dummy-1_q16_0_all"  />
<polygon points="143,35 147,30 147,40 143,35 " style="fill:white; stroke-width:1; stroke:black; " description="&lt;b&gt;ctg36_24&lt;/b&gt;&lt;br&gt;ctg36 24&lt;br&gt;Location: 13817 - 14096" locus_tag="ctg36_24" class="clusterblast-orf" id="dummy-1_q17_0_all"  />
<polygon points="149,40 153,40 158,35 153,30 149,30 149,40 " style="fill:#d81515; stroke-width:1; stroke:black; " description="&lt;b&gt;ctg36_25&lt;/b&gt;&lt;br&gt;ctg36 25&lt;br&gt;Location: 14269 - 14974" locus_tag="ctg36_25" class="clusterblast-orf" id="dummy-1_q18_0_all"  />
<polygon points="159,40 171,40 176,35 171,30 159,30 159,40 " style="fill:#4dd815; stroke-width:1; stroke:black; " description="&lt;b&gt;ctg36_26&lt;/b&gt;&lt;br&gt;ctg36 26&lt;br&gt;Location: 15016 - 16327" locus_tag="ctg36_26" class="clusterblast-orf" id="dummy-1_q19_0_all"  />
<polygon points="175,40 185,40 190,35 185,30 175,30 175,40 " style="fill:#1585d8; stroke-width:1; stroke:black; " description="&lt;b&gt;ctg36_27&lt;/b&gt;&lt;br&gt;ctg36 27&lt;br&gt;Location: 16323 - 17439" locus_tag="ctg36_27" class="clusterblast-orf" id="dummy-1_q20_0_all"  />
<polygon points="190,40 194,40 199,35 194,30 190,30 190,40 " style="fill:#a115d8; stroke-width:1; stroke:black; " description="&lt;b&gt;ctg36_28&lt;/b&gt;&lt;br&gt;ctg36 28&lt;br&gt;Location: 17432 - 18143" locus_tag="ctg36_28" class="clusterblast-orf" id="dummy-1_q21_0_all"  />
<polygon points="199,40 214,40 219,35 214,30 199,30 199,40 " style="fill:#d86915; stroke-width:1; stroke:black; " description="&lt;b&gt;ctg36_29&lt;/b&gt;&lt;br&gt;ctg36 29&lt;br&gt;Location: 18181 - 19726" locus_tag="ctg36_29" class="clusterblast-orf" id="dummy-1_q22_0_all"  />
<polygon points="219,40 226,40 231,35 226,30 219,30 219,40 " style="fill:#15d831; stroke-width:1; stroke:black; " description="&lt;b&gt;ctg36_30&lt;/b&gt;&lt;br&gt;ctg36 30&lt;br&gt;Location: 19722 - 20682" locus_tag="ctg36_30" class="clusterblast-orf" id="dummy-1_q23_0_all"  />
<polygon points="231,40 237,40 242,35 237,30 231,30 231,40 " style="fill:#1531d8; stroke-width:1; stroke:black; " description="&lt;b&gt;ctg36_31&lt;/b&gt;&lt;br&gt;ctg36 31&lt;br&gt;Location: 20678 - 21482" locus_tag="ctg36_31" class="clusterblast-orf" id="dummy-1_q24_0_all"  />
<polygon points="242,40 256,40 261,35 256,30 242,30 242,40 " style="fill:#d815bc; stroke-width:1; stroke:black; " description="&lt;b&gt;ctg36_32&lt;/b&gt;&lt;br&gt;ctg36 32&lt;br&gt;Location: 21478 - 22984" locus_tag="ctg36_32" class="clusterblast-orf" id="dummy-1_q25_0_all"  />
<polygon points="261,40 326,40 331,35 326,30 261,30 261,40 " style="fill:#d8bc15; stroke-width:1; stroke:black; " description="&lt;b&gt;ctg36_33&lt;/b&gt;&lt;br&gt;ctg36 33&lt;br&gt;Location: 22980 - 28428" locus_tag="ctg36_33" class="clusterblast-orf" id="dummy-1_q26_0_all"  />
<polygon points="331,40 349,40 354,35 349,30 331,30 331,40 " style="fill:#15d885; stroke-width:1; stroke:black; " description="&lt;b&gt;ctg36_34&lt;/b&gt;&lt;br&gt;ctg36 34&lt;br&gt;Location: 28430 - 30248" locus_tag="ctg36_34" class="clusterblast-orf" id="dummy-1_q27_0_all"  />
<polygon points="354,40 371,40 376,35 371,30 354,30 354,40 " style="fill:#15d885; stroke-width:1; stroke:black; " description="&lt;b&gt;ctg36_35&lt;/b&gt;&lt;br&gt;ctg36 35&lt;br&gt;Location: 30244 - 31987" locus_tag="ctg36_35" class="clusterblast-orf" id="dummy-1_q28_0_all"  />
<polygon points="376,40 385,40 390,35 385,30 376,30 376,40 " style="fill:#4d15d8; stroke-width:1; stroke:black; " description="&lt;b&gt;ctg36_36&lt;/b&gt;&lt;br&gt;ctg36 36&lt;br&gt;Location: 31983 - 33072" locus_tag="ctg36_36" class="clusterblast-orf" id="dummy-1_q29_0_all"  />
<polygon points="390,40 417,40 422,35 417,30 390,30 390,40 " style="fill:#d8bc15; stroke-width:1; stroke:black; " description="&lt;b&gt;ctg36_37&lt;/b&gt;&lt;br&gt;ctg36 37&lt;br&gt;Location: 33068 - 35528" locus_tag="ctg36_37" class="clusterblast-orf" id="dummy-1_q30_0_all"  />
<polygon points="422,40 440,40 445,35 440,30 422,30 422,40 " style="fill:#d81569; stroke-width:1; stroke:black; " description="&lt;b&gt;ctg36_38&lt;/b&gt;&lt;br&gt;ctg36 38&lt;br&gt;Location: 35544 - 37386" locus_tag="ctg36_38" class="clusterblast-orf" id="dummy-1_q31_0_all"  />
<polygon points="446,40 456,40 461,35 456,30 446,30 446,40 " style="fill:#a1d815; stroke-width:1; stroke:black; " description="&lt;b&gt;ctg36_39&lt;/b&gt;&lt;br&gt;ctg36 39&lt;br&gt;Location: 37397 - 38612" locus_tag="ctg36_39" class="clusterblast-orf" id="dummy-1_q32_0_all"  />
<polygon points="461,40 477,40 482,35 477,30 461,30 461,40 " style="fill:#15d8d8; stroke-width:1; stroke:black; " description="&lt;b&gt;ctg36_40&lt;/b&gt;&lt;br&gt;ctg36 40&lt;br&gt;Location: 38608 - 40204" locus_tag="ctg36_40" class="clusterblast-orf" id="dummy-1_q33_0_all"  />
<polygon points="481,40 492,40 497,35 492,30 481,30 481,40 " style="fill:#a1d815; stroke-width:1; stroke:black; " description="&lt;b&gt;ctg36_41&lt;/b&gt;&lt;br&gt;ctg36 41&lt;br&gt;Location: 40196 - 41381" locus_tag="ctg36_41" class="clusterblast-orf" id="dummy-1_q34_0_all"  />
<polygon points="497,40 574,40 579,35 574,30 497,30 497,40 " style="fill:#d8bc15; stroke-width:1; stroke:black; " description="&lt;b&gt;ctg36_42&lt;/b&gt;&lt;br&gt;ctg36 42&lt;br&gt;Location: 41409 - 47793" locus_tag="ctg36_42" class="clusterblast-orf" id="dummy-1_q35_0_all"  />
<polygon points="579,40 582,40 587,35 582,30 579,30 579,40 " style="fill:white; stroke-width:1; stroke:black; " description="&lt;b&gt;ctg36_43&lt;/b&gt;&lt;br&gt;ctg36 43&lt;br&gt;Location: 47809 - 48424" locus_tag="ctg36_43" class="clusterblast-orf" id="dummy-1_q36_0_all"  />
<polygon points="587,40 590,40 595,35 590,30 587,30 587,40 " style="fill:white; stroke-width:1; stroke:black; " description="&lt;b&gt;ctg36_44&lt;/b&gt;&lt;br&gt;ctg36 44&lt;br&gt;Location: 48427 - 49078" locus_tag="ctg36_44" class="clusterblast-orf" id="dummy-1_q37_0_all"  />
<polygon points="595,40 602,40 607,35 602,30 595,30 595,40 " style="fill:#15d831; stroke-width:1; stroke:black; " description="&lt;b&gt;ctg36_45&lt;/b&gt;&lt;br&gt;ctg36 45&lt;br&gt;Location: 49074 - 50019" locus_tag="ctg36_45" class="clusterblast-orf" id="dummy-1_q38_0_all"  />
<polygon points="607,40 613,40 618,35 613,30 607,30 607,40 " style="fill:#1531d8; stroke-width:1; stroke:black; " description="&lt;b&gt;ctg36_46&lt;/b&gt;&lt;br&gt;ctg36 46&lt;br&gt;Location: 50015 - 50828" locus_tag="ctg36_46" class="clusterblast-orf" id="dummy-1_q39_0_all"  />
<polygon points="618,40 618,40 623,35 618,30 618,30 618,40 " style="fill:#d815bc; stroke-width:1; stroke:black; " description="&lt;b&gt;ctg36_47&lt;/b&gt;&lt;br&gt;ctg36 47&lt;br&gt;Location: 50824 - 51223" locus_tag="ctg36_47" class="clusterblast-orf" id="dummy-1_q40_0_all"  />
<polygon points="623,40 626,35 623,30 623,40 " style="fill:white; stroke-width:1; stroke:black; " description="&lt;b&gt;ctg36_48&lt;/b&gt;&lt;br&gt;ctg36 48&lt;br&gt;Location: 51219 - 51432" locus_tag="ctg36_48" class="clusterblast-orf" id="dummy-1_q41_0_all"  />
<polygon points="626,35 631,30 636,30 636,40 631,40 626,35 " style="fill:white; stroke-width:1; stroke:black; " description="&lt;b&gt;ctg36_49&lt;/b&gt;&lt;br&gt;ctg36 49&lt;br&gt;Location: 51447 - 52263" locus_tag="ctg36_49" class="clusterblast-orf" id="dummy-1_q42_0_all"  />
<polygon points="638,40 641,35 638,30 638,40 " style="fill:white; stroke-width:1; stroke:black; " description="&lt;b&gt;ctg36_50&lt;/b&gt;&lt;br&gt;ctg36 50&lt;br&gt;Location: 52381 - 52657" locus_tag="ctg36_50" class="clusterblast-orf" id="dummy-1_q43_0_all"  />
<polygon points="643,40 646,35 643,30 643,40 " style="fill:white; stroke-width:1; stroke:black; " description="&lt;b&gt;ctg36_51&lt;/b&gt;&lt;br&gt;ctg36 51&lt;br&gt;Location: 52830 - 53007" locus_tag="ctg36_51" class="clusterblast-orf" id="dummy-1_q44_0_all"  />
<polygon points="650,35 654,30 654,40 650,35 " style="fill:white; stroke-width:1; stroke:black; " description="&lt;b&gt;ctg36_52&lt;/b&gt;&lt;br&gt;ctg36 52&lt;br&gt;Location: 53324 - 53690" locus_tag="ctg36_52" class="clusterblast-orf" id="dummy-1_q45_0_all"  />
<polygon points="656,35 661,30 663,30 663,40 661,40 656,35 " style="fill:white; stroke-width:1; stroke:black; " description="&lt;b&gt;ctg36_53&lt;/b&gt;&lt;br&gt;ctg36 53&lt;br&gt;Location: 53824 - 54319" locus_tag="ctg36_53" class="clusterblast-orf" id="dummy-1_q46_0_all"  />
<polygon points="663,35 668,30 671,30 671,40 668,40 663,35 " style="fill:white; stroke-width:1; stroke:black; " description="&lt;b&gt;ctg36_54&lt;/b&gt;&lt;br&gt;ctg36 54&lt;br&gt;Location: 54386 - 54995" locus_tag="ctg36_54" class="clusterblast-orf" id="dummy-1_q47_0_all"  />
<polygon points="676,40 680,35 676,30 676,40 " style="fill:white; stroke-width:1; stroke:black; " description="&lt;b&gt;ctg36_55&lt;/b&gt;&lt;br&gt;ctg36 55&lt;br&gt;Location: 55341 - 55686" locus_tag="ctg36_55" class="clusterblast-orf" id="dummy-1_q48_0_all"  />
<polygon points="688,40 690,40 695,35 690,30 688,30 688,40 " style="fill:white; stroke-width:1; stroke:black; " description="&lt;b&gt;ctg36_56&lt;/b&gt;&lt;br&gt;ctg36 56&lt;br&gt;Location: 56327 - 56840" locus_tag="ctg36_56" class="clusterblast-orf" id="dummy-1_q49_0_all"  />
<polygon points="703,35 708,30 723,30 723,40 708,40 703,35 " style="fill:white; stroke-width:1; stroke:black; " description="&lt;b&gt;ctg36_57&lt;/b&gt;&lt;br&gt;ctg36 57&lt;br&gt;Location: 57479 - 59060" locus_tag="ctg36_57" class="clusterblast-orf" id="dummy-1_q50_0_all"  />
<polygon points="723,35 728,30 729,30 729,40 728,40 723,35 " style="fill:white; stroke-width:1; stroke:black; " description="&lt;b&gt;ctg36_58&lt;/b&gt;&lt;br&gt;ctg36 58&lt;br&gt;Location: 59056 - 59470" locus_tag="ctg36_58" class="clusterblast-orf" id="dummy-1_q51_0_all"  />
<polygon points="730,40 733,40 738,35 733,30 730,30 730,40 " style="fill:white; stroke-width:1; stroke:black; " description="&lt;b&gt;ctg36_59&lt;/b&gt;&lt;br&gt;ctg36 59&lt;br&gt;Location: 59550 - 60195" locus_tag="ctg36_59" class="clusterblast-orf" id="dummy-1_q52_0_all"  />
<polygon points="738,40 745,40 750,35 745,30 738,30 738,40 " style="fill:#d815bc; stroke-width:1; stroke:black; " description="&lt;b&gt;ctg36_60&lt;/b&gt;&lt;br&gt;ctg36 60&lt;br&gt;Location: 60191 - 61127" locus_tag="ctg36_60" class="clusterblast-orf" id="dummy-1_q53_0_all"  />
<polygon points="750,40 755,40 760,35 755,30 750,30 750,40 " style="fill:white; stroke-width:1; stroke:black; " description="&lt;b&gt;ctg36_61&lt;/b&gt;&lt;br&gt;ctg36 61&lt;br&gt;Location: 61123 - 61921" locus_tag="ctg36_61" class="clusterblast-orf" id="dummy-1_q54_0_all"  />
<polygon points="760,40 762,35 760,30 760,40 " style="fill:white; stroke-width:1; stroke:black; " description="&lt;b&gt;ctg36_62&lt;/b&gt;&lt;br&gt;ctg36 62&lt;br&gt;Location: 61947 - 62076" locus_tag="ctg36_62" class="clusterblast-orf" id="dummy-1_q55_0_all"  />
<polygon points="762,35 767,30 769,30 769,40 767,40 762,35 " style="fill:white; stroke-width:1; stroke:black; " description="&lt;b&gt;ctg36_63&lt;/b&gt;&lt;br&gt;ctg36 63&lt;br&gt;Location: 62088 - 62604" locus_tag="ctg36_63" class="clusterblast-orf" id="dummy-1_q56_0_all"  />
<polygon points="769,35 773,30 773,40 769,35 " style="fill:white; stroke-width:1; stroke:black; " description="&lt;b&gt;ctg36_64&lt;/b&gt;&lt;br&gt;ctg36 64&lt;br&gt;Location: 62656 - 62956" locus_tag="ctg36_64" class="clusterblast-orf" id="dummy-1_q57_0_all"  />
</g>
<g label="NZ_CP016174" description="NZ_CP016174_c5: Amycolatopsis orientalis strain B-37, complete genome (33% of genes show similarity), nrps" class="clusterblast-cluster"  >
<text x="5" y="70" class="clusterblast-acc"  >
<a xlink:href="https://antismash-db.secondarymetabolites.org/go/NZ_CP016174/5" target="_blank">NZ_CP016174_c5</a>: Amycolatopsis orientalis strain B-37, complete genome (33% of genes show similarity), nrps</text>
<line x1="10" y1="85" x2="778.0" y2="85" style="stroke-width:1; stroke:grey; "  />
</g>
<g id="a1_000"  >
<polygon points="0,90 6,90 11,85 6,80 0,80 0,90 " style="fill:white; stroke-width:1; stroke:black; " description="&lt;b&gt;SD37_RS07230&lt;/b&gt;&lt;br&gt;short-chain dehydrogenase&lt;br&gt;Location: 1501569 - 1502477" locus_tag="SD37_RS07230" class="clusterblast-orf" id="dummy-1_h1_7_0"  />
</g>
<g id="a1_001"  >
<polygon points="11,85 16,80 31,80 31,90 16,90 11,85 " style="fill:white; stroke-width:1; stroke:black; " description="&lt;b&gt;SD37_RS07235&lt;/b&gt;&lt;br&gt;hypothetical protein&lt;br&gt;Location: 1502468 - 1503991" locus_tag="SD37_RS07235" class="clusterblast-orf" id="dummy-1_h1_7_1"  />
</g>
<g id="a1_002"  >
<polygon points="31,85 36,80 38,80 38,90 36,90 31,85 " style="fill:white; stroke-width:1; stroke:black; " description="&lt;b&gt;SD37_RS07240&lt;/b&gt;&lt;br&gt;membrane protein&lt;br&gt;Location: 1503988 - 1504542" locus_tag="SD37_RS07240" class="clusterblast-orf" id="dummy-1_h1_7_2"  />
</g>
<g id="a1_003"  >
<polygon points="39,90 46,90 51,85 46,80 39,80 39,90 " style="fill:white; stroke-width:1; stroke:black; " description="&lt;b&gt;SD37_RS07245&lt;/b&gt;&lt;br&gt;PAC2 family protein&lt;br&gt;Location: 1504649 - 1505572" locus_tag="SD37_RS07245" class="clusterblast-orf" id="dummy-1_h1_7_3"  />
</g>
<g id="a1_004"  >
<polygon points="52,85 57,80 60,80 60,90 57,90 52,85 " style="fill:white; stroke-width:1; stroke:black; " description="&lt;b&gt;SD37_RS07250&lt;/b&gt;&lt;br&gt;NmrA family transcriptional regulator&lt;br&gt;Location: 1505648 - 1506301" locus_tag="SD37_RS07250" class="clusterblast-orf" id="dummy-1_h1_7_4"  />
</g>
<g id="a1_005"  >
<polygon points="62,90 68,90 73,85 68,80 62,80 62,90 " style="fill:white; stroke-width:1; stroke:black; " description="&lt;b&gt;SD37_RS07255&lt;/b&gt;&lt;br&gt;class I SAM-dependent methyltransferase&lt;br&gt;Location: 1506441 - 1507268" locus_tag="SD37_RS07255" class="clusterblast-orf" id="dummy-1_h1_7_5"  />
</g>
<g id="a1_006"  >
<polygon points="73,85 76,80 76,90 73,85 " style="fill:white; stroke-width:1; stroke:black; " description="&lt;b&gt;SD37_RS07260&lt;/b&gt;&lt;br&gt;transcription initiation protein&lt;br&gt;Location: 1507265 - 1507501" locus_tag="SD37_RS07260" class="clusterblast-orf" id="dummy-1_h1_7_6"  />
</g>
<g id="a1_007"  >
<polygon points="76,90 81,90 86,85 81,80 76,80 76,90 " style="fill:white; stroke-width:1; stroke:black; " description="&lt;b&gt;SD37_RS07265&lt;/b&gt;&lt;br&gt;hypothetical protein&lt;br&gt;Location: 1507517 - 1508342" locus_tag="SD37_RS07265" class="clusterblast-orf" id="dummy-1_h1_7_7"  />
</g>
<g id="a1_008"  >
<polygon points="89,90 94,90 99,85 94,80 89,80 89,90 " style="fill:white; stroke-width:1; stroke:black; " description="&lt;b&gt;SD37_RS07270&lt;/b&gt;&lt;br&gt;hypothetical protein&lt;br&gt;Location: 1508525 - 1509349" locus_tag="SD37_RS07270" class="clusterblast-orf" id="dummy-1_h1_7_8"  />
</g>
<g id="a1_009"  >
<polygon points="100,85 105,80 116,80 116,90 105,90 100,85 " style="fill:white; stroke-width:1; stroke:black; " description="&lt;b&gt;SD37_RS07275&lt;/b&gt;&lt;br&gt;RNA polymerase subunit sigma-24&lt;br&gt;Location: 1509412 - 1510647" locus_tag="SD37_RS07275" class="clusterblast-orf" id="dummy-1_h1_7_9"  />
</g>
<g id="a1_0010"  >
<polygon points="116,85 121,80 121,80 121,90 121,90 116,85 " style="fill:white; stroke-width:1; stroke:black; " description="&lt;b&gt;SD37_RS07280&lt;/b&gt;&lt;br&gt;hypothetical protein&lt;br&gt;Location: 1510648 - 1511052" locus_tag="SD37_RS07280" class="clusterblast-orf" id="dummy-1_h1_7_10"  />
</g>
<g id="a1_0011"  >
<polygon points="126,85 131,80 142,80 142,90 131,90 126,85 " style="fill:white; stroke-width:1; stroke:black; " description="&lt;b&gt;SD37_RS07285&lt;/b&gt;&lt;br&gt;MFS transporter&lt;br&gt;Location: 1511472 - 1512695" locus_tag="SD37_RS07285" class="clusterblast-orf" id="dummy-1_h1_7_11"  />
</g>
<g id="a1_0012"  >
<polygon points="144,90 149,90 154,85 149,80 144,80 144,90 " style="fill:#d81515; stroke-width:1; stroke:black; " description="&lt;b&gt;SD37_RS07290&lt;/b&gt;&lt;br&gt;thioesterase&lt;br&gt;Location: 1512848 - 1513618&lt;br&gt;&lt;br&gt;&lt;b&gt;BlastP hit with ctg36_25&lt;/b&gt;&lt;br&gt;Percentage identity: 53&lt;br&gt;Percentage coverage: 96&lt;br&gt;BLAST bit score: 227&lt;br&gt;E-value: 2.2e-57" locus_tag="SD37_RS07290" class="clusterblast-orf" id="dummy-1_h1_7_12"  />
</g>
<g id="a1_0013"  >
<polygon points="154,90 166,90 171,85 166,80 154,80 154,90 " style="fill:#4dd815; stroke-width:1; stroke:black; " description="&lt;b&gt;SD37_RS07295&lt;/b&gt;&lt;br&gt;salicylate synthase&lt;br&gt;Location: 1513627 - 1514967&lt;br&gt;&lt;br&gt;&lt;b&gt;BlastP hit with ctg36_26&lt;/b&gt;&lt;br&gt;Percentage identity: 62&lt;br&gt;Percentage coverage: 100&lt;br&gt;BLAST bit score: 463&lt;br&gt;E-value: 2.6e-128" locus_tag="SD37_RS07295" class="clusterblast-orf" id="dummy-1_h1_7_13"  />
</g>
<g id="a1_0014"  >
<polygon points="171,90 180,90 185,85 180,80 171,80 171,90 " style="fill:#1585d8; stroke-width:1; stroke:black; " description="&lt;b&gt;SD37_RS07300&lt;/b&gt;&lt;br&gt;thiazolinyl imide reductase&lt;br&gt;Location: 1514964 - 1516049&lt;br&gt;&lt;br&gt;&lt;b&gt;BlastP hit with ctg36_27&lt;/b&gt;&lt;br&gt;Percentage identity: 68&lt;br&gt;Percentage coverage: 94&lt;br&gt;BLAST bit score: 458&lt;br&gt;E-value: 5.4e-127" locus_tag="SD37_RS07300" class="clusterblast-orf" id="dummy-1_h1_7_14"  />
</g>
<g id="a1_0015"  >
<polygon points="185,90 189,90 194,85 189,80 185,80 185,90 " style="fill:#a115d8; stroke-width:1; stroke:black; " description="&lt;b&gt;SD37_RS07305&lt;/b&gt;&lt;br&gt;VOC family protein&lt;br&gt;Location: 1516049 - 1516729&lt;br&gt;&lt;br&gt;&lt;b&gt;BlastP hit with ctg36_28&lt;/b&gt;&lt;br&gt;Percentage identity: 60&lt;br&gt;Percentage coverage: 94&lt;br&gt;BLAST bit score: 271&lt;br&gt;E-value: 1e-70" locus_tag="SD37_RS07305" class="clusterblast-orf" id="dummy-1_h1_7_15"  />
</g>
<g id="a1_0016"  >
<polygon points="194,90 209,90 214,85 209,80 194,80 194,90 " style="fill:#d86915; stroke-width:1; stroke:black; " description="&lt;b&gt;SD37_RS07310&lt;/b&gt;&lt;br&gt;ABC transporter substrate-binding protein&lt;br&gt;Location: 1516759 - 1518303&lt;br&gt;&lt;br&gt;&lt;b&gt;BlastP hit with ctg36_29&lt;/b&gt;&lt;br&gt;Percentage identity: 66&lt;br&gt;Percentage coverage: 100&lt;br&gt;BLAST bit score: 663&lt;br&gt;E-value: 2.6e-188" locus_tag="SD37_RS07310" class="clusterblast-orf" id="dummy-1_h1_7_16"  />
</g>
<g id="a1_0017"  >
<polygon points="214,90 221,90 226,85 221,80 214,80 214,90 " style="fill:#15d831; stroke-width:1; stroke:black; " description="&lt;b&gt;SD37_RS07315&lt;/b&gt;&lt;br&gt;ABC transporter permease&lt;br&gt;Location: 1518339 - 1519247&lt;br&gt;&lt;br&gt;&lt;b&gt;BlastP hit with ctg36_30&lt;/b&gt;&lt;br&gt;Percentage identity: 72&lt;br&gt;Percentage coverage: 95&lt;br&gt;BLAST bit score: 374&lt;br&gt;E-value: 1.1e-101&lt;br&gt;&lt;br&gt;&lt;b&gt;BlastP hit with ctg36_45&lt;/b&gt;&lt;br&gt;Percentage identity: 37&lt;br&gt;Percentage coverage: 91&lt;br&gt;BLAST bit score: 138&lt;br&gt;E-value: 1.8e-30" locus_tag="SD37_RS07315" class="clusterblast-orf" id="dummy-1_h1_7_17"  />
</g>
<g id="a1_0018"  >
<polygon points="226,90 231,90 236,85 231,80 226,80 226,90 " style="fill:#1531d8; stroke-width:1; stroke:black; " description="&lt;b&gt;SD37_RS07320&lt;/b&gt;&lt;br&gt;ABC transporter permease&lt;br&gt;Location: 1519244 - 1520005&lt;br&gt;&lt;br&gt;&lt;b&gt;BlastP hit with ctg36_31&lt;/b&gt;&lt;br&gt;Percentage identity: 70&lt;br&gt;Percentage coverage: 90&lt;br&gt;BLAST bit score: 305&lt;br&gt;E-value: 5.5e-81&lt;br&gt;&lt;br&gt;&lt;b&gt;BlastP hit with ctg36_46&lt;/b&gt;&lt;br&gt;Percentage identity: 38&lt;br&gt;Percentage coverage: 94&lt;br&gt;BLAST bit score: 124&lt;br&gt;E-value: 1.8e-26" locus_tag="SD37_RS07320" class="clusterblast-orf" id="dummy-1_h1_7_18"  />
</g>
<g id="a1_0019"  >
<polygon points="236,90 250,90 255,85 250,80 236,80 236,90 " style="fill:#d815bc; stroke-width:1; stroke:black; " description="&lt;b&gt;SD37_RS07325&lt;/b&gt;&lt;br&gt;ABC transporter ATP-binding protein&lt;br&gt;Location: 1520002 - 1521471&lt;br&gt;&lt;br&gt;&lt;b&gt;BlastP hit with ctg36_32&lt;/b&gt;&lt;br&gt;Percentage identity: 53&lt;br&gt;Percentage coverage: 99&lt;br&gt;BLAST bit score: 428&lt;br&gt;E-value: 1.4e-117&lt;br&gt;&lt;br&gt;&lt;b&gt;BlastP hit with ctg36_60&lt;/b&gt;&lt;br&gt;Percentage identity: 33&lt;br&gt;Percentage coverage: 76&lt;br&gt;BLAST bit score: 97&lt;br&gt;E-value: 2e-18" locus_tag="SD37_RS07325" class="clusterblast-orf" id="dummy-1_h1_7_19"  />
</g>
<g id="a1_0020"  >
<polygon points="255,90 318,90 323,85 318,80 255,80 255,90 " style="fill:#d8bc15; stroke-width:1; stroke:black; " description="&lt;b&gt;SD37_RS07330&lt;/b&gt;&lt;br&gt;methyltransferase domain-containing protein&lt;br&gt;Location: 1521468 - 1526783&lt;br&gt;&lt;br&gt;&lt;b&gt;BlastP hit with ctg36_33&lt;/b&gt;&lt;br&gt;Percentage identity: 65&lt;br&gt;Percentage coverage: 100&lt;br&gt;BLAST bit score: 2262&lt;br&gt;E-value: 0.0&lt;br&gt;&lt;br&gt;&lt;b&gt;BlastP hit with ctg36_37&lt;/b&gt;&lt;br&gt;Percentage identity: 41&lt;br&gt;Percentage coverage: 47&lt;br&gt;BLAST bit score: 228&lt;br&gt;E-value: 2.6e-57&lt;br&gt;&lt;br&gt;&lt;b&gt;BlastP hit with ctg36_42&lt;/b&gt;&lt;br&gt;Percentage identity: 49&lt;br&gt;Percentage coverage: 42&lt;br&gt;BLAST bit score: 762&lt;br&gt;E-value: 1.7e-217" locus_tag="SD37_RS07330" class="clusterblast-orf" id="dummy-1_h1_7_20"  />
</g>
<g id="a1_0021"  >
<polygon points="323,90 340,90 345,85 340,80 323,80 323,90 " style="fill:#15d885; stroke-width:1; stroke:black; " description="&lt;b&gt;SD37_RS07335&lt;/b&gt;&lt;br&gt;ABC transporter ATP-binding protein&lt;br&gt;Location: 1526780 - 1528507&lt;br&gt;&lt;br&gt;&lt;b&gt;BlastP hit with ctg36_34&lt;/b&gt;&lt;br&gt;Percentage identity: 75&lt;br&gt;Percentage coverage: 95&lt;br&gt;BLAST bit score: 825&lt;br&gt;E-value: 3.6e-237&lt;br&gt;&lt;br&gt;&lt;b&gt;BlastP hit with ctg36_35&lt;/b&gt;&lt;br&gt;Percentage identity: 36&lt;br&gt;Percentage coverage: 89&lt;br&gt;BLAST bit score: 265&lt;br&gt;E-value: 1.8e-68" locus_tag="SD37_RS07335" class="clusterblast-orf" id="dummy-1_h1_7_21"  />
</g>
<g id="a1_0022"  >
<polygon points="345,90 362,90 367,85 362,80 345,80 345,90 " style="fill:#15d885; stroke-width:1; stroke:black; " description="&lt;b&gt;SD37_RS07340&lt;/b&gt;&lt;br&gt;ABC transporter ATP-binding protein&lt;br&gt;Location: 1528504 - 1530240&lt;br&gt;&lt;br&gt;&lt;b&gt;BlastP hit with ctg36_34&lt;/b&gt;&lt;br&gt;Percentage identity: 36&lt;br&gt;Percentage coverage: 92&lt;br&gt;BLAST bit score: 295&lt;br&gt;E-value: 9.8e-78&lt;br&gt;&lt;br&gt;&lt;b&gt;BlastP hit with ctg36_35&lt;/b&gt;&lt;br&gt;Percentage identity: 73&lt;br&gt;Percentage coverage: 99&lt;br&gt;BLAST bit score: 789&lt;br&gt;E-value: 2.1e-226" locus_tag="SD37_RS07340" class="clusterblast-orf" id="dummy-1_h1_7_22"  />
</g>
<g id="a1_0023"  >
<polygon points="367,90 375,90 380,85 375,80 367,80 367,90 " style="fill:#4d15d8; stroke-width:1; stroke:black; " description="&lt;b&gt;SD37_RS07345&lt;/b&gt;&lt;br&gt;hypothetical protein&lt;br&gt;Location: 1530237 - 1531229&lt;br&gt;&lt;br&gt;&lt;b&gt;BlastP hit with ctg36_36&lt;/b&gt;&lt;br&gt;Percentage identity: 43&lt;br&gt;Percentage coverage: 97&lt;br&gt;BLAST bit score: 226&lt;br&gt;E-value: 5.7e-57" locus_tag="SD37_RS07345" class="clusterblast-orf" id="dummy-1_h1_7_23"  />
</g>
<g id="a1_0024"  >
<polygon points="380,90 403,90 408,85 403,80 380,80 380,90 " style="fill:#d8bc15; stroke-width:1; stroke:black; " description="&lt;b&gt;SD37_RS07350&lt;/b&gt;&lt;br&gt;class I SAM-dependent methyltransferase&lt;br&gt;Location: 1531226 - 1533472&lt;br&gt;&lt;br&gt;&lt;b&gt;BlastP hit with ctg36_37&lt;/b&gt;&lt;br&gt;Percentage identity: 46&lt;br&gt;Percentage coverage: 102&lt;br&gt;BLAST bit score: 544&lt;br&gt;E-value: 2.1e-152" locus_tag="SD37_RS07350" class="clusterblast-orf" id="dummy-1_h1_7_24"  />
</g>
<g id="a1_0025"  >
<polygon points="408,90 424,90 429,85 424,80 408,80 408,90 " style="fill:#15d8d8; stroke-width:1; stroke:black; " description="&lt;b&gt;SD37_RS07355&lt;/b&gt;&lt;br&gt;2,3-dihydroxybenzoate-AMP ligase&lt;br&gt;Location: 1533475 - 1535058&lt;br&gt;&lt;br&gt;&lt;b&gt;BlastP hit with ctg36_40&lt;/b&gt;&lt;br&gt;Percentage identity: 68&lt;br&gt;Percentage coverage: 98&lt;br&gt;BLAST bit score: 690&lt;br&gt;E-value: 1.6e-196" locus_tag="SD37_RS07355" class="clusterblast-orf" id="dummy-1_h1_7_25"  />
</g>
<g id="a1_0026"  >
<polygon points="429,90 439,90 444,85 439,80 429,80 429,90 " style="fill:#a1d815; stroke-width:1; stroke:black; " description="&lt;b&gt;SD37_RS07360&lt;/b&gt;&lt;br&gt;cytochrome P450&lt;br&gt;Location: 1535055 - 1536224&lt;br&gt;&lt;br&gt;&lt;b&gt;BlastP hit with ctg36_39&lt;/b&gt;&lt;br&gt;Percentage identity: 38&lt;br&gt;Percentage coverage: 95&lt;br&gt;BLAST bit score: 229&lt;br&gt;E-value: 7.6e-58&lt;br&gt;&lt;br&gt;&lt;b&gt;BlastP hit with ctg36_41&lt;/b&gt;&lt;br&gt;Percentage identity: 56&lt;br&gt;Percentage coverage: 98&lt;br&gt;BLAST bit score: 413&lt;br&gt;E-value: 2.1e-113" locus_tag="SD37_RS07360" class="clusterblast-orf" id="dummy-1_h1_7_26"  />
</g>
<g id="a1_0027"  >
<polygon points="444,90 520,90 525,85 520,80 444,80 444,90 " style="fill:#d8bc15; stroke-width:1; stroke:black; " description="&lt;b&gt;SD37_RS07365&lt;/b&gt;&lt;br&gt;non-ribosomal peptide synthetase&lt;br&gt;Location: 1536221 - 1542535&lt;br&gt;&lt;br&gt;&lt;b&gt;BlastP hit with ctg36_33&lt;/b&gt;&lt;br&gt;Percentage identity: 48&lt;br&gt;Percentage coverage: 49&lt;br&gt;BLAST bit score: 727&lt;br&gt;E-value: 4e-207&lt;br&gt;&lt;br&gt;&lt;b&gt;BlastP hit with ctg36_42&lt;/b&gt;&lt;br&gt;Percentage identity: 64&lt;br&gt;Percentage coverage: 100&lt;br&gt;BLAST bit score: 2575&lt;br&gt;E-value: 0.0" locus_tag="SD37_RS07365" class="clusterblast-orf" id="dummy-1_h1_7_27"  />
</g>
<g id="a1_0028"  >
<polygon points="528,85 533,80 544,80 544,90 533,90 528,85 " style="fill:white; stroke-width:1; stroke:black; " description="&lt;b&gt;SD37_RS07370&lt;/b&gt;&lt;br&gt;HNH endonuclease&lt;br&gt;Location: 1542796 - 1544055" locus_tag="SD37_RS07370" class="clusterblast-orf" id="dummy-1_h1_7_28"  />
</g>
<g id="a1_0029"  >
<polygon points="547,90 552,90 557,85 552,80 547,80 547,90 " style="fill:white; stroke-width:1; stroke:black; " description="&lt;b&gt;SD37_RS07375&lt;/b&gt;&lt;br&gt;class I SAM-dependent methyltransferase&lt;br&gt;Location: 1544319 - 1545059" locus_tag="SD37_RS07375" class="clusterblast-orf" id="dummy-1_h1_7_29"  />
</g>
<g id="a1_0030"  >
<polygon points="557,90 566,90 571,85 566,80 557,80 557,90 " style="fill:white; stroke-width:1; stroke:black; " description="&lt;b&gt;SD37_RS07380&lt;/b&gt;&lt;br&gt;iron ABC transporter permease&lt;br&gt;Location: 1545040 - 1546134" locus_tag="SD37_RS07380" class="clusterblast-orf" id="dummy-1_h1_7_30"  />
</g>
<g id="a1_0031"  >
<polygon points="571,90 576,90 581,85 576,80 571,80 571,90 " style="fill:white; stroke-width:1; stroke:black; " description="&lt;b&gt;SD37_RS07385&lt;/b&gt;&lt;br&gt;ABC transporter ATP-binding protein&lt;br&gt;Location: 1546134 - 1546922" locus_tag="SD37_RS07385" class="clusterblast-orf" id="dummy-1_h1_7_31"  />
</g>
<g id="a1_0032"  >
<polygon points="581,90 588,90 593,85 588,80 581,80 581,90 " style="fill:white; stroke-width:1; stroke:black; " description="&lt;b&gt;SD37_RS07390&lt;/b&gt;&lt;br&gt;iron transporter&lt;br&gt;Location: 1546919 - 1547902" locus_tag="SD37_RS07390" class="clusterblast-orf" id="dummy-1_h1_7_32"  />
</g>
<g id="a1_0033"  >
<polygon points="593,90 602,90 607,85 602,80 593,80 593,90 " style="fill:white; stroke-width:1; stroke:black; " description="&lt;b&gt;SD37_RS07395&lt;/b&gt;&lt;br&gt;cysteine synthase family protein&lt;br&gt;Location: 1547899 - 1548954" locus_tag="SD37_RS07395" class="clusterblast-orf" id="dummy-1_h1_7_33"  />
</g>
<g id="a1_0034"  >
<polygon points="607,90 617,90 622,85 617,80 607,80 607,90 " style="fill:white; stroke-width:1; stroke:black; " description="&lt;b&gt;SD37_RS07400&lt;/b&gt;&lt;br&gt;ATP-grasp domain-containing protein&lt;br&gt;Location: 1548951 - 1550153" locus_tag="SD37_RS07400" class="clusterblast-orf" id="dummy-1_h1_7_34"  />
</g>
<g id="a1_0035"  >
<polygon points="623,90 630,90 635,85 630,80 623,80 623,90 " style="fill:white; stroke-width:1; stroke:black; " description="&lt;b&gt;SD37_RS07405&lt;/b&gt;&lt;br&gt;KR domain-containing protein&lt;br&gt;Location: 1550221 - 1551135" locus_tag="SD37_RS07405" class="clusterblast-orf" id="dummy-1_h1_7_35"  />
</g>
<g id="a1_0036"  >
<polygon points="635,85 640,80 642,80 642,90 640,90 635,85 " style="fill:white; stroke-width:1; stroke:black; " description="&lt;b&gt;SD37_RS07410&lt;/b&gt;&lt;br&gt;hypothetical protein&lt;br&gt;Location: 1551138 - 1551680" locus_tag="SD37_RS07410" class="clusterblast-orf" id="dummy-1_h1_7_36"  />
</g>
<g id="a1_0037"  >
<polygon points="643,85 648,80 651,80 651,90 648,90 643,85 " style="fill:white; stroke-width:1; stroke:black; " description="&lt;b&gt;SD37_RS07415&lt;/b&gt;&lt;br&gt;TetR family transcriptional regulator&lt;br&gt;Location: 1551782 - 1552399" locus_tag="SD37_RS07415" class="clusterblast-orf" id="dummy-1_h1_7_37"  />
</g>
<g id="a1_0038"  >
<polygon points="652,90 656,90 661,85 656,80 652,80 652,90 " style="fill:white; stroke-width:1; stroke:black; " description="&lt;b&gt;SD37_RS07420&lt;/b&gt;&lt;br&gt;short-chain dehydrogenase/reductase&lt;br&gt;Location: 1552495 - 1553199" locus_tag="SD37_RS07420" class="clusterblast-orf" id="dummy-1_h1_7_38"  />
</g>
<g id="a1_0039"  >
<polygon points="664,85 669,80 675,80 675,90 669,90 664,85 " style="fill:white; stroke-width:1; stroke:black; " description="&lt;b&gt;SD37_RS07425&lt;/b&gt;&lt;br&gt;sterol desaturase family protein&lt;br&gt;Location: 1553392 - 1554294" locus_tag="SD37_RS07425" class="clusterblast-orf" id="dummy-1_h1_7_39"  />
</g>
<g id="a1_0040"  >
<polygon points="676,85 681,80 686,80 686,90 681,90 676,85 " style="fill:white; stroke-width:1; stroke:black; " description="&lt;b&gt;SD37_RS07430&lt;/b&gt;&lt;br&gt;AraC family transcriptional regulator&lt;br&gt;Location: 1554342 - 1555115" locus_tag="SD37_RS07430" class="clusterblast-orf" id="dummy-1_h1_7_40"  />
</g>
<g id="a1_0041"  >
<polygon points="691,90 694,90 699,85 694,80 691,80 691,90 " style="fill:white; stroke-width:1; stroke:black; " description="&lt;b&gt;SD37_RS07435&lt;/b&gt;&lt;br&gt;polyketide cyclase /reductase&lt;br&gt;Location: 1555537 - 1556178" locus_tag="SD37_RS07435" class="clusterblast-orf" id="dummy-1_h1_7_41"  />
</g>
<g id="a1_0042"  >
<polygon points="700,85 705,80 716,80 716,90 705,90 700,85 " style="fill:white; stroke-width:1; stroke:black; " description="&lt;b&gt;SD37_RS07440&lt;/b&gt;&lt;br&gt;hypothetical protein&lt;br&gt;Location: 1556233 - 1557447" locus_tag="SD37_RS07440" class="clusterblast-orf" id="dummy-1_h1_7_42"  />
</g>
<g id="a1_0043"  >
<polygon points="716,85 720,80 720,90 716,85 " style="fill:white; stroke-width:1; stroke:black; " description="&lt;b&gt;SD37_RS07445&lt;/b&gt;&lt;br&gt;hypothetical protein&lt;br&gt;Location: 1557444 - 1557779" locus_tag="SD37_RS07445" class="clusterblast-orf" id="dummy-1_h1_7_43"  />
</g>
<g id="a1_0044"  >
<polygon points="720,85 725,80 727,80 727,90 725,90 720,85 " style="fill:white; stroke-width:1; stroke:black; " description="&lt;b&gt;SD37_RS07450&lt;/b&gt;&lt;br&gt;lipoprotein&lt;br&gt;Location: 1557773 - 1558309" locus_tag="SD37_RS07450" class="clusterblast-orf" id="dummy-1_h1_7_44"  />
</g>
<g id="a1_0045"  >
<polygon points="732,85 737,80 747,80 747,90 737,90 732,85 " style="fill:white; stroke-width:1; stroke:black; " description="&lt;b&gt;SD37_RS07455&lt;/b&gt;&lt;br&gt;hydrolase&lt;br&gt;Location: 1558726 - 1559904" locus_tag="SD37_RS07455" class="clusterblast-orf" id="dummy-1_h1_7_45"  />
</g>
<g id="a1_0046"  >
<polygon points="748,85 753,80 760,80 760,90 753,90 748,85 " style="fill:white; stroke-width:1; stroke:black; " description="&lt;b&gt;SD37_RS07460&lt;/b&gt;&lt;br&gt;alpha/beta hydrolase&lt;br&gt;Location: 1559937 - 1560866" locus_tag="SD37_RS07460" class="clusterblast-orf" id="dummy-1_h1_7_46"  />
</g>
<g id="a1_0047"  >
<polygon points="765,90 775,90 780,85 775,80 765,80 765,90 " style="fill:white; stroke-width:1; stroke:black; " description="&lt;b&gt;SD37_RS07470&lt;/b&gt;&lt;br&gt;epoxide hydrolase&lt;br&gt;Location: 1561296 - 1562420" locus_tag="SD37_RS07470" class="clusterblast-orf" id="dummy-1_h1_7_47"  />
</g>
</svg>
