<svg xmlns="http://www.w3.org/2000/svg" xmlns:xlink="http://www.w3.org/1999/xlink" version="1.1" x="0" y="0" height="230" width="800" viewBox="0 0 800 230" preserveAspectRatio="none"  >
<g label="Query sequence" class="clusterblast-cluster"  >
<text x="5" y="20" class="clusterblast-acc"  >
Query sequence</text>
<line x1="10" y1="35" x2="778.0" y2="35" style="stroke-width:1; stroke:grey; "  />
<polygon points="75,35 80,30 125,30 125,40 80,40 75,35 " style="fill:#d81515; stroke-width:1; stroke:black; " description="&lt;b&gt;ctg19_63&lt;/b&gt;&lt;br&gt;ctg19 63&lt;br&gt;Location: 70846 - 72163" locus_tag="ctg19_63" class="clusterblast-orf" id="dummy-2_q0_0_all"  />
<polygon points="129,35 134,30 162,30 162,40 134,40 129,35 " style="fill:#4dd815; stroke-width:1; stroke:black; " description="&lt;b&gt;ctg19_64&lt;/b&gt;&lt;br&gt;ctg19 64&lt;br&gt;Location: 72291 - 73164" locus_tag="ctg19_64" class="clusterblast-orf" id="dummy-2_q1_0_all"  />
<polygon points="164,35 169,30 201,30 201,40 169,40 164,35 " style="fill:#1585d8; stroke-width:1; stroke:black; " description="&lt;b&gt;ctg19_65&lt;/b&gt;&lt;br&gt;ctg19 65&lt;br&gt;Location: 73213 - 74197" locus_tag="ctg19_65" class="clusterblast-orf" id="dummy-2_q2_0_all"  />
<polygon points="207,40 235,40 240,35 235,30 207,30 207,40 " style="fill:#a115d8; stroke-width:1; stroke:black; " description="&lt;b&gt;ctg19_66&lt;/b&gt;&lt;br&gt;ctg19 66&lt;br&gt;Location: 74353 - 75220" locus_tag="ctg19_66" class="clusterblast-orf" id="dummy-2_q3_0_all"  />
<polygon points="260,35 265,30 293,30 293,40 265,40 260,35 " style="fill:#d86915; stroke-width:1; stroke:black; " description="&lt;b&gt;ctg19_67&lt;/b&gt;&lt;br&gt;ctg19 67&lt;br&gt;Location: 75771 - 76653" locus_tag="ctg19_67" class="clusterblast-orf" id="dummy-2_q4_0_all"  />
<polygon points="298,40 325,40 330,35 325,30 298,30 298,40 " style="fill:#15d831; stroke-width:1; stroke:black; " description="&lt;b&gt;ctg19_68&lt;/b&gt;&lt;br&gt;ctg19 68&lt;br&gt;Location: 76785 - 77616" locus_tag="ctg19_68" class="clusterblast-orf" id="dummy-2_q5_0_all"  />
<polygon points="330,40 347,40 352,35 347,30 330,30 330,40 " style="fill:#1531d8; stroke-width:1; stroke:black; " description="&lt;b&gt;ctg19_69&lt;/b&gt;&lt;br&gt;ctg19 69&lt;br&gt;Location: 77620 - 78211" locus_tag="ctg19_69" class="clusterblast-orf" id="dummy-2_q6_0_all"  />
<polygon points="353,40 372,40 377,35 372,30 353,30 353,40 " style="fill:#d815bc; stroke-width:1; stroke:black; " description="&lt;b&gt;ctg19_70&lt;/b&gt;&lt;br&gt;ctg19 70&lt;br&gt;Location: 78245 - 78887" locus_tag="ctg19_70" class="clusterblast-orf" id="dummy-2_q7_0_all"  />
<polygon points="376,35 381,30 419,30 419,40 381,40 376,35 " style="fill:#d8bc15; stroke-width:1; stroke:black; " description="&lt;b&gt;ctg19_71&lt;/b&gt;&lt;br&gt;ctg19 71&lt;br&gt;Location: 78859 - 79996" locus_tag="ctg19_71" class="clusterblast-orf" id="dummy-2_q8_0_all"  />
<polygon points="426,40 426,40 431,35 426,30 426,30 426,40 " style="fill:white; stroke-width:1; stroke:black; " description="&lt;b&gt;ctg19_72&lt;/b&gt;&lt;br&gt;ctg19 72&lt;br&gt;Location: 80184 - 80313" locus_tag="ctg19_72" class="clusterblast-orf" id="dummy-2_q9_0_all"  />
<polygon points="433,40 535,40 540,35 535,30 433,30 433,40 " style="fill:#15d885; stroke-width:1; stroke:black; " description="&lt;b&gt;ctg19_73&lt;/b&gt;&lt;br&gt;ctg19 73&lt;br&gt;Location: 80374 - 83221" locus_tag="ctg19_73" class="clusterblast-orf" id="dummy-2_q10_0_all"  />
<polygon points="544,40 583,40 588,35 583,30 544,30 544,40 " style="fill:#4d15d8; stroke-width:1; stroke:black; " description="&lt;b&gt;ctg19_74&lt;/b&gt;&lt;br&gt;ctg19 74&lt;br&gt;Location: 83315 - 84488" locus_tag="ctg19_74" class="clusterblast-orf" id="dummy-2_q11_0_all"  />
<polygon points="589,35 594,30 607,30 607,40 594,40 589,35 " style="fill:#d81569; stroke-width:1; stroke:black; " description="&lt;b&gt;ctg19_75&lt;/b&gt;&lt;br&gt;ctg19 75&lt;br&gt;Location: 84512 - 85004" locus_tag="ctg19_75" class="clusterblast-orf" id="dummy-2_q12_0_all"  />
<polygon points="619,35 624,30 671,30 671,40 624,40 619,35 " style="fill:#a1d815; stroke-width:1; stroke:black; " description="&lt;b&gt;ctg19_76&lt;/b&gt;&lt;br&gt;ctg19 76&lt;br&gt;Location: 85324 - 86704" locus_tag="ctg19_76" class="clusterblast-orf" id="dummy-2_q13_0_all"  />
<polygon points="671,35 676,30 678,30 678,40 676,40 671,35 " style="fill:#15d8d8; stroke-width:1; stroke:black; " description="&lt;b&gt;ctg19_77&lt;/b&gt;&lt;br&gt;ctg19 77&lt;br&gt;Location: 86703 - 86892" locus_tag="ctg19_77" class="clusterblast-orf" id="dummy-2_q14_0_all"  />
<polygon points="687,35 692,30 705,30 705,40 692,40 687,35 " style="fill:white; stroke-width:1; stroke:black; " description="&lt;b&gt;ctg19_78&lt;/b&gt;&lt;br&gt;ctg19 78&lt;br&gt;Location: 87125 - 87593" locus_tag="ctg19_78" class="clusterblast-orf" id="dummy-2_q15_0_all"  />
</g>
<g label="NZ_JODW01000038" description="NZ_JODW01000038_c25: Streptomyces globisporus subsp. globisporus strain NRRL ... (17% of genes show similarity), lantipeptide" class="clusterblast-cluster"  >
<text x="5" y="70" class="clusterblast-acc"  >
<a xlink:href="https://antismash-db.secondarymetabolites.org/go/NZ_JODW01000038/25" target="_blank">NZ_JODW01000038_c25</a>: Streptomyces globisporus subsp. globisporus strain NRRL ... (17% of genes show similarity), lantipeptide</text>
<line x1="10" y1="85" x2="778.0" y2="85" style="stroke-width:1; stroke:grey; "  />
</g>
<g id="a2_000"  >
<polygon points="0,85 5,80 10,80 10,90 5,90 0,85 " style="fill:white; stroke-width:1; stroke:black; " description="&lt;b&gt;IH67_RS45405&lt;/b&gt;&lt;br&gt;modular polyketide synthase&lt;br&gt;Location: 1 - 291" locus_tag="IH67_RS45405" class="clusterblast-orf" id="dummy-2_h2_7_0"  />
</g>
<g id="a2_001"  >
<polygon points="10,85 15,80 65,80 65,90 15,90 10,85 " style="fill:white; stroke-width:1; stroke:black; " description="&lt;b&gt;IH67_RS43890&lt;/b&gt;&lt;br&gt;hypothetical protein&lt;br&gt;Location: 288 - 1745" locus_tag="IH67_RS43890" class="clusterblast-orf" id="dummy-2_h2_7_1"  />
</g>
<g id="a2_002"  >
<polygon points="113,85 118,80 145,80 145,90 118,90 113,85 " style="fill:white; stroke-width:1; stroke:black; " description="&lt;b&gt;IH67_RS41120&lt;/b&gt;&lt;br&gt;thioesterase&lt;br&gt;Location: 3010 - 3873" locus_tag="IH67_RS41120" class="clusterblast-orf" id="dummy-2_h2_7_2"  />
</g>
<g id="a2_003"  >
<polygon points="145,85 150,80 154,80 154,90 150,90 145,85 " style="fill:white; stroke-width:1; stroke:black; " description="&lt;b&gt;IH67_RS0126080&lt;/b&gt;&lt;br&gt;acyl carrier protein&lt;br&gt;Location: 3870 - 4112" locus_tag="IH67_RS0126080" class="clusterblast-orf" id="dummy-2_h2_7_3"  />
</g>
<g id="a2_004"  >
<polygon points="154,85 159,80 225,80 225,90 159,90 154,85 " style="fill:white; stroke-width:1; stroke:black; " description="&lt;b&gt;IH67_RS0126085&lt;/b&gt;&lt;br&gt;methoxymalonyl-ACP biosynthesis protein FkbH&lt;br&gt;Location: 4109 - 6001" locus_tag="IH67_RS0126085" class="clusterblast-orf" id="dummy-2_h2_7_4"  />
</g>
<g id="a2_005"  >
<polygon points="246,90 361,90 366,85 361,80 246,80 246,90 " style="fill:#15d885; stroke-width:1; stroke:black; " description="&lt;b&gt;IH67_RS41125&lt;/b&gt;&lt;br&gt;hypothetical protein&lt;br&gt;Location: 6566 - 9763&lt;br&gt;&lt;br&gt;&lt;b&gt;BlastP hit with ctg19_73&lt;/b&gt;&lt;br&gt;Percentage identity: 43&lt;br&gt;Percentage coverage: 112&lt;br&gt;BLAST bit score: 682&lt;br&gt;E-value: 5.9e-194" locus_tag="IH67_RS41125" class="clusterblast-orf" id="dummy-2_h2_7_5"  />
</g>
<g id="a2_006"  >
<polygon points="366,90 419,90 424,85 419,80 366,80 366,90 " style="fill:#4d15d8; stroke-width:1; stroke:black; " description="&lt;b&gt;IH67_RS41130&lt;/b&gt;&lt;br&gt;hypothetical protein&lt;br&gt;Location: 9760 - 11307&lt;br&gt;&lt;br&gt;&lt;b&gt;BlastP hit with ctg19_74&lt;/b&gt;&lt;br&gt;Percentage identity: 46&lt;br&gt;Percentage coverage: 106&lt;br&gt;BLAST bit score: 265&lt;br&gt;E-value: 9.2e-69" locus_tag="IH67_RS41130" class="clusterblast-orf" id="dummy-2_h2_7_6"  />
</g>
<g id="a2_007"  >
<polygon points="428,90 455,90 460,85 455,80 428,80 428,90 " style="fill:white; stroke-width:1; stroke:black; " description="&lt;b&gt;IH67_RS0126100&lt;/b&gt;&lt;br&gt;metallophosphoesterase&lt;br&gt;Location: 11396 - 12256" locus_tag="IH67_RS0126100" class="clusterblast-orf" id="dummy-2_h2_7_7"  />
</g>
<g id="a2_008"  >
<polygon points="460,90 483,90 488,85 483,80 460,80 460,90 " style="fill:white; stroke-width:1; stroke:black; " description="&lt;b&gt;IH67_RS0126105&lt;/b&gt;&lt;br&gt;hypothetical protein&lt;br&gt;Location: 12253 - 12999" locus_tag="IH67_RS0126105" class="clusterblast-orf" id="dummy-2_h2_7_8"  />
</g>
<g id="a2_009"  >
<polygon points="499,90 558,90 563,85 558,80 499,80 499,90 " style="fill:white; stroke-width:1; stroke:black; " description="&lt;b&gt;IH67_RS0126110&lt;/b&gt;&lt;br&gt;serine/threonine-protein phosphatase&lt;br&gt;Location: 13282 - 15003" locus_tag="IH67_RS0126110" class="clusterblast-orf" id="dummy-2_h2_7_9"  />
</g>
<g id="a2_0010"  >
<polygon points="568,90 583,90 588,85 583,80 568,80 568,90 " style="fill:white; stroke-width:1; stroke:black; " description="&lt;b&gt;IH67_RS0126115&lt;/b&gt;&lt;br&gt;hypothetical protein&lt;br&gt;Location: 15130 - 15663" locus_tag="IH67_RS0126115" class="clusterblast-orf" id="dummy-2_h2_7_10"  />
</g>
<g id="a2_0011"  >
<polygon points="589,85 594,80 613,80 613,90 594,90 589,85 " style="fill:white; stroke-width:1; stroke:black; " description="&lt;b&gt;IH67_RS0126120&lt;/b&gt;&lt;br&gt;hypothetical protein&lt;br&gt;Location: 15679 - 16332" locus_tag="IH67_RS0126120" class="clusterblast-orf" id="dummy-2_h2_7_11"  />
</g>
<g id="a2_0012"  >
<polygon points="613,85 618,80 648,80 648,90 618,90 613,85 " style="fill:#a115d8; stroke-width:1; stroke:black; " description="&lt;b&gt;IH67_RS0126125&lt;/b&gt;&lt;br&gt;zinc metalloprotease HtpX&lt;br&gt;Location: 16338 - 17255&lt;br&gt;&lt;br&gt;&lt;b&gt;BlastP hit with ctg19_66&lt;/b&gt;&lt;br&gt;Percentage identity: 33&lt;br&gt;Percentage coverage: 97&lt;br&gt;BLAST bit score: 138&lt;br&gt;E-value: 9.6e-31" locus_tag="IH67_RS0126125" class="clusterblast-orf" id="dummy-2_h2_7_12"  />
</g>
<g id="a2_0013"  >
<polygon points="655,90 671,90 676,85 671,80 655,80 655,90 " style="fill:white; stroke-width:1; stroke:black; " description="&lt;b&gt;IH67_RS0126130&lt;/b&gt;&lt;br&gt;N-acetyltransferase&lt;br&gt;Location: 17450 - 18007" locus_tag="IH67_RS0126130" class="clusterblast-orf" id="dummy-2_h2_7_13"  />
</g>
<g id="a2_0014"  >
<polygon points="677,85 682,80 708,80 708,90 682,90 677,85 " style="fill:white; stroke-width:1; stroke:black; " description="&lt;b&gt;IH67_RS0126135&lt;/b&gt;&lt;br&gt;dienelactone hydrolase&lt;br&gt;Location: 18023 - 18850" locus_tag="IH67_RS0126135" class="clusterblast-orf" id="dummy-2_h2_7_14"  />
</g>
<g id="a2_0015"  >
<polygon points="711,90 743,90 748,85 743,80 711,80 711,90 " style="fill:white; stroke-width:1; stroke:black; " description="&lt;b&gt;IH67_RS0126140&lt;/b&gt;&lt;br&gt;AraC family transcriptional regulator&lt;br&gt;Location: 18925 - 19905" locus_tag="IH67_RS0126140" class="clusterblast-orf" id="dummy-2_h2_7_15"  />
</g>
<g id="a2_0016"  >
<polygon points="750,90 775,90 780,85 775,80 750,80 750,90 " style="fill:white; stroke-width:1; stroke:black; " description="&lt;b&gt;IH67_RS0126145&lt;/b&gt;&lt;br&gt;hypothetical protein&lt;br&gt;Location: 19970 - 20755" locus_tag="IH67_RS0126145" class="clusterblast-orf" id="dummy-2_h2_7_16"  />
</g>
</svg>
