<svg xmlns="http://www.w3.org/2000/svg" xmlns:xlink="http://www.w3.org/1999/xlink" version="1.1" x="0" y="0" height="230" width="800" viewBox="0 0 800 230" preserveAspectRatio="none"  >
<g label="Query sequence" class="clusterblast-cluster"  >
<text x="5" y="20" class="clusterblast-acc"  >
Query sequence</text>
<line x1="10" y1="35" x2="778.0" y2="35" style="stroke-width:1; stroke:grey; "  />
<polygon points="0,35 5,30 6,30 6,40 5,40 0,35 " style="fill:white; stroke-width:1; stroke:black; " description="&lt;b&gt;ctg23_19&lt;/b&gt;&lt;br&gt;ctg23 19&lt;br&gt;Location: 28055 - 28256" locus_tag="ctg23_19" class="clusterblast-orf" id="dummy-1_q0_0_all"  />
<polygon points="42,40 99,40 104,35 99,30 42,30 42,40 " style="fill:white; stroke-width:1; stroke:black; " description="&lt;b&gt;ctg23_20&lt;/b&gt;&lt;br&gt;ctg23 20&lt;br&gt;Location: 29363 - 31307" locus_tag="ctg23_20" class="clusterblast-orf" id="dummy-1_q1_0_all"  />
<polygon points="116,35 121,30 131,30 131,40 121,40 116,35 " style="fill:white; stroke-width:1; stroke:black; " description="&lt;b&gt;ctg23_21&lt;/b&gt;&lt;br&gt;ctg23 21&lt;br&gt;Location: 31683 - 32151" locus_tag="ctg23_21" class="clusterblast-orf" id="dummy-1_q2_0_all"  />
<polygon points="131,40 141,40 146,35 141,30 131,30 131,40 " style="fill:white; stroke-width:1; stroke:black; " description="&lt;b&gt;ctg23_22&lt;/b&gt;&lt;br&gt;ctg23 22&lt;br&gt;Location: 32165 - 32621" locus_tag="ctg23_22" class="clusterblast-orf" id="dummy-1_q3_0_all"  />
<polygon points="156,35 161,30 196,30 196,40 161,40 156,35 " style="fill:#d81515; stroke-width:1; stroke:black; " description="&lt;b&gt;ctg23_23&lt;/b&gt;&lt;br&gt;ctg23 23&lt;br&gt;Location: 32941 - 34192" locus_tag="ctg23_23" class="clusterblast-orf" id="dummy-1_q4_0_all"  />
<polygon points="197,35 202,30 210,30 210,40 202,40 197,35 " style="fill:#15d815; stroke-width:1; stroke:black; " description="&lt;b&gt;ctg23_24&lt;/b&gt;&lt;br&gt;ctg23 24&lt;br&gt;Location: 34200 - 34617" locus_tag="ctg23_24" class="clusterblast-orf" id="dummy-1_q5_0_all"  />
<polygon points="215,40 235,40 240,35 235,30 215,30 215,40 " style="fill:#1597d8; stroke-width:1; stroke:black; " description="&lt;b&gt;ctg23_25&lt;/b&gt;&lt;br&gt;ctg23 25&lt;br&gt;Location: 34784 - 35555" locus_tag="ctg23_25" class="clusterblast-orf" id="dummy-1_q6_0_all"  />
<polygon points="241,40 242,40 247,35 242,30 241,30 241,40 " style="fill:white; stroke-width:1; stroke:black; " description="&lt;b&gt;ctg23_26&lt;/b&gt;&lt;br&gt;ctg23 26&lt;br&gt;Location: 35584 - 35758" locus_tag="ctg23_26" class="clusterblast-orf" id="dummy-1_q7_0_all"  />
<polygon points="253,40 289,40 294,35 289,30 253,30 253,40 " style="fill:#9715d8; stroke-width:1; stroke:black; " description="&lt;b&gt;ctg23_27&lt;/b&gt;&lt;br&gt;ctg23 27&lt;br&gt;Location: 35967 - 37242" locus_tag="ctg23_27" class="clusterblast-orf" id="dummy-1_q8_0_all"  />
<polygon points="294,40 296,40 301,35 296,30 294,30 294,40 " style="fill:#d89715; stroke-width:1; stroke:black; " description="&lt;b&gt;ctg23_28&lt;/b&gt;&lt;br&gt;ctg23 28&lt;br&gt;Location: 37254 - 37455" locus_tag="ctg23_28" class="clusterblast-orf" id="dummy-1_q9_0_all"  />
<polygon points="304,40 399,40 404,35 399,30 304,30 304,40 " style="fill:#15d897; stroke-width:1; stroke:black; " description="&lt;b&gt;ctg23_29&lt;/b&gt;&lt;br&gt;ctg23 29&lt;br&gt;Location: 37549 - 40687" locus_tag="ctg23_29" class="clusterblast-orf" id="dummy-1_q10_0_all"  />
<polygon points="405,40 438,40 443,35 438,30 405,30 405,40 " style="fill:#1515d8; stroke-width:1; stroke:black; " description="&lt;b&gt;ctg23_30&lt;/b&gt;&lt;br&gt;ctg23 30&lt;br&gt;Location: 40722 - 41895" locus_tag="ctg23_30" class="clusterblast-orf" id="dummy-1_q11_0_all"  />
<polygon points="442,40 469,40 474,35 469,30 442,30 442,40 " style="fill:#d81597; stroke-width:1; stroke:black; " description="&lt;b&gt;ctg23_31&lt;/b&gt;&lt;br&gt;ctg23 31&lt;br&gt;Location: 41876 - 42857" locus_tag="ctg23_31" class="clusterblast-orf" id="dummy-1_q12_0_all"  />
<polygon points="474,40 505,40 510,35 505,30 474,30 474,40 " style="fill:#97d815; stroke-width:1; stroke:black; " description="&lt;b&gt;ctg23_32&lt;/b&gt;&lt;br&gt;ctg23 32&lt;br&gt;Location: 42859 - 43990" locus_tag="ctg23_32" class="clusterblast-orf" id="dummy-1_q13_0_all"  />
<polygon points="515,40 516,40 521,35 516,30 515,30 515,40 " style="fill:white; stroke-width:1; stroke:black; " description="&lt;b&gt;ctg23_33&lt;/b&gt;&lt;br&gt;ctg23 33&lt;br&gt;Location: 44140 - 44320" locus_tag="ctg23_33" class="clusterblast-orf" id="dummy-1_q14_0_all"  />
<polygon points="532,35 537,30 566,30 566,40 537,40 532,35 " style="fill:white; stroke-width:1; stroke:black; " description="&lt;b&gt;ctg23_34&lt;/b&gt;&lt;br&gt;ctg23 34&lt;br&gt;Location: 44657 - 45719" locus_tag="ctg23_34" class="clusterblast-orf" id="dummy-1_q15_0_all"  />
<polygon points="566,35 571,30 583,30 583,40 571,40 566,35 " style="fill:white; stroke-width:1; stroke:black; " description="&lt;b&gt;ctg23_35&lt;/b&gt;&lt;br&gt;ctg23 35&lt;br&gt;Location: 45718 - 46258" locus_tag="ctg23_35" class="clusterblast-orf" id="dummy-1_q16_0_all"  />
<polygon points="590,40 593,40 598,35 593,30 590,30 590,40 " style="fill:white; stroke-width:1; stroke:black; " description="&lt;b&gt;ctg23_36&lt;/b&gt;&lt;br&gt;ctg23 36&lt;br&gt;Location: 46475 - 46733" locus_tag="ctg23_36" class="clusterblast-orf" id="dummy-1_q17_0_all"  />
<polygon points="600,35 605,30 607,30 607,40 605,40 600,35 " style="fill:white; stroke-width:1; stroke:black; " description="&lt;b&gt;ctg23_37&lt;/b&gt;&lt;br&gt;ctg23 37&lt;br&gt;Location: 46783 - 47017" locus_tag="ctg23_37" class="clusterblast-orf" id="dummy-1_q18_0_all"  />
<polygon points="609,35 614,30 619,30 619,40 614,40 609,35 " style="fill:white; stroke-width:1; stroke:black; " description="&lt;b&gt;ctg23_38&lt;/b&gt;&lt;br&gt;ctg23 38&lt;br&gt;Location: 47069 - 47393" locus_tag="ctg23_38" class="clusterblast-orf" id="dummy-1_q19_0_all"  />
<polygon points="621,35 626,30 642,30 642,40 626,40 621,35 " style="fill:white; stroke-width:1; stroke:black; " description="&lt;b&gt;ctg23_39&lt;/b&gt;&lt;br&gt;ctg23 39&lt;br&gt;Location: 47462 - 48107" locus_tag="ctg23_39" class="clusterblast-orf" id="dummy-1_q20_0_all"  />
<polygon points="642,35 647,30 672,30 672,40 647,40 642,35 " style="fill:white; stroke-width:1; stroke:black; " description="&lt;b&gt;ctg23_40&lt;/b&gt;&lt;br&gt;ctg23 40&lt;br&gt;Location: 48103 - 49054" locus_tag="ctg23_40" class="clusterblast-orf" id="dummy-1_q21_0_all"  />
<polygon points="672,35 677,30 679,30 679,40 677,40 672,35 " style="fill:white; stroke-width:1; stroke:black; " description="&lt;b&gt;ctg23_41&lt;/b&gt;&lt;br&gt;ctg23 41&lt;br&gt;Location: 49050 - 49266" locus_tag="ctg23_41" class="clusterblast-orf" id="dummy-1_q22_0_all"  />
<polygon points="686,35 691,30 694,30 694,40 691,40 686,35 " style="fill:white; stroke-width:1; stroke:black; " description="&lt;b&gt;ctg23_42&lt;/b&gt;&lt;br&gt;ctg23 42&lt;br&gt;Location: 49480 - 49738" locus_tag="ctg23_42" class="clusterblast-orf" id="dummy-1_q23_0_all"  />
<polygon points="694,35 699,30 706,30 706,40 699,40 694,35 " style="fill:white; stroke-width:1; stroke:black; " description="&lt;b&gt;ctg23_43&lt;/b&gt;&lt;br&gt;ctg23 43&lt;br&gt;Location: 49734 - 50103" locus_tag="ctg23_43" class="clusterblast-orf" id="dummy-1_q24_0_all"  />
<polygon points="706,35 711,30 725,30 725,40 711,40 706,35 " style="fill:white; stroke-width:1; stroke:black; " description="&lt;b&gt;ctg23_44&lt;/b&gt;&lt;br&gt;ctg23 44&lt;br&gt;Location: 50099 - 50705" locus_tag="ctg23_44" class="clusterblast-orf" id="dummy-1_q25_0_all"  />
<polygon points="728,40 747,40 752,35 747,30 728,30 728,40 " style="fill:white; stroke-width:1; stroke:black; " description="&lt;b&gt;ctg23_45&lt;/b&gt;&lt;br&gt;ctg23 45&lt;br&gt;Location: 50782 - 51541" locus_tag="ctg23_45" class="clusterblast-orf" id="dummy-1_q26_0_all"  />
<polygon points="771,35 776,30 780,30 780,40 776,40 771,35 " style="fill:white; stroke-width:1; stroke:black; " description="&lt;b&gt;ctg23_46&lt;/b&gt;&lt;br&gt;ctg23 46&lt;br&gt;Location: 52143 - 52410" locus_tag="ctg23_46" class="clusterblast-orf" id="dummy-1_q27_0_all"  />
</g>
<g label="NZ_LFCW01000014" description="NZ_LFCW01000014_c36: Frankia sp. R43 contig014, whole genome shotgun sequence (28% of genes show similarity), lantipeptide" class="clusterblast-cluster"  >
<text x="5" y="70" class="clusterblast-acc"  >
<a xlink:href="https://antismash-db.secondarymetabolites.org/go/NZ_LFCW01000014/36" target="_blank">NZ_LFCW01000014_c36</a>: Frankia sp. R43 contig014, whole genome shotgun sequence (28% of genes show similarity), lantipeptide</text>
<line x1="10" y1="85" x2="778.0" y2="85" style="stroke-width:1; stroke:grey; "  />
</g>
<g id="a1_000"  >
<polygon points="5,85 10,80 92,80 92,90 10,90 5,85 " style="fill:white; stroke-width:1; stroke:black; " description="&lt;b&gt;ACG83_RS43410&lt;/b&gt;&lt;br&gt;DUF1156 domain-containing protein&lt;br&gt;Location: 169495 - 166766" locus_tag="ACG83_RS43410" class="clusterblast-orf" id="dummy-1_h1_7_0"  />
</g>
<g id="a1_001"  >
<polygon points="92,85 97,80 203,80 203,90 97,90 92,85 " style="fill:white; stroke-width:1; stroke:black; " description="&lt;b&gt;ACG83_RS39400&lt;/b&gt;&lt;br&gt;hypothetical protein&lt;br&gt;Location: 166756 - 163301" locus_tag="ACG83_RS39400" class="clusterblast-orf" id="dummy-1_h1_7_1"  />
</g>
<g id="a1_002"  >
<polygon points="226,85 231,80 237,80 237,90 231,90 226,85 " style="fill:white; stroke-width:1; stroke:black; " description="&lt;b&gt;ACG83_RS39395&lt;/b&gt;&lt;br&gt;transposase&lt;br&gt;Location: 162589 - 162232" locus_tag="ACG83_RS39395" class="clusterblast-orf" id="dummy-1_h1_7_2"  />
</g>
<g id="a1_003"  >
<polygon points="249,90 283,90 288,85 283,80 249,80 249,90 " style="fill:#9715d8; stroke-width:1; stroke:black; " description="&lt;b&gt;ACG83_RS39390&lt;/b&gt;&lt;br&gt;methyltransferase, FxLD system&lt;br&gt;Location: 161879 - 160632&lt;br&gt;&lt;br&gt;&lt;b&gt;BlastP hit with ctg23_27&lt;/b&gt;&lt;br&gt;Percentage identity: 70&lt;br&gt;Percentage coverage: 96&lt;br&gt;BLAST bit score: 573&lt;br&gt;E-value: 1.7e-161" locus_tag="ACG83_RS39390" class="clusterblast-orf" id="dummy-1_h1_7_3"  />
</g>
<g id="a1_004"  >
<polygon points="291,90 292,90 297,85 292,80 291,80 291,90 " style="fill:#d89715; stroke-width:1; stroke:black; " description="&lt;b&gt;ACG83_RS39385&lt;/b&gt;&lt;br&gt;FxLD family lantipeptide&lt;br&gt;Location: 160567 - 160376&lt;br&gt;&lt;br&gt;&lt;b&gt;BlastP hit with ctg23_28&lt;/b&gt;&lt;br&gt;Percentage identity: 66&lt;br&gt;Percentage coverage: 98&lt;br&gt;BLAST bit score: 79&lt;br&gt;E-value: 1.2e-13" locus_tag="ACG83_RS39385" class="clusterblast-orf" id="dummy-1_h1_7_4"  />
</g>
<g id="a1_005"  >
<polygon points="299,90 394,90 399,85 394,80 299,80 299,90 " style="fill:#15d897; stroke-width:1; stroke:black; " description="&lt;b&gt;ACG83_RS39380&lt;/b&gt;&lt;br&gt;lantibiotic dehydratase&lt;br&gt;Location: 160297 - 157190&lt;br&gt;&lt;br&gt;&lt;b&gt;BlastP hit with ctg23_29&lt;/b&gt;&lt;br&gt;Percentage identity: 67&lt;br&gt;Percentage coverage: 100&lt;br&gt;BLAST bit score: 1298&lt;br&gt;E-value: 0.0" locus_tag="ACG83_RS39380" class="clusterblast-orf" id="dummy-1_h1_7_5"  />
</g>
<g id="a1_006"  >
<polygon points="399,90 432,90 437,85 432,80 399,80 399,90 " style="fill:#1515d8; stroke-width:1; stroke:black; " description="&lt;b&gt;ACG83_RS39375&lt;/b&gt;&lt;br&gt;lanthionine synthetase&lt;br&gt;Location: 157193 - 155997&lt;br&gt;&lt;br&gt;&lt;b&gt;BlastP hit with ctg23_30&lt;/b&gt;&lt;br&gt;Percentage identity: 66&lt;br&gt;Percentage coverage: 99&lt;br&gt;BLAST bit score: 509&lt;br&gt;E-value: 3.6e-142" locus_tag="ACG83_RS39375" class="clusterblast-orf" id="dummy-1_h1_7_6"  />
</g>
<g id="a1_007"  >
<polygon points="436,90 462,90 467,85 462,80 436,80 436,90 " style="fill:#d81597; stroke-width:1; stroke:black; " description="&lt;b&gt;ACG83_RS39370&lt;/b&gt;&lt;br&gt;hypothetical protein&lt;br&gt;Location: 156015 - 155047&lt;br&gt;&lt;br&gt;&lt;b&gt;BlastP hit with ctg23_31&lt;/b&gt;&lt;br&gt;Percentage identity: 64&lt;br&gt;Percentage coverage: 100&lt;br&gt;BLAST bit score: 387&lt;br&gt;E-value: 1.3e-105" locus_tag="ACG83_RS39370" class="clusterblast-orf" id="dummy-1_h1_7_7"  />
</g>
<g id="a1_008"  >
<polygon points="467,90 498,90 503,85 498,80 467,80 467,90 " style="fill:#97d815; stroke-width:1; stroke:black; " description="&lt;b&gt;ACG83_RS39365&lt;/b&gt;&lt;br&gt;hypothetical protein&lt;br&gt;Location: 155044 - 153926&lt;br&gt;&lt;br&gt;&lt;b&gt;BlastP hit with ctg23_32&lt;/b&gt;&lt;br&gt;Percentage identity: 61&lt;br&gt;Percentage coverage: 93&lt;br&gt;BLAST bit score: 416&lt;br&gt;E-value: 2.4e-114" locus_tag="ACG83_RS39365" class="clusterblast-orf" id="dummy-1_h1_7_8"  />
</g>
<g id="a1_009"  >
<polygon points="503,85 508,80 528,80 528,90 508,90 503,85 " style="fill:white; stroke-width:1; stroke:black; " description="&lt;b&gt;ACG83_RS39360&lt;/b&gt;&lt;br&gt;3-oxoacyl-ACP reductase&lt;br&gt;Location: 153919 - 153140" locus_tag="ACG83_RS39360" class="clusterblast-orf" id="dummy-1_h1_7_9"  />
</g>
<g id="a1_0010"  >
<polygon points="528,85 533,80 581,80 581,90 533,90 528,85 " style="fill:white; stroke-width:1; stroke:black; " description="&lt;b&gt;ACG83_RS39355&lt;/b&gt;&lt;br&gt;hypothetical protein&lt;br&gt;Location: 153140 - 151491" locus_tag="ACG83_RS39355" class="clusterblast-orf" id="dummy-1_h1_7_10"  />
</g>
<g id="a1_0011"  >
<polygon points="586,85 591,80 593,80 593,90 591,90 586,85 " style="fill:white; stroke-width:1; stroke:black; " description="&lt;b&gt;ACG83_RS39350&lt;/b&gt;&lt;br&gt;hypothetical protein&lt;br&gt;Location: 151353 - 151138" locus_tag="ACG83_RS39350" class="clusterblast-orf" id="dummy-1_h1_7_11"  />
</g>
<g id="a1_0012"  >
<polygon points="594,90 596,90 601,85 596,80 594,80 594,90 " style="fill:white; stroke-width:1; stroke:black; " description="&lt;b&gt;ACG83_RS39345&lt;/b&gt;&lt;br&gt;hypothetical protein&lt;br&gt;Location: 151097 - 150876" locus_tag="ACG83_RS39345" class="clusterblast-orf" id="dummy-1_h1_7_12"  />
</g>
<g id="a1_0013"  >
<polygon points="601,85 606,80 607,80 607,90 606,90 601,85 " style="fill:white; stroke-width:1; stroke:black; " description="&lt;b&gt;ACG83_RS39340&lt;/b&gt;&lt;br&gt;hypothetical protein&lt;br&gt;Location: 150879 - 150700" locus_tag="ACG83_RS39340" class="clusterblast-orf" id="dummy-1_h1_7_13"  />
</g>
<g id="a1_0014"  >
<polygon points="627,85 632,80 635,80 635,90 632,90 627,85 " style="fill:white; stroke-width:1; stroke:black; " description="&lt;b&gt;ACG83_RS39335&lt;/b&gt;&lt;br&gt;hypothetical protein&lt;br&gt;Location: 150047 - 149808" locus_tag="ACG83_RS39335" class="clusterblast-orf" id="dummy-1_h1_7_14"  />
</g>
<g id="a1_0015"  >
<polygon points="639,90 645,90 650,85 645,80 639,80 639,90 " style="fill:white; stroke-width:1; stroke:black; " description="&lt;b&gt;ACG83_RS39330&lt;/b&gt;&lt;br&gt;hypothetical protein&lt;br&gt;Location: 149701 - 149348" locus_tag="ACG83_RS39330" class="clusterblast-orf" id="dummy-1_h1_7_15"  />
</g>
<g id="a1_0016"  >
<polygon points="650,85 655,80 683,80 683,90 655,90 650,85 " style="fill:white; stroke-width:1; stroke:black; " description="&lt;b&gt;ACG83_RS39325&lt;/b&gt;&lt;br&gt;ATPase&lt;br&gt;Location: 149338 - 148319" locus_tag="ACG83_RS39325" class="clusterblast-orf" id="dummy-1_h1_7_16"  />
</g>
<g id="a1_0017"  >
<polygon points="684,85 689,80 706,80 706,90 689,90 684,85 " style="fill:white; stroke-width:1; stroke:black; " description="&lt;b&gt;ACG83_RS39320&lt;/b&gt;&lt;br&gt;hypothetical protein&lt;br&gt;Location: 148295 - 147603" locus_tag="ACG83_RS39320" class="clusterblast-orf" id="dummy-1_h1_7_17"  />
</g>
<g id="a1_0018"  >
<polygon points="724,85 729,80 731,80 731,90 729,90 724,85 " style="fill:white; stroke-width:1; stroke:black; " description="&lt;b&gt;ACG83_RS39315&lt;/b&gt;&lt;br&gt;DUF397 domain-containing protein&lt;br&gt;Location: 147034 - 146822" locus_tag="ACG83_RS39315" class="clusterblast-orf" id="dummy-1_h1_7_18"  />
</g>
<g id="a1_0019"  >
<polygon points="731,85 736,80 758,80 758,90 736,90 731,85 " style="fill:white; stroke-width:1; stroke:black; " description="&lt;b&gt;ACG83_RS39310&lt;/b&gt;&lt;br&gt;XRE family transcriptional regulator&lt;br&gt;Location: 146825 - 145956" locus_tag="ACG83_RS39310" class="clusterblast-orf" id="dummy-1_h1_7_19"  />
</g>
<g id="a1_0020"  >
<polygon points="765,90 769,90 774,85 769,80 765,80 765,90 " style="fill:white; stroke-width:1; stroke:black; " description="&lt;b&gt;ACG83_RS39305&lt;/b&gt;&lt;br&gt;hypothetical protein&lt;br&gt;Location: 145753 - 145460" locus_tag="ACG83_RS39305" class="clusterblast-orf" id="dummy-1_h1_7_20"  />
</g>
</svg>
