<svg xmlns="http://www.w3.org/2000/svg" xmlns:xlink="http://www.w3.org/1999/xlink" version="1.1" x="0" y="0" height="230" width="800" viewBox="0 0 800 230" preserveAspectRatio="none"  >
<g label="Query sequence" class="clusterblast-cluster"  >
<text x="5" y="20" class="clusterblast-acc"  >
Query sequence</text>
<line x1="10" y1="35" x2="778.0" y2="35" style="stroke-width:1; stroke:grey; "  />
<polygon points="0,40 43,40 48,35 43,30 0,30 0,40 " style="fill:#d81515; stroke-width:1; stroke:black; " description="&lt;b&gt;ctg1_19&lt;/b&gt;&lt;br&gt;ctg1 19&lt;br&gt;Location: 23995 - 25576" locus_tag="ctg1_19" class="clusterblast-orf" id="dummy-1_q0_0_all"  />
<polygon points="49,40 72,40 77,35 72,30 49,30 49,40 " style="fill:#4dd815; stroke-width:1; stroke:black; " description="&lt;b&gt;ctg1_20&lt;/b&gt;&lt;br&gt;ctg1 20&lt;br&gt;Location: 25600 - 26527" locus_tag="ctg1_20" class="clusterblast-orf" id="dummy-1_q1_0_all"  />
<polygon points="77,40 96,40 101,35 96,30 77,30 77,40 " style="fill:#15bcd8; stroke-width:1; stroke:black; " description="&lt;b&gt;ctg1_21&lt;/b&gt;&lt;br&gt;ctg1 21&lt;br&gt;Location: 26523 - 27318" locus_tag="ctg1_21" class="clusterblast-orf" id="dummy-1_q2_0_all"  />
<polygon points="102,40 127,40 132,35 127,30 102,30 102,40 " style="fill:#8515d8; stroke-width:1; stroke:black; " description="&lt;b&gt;ctg1_22&lt;/b&gt;&lt;br&gt;ctg1 22&lt;br&gt;Location: 27333 - 28311" locus_tag="ctg1_22" class="clusterblast-orf" id="dummy-1_q3_0_all"  />
<polygon points="135,40 158,40 163,35 158,30 135,30 135,40 " style="fill:#d84d15; stroke-width:1; stroke:black; " description="&lt;b&gt;ctg1_23&lt;/b&gt;&lt;br&gt;ctg1 23&lt;br&gt;Location: 28407 - 29325" locus_tag="ctg1_23" class="clusterblast-orf" id="dummy-1_q4_0_all"  />
<polygon points="163,35 168,30 172,30 172,40 168,40 163,35 " style="fill:#15d815; stroke-width:1; stroke:black; " description="&lt;b&gt;ctg1_24&lt;/b&gt;&lt;br&gt;ctg1 24&lt;br&gt;Location: 29328 - 29634" locus_tag="ctg1_24" class="clusterblast-orf" id="dummy-1_q5_0_all"  />
<polygon points="174,40 199,40 204,35 199,30 174,30 174,40 " style="fill:#1585d8; stroke-width:1; stroke:black; " description="&lt;b&gt;ctg1_25&lt;/b&gt;&lt;br&gt;ctg1 25&lt;br&gt;Location: 29712 - 30684" locus_tag="ctg1_25" class="clusterblast-orf" id="dummy-1_q6_0_all"  />
<polygon points="215,35 220,30 246,30 246,40 220,40 215,35 " style="fill:#bc15d8; stroke-width:1; stroke:black; " description="&lt;b&gt;ctg1_26&lt;/b&gt;&lt;br&gt;ctg1 26&lt;br&gt;Location: 31053 - 32058" locus_tag="ctg1_26" class="clusterblast-orf" id="dummy-1_q7_0_all"  />
<polygon points="246,35 251,30 291,30 291,40 251,40 246,35 " style="fill:#d88515; stroke-width:1; stroke:black; " description="&lt;b&gt;ctg1_27&lt;/b&gt;&lt;br&gt;ctg1 27&lt;br&gt;Location: 32061 - 33534" locus_tag="ctg1_27" class="clusterblast-orf" id="dummy-1_q8_0_all"  />
<polygon points="291,35 296,30 349,30 349,40 296,40 291,35 " style="fill:#15d84d; stroke-width:1; stroke:black; " description="&lt;b&gt;ctg1_28&lt;/b&gt;&lt;br&gt;ctg1 28&lt;br&gt;Location: 33530 - 35432" locus_tag="ctg1_28" class="clusterblast-orf" id="dummy-1_q9_0_all"  />
<polygon points="349,35 354,30 380,30 380,40 354,40 349,35 " style="fill:#154dd8; stroke-width:1; stroke:black; " description="&lt;b&gt;ctg1_29&lt;/b&gt;&lt;br&gt;ctg1 29&lt;br&gt;Location: 35432 - 36443" locus_tag="ctg1_29" class="clusterblast-orf" id="dummy-1_q10_0_all"  />
<polygon points="380,35 385,30 421,30 421,40 385,40 380,35 " style="fill:#d815bc; stroke-width:1; stroke:black; " description="&lt;b&gt;ctg1_30&lt;/b&gt;&lt;br&gt;ctg1 30&lt;br&gt;Location: 36439 - 37795" locus_tag="ctg1_30" class="clusterblast-orf" id="dummy-1_q11_0_all"  />
<polygon points="421,35 426,30 448,30 448,40 426,40 421,35 " style="fill:#d8bc15; stroke-width:1; stroke:black; " description="&lt;b&gt;ctg1_31&lt;/b&gt;&lt;br&gt;ctg1 31&lt;br&gt;Location: 37791 - 38652" locus_tag="ctg1_31" class="clusterblast-orf" id="dummy-1_q12_0_all"  />
<polygon points="448,35 453,30 475,30 475,40 453,40 448,35 " style="fill:#d8bc15; stroke-width:1; stroke:black; " description="&lt;b&gt;ctg1_32&lt;/b&gt;&lt;br&gt;ctg1 32&lt;br&gt;Location: 38648 - 39551" locus_tag="ctg1_32" class="clusterblast-orf" id="dummy-1_q13_0_all"  />
<polygon points="479,40 511,40 516,35 511,30 479,30 479,40 " style="fill:#15d885; stroke-width:1; stroke:black; " description="&lt;b&gt;ctg1_33&lt;/b&gt;&lt;br&gt;ctg1 33&lt;br&gt;Location: 39687 - 40905" locus_tag="ctg1_33" class="clusterblast-orf" id="dummy-1_q14_0_all"  />
<polygon points="517,35 522,30 577,30 577,40 522,40 517,35 " style="fill:#1515d8; stroke-width:1; stroke:black; " description="&lt;b&gt;ctg1_34&lt;/b&gt;&lt;br&gt;ctg1 34&lt;br&gt;Location: 40911 - 42870" locus_tag="ctg1_34" class="clusterblast-orf" id="dummy-1_q15_0_all"  />
<polygon points="580,35 585,30 601,30 601,40 585,40 580,35 " style="fill:#d81585; stroke-width:1; stroke:black; " description="&lt;b&gt;ctg1_35&lt;/b&gt;&lt;br&gt;ctg1 35&lt;br&gt;Location: 42978 - 43665" locus_tag="ctg1_35" class="clusterblast-orf" id="dummy-1_q16_0_all"  />
<polygon points="604,35 609,30 634,30 634,40 609,40 604,35 " style="fill:#bcd815; stroke-width:1; stroke:black; " description="&lt;b&gt;ctg1_36&lt;/b&gt;&lt;br&gt;ctg1 36&lt;br&gt;Location: 43777 - 44755" locus_tag="ctg1_36" class="clusterblast-orf" id="dummy-1_q17_0_all"  />
<polygon points="635,35 640,30 659,30 659,40 640,40 635,35 " style="fill:#15d8bc; stroke-width:1; stroke:black; " description="&lt;b&gt;ctg1_37&lt;/b&gt;&lt;br&gt;ctg1 37&lt;br&gt;Location: 44797 - 45559" locus_tag="ctg1_37" class="clusterblast-orf" id="dummy-1_q18_0_all"  />
<polygon points="659,35 664,30 677,30 677,40 664,40 659,35 " style="fill:#4d15d8; stroke-width:1; stroke:black; " description="&lt;b&gt;ctg1_38&lt;/b&gt;&lt;br&gt;ctg1 38&lt;br&gt;Location: 45571 - 46159" locus_tag="ctg1_38" class="clusterblast-orf" id="dummy-1_q19_0_all"  />
<polygon points="678,35 683,30 745,30 745,40 683,40 678,35 " style="fill:#d8154d; stroke-width:1; stroke:black; " description="&lt;b&gt;ctg1_39&lt;/b&gt;&lt;br&gt;ctg1 39&lt;br&gt;Location: 46189 - 48394" locus_tag="ctg1_39" class="clusterblast-orf" id="dummy-1_q20_0_all"  />
<polygon points="750,35 755,30 780,30 780,40 755,40 750,35 " style="fill:#85d815; stroke-width:1; stroke:black; " description="&lt;b&gt;ctg1_40&lt;/b&gt;&lt;br&gt;ctg1 40&lt;br&gt;Location: 48545 - 49523" locus_tag="ctg1_40" class="clusterblast-orf" id="dummy-1_q21_0_all"  />
</g>
<g label="NZ_KI421511" description="NZ_KI421511_c1: Amycolatopsis thermoflava N1165 AmythDRAFT Scaffold1.2, whole... (70% of genes show similarity), terpene" class="clusterblast-cluster"  >
<text x="5" y="70" class="clusterblast-acc"  >
<a xlink:href="https://antismash-db.secondarymetabolites.org/go/NZ_KI421511/1" target="_blank">NZ_KI421511_c1</a>: Amycolatopsis thermoflava N1165 AmythDRAFT Scaffold1.2, whole... (70% of genes show similarity), terpene</text>
<line x1="10" y1="85" x2="778.0" y2="85" style="stroke-width:1; stroke:grey; "  />
</g>
<g id="a1_000"  >
<polygon points="23,90 47,90 52,85 47,80 23,80 23,90 " style="fill:#8515d8; stroke-width:1; stroke:black; " description="&lt;b&gt;AMYTH_RS0101215&lt;/b&gt;&lt;br&gt;heme A synthase&lt;br&gt;Location: 239838 - 238876&lt;br&gt;&lt;br&gt;&lt;b&gt;BlastP hit with ctg1_22&lt;/b&gt;&lt;br&gt;Percentage identity: 90&lt;br&gt;Percentage coverage: 98&lt;br&gt;BLAST bit score: 565&lt;br&gt;E-value: 3.6e-159" locus_tag="AMYTH_RS0101215" class="clusterblast-orf" id="dummy-1_h1_4_0"  />
</g>
<g id="a1_001"  >
<polygon points="56,90 79,90 84,85 79,80 56,80 56,90 " style="fill:#d84d15; stroke-width:1; stroke:black; " description="&lt;b&gt;AMYTH_RS0101210&lt;/b&gt;&lt;br&gt;acyl-CoA desaturase&lt;br&gt;Location: 238764 - 237850&lt;br&gt;&lt;br&gt;&lt;b&gt;BlastP hit with ctg1_23&lt;/b&gt;&lt;br&gt;Percentage identity: 99&lt;br&gt;Percentage coverage: 100&lt;br&gt;BLAST bit score: 635&lt;br&gt;E-value: 2.6e-180" locus_tag="AMYTH_RS0101210" class="clusterblast-orf" id="dummy-1_h1_4_1"  />
</g>
<g id="a1_002"  >
<polygon points="84,85 89,80 93,80 93,90 89,90 84,85 " style="fill:#15d815; stroke-width:1; stroke:black; " description="&lt;b&gt;AMYTH_RS0101205&lt;/b&gt;&lt;br&gt;hypothetical protein&lt;br&gt;Location: 237846 - 237541&lt;br&gt;&lt;br&gt;&lt;b&gt;BlastP hit with ctg1_24&lt;/b&gt;&lt;br&gt;Percentage identity: 89&lt;br&gt;Percentage coverage: 100&lt;br&gt;BLAST bit score: 184&lt;br&gt;E-value: 7e-45" locus_tag="AMYTH_RS0101205" class="clusterblast-orf" id="dummy-1_h1_4_2"  />
</g>
<g id="a1_003"  >
<polygon points="95,90 120,90 125,85 120,80 95,80 95,90 " style="fill:#1585d8; stroke-width:1; stroke:black; " description="&lt;b&gt;AMYTH_RS0101200&lt;/b&gt;&lt;br&gt;quinone oxidoreductase&lt;br&gt;Location: 237462 - 236491&lt;br&gt;&lt;br&gt;&lt;b&gt;BlastP hit with ctg1_25&lt;/b&gt;&lt;br&gt;Percentage identity: 95&lt;br&gt;Percentage coverage: 100&lt;br&gt;BLAST bit score: 592&lt;br&gt;E-value: 2.7e-167" locus_tag="AMYTH_RS0101200" class="clusterblast-orf" id="dummy-1_h1_4_3"  />
</g>
<g id="a1_004"  >
<polygon points="125,85 130,80 164,80 164,90 130,90 125,85 " style="fill:white; stroke-width:1; stroke:black; " description="&lt;b&gt;AMYTH_RS0101195&lt;/b&gt;&lt;br&gt;MFS transporter&lt;br&gt;Location: 236489 - 235233" locus_tag="AMYTH_RS0101195" class="clusterblast-orf" id="dummy-1_h1_4_4"  />
</g>
<g id="a1_005"  >
<polygon points="162,85 167,80 204,80 204,90 167,90 162,85 " style="fill:white; stroke-width:1; stroke:black; " description="&lt;b&gt;AMYTH_RS0101190&lt;/b&gt;&lt;br&gt;MBL fold metallo-hydrolase&lt;br&gt;Location: 235275 - 233920" locus_tag="AMYTH_RS0101190" class="clusterblast-orf" id="dummy-1_h1_4_5"  />
</g>
<g id="a1_006"  >
<polygon points="204,85 209,80 211,80 211,90 209,90 204,85 " style="fill:white; stroke-width:1; stroke:black; " description="&lt;b&gt;AMYTH_RS0101185&lt;/b&gt;&lt;br&gt;hypothetical protein&lt;br&gt;Location: 233913 - 233695" locus_tag="AMYTH_RS0101185" class="clusterblast-orf" id="dummy-1_h1_4_6"  />
</g>
<g id="a1_007"  >
<polygon points="213,90 228,90 233,85 228,80 213,80 213,90 " style="fill:white; stroke-width:1; stroke:black; " description="&lt;b&gt;AMYTH_RS0101180&lt;/b&gt;&lt;br&gt;ArsR family transcriptional regulator&lt;br&gt;Location: 233604 - 232957" locus_tag="AMYTH_RS0101180" class="clusterblast-orf" id="dummy-1_h1_4_7"  />
</g>
<g id="a1_008"  >
<polygon points="235,90 242,90 247,85 242,80 235,80 235,90 " style="fill:white; stroke-width:1; stroke:black; " description="&lt;b&gt;AMYTH_RS0101175&lt;/b&gt;&lt;br&gt;hypothetical protein&lt;br&gt;Location: 232907 - 232506" locus_tag="AMYTH_RS0101175" class="clusterblast-orf" id="dummy-1_h1_4_8"  />
</g>
<g id="a1_009"  >
<polygon points="248,85 253,80 279,80 279,90 253,90 248,85 " style="fill:#bc15d8; stroke-width:1; stroke:black; " description="&lt;b&gt;AMYTH_RS0101170&lt;/b&gt;&lt;br&gt;hopanoid biosynthesis associated radical SAM protein HpnH&lt;br&gt;Location: 232470 - 231466&lt;br&gt;&lt;br&gt;&lt;b&gt;BlastP hit with ctg1_26&lt;/b&gt;&lt;br&gt;Percentage identity: 96&lt;br&gt;Percentage coverage: 100&lt;br&gt;BLAST bit score: 673&lt;br&gt;E-value: 1.6e-191" locus_tag="AMYTH_RS0101170" class="clusterblast-orf" id="dummy-1_h1_4_9"  />
</g>
<g id="a1_0010"  >
<polygon points="279,85 284,80 324,80 324,90 284,90 279,85 " style="fill:#d88515; stroke-width:1; stroke:black; " description="&lt;b&gt;AMYTH_RS0101165&lt;/b&gt;&lt;br&gt;4-hydroxy-3-methylbut-2-enyl diphosphate reductase&lt;br&gt;Location: 231462 - 229990&lt;br&gt;&lt;br&gt;&lt;b&gt;BlastP hit with ctg1_27&lt;/b&gt;&lt;br&gt;Percentage identity: 89&lt;br&gt;Percentage coverage: 100&lt;br&gt;BLAST bit score: 826&lt;br&gt;E-value: 1.7e-237" locus_tag="AMYTH_RS0101165" class="clusterblast-orf" id="dummy-1_h1_4_10"  />
</g>
<g id="a1_0011"  >
<polygon points="324,85 329,80 382,80 382,90 329,90 324,85 " style="fill:#15d84d; stroke-width:1; stroke:black; " description="&lt;b&gt;AMYTH_RS0101160&lt;/b&gt;&lt;br&gt;squalene--hopene cyclase&lt;br&gt;Location: 229993 - 228092&lt;br&gt;&lt;br&gt;&lt;b&gt;BlastP hit with ctg1_28&lt;/b&gt;&lt;br&gt;Percentage identity: 91&lt;br&gt;Percentage coverage: 100&lt;br&gt;BLAST bit score: 1178&lt;br&gt;E-value: 0.0" locus_tag="AMYTH_RS0101160" class="clusterblast-orf" id="dummy-1_h1_4_11"  />
</g>
<g id="a1_0012"  >
<polygon points="382,85 387,80 413,80 413,90 387,90 382,85 " style="fill:#154dd8; stroke-width:1; stroke:black; " description="&lt;b&gt;AMYTH_RS0101155&lt;/b&gt;&lt;br&gt;polyprenyl synthetase family protein&lt;br&gt;Location: 228091 - 227081&lt;br&gt;&lt;br&gt;&lt;b&gt;BlastP hit with ctg1_29&lt;/b&gt;&lt;br&gt;Percentage identity: 95&lt;br&gt;Percentage coverage: 100&lt;br&gt;BLAST bit score: 606&lt;br&gt;E-value: 1.9e-171" locus_tag="AMYTH_RS0101155" class="clusterblast-orf" id="dummy-1_h1_4_12"  />
</g>
<g id="a1_0013"  >
<polygon points="413,85 418,80 454,80 454,90 418,90 413,85 " style="fill:#d815bc; stroke-width:1; stroke:black; " description="&lt;b&gt;AMYTH_RS0101150&lt;/b&gt;&lt;br&gt;phytoene dehydrogenase&lt;br&gt;Location: 227084 - 225729&lt;br&gt;&lt;br&gt;&lt;b&gt;BlastP hit with ctg1_30&lt;/b&gt;&lt;br&gt;Percentage identity: 87&lt;br&gt;Percentage coverage: 97&lt;br&gt;BLAST bit score: 743&lt;br&gt;E-value: 1e-212" locus_tag="AMYTH_RS0101150" class="clusterblast-orf" id="dummy-1_h1_4_13"  />
</g>
<g id="a1_0014"  >
<polygon points="454,85 459,80 480,80 480,90 459,90 454,85 " style="fill:#d8bc15; stroke-width:1; stroke:black; " description="&lt;b&gt;AMYTH_RS0101145&lt;/b&gt;&lt;br&gt;squalene synthase HpnD&lt;br&gt;Location: 225732 - 224878&lt;br&gt;&lt;br&gt;&lt;b&gt;BlastP hit with ctg1_31&lt;/b&gt;&lt;br&gt;Percentage identity: 92&lt;br&gt;Percentage coverage: 99&lt;br&gt;BLAST bit score: 535&lt;br&gt;E-value: 2.7e-150&lt;br&gt;&lt;br&gt;&lt;b&gt;BlastP hit with ctg1_32&lt;/b&gt;&lt;br&gt;Percentage identity: 35&lt;br&gt;Percentage coverage: 77&lt;br&gt;BLAST bit score: 97&lt;br&gt;E-value: 3.3e-18" locus_tag="AMYTH_RS0101145" class="clusterblast-orf" id="dummy-1_h1_4_14"  />
</g>
<g id="a1_0015"  >
<polygon points="480,85 485,80 507,80 507,90 485,90 480,85 " style="fill:#d8bc15; stroke-width:1; stroke:black; " description="&lt;b&gt;AMYTH_RS47520&lt;/b&gt;&lt;br&gt;squalene synthase HpnC&lt;br&gt;Location: 224881 - 223985&lt;br&gt;&lt;br&gt;&lt;b&gt;BlastP hit with ctg1_31&lt;/b&gt;&lt;br&gt;Percentage identity: 33&lt;br&gt;Percentage coverage: 81&lt;br&gt;BLAST bit score: 103&lt;br&gt;E-value: 4.4e-20&lt;br&gt;&lt;br&gt;&lt;b&gt;BlastP hit with ctg1_32&lt;/b&gt;&lt;br&gt;Percentage identity: 87&lt;br&gt;Percentage coverage: 99&lt;br&gt;BLAST bit score: 502&lt;br&gt;E-value: 3.4e-140" locus_tag="AMYTH_RS47520" class="clusterblast-orf" id="dummy-1_h1_4_15"  />
</g>
<g id="a1_0016"  >
<polygon points="511,90 544,90 549,85 544,80 511,80 511,90 " style="fill:#15d885; stroke-width:1; stroke:black; " description="&lt;b&gt;AMYTH_RS0101135&lt;/b&gt;&lt;br&gt;PucR family transcriptional regulator&lt;br&gt;Location: 223863 - 222631&lt;br&gt;&lt;br&gt;&lt;b&gt;BlastP hit with ctg1_33&lt;/b&gt;&lt;br&gt;Percentage identity: 93&lt;br&gt;Percentage coverage: 100&lt;br&gt;BLAST bit score: 735&lt;br&gt;E-value: 4.2e-210" locus_tag="AMYTH_RS0101135" class="clusterblast-orf" id="dummy-1_h1_4_16"  />
</g>
<g id="a1_0017"  >
<polygon points="549,85 554,80 610,80 610,90 554,90 549,85 " style="fill:#1515d8; stroke-width:1; stroke:black; " description="&lt;b&gt;AMYTH_RS46830&lt;/b&gt;&lt;br&gt;DUF1298 domain-containing protein&lt;br&gt;Location: 222629 - 220635&lt;br&gt;&lt;br&gt;&lt;b&gt;BlastP hit with ctg1_34&lt;/b&gt;&lt;br&gt;Percentage identity: 90&lt;br&gt;Percentage coverage: 100&lt;br&gt;BLAST bit score: 1199&lt;br&gt;E-value: 0.0" locus_tag="AMYTH_RS46830" class="clusterblast-orf" id="dummy-1_h1_4_17"  />
</g>
<g id="a1_0018"  >
<polygon points="611,85 616,80 629,80 629,90 616,90 611,85 " style="fill:white; stroke-width:1; stroke:black; " description="&lt;b&gt;AMYTH_RS0101125&lt;/b&gt;&lt;br&gt;riboflavin biosynthesis protein&lt;br&gt;Location: 220592 - 219999" locus_tag="AMYTH_RS0101125" class="clusterblast-orf" id="dummy-1_h1_4_18"  />
</g>
<g id="a1_0019"  >
<polygon points="632,90 641,90 646,85 641,80 632,80 632,90 " style="fill:white; stroke-width:1; stroke:black; " description="&lt;b&gt;AMYTH_RS0101120&lt;/b&gt;&lt;br&gt;transcriptional regulator&lt;br&gt;Location: 219909 - 219457" locus_tag="AMYTH_RS0101120" class="clusterblast-orf" id="dummy-1_h1_4_19"  />
</g>
<g id="a1_0020"  >
<polygon points="650,85 655,80 671,80 671,90 655,90 650,85 " style="fill:#d81585; stroke-width:1; stroke:black; " description="&lt;b&gt;AMYTH_RS0101115&lt;/b&gt;&lt;br&gt;hypothetical protein&lt;br&gt;Location: 219296 - 218610&lt;br&gt;&lt;br&gt;&lt;b&gt;BlastP hit with ctg1_35&lt;/b&gt;&lt;br&gt;Percentage identity: 92&lt;br&gt;Percentage coverage: 100&lt;br&gt;BLAST bit score: 400&lt;br&gt;E-value: 1.1e-109" locus_tag="AMYTH_RS0101115" class="clusterblast-orf" id="dummy-1_h1_4_20"  />
</g>
<g id="a1_0021"  >
<polygon points="675,85 680,80 705,80 705,90 680,90 675,85 " style="fill:#bcd815; stroke-width:1; stroke:black; " description="&lt;b&gt;AMYTH_RS0101110&lt;/b&gt;&lt;br&gt;hypothetical protein&lt;br&gt;Location: 218499 - 217522&lt;br&gt;&lt;br&gt;&lt;b&gt;BlastP hit with ctg1_36&lt;/b&gt;&lt;br&gt;Percentage identity: 92&lt;br&gt;Percentage coverage: 100&lt;br&gt;BLAST bit score: 557&lt;br&gt;E-value: 1.3e-156" locus_tag="AMYTH_RS0101110" class="clusterblast-orf" id="dummy-1_h1_4_21"  />
</g>
<g id="a1_0022"  >
<polygon points="705,85 710,80 729,80 729,90 710,90 705,85 " style="fill:#15d8bc; stroke-width:1; stroke:black; " description="&lt;b&gt;AMYTH_RS0101105&lt;/b&gt;&lt;br&gt;NAD(P)-dependent oxidoreductase&lt;br&gt;Location: 217513 - 216719&lt;br&gt;&lt;br&gt;&lt;b&gt;BlastP hit with ctg1_37&lt;/b&gt;&lt;br&gt;Percentage identity: 88&lt;br&gt;Percentage coverage: 100&lt;br&gt;BLAST bit score: 416&lt;br&gt;E-value: 2.1e-114" locus_tag="AMYTH_RS0101105" class="clusterblast-orf" id="dummy-1_h1_4_22"  />
</g>
<g id="a1_0023"  >
<polygon points="738,85 743,80 756,80 756,90 743,90 738,85 " style="fill:#4d15d8; stroke-width:1; stroke:black; " description="&lt;b&gt;AMYTH_RS0101100&lt;/b&gt;&lt;br&gt;peptidylprolyl isomerase&lt;br&gt;Location: 216425 - 215838&lt;br&gt;&lt;br&gt;&lt;b&gt;BlastP hit with ctg1_38&lt;/b&gt;&lt;br&gt;Percentage identity: 83&lt;br&gt;Percentage coverage: 100&lt;br&gt;BLAST bit score: 318&lt;br&gt;E-value: 6e-85" locus_tag="AMYTH_RS0101100" class="clusterblast-orf" id="dummy-1_h1_4_23"  />
</g>
</svg>
