<svg xmlns="http://www.w3.org/2000/svg" xmlns:xlink="http://www.w3.org/1999/xlink" version="1.1" x="0" y="0" height="230" width="800" viewBox="0 0 800 230" preserveAspectRatio="none"  >
<g label="Query sequence" class="clusterblast-cluster"  >
<text x="5" y="20" class="clusterblast-acc"  >
Query sequence</text>
<line x1="10" y1="35" x2="778.0" y2="35" style="stroke-width:1; stroke:grey; "  />
<polygon points="203,40 239,40 244,35 239,30 203,30 203,40 " style="fill:white; stroke-width:1; stroke:black; " description="&lt;b&gt;ctg29_26&lt;/b&gt;&lt;br&gt;ctg29 26&lt;br&gt;Location: 27339 - 29730" locus_tag="ctg29_26" class="clusterblast-orf" id="dummy-1_q0_0_all"  />
<polygon points="248,40 270,40 275,35 270,30 248,30 248,40 " style="fill:white; stroke-width:1; stroke:black; " description="&lt;b&gt;ctg29_27&lt;/b&gt;&lt;br&gt;ctg29 27&lt;br&gt;Location: 29970 - 31569" locus_tag="ctg29_27" class="clusterblast-orf" id="dummy-1_q1_0_all"  />
<polygon points="277,40 329,40 334,35 329,30 277,30 277,40 " style="fill:white; stroke-width:1; stroke:black; " description="&lt;b&gt;ctg29_28&lt;/b&gt;&lt;br&gt;ctg29 28&lt;br&gt;Location: 31677 - 34989" locus_tag="ctg29_28" class="clusterblast-orf" id="dummy-1_q2_0_all"  />
<polygon points="337,40 350,40 355,35 350,30 337,30 337,40 " style="fill:#d81515; stroke-width:1; stroke:black; " description="&lt;b&gt;ctg29_29&lt;/b&gt;&lt;br&gt;ctg29 29&lt;br&gt;Location: 35155 - 36199" locus_tag="ctg29_29" class="clusterblast-orf" id="dummy-1_q3_0_all"  />
<polygon points="359,40 381,40 386,35 381,30 359,30 359,40 " style="fill:#77d815; stroke-width:1; stroke:black; " description="&lt;b&gt;ctg29_30&lt;/b&gt;&lt;br&gt;ctg29 30&lt;br&gt;Location: 36429 - 38031" locus_tag="ctg29_30" class="clusterblast-orf" id="dummy-1_q4_0_all"  />
<polygon points="387,40 415,40 420,35 415,30 387,30 387,40 " style="fill:#15d8d8; stroke-width:1; stroke:black; " description="&lt;b&gt;ctg29_31&lt;/b&gt;&lt;br&gt;ctg29 31&lt;br&gt;Location: 38084 - 40034" locus_tag="ctg29_31" class="clusterblast-orf" id="dummy-1_q5_0_all"  />
<polygon points="421,35 424,30 424,40 421,35 " style="fill:white; stroke-width:1; stroke:black; " description="&lt;b&gt;ctg29_32&lt;/b&gt;&lt;br&gt;ctg29 32&lt;br&gt;Location: 40065 - 40263" locus_tag="ctg29_32" class="clusterblast-orf" id="dummy-1_q6_0_all"  />
<polygon points="424,35 429,30 440,30 440,40 429,40 424,35 " style="fill:white; stroke-width:1; stroke:black; " description="&lt;b&gt;ctg29_33&lt;/b&gt;&lt;br&gt;ctg29 33&lt;br&gt;Location: 40272 - 41196" locus_tag="ctg29_33" class="clusterblast-orf" id="dummy-1_q7_0_all"  />
<polygon points="442,40 450,40 455,35 450,30 442,30 442,40 " style="fill:#7715d8; stroke-width:1; stroke:black; " description="&lt;b&gt;ctg29_34&lt;/b&gt;&lt;br&gt;ctg29 34&lt;br&gt;Location: 41311 - 42070" locus_tag="ctg29_34" class="clusterblast-orf" id="dummy-1_q8_0_all"  />
<polygon points="467,35 472,30 487,30 487,40 472,40 467,35 " style="fill:white; stroke-width:1; stroke:black; " description="&lt;b&gt;ctg29_35&lt;/b&gt;&lt;br&gt;ctg29 35&lt;br&gt;Location: 42739 - 43954" locus_tag="ctg29_35" class="clusterblast-orf" id="dummy-1_q9_0_all"  />
<polygon points="489,40 509,40 514,35 509,30 489,30 489,40 " style="fill:white; stroke-width:1; stroke:black; " description="&lt;b&gt;ctg29_36&lt;/b&gt;&lt;br&gt;ctg29 36&lt;br&gt;Location: 44044 - 45526" locus_tag="ctg29_36" class="clusterblast-orf" id="dummy-1_q10_0_all"  />
<polygon points="516,40 524,40 529,35 524,30 516,30 516,40 " style="fill:white; stroke-width:1; stroke:black; " description="&lt;b&gt;ctg29_37&lt;/b&gt;&lt;br&gt;ctg29 37&lt;br&gt;Location: 45646 - 46405" locus_tag="ctg29_37" class="clusterblast-orf" id="dummy-1_q11_0_all"  />
<polygon points="536,40 541,40 546,35 541,30 536,30 536,40 " style="fill:white; stroke-width:1; stroke:black; " description="&lt;b&gt;ctg29_38&lt;/b&gt;&lt;br&gt;ctg29 38&lt;br&gt;Location: 46813 - 47356" locus_tag="ctg29_38" class="clusterblast-orf" id="dummy-1_q12_0_all"  />
<polygon points="546,35 549,30 549,40 546,35 " style="fill:white; stroke-width:1; stroke:black; " description="&lt;b&gt;ctg29_39&lt;/b&gt;&lt;br&gt;ctg29 39&lt;br&gt;Location: 47366 - 47570" locus_tag="ctg29_39" class="clusterblast-orf" id="dummy-1_q13_0_all"  />
<polygon points="554,40 558,40 563,35 558,30 554,30 554,40 " style="fill:white; stroke-width:1; stroke:black; " description="&lt;b&gt;ctg29_40&lt;/b&gt;&lt;br&gt;ctg29 40&lt;br&gt;Location: 47837 - 48377" locus_tag="ctg29_40" class="clusterblast-orf" id="dummy-1_q14_0_all"  />
<polygon points="566,35 571,30 576,30 576,40 571,40 566,35 " style="fill:white; stroke-width:1; stroke:black; " description="&lt;b&gt;ctg29_41&lt;/b&gt;&lt;br&gt;ctg29 41&lt;br&gt;Location: 48524 - 49151" locus_tag="ctg29_41" class="clusterblast-orf" id="dummy-1_q15_0_all"  />
</g>
<g label="NZ_CP019798" description="NZ_CP019798_c8: Streptomyces sp. fd1-xmd chromosome, complete genome (7% of genes show similarity), nrps" class="clusterblast-cluster"  >
<text x="5" y="70" class="clusterblast-acc"  >
<a xlink:href="https://antismash-db.secondarymetabolites.org/go/NZ_CP019798/8" target="_blank">NZ_CP019798_c8</a>: Streptomyces sp. fd1-xmd chromosome, complete genome (7% of genes show similarity), nrps</text>
<line x1="10" y1="85" x2="778.0" y2="85" style="stroke-width:1; stroke:grey; "  />
</g>
<g id="a1_000"  >
<polygon points="0,90 17,90 22,85 17,80 0,80 0,90 " style="fill:white; stroke-width:1; stroke:black; " description="&lt;b&gt;B1K54_RS06230&lt;/b&gt;&lt;br&gt;adenosylmethionine--8-amino-7-oxononanoate transaminase&lt;br&gt;Location: 1402659 - 1403960" locus_tag="B1K54_RS06230" class="clusterblast-orf" id="dummy-1_h1_5_0"  />
</g>
<g id="a1_001"  >
<polygon points="29,90 58,90 63,85 58,80 29,80 29,90 " style="fill:white; stroke-width:1; stroke:black; " description="&lt;b&gt;B1K54_RS06235&lt;/b&gt;&lt;br&gt;hypothetical protein&lt;br&gt;Location: 1404382 - 1406382" locus_tag="B1K54_RS06235" class="clusterblast-orf" id="dummy-1_h1_5_1"  />
</g>
<g id="a1_002"  >
<polygon points="63,90 66,90 71,85 66,80 63,80 63,90 " style="fill:white; stroke-width:1; stroke:black; " description="&lt;b&gt;B1K54_RS06240&lt;/b&gt;&lt;br&gt;GNAT family N-acetyltransferase&lt;br&gt;Location: 1406379 - 1406867" locus_tag="B1K54_RS06240" class="clusterblast-orf" id="dummy-1_h1_5_2"  />
</g>
<g id="a1_003"  >
<polygon points="71,90 83,90 88,85 83,80 71,80 71,90 " style="fill:white; stroke-width:1; stroke:black; " description="&lt;b&gt;B1K54_RS06245&lt;/b&gt;&lt;br&gt;hypothetical protein&lt;br&gt;Location: 1406864 - 1407811" locus_tag="B1K54_RS06245" class="clusterblast-orf" id="dummy-1_h1_5_3"  />
</g>
<g id="a1_004"  >
<polygon points="88,90 88,90 93,85 88,80 88,80 88,90 " style="fill:white; stroke-width:1; stroke:black; " description="&lt;b&gt;B1K54_RS06250&lt;/b&gt;&lt;br&gt;hypothetical protein&lt;br&gt;Location: 1407808 - 1408128" locus_tag="B1K54_RS06250" class="clusterblast-orf" id="dummy-1_h1_5_4"  />
</g>
<g id="a1_005"  >
<polygon points="93,90 98,90 103,85 98,80 93,80 93,90 " style="fill:white; stroke-width:1; stroke:black; " description="&lt;b&gt;B1K54_RS06255&lt;/b&gt;&lt;br&gt;hypothetical protein&lt;br&gt;Location: 1408125 - 1408712" locus_tag="B1K54_RS06255" class="clusterblast-orf" id="dummy-1_h1_5_5"  />
</g>
<g id="a1_006"  >
<polygon points="103,90 118,90 123,85 118,80 103,80 103,90 " style="fill:#77d815; stroke-width:1; stroke:black; " description="&lt;b&gt;B1K54_RS06260&lt;/b&gt;&lt;br&gt;hypothetical protein&lt;br&gt;Location: 1408709 - 1409869&lt;br&gt;&lt;br&gt;&lt;b&gt;BlastP hit with ctg29_30&lt;/b&gt;&lt;br&gt;Percentage identity: 32&lt;br&gt;Percentage coverage: 64&lt;br&gt;BLAST bit score: 132&lt;br&gt;E-value: 1.3e-28" locus_tag="B1K54_RS06260" class="clusterblast-orf" id="dummy-1_h1_5_6"  />
</g>
<g id="a1_007"  >
<polygon points="123,90 131,90 136,85 131,80 123,80 123,90 " style="fill:white; stroke-width:1; stroke:black; " description="&lt;b&gt;B1K54_RS06265&lt;/b&gt;&lt;br&gt;class I SAM-dependent methyltransferase&lt;br&gt;Location: 1409866 - 1410642" locus_tag="B1K54_RS06265" class="clusterblast-orf" id="dummy-1_h1_5_7"  />
</g>
<g id="a1_008"  >
<polygon points="136,90 152,90 157,85 152,80 136,80 136,90 " style="fill:white; stroke-width:1; stroke:black; " description="&lt;b&gt;B1K54_RS06270&lt;/b&gt;&lt;br&gt;GNAT family N-acetyltransferase&lt;br&gt;Location: 1410632 - 1411879" locus_tag="B1K54_RS06270" class="clusterblast-orf" id="dummy-1_h1_5_8"  />
</g>
<g id="a1_009"  >
<polygon points="157,90 187,90 192,85 187,80 157,80 157,90 " style="fill:white; stroke-width:1; stroke:black; " description="&lt;b&gt;B1K54_RS06275&lt;/b&gt;&lt;br&gt;hypothetical protein&lt;br&gt;Location: 1411876 - 1413915" locus_tag="B1K54_RS06275" class="clusterblast-orf" id="dummy-1_h1_5_9"  />
</g>
<g id="a1_0010"  >
<polygon points="192,90 205,90 210,85 205,80 192,80 192,90 " style="fill:#d81515; stroke-width:1; stroke:black; " description="&lt;b&gt;B1K54_RS06280&lt;/b&gt;&lt;br&gt;isocitrate/isopropylmalate dehydrogenase family protein&lt;br&gt;Location: 1413912 - 1414979&lt;br&gt;&lt;br&gt;&lt;b&gt;BlastP hit with ctg29_29&lt;/b&gt;&lt;br&gt;Percentage identity: 41&lt;br&gt;Percentage coverage: 101&lt;br&gt;BLAST bit score: 226&lt;br&gt;E-value: 5.5e-57" locus_tag="B1K54_RS06280" class="clusterblast-orf" id="dummy-1_h1_5_10"  />
</g>
<g id="a1_0011"  >
<polygon points="210,90 221,90 226,85 221,80 210,80 210,90 " style="fill:white; stroke-width:1; stroke:black; " description="&lt;b&gt;B1K54_RS06285&lt;/b&gt;&lt;br&gt;hypothetical protein&lt;br&gt;Location: 1414985 - 1415893" locus_tag="B1K54_RS06285" class="clusterblast-orf" id="dummy-1_h1_5_11"  />
</g>
<g id="a1_0012"  >
<polygon points="226,90 244,90 249,85 244,80 226,80 226,90 " style="fill:white; stroke-width:1; stroke:black; " description="&lt;b&gt;B1K54_RS35680&lt;/b&gt;&lt;br&gt;hypothetical protein&lt;br&gt;Location: 1415875 - 1417248" locus_tag="B1K54_RS35680" class="clusterblast-orf" id="dummy-1_h1_5_12"  />
</g>
<g id="a1_0013"  >
<polygon points="250,90 266,90 271,85 266,80 250,80 250,90 " style="fill:white; stroke-width:1; stroke:black; " description="&lt;b&gt;B1K54_RS35685&lt;/b&gt;&lt;br&gt;MFS transporter&lt;br&gt;Location: 1417278 - 1418519" locus_tag="B1K54_RS35685" class="clusterblast-orf" id="dummy-1_h1_5_13"  />
</g>
<g id="a1_0014"  >
<polygon points="271,90 287,90 292,85 287,80 271,80 271,90 " style="fill:white; stroke-width:1; stroke:black; " description="&lt;b&gt;B1K54_RS06295&lt;/b&gt;&lt;br&gt;phospho-2-dehydro-3-deoxyheptonate aldolase&lt;br&gt;Location: 1418549 - 1419766" locus_tag="B1K54_RS06295" class="clusterblast-orf" id="dummy-1_h1_5_14"  />
</g>
<g id="a1_0015"  >
<polygon points="292,85 297,80 304,80 304,90 297,90 292,85 " style="fill:white; stroke-width:1; stroke:black; " description="&lt;b&gt;B1K54_RS06300&lt;/b&gt;&lt;br&gt;hypothetical protein&lt;br&gt;Location: 1419781 - 1420482" locus_tag="B1K54_RS06300" class="clusterblast-orf" id="dummy-1_h1_5_15"  />
</g>
<g id="a1_0016"  >
<polygon points="307,90 325,90 330,85 325,80 307,80 307,90 " style="fill:white; stroke-width:1; stroke:black; " description="&lt;b&gt;B1K54_RS06305&lt;/b&gt;&lt;br&gt;cytochrome P450&lt;br&gt;Location: 1420614 - 1421972" locus_tag="B1K54_RS06305" class="clusterblast-orf" id="dummy-1_h1_5_16"  />
</g>
<g id="a1_0017"  >
<polygon points="332,85 337,80 361,80 361,90 337,90 332,85 " style="fill:#15d8d8; stroke-width:1; stroke:black; " description="&lt;b&gt;B1K54_RS06310&lt;/b&gt;&lt;br&gt;hypothetical protein&lt;br&gt;Location: 1422105 - 1423814&lt;br&gt;&lt;br&gt;&lt;b&gt;BlastP hit with ctg29_31&lt;/b&gt;&lt;br&gt;Percentage identity: 40&lt;br&gt;Percentage coverage: 14&lt;br&gt;BLAST bit score: 64&lt;br&gt;E-value: 4e-08" locus_tag="B1K54_RS06310" class="clusterblast-orf" id="dummy-1_h1_5_17"  />
</g>
<g id="a1_0018"  >
<polygon points="361,85 366,80 442,80 442,90 366,90 361,85 " style="fill:white; stroke-width:1; stroke:black; " description="&lt;b&gt;B1K54_RS06315&lt;/b&gt;&lt;br&gt;amino acid adenylation domain-containing protein&lt;br&gt;Location: 1423811 - 1428523" locus_tag="B1K54_RS06315" class="clusterblast-orf" id="dummy-1_h1_5_18"  />
</g>
<g id="a1_0019"  >
<polygon points="442,85 447,80 459,80 459,90 447,90 442,85 " style="fill:white; stroke-width:1; stroke:black; " description="&lt;b&gt;B1K54_RS06320&lt;/b&gt;&lt;br&gt;KR domain-containing protein&lt;br&gt;Location: 1428549 - 1429490" locus_tag="B1K54_RS06320" class="clusterblast-orf" id="dummy-1_h1_5_19"  />
</g>
<g id="a1_0020"  >
<polygon points="457,85 462,80 477,80 477,90 462,90 457,85 " style="fill:white; stroke-width:1; stroke:black; " description="&lt;b&gt;B1K54_RS06325&lt;/b&gt;&lt;br&gt;MFS transporter&lt;br&gt;Location: 1429424 - 1430575" locus_tag="B1K54_RS06325" class="clusterblast-orf" id="dummy-1_h1_5_20"  />
</g>
<g id="a1_0021"  >
<polygon points="481,85 486,80 490,80 490,90 486,90 481,85 " style="fill:white; stroke-width:1; stroke:black; " description="&lt;b&gt;B1K54_RS06330&lt;/b&gt;&lt;br&gt;hypothetical protein&lt;br&gt;Location: 1430802 - 1431332" locus_tag="B1K54_RS06330" class="clusterblast-orf" id="dummy-1_h1_5_21"  />
</g>
<g id="a1_0022"  >
<polygon points="494,85 499,80 521,80 521,90 499,90 494,85 " style="fill:white; stroke-width:1; stroke:black; " description="&lt;b&gt;B1K54_RS06335&lt;/b&gt;&lt;br&gt;hypothetical protein&lt;br&gt;Location: 1431587 - 1433152" locus_tag="B1K54_RS06335" class="clusterblast-orf" id="dummy-1_h1_5_22"  />
</g>
<g id="a1_0023"  >
<polygon points="523,85 527,80 527,90 523,85 " style="fill:white; stroke-width:1; stroke:black; " description="&lt;b&gt;B1K54_RS06340&lt;/b&gt;&lt;br&gt;hypothetical protein&lt;br&gt;Location: 1433283 - 1433477" locus_tag="B1K54_RS06340" class="clusterblast-orf" id="dummy-1_h1_5_23"  />
</g>
<g id="a1_0024"  >
<polygon points="528,85 533,80 540,80 540,90 533,90 528,85 " style="fill:white; stroke-width:1; stroke:black; " description="&lt;b&gt;B1K54_RS06345&lt;/b&gt;&lt;br&gt;ABC transporter ATP-binding protein&lt;br&gt;Location: 1433522 - 1434235" locus_tag="B1K54_RS06345" class="clusterblast-orf" id="dummy-1_h1_5_24"  />
</g>
<g id="a1_0025"  >
<polygon points="540,85 545,80 557,80 557,90 545,90 540,85 " style="fill:white; stroke-width:1; stroke:black; " description="&lt;b&gt;B1K54_RS06350&lt;/b&gt;&lt;br&gt;ABC transporter ATP-binding protein&lt;br&gt;Location: 1434228 - 1435232" locus_tag="B1K54_RS06350" class="clusterblast-orf" id="dummy-1_h1_5_25"  />
</g>
<g id="a1_0026"  >
<polygon points="559,85 564,80 574,80 574,90 564,90 559,85 " style="fill:white; stroke-width:1; stroke:black; " description="&lt;b&gt;B1K54_RS06355&lt;/b&gt;&lt;br&gt;ABC transporter permease&lt;br&gt;Location: 1435361 - 1436227" locus_tag="B1K54_RS06355" class="clusterblast-orf" id="dummy-1_h1_5_26"  />
</g>
<g id="a1_0027"  >
<polygon points="574,85 579,80 590,80 590,90 579,90 574,85 " style="fill:white; stroke-width:1; stroke:black; " description="&lt;b&gt;B1K54_RS06360&lt;/b&gt;&lt;br&gt;ABC transporter permease&lt;br&gt;Location: 1436220 - 1437185" locus_tag="B1K54_RS06360" class="clusterblast-orf" id="dummy-1_h1_5_27"  />
</g>
<g id="a1_0028"  >
<polygon points="591,85 596,80 618,80 618,90 596,90 591,85 " style="fill:white; stroke-width:1; stroke:black; " description="&lt;b&gt;B1K54_RS06365&lt;/b&gt;&lt;br&gt;ABC transporter substrate-binding protein&lt;br&gt;Location: 1437232 - 1438830" locus_tag="B1K54_RS06365" class="clusterblast-orf" id="dummy-1_h1_5_28"  />
</g>
<g id="a1_0029"  >
<polygon points="620,90 633,90 638,85 633,80 620,80 620,90 " style="fill:white; stroke-width:1; stroke:black; " description="&lt;b&gt;B1K54_RS06370&lt;/b&gt;&lt;br&gt;hydrolase&lt;br&gt;Location: 1438945 - 1439967" locus_tag="B1K54_RS06370" class="clusterblast-orf" id="dummy-1_h1_5_29"  />
</g>
<g id="a1_0030"  >
<polygon points="639,90 670,90 675,85 670,80 639,80 639,90 " style="fill:white; stroke-width:1; stroke:black; " description="&lt;b&gt;B1K54_RS06375&lt;/b&gt;&lt;br&gt;hypothetical protein&lt;br&gt;Location: 1440031 - 1442127" locus_tag="B1K54_RS06375" class="clusterblast-orf" id="dummy-1_h1_5_30"  />
</g>
<g id="a1_0031"  >
<polygon points="677,85 681,80 681,90 677,85 " style="fill:white; stroke-width:1; stroke:black; " description="&lt;b&gt;B1K54_RS06380&lt;/b&gt;&lt;br&gt;hypothetical protein&lt;br&gt;Location: 1442280 - 1442465" locus_tag="B1K54_RS06380" class="clusterblast-orf" id="dummy-1_h1_5_31"  />
</g>
<g id="a1_0032"  >
<polygon points="683,90 686,90 691,85 686,80 683,80 683,90 " style="fill:white; stroke-width:1; stroke:black; " description="&lt;b&gt;B1K54_RS06385&lt;/b&gt;&lt;br&gt;Immediate-early protein 2&lt;br&gt;Location: 1442621 - 1443058" locus_tag="B1K54_RS06385" class="clusterblast-orf" id="dummy-1_h1_5_32"  />
</g>
<g id="a1_0033"  >
<polygon points="692,90 699,90 704,85 699,80 692,80 692,90 " style="fill:white; stroke-width:1; stroke:black; " description="&lt;b&gt;B1K54_RS06390&lt;/b&gt;&lt;br&gt;hypothetical protein&lt;br&gt;Location: 1443124 - 1443843" locus_tag="B1K54_RS06390" class="clusterblast-orf" id="dummy-1_h1_5_33"  />
</g>
<g id="a1_0034"  >
<polygon points="708,85 713,80 729,80 729,90 713,90 708,85 " style="fill:white; stroke-width:1; stroke:black; " description="&lt;b&gt;B1K54_RS06395&lt;/b&gt;&lt;br&gt;acyl-CoA dehydrogenase&lt;br&gt;Location: 1444061 - 1445290" locus_tag="B1K54_RS06395" class="clusterblast-orf" id="dummy-1_h1_5_34"  />
</g>
<g id="a1_0035"  >
<polygon points="733,90 739,90 744,85 739,80 733,80 733,90 " style="fill:white; stroke-width:1; stroke:black; " description="&lt;b&gt;B1K54_RS06400&lt;/b&gt;&lt;br&gt;TetR/AcrR family transcriptional regulator&lt;br&gt;Location: 1445506 - 1446150" locus_tag="B1K54_RS06400" class="clusterblast-orf" id="dummy-1_h1_5_35"  />
</g>
<g id="a1_0036"  >
<polygon points="747,85 752,80 756,80 756,90 752,90 747,85 " style="fill:white; stroke-width:1; stroke:black; " description="&lt;b&gt;B1K54_RS06405&lt;/b&gt;&lt;br&gt;peptide deformylase&lt;br&gt;Location: 1446335 - 1446889" locus_tag="B1K54_RS06405" class="clusterblast-orf" id="dummy-1_h1_5_36"  />
</g>
<g id="a1_0037"  >
<polygon points="758,90 775,90 780,85 775,80 758,80 758,90 " style="fill:white; stroke-width:1; stroke:black; " description="&lt;b&gt;B1K54_RS06410&lt;/b&gt;&lt;br&gt;DUF1727 domain-containing protein&lt;br&gt;Location: 1447013 - 1448251" locus_tag="B1K54_RS06410" class="clusterblast-orf" id="dummy-1_h1_5_37"  />
</g>
</svg>
