<svg xmlns="http://www.w3.org/2000/svg" xmlns:xlink="http://www.w3.org/1999/xlink" version="1.1" x="0" y="0" height="230" width="800" viewBox="0 0 800 230" preserveAspectRatio="none"  >
<g label="Query sequence" class="clusterblast-cluster"  >
<text x="5" y="20" class="clusterblast-acc"  >
Query sequence</text>
<line x1="10" y1="35" x2="778.0" y2="35" style="stroke-width:1; stroke:grey; "  />
<polygon points="208,40 214,40 219,35 214,30 208,30 208,40 " style="fill:#d81515; stroke-width:1; stroke:black; " description="&lt;b&gt;ctg19_29&lt;/b&gt;&lt;br&gt;ctg19 29&lt;br&gt;Location: 32747 - 33536" locus_tag="ctg19_29" class="clusterblast-orf" id="dummy-1_q0_0_all"  />
<polygon points="219,40 223,40 228,35 223,30 219,30 219,40 " style="fill:#54d815; stroke-width:1; stroke:black; " description="&lt;b&gt;ctg19_30&lt;/b&gt;&lt;br&gt;ctg19 30&lt;br&gt;Location: 33532 - 34174" locus_tag="ctg19_30" class="clusterblast-orf" id="dummy-1_q1_0_all"  />
<polygon points="228,40 237,40 242,35 237,30 228,30 228,40 " style="fill:#15c1d8; stroke-width:1; stroke:black; " description="&lt;b&gt;ctg19_31&lt;/b&gt;&lt;br&gt;ctg19 31&lt;br&gt;Location: 34177 - 35200" locus_tag="ctg19_31" class="clusterblast-orf" id="dummy-1_q2_0_all"  />
<polygon points="242,40 254,40 259,35 254,30 242,30 242,40 " style="fill:#8215d8; stroke-width:1; stroke:black; " description="&lt;b&gt;ctg19_32&lt;/b&gt;&lt;br&gt;ctg19 32&lt;br&gt;Location: 35199 - 36453" locus_tag="ctg19_32" class="clusterblast-orf" id="dummy-1_q3_0_all"  />
<polygon points="259,40 272,40 277,35 272,30 259,30 259,40 " style="fill:#d84415; stroke-width:1; stroke:black; " description="&lt;b&gt;ctg19_33&lt;/b&gt;&lt;br&gt;ctg19 33&lt;br&gt;Location: 36457 - 37738" locus_tag="ctg19_33" class="clusterblast-orf" id="dummy-1_q4_0_all"  />
<polygon points="277,40 284,40 289,35 284,30 277,30 277,40 " style="fill:#25d815; stroke-width:1; stroke:black; " description="&lt;b&gt;ctg19_34&lt;/b&gt;&lt;br&gt;ctg19 34&lt;br&gt;Location: 37734 - 38592" locus_tag="ctg19_34" class="clusterblast-orf" id="dummy-1_q5_0_all"  />
<polygon points="289,40 300,40 305,35 300,30 289,30 289,40 " style="fill:#1592d8; stroke-width:1; stroke:black; " description="&lt;b&gt;ctg19_35&lt;/b&gt;&lt;br&gt;ctg19 35&lt;br&gt;Location: 38588 - 39767" locus_tag="ctg19_35" class="clusterblast-orf" id="dummy-1_q6_0_all"  />
<polygon points="305,40 307,40 312,35 307,30 305,30 305,40 " style="fill:#b115d8; stroke-width:1; stroke:black; " description="&lt;b&gt;ctg19_36&lt;/b&gt;&lt;br&gt;ctg19 36&lt;br&gt;Location: 39763 - 40312" locus_tag="ctg19_36" class="clusterblast-orf" id="dummy-1_q7_0_all"  />
<polygon points="313,40 326,40 331,35 326,30 313,30 313,40 " style="fill:#d87315; stroke-width:1; stroke:black; " description="&lt;b&gt;ctg19_37&lt;/b&gt;&lt;br&gt;ctg19 37&lt;br&gt;Location: 40317 - 41631" locus_tag="ctg19_37" class="clusterblast-orf" id="dummy-1_q8_0_all"  />
<polygon points="330,35 335,30 340,30 340,40 335,40 330,35 " style="fill:#15d834; stroke-width:1; stroke:black; " description="&lt;b&gt;ctg19_38&lt;/b&gt;&lt;br&gt;ctg19 38&lt;br&gt;Location: 41602 - 42271" locus_tag="ctg19_38" class="clusterblast-orf" id="dummy-1_q9_0_all"  />
<polygon points="341,40 344,35 341,30 341,40 " style="fill:#1563d8; stroke-width:1; stroke:black; " description="&lt;b&gt;ctg19_39&lt;/b&gt;&lt;br&gt;ctg19 39&lt;br&gt;Location: 42369 - 42621" locus_tag="ctg19_39" class="clusterblast-orf" id="dummy-1_q10_0_all"  />
<polygon points="344,40 355,40 360,35 355,30 344,30 344,40 " style="fill:#d815d0; stroke-width:1; stroke:black; " description="&lt;b&gt;ctg19_40&lt;/b&gt;&lt;br&gt;ctg19 40&lt;br&gt;Location: 42601 - 43720" locus_tag="ctg19_40" class="clusterblast-orf" id="dummy-1_q11_0_all"  />
<polygon points="360,40 360,40 365,35 360,30 360,30 360,40 " style="fill:#d8a215; stroke-width:1; stroke:black; " description="&lt;b&gt;ctg19_41&lt;/b&gt;&lt;br&gt;ctg19 41&lt;br&gt;Location: 43716 - 44127" locus_tag="ctg19_41" class="clusterblast-orf" id="dummy-1_q12_0_all"  />
<polygon points="365,40 373,40 378,35 373,30 365,30 365,40 " style="fill:#15d863; stroke-width:1; stroke:black; " description="&lt;b&gt;ctg19_42&lt;/b&gt;&lt;br&gt;ctg19 42&lt;br&gt;Location: 44132 - 45044" locus_tag="ctg19_42" class="clusterblast-orf" id="dummy-1_q13_0_all"  />
<polygon points="387,35 392,30 412,30 412,40 392,40 387,35 " style="fill:#1534d8; stroke-width:1; stroke:black; " description="&lt;b&gt;ctg19_43&lt;/b&gt;&lt;br&gt;ctg19 43&lt;br&gt;Location: 45709 - 47491" locus_tag="ctg19_43" class="clusterblast-orf" id="dummy-1_q14_0_all"  />
<polygon points="414,40 416,35 414,30 414,40 " style="fill:#d815a2; stroke-width:1; stroke:black; " description="&lt;b&gt;ctg19_44&lt;/b&gt;&lt;br&gt;ctg19 44&lt;br&gt;Location: 47667 - 47805" locus_tag="ctg19_44" class="clusterblast-orf" id="dummy-1_q15_0_all"  />
<polygon points="417,40 419,35 417,30 417,40 " style="fill:#d8d015; stroke-width:1; stroke:black; " description="&lt;b&gt;ctg19_45&lt;/b&gt;&lt;br&gt;ctg19 45&lt;br&gt;Location: 47849 - 47990" locus_tag="ctg19_45" class="clusterblast-orf" id="dummy-1_q16_0_all"  />
<polygon points="420,40 430,40 435,35 430,30 420,30 420,40 " style="fill:#d815d0; stroke-width:1; stroke:black; " description="&lt;b&gt;ctg19_46&lt;/b&gt;&lt;br&gt;ctg19 46&lt;br&gt;Location: 48076 - 49192" locus_tag="ctg19_46" class="clusterblast-orf" id="dummy-1_q17_0_all"  />
<polygon points="435,35 440,30 451,30 451,40 440,40 435,35 " style="fill:#15d892; stroke-width:1; stroke:black; " description="&lt;b&gt;ctg19_47&lt;/b&gt;&lt;br&gt;ctg19 47&lt;br&gt;Location: 49200 - 50328" locus_tag="ctg19_47" class="clusterblast-orf" id="dummy-1_q18_0_all"  />
<polygon points="451,35 456,30 473,30 473,40 456,40 451,35 " style="fill:#2515d8; stroke-width:1; stroke:black; " description="&lt;b&gt;ctg19_48&lt;/b&gt;&lt;br&gt;ctg19 48&lt;br&gt;Location: 50340 - 51891" locus_tag="ctg19_48" class="clusterblast-orf" id="dummy-1_q19_0_all"  />
<polygon points="473,35 478,30 482,30 482,40 478,40 473,35 " style="fill:#15d834; stroke-width:1; stroke:black; " description="&lt;b&gt;ctg19_49&lt;/b&gt;&lt;br&gt;ctg19 49&lt;br&gt;Location: 51950 - 52571" locus_tag="ctg19_49" class="clusterblast-orf" id="dummy-1_q20_0_all"  />
<polygon points="483,35 488,30 497,30 497,40 488,40 483,35 " style="fill:#d81573; stroke-width:1; stroke:black; " description="&lt;b&gt;ctg19_50&lt;/b&gt;&lt;br&gt;ctg19 50&lt;br&gt;Location: 52614 - 53625" locus_tag="ctg19_50" class="clusterblast-orf" id="dummy-1_q21_0_all"  />
<polygon points="496,35 501,30 506,30 506,40 501,40 496,35 " style="fill:#b1d815; stroke-width:1; stroke:black; " description="&lt;b&gt;ctg19_51&lt;/b&gt;&lt;br&gt;ctg19 51&lt;br&gt;Location: 53600 - 54299" locus_tag="ctg19_51" class="clusterblast-orf" id="dummy-1_q22_0_all"  />
<polygon points="506,35 511,30 521,30 521,40 511,40 506,35 " style="fill:#15d8c1; stroke-width:1; stroke:black; " description="&lt;b&gt;ctg19_52&lt;/b&gt;&lt;br&gt;ctg19 52&lt;br&gt;Location: 54295 - 55405" locus_tag="ctg19_52" class="clusterblast-orf" id="dummy-1_q23_0_all"  />
<polygon points="521,35 526,30 537,30 537,40 526,40 521,35 " style="fill:#5415d8; stroke-width:1; stroke:black; " description="&lt;b&gt;ctg19_53&lt;/b&gt;&lt;br&gt;ctg19 53&lt;br&gt;Location: 55401 - 56565" locus_tag="ctg19_53" class="clusterblast-orf" id="dummy-1_q24_0_all"  />
<polygon points="537,35 542,30 553,30 553,40 542,40 537,35 " style="fill:#d81544; stroke-width:1; stroke:black; " description="&lt;b&gt;ctg19_54&lt;/b&gt;&lt;br&gt;ctg19 54&lt;br&gt;Location: 56539 - 57730" locus_tag="ctg19_54" class="clusterblast-orf" id="dummy-1_q25_0_all"  />
<polygon points="554,35 559,30 571,30 571,40 559,40 554,35 " style="fill:#82d815; stroke-width:1; stroke:black; " description="&lt;b&gt;ctg19_55&lt;/b&gt;&lt;br&gt;ctg19 55&lt;br&gt;Location: 57797 - 59042" locus_tag="ctg19_55" class="clusterblast-orf" id="dummy-1_q26_0_all"  />
</g>
<g label="NZ_CP020569" description="NZ_CP020569_c7: Streptomyces gilvosporeus strain F607, complete genome (27% of genes show similarity), bacteriocin" class="clusterblast-cluster"  >
<text x="5" y="70" class="clusterblast-acc"  >
<a xlink:href="https://antismash-db.secondarymetabolites.org/go/NZ_CP020569/7" target="_blank">NZ_CP020569_c7</a>: Streptomyces gilvosporeus strain F607, complete genome (27% of genes show similarity), bacteriocin</text>
<line x1="10" y1="85" x2="778.0" y2="85" style="stroke-width:1; stroke:grey; "  />
</g>
<g id="a1_000"  >
<polygon points="0,90 16,90 21,85 16,80 0,80 0,90 " style="fill:#2515d8; stroke-width:1; stroke:black; " description="&lt;b&gt;B1H19_RS04525&lt;/b&gt;&lt;br&gt;right-handed parallel beta-helix repeat-containing protein&lt;br&gt;Location: 973655 - 975193&lt;br&gt;&lt;br&gt;&lt;b&gt;BlastP hit with ctg19_48&lt;/b&gt;&lt;br&gt;Percentage identity: 54&lt;br&gt;Percentage coverage: 82&lt;br&gt;BLAST bit score: 479&lt;br&gt;E-value: 5.4e-133" locus_tag="B1H19_RS04525" class="clusterblast-orf" id="dummy-1_h1_7_0"  />
</g>
<g id="a1_001"  >
<polygon points="21,90 33,90 38,85 33,80 21,80 21,90 " style="fill:#82d815; stroke-width:1; stroke:black; " description="&lt;b&gt;B1H19_RS04530&lt;/b&gt;&lt;br&gt;hypothetical protein&lt;br&gt;Location: 975195 - 976427&lt;br&gt;&lt;br&gt;&lt;b&gt;BlastP hit with ctg19_55&lt;/b&gt;&lt;br&gt;Percentage identity: 57&lt;br&gt;Percentage coverage: 91&lt;br&gt;BLAST bit score: 417&lt;br&gt;E-value: 1.5e-114" locus_tag="B1H19_RS04530" class="clusterblast-orf" id="dummy-1_h1_7_1"  />
</g>
<g id="a1_002"  >
<polygon points="38,90 50,90 55,85 50,80 38,80 38,90 " style="fill:white; stroke-width:1; stroke:black; " description="&lt;b&gt;B1H19_RS04535&lt;/b&gt;&lt;br&gt;glycosyltransferase family 1 protein&lt;br&gt;Location: 976430 - 977647" locus_tag="B1H19_RS04535" class="clusterblast-orf" id="dummy-1_h1_7_2"  />
</g>
<g id="a1_003"  >
<polygon points="55,90 67,90 72,85 67,80 55,80 55,90 " style="fill:white; stroke-width:1; stroke:black; " description="&lt;b&gt;B1H19_RS04540&lt;/b&gt;&lt;br&gt;class I SAM-dependent methyltransferase&lt;br&gt;Location: 977651 - 978886" locus_tag="B1H19_RS04540" class="clusterblast-orf" id="dummy-1_h1_7_3"  />
</g>
<g id="a1_004"  >
<polygon points="72,90 78,90 83,85 78,80 72,80 72,90 " style="fill:#d81515; stroke-width:1; stroke:black; " description="&lt;b&gt;B1H19_RS04545&lt;/b&gt;&lt;br&gt;glucose-1-phosphate cytidylyltransferase&lt;br&gt;Location: 978900 - 979694&lt;br&gt;&lt;br&gt;&lt;b&gt;BlastP hit with ctg19_29&lt;/b&gt;&lt;br&gt;Percentage identity: 85&lt;br&gt;Percentage coverage: 98&lt;br&gt;BLAST bit score: 482&lt;br&gt;E-value: 4.2e-134" locus_tag="B1H19_RS04545" class="clusterblast-orf" id="dummy-1_h1_7_4"  />
</g>
<g id="a1_005"  >
<polygon points="83,90 87,90 92,85 87,80 83,80 83,90 " style="fill:#54d815; stroke-width:1; stroke:black; " description="&lt;b&gt;B1H19_RS04550&lt;/b&gt;&lt;br&gt;PIG-L family deacetylase&lt;br&gt;Location: 979691 - 980338&lt;br&gt;&lt;br&gt;&lt;b&gt;BlastP hit with ctg19_30&lt;/b&gt;&lt;br&gt;Percentage identity: 76&lt;br&gt;Percentage coverage: 100&lt;br&gt;BLAST bit score: 337&lt;br&gt;E-value: 1.4e-90" locus_tag="B1H19_RS04550" class="clusterblast-orf" id="dummy-1_h1_7_5"  />
</g>
<g id="a1_006"  >
<polygon points="92,90 101,90 106,85 101,80 92,80 92,90 " style="fill:#15c1d8; stroke-width:1; stroke:black; " description="&lt;b&gt;B1H19_RS04555&lt;/b&gt;&lt;br&gt;NAD-dependent dehydratase&lt;br&gt;Location: 980342 - 981367&lt;br&gt;&lt;br&gt;&lt;b&gt;BlastP hit with ctg19_31&lt;/b&gt;&lt;br&gt;Percentage identity: 79&lt;br&gt;Percentage coverage: 100&lt;br&gt;BLAST bit score: 536&lt;br&gt;E-value: 1.9e-150" locus_tag="B1H19_RS04555" class="clusterblast-orf" id="dummy-1_h1_7_6"  />
</g>
<g id="a1_007"  >
<polygon points="106,90 119,90 124,85 119,80 106,80 106,90 " style="fill:#8215d8; stroke-width:1; stroke:black; " description="&lt;b&gt;B1H19_RS04560&lt;/b&gt;&lt;br&gt;DUF4910 domain-containing protein&lt;br&gt;Location: 981355 - 982653&lt;br&gt;&lt;br&gt;&lt;b&gt;BlastP hit with ctg19_32&lt;/b&gt;&lt;br&gt;Percentage identity: 80&lt;br&gt;Percentage coverage: 100&lt;br&gt;BLAST bit score: 705&lt;br&gt;E-value: 4.8e-201" locus_tag="B1H19_RS04560" class="clusterblast-orf" id="dummy-1_h1_7_7"  />
</g>
<g id="a1_008"  >
<polygon points="124,90 137,90 142,85 137,80 124,80 124,90 " style="fill:#d84415; stroke-width:1; stroke:black; " description="&lt;b&gt;B1H19_RS04565&lt;/b&gt;&lt;br&gt;hypothetical protein&lt;br&gt;Location: 982659 - 983969&lt;br&gt;&lt;br&gt;&lt;b&gt;BlastP hit with ctg19_33&lt;/b&gt;&lt;br&gt;Percentage identity: 62&lt;br&gt;Percentage coverage: 101&lt;br&gt;BLAST bit score: 468&lt;br&gt;E-value: 6e-130" locus_tag="B1H19_RS04565" class="clusterblast-orf" id="dummy-1_h1_7_8"  />
</g>
<g id="a1_009"  >
<polygon points="142,90 150,90 155,85 150,80 142,80 142,90 " style="fill:#25d815; stroke-width:1; stroke:black; " description="&lt;b&gt;B1H19_RS04570&lt;/b&gt;&lt;br&gt;glycosyltransferase family 2 protein&lt;br&gt;Location: 983966 - 984913&lt;br&gt;&lt;br&gt;&lt;b&gt;BlastP hit with ctg19_34&lt;/b&gt;&lt;br&gt;Percentage identity: 58&lt;br&gt;Percentage coverage: 100&lt;br&gt;BLAST bit score: 350&lt;br&gt;E-value: 2.1e-94" locus_tag="B1H19_RS04570" class="clusterblast-orf" id="dummy-1_h1_7_9"  />
</g>
<g id="a1_0010"  >
<polygon points="155,90 167,90 172,85 167,80 155,80 155,90 " style="fill:#1592d8; stroke-width:1; stroke:black; " description="&lt;b&gt;B1H19_RS04575&lt;/b&gt;&lt;br&gt;hypothetical protein&lt;br&gt;Location: 984910 - 986142&lt;br&gt;&lt;br&gt;&lt;b&gt;BlastP hit with ctg19_35&lt;/b&gt;&lt;br&gt;Percentage identity: 57&lt;br&gt;Percentage coverage: 99&lt;br&gt;BLAST bit score: 413&lt;br&gt;E-value: 3.6e-113" locus_tag="B1H19_RS04575" class="clusterblast-orf" id="dummy-1_h1_7_10"  />
</g>
<g id="a1_0011"  >
<polygon points="172,90 175,90 180,85 175,80 172,80 172,90 " style="fill:#b115d8; stroke-width:1; stroke:black; " description="&lt;b&gt;B1H19_RS04580&lt;/b&gt;&lt;br&gt;dTDP-4-dehydrorhamnose 3,5-epimerase&lt;br&gt;Location: 986139 - 986690&lt;br&gt;&lt;br&gt;&lt;b&gt;BlastP hit with ctg19_36&lt;/b&gt;&lt;br&gt;Percentage identity: 74&lt;br&gt;Percentage coverage: 98&lt;br&gt;BLAST bit score: 284&lt;br&gt;E-value: 8.9e-75" locus_tag="B1H19_RS04580" class="clusterblast-orf" id="dummy-1_h1_7_11"  />
</g>
<g id="a1_0012"  >
<polygon points="180,90 193,90 198,85 193,80 180,80 180,90 " style="fill:#d87315; stroke-width:1; stroke:black; " description="&lt;b&gt;B1H19_RS04585&lt;/b&gt;&lt;br&gt;glutamate-1-semialdehyde 2,1-aminomutase&lt;br&gt;Location: 986698 - 988023&lt;br&gt;&lt;br&gt;&lt;b&gt;BlastP hit with ctg19_37&lt;/b&gt;&lt;br&gt;Percentage identity: 82&lt;br&gt;Percentage coverage: 99&lt;br&gt;BLAST bit score: 713&lt;br&gt;E-value: 1.1e-203" locus_tag="B1H19_RS04585" class="clusterblast-orf" id="dummy-1_h1_7_12"  />
</g>
<g id="a1_0013"  >
<polygon points="198,85 203,80 208,80 208,90 203,90 198,85 " style="fill:#15d834; stroke-width:1; stroke:black; " description="&lt;b&gt;B1H19_RS04590&lt;/b&gt;&lt;br&gt;phosphatase PAP2 family protein&lt;br&gt;Location: 988031 - 988714&lt;br&gt;&lt;br&gt;&lt;b&gt;BlastP hit with ctg19_38&lt;/b&gt;&lt;br&gt;Percentage identity: 47&lt;br&gt;Percentage coverage: 95&lt;br&gt;BLAST bit score: 163&lt;br&gt;E-value: 3.7e-38&lt;br&gt;&lt;br&gt;&lt;b&gt;BlastP hit with ctg19_49&lt;/b&gt;&lt;br&gt;Percentage identity: 44&lt;br&gt;Percentage coverage: 95&lt;br&gt;BLAST bit score: 132&lt;br&gt;E-value: 4.9e-29" locus_tag="B1H19_RS04590" class="clusterblast-orf" id="dummy-1_h1_7_13"  />
</g>
<g id="a1_0014"  >
<polygon points="213,90 216,85 213,80 213,90 " style="fill:white; stroke-width:1; stroke:black; " description="&lt;b&gt;B1H19_RS04595&lt;/b&gt;&lt;br&gt;ferredoxin&lt;br&gt;Location: 989060 - 989302" locus_tag="B1H19_RS04595" class="clusterblast-orf" id="dummy-1_h1_7_14"  />
</g>
<g id="a1_0015"  >
<polygon points="216,85 221,80 233,80 233,90 221,90 216,85 " style="fill:white; stroke-width:1; stroke:black; " description="&lt;b&gt;B1H19_RS04600&lt;/b&gt;&lt;br&gt;MFS transporter&lt;br&gt;Location: 989321 - 990523" locus_tag="B1H19_RS04600" class="clusterblast-orf" id="dummy-1_h1_7_15"  />
</g>
<g id="a1_0016"  >
<polygon points="233,85 238,80 261,80 261,90 238,90 233,85 " style="fill:white; stroke-width:1; stroke:black; " description="&lt;b&gt;B1H19_RS04605&lt;/b&gt;&lt;br&gt;phosphoenolpyruvate synthase&lt;br&gt;Location: 990520 - 992544" locus_tag="B1H19_RS04605" class="clusterblast-orf" id="dummy-1_h1_7_16"  />
</g>
<g id="a1_0017"  >
<polygon points="261,85 266,80 280,80 280,90 266,90 261,85 " style="fill:white; stroke-width:1; stroke:black; " description="&lt;b&gt;B1H19_RS04610&lt;/b&gt;&lt;br&gt;ATP-grasp domain-containing protein&lt;br&gt;Location: 992541 - 993914" locus_tag="B1H19_RS04610" class="clusterblast-orf" id="dummy-1_h1_7_17"  />
</g>
<g id="a1_0018"  >
<polygon points="285,90 298,90 303,85 298,80 285,80 285,90 " style="fill:white; stroke-width:1; stroke:black; " description="&lt;b&gt;B1H19_RS04615&lt;/b&gt;&lt;br&gt;PAS domain S-box protein&lt;br&gt;Location: 994294 - 995574" locus_tag="B1H19_RS04615" class="clusterblast-orf" id="dummy-1_h1_7_18"  />
</g>
<g id="a1_0019"  >
<polygon points="303,85 308,80 309,80 309,90 308,90 303,85 " style="fill:white; stroke-width:1; stroke:black; " description="&lt;b&gt;B1H19_RS04620&lt;/b&gt;&lt;br&gt;ATP-binding protein&lt;br&gt;Location: 995633 - 996052" locus_tag="B1H19_RS04620" class="clusterblast-orf" id="dummy-1_h1_7_19"  />
</g>
<g id="a1_0020"  >
<polygon points="311,90 317,90 322,85 317,80 311,80 311,90 " style="fill:white; stroke-width:1; stroke:black; " description="&lt;b&gt;B1H19_RS04625&lt;/b&gt;&lt;br&gt;IclR family transcriptional regulator&lt;br&gt;Location: 996217 - 996984" locus_tag="B1H19_RS04625" class="clusterblast-orf" id="dummy-1_h1_7_20"  />
</g>
<g id="a1_0021"  >
<polygon points="323,90 339,90 344,85 339,80 323,80 323,90 " style="fill:white; stroke-width:1; stroke:black; " description="&lt;b&gt;B1H19_RS04630&lt;/b&gt;&lt;br&gt;glycerol kinase&lt;br&gt;Location: 997023 - 998537" locus_tag="B1H19_RS04630" class="clusterblast-orf" id="dummy-1_h1_7_21"  />
</g>
<g id="a1_0022"  >
<polygon points="349,90 371,90 376,85 371,80 349,80 349,90 " style="fill:white; stroke-width:1; stroke:black; " description="&lt;b&gt;B1H19_RS04635&lt;/b&gt;&lt;br&gt;NUDIX hydrolase&lt;br&gt;Location: 998914 - 1000911" locus_tag="B1H19_RS04635" class="clusterblast-orf" id="dummy-1_h1_7_22"  />
</g>
<g id="a1_0023"  >
<polygon points="378,90 400,90 405,85 400,80 378,80 378,90 " style="fill:#1534d8; stroke-width:1; stroke:black; " description="&lt;b&gt;B1H19_RS04640&lt;/b&gt;&lt;br&gt;ABC transporter ATP-binding protein&lt;br&gt;Location: 1001050 - 1003017&lt;br&gt;&lt;br&gt;&lt;b&gt;BlastP hit with ctg19_43&lt;/b&gt;&lt;br&gt;Percentage identity: 33&lt;br&gt;Percentage coverage: 100&lt;br&gt;BLAST bit score: 212&lt;br&gt;E-value: 1.8e-52" locus_tag="B1H19_RS04640" class="clusterblast-orf" id="dummy-1_h1_7_23"  />
</g>
<g id="a1_0024"  >
<polygon points="408,90 412,90 417,85 412,80 408,80 408,90 " style="fill:white; stroke-width:1; stroke:black; " description="&lt;b&gt;B1H19_RS04645&lt;/b&gt;&lt;br&gt;class I SAM-dependent methyltransferase&lt;br&gt;Location: 1003174 - 1003836" locus_tag="B1H19_RS04645" class="clusterblast-orf" id="dummy-1_h1_7_24"  />
</g>
<g id="a1_0025"  >
<polygon points="416,85 421,80 455,80 455,90 421,90 416,85 " style="fill:white; stroke-width:1; stroke:black; " description="&lt;b&gt;B1H19_RS04650&lt;/b&gt;&lt;br&gt;phosphoesterase&lt;br&gt;Location: 1003806 - 1006562" locus_tag="B1H19_RS04650" class="clusterblast-orf" id="dummy-1_h1_7_25"  />
</g>
<g id="a1_0026"  >
<polygon points="455,85 460,80 473,80 473,90 460,90 455,85 " style="fill:white; stroke-width:1; stroke:black; " description="&lt;b&gt;B1H19_RS04655&lt;/b&gt;&lt;br&gt;ABC transporter permease&lt;br&gt;Location: 1006567 - 1007925" locus_tag="B1H19_RS04655" class="clusterblast-orf" id="dummy-1_h1_7_26"  />
</g>
<g id="a1_0027"  >
<polygon points="473,85 478,80 486,80 486,90 478,90 473,85 " style="fill:white; stroke-width:1; stroke:black; " description="&lt;b&gt;B1H19_RS04660&lt;/b&gt;&lt;br&gt;ABC transporter ATP-binding protein&lt;br&gt;Location: 1007922 - 1008863" locus_tag="B1H19_RS04660" class="clusterblast-orf" id="dummy-1_h1_7_27"  />
</g>
<g id="a1_0028"  >
<polygon points="493,90 514,90 519,85 514,80 493,80 493,90 " style="fill:white; stroke-width:1; stroke:black; " description="&lt;b&gt;B1H19_RS04665&lt;/b&gt;&lt;br&gt;RiPP maturation radical SAM protein 1&lt;br&gt;Location: 1009365 - 1011257" locus_tag="B1H19_RS04665" class="clusterblast-orf" id="dummy-1_h1_7_28"  />
</g>
<g id="a1_0029"  >
<polygon points="519,90 522,90 527,85 522,80 519,80 519,90 " style="fill:white; stroke-width:1; stroke:black; " description="&lt;b&gt;B1H19_RS04670&lt;/b&gt;&lt;br&gt;hypothetical protein&lt;br&gt;Location: 1011260 - 1011781" locus_tag="B1H19_RS04670" class="clusterblast-orf" id="dummy-1_h1_7_29"  />
</g>
<g id="a1_0030"  >
<polygon points="530,90 542,90 547,85 542,80 530,80 530,90 " style="fill:white; stroke-width:1; stroke:black; " description="&lt;b&gt;B1H19_RS04675&lt;/b&gt;&lt;br&gt;cytochrome P450&lt;br&gt;Location: 1012020 - 1013231" locus_tag="B1H19_RS04675" class="clusterblast-orf" id="dummy-1_h1_7_30"  />
</g>
<g id="a1_0031"  >
<polygon points="547,90 563,90 568,85 563,80 547,80 547,90 " style="fill:white; stroke-width:1; stroke:black; " description="&lt;b&gt;B1H19_RS04680&lt;/b&gt;&lt;br&gt;hypothetical protein&lt;br&gt;Location: 1013246 - 1014739" locus_tag="B1H19_RS04680" class="clusterblast-orf" id="dummy-1_h1_7_31"  />
</g>
<g id="a1_0032"  >
<polygon points="566,90 573,90 578,85 573,80 566,80 566,90 " style="fill:white; stroke-width:1; stroke:black; " description="&lt;b&gt;B1H19_RS04685&lt;/b&gt;&lt;br&gt;class I SAM-dependent methyltransferase&lt;br&gt;Location: 1014604 - 1015515" locus_tag="B1H19_RS04685" class="clusterblast-orf" id="dummy-1_h1_7_32"  />
</g>
<g id="a1_0033"  >
<polygon points="578,90 588,90 593,85 588,80 578,80 578,90 " style="fill:white; stroke-width:1; stroke:black; " description="&lt;b&gt;B1H19_RS04690&lt;/b&gt;&lt;br&gt;aspartyl/asparaginyl beta-hydroxylase domain-containing protein&lt;br&gt;Location: 1015512 - 1016570" locus_tag="B1H19_RS04690" class="clusterblast-orf" id="dummy-1_h1_7_33"  />
</g>
<g id="a1_0034"  >
<polygon points="593,90 608,90 613,85 608,80 593,80 593,90 " style="fill:white; stroke-width:1; stroke:black; " description="&lt;b&gt;B1H19_RS04695&lt;/b&gt;&lt;br&gt;MFS transporter&lt;br&gt;Location: 1016611 - 1017996" locus_tag="B1H19_RS04695" class="clusterblast-orf" id="dummy-1_h1_7_34"  />
</g>
<g id="a1_0035"  >
<polygon points="619,90 627,90 632,85 627,80 619,80 619,90 " style="fill:white; stroke-width:1; stroke:black; " description="&lt;b&gt;B1H19_RS04700&lt;/b&gt;&lt;br&gt;hypothetical protein&lt;br&gt;Location: 1018469 - 1019422" locus_tag="B1H19_RS04700" class="clusterblast-orf" id="dummy-1_h1_7_35"  />
</g>
<g id="a1_0036"  >
<polygon points="634,85 637,80 637,90 634,85 " style="fill:white; stroke-width:1; stroke:black; " description="&lt;b&gt;B1H19_RS04705&lt;/b&gt;&lt;br&gt;EF-hand domain-containing protein&lt;br&gt;Location: 1019556 - 1019774" locus_tag="B1H19_RS04705" class="clusterblast-orf" id="dummy-1_h1_7_36"  />
</g>
<g id="a1_0037"  >
<polygon points="640,90 644,90 649,85 644,80 640,80 640,90 " style="fill:white; stroke-width:1; stroke:black; " description="&lt;b&gt;B1H19_RS04710&lt;/b&gt;&lt;br&gt;hypothetical protein&lt;br&gt;Location: 1019982 - 1020596" locus_tag="B1H19_RS04710" class="clusterblast-orf" id="dummy-1_h1_7_37"  />
</g>
<g id="a1_0038"  >
<polygon points="649,85 654,80 661,80 661,90 654,90 649,85 " style="fill:white; stroke-width:1; stroke:black; " description="&lt;b&gt;B1H19_RS04715&lt;/b&gt;&lt;br&gt;LLM class flavin-dependent oxidoreductase&lt;br&gt;Location: 1020632 - 1021495" locus_tag="B1H19_RS04715" class="clusterblast-orf" id="dummy-1_h1_7_38"  />
</g>
<g id="a1_0039"  >
<polygon points="664,90 669,90 674,85 669,80 664,80 664,90 " style="fill:white; stroke-width:1; stroke:black; " description="&lt;b&gt;B1H19_RS04720&lt;/b&gt;&lt;br&gt;hypothetical protein&lt;br&gt;Location: 1021732 - 1022448" locus_tag="B1H19_RS04720" class="clusterblast-orf" id="dummy-1_h1_7_39"  />
</g>
<g id="a1_0040"  >
<polygon points="677,85 682,80 685,80 685,90 682,90 677,85 " style="fill:white; stroke-width:1; stroke:black; " description="&lt;b&gt;B1H19_RS04725&lt;/b&gt;&lt;br&gt;2'-5' RNA ligase family protein&lt;br&gt;Location: 1022634 - 1023233" locus_tag="B1H19_RS04725" class="clusterblast-orf" id="dummy-1_h1_7_40"  />
</g>
<g id="a1_0041"  >
<polygon points="686,85 691,80 692,80 692,90 691,90 686,85 " style="fill:white; stroke-width:1; stroke:black; " description="&lt;b&gt;B1H19_RS04730&lt;/b&gt;&lt;br&gt;DUF3291 domain-containing protein&lt;br&gt;Location: 1023275 - 1023745" locus_tag="B1H19_RS04730" class="clusterblast-orf" id="dummy-1_h1_7_41"  />
</g>
<g id="a1_0042"  >
<polygon points="693,85 698,80 701,80 701,90 698,90 693,85 " style="fill:white; stroke-width:1; stroke:black; " description="&lt;b&gt;B1H19_RS04735&lt;/b&gt;&lt;br&gt;transcriptional regulator&lt;br&gt;Location: 1023778 - 1024416" locus_tag="B1H19_RS04735" class="clusterblast-orf" id="dummy-1_h1_7_42"  />
</g>
<g id="a1_0043"  >
<polygon points="708,85 713,80 728,80 728,90 713,90 708,85 " style="fill:white; stroke-width:1; stroke:black; " description="&lt;b&gt;B1H19_RS04740&lt;/b&gt;&lt;br&gt;amidase&lt;br&gt;Location: 1024876 - 1026327" locus_tag="B1H19_RS04740" class="clusterblast-orf" id="dummy-1_h1_7_43"  />
</g>
<g id="a1_0044"  >
<polygon points="734,90 736,90 741,85 736,80 734,80 734,90 " style="fill:white; stroke-width:1; stroke:black; " description="&lt;b&gt;B1H19_RS04745&lt;/b&gt;&lt;br&gt;carbonic anhydrase&lt;br&gt;Location: 1026747 - 1027316" locus_tag="B1H19_RS04745" class="clusterblast-orf" id="dummy-1_h1_7_44"  />
</g>
<g id="a1_0045"  >
<polygon points="742,90 745,85 742,80 742,90 " style="fill:white; stroke-width:1; stroke:black; " description="&lt;b&gt;B1H19_RS04750&lt;/b&gt;&lt;br&gt;hypothetical protein&lt;br&gt;Location: 1027342 - 1027551" locus_tag="B1H19_RS04750" class="clusterblast-orf" id="dummy-1_h1_7_45"  />
</g>
<g id="a1_0046"  >
<polygon points="746,90 753,90 758,85 753,80 746,80 746,90 " style="fill:white; stroke-width:1; stroke:black; " description="&lt;b&gt;B1H19_RS04755&lt;/b&gt;&lt;br&gt;hypothetical protein&lt;br&gt;Location: 1027672 - 1028508" locus_tag="B1H19_RS04755" class="clusterblast-orf" id="dummy-1_h1_7_46"  />
</g>
<g id="a1_0047"  >
<polygon points="759,90 775,90 780,85 775,80 759,80 759,90 " style="fill:white; stroke-width:1; stroke:black; " description="&lt;b&gt;B1H19_RS04760&lt;/b&gt;&lt;br&gt;argininosuccinate synthase&lt;br&gt;Location: 1028613 - 1030067" locus_tag="B1H19_RS04760" class="clusterblast-orf" id="dummy-1_h1_7_47"  />
</g>
</svg>
