<svg xmlns="http://www.w3.org/2000/svg" xmlns:xlink="http://www.w3.org/1999/xlink" version="1.1" x="0" y="0" height="230" width="800" viewBox="0 0 800 230" preserveAspectRatio="none"  >
<g label="Query sequence" class="clusterblast-cluster"  >
<text x="5" y="20" class="clusterblast-acc"  >
Query sequence</text>
<line x1="10" y1="35" x2="778.0" y2="35" style="stroke-width:1; stroke:grey; "  />
<polygon points="165,35 170,30 191,30 191,40 170,40 165,35 " style="fill:white; stroke-width:1; stroke:black; " description="&lt;b&gt;ctg7_88&lt;/b&gt;&lt;br&gt;ctg7 88&lt;br&gt;Location: 106219 - 106864" locus_tag="ctg7_88" class="clusterblast-orf" id="dummy-2_q0_0_all"  />
<polygon points="194,35 199,30 224,30 224,40 199,40 194,35 " style="fill:white; stroke-width:1; stroke:black; " description="&lt;b&gt;ctg7_89&lt;/b&gt;&lt;br&gt;ctg7 89&lt;br&gt;Location: 106937 - 107699" locus_tag="ctg7_89" class="clusterblast-orf" id="dummy-2_q1_0_all"  />
<polygon points="229,35 234,30 240,30 240,40 234,40 229,35 " style="fill:#d81515; stroke-width:1; stroke:black; " description="&lt;b&gt;ctg7_90&lt;/b&gt;&lt;br&gt;ctg7 90&lt;br&gt;Location: 107811 - 108099" locus_tag="ctg7_90" class="clusterblast-orf" id="dummy-2_q2_0_all"  />
<polygon points="240,35 245,30 245,30 245,40 245,40 240,35 " style="fill:white; stroke-width:1; stroke:black; " description="&lt;b&gt;ctg7_91&lt;/b&gt;&lt;br&gt;ctg7 91&lt;br&gt;Location: 108095 - 108224" locus_tag="ctg7_91" class="clusterblast-orf" id="dummy-2_q3_0_all"  />
<polygon points="253,35 258,30 279,30 279,40 258,40 253,35 " style="fill:#3cd815; stroke-width:1; stroke:black; " description="&lt;b&gt;ctg7_92&lt;/b&gt;&lt;br&gt;ctg7 92&lt;br&gt;Location: 108414 - 109062" locus_tag="ctg7_92" class="clusterblast-orf" id="dummy-2_q4_0_all"  />
<polygon points="279,35 284,30 324,30 324,40 284,40 279,35 " style="fill:#1563d8; stroke-width:1; stroke:black; " description="&lt;b&gt;ctg7_93&lt;/b&gt;&lt;br&gt;ctg7 93&lt;br&gt;Location: 109058 - 110189" locus_tag="ctg7_93" class="clusterblast-orf" id="dummy-2_q5_0_all"  />
<polygon points="329,40 345,40 350,35 345,30 329,30 329,40 " style="fill:#b115d8; stroke-width:1; stroke:black; " description="&lt;b&gt;ctg7_94&lt;/b&gt;&lt;br&gt;ctg7 94&lt;br&gt;Location: 110297 - 110825" locus_tag="ctg7_94" class="clusterblast-orf" id="dummy-2_q6_0_all"  />
<polygon points="352,40 362,40 367,35 362,30 352,30 352,40 " style="fill:white; stroke-width:1; stroke:black; " description="&lt;b&gt;ctg7_95&lt;/b&gt;&lt;br&gt;ctg7 95&lt;br&gt;Location: 110888 - 111260" locus_tag="ctg7_95" class="clusterblast-orf" id="dummy-2_q7_0_all"  />
<polygon points="369,35 374,30 410,30 410,40 374,40 369,35 " style="fill:#d88a15; stroke-width:1; stroke:black; " description="&lt;b&gt;ctg7_96&lt;/b&gt;&lt;br&gt;ctg7 96&lt;br&gt;Location: 111307 - 112330" locus_tag="ctg7_96" class="clusterblast-orf" id="dummy-2_q8_0_all"  />
<polygon points="410,35 415,30 437,30 437,40 415,40 410,35 " style="fill:#15d863; stroke-width:1; stroke:black; " description="&lt;b&gt;ctg7_97&lt;/b&gt;&lt;br&gt;ctg7 97&lt;br&gt;Location: 112326 - 112983" locus_tag="ctg7_97" class="clusterblast-orf" id="dummy-2_q9_0_all"  />
<polygon points="437,35 442,30 481,30 481,40 442,40 437,35 " style="fill:#3c15d8; stroke-width:1; stroke:black; " description="&lt;b&gt;ctg7_98&lt;/b&gt;&lt;br&gt;ctg7 98&lt;br&gt;Location: 112999 - 114094" locus_tag="ctg7_98" class="clusterblast-orf" id="dummy-2_q10_0_all"  />
<polygon points="495,40 541,40 546,35 541,30 495,30 495,40 " style="fill:#d8158a; stroke-width:1; stroke:black; " description="&lt;b&gt;ctg7_99&lt;/b&gt;&lt;br&gt;ctg7 99&lt;br&gt;Location: 114433 - 115711" locus_tag="ctg7_99" class="clusterblast-orf" id="dummy-2_q11_0_all"  />
<polygon points="546,40 583,40 588,35 583,30 546,30 546,40 " style="fill:#b1d815; stroke-width:1; stroke:black; " description="&lt;b&gt;ctg7_100&lt;/b&gt;&lt;br&gt;ctg7 100&lt;br&gt;Location: 115707 - 116751" locus_tag="ctg7_100" class="clusterblast-orf" id="dummy-2_q12_0_all"  />
<polygon points="589,40 596,40 601,35 596,30 589,30 589,40 " style="fill:#15d8d8; stroke-width:1; stroke:black; " description="&lt;b&gt;ctg7_101&lt;/b&gt;&lt;br&gt;ctg7 101&lt;br&gt;Location: 116783 - 117059" locus_tag="ctg7_101" class="clusterblast-orf" id="dummy-2_q13_0_all"  />
<polygon points="610,40 610,40 615,35 610,30 610,30 610,40 " style="fill:white; stroke-width:1; stroke:black; " description="&lt;b&gt;ctg7_102&lt;/b&gt;&lt;br&gt;ctg7 102&lt;br&gt;Location: 117285 - 117420" locus_tag="ctg7_102" class="clusterblast-orf" id="dummy-2_q14_0_all"  />
</g>
<g label="NC_016111" description="NC_016111_c4: Streptomyces cattleya str. NRRL 8057 main chromosome, complete ... (13% of genes show similarity), terpene" class="clusterblast-cluster"  >
<text x="5" y="70" class="clusterblast-acc"  >
<a xlink:href="https://antismash-db.secondarymetabolites.org/go/NC_016111/4" target="_blank">NC_016111_c4</a>: Streptomyces cattleya str. NRRL 8057 main chromosome, complete ... (13% of genes show similarity), terpene</text>
<line x1="10" y1="85" x2="778.0" y2="85" style="stroke-width:1; stroke:grey; "  />
</g>
<g id="a2_000"  >
<polygon points="0,90 53,90 58,85 53,80 0,80 0,90 " style="fill:white; stroke-width:1; stroke:black; " description="&lt;b&gt;SCAT_RS10280&lt;/b&gt;&lt;br&gt;MFS transporter&lt;br&gt;Location: 571020 - 572471" locus_tag="SCAT_RS10280" class="clusterblast-orf" id="dummy-2_h2_9_0"  />
</g>
<g id="a2_001"  >
<polygon points="60,85 65,80 82,80 82,90 65,90 60,85 " style="fill:white; stroke-width:1; stroke:black; " description="&lt;b&gt;SCAT_RS10285&lt;/b&gt;&lt;br&gt;DUF1707 and DUF2154 domain-containing protein&lt;br&gt;Location: 572536 - 573075" locus_tag="SCAT_RS10285" class="clusterblast-orf" id="dummy-2_h2_9_1"  />
</g>
<g id="a2_002"  >
<polygon points="89,90 102,90 107,85 102,80 89,80 89,90 " style="fill:white; stroke-width:1; stroke:black; " description="&lt;b&gt;SCAT_RS10290&lt;/b&gt;&lt;br&gt;MarR family transcriptional regulator&lt;br&gt;Location: 573245 - 573685" locus_tag="SCAT_RS10290" class="clusterblast-orf" id="dummy-2_h2_9_2"  />
</g>
<g id="a2_003"  >
<polygon points="111,90 149,90 154,85 149,80 111,80 111,90 " style="fill:white; stroke-width:1; stroke:black; " description="&lt;b&gt;SCAT_RS10295&lt;/b&gt;&lt;br&gt;FAD-dependent monooxygenase&lt;br&gt;Location: 573786 - 574871" locus_tag="SCAT_RS10295" class="clusterblast-orf" id="dummy-2_h2_9_3"  />
</g>
<g id="a2_004"  >
<polygon points="159,85 164,80 175,80 175,90 164,90 159,85 " style="fill:white; stroke-width:1; stroke:black; " description="&lt;b&gt;SCAT_RS10300&lt;/b&gt;&lt;br&gt;IS5/IS1182 family transposase&lt;br&gt;Location: 574995 - 575384" locus_tag="SCAT_RS10300" class="clusterblast-orf" id="dummy-2_h2_9_4"  />
</g>
<g id="a2_005"  >
<polygon points="177,85 182,80 208,80 208,90 182,90 177,85 " style="fill:white; stroke-width:1; stroke:black; " description="&lt;b&gt;SCAT_RS10305&lt;/b&gt;&lt;br&gt;KR domain-containing protein&lt;br&gt;Location: 575423 - 576217" locus_tag="SCAT_RS10305" class="clusterblast-orf" id="dummy-2_h2_9_5"  />
</g>
<g id="a2_006"  >
<polygon points="219,85 224,80 248,80 248,90 224,90 219,85 " style="fill:white; stroke-width:1; stroke:black; " description="&lt;b&gt;SCAT_RS10310&lt;/b&gt;&lt;br&gt;KR domain-containing protein&lt;br&gt;Location: 576485 - 577192" locus_tag="SCAT_RS10310" class="clusterblast-orf" id="dummy-2_h2_9_6"  />
</g>
<g id="a2_007"  >
<polygon points="252,90 281,90 286,85 281,80 252,80 252,90 " style="fill:white; stroke-width:1; stroke:black; " description="&lt;b&gt;SCAT_RS10315&lt;/b&gt;&lt;br&gt;XRE family transcriptional regulator&lt;br&gt;Location: 577296 - 578144" locus_tag="SCAT_RS10315" class="clusterblast-orf" id="dummy-2_h2_9_7"  />
</g>
<g id="a2_008"  >
<polygon points="306,90 346,90 351,85 346,80 306,80 306,90 " style="fill:#3c15d8; stroke-width:1; stroke:black; " description="&lt;b&gt;SCAT_RS10320&lt;/b&gt;&lt;br&gt;polyprenyl synthetase family protein&lt;br&gt;Location: 578647 - 579750&lt;br&gt;&lt;br&gt;&lt;b&gt;BlastP hit with ctg7_98&lt;/b&gt;&lt;br&gt;Percentage identity: 51&lt;br&gt;Percentage coverage: 96&lt;br&gt;BLAST bit score: 299&lt;br&gt;E-value: 7e-79" locus_tag="SCAT_RS10320" class="clusterblast-orf" id="dummy-2_h2_9_8"  />
</g>
<g id="a2_009"  >
<polygon points="350,90 357,90 362,85 357,80 350,80 350,90 " style="fill:#d8158a; stroke-width:1; stroke:black; " description="&lt;b&gt;SCAT_RS10325&lt;/b&gt;&lt;br&gt;4-hydroxy-3-methylbut-2-enyl diphosphate reductase&lt;br&gt;Location: 579747 - 580043&lt;br&gt;&lt;br&gt;&lt;b&gt;BlastP hit with ctg7_99&lt;/b&gt;&lt;br&gt;Percentage identity: 50&lt;br&gt;Percentage coverage: 15&lt;br&gt;BLAST bit score: 59&lt;br&gt;E-value: 8.3e-07" locus_tag="SCAT_RS10325" class="clusterblast-orf" id="dummy-2_h2_9_9"  />
</g>
<g id="a2_0010"  >
<polygon points="376,90 400,90 405,85 400,80 376,80 376,90 " style="fill:#b1d815; stroke-width:1; stroke:black; " description="&lt;b&gt;SCAT_RS10330&lt;/b&gt;&lt;br&gt;glutamate dehydrogenase/leucine dehydrogenase&lt;br&gt;Location: 580378 - 581112&lt;br&gt;&lt;br&gt;&lt;b&gt;BlastP hit with ctg7_100&lt;/b&gt;&lt;br&gt;Percentage identity: 50&lt;br&gt;Percentage coverage: 69&lt;br&gt;BLAST bit score: 208&lt;br&gt;E-value: 1.5e-51" locus_tag="SCAT_RS10330" class="clusterblast-orf" id="dummy-2_h2_9_10"  />
</g>
<g id="a2_0011"  >
<polygon points="407,85 412,80 440,80 440,90 412,90 407,85 " style="fill:white; stroke-width:1; stroke:black; " description="&lt;b&gt;SCAT_RS10335&lt;/b&gt;&lt;br&gt;LysR family transcriptional regulator&lt;br&gt;Location: 581143 - 581982" locus_tag="SCAT_RS10335" class="clusterblast-orf" id="dummy-2_h2_9_11"  />
</g>
<g id="a2_0012"  >
<polygon points="445,90 489,90 494,85 489,80 445,80 445,90 " style="fill:white; stroke-width:1; stroke:black; " description="&lt;b&gt;SCAT_RS10340&lt;/b&gt;&lt;br&gt;MFS transporter&lt;br&gt;Location: 582112 - 583308" locus_tag="SCAT_RS10340" class="clusterblast-orf" id="dummy-2_h2_9_12"  />
</g>
<g id="a2_0013"  >
<polygon points="495,90 531,90 536,85 531,80 495,80 495,90 " style="fill:white; stroke-width:1; stroke:black; " description="&lt;b&gt;SCAT_RS10345&lt;/b&gt;&lt;br&gt;2-nitropropane dioxygenase&lt;br&gt;Location: 583337 - 584365" locus_tag="SCAT_RS10345" class="clusterblast-orf" id="dummy-2_h2_9_13"  />
</g>
<g id="a2_0014"  >
<polygon points="537,85 542,80 567,80 567,90 542,90 537,85 " style="fill:white; stroke-width:1; stroke:black; " description="&lt;b&gt;SCAT_RS10350&lt;/b&gt;&lt;br&gt;dienelactone hydrolase&lt;br&gt;Location: 584394 - 585143" locus_tag="SCAT_RS10350" class="clusterblast-orf" id="dummy-2_h2_9_14"  />
</g>
<g id="a2_0015"  >
<polygon points="576,85 581,80 626,80 626,90 581,90 576,85 " style="fill:white; stroke-width:1; stroke:black; " description="&lt;b&gt;SCAT_RS10355&lt;/b&gt;&lt;br&gt;lipase&lt;br&gt;Location: 585362 - 586600" locus_tag="SCAT_RS10355" class="clusterblast-orf" id="dummy-2_h2_9_15"  />
</g>
<g id="a2_0016"  >
<polygon points="640,85 645,80 663,80 663,90 645,90 640,85 " style="fill:white; stroke-width:1; stroke:black; " description="&lt;b&gt;SCAT_RS10360&lt;/b&gt;&lt;br&gt;hypothetical protein&lt;br&gt;Location: 586950 - 587513" locus_tag="SCAT_RS10360" class="clusterblast-orf" id="dummy-2_h2_9_16"  />
</g>
<g id="a2_0017"  >
<polygon points="663,85 668,80 674,80 674,90 668,90 663,85 " style="fill:white; stroke-width:1; stroke:black; " description="&lt;b&gt;SCAT_RS36900&lt;/b&gt;&lt;br&gt;hypothetical protein&lt;br&gt;Location: 587527 - 587802" locus_tag="SCAT_RS36900" class="clusterblast-orf" id="dummy-2_h2_9_17"  />
</g>
<g id="a2_0018"  >
<polygon points="676,85 681,80 690,80 690,90 681,90 676,85 " style="fill:white; stroke-width:1; stroke:black; " description="&lt;b&gt;SCAT_RS10365&lt;/b&gt;&lt;br&gt;hypothetical protein&lt;br&gt;Location: 587852 - 588199" locus_tag="SCAT_RS10365" class="clusterblast-orf" id="dummy-2_h2_9_18"  />
</g>
<g id="a2_0019"  >
<polygon points="690,90 702,90 707,85 702,80 690,80 690,90 " style="fill:white; stroke-width:1; stroke:black; " description="&lt;b&gt;SCAT_RS10370&lt;/b&gt;&lt;br&gt;hypothetical protein&lt;br&gt;Location: 588200 - 588616" locus_tag="SCAT_RS10370" class="clusterblast-orf" id="dummy-2_h2_9_19"  />
</g>
<g id="a2_0020"  >
<polygon points="707,90 755,90 760,85 755,80 707,80 707,90 " style="fill:white; stroke-width:1; stroke:black; " description="&lt;b&gt;SCAT_RS10375&lt;/b&gt;&lt;br&gt;hypothetical protein&lt;br&gt;Location: 588623 - 589924" locus_tag="SCAT_RS10375" class="clusterblast-orf" id="dummy-2_h2_9_20"  />
</g>
<g id="a2_0021"  >
<polygon points="769,90 775,90 780,85 775,80 769,80 769,90 " style="fill:white; stroke-width:1; stroke:black; " description="&lt;b&gt;SCAT_RS10380&lt;/b&gt;&lt;br&gt;hypothetical protein&lt;br&gt;Location: 590154 - 590420" locus_tag="SCAT_RS10380" class="clusterblast-orf" id="dummy-2_h2_9_21"  />
</g>
</svg>
