<svg xmlns="http://www.w3.org/2000/svg" xmlns:xlink="http://www.w3.org/1999/xlink" version="1.1" x="0" y="0" height="230" width="800" viewBox="0 0 800 230" preserveAspectRatio="none"  >
<g label="Query sequence" class="clusterblast-cluster"  >
<text x="5" y="20" class="clusterblast-acc"  >
Query sequence</text>
<line x1="10" y1="35" x2="778.0" y2="35" style="stroke-width:1; stroke:grey; "  />
<polygon points="27,40 82,40 87,35 82,30 27,30 27,40 " style="fill:#d81515; stroke-width:1; stroke:black; " description="&lt;b&gt;ctg33_16&lt;/b&gt;&lt;br&gt;ctg33 16&lt;br&gt;Location: 17109 - 17847" locus_tag="ctg33_16" class="clusterblast-orf" id="dummy-1_q0_0_all"  />
<polygon points="92,40 210,40 215,35 210,30 92,30 92,40 " style="fill:#3cd815; stroke-width:1; stroke:black; " description="&lt;b&gt;ctg33_17&lt;/b&gt;&lt;br&gt;ctg33 17&lt;br&gt;Location: 17914 - 19423" locus_tag="ctg33_17" class="clusterblast-orf" id="dummy-1_q1_0_all"  />
<polygon points="216,40 236,40 241,35 236,30 216,30 216,40 " style="fill:#1563d8; stroke-width:1; stroke:black; " description="&lt;b&gt;ctg33_18&lt;/b&gt;&lt;br&gt;ctg33 18&lt;br&gt;Location: 19438 - 19741" locus_tag="ctg33_18" class="clusterblast-orf" id="dummy-1_q2_0_all"  />
<polygon points="241,40 272,40 277,35 272,30 241,30 241,40 " style="fill:#b115d8; stroke-width:1; stroke:black; " description="&lt;b&gt;ctg33_19&lt;/b&gt;&lt;br&gt;ctg33 19&lt;br&gt;Location: 19751 - 20186" locus_tag="ctg33_19" class="clusterblast-orf" id="dummy-1_q3_0_all"  />
<polygon points="283,40 354,40 359,35 354,30 283,30 283,40 " style="fill:#d88a15; stroke-width:1; stroke:black; " description="&lt;b&gt;ctg33_20&lt;/b&gt;&lt;br&gt;ctg33 20&lt;br&gt;Location: 20267 - 21203" locus_tag="ctg33_20" class="clusterblast-orf" id="dummy-1_q4_0_all"  />
<polygon points="356,40 418,40 423,35 418,30 356,30 356,40 " style="fill:#15d863; stroke-width:1; stroke:black; " description="&lt;b&gt;ctg33_21&lt;/b&gt;&lt;br&gt;ctg33 21&lt;br&gt;Location: 21162 - 21984" locus_tag="ctg33_21" class="clusterblast-orf" id="dummy-1_q5_0_all"  />
<polygon points="423,40 445,40 450,35 445,30 423,30 423,40 " style="fill:#3c15d8; stroke-width:1; stroke:black; " description="&lt;b&gt;ctg33_22&lt;/b&gt;&lt;br&gt;ctg33 22&lt;br&gt;Location: 21980 - 22319" locus_tag="ctg33_22" class="clusterblast-orf" id="dummy-1_q6_0_all"  />
<polygon points="476,35 481,30 584,30 584,40 481,40 476,35 " style="fill:#d8158a; stroke-width:1; stroke:black; " description="&lt;b&gt;ctg33_23&lt;/b&gt;&lt;br&gt;ctg33 23&lt;br&gt;Location: 22642 - 23962" locus_tag="ctg33_23" class="clusterblast-orf" id="dummy-1_q7_0_all"  />
<polygon points="584,35 589,30 640,30 640,40 589,40 584,35 " style="fill:#b1d815; stroke-width:1; stroke:black; " description="&lt;b&gt;ctg33_24&lt;/b&gt;&lt;br&gt;ctg33 24&lt;br&gt;Location: 23962 - 24655" locus_tag="ctg33_24" class="clusterblast-orf" id="dummy-1_q8_0_all"  />
<polygon points="643,35 648,30 754,30 754,40 648,40 643,35 " style="fill:#15d8d8; stroke-width:1; stroke:black; " description="&lt;b&gt;ctg33_25&lt;/b&gt;&lt;br&gt;ctg33 25&lt;br&gt;Location: 24688 - 26056" locus_tag="ctg33_25" class="clusterblast-orf" id="dummy-1_q9_0_all"  />
</g>
<g label="NZ_CP009110" description="NZ_CP009110_c11: Amycolatopsis methanolica 239, complete genome (83% of genes show similarity), bacteriocin" class="clusterblast-cluster"  >
<text x="5" y="70" class="clusterblast-acc"  >
<a xlink:href="https://antismash-db.secondarymetabolites.org/go/NZ_CP009110/11" target="_blank">NZ_CP009110_c11</a>: Amycolatopsis methanolica 239, complete genome (83% of genes show similarity), bacteriocin</text>
<line x1="10" y1="85" x2="778.0" y2="85" style="stroke-width:1; stroke:grey; "  />
</g>
<g id="a1_000"  >
<polygon points="0,90 52,90 57,85 52,80 0,80 0,90 " style="fill:#d81515; stroke-width:1; stroke:black; " description="&lt;b&gt;AMETH_RS23725&lt;/b&gt;&lt;br&gt;TVP38/TMEM64 family protein&lt;br&gt;Location: 4876504 - 4877214&lt;br&gt;&lt;br&gt;&lt;b&gt;BlastP hit with ctg33_16&lt;/b&gt;&lt;br&gt;Percentage identity: 92&lt;br&gt;Percentage coverage: 96&lt;br&gt;BLAST bit score: 405&lt;br&gt;E-value: 3.6e-111" locus_tag="AMETH_RS23725" class="clusterblast-orf" id="dummy-1_h1_1_0"  />
</g>
<g id="a1_001"  >
<polygon points="59,90 180,90 185,85 180,80 59,80 59,90 " style="fill:#3cd815; stroke-width:1; stroke:black; " description="&lt;b&gt;AMETH_RS23730&lt;/b&gt;&lt;br&gt;serine/threonine protein kinase&lt;br&gt;Location: 4877234 - 4878784&lt;br&gt;&lt;br&gt;&lt;b&gt;BlastP hit with ctg33_17&lt;/b&gt;&lt;br&gt;Percentage identity: 86&lt;br&gt;Percentage coverage: 100&lt;br&gt;BLAST bit score: 606&lt;br&gt;E-value: 2.2e-171" locus_tag="AMETH_RS23730" class="clusterblast-orf" id="dummy-1_h1_1_1"  />
</g>
<g id="a1_002"  >
<polygon points="186,90 205,90 210,85 205,80 186,80 186,90 " style="fill:#1563d8; stroke-width:1; stroke:black; " description="&lt;b&gt;AMETH_RS23735&lt;/b&gt;&lt;br&gt;hypothetical protein&lt;br&gt;Location: 4878800 - 4879090&lt;br&gt;&lt;br&gt;&lt;b&gt;BlastP hit with ctg33_18&lt;/b&gt;&lt;br&gt;Percentage identity: 90&lt;br&gt;Percentage coverage: 90&lt;br&gt;BLAST bit score: 170&lt;br&gt;E-value: 1e-40" locus_tag="AMETH_RS23735" class="clusterblast-orf" id="dummy-1_h1_1_2"  />
</g>
<g id="a1_003"  >
<polygon points="212,90 241,90 246,85 241,80 212,80 212,90 " style="fill:#b115d8; stroke-width:1; stroke:black; " description="&lt;b&gt;AMETH_RS23740&lt;/b&gt;&lt;br&gt;peptide-methionine (R)-S-oxide reductase&lt;br&gt;Location: 4879113 - 4879535&lt;br&gt;&lt;br&gt;&lt;b&gt;BlastP hit with ctg33_19&lt;/b&gt;&lt;br&gt;Percentage identity: 95&lt;br&gt;Percentage coverage: 97&lt;br&gt;BLAST bit score: 290&lt;br&gt;E-value: 7.5e-77" locus_tag="AMETH_RS23740" class="clusterblast-orf" id="dummy-1_h1_1_3"  />
</g>
<g id="a1_004"  >
<polygon points="270,90 292,90 297,85 292,80 270,80 270,90 " style="fill:white; stroke-width:1; stroke:black; " description="&lt;b&gt;AMETH_RS23745&lt;/b&gt;&lt;br&gt;hypothetical protein&lt;br&gt;Location: 4879828 - 4880160" locus_tag="AMETH_RS23745" class="clusterblast-orf" id="dummy-1_h1_1_4"  />
</g>
<g id="a1_005"  >
<polygon points="295,90 363,90 368,85 363,80 295,80 295,90 " style="fill:#d88a15; stroke-width:1; stroke:black; " description="&lt;b&gt;AMETH_RS23750&lt;/b&gt;&lt;br&gt;TIGR04222 domain-containing membrane protein&lt;br&gt;Location: 4880141 - 4881037&lt;br&gt;&lt;br&gt;&lt;b&gt;BlastP hit with ctg33_20&lt;/b&gt;&lt;br&gt;Percentage identity: 61&lt;br&gt;Percentage coverage: 81&lt;br&gt;BLAST bit score: 279&lt;br&gt;E-value: 6.4e-73" locus_tag="AMETH_RS23750" class="clusterblast-orf" id="dummy-1_h1_1_5"  />
</g>
<g id="a1_006"  >
<polygon points="371,90 433,90 438,85 433,80 371,80 371,90 " style="fill:#15d863; stroke-width:1; stroke:black; " description="&lt;b&gt;AMETH_RS23755&lt;/b&gt;&lt;br&gt;DUF692 domain-containing protein&lt;br&gt;Location: 4881076 - 4881894&lt;br&gt;&lt;br&gt;&lt;b&gt;BlastP hit with ctg33_21&lt;/b&gt;&lt;br&gt;Percentage identity: 89&lt;br&gt;Percentage coverage: 98&lt;br&gt;BLAST bit score: 470&lt;br&gt;E-value: 1.3e-130" locus_tag="AMETH_RS23755" class="clusterblast-orf" id="dummy-1_h1_1_6"  />
</g>
<g id="a1_007"  >
<polygon points="444,90 467,90 472,85 467,80 444,80 444,90 " style="fill:#3c15d8; stroke-width:1; stroke:black; " description="&lt;b&gt;AMETH_RS23760&lt;/b&gt;&lt;br&gt;hypothetical protein&lt;br&gt;Location: 4881968 - 4882315&lt;br&gt;&lt;br&gt;&lt;b&gt;BlastP hit with ctg33_22&lt;/b&gt;&lt;br&gt;Percentage identity: 75&lt;br&gt;Percentage coverage: 96&lt;br&gt;BLAST bit score: 155&lt;br&gt;E-value: 2.9e-36" locus_tag="AMETH_RS23760" class="clusterblast-orf" id="dummy-1_h1_1_7"  />
</g>
<g id="a1_008"  >
<polygon points="471,85 476,80 501,80 501,90 476,90 471,85 " style="fill:white; stroke-width:1; stroke:black; " description="&lt;b&gt;AMETH_RS37260&lt;/b&gt;&lt;br&gt;hypothetical protein&lt;br&gt;Location: 4882302 - 4882678" locus_tag="AMETH_RS37260" class="clusterblast-orf" id="dummy-1_h1_1_8"  />
</g>
<g id="a1_009"  >
<polygon points="502,85 507,80 609,80 609,90 507,90 502,85 " style="fill:#d8158a; stroke-width:1; stroke:black; " description="&lt;b&gt;AMETH_RS23770&lt;/b&gt;&lt;br&gt;CoA transferase&lt;br&gt;Location: 4882686 - 4884005&lt;br&gt;&lt;br&gt;&lt;b&gt;BlastP hit with ctg33_23&lt;/b&gt;&lt;br&gt;Percentage identity: 73&lt;br&gt;Percentage coverage: 100&lt;br&gt;BLAST bit score: 622&lt;br&gt;E-value: 4.3e-176" locus_tag="AMETH_RS23770" class="clusterblast-orf" id="dummy-1_h1_1_9"  />
</g>
<g id="a1_0010"  >
<polygon points="609,85 614,80 666,80 666,90 614,90 609,85 " style="fill:#b1d815; stroke-width:1; stroke:black; " description="&lt;b&gt;AMETH_RS23775&lt;/b&gt;&lt;br&gt;hypothetical protein&lt;br&gt;Location: 4884006 - 4884698&lt;br&gt;&lt;br&gt;&lt;b&gt;BlastP hit with ctg33_24&lt;/b&gt;&lt;br&gt;Percentage identity: 91&lt;br&gt;Percentage coverage: 100&lt;br&gt;BLAST bit score: 442&lt;br&gt;E-value: 2.5e-122" locus_tag="AMETH_RS23775" class="clusterblast-orf" id="dummy-1_h1_1_10"  />
</g>
<g id="a1_0011"  >
<polygon points="668,85 673,80 780,80 780,90 673,90 668,85 " style="fill:#15d8d8; stroke-width:1; stroke:black; " description="&lt;b&gt;AMETH_RS23780&lt;/b&gt;&lt;br&gt;protoporphyrinogen oxidase&lt;br&gt;Location: 4884732 - 4886099&lt;br&gt;&lt;br&gt;&lt;b&gt;BlastP hit with ctg33_25&lt;/b&gt;&lt;br&gt;Percentage identity: 87&lt;br&gt;Percentage coverage: 100&lt;br&gt;BLAST bit score: 750&lt;br&gt;E-value: 8.4e-215" locus_tag="AMETH_RS23780" class="clusterblast-orf" id="dummy-1_h1_1_11"  />
</g>
</svg>
