<svg xmlns="http://www.w3.org/2000/svg" xmlns:xlink="http://www.w3.org/1999/xlink" version="1.1" x="0" y="0" height="230" width="800" viewBox="0 0 800 230" preserveAspectRatio="none"  >
<g label="Query sequence" class="clusterblast-cluster"  >
<text x="5" y="20" class="clusterblast-acc"  >
Query sequence</text>
<line x1="10" y1="35" x2="778.0" y2="35" style="stroke-width:1; stroke:grey; "  />
<polygon points="0,40 18,40 23,35 18,30 0,30 0,40 " style="fill:#d81515; stroke-width:1; stroke:black; " description="&lt;b&gt;ctg19_29&lt;/b&gt;&lt;br&gt;ctg19 29&lt;br&gt;Location: 32747 - 33536" locus_tag="ctg19_29" class="clusterblast-orf" id="dummy-1_q0_0_all"  />
<polygon points="23,40 37,40 42,35 37,30 23,30 23,40 " style="fill:#54d815; stroke-width:1; stroke:black; " description="&lt;b&gt;ctg19_30&lt;/b&gt;&lt;br&gt;ctg19 30&lt;br&gt;Location: 33532 - 34174" locus_tag="ctg19_30" class="clusterblast-orf" id="dummy-1_q1_0_all"  />
<polygon points="42,40 68,40 73,35 68,30 42,30 42,40 " style="fill:#15c1d8; stroke-width:1; stroke:black; " description="&lt;b&gt;ctg19_31&lt;/b&gt;&lt;br&gt;ctg19 31&lt;br&gt;Location: 34177 - 35200" locus_tag="ctg19_31" class="clusterblast-orf" id="dummy-1_q2_0_all"  />
<polygon points="73,40 105,40 110,35 105,30 73,30 73,40 " style="fill:#8215d8; stroke-width:1; stroke:black; " description="&lt;b&gt;ctg19_32&lt;/b&gt;&lt;br&gt;ctg19 32&lt;br&gt;Location: 35199 - 36453" locus_tag="ctg19_32" class="clusterblast-orf" id="dummy-1_q3_0_all"  />
<polygon points="110,40 143,40 148,35 143,30 110,30 110,40 " style="fill:#d84415; stroke-width:1; stroke:black; " description="&lt;b&gt;ctg19_33&lt;/b&gt;&lt;br&gt;ctg19 33&lt;br&gt;Location: 36457 - 37738" locus_tag="ctg19_33" class="clusterblast-orf" id="dummy-1_q4_0_all"  />
<polygon points="148,40 168,40 173,35 168,30 148,30 148,40 " style="fill:#25d815; stroke-width:1; stroke:black; " description="&lt;b&gt;ctg19_34&lt;/b&gt;&lt;br&gt;ctg19 34&lt;br&gt;Location: 37734 - 38592" locus_tag="ctg19_34" class="clusterblast-orf" id="dummy-1_q5_0_all"  />
<polygon points="173,40 203,40 208,35 203,30 173,30 173,40 " style="fill:#1592d8; stroke-width:1; stroke:black; " description="&lt;b&gt;ctg19_35&lt;/b&gt;&lt;br&gt;ctg19 35&lt;br&gt;Location: 38588 - 39767" locus_tag="ctg19_35" class="clusterblast-orf" id="dummy-1_q6_0_all"  />
<polygon points="208,40 219,40 224,35 219,30 208,30 208,40 " style="fill:#b115d8; stroke-width:1; stroke:black; " description="&lt;b&gt;ctg19_36&lt;/b&gt;&lt;br&gt;ctg19 36&lt;br&gt;Location: 39763 - 40312" locus_tag="ctg19_36" class="clusterblast-orf" id="dummy-1_q7_0_all"  />
<polygon points="224,40 258,40 263,35 258,30 224,30 224,40 " style="fill:#d87315; stroke-width:1; stroke:black; " description="&lt;b&gt;ctg19_37&lt;/b&gt;&lt;br&gt;ctg19 37&lt;br&gt;Location: 40317 - 41631" locus_tag="ctg19_37" class="clusterblast-orf" id="dummy-1_q8_0_all"  />
<polygon points="262,35 267,30 282,30 282,40 267,40 262,35 " style="fill:#15d834; stroke-width:1; stroke:black; " description="&lt;b&gt;ctg19_38&lt;/b&gt;&lt;br&gt;ctg19 38&lt;br&gt;Location: 41602 - 42271" locus_tag="ctg19_38" class="clusterblast-orf" id="dummy-1_q9_0_all"  />
<polygon points="285,40 288,40 293,35 288,30 285,30 285,40 " style="fill:#1563d8; stroke-width:1; stroke:black; " description="&lt;b&gt;ctg19_39&lt;/b&gt;&lt;br&gt;ctg19 39&lt;br&gt;Location: 42369 - 42621" locus_tag="ctg19_39" class="clusterblast-orf" id="dummy-1_q10_0_all"  />
<polygon points="292,40 320,40 325,35 320,30 292,30 292,40 " style="fill:#d815d0; stroke-width:1; stroke:black; " description="&lt;b&gt;ctg19_40&lt;/b&gt;&lt;br&gt;ctg19 40&lt;br&gt;Location: 42601 - 43720" locus_tag="ctg19_40" class="clusterblast-orf" id="dummy-1_q11_0_all"  />
<polygon points="325,40 332,40 337,35 332,30 325,30 325,40 " style="fill:#d8a215; stroke-width:1; stroke:black; " description="&lt;b&gt;ctg19_41&lt;/b&gt;&lt;br&gt;ctg19 41&lt;br&gt;Location: 43716 - 44127" locus_tag="ctg19_41" class="clusterblast-orf" id="dummy-1_q12_0_all"  />
<polygon points="338,40 360,40 365,35 360,30 338,30 338,40 " style="fill:#15d863; stroke-width:1; stroke:black; " description="&lt;b&gt;ctg19_42&lt;/b&gt;&lt;br&gt;ctg19 42&lt;br&gt;Location: 44132 - 45044" locus_tag="ctg19_42" class="clusterblast-orf" id="dummy-1_q13_0_all"  />
<polygon points="384,35 389,30 437,30 437,40 389,40 384,35 " style="fill:#1534d8; stroke-width:1; stroke:black; " description="&lt;b&gt;ctg19_43&lt;/b&gt;&lt;br&gt;ctg19 43&lt;br&gt;Location: 45709 - 47491" locus_tag="ctg19_43" class="clusterblast-orf" id="dummy-1_q14_0_all"  />
<polygon points="442,40 446,35 442,30 442,40 " style="fill:#d815a2; stroke-width:1; stroke:black; " description="&lt;b&gt;ctg19_44&lt;/b&gt;&lt;br&gt;ctg19 44&lt;br&gt;Location: 47667 - 47805" locus_tag="ctg19_44" class="clusterblast-orf" id="dummy-1_q15_0_all"  />
<polygon points="448,40 452,35 448,30 448,40 " style="fill:#d8d015; stroke-width:1; stroke:black; " description="&lt;b&gt;ctg19_45&lt;/b&gt;&lt;br&gt;ctg19 45&lt;br&gt;Location: 47849 - 47990" locus_tag="ctg19_45" class="clusterblast-orf" id="dummy-1_q16_0_all"  />
<polygon points="455,40 483,40 488,35 483,30 455,30 455,40 " style="fill:#d815d0; stroke-width:1; stroke:black; " description="&lt;b&gt;ctg19_46&lt;/b&gt;&lt;br&gt;ctg19 46&lt;br&gt;Location: 48076 - 49192" locus_tag="ctg19_46" class="clusterblast-orf" id="dummy-1_q17_0_all"  />
<polygon points="488,35 493,30 521,30 521,40 493,40 488,35 " style="fill:#15d892; stroke-width:1; stroke:black; " description="&lt;b&gt;ctg19_47&lt;/b&gt;&lt;br&gt;ctg19 47&lt;br&gt;Location: 49200 - 50328" locus_tag="ctg19_47" class="clusterblast-orf" id="dummy-1_q18_0_all"  />
<polygon points="522,35 527,30 568,30 568,40 527,40 522,35 " style="fill:#2515d8; stroke-width:1; stroke:black; " description="&lt;b&gt;ctg19_48&lt;/b&gt;&lt;br&gt;ctg19 48&lt;br&gt;Location: 50340 - 51891" locus_tag="ctg19_48" class="clusterblast-orf" id="dummy-1_q19_0_all"  />
<polygon points="569,35 574,30 588,30 588,40 574,40 569,35 " style="fill:#15d834; stroke-width:1; stroke:black; " description="&lt;b&gt;ctg19_49&lt;/b&gt;&lt;br&gt;ctg19 49&lt;br&gt;Location: 51950 - 52571" locus_tag="ctg19_49" class="clusterblast-orf" id="dummy-1_q20_0_all"  />
<polygon points="589,35 594,30 619,30 619,40 594,40 589,35 " style="fill:#d81573; stroke-width:1; stroke:black; " description="&lt;b&gt;ctg19_50&lt;/b&gt;&lt;br&gt;ctg19 50&lt;br&gt;Location: 52614 - 53625" locus_tag="ctg19_50" class="clusterblast-orf" id="dummy-1_q21_0_all"  />
<polygon points="618,35 623,30 639,30 639,40 623,40 618,35 " style="fill:#b1d815; stroke-width:1; stroke:black; " description="&lt;b&gt;ctg19_51&lt;/b&gt;&lt;br&gt;ctg19 51&lt;br&gt;Location: 53600 - 54299" locus_tag="ctg19_51" class="clusterblast-orf" id="dummy-1_q22_0_all"  />
<polygon points="639,35 644,30 672,30 672,40 644,40 639,35 " style="fill:#15d8c1; stroke-width:1; stroke:black; " description="&lt;b&gt;ctg19_52&lt;/b&gt;&lt;br&gt;ctg19 52&lt;br&gt;Location: 54295 - 55405" locus_tag="ctg19_52" class="clusterblast-orf" id="dummy-1_q23_0_all"  />
<polygon points="672,35 677,30 706,30 706,40 677,40 672,35 " style="fill:#5415d8; stroke-width:1; stroke:black; " description="&lt;b&gt;ctg19_53&lt;/b&gt;&lt;br&gt;ctg19 53&lt;br&gt;Location: 55401 - 56565" locus_tag="ctg19_53" class="clusterblast-orf" id="dummy-1_q24_0_all"  />
<polygon points="706,35 711,30 741,30 741,40 711,40 706,35 " style="fill:#d81544; stroke-width:1; stroke:black; " description="&lt;b&gt;ctg19_54&lt;/b&gt;&lt;br&gt;ctg19 54&lt;br&gt;Location: 56539 - 57730" locus_tag="ctg19_54" class="clusterblast-orf" id="dummy-1_q25_0_all"  />
<polygon points="743,35 748,30 780,30 780,40 748,40 743,35 " style="fill:#82d815; stroke-width:1; stroke:black; " description="&lt;b&gt;ctg19_55&lt;/b&gt;&lt;br&gt;ctg19 55&lt;br&gt;Location: 57797 - 59042" locus_tag="ctg19_55" class="clusterblast-orf" id="dummy-1_q26_0_all"  />
</g>
<g label="NZ_KI421511" description="NZ_KI421511_c11: Amycolatopsis thermoflava N1165 AmythDRAFT Scaffold1.2, whol... (88% of genes show similarity), lassopeptide" class="clusterblast-cluster"  >
<text x="5" y="70" class="clusterblast-acc"  >
<a xlink:href="https://antismash-db.secondarymetabolites.org/go/NZ_KI421511/11" target="_blank">NZ_KI421511_c11</a>: Amycolatopsis thermoflava N1165 AmythDRAFT Scaffold1.2, whol... (88% of genes show similarity), lassopeptide</text>
<line x1="10" y1="85" x2="778.0" y2="85" style="stroke-width:1; stroke:grey; "  />
</g>
<g id="a1_000"  >
<polygon points="15,90 34,90 39,85 34,80 15,80 15,90 " style="fill:#d81515; stroke-width:1; stroke:black; " description="&lt;b&gt;AMYTH_RS0126040&lt;/b&gt;&lt;br&gt;glucose-1-phosphate cytidylyltransferase&lt;br&gt;Location: 5309007 - 5308219&lt;br&gt;&lt;br&gt;&lt;b&gt;BlastP hit with ctg19_29&lt;/b&gt;&lt;br&gt;Percentage identity: 96&lt;br&gt;Percentage coverage: 100&lt;br&gt;BLAST bit score: 542&lt;br&gt;E-value: 2.6e-152" locus_tag="AMYTH_RS0126040" class="clusterblast-orf" id="dummy-1_h1_3_0"  />
</g>
<g id="a1_001"  >
<polygon points="38,90 52,90 57,85 52,80 38,80 38,90 " style="fill:#54d815; stroke-width:1; stroke:black; " description="&lt;b&gt;AMYTH_RS0126035&lt;/b&gt;&lt;br&gt;GlcNAc-PI de-N-acetylase&lt;br&gt;Location: 5308222 - 5307581&lt;br&gt;&lt;br&gt;&lt;b&gt;BlastP hit with ctg19_30&lt;/b&gt;&lt;br&gt;Percentage identity: 91&lt;br&gt;Percentage coverage: 100&lt;br&gt;BLAST bit score: 402&lt;br&gt;E-value: 2.6e-110" locus_tag="AMYTH_RS0126035" class="clusterblast-orf" id="dummy-1_h1_3_1"  />
</g>
<g id="a1_002"  >
<polygon points="58,90 83,90 88,85 83,80 58,80 58,90 " style="fill:#15c1d8; stroke-width:1; stroke:black; " description="&lt;b&gt;AMYTH_RS0126030&lt;/b&gt;&lt;br&gt;NAD-dependent epimerase/dehydratase&lt;br&gt;Location: 5307577 - 5306555&lt;br&gt;&lt;br&gt;&lt;b&gt;BlastP hit with ctg19_31&lt;/b&gt;&lt;br&gt;Percentage identity: 95&lt;br&gt;Percentage coverage: 100&lt;br&gt;BLAST bit score: 643&lt;br&gt;E-value: 1.4e-182" locus_tag="AMYTH_RS0126030" class="clusterblast-orf" id="dummy-1_h1_3_2"  />
</g>
<g id="a1_003"  >
<polygon points="88,90 120,90 125,85 120,80 88,80 88,90 " style="fill:#8215d8; stroke-width:1; stroke:black; " description="&lt;b&gt;AMYTH_RS0126025&lt;/b&gt;&lt;br&gt;DUF4910 domain-containing protein&lt;br&gt;Location: 5306555 - 5305302&lt;br&gt;&lt;br&gt;&lt;b&gt;BlastP hit with ctg19_32&lt;/b&gt;&lt;br&gt;Percentage identity: 90&lt;br&gt;Percentage coverage: 100&lt;br&gt;BLAST bit score: 782&lt;br&gt;E-value: 2.4e-224" locus_tag="AMYTH_RS0126025" class="clusterblast-orf" id="dummy-1_h1_3_3"  />
</g>
<g id="a1_004"  >
<polygon points="125,90 158,90 163,85 158,80 125,80 125,90 " style="fill:#d84415; stroke-width:1; stroke:black; " description="&lt;b&gt;AMYTH_RS0126020&lt;/b&gt;&lt;br&gt;membrane protein&lt;br&gt;Location: 5305297 - 5304011&lt;br&gt;&lt;br&gt;&lt;b&gt;BlastP hit with ctg19_33&lt;/b&gt;&lt;br&gt;Percentage identity: 90&lt;br&gt;Percentage coverage: 100&lt;br&gt;BLAST bit score: 729&lt;br&gt;E-value: 2.5e-208" locus_tag="AMYTH_RS0126020" class="clusterblast-orf" id="dummy-1_h1_3_4"  />
</g>
<g id="a1_005"  >
<polygon points="163,90 184,90 189,85 184,80 163,80 163,90 " style="fill:#25d815; stroke-width:1; stroke:black; " description="&lt;b&gt;AMYTH_RS0126015&lt;/b&gt;&lt;br&gt;glycosyltransferase family 2 protein&lt;br&gt;Location: 5304014 - 5303157&lt;br&gt;&lt;br&gt;&lt;b&gt;BlastP hit with ctg19_34&lt;/b&gt;&lt;br&gt;Percentage identity: 90&lt;br&gt;Percentage coverage: 100&lt;br&gt;BLAST bit score: 540&lt;br&gt;E-value: 1.4e-151" locus_tag="AMYTH_RS0126015" class="clusterblast-orf" id="dummy-1_h1_3_5"  />
</g>
<g id="a1_006"  >
<polygon points="189,90 219,90 224,85 219,80 189,80 189,90 " style="fill:#1592d8; stroke-width:1; stroke:black; " description="&lt;b&gt;AMYTH_RS0126010&lt;/b&gt;&lt;br&gt;membrane protein&lt;br&gt;Location: 5303160 - 5301982&lt;br&gt;&lt;br&gt;&lt;b&gt;BlastP hit with ctg19_35&lt;/b&gt;&lt;br&gt;Percentage identity: 88&lt;br&gt;Percentage coverage: 100&lt;br&gt;BLAST bit score: 693&lt;br&gt;E-value: 1.1e-197" locus_tag="AMYTH_RS0126010" class="clusterblast-orf" id="dummy-1_h1_3_6"  />
</g>
<g id="a1_007"  >
<polygon points="223,90 235,90 240,85 235,80 223,80 223,90 " style="fill:#b115d8; stroke-width:1; stroke:black; " description="&lt;b&gt;AMYTH_RS0126005&lt;/b&gt;&lt;br&gt;dTDP-4-keto-6-deoxy-D-glucose epimerase&lt;br&gt;Location: 5301985 - 5301437&lt;br&gt;&lt;br&gt;&lt;b&gt;BlastP hit with ctg19_36&lt;/b&gt;&lt;br&gt;Percentage identity: 90&lt;br&gt;Percentage coverage: 100&lt;br&gt;BLAST bit score: 344&lt;br&gt;E-value: 5.6e-93" locus_tag="AMYTH_RS0126005" class="clusterblast-orf" id="dummy-1_h1_3_7"  />
</g>
<g id="a1_008"  >
<polygon points="240,90 274,90 279,85 274,80 240,80 240,90 " style="fill:#d87315; stroke-width:1; stroke:black; " description="&lt;b&gt;AMYTH_RS0126000&lt;/b&gt;&lt;br&gt;glutamate-1-semialdehyde 2,1-aminomutase&lt;br&gt;Location: 5301431 - 5300118&lt;br&gt;&lt;br&gt;&lt;b&gt;BlastP hit with ctg19_37&lt;/b&gt;&lt;br&gt;Percentage identity: 92&lt;br&gt;Percentage coverage: 100&lt;br&gt;BLAST bit score: 811&lt;br&gt;E-value: 5e-233" locus_tag="AMYTH_RS0126000" class="clusterblast-orf" id="dummy-1_h1_3_8"  />
</g>
<g id="a1_009"  >
<polygon points="278,85 283,80 298,80 298,90 283,90 278,85 " style="fill:#15d834; stroke-width:1; stroke:black; " description="&lt;b&gt;AMYTH_RS0125995&lt;/b&gt;&lt;br&gt;phosphatase PAP2 family protein&lt;br&gt;Location: 5300146 - 5299478&lt;br&gt;&lt;br&gt;&lt;b&gt;BlastP hit with ctg19_38&lt;/b&gt;&lt;br&gt;Percentage identity: 73&lt;br&gt;Percentage coverage: 100&lt;br&gt;BLAST bit score: 316&lt;br&gt;E-value: 3.4e-84&lt;br&gt;&lt;br&gt;&lt;b&gt;BlastP hit with ctg19_49&lt;/b&gt;&lt;br&gt;Percentage identity: 44&lt;br&gt;Percentage coverage: 98&lt;br&gt;BLAST bit score: 149&lt;br&gt;E-value: 3e-34" locus_tag="AMYTH_RS0125995" class="clusterblast-orf" id="dummy-1_h1_3_9"  />
</g>
<g id="a1_0010"  >
<polygon points="301,90 303,90 308,85 303,80 301,80 301,90 " style="fill:#1563d8; stroke-width:1; stroke:black; " description="&lt;b&gt;AMYTH_RS0125990&lt;/b&gt;&lt;br&gt;PqqD family protein&lt;br&gt;Location: 5299379 - 5299128&lt;br&gt;&lt;br&gt;&lt;b&gt;BlastP hit with ctg19_39&lt;/b&gt;&lt;br&gt;Percentage identity: 93&lt;br&gt;Percentage coverage: 100&lt;br&gt;BLAST bit score: 149&lt;br&gt;E-value: 1.2e-34" locus_tag="AMYTH_RS0125990" class="clusterblast-orf" id="dummy-1_h1_3_10"  />
</g>
<g id="a1_0011"  >
<polygon points="308,90 336,90 341,85 336,80 308,80 308,90 " style="fill:#d815d0; stroke-width:1; stroke:black; " description="&lt;b&gt;AMYTH_RS0125985&lt;/b&gt;&lt;br&gt;hypothetical protein&lt;br&gt;Location: 5299147 - 5298035&lt;br&gt;&lt;br&gt;&lt;b&gt;BlastP hit with ctg19_40&lt;/b&gt;&lt;br&gt;Percentage identity: 74&lt;br&gt;Percentage coverage: 99&lt;br&gt;BLAST bit score: 525&lt;br&gt;E-value: 4.7e-147&lt;br&gt;&lt;br&gt;&lt;b&gt;BlastP hit with ctg19_46&lt;/b&gt;&lt;br&gt;Percentage identity: 42&lt;br&gt;Percentage coverage: 96&lt;br&gt;BLAST bit score: 237&lt;br&gt;E-value: 2.5e-60" locus_tag="AMYTH_RS0125985" class="clusterblast-orf" id="dummy-1_h1_3_11"  />
</g>
<g id="a1_0012"  >
<polygon points="341,90 348,90 353,85 348,80 341,80 341,90 " style="fill:#d8a215; stroke-width:1; stroke:black; " description="&lt;b&gt;AMYTH_RS0125980&lt;/b&gt;&lt;br&gt;hypothetical protein&lt;br&gt;Location: 5298011 - 5297628&lt;br&gt;&lt;br&gt;&lt;b&gt;BlastP hit with ctg19_41&lt;/b&gt;&lt;br&gt;Percentage identity: 80&lt;br&gt;Percentage coverage: 93&lt;br&gt;BLAST bit score: 197&lt;br&gt;E-value: 8.2e-49" locus_tag="AMYTH_RS0125980" class="clusterblast-orf" id="dummy-1_h1_3_12"  />
</g>
<g id="a1_0013"  >
<polygon points="353,90 375,90 380,85 375,80 353,80 353,90 " style="fill:#15d863; stroke-width:1; stroke:black; " description="&lt;b&gt;AMYTH_RS45730&lt;/b&gt;&lt;br&gt;hypothetical protein&lt;br&gt;Location: 5297622 - 5296705&lt;br&gt;&lt;br&gt;&lt;b&gt;BlastP hit with ctg19_42&lt;/b&gt;&lt;br&gt;Percentage identity: 81&lt;br&gt;Percentage coverage: 100&lt;br&gt;BLAST bit score: 480&lt;br&gt;E-value: 1.1e-133" locus_tag="AMYTH_RS45730" class="clusterblast-orf" id="dummy-1_h1_3_13"  />
</g>
<g id="a1_0014"  >
<polygon points="380,85 385,80 432,80 432,90 385,90 380,85 " style="fill:#1534d8; stroke-width:1; stroke:black; " description="&lt;b&gt;AMYTH_RS0125965&lt;/b&gt;&lt;br&gt;ABC transporter ATP-binding protein&lt;br&gt;Location: 5296722 - 5294944&lt;br&gt;&lt;br&gt;&lt;b&gt;BlastP hit with ctg19_43&lt;/b&gt;&lt;br&gt;Percentage identity: 90&lt;br&gt;Percentage coverage: 100&lt;br&gt;BLAST bit score: 992&lt;br&gt;E-value: 2.2e-287" locus_tag="AMYTH_RS0125965" class="clusterblast-orf" id="dummy-1_h1_3_14"  />
</g>
<g id="a1_0015"  >
<polygon points="450,90 478,90 483,85 478,80 450,80 450,90 " style="fill:#d815d0; stroke-width:1; stroke:black; " description="&lt;b&gt;AMYTH_RS0125950&lt;/b&gt;&lt;br&gt;hypothetical protein&lt;br&gt;Location: 5294349 - 5293234&lt;br&gt;&lt;br&gt;&lt;b&gt;BlastP hit with ctg19_40&lt;/b&gt;&lt;br&gt;Percentage identity: 42&lt;br&gt;Percentage coverage: 90&lt;br&gt;BLAST bit score: 211&lt;br&gt;E-value: 2e-52&lt;br&gt;&lt;br&gt;&lt;b&gt;BlastP hit with ctg19_46&lt;/b&gt;&lt;br&gt;Percentage identity: 85&lt;br&gt;Percentage coverage: 100&lt;br&gt;BLAST bit score: 634&lt;br&gt;E-value: 9.3e-180" locus_tag="AMYTH_RS0125950" class="clusterblast-orf" id="dummy-1_h1_3_15"  />
</g>
<g id="a1_0016"  >
<polygon points="487,90 507,90 512,85 507,80 487,80 487,90 " style="fill:white; stroke-width:1; stroke:black; " description="&lt;b&gt;AMYTH_RS0125945&lt;/b&gt;&lt;br&gt;XRE family transcriptional regulator&lt;br&gt;Location: 5293098 - 5292247" locus_tag="AMYTH_RS0125945" class="clusterblast-orf" id="dummy-1_h1_3_16"  />
</g>
<g id="a1_0017"  >
<polygon points="512,90 535,90 540,85 535,80 512,80 512,90 " style="fill:white; stroke-width:1; stroke:black; " description="&lt;b&gt;AMYTH_RS0125940&lt;/b&gt;&lt;br&gt;hypothetical protein&lt;br&gt;Location: 5292250 - 5291321" locus_tag="AMYTH_RS0125940" class="clusterblast-orf" id="dummy-1_h1_3_17"  />
</g>
<g id="a1_0018"  >
<polygon points="540,85 545,80 574,80 574,90 545,90 540,85 " style="fill:#15d892; stroke-width:1; stroke:black; " description="&lt;b&gt;AMYTH_RS0125935&lt;/b&gt;&lt;br&gt;hypothetical protein&lt;br&gt;Location: 5291317 - 5290175&lt;br&gt;&lt;br&gt;&lt;b&gt;BlastP hit with ctg19_47&lt;/b&gt;&lt;br&gt;Percentage identity: 85&lt;br&gt;Percentage coverage: 99&lt;br&gt;BLAST bit score: 631&lt;br&gt;E-value: 8e-179" locus_tag="AMYTH_RS0125935" class="clusterblast-orf" id="dummy-1_h1_3_18"  />
</g>
<g id="a1_0019"  >
<polygon points="574,85 579,80 619,80 619,90 579,90 574,85 " style="fill:#2515d8; stroke-width:1; stroke:black; " description="&lt;b&gt;AMYTH_RS0125930&lt;/b&gt;&lt;br&gt;hypothetical protein&lt;br&gt;Location: 5290178 - 5288646&lt;br&gt;&lt;br&gt;&lt;b&gt;BlastP hit with ctg19_48&lt;/b&gt;&lt;br&gt;Percentage identity: 78&lt;br&gt;Percentage coverage: 99&lt;br&gt;BLAST bit score: 800&lt;br&gt;E-value: 1.4e-229" locus_tag="AMYTH_RS0125930" class="clusterblast-orf" id="dummy-1_h1_3_19"  />
</g>
<g id="a1_0020"  >
<polygon points="621,85 626,80 641,80 641,90 626,90 621,85 " style="fill:#15d834; stroke-width:1; stroke:black; " description="&lt;b&gt;AMYTH_RS0125925&lt;/b&gt;&lt;br&gt;phosphatase PAP2 family protein&lt;br&gt;Location: 5288587 - 5287925&lt;br&gt;&lt;br&gt;&lt;b&gt;BlastP hit with ctg19_38&lt;/b&gt;&lt;br&gt;Percentage identity: 43&lt;br&gt;Percentage coverage: 94&lt;br&gt;BLAST bit score: 152&lt;br&gt;E-value: 4.9e-35&lt;br&gt;&lt;br&gt;&lt;b&gt;BlastP hit with ctg19_49&lt;/b&gt;&lt;br&gt;Percentage identity: 71&lt;br&gt;Percentage coverage: 100&lt;br&gt;BLAST bit score: 282&lt;br&gt;E-value: 2.9e-74" locus_tag="AMYTH_RS0125925" class="clusterblast-orf" id="dummy-1_h1_3_20"  />
</g>
<g id="a1_0021"  >
<polygon points="647,90 677,90 682,85 677,80 647,80 647,90 " style="fill:white; stroke-width:1; stroke:black; " description="&lt;b&gt;AMYTH_RS0125920&lt;/b&gt;&lt;br&gt;hypothetical protein&lt;br&gt;Location: 5287722 - 5286535" locus_tag="AMYTH_RS0125920" class="clusterblast-orf" id="dummy-1_h1_3_21"  />
</g>
<g id="a1_0022"  >
<polygon points="681,85 686,80 710,80 710,90 686,90 681,85 " style="fill:#d81573; stroke-width:1; stroke:black; " description="&lt;b&gt;AMYTH_RS0125915&lt;/b&gt;&lt;br&gt;GHMP kinase&lt;br&gt;Location: 5286563 - 5285574&lt;br&gt;&lt;br&gt;&lt;b&gt;BlastP hit with ctg19_50&lt;/b&gt;&lt;br&gt;Percentage identity: 94&lt;br&gt;Percentage coverage: 98&lt;br&gt;BLAST bit score: 605&lt;br&gt;E-value: 3.2e-171" locus_tag="AMYTH_RS0125915" class="clusterblast-orf" id="dummy-1_h1_3_22"  />
</g>
<g id="a1_0023"  >
<polygon points="710,85 715,80 731,80 731,90 715,90 710,85 " style="fill:#b1d815; stroke-width:1; stroke:black; " description="&lt;b&gt;AMYTH_RS0125910&lt;/b&gt;&lt;br&gt;nucleotidyltransferase family protein&lt;br&gt;Location: 5285577 - 5284879&lt;br&gt;&lt;br&gt;&lt;b&gt;BlastP hit with ctg19_51&lt;/b&gt;&lt;br&gt;Percentage identity: 85&lt;br&gt;Percentage coverage: 100&lt;br&gt;BLAST bit score: 402&lt;br&gt;E-value: 3.7e-110" locus_tag="AMYTH_RS0125910" class="clusterblast-orf" id="dummy-1_h1_3_23"  />
</g>
<g id="a1_0024"  >
<polygon points="731,85 736,80 764,80 764,90 736,90 731,85 " style="fill:#15d8c1; stroke-width:1; stroke:black; " description="&lt;b&gt;AMYTH_RS0125905&lt;/b&gt;&lt;br&gt;epimerase&lt;br&gt;Location: 5284882 - 5283770&lt;br&gt;&lt;br&gt;&lt;b&gt;BlastP hit with ctg19_52&lt;/b&gt;&lt;br&gt;Percentage identity: 91&lt;br&gt;Percentage coverage: 100&lt;br&gt;BLAST bit score: 688&lt;br&gt;E-value: 5.4e-196" locus_tag="AMYTH_RS0125905" class="clusterblast-orf" id="dummy-1_h1_3_24"  />
</g>
</svg>
