<svg xmlns="http://www.w3.org/2000/svg" xmlns:xlink="http://www.w3.org/1999/xlink" version="1.1" x="0" y="0" height="230" width="800" viewBox="0 0 800 230" preserveAspectRatio="none"  >
<g label="Query sequence" class="clusterblast-cluster"  >
<text x="5" y="20" class="clusterblast-acc"  >
Query sequence</text>
<line x1="10" y1="35" x2="778.0" y2="35" style="stroke-width:1; stroke:grey; "  />
<polygon points="0,40 32,40 37,35 32,30 0,30 0,40 " style="fill:#d81515; stroke-width:1; stroke:black; " description="&lt;b&gt;ctg11_38&lt;/b&gt;&lt;br&gt;ctg11 38&lt;br&gt;Location: 39413 - 40448" locus_tag="ctg11_38" class="clusterblast-orf" id="dummy-1_q0_0_all"  />
<polygon points="38,40 68,40 73,35 68,30 38,30 38,40 " style="fill:#43d815; stroke-width:1; stroke:black; " description="&lt;b&gt;ctg11_39&lt;/b&gt;&lt;br&gt;ctg11 39&lt;br&gt;Location: 40463 - 41453" locus_tag="ctg11_39" class="clusterblast-orf" id="dummy-1_q1_0_all"  />
<polygon points="75,35 80,30 111,30 111,40 80,40 75,35 " style="fill:#15b6d8; stroke-width:1; stroke:black; " description="&lt;b&gt;ctg11_40&lt;/b&gt;&lt;br&gt;ctg11 40&lt;br&gt;Location: 41503 - 42484" locus_tag="ctg11_40" class="clusterblast-orf" id="dummy-1_q2_0_all"  />
<polygon points="115,40 161,40 166,35 161,30 115,30 115,40 " style="fill:#8815d8; stroke-width:1; stroke:black; " description="&lt;b&gt;ctg11_41&lt;/b&gt;&lt;br&gt;ctg11 41&lt;br&gt;Location: 42605 - 44021" locus_tag="ctg11_41" class="clusterblast-orf" id="dummy-1_q3_0_all"  />
<polygon points="166,40 215,40 220,35 215,30 166,30 166,40 " style="fill:#d85a15; stroke-width:1; stroke:black; " description="&lt;b&gt;ctg11_42&lt;/b&gt;&lt;br&gt;ctg11 42&lt;br&gt;Location: 44013 - 45504" locus_tag="ctg11_42" class="clusterblast-orf" id="dummy-1_q4_0_all"  />
<polygon points="220,40 240,40 245,35 240,30 220,30 220,40 " style="fill:#15d82c; stroke-width:1; stroke:black; " description="&lt;b&gt;ctg11_43&lt;/b&gt;&lt;br&gt;ctg11 43&lt;br&gt;Location: 45513 - 46218" locus_tag="ctg11_43" class="clusterblast-orf" id="dummy-1_q5_0_all"  />
<polygon points="253,40 263,40 268,35 263,30 253,30 253,40 " style="fill:#1571d8; stroke-width:1; stroke:black; " description="&lt;b&gt;ctg11_44&lt;/b&gt;&lt;br&gt;ctg11 44&lt;br&gt;Location: 46422 - 46857" locus_tag="ctg11_44" class="clusterblast-orf" id="dummy-1_q6_0_all"  />
<polygon points="270,40 291,40 296,35 291,30 270,30 270,40 " style="fill:#cd15d8; stroke-width:1; stroke:black; " description="&lt;b&gt;ctg11_45&lt;/b&gt;&lt;br&gt;ctg11 45&lt;br&gt;Location: 46912 - 47629" locus_tag="ctg11_45" class="clusterblast-orf" id="dummy-1_q7_0_all"  />
<polygon points="297,40 310,40 315,35 310,30 297,30 297,40 " style="fill:#d89f15; stroke-width:1; stroke:black; " description="&lt;b&gt;ctg11_46&lt;/b&gt;&lt;br&gt;ctg11 46&lt;br&gt;Location: 47638 - 48145" locus_tag="ctg11_46" class="clusterblast-orf" id="dummy-1_q8_0_all"  />
<polygon points="315,35 320,30 339,30 339,40 320,40 315,35 " style="fill:#15d871; stroke-width:1; stroke:black; " description="&lt;b&gt;ctg11_47&lt;/b&gt;&lt;br&gt;ctg11 47&lt;br&gt;Location: 48151 - 48808" locus_tag="ctg11_47" class="clusterblast-orf" id="dummy-1_q9_0_all"  />
<polygon points="348,40 422,40 427,35 422,30 348,30 348,40 " style="fill:#152cd8; stroke-width:1; stroke:black; " description="&lt;b&gt;ctg11_48&lt;/b&gt;&lt;br&gt;ctg11 48&lt;br&gt;Location: 49069 - 51262" locus_tag="ctg11_48" class="clusterblast-orf" id="dummy-1_q10_0_all"  />
<polygon points="455,35 460,30 471,30 471,40 460,40 455,35 " style="fill:#d8159f; stroke-width:1; stroke:black; " description="&lt;b&gt;ctg11_49&lt;/b&gt;&lt;br&gt;ctg11 49&lt;br&gt;Location: 52034 - 52472" locus_tag="ctg11_49" class="clusterblast-orf" id="dummy-1_q11_0_all"  />
<polygon points="476,40 499,40 504,35 499,30 476,30 476,40 " style="fill:#cdd815; stroke-width:1; stroke:black; " description="&lt;b&gt;ctg11_50&lt;/b&gt;&lt;br&gt;ctg11 50&lt;br&gt;Location: 52626 - 53397" locus_tag="ctg11_50" class="clusterblast-orf" id="dummy-1_q12_0_all"  />
<polygon points="504,40 566,40 571,35 566,30 504,30 504,40 " style="fill:#15d8b6; stroke-width:1; stroke:black; " description="&lt;b&gt;ctg11_51&lt;/b&gt;&lt;br&gt;ctg11 51&lt;br&gt;Location: 53398 - 55252" locus_tag="ctg11_51" class="clusterblast-orf" id="dummy-1_q13_0_all"  />
<polygon points="571,35 576,30 588,30 588,40 576,40 571,35 " style="fill:#4315d8; stroke-width:1; stroke:black; " description="&lt;b&gt;ctg11_52&lt;/b&gt;&lt;br&gt;ctg11 52&lt;br&gt;Location: 55256 - 55718" locus_tag="ctg11_52" class="clusterblast-orf" id="dummy-1_q14_0_all"  />
<polygon points="592,35 597,30 617,30 617,40 597,40 592,35 " style="fill:#d8155a; stroke-width:1; stroke:black; " description="&lt;b&gt;ctg11_53&lt;/b&gt;&lt;br&gt;ctg11 53&lt;br&gt;Location: 55830 - 56511" locus_tag="ctg11_53" class="clusterblast-orf" id="dummy-1_q15_0_all"  />
<polygon points="619,40 657,40 662,35 657,30 619,30 619,40 " style="fill:#88d815; stroke-width:1; stroke:black; " description="&lt;b&gt;ctg11_54&lt;/b&gt;&lt;br&gt;ctg11 54&lt;br&gt;Location: 56576 - 57767" locus_tag="ctg11_54" class="clusterblast-orf" id="dummy-1_q16_0_all"  />
<polygon points="663,40 692,40 697,35 692,30 663,30 663,40 " style="fill:#88d815; stroke-width:1; stroke:black; " description="&lt;b&gt;ctg11_55&lt;/b&gt;&lt;br&gt;ctg11 55&lt;br&gt;Location: 57787 - 58735" locus_tag="ctg11_55" class="clusterblast-orf" id="dummy-1_q17_0_all"  />
<polygon points="697,40 728,40 733,35 728,30 697,30 697,40 " style="fill:white; stroke-width:1; stroke:black; " description="&lt;b&gt;ctg11_56&lt;/b&gt;&lt;br&gt;ctg11 56&lt;br&gt;Location: 58734 - 59736" locus_tag="ctg11_56" class="clusterblast-orf" id="dummy-1_q18_0_all"  />
<polygon points="736,40 775,40 780,35 775,30 736,30 736,40 " style="fill:#88d815; stroke-width:1; stroke:black; " description="&lt;b&gt;ctg11_57&lt;/b&gt;&lt;br&gt;ctg11 57&lt;br&gt;Location: 59817 - 61038" locus_tag="ctg11_57" class="clusterblast-orf" id="dummy-1_q19_0_all"  />
</g>
<g label="NZ_AFWY03000028" description="NZ_AFWY03000028_c7: Amycolatopsis sp. ATCC 39116 strain 75iv2 Amy contig00146... (95% of genes show similarity), terpene" class="clusterblast-cluster"  >
<text x="5" y="70" class="clusterblast-acc"  >
<a xlink:href="https://antismash-db.secondarymetabolites.org/go/NZ_AFWY03000028/7" target="_blank">NZ_AFWY03000028_c7</a>: Amycolatopsis sp. ATCC 39116 strain 75iv2 Amy contig00146... (95% of genes show similarity), terpene</text>
<line x1="10" y1="85" x2="778.0" y2="85" style="stroke-width:1; stroke:grey; "  />
</g>
<g id="a1_000"  >
<polygon points="0,90 32,90 37,85 32,80 0,80 0,90 " style="fill:#d81515; stroke-width:1; stroke:black; " description="&lt;b&gt;AMY39116_RS0325080&lt;/b&gt;&lt;br&gt;ABC transporter permease&lt;br&gt;Location: 23825 - 24850&lt;br&gt;&lt;br&gt;&lt;b&gt;BlastP hit with ctg11_38&lt;/b&gt;&lt;br&gt;Percentage identity: 96&lt;br&gt;Percentage coverage: 99&lt;br&gt;BLAST bit score: 589&lt;br&gt;E-value: 3.2e-166" locus_tag="AMY39116_RS0325080" class="clusterblast-orf" id="dummy-1_h1_2_0"  />
</g>
<g id="a1_001"  >
<polygon points="38,90 69,90 74,85 69,80 38,80 38,90 " style="fill:#43d815; stroke-width:1; stroke:black; " description="&lt;b&gt;AMY39116_RS0325085&lt;/b&gt;&lt;br&gt;ABC transporter substrate-binding protein&lt;br&gt;Location: 24867 - 25862&lt;br&gt;&lt;br&gt;&lt;b&gt;BlastP hit with ctg11_39&lt;/b&gt;&lt;br&gt;Percentage identity: 95&lt;br&gt;Percentage coverage: 100&lt;br&gt;BLAST bit score: 614&lt;br&gt;E-value: 6.8e-174" locus_tag="AMY39116_RS0325085" class="clusterblast-orf" id="dummy-1_h1_2_1"  />
</g>
<g id="a1_002"  >
<polygon points="76,85 81,80 112,80 112,90 81,90 76,85 " style="fill:#15b6d8; stroke-width:1; stroke:black; " description="&lt;b&gt;AMY39116_RS0325090&lt;/b&gt;&lt;br&gt;LacI family transcriptional regulator&lt;br&gt;Location: 25932 - 26912&lt;br&gt;&lt;br&gt;&lt;b&gt;BlastP hit with ctg11_40&lt;/b&gt;&lt;br&gt;Percentage identity: 91&lt;br&gt;Percentage coverage: 100&lt;br&gt;BLAST bit score: 560&lt;br&gt;E-value: 1.2e-157" locus_tag="AMY39116_RS0325090" class="clusterblast-orf" id="dummy-1_h1_2_2"  />
</g>
<g id="a1_003"  >
<polygon points="116,90 162,90 167,85 162,80 116,80 116,90 " style="fill:#8815d8; stroke-width:1; stroke:black; " description="&lt;b&gt;AMY39116_RS0325095&lt;/b&gt;&lt;br&gt;fucose isomerase&lt;br&gt;Location: 27023 - 28438&lt;br&gt;&lt;br&gt;&lt;b&gt;BlastP hit with ctg11_41&lt;/b&gt;&lt;br&gt;Percentage identity: 92&lt;br&gt;Percentage coverage: 100&lt;br&gt;BLAST bit score: 895&lt;br&gt;E-value: 2.9e-258" locus_tag="AMY39116_RS0325095" class="clusterblast-orf" id="dummy-1_h1_2_3"  />
</g>
<g id="a1_004"  >
<polygon points="166,90 215,90 220,85 215,80 166,80 166,90 " style="fill:#d85a15; stroke-width:1; stroke:black; " description="&lt;b&gt;AMY39116_RS0325100&lt;/b&gt;&lt;br&gt;sugar kinase&lt;br&gt;Location: 28431 - 29921&lt;br&gt;&lt;br&gt;&lt;b&gt;BlastP hit with ctg11_42&lt;/b&gt;&lt;br&gt;Percentage identity: 93&lt;br&gt;Percentage coverage: 100&lt;br&gt;BLAST bit score: 937&lt;br&gt;E-value: 6.9e-271" locus_tag="AMY39116_RS0325100" class="clusterblast-orf" id="dummy-1_h1_2_4"  />
</g>
<g id="a1_005"  >
<polygon points="220,90 241,90 246,85 241,80 220,80 220,90 " style="fill:#15d82c; stroke-width:1; stroke:black; " description="&lt;b&gt;AMY39116_RS0325105&lt;/b&gt;&lt;br&gt;MgtC/SapB family protein&lt;br&gt;Location: 29932 - 30636&lt;br&gt;&lt;br&gt;&lt;b&gt;BlastP hit with ctg11_43&lt;/b&gt;&lt;br&gt;Percentage identity: 89&lt;br&gt;Percentage coverage: 100&lt;br&gt;BLAST bit score: 395&lt;br&gt;E-value: 3.5e-108" locus_tag="AMY39116_RS0325105" class="clusterblast-orf" id="dummy-1_h1_2_5"  />
</g>
<g id="a1_006"  >
<polygon points="253,90 264,90 269,85 264,80 253,80 253,90 " style="fill:#1571d8; stroke-width:1; stroke:black; " description="&lt;b&gt;AMY39116_RS0325110&lt;/b&gt;&lt;br&gt;hypothetical protein&lt;br&gt;Location: 30842 - 31276&lt;br&gt;&lt;br&gt;&lt;b&gt;BlastP hit with ctg11_44&lt;/b&gt;&lt;br&gt;Percentage identity: 83&lt;br&gt;Percentage coverage: 100&lt;br&gt;BLAST bit score: 232&lt;br&gt;E-value: 2.4e-59" locus_tag="AMY39116_RS0325110" class="clusterblast-orf" id="dummy-1_h1_2_6"  />
</g>
<g id="a1_007"  >
<polygon points="271,90 293,90 298,85 293,80 271,80 271,90 " style="fill:#cd15d8; stroke-width:1; stroke:black; " description="&lt;b&gt;AMY39116_RS0325115&lt;/b&gt;&lt;br&gt;ABC transporter permease&lt;br&gt;Location: 31323 - 32069&lt;br&gt;&lt;br&gt;&lt;b&gt;BlastP hit with ctg11_45&lt;/b&gt;&lt;br&gt;Percentage identity: 86&lt;br&gt;Percentage coverage: 100&lt;br&gt;BLAST bit score: 362&lt;br&gt;E-value: 3.4e-98" locus_tag="AMY39116_RS0325115" class="clusterblast-orf" id="dummy-1_h1_2_7"  />
</g>
<g id="a1_008"  >
<polygon points="298,90 311,90 316,85 311,80 298,80 298,90 " style="fill:#d89f15; stroke-width:1; stroke:black; " description="&lt;b&gt;AMY39116_RS0325120&lt;/b&gt;&lt;br&gt;DUF664 domain-containing protein&lt;br&gt;Location: 32094 - 32585&lt;br&gt;&lt;br&gt;&lt;b&gt;BlastP hit with ctg11_46&lt;/b&gt;&lt;br&gt;Percentage identity: 87&lt;br&gt;Percentage coverage: 97&lt;br&gt;BLAST bit score: 302&lt;br&gt;E-value: 3.8e-80" locus_tag="AMY39116_RS0325120" class="clusterblast-orf" id="dummy-1_h1_2_8"  />
</g>
<g id="a1_009"  >
<polygon points="316,85 321,80 340,80 340,90 321,90 316,85 " style="fill:#15d871; stroke-width:1; stroke:black; " description="&lt;b&gt;AMY39116_RS0325125&lt;/b&gt;&lt;br&gt;hypothetical protein&lt;br&gt;Location: 32594 - 33241&lt;br&gt;&lt;br&gt;&lt;b&gt;BlastP hit with ctg11_47&lt;/b&gt;&lt;br&gt;Percentage identity: 77&lt;br&gt;Percentage coverage: 96&lt;br&gt;BLAST bit score: 250&lt;br&gt;E-value: 1.7e-64" locus_tag="AMY39116_RS0325125" class="clusterblast-orf" id="dummy-1_h1_2_9"  />
</g>
<g id="a1_0010"  >
<polygon points="349,90 423,90 428,85 423,80 349,80 349,90 " style="fill:#152cd8; stroke-width:1; stroke:black; " description="&lt;b&gt;AMY39116_RS0325130&lt;/b&gt;&lt;br&gt;geosmin synthase&lt;br&gt;Location: 33504 - 35690&lt;br&gt;&lt;br&gt;&lt;b&gt;BlastP hit with ctg11_48&lt;/b&gt;&lt;br&gt;Percentage identity: 90&lt;br&gt;Percentage coverage: 100&lt;br&gt;BLAST bit score: 1366&lt;br&gt;E-value: 0.0" locus_tag="AMY39116_RS0325130" class="clusterblast-orf" id="dummy-1_h1_2_10"  />
</g>
<g id="a1_0011"  >
<polygon points="438,85 443,80 455,80 455,90 443,90 438,85 " style="fill:#d8159f; stroke-width:1; stroke:black; " description="&lt;b&gt;AMY39116_RS0325135&lt;/b&gt;&lt;br&gt;ribonuclease HI&lt;br&gt;Location: 35967 - 36425&lt;br&gt;&lt;br&gt;&lt;b&gt;BlastP hit with ctg11_49&lt;/b&gt;&lt;br&gt;Percentage identity: 94&lt;br&gt;Percentage coverage: 99&lt;br&gt;BLAST bit score: 297&lt;br&gt;E-value: 1.1e-78" locus_tag="AMY39116_RS0325135" class="clusterblast-orf" id="dummy-1_h1_2_11"  />
</g>
<g id="a1_0012"  >
<polygon points="459,90 482,90 487,85 482,80 459,80 459,90 " style="fill:#cdd815; stroke-width:1; stroke:black; " description="&lt;b&gt;AMY39116_RS0325140&lt;/b&gt;&lt;br&gt;hypothetical protein&lt;br&gt;Location: 36548 - 37318&lt;br&gt;&lt;br&gt;&lt;b&gt;BlastP hit with ctg11_50&lt;/b&gt;&lt;br&gt;Percentage identity: 87&lt;br&gt;Percentage coverage: 100&lt;br&gt;BLAST bit score: 493&lt;br&gt;E-value: 1.4e-137" locus_tag="AMY39116_RS0325140" class="clusterblast-orf" id="dummy-1_h1_2_12"  />
</g>
<g id="a1_0013"  >
<polygon points="487,90 549,90 554,85 549,80 487,80 487,90 " style="fill:#15d8b6; stroke-width:1; stroke:black; " description="&lt;b&gt;AMY39116_RS0325145&lt;/b&gt;&lt;br&gt;endonuclease&lt;br&gt;Location: 37320 - 39170&lt;br&gt;&lt;br&gt;&lt;b&gt;BlastP hit with ctg11_51&lt;/b&gt;&lt;br&gt;Percentage identity: 88&lt;br&gt;Percentage coverage: 100&lt;br&gt;BLAST bit score: 1087&lt;br&gt;E-value: 0.0" locus_tag="AMY39116_RS0325145" class="clusterblast-orf" id="dummy-1_h1_2_13"  />
</g>
<g id="a1_0014"  >
<polygon points="554,85 559,80 572,80 572,90 559,90 554,85 " style="fill:#4315d8; stroke-width:1; stroke:black; " description="&lt;b&gt;AMY39116_RS0325150&lt;/b&gt;&lt;br&gt;anti-sigma factor antagonist&lt;br&gt;Location: 39189 - 39665&lt;br&gt;&lt;br&gt;&lt;b&gt;BlastP hit with ctg11_52&lt;/b&gt;&lt;br&gt;Percentage identity: 80&lt;br&gt;Percentage coverage: 100&lt;br&gt;BLAST bit score: 230&lt;br&gt;E-value: 1.3e-58" locus_tag="AMY39116_RS0325150" class="clusterblast-orf" id="dummy-1_h1_2_14"  />
</g>
<g id="a1_0015"  >
<polygon points="575,85 580,80 600,80 600,90 580,90 575,85 " style="fill:#d8155a; stroke-width:1; stroke:black; " description="&lt;b&gt;AMY39116_RS0325155&lt;/b&gt;&lt;br&gt;transcriptional regulator&lt;br&gt;Location: 39765 - 40445&lt;br&gt;&lt;br&gt;&lt;b&gt;BlastP hit with ctg11_53&lt;/b&gt;&lt;br&gt;Percentage identity: 88&lt;br&gt;Percentage coverage: 100&lt;br&gt;BLAST bit score: 369&lt;br&gt;E-value: 2e-100" locus_tag="AMY39116_RS0325155" class="clusterblast-orf" id="dummy-1_h1_2_15"  />
</g>
<g id="a1_0016"  >
<polygon points="602,90 640,90 645,85 640,80 602,80 602,90 " style="fill:#88d815; stroke-width:1; stroke:black; " description="&lt;b&gt;AMY39116_RS0325160&lt;/b&gt;&lt;br&gt;monooxygenase&lt;br&gt;Location: 40511 - 41710&lt;br&gt;&lt;br&gt;&lt;b&gt;BlastP hit with ctg11_54&lt;/b&gt;&lt;br&gt;Percentage identity: 84&lt;br&gt;Percentage coverage: 101&lt;br&gt;BLAST bit score: 684&lt;br&gt;E-value: 6.4e-195&lt;br&gt;&lt;br&gt;&lt;b&gt;BlastP hit with ctg11_57&lt;/b&gt;&lt;br&gt;Percentage identity: 55&lt;br&gt;Percentage coverage: 99&lt;br&gt;BLAST bit score: 444&lt;br&gt;E-value: 1.5e-122" locus_tag="AMY39116_RS0325160" class="clusterblast-orf" id="dummy-1_h1_2_16"  />
</g>
<g id="a1_0017"  >
<polygon points="646,90 675,90 680,85 675,80 646,80 646,90 " style="fill:#88d815; stroke-width:1; stroke:black; " description="&lt;b&gt;AMY39116_RS0325165&lt;/b&gt;&lt;br&gt;transcriptional regulator&lt;br&gt;Location: 41731 - 42663&lt;br&gt;&lt;br&gt;&lt;b&gt;BlastP hit with ctg11_55&lt;/b&gt;&lt;br&gt;Percentage identity: 80&lt;br&gt;Percentage coverage: 100&lt;br&gt;BLAST bit score: 508&lt;br&gt;E-value: 6.6e-142" locus_tag="AMY39116_RS0325165" class="clusterblast-orf" id="dummy-1_h1_2_17"  />
</g>
<g id="a1_0018"  >
<polygon points="683,90 729,90 734,85 729,80 683,80 683,90 " style="fill:white; stroke-width:1; stroke:black; " description="&lt;b&gt;AMY39116_RS0325170&lt;/b&gt;&lt;br&gt;aldehyde dehydrogenase&lt;br&gt;Location: 42743 - 44173" locus_tag="AMY39116_RS0325170" class="clusterblast-orf" id="dummy-1_h1_2_18"  />
</g>
<g id="a1_0019"  >
<polygon points="735,90 774,90 779,85 774,80 735,80 735,90 " style="fill:#88d815; stroke-width:1; stroke:black; " description="&lt;b&gt;AMY39116_RS0325175&lt;/b&gt;&lt;br&gt;hypothetical protein&lt;br&gt;Location: 44188 - 45411&lt;br&gt;&lt;br&gt;&lt;b&gt;BlastP hit with ctg11_54&lt;/b&gt;&lt;br&gt;Percentage identity: 57&lt;br&gt;Percentage coverage: 101&lt;br&gt;BLAST bit score: 428&lt;br&gt;E-value: 8.3e-118&lt;br&gt;&lt;br&gt;&lt;b&gt;BlastP hit with ctg11_57&lt;/b&gt;&lt;br&gt;Percentage identity: 92&lt;br&gt;Percentage coverage: 100&lt;br&gt;BLAST bit score: 775&lt;br&gt;E-value: 2.8e-222" locus_tag="AMY39116_RS0325175" class="clusterblast-orf" id="dummy-1_h1_2_19"  />
</g>
</svg>
