<svg xmlns="http://www.w3.org/2000/svg" xmlns:xlink="http://www.w3.org/1999/xlink" version="1.1" x="0" y="0" height="230" width="800" viewBox="0 0 800 230" preserveAspectRatio="none"  >
<g label="Query sequence" class="clusterblast-cluster"  >
<text x="5" y="20" class="clusterblast-acc"  >
Query sequence</text>
<line x1="10" y1="35" x2="778.0" y2="35" style="stroke-width:1; stroke:grey; "  />
<polygon points="167,40 182,40 187,35 182,30 167,30 167,40 " style="fill:white; stroke-width:1; stroke:black; " description="&lt;b&gt;ctg108_1&lt;/b&gt;&lt;br&gt;ctg108 1&lt;br&gt;Location: 2 - 1151" locus_tag="ctg108_1" class="clusterblast-orf" id="dummy-1_q0_0_all"  />
<polygon points="192,35 197,30 213,30 213,40 197,40 192,35 " style="fill:#d81515; stroke-width:1; stroke:black; " description="&lt;b&gt;ctg108_2&lt;/b&gt;&lt;br&gt;ctg108 2&lt;br&gt;Location: 1417 - 2638" locus_tag="ctg108_2" class="clusterblast-orf" id="dummy-1_q1_0_all"  />
<polygon points="214,35 219,30 231,30 231,40 219,40 214,35 " style="fill:#63d815; stroke-width:1; stroke:black; " description="&lt;b&gt;ctg108_3&lt;/b&gt;&lt;br&gt;ctg108 3&lt;br&gt;Location: 2660 - 3620" locus_tag="ctg108_3" class="clusterblast-orf" id="dummy-1_q2_0_all"  />
<polygon points="232,35 237,30 259,30 259,40 237,40 232,35 " style="fill:#15b1d8; stroke-width:1; stroke:black; " description="&lt;b&gt;ctg108_4&lt;/b&gt;&lt;br&gt;ctg108 4&lt;br&gt;Location: 3681 - 5262" locus_tag="ctg108_4" class="clusterblast-orf" id="dummy-1_q3_0_all"  />
<polygon points="259,35 264,30 366,30 366,40 264,40 259,35 " style="fill:#b115d8; stroke-width:1; stroke:black; " description="&lt;b&gt;ctg108_5&lt;/b&gt;&lt;br&gt;ctg108 5&lt;br&gt;Location: 5269 - 11404" locus_tag="ctg108_5" class="clusterblast-orf" id="dummy-1_q4_0_all"  />
<polygon points="366,35 371,30 395,30 395,40 371,40 366,35 " style="fill:#d86315; stroke-width:1; stroke:black; " description="&lt;b&gt;ctg108_6&lt;/b&gt;&lt;br&gt;ctg108 6&lt;br&gt;Location: 11400 - 13026" locus_tag="ctg108_6" class="clusterblast-orf" id="dummy-1_q5_0_all"  />
<polygon points="397,35 402,30 422,30 422,40 402,40 397,35 " style="fill:#15d815; stroke-width:1; stroke:black; " description="&lt;b&gt;ctg108_7&lt;/b&gt;&lt;br&gt;ctg108 7&lt;br&gt;Location: 13163 - 14585" locus_tag="ctg108_7" class="clusterblast-orf" id="dummy-1_q6_0_all"  />
<polygon points="422,35 427,30 438,30 438,40 427,40 422,35 " style="fill:#1563d8; stroke-width:1; stroke:black; " description="&lt;b&gt;ctg108_8&lt;/b&gt;&lt;br&gt;ctg108 8&lt;br&gt;Location: 14591 - 15524" locus_tag="ctg108_8" class="clusterblast-orf" id="dummy-1_q7_0_all"  />
<polygon points="438,35 443,30 467,30 467,40 443,40 438,35 " style="fill:#d815b1; stroke-width:1; stroke:black; " description="&lt;b&gt;ctg108_9&lt;/b&gt;&lt;br&gt;ctg108 9&lt;br&gt;Location: 15524 - 17135" locus_tag="ctg108_9" class="clusterblast-orf" id="dummy-1_q8_0_all"  />
<polygon points="467,35 472,30 501,30 501,40 472,40 467,35 " style="fill:#d8b115; stroke-width:1; stroke:black; " description="&lt;b&gt;ctg108_10&lt;/b&gt;&lt;br&gt;ctg108 10&lt;br&gt;Location: 17131 - 19117" locus_tag="ctg108_10" class="clusterblast-orf" id="dummy-1_q9_0_all"  />
<polygon points="504,40 521,40 526,35 521,30 504,30 504,40 " style="fill:#15d863; stroke-width:1; stroke:black; " description="&lt;b&gt;ctg108_11&lt;/b&gt;&lt;br&gt;ctg108 11&lt;br&gt;Location: 19287 - 20532" locus_tag="ctg108_11" class="clusterblast-orf" id="dummy-1_q10_0_all"  />
<polygon points="532,40 536,35 532,30 532,40 " style="fill:white; stroke-width:1; stroke:black; " description="&lt;b&gt;ctg108_12&lt;/b&gt;&lt;br&gt;ctg108 12&lt;br&gt;Location: 20867 - 21101" locus_tag="ctg108_12" class="clusterblast-orf" id="dummy-1_q11_0_all"  />
<polygon points="540,40 541,40 546,35 541,30 540,30 540,40 " style="fill:white; stroke-width:1; stroke:black; " description="&lt;b&gt;ctg108_13&lt;/b&gt;&lt;br&gt;ctg108 13&lt;br&gt;Location: 21335 - 21662" locus_tag="ctg108_13" class="clusterblast-orf" id="dummy-1_q12_0_all"  />
<polygon points="546,35 551,30 562,30 562,40 551,40 546,35 " style="fill:#1515d8; stroke-width:1; stroke:black; " description="&lt;b&gt;ctg108_14&lt;/b&gt;&lt;br&gt;ctg108 14&lt;br&gt;Location: 21658 - 22600" locus_tag="ctg108_14" class="clusterblast-orf" id="dummy-1_q13_0_all"  />
<polygon points="562,35 567,30 568,30 568,40 567,40 562,35 " style="fill:#d81563; stroke-width:1; stroke:black; " description="&lt;b&gt;ctg108_15&lt;/b&gt;&lt;br&gt;ctg108 15&lt;br&gt;Location: 22575 - 22962" locus_tag="ctg108_15" class="clusterblast-orf" id="dummy-1_q14_0_all"  />
<polygon points="569,35 574,30 576,30 576,40 574,40 569,35 " style="fill:#b1d815; stroke-width:1; stroke:black; " description="&lt;b&gt;ctg108_16&lt;/b&gt;&lt;br&gt;ctg108 16&lt;br&gt;Location: 22971 - 23382" locus_tag="ctg108_16" class="clusterblast-orf" id="dummy-1_q15_0_all"  />
<polygon points="576,35 581,30 581,30 581,40 581,40 576,35 " style="fill:#15d8b1; stroke-width:1; stroke:black; " description="&lt;b&gt;ctg108_17&lt;/b&gt;&lt;br&gt;ctg108 17&lt;br&gt;Location: 23392 - 23704" locus_tag="ctg108_17" class="clusterblast-orf" id="dummy-1_q16_0_all"  />
<polygon points="581,35 586,30 612,30 612,40 586,40 581,35 " style="fill:#6315d8; stroke-width:1; stroke:black; " description="&lt;b&gt;ctg108_18&lt;/b&gt;&lt;br&gt;ctg108 18&lt;br&gt;Location: 23703 - 25461" locus_tag="ctg108_18" class="clusterblast-orf" id="dummy-1_q17_0_all"  />
</g>
<g label="NZ_JNYY01000019" description="NZ_JNYY01000019_c24: Amycolatopsis vancoresmycina strain NRRL B-24208 contig1... (25% of genes show similarity), t1pks" class="clusterblast-cluster"  >
<text x="5" y="70" class="clusterblast-acc"  >
<a xlink:href="https://antismash-db.secondarymetabolites.org/go/NZ_JNYY01000019/24" target="_blank">NZ_JNYY01000019_c24</a>: Amycolatopsis vancoresmycina strain NRRL B-24208 contig1... (25% of genes show similarity), t1pks</text>
<line x1="10" y1="85" x2="778.0" y2="85" style="stroke-width:1; stroke:grey; "  />
</g>
<g id="a1_000"  >
<polygon points="0,85 5,80 19,80 19,90 5,90 0,85 " style="fill:white; stroke-width:1; stroke:black; " description="&lt;b&gt;OO60_RS35670&lt;/b&gt;&lt;br&gt;acyl-CoA dehydrogenase&lt;br&gt;Location: 149499 - 148369" locus_tag="OO60_RS35670" class="clusterblast-orf" id="dummy-1_h1_3_0"  />
</g>
<g id="a1_001"  >
<polygon points="19,85 24,80 34,80 34,90 24,90 19,85 " style="fill:white; stroke-width:1; stroke:black; " description="&lt;b&gt;OO60_RS35665&lt;/b&gt;&lt;br&gt;enoyl-CoA hydratase&lt;br&gt;Location: 148369 - 147524" locus_tag="OO60_RS35665" class="clusterblast-orf" id="dummy-1_h1_3_1"  />
</g>
<g id="a1_002"  >
<polygon points="34,85 39,80 61,80 61,90 39,90 34,85 " style="fill:white; stroke-width:1; stroke:black; " description="&lt;b&gt;OO60_RS35660&lt;/b&gt;&lt;br&gt;acyl-CoA synthetase&lt;br&gt;Location: 147527 - 145995" locus_tag="OO60_RS35660" class="clusterblast-orf" id="dummy-1_h1_3_2"  />
</g>
<g id="a1_003"  >
<polygon points="62,90 77,90 82,85 77,80 62,80 62,90 " style="fill:white; stroke-width:1; stroke:black; " description="&lt;b&gt;OO60_RS35655&lt;/b&gt;&lt;br&gt;acyl-CoA dehydrogenase&lt;br&gt;Location: 145912 - 144767" locus_tag="OO60_RS35655" class="clusterblast-orf" id="dummy-1_h1_3_3"  />
</g>
<g id="a1_004"  >
<polygon points="82,90 90,90 95,85 90,80 82,80 82,90 " style="fill:white; stroke-width:1; stroke:black; " description="&lt;b&gt;OO60_RS35650&lt;/b&gt;&lt;br&gt;short chain dehydrogenase&lt;br&gt;Location: 144770 - 144009" locus_tag="OO60_RS35650" class="clusterblast-orf" id="dummy-1_h1_3_4"  />
</g>
<g id="a1_005"  >
<polygon points="96,90 111,90 116,85 111,80 96,80 96,90 " style="fill:white; stroke-width:1; stroke:black; " description="&lt;b&gt;OO60_RS35645&lt;/b&gt;&lt;br&gt;acetyl-CoA acetyltransferase&lt;br&gt;Location: 144000 - 142846" locus_tag="OO60_RS35645" class="clusterblast-orf" id="dummy-1_h1_3_5"  />
</g>
<g id="a1_006"  >
<polygon points="117,85 122,80 134,80 134,90 122,90 117,85 " style="fill:white; stroke-width:1; stroke:black; " description="&lt;b&gt;OO60_RS35640&lt;/b&gt;&lt;br&gt;glucose-6-phosphate dehydrogenase (coenzyme-F420)&lt;br&gt;Location: 142791 - 141790" locus_tag="OO60_RS35640" class="clusterblast-orf" id="dummy-1_h1_3_6"  />
</g>
<g id="a1_007"  >
<polygon points="134,85 139,80 153,80 153,90 139,90 134,85 " style="fill:white; stroke-width:1; stroke:black; " description="&lt;b&gt;OO60_RS35635&lt;/b&gt;&lt;br&gt;2-nitropropane dioxygenase&lt;br&gt;Location: 141782 - 140727" locus_tag="OO60_RS35635" class="clusterblast-orf" id="dummy-1_h1_3_7"  />
</g>
<g id="a1_008"  >
<polygon points="153,85 158,80 165,80 165,90 158,90 153,85 " style="fill:white; stroke-width:1; stroke:black; " description="&lt;b&gt;OO60_RS35630&lt;/b&gt;&lt;br&gt;CoA transferase subunit beta&lt;br&gt;Location: 140730 - 139999" locus_tag="OO60_RS35630" class="clusterblast-orf" id="dummy-1_h1_3_8"  />
</g>
<g id="a1_009"  >
<polygon points="165,85 170,80 180,80 180,90 170,90 165,85 " style="fill:white; stroke-width:1; stroke:black; " description="&lt;b&gt;OO60_RS35625&lt;/b&gt;&lt;br&gt;CoA transferase subunit A&lt;br&gt;Location: 140002 - 139139" locus_tag="OO60_RS35625" class="clusterblast-orf" id="dummy-1_h1_3_9"  />
</g>
<g id="a1_0010"  >
<polygon points="180,85 185,80 193,80 193,90 185,90 180,85 " style="fill:white; stroke-width:1; stroke:black; " description="&lt;b&gt;OO60_RS35620&lt;/b&gt;&lt;br&gt;enoyl-CoA hydratase&lt;br&gt;Location: 139149 - 138409" locus_tag="OO60_RS35620" class="clusterblast-orf" id="dummy-1_h1_3_10"  />
</g>
<g id="a1_0011"  >
<polygon points="193,85 198,80 208,80 208,90 198,90 193,85 " style="fill:white; stroke-width:1; stroke:black; " description="&lt;b&gt;OO60_RS35615&lt;/b&gt;&lt;br&gt;short-chain dehydrogenase/reductase&lt;br&gt;Location: 138409 - 137540" locus_tag="OO60_RS35615" class="clusterblast-orf" id="dummy-1_h1_3_11"  />
</g>
<g id="a1_0012"  >
<polygon points="208,85 213,80 222,80 222,90 213,90 208,85 " style="fill:white; stroke-width:1; stroke:black; " description="&lt;b&gt;OO60_RS35610&lt;/b&gt;&lt;br&gt;short chain dehydrogenase&lt;br&gt;Location: 137543 - 136776" locus_tag="OO60_RS35610" class="clusterblast-orf" id="dummy-1_h1_3_12"  />
</g>
<g id="a1_0013"  >
<polygon points="223,85 228,80 242,80 242,90 228,90 223,85 " style="fill:#15d863; stroke-width:1; stroke:black; " description="&lt;b&gt;OO60_RS35605&lt;/b&gt;&lt;br&gt;PucR family transcriptional regulator&lt;br&gt;Location: 136704 - 135598&lt;br&gt;&lt;br&gt;&lt;b&gt;BlastP hit with ctg108_11&lt;/b&gt;&lt;br&gt;Percentage identity: 42&lt;br&gt;Percentage coverage: 89&lt;br&gt;BLAST bit score: 243&lt;br&gt;E-value: 5.2e-62" locus_tag="OO60_RS35605" class="clusterblast-orf" id="dummy-1_h1_3_13"  />
</g>
<g id="a1_0014"  >
<polygon points="246,90 253,90 258,85 253,80 246,80 246,90 " style="fill:white; stroke-width:1; stroke:black; " description="&lt;b&gt;OO60_RS35600&lt;/b&gt;&lt;br&gt;TetR/AcrR family transcriptional regulator&lt;br&gt;Location: 135369 - 134692" locus_tag="OO60_RS35600" class="clusterblast-orf" id="dummy-1_h1_3_14"  />
</g>
<g id="a1_0015"  >
<polygon points="262,90 268,90 273,85 268,80 262,80 262,90 " style="fill:white; stroke-width:1; stroke:black; " description="&lt;b&gt;OO60_RS35595&lt;/b&gt;&lt;br&gt;cutinase family protein&lt;br&gt;Location: 134444 - 133857" locus_tag="OO60_RS35595" class="clusterblast-orf" id="dummy-1_h1_3_15"  />
</g>
<g id="a1_0016"  >
<polygon points="274,85 279,80 288,80 288,90 279,90 274,85 " style="fill:#d81515; stroke-width:1; stroke:black; " description="&lt;b&gt;OO60_RS35590&lt;/b&gt;&lt;br&gt;esterase&lt;br&gt;Location: 133807 - 132986&lt;br&gt;&lt;br&gt;&lt;b&gt;BlastP hit with ctg108_2&lt;/b&gt;&lt;br&gt;Percentage identity: 80&lt;br&gt;Percentage coverage: 67&lt;br&gt;BLAST bit score: 456&lt;br&gt;E-value: 2.2e-126" locus_tag="OO60_RS35590" class="clusterblast-orf" id="dummy-1_h1_3_16"  />
</g>
<g id="a1_0017"  >
<polygon points="295,85 300,80 312,80 312,90 300,90 295,85 " style="fill:#63d815; stroke-width:1; stroke:black; " description="&lt;b&gt;OO60_RS35585&lt;/b&gt;&lt;br&gt;esterase family protein&lt;br&gt;Location: 132569 - 131601&lt;br&gt;&lt;br&gt;&lt;b&gt;BlastP hit with ctg108_3&lt;/b&gt;&lt;br&gt;Percentage identity: 73&lt;br&gt;Percentage coverage: 99&lt;br&gt;BLAST bit score: 500&lt;br&gt;E-value: 1.1e-139" locus_tag="OO60_RS35585" class="clusterblast-orf" id="dummy-1_h1_3_17"  />
</g>
<g id="a1_0018"  >
<polygon points="312,85 317,80 340,80 340,90 317,90 312,85 " style="fill:#15b1d8; stroke-width:1; stroke:black; " description="&lt;b&gt;OO60_RS35580&lt;/b&gt;&lt;br&gt;acyl-CoA carboxylase subunit beta&lt;br&gt;Location: 131591 - 130014&lt;br&gt;&lt;br&gt;&lt;b&gt;BlastP hit with ctg108_4&lt;/b&gt;&lt;br&gt;Percentage identity: 86&lt;br&gt;Percentage coverage: 99&lt;br&gt;BLAST bit score: 903&lt;br&gt;E-value: 1.5e-260" locus_tag="OO60_RS35580" class="clusterblast-orf" id="dummy-1_h1_3_18"  />
</g>
<g id="a1_0019"  >
<polygon points="340,85 345,80 447,80 447,90 345,90 340,85 " style="fill:#b115d8; stroke-width:1; stroke:black; " description="&lt;b&gt;OO60_RS35575&lt;/b&gt;&lt;br&gt;KR domain-containing protein&lt;br&gt;Location: 130014 - 123868&lt;br&gt;&lt;br&gt;&lt;b&gt;BlastP hit with ctg108_5&lt;/b&gt;&lt;br&gt;Percentage identity: 67&lt;br&gt;Percentage coverage: 102&lt;br&gt;BLAST bit score: 2565&lt;br&gt;E-value: 0.0" locus_tag="OO60_RS35575" class="clusterblast-orf" id="dummy-1_h1_3_19"  />
</g>
<g id="a1_0020"  >
<polygon points="447,85 452,80 477,80 477,90 452,90 447,85 " style="fill:#d86315; stroke-width:1; stroke:black; " description="&lt;b&gt;OO60_RS35570&lt;/b&gt;&lt;br&gt;fatty-acid--CoA ligase&lt;br&gt;Location: 123871 - 122138&lt;br&gt;&lt;br&gt;&lt;b&gt;BlastP hit with ctg108_6&lt;/b&gt;&lt;br&gt;Percentage identity: 70&lt;br&gt;Percentage coverage: 101&lt;br&gt;BLAST bit score: 733&lt;br&gt;E-value: 1.7e-209" locus_tag="OO60_RS35570" class="clusterblast-orf" id="dummy-1_h1_3_20"  />
</g>
<g id="a1_0021"  >
<polygon points="479,85 484,80 503,80 503,90 484,90 479,85 " style="fill:#15d815; stroke-width:1; stroke:black; " description="&lt;b&gt;OO60_RS35565&lt;/b&gt;&lt;br&gt;MFS transporter&lt;br&gt;Location: 122045 - 120660&lt;br&gt;&lt;br&gt;&lt;b&gt;BlastP hit with ctg108_7&lt;/b&gt;&lt;br&gt;Percentage identity: 65&lt;br&gt;Percentage coverage: 89&lt;br&gt;BLAST bit score: 490&lt;br&gt;E-value: 2.8e-136" locus_tag="OO60_RS35565" class="clusterblast-orf" id="dummy-1_h1_3_21"  />
</g>
<g id="a1_0022"  >
<polygon points="503,85 508,80 539,80 539,90 508,90 503,85 " style="fill:#d8b115; stroke-width:1; stroke:black; " description="&lt;b&gt;OO60_RS35560&lt;/b&gt;&lt;br&gt;membrane protein&lt;br&gt;Location: 120663 - 118609&lt;br&gt;&lt;br&gt;&lt;b&gt;BlastP hit with ctg108_10&lt;/b&gt;&lt;br&gt;Percentage identity: 60&lt;br&gt;Percentage coverage: 103&lt;br&gt;BLAST bit score: 633&lt;br&gt;E-value: 2.2e-179" locus_tag="OO60_RS35560" class="clusterblast-orf" id="dummy-1_h1_3_22"  />
</g>
<g id="a1_0023"  >
<polygon points="544,90 561,90 566,85 561,80 544,80 544,90 " style="fill:#15d863; stroke-width:1; stroke:black; " description="&lt;b&gt;OO60_RS35555&lt;/b&gt;&lt;br&gt;PucR family transcriptional regulator&lt;br&gt;Location: 118334 - 117093&lt;br&gt;&lt;br&gt;&lt;b&gt;BlastP hit with ctg108_11&lt;/b&gt;&lt;br&gt;Percentage identity: 70&lt;br&gt;Percentage coverage: 95&lt;br&gt;BLAST bit score: 547&lt;br&gt;E-value: 1.7e-153" locus_tag="OO60_RS35555" class="clusterblast-orf" id="dummy-1_h1_3_23"  />
</g>
<g id="a1_0024"  >
<polygon points="567,90 581,90 586,85 581,80 567,80 567,90 " style="fill:white; stroke-width:1; stroke:black; " description="&lt;b&gt;OO60_RS35550&lt;/b&gt;&lt;br&gt;galactose-1-epimerase&lt;br&gt;Location: 117022 - 115931" locus_tag="OO60_RS35550" class="clusterblast-orf" id="dummy-1_h1_3_24"  />
</g>
<g id="a1_0025"  >
<polygon points="586,90 594,90 599,85 594,80 586,80 586,90 " style="fill:white; stroke-width:1; stroke:black; " description="&lt;b&gt;OO60_RS35545&lt;/b&gt;&lt;br&gt;ABC transporter substrate-binding protein&lt;br&gt;Location: 115905 - 115186" locus_tag="OO60_RS35545" class="clusterblast-orf" id="dummy-1_h1_3_25"  />
</g>
<g id="a1_0026"  >
<polygon points="599,85 604,80 608,80 608,90 604,90 599,85 " style="fill:white; stroke-width:1; stroke:black; " description="&lt;b&gt;OO60_RS35540&lt;/b&gt;&lt;br&gt;DinB family protein&lt;br&gt;Location: 115183 - 114674" locus_tag="OO60_RS35540" class="clusterblast-orf" id="dummy-1_h1_3_26"  />
</g>
<g id="a1_0027"  >
<polygon points="609,85 614,80 626,80 626,90 614,90 609,85 " style="fill:white; stroke-width:1; stroke:black; " description="&lt;b&gt;OO60_RS35535&lt;/b&gt;&lt;br&gt;TIGR03557 family F420-dependent LLM class oxidoreductase&lt;br&gt;Location: 114615 - 113662" locus_tag="OO60_RS35535" class="clusterblast-orf" id="dummy-1_h1_3_27"  />
</g>
<g id="a1_0028"  >
<polygon points="627,90 636,90 641,85 636,80 627,80 627,90 " style="fill:white; stroke-width:1; stroke:black; " description="&lt;b&gt;OO60_RS35530&lt;/b&gt;&lt;br&gt;hypothetical protein&lt;br&gt;Location: 113553 - 112801" locus_tag="OO60_RS35530" class="clusterblast-orf" id="dummy-1_h1_3_28"  />
</g>
<g id="a1_0029"  >
<polygon points="640,90 648,90 653,85 648,80 640,80 640,90 " style="fill:white; stroke-width:1; stroke:black; " description="&lt;b&gt;OO60_RS35525&lt;/b&gt;&lt;br&gt;hypothetical protein&lt;br&gt;Location: 112814 - 112116" locus_tag="OO60_RS35525" class="clusterblast-orf" id="dummy-1_h1_3_29"  />
</g>
<g id="a1_0030"  >
<polygon points="655,90 678,90 683,85 678,80 655,80 655,90 " style="fill:white; stroke-width:1; stroke:black; " description="&lt;b&gt;OO60_RS35520&lt;/b&gt;&lt;br&gt;2-aminobenzoate-CoA ligase&lt;br&gt;Location: 111980 - 110397" locus_tag="OO60_RS35520" class="clusterblast-orf" id="dummy-1_h1_3_30"  />
</g>
<g id="a1_0031"  >
<polygon points="689,90 704,90 709,85 704,80 689,80 689,90 " style="fill:white; stroke-width:1; stroke:black; " description="&lt;b&gt;OO60_RS35515&lt;/b&gt;&lt;br&gt;molecular chaperone DnaJ&lt;br&gt;Location: 110004 - 108910" locus_tag="OO60_RS35515" class="clusterblast-orf" id="dummy-1_h1_3_31"  />
</g>
<g id="a1_0032"  >
<polygon points="710,90 716,90 721,85 716,80 710,80 710,90 " style="fill:white; stroke-width:1; stroke:black; " description="&lt;b&gt;OO60_RS35510&lt;/b&gt;&lt;br&gt;hypothetical protein&lt;br&gt;Location: 108803 - 108198" locus_tag="OO60_RS35510" class="clusterblast-orf" id="dummy-1_h1_3_32"  />
</g>
<g id="a1_0033"  >
<polygon points="722,85 727,80 765,80 765,90 727,90 722,85 " style="fill:white; stroke-width:1; stroke:black; " description="&lt;b&gt;OO60_RS35505&lt;/b&gt;&lt;br&gt;peptidase M14&lt;br&gt;Location: 108151 - 105692" locus_tag="OO60_RS35505" class="clusterblast-orf" id="dummy-1_h1_3_33"  />
</g>
<g id="a1_0034"  >
<polygon points="768,90 775,90 780,85 775,80 768,80 768,90 " style="fill:white; stroke-width:1; stroke:black; " description="&lt;b&gt;OO60_RS35500&lt;/b&gt;&lt;br&gt;DUF998 domain-containing protein&lt;br&gt;Location: 105510 - 104848" locus_tag="OO60_RS35500" class="clusterblast-orf" id="dummy-1_h1_3_34"  />
</g>
</svg>
