<svg xmlns="http://www.w3.org/2000/svg" xmlns:xlink="http://www.w3.org/1999/xlink" version="1.1" x="0" y="0" height="230" width="800" viewBox="0 0 800 230" preserveAspectRatio="none"  >
<g label="Query sequence" class="clusterblast-cluster"  >
<text x="5" y="20" class="clusterblast-acc"  >
Query sequence</text>
<line x1="10" y1="35" x2="778.0" y2="35" style="stroke-width:1; stroke:grey; "  />
<polygon points="328,35 330,30 330,40 328,35 " style="fill:white; stroke-width:1; stroke:black; " description="&lt;b&gt;ctg28_1&lt;/b&gt;&lt;br&gt;ctg28 1&lt;br&gt;Location: 0 - 228" locus_tag="ctg28_1" class="clusterblast-orf" id="dummy-1_q0_0_all"  />
<polygon points="330,40 334,35 330,30 330,40 " style="fill:white; stroke-width:1; stroke:black; " description="&lt;b&gt;ctg28_2&lt;/b&gt;&lt;br&gt;ctg28 2&lt;br&gt;Location: 273 - 906" locus_tag="ctg28_2" class="clusterblast-orf" id="dummy-1_q1_0_all"  />
<polygon points="334,40 338,35 334,30 334,40 " style="fill:white; stroke-width:1; stroke:black; " description="&lt;b&gt;ctg28_3&lt;/b&gt;&lt;br&gt;ctg28 3&lt;br&gt;Location: 902 - 1358" locus_tag="ctg28_3" class="clusterblast-orf" id="dummy-1_q2_0_all"  />
<polygon points="338,35 343,30 344,30 344,40 343,40 338,35 " style="fill:#d81515; stroke-width:1; stroke:black; " description="&lt;b&gt;ctg28_4&lt;/b&gt;&lt;br&gt;ctg28 4&lt;br&gt;Location: 1362 - 2313" locus_tag="ctg28_4" class="clusterblast-orf" id="dummy-1_q3_0_all"  />
<polygon points="344,35 349,30 356,30 356,40 349,40 344,35 " style="fill:#77d815; stroke-width:1; stroke:black; " description="&lt;b&gt;ctg28_5&lt;/b&gt;&lt;br&gt;ctg28 5&lt;br&gt;Location: 2309 - 3920" locus_tag="ctg28_5" class="clusterblast-orf" id="dummy-1_q4_0_all"  />
<polygon points="356,35 361,30 361,30 361,40 361,40 356,35 " style="fill:#15d8d8; stroke-width:1; stroke:black; " description="&lt;b&gt;ctg28_6&lt;/b&gt;&lt;br&gt;ctg28 6&lt;br&gt;Location: 3925 - 4675" locus_tag="ctg28_6" class="clusterblast-orf" id="dummy-1_q5_0_all"  />
<polygon points="361,35 366,30 369,30 369,40 366,40 361,35 " style="fill:#7715d8; stroke-width:1; stroke:black; " description="&lt;b&gt;ctg28_7&lt;/b&gt;&lt;br&gt;ctg28 7&lt;br&gt;Location: 4676 - 5867" locus_tag="ctg28_7" class="clusterblast-orf" id="dummy-1_q6_0_all"  />
<polygon points="369,35 374,30 375,30 375,40 374,40 369,35 " style="fill:#15d8d8; stroke-width:1; stroke:black; " description="&lt;b&gt;ctg28_8&lt;/b&gt;&lt;br&gt;ctg28 8&lt;br&gt;Location: 5863 - 6598" locus_tag="ctg28_8" class="clusterblast-orf" id="dummy-1_q7_0_all"  />
<polygon points="375,35 380,30 381,30 381,40 380,40 375,35 " style="fill:#d8a715; stroke-width:1; stroke:black; " description="&lt;b&gt;ctg28_9&lt;/b&gt;&lt;br&gt;ctg28 9&lt;br&gt;Location: 6590 - 7517" locus_tag="ctg28_9" class="clusterblast-orf" id="dummy-1_q8_0_all"  />
<polygon points="382,35 385,30 385,40 382,35 " style="fill:#15d846; stroke-width:1; stroke:black; " description="&lt;b&gt;ctg28_10&lt;/b&gt;&lt;br&gt;ctg28 10&lt;br&gt;Location: 7581 - 8097" locus_tag="ctg28_10" class="clusterblast-orf" id="dummy-1_q9_0_all"  />
<polygon points="386,40 390,40 395,35 390,30 386,30 386,40 " style="fill:#1546d8; stroke-width:1; stroke:black; " description="&lt;b&gt;ctg28_11&lt;/b&gt;&lt;br&gt;ctg28 11&lt;br&gt;Location: 8163 - 9498" locus_tag="ctg28_11" class="clusterblast-orf" id="dummy-1_q10_0_all"  />
<polygon points="396,40 400,35 396,30 396,40 " style="fill:white; stroke-width:1; stroke:black; " description="&lt;b&gt;ctg28_12&lt;/b&gt;&lt;br&gt;ctg28 12&lt;br&gt;Location: 9580 - 10147" locus_tag="ctg28_12" class="clusterblast-orf" id="dummy-1_q11_0_all"  />
<polygon points="400,40 404,35 400,30 400,40 " style="fill:white; stroke-width:1; stroke:black; " description="&lt;b&gt;ctg28_13&lt;/b&gt;&lt;br&gt;ctg28 13&lt;br&gt;Location: 10182 - 10761" locus_tag="ctg28_13" class="clusterblast-orf" id="dummy-1_q12_0_all"  />
<polygon points="404,35 407,30 407,40 404,35 " style="fill:white; stroke-width:1; stroke:black; " description="&lt;b&gt;ctg28_14&lt;/b&gt;&lt;br&gt;ctg28 14&lt;br&gt;Location: 10764 - 11163" locus_tag="ctg28_14" class="clusterblast-orf" id="dummy-1_q13_0_all"  />
<polygon points="412,35 416,30 416,40 412,35 " style="fill:white; stroke-width:1; stroke:black; " description="&lt;b&gt;ctg28_15&lt;/b&gt;&lt;br&gt;ctg28 15&lt;br&gt;Location: 11945 - 12437" locus_tag="ctg28_15" class="clusterblast-orf" id="dummy-1_q14_0_all"  />
<polygon points="417,40 421,35 417,30 417,40 " style="fill:white; stroke-width:1; stroke:black; " description="&lt;b&gt;ctg28_16&lt;/b&gt;&lt;br&gt;ctg28 16&lt;br&gt;Location: 12553 - 13216" locus_tag="ctg28_16" class="clusterblast-orf" id="dummy-1_q15_0_all"  />
<polygon points="421,35 426,30 426,30 426,40 426,40 421,35 " style="fill:white; stroke-width:1; stroke:black; " description="&lt;b&gt;ctg28_17&lt;/b&gt;&lt;br&gt;ctg28 17&lt;br&gt;Location: 13216 - 13882" locus_tag="ctg28_17" class="clusterblast-orf" id="dummy-1_q16_0_all"  />
<polygon points="427,40 430,40 435,35 430,30 427,30 427,40 " style="fill:white; stroke-width:1; stroke:black; " description="&lt;b&gt;ctg28_18&lt;/b&gt;&lt;br&gt;ctg28 18&lt;br&gt;Location: 13938 - 15120" locus_tag="ctg28_18" class="clusterblast-orf" id="dummy-1_q17_0_all"  />
<polygon points="435,40 435,40 440,35 435,30 435,30 435,40 " style="fill:#d815a7; stroke-width:1; stroke:black; " description="&lt;b&gt;ctg28_19&lt;/b&gt;&lt;br&gt;ctg28 19&lt;br&gt;Location: 15107 - 15788" locus_tag="ctg28_19" class="clusterblast-orf" id="dummy-1_q18_0_all"  />
<polygon points="440,40 446,40 451,35 446,30 440,30 440,40 " style="fill:white; stroke-width:1; stroke:black; " description="&lt;b&gt;ctg28_20&lt;/b&gt;&lt;br&gt;ctg28 20&lt;br&gt;Location: 15866 - 17411" locus_tag="ctg28_20" class="clusterblast-orf" id="dummy-1_q19_0_all"  />
</g>
<g label="NZ_BCQT01000004" description="NZ_BCQT01000004_c3: Actinomadura macra NBRC 14102, whole genome shotgun sequence (11% of genes show similarity), t2pks-t3pks-nrps" class="clusterblast-cluster"  >
<text x="5" y="70" class="clusterblast-acc"  >
<a xlink:href="https://antismash-db.secondarymetabolites.org/go/NZ_BCQT01000004/3" target="_blank">NZ_BCQT01000004_c3</a>: Actinomadura macra NBRC 14102, whole genome shotgun sequence (11% of genes show similarity), t2pks-t3pks-nrps</text>
<line x1="10" y1="85" x2="778.0" y2="85" style="stroke-width:1; stroke:grey; "  />
</g>
<g id="a1_000"  >
<polygon points="0,90 2,90 7,85 2,80 0,80 0,90 " style="fill:white; stroke-width:1; stroke:black; " description="&lt;b&gt;AMA02S_RS05260&lt;/b&gt;&lt;br&gt;UDP-N-acetylglucosamine 2-epimerase (non-hydrolyzing)&lt;br&gt;Location: 110280 - 109204" locus_tag="AMA02S_RS05260" class="clusterblast-orf" id="dummy-1_h1_8_0"  />
</g>
<g id="a1_001"  >
<polygon points="7,90 11,90 16,85 11,80 7,80 7,90 " style="fill:white; stroke-width:1; stroke:black; " description="&lt;b&gt;AMA02S_RS05255&lt;/b&gt;&lt;br&gt;nucleotide sugar dehydrogenase&lt;br&gt;Location: 109201 - 107942" locus_tag="AMA02S_RS05255" class="clusterblast-orf" id="dummy-1_h1_8_1"  />
</g>
<g id="a1_002"  >
<polygon points="16,85 19,80 19,90 16,85 " style="fill:white; stroke-width:1; stroke:black; " description="&lt;b&gt;AMA02S_RS05250&lt;/b&gt;&lt;br&gt;hypothetical protein&lt;br&gt;Location: 107923 - 107471" locus_tag="AMA02S_RS05250" class="clusterblast-orf" id="dummy-1_h1_8_2"  />
</g>
<g id="a1_003"  >
<polygon points="19,85 24,80 24,80 24,90 24,90 19,85 " style="fill:#d815a7; stroke-width:1; stroke:black; " description="&lt;b&gt;AMA02S_RS05245&lt;/b&gt;&lt;br&gt;DNA-binding response regulator&lt;br&gt;Location: 107467 - 106811&lt;br&gt;&lt;br&gt;&lt;b&gt;BlastP hit with ctg28_19&lt;/b&gt;&lt;br&gt;Percentage identity: 43&lt;br&gt;Percentage coverage: 96&lt;br&gt;BLAST bit score: 152&lt;br&gt;E-value: 5e-35" locus_tag="AMA02S_RS05245" class="clusterblast-orf" id="dummy-1_h1_8_3"  />
</g>
<g id="a1_004"  >
<polygon points="24,85 29,80 30,80 30,90 29,90 24,85 " style="fill:white; stroke-width:1; stroke:black; " description="&lt;b&gt;AMA02S_RS05240&lt;/b&gt;&lt;br&gt;hypothetical protein&lt;br&gt;Location: 106832 - 105927" locus_tag="AMA02S_RS05240" class="clusterblast-orf" id="dummy-1_h1_8_4"  />
</g>
<g id="a1_005"  >
<polygon points="32,85 37,80 42,80 42,90 37,90 32,85 " style="fill:white; stroke-width:1; stroke:black; " description="&lt;b&gt;AMA02S_RS05235&lt;/b&gt;&lt;br&gt;sensor histidine kinase&lt;br&gt;Location: 105656 - 104295" locus_tag="AMA02S_RS05235" class="clusterblast-orf" id="dummy-1_h1_8_5"  />
</g>
<g id="a1_006"  >
<polygon points="44,90 54,90 59,85 54,80 44,80 44,90 " style="fill:white; stroke-width:1; stroke:black; " description="&lt;b&gt;AMA02S_RS05230&lt;/b&gt;&lt;br&gt;MMPL family transporter&lt;br&gt;Location: 104042 - 101877" locus_tag="AMA02S_RS05230" class="clusterblast-orf" id="dummy-1_h1_8_6"  />
</g>
<g id="a1_007"  >
<polygon points="61,85 66,80 66,80 66,90 66,90 61,85 " style="fill:white; stroke-width:1; stroke:black; " description="&lt;b&gt;AMA02S_RS05225&lt;/b&gt;&lt;br&gt;DNA-binding response regulator&lt;br&gt;Location: 101629 - 100931" locus_tag="AMA02S_RS05225" class="clusterblast-orf" id="dummy-1_h1_8_7"  />
</g>
<g id="a1_008"  >
<polygon points="67,90 68,90 73,85 68,80 67,80 67,90 " style="fill:white; stroke-width:1; stroke:black; " description="&lt;b&gt;AMA02S_RS05220&lt;/b&gt;&lt;br&gt;NAD(P)-dependent oxidoreductase&lt;br&gt;Location: 100686 - 99943" locus_tag="AMA02S_RS05220" class="clusterblast-orf" id="dummy-1_h1_8_8"  />
</g>
<g id="a1_009"  >
<polygon points="73,90 75,85 73,80 73,90 " style="fill:white; stroke-width:1; stroke:black; " description="&lt;b&gt;AMA02S_RS05215&lt;/b&gt;&lt;br&gt;antibiotic biosynthesis monooxygenase&lt;br&gt;Location: 99943 - 99605" locus_tag="AMA02S_RS05215" class="clusterblast-orf" id="dummy-1_h1_8_9"  />
</g>
<g id="a1_0010"  >
<polygon points="75,90 77,85 75,80 75,90 " style="fill:white; stroke-width:1; stroke:black; " description="&lt;b&gt;AMA02S_RS05210&lt;/b&gt;&lt;br&gt;antibiotic biosynthesis monooxygenase&lt;br&gt;Location: 99608 - 99285" locus_tag="AMA02S_RS05210" class="clusterblast-orf" id="dummy-1_h1_8_10"  />
</g>
<g id="a1_0011"  >
<polygon points="77,90 81,90 86,85 81,80 77,80 77,90 " style="fill:white; stroke-width:1; stroke:black; " description="&lt;b&gt;AMA02S_RS05205&lt;/b&gt;&lt;br&gt;hypothetical protein&lt;br&gt;Location: 99288 - 98083" locus_tag="AMA02S_RS05205" class="clusterblast-orf" id="dummy-1_h1_8_11"  />
</g>
<g id="a1_0012"  >
<polygon points="86,90 89,85 86,80 86,90 " style="fill:white; stroke-width:1; stroke:black; " description="&lt;b&gt;AMA02S_RS05200&lt;/b&gt;&lt;br&gt;DUF1772 domain-containing protein&lt;br&gt;Location: 98069 - 97611" locus_tag="AMA02S_RS05200" class="clusterblast-orf" id="dummy-1_h1_8_12"  />
</g>
<g id="a1_0013"  >
<polygon points="89,90 92,85 89,80 89,90 " style="fill:white; stroke-width:1; stroke:black; " description="&lt;b&gt;AMA02S_RS05195&lt;/b&gt;&lt;br&gt;WhiE I&lt;br&gt;Location: 97583 - 97221" locus_tag="AMA02S_RS05195" class="clusterblast-orf" id="dummy-1_h1_8_13"  />
</g>
<g id="a1_0014"  >
<polygon points="92,90 94,90 99,85 94,80 92,80 92,90 " style="fill:white; stroke-width:1; stroke:black; " description="&lt;b&gt;AMA02S_RS05190&lt;/b&gt;&lt;br&gt;hypothetical protein&lt;br&gt;Location: 97224 - 96256" locus_tag="AMA02S_RS05190" class="clusterblast-orf" id="dummy-1_h1_8_14"  />
</g>
<g id="a1_0015"  >
<polygon points="100,90 102,85 100,80 100,90 " style="fill:white; stroke-width:1; stroke:black; " description="&lt;b&gt;AMA02S_RS05185&lt;/b&gt;&lt;br&gt;TcmI family type II polyketide cyclase&lt;br&gt;Location: 96055 - 95723" locus_tag="AMA02S_RS05185" class="clusterblast-orf" id="dummy-1_h1_8_15"  />
</g>
<g id="a1_0016"  >
<polygon points="102,90 110,90 115,85 110,80 102,80 102,90 " style="fill:white; stroke-width:1; stroke:black; " description="&lt;b&gt;AMA02S_RS05180&lt;/b&gt;&lt;br&gt;acetyl-CoA carboxylase carboxyltransferase subunit alpha&lt;br&gt;Location: 95726 - 94008" locus_tag="AMA02S_RS05180" class="clusterblast-orf" id="dummy-1_h1_8_16"  />
</g>
<g id="a1_0017"  >
<polygon points="115,90 119,85 115,80 115,90 " style="fill:white; stroke-width:1; stroke:black; " description="&lt;b&gt;AMA02S_RS05175&lt;/b&gt;&lt;br&gt;hypothetical protein&lt;br&gt;Location: 94015 - 93419" locus_tag="AMA02S_RS05175" class="clusterblast-orf" id="dummy-1_h1_8_17"  />
</g>
<g id="a1_0018"  >
<polygon points="119,90 124,90 129,85 124,80 119,80 119,90 " style="fill:white; stroke-width:1; stroke:black; " description="&lt;b&gt;AMA02S_RS05170&lt;/b&gt;&lt;br&gt;acetyl-CoA carboxylase biotin carboxylase subunit&lt;br&gt;Location: 93422 - 92019" locus_tag="AMA02S_RS05170" class="clusterblast-orf" id="dummy-1_h1_8_18"  />
</g>
<g id="a1_0019"  >
<polygon points="129,90 130,85 129,80 129,90 " style="fill:white; stroke-width:1; stroke:black; " description="&lt;b&gt;AMA02S_RS05165&lt;/b&gt;&lt;br&gt;acyl carrier protein&lt;br&gt;Location: 92028 - 91780" locus_tag="AMA02S_RS05165" class="clusterblast-orf" id="dummy-1_h1_8_19"  />
</g>
<g id="a1_0020"  >
<polygon points="131,90 132,90 137,85 132,80 131,80 131,90 " style="fill:white; stroke-width:1; stroke:black; " description="&lt;b&gt;AMA02S_RS05160&lt;/b&gt;&lt;br&gt;cyclase&lt;br&gt;Location: 91738 - 90905" locus_tag="AMA02S_RS05160" class="clusterblast-orf" id="dummy-1_h1_8_20"  />
</g>
<g id="a1_0021"  >
<polygon points="137,90 140,90 145,85 140,80 137,80 137,90 " style="fill:white; stroke-width:1; stroke:black; " description="&lt;b&gt;AMA02S_RS05155&lt;/b&gt;&lt;br&gt;beta-ketoacyl-[acyl-carrier-protein] synthase family protein&lt;br&gt;Location: 90908 - 89652" locus_tag="AMA02S_RS05155" class="clusterblast-orf" id="dummy-1_h1_8_21"  />
</g>
<g id="a1_0022"  >
<polygon points="145,90 149,90 154,85 149,80 145,80 145,90 " style="fill:white; stroke-width:1; stroke:black; " description="&lt;b&gt;AMA02S_RS05150&lt;/b&gt;&lt;br&gt;beta-ketoacyl synthase&lt;br&gt;Location: 89655 - 88429" locus_tag="AMA02S_RS05150" class="clusterblast-orf" id="dummy-1_h1_8_22"  />
</g>
<g id="a1_0023"  >
<polygon points="154,90 159,90 164,85 159,80 154,80 154,90 " style="fill:white; stroke-width:1; stroke:black; " description="&lt;b&gt;AMA02S_RS05145&lt;/b&gt;&lt;br&gt;hypothetical protein&lt;br&gt;Location: 88436 - 87063" locus_tag="AMA02S_RS05145" class="clusterblast-orf" id="dummy-1_h1_8_23"  />
</g>
<g id="a1_0024"  >
<polygon points="164,90 168,85 164,80 164,90 " style="fill:white; stroke-width:1; stroke:black; " description="&lt;b&gt;AMA02S_RS05140&lt;/b&gt;&lt;br&gt;hypothetical protein&lt;br&gt;Location: 87063 - 86416" locus_tag="AMA02S_RS05140" class="clusterblast-orf" id="dummy-1_h1_8_24"  />
</g>
<g id="a1_0025"  >
<polygon points="169,85 173,80 173,90 169,85 " style="fill:white; stroke-width:1; stroke:black; " description="&lt;b&gt;AMA02S_RS05135&lt;/b&gt;&lt;br&gt;hypothetical protein&lt;br&gt;Location: 86358 - 85729" locus_tag="AMA02S_RS05135" class="clusterblast-orf" id="dummy-1_h1_8_25"  />
</g>
<g id="a1_0026"  >
<polygon points="175,90 179,85 175,80 175,90 " style="fill:white; stroke-width:1; stroke:black; " description="&lt;b&gt;AMA02S_RS05130&lt;/b&gt;&lt;br&gt;DoxX family membrane protein&lt;br&gt;Location: 85495 - 84971" locus_tag="AMA02S_RS05130" class="clusterblast-orf" id="dummy-1_h1_8_26"  />
</g>
<g id="a1_0027"  >
<polygon points="179,85 184,80 186,80 186,90 184,90 179,85 " style="fill:#d81515; stroke-width:1; stroke:black; " description="&lt;b&gt;AMA02S_RS05125&lt;/b&gt;&lt;br&gt;2-nitropropane dioxygenase&lt;br&gt;Location: 84915 - 83953&lt;br&gt;&lt;br&gt;&lt;b&gt;BlastP hit with ctg28_4&lt;/b&gt;&lt;br&gt;Percentage identity: 71&lt;br&gt;Percentage coverage: 100&lt;br&gt;BLAST bit score: 408&lt;br&gt;E-value: 5.4e-112" locus_tag="AMA02S_RS05125" class="clusterblast-orf" id="dummy-1_h1_8_27"  />
</g>
<g id="a1_0028"  >
<polygon points="186,85 191,80 197,80 197,90 191,90 186,85 " style="fill:#77d815; stroke-width:1; stroke:black; " description="&lt;b&gt;AMA02S_RS05120&lt;/b&gt;&lt;br&gt;fatty-acid--CoA ligase&lt;br&gt;Location: 83956 - 82346&lt;br&gt;&lt;br&gt;&lt;b&gt;BlastP hit with ctg28_5&lt;/b&gt;&lt;br&gt;Percentage identity: 72&lt;br&gt;Percentage coverage: 100&lt;br&gt;BLAST bit score: 766&lt;br&gt;E-value: 1.7e-219" locus_tag="AMA02S_RS05120" class="clusterblast-orf" id="dummy-1_h1_8_28"  />
</g>
<g id="a1_0029"  >
<polygon points="197,85 202,80 203,80 203,90 202,90 197,85 " style="fill:#15d8d8; stroke-width:1; stroke:black; " description="&lt;b&gt;AMA02S_RS05115&lt;/b&gt;&lt;br&gt;enoyl-CoA hydratase/isomerase family protein&lt;br&gt;Location: 82349 - 81447&lt;br&gt;&lt;br&gt;&lt;b&gt;BlastP hit with ctg28_6&lt;/b&gt;&lt;br&gt;Percentage identity: 66&lt;br&gt;Percentage coverage: 97&lt;br&gt;BLAST bit score: 314&lt;br&gt;E-value: 1.4e-83&lt;br&gt;&lt;br&gt;&lt;b&gt;BlastP hit with ctg28_8&lt;/b&gt;&lt;br&gt;Percentage identity: 36&lt;br&gt;Percentage coverage: 96&lt;br&gt;BLAST bit score: 115&lt;br&gt;E-value: 7.3e-24" locus_tag="AMA02S_RS05115" class="clusterblast-orf" id="dummy-1_h1_8_29"  />
</g>
<g id="a1_0030"  >
<polygon points="203,85 208,80 212,80 212,90 208,90 203,85 " style="fill:#7715d8; stroke-width:1; stroke:black; " description="&lt;b&gt;AMA02S_RS05110&lt;/b&gt;&lt;br&gt;CoA transferase&lt;br&gt;Location: 81444 - 80257&lt;br&gt;&lt;br&gt;&lt;b&gt;BlastP hit with ctg28_7&lt;/b&gt;&lt;br&gt;Percentage identity: 70&lt;br&gt;Percentage coverage: 99&lt;br&gt;BLAST bit score: 567&lt;br&gt;E-value: 1.1e-159" locus_tag="AMA02S_RS05110" class="clusterblast-orf" id="dummy-1_h1_8_30"  />
</g>
<g id="a1_0031"  >
<polygon points="212,85 217,80 217,80 217,90 217,90 212,85 " style="fill:#15d8d8; stroke-width:1; stroke:black; " description="&lt;b&gt;AMA02S_RS05105&lt;/b&gt;&lt;br&gt;enoyl-CoA hydratase/isomerase family protein&lt;br&gt;Location: 80260 - 79505&lt;br&gt;&lt;br&gt;&lt;b&gt;BlastP hit with ctg28_6&lt;/b&gt;&lt;br&gt;Percentage identity: 35&lt;br&gt;Percentage coverage: 92&lt;br&gt;BLAST bit score: 101&lt;br&gt;E-value: 1.9e-19&lt;br&gt;&lt;br&gt;&lt;b&gt;BlastP hit with ctg28_8&lt;/b&gt;&lt;br&gt;Percentage identity: 65&lt;br&gt;Percentage coverage: 97&lt;br&gt;BLAST bit score: 293&lt;br&gt;E-value: 2e-77" locus_tag="AMA02S_RS05105" class="clusterblast-orf" id="dummy-1_h1_8_31"  />
</g>
<g id="a1_0032"  >
<polygon points="217,85 222,80 224,80 224,90 222,90 217,85 " style="fill:#d8a715; stroke-width:1; stroke:black; " description="&lt;b&gt;AMA02S_RS05100&lt;/b&gt;&lt;br&gt;hydroxymethylglutaryl-CoA lyase&lt;br&gt;Location: 79512 - 78568&lt;br&gt;&lt;br&gt;&lt;b&gt;BlastP hit with ctg28_9&lt;/b&gt;&lt;br&gt;Percentage identity: 71&lt;br&gt;Percentage coverage: 98&lt;br&gt;BLAST bit score: 436&lt;br&gt;E-value: 3.1e-120" locus_tag="AMA02S_RS05100" class="clusterblast-orf" id="dummy-1_h1_8_32"  />
</g>
<g id="a1_0033"  >
<polygon points="225,85 228,80 228,90 225,85 " style="fill:#15d846; stroke-width:1; stroke:black; " description="&lt;b&gt;AMA02S_RS05095&lt;/b&gt;&lt;br&gt;MarR family transcriptional regulator&lt;br&gt;Location: 78463 - 77972&lt;br&gt;&lt;br&gt;&lt;b&gt;BlastP hit with ctg28_10&lt;/b&gt;&lt;br&gt;Percentage identity: 70&lt;br&gt;Percentage coverage: 84&lt;br&gt;BLAST bit score: 193&lt;br&gt;E-value: 1.5e-47" locus_tag="AMA02S_RS05095" class="clusterblast-orf" id="dummy-1_h1_8_33"  />
</g>
<g id="a1_0034"  >
<polygon points="229,90 235,90 240,85 235,80 229,80 229,90 " style="fill:white; stroke-width:1; stroke:black; " description="&lt;b&gt;AMA02S_RS05090&lt;/b&gt;&lt;br&gt;NAD-dependent succinate-semialdehyde dehydrogenase&lt;br&gt;Location: 77770 - 76304" locus_tag="AMA02S_RS05090" class="clusterblast-orf" id="dummy-1_h1_8_34"  />
</g>
<g id="a1_0035"  >
<polygon points="240,90 244,90 249,85 244,80 240,80 240,90 " style="fill:white; stroke-width:1; stroke:black; " description="&lt;b&gt;AMA02S_RS05085&lt;/b&gt;&lt;br&gt;aspartate aminotransferase family protein&lt;br&gt;Location: 76293 - 74977" locus_tag="AMA02S_RS05085" class="clusterblast-orf" id="dummy-1_h1_8_35"  />
</g>
<g id="a1_0036"  >
<polygon points="250,90 252,90 257,85 252,80 250,80 250,90 " style="fill:white; stroke-width:1; stroke:black; " description="&lt;b&gt;AMA02S_RS05080&lt;/b&gt;&lt;br&gt;ABC transporter substrate-binding protein&lt;br&gt;Location: 74929 - 73880" locus_tag="AMA02S_RS05080" class="clusterblast-orf" id="dummy-1_h1_8_36"  />
</g>
<g id="a1_0037"  >
<polygon points="257,90 258,90 263,85 258,80 257,80 257,90 " style="fill:white; stroke-width:1; stroke:black; " description="&lt;b&gt;AMA02S_RS05075&lt;/b&gt;&lt;br&gt;ABC transporter permease&lt;br&gt;Location: 73871 - 72990" locus_tag="AMA02S_RS05075" class="clusterblast-orf" id="dummy-1_h1_8_37"  />
</g>
<g id="a1_0038"  >
<polygon points="263,90 264,90 269,85 264,80 263,80 263,90 " style="fill:white; stroke-width:1; stroke:black; " description="&lt;b&gt;AMA02S_RS05070&lt;/b&gt;&lt;br&gt;ABC transporter permease&lt;br&gt;Location: 72997 - 72158" locus_tag="AMA02S_RS05070" class="clusterblast-orf" id="dummy-1_h1_8_38"  />
</g>
<g id="a1_0039"  >
<polygon points="269,90 272,90 277,85 272,80 269,80 269,90 " style="fill:white; stroke-width:1; stroke:black; " description="&lt;b&gt;AMA02S_RS05065&lt;/b&gt;&lt;br&gt;ABC transporter ATP-binding protein&lt;br&gt;Location: 72158 - 71007" locus_tag="AMA02S_RS05065" class="clusterblast-orf" id="dummy-1_h1_8_39"  />
</g>
<g id="a1_0040"  >
<polygon points="278,90 294,90 299,85 294,80 278,80 278,90 " style="fill:white; stroke-width:1; stroke:black; " description="&lt;b&gt;AMA02S_RS05060&lt;/b&gt;&lt;br&gt;hypothetical protein&lt;br&gt;Location: 70962 - 67894" locus_tag="AMA02S_RS05060" class="clusterblast-orf" id="dummy-1_h1_8_40"  />
</g>
<g id="a1_0041"  >
<polygon points="299,90 306,90 311,85 306,80 299,80 299,90 " style="fill:white; stroke-width:1; stroke:black; " description="&lt;b&gt;AMA02S_RS05055&lt;/b&gt;&lt;br&gt;amidohydrolase&lt;br&gt;Location: 67893 - 66247" locus_tag="AMA02S_RS05055" class="clusterblast-orf" id="dummy-1_h1_8_41"  />
</g>
<g id="a1_0042"  >
<polygon points="312,90 312,90 317,85 312,80 312,80 312,90 " style="fill:white; stroke-width:1; stroke:black; " description="&lt;b&gt;AMA02S_RS05050&lt;/b&gt;&lt;br&gt;nucleotide exchange factor GrpE&lt;br&gt;Location: 66046 - 65324" locus_tag="AMA02S_RS05050" class="clusterblast-orf" id="dummy-1_h1_8_42"  />
</g>
<g id="a1_0043"  >
<polygon points="317,90 324,90 329,85 324,80 317,80 317,90 " style="fill:white; stroke-width:1; stroke:black; " description="&lt;b&gt;AMA02S_RS05045&lt;/b&gt;&lt;br&gt;Hsp70 family protein&lt;br&gt;Location: 65391 - 63643" locus_tag="AMA02S_RS05045" class="clusterblast-orf" id="dummy-1_h1_8_43"  />
</g>
<g id="a1_0044"  >
<polygon points="327,90 339,90 344,85 339,80 327,80 327,90 " style="fill:white; stroke-width:1; stroke:black; " description="&lt;b&gt;AMA02S_RS05040&lt;/b&gt;&lt;br&gt;hypothetical protein&lt;br&gt;Location: 63976 - 61529" locus_tag="AMA02S_RS05040" class="clusterblast-orf" id="dummy-1_h1_8_44"  />
</g>
<g id="a1_0045"  >
<polygon points="344,90 361,90 366,85 361,80 344,80 344,90 " style="fill:white; stroke-width:1; stroke:black; " description="&lt;b&gt;AMA02S_RS05035&lt;/b&gt;&lt;br&gt;hypothetical protein&lt;br&gt;Location: 61532 - 58491" locus_tag="AMA02S_RS05035" class="clusterblast-orf" id="dummy-1_h1_8_45"  />
</g>
<g id="a1_0046"  >
<polygon points="366,85 369,80 369,90 366,85 " style="fill:white; stroke-width:1; stroke:black; " description="&lt;b&gt;AMA02S_RS05030&lt;/b&gt;&lt;br&gt;hypothetical protein&lt;br&gt;Location: 58501 - 57983" locus_tag="AMA02S_RS05030" class="clusterblast-orf" id="dummy-1_h1_8_46"  />
</g>
<g id="a1_0047"  >
<polygon points="369,85 374,80 380,80 380,90 374,90 369,85 " style="fill:white; stroke-width:1; stroke:black; " description="&lt;b&gt;AMA02S_RS05025&lt;/b&gt;&lt;br&gt;hypothetical protein&lt;br&gt;Location: 57981 - 56524" locus_tag="AMA02S_RS05025" class="clusterblast-orf" id="dummy-1_h1_8_47"  />
</g>
<g id="a1_0048"  >
<polygon points="381,85 386,80 410,80 410,90 386,90 381,85 " style="fill:white; stroke-width:1; stroke:black; " description="&lt;b&gt;AMA02S_RS05020&lt;/b&gt;&lt;br&gt;hypothetical protein&lt;br&gt;Location: 56327 - 52194" locus_tag="AMA02S_RS05020" class="clusterblast-orf" id="dummy-1_h1_8_48"  />
</g>
<g id="a1_0049"  >
<polygon points="412,85 415,80 415,90 412,85 " style="fill:white; stroke-width:1; stroke:black; " description="&lt;b&gt;AMA02S_RS05015&lt;/b&gt;&lt;br&gt;hypothetical protein&lt;br&gt;Location: 52014 - 51592" locus_tag="AMA02S_RS05015" class="clusterblast-orf" id="dummy-1_h1_8_49"  />
</g>
<g id="a1_0050"  >
<polygon points="417,90 421,85 417,80 417,90 " style="fill:white; stroke-width:1; stroke:black; " description="&lt;b&gt;AMA02S_RS05010&lt;/b&gt;&lt;br&gt;TIGR00730 family Rossman fold protein&lt;br&gt;Location: 51284 - 50700" locus_tag="AMA02S_RS05010" class="clusterblast-orf" id="dummy-1_h1_8_50"  />
</g>
<g id="a1_0051"  >
<polygon points="422,85 427,80 430,80 430,90 427,90 422,85 " style="fill:white; stroke-width:1; stroke:black; " description="&lt;b&gt;AMA02S_RS05005&lt;/b&gt;&lt;br&gt;PQQ-dependent sugar dehydrogenase&lt;br&gt;Location: 50548 - 49427" locus_tag="AMA02S_RS05005" class="clusterblast-orf" id="dummy-1_h1_8_51"  />
</g>
<g id="a1_0052"  >
<polygon points="435,90 438,90 443,85 438,80 435,80 435,90 " style="fill:white; stroke-width:1; stroke:black; " description="&lt;b&gt;AMA02S_RS05000&lt;/b&gt;&lt;br&gt;type III polyketide synthase&lt;br&gt;Location: 48732 - 47560" locus_tag="AMA02S_RS05000" class="clusterblast-orf" id="dummy-1_h1_8_52"  />
</g>
<g id="a1_0053"  >
<polygon points="443,90 443,90 448,85 443,80 443,80 443,90 " style="fill:white; stroke-width:1; stroke:black; " description="&lt;b&gt;AMA02S_RS04995&lt;/b&gt;&lt;br&gt;enoyl-CoA hydratase/isomerase family protein&lt;br&gt;Location: 47566 - 46841" locus_tag="AMA02S_RS04995" class="clusterblast-orf" id="dummy-1_h1_8_53"  />
</g>
<g id="a1_0054"  >
<polygon points="448,90 453,90 458,85 453,80 448,80 448,90 " style="fill:white; stroke-width:1; stroke:black; " description="&lt;b&gt;AMA02S_RS04990&lt;/b&gt;&lt;br&gt;enoyl-CoA hydratase/isomerase family protein&lt;br&gt;Location: 46844 - 45492" locus_tag="AMA02S_RS04990" class="clusterblast-orf" id="dummy-1_h1_8_54"  />
</g>
<g id="a1_0055"  >
<polygon points="458,90 459,90 464,85 459,80 458,80 458,90 " style="fill:white; stroke-width:1; stroke:black; " description="&lt;b&gt;AMA02S_RS04985&lt;/b&gt;&lt;br&gt;enoyl-CoA hydratase&lt;br&gt;Location: 45475 - 44669" locus_tag="AMA02S_RS04985" class="clusterblast-orf" id="dummy-1_h1_8_55"  />
</g>
<g id="a1_0056"  >
<polygon points="469,90 470,90 475,85 470,80 469,80 469,90 " style="fill:white; stroke-width:1; stroke:black; " description="&lt;b&gt;AMA02S_RS04980&lt;/b&gt;&lt;br&gt;streptomycin biosynthesis protein&lt;br&gt;Location: 43903 - 43025" locus_tag="AMA02S_RS04980" class="clusterblast-orf" id="dummy-1_h1_8_56"  />
</g>
<g id="a1_0057"  >
<polygon points="477,90 479,90 484,85 479,80 477,80 477,90 " style="fill:white; stroke-width:1; stroke:black; " description="&lt;b&gt;AMA02S_RS04975&lt;/b&gt;&lt;br&gt;4-hydroxyphenylpyruvate dioxygenase&lt;br&gt;Location: 42801 - 41746" locus_tag="AMA02S_RS04975" class="clusterblast-orf" id="dummy-1_h1_8_57"  />
</g>
<g id="a1_0058"  >
<polygon points="487,90 500,90 505,85 500,80 487,80 487,90 " style="fill:white; stroke-width:1; stroke:black; " description="&lt;b&gt;AMA02S_RS39925&lt;/b&gt;&lt;br&gt;aminotransferase&lt;br&gt;Location: 41340 - 38824" locus_tag="AMA02S_RS39925" class="clusterblast-orf" id="dummy-1_h1_8_58"  />
</g>
<g id="a1_0059"  >
<polygon points="507,90 509,90 514,85 509,80 507,80 507,90 " style="fill:white; stroke-width:1; stroke:black; " description="&lt;b&gt;AMA02S_RS04960&lt;/b&gt;&lt;br&gt;hypothetical protein&lt;br&gt;Location: 38492 - 37545" locus_tag="AMA02S_RS04960" class="clusterblast-orf" id="dummy-1_h1_8_59"  />
</g>
<g id="a1_0060"  >
<polygon points="515,90 518,85 515,80 515,90 " style="fill:white; stroke-width:1; stroke:black; " description="&lt;b&gt;AMA02S_RS04955&lt;/b&gt;&lt;br&gt;cold shock domain-containing protein&lt;br&gt;Location: 37391 - 36924" locus_tag="AMA02S_RS04955" class="clusterblast-orf" id="dummy-1_h1_8_60"  />
</g>
<g id="a1_0061"  >
<polygon points="520,85 525,80 534,80 534,90 525,90 520,85 " style="fill:white; stroke-width:1; stroke:black; " description="&lt;b&gt;AMA02S_RS04950&lt;/b&gt;&lt;br&gt;molecular chaperone HtpG&lt;br&gt;Location: 36755 - 34683" locus_tag="AMA02S_RS04950" class="clusterblast-orf" id="dummy-1_h1_8_61"  />
</g>
<g id="a1_0062"  >
<polygon points="535,85 540,80 549,80 549,90 540,90 535,85 " style="fill:white; stroke-width:1; stroke:black; " description="&lt;b&gt;AMA02S_RS04945&lt;/b&gt;&lt;br&gt;ABC transporter ATP-binding protein&lt;br&gt;Location: 34562 - 32628" locus_tag="AMA02S_RS04945" class="clusterblast-orf" id="dummy-1_h1_8_62"  />
</g>
<g id="a1_0063"  >
<polygon points="549,85 551,80 551,90 549,85 " style="fill:white; stroke-width:1; stroke:black; " description="&lt;b&gt;AMA02S_RS04940&lt;/b&gt;&lt;br&gt;acyl carrier protein&lt;br&gt;Location: 32524 - 32243" locus_tag="AMA02S_RS04940" class="clusterblast-orf" id="dummy-1_h1_8_63"  />
</g>
<g id="a1_0064"  >
<polygon points="552,85 557,80 561,80 561,90 557,90 552,85 " style="fill:white; stroke-width:1; stroke:black; " description="&lt;b&gt;AMA02S_RS04935&lt;/b&gt;&lt;br&gt;cytochrome P450&lt;br&gt;Location: 32210 - 30906" locus_tag="AMA02S_RS04935" class="clusterblast-orf" id="dummy-1_h1_8_64"  />
</g>
<g id="a1_0065"  >
<polygon points="563,90 604,90 609,85 604,80 563,80 563,90 " style="fill:white; stroke-width:1; stroke:black; " description="&lt;b&gt;AMA02S_RS04930&lt;/b&gt;&lt;br&gt;non-ribosomal peptide synthetase&lt;br&gt;Location: 30625 - 24149" locus_tag="AMA02S_RS04930" class="clusterblast-orf" id="dummy-1_h1_8_65"  />
</g>
<g id="a1_0066"  >
<polygon points="610,85 613,80 613,90 610,85 " style="fill:white; stroke-width:1; stroke:black; " description="&lt;b&gt;AMA02S_RS04925&lt;/b&gt;&lt;br&gt;hypothetical protein&lt;br&gt;Location: 23929 - 23579" locus_tag="AMA02S_RS04925" class="clusterblast-orf" id="dummy-1_h1_8_66"  />
</g>
<g id="a1_0067"  >
<polygon points="614,85 619,80 621,80 621,90 619,90 614,85 " style="fill:white; stroke-width:1; stroke:black; " description="&lt;b&gt;AMA02S_RS04920&lt;/b&gt;&lt;br&gt;hypothetical protein&lt;br&gt;Location: 23371 - 22403" locus_tag="AMA02S_RS04920" class="clusterblast-orf" id="dummy-1_h1_8_67"  />
</g>
<g id="a1_0068"  >
<polygon points="622,85 623,80 623,90 622,85 " style="fill:white; stroke-width:1; stroke:black; " description="&lt;b&gt;AMA02S_RS04915&lt;/b&gt;&lt;br&gt;MbtH family protein&lt;br&gt;Location: 22285 - 22073" locus_tag="AMA02S_RS04915" class="clusterblast-orf" id="dummy-1_h1_8_68"  />
</g>
<g id="a1_0069"  >
<polygon points="626,90 632,90 637,85 632,80 626,80 626,90 " style="fill:white; stroke-width:1; stroke:black; " description="&lt;b&gt;AMA02S_RS04910&lt;/b&gt;&lt;br&gt;MBL fold metallo-hydrolase&lt;br&gt;Location: 21706 - 20114" locus_tag="AMA02S_RS04910" class="clusterblast-orf" id="dummy-1_h1_8_69"  />
</g>
<g id="a1_0070"  >
<polygon points="637,90 638,90 643,85 638,80 637,80 637,90 " style="fill:white; stroke-width:1; stroke:black; " description="&lt;b&gt;AMA02S_RS04905&lt;/b&gt;&lt;br&gt;alpha/beta hydrolase&lt;br&gt;Location: 20101 - 19298" locus_tag="AMA02S_RS04905" class="clusterblast-orf" id="dummy-1_h1_8_70"  />
</g>
<g id="a1_0071"  >
<polygon points="645,90 775,90 780,85 775,80 645,80 645,90 " style="fill:white; stroke-width:1; stroke:black; " description="&lt;b&gt;AMA02S_RS04900&lt;/b&gt;&lt;br&gt;non-ribosomal peptide synthetase&lt;br&gt;Location: 19044 - 1" locus_tag="AMA02S_RS04900" class="clusterblast-orf" id="dummy-1_h1_8_71"  />
</g>
</svg>
