<svg xmlns="http://www.w3.org/2000/svg" xmlns:xlink="http://www.w3.org/1999/xlink" version="1.1" x="0" y="0" height="230" width="800" viewBox="0 0 800 230" preserveAspectRatio="none"  >
<g label="Query sequence" class="clusterblast-cluster"  >
<text x="5" y="20" class="clusterblast-acc"  >
Query sequence</text>
<line x1="10" y1="35" x2="778.0" y2="35" style="stroke-width:1; stroke:grey; "  />
<polygon points="104,40 167,40 172,35 167,30 104,30 104,40 " style="fill:#d81515; stroke-width:1; stroke:black; " description="&lt;b&gt;ctg155_1&lt;/b&gt;&lt;br&gt;ctg155 1&lt;br&gt;Location: 0 - 990" locus_tag="ctg155_1" class="clusterblast-orf" id="dummy-1_q0_0_all"  />
<polygon points="172,40 255,40 260,35 255,30 172,30 172,40 " style="fill:#15d863; stroke-width:1; stroke:black; " description="&lt;b&gt;ctg155_2&lt;/b&gt;&lt;br&gt;ctg155 2&lt;br&gt;Location: 986 - 2267" locus_tag="ctg155_2" class="clusterblast-orf" id="dummy-1_q1_0_all"  />
<polygon points="260,40 376,40 381,35 376,30 260,30 260,40 " style="fill:#1563d8; stroke-width:1; stroke:black; " description="&lt;b&gt;ctg155_3&lt;/b&gt;&lt;br&gt;ctg155 3&lt;br&gt;Location: 2269 - 4033" locus_tag="ctg155_3" class="clusterblast-orf" id="dummy-1_q2_0_all"  />
<polygon points="381,40 468,40 473,35 468,30 381,30 381,40 " style="fill:#b115d8; stroke-width:1; stroke:black; " description="&lt;b&gt;ctg155_4&lt;/b&gt;&lt;br&gt;ctg155 4&lt;br&gt;Location: 4026 - 5355" locus_tag="ctg155_4" class="clusterblast-orf" id="dummy-1_q3_0_all"  />
<polygon points="470,35 475,30 555,30 555,40 475,40 470,35 " style="fill:#b1d815; stroke-width:1; stroke:black; " description="&lt;b&gt;ctg155_5&lt;/b&gt;&lt;br&gt;ctg155 5&lt;br&gt;Location: 5314 - 6553" locus_tag="ctg155_5" class="clusterblast-orf" id="dummy-1_q4_0_all"  />
<polygon points="584,35 589,30 664,30 664,40 589,40 584,35 " style="fill:white; stroke-width:1; stroke:black; " description="&lt;b&gt;ctg155_6&lt;/b&gt;&lt;br&gt;ctg155 6&lt;br&gt;Location: 6976 - 8128" locus_tag="ctg155_6" class="clusterblast-orf" id="dummy-1_q5_0_all"  />
<polygon points="662,35 667,30 677,30 677,40 667,40 662,35 " style="fill:white; stroke-width:1; stroke:black; " description="&lt;b&gt;ctg155_7&lt;/b&gt;&lt;br&gt;ctg155 7&lt;br&gt;Location: 8111 - 8318" locus_tag="ctg155_7" class="clusterblast-orf" id="dummy-1_q6_0_all"  />
</g>
<g label="NZ_JNYZ01000014" description="NZ_JNYZ01000014_c14: Amycolatopsis jejuensis strain NRRL B-24427 contig14.1, ... (50% of genes show similarity), siderophore" class="clusterblast-cluster"  >
<text x="5" y="70" class="clusterblast-acc"  >
<a xlink:href="https://antismash-db.secondarymetabolites.org/go/NZ_JNYZ01000014/14" target="_blank">NZ_JNYZ01000014_c14</a>: Amycolatopsis jejuensis strain NRRL B-24427 contig14.1, ... (50% of genes show similarity), siderophore</text>
<line x1="10" y1="85" x2="778.0" y2="85" style="stroke-width:1; stroke:grey; "  />
</g>
<g id="a1_000"  >
<polygon points="0,90 60,90 65,85 60,80 0,80 0,90 " style="fill:white; stroke-width:1; stroke:black; " description="&lt;b&gt;OO71_RS21515&lt;/b&gt;&lt;br&gt;LLM class F420-dependent oxidoreductase&lt;br&gt;Location: 126902 - 127858" locus_tag="OO71_RS21515" class="clusterblast-orf" id="dummy-1_h1_8_0"  />
</g>
<g id="a1_001"  >
<polygon points="91,85 96,80 104,80 104,90 96,90 91,85 " style="fill:white; stroke-width:1; stroke:black; " description="&lt;b&gt;OO71_RS21520&lt;/b&gt;&lt;br&gt;hypothetical protein&lt;br&gt;Location: 128231 - 128416" locus_tag="OO71_RS21520" class="clusterblast-orf" id="dummy-1_h1_8_1"  />
</g>
<g id="a1_002"  >
<polygon points="115,90 229,90 234,85 229,80 115,80 115,90 " style="fill:#d81515; stroke-width:1; stroke:black; " description="&lt;b&gt;OO71_RS21525&lt;/b&gt;&lt;br&gt;aminotransferase class V-fold PLP-dependent enzyme&lt;br&gt;Location: 128578 - 130302&lt;br&gt;&lt;br&gt;&lt;b&gt;BlastP hit with ctg155_1&lt;/b&gt;&lt;br&gt;Percentage identity: 67&lt;br&gt;Percentage coverage: 101&lt;br&gt;BLAST bit score: 428&lt;br&gt;E-value: 5.3e-118" locus_tag="OO71_RS21525" class="clusterblast-orf" id="dummy-1_h1_8_2"  />
</g>
<g id="a1_003"  >
<polygon points="234,90 317,90 322,85 317,80 234,80 234,90 " style="fill:#15d863; stroke-width:1; stroke:black; " description="&lt;b&gt;OO71_RS21530&lt;/b&gt;&lt;br&gt;lysine 6-monooxygenase&lt;br&gt;Location: 130299 - 131582&lt;br&gt;&lt;br&gt;&lt;b&gt;BlastP hit with ctg155_2&lt;/b&gt;&lt;br&gt;Percentage identity: 67&lt;br&gt;Percentage coverage: 100&lt;br&gt;BLAST bit score: 559&lt;br&gt;E-value: 2.6e-157" locus_tag="OO71_RS21530" class="clusterblast-orf" id="dummy-1_h1_8_3"  />
</g>
<g id="a1_004"  >
<polygon points="322,90 440,90 445,85 440,80 322,80 322,90 " style="fill:#1563d8; stroke-width:1; stroke:black; " description="&lt;b&gt;OO71_RS21535&lt;/b&gt;&lt;br&gt;siderophore biosynthesis protein IucA&lt;br&gt;Location: 131579 - 133369&lt;br&gt;&lt;br&gt;&lt;b&gt;BlastP hit with ctg155_3&lt;/b&gt;&lt;br&gt;Percentage identity: 77&lt;br&gt;Percentage coverage: 101&lt;br&gt;BLAST bit score: 919&lt;br&gt;E-value: 1.8e-265" locus_tag="OO71_RS21535" class="clusterblast-orf" id="dummy-1_h1_8_4"  />
</g>
<g id="a1_005"  >
<polygon points="445,90 530,90 535,85 530,80 445,80 445,90 " style="fill:#b115d8; stroke-width:1; stroke:black; " description="&lt;b&gt;OO71_RS21540&lt;/b&gt;&lt;br&gt;glutamine synthetase&lt;br&gt;Location: 133366 - 134679&lt;br&gt;&lt;br&gt;&lt;b&gt;BlastP hit with ctg155_4&lt;/b&gt;&lt;br&gt;Percentage identity: 64&lt;br&gt;Percentage coverage: 100&lt;br&gt;BLAST bit score: 507&lt;br&gt;E-value: 2.1e-141" locus_tag="OO71_RS21540" class="clusterblast-orf" id="dummy-1_h1_8_5"  />
</g>
<g id="a1_006"  >
<polygon points="553,90 646,90 651,85 646,80 553,80 553,90 " style="fill:white; stroke-width:1; stroke:black; " description="&lt;b&gt;OO71_RS21545&lt;/b&gt;&lt;br&gt;Si-specific NAD(P)(+) transhydrogenase&lt;br&gt;Location: 134939 - 136351" locus_tag="OO71_RS21545" class="clusterblast-orf" id="dummy-1_h1_8_6"  />
</g>
<g id="a1_007"  >
<polygon points="659,90 775,90 780,85 775,80 659,80 659,90 " style="fill:white; stroke-width:1; stroke:black; " description="&lt;b&gt;OO71_RS21550&lt;/b&gt;&lt;br&gt;radical SAM protein&lt;br&gt;Location: 136476 - 138221" locus_tag="OO71_RS21550" class="clusterblast-orf" id="dummy-1_h1_8_7"  />
</g>
</svg>
