<svg xmlns="http://www.w3.org/2000/svg" xmlns:xlink="http://www.w3.org/1999/xlink" version="1.1" x="0" y="0" height="230" width="800" viewBox="0 0 800 230" preserveAspectRatio="none"  >
<g label="Query sequence" class="clusterblast-cluster"  >
<text x="5" y="20" class="clusterblast-acc"  >
Query sequence</text>
<line x1="10" y1="35" x2="778.0" y2="35" style="stroke-width:1; stroke:grey; "  />
<polygon points="128,35 133,30 135,30 135,40 133,40 128,35 " style="fill:white; stroke-width:1; stroke:black; " description="&lt;b&gt;ctg71_10&lt;/b&gt;&lt;br&gt;ctg71 10&lt;br&gt;Location: 9779 - 10166" locus_tag="ctg71_10" class="clusterblast-orf" id="dummy-1_q0_0_all"  />
<polygon points="138,40 142,35 138,30 138,40 " style="fill:white; stroke-width:1; stroke:black; " description="&lt;b&gt;ctg71_11&lt;/b&gt;&lt;br&gt;ctg71 11&lt;br&gt;Location: 10355 - 10583" locus_tag="ctg71_11" class="clusterblast-orf" id="dummy-1_q1_0_all"  />
<polygon points="144,35 149,30 161,30 161,40 149,40 144,35 " style="fill:#d81515; stroke-width:1; stroke:black; " description="&lt;b&gt;ctg71_12&lt;/b&gt;&lt;br&gt;ctg71 12&lt;br&gt;Location: 10705 - 11614" locus_tag="ctg71_12" class="clusterblast-orf" id="dummy-1_q2_0_all"  />
<polygon points="162,40 172,40 177,35 172,30 162,30 162,40 " style="fill:#77d815; stroke-width:1; stroke:black; " description="&lt;b&gt;ctg71_13&lt;/b&gt;&lt;br&gt;ctg71 13&lt;br&gt;Location: 11698 - 12526" locus_tag="ctg71_13" class="clusterblast-orf" id="dummy-1_q3_0_all"  />
<polygon points="177,35 182,30 200,30 200,40 182,40 177,35 " style="fill:#15d8d8; stroke-width:1; stroke:black; " description="&lt;b&gt;ctg71_14&lt;/b&gt;&lt;br&gt;ctg71 14&lt;br&gt;Location: 12518 - 13805" locus_tag="ctg71_14" class="clusterblast-orf" id="dummy-1_q4_0_all"  />
<polygon points="201,40 228,40 233,35 228,30 201,30 201,40 " style="fill:#7715d8; stroke-width:1; stroke:black; " description="&lt;b&gt;ctg71_15&lt;/b&gt;&lt;br&gt;ctg71 15&lt;br&gt;Location: 13851 - 15603" locus_tag="ctg71_15" class="clusterblast-orf" id="dummy-1_q5_0_all"  />
<polygon points="233,40 239,40 244,35 239,30 233,30 233,40 " style="fill:#d84615; stroke-width:1; stroke:black; " description="&lt;b&gt;ctg71_16&lt;/b&gt;&lt;br&gt;ctg71 16&lt;br&gt;Location: 15599 - 16226" locus_tag="ctg71_16" class="clusterblast-orf" id="dummy-1_q6_0_all"  />
<polygon points="244,40 256,40 261,35 256,30 244,30 244,40 " style="fill:#46d815; stroke-width:1; stroke:black; " description="&lt;b&gt;ctg71_17&lt;/b&gt;&lt;br&gt;ctg71 17&lt;br&gt;Location: 16248 - 17175" locus_tag="ctg71_17" class="clusterblast-orf" id="dummy-1_q7_0_all"  />
<polygon points="263,40 275,40 280,35 275,30 263,30 263,40 " style="fill:#15a7d8; stroke-width:1; stroke:black; " description="&lt;b&gt;ctg71_18&lt;/b&gt;&lt;br&gt;ctg71 18&lt;br&gt;Location: 17261 - 18236" locus_tag="ctg71_18" class="clusterblast-orf" id="dummy-1_q8_0_all"  />
<polygon points="280,40 283,40 288,35 283,30 280,30 280,40 " style="fill:#a715d8; stroke-width:1; stroke:black; " description="&lt;b&gt;ctg71_19&lt;/b&gt;&lt;br&gt;ctg71 19&lt;br&gt;Location: 18232 - 18658" locus_tag="ctg71_19" class="clusterblast-orf" id="dummy-1_q9_0_all"  />
<polygon points="288,40 298,40 303,35 298,30 288,30 288,40 " style="fill:#d87715; stroke-width:1; stroke:black; " description="&lt;b&gt;ctg71_20&lt;/b&gt;&lt;br&gt;ctg71 20&lt;br&gt;Location: 18654 - 19512" locus_tag="ctg71_20" class="clusterblast-orf" id="dummy-1_q10_0_all"  />
<polygon points="303,40 318,40 323,35 318,30 303,30 303,40 " style="fill:#15d815; stroke-width:1; stroke:black; " description="&lt;b&gt;ctg71_21&lt;/b&gt;&lt;br&gt;ctg71 21&lt;br&gt;Location: 19508 - 20609" locus_tag="ctg71_21" class="clusterblast-orf" id="dummy-1_q11_0_all"  />
<polygon points="323,40 331,40 336,35 331,30 323,30 323,40 " style="fill:#1577d8; stroke-width:1; stroke:black; " description="&lt;b&gt;ctg71_22&lt;/b&gt;&lt;br&gt;ctg71 22&lt;br&gt;Location: 20598 - 21342" locus_tag="ctg71_22" class="clusterblast-orf" id="dummy-1_q12_0_all"  />
<polygon points="337,40 366,40 371,35 366,30 337,30 337,40 " style="fill:#d815d8; stroke-width:1; stroke:black; " description="&lt;b&gt;ctg71_23&lt;/b&gt;&lt;br&gt;ctg71 23&lt;br&gt;Location: 21401 - 23243" locus_tag="ctg71_23" class="clusterblast-orf" id="dummy-1_q13_0_all"  />
<polygon points="371,40 372,40 377,35 372,30 371,30 371,40 " style="fill:#d8a715; stroke-width:1; stroke:black; " description="&lt;b&gt;ctg71_24&lt;/b&gt;&lt;br&gt;ctg71 24&lt;br&gt;Location: 23242 - 23599" locus_tag="ctg71_24" class="clusterblast-orf" id="dummy-1_q14_0_all"  />
<polygon points="387,35 392,30 409,30 409,40 392,40 387,35 " style="fill:#15d846; stroke-width:1; stroke:black; " description="&lt;b&gt;ctg71_25&lt;/b&gt;&lt;br&gt;ctg71 25&lt;br&gt;Location: 24141 - 25341" locus_tag="ctg71_25" class="clusterblast-orf" id="dummy-1_q15_0_all"  />
<polygon points="409,35 414,30 418,30 418,40 414,40 409,35 " style="fill:#1546d8; stroke-width:1; stroke:black; " description="&lt;b&gt;ctg71_26&lt;/b&gt;&lt;br&gt;ctg71 26&lt;br&gt;Location: 25345 - 25837" locus_tag="ctg71_26" class="clusterblast-orf" id="dummy-1_q16_0_all"  />
<polygon points="419,40 427,40 432,35 427,30 419,30 419,40 " style="fill:#d815a7; stroke-width:1; stroke:black; " description="&lt;b&gt;ctg71_27&lt;/b&gt;&lt;br&gt;ctg71 27&lt;br&gt;Location: 25921 - 26644" locus_tag="ctg71_27" class="clusterblast-orf" id="dummy-1_q17_0_all"  />
<polygon points="432,40 439,40 444,35 439,30 432,30 432,40 " style="fill:#d8d815; stroke-width:1; stroke:black; " description="&lt;b&gt;ctg71_28&lt;/b&gt;&lt;br&gt;ctg71 28&lt;br&gt;Location: 26640 - 27318" locus_tag="ctg71_28" class="clusterblast-orf" id="dummy-1_q18_0_all"  />
<polygon points="444,40 465,40 470,35 465,30 444,30 444,40 " style="fill:#15d877; stroke-width:1; stroke:black; " description="&lt;b&gt;ctg71_29&lt;/b&gt;&lt;br&gt;ctg71 29&lt;br&gt;Location: 27314 - 28739" locus_tag="ctg71_29" class="clusterblast-orf" id="dummy-1_q19_0_all"  />
<polygon points="472,40 537,40 542,35 537,30 472,30 472,40 " style="fill:#1515d8; stroke-width:1; stroke:black; " description="&lt;b&gt;ctg71_30&lt;/b&gt;&lt;br&gt;ctg71 30&lt;br&gt;Location: 28877 - 32738" locus_tag="ctg71_30" class="clusterblast-orf" id="dummy-1_q20_0_all"  />
<polygon points="542,40 559,40 564,35 559,30 542,30 542,40 " style="fill:#d81577; stroke-width:1; stroke:black; " description="&lt;b&gt;ctg71_31&lt;/b&gt;&lt;br&gt;ctg71 31&lt;br&gt;Location: 32734 - 33976" locus_tag="ctg71_31" class="clusterblast-orf" id="dummy-1_q21_0_all"  />
<polygon points="568,40 583,40 588,35 583,30 568,30 568,40 " style="fill:#a7d815; stroke-width:1; stroke:black; " description="&lt;b&gt;ctg71_32&lt;/b&gt;&lt;br&gt;ctg71 32&lt;br&gt;Location: 34160 - 35279" locus_tag="ctg71_32" class="clusterblast-orf" id="dummy-1_q22_0_all"  />
<polygon points="590,40 599,40 604,35 599,30 590,30 590,40 " style="fill:#15d8a7; stroke-width:1; stroke:black; " description="&lt;b&gt;ctg71_33&lt;/b&gt;&lt;br&gt;ctg71 33&lt;br&gt;Location: 35371 - 36145" locus_tag="ctg71_33" class="clusterblast-orf" id="dummy-1_q23_0_all"  />
<polygon points="604,40 625,40 630,35 625,30 604,30 604,40 " style="fill:#4615d8; stroke-width:1; stroke:black; " description="&lt;b&gt;ctg71_34&lt;/b&gt;&lt;br&gt;ctg71 34&lt;br&gt;Location: 36141 - 37590" locus_tag="ctg71_34" class="clusterblast-orf" id="dummy-1_q24_0_all"  />
<polygon points="630,40 647,40 652,35 647,30 630,30 630,40 " style="fill:#d81546; stroke-width:1; stroke:black; " description="&lt;b&gt;ctg71_35&lt;/b&gt;&lt;br&gt;ctg71 35&lt;br&gt;Location: 37635 - 38811" locus_tag="ctg71_35" class="clusterblast-orf" id="dummy-1_q25_0_all"  />
</g>
<g label="NZ_KI421511" description="NZ_KI421511_c6: Amycolatopsis thermoflava N1165 AmythDRAFT Scaffold1.2, whole... (59% of genes show similarity), other" class="clusterblast-cluster"  >
<text x="5" y="70" class="clusterblast-acc"  >
<a xlink:href="https://antismash-db.secondarymetabolites.org/go/NZ_KI421511/6" target="_blank">NZ_KI421511_c6</a>: Amycolatopsis thermoflava N1165 AmythDRAFT Scaffold1.2, whole... (59% of genes show similarity), other</text>
<line x1="10" y1="85" x2="778.0" y2="85" style="stroke-width:1; stroke:grey; "  />
</g>
<g id="a1_000"  >
<polygon points="0,85 5,80 23,80 23,90 5,90 0,85 " style="fill:#15d8d8; stroke-width:1; stroke:black; " description="&lt;b&gt;AMYTH_RS0112685&lt;/b&gt;&lt;br&gt;3-phosphoshikimate 1-carboxyvinyltransferase&lt;br&gt;Location: 2568398 - 2567112&lt;br&gt;&lt;br&gt;&lt;b&gt;BlastP hit with ctg71_14&lt;/b&gt;&lt;br&gt;Percentage identity: 94&lt;br&gt;Percentage coverage: 100&lt;br&gt;BLAST bit score: 798&lt;br&gt;E-value: 4.3e-229" locus_tag="AMYTH_RS0112685" class="clusterblast-orf" id="dummy-1_h1_2_0"  />
</g>
<g id="a1_001"  >
<polygon points="24,90 50,90 55,85 50,80 24,80 24,90 " style="fill:#7715d8; stroke-width:1; stroke:black; " description="&lt;b&gt;AMYTH_RS0112680&lt;/b&gt;&lt;br&gt;CTP synthase&lt;br&gt;Location: 2567014 - 2565314&lt;br&gt;&lt;br&gt;&lt;b&gt;BlastP hit with ctg71_15&lt;/b&gt;&lt;br&gt;Percentage identity: 98&lt;br&gt;Percentage coverage: 97&lt;br&gt;BLAST bit score: 1102&lt;br&gt;E-value: 0.0" locus_tag="AMYTH_RS0112680" class="clusterblast-orf" id="dummy-1_h1_2_1"  />
</g>
<g id="a1_002"  >
<polygon points="55,90 61,90 66,85 61,80 55,80 55,90 " style="fill:#d84615; stroke-width:1; stroke:black; " description="&lt;b&gt;AMYTH_RS0112675&lt;/b&gt;&lt;br&gt;NUDIX hydrolase&lt;br&gt;Location: 2565317 - 2564691&lt;br&gt;&lt;br&gt;&lt;b&gt;BlastP hit with ctg71_16&lt;/b&gt;&lt;br&gt;Percentage identity: 91&lt;br&gt;Percentage coverage: 100&lt;br&gt;BLAST bit score: 385&lt;br&gt;E-value: 3.2e-105" locus_tag="AMYTH_RS0112675" class="clusterblast-orf" id="dummy-1_h1_2_2"  />
</g>
<g id="a1_003"  >
<polygon points="67,90 79,90 84,85 79,80 67,80 67,90 " style="fill:#46d815; stroke-width:1; stroke:black; " description="&lt;b&gt;AMYTH_RS0112670&lt;/b&gt;&lt;br&gt;site-specific tyrosine recombinase XerD&lt;br&gt;Location: 2564644 - 2563742&lt;br&gt;&lt;br&gt;&lt;b&gt;BlastP hit with ctg71_17&lt;/b&gt;&lt;br&gt;Percentage identity: 95&lt;br&gt;Percentage coverage: 97&lt;br&gt;BLAST bit score: 552&lt;br&gt;E-value: 3e-155" locus_tag="AMYTH_RS0112670" class="clusterblast-orf" id="dummy-1_h1_2_3"  />
</g>
<g id="a1_004"  >
<polygon points="85,90 98,90 103,85 98,80 85,80 85,90 " style="fill:#15a7d8; stroke-width:1; stroke:black; " description="&lt;b&gt;AMYTH_RS0112665&lt;/b&gt;&lt;br&gt;ParA family protein&lt;br&gt;Location: 2563655 - 2562684&lt;br&gt;&lt;br&gt;&lt;b&gt;BlastP hit with ctg71_18&lt;/b&gt;&lt;br&gt;Percentage identity: 97&lt;br&gt;Percentage coverage: 100&lt;br&gt;BLAST bit score: 602&lt;br&gt;E-value: 2e-170" locus_tag="AMYTH_RS0112665" class="clusterblast-orf" id="dummy-1_h1_2_4"  />
</g>
<g id="a1_005"  >
<polygon points="104,90 105,90 110,85 105,80 104,80 104,90 " style="fill:#a715d8; stroke-width:1; stroke:black; " description="&lt;b&gt;AMYTH_RS0112660&lt;/b&gt;&lt;br&gt;hypothetical protein&lt;br&gt;Location: 2562618 - 2562262&lt;br&gt;&lt;br&gt;&lt;b&gt;BlastP hit with ctg71_19&lt;/b&gt;&lt;br&gt;Percentage identity: 93&lt;br&gt;Percentage coverage: 54&lt;br&gt;BLAST bit score: 139&lt;br&gt;E-value: 3.6e-31" locus_tag="AMYTH_RS0112660" class="clusterblast-orf" id="dummy-1_h1_2_5"  />
</g>
<g id="a1_006"  >
<polygon points="110,90 121,90 126,85 121,80 110,80 110,90 " style="fill:#d87715; stroke-width:1; stroke:black; " description="&lt;b&gt;AMYTH_RS0112655&lt;/b&gt;&lt;br&gt;segregation/condensation protein A&lt;br&gt;Location: 2562265 - 2561411&lt;br&gt;&lt;br&gt;&lt;b&gt;BlastP hit with ctg71_20&lt;/b&gt;&lt;br&gt;Percentage identity: 93&lt;br&gt;Percentage coverage: 100&lt;br&gt;BLAST bit score: 503&lt;br&gt;E-value: 1.1e-140" locus_tag="AMYTH_RS0112655" class="clusterblast-orf" id="dummy-1_h1_2_6"  />
</g>
<g id="a1_007"  >
<polygon points="130,90 140,90 145,85 140,80 130,80 130,90 " style="fill:#15d815; stroke-width:1; stroke:black; " description="&lt;b&gt;AMYTH_RS0112650&lt;/b&gt;&lt;br&gt;SMC-Scp complex subunit ScpB&lt;br&gt;Location: 2561156 - 2560350&lt;br&gt;&lt;br&gt;&lt;b&gt;BlastP hit with ctg71_21&lt;/b&gt;&lt;br&gt;Percentage identity: 93&lt;br&gt;Percentage coverage: 53&lt;br&gt;BLAST bit score: 348&lt;br&gt;E-value: 1e-93" locus_tag="AMYTH_RS0112650" class="clusterblast-orf" id="dummy-1_h1_2_7"  />
</g>
<g id="a1_008"  >
<polygon points="145,90 153,90 158,85 153,80 145,80 145,90 " style="fill:#1577d8; stroke-width:1; stroke:black; " description="&lt;b&gt;AMYTH_RS0112645&lt;/b&gt;&lt;br&gt;rRNA pseudouridine synthase&lt;br&gt;Location: 2560360 - 2559617&lt;br&gt;&lt;br&gt;&lt;b&gt;BlastP hit with ctg71_22&lt;/b&gt;&lt;br&gt;Percentage identity: 93&lt;br&gt;Percentage coverage: 100&lt;br&gt;BLAST bit score: 468&lt;br&gt;E-value: 4.5e-130" locus_tag="AMYTH_RS0112645" class="clusterblast-orf" id="dummy-1_h1_2_8"  />
</g>
<g id="a1_009"  >
<polygon points="159,85 164,80 184,80 184,90 164,90 159,85 " style="fill:white; stroke-width:1; stroke:black; " description="&lt;b&gt;AMYTH_RS44695&lt;/b&gt;&lt;br&gt;MFS transporter&lt;br&gt;Location: 2559577 - 2558180" locus_tag="AMYTH_RS44695" class="clusterblast-orf" id="dummy-1_h1_2_9"  />
</g>
<g id="a1_0010"  >
<polygon points="184,85 189,80 198,80 198,90 189,90 184,85 " style="fill:white; stroke-width:1; stroke:black; " description="&lt;b&gt;AMYTH_RS0112635&lt;/b&gt;&lt;br&gt;DUF899 domain-containing protein&lt;br&gt;Location: 2558183 - 2557425" locus_tag="AMYTH_RS0112635" class="clusterblast-orf" id="dummy-1_h1_2_10"  />
</g>
<g id="a1_0011"  >
<polygon points="199,85 204,80 217,80 217,90 204,90 199,85 " style="fill:white; stroke-width:1; stroke:black; " description="&lt;b&gt;AMYTH_RS0112630&lt;/b&gt;&lt;br&gt;DNA-directed RNA polymerase sigma-70 factor&lt;br&gt;Location: 2557357 - 2556338" locus_tag="AMYTH_RS0112630" class="clusterblast-orf" id="dummy-1_h1_2_11"  />
</g>
<g id="a1_0012"  >
<polygon points="220,90 248,90 253,85 248,80 220,80 220,90 " style="fill:#d815d8; stroke-width:1; stroke:black; " description="&lt;b&gt;AMYTH_RS0112625&lt;/b&gt;&lt;br&gt;DNA helicase RecQ&lt;br&gt;Location: 2556201 - 2554366&lt;br&gt;&lt;br&gt;&lt;b&gt;BlastP hit with ctg71_23&lt;/b&gt;&lt;br&gt;Percentage identity: 93&lt;br&gt;Percentage coverage: 100&lt;br&gt;BLAST bit score: 1136&lt;br&gt;E-value: 0.0" locus_tag="AMYTH_RS0112625" class="clusterblast-orf" id="dummy-1_h1_2_12"  />
</g>
<g id="a1_0013"  >
<polygon points="253,90 254,90 259,85 254,80 253,80 253,90 " style="fill:#d8a715; stroke-width:1; stroke:black; " description="&lt;b&gt;AMYTH_RS0112620&lt;/b&gt;&lt;br&gt;arsenate reductase family protein&lt;br&gt;Location: 2554366 - 2554010&lt;br&gt;&lt;br&gt;&lt;b&gt;BlastP hit with ctg71_24&lt;/b&gt;&lt;br&gt;Percentage identity: 89&lt;br&gt;Percentage coverage: 99&lt;br&gt;BLAST bit score: 220&lt;br&gt;E-value: 1e-55" locus_tag="AMYTH_RS0112620" class="clusterblast-orf" id="dummy-1_h1_2_13"  />
</g>
<g id="a1_0014"  >
<polygon points="266,85 271,80 288,80 288,90 271,90 266,85 " style="fill:#15d846; stroke-width:1; stroke:black; " description="&lt;b&gt;AMYTH_RS0112615&lt;/b&gt;&lt;br&gt;cation:proton antiporter&lt;br&gt;Location: 2553617 - 2552418&lt;br&gt;&lt;br&gt;&lt;b&gt;BlastP hit with ctg71_25&lt;/b&gt;&lt;br&gt;Percentage identity: 96&lt;br&gt;Percentage coverage: 100&lt;br&gt;BLAST bit score: 689&lt;br&gt;E-value: 2e-196" locus_tag="AMYTH_RS0112615" class="clusterblast-orf" id="dummy-1_h1_2_14"  />
</g>
<g id="a1_0015"  >
<polygon points="288,85 293,80 297,80 297,90 293,90 288,85 " style="fill:#1546d8; stroke-width:1; stroke:black; " description="&lt;b&gt;AMYTH_RS0112610&lt;/b&gt;&lt;br&gt;potassium transporter TrkA&lt;br&gt;Location: 2552413 - 2551931&lt;br&gt;&lt;br&gt;&lt;b&gt;BlastP hit with ctg71_26&lt;/b&gt;&lt;br&gt;Percentage identity: 99&lt;br&gt;Percentage coverage: 98&lt;br&gt;BLAST bit score: 314&lt;br&gt;E-value: 7.2e-84" locus_tag="AMYTH_RS0112610" class="clusterblast-orf" id="dummy-1_h1_2_15"  />
</g>
<g id="a1_0016"  >
<polygon points="299,90 306,90 311,85 306,80 299,80 299,90 " style="fill:#d815a7; stroke-width:1; stroke:black; " description="&lt;b&gt;AMYTH_RS0112605&lt;/b&gt;&lt;br&gt;(d)CMP kinase&lt;br&gt;Location: 2551815 - 2551114&lt;br&gt;&lt;br&gt;&lt;b&gt;BlastP hit with ctg71_27&lt;/b&gt;&lt;br&gt;Percentage identity: 86&lt;br&gt;Percentage coverage: 97&lt;br&gt;BLAST bit score: 365&lt;br&gt;E-value: 4e-99" locus_tag="AMYTH_RS0112605" class="clusterblast-orf" id="dummy-1_h1_2_16"  />
</g>
<g id="a1_0017"  >
<polygon points="311,90 319,90 324,85 319,80 311,80 311,90 " style="fill:#d8d815; stroke-width:1; stroke:black; " description="&lt;b&gt;AMYTH_RS47860&lt;/b&gt;&lt;br&gt;1-acyl-sn-glycerol-3-phosphate acyltransferase&lt;br&gt;Location: 2551117 - 2550439&lt;br&gt;&lt;br&gt;&lt;b&gt;BlastP hit with ctg71_28&lt;/b&gt;&lt;br&gt;Percentage identity: 81&lt;br&gt;Percentage coverage: 89&lt;br&gt;BLAST bit score: 320&lt;br&gt;E-value: 1.8e-85" locus_tag="AMYTH_RS47860" class="clusterblast-orf" id="dummy-1_h1_2_17"  />
</g>
<g id="a1_0018"  >
<polygon points="324,90 344,90 349,85 344,80 324,80 324,90 " style="fill:#15d877; stroke-width:1; stroke:black; " description="&lt;b&gt;AMYTH_RS0112600&lt;/b&gt;&lt;br&gt;ribosome biogenesis GTPase Der&lt;br&gt;Location: 2550442 - 2549018&lt;br&gt;&lt;br&gt;&lt;b&gt;BlastP hit with ctg71_29&lt;/b&gt;&lt;br&gt;Percentage identity: 96&lt;br&gt;Percentage coverage: 100&lt;br&gt;BLAST bit score: 872&lt;br&gt;E-value: 2.6e-251" locus_tag="AMYTH_RS0112600" class="clusterblast-orf" id="dummy-1_h1_2_18"  />
</g>
<g id="a1_0019"  >
<polygon points="352,90 417,90 422,85 417,80 352,80 352,90 " style="fill:#1515d8; stroke-width:1; stroke:black; " description="&lt;b&gt;AMYTH_RS0112595&lt;/b&gt;&lt;br&gt;amino acid adenylation protein&lt;br&gt;Location: 2548876 - 2545016&lt;br&gt;&lt;br&gt;&lt;b&gt;BlastP hit with ctg71_30&lt;/b&gt;&lt;br&gt;Percentage identity: 91&lt;br&gt;Percentage coverage: 100&lt;br&gt;BLAST bit score: 2102&lt;br&gt;E-value: 0.0" locus_tag="AMYTH_RS0112595" class="clusterblast-orf" id="dummy-1_h1_2_19"  />
</g>
<g id="a1_0020"  >
<polygon points="421,90 439,90 444,85 439,80 421,80 421,90 " style="fill:#d81577; stroke-width:1; stroke:black; " description="&lt;b&gt;AMYTH_RS0112590&lt;/b&gt;&lt;br&gt;M1 family peptidase&lt;br&gt;Location: 2545028 - 2543778&lt;br&gt;&lt;br&gt;&lt;b&gt;BlastP hit with ctg71_31&lt;/b&gt;&lt;br&gt;Percentage identity: 86&lt;br&gt;Percentage coverage: 100&lt;br&gt;BLAST bit score: 742&lt;br&gt;E-value: 3.5e-212" locus_tag="AMYTH_RS0112590" class="clusterblast-orf" id="dummy-1_h1_2_20"  />
</g>
<g id="a1_0021"  >
<polygon points="448,90 463,90 468,85 463,80 448,80 448,90 " style="fill:#a7d815; stroke-width:1; stroke:black; " description="&lt;b&gt;AMYTH_RS0112585&lt;/b&gt;&lt;br&gt;sugar ABC transporter substrate-binding protein&lt;br&gt;Location: 2543535 - 2542417&lt;br&gt;&lt;br&gt;&lt;b&gt;BlastP hit with ctg71_32&lt;/b&gt;&lt;br&gt;Percentage identity: 92&lt;br&gt;Percentage coverage: 100&lt;br&gt;BLAST bit score: 630&lt;br&gt;E-value: 1.4e-178" locus_tag="AMYTH_RS0112585" class="clusterblast-orf" id="dummy-1_h1_2_21"  />
</g>
<g id="a1_0022"  >
<polygon points="470,90 479,90 484,85 479,80 470,80 470,90 " style="fill:#15d8a7; stroke-width:1; stroke:black; " description="&lt;b&gt;AMYTH_RS0112580&lt;/b&gt;&lt;br&gt;sugar ABC transporter ATP-binding protein&lt;br&gt;Location: 2542325 - 2541552&lt;br&gt;&lt;br&gt;&lt;b&gt;BlastP hit with ctg71_33&lt;/b&gt;&lt;br&gt;Percentage identity: 95&lt;br&gt;Percentage coverage: 100&lt;br&gt;BLAST bit score: 472&lt;br&gt;E-value: 4.3e-131" locus_tag="AMYTH_RS0112580" class="clusterblast-orf" id="dummy-1_h1_2_22"  />
</g>
<g id="a1_0023"  >
<polygon points="484,90 505,90 510,85 505,80 484,80 484,90 " style="fill:#4615d8; stroke-width:1; stroke:black; " description="&lt;b&gt;AMYTH_RS0112575&lt;/b&gt;&lt;br&gt;ABC transporter permease&lt;br&gt;Location: 2541537 - 2540110&lt;br&gt;&lt;br&gt;&lt;b&gt;BlastP hit with ctg71_34&lt;/b&gt;&lt;br&gt;Percentage identity: 95&lt;br&gt;Percentage coverage: 99&lt;br&gt;BLAST bit score: 823&lt;br&gt;E-value: 1.1e-236" locus_tag="AMYTH_RS0112575" class="clusterblast-orf" id="dummy-1_h1_2_23"  />
</g>
<g id="a1_0024"  >
<polygon points="511,90 527,90 532,85 527,80 511,80 511,90 " style="fill:#d81546; stroke-width:1; stroke:black; " description="&lt;b&gt;AMYTH_RS0112570&lt;/b&gt;&lt;br&gt;ROK family transcriptional regulator&lt;br&gt;Location: 2540064 - 2538889&lt;br&gt;&lt;br&gt;&lt;b&gt;BlastP hit with ctg71_35&lt;/b&gt;&lt;br&gt;Percentage identity: 93&lt;br&gt;Percentage coverage: 100&lt;br&gt;BLAST bit score: 727&lt;br&gt;E-value: 1.1e-207" locus_tag="AMYTH_RS0112570" class="clusterblast-orf" id="dummy-1_h1_2_24"  />
</g>
<g id="a1_0025"  >
<polygon points="537,85 542,80 570,80 570,90 542,90 537,85 " style="fill:white; stroke-width:1; stroke:black; " description="&lt;b&gt;AMYTH_RS0112565&lt;/b&gt;&lt;br&gt;gamma-glutamyltransferase&lt;br&gt;Location: 2538604 - 2536817" locus_tag="AMYTH_RS0112565" class="clusterblast-orf" id="dummy-1_h1_2_25"  />
</g>
<g id="a1_0026"  >
<polygon points="571,90 584,90 589,85 584,80 571,80 571,90 " style="fill:white; stroke-width:1; stroke:black; " description="&lt;b&gt;AMYTH_RS0112560&lt;/b&gt;&lt;br&gt;LysR family transcriptional regulator&lt;br&gt;Location: 2536733 - 2535741" locus_tag="AMYTH_RS0112560" class="clusterblast-orf" id="dummy-1_h1_2_26"  />
</g>
<g id="a1_0027"  >
<polygon points="587,85 592,80 594,80 594,90 592,90 587,85 " style="fill:white; stroke-width:1; stroke:black; " description="&lt;b&gt;AMYTH_RS0112555&lt;/b&gt;&lt;br&gt;VOC family protein&lt;br&gt;Location: 2535846 - 2535463" locus_tag="AMYTH_RS0112555" class="clusterblast-orf" id="dummy-1_h1_2_27"  />
</g>
<g id="a1_0028"  >
<polygon points="594,85 599,80 618,80 618,90 599,90 594,85 " style="fill:white; stroke-width:1; stroke:black; " description="&lt;b&gt;AMYTH_RS0112550&lt;/b&gt;&lt;br&gt;diaminopimelate decarboxylase&lt;br&gt;Location: 2535445 - 2534129" locus_tag="AMYTH_RS0112550" class="clusterblast-orf" id="dummy-1_h1_2_28"  />
</g>
<g id="a1_0029"  >
<polygon points="621,90 625,90 630,85 625,80 621,80 621,90 " style="fill:white; stroke-width:1; stroke:black; " description="&lt;b&gt;AMYTH_RS0112545&lt;/b&gt;&lt;br&gt;OsmC family peroxiredoxin&lt;br&gt;Location: 2533978 - 2533475" locus_tag="AMYTH_RS0112545" class="clusterblast-orf" id="dummy-1_h1_2_29"  />
</g>
<g id="a1_0030"  >
<polygon points="629,85 634,80 646,80 646,90 634,90 629,85 " style="fill:white; stroke-width:1; stroke:black; " description="&lt;b&gt;AMYTH_RS0112540&lt;/b&gt;&lt;br&gt;ABC transporter substrate-binding protein&lt;br&gt;Location: 2533520 - 2532600" locus_tag="AMYTH_RS0112540" class="clusterblast-orf" id="dummy-1_h1_2_30"  />
</g>
<g id="a1_0031"  >
<polygon points="649,85 654,80 658,80 658,90 654,90 649,85 " style="fill:white; stroke-width:1; stroke:black; " description="&lt;b&gt;AMYTH_RS0112535&lt;/b&gt;&lt;br&gt;pyridoxamine 5'-phosphate oxidase&lt;br&gt;Location: 2532413 - 2531934" locus_tag="AMYTH_RS0112535" class="clusterblast-orf" id="dummy-1_h1_2_31"  />
</g>
<g id="a1_0032"  >
<polygon points="659,85 664,80 672,80 672,90 664,90 659,85 " style="fill:white; stroke-width:1; stroke:black; " description="&lt;b&gt;AMYTH_RS0112530&lt;/b&gt;&lt;br&gt;IclR family transcriptional regulator&lt;br&gt;Location: 2531866 - 2531120" locus_tag="AMYTH_RS0112530" class="clusterblast-orf" id="dummy-1_h1_2_32"  />
</g>
<g id="a1_0033"  >
<polygon points="672,85 677,80 698,80 698,90 677,90 672,85 " style="fill:white; stroke-width:1; stroke:black; " description="&lt;b&gt;AMYTH_RS0112525&lt;/b&gt;&lt;br&gt;APC family permease&lt;br&gt;Location: 2531123 - 2529684" locus_tag="AMYTH_RS0112525" class="clusterblast-orf" id="dummy-1_h1_2_33"  />
</g>
<g id="a1_0034"  >
<polygon points="703,90 723,90 728,85 723,80 703,80 703,90 " style="fill:white; stroke-width:1; stroke:black; " description="&lt;b&gt;AMYTH_RS0112520&lt;/b&gt;&lt;br&gt;APC family permease&lt;br&gt;Location: 2529441 - 2528041" locus_tag="AMYTH_RS0112520" class="clusterblast-orf" id="dummy-1_h1_2_34"  />
</g>
<g id="a1_0035"  >
<polygon points="728,90 758,90 763,85 758,80 728,80 728,90 " style="fill:white; stroke-width:1; stroke:black; " description="&lt;b&gt;AMYTH_RS0112515&lt;/b&gt;&lt;br&gt;tyramine oxidase&lt;br&gt;Location: 2528029 - 2526113" locus_tag="AMYTH_RS0112515" class="clusterblast-orf" id="dummy-1_h1_2_35"  />
</g>
<g id="a1_0036"  >
<polygon points="761,85 766,80 779,80 779,90 766,90 761,85 " style="fill:white; stroke-width:1; stroke:black; " description="&lt;b&gt;AMYTH_RS0112510&lt;/b&gt;&lt;br&gt;LysR family transcriptional regulator&lt;br&gt;Location: 2526192 - 2525188" locus_tag="AMYTH_RS0112510" class="clusterblast-orf" id="dummy-1_h1_2_36"  />
</g>
</svg>
