<svg xmlns="http://www.w3.org/2000/svg" xmlns:xlink="http://www.w3.org/1999/xlink" version="1.1" x="0" y="0" height="230" width="800" viewBox="0 0 800 230" preserveAspectRatio="none"  >
<g label="Query sequence" class="clusterblast-cluster"  >
<text x="5" y="20" class="clusterblast-acc"  >
Query sequence</text>
<line x1="10" y1="35" x2="778.0" y2="35" style="stroke-width:1; stroke:grey; "  />
<polygon points="0,40 2,40 7,35 2,30 0,30 0,40 " style="fill:white; stroke-width:1; stroke:black; " description="&lt;b&gt;ctg36_7&lt;/b&gt;&lt;br&gt;ctg36 7&lt;br&gt;Location: 3104 - 3671" locus_tag="ctg36_7" class="clusterblast-orf" id="dummy-1_q0_0_all"  />
<polygon points="7,40 9,40 14,35 9,30 7,30 7,40 " style="fill:white; stroke-width:1; stroke:black; " description="&lt;b&gt;ctg36_8&lt;/b&gt;&lt;br&gt;ctg36 8&lt;br&gt;Location: 3661 - 4210" locus_tag="ctg36_8" class="clusterblast-orf" id="dummy-1_q1_0_all"  />
<polygon points="15,40 15,40 20,35 15,30 15,30 15,40 " style="fill:white; stroke-width:1; stroke:black; " description="&lt;b&gt;ctg36_9&lt;/b&gt;&lt;br&gt;ctg36 9&lt;br&gt;Location: 4256 - 4646" locus_tag="ctg36_9" class="clusterblast-orf" id="dummy-1_q2_0_all"  />
<polygon points="20,40 24,35 20,30 20,40 " style="fill:white; stroke-width:1; stroke:black; " description="&lt;b&gt;ctg36_10&lt;/b&gt;&lt;br&gt;ctg36 10&lt;br&gt;Location: 4642 - 4978" locus_tag="ctg36_10" class="clusterblast-orf" id="dummy-1_q3_0_all"  />
<polygon points="25,40 27,40 32,35 27,30 25,30 25,40 " style="fill:white; stroke-width:1; stroke:black; " description="&lt;b&gt;ctg36_11&lt;/b&gt;&lt;br&gt;ctg36 11&lt;br&gt;Location: 5080 - 5554" locus_tag="ctg36_11" class="clusterblast-orf" id="dummy-1_q4_0_all"  />
<polygon points="32,40 35,35 32,30 32,40 " style="fill:white; stroke-width:1; stroke:black; " description="&lt;b&gt;ctg36_12&lt;/b&gt;&lt;br&gt;ctg36 12&lt;br&gt;Location: 5550 - 5844" locus_tag="ctg36_12" class="clusterblast-orf" id="dummy-1_q5_0_all"  />
<polygon points="36,40 38,35 36,30 36,40 " style="fill:white; stroke-width:1; stroke:black; " description="&lt;b&gt;ctg36_13&lt;/b&gt;&lt;br&gt;ctg36 13&lt;br&gt;Location: 5875 - 6052" locus_tag="ctg36_13" class="clusterblast-orf" id="dummy-1_q6_0_all"  />
<polygon points="38,40 38,40 43,35 38,30 38,30 38,40 " style="fill:white; stroke-width:1; stroke:black; " description="&lt;b&gt;ctg36_14&lt;/b&gt;&lt;br&gt;ctg36 14&lt;br&gt;Location: 6058 - 6448" locus_tag="ctg36_14" class="clusterblast-orf" id="dummy-1_q7_0_all"  />
<polygon points="43,40 45,40 50,35 45,30 43,30 43,40 " style="fill:white; stroke-width:1; stroke:black; " description="&lt;b&gt;ctg36_15&lt;/b&gt;&lt;br&gt;ctg36 15&lt;br&gt;Location: 6444 - 6978" locus_tag="ctg36_15" class="clusterblast-orf" id="dummy-1_q8_0_all"  />
<polygon points="50,40 53,40 58,35 53,30 50,30 50,40 " style="fill:white; stroke-width:1; stroke:black; " description="&lt;b&gt;ctg36_16&lt;/b&gt;&lt;br&gt;ctg36 16&lt;br&gt;Location: 6977 - 7553" locus_tag="ctg36_16" class="clusterblast-orf" id="dummy-1_q9_0_all"  />
<polygon points="58,35 62,30 62,40 58,35 " style="fill:white; stroke-width:1; stroke:black; " description="&lt;b&gt;ctg36_17&lt;/b&gt;&lt;br&gt;ctg36 17&lt;br&gt;Location: 7565 - 7922" locus_tag="ctg36_17" class="clusterblast-orf" id="dummy-1_q10_0_all"  />
<polygon points="63,40 66,35 63,30 63,40 " style="fill:white; stroke-width:1; stroke:black; " description="&lt;b&gt;ctg36_18&lt;/b&gt;&lt;br&gt;ctg36 18&lt;br&gt;Location: 7990 - 8212" locus_tag="ctg36_18" class="clusterblast-orf" id="dummy-1_q11_0_all"  />
<polygon points="69,35 74,30 76,30 76,40 74,40 69,35 " style="fill:white; stroke-width:1; stroke:black; " description="&lt;b&gt;ctg36_19&lt;/b&gt;&lt;br&gt;ctg36 19&lt;br&gt;Location: 8457 - 8949" locus_tag="ctg36_19" class="clusterblast-orf" id="dummy-1_q12_0_all"  />
<polygon points="81,35 86,30 90,30 90,40 86,40 81,35 " style="fill:white; stroke-width:1; stroke:black; " description="&lt;b&gt;ctg36_20&lt;/b&gt;&lt;br&gt;ctg36 20&lt;br&gt;Location: 9380 - 10028" locus_tag="ctg36_20" class="clusterblast-orf" id="dummy-1_q13_0_all"  />
<polygon points="91,40 95,40 100,35 95,30 91,30 91,40 " style="fill:white; stroke-width:1; stroke:black; " description="&lt;b&gt;ctg36_21&lt;/b&gt;&lt;br&gt;ctg36 21&lt;br&gt;Location: 10106 - 10841" locus_tag="ctg36_21" class="clusterblast-orf" id="dummy-1_q14_0_all"  />
<polygon points="100,40 107,40 112,35 107,30 100,30 100,40 " style="fill:white; stroke-width:1; stroke:black; " description="&lt;b&gt;ctg36_22&lt;/b&gt;&lt;br&gt;ctg36 22&lt;br&gt;Location: 10837 - 11695" locus_tag="ctg36_22" class="clusterblast-orf" id="dummy-1_q15_0_all"  />
<polygon points="111,35 116,30 139,30 139,40 116,40 111,35 " style="fill:white; stroke-width:1; stroke:black; " description="&lt;b&gt;ctg36_23&lt;/b&gt;&lt;br&gt;ctg36 23&lt;br&gt;Location: 11667 - 13809" locus_tag="ctg36_23" class="clusterblast-orf" id="dummy-1_q16_0_all"  />
<polygon points="139,35 143,30 143,40 139,35 " style="fill:white; stroke-width:1; stroke:black; " description="&lt;b&gt;ctg36_24&lt;/b&gt;&lt;br&gt;ctg36 24&lt;br&gt;Location: 13817 - 14096" locus_tag="ctg36_24" class="clusterblast-orf" id="dummy-1_q17_0_all"  />
<polygon points="145,40 149,40 154,35 149,30 145,30 145,40 " style="fill:white; stroke-width:1; stroke:black; " description="&lt;b&gt;ctg36_25&lt;/b&gt;&lt;br&gt;ctg36 25&lt;br&gt;Location: 14269 - 14974" locus_tag="ctg36_25" class="clusterblast-orf" id="dummy-1_q18_0_all"  />
<polygon points="155,40 167,40 172,35 167,30 155,30 155,40 " style="fill:#d81515; stroke-width:1; stroke:black; " description="&lt;b&gt;ctg36_26&lt;/b&gt;&lt;br&gt;ctg36 26&lt;br&gt;Location: 15016 - 16327" locus_tag="ctg36_26" class="clusterblast-orf" id="dummy-1_q19_0_all"  />
<polygon points="172,40 181,40 186,35 181,30 172,30 172,40 " style="fill:#15d815; stroke-width:1; stroke:black; " description="&lt;b&gt;ctg36_27&lt;/b&gt;&lt;br&gt;ctg36 27&lt;br&gt;Location: 16323 - 17439" locus_tag="ctg36_27" class="clusterblast-orf" id="dummy-1_q20_0_all"  />
<polygon points="186,40 191,40 196,35 191,30 186,30 186,40 " style="fill:white; stroke-width:1; stroke:black; " description="&lt;b&gt;ctg36_28&lt;/b&gt;&lt;br&gt;ctg36 28&lt;br&gt;Location: 17432 - 18143" locus_tag="ctg36_28" class="clusterblast-orf" id="dummy-1_q21_0_all"  />
<polygon points="196,40 211,40 216,35 211,30 196,30 196,40 " style="fill:white; stroke-width:1; stroke:black; " description="&lt;b&gt;ctg36_29&lt;/b&gt;&lt;br&gt;ctg36 29&lt;br&gt;Location: 18181 - 19726" locus_tag="ctg36_29" class="clusterblast-orf" id="dummy-1_q22_0_all"  />
<polygon points="216,40 224,40 229,35 224,30 216,30 216,40 " style="fill:white; stroke-width:1; stroke:black; " description="&lt;b&gt;ctg36_30&lt;/b&gt;&lt;br&gt;ctg36 30&lt;br&gt;Location: 19722 - 20682" locus_tag="ctg36_30" class="clusterblast-orf" id="dummy-1_q23_0_all"  />
<polygon points="229,40 234,40 239,35 234,30 229,30 229,40 " style="fill:white; stroke-width:1; stroke:black; " description="&lt;b&gt;ctg36_31&lt;/b&gt;&lt;br&gt;ctg36 31&lt;br&gt;Location: 20678 - 21482" locus_tag="ctg36_31" class="clusterblast-orf" id="dummy-1_q24_0_all"  />
<polygon points="239,40 254,40 259,35 254,30 239,30 239,40 " style="fill:white; stroke-width:1; stroke:black; " description="&lt;b&gt;ctg36_32&lt;/b&gt;&lt;br&gt;ctg36 32&lt;br&gt;Location: 21478 - 22984" locus_tag="ctg36_32" class="clusterblast-orf" id="dummy-1_q25_0_all"  />
<polygon points="259,40 325,40 330,35 325,30 259,30 259,40 " style="fill:#1597d8; stroke-width:1; stroke:black; " description="&lt;b&gt;ctg36_33&lt;/b&gt;&lt;br&gt;ctg36 33&lt;br&gt;Location: 22980 - 28428" locus_tag="ctg36_33" class="clusterblast-orf" id="dummy-1_q26_0_all"  />
<polygon points="330,40 348,40 353,35 348,30 330,30 330,40 " style="fill:#9715d8; stroke-width:1; stroke:black; " description="&lt;b&gt;ctg36_34&lt;/b&gt;&lt;br&gt;ctg36 34&lt;br&gt;Location: 28430 - 30248" locus_tag="ctg36_34" class="clusterblast-orf" id="dummy-1_q27_0_all"  />
<polygon points="353,40 371,40 376,35 371,30 353,30 353,40 " style="fill:#d89715; stroke-width:1; stroke:black; " description="&lt;b&gt;ctg36_35&lt;/b&gt;&lt;br&gt;ctg36 35&lt;br&gt;Location: 30244 - 31987" locus_tag="ctg36_35" class="clusterblast-orf" id="dummy-1_q28_0_all"  />
<polygon points="376,40 385,40 390,35 385,30 376,30 376,40 " style="fill:white; stroke-width:1; stroke:black; " description="&lt;b&gt;ctg36_36&lt;/b&gt;&lt;br&gt;ctg36 36&lt;br&gt;Location: 31983 - 33072" locus_tag="ctg36_36" class="clusterblast-orf" id="dummy-1_q29_0_all"  />
<polygon points="390,40 417,40 422,35 417,30 390,30 390,40 " style="fill:white; stroke-width:1; stroke:black; " description="&lt;b&gt;ctg36_37&lt;/b&gt;&lt;br&gt;ctg36 37&lt;br&gt;Location: 33068 - 35528" locus_tag="ctg36_37" class="clusterblast-orf" id="dummy-1_q30_0_all"  />
<polygon points="422,40 441,40 446,35 441,30 422,30 422,40 " style="fill:#15d897; stroke-width:1; stroke:black; " description="&lt;b&gt;ctg36_38&lt;/b&gt;&lt;br&gt;ctg36 38&lt;br&gt;Location: 35544 - 37386" locus_tag="ctg36_38" class="clusterblast-orf" id="dummy-1_q31_0_all"  />
<polygon points="447,40 457,40 462,35 457,30 447,30 447,40 " style="fill:white; stroke-width:1; stroke:black; " description="&lt;b&gt;ctg36_39&lt;/b&gt;&lt;br&gt;ctg36 39&lt;br&gt;Location: 37397 - 38612" locus_tag="ctg36_39" class="clusterblast-orf" id="dummy-1_q32_0_all"  />
<polygon points="462,40 478,40 483,35 478,30 462,30 462,40 " style="fill:#1515d8; stroke-width:1; stroke:black; " description="&lt;b&gt;ctg36_40&lt;/b&gt;&lt;br&gt;ctg36 40&lt;br&gt;Location: 38608 - 40204" locus_tag="ctg36_40" class="clusterblast-orf" id="dummy-1_q33_0_all"  />
<polygon points="483,40 493,40 498,35 493,30 483,30 483,40 " style="fill:white; stroke-width:1; stroke:black; " description="&lt;b&gt;ctg36_41&lt;/b&gt;&lt;br&gt;ctg36 41&lt;br&gt;Location: 40196 - 41381" locus_tag="ctg36_41" class="clusterblast-orf" id="dummy-1_q34_0_all"  />
<polygon points="499,40 577,40 582,35 577,30 499,30 499,40 " style="fill:#1597d8; stroke-width:1; stroke:black; " description="&lt;b&gt;ctg36_42&lt;/b&gt;&lt;br&gt;ctg36 42&lt;br&gt;Location: 41409 - 47793" locus_tag="ctg36_42" class="clusterblast-orf" id="dummy-1_q35_0_all"  />
<polygon points="582,40 585,40 590,35 585,30 582,30 582,40 " style="fill:white; stroke-width:1; stroke:black; " description="&lt;b&gt;ctg36_43&lt;/b&gt;&lt;br&gt;ctg36 43&lt;br&gt;Location: 47809 - 48424" locus_tag="ctg36_43" class="clusterblast-orf" id="dummy-1_q36_0_all"  />
<polygon points="590,40 594,40 599,35 594,30 590,30 590,40 " style="fill:white; stroke-width:1; stroke:black; " description="&lt;b&gt;ctg36_44&lt;/b&gt;&lt;br&gt;ctg36 44&lt;br&gt;Location: 48427 - 49078" locus_tag="ctg36_44" class="clusterblast-orf" id="dummy-1_q37_0_all"  />
<polygon points="599,40 606,40 611,35 606,30 599,30 599,40 " style="fill:white; stroke-width:1; stroke:black; " description="&lt;b&gt;ctg36_45&lt;/b&gt;&lt;br&gt;ctg36 45&lt;br&gt;Location: 49074 - 50019" locus_tag="ctg36_45" class="clusterblast-orf" id="dummy-1_q38_0_all"  />
<polygon points="611,40 617,40 622,35 617,30 611,30 611,40 " style="fill:white; stroke-width:1; stroke:black; " description="&lt;b&gt;ctg36_46&lt;/b&gt;&lt;br&gt;ctg36 46&lt;br&gt;Location: 50015 - 50828" locus_tag="ctg36_46" class="clusterblast-orf" id="dummy-1_q39_0_all"  />
<polygon points="622,40 622,40 627,35 622,30 622,30 622,40 " style="fill:white; stroke-width:1; stroke:black; " description="&lt;b&gt;ctg36_47&lt;/b&gt;&lt;br&gt;ctg36 47&lt;br&gt;Location: 50824 - 51223" locus_tag="ctg36_47" class="clusterblast-orf" id="dummy-1_q40_0_all"  />
<polygon points="627,40 629,35 627,30 627,40 " style="fill:white; stroke-width:1; stroke:black; " description="&lt;b&gt;ctg36_48&lt;/b&gt;&lt;br&gt;ctg36 48&lt;br&gt;Location: 51219 - 51432" locus_tag="ctg36_48" class="clusterblast-orf" id="dummy-1_q41_0_all"  />
<polygon points="630,35 635,30 640,30 640,40 635,40 630,35 " style="fill:white; stroke-width:1; stroke:black; " description="&lt;b&gt;ctg36_49&lt;/b&gt;&lt;br&gt;ctg36 49&lt;br&gt;Location: 51447 - 52263" locus_tag="ctg36_49" class="clusterblast-orf" id="dummy-1_q42_0_all"  />
<polygon points="642,40 645,35 642,30 642,40 " style="fill:white; stroke-width:1; stroke:black; " description="&lt;b&gt;ctg36_50&lt;/b&gt;&lt;br&gt;ctg36 50&lt;br&gt;Location: 52381 - 52657" locus_tag="ctg36_50" class="clusterblast-orf" id="dummy-1_q43_0_all"  />
<polygon points="648,40 650,35 648,30 648,40 " style="fill:white; stroke-width:1; stroke:black; " description="&lt;b&gt;ctg36_51&lt;/b&gt;&lt;br&gt;ctg36 51&lt;br&gt;Location: 52830 - 53007" locus_tag="ctg36_51" class="clusterblast-orf" id="dummy-1_q44_0_all"  />
<polygon points="654,35 659,30 659,30 659,40 659,40 654,35 " style="fill:white; stroke-width:1; stroke:black; " description="&lt;b&gt;ctg36_52&lt;/b&gt;&lt;br&gt;ctg36 52&lt;br&gt;Location: 53324 - 53690" locus_tag="ctg36_52" class="clusterblast-orf" id="dummy-1_q45_0_all"  />
<polygon points="661,35 666,30 667,30 667,40 666,40 661,35 " style="fill:white; stroke-width:1; stroke:black; " description="&lt;b&gt;ctg36_53&lt;/b&gt;&lt;br&gt;ctg36 53&lt;br&gt;Location: 53824 - 54319" locus_tag="ctg36_53" class="clusterblast-orf" id="dummy-1_q46_0_all"  />
<polygon points="668,35 673,30 676,30 676,40 673,40 668,35 " style="fill:white; stroke-width:1; stroke:black; " description="&lt;b&gt;ctg36_54&lt;/b&gt;&lt;br&gt;ctg36 54&lt;br&gt;Location: 54386 - 54995" locus_tag="ctg36_54" class="clusterblast-orf" id="dummy-1_q47_0_all"  />
<polygon points="680,40 680,40 685,35 680,30 680,30 680,40 " style="fill:white; stroke-width:1; stroke:black; " description="&lt;b&gt;ctg36_55&lt;/b&gt;&lt;br&gt;ctg36 55&lt;br&gt;Location: 55341 - 55686" locus_tag="ctg36_55" class="clusterblast-orf" id="dummy-1_q48_0_all"  />
<polygon points="693,40 695,40 700,35 695,30 693,30 693,40 " style="fill:white; stroke-width:1; stroke:black; " description="&lt;b&gt;ctg36_56&lt;/b&gt;&lt;br&gt;ctg36 56&lt;br&gt;Location: 56327 - 56840" locus_tag="ctg36_56" class="clusterblast-orf" id="dummy-1_q49_0_all"  />
<polygon points="708,35 713,30 729,30 729,40 713,40 708,35 " style="fill:white; stroke-width:1; stroke:black; " description="&lt;b&gt;ctg36_57&lt;/b&gt;&lt;br&gt;ctg36 57&lt;br&gt;Location: 57479 - 59060" locus_tag="ctg36_57" class="clusterblast-orf" id="dummy-1_q50_0_all"  />
<polygon points="729,35 734,30 734,30 734,40 734,40 729,35 " style="fill:white; stroke-width:1; stroke:black; " description="&lt;b&gt;ctg36_58&lt;/b&gt;&lt;br&gt;ctg36 58&lt;br&gt;Location: 59056 - 59470" locus_tag="ctg36_58" class="clusterblast-orf" id="dummy-1_q51_0_all"  />
<polygon points="735,40 739,40 744,35 739,30 735,30 735,40 " style="fill:white; stroke-width:1; stroke:black; " description="&lt;b&gt;ctg36_59&lt;/b&gt;&lt;br&gt;ctg36 59&lt;br&gt;Location: 59550 - 60195" locus_tag="ctg36_59" class="clusterblast-orf" id="dummy-1_q52_0_all"  />
<polygon points="744,40 751,40 756,35 751,30 744,30 744,40 " style="fill:#d81597; stroke-width:1; stroke:black; " description="&lt;b&gt;ctg36_60&lt;/b&gt;&lt;br&gt;ctg36 60&lt;br&gt;Location: 60191 - 61127" locus_tag="ctg36_60" class="clusterblast-orf" id="dummy-1_q53_0_all"  />
<polygon points="756,40 761,40 766,35 761,30 756,30 756,40 " style="fill:#97d815; stroke-width:1; stroke:black; " description="&lt;b&gt;ctg36_61&lt;/b&gt;&lt;br&gt;ctg36 61&lt;br&gt;Location: 61123 - 61921" locus_tag="ctg36_61" class="clusterblast-orf" id="dummy-1_q54_0_all"  />
<polygon points="766,40 768,35 766,30 766,40 " style="fill:white; stroke-width:1; stroke:black; " description="&lt;b&gt;ctg36_62&lt;/b&gt;&lt;br&gt;ctg36 62&lt;br&gt;Location: 61947 - 62076" locus_tag="ctg36_62" class="clusterblast-orf" id="dummy-1_q55_0_all"  />
<polygon points="768,35 773,30 775,30 775,40 773,40 768,35 " style="fill:white; stroke-width:1; stroke:black; " description="&lt;b&gt;ctg36_63&lt;/b&gt;&lt;br&gt;ctg36 63&lt;br&gt;Location: 62088 - 62604" locus_tag="ctg36_63" class="clusterblast-orf" id="dummy-1_q56_0_all"  />
<polygon points="776,35 780,30 780,40 776,35 " style="fill:white; stroke-width:1; stroke:black; " description="&lt;b&gt;ctg36_64&lt;/b&gt;&lt;br&gt;ctg36 64&lt;br&gt;Location: 62656 - 62956" locus_tag="ctg36_64" class="clusterblast-orf" id="dummy-1_q57_0_all"  />
</g>
<g label="BGC0001061" description="BGC0001061_c1: Polyketomycin (6% of genes show similarity), t1pks+t2pks-saccharide" class="clusterblast-cluster"  >
<text x="5" y="70" class="clusterblast-acc"  >
<a xlink:href="https://mibig.secondarymetabolites.org/go/BGC0001061/1" target="_blank">BGC0001061</a>:                                                                    Polyketomycin (6% of genes show similarity), t1pks+t2pks-saccharide</text>
<line x1="10" y1="85" x2="778.0" y2="85" style="stroke-width:1; stroke:grey; "  />
</g>
<g id="a1_000"  >
<polygon points="50,85 53,80 53,90 50,85 " style="fill:white; stroke-width:1; stroke:black; " description="&lt;b&gt;ACN64858.1&lt;/b&gt;&lt;br&gt;PokX1&lt;br&gt;Location: 52164 - 51876" locus_tag="ACN64858.1" class="clusterblast-orf" id="dummy-1_h1_7_0"  />
</g>
<g id="a1_001"  >
<polygon points="57,85 62,80 70,80 70,90 62,90 57,85 " style="fill:white; stroke-width:1; stroke:black; " description="&lt;b&gt;ACN64857.1&lt;/b&gt;&lt;br&gt;PokU3&lt;br&gt;Location: 51608 - 50634" locus_tag="ACN64857.1" class="clusterblast-orf" id="dummy-1_h1_7_1"  />
</g>
<g id="a1_002"  >
<polygon points="73,85 78,80 85,80 85,90 78,90 73,85 " style="fill:white; stroke-width:1; stroke:black; " description="&lt;b&gt;ACN64856.1&lt;/b&gt;&lt;br&gt;PokS9&lt;br&gt;Location: 50393 - 49434" locus_tag="ACN64856.1" class="clusterblast-orf" id="dummy-1_h1_7_2"  />
</g>
<g id="a1_003"  >
<polygon points="85,85 90,80 93,80 93,90 90,90 85,85 " style="fill:white; stroke-width:1; stroke:black; " description="&lt;b&gt;ACN64855.1&lt;/b&gt;&lt;br&gt;PokS7&lt;br&gt;Location: 49437 - 48823" locus_tag="ACN64855.1" class="clusterblast-orf" id="dummy-1_h1_7_3"  />
</g>
<g id="a1_004"  >
<polygon points="93,85 98,80 113,80 113,90 98,90 93,85 " style="fill:white; stroke-width:1; stroke:black; " description="&lt;b&gt;ACN64854.1&lt;/b&gt;&lt;br&gt;PokO4&lt;br&gt;Location: 48826 - 47306" locus_tag="ACN64854.1" class="clusterblast-orf" id="dummy-1_h1_7_4"  />
</g>
<g id="a1_005"  >
<polygon points="118,90 134,90 139,85 134,80 118,80 118,90 " style="fill:white; stroke-width:1; stroke:black; " description="&lt;b&gt;ACN64853.1&lt;/b&gt;&lt;br&gt;PokO2&lt;br&gt;Location: 46937 - 45312" locus_tag="ACN64853.1" class="clusterblast-orf" id="dummy-1_h1_7_5"  />
</g>
<g id="a1_006"  >
<polygon points="139,90 144,90 149,85 144,80 139,80 139,90 " style="fill:white; stroke-width:1; stroke:black; " description="&lt;b&gt;ACN64852.1&lt;/b&gt;&lt;br&gt;PokT2&lt;br&gt;Location: 45302 - 44547" locus_tag="ACN64852.1" class="clusterblast-orf" id="dummy-1_h1_7_6"  />
</g>
<g id="a1_007"  >
<polygon points="150,90 157,90 162,85 157,80 150,80 150,90 " style="fill:white; stroke-width:1; stroke:black; " description="&lt;b&gt;ACN64851.1&lt;/b&gt;&lt;br&gt;PokC3&lt;br&gt;Location: 44497 - 43553" locus_tag="ACN64851.1" class="clusterblast-orf" id="dummy-1_h1_7_7"  />
</g>
<g id="a1_008"  >
<polygon points="162,90 176,90 181,85 176,80 162,80 162,90 " style="fill:white; stroke-width:1; stroke:black; " description="&lt;b&gt;ACN64850.1&lt;/b&gt;&lt;br&gt;PokL&lt;br&gt;Location: 43560 - 42073" locus_tag="ACN64850.1" class="clusterblast-orf" id="dummy-1_h1_7_8"  />
</g>
<g id="a1_009"  >
<polygon points="181,90 185,85 181,80 181,90 " style="fill:white; stroke-width:1; stroke:black; " description="&lt;b&gt;ACN64849.1&lt;/b&gt;&lt;br&gt;PokO3&lt;br&gt;Location: 42076 - 41747" locus_tag="ACN64849.1" class="clusterblast-orf" id="dummy-1_h1_7_9"  />
</g>
<g id="a1_0010"  >
<polygon points="186,85 191,80 192,80 192,90 191,90 186,85 " style="fill:white; stroke-width:1; stroke:black; " description="&lt;b&gt;ACN64848.1&lt;/b&gt;&lt;br&gt;PokC1&lt;br&gt;Location: 41663 - 41211" locus_tag="ACN64848.1" class="clusterblast-orf" id="dummy-1_h1_7_10"  />
</g>
<g id="a1_0011"  >
<polygon points="194,85 199,80 208,80 208,90 199,90 194,85 " style="fill:white; stroke-width:1; stroke:black; " description="&lt;b&gt;ACN64847.1&lt;/b&gt;&lt;br&gt;PokMT3&lt;br&gt;Location: 41092 - 39977" locus_tag="ACN64847.1" class="clusterblast-orf" id="dummy-1_h1_7_11"  />
</g>
<g id="a1_0012"  >
<polygon points="208,85 213,80 219,80 219,90 213,90 208,85 " style="fill:white; stroke-width:1; stroke:black; " description="&lt;b&gt;ACN64846.1&lt;/b&gt;&lt;br&gt;PokC2&lt;br&gt;Location: 39971 - 39186" locus_tag="ACN64846.1" class="clusterblast-orf" id="dummy-1_h1_7_12"  />
</g>
<g id="a1_0013"  >
<polygon points="219,85 224,80 235,80 235,90 224,90 219,85 " style="fill:white; stroke-width:1; stroke:black; " description="&lt;b&gt;ACN64845.1&lt;/b&gt;&lt;br&gt;PokO1&lt;br&gt;Location: 39179 - 37950" locus_tag="ACN64845.1" class="clusterblast-orf" id="dummy-1_h1_7_13"  />
</g>
<g id="a1_0014"  >
<polygon points="235,85 240,80 245,80 245,90 240,90 235,85 " style="fill:white; stroke-width:1; stroke:black; " description="&lt;b&gt;ACN64844.1&lt;/b&gt;&lt;br&gt;PokT1&lt;br&gt;Location: 37938 - 37159" locus_tag="ACN64844.1" class="clusterblast-orf" id="dummy-1_h1_7_14"  />
</g>
<g id="a1_0015"  >
<polygon points="251,90 259,90 264,85 259,80 251,80 251,90 " style="fill:white; stroke-width:1; stroke:black; " description="&lt;b&gt;ACN64843.1&lt;/b&gt;&lt;br&gt;PokMT2&lt;br&gt;Location: 36714 - 35677" locus_tag="ACN64843.1" class="clusterblast-orf" id="dummy-1_h1_7_15"  />
</g>
<g id="a1_0016"  >
<polygon points="266,85 271,80 277,80 277,90 271,90 266,85 " style="fill:white; stroke-width:1; stroke:black; " description="&lt;b&gt;ACN64842.1&lt;/b&gt;&lt;br&gt;PokR2&lt;br&gt;Location: 35525 - 34713" locus_tag="ACN64842.1" class="clusterblast-orf" id="dummy-1_h1_7_16"  />
</g>
<g id="a1_0017"  >
<polygon points="280,85 285,80 292,80 292,90 285,90 280,85 " style="fill:white; stroke-width:1; stroke:black; " description="&lt;b&gt;ACN64841.1&lt;/b&gt;&lt;br&gt;PokS2&lt;br&gt;Location: 34519 - 33530" locus_tag="ACN64841.1" class="clusterblast-orf" id="dummy-1_h1_7_17"  />
</g>
<g id="a1_0018"  >
<polygon points="292,85 297,80 306,80 306,90 297,90 292,85 " style="fill:white; stroke-width:1; stroke:black; " description="&lt;b&gt;ACN64840.1&lt;/b&gt;&lt;br&gt;PokS1&lt;br&gt;Location: 33533 - 32469" locus_tag="ACN64840.1" class="clusterblast-orf" id="dummy-1_h1_7_18"  />
</g>
<g id="a1_0019"  >
<polygon points="306,85 311,80 325,80 325,90 311,90 306,85 " style="fill:white; stroke-width:1; stroke:black; " description="&lt;b&gt;ACN64839.1&lt;/b&gt;&lt;br&gt;PokAC2&lt;br&gt;Location: 32454 - 31042" locus_tag="ACN64839.1" class="clusterblast-orf" id="dummy-1_h1_7_19"  />
</g>
<g id="a1_0020"  >
<polygon points="325,85 330,80 332,80 332,90 330,90 325,85 " style="fill:white; stroke-width:1; stroke:black; " description="&lt;b&gt;ACN64838.1&lt;/b&gt;&lt;br&gt;PokAC3&lt;br&gt;Location: 31035 - 30499" locus_tag="ACN64838.1" class="clusterblast-orf" id="dummy-1_h1_7_20"  />
</g>
<g id="a1_0021"  >
<polygon points="332,85 337,80 355,80 355,90 337,90 332,85 " style="fill:white; stroke-width:1; stroke:black; " description="&lt;b&gt;ACN64837.1&lt;/b&gt;&lt;br&gt;PokAC1&lt;br&gt;Location: 30494 - 28755" locus_tag="ACN64837.1" class="clusterblast-orf" id="dummy-1_h1_7_21"  />
</g>
<g id="a1_0022"  >
<polygon points="355,85 358,80 358,90 355,85 " style="fill:white; stroke-width:1; stroke:black; " description="&lt;b&gt;ACN64836.1&lt;/b&gt;&lt;br&gt;PokP3&lt;br&gt;Location: 28758 - 28501" locus_tag="ACN64836.1" class="clusterblast-orf" id="dummy-1_h1_7_22"  />
</g>
<g id="a1_0023"  >
<polygon points="359,85 364,80 374,80 374,90 364,90 359,85 " style="fill:white; stroke-width:1; stroke:black; " description="&lt;b&gt;ACN64835.1&lt;/b&gt;&lt;br&gt;PokP2&lt;br&gt;Location: 28460 - 27237" locus_tag="ACN64835.1" class="clusterblast-orf" id="dummy-1_h1_7_23"  />
</g>
<g id="a1_0024"  >
<polygon points="374,85 379,80 391,80 391,90 379,90 374,85 " style="fill:white; stroke-width:1; stroke:black; " description="&lt;b&gt;ACN64834.1&lt;/b&gt;&lt;br&gt;PokP1&lt;br&gt;Location: 27240 - 25972" locus_tag="ACN64834.1" class="clusterblast-orf" id="dummy-1_h1_7_24"  />
</g>
<g id="a1_0025"  >
<polygon points="394,90 402,90 407,85 402,80 394,80 394,90 " style="fill:white; stroke-width:1; stroke:black; " description="&lt;b&gt;ACN64833.1&lt;/b&gt;&lt;br&gt;PokMT1&lt;br&gt;Location: 25763 - 24720" locus_tag="ACN64833.1" class="clusterblast-orf" id="dummy-1_h1_7_25"  />
</g>
<g id="a1_0026"  >
<polygon points="408,90 416,90 421,85 416,80 408,80 408,90 " style="fill:white; stroke-width:1; stroke:black; " description="&lt;b&gt;ACN64832.1&lt;/b&gt;&lt;br&gt;PokM2&lt;br&gt;Location: 24665 - 23637" locus_tag="ACN64832.1" class="clusterblast-orf" id="dummy-1_h1_7_26"  />
</g>
<g id="a1_0027"  >
<polygon points="421,90 484,90 489,85 484,80 421,80 421,90 " style="fill:white; stroke-width:1; stroke:black; " description="&lt;b&gt;ACN64831.1&lt;/b&gt;&lt;br&gt;PokM1&lt;br&gt;Location: 23640 - 18421" locus_tag="ACN64831.1" class="clusterblast-orf" id="dummy-1_h1_7_27"  />
</g>
<g id="a1_0028"  >
<polygon points="489,90 506,90 511,85 506,80 489,80 489,90 " style="fill:#1515d8; stroke-width:1; stroke:black; " description="&lt;b&gt;ACN64830.1&lt;/b&gt;&lt;br&gt;PokM3&lt;br&gt;Location: 18424 - 16769&lt;br&gt;&lt;br&gt;&lt;b&gt;BlastP hit with ctg36_40&lt;/b&gt;&lt;br&gt;Percentage identity: 48&lt;br&gt;Percentage coverage: 101&lt;br&gt;BLAST bit score: 444&lt;br&gt;E-value: 2e-124" locus_tag="ACN64830.1" class="clusterblast-orf" id="dummy-1_h1_7_28"  />
</g>
<g id="a1_0029"  >
<polygon points="511,90 524,90 529,85 524,80 511,80 511,90 " style="fill:white; stroke-width:1; stroke:black; " description="&lt;b&gt;ACN64829.1&lt;/b&gt;&lt;br&gt;PokS3&lt;br&gt;Location: 16772 - 15342" locus_tag="ACN64829.1" class="clusterblast-orf" id="dummy-1_h1_7_29"  />
</g>
<g id="a1_0030"  >
<polygon points="529,90 537,90 542,85 537,80 529,80 529,90 " style="fill:white; stroke-width:1; stroke:black; " description="&lt;b&gt;ACN64828.1&lt;/b&gt;&lt;br&gt;PokS4&lt;br&gt;Location: 15348 - 14347" locus_tag="ACN64828.1" class="clusterblast-orf" id="dummy-1_h1_7_30"  />
</g>
<g id="a1_0031"  >
<polygon points="542,90 544,90 549,85 544,80 542,80 542,90 " style="fill:white; stroke-width:1; stroke:black; " description="&lt;b&gt;ACN64827.1&lt;/b&gt;&lt;br&gt;PokU2&lt;br&gt;Location: 14350 - 13829" locus_tag="ACN64827.1" class="clusterblast-orf" id="dummy-1_h1_7_31"  />
</g>
<g id="a1_0032"  >
<polygon points="549,90 559,90 564,85 559,80 549,80 549,90 " style="fill:white; stroke-width:1; stroke:black; " description="&lt;b&gt;ACN64826.1&lt;/b&gt;&lt;br&gt;PokU2&lt;br&gt;Location: 13832 - 12678" locus_tag="ACN64826.1" class="clusterblast-orf" id="dummy-1_h1_7_32"  />
</g>
<g id="a1_0033"  >
<polygon points="565,85 570,80 582,80 582,90 570,90 565,85 " style="fill:white; stroke-width:1; stroke:black; " description="&lt;b&gt;ACN64825.1&lt;/b&gt;&lt;br&gt;PokS5&lt;br&gt;Location: 12594 - 11296" locus_tag="ACN64825.1" class="clusterblast-orf" id="dummy-1_h1_7_33"  />
</g>
<g id="a1_0034"  >
<polygon points="582,85 587,80 596,80 596,90 587,90 582,85 " style="fill:white; stroke-width:1; stroke:black; " description="&lt;b&gt;ACN64824.1&lt;/b&gt;&lt;br&gt;PokS6&lt;br&gt;Location: 11291 - 10263" locus_tag="ACN64824.1" class="clusterblast-orf" id="dummy-1_h1_7_34"  />
</g>
<g id="a1_0035"  >
<polygon points="596,85 601,80 611,80 611,90 601,90 596,85 " style="fill:white; stroke-width:1; stroke:black; " description="&lt;b&gt;ACN64823.1&lt;/b&gt;&lt;br&gt;PokGT1&lt;br&gt;Location: 10266 - 9073" locus_tag="ACN64823.1" class="clusterblast-orf" id="dummy-1_h1_7_35"  />
</g>
<g id="a1_0036"  >
<polygon points="614,90 621,90 626,85 621,80 614,80 614,90 " style="fill:#d81597; stroke-width:1; stroke:black; " description="&lt;b&gt;ACN64822.1&lt;/b&gt;&lt;br&gt;PokABC1&lt;br&gt;Location: 8839 - 7907&lt;br&gt;&lt;br&gt;&lt;b&gt;BlastP hit with ctg36_60&lt;/b&gt;&lt;br&gt;Percentage identity: 54&lt;br&gt;Percentage coverage: 99&lt;br&gt;BLAST bit score: 301&lt;br&gt;E-value: 1.6e-81" locus_tag="ACN64822.1" class="clusterblast-orf" id="dummy-1_h1_7_36"  />
</g>
<g id="a1_0037"  >
<polygon points="626,90 632,90 637,85 632,80 626,80 626,90 " style="fill:#97d815; stroke-width:1; stroke:black; " description="&lt;b&gt;ACN64821.1&lt;/b&gt;&lt;br&gt;PokABC2&lt;br&gt;Location: 7910 - 7101&lt;br&gt;&lt;br&gt;&lt;b&gt;BlastP hit with ctg36_61&lt;/b&gt;&lt;br&gt;Percentage identity: 51&lt;br&gt;Percentage coverage: 99&lt;br&gt;BLAST bit score: 241&lt;br&gt;E-value: 1.7e-63" locus_tag="ACN64821.1" class="clusterblast-orf" id="dummy-1_h1_7_37"  />
</g>
<g id="a1_0038"  >
<polygon points="637,90 647,90 652,85 647,80 637,80 637,90 " style="fill:white; stroke-width:1; stroke:black; " description="&lt;b&gt;ACN64820.1&lt;/b&gt;&lt;br&gt;PokGT2&lt;br&gt;Location: 7088 - 5940" locus_tag="ACN64820.1" class="clusterblast-orf" id="dummy-1_h1_7_38"  />
</g>
<g id="a1_0039"  >
<polygon points="653,85 658,80 694,80 694,90 658,90 653,85 " style="fill:white; stroke-width:1; stroke:black; " description="&lt;b&gt;ACN64819.1&lt;/b&gt;&lt;br&gt;PokR1&lt;br&gt;Location: 5897 - 2700" locus_tag="ACN64819.1" class="clusterblast-orf" id="dummy-1_h1_7_39"  />
</g>
<g id="a1_0040"  >
<polygon points="695,85 700,80 712,80 712,90 700,90 695,85 " style="fill:white; stroke-width:1; stroke:black; " description="&lt;b&gt;ACN64818.1&lt;/b&gt;&lt;br&gt;PokS8&lt;br&gt;Location: 2619 - 1372" locus_tag="ACN64818.1" class="clusterblast-orf" id="dummy-1_h1_7_40"  />
</g>
<g id="a1_0041"  >
<polygon points="711,85 716,80 724,80 724,90 716,90 711,85 " style="fill:white; stroke-width:1; stroke:black; " description="&lt;b&gt;ACN64817.1&lt;/b&gt;&lt;br&gt;PokR3&lt;br&gt;Location: 1375 - 395" locus_tag="ACN64817.1" class="clusterblast-orf" id="dummy-1_h1_7_41"  />
</g>
<g id="a1_0042"  >
<polygon points="725,85 729,80 729,90 725,85 " style="fill:white; stroke-width:1; stroke:black; " description="&lt;b&gt;ACN64816.1&lt;/b&gt;&lt;br&gt;PokSAMS&lt;br&gt;Location: 358 - 1" locus_tag="ACN64816.1" class="clusterblast-orf" id="dummy-1_h1_7_42"  />
</g>
</svg>
