<svg xmlns="http://www.w3.org/2000/svg" xmlns:xlink="http://www.w3.org/1999/xlink" version="1.1" x="0" y="0" height="230" width="800" viewBox="0 0 800 230" preserveAspectRatio="none"  >
<g label="Query sequence" class="clusterblast-cluster"  >
<text x="5" y="20" class="clusterblast-acc"  >
Query sequence</text>
<line x1="10" y1="35" x2="778.0" y2="35" style="stroke-width:1; stroke:grey; "  />
<polygon points="0,35 5,30 21,30 21,40 5,40 0,35 " style="fill:white; stroke-width:1; stroke:black; " description="&lt;b&gt;ctg42_16&lt;/b&gt;&lt;br&gt;ctg42 16&lt;br&gt;Location: 19230 - 19800" locus_tag="ctg42_16" class="clusterblast-orf" id="dummy-1_q0_0_all"  />
<polygon points="25,40 56,40 61,35 56,30 25,30 25,40 " style="fill:white; stroke-width:1; stroke:black; " description="&lt;b&gt;ctg42_17&lt;/b&gt;&lt;br&gt;ctg42 17&lt;br&gt;Location: 19883 - 20843" locus_tag="ctg42_17" class="clusterblast-orf" id="dummy-1_q1_0_all"  />
<polygon points="66,40 125,40 130,35 125,30 66,30 66,40 " style="fill:white; stroke-width:1; stroke:black; " description="&lt;b&gt;ctg42_18&lt;/b&gt;&lt;br&gt;ctg42 18&lt;br&gt;Location: 20966 - 22664" locus_tag="ctg42_18" class="clusterblast-orf" id="dummy-1_q2_0_all"  />
<polygon points="136,35 141,30 153,30 153,40 141,40 136,35 " style="fill:white; stroke-width:1; stroke:black; " description="&lt;b&gt;ctg42_19&lt;/b&gt;&lt;br&gt;ctg42 19&lt;br&gt;Location: 22808 - 23261" locus_tag="ctg42_19" class="clusterblast-orf" id="dummy-1_q3_0_all"  />
<polygon points="155,40 165,40 170,35 165,30 155,30 155,40 " style="fill:white; stroke-width:1; stroke:black; " description="&lt;b&gt;ctg42_20&lt;/b&gt;&lt;br&gt;ctg42 20&lt;br&gt;Location: 23322 - 23718" locus_tag="ctg42_20" class="clusterblast-orf" id="dummy-1_q4_0_all"  />
<polygon points="170,35 175,30 193,30 193,40 175,40 170,35 " style="fill:white; stroke-width:1; stroke:black; " description="&lt;b&gt;ctg42_21&lt;/b&gt;&lt;br&gt;ctg42 21&lt;br&gt;Location: 23719 - 24319" locus_tag="ctg42_21" class="clusterblast-orf" id="dummy-1_q5_0_all"  />
<polygon points="198,35 203,30 230,30 230,40 203,40 198,35 " style="fill:white; stroke-width:1; stroke:black; " description="&lt;b&gt;ctg42_22&lt;/b&gt;&lt;br&gt;ctg42 22&lt;br&gt;Location: 24447 - 25305" locus_tag="ctg42_22" class="clusterblast-orf" id="dummy-1_q6_0_all"  />
<polygon points="236,40 269,40 274,35 269,30 236,30 236,40 " style="fill:white; stroke-width:1; stroke:black; " description="&lt;b&gt;ctg42_23&lt;/b&gt;&lt;br&gt;ctg42 23&lt;br&gt;Location: 25451 - 26456" locus_tag="ctg42_23" class="clusterblast-orf" id="dummy-1_q7_0_all"  />
<polygon points="274,35 279,30 308,30 308,40 279,40 274,35 " style="fill:white; stroke-width:1; stroke:black; " description="&lt;b&gt;ctg42_24&lt;/b&gt;&lt;br&gt;ctg42 24&lt;br&gt;Location: 26452 - 27355" locus_tag="ctg42_24" class="clusterblast-orf" id="dummy-1_q8_0_all"  />
<polygon points="314,40 366,40 371,35 366,30 314,30 314,40 " style="fill:#d81515; stroke-width:1; stroke:black; " description="&lt;b&gt;ctg42_25&lt;/b&gt;&lt;br&gt;ctg42 25&lt;br&gt;Location: 27523 - 29005" locus_tag="ctg42_25" class="clusterblast-orf" id="dummy-1_q9_0_all"  />
<polygon points="370,40 402,40 407,35 402,30 370,30 370,40 " style="fill:#4dd815; stroke-width:1; stroke:black; " description="&lt;b&gt;ctg42_26&lt;/b&gt;&lt;br&gt;ctg42 26&lt;br&gt;Location: 29001 - 29964" locus_tag="ctg42_26" class="clusterblast-orf" id="dummy-1_q10_0_all"  />
<polygon points="407,40 415,40 420,35 415,30 407,30 407,40 " style="fill:#1585d8; stroke-width:1; stroke:black; " description="&lt;b&gt;ctg42_27&lt;/b&gt;&lt;br&gt;ctg42 27&lt;br&gt;Location: 29963 - 30299" locus_tag="ctg42_27" class="clusterblast-orf" id="dummy-1_q11_0_all"  />
<polygon points="419,40 427,40 432,35 427,30 419,30 419,40 " style="fill:#d815bc; stroke-width:1; stroke:black; " description="&lt;b&gt;ctg42_28&lt;/b&gt;&lt;br&gt;ctg42 28&lt;br&gt;Location: 30295 - 30619" locus_tag="ctg42_28" class="clusterblast-orf" id="dummy-1_q12_0_all"  />
<polygon points="432,40 454,40 459,35 454,30 432,30 432,40 " style="fill:#d8bc15; stroke-width:1; stroke:black; " description="&lt;b&gt;ctg42_29&lt;/b&gt;&lt;br&gt;ctg42 29&lt;br&gt;Location: 30615 - 31350" locus_tag="ctg42_29" class="clusterblast-orf" id="dummy-1_q13_0_all"  />
<polygon points="459,40 511,40 516,35 511,30 459,30 459,40 " style="fill:#15d885; stroke-width:1; stroke:black; " description="&lt;b&gt;ctg42_30&lt;/b&gt;&lt;br&gt;ctg42 30&lt;br&gt;Location: 31346 - 32828" locus_tag="ctg42_30" class="clusterblast-orf" id="dummy-1_q14_0_all"  />
<polygon points="516,40 548,40 553,35 548,30 516,30 516,40 " style="fill:#4d15d8; stroke-width:1; stroke:black; " description="&lt;b&gt;ctg42_31&lt;/b&gt;&lt;br&gt;ctg42 31&lt;br&gt;Location: 32830 - 33823" locus_tag="ctg42_31" class="clusterblast-orf" id="dummy-1_q15_0_all"  />
<polygon points="559,40 574,40 579,35 574,30 559,30 559,40 " style="fill:white; stroke-width:1; stroke:black; " description="&lt;b&gt;ctg42_32&lt;/b&gt;&lt;br&gt;ctg42 32&lt;br&gt;Location: 33984 - 34506" locus_tag="ctg42_32" class="clusterblast-orf" id="dummy-1_q16_0_all"  />
<polygon points="580,40 619,40 624,35 619,30 580,30 580,40 " style="fill:white; stroke-width:1; stroke:black; " description="&lt;b&gt;ctg42_33&lt;/b&gt;&lt;br&gt;ctg42 33&lt;br&gt;Location: 34516 - 35680" locus_tag="ctg42_33" class="clusterblast-orf" id="dummy-1_q17_0_all"  />
<polygon points="634,40 634,40 639,35 634,30 634,30 634,40 " style="fill:white; stroke-width:1; stroke:black; " description="&lt;b&gt;ctg42_34&lt;/b&gt;&lt;br&gt;ctg42 34&lt;br&gt;Location: 35947 - 36088" locus_tag="ctg42_34" class="clusterblast-orf" id="dummy-1_q18_0_all"  />
<polygon points="646,35 651,30 676,30 676,40 651,40 646,35 " style="fill:white; stroke-width:1; stroke:black; " description="&lt;b&gt;ctg42_35&lt;/b&gt;&lt;br&gt;ctg42 35&lt;br&gt;Location: 36266 - 37067" locus_tag="ctg42_35" class="clusterblast-orf" id="dummy-1_q19_0_all"  />
<polygon points="681,35 686,30 699,30 699,40 686,40 681,35 " style="fill:white; stroke-width:1; stroke:black; " description="&lt;b&gt;ctg42_36&lt;/b&gt;&lt;br&gt;ctg42 36&lt;br&gt;Location: 37192 - 37672" locus_tag="ctg42_36" class="clusterblast-orf" id="dummy-1_q20_0_all"  />
<polygon points="699,35 704,30 718,30 718,40 704,40 699,35 " style="fill:white; stroke-width:1; stroke:black; " description="&lt;b&gt;ctg42_37&lt;/b&gt;&lt;br&gt;ctg42 37&lt;br&gt;Location: 37672 - 38164" locus_tag="ctg42_37" class="clusterblast-orf" id="dummy-1_q21_0_all"  />
<polygon points="718,35 723,30 735,30 735,40 723,40 718,35 " style="fill:white; stroke-width:1; stroke:black; " description="&lt;b&gt;ctg42_38&lt;/b&gt;&lt;br&gt;ctg42 38&lt;br&gt;Location: 38160 - 38613" locus_tag="ctg42_38" class="clusterblast-orf" id="dummy-1_q22_0_all"  />
<polygon points="733,35 738,30 752,30 752,40 738,40 733,35 " style="fill:white; stroke-width:1; stroke:black; " description="&lt;b&gt;ctg42_39&lt;/b&gt;&lt;br&gt;ctg42 39&lt;br&gt;Location: 38555 - 39062" locus_tag="ctg42_39" class="clusterblast-orf" id="dummy-1_q23_0_all"  />
<polygon points="761,35 766,30 769,30 769,40 766,40 761,35 " style="fill:white; stroke-width:1; stroke:black; " description="&lt;b&gt;ctg42_40&lt;/b&gt;&lt;br&gt;ctg42 40&lt;br&gt;Location: 39297 - 39504" locus_tag="ctg42_40" class="clusterblast-orf" id="dummy-1_q24_0_all"  />
<polygon points="772,40 775,40 780,35 775,30 772,30 772,40 " style="fill:white; stroke-width:1; stroke:black; " description="&lt;b&gt;ctg42_41&lt;/b&gt;&lt;br&gt;ctg42 41&lt;br&gt;Location: 39592 - 39799" locus_tag="ctg42_41" class="clusterblast-orf" id="dummy-1_q25_0_all"  />
</g>
<g label="BGC0001227" description="BGC0001227_c1: Isorenieratene (45% of genes show similarity), terpene" class="clusterblast-cluster"  >
<text x="5" y="70" class="clusterblast-acc"  >
<a xlink:href="https://mibig.secondarymetabolites.org/go/BGC0001227/1" target="_blank">BGC0001227</a>:                                                                   Isorenieratene (45% of genes show similarity), terpene</text>
<line x1="10" y1="85" x2="778.0" y2="85" style="stroke-width:1; stroke:grey; "  />
</g>
<g id="a1_000"  >
<polygon points="159,90 195,90 200,85 195,80 159,80 159,90 " style="fill:white; stroke-width:1; stroke:black; " description="&lt;b&gt;B446_02770&lt;/b&gt;&lt;br&gt;putative regulatory protein&lt;br&gt;Location: 12144 - 11074" locus_tag="B446_02770" class="clusterblast-orf" id="dummy-1_h1_4_0"  />
</g>
<g id="a1_001"  >
<polygon points="196,85 201,80 218,80 218,90 201,90 196,85 " style="fill:white; stroke-width:1; stroke:black; " description="&lt;b&gt;B446_02765&lt;/b&gt;&lt;br&gt;hypothetical protein&lt;br&gt;Location: 11170 - 10586" locus_tag="B446_02765" class="clusterblast-orf" id="dummy-1_h1_4_1"  />
</g>
<g id="a1_002"  >
<polygon points="219,85 224,80 247,80 247,90 224,90 219,85 " style="fill:white; stroke-width:1; stroke:black; " description="&lt;b&gt;B446_02760&lt;/b&gt;&lt;br&gt;transcriptional regulator&lt;br&gt;Location: 10559 - 9843" locus_tag="B446_02760" class="clusterblast-orf" id="dummy-1_h1_4_2"  />
</g>
<g id="a1_003"  >
<polygon points="251,85 256,80 282,80 282,90 256,90 251,85 " style="fill:white; stroke-width:1; stroke:black; " description="&lt;b&gt;B446_02755&lt;/b&gt;&lt;br&gt;hypothetical protein&lt;br&gt;Location: 9736 - 8897" locus_tag="B446_02755" class="clusterblast-orf" id="dummy-1_h1_4_3"  />
</g>
<g id="a1_004"  >
<polygon points="284,85 289,80 346,80 346,90 289,90 284,85 " style="fill:#15d885; stroke-width:1; stroke:black; " description="&lt;b&gt;B446_02750&lt;/b&gt;&lt;br&gt;beta-carotene desaturase/methylase&lt;br&gt;Location: 8856 - 7222&lt;br&gt;&lt;br&gt;&lt;b&gt;BlastP hit with ctg42_30&lt;/b&gt;&lt;br&gt;Percentage identity: 59&lt;br&gt;Percentage coverage: 101&lt;br&gt;BLAST bit score: 530&lt;br&gt;E-value: 2e-150" locus_tag="B446_02750" class="clusterblast-orf" id="dummy-1_h1_4_4"  />
</g>
<g id="a1_005"  >
<polygon points="346,85 351,80 374,80 374,90 351,90 346,85 " style="fill:#d8bc15; stroke-width:1; stroke:black; " description="&lt;b&gt;B446_02745&lt;/b&gt;&lt;br&gt;methyltransferase&lt;br&gt;Location: 7225 - 6491&lt;br&gt;&lt;br&gt;&lt;b&gt;BlastP hit with ctg42_29&lt;/b&gt;&lt;br&gt;Percentage identity: 52&lt;br&gt;Percentage coverage: 94&lt;br&gt;BLAST bit score: 235&lt;br&gt;E-value: 8.7e-62" locus_tag="B446_02745" class="clusterblast-orf" id="dummy-1_h1_4_5"  />
</g>
<g id="a1_006"  >
<polygon points="382,85 387,80 427,80 427,90 387,90 382,85 " style="fill:white; stroke-width:1; stroke:black; " description="&lt;b&gt;B446_02740&lt;/b&gt;&lt;br&gt;lycopene cyclase&lt;br&gt;Location: 6279 - 5083" locus_tag="B446_02740" class="clusterblast-orf" id="dummy-1_h1_4_6"  />
</g>
<g id="a1_007"  >
<polygon points="436,90 480,90 485,85 480,80 436,80 436,90 " style="fill:white; stroke-width:1; stroke:black; " description="&lt;b&gt;B446_02735&lt;/b&gt;&lt;br&gt;polyprenyl diphosphate synthase&lt;br&gt;Location: 4836 - 3565" locus_tag="B446_02735" class="clusterblast-orf" id="dummy-1_h1_4_7"  />
</g>
<g id="a1_008"  >
<polygon points="486,90 538,90 543,85 538,80 486,80 486,90 " style="fill:#d81515; stroke-width:1; stroke:black; " description="&lt;b&gt;B446_02730&lt;/b&gt;&lt;br&gt;phytoene desaturase&lt;br&gt;Location: 3532 - 2030&lt;br&gt;&lt;br&gt;&lt;b&gt;BlastP hit with ctg42_25&lt;/b&gt;&lt;br&gt;Percentage identity: 64&lt;br&gt;Percentage coverage: 98&lt;br&gt;BLAST bit score: 601&lt;br&gt;E-value: 9.3e-172" locus_tag="B446_02730" class="clusterblast-orf" id="dummy-1_h1_4_8"  />
</g>
<g id="a1_009"  >
<polygon points="543,90 576,90 581,85 576,80 543,80 543,90 " style="fill:#4dd815; stroke-width:1; stroke:black; " description="&lt;b&gt;B446_02725&lt;/b&gt;&lt;br&gt;phytoene synthase&lt;br&gt;Location: 2033 - 1017&lt;br&gt;&lt;br&gt;&lt;b&gt;BlastP hit with ctg42_26&lt;/b&gt;&lt;br&gt;Percentage identity: 58&lt;br&gt;Percentage coverage: 98&lt;br&gt;BLAST bit score: 316&lt;br&gt;E-value: 3.9e-86" locus_tag="B446_02725" class="clusterblast-orf" id="dummy-1_h1_4_9"  />
</g>
<g id="a1_0010"  >
<polygon points="581,90 615,90 620,85 615,80 581,80 581,90 " style="fill:#4d15d8; stroke-width:1; stroke:black; " description="&lt;b&gt;B446_02720&lt;/b&gt;&lt;br&gt;iron-sulfur protein&lt;br&gt;Location: 1020 - 1&lt;br&gt;&lt;br&gt;&lt;b&gt;BlastP hit with ctg42_31&lt;/b&gt;&lt;br&gt;Percentage identity: 58&lt;br&gt;Percentage coverage: 101&lt;br&gt;BLAST bit score: 378&lt;br&gt;E-value: 1.5e-104" locus_tag="B446_02720" class="clusterblast-orf" id="dummy-1_h1_4_10"  />
</g>
</svg>
