<svg xmlns="http://www.w3.org/2000/svg" xmlns:xlink="http://www.w3.org/1999/xlink" version="1.1" x="0" y="0" height="230" width="800" viewBox="0 0 800 230" preserveAspectRatio="none"  >
<g label="Query sequence" class="clusterblast-cluster"  >
<text x="5" y="20" class="clusterblast-acc"  >
Query sequence</text>
<line x1="10" y1="35" x2="778.0" y2="35" style="stroke-width:1; stroke:grey; "  />
<polygon points="292,35 297,30 310,30 310,40 297,40 292,35 " style="fill:#d81515; stroke-width:1; stroke:black; " description="&lt;b&gt;ctg90_1&lt;/b&gt;&lt;br&gt;ctg90 1&lt;br&gt;Location: 2 - 1100" locus_tag="ctg90_1" class="clusterblast-orf" id="dummy-1_q0_0_all"  />
<polygon points="311,35 316,30 330,30 330,40 316,40 311,35 " style="fill:#15d8d8; stroke-width:1; stroke:black; " description="&lt;b&gt;ctg90_2&lt;/b&gt;&lt;br&gt;ctg90 2&lt;br&gt;Location: 1119 - 2289" locus_tag="ctg90_2" class="clusterblast-orf" id="dummy-1_q1_0_all"  />
<polygon points="337,40 339,40 344,35 339,30 337,30 337,40 " style="fill:white; stroke-width:1; stroke:black; " description="&lt;b&gt;ctg90_3&lt;/b&gt;&lt;br&gt;ctg90 3&lt;br&gt;Location: 2680 - 3148" locus_tag="ctg90_3" class="clusterblast-orf" id="dummy-1_q2_0_all"  />
<polygon points="344,35 349,30 369,30 369,40 349,40 344,35 " style="fill:white; stroke-width:1; stroke:black; " description="&lt;b&gt;ctg90_4&lt;/b&gt;&lt;br&gt;ctg90 4&lt;br&gt;Location: 3138 - 4605" locus_tag="ctg90_4" class="clusterblast-orf" id="dummy-1_q3_0_all"  />
<polygon points="369,35 374,30 383,30 383,40 374,40 369,35 " style="fill:white; stroke-width:1; stroke:black; " description="&lt;b&gt;ctg90_5&lt;/b&gt;&lt;br&gt;ctg90 5&lt;br&gt;Location: 4609 - 5473" locus_tag="ctg90_5" class="clusterblast-orf" id="dummy-1_q4_0_all"  />
<polygon points="385,35 390,30 406,30 406,40 390,40 385,35 " style="fill:white; stroke-width:1; stroke:black; " description="&lt;b&gt;ctg90_6&lt;/b&gt;&lt;br&gt;ctg90 6&lt;br&gt;Location: 5583 - 6834" locus_tag="ctg90_6" class="clusterblast-orf" id="dummy-1_q5_0_all"  />
<polygon points="406,35 409,30 409,40 406,35 " style="fill:white; stroke-width:1; stroke:black; " description="&lt;b&gt;ctg90_7&lt;/b&gt;&lt;br&gt;ctg90 7&lt;br&gt;Location: 6874 - 7057" locus_tag="ctg90_7" class="clusterblast-orf" id="dummy-1_q6_0_all"  />
<polygon points="408,35 413,30 415,30 415,40 413,40 408,35 " style="fill:white; stroke-width:1; stroke:black; " description="&lt;b&gt;ctg90_8&lt;/b&gt;&lt;br&gt;ctg90 8&lt;br&gt;Location: 6996 - 7407" locus_tag="ctg90_8" class="clusterblast-orf" id="dummy-1_q7_0_all"  />
<polygon points="428,40 433,40 438,35 433,30 428,30 428,40 " style="fill:white; stroke-width:1; stroke:black; " description="&lt;b&gt;ctg90_9&lt;/b&gt;&lt;br&gt;ctg90 9&lt;br&gt;Location: 8172 - 8793" locus_tag="ctg90_9" class="clusterblast-orf" id="dummy-1_q8_0_all"  />
<polygon points="438,40 439,40 444,35 439,30 438,30 438,40 " style="fill:white; stroke-width:1; stroke:black; " description="&lt;b&gt;ctg90_10&lt;/b&gt;&lt;br&gt;ctg90 10&lt;br&gt;Location: 8767 - 9154" locus_tag="ctg90_10" class="clusterblast-orf" id="dummy-1_q9_0_all"  />
<polygon points="444,40 446,40 451,35 446,30 444,30 444,40 " style="fill:white; stroke-width:1; stroke:black; " description="&lt;b&gt;ctg90_11&lt;/b&gt;&lt;br&gt;ctg90 11&lt;br&gt;Location: 9150 - 9564" locus_tag="ctg90_11" class="clusterblast-orf" id="dummy-1_q10_0_all"  />
<polygon points="452,35 457,30 464,30 464,40 457,40 452,35 " style="fill:white; stroke-width:1; stroke:black; " description="&lt;b&gt;ctg90_12&lt;/b&gt;&lt;br&gt;ctg90 12&lt;br&gt;Location: 9610 - 10336" locus_tag="ctg90_12" class="clusterblast-orf" id="dummy-1_q11_0_all"  />
<polygon points="464,35 469,30 487,30 487,40 469,40 464,35 " style="fill:white; stroke-width:1; stroke:black; " description="&lt;b&gt;ctg90_13&lt;/b&gt;&lt;br&gt;ctg90 13&lt;br&gt;Location: 10332 - 11754" locus_tag="ctg90_13" class="clusterblast-orf" id="dummy-1_q12_0_all"  />
</g>
<g label="BGC0000695" description="BGC0000695_c1: Fortimicin (4% of genes show similarity), saccharide" class="clusterblast-cluster"  >
<text x="5" y="70" class="clusterblast-acc"  >
<a xlink:href="https://mibig.secondarymetabolites.org/go/BGC0000695/1" target="_blank">BGC0000695</a>:                                                                       Fortimicin (4% of genes show similarity), saccharide</text>
<line x1="10" y1="85" x2="778.0" y2="85" style="stroke-width:1; stroke:grey; "  />
</g>
<g id="a1_000"  >
<polygon points="0,90 9,90 14,85 9,80 0,80 0,90 " style="fill:white; stroke-width:1; stroke:black; " description="&lt;b&gt;CAG38673.1&lt;/b&gt;&lt;br&gt;putative acetyltransferase&lt;br&gt;Location: 47035 - 46148" locus_tag="CAG38673.1" class="clusterblast-orf" id="dummy-1_h1_1_0"  />
</g>
<g id="a1_001"  >
<polygon points="25,90 44,90 49,85 44,80 25,80 25,90 " style="fill:white; stroke-width:1; stroke:black; " description="&lt;b&gt;CAG38672.1&lt;/b&gt;&lt;br&gt;putative signal transduction histidine kinase&lt;br&gt;Location: 45499 - 44075" locus_tag="CAG38672.1" class="clusterblast-orf" id="dummy-1_h1_1_1"  />
</g>
<g id="a1_002"  >
<polygon points="49,90 51,90 56,85 51,80 49,80 49,90 " style="fill:white; stroke-width:1; stroke:black; " description="&lt;b&gt;CAG38671.1&lt;/b&gt;&lt;br&gt;conserved hypothetical protein&lt;br&gt;Location: 44064 - 43636" locus_tag="CAG38671.1" class="clusterblast-orf" id="dummy-1_h1_1_2"  />
</g>
<g id="a1_003"  >
<polygon points="56,90 57,90 62,85 57,80 56,80 56,90 " style="fill:white; stroke-width:1; stroke:black; " description="&lt;b&gt;CAG38670.1&lt;/b&gt;&lt;br&gt;conserved hypothetical protein&lt;br&gt;Location: 43639 - 43274" locus_tag="CAG38670.1" class="clusterblast-orf" id="dummy-1_h1_1_3"  />
</g>
<g id="a1_004"  >
<polygon points="70,90 72,85 70,80 70,90 " style="fill:white; stroke-width:1; stroke:black; " description="&lt;b&gt;CAF31567.1&lt;/b&gt;&lt;br&gt;putative ATP/GTP-binding protein&lt;br&gt;Location: 42806 - 42675" locus_tag="CAF31567.1" class="clusterblast-orf" id="dummy-1_h1_1_4"  />
</g>
<g id="a1_005"  >
<polygon points="63,90 67,90 72,85 67,80 63,80 63,90 " style="fill:white; stroke-width:1; stroke:black; " description="&lt;b&gt;CAG38669.1&lt;/b&gt;&lt;br&gt;putative GTPase&lt;br&gt;Location: 43229 - 42675" locus_tag="CAG38669.1" class="clusterblast-orf" id="dummy-1_h1_1_5"  />
</g>
<g id="a1_006"  >
<polygon points="73,85 78,80 97,80 97,90 78,90 73,85 " style="fill:#d81515; stroke-width:1; stroke:black; " description="&lt;b&gt;CAF31566.1&lt;/b&gt;&lt;br&gt;putative tryptophanase&lt;br&gt;Location: 42595 - 41180&lt;br&gt;&lt;br&gt;&lt;b&gt;BlastP hit with ctg90_1&lt;/b&gt;&lt;br&gt;Percentage identity: 67&lt;br&gt;Percentage coverage: 99&lt;br&gt;BLAST bit score: 484&lt;br&gt;E-value: 1.2e-136" locus_tag="CAF31566.1" class="clusterblast-orf" id="dummy-1_h1_1_6"  />
</g>
<g id="a1_007"  >
<polygon points="97,85 102,80 116,80 116,90 102,90 97,85 " style="fill:#15d8d8; stroke-width:1; stroke:black; " description="&lt;b&gt;CAF31565.1&lt;/b&gt;&lt;br&gt;conserved hypothetical protein&lt;br&gt;Location: 41155 - 40025&lt;br&gt;&lt;br&gt;&lt;b&gt;BlastP hit with ctg90_2&lt;/b&gt;&lt;br&gt;Percentage identity: 48&lt;br&gt;Percentage coverage: 95&lt;br&gt;BLAST bit score: 309&lt;br&gt;E-value: 9.8e-84" locus_tag="CAF31565.1" class="clusterblast-orf" id="dummy-1_h1_1_7"  />
</g>
<g id="a1_008"  >
<polygon points="121,90 136,90 141,85 136,80 121,80 121,90 " style="fill:white; stroke-width:1; stroke:black; " description="&lt;b&gt;CAF31564.1&lt;/b&gt;&lt;br&gt;possible fortimicin production protein&lt;br&gt;Location: 39688 - 38531" locus_tag="CAF31564.1" class="clusterblast-orf" id="dummy-1_h1_1_8"  />
</g>
<g id="a1_009"  >
<polygon points="141,90 149,90 154,85 149,80 141,80 141,90 " style="fill:white; stroke-width:1; stroke:black; " description="&lt;b&gt;CAF31563.1&lt;/b&gt;&lt;br&gt;16S rRNA methyltransferase&lt;br&gt;Location: 38522 - 37713" locus_tag="CAF31563.1" class="clusterblast-orf" id="dummy-1_h1_1_9"  />
</g>
<g id="a1_0010"  >
<polygon points="160,85 165,80 168,80 168,90 165,90 160,85 " style="fill:white; stroke-width:1; stroke:black; " description="&lt;b&gt;CAF31562.1&lt;/b&gt;&lt;br&gt;16S rRNA methyltransferase; fortimicin resistance&lt;br&gt;Location: 37372 - 36896" locus_tag="CAF31562.1" class="clusterblast-orf" id="dummy-1_h1_1_10"  />
</g>
<g id="a1_0011"  >
<polygon points="168,90 169,90 174,85 169,80 168,80 168,90 " style="fill:white; stroke-width:1; stroke:black; " description="&lt;b&gt;CAF31561.1&lt;/b&gt;&lt;br&gt;possible fortimicin production protein&lt;br&gt;Location: 36897 - 36526" locus_tag="CAF31561.1" class="clusterblast-orf" id="dummy-1_h1_1_11"  />
</g>
<g id="a1_0012"  >
<polygon points="179,90 181,90 186,85 181,80 179,80 179,90 " style="fill:white; stroke-width:1; stroke:black; " description="&lt;b&gt;CAF31560.1&lt;/b&gt;&lt;br&gt;possible fortimicin production protein&lt;br&gt;Location: 36185 - 35772" locus_tag="CAF31560.1" class="clusterblast-orf" id="dummy-1_h1_1_12"  />
</g>
<g id="a1_0013"  >
<polygon points="189,90 196,90 201,85 196,80 189,80 189,90 " style="fill:white; stroke-width:1; stroke:black; " description="&lt;b&gt;CAF31559.1&lt;/b&gt;&lt;br&gt;putative fortimicin production protein; unknown ATP/GTP-binding protein&lt;br&gt;Location: 35612 - 34911" locus_tag="CAF31559.1" class="clusterblast-orf" id="dummy-1_h1_1_13"  />
</g>
<g id="a1_0014"  >
<polygon points="201,90 206,90 211,85 206,80 201,80 201,90 " style="fill:white; stroke-width:1; stroke:black; " description="&lt;b&gt;CAF31558.1&lt;/b&gt;&lt;br&gt;putative fortimicin production protein&lt;br&gt;Location: 34904 - 34266" locus_tag="CAF31558.1" class="clusterblast-orf" id="dummy-1_h1_1_14"  />
</g>
<g id="a1_0015"  >
<polygon points="211,90 212,90 217,85 212,80 211,80 211,90 " style="fill:white; stroke-width:1; stroke:black; " description="&lt;b&gt;CAF31557.1&lt;/b&gt;&lt;br&gt;putative fortimicin production protein&lt;br&gt;Location: 34266 - 33910" locus_tag="CAF31557.1" class="clusterblast-orf" id="dummy-1_h1_1_15"  />
</g>
<g id="a1_0016"  >
<polygon points="218,85 223,80 233,80 233,90 223,90 218,85 " style="fill:white; stroke-width:1; stroke:black; " description="&lt;b&gt;CAF31556.1&lt;/b&gt;&lt;br&gt;putative fortimicin production protein&lt;br&gt;Location: 33877 - 32936" locus_tag="CAF31556.1" class="clusterblast-orf" id="dummy-1_h1_1_16"  />
</g>
<g id="a1_0017"  >
<polygon points="235,85 240,80 250,80 250,90 240,90 235,85 " style="fill:white; stroke-width:1; stroke:black; " description="&lt;b&gt;CAF31555.1&lt;/b&gt;&lt;br&gt;16S rRNA methyltransferase&lt;br&gt;Location: 32825 - 31944" locus_tag="CAF31555.1" class="clusterblast-orf" id="dummy-1_h1_1_17"  />
</g>
<g id="a1_0018"  >
<polygon points="250,85 255,80 255,80 255,90 255,90 250,85 " style="fill:white; stroke-width:1; stroke:black; " description="&lt;b&gt;CAF31554.1&lt;/b&gt;&lt;br&gt;hypothetical protein&lt;br&gt;Location: 31906 - 31607" locus_tag="CAF31554.1" class="clusterblast-orf" id="dummy-1_h1_1_18"  />
</g>
<g id="a1_0019"  >
<polygon points="261,90 269,90 274,85 269,80 261,80 261,90 " style="fill:white; stroke-width:1; stroke:black; " description="&lt;b&gt;CAF31553.1&lt;/b&gt;&lt;br&gt;putative fortimicin biosynthetic oxidoreductase&lt;br&gt;Location: 31254 - 30466" locus_tag="CAF31553.1" class="clusterblast-orf" id="dummy-1_h1_1_19"  />
</g>
<g id="a1_0020"  >
<polygon points="279,85 284,80 293,80 293,90 284,90 279,85 " style="fill:white; stroke-width:1; stroke:black; " description="&lt;b&gt;CAF31552.1&lt;/b&gt;&lt;br&gt;putative myo-inositol-3-phosphate phosphatase&lt;br&gt;Location: 30204 - 29359" locus_tag="CAF31552.1" class="clusterblast-orf" id="dummy-1_h1_1_20"  />
</g>
<g id="a1_0021"  >
<polygon points="293,85 298,80 307,80 307,90 298,90 293,85 " style="fill:white; stroke-width:1; stroke:black; " description="&lt;b&gt;CAF31551.1&lt;/b&gt;&lt;br&gt;putative fortimicin N-methyltransferase&lt;br&gt;Location: 29350 - 28508" locus_tag="CAF31551.1" class="clusterblast-orf" id="dummy-1_h1_1_21"  />
</g>
<g id="a1_0022"  >
<polygon points="307,85 312,80 324,80 324,90 312,90 307,85 " style="fill:white; stroke-width:1; stroke:black; " description="&lt;b&gt;CAF31550.1&lt;/b&gt;&lt;br&gt;putative myo-inositol 3-dehydrogenase&lt;br&gt;Location: 28511 - 27450" locus_tag="CAF31550.1" class="clusterblast-orf" id="dummy-1_h1_1_22"  />
</g>
<g id="a1_0023"  >
<polygon points="325,85 330,80 333,80 333,90 330,90 325,85 " style="fill:white; stroke-width:1; stroke:black; " description="&lt;b&gt;CAF31549.1&lt;/b&gt;&lt;br&gt;putative fortimicin production protein&lt;br&gt;Location: 27392 - 26925" locus_tag="CAF31549.1" class="clusterblast-orf" id="dummy-1_h1_1_23"  />
</g>
<g id="a1_0024"  >
<polygon points="346,90 365,90 370,85 365,80 346,80 346,90 " style="fill:white; stroke-width:1; stroke:black; " description="&lt;b&gt;CAF31548.1&lt;/b&gt;&lt;br&gt;fortimicin A N-forimidoyltransferase&lt;br&gt;Location: 26139 - 24691" locus_tag="CAF31548.1" class="clusterblast-orf" id="dummy-1_h1_1_24"  />
</g>
<g id="a1_0025"  >
<polygon points="370,90 393,90 398,85 393,80 370,80 370,90 " style="fill:white; stroke-width:1; stroke:black; " description="&lt;b&gt;CAF31547.1&lt;/b&gt;&lt;br&gt;fortimicin KL1 C-methyltransferase&lt;br&gt;Location: 24665 - 23004" locus_tag="CAF31547.1" class="clusterblast-orf" id="dummy-1_h1_1_25"  />
</g>
<g id="a1_0026"  >
<polygon points="401,90 418,90 423,85 418,80 401,80 401,90 " style="fill:white; stroke-width:1; stroke:black; " description="&lt;b&gt;CAF31546.1&lt;/b&gt;&lt;br&gt;putative fortimicin 6'-aminotransferase&lt;br&gt;Location: 22814 - 21486" locus_tag="CAF31546.1" class="clusterblast-orf" id="dummy-1_h1_1_26"  />
</g>
<g id="a1_0027"  >
<polygon points="423,90 432,90 437,85 432,80 423,80 423,90 " style="fill:white; stroke-width:1; stroke:black; " description="&lt;b&gt;CAF31545.1&lt;/b&gt;&lt;br&gt;putative fortimicin 3'-phosphotransferase (biosynthetic)&lt;br&gt;Location: 21484 - 20660" locus_tag="CAF31545.1" class="clusterblast-orf" id="dummy-1_h1_1_27"  />
</g>
<g id="a1_0028"  >
<polygon points="437,90 447,90 452,85 447,80 437,80 437,90 " style="fill:white; stroke-width:1; stroke:black; " description="&lt;b&gt;CAF31544.1&lt;/b&gt;&lt;br&gt;putative N-acetylhexosaminyl deacetylase&lt;br&gt;Location: 20660 - 19752" locus_tag="CAF31544.1" class="clusterblast-orf" id="dummy-1_h1_1_28"  />
</g>
<g id="a1_0029"  >
<polygon points="452,90 466,90 471,85 466,80 452,80 452,90 " style="fill:white; stroke-width:1; stroke:black; " description="&lt;b&gt;CAF31543.1&lt;/b&gt;&lt;br&gt;conserved hypothetical protein; putative fortimicin production protein&lt;br&gt;Location: 19758 - 18619" locus_tag="CAF31543.1" class="clusterblast-orf" id="dummy-1_h1_1_29"  />
</g>
<g id="a1_0030"  >
<polygon points="471,90 478,90 483,85 478,80 471,80 471,90 " style="fill:white; stroke-width:1; stroke:black; " description="&lt;b&gt;CAF31542.1&lt;/b&gt;&lt;br&gt;putative fortimicin O-methyltransferase&lt;br&gt;Location: 18593 - 17859" locus_tag="CAF31542.1" class="clusterblast-orf" id="dummy-1_h1_1_30"  />
</g>
<g id="a1_0031"  >
<polygon points="483,90 496,90 501,85 496,80 483,80 483,90 " style="fill:white; stroke-width:1; stroke:black; " description="&lt;b&gt;CAF31541.1&lt;/b&gt;&lt;br&gt;putative (cyclitol-)dehydrogenase&lt;br&gt;Location: 17862 - 16801" locus_tag="CAF31541.1" class="clusterblast-orf" id="dummy-1_h1_1_31"  />
</g>
<g id="a1_0032"  >
<polygon points="501,90 517,90 522,85 517,80 501,80 501,90 " style="fill:white; stroke-width:1; stroke:black; " description="&lt;b&gt;CAF31540.1&lt;/b&gt;&lt;br&gt;putative ketocyclitol aminotransferase I and II&lt;br&gt;Location: 16804 - 15533" locus_tag="CAF31540.1" class="clusterblast-orf" id="dummy-1_h1_1_32"  />
</g>
<g id="a1_0033"  >
<polygon points="522,90 538,90 543,85 538,80 522,80 522,90 " style="fill:white; stroke-width:1; stroke:black; " description="&lt;b&gt;CAF31539.1&lt;/b&gt;&lt;br&gt;putative (N-acetyl-)hexosaminyltransferase&lt;br&gt;Location: 15522 - 14239" locus_tag="CAF31539.1" class="clusterblast-orf" id="dummy-1_h1_1_33"  />
</g>
<g id="a1_0034"  >
<polygon points="544,90 564,90 569,85 564,80 544,80 544,90 " style="fill:white; stroke-width:1; stroke:black; " description="&lt;b&gt;CAF31538.1&lt;/b&gt;&lt;br&gt;putative transmembrane efflux protein&lt;br&gt;Location: 14227 - 12677" locus_tag="CAF31538.1" class="clusterblast-orf" id="dummy-1_h1_1_34"  />
</g>
<g id="a1_0035"  >
<polygon points="569,90 579,90 584,85 579,80 569,80 569,90 " style="fill:white; stroke-width:1; stroke:black; " description="&lt;b&gt;CAF31537.1&lt;/b&gt;&lt;br&gt;cytochrome c-type&lt;br&gt;Location: 12680 - 11817" locus_tag="CAF31537.1" class="clusterblast-orf" id="dummy-1_h1_1_35"  />
</g>
<g id="a1_0036"  >
<polygon points="584,85 589,80 612,80 612,90 589,90 584,85 " style="fill:white; stroke-width:1; stroke:black; " description="&lt;b&gt;CAF31536.1&lt;/b&gt;&lt;br&gt;putative fortimicin dehydrogenase&lt;br&gt;Location: 11803 - 10124" locus_tag="CAF31536.1" class="clusterblast-orf" id="dummy-1_h1_1_36"  />
</g>
<g id="a1_0037"  >
<polygon points="613,85 618,80 644,80 644,90 618,90 613,85 " style="fill:white; stroke-width:1; stroke:black; " description="&lt;b&gt;CAF31535.1&lt;/b&gt;&lt;br&gt;putative component in exporter complex&lt;br&gt;Location: 10031 - 8169" locus_tag="CAF31535.1" class="clusterblast-orf" id="dummy-1_h1_1_37"  />
</g>
<g id="a1_0038"  >
<polygon points="644,85 649,80 670,80 670,90 649,90 644,85 " style="fill:white; stroke-width:1; stroke:black; " description="&lt;b&gt;CAF31534.1&lt;/b&gt;&lt;br&gt;putative component in exporter complex&lt;br&gt;Location: 8143 - 6632" locus_tag="CAF31534.1" class="clusterblast-orf" id="dummy-1_h1_1_38"  />
</g>
<g id="a1_0039"  >
<polygon points="669,85 674,80 703,80 703,90 674,90 669,85 " style="fill:white; stroke-width:1; stroke:black; " description="&lt;b&gt;CAF31533.1&lt;/b&gt;&lt;br&gt;putative component in exporter complex&lt;br&gt;Location: 6635 - 4629" locus_tag="CAF31533.1" class="clusterblast-orf" id="dummy-1_h1_1_39"  />
</g>
<g id="a1_0040"  >
<polygon points="708,85 713,80 730,80 730,90 713,90 708,85 " style="fill:white; stroke-width:1; stroke:black; " description="&lt;b&gt;CAF31532.1&lt;/b&gt;&lt;br&gt;ForY&lt;br&gt;Location: 4290 - 2968" locus_tag="CAF31532.1" class="clusterblast-orf" id="dummy-1_h1_1_40"  />
</g>
<g id="a1_0041"  >
<polygon points="739,90 749,90 754,85 749,80 739,80 739,90 " style="fill:white; stroke-width:1; stroke:black; " description="&lt;b&gt;CAF31531.1&lt;/b&gt;&lt;br&gt;putative transposase&lt;br&gt;Location: 2467 - 1547" locus_tag="CAF31531.1" class="clusterblast-orf" id="dummy-1_h1_1_41"  />
</g>
<g id="a1_0042"  >
<polygon points="756,90 775,90 780,85 775,80 756,80 756,90 " style="fill:white; stroke-width:1; stroke:black; " description="&lt;b&gt;CAF31530.1&lt;/b&gt;&lt;br&gt;hypothetical protein&lt;br&gt;Location: 1416 - 1" locus_tag="CAF31530.1" class="clusterblast-orf" id="dummy-1_h1_1_42"  />
</g>
</svg>
