<svg xmlns="http://www.w3.org/2000/svg" xmlns:xlink="http://www.w3.org/1999/xlink" version="1.1" x="0" y="0" height="50" width="800" viewBox="0 0 800 50" preserveAspectRatio="none"  >
<g label="Query sequence" class="clusterblast-cluster"  >
<text x="5" y="20" class="clusterblast-acc"  >
Query sequence</text>
<line x1="10" y1="35" x2="778.0" y2="35" style="stroke-width:1; stroke:grey; "  />
<polygon points="0,35 5,30 6,30 6,40 5,40 0,35 " style="fill:white; stroke-width:1; stroke:black; " description="&lt;b&gt;ctg23_19&lt;/b&gt;&lt;br&gt;ctg23 19&lt;br&gt;Location: 28055 - 28256" locus_tag="ctg23_19" class="clusterblast-orf" id="knownclusterblast-1_q0_0_all"  />
<polygon points="42,40 99,40 104,35 99,30 42,30 42,40 " style="fill:white; stroke-width:1; stroke:black; " description="&lt;b&gt;ctg23_20&lt;/b&gt;&lt;br&gt;ctg23 20&lt;br&gt;Location: 29363 - 31307" locus_tag="ctg23_20" class="clusterblast-orf" id="knownclusterblast-1_q1_0_all"  />
<polygon points="116,35 121,30 131,30 131,40 121,40 116,35 " style="fill:white; stroke-width:1; stroke:black; " description="&lt;b&gt;ctg23_21&lt;/b&gt;&lt;br&gt;ctg23 21&lt;br&gt;Location: 31683 - 32151" locus_tag="ctg23_21" class="clusterblast-orf" id="knownclusterblast-1_q2_0_all"  />
<polygon points="131,40 141,40 146,35 141,30 131,30 131,40 " style="fill:white; stroke-width:1; stroke:black; " description="&lt;b&gt;ctg23_22&lt;/b&gt;&lt;br&gt;ctg23 22&lt;br&gt;Location: 32165 - 32621" locus_tag="ctg23_22" class="clusterblast-orf" id="knownclusterblast-1_q3_0_all"  />
<polygon points="156,35 161,30 196,30 196,40 161,40 156,35 " style="fill:white; stroke-width:1; stroke:black; " description="&lt;b&gt;ctg23_23&lt;/b&gt;&lt;br&gt;ctg23 23&lt;br&gt;Location: 32941 - 34192" locus_tag="ctg23_23" class="clusterblast-orf" id="knownclusterblast-1_q4_0_all"  />
<polygon points="197,35 202,30 210,30 210,40 202,40 197,35 " style="fill:white; stroke-width:1; stroke:black; " description="&lt;b&gt;ctg23_24&lt;/b&gt;&lt;br&gt;ctg23 24&lt;br&gt;Location: 34200 - 34617" locus_tag="ctg23_24" class="clusterblast-orf" id="knownclusterblast-1_q5_0_all"  />
<polygon points="215,40 235,40 240,35 235,30 215,30 215,40 " style="fill:white; stroke-width:1; stroke:black; " description="&lt;b&gt;ctg23_25&lt;/b&gt;&lt;br&gt;ctg23 25&lt;br&gt;Location: 34784 - 35555" locus_tag="ctg23_25" class="clusterblast-orf" id="knownclusterblast-1_q6_0_all"  />
<polygon points="241,40 242,40 247,35 242,30 241,30 241,40 " style="fill:white; stroke-width:1; stroke:black; " description="&lt;b&gt;ctg23_26&lt;/b&gt;&lt;br&gt;ctg23 26&lt;br&gt;Location: 35584 - 35758" locus_tag="ctg23_26" class="clusterblast-orf" id="knownclusterblast-1_q7_0_all"  />
<polygon points="253,40 289,40 294,35 289,30 253,30 253,40 " style="fill:white; stroke-width:1; stroke:black; " description="&lt;b&gt;ctg23_27&lt;/b&gt;&lt;br&gt;ctg23 27&lt;br&gt;Location: 35967 - 37242" locus_tag="ctg23_27" class="clusterblast-orf" id="knownclusterblast-1_q8_0_all"  />
<polygon points="294,40 296,40 301,35 296,30 294,30 294,40 " style="fill:white; stroke-width:1; stroke:black; " description="&lt;b&gt;ctg23_28&lt;/b&gt;&lt;br&gt;ctg23 28&lt;br&gt;Location: 37254 - 37455" locus_tag="ctg23_28" class="clusterblast-orf" id="knownclusterblast-1_q9_0_all"  />
<polygon points="304,40 399,40 404,35 399,30 304,30 304,40 " style="fill:white; stroke-width:1; stroke:black; " description="&lt;b&gt;ctg23_29&lt;/b&gt;&lt;br&gt;ctg23 29&lt;br&gt;Location: 37549 - 40687" locus_tag="ctg23_29" class="clusterblast-orf" id="knownclusterblast-1_q10_0_all"  />
<polygon points="405,40 438,40 443,35 438,30 405,30 405,40 " style="fill:white; stroke-width:1; stroke:black; " description="&lt;b&gt;ctg23_30&lt;/b&gt;&lt;br&gt;ctg23 30&lt;br&gt;Location: 40722 - 41895" locus_tag="ctg23_30" class="clusterblast-orf" id="knownclusterblast-1_q11_0_all"  />
<polygon points="442,40 469,40 474,35 469,30 442,30 442,40 " style="fill:white; stroke-width:1; stroke:black; " description="&lt;b&gt;ctg23_31&lt;/b&gt;&lt;br&gt;ctg23 31&lt;br&gt;Location: 41876 - 42857" locus_tag="ctg23_31" class="clusterblast-orf" id="knownclusterblast-1_q12_0_all"  />
<polygon points="474,40 505,40 510,35 505,30 474,30 474,40 " style="fill:white; stroke-width:1; stroke:black; " description="&lt;b&gt;ctg23_32&lt;/b&gt;&lt;br&gt;ctg23 32&lt;br&gt;Location: 42859 - 43990" locus_tag="ctg23_32" class="clusterblast-orf" id="knownclusterblast-1_q13_0_all"  />
<polygon points="515,40 516,40 521,35 516,30 515,30 515,40 " style="fill:white; stroke-width:1; stroke:black; " description="&lt;b&gt;ctg23_33&lt;/b&gt;&lt;br&gt;ctg23 33&lt;br&gt;Location: 44140 - 44320" locus_tag="ctg23_33" class="clusterblast-orf" id="knownclusterblast-1_q14_0_all"  />
<polygon points="532,35 537,30 566,30 566,40 537,40 532,35 " style="fill:white; stroke-width:1; stroke:black; " description="&lt;b&gt;ctg23_34&lt;/b&gt;&lt;br&gt;ctg23 34&lt;br&gt;Location: 44657 - 45719" locus_tag="ctg23_34" class="clusterblast-orf" id="knownclusterblast-1_q15_0_all"  />
<polygon points="566,35 571,30 583,30 583,40 571,40 566,35 " style="fill:white; stroke-width:1; stroke:black; " description="&lt;b&gt;ctg23_35&lt;/b&gt;&lt;br&gt;ctg23 35&lt;br&gt;Location: 45718 - 46258" locus_tag="ctg23_35" class="clusterblast-orf" id="knownclusterblast-1_q16_0_all"  />
<polygon points="590,40 593,40 598,35 593,30 590,30 590,40 " style="fill:white; stroke-width:1; stroke:black; " description="&lt;b&gt;ctg23_36&lt;/b&gt;&lt;br&gt;ctg23 36&lt;br&gt;Location: 46475 - 46733" locus_tag="ctg23_36" class="clusterblast-orf" id="knownclusterblast-1_q17_0_all"  />
<polygon points="600,35 605,30 607,30 607,40 605,40 600,35 " style="fill:white; stroke-width:1; stroke:black; " description="&lt;b&gt;ctg23_37&lt;/b&gt;&lt;br&gt;ctg23 37&lt;br&gt;Location: 46783 - 47017" locus_tag="ctg23_37" class="clusterblast-orf" id="knownclusterblast-1_q18_0_all"  />
<polygon points="609,35 614,30 619,30 619,40 614,40 609,35 " style="fill:white; stroke-width:1; stroke:black; " description="&lt;b&gt;ctg23_38&lt;/b&gt;&lt;br&gt;ctg23 38&lt;br&gt;Location: 47069 - 47393" locus_tag="ctg23_38" class="clusterblast-orf" id="knownclusterblast-1_q19_0_all"  />
<polygon points="621,35 626,30 642,30 642,40 626,40 621,35 " style="fill:white; stroke-width:1; stroke:black; " description="&lt;b&gt;ctg23_39&lt;/b&gt;&lt;br&gt;ctg23 39&lt;br&gt;Location: 47462 - 48107" locus_tag="ctg23_39" class="clusterblast-orf" id="knownclusterblast-1_q20_0_all"  />
<polygon points="642,35 647,30 672,30 672,40 647,40 642,35 " style="fill:white; stroke-width:1; stroke:black; " description="&lt;b&gt;ctg23_40&lt;/b&gt;&lt;br&gt;ctg23 40&lt;br&gt;Location: 48103 - 49054" locus_tag="ctg23_40" class="clusterblast-orf" id="knownclusterblast-1_q21_0_all"  />
<polygon points="672,35 677,30 679,30 679,40 677,40 672,35 " style="fill:white; stroke-width:1; stroke:black; " description="&lt;b&gt;ctg23_41&lt;/b&gt;&lt;br&gt;ctg23 41&lt;br&gt;Location: 49050 - 49266" locus_tag="ctg23_41" class="clusterblast-orf" id="knownclusterblast-1_q22_0_all"  />
<polygon points="686,35 691,30 694,30 694,40 691,40 686,35 " style="fill:white; stroke-width:1; stroke:black; " description="&lt;b&gt;ctg23_42&lt;/b&gt;&lt;br&gt;ctg23 42&lt;br&gt;Location: 49480 - 49738" locus_tag="ctg23_42" class="clusterblast-orf" id="knownclusterblast-1_q23_0_all"  />
<polygon points="694,35 699,30 706,30 706,40 699,40 694,35 " style="fill:white; stroke-width:1; stroke:black; " description="&lt;b&gt;ctg23_43&lt;/b&gt;&lt;br&gt;ctg23 43&lt;br&gt;Location: 49734 - 50103" locus_tag="ctg23_43" class="clusterblast-orf" id="knownclusterblast-1_q24_0_all"  />
<polygon points="706,35 711,30 725,30 725,40 711,40 706,35 " style="fill:white; stroke-width:1; stroke:black; " description="&lt;b&gt;ctg23_44&lt;/b&gt;&lt;br&gt;ctg23 44&lt;br&gt;Location: 50099 - 50705" locus_tag="ctg23_44" class="clusterblast-orf" id="knownclusterblast-1_q25_0_all"  />
<polygon points="728,40 747,40 752,35 747,30 728,30 728,40 " style="fill:white; stroke-width:1; stroke:black; " description="&lt;b&gt;ctg23_45&lt;/b&gt;&lt;br&gt;ctg23 45&lt;br&gt;Location: 50782 - 51541" locus_tag="ctg23_45" class="clusterblast-orf" id="knownclusterblast-1_q26_0_all"  />
<polygon points="771,35 776,30 780,30 780,40 776,40 771,35 " style="fill:white; stroke-width:1; stroke:black; " description="&lt;b&gt;ctg23_46&lt;/b&gt;&lt;br&gt;ctg23 46&lt;br&gt;Location: 52143 - 52410" locus_tag="ctg23_46" class="clusterblast-orf" id="knownclusterblast-1_q27_0_all"  />
</g>
</svg>
