<svg xmlns="http://www.w3.org/2000/svg" xmlns:xlink="http://www.w3.org/1999/xlink" version="1.1" x="0" y="0" height="230" width="800" viewBox="0 0 800 230" preserveAspectRatio="none"  >
<g label="Query sequence" class="clusterblast-cluster"  >
<text x="5" y="20" class="clusterblast-acc"  >
Query sequence</text>
<line x1="10" y1="35" x2="778.0" y2="35" style="stroke-width:1; stroke:grey; "  />
<polygon points="153,40 200,40 205,35 200,30 153,30 153,40 " style="fill:#d81515; stroke-width:1; stroke:black; " description="&lt;b&gt;ctg29_26&lt;/b&gt;&lt;br&gt;ctg29 26&lt;br&gt;Location: 27339 - 29730" locus_tag="ctg29_26" class="clusterblast-orf" id="dummy-1_q0_0_all"  />
<polygon points="210,40 240,40 245,35 240,30 210,30 210,40 " style="fill:white; stroke-width:1; stroke:black; " description="&lt;b&gt;ctg29_27&lt;/b&gt;&lt;br&gt;ctg29 27&lt;br&gt;Location: 29970 - 31569" locus_tag="ctg29_27" class="clusterblast-orf" id="dummy-1_q1_0_all"  />
<polygon points="247,40 314,40 319,35 314,30 247,30 247,40 " style="fill:white; stroke-width:1; stroke:black; " description="&lt;b&gt;ctg29_28&lt;/b&gt;&lt;br&gt;ctg29 28&lt;br&gt;Location: 31677 - 34989" locus_tag="ctg29_28" class="clusterblast-orf" id="dummy-1_q2_0_all"  />
<polygon points="323,40 340,40 345,35 340,30 323,30 323,40 " style="fill:#15d8d8; stroke-width:1; stroke:black; " description="&lt;b&gt;ctg29_29&lt;/b&gt;&lt;br&gt;ctg29 29&lt;br&gt;Location: 35155 - 36199" locus_tag="ctg29_29" class="clusterblast-orf" id="dummy-1_q3_0_all"  />
<polygon points="350,40 380,40 385,35 380,30 350,30 350,40 " style="fill:white; stroke-width:1; stroke:black; " description="&lt;b&gt;ctg29_30&lt;/b&gt;&lt;br&gt;ctg29 30&lt;br&gt;Location: 36429 - 38031" locus_tag="ctg29_30" class="clusterblast-orf" id="dummy-1_q4_0_all"  />
<polygon points="386,40 424,40 429,35 424,30 386,30 386,40 " style="fill:white; stroke-width:1; stroke:black; " description="&lt;b&gt;ctg29_31&lt;/b&gt;&lt;br&gt;ctg29 31&lt;br&gt;Location: 38084 - 40034" locus_tag="ctg29_31" class="clusterblast-orf" id="dummy-1_q5_0_all"  />
<polygon points="429,35 433,30 433,40 429,35 " style="fill:white; stroke-width:1; stroke:black; " description="&lt;b&gt;ctg29_32&lt;/b&gt;&lt;br&gt;ctg29 32&lt;br&gt;Location: 40065 - 40263" locus_tag="ctg29_32" class="clusterblast-orf" id="dummy-1_q6_0_all"  />
<polygon points="434,35 439,30 454,30 454,40 439,40 434,35 " style="fill:white; stroke-width:1; stroke:black; " description="&lt;b&gt;ctg29_33&lt;/b&gt;&lt;br&gt;ctg29 33&lt;br&gt;Location: 40272 - 41196" locus_tag="ctg29_33" class="clusterblast-orf" id="dummy-1_q7_0_all"  />
<polygon points="456,40 468,40 473,35 468,30 456,30 456,40 " style="fill:white; stroke-width:1; stroke:black; " description="&lt;b&gt;ctg29_34&lt;/b&gt;&lt;br&gt;ctg29 34&lt;br&gt;Location: 41311 - 42070" locus_tag="ctg29_34" class="clusterblast-orf" id="dummy-1_q8_0_all"  />
<polygon points="487,35 492,30 514,30 514,40 492,40 487,35 " style="fill:white; stroke-width:1; stroke:black; " description="&lt;b&gt;ctg29_35&lt;/b&gt;&lt;br&gt;ctg29 35&lt;br&gt;Location: 42739 - 43954" locus_tag="ctg29_35" class="clusterblast-orf" id="dummy-1_q9_0_all"  />
<polygon points="515,40 543,40 548,35 543,30 515,30 515,40 " style="fill:white; stroke-width:1; stroke:black; " description="&lt;b&gt;ctg29_36&lt;/b&gt;&lt;br&gt;ctg29 36&lt;br&gt;Location: 44044 - 45526" locus_tag="ctg29_36" class="clusterblast-orf" id="dummy-1_q10_0_all"  />
<polygon points="550,40 562,40 567,35 562,30 550,30 550,40 " style="fill:white; stroke-width:1; stroke:black; " description="&lt;b&gt;ctg29_37&lt;/b&gt;&lt;br&gt;ctg29 37&lt;br&gt;Location: 45646 - 46405" locus_tag="ctg29_37" class="clusterblast-orf" id="dummy-1_q11_0_all"  />
<polygon points="576,40 582,40 587,35 582,30 576,30 576,40 " style="fill:white; stroke-width:1; stroke:black; " description="&lt;b&gt;ctg29_38&lt;/b&gt;&lt;br&gt;ctg29 38&lt;br&gt;Location: 46813 - 47356" locus_tag="ctg29_38" class="clusterblast-orf" id="dummy-1_q12_0_all"  />
<polygon points="588,35 592,30 592,40 588,35 " style="fill:white; stroke-width:1; stroke:black; " description="&lt;b&gt;ctg29_39&lt;/b&gt;&lt;br&gt;ctg29 39&lt;br&gt;Location: 47366 - 47570" locus_tag="ctg29_39" class="clusterblast-orf" id="dummy-1_q13_0_all"  />
<polygon points="598,40 604,40 609,35 604,30 598,30 598,40 " style="fill:white; stroke-width:1; stroke:black; " description="&lt;b&gt;ctg29_40&lt;/b&gt;&lt;br&gt;ctg29 40&lt;br&gt;Location: 47837 - 48377" locus_tag="ctg29_40" class="clusterblast-orf" id="dummy-1_q14_0_all"  />
<polygon points="613,35 618,30 626,30 626,40 618,40 613,35 " style="fill:white; stroke-width:1; stroke:black; " description="&lt;b&gt;ctg29_41&lt;/b&gt;&lt;br&gt;ctg29 41&lt;br&gt;Location: 48524 - 49151" locus_tag="ctg29_41" class="clusterblast-orf" id="dummy-1_q15_0_all"  />
</g>
<g label="BGC0000415" description="BGC0000415_c1: Quinomycin (11% of genes show similarity), nrps" class="clusterblast-cluster"  >
<text x="5" y="70" class="clusterblast-acc"  >
<a xlink:href="https://mibig.secondarymetabolites.org/go/BGC0000415/1" target="_blank">BGC0000415</a>:                                                                       Quinomycin (11% of genes show similarity), nrps</text>
<line x1="10" y1="85" x2="778.0" y2="85" style="stroke-width:1; stroke:grey; "  />
</g>
<g id="a1_000"  >
<polygon points="0,90 3,85 0,80 0,90 " style="fill:white; stroke-width:1; stroke:black; " description="&lt;b&gt;AET98900.1&lt;/b&gt;&lt;br&gt;putative ABC transporter&lt;br&gt;Location: 1 - 155" locus_tag="AET98900.1" class="clusterblast-orf" id="dummy-1_h1_1_0"  />
</g>
<g id="a1_001"  >
<polygon points="3,90 16,90 21,85 16,80 3,80 3,90 " style="fill:white; stroke-width:1; stroke:black; " description="&lt;b&gt;AET98901.1&lt;/b&gt;&lt;br&gt;putative ABC transporter&lt;br&gt;Location: 152 - 976" locus_tag="AET98901.1" class="clusterblast-orf" id="dummy-1_h1_1_1"  />
</g>
<g id="a1_002"  >
<polygon points="23,90 44,90 49,85 44,80 23,80 23,90 " style="fill:white; stroke-width:1; stroke:black; " description="&lt;b&gt;AET98902.1&lt;/b&gt;&lt;br&gt;putative esterase&lt;br&gt;Location: 1083 - 2288" locus_tag="AET98902.1" class="clusterblast-orf" id="dummy-1_h1_1_2"  />
</g>
<g id="a1_003"  >
<polygon points="52,85 57,80 63,80 63,90 57,90 52,85 " style="fill:white; stroke-width:1; stroke:black; " description="&lt;b&gt;AET98903.1&lt;/b&gt;&lt;br&gt;putative DNA-binding response regulator&lt;br&gt;Location: 2408 - 2938" locus_tag="AET98903.1" class="clusterblast-orf" id="dummy-1_h1_1_3"  />
</g>
<g id="a1_004"  >
<polygon points="66,85 70,80 70,90 66,85 " style="fill:white; stroke-width:1; stroke:black; " description="&lt;b&gt;AET98904.1&lt;/b&gt;&lt;br&gt;MbtH-like protein&lt;br&gt;Location: 3055 - 3267" locus_tag="AET98904.1" class="clusterblast-orf" id="dummy-1_h1_1_4"  />
</g>
<g id="a1_005"  >
<polygon points="71,85 76,80 276,80 276,90 76,90 71,85 " style="fill:white; stroke-width:1; stroke:black; " description="&lt;b&gt;AET98905.1&lt;/b&gt;&lt;br&gt;putative non-ribosomal peptide synthetase&lt;br&gt;Location: 3314 - 12751" locus_tag="AET98905.1" class="clusterblast-orf" id="dummy-1_h1_1_5"  />
</g>
<g id="a1_006"  >
<polygon points="276,85 281,80 450,80 450,90 281,90 276,85 " style="fill:white; stroke-width:1; stroke:black; " description="&lt;b&gt;AET98906.1&lt;/b&gt;&lt;br&gt;putative non-ribosomal peptide synthetase&lt;br&gt;Location: 12759 - 20753" locus_tag="AET98906.1" class="clusterblast-orf" id="dummy-1_h1_1_6"  />
</g>
<g id="a1_007"  >
<polygon points="451,90 461,90 466,85 461,80 451,80 451,90 " style="fill:white; stroke-width:1; stroke:black; " description="&lt;b&gt;AET98907.1&lt;/b&gt;&lt;br&gt;putative SAM-dependent methyltransferase&lt;br&gt;Location: 20818 - 21516" locus_tag="AET98907.1" class="clusterblast-orf" id="dummy-1_h1_1_7"  />
</g>
<g id="a1_008"  >
<polygon points="502,90 548,90 553,85 548,80 502,80 502,90 " style="fill:#d81515; stroke-width:1; stroke:black; " description="&lt;b&gt;AET98908.1&lt;/b&gt;&lt;br&gt;UvrA-like protein&lt;br&gt;Location: 23150 - 25528&lt;br&gt;&lt;br&gt;&lt;b&gt;BlastP hit with ctg29_26&lt;/b&gt;&lt;br&gt;Percentage identity: 75&lt;br&gt;Percentage coverage: 100&lt;br&gt;BLAST bit score: 1201&lt;br&gt;E-value: 0.0" locus_tag="AET98908.1" class="clusterblast-orf" id="dummy-1_h1_1_8"  />
</g>
<g id="a1_009"  >
<polygon points="555,90 570,90 575,85 570,80 555,80 555,90 " style="fill:white; stroke-width:1; stroke:black; " description="&lt;b&gt;AET98909.1&lt;/b&gt;&lt;br&gt;putative oxidoreductase&lt;br&gt;Location: 25610 - 26548" locus_tag="AET98909.1" class="clusterblast-orf" id="dummy-1_h1_1_9"  />
</g>
<g id="a1_0010"  >
<polygon points="584,85 589,80 614,80 614,90 589,90 584,85 " style="fill:white; stroke-width:1; stroke:black; " description="&lt;b&gt;AET98910.1&lt;/b&gt;&lt;br&gt;putative FAD-dependent oxidoreductase&lt;br&gt;Location: 26945 - 28333" locus_tag="AET98910.1" class="clusterblast-orf" id="dummy-1_h1_1_10"  />
</g>
<g id="a1_0011"  >
<polygon points="615,85 620,80 639,80 639,90 620,90 615,85 " style="fill:#15d8d8; stroke-width:1; stroke:black; " description="&lt;b&gt;AET98911.1&lt;/b&gt;&lt;br&gt;putative dehydrogenase&lt;br&gt;Location: 28392 - 29480&lt;br&gt;&lt;br&gt;&lt;b&gt;BlastP hit with ctg29_29&lt;/b&gt;&lt;br&gt;Percentage identity: 47&lt;br&gt;Percentage coverage: 91&lt;br&gt;BLAST bit score: 259&lt;br&gt;E-value: 6.1e-69" locus_tag="AET98911.1" class="clusterblast-orf" id="dummy-1_h1_1_11"  />
</g>
<g id="a1_0012"  >
<polygon points="639,85 644,80 655,80 655,90 644,90 639,85 " style="fill:white; stroke-width:1; stroke:black; " description="&lt;b&gt;AET98912.1&lt;/b&gt;&lt;br&gt;putative thioesterase&lt;br&gt;Location: 29477 - 30223" locus_tag="AET98912.1" class="clusterblast-orf" id="dummy-1_h1_1_12"  />
</g>
<g id="a1_0013"  >
<polygon points="658,90 679,90 684,85 679,80 658,80 658,90 " style="fill:white; stroke-width:1; stroke:black; " description="&lt;b&gt;AET98913.1&lt;/b&gt;&lt;br&gt;putative cytochrome P450&lt;br&gt;Location: 30377 - 31582" locus_tag="AET98913.1" class="clusterblast-orf" id="dummy-1_h1_1_13"  />
</g>
<g id="a1_0014"  >
<polygon points="685,90 714,90 719,85 714,80 685,80 685,90 " style="fill:white; stroke-width:1; stroke:black; " description="&lt;b&gt;AET98914.1&lt;/b&gt;&lt;br&gt;putative AMP-binding ligase&lt;br&gt;Location: 31596 - 33179" locus_tag="AET98914.1" class="clusterblast-orf" id="dummy-1_h1_1_14"  />
</g>
<g id="a1_0015"  >
<polygon points="721,85 726,80 739,80 739,90 726,90 721,85 " style="fill:white; stroke-width:1; stroke:black; " description="&lt;b&gt;AET98915.1&lt;/b&gt;&lt;br&gt;putative tryptophan 2,3-dioxygenase&lt;br&gt;Location: 33254 - 34078" locus_tag="AET98915.1" class="clusterblast-orf" id="dummy-1_h1_1_15"  />
</g>
<g id="a1_0016"  >
<polygon points="740,90 775,90 780,85 775,80 740,80 740,90 " style="fill:white; stroke-width:1; stroke:black; " description="&lt;b&gt;AET98916.1&lt;/b&gt;&lt;br&gt;putative non-ribosomal peptide synthetase&lt;br&gt;Location: 34133 - 35965" locus_tag="AET98916.1" class="clusterblast-orf" id="dummy-1_h1_1_16"  />
</g>
</svg>
