<svg xmlns="http://www.w3.org/2000/svg" xmlns:xlink="http://www.w3.org/1999/xlink" version="1.1" x="0" y="0" height="230" width="800" viewBox="0 0 800 230" preserveAspectRatio="none"  >
<g label="Query sequence" class="clusterblast-cluster"  >
<text x="5" y="20" class="clusterblast-acc"  >
Query sequence</text>
<line x1="10" y1="35" x2="778.0" y2="35" style="stroke-width:1; stroke:grey; "  />
<polygon points="51,40 88,40 93,35 88,30 51,30 51,40 " style="fill:white; stroke-width:1; stroke:black; " description="&lt;b&gt;ctg1_19&lt;/b&gt;&lt;br&gt;ctg1 19&lt;br&gt;Location: 23995 - 25576" locus_tag="ctg1_19" class="clusterblast-orf" id="dummy-1_q0_0_all"  />
<polygon points="93,40 113,40 118,35 113,30 93,30 93,40 " style="fill:white; stroke-width:1; stroke:black; " description="&lt;b&gt;ctg1_20&lt;/b&gt;&lt;br&gt;ctg1 20&lt;br&gt;Location: 25600 - 26527" locus_tag="ctg1_20" class="clusterblast-orf" id="dummy-1_q1_0_all"  />
<polygon points="118,40 134,40 139,35 134,30 118,30 118,40 " style="fill:white; stroke-width:1; stroke:black; " description="&lt;b&gt;ctg1_21&lt;/b&gt;&lt;br&gt;ctg1 21&lt;br&gt;Location: 26523 - 27318" locus_tag="ctg1_21" class="clusterblast-orf" id="dummy-1_q2_0_all"  />
<polygon points="139,40 160,40 165,35 160,30 139,30 139,40 " style="fill:white; stroke-width:1; stroke:black; " description="&lt;b&gt;ctg1_22&lt;/b&gt;&lt;br&gt;ctg1 22&lt;br&gt;Location: 27333 - 28311" locus_tag="ctg1_22" class="clusterblast-orf" id="dummy-1_q3_0_all"  />
<polygon points="168,40 187,40 192,35 187,30 168,30 168,40 " style="fill:white; stroke-width:1; stroke:black; " description="&lt;b&gt;ctg1_23&lt;/b&gt;&lt;br&gt;ctg1 23&lt;br&gt;Location: 28407 - 29325" locus_tag="ctg1_23" class="clusterblast-orf" id="dummy-1_q4_0_all"  />
<polygon points="192,35 197,30 201,30 201,40 197,40 192,35 " style="fill:white; stroke-width:1; stroke:black; " description="&lt;b&gt;ctg1_24&lt;/b&gt;&lt;br&gt;ctg1 24&lt;br&gt;Location: 29328 - 29634" locus_tag="ctg1_24" class="clusterblast-orf" id="dummy-1_q5_0_all"  />
<polygon points="203,40 223,40 228,35 223,30 203,30 203,40 " style="fill:white; stroke-width:1; stroke:black; " description="&lt;b&gt;ctg1_25&lt;/b&gt;&lt;br&gt;ctg1 25&lt;br&gt;Location: 29712 - 30684" locus_tag="ctg1_25" class="clusterblast-orf" id="dummy-1_q6_0_all"  />
<polygon points="238,35 243,30 265,30 265,40 243,40 238,35 " style="fill:#d81515; stroke-width:1; stroke:black; " description="&lt;b&gt;ctg1_26&lt;/b&gt;&lt;br&gt;ctg1 26&lt;br&gt;Location: 31053 - 32058" locus_tag="ctg1_26" class="clusterblast-orf" id="dummy-1_q7_0_all"  />
<polygon points="265,35 270,30 304,30 304,40 270,40 265,35 " style="fill:#4dd815; stroke-width:1; stroke:black; " description="&lt;b&gt;ctg1_27&lt;/b&gt;&lt;br&gt;ctg1 27&lt;br&gt;Location: 32061 - 33534" locus_tag="ctg1_27" class="clusterblast-orf" id="dummy-1_q8_0_all"  />
<polygon points="304,35 309,30 355,30 355,40 309,40 304,35 " style="fill:#1585d8; stroke-width:1; stroke:black; " description="&lt;b&gt;ctg1_28&lt;/b&gt;&lt;br&gt;ctg1 28&lt;br&gt;Location: 33530 - 35432" locus_tag="ctg1_28" class="clusterblast-orf" id="dummy-1_q9_0_all"  />
<polygon points="355,35 360,30 381,30 381,40 360,40 355,35 " style="fill:#d815bc; stroke-width:1; stroke:black; " description="&lt;b&gt;ctg1_29&lt;/b&gt;&lt;br&gt;ctg1 29&lt;br&gt;Location: 35432 - 36443" locus_tag="ctg1_29" class="clusterblast-orf" id="dummy-1_q10_0_all"  />
<polygon points="381,35 386,30 417,30 417,40 386,40 381,35 " style="fill:#d8bc15; stroke-width:1; stroke:black; " description="&lt;b&gt;ctg1_30&lt;/b&gt;&lt;br&gt;ctg1 30&lt;br&gt;Location: 36439 - 37795" locus_tag="ctg1_30" class="clusterblast-orf" id="dummy-1_q11_0_all"  />
<polygon points="417,35 422,30 440,30 440,40 422,40 417,35 " style="fill:#15d885; stroke-width:1; stroke:black; " description="&lt;b&gt;ctg1_31&lt;/b&gt;&lt;br&gt;ctg1 31&lt;br&gt;Location: 37791 - 38652" locus_tag="ctg1_31" class="clusterblast-orf" id="dummy-1_q12_0_all"  />
<polygon points="440,35 445,30 464,30 464,40 445,40 440,35 " style="fill:#4d15d8; stroke-width:1; stroke:black; " description="&lt;b&gt;ctg1_32&lt;/b&gt;&lt;br&gt;ctg1 32&lt;br&gt;Location: 38648 - 39551" locus_tag="ctg1_32" class="clusterblast-orf" id="dummy-1_q13_0_all"  />
<polygon points="468,40 495,40 500,35 495,30 468,30 468,40 " style="fill:white; stroke-width:1; stroke:black; " description="&lt;b&gt;ctg1_33&lt;/b&gt;&lt;br&gt;ctg1 33&lt;br&gt;Location: 39687 - 40905" locus_tag="ctg1_33" class="clusterblast-orf" id="dummy-1_q14_0_all"  />
<polygon points="500,35 505,30 552,30 552,40 505,40 500,35 " style="fill:white; stroke-width:1; stroke:black; " description="&lt;b&gt;ctg1_34&lt;/b&gt;&lt;br&gt;ctg1 34&lt;br&gt;Location: 40911 - 42870" locus_tag="ctg1_34" class="clusterblast-orf" id="dummy-1_q15_0_all"  />
<polygon points="555,35 560,30 573,30 573,40 560,40 555,35 " style="fill:white; stroke-width:1; stroke:black; " description="&lt;b&gt;ctg1_35&lt;/b&gt;&lt;br&gt;ctg1 35&lt;br&gt;Location: 42978 - 43665" locus_tag="ctg1_35" class="clusterblast-orf" id="dummy-1_q16_0_all"  />
<polygon points="576,35 581,30 602,30 602,40 581,40 576,35 " style="fill:white; stroke-width:1; stroke:black; " description="&lt;b&gt;ctg1_36&lt;/b&gt;&lt;br&gt;ctg1 36&lt;br&gt;Location: 43777 - 44755" locus_tag="ctg1_36" class="clusterblast-orf" id="dummy-1_q17_0_all"  />
<polygon points="603,35 608,30 623,30 623,40 608,40 603,35 " style="fill:white; stroke-width:1; stroke:black; " description="&lt;b&gt;ctg1_37&lt;/b&gt;&lt;br&gt;ctg1 37&lt;br&gt;Location: 44797 - 45559" locus_tag="ctg1_37" class="clusterblast-orf" id="dummy-1_q18_0_all"  />
<polygon points="624,35 629,30 639,30 639,40 629,40 624,35 " style="fill:white; stroke-width:1; stroke:black; " description="&lt;b&gt;ctg1_38&lt;/b&gt;&lt;br&gt;ctg1 38&lt;br&gt;Location: 45571 - 46159" locus_tag="ctg1_38" class="clusterblast-orf" id="dummy-1_q19_0_all"  />
<polygon points="640,35 645,30 699,30 699,40 645,40 640,35 " style="fill:white; stroke-width:1; stroke:black; " description="&lt;b&gt;ctg1_39&lt;/b&gt;&lt;br&gt;ctg1 39&lt;br&gt;Location: 46189 - 48394" locus_tag="ctg1_39" class="clusterblast-orf" id="dummy-1_q20_0_all"  />
<polygon points="703,35 708,30 729,30 729,40 708,40 703,35 " style="fill:white; stroke-width:1; stroke:black; " description="&lt;b&gt;ctg1_40&lt;/b&gt;&lt;br&gt;ctg1 40&lt;br&gt;Location: 48545 - 49523" locus_tag="ctg1_40" class="clusterblast-orf" id="dummy-1_q21_0_all"  />
</g>
<g label="BGC0000666" description="BGC0000666_c1: Xiamycin (9% of genes show similarity), terpene" class="clusterblast-cluster"  >
<text x="5" y="70" class="clusterblast-acc"  >
<a xlink:href="https://mibig.secondarymetabolites.org/go/BGC0000666/1" target="_blank">BGC0000666</a>:                                                                         Xiamycin (9% of genes show similarity), terpene</text>
<line x1="10" y1="85" x2="778.0" y2="85" style="stroke-width:1; stroke:grey; "  />
</g>
<g id="a1_000"  >
<polygon points="0,85 5,80 40,80 40,90 5,90 0,85 " style="fill:white; stroke-width:1; stroke:black; " description="&lt;b&gt;AFK78086.1&lt;/b&gt;&lt;br&gt;putative sodium-coupled permease&lt;br&gt;Location: 29371 - 27845" locus_tag="AFK78086.1" class="clusterblast-orf" id="dummy-1_h1_5_0"  />
</g>
<g id="a1_001"  >
<polygon points="50,85 55,80 61,80 61,90 55,90 50,85 " style="fill:white; stroke-width:1; stroke:black; " description="&lt;b&gt;AFK78085.1&lt;/b&gt;&lt;br&gt;putative bacillolysin&lt;br&gt;Location: 27486 - 27049" locus_tag="AFK78085.1" class="clusterblast-orf" id="dummy-1_h1_5_1"  />
</g>
<g id="a1_002"  >
<polygon points="68,85 73,80 142,80 142,90 73,90 68,85 " style="fill:white; stroke-width:1; stroke:black; " description="&lt;b&gt;AFK78084.1&lt;/b&gt;&lt;br&gt;XiaR&lt;br&gt;Location: 26792 - 24018" locus_tag="AFK78084.1" class="clusterblast-orf" id="dummy-1_h1_5_2"  />
</g>
<g id="a1_003"  >
<polygon points="145,90 220,90 225,85 220,80 145,80 145,90 " style="fill:white; stroke-width:1; stroke:black; " description="&lt;b&gt;AFK78083.1&lt;/b&gt;&lt;br&gt;XiaQ&lt;br&gt;Location: 23875 - 20897" locus_tag="AFK78083.1" class="clusterblast-orf" id="dummy-1_h1_5_3"  />
</g>
<g id="a1_004"  >
<polygon points="227,90 249,90 254,85 249,80 227,80 227,90 " style="fill:white; stroke-width:1; stroke:black; " description="&lt;b&gt;AFK78082.1&lt;/b&gt;&lt;br&gt;XiaP&lt;br&gt;Location: 20802 - 19795" locus_tag="AFK78082.1" class="clusterblast-orf" id="dummy-1_h1_5_4"  />
</g>
<g id="a1_005"  >
<polygon points="255,90 307,90 312,85 307,80 255,80 255,90 " style="fill:white; stroke-width:1; stroke:black; " description="&lt;b&gt;AFK78081.1&lt;/b&gt;&lt;br&gt;XiaO&lt;br&gt;Location: 19766 - 17610" locus_tag="AFK78081.1" class="clusterblast-orf" id="dummy-1_h1_5_5"  />
</g>
<g id="a1_006"  >
<polygon points="315,90 337,90 342,85 337,80 315,80 315,90 " style="fill:#d815bc; stroke-width:1; stroke:black; " description="&lt;b&gt;AFK78080.1&lt;/b&gt;&lt;br&gt;XiaN&lt;br&gt;Location: 17482 - 16457&lt;br&gt;&lt;br&gt;&lt;b&gt;BlastP hit with ctg1_29&lt;/b&gt;&lt;br&gt;Percentage identity: 51&lt;br&gt;Percentage coverage: 101&lt;br&gt;BLAST bit score: 282&lt;br&gt;E-value: 1.1e-75" locus_tag="AFK78080.1" class="clusterblast-orf" id="dummy-1_h1_5_6"  />
</g>
<g id="a1_007"  >
<polygon points="346,90 372,90 377,85 372,80 346,80 346,90 " style="fill:white; stroke-width:1; stroke:black; " description="&lt;b&gt;AFK78079.1&lt;/b&gt;&lt;br&gt;XiaM&lt;br&gt;Location: 16318 - 15149" locus_tag="AFK78079.1" class="clusterblast-orf" id="dummy-1_h1_5_7"  />
</g>
<g id="a1_008"  >
<polygon points="378,90 379,90 384,85 379,80 378,80 378,90 " style="fill:white; stroke-width:1; stroke:black; " description="&lt;b&gt;AFK78078.1&lt;/b&gt;&lt;br&gt;XiaL&lt;br&gt;Location: 15123 - 14890" locus_tag="AFK78078.1" class="clusterblast-orf" id="dummy-1_h1_5_8"  />
</g>
<g id="a1_009"  >
<polygon points="384,90 427,90 432,85 427,80 384,80 384,90 " style="fill:white; stroke-width:1; stroke:black; " description="&lt;b&gt;AFK78077.1&lt;/b&gt;&lt;br&gt;XiaK&lt;br&gt;Location: 14890 - 13100" locus_tag="AFK78077.1" class="clusterblast-orf" id="dummy-1_h1_5_9"  />
</g>
<g id="a1_0010"  >
<polygon points="432,90 437,90 442,85 437,80 432,80 432,90 " style="fill:white; stroke-width:1; stroke:black; " description="&lt;b&gt;AFK78076.1&lt;/b&gt;&lt;br&gt;XiaJ&lt;br&gt;Location: 13097 - 12708" locus_tag="AFK78076.1" class="clusterblast-orf" id="dummy-1_h1_5_10"  />
</g>
<g id="a1_0011"  >
<polygon points="442,90 469,90 474,85 469,80 442,80 442,90 " style="fill:white; stroke-width:1; stroke:black; " description="&lt;b&gt;AFK78075.1&lt;/b&gt;&lt;br&gt;XiaI&lt;br&gt;Location: 12705 - 11512" locus_tag="AFK78075.1" class="clusterblast-orf" id="dummy-1_h1_5_11"  />
</g>
<g id="a1_0012"  >
<polygon points="476,90 492,90 497,85 492,80 476,80 476,90 " style="fill:white; stroke-width:1; stroke:black; " description="&lt;b&gt;AFK78074.1&lt;/b&gt;&lt;br&gt;XiaH&lt;br&gt;Location: 11445 - 10645" locus_tag="AFK78074.1" class="clusterblast-orf" id="dummy-1_h1_5_12"  />
</g>
<g id="a1_0013"  >
<polygon points="497,85 502,80 516,80 516,90 502,90 497,85 " style="fill:white; stroke-width:1; stroke:black; " description="&lt;b&gt;AFK78073.1&lt;/b&gt;&lt;br&gt;XiaG&lt;br&gt;Location: 10652 - 9930" locus_tag="AFK78073.1" class="clusterblast-orf" id="dummy-1_h1_5_13"  />
</g>
<g id="a1_0014"  >
<polygon points="528,85 533,80 558,80 558,90 533,90 528,85 " style="fill:white; stroke-width:1; stroke:black; " description="&lt;b&gt;AFK78072.1&lt;/b&gt;&lt;br&gt;XiaF&lt;br&gt;Location: 9482 - 8331" locus_tag="AFK78072.1" class="clusterblast-orf" id="dummy-1_h1_5_14"  />
</g>
<g id="a1_0015"  >
<polygon points="558,85 563,80 606,80 606,90 563,90 558,85 " style="fill:white; stroke-width:1; stroke:black; " description="&lt;b&gt;AFK78071.1&lt;/b&gt;&lt;br&gt;XiaE&lt;br&gt;Location: 8334 - 6517" locus_tag="AFK78071.1" class="clusterblast-orf" id="dummy-1_h1_5_15"  />
</g>
<g id="a1_0016"  >
<polygon points="607,85 612,80 633,80 633,90 612,90 607,85 " style="fill:#4dd815; stroke-width:1; stroke:black; " description="&lt;b&gt;AFK78070.1&lt;/b&gt;&lt;br&gt;XiaD&lt;br&gt;Location: 6504 - 5512&lt;br&gt;&lt;br&gt;&lt;b&gt;BlastP hit with ctg1_27&lt;/b&gt;&lt;br&gt;Percentage identity: 59&lt;br&gt;Percentage coverage: 63&lt;br&gt;BLAST bit score: 336&lt;br&gt;E-value: 5.5e-92" locus_tag="AFK78070.1" class="clusterblast-orf" id="dummy-1_h1_5_16"  />
</g>
<g id="a1_0017"  >
<polygon points="639,90 655,90 660,85 655,80 639,80 639,90 " style="fill:white; stroke-width:1; stroke:black; " description="&lt;b&gt;AFK78069.1&lt;/b&gt;&lt;br&gt;XiaC&lt;br&gt;Location: 5278 - 4502" locus_tag="AFK78069.1" class="clusterblast-orf" id="dummy-1_h1_5_17"  />
</g>
<g id="a1_0018"  >
<polygon points="664,90 672,90 677,85 672,80 664,80 664,90 " style="fill:white; stroke-width:1; stroke:black; " description="&lt;b&gt;AFK78068.1&lt;/b&gt;&lt;br&gt;XiaB&lt;br&gt;Location: 4337 - 3843" locus_tag="AFK78068.1" class="clusterblast-orf" id="dummy-1_h1_5_18"  />
</g>
<g id="a1_0019"  >
<polygon points="679,85 684,80 708,80 708,90 684,90 679,85 " style="fill:white; stroke-width:1; stroke:black; " description="&lt;b&gt;AFK78067.1&lt;/b&gt;&lt;br&gt;XiaA&lt;br&gt;Location: 3784 - 2693" locus_tag="AFK78067.1" class="clusterblast-orf" id="dummy-1_h1_5_19"  />
</g>
<g id="a1_0020"  >
<polygon points="708,85 713,80 736,80 736,90 713,90 708,85 " style="fill:white; stroke-width:1; stroke:black; " description="&lt;b&gt;AFK78066.1&lt;/b&gt;&lt;br&gt;putative alcohol dehydrogenase zinc-binding domain protein&lt;br&gt;Location: 2696 - 1641" locus_tag="AFK78066.1" class="clusterblast-orf" id="dummy-1_h1_5_20"  />
</g>
<g id="a1_0021"  >
<polygon points="736,85 741,80 780,80 780,90 741,90 736,85 " style="fill:white; stroke-width:1; stroke:black; " description="&lt;b&gt;AFK78065.1&lt;/b&gt;&lt;br&gt;putative Ox3&lt;br&gt;Location: 1644 - 1" locus_tag="AFK78065.1" class="clusterblast-orf" id="dummy-1_h1_5_21"  />
</g>
</svg>
