<svg xmlns="http://www.w3.org/2000/svg" xmlns:xlink="http://www.w3.org/1999/xlink" version="1.1" x="0" y="0" height="230" width="800" viewBox="0 0 800 230" preserveAspectRatio="none"  >
<g label="Query sequence" class="clusterblast-cluster"  >
<text x="5" y="20" class="clusterblast-acc"  >
Query sequence</text>
<line x1="10" y1="35" x2="778.0" y2="35" style="stroke-width:1; stroke:grey; "  />
<polygon points="0,35 5,30 14,30 14,40 5,40 0,35 " style="fill:white; stroke-width:1; stroke:black; " description="&lt;b&gt;ctg7_4&lt;/b&gt;&lt;br&gt;ctg7 4&lt;br&gt;Location: 3375 - 4446" locus_tag="ctg7_4" class="clusterblast-orf" id="dummy-1_q0_0_all"  />
<polygon points="14,35 19,30 23,30 23,40 19,40 14,35 " style="fill:white; stroke-width:1; stroke:black; " description="&lt;b&gt;ctg7_5&lt;/b&gt;&lt;br&gt;ctg7 5&lt;br&gt;Location: 4442 - 5096" locus_tag="ctg7_5" class="clusterblast-orf" id="dummy-1_q1_0_all"  />
<polygon points="23,35 28,30 44,30 44,40 28,40 23,35 " style="fill:white; stroke-width:1; stroke:black; " description="&lt;b&gt;ctg7_6&lt;/b&gt;&lt;br&gt;ctg7 6&lt;br&gt;Location: 5121 - 6645" locus_tag="ctg7_6" class="clusterblast-orf" id="dummy-1_q2_0_all"  />
<polygon points="47,35 52,30 60,30 60,40 52,40 47,35 " style="fill:white; stroke-width:1; stroke:black; " description="&lt;b&gt;ctg7_7&lt;/b&gt;&lt;br&gt;ctg7 7&lt;br&gt;Location: 6875 - 7856" locus_tag="ctg7_7" class="clusterblast-orf" id="dummy-1_q3_0_all"  />
<polygon points="60,35 65,30 71,30 71,40 65,40 60,35 " style="fill:white; stroke-width:1; stroke:black; " description="&lt;b&gt;ctg7_8&lt;/b&gt;&lt;br&gt;ctg7 8&lt;br&gt;Location: 7852 - 8671" locus_tag="ctg7_8" class="clusterblast-orf" id="dummy-1_q4_0_all"  />
<polygon points="80,40 81,40 86,35 81,30 80,30 80,40 " style="fill:white; stroke-width:1; stroke:black; " description="&lt;b&gt;ctg7_9&lt;/b&gt;&lt;br&gt;ctg7 9&lt;br&gt;Location: 9348 - 9774" locus_tag="ctg7_9" class="clusterblast-orf" id="dummy-1_q5_0_all"  />
<polygon points="95,40 97,40 102,35 97,30 95,30 95,40 " style="fill:white; stroke-width:1; stroke:black; " description="&lt;b&gt;ctg7_10&lt;/b&gt;&lt;br&gt;ctg7 10&lt;br&gt;Location: 10449 - 10962" locus_tag="ctg7_10" class="clusterblast-orf" id="dummy-1_q6_0_all"  />
<polygon points="105,40 109,40 114,35 109,30 105,30 105,40 " style="fill:white; stroke-width:1; stroke:black; " description="&lt;b&gt;ctg7_11&lt;/b&gt;&lt;br&gt;ctg7 11&lt;br&gt;Location: 11156 - 11849" locus_tag="ctg7_11" class="clusterblast-orf" id="dummy-1_q7_0_all"  />
<polygon points="115,40 120,40 125,35 120,30 115,30 115,40 " style="fill:white; stroke-width:1; stroke:black; " description="&lt;b&gt;ctg7_12&lt;/b&gt;&lt;br&gt;ctg7 12&lt;br&gt;Location: 11875 - 12640" locus_tag="ctg7_12" class="clusterblast-orf" id="dummy-1_q8_0_all"  />
<polygon points="126,35 131,30 134,30 134,40 131,40 126,35 " style="fill:white; stroke-width:1; stroke:black; " description="&lt;b&gt;ctg7_13&lt;/b&gt;&lt;br&gt;ctg7 13&lt;br&gt;Location: 12724 - 13324" locus_tag="ctg7_13" class="clusterblast-orf" id="dummy-1_q9_0_all"  />
<polygon points="135,35 140,30 146,30 146,40 140,40 135,35 " style="fill:white; stroke-width:1; stroke:black; " description="&lt;b&gt;ctg7_14&lt;/b&gt;&lt;br&gt;ctg7 14&lt;br&gt;Location: 13408 - 14188" locus_tag="ctg7_14" class="clusterblast-orf" id="dummy-1_q10_0_all"  />
<polygon points="147,35 152,30 160,30 160,40 152,40 147,35 " style="fill:white; stroke-width:1; stroke:black; " description="&lt;b&gt;ctg7_15&lt;/b&gt;&lt;br&gt;ctg7 15&lt;br&gt;Location: 14236 - 15202" locus_tag="ctg7_15" class="clusterblast-orf" id="dummy-1_q11_0_all"  />
<polygon points="161,40 163,40 168,35 163,30 161,30 161,40 " style="fill:white; stroke-width:1; stroke:black; " description="&lt;b&gt;ctg7_16&lt;/b&gt;&lt;br&gt;ctg7 16&lt;br&gt;Location: 15334 - 15799" locus_tag="ctg7_16" class="clusterblast-orf" id="dummy-1_q12_0_all"  />
<polygon points="180,35 185,30 194,30 194,40 185,40 180,35 " style="fill:#d81515; stroke-width:1; stroke:black; " description="&lt;b&gt;ctg7_17&lt;/b&gt;&lt;br&gt;ctg7 17&lt;br&gt;Location: 16707 - 17724" locus_tag="ctg7_17" class="clusterblast-orf" id="dummy-1_q13_0_all"  />
<polygon points="194,35 199,30 209,30 209,40 199,40 194,35 " style="fill:#77d815; stroke-width:1; stroke:black; " description="&lt;b&gt;ctg7_18&lt;/b&gt;&lt;br&gt;ctg7 18&lt;br&gt;Location: 17720 - 18854" locus_tag="ctg7_18" class="clusterblast-orf" id="dummy-1_q14_0_all"  />
<polygon points="210,40 218,40 223,35 218,30 210,30 210,40 " style="fill:white; stroke-width:1; stroke:black; " description="&lt;b&gt;ctg7_19&lt;/b&gt;&lt;br&gt;ctg7 19&lt;br&gt;Location: 18909 - 19884" locus_tag="ctg7_19" class="clusterblast-orf" id="dummy-1_q15_0_all"  />
<polygon points="223,40 229,40 234,35 229,30 223,30 223,40 " style="fill:#15d8d8; stroke-width:1; stroke:black; " description="&lt;b&gt;ctg7_20&lt;/b&gt;&lt;br&gt;ctg7 20&lt;br&gt;Location: 19883 - 20708" locus_tag="ctg7_20" class="clusterblast-orf" id="dummy-1_q16_0_all"  />
<polygon points="234,40 246,40 251,35 246,30 234,30 234,40 " style="fill:#7715d8; stroke-width:1; stroke:black; " description="&lt;b&gt;ctg7_21&lt;/b&gt;&lt;br&gt;ctg7 21&lt;br&gt;Location: 20708 - 21950" locus_tag="ctg7_21" class="clusterblast-orf" id="dummy-1_q17_0_all"  />
<polygon points="251,35 256,30 458,30 458,40 256,40 251,35 " style="fill:white; stroke-width:1; stroke:black; " description="&lt;b&gt;ctg7_22&lt;/b&gt;&lt;br&gt;ctg7 22&lt;br&gt;Location: 21983 - 37223" locus_tag="ctg7_22" class="clusterblast-orf" id="dummy-1_q18_0_all"  />
<polygon points="458,35 463,30 464,30 464,40 463,40 458,35 " style="fill:white; stroke-width:1; stroke:black; " description="&lt;b&gt;ctg7_23&lt;/b&gt;&lt;br&gt;ctg7 23&lt;br&gt;Location: 37245 - 37662" locus_tag="ctg7_23" class="clusterblast-orf" id="dummy-1_q19_0_all"  />
<polygon points="464,35 469,30 484,30 484,40 469,40 464,35 " style="fill:white; stroke-width:1; stroke:black; " description="&lt;b&gt;ctg7_24&lt;/b&gt;&lt;br&gt;ctg7 24&lt;br&gt;Location: 37672 - 39193" locus_tag="ctg7_24" class="clusterblast-orf" id="dummy-1_q20_0_all"  />
<polygon points="485,35 488,30 488,40 485,35 " style="fill:#d8a715; stroke-width:1; stroke:black; " description="&lt;b&gt;ctg7_25&lt;/b&gt;&lt;br&gt;ctg7 25&lt;br&gt;Location: 39208 - 39445" locus_tag="ctg7_25" class="clusterblast-orf" id="dummy-1_q21_0_all"  />
<polygon points="488,35 493,30 497,30 497,40 493,40 488,35 " style="fill:#d8a715; stroke-width:1; stroke:black; " description="&lt;b&gt;ctg7_26&lt;/b&gt;&lt;br&gt;ctg7 26&lt;br&gt;Location: 39423 - 40098" locus_tag="ctg7_26" class="clusterblast-orf" id="dummy-1_q22_0_all"  />
<polygon points="497,35 502,30 519,30 519,40 502,40 497,35 " style="fill:#15d846; stroke-width:1; stroke:black; " description="&lt;b&gt;ctg7_27&lt;/b&gt;&lt;br&gt;ctg7 27&lt;br&gt;Location: 40103 - 41717" locus_tag="ctg7_27" class="clusterblast-orf" id="dummy-1_q23_0_all"  />
<polygon points="519,35 524,30 534,30 534,40 524,40 519,35 " style="fill:#1546d8; stroke-width:1; stroke:black; " description="&lt;b&gt;ctg7_28&lt;/b&gt;&lt;br&gt;ctg7 28&lt;br&gt;Location: 41713 - 42829" locus_tag="ctg7_28" class="clusterblast-orf" id="dummy-1_q24_0_all"  />
<polygon points="534,35 539,30 545,30 545,40 539,40 534,35 " style="fill:#d815a7; stroke-width:1; stroke:black; " description="&lt;b&gt;ctg7_29&lt;/b&gt;&lt;br&gt;ctg7 29&lt;br&gt;Location: 42825 - 43647" locus_tag="ctg7_29" class="clusterblast-orf" id="dummy-1_q25_0_all"  />
<polygon points="547,40 558,40 563,35 558,30 547,30 547,40 " style="fill:white; stroke-width:1; stroke:black; " description="&lt;b&gt;ctg7_30&lt;/b&gt;&lt;br&gt;ctg7 30&lt;br&gt;Location: 43788 - 45003" locus_tag="ctg7_30" class="clusterblast-orf" id="dummy-1_q26_0_all"  />
<polygon points="562,35 567,30 567,30 567,40 567,40 562,35 " style="fill:white; stroke-width:1; stroke:black; " description="&lt;b&gt;ctg7_31&lt;/b&gt;&lt;br&gt;ctg7 31&lt;br&gt;Location: 44956 - 45265" locus_tag="ctg7_31" class="clusterblast-orf" id="dummy-1_q27_0_all"  />
<polygon points="567,35 572,30 584,30 584,40 572,40 567,35 " style="fill:white; stroke-width:1; stroke:black; " description="&lt;b&gt;ctg7_32&lt;/b&gt;&lt;br&gt;ctg7 32&lt;br&gt;Location: 45276 - 46572" locus_tag="ctg7_32" class="clusterblast-orf" id="dummy-1_q28_0_all"  />
<polygon points="585,40 588,40 593,35 588,30 585,30 585,40 " style="fill:white; stroke-width:1; stroke:black; " description="&lt;b&gt;ctg7_33&lt;/b&gt;&lt;br&gt;ctg7 33&lt;br&gt;Location: 46658 - 47201" locus_tag="ctg7_33" class="clusterblast-orf" id="dummy-1_q29_0_all"  />
<polygon points="593,35 598,30 601,30 601,40 598,40 593,35 " style="fill:white; stroke-width:1; stroke:black; " description="&lt;b&gt;ctg7_34&lt;/b&gt;&lt;br&gt;ctg7 34&lt;br&gt;Location: 47206 - 47803" locus_tag="ctg7_34" class="clusterblast-orf" id="dummy-1_q30_0_all"  />
<polygon points="602,40 615,40 620,35 615,30 602,30 602,40 " style="fill:white; stroke-width:1; stroke:black; " description="&lt;b&gt;ctg7_35&lt;/b&gt;&lt;br&gt;ctg7 35&lt;br&gt;Location: 47901 - 49203" locus_tag="ctg7_35" class="clusterblast-orf" id="dummy-1_q31_0_all"  />
<polygon points="623,35 628,30 631,30 631,40 628,40 623,35 " style="fill:white; stroke-width:1; stroke:black; " description="&lt;b&gt;ctg7_36&lt;/b&gt;&lt;br&gt;ctg7 36&lt;br&gt;Location: 49437 - 50055" locus_tag="ctg7_36" class="clusterblast-orf" id="dummy-1_q32_0_all"  />
<polygon points="633,40 648,40 653,35 648,30 633,30 633,40 " style="fill:white; stroke-width:1; stroke:black; " description="&lt;b&gt;ctg7_37&lt;/b&gt;&lt;br&gt;ctg7 37&lt;br&gt;Location: 50177 - 51671" locus_tag="ctg7_37" class="clusterblast-orf" id="dummy-1_q33_0_all"  />
<polygon points="655,40 670,40 675,35 670,30 655,30 655,40 " style="fill:white; stroke-width:1; stroke:black; " description="&lt;b&gt;ctg7_38&lt;/b&gt;&lt;br&gt;ctg7 38&lt;br&gt;Location: 51789 - 53256" locus_tag="ctg7_38" class="clusterblast-orf" id="dummy-1_q34_0_all"  />
<polygon points="675,40 686,40 691,35 686,30 675,30 675,40 " style="fill:white; stroke-width:1; stroke:black; " description="&lt;b&gt;ctg7_39&lt;/b&gt;&lt;br&gt;ctg7 39&lt;br&gt;Location: 53252 - 54461" locus_tag="ctg7_39" class="clusterblast-orf" id="dummy-1_q35_0_all"  />
<polygon points="691,40 698,40 703,35 698,30 691,30 691,40 " style="fill:white; stroke-width:1; stroke:black; " description="&lt;b&gt;ctg7_40&lt;/b&gt;&lt;br&gt;ctg7 40&lt;br&gt;Location: 54468 - 55344" locus_tag="ctg7_40" class="clusterblast-orf" id="dummy-1_q36_0_all"  />
<polygon points="703,40 729,40 734,35 729,30 703,30 703,40 " style="fill:white; stroke-width:1; stroke:black; " description="&lt;b&gt;ctg7_41&lt;/b&gt;&lt;br&gt;ctg7 41&lt;br&gt;Location: 55340 - 57638" locus_tag="ctg7_41" class="clusterblast-orf" id="dummy-1_q37_0_all"  />
<polygon points="744,35 748,30 748,40 744,35 " style="fill:white; stroke-width:1; stroke:black; " description="&lt;b&gt;ctg7_42&lt;/b&gt;&lt;br&gt;ctg7 42&lt;br&gt;Location: 58340 - 58655" locus_tag="ctg7_42" class="clusterblast-orf" id="dummy-1_q38_0_all"  />
<polygon points="750,35 755,30 761,30 761,40 755,40 750,35 " style="fill:white; stroke-width:1; stroke:black; " description="&lt;b&gt;ctg7_43&lt;/b&gt;&lt;br&gt;ctg7 43&lt;br&gt;Location: 58799 - 59603" locus_tag="ctg7_43" class="clusterblast-orf" id="dummy-1_q39_0_all"  />
<polygon points="761,40 765,40 770,35 765,30 761,30 761,40 " style="fill:white; stroke-width:1; stroke:black; " description="&lt;b&gt;ctg7_44&lt;/b&gt;&lt;br&gt;ctg7 44&lt;br&gt;Location: 59664 - 60330" locus_tag="ctg7_44" class="clusterblast-orf" id="dummy-1_q40_0_all"  />
<polygon points="771,35 776,30 780,30 780,40 776,40 771,35 " style="fill:white; stroke-width:1; stroke:black; " description="&lt;b&gt;ctg7_45&lt;/b&gt;&lt;br&gt;ctg7 45&lt;br&gt;Location: 60338 - 61007" locus_tag="ctg7_45" class="clusterblast-orf" id="dummy-1_q41_0_all"  />
</g>
<g label="BGC0000300" description="BGC0000300_c1: Amychelin (25% of genes show similarity), nrps" class="clusterblast-cluster"  >
<text x="5" y="70" class="clusterblast-acc"  >
<a xlink:href="https://mibig.secondarymetabolites.org/go/BGC0000300/1" target="_blank">BGC0000300</a>:                                                                        Amychelin (25% of genes show similarity), nrps</text>
<line x1="10" y1="85" x2="778.0" y2="85" style="stroke-width:1; stroke:grey; "  />
</g>
<g id="a1_000"  >
<polygon points="151,90 163,90 168,85 163,80 151,80 151,90 " style="fill:white; stroke-width:1; stroke:black; " description="&lt;b&gt;SSMG_02546&lt;/b&gt;&lt;br&gt;peptide monooxygenase&lt;br&gt;Location: 35238 - 33958" locus_tag="SSMG_02546" class="clusterblast-orf" id="dummy-1_h1_9_0"  />
</g>
<g id="a1_001"  >
<polygon points="168,90 181,90 186,85 181,80 168,80 168,90 " style="fill:white; stroke-width:1; stroke:black; " description="&lt;b&gt;SSMG_02545&lt;/b&gt;&lt;br&gt;salicylate synthase&lt;br&gt;Location: 33994 - 32684" locus_tag="SSMG_02545" class="clusterblast-orf" id="dummy-1_h1_9_1"  />
</g>
<g id="a1_002"  >
<polygon points="186,85 191,80 199,80 199,90 191,90 186,85 " style="fill:#d81515; stroke-width:1; stroke:black; " description="&lt;b&gt;SSMG_02544&lt;/b&gt;&lt;br&gt;predicted protein&lt;br&gt;Location: 32676 - 31693&lt;br&gt;&lt;br&gt;&lt;b&gt;BlastP hit with ctg7_17&lt;/b&gt;&lt;br&gt;Percentage identity: 46&lt;br&gt;Percentage coverage: 95&lt;br&gt;BLAST bit score: 238&lt;br&gt;E-value: 1.9e-62" locus_tag="SSMG_02544" class="clusterblast-orf" id="dummy-1_h1_9_2"  />
</g>
<g id="a1_003"  >
<polygon points="199,85 204,80 212,80 212,90 204,90 199,85 " style="fill:#77d815; stroke-width:1; stroke:black; " description="&lt;b&gt;SSMG_02543&lt;/b&gt;&lt;br&gt;predicted protein&lt;br&gt;Location: 31696 - 30713&lt;br&gt;&lt;br&gt;&lt;b&gt;BlastP hit with ctg7_18&lt;/b&gt;&lt;br&gt;Percentage identity: 49&lt;br&gt;Percentage coverage: 84&lt;br&gt;BLAST bit score: 257&lt;br&gt;E-value: 2.5e-68" locus_tag="SSMG_02543" class="clusterblast-orf" id="dummy-1_h1_9_3"  />
</g>
<g id="a1_004"  >
<polygon points="212,85 217,80 233,80 233,90 217,90 212,85 " style="fill:#15d846; stroke-width:1; stroke:black; " description="&lt;b&gt;SSMG_02542&lt;/b&gt;&lt;br&gt;2,3-dihydroxybenzoate-AMP ligase&lt;br&gt;Location: 30716 - 29169&lt;br&gt;&lt;br&gt;&lt;b&gt;BlastP hit with ctg7_27&lt;/b&gt;&lt;br&gt;Percentage identity: 59&lt;br&gt;Percentage coverage: 98&lt;br&gt;BLAST bit score: 582&lt;br&gt;E-value: 4.9e-166" locus_tag="SSMG_02542" class="clusterblast-orf" id="dummy-1_h1_9_4"  />
</g>
<g id="a1_005"  >
<polygon points="235,90 246,90 251,85 246,80 235,80 235,90 " style="fill:#7715d8; stroke-width:1; stroke:black; " description="&lt;b&gt;SSMG_02541&lt;/b&gt;&lt;br&gt;major facilitator superfamily transporter multidrug resistance protein&lt;br&gt;Location: 29026 - 27851&lt;br&gt;&lt;br&gt;&lt;b&gt;BlastP hit with ctg7_21&lt;/b&gt;&lt;br&gt;Percentage identity: 49&lt;br&gt;Percentage coverage: 90&lt;br&gt;BLAST bit score: 322&lt;br&gt;E-value: 7e-88" locus_tag="SSMG_02541" class="clusterblast-orf" id="dummy-1_h1_9_5"  />
</g>
<g id="a1_006"  >
<polygon points="251,90 257,90 262,85 257,80 251,80 251,90 " style="fill:white; stroke-width:1; stroke:black; " description="&lt;b&gt;SSMG_02540&lt;/b&gt;&lt;br&gt;LipE protein&lt;br&gt;Location: 27878 - 27072" locus_tag="SSMG_02540" class="clusterblast-orf" id="dummy-1_h1_9_6"  />
</g>
<g id="a1_007"  >
<polygon points="262,90 265,85 262,80 262,90 " style="fill:white; stroke-width:1; stroke:black; " description="&lt;b&gt;SSMG_02539&lt;/b&gt;&lt;br&gt;mbtH protein&lt;br&gt;Location: 27023 - 26802" locus_tag="SSMG_02539" class="clusterblast-orf" id="dummy-1_h1_9_7"  />
</g>
<g id="a1_008"  >
<polygon points="265,90 355,90 360,85 355,80 265,80 265,90 " style="fill:white; stroke-width:1; stroke:black; " description="&lt;b&gt;SSMG_02538&lt;/b&gt;&lt;br&gt;predicted protein&lt;br&gt;Location: 26805 - 19804" locus_tag="SSMG_02538" class="clusterblast-orf" id="dummy-1_h1_9_8"  />
</g>
<g id="a1_009"  >
<polygon points="360,90 412,90 417,85 412,80 360,80 360,90 " style="fill:white; stroke-width:1; stroke:black; " description="&lt;b&gt;SSMG_02537&lt;/b&gt;&lt;br&gt;predicted protein&lt;br&gt;Location: 19819 - 15614" locus_tag="SSMG_02537" class="clusterblast-orf" id="dummy-1_h1_9_9"  />
</g>
<g id="a1_0010"  >
<polygon points="417,90 507,90 512,85 507,80 417,80 417,90 " style="fill:white; stroke-width:1; stroke:black; " description="&lt;b&gt;SSMG_02536&lt;/b&gt;&lt;br&gt;hypothetical protein&lt;br&gt;Location: 15621 - 8533" locus_tag="SSMG_02536" class="clusterblast-orf" id="dummy-1_h1_9_10"  />
</g>
<g id="a1_0011"  >
<polygon points="512,90 553,90 558,85 553,80 512,80 512,90 " style="fill:white; stroke-width:1; stroke:black; " description="&lt;b&gt;SSMG_02535&lt;/b&gt;&lt;br&gt;non-ribosomal peptide synthetase&lt;br&gt;Location: 8539 - 5186" locus_tag="SSMG_02535" class="clusterblast-orf" id="dummy-1_h1_9_11"  />
</g>
<g id="a1_0012"  >
<polygon points="559,85 564,80 575,80 575,90 564,90 559,85 " style="fill:white; stroke-width:1; stroke:black; " description="&lt;b&gt;SSMG_02534&lt;/b&gt;&lt;br&gt;predicted protein&lt;br&gt;Location: 5129 - 3897" locus_tag="SSMG_02534" class="clusterblast-orf" id="dummy-1_h1_9_12"  />
</g>
<g id="a1_0013"  >
<polygon points="579,85 584,80 598,80 598,90 584,90 579,85 " style="fill:white; stroke-width:1; stroke:black; " description="&lt;b&gt;SSMG_02533&lt;/b&gt;&lt;br&gt;amine oxidase&lt;br&gt;Location: 3581 - 2220" locus_tag="SSMG_02533" class="clusterblast-orf" id="dummy-1_h1_9_13"  />
</g>
<g id="a1_0014"  >
<polygon points="599,85 604,80 619,80 619,90 604,90 599,85 " style="fill:white; stroke-width:1; stroke:black; " description="&lt;b&gt;SSMG_02532&lt;/b&gt;&lt;br&gt;predicted protein&lt;br&gt;Location: 2173 - 683" locus_tag="SSMG_02532" class="clusterblast-orf" id="dummy-1_h1_9_14"  />
</g>
<g id="a1_0015"  >
<polygon points="620,90 623,90 628,85 623,80 620,80 620,90 " style="fill:white; stroke-width:1; stroke:black; " description="&lt;b&gt;SSMG_02531&lt;/b&gt;&lt;br&gt;TetR family transcriptional regulator&lt;br&gt;Location: 597 - 1" locus_tag="SSMG_02531" class="clusterblast-orf" id="dummy-1_h1_9_15"  />
</g>
</svg>
