<svg xmlns="http://www.w3.org/2000/svg" xmlns:xlink="http://www.w3.org/1999/xlink" version="1.1" x="0" y="0" height="230" width="800" viewBox="0 0 800 230" preserveAspectRatio="none"  >
<g label="Query sequence" class="clusterblast-cluster"  >
<text x="5" y="20" class="clusterblast-acc"  >
Query sequence</text>
<line x1="10" y1="35" x2="778.0" y2="35" style="stroke-width:1; stroke:grey; "  />
<polygon points="0,35 5,30 259,30 259,40 5,40 0,35 " style="fill:white; stroke-width:1; stroke:black; " description="&lt;b&gt;ctg3_36&lt;/b&gt;&lt;br&gt;ctg3 36&lt;br&gt;Location: 35638 - 38770" locus_tag="ctg3_36" class="clusterblast-orf" id="dummy-1_q0_0_all"  />
<polygon points="279,35 284,30 354,30 354,40 284,40 279,35 " style="fill:#d81515; stroke-width:1; stroke:black; " description="&lt;b&gt;ctg3_37&lt;/b&gt;&lt;br&gt;ctg3 37&lt;br&gt;Location: 39014 - 39917" locus_tag="ctg3_37" class="clusterblast-orf" id="dummy-1_q1_0_all"  />
<polygon points="358,35 363,30 392,30 392,40 363,40 358,35 " style="fill:#77d815; stroke-width:1; stroke:black; " description="&lt;b&gt;ctg3_38&lt;/b&gt;&lt;br&gt;ctg3 38&lt;br&gt;Location: 39975 - 40383" locus_tag="ctg3_38" class="clusterblast-orf" id="dummy-1_q2_0_all"  />
<polygon points="394,35 399,30 497,30 497,40 399,40 394,35 " style="fill:#15d8d8; stroke-width:1; stroke:black; " description="&lt;b&gt;ctg3_39&lt;/b&gt;&lt;br&gt;ctg3 39&lt;br&gt;Location: 40405 - 41659" locus_tag="ctg3_39" class="clusterblast-orf" id="dummy-1_q3_0_all"  />
<polygon points="503,35 508,30 544,30 544,40 508,40 503,35 " style="fill:#7715d8; stroke-width:1; stroke:black; " description="&lt;b&gt;ctg3_40&lt;/b&gt;&lt;br&gt;ctg3 40&lt;br&gt;Location: 41726 - 42227" locus_tag="ctg3_40" class="clusterblast-orf" id="dummy-1_q4_0_all"  />
<polygon points="562,35 567,30 626,30 626,40 567,40 562,35 " style="fill:white; stroke-width:1; stroke:black; " description="&lt;b&gt;ctg3_41&lt;/b&gt;&lt;br&gt;ctg3 41&lt;br&gt;Location: 42435 - 43212" locus_tag="ctg3_41" class="clusterblast-orf" id="dummy-1_q5_0_all"  />
<polygon points="628,35 633,30 657,30 657,40 633,40 628,35 " style="fill:white; stroke-width:1; stroke:black; " description="&lt;b&gt;ctg3_42&lt;/b&gt;&lt;br&gt;ctg3 42&lt;br&gt;Location: 43244 - 43592" locus_tag="ctg3_42" class="clusterblast-orf" id="dummy-1_q6_0_all"  />
<polygon points="661,35 666,30 728,30 728,40 666,40 661,35 " style="fill:white; stroke-width:1; stroke:black; " description="&lt;b&gt;ctg3_43&lt;/b&gt;&lt;br&gt;ctg3 43&lt;br&gt;Location: 43635 - 44451" locus_tag="ctg3_43" class="clusterblast-orf" id="dummy-1_q7_0_all"  />
<polygon points="731,40 775,40 780,35 775,30 731,30 731,40 " style="fill:white; stroke-width:1; stroke:black; " description="&lt;b&gt;ctg3_44&lt;/b&gt;&lt;br&gt;ctg3 44&lt;br&gt;Location: 44488 - 45085" locus_tag="ctg3_44" class="clusterblast-orf" id="dummy-1_q8_0_all"  />
</g>
<g label="BGC0000860" description="BGC0000860_c1: Ectoine (40% of genes show similarity), other" class="clusterblast-cluster"  >
<text x="5" y="70" class="clusterblast-acc"  >
<a xlink:href="https://mibig.secondarymetabolites.org/go/BGC0000860/1" target="_blank">BGC0000860</a>:                                                                          Ectoine (40% of genes show similarity), other</text>
<line x1="10" y1="85" x2="778.0" y2="85" style="stroke-width:1; stroke:grey; "  />
</g>
<g id="a1_000"  >
<polygon points="207,85 212,80 322,80 322,90 212,90 207,85 " style="fill:white; stroke-width:1; stroke:black; " description="&lt;b&gt;ADA71977.1&lt;/b&gt;&lt;br&gt;aspartokinase&lt;br&gt;Location: 5134 - 3740" locus_tag="ADA71977.1" class="clusterblast-orf" id="dummy-1_h1_4_0"  />
</g>
<g id="a1_001"  >
<polygon points="322,85 327,80 355,80 355,90 327,90 322,85 " style="fill:#77d815; stroke-width:1; stroke:black; " description="&lt;b&gt;ADA71976.1&lt;/b&gt;&lt;br&gt;L-ectoine synthase&lt;br&gt;Location: 3737 - 3342&lt;br&gt;&lt;br&gt;&lt;b&gt;BlastP hit with ctg3_38&lt;/b&gt;&lt;br&gt;Percentage identity: 47&lt;br&gt;Percentage coverage: 95&lt;br&gt;BLAST bit score: 136&lt;br&gt;E-value: 3e-32" locus_tag="ADA71976.1" class="clusterblast-orf" id="dummy-1_h1_4_1"  />
</g>
<g id="a1_002"  >
<polygon points="356,85 361,80 462,80 462,90 361,90 356,85 " style="fill:#15d8d8; stroke-width:1; stroke:black; " description="&lt;b&gt;ADA71975.1&lt;/b&gt;&lt;br&gt;L-2,4-diaminobutyrate transaminase&lt;br&gt;Location: 3334 - 2042&lt;br&gt;&lt;br&gt;&lt;b&gt;BlastP hit with ctg3_39&lt;/b&gt;&lt;br&gt;Percentage identity: 49&lt;br&gt;Percentage coverage: 100&lt;br&gt;BLAST bit score: 416&lt;br&gt;E-value: 6.1e-116" locus_tag="ADA71975.1" class="clusterblast-orf" id="dummy-1_h1_4_2"  />
</g>
<g id="a1_003"  >
<polygon points="467,85 472,80 512,80 512,90 472,90 467,85 " style="fill:white; stroke-width:1; stroke:black; " description="&lt;b&gt;ADA71974.1&lt;/b&gt;&lt;br&gt;L-2,4-diaminobutyric acid acetyltransferase&lt;br&gt;Location: 1986 - 1441" locus_tag="ADA71974.1" class="clusterblast-orf" id="dummy-1_h1_4_3"  />
</g>
<g id="a1_004"  >
<polygon points="526,90 567,90 572,85 567,80 526,80 526,90 " style="fill:white; stroke-width:1; stroke:black; " description="&lt;b&gt;ADA71973.1&lt;/b&gt;&lt;br&gt;MarR family transcriptional regulator&lt;br&gt;Location: 1265 - 711" locus_tag="ADA71973.1" class="clusterblast-orf" id="dummy-1_h1_4_4"  />
</g>
</svg>
