<svg xmlns="http://www.w3.org/2000/svg" xmlns:xlink="http://www.w3.org/1999/xlink" version="1.1" x="0" y="0" height="50" width="800" viewBox="0 0 800 50" preserveAspectRatio="none"  >
<g label="Query sequence" class="clusterblast-cluster"  >
<text x="5" y="20" class="clusterblast-acc"  >
Query sequence</text>
<line x1="10" y1="35" x2="778.0" y2="35" style="stroke-width:1; stroke:grey; "  />
<polygon points="0,40 18,40 23,35 18,30 0,30 0,40 " style="fill:white; stroke-width:1; stroke:black; " description="&lt;b&gt;ctg19_29&lt;/b&gt;&lt;br&gt;ctg19 29&lt;br&gt;Location: 32747 - 33536" locus_tag="ctg19_29" class="clusterblast-orf" id="knownclusterblast-1_q0_0_all"  />
<polygon points="23,40 37,40 42,35 37,30 23,30 23,40 " style="fill:white; stroke-width:1; stroke:black; " description="&lt;b&gt;ctg19_30&lt;/b&gt;&lt;br&gt;ctg19 30&lt;br&gt;Location: 33532 - 34174" locus_tag="ctg19_30" class="clusterblast-orf" id="knownclusterblast-1_q1_0_all"  />
<polygon points="42,40 68,40 73,35 68,30 42,30 42,40 " style="fill:white; stroke-width:1; stroke:black; " description="&lt;b&gt;ctg19_31&lt;/b&gt;&lt;br&gt;ctg19 31&lt;br&gt;Location: 34177 - 35200" locus_tag="ctg19_31" class="clusterblast-orf" id="knownclusterblast-1_q2_0_all"  />
<polygon points="73,40 105,40 110,35 105,30 73,30 73,40 " style="fill:white; stroke-width:1; stroke:black; " description="&lt;b&gt;ctg19_32&lt;/b&gt;&lt;br&gt;ctg19 32&lt;br&gt;Location: 35199 - 36453" locus_tag="ctg19_32" class="clusterblast-orf" id="knownclusterblast-1_q3_0_all"  />
<polygon points="110,40 143,40 148,35 143,30 110,30 110,40 " style="fill:white; stroke-width:1; stroke:black; " description="&lt;b&gt;ctg19_33&lt;/b&gt;&lt;br&gt;ctg19 33&lt;br&gt;Location: 36457 - 37738" locus_tag="ctg19_33" class="clusterblast-orf" id="knownclusterblast-1_q4_0_all"  />
<polygon points="148,40 168,40 173,35 168,30 148,30 148,40 " style="fill:white; stroke-width:1; stroke:black; " description="&lt;b&gt;ctg19_34&lt;/b&gt;&lt;br&gt;ctg19 34&lt;br&gt;Location: 37734 - 38592" locus_tag="ctg19_34" class="clusterblast-orf" id="knownclusterblast-1_q5_0_all"  />
<polygon points="173,40 203,40 208,35 203,30 173,30 173,40 " style="fill:white; stroke-width:1; stroke:black; " description="&lt;b&gt;ctg19_35&lt;/b&gt;&lt;br&gt;ctg19 35&lt;br&gt;Location: 38588 - 39767" locus_tag="ctg19_35" class="clusterblast-orf" id="knownclusterblast-1_q6_0_all"  />
<polygon points="208,40 219,40 224,35 219,30 208,30 208,40 " style="fill:white; stroke-width:1; stroke:black; " description="&lt;b&gt;ctg19_36&lt;/b&gt;&lt;br&gt;ctg19 36&lt;br&gt;Location: 39763 - 40312" locus_tag="ctg19_36" class="clusterblast-orf" id="knownclusterblast-1_q7_0_all"  />
<polygon points="224,40 258,40 263,35 258,30 224,30 224,40 " style="fill:white; stroke-width:1; stroke:black; " description="&lt;b&gt;ctg19_37&lt;/b&gt;&lt;br&gt;ctg19 37&lt;br&gt;Location: 40317 - 41631" locus_tag="ctg19_37" class="clusterblast-orf" id="knownclusterblast-1_q8_0_all"  />
<polygon points="262,35 267,30 282,30 282,40 267,40 262,35 " style="fill:white; stroke-width:1; stroke:black; " description="&lt;b&gt;ctg19_38&lt;/b&gt;&lt;br&gt;ctg19 38&lt;br&gt;Location: 41602 - 42271" locus_tag="ctg19_38" class="clusterblast-orf" id="knownclusterblast-1_q9_0_all"  />
<polygon points="285,40 288,40 293,35 288,30 285,30 285,40 " style="fill:white; stroke-width:1; stroke:black; " description="&lt;b&gt;ctg19_39&lt;/b&gt;&lt;br&gt;ctg19 39&lt;br&gt;Location: 42369 - 42621" locus_tag="ctg19_39" class="clusterblast-orf" id="knownclusterblast-1_q10_0_all"  />
<polygon points="292,40 320,40 325,35 320,30 292,30 292,40 " style="fill:white; stroke-width:1; stroke:black; " description="&lt;b&gt;ctg19_40&lt;/b&gt;&lt;br&gt;ctg19 40&lt;br&gt;Location: 42601 - 43720" locus_tag="ctg19_40" class="clusterblast-orf" id="knownclusterblast-1_q11_0_all"  />
<polygon points="325,40 332,40 337,35 332,30 325,30 325,40 " style="fill:white; stroke-width:1; stroke:black; " description="&lt;b&gt;ctg19_41&lt;/b&gt;&lt;br&gt;ctg19 41&lt;br&gt;Location: 43716 - 44127" locus_tag="ctg19_41" class="clusterblast-orf" id="knownclusterblast-1_q12_0_all"  />
<polygon points="338,40 360,40 365,35 360,30 338,30 338,40 " style="fill:white; stroke-width:1; stroke:black; " description="&lt;b&gt;ctg19_42&lt;/b&gt;&lt;br&gt;ctg19 42&lt;br&gt;Location: 44132 - 45044" locus_tag="ctg19_42" class="clusterblast-orf" id="knownclusterblast-1_q13_0_all"  />
<polygon points="384,35 389,30 437,30 437,40 389,40 384,35 " style="fill:white; stroke-width:1; stroke:black; " description="&lt;b&gt;ctg19_43&lt;/b&gt;&lt;br&gt;ctg19 43&lt;br&gt;Location: 45709 - 47491" locus_tag="ctg19_43" class="clusterblast-orf" id="knownclusterblast-1_q14_0_all"  />
<polygon points="442,40 446,35 442,30 442,40 " style="fill:white; stroke-width:1; stroke:black; " description="&lt;b&gt;ctg19_44&lt;/b&gt;&lt;br&gt;ctg19 44&lt;br&gt;Location: 47667 - 47805" locus_tag="ctg19_44" class="clusterblast-orf" id="knownclusterblast-1_q15_0_all"  />
<polygon points="448,40 452,35 448,30 448,40 " style="fill:white; stroke-width:1; stroke:black; " description="&lt;b&gt;ctg19_45&lt;/b&gt;&lt;br&gt;ctg19 45&lt;br&gt;Location: 47849 - 47990" locus_tag="ctg19_45" class="clusterblast-orf" id="knownclusterblast-1_q16_0_all"  />
<polygon points="455,40 483,40 488,35 483,30 455,30 455,40 " style="fill:white; stroke-width:1; stroke:black; " description="&lt;b&gt;ctg19_46&lt;/b&gt;&lt;br&gt;ctg19 46&lt;br&gt;Location: 48076 - 49192" locus_tag="ctg19_46" class="clusterblast-orf" id="knownclusterblast-1_q17_0_all"  />
<polygon points="488,35 493,30 521,30 521,40 493,40 488,35 " style="fill:white; stroke-width:1; stroke:black; " description="&lt;b&gt;ctg19_47&lt;/b&gt;&lt;br&gt;ctg19 47&lt;br&gt;Location: 49200 - 50328" locus_tag="ctg19_47" class="clusterblast-orf" id="knownclusterblast-1_q18_0_all"  />
<polygon points="522,35 527,30 568,30 568,40 527,40 522,35 " style="fill:white; stroke-width:1; stroke:black; " description="&lt;b&gt;ctg19_48&lt;/b&gt;&lt;br&gt;ctg19 48&lt;br&gt;Location: 50340 - 51891" locus_tag="ctg19_48" class="clusterblast-orf" id="knownclusterblast-1_q19_0_all"  />
<polygon points="569,35 574,30 588,30 588,40 574,40 569,35 " style="fill:white; stroke-width:1; stroke:black; " description="&lt;b&gt;ctg19_49&lt;/b&gt;&lt;br&gt;ctg19 49&lt;br&gt;Location: 51950 - 52571" locus_tag="ctg19_49" class="clusterblast-orf" id="knownclusterblast-1_q20_0_all"  />
<polygon points="589,35 594,30 619,30 619,40 594,40 589,35 " style="fill:white; stroke-width:1; stroke:black; " description="&lt;b&gt;ctg19_50&lt;/b&gt;&lt;br&gt;ctg19 50&lt;br&gt;Location: 52614 - 53625" locus_tag="ctg19_50" class="clusterblast-orf" id="knownclusterblast-1_q21_0_all"  />
<polygon points="618,35 623,30 639,30 639,40 623,40 618,35 " style="fill:white; stroke-width:1; stroke:black; " description="&lt;b&gt;ctg19_51&lt;/b&gt;&lt;br&gt;ctg19 51&lt;br&gt;Location: 53600 - 54299" locus_tag="ctg19_51" class="clusterblast-orf" id="knownclusterblast-1_q22_0_all"  />
<polygon points="639,35 644,30 672,30 672,40 644,40 639,35 " style="fill:white; stroke-width:1; stroke:black; " description="&lt;b&gt;ctg19_52&lt;/b&gt;&lt;br&gt;ctg19 52&lt;br&gt;Location: 54295 - 55405" locus_tag="ctg19_52" class="clusterblast-orf" id="knownclusterblast-1_q23_0_all"  />
<polygon points="672,35 677,30 706,30 706,40 677,40 672,35 " style="fill:white; stroke-width:1; stroke:black; " description="&lt;b&gt;ctg19_53&lt;/b&gt;&lt;br&gt;ctg19 53&lt;br&gt;Location: 55401 - 56565" locus_tag="ctg19_53" class="clusterblast-orf" id="knownclusterblast-1_q24_0_all"  />
<polygon points="706,35 711,30 741,30 741,40 711,40 706,35 " style="fill:white; stroke-width:1; stroke:black; " description="&lt;b&gt;ctg19_54&lt;/b&gt;&lt;br&gt;ctg19 54&lt;br&gt;Location: 56539 - 57730" locus_tag="ctg19_54" class="clusterblast-orf" id="knownclusterblast-1_q25_0_all"  />
<polygon points="743,35 748,30 780,30 780,40 748,40 743,35 " style="fill:white; stroke-width:1; stroke:black; " description="&lt;b&gt;ctg19_55&lt;/b&gt;&lt;br&gt;ctg19 55&lt;br&gt;Location: 57797 - 59042" locus_tag="ctg19_55" class="clusterblast-orf" id="knownclusterblast-1_q26_0_all"  />
</g>
</svg>
