<svg xmlns="http://www.w3.org/2000/svg" xmlns:xlink="http://www.w3.org/1999/xlink" version="1.1" x="0" y="0" height="230" width="800" viewBox="0 0 800 230" preserveAspectRatio="none"  >
<g label="Query sequence" class="clusterblast-cluster"  >
<text x="5" y="20" class="clusterblast-acc"  >
Query sequence</text>
<line x1="10" y1="35" x2="778.0" y2="35" style="stroke-width:1; stroke:grey; "  />
<polygon points="0,40 45,40 50,35 45,30 0,30 0,40 " style="fill:white; stroke-width:1; stroke:black; " description="&lt;b&gt;ctg2_107&lt;/b&gt;&lt;br&gt;ctg2 107&lt;br&gt;Location: 115813 - 118081" locus_tag="ctg2_107" class="clusterblast-orf" id="dummy-1_q0_0_all"  />
<polygon points="50,40 65,40 70,35 65,30 50,30 50,40 " style="fill:white; stroke-width:1; stroke:black; " description="&lt;b&gt;ctg2_108&lt;/b&gt;&lt;br&gt;ctg2 108&lt;br&gt;Location: 118100 - 118964" locus_tag="ctg2_108" class="clusterblast-orf" id="dummy-1_q1_0_all"  />
<polygon points="77,35 82,30 91,30 91,40 82,40 77,35 " style="fill:white; stroke-width:1; stroke:black; " description="&lt;b&gt;ctg2_109&lt;/b&gt;&lt;br&gt;ctg2 109&lt;br&gt;Location: 119308 - 119923" locus_tag="ctg2_109" class="clusterblast-orf" id="dummy-1_q2_0_all"  />
<polygon points="93,40 97,40 102,35 97,30 93,30 93,40 " style="fill:white; stroke-width:1; stroke:black; " description="&lt;b&gt;ctg2_110&lt;/b&gt;&lt;br&gt;ctg2 110&lt;br&gt;Location: 120025 - 120436" locus_tag="ctg2_110" class="clusterblast-orf" id="dummy-1_q3_0_all"  />
<polygon points="103,40 150,40 155,35 150,30 103,30 103,40 " style="fill:white; stroke-width:1; stroke:black; " description="&lt;b&gt;ctg2_111&lt;/b&gt;&lt;br&gt;ctg2 111&lt;br&gt;Location: 120481 - 122830" locus_tag="ctg2_111" class="clusterblast-orf" id="dummy-1_q4_0_all"  />
<polygon points="160,40 176,40 181,35 176,30 160,30 160,40 " style="fill:white; stroke-width:1; stroke:black; " description="&lt;b&gt;ctg2_112&lt;/b&gt;&lt;br&gt;ctg2 112&lt;br&gt;Location: 123049 - 123976" locus_tag="ctg2_112" class="clusterblast-orf" id="dummy-1_q5_0_all"  />
<polygon points="181,40 228,40 233,35 228,30 181,30 181,40 " style="fill:white; stroke-width:1; stroke:black; " description="&lt;b&gt;ctg2_113&lt;/b&gt;&lt;br&gt;ctg2 113&lt;br&gt;Location: 123968 - 126317" locus_tag="ctg2_113" class="clusterblast-orf" id="dummy-1_q6_0_all"  />
<polygon points="233,40 237,35 233,30 233,40 " style="fill:white; stroke-width:1; stroke:black; " description="&lt;b&gt;ctg2_114&lt;/b&gt;&lt;br&gt;ctg2 114&lt;br&gt;Location: 126338 - 126497" locus_tag="ctg2_114" class="clusterblast-orf" id="dummy-1_q7_0_all"  />
<polygon points="237,40 255,40 260,35 255,30 237,30 237,40 " style="fill:white; stroke-width:1; stroke:black; " description="&lt;b&gt;ctg2_115&lt;/b&gt;&lt;br&gt;ctg2 115&lt;br&gt;Location: 126507 - 127548" locus_tag="ctg2_115" class="clusterblast-orf" id="dummy-1_q8_0_all"  />
<polygon points="264,35 269,30 271,30 271,40 269,40 264,35 " style="fill:white; stroke-width:1; stroke:black; " description="&lt;b&gt;ctg2_116&lt;/b&gt;&lt;br&gt;ctg2 116&lt;br&gt;Location: 127707 - 128046" locus_tag="ctg2_116" class="clusterblast-orf" id="dummy-1_q9_0_all"  />
<polygon points="276,40 298,40 303,35 298,30 276,30 276,40 " style="fill:white; stroke-width:1; stroke:black; " description="&lt;b&gt;ctg2_117&lt;/b&gt;&lt;br&gt;ctg2 117&lt;br&gt;Location: 128271 - 129462" locus_tag="ctg2_117" class="clusterblast-orf" id="dummy-1_q10_0_all"  />
<polygon points="303,35 308,30 311,30 311,40 308,40 303,35 " style="fill:white; stroke-width:1; stroke:black; " description="&lt;b&gt;ctg2_118&lt;/b&gt;&lt;br&gt;ctg2 118&lt;br&gt;Location: 129484 - 129832" locus_tag="ctg2_118" class="clusterblast-orf" id="dummy-1_q11_0_all"  />
<polygon points="313,40 326,40 331,35 326,30 313,30 313,40 " style="fill:white; stroke-width:1; stroke:black; " description="&lt;b&gt;ctg2_119&lt;/b&gt;&lt;br&gt;ctg2 119&lt;br&gt;Location: 129950 - 130739" locus_tag="ctg2_119" class="clusterblast-orf" id="dummy-1_q12_0_all"  />
<polygon points="331,35 336,30 344,30 344,40 336,40 331,35 " style="fill:white; stroke-width:1; stroke:black; " description="&lt;b&gt;ctg2_120&lt;/b&gt;&lt;br&gt;ctg2 120&lt;br&gt;Location: 130761 - 131343" locus_tag="ctg2_120" class="clusterblast-orf" id="dummy-1_q13_0_all"  />
<polygon points="346,40 377,40 382,35 377,30 346,30 346,40 " style="fill:white; stroke-width:1; stroke:black; " description="&lt;b&gt;ctg2_121&lt;/b&gt;&lt;br&gt;ctg2 121&lt;br&gt;Location: 131410 - 133021" locus_tag="ctg2_121" class="clusterblast-orf" id="dummy-1_q14_0_all"  />
<polygon points="388,40 434,40 439,35 434,30 388,30 388,40 " style="fill:white; stroke-width:1; stroke:black; " description="&lt;b&gt;ctg2_122&lt;/b&gt;&lt;br&gt;ctg2 122&lt;br&gt;Location: 133316 - 135611" locus_tag="ctg2_122" class="clusterblast-orf" id="dummy-1_q15_0_all"  />
<polygon points="439,40 444,40 449,35 444,30 439,30 439,40 " style="fill:#d81515; stroke-width:1; stroke:black; " description="&lt;b&gt;ctg2_123&lt;/b&gt;&lt;br&gt;ctg2 123&lt;br&gt;Location: 135628 - 136066" locus_tag="ctg2_123" class="clusterblast-orf" id="dummy-1_q16_0_all"  />
<polygon points="449,40 452,40 457,35 452,30 449,30 449,40 " style="fill:white; stroke-width:1; stroke:black; " description="&lt;b&gt;ctg2_124&lt;/b&gt;&lt;br&gt;ctg2 124&lt;br&gt;Location: 136062 - 136443" locus_tag="ctg2_124" class="clusterblast-orf" id="dummy-1_q17_0_all"  />
<polygon points="457,40 466,40 471,35 466,30 457,30 457,40 " style="fill:#77d815; stroke-width:1; stroke:black; " description="&lt;b&gt;ctg2_125&lt;/b&gt;&lt;br&gt;ctg2 125&lt;br&gt;Location: 136423 - 137038" locus_tag="ctg2_125" class="clusterblast-orf" id="dummy-1_q18_0_all"  />
<polygon points="472,35 477,30 508,30 508,40 477,40 472,35 " style="fill:white; stroke-width:1; stroke:black; " description="&lt;b&gt;ctg2_126&lt;/b&gt;&lt;br&gt;ctg2 126&lt;br&gt;Location: 137087 - 138728" locus_tag="ctg2_126" class="clusterblast-orf" id="dummy-1_q19_0_all"  />
<polygon points="513,40 522,40 527,35 522,30 513,30 513,40 " style="fill:white; stroke-width:1; stroke:black; " description="&lt;b&gt;ctg2_127&lt;/b&gt;&lt;br&gt;ctg2 127&lt;br&gt;Location: 138967 - 139576" locus_tag="ctg2_127" class="clusterblast-orf" id="dummy-1_q20_0_all"  />
<polygon points="529,40 539,40 544,35 539,30 529,30 529,40 " style="fill:white; stroke-width:1; stroke:black; " description="&lt;b&gt;ctg2_128&lt;/b&gt;&lt;br&gt;ctg2 128&lt;br&gt;Location: 139684 - 140356" locus_tag="ctg2_128" class="clusterblast-orf" id="dummy-1_q21_0_all"  />
<polygon points="545,35 550,30 566,30 566,40 550,40 545,35 " style="fill:white; stroke-width:1; stroke:black; " description="&lt;b&gt;ctg2_129&lt;/b&gt;&lt;br&gt;ctg2 129&lt;br&gt;Location: 140367 - 141345" locus_tag="ctg2_129" class="clusterblast-orf" id="dummy-1_q22_0_all"  />
<polygon points="574,40 594,40 599,35 594,30 574,30 574,40 " style="fill:white; stroke-width:1; stroke:black; " description="&lt;b&gt;ctg2_130&lt;/b&gt;&lt;br&gt;ctg2 130&lt;br&gt;Location: 141689 - 142835" locus_tag="ctg2_130" class="clusterblast-orf" id="dummy-1_q23_0_all"  />
<polygon points="601,35 606,30 631,30 631,40 606,40 601,35 " style="fill:white; stroke-width:1; stroke:black; " description="&lt;b&gt;ctg2_131&lt;/b&gt;&lt;br&gt;ctg2 131&lt;br&gt;Location: 142922 - 144260" locus_tag="ctg2_131" class="clusterblast-orf" id="dummy-1_q24_0_all"  />
<polygon points="632,35 637,30 650,30 650,40 637,40 632,35 " style="fill:#15d8d8; stroke-width:1; stroke:black; " description="&lt;b&gt;ctg2_132&lt;/b&gt;&lt;br&gt;ctg2 132&lt;br&gt;Location: 144292 - 145138" locus_tag="ctg2_132" class="clusterblast-orf" id="dummy-1_q25_0_all"  />
<polygon points="653,40 668,40 673,35 668,30 653,30 653,40 " style="fill:#7715d8; stroke-width:1; stroke:black; " description="&lt;b&gt;ctg2_133&lt;/b&gt;&lt;br&gt;ctg2 133&lt;br&gt;Location: 145248 - 146163" locus_tag="ctg2_133" class="clusterblast-orf" id="dummy-1_q26_0_all"  />
<polygon points="676,35 681,30 694,30 694,40 681,40 676,35 " style="fill:white; stroke-width:1; stroke:black; " description="&lt;b&gt;ctg2_134&lt;/b&gt;&lt;br&gt;ctg2 134&lt;br&gt;Location: 146271 - 147105" locus_tag="ctg2_134" class="clusterblast-orf" id="dummy-1_q27_0_all"  />
<polygon points="697,35 702,30 711,30 711,40 702,40 697,35 " style="fill:white; stroke-width:1; stroke:black; " description="&lt;b&gt;ctg2_135&lt;/b&gt;&lt;br&gt;ctg2 135&lt;br&gt;Location: 147246 - 147885" locus_tag="ctg2_135" class="clusterblast-orf" id="dummy-1_q28_0_all"  />
<polygon points="713,40 739,40 744,35 739,30 713,30 713,40 " style="fill:white; stroke-width:1; stroke:black; " description="&lt;b&gt;ctg2_136&lt;/b&gt;&lt;br&gt;ctg2 136&lt;br&gt;Location: 147950 - 149336" locus_tag="ctg2_136" class="clusterblast-orf" id="dummy-1_q29_0_all"  />
<polygon points="744,40 755,40 760,35 755,30 744,30 744,40 " style="fill:white; stroke-width:1; stroke:black; " description="&lt;b&gt;ctg2_137&lt;/b&gt;&lt;br&gt;ctg2 137&lt;br&gt;Location: 149355 - 150066" locus_tag="ctg2_137" class="clusterblast-orf" id="dummy-1_q30_0_all"  />
<polygon points="760,40 769,40 774,35 769,30 760,30 760,40 " style="fill:white; stroke-width:1; stroke:black; " description="&lt;b&gt;ctg2_138&lt;/b&gt;&lt;br&gt;ctg2 138&lt;br&gt;Location: 150076 - 150691" locus_tag="ctg2_138" class="clusterblast-orf" id="dummy-1_q31_0_all"  />
<polygon points="775,35 780,30 780,30 780,40 780,40 775,35 " style="fill:white; stroke-width:1; stroke:black; " description="&lt;b&gt;ctg2_139&lt;/b&gt;&lt;br&gt;ctg2 139&lt;br&gt;Location: 150734 - 150968" locus_tag="ctg2_139" class="clusterblast-orf" id="dummy-1_q32_0_all"  />
</g>
<g label="BGC0001197" description="BGC0001197_c1: Frankiamicin (14% of genes show similarity), polyketide" class="clusterblast-cluster"  >
<text x="5" y="70" class="clusterblast-acc"  >
<a xlink:href="https://mibig.secondarymetabolites.org/go/BGC0001197/1" target="_blank">BGC0001197</a>:                                                                     Frankiamicin (14% of genes show similarity), polyketide</text>
<line x1="10" y1="85" x2="778.0" y2="85" style="stroke-width:1; stroke:grey; "  />
</g>
<g id="a1_000"  >
<polygon points="249,90 319,90 324,85 319,80 249,80 249,90 " style="fill:white; stroke-width:1; stroke:black; " description="&lt;b&gt;Franean1_2384&lt;/b&gt;&lt;br&gt;integral membrane sensor signal transduction histidine kinase&lt;br&gt;Location: 1 - 3399" locus_tag="Franean1_2384" class="clusterblast-orf" id="dummy-1_h1_2_0"  />
</g>
<g id="a1_001"  >
<polygon points="324,90 329,90 334,85 329,80 324,80 324,90 " style="fill:#d81515; stroke-width:1; stroke:black; " description="&lt;b&gt;Franean1_2385&lt;/b&gt;&lt;br&gt;Roadblock/LC7 family protein&lt;br&gt;Location: 3399 - 3818&lt;br&gt;&lt;br&gt;&lt;b&gt;BlastP hit with ctg2_123&lt;/b&gt;&lt;br&gt;Percentage identity: 47&lt;br&gt;Percentage coverage: 93&lt;br&gt;BLAST bit score: 123&lt;br&gt;E-value: 3.7e-28" locus_tag="Franean1_2385" class="clusterblast-orf" id="dummy-1_h1_2_1"  />
</g>
<g id="a1_002"  >
<polygon points="336,90 339,90 344,85 339,80 336,80 336,90 " style="fill:white; stroke-width:1; stroke:black; " description="&lt;b&gt;Franean1_2386&lt;/b&gt;&lt;br&gt;protein of unknown function DUF742&lt;br&gt;Location: 3936 - 4307" locus_tag="Franean1_2386" class="clusterblast-orf" id="dummy-1_h1_2_2"  />
</g>
<g id="a1_003"  >
<polygon points="344,90 353,90 358,85 353,80 344,80 344,90 " style="fill:#77d815; stroke-width:1; stroke:black; " description="&lt;b&gt;Franean1_2387&lt;/b&gt;&lt;br&gt;protein of unknown function ATP binding&lt;br&gt;Location: 4288 - 4911&lt;br&gt;&lt;br&gt;&lt;b&gt;BlastP hit with ctg2_125&lt;/b&gt;&lt;br&gt;Percentage identity: 61&lt;br&gt;Percentage coverage: 87&lt;br&gt;BLAST bit score: 228&lt;br&gt;E-value: 8.9e-60" locus_tag="Franean1_2387" class="clusterblast-orf" id="dummy-1_h1_2_3"  />
</g>
<g id="a1_004"  >
<polygon points="359,90 376,90 381,85 376,80 359,80 359,90 " style="fill:white; stroke-width:1; stroke:black; " description="&lt;b&gt;Franean1_2388&lt;/b&gt;&lt;br&gt;transcriptional regulator, LuxR family&lt;br&gt;Location: 4974 - 5972" locus_tag="Franean1_2388" class="clusterblast-orf" id="dummy-1_h1_2_4"  />
</g>
<g id="a1_005"  >
<polygon points="389,90 392,90 397,85 392,80 389,80 389,90 " style="fill:white; stroke-width:1; stroke:black; " description="&lt;b&gt;Franean1_2389&lt;/b&gt;&lt;br&gt;Polyketide synthesis cyclase&lt;br&gt;Location: 6305 - 6682" locus_tag="Franean1_2389" class="clusterblast-orf" id="dummy-1_h1_2_5"  />
</g>
<g id="a1_006"  >
<polygon points="406,90 407,90 412,85 407,80 406,80 406,90 " style="fill:white; stroke-width:1; stroke:black; " description="&lt;b&gt;Franean1_2390&lt;/b&gt;&lt;br&gt;putative actinorhodin polyketide synthase acyl carrier protein (ACP) (ActI ORF3)&lt;br&gt;Location: 7083 - 7340" locus_tag="Franean1_2390" class="clusterblast-orf" id="dummy-1_h1_2_6"  />
</g>
<g id="a1_007"  >
<polygon points="413,90 419,90 424,85 419,80 413,80 413,90 " style="fill:white; stroke-width:1; stroke:black; " description="&lt;b&gt;Franean1_2391&lt;/b&gt;&lt;br&gt;cyclase/dehydrase&lt;br&gt;Location: 7391 - 7885" locus_tag="Franean1_2391" class="clusterblast-orf" id="dummy-1_h1_2_7"  />
</g>
<g id="a1_008"  >
<polygon points="424,90 428,90 433,85 428,80 424,80 424,90 " style="fill:white; stroke-width:1; stroke:black; " description="&lt;b&gt;Franean1_2392&lt;/b&gt;&lt;br&gt;Cupin 2 conserved barrel domain protein&lt;br&gt;Location: 7896 - 8318" locus_tag="Franean1_2392" class="clusterblast-orf" id="dummy-1_h1_2_8"  />
</g>
<g id="a1_009"  >
<polygon points="433,90 458,90 463,85 458,80 433,80 433,90 " style="fill:white; stroke-width:1; stroke:black; " description="&lt;b&gt;Franean1_2393&lt;/b&gt;&lt;br&gt;Beta-ketoacyl synthase&lt;br&gt;Location: 8315 - 9667" locus_tag="Franean1_2393" class="clusterblast-orf" id="dummy-1_h1_2_9"  />
</g>
<g id="a1_0010"  >
<polygon points="463,90 487,90 492,85 487,80 463,80 463,90 " style="fill:white; stroke-width:1; stroke:black; " description="&lt;b&gt;Franean1_2394&lt;/b&gt;&lt;br&gt;Beta-ketoacyl synthase&lt;br&gt;Location: 9664 - 10950" locus_tag="Franean1_2394" class="clusterblast-orf" id="dummy-1_h1_2_10"  />
</g>
<g id="a1_0011"  >
<polygon points="494,90 505,90 510,85 505,80 494,80 494,90 " style="fill:white; stroke-width:1; stroke:black; " description="&lt;b&gt;Franean1_2395&lt;/b&gt;&lt;br&gt;short-chain dehydrogenase/reductase SDR&lt;br&gt;Location: 11053 - 11790" locus_tag="Franean1_2395" class="clusterblast-orf" id="dummy-1_h1_2_11"  />
</g>
<g id="a1_0012"  >
<polygon points="510,90 513,90 518,85 513,80 510,80 510,90 " style="fill:white; stroke-width:1; stroke:black; " description="&lt;b&gt;Franean1_2396&lt;/b&gt;&lt;br&gt;Antibiotic biosynthesis monooxygenase&lt;br&gt;Location: 11790 - 12113" locus_tag="Franean1_2396" class="clusterblast-orf" id="dummy-1_h1_2_12"  />
</g>
<g id="a1_0013"  >
<polygon points="520,90 525,90 530,85 525,80 520,80 520,90 " style="fill:white; stroke-width:1; stroke:black; " description="&lt;b&gt;Franean1_2397&lt;/b&gt;&lt;br&gt;Antibiotic biosynthesis monooxygenase&lt;br&gt;Location: 12230 - 12679" locus_tag="Franean1_2397" class="clusterblast-orf" id="dummy-1_h1_2_13"  />
</g>
</svg>
