<svg xmlns="http://www.w3.org/2000/svg" xmlns:xlink="http://www.w3.org/1999/xlink" version="1.1" x="0" y="0" height="450" width="800" viewBox="0 0 800 450" preserveAspectRatio="none"  >
<g label="Query sequence" class="clusterblast-cluster"  >
<text x="5" y="20" class="clusterblast-acc"  >
Query sequence</text>
<line x1="10" y1="35" x2="778.0" y2="35" style="stroke-width:1; stroke:grey; "  />
<polygon points="272,35 277,30 279,30 279,40 277,40 272,35 " style="fill:white; stroke-width:1; stroke:black; " description="&lt;b&gt;ctg42_16&lt;/b&gt;&lt;br&gt;ctg42 16&lt;br&gt;Location: 19230 - 19800" locus_tag="ctg42_16" class="clusterblast-orf" id="knownclusterblast-1_q0_0_all"  />
<polygon points="279,40 285,40 290,35 285,30 279,30 279,40 " style="fill:white; stroke-width:1; stroke:black; " description="&lt;b&gt;ctg42_17&lt;/b&gt;&lt;br&gt;ctg42 17&lt;br&gt;Location: 19883 - 20843" locus_tag="ctg42_17" class="clusterblast-orf" id="knownclusterblast-1_q1_0_all"  />
<polygon points="292,40 306,40 311,35 306,30 292,30 292,40 " style="fill:white; stroke-width:1; stroke:black; " description="&lt;b&gt;ctg42_18&lt;/b&gt;&lt;br&gt;ctg42 18&lt;br&gt;Location: 20966 - 22664" locus_tag="ctg42_18" class="clusterblast-orf" id="knownclusterblast-1_q2_0_all"  />
<polygon points="313,35 318,30 318,30 318,40 318,40 313,35 " style="fill:white; stroke-width:1; stroke:black; " description="&lt;b&gt;ctg42_19&lt;/b&gt;&lt;br&gt;ctg42 19&lt;br&gt;Location: 22808 - 23261" locus_tag="ctg42_19" class="clusterblast-orf" id="knownclusterblast-1_q3_0_all"  />
<polygon points="319,40 323,35 319,30 319,40 " style="fill:white; stroke-width:1; stroke:black; " description="&lt;b&gt;ctg42_20&lt;/b&gt;&lt;br&gt;ctg42 20&lt;br&gt;Location: 23322 - 23718" locus_tag="ctg42_20" class="clusterblast-orf" id="knownclusterblast-1_q4_0_all"  />
<polygon points="323,35 328,30 330,30 330,40 328,40 323,35 " style="fill:white; stroke-width:1; stroke:black; " description="&lt;b&gt;ctg42_21&lt;/b&gt;&lt;br&gt;ctg42 21&lt;br&gt;Location: 23719 - 24319" locus_tag="ctg42_21" class="clusterblast-orf" id="knownclusterblast-1_q5_0_all"  />
<polygon points="332,35 337,30 341,30 341,40 337,40 332,35 " style="fill:white; stroke-width:1; stroke:black; " description="&lt;b&gt;ctg42_22&lt;/b&gt;&lt;br&gt;ctg42 22&lt;br&gt;Location: 24447 - 25305" locus_tag="ctg42_22" class="clusterblast-orf" id="knownclusterblast-1_q6_0_all"  />
<polygon points="343,40 350,40 355,35 350,30 343,30 343,40 " style="fill:white; stroke-width:1; stroke:black; " description="&lt;b&gt;ctg42_23&lt;/b&gt;&lt;br&gt;ctg42 23&lt;br&gt;Location: 25451 - 26456" locus_tag="ctg42_23" class="clusterblast-orf" id="knownclusterblast-1_q7_0_all"  />
<polygon points="355,35 360,30 365,30 365,40 360,40 355,35 " style="fill:white; stroke-width:1; stroke:black; " description="&lt;b&gt;ctg42_24&lt;/b&gt;&lt;br&gt;ctg42 24&lt;br&gt;Location: 26452 - 27355" locus_tag="ctg42_24" class="clusterblast-orf" id="knownclusterblast-1_q8_0_all"  />
<polygon points="367,40 379,40 384,35 379,30 367,30 367,40 " style="fill:#d81515; stroke-width:1; stroke:black; " description="&lt;b&gt;ctg42_25&lt;/b&gt;&lt;br&gt;ctg42 25&lt;br&gt;Location: 27523 - 29005" locus_tag="ctg42_25" class="clusterblast-orf" id="knownclusterblast-1_q9_0_all"  />
<polygon points="384,40 390,40 395,35 390,30 384,30 384,40 " style="fill:#4dd815; stroke-width:1; stroke:black; " description="&lt;b&gt;ctg42_26&lt;/b&gt;&lt;br&gt;ctg42 26&lt;br&gt;Location: 29001 - 29964" locus_tag="ctg42_26" class="clusterblast-orf" id="knownclusterblast-1_q10_0_all"  />
<polygon points="395,40 399,35 395,30 395,40 " style="fill:#1585d8; stroke-width:1; stroke:black; " description="&lt;b&gt;ctg42_27&lt;/b&gt;&lt;br&gt;ctg42 27&lt;br&gt;Location: 29963 - 30299" locus_tag="ctg42_27" class="clusterblast-orf" id="knownclusterblast-1_q11_0_all"  />
<polygon points="399,40 402,35 399,30 399,40 " style="fill:#d815bc; stroke-width:1; stroke:black; " description="&lt;b&gt;ctg42_28&lt;/b&gt;&lt;br&gt;ctg42 28&lt;br&gt;Location: 30295 - 30619" locus_tag="ctg42_28" class="clusterblast-orf" id="knownclusterblast-1_q12_0_all"  />
<polygon points="402,40 406,40 411,35 406,30 402,30 402,40 " style="fill:#d8bc15; stroke-width:1; stroke:black; " description="&lt;b&gt;ctg42_29&lt;/b&gt;&lt;br&gt;ctg42 29&lt;br&gt;Location: 30615 - 31350" locus_tag="ctg42_29" class="clusterblast-orf" id="knownclusterblast-1_q13_0_all"  />
<polygon points="411,40 423,40 428,35 423,30 411,30 411,40 " style="fill:#15d885; stroke-width:1; stroke:black; " description="&lt;b&gt;ctg42_30&lt;/b&gt;&lt;br&gt;ctg42 30&lt;br&gt;Location: 31346 - 32828" locus_tag="ctg42_30" class="clusterblast-orf" id="knownclusterblast-1_q14_0_all"  />
<polygon points="428,40 434,40 439,35 434,30 428,30 428,40 " style="fill:#4d15d8; stroke-width:1; stroke:black; " description="&lt;b&gt;ctg42_31&lt;/b&gt;&lt;br&gt;ctg42 31&lt;br&gt;Location: 32830 - 33823" locus_tag="ctg42_31" class="clusterblast-orf" id="knownclusterblast-1_q15_0_all"  />
<polygon points="441,40 442,40 447,35 442,30 441,30 441,40 " style="fill:white; stroke-width:1; stroke:black; " description="&lt;b&gt;ctg42_32&lt;/b&gt;&lt;br&gt;ctg42 32&lt;br&gt;Location: 33984 - 34506" locus_tag="ctg42_32" class="clusterblast-orf" id="knownclusterblast-1_q16_0_all"  />
<polygon points="447,40 455,40 460,35 455,30 447,30 447,40 " style="fill:white; stroke-width:1; stroke:black; " description="&lt;b&gt;ctg42_33&lt;/b&gt;&lt;br&gt;ctg42 33&lt;br&gt;Location: 34516 - 35680" locus_tag="ctg42_33" class="clusterblast-orf" id="knownclusterblast-1_q17_0_all"  />
<polygon points="463,40 465,35 463,30 463,40 " style="fill:white; stroke-width:1; stroke:black; " description="&lt;b&gt;ctg42_34&lt;/b&gt;&lt;br&gt;ctg42 34&lt;br&gt;Location: 35947 - 36088" locus_tag="ctg42_34" class="clusterblast-orf" id="knownclusterblast-1_q18_0_all"  />
<polygon points="467,35 472,30 476,30 476,40 472,40 467,35 " style="fill:white; stroke-width:1; stroke:black; " description="&lt;b&gt;ctg42_35&lt;/b&gt;&lt;br&gt;ctg42 35&lt;br&gt;Location: 36266 - 37067" locus_tag="ctg42_35" class="clusterblast-orf" id="knownclusterblast-1_q19_0_all"  />
<polygon points="477,35 482,30 483,30 483,40 482,40 477,35 " style="fill:white; stroke-width:1; stroke:black; " description="&lt;b&gt;ctg42_36&lt;/b&gt;&lt;br&gt;ctg42 36&lt;br&gt;Location: 37192 - 37672" locus_tag="ctg42_36" class="clusterblast-orf" id="knownclusterblast-1_q20_0_all"  />
<polygon points="483,35 488,30 489,30 489,40 488,40 483,35 " style="fill:white; stroke-width:1; stroke:black; " description="&lt;b&gt;ctg42_37&lt;/b&gt;&lt;br&gt;ctg42 37&lt;br&gt;Location: 37672 - 38164" locus_tag="ctg42_37" class="clusterblast-orf" id="knownclusterblast-1_q21_0_all"  />
<polygon points="488,35 493,30 494,30 494,40 493,40 488,35 " style="fill:white; stroke-width:1; stroke:black; " description="&lt;b&gt;ctg42_38&lt;/b&gt;&lt;br&gt;ctg42 38&lt;br&gt;Location: 38160 - 38613" locus_tag="ctg42_38" class="clusterblast-orf" id="knownclusterblast-1_q22_0_all"  />
<polygon points="493,35 498,30 499,30 499,40 498,40 493,35 " style="fill:white; stroke-width:1; stroke:black; " description="&lt;b&gt;ctg42_39&lt;/b&gt;&lt;br&gt;ctg42 39&lt;br&gt;Location: 38555 - 39062" locus_tag="ctg42_39" class="clusterblast-orf" id="knownclusterblast-1_q23_0_all"  />
<polygon points="501,35 504,30 504,40 501,35 " style="fill:white; stroke-width:1; stroke:black; " description="&lt;b&gt;ctg42_40&lt;/b&gt;&lt;br&gt;ctg42 40&lt;br&gt;Location: 39297 - 39504" locus_tag="ctg42_40" class="clusterblast-orf" id="knownclusterblast-1_q24_0_all"  />
<polygon points="505,40 507,35 505,30 505,40 " style="fill:white; stroke-width:1; stroke:black; " description="&lt;b&gt;ctg42_41&lt;/b&gt;&lt;br&gt;ctg42 41&lt;br&gt;Location: 39592 - 39799" locus_tag="ctg42_41" class="clusterblast-orf" id="knownclusterblast-1_q25_0_all"  />
</g>
<g label="BGC0000664" description="BGC0000664_c1: Isorenieratene (71% of genes show similarity), terpene" class="clusterblast-cluster"  >
<text x="5" y="70" class="clusterblast-acc"  >
<a xlink:href="https://mibig.secondarymetabolites.org/go/BGC0000664/1" target="_blank">BGC0000664</a>:                                                                   Isorenieratene (71% of genes show similarity), terpene</text>
<line x1="10" y1="85" x2="778.0" y2="85" style="stroke-width:1; stroke:grey; "  />
</g>
<g id="a1_000"  >
<polygon points="342,90 351,90 356,85 351,80 342,80 342,90 " style="fill:white; stroke-width:1; stroke:black; " description="&lt;b&gt;SGR_6830&lt;/b&gt;&lt;br&gt;putative geranylgeranyl pyrophosphate synthase&lt;br&gt;Location: 8391 - 7114" locus_tag="SGR_6830" class="clusterblast-orf" id="knownclusterblast-1_all_1_1_0"  />
</g>
<g id="a1_001"  >
<polygon points="356,90 369,90 374,85 369,80 356,80 356,90 " style="fill:#d81515; stroke-width:1; stroke:black; " description="&lt;b&gt;SGR_6829&lt;/b&gt;&lt;br&gt;putative phytoene dehydrogenase&lt;br&gt;Location: 7117 - 5594&lt;br&gt;&lt;br&gt;&lt;b&gt;BlastP hit with ctg42_25&lt;/b&gt;&lt;br&gt;Percentage identity: 65&lt;br&gt;Percentage coverage: 101&lt;br&gt;BLAST bit score: 629&lt;br&gt;E-value: 4.2e-180" locus_tag="SGR_6829" class="clusterblast-orf" id="knownclusterblast-1_all_1_1_1"  />
</g>
<g id="a1_002"  >
<polygon points="373,90 380,90 385,85 380,80 373,80 373,90 " style="fill:#4dd815; stroke-width:1; stroke:black; " description="&lt;b&gt;SGR_6828&lt;/b&gt;&lt;br&gt;putative phytoene synthase&lt;br&gt;Location: 5597 - 4569&lt;br&gt;&lt;br&gt;&lt;b&gt;BlastP hit with ctg42_26&lt;/b&gt;&lt;br&gt;Percentage identity: 60&lt;br&gt;Percentage coverage: 99&lt;br&gt;BLAST bit score: 326&lt;br&gt;E-value: 4.9e-89" locus_tag="SGR_6828" class="clusterblast-orf" id="knownclusterblast-1_all_1_1_2"  />
</g>
<g id="a1_003"  >
<polygon points="385,90 392,90 397,85 392,80 385,80 385,90 " style="fill:#4d15d8; stroke-width:1; stroke:black; " description="&lt;b&gt;SGR_6827&lt;/b&gt;&lt;br&gt;putative methylesterase&lt;br&gt;Location: 4572 - 3556&lt;br&gt;&lt;br&gt;&lt;b&gt;BlastP hit with ctg42_31&lt;/b&gt;&lt;br&gt;Percentage identity: 59&lt;br&gt;Percentage coverage: 95&lt;br&gt;BLAST bit score: 367&lt;br&gt;E-value: 2e-101" locus_tag="SGR_6827" class="clusterblast-orf" id="knownclusterblast-1_all_1_1_3"  />
</g>
<g id="a1_004"  >
<polygon points="397,85 402,80 415,80 415,90 402,90 397,85 " style="fill:#15d885; stroke-width:1; stroke:black; " description="&lt;b&gt;SGR_6826&lt;/b&gt;&lt;br&gt;putative beta-carotene desaturase/methylase&lt;br&gt;Location: 3520 - 1964&lt;br&gt;&lt;br&gt;&lt;b&gt;BlastP hit with ctg42_30&lt;/b&gt;&lt;br&gt;Percentage identity: 57&lt;br&gt;Percentage coverage: 102&lt;br&gt;BLAST bit score: 519&lt;br&gt;E-value: 6.1e-147" locus_tag="SGR_6826" class="clusterblast-orf" id="knownclusterblast-1_all_1_1_4"  />
</g>
<g id="a1_005"  >
<polygon points="415,85 420,80 423,80 423,90 420,90 415,85 " style="fill:#d8bc15; stroke-width:1; stroke:black; " description="&lt;b&gt;SGR_6825&lt;/b&gt;&lt;br&gt;putative methyltransferase&lt;br&gt;Location: 1967 - 1239&lt;br&gt;&lt;br&gt;&lt;b&gt;BlastP hit with ctg42_29&lt;/b&gt;&lt;br&gt;Percentage identity: 57&lt;br&gt;Percentage coverage: 98&lt;br&gt;BLAST bit score: 248&lt;br&gt;E-value: 1.3e-65" locus_tag="SGR_6825" class="clusterblast-orf" id="knownclusterblast-1_all_1_1_5"  />
</g>
<g id="a1_006"  >
<polygon points="423,85 428,80 437,80 437,90 428,90 423,85 " style="fill:white; stroke-width:1; stroke:black; " description="&lt;b&gt;SGR_6824&lt;/b&gt;&lt;br&gt;putative lycopene cyclase&lt;br&gt;Location: 1242 - 1" locus_tag="SGR_6824" class="clusterblast-orf" id="knownclusterblast-1_all_1_1_6"  />
</g>
<g label="BGC0000649" description="BGC0000649_c1: Carotenoid (62% of genes show similarity), terpene" class="clusterblast-cluster"  >
<text x="5" y="120" class="clusterblast-acc"  >
<a xlink:href="https://mibig.secondarymetabolites.org/go/BGC0000649/1" target="_blank">BGC0000649</a>:                                                                       Carotenoid (62% of genes show similarity), terpene</text>
<line x1="10" y1="135" x2="778.0" y2="135" style="stroke-width:1; stroke:grey; "  />
</g>
<g id="a1_000"  >
<polygon points="329,140 342,140 347,135 342,130 329,130 329,140 " style="fill:white; stroke-width:1; stroke:black; " description="&lt;b&gt;AAG28698.1&lt;/b&gt;&lt;br&gt;FadD&lt;br&gt;Location: 149 - 1771" locus_tag="AAG28698.1" class="clusterblast-orf" id="knownclusterblast-1_all_1_2_0"  />
</g>
<g id="a1_001"  >
<polygon points="354,140 364,140 369,135 364,130 354,130 354,140 " style="fill:white; stroke-width:1; stroke:black; " description="&lt;b&gt;AAG28699.1&lt;/b&gt;&lt;br&gt;CrtE&lt;br&gt;Location: 2343 - 3620" locus_tag="AAG28699.1" class="clusterblast-orf" id="knownclusterblast-1_all_1_2_1"  />
</g>
<g id="a1_002"  >
<polygon points="369,140 381,140 386,135 381,130 369,130 369,140 " style="fill:#d81515; stroke-width:1; stroke:black; " description="&lt;b&gt;AAG28700.1&lt;/b&gt;&lt;br&gt;CrtI&lt;br&gt;Location: 3617 - 5140&lt;br&gt;&lt;br&gt;&lt;b&gt;BlastP hit with ctg42_25&lt;/b&gt;&lt;br&gt;Percentage identity: 64&lt;br&gt;Percentage coverage: 101&lt;br&gt;BLAST bit score: 625&lt;br&gt;E-value: 6e-179" locus_tag="AAG28700.1" class="clusterblast-orf" id="knownclusterblast-1_all_1_2_2"  />
</g>
<g id="a1_003"  >
<polygon points="386,140 393,140 398,135 393,130 386,130 386,140 " style="fill:#4dd815; stroke-width:1; stroke:black; " description="&lt;b&gt;AAG28701.1&lt;/b&gt;&lt;br&gt;CrtB&lt;br&gt;Location: 5137 - 6165&lt;br&gt;&lt;br&gt;&lt;b&gt;BlastP hit with ctg42_26&lt;/b&gt;&lt;br&gt;Percentage identity: 55&lt;br&gt;Percentage coverage: 95&lt;br&gt;BLAST bit score: 279&lt;br&gt;E-value: 5.3e-75" locus_tag="AAG28701.1" class="clusterblast-orf" id="knownclusterblast-1_all_1_2_3"  />
</g>
<g id="a1_004"  >
<polygon points="398,140 404,140 409,135 404,130 398,130 398,140 " style="fill:#4d15d8; stroke-width:1; stroke:black; " description="&lt;b&gt;AAG28702.1&lt;/b&gt;&lt;br&gt;CrtV&lt;br&gt;Location: 6162 - 7178&lt;br&gt;&lt;br&gt;&lt;b&gt;BlastP hit with ctg42_31&lt;/b&gt;&lt;br&gt;Percentage identity: 58&lt;br&gt;Percentage coverage: 95&lt;br&gt;BLAST bit score: 353&lt;br&gt;E-value: 3.9e-97" locus_tag="AAG28702.1" class="clusterblast-orf" id="knownclusterblast-1_all_1_2_4"  />
</g>
<g id="a1_005"  >
<polygon points="410,135 415,130 428,130 428,140 415,140 410,135 " style="fill:#15d885; stroke-width:1; stroke:black; " description="&lt;b&gt;AAG28703.1&lt;/b&gt;&lt;br&gt;CrtU&lt;br&gt;Location: 7228 - 8781&lt;br&gt;&lt;br&gt;&lt;b&gt;BlastP hit with ctg42_30&lt;/b&gt;&lt;br&gt;Percentage identity: 57&lt;br&gt;Percentage coverage: 102&lt;br&gt;BLAST bit score: 519&lt;br&gt;E-value: 6.1e-147" locus_tag="AAG28703.1" class="clusterblast-orf" id="knownclusterblast-1_all_1_2_5"  />
</g>
<g id="a1_006"  >
<polygon points="428,135 433,130 436,130 436,140 433,140 428,135 " style="fill:#d8bc15; stroke-width:1; stroke:black; " description="&lt;b&gt;AAG28704.1&lt;/b&gt;&lt;br&gt;CrtT&lt;br&gt;Location: 8781 - 9509&lt;br&gt;&lt;br&gt;&lt;b&gt;BlastP hit with ctg42_29&lt;/b&gt;&lt;br&gt;Percentage identity: 57&lt;br&gt;Percentage coverage: 98&lt;br&gt;BLAST bit score: 246&lt;br&gt;E-value: 3.8e-65" locus_tag="AAG28704.1" class="clusterblast-orf" id="knownclusterblast-1_all_1_2_6"  />
</g>
<g id="a1_007"  >
<polygon points="436,135 441,130 450,130 450,140 441,140 436,135 " style="fill:white; stroke-width:1; stroke:black; " description="&lt;b&gt;AAG28705.1&lt;/b&gt;&lt;br&gt;CrtY&lt;br&gt;Location: 9506 - 10747" locus_tag="AAG28705.1" class="clusterblast-orf" id="knownclusterblast-1_all_1_2_7"  />
</g>
<g label="BGC0001456" description="BGC0001456_c1: Isorenieratene (62% of genes show similarity), terpene" class="clusterblast-cluster"  >
<text x="5" y="170" class="clusterblast-acc"  >
<a xlink:href="https://mibig.secondarymetabolites.org/go/BGC0001456/1" target="_blank">BGC0001456</a>:                                                                   Isorenieratene (62% of genes show similarity), terpene</text>
<line x1="10" y1="185" x2="778.0" y2="185" style="stroke-width:1; stroke:grey; "  />
</g>
<g id="a1_000"  >
<polygon points="334,185 339,180 352,180 352,190 339,190 334,185 " style="fill:#15d885; stroke-width:1; stroke:black; " description="&lt;b&gt;crtaU&lt;/b&gt;&lt;br&gt;isorenieratene synthase&lt;br&gt;Location: 9777 - 8149&lt;br&gt;&lt;br&gt;&lt;b&gt;BlastP hit with ctg42_30&lt;/b&gt;&lt;br&gt;Percentage identity: 58&lt;br&gt;Percentage coverage: 101&lt;br&gt;BLAST bit score: 543&lt;br&gt;E-value: 3.9e-154" locus_tag="crtaU" class="clusterblast-orf" id="knownclusterblast-1_all_1_3_0"  />
</g>
<g id="a1_001"  >
<polygon points="352,185 357,180 361,180 361,190 357,190 352,185 " style="fill:#d8bc15; stroke-width:1; stroke:black; " description="&lt;b&gt;crtaT&lt;/b&gt;&lt;br&gt;methyltransferase&lt;br&gt;Location: 8152 - 7418&lt;br&gt;&lt;br&gt;&lt;b&gt;BlastP hit with ctg42_29&lt;/b&gt;&lt;br&gt;Percentage identity: 55&lt;br&gt;Percentage coverage: 97&lt;br&gt;BLAST bit score: 245&lt;br&gt;E-value: 1.1e-64" locus_tag="crtaT" class="clusterblast-orf" id="knownclusterblast-1_all_1_3_1"  />
</g>
<g id="a1_002"  >
<polygon points="361,185 366,180 375,180 375,190 366,190 361,185 " style="fill:white; stroke-width:1; stroke:black; " description="&lt;b&gt;crtaY&lt;/b&gt;&lt;br&gt;lycopene cyclase&lt;br&gt;Location: 7362 - 6172" locus_tag="crtaY" class="clusterblast-orf" id="knownclusterblast-1_all_1_3_2"  />
</g>
<g id="a1_003"  >
<polygon points="378,185 383,180 385,180 385,190 383,190 378,185 " style="fill:white; stroke-width:1; stroke:black; " description="&lt;b&gt;crtaQ&lt;/b&gt;&lt;br&gt;RNA polymerase, sigma-24 subunit&lt;br&gt;Location: 5930 - 5310" locus_tag="crtaQ" class="clusterblast-orf" id="knownclusterblast-1_all_1_3_3"  />
</g>
<g id="a1_004"  >
<polygon points="389,190 399,190 404,185 399,180 389,180 389,190 " style="fill:white; stroke-width:1; stroke:black; " description="&lt;b&gt;crtaE&lt;/b&gt;&lt;br&gt;geranylgeranyl pyrophosphate synthase&lt;br&gt;Location: 4974 - 3583" locus_tag="crtaE" class="clusterblast-orf" id="knownclusterblast-1_all_1_3_4"  />
</g>
<g id="a1_005"  >
<polygon points="404,190 417,190 422,185 417,180 404,180 404,190 " style="fill:#d81515; stroke-width:1; stroke:black; " description="&lt;b&gt;crtaI&lt;/b&gt;&lt;br&gt;phytoene desaturase&lt;br&gt;Location: 3586 - 2042&lt;br&gt;&lt;br&gt;&lt;b&gt;BlastP hit with ctg42_25&lt;/b&gt;&lt;br&gt;Percentage identity: 65&lt;br&gt;Percentage coverage: 100&lt;br&gt;BLAST bit score: 622&lt;br&gt;E-value: 5.1e-178" locus_tag="crtaI" class="clusterblast-orf" id="knownclusterblast-1_all_1_3_5"  />
</g>
<g id="a1_006"  >
<polygon points="422,190 429,190 434,185 429,180 422,180 422,190 " style="fill:#4dd815; stroke-width:1; stroke:black; " description="&lt;b&gt;crtaB&lt;/b&gt;&lt;br&gt;phytoene / squalene synthase&lt;br&gt;Location: 2045 - 1014&lt;br&gt;&lt;br&gt;&lt;b&gt;BlastP hit with ctg42_26&lt;/b&gt;&lt;br&gt;Percentage identity: 60&lt;br&gt;Percentage coverage: 88&lt;br&gt;BLAST bit score: 314&lt;br&gt;E-value: 1.5e-85" locus_tag="crtaB" class="clusterblast-orf" id="knownclusterblast-1_all_1_3_6"  />
</g>
<g id="a1_007"  >
<polygon points="434,190 440,190 445,185 440,180 434,180 434,190 " style="fill:#4d15d8; stroke-width:1; stroke:black; " description="&lt;b&gt;crtaV&lt;/b&gt;&lt;br&gt;2Fe-2S ferredoxin&lt;br&gt;Location: 1017 - 1&lt;br&gt;&lt;br&gt;&lt;b&gt;BlastP hit with ctg42_31&lt;/b&gt;&lt;br&gt;Percentage identity: 60&lt;br&gt;Percentage coverage: 91&lt;br&gt;BLAST bit score: 354&lt;br&gt;E-value: 1.3e-97" locus_tag="crtaV" class="clusterblast-orf" id="knownclusterblast-1_all_1_3_7"  />
</g>
<g label="BGC0001227" description="BGC0001227_c1: Isorenieratene (45% of genes show similarity), terpene" class="clusterblast-cluster"  >
<text x="5" y="220" class="clusterblast-acc"  >
<a xlink:href="https://mibig.secondarymetabolites.org/go/BGC0001227/1" target="_blank">BGC0001227</a>:                                                                   Isorenieratene (45% of genes show similarity), terpene</text>
<line x1="10" y1="235" x2="778.0" y2="235" style="stroke-width:1; stroke:grey; "  />
</g>
<g id="a1_000"  >
<polygon points="320,240 327,240 332,235 327,230 320,230 320,240 " style="fill:white; stroke-width:1; stroke:black; " description="&lt;b&gt;B446_02770&lt;/b&gt;&lt;br&gt;putative regulatory protein&lt;br&gt;Location: 12144 - 11074" locus_tag="B446_02770" class="clusterblast-orf" id="knownclusterblast-1_all_1_4_0"  />
</g>
<g id="a1_001"  >
<polygon points="331,235 336,230 338,230 338,240 336,240 331,235 " style="fill:white; stroke-width:1; stroke:black; " description="&lt;b&gt;B446_02765&lt;/b&gt;&lt;br&gt;hypothetical protein&lt;br&gt;Location: 11170 - 10586" locus_tag="B446_02765" class="clusterblast-orf" id="knownclusterblast-1_all_1_4_1"  />
</g>
<g id="a1_002"  >
<polygon points="338,235 343,230 346,230 346,240 343,240 338,235 " style="fill:white; stroke-width:1; stroke:black; " description="&lt;b&gt;B446_02760&lt;/b&gt;&lt;br&gt;transcriptional regulator&lt;br&gt;Location: 10559 - 9843" locus_tag="B446_02760" class="clusterblast-orf" id="knownclusterblast-1_all_1_4_2"  />
</g>
<g id="a1_003"  >
<polygon points="348,235 353,230 357,230 357,240 353,240 348,235 " style="fill:white; stroke-width:1; stroke:black; " description="&lt;b&gt;B446_02755&lt;/b&gt;&lt;br&gt;hypothetical protein&lt;br&gt;Location: 9736 - 8897" locus_tag="B446_02755" class="clusterblast-orf" id="knownclusterblast-1_all_1_4_3"  />
</g>
<g id="a1_004"  >
<polygon points="358,235 363,230 376,230 376,240 363,240 358,235 " style="fill:#15d885; stroke-width:1; stroke:black; " description="&lt;b&gt;B446_02750&lt;/b&gt;&lt;br&gt;beta-carotene desaturase/methylase&lt;br&gt;Location: 8856 - 7222&lt;br&gt;&lt;br&gt;&lt;b&gt;BlastP hit with ctg42_30&lt;/b&gt;&lt;br&gt;Percentage identity: 59&lt;br&gt;Percentage coverage: 101&lt;br&gt;BLAST bit score: 530&lt;br&gt;E-value: 2e-150" locus_tag="B446_02750" class="clusterblast-orf" id="knownclusterblast-1_all_1_4_4"  />
</g>
<g id="a1_005"  >
<polygon points="376,235 381,230 385,230 385,240 381,240 376,235 " style="fill:#d8bc15; stroke-width:1; stroke:black; " description="&lt;b&gt;B446_02745&lt;/b&gt;&lt;br&gt;methyltransferase&lt;br&gt;Location: 7225 - 6491&lt;br&gt;&lt;br&gt;&lt;b&gt;BlastP hit with ctg42_29&lt;/b&gt;&lt;br&gt;Percentage identity: 52&lt;br&gt;Percentage coverage: 94&lt;br&gt;BLAST bit score: 235&lt;br&gt;E-value: 8.7e-62" locus_tag="B446_02745" class="clusterblast-orf" id="knownclusterblast-1_all_1_4_5"  />
</g>
<g id="a1_006"  >
<polygon points="387,235 392,230 401,230 401,240 392,240 387,235 " style="fill:white; stroke-width:1; stroke:black; " description="&lt;b&gt;B446_02740&lt;/b&gt;&lt;br&gt;lycopene cyclase&lt;br&gt;Location: 6279 - 5083" locus_tag="B446_02740" class="clusterblast-orf" id="knownclusterblast-1_all_1_4_6"  />
</g>
<g id="a1_007"  >
<polygon points="404,240 413,240 418,235 413,230 404,230 404,240 " style="fill:white; stroke-width:1; stroke:black; " description="&lt;b&gt;B446_02735&lt;/b&gt;&lt;br&gt;polyprenyl diphosphate synthase&lt;br&gt;Location: 4836 - 3565" locus_tag="B446_02735" class="clusterblast-orf" id="knownclusterblast-1_all_1_4_7"  />
</g>
<g id="a1_008"  >
<polygon points="419,240 431,240 436,235 431,230 419,230 419,240 " style="fill:#d81515; stroke-width:1; stroke:black; " description="&lt;b&gt;B446_02730&lt;/b&gt;&lt;br&gt;phytoene desaturase&lt;br&gt;Location: 3532 - 2030&lt;br&gt;&lt;br&gt;&lt;b&gt;BlastP hit with ctg42_25&lt;/b&gt;&lt;br&gt;Percentage identity: 64&lt;br&gt;Percentage coverage: 98&lt;br&gt;BLAST bit score: 601&lt;br&gt;E-value: 9.3e-172" locus_tag="B446_02730" class="clusterblast-orf" id="knownclusterblast-1_all_1_4_8"  />
</g>
<g id="a1_009"  >
<polygon points="436,240 442,240 447,235 442,230 436,230 436,240 " style="fill:#4dd815; stroke-width:1; stroke:black; " description="&lt;b&gt;B446_02725&lt;/b&gt;&lt;br&gt;phytoene synthase&lt;br&gt;Location: 2033 - 1017&lt;br&gt;&lt;br&gt;&lt;b&gt;BlastP hit with ctg42_26&lt;/b&gt;&lt;br&gt;Percentage identity: 58&lt;br&gt;Percentage coverage: 98&lt;br&gt;BLAST bit score: 316&lt;br&gt;E-value: 3.9e-86" locus_tag="B446_02725" class="clusterblast-orf" id="knownclusterblast-1_all_1_4_9"  />
</g>
<g id="a1_0010"  >
<polygon points="447,240 454,240 459,235 454,230 447,230 447,240 " style="fill:#4d15d8; stroke-width:1; stroke:black; " description="&lt;b&gt;B446_02720&lt;/b&gt;&lt;br&gt;iron-sulfur protein&lt;br&gt;Location: 1020 - 1&lt;br&gt;&lt;br&gt;&lt;b&gt;BlastP hit with ctg42_31&lt;/b&gt;&lt;br&gt;Percentage identity: 58&lt;br&gt;Percentage coverage: 101&lt;br&gt;BLAST bit score: 378&lt;br&gt;E-value: 1.5e-104" locus_tag="B446_02720" class="clusterblast-orf" id="knownclusterblast-1_all_1_4_10"  />
</g>
<g label="BGC0000633" description="BGC0000633_c1: Carotenoid (45% of genes show similarity), terpene" class="clusterblast-cluster"  >
<text x="5" y="270" class="clusterblast-acc"  >
<a xlink:href="https://mibig.secondarymetabolites.org/go/BGC0000633/1" target="_blank">BGC0000633</a>:                                                                       Carotenoid (45% of genes show similarity), terpene</text>
<line x1="10" y1="285" x2="778.0" y2="285" style="stroke-width:1; stroke:grey; "  />
</g>
<g id="a1_000"  >
<polygon points="308,290 312,285 308,280 308,290 " style="fill:white; stroke-width:1; stroke:black; " description="&lt;b&gt;BAB69138.1&lt;/b&gt;&lt;br&gt;hypothetical protein&lt;br&gt;Location: 1 - 363" locus_tag="BAB69138.1" class="clusterblast-orf" id="knownclusterblast-1_all_1_5_0"  />
</g>
<g id="a1_001"  >
<polygon points="313,285 318,280 319,280 319,290 318,290 313,285 " style="fill:white; stroke-width:1; stroke:black; " description="&lt;b&gt;BAB69139.1&lt;/b&gt;&lt;br&gt;integral membrane protein&lt;br&gt;Location: 419 - 967" locus_tag="BAB69139.1" class="clusterblast-orf" id="knownclusterblast-1_all_1_5_1"  />
</g>
<g id="a1_002"  >
<polygon points="321,285 326,280 338,280 338,290 326,290 321,285 " style="fill:#15d885; stroke-width:1; stroke:black; " description="&lt;b&gt;BAB69140.1&lt;/b&gt;&lt;br&gt;phytoene desaturase&lt;br&gt;Location: 1122 - 2624&lt;br&gt;&lt;br&gt;&lt;b&gt;BlastP hit with ctg42_30&lt;/b&gt;&lt;br&gt;Percentage identity: 58&lt;br&gt;Percentage coverage: 98&lt;br&gt;BLAST bit score: 515&lt;br&gt;E-value: 8.8e-146" locus_tag="BAB69140.1" class="clusterblast-orf" id="knownclusterblast-1_all_1_5_2"  />
</g>
<g id="a1_003"  >
<polygon points="338,285 343,280 347,280 347,290 343,290 338,285 " style="fill:#d8bc15; stroke-width:1; stroke:black; " description="&lt;b&gt;BAB69141.1&lt;/b&gt;&lt;br&gt;methyltransferase&lt;br&gt;Location: 2678 - 3409&lt;br&gt;&lt;br&gt;&lt;b&gt;BlastP hit with ctg42_29&lt;/b&gt;&lt;br&gt;Percentage identity: 53&lt;br&gt;Percentage coverage: 96&lt;br&gt;BLAST bit score: 235&lt;br&gt;E-value: 8.7e-62" locus_tag="BAB69141.1" class="clusterblast-orf" id="knownclusterblast-1_all_1_5_3"  />
</g>
<g id="a1_004"  >
<polygon points="347,285 352,280 363,280 363,290 352,290 347,285 " style="fill:white; stroke-width:1; stroke:black; " description="&lt;b&gt;BAB69142.1&lt;/b&gt;&lt;br&gt;lycopene cyclase&lt;br&gt;Location: 3453 - 4799" locus_tag="BAB69142.1" class="clusterblast-orf" id="knownclusterblast-1_all_1_5_4"  />
</g>
<g id="a1_005"  >
<polygon points="366,290 374,290 379,285 374,280 366,280 366,290 " style="fill:white; stroke-width:1; stroke:black; " description="&lt;b&gt;BAB69143.1&lt;/b&gt;&lt;br&gt;geranylgeranyl pyrophosphase synthase&lt;br&gt;Location: 5061 - 6200" locus_tag="BAB69143.1" class="clusterblast-orf" id="knownclusterblast-1_all_1_5_5"  />
</g>
<g id="a1_006"  >
<polygon points="379,290 391,290 396,285 391,280 379,280 379,290 " style="fill:#d81515; stroke-width:1; stroke:black; " description="&lt;b&gt;BAB69144.1&lt;/b&gt;&lt;br&gt;phytoene synthase&lt;br&gt;Location: 6197 - 7738&lt;br&gt;&lt;br&gt;&lt;b&gt;BlastP hit with ctg42_25&lt;/b&gt;&lt;br&gt;Percentage identity: 66&lt;br&gt;Percentage coverage: 99&lt;br&gt;BLAST bit score: 619&lt;br&gt;E-value: 4.3e-177" locus_tag="BAB69144.1" class="clusterblast-orf" id="knownclusterblast-1_all_1_5_6"  />
</g>
<g id="a1_007"  >
<polygon points="396,290 403,290 408,285 403,280 396,280 396,290 " style="fill:#4dd815; stroke-width:1; stroke:black; " description="&lt;b&gt;BAB69145.1&lt;/b&gt;&lt;br&gt;phytoene synthase&lt;br&gt;Location: 7735 - 8763&lt;br&gt;&lt;br&gt;&lt;b&gt;BlastP hit with ctg42_26&lt;/b&gt;&lt;br&gt;Percentage identity: 57&lt;br&gt;Percentage coverage: 99&lt;br&gt;BLAST bit score: 322&lt;br&gt;E-value: 5.4e-88" locus_tag="BAB69145.1" class="clusterblast-orf" id="knownclusterblast-1_all_1_5_7"  />
</g>
<g id="a1_008"  >
<polygon points="408,290 415,290 420,285 415,280 408,280 408,290 " style="fill:#4d15d8; stroke-width:1; stroke:black; " description="&lt;b&gt;BAB69146.1&lt;/b&gt;&lt;br&gt;methyltransferase&lt;br&gt;Location: 8760 - 9839&lt;br&gt;&lt;br&gt;&lt;b&gt;BlastP hit with ctg42_31&lt;/b&gt;&lt;br&gt;Percentage identity: 59&lt;br&gt;Percentage coverage: 97&lt;br&gt;BLAST bit score: 364&lt;br&gt;E-value: 1.3e-100" locus_tag="BAB69146.1" class="clusterblast-orf" id="knownclusterblast-1_all_1_5_8"  />
</g>
<g id="a1_009"  >
<polygon points="423,285 428,280 447,280 447,290 428,290 423,285 " style="fill:white; stroke-width:1; stroke:black; " description="&lt;b&gt;BAB69147.1&lt;/b&gt;&lt;br&gt;secreted protein&lt;br&gt;Location: 10060 - 12159" locus_tag="BAB69147.1" class="clusterblast-orf" id="knownclusterblast-1_all_1_5_9"  />
</g>
<g id="a1_0010"  >
<polygon points="448,285 453,280 471,280 471,290 453,290 448,285 " style="fill:white; stroke-width:1; stroke:black; " description="&lt;b&gt;BAB69148.1&lt;/b&gt;&lt;br&gt;beta-galactosidase&lt;br&gt;Location: 12242 - 14284" locus_tag="BAB69148.1" class="clusterblast-orf" id="knownclusterblast-1_all_1_5_10"  />
</g>
<g label="BGC0001087" description="BGC0001087_c4: Sioxanthin (40% of genes show similarity), saccharide-terpene" class="clusterblast-cluster"  >
<text x="5" y="320" class="clusterblast-acc"  >
<a xlink:href="https://mibig.secondarymetabolites.org/go/BGC0001087/4" target="_blank">BGC0001087</a>:                                                                       Sioxanthin (40% of genes show similarity), saccharide-terpene</text>
<line x1="10" y1="335" x2="778.0" y2="335" style="stroke-width:1; stroke:grey; "  />
</g>
<g id="a1_000"  >
<polygon points="360,335 365,330 371,330 371,340 365,340 360,335 " style="fill:#4dd815; stroke-width:1; stroke:black; " description="&lt;b&gt;Strop_4441&lt;/b&gt;&lt;br&gt;phytoene synthase&lt;br&gt;Location: 5194 - 4256&lt;br&gt;&lt;br&gt;&lt;b&gt;BlastP hit with ctg42_26&lt;/b&gt;&lt;br&gt;Percentage identity: 47&lt;br&gt;Percentage coverage: 92&lt;br&gt;BLAST bit score: 232&lt;br&gt;E-value: 9.6e-61" locus_tag="Strop_4441" class="clusterblast-orf" id="knownclusterblast-1_all_1_6_0"  />
</g>
<g id="a1_001"  >
<polygon points="371,340 379,340 384,335 379,330 371,330 371,340 " style="fill:white; stroke-width:1; stroke:black; " description="&lt;b&gt;Strop_4440&lt;/b&gt;&lt;br&gt;Polyprenyl synthetase&lt;br&gt;Location: 4193 - 3039" locus_tag="Strop_4440" class="clusterblast-orf" id="knownclusterblast-1_all_1_6_1"  />
</g>
<g id="a1_002"  >
<polygon points="385,340 397,340 402,335 397,330 385,330 385,340 " style="fill:#d81515; stroke-width:1; stroke:black; " description="&lt;b&gt;Strop_4439&lt;/b&gt;&lt;br&gt;UDP-galactopyranose mutase&lt;br&gt;Location: 3009 - 1531&lt;br&gt;&lt;br&gt;&lt;b&gt;BlastP hit with ctg42_25&lt;/b&gt;&lt;br&gt;Percentage identity: 55&lt;br&gt;Percentage coverage: 100&lt;br&gt;BLAST bit score: 503&lt;br&gt;E-value: 2.6e-142" locus_tag="Strop_4439" class="clusterblast-orf" id="knownclusterblast-1_all_1_6_2"  />
</g>
<g id="a1_003"  >
<polygon points="402,340 404,340 409,335 404,330 402,330 402,340 " style="fill:white; stroke-width:1; stroke:black; " description="&lt;b&gt;Strop_4438&lt;/b&gt;&lt;br&gt;isopentenyl-diphosphate delta-isomerase&lt;br&gt;Location: 1534 - 935" locus_tag="Strop_4438" class="clusterblast-orf" id="knownclusterblast-1_all_1_6_3"  />
</g>
<g id="a1_004"  >
<polygon points="408,340 414,340 419,335 414,330 408,330 408,340 " style="fill:white; stroke-width:1; stroke:black; " description="&lt;b&gt;Strop_4437&lt;/b&gt;&lt;br&gt;regulatory protein, MerR&lt;br&gt;Location: 945 - 1" locus_tag="Strop_4437" class="clusterblast-orf" id="knownclusterblast-1_all_1_6_4"  />
</g>
<g label="BGC0000636" description="BGC0000636_c1: Carotenoid (21% of genes show similarity), terpene" class="clusterblast-cluster"  >
<text x="5" y="370" class="clusterblast-acc"  >
<a xlink:href="https://mibig.secondarymetabolites.org/go/BGC0000636/1" target="_blank">BGC0000636</a>:                                                                       Carotenoid (21% of genes show similarity), terpene</text>
<line x1="10" y1="385" x2="778.0" y2="385" style="stroke-width:1; stroke:grey; "  />
</g>
<g id="a1_000"  >
<polygon points="308,385 313,380 316,380 316,390 313,390 308,385 " style="fill:white; stroke-width:1; stroke:black; " description="&lt;b&gt;AAF65593.1&lt;/b&gt;&lt;br&gt;hypothetical protein&lt;br&gt;Location: 14167 - 13472" locus_tag="AAF65593.1" class="clusterblast-orf" id="knownclusterblast-1_all_1_7_0"  />
</g>
<g id="a1_001"  >
<polygon points="317,385 322,380 331,380 331,390 322,390 317,385 " style="fill:white; stroke-width:1; stroke:black; " description="&lt;b&gt;AAF65592.1&lt;/b&gt;&lt;br&gt;hypothetical protein&lt;br&gt;Location: 13446 - 12190" locus_tag="AAF65592.1" class="clusterblast-orf" id="knownclusterblast-1_all_1_7_1"  />
</g>
<g id="a1_002"  >
<polygon points="333,390 334,390 339,385 334,380 333,380 333,390 " style="fill:white; stroke-width:1; stroke:black; " description="&lt;b&gt;AAF65591.1&lt;/b&gt;&lt;br&gt;isopentenyl diphosphate isomerase&lt;br&gt;Location: 12019 - 11471" locus_tag="AAF65591.1" class="clusterblast-orf" id="knownclusterblast-1_all_1_7_2"  />
</g>
<g id="a1_003"  >
<polygon points="338,390 346,390 351,385 346,380 338,380 338,390 " style="fill:white; stroke-width:1; stroke:black; " description="&lt;b&gt;AAF65590.1&lt;/b&gt;&lt;br&gt;GGPP synthase&lt;br&gt;Location: 11571 - 10414" locus_tag="AAF65590.1" class="clusterblast-orf" id="knownclusterblast-1_all_1_7_3"  />
</g>
<g id="a1_004"  >
<polygon points="351,390 360,390 365,385 360,380 351,380 351,390 " style="fill:white; stroke-width:1; stroke:black; " description="&lt;b&gt;AAF65589.1&lt;/b&gt;&lt;br&gt;hypothetical protein&lt;br&gt;Location: 10417 - 9188" locus_tag="AAF65589.1" class="clusterblast-orf" id="knownclusterblast-1_all_1_7_4"  />
</g>
<g id="a1_005"  >
<polygon points="365,390 365,390 370,385 365,380 365,380 365,390 " style="fill:#1585d8; stroke-width:1; stroke:black; " description="&lt;b&gt;AAF65588.1&lt;/b&gt;&lt;br&gt;lycopene cyclase&lt;br&gt;Location: 9191 - 8814&lt;br&gt;&lt;br&gt;&lt;b&gt;BlastP hit with ctg42_27&lt;/b&gt;&lt;br&gt;Percentage identity: 51&lt;br&gt;Percentage coverage: 91&lt;br&gt;BLAST bit score: 99&lt;br&gt;E-value: 3.4e-21" locus_tag="AAF65588.1" class="clusterblast-orf" id="knownclusterblast-1_all_1_7_5"  />
</g>
<g id="a1_006"  >
<polygon points="370,390 373,385 370,380 370,390 " style="fill:#d815bc; stroke-width:1; stroke:black; " description="&lt;b&gt;AAF65587.1&lt;/b&gt;&lt;br&gt;lycopene cyclase&lt;br&gt;Location: 8824 - 8501&lt;br&gt;&lt;br&gt;&lt;b&gt;BlastP hit with ctg42_28&lt;/b&gt;&lt;br&gt;Percentage identity: 54&lt;br&gt;Percentage coverage: 86&lt;br&gt;BLAST bit score: 111&lt;br&gt;E-value: 6.3e-25" locus_tag="AAF65587.1" class="clusterblast-orf" id="knownclusterblast-1_all_1_7_6"  />
</g>
<g id="a1_007"  >
<polygon points="373,390 386,390 391,385 386,380 373,380 373,390 " style="fill:#15d885; stroke-width:1; stroke:black; " description="&lt;b&gt;AAF65586.1&lt;/b&gt;&lt;br&gt;betacarotene desaturase&lt;br&gt;Location: 8504 - 6951&lt;br&gt;&lt;br&gt;&lt;b&gt;BlastP hit with ctg42_30&lt;/b&gt;&lt;br&gt;Percentage identity: 49&lt;br&gt;Percentage coverage: 101&lt;br&gt;BLAST bit score: 425&lt;br&gt;E-value: 1.2e-118" locus_tag="AAF65586.1" class="clusterblast-orf" id="knownclusterblast-1_all_1_7_7"  />
</g>
<g id="a1_008"  >
<polygon points="392,390 392,390 397,385 392,380 392,380 392,390 " style="fill:white; stroke-width:1; stroke:black; " description="&lt;b&gt;AAF65585.1&lt;/b&gt;&lt;br&gt;hypothetical protein&lt;br&gt;Location: 6904 - 6386" locus_tag="AAF65585.1" class="clusterblast-orf" id="knownclusterblast-1_all_1_7_8"  />
</g>
<g id="a1_009"  >
<polygon points="397,390 409,390 414,385 409,380 397,380 397,390 " style="fill:white; stroke-width:1; stroke:black; " description="&lt;b&gt;AAF65584.1&lt;/b&gt;&lt;br&gt;hypothetical DNA photolyase&lt;br&gt;Location: 6386 - 4923" locus_tag="AAF65584.1" class="clusterblast-orf" id="knownclusterblast-1_all_1_7_9"  />
</g>
<g id="a1_0010"  >
<polygon points="415,390 419,390 424,385 419,380 415,380 415,390 " style="fill:white; stroke-width:1; stroke:black; " description="&lt;b&gt;AAF65583.1&lt;/b&gt;&lt;br&gt;hypothetical protein&lt;br&gt;Location: 4856 - 4044" locus_tag="AAF65583.1" class="clusterblast-orf" id="knownclusterblast-1_all_1_7_10"  />
</g>
<g id="a1_0011"  >
<polygon points="425,385 430,380 443,380 443,390 430,390 425,385 " style="fill:white; stroke-width:1; stroke:black; " description="&lt;b&gt;AAF65582.1&lt;/b&gt;&lt;br&gt;phytoene desaturase&lt;br&gt;Location: 4017 - 2431" locus_tag="AAF65582.1" class="clusterblast-orf" id="knownclusterblast-1_all_1_7_11"  />
</g>
<g id="a1_0012"  >
<polygon points="443,385 448,380 453,380 453,390 448,390 443,385 " style="fill:white; stroke-width:1; stroke:black; " description="&lt;b&gt;AAF65581.1&lt;/b&gt;&lt;br&gt;phytoene synthase&lt;br&gt;Location: 2434 - 1535" locus_tag="AAF65581.1" class="clusterblast-orf" id="knownclusterblast-1_all_1_7_12"  />
</g>
<g id="a1_0013"  >
<polygon points="455,385 460,380 470,380 470,390 460,390 455,385 " style="fill:white; stroke-width:1; stroke:black; " description="&lt;b&gt;AAF65580.1&lt;/b&gt;&lt;br&gt;hypothetical protein&lt;br&gt;Location: 1373 - 1" locus_tag="AAF65580.1" class="clusterblast-orf" id="knownclusterblast-1_all_1_7_13"  />
</g>
<g label="BGC0001702" description="BGC0001702_c1: Nocamycin (7% of genes show similarity), nrps-t1pks" class="clusterblast-cluster"  >
<text x="5" y="420" class="clusterblast-acc"  >
<a xlink:href="https://mibig.secondarymetabolites.org/go/BGC0001702/1" target="_blank">BGC0001702</a>:                                                                        Nocamycin (7% of genes show similarity), nrps-t1pks</text>
<line x1="10" y1="435" x2="778.0" y2="435" style="stroke-width:1; stroke:grey; "  />
</g>
<g id="a1_000"  >
<polygon points="0,440 6,440 11,435 6,430 0,430 0,440 " style="fill:#4d15d8; stroke-width:1; stroke:black; " description="&lt;b&gt;ARS01487.1&lt;/b&gt;&lt;br&gt;2Fe-2S ferredoxin&lt;br&gt;Location: 68204 - 67236&lt;br&gt;&lt;br&gt;&lt;b&gt;BlastP hit with ctg42_31&lt;/b&gt;&lt;br&gt;Percentage identity: 64&lt;br&gt;Percentage coverage: 98&lt;br&gt;BLAST bit score: 416&lt;br&gt;E-value: 2.8e-116" locus_tag="ARS01487.1" class="clusterblast-orf" id="knownclusterblast-1_all_1_8_0"  />
</g>
<g id="a1_001"  >
<polygon points="13,435 18,430 21,430 21,440 18,440 13,435 " style="fill:#d8bc15; stroke-width:1; stroke:black; " description="&lt;b&gt;ARS01486.1&lt;/b&gt;&lt;br&gt;ubiquinone biosynthesis methyltransferase UbiE&lt;br&gt;Location: 67047 - 66349&lt;br&gt;&lt;br&gt;&lt;b&gt;BlastP hit with ctg42_29&lt;/b&gt;&lt;br&gt;Percentage identity: 65&lt;br&gt;Percentage coverage: 94&lt;br&gt;BLAST bit score: 288&lt;br&gt;E-value: 1.1e-77" locus_tag="ARS01486.1" class="clusterblast-orf" id="knownclusterblast-1_all_1_8_1"  />
</g>
<g id="a1_002"  >
<polygon points="22,440 26,435 22,430 22,440 " style="fill:white; stroke-width:1; stroke:black; " description="&lt;b&gt;ARS01485.1&lt;/b&gt;&lt;br&gt;Ohr subfamily peroxiredoxin&lt;br&gt;Location: 66254 - 65862" locus_tag="ARS01485.1" class="clusterblast-orf" id="knownclusterblast-1_all_1_8_2"  />
</g>
<g id="a1_003"  >
<polygon points="29,435 34,430 36,430 36,440 34,440 29,435 " style="fill:white; stroke-width:1; stroke:black; " description="&lt;b&gt;ARS01484.1&lt;/b&gt;&lt;br&gt;NcmK&lt;br&gt;Location: 65655 - 65014" locus_tag="ARS01484.1" class="clusterblast-orf" id="knownclusterblast-1_all_1_8_3"  />
</g>
<g id="a1_004"  >
<polygon points="37,440 57,440 62,435 57,430 37,430 37,440 " style="fill:white; stroke-width:1; stroke:black; " description="&lt;b&gt;ARS01483.1&lt;/b&gt;&lt;br&gt;NcmJ&lt;br&gt;Location: 64915 - 62774" locus_tag="ARS01483.1" class="clusterblast-orf" id="knownclusterblast-1_all_1_8_4"  />
</g>
<g id="a1_005"  >
<polygon points="63,440 65,440 70,435 65,430 63,430 63,440 " style="fill:white; stroke-width:1; stroke:black; " description="&lt;b&gt;ARS01482.1&lt;/b&gt;&lt;br&gt;NcmI&lt;br&gt;Location: 62631 - 62038" locus_tag="ARS01482.1" class="clusterblast-orf" id="knownclusterblast-1_all_1_8_5"  />
</g>
<g id="a1_006"  >
<polygon points="70,440 84,440 89,435 84,430 70,430 70,440 " style="fill:white; stroke-width:1; stroke:black; " description="&lt;b&gt;ARS01481.1&lt;/b&gt;&lt;br&gt;NcmH&lt;br&gt;Location: 62041 - 60410" locus_tag="ARS01481.1" class="clusterblast-orf" id="knownclusterblast-1_all_1_8_6"  />
</g>
<g id="a1_007"  >
<polygon points="91,435 96,430 105,430 105,440 96,440 91,435 " style="fill:white; stroke-width:1; stroke:black; " description="&lt;b&gt;ARS01480.1&lt;/b&gt;&lt;br&gt;NcmG&lt;br&gt;Location: 60164 - 58971" locus_tag="ARS01480.1" class="clusterblast-orf" id="knownclusterblast-1_all_1_8_7"  />
</g>
<g id="a1_008"  >
<polygon points="105,435 110,430 122,430 122,440 110,440 105,435 " style="fill:white; stroke-width:1; stroke:black; " description="&lt;b&gt;ARS01479.1&lt;/b&gt;&lt;br&gt;NcmF&lt;br&gt;Location: 58965 - 57502" locus_tag="ARS01479.1" class="clusterblast-orf" id="knownclusterblast-1_all_1_8_8"  />
</g>
<g id="a1_009"  >
<polygon points="122,435 127,430 131,430 131,440 127,440 122,435 " style="fill:white; stroke-width:1; stroke:black; " description="&lt;b&gt;ARS01478.1&lt;/b&gt;&lt;br&gt;NcmE&lt;br&gt;Location: 57505 - 56684" locus_tag="ARS01478.1" class="clusterblast-orf" id="knownclusterblast-1_all_1_8_9"  />
</g>
<g id="a1_0010"  >
<polygon points="132,435 137,430 224,430 224,440 137,440 132,435 " style="fill:white; stroke-width:1; stroke:black; " description="&lt;b&gt;ARS01477.1&lt;/b&gt;&lt;br&gt;NcmAV&lt;br&gt;Location: 56591 - 48552" locus_tag="ARS01477.1" class="clusterblast-orf" id="knownclusterblast-1_all_1_8_10"  />
</g>
<g id="a1_0011"  >
<polygon points="224,435 229,430 286,430 286,440 229,440 224,435 " style="fill:white; stroke-width:1; stroke:black; " description="&lt;b&gt;ARS01476.1&lt;/b&gt;&lt;br&gt;NcmAIV&lt;br&gt;Location: 48550 - 43190" locus_tag="ARS01476.1" class="clusterblast-orf" id="knownclusterblast-1_all_1_8_11"  />
</g>
<g id="a1_0012"  >
<polygon points="285,435 290,430 339,430 339,440 290,440 285,435 " style="fill:white; stroke-width:1; stroke:black; " description="&lt;b&gt;ARS01475.1&lt;/b&gt;&lt;br&gt;NcmAIII&lt;br&gt;Location: 43197 - 38533" locus_tag="ARS01475.1" class="clusterblast-orf" id="knownclusterblast-1_all_1_8_12"  />
</g>
<g id="a1_0013"  >
<polygon points="339,435 344,430 400,430 400,440 344,440 339,435 " style="fill:white; stroke-width:1; stroke:black; " description="&lt;b&gt;ARS01474.1&lt;/b&gt;&lt;br&gt;NcmAII&lt;br&gt;Location: 38533 - 33173" locus_tag="ARS01474.1" class="clusterblast-orf" id="knownclusterblast-1_all_1_8_13"  />
</g>
<g id="a1_0014"  >
<polygon points="400,435 405,430 569,430 569,440 405,440 400,435 " style="fill:white; stroke-width:1; stroke:black; " description="&lt;b&gt;ARS01473.1&lt;/b&gt;&lt;br&gt;NcmAI&lt;br&gt;Location: 33173 - 18426" locus_tag="ARS01473.1" class="clusterblast-orf" id="knownclusterblast-1_all_1_8_14"  />
</g>
<g id="a1_0015"  >
<polygon points="572,435 577,430 577,430 577,440 577,440 572,435 " style="fill:white; stroke-width:1; stroke:black; " description="&lt;b&gt;ARS01472.1&lt;/b&gt;&lt;br&gt;NcmQ&lt;br&gt;Location: 18112 - 17750" locus_tag="ARS01472.1" class="clusterblast-orf" id="knownclusterblast-1_all_1_8_15"  />
</g>
<g id="a1_0016"  >
<polygon points="578,440 582,440 587,435 582,430 578,430 578,440 " style="fill:white; stroke-width:1; stroke:black; " description="&lt;b&gt;ARS01471.1&lt;/b&gt;&lt;br&gt;NcmD&lt;br&gt;Location: 17652 - 16837" locus_tag="ARS01471.1" class="clusterblast-orf" id="knownclusterblast-1_all_1_8_16"  />
</g>
<g id="a1_0017"  >
<polygon points="587,435 592,430 625,430 625,440 592,440 587,435 " style="fill:white; stroke-width:1; stroke:black; " description="&lt;b&gt;ARS01470.1&lt;/b&gt;&lt;br&gt;NcmB&lt;br&gt;Location: 16840 - 13526" locus_tag="ARS01470.1" class="clusterblast-orf" id="knownclusterblast-1_all_1_8_17"  />
</g>
<g id="a1_0018"  >
<polygon points="625,435 630,430 634,430 634,440 630,440 625,435 " style="fill:white; stroke-width:1; stroke:black; " description="&lt;b&gt;ARS01469.1&lt;/b&gt;&lt;br&gt;NcmC&lt;br&gt;Location: 13515 - 12697" locus_tag="ARS01469.1" class="clusterblast-orf" id="knownclusterblast-1_all_1_8_18"  />
</g>
<g id="a1_0019"  >
<polygon points="634,435 639,430 644,430 644,440 639,440 634,435 " style="fill:white; stroke-width:1; stroke:black; " description="&lt;b&gt;ARS01468.1&lt;/b&gt;&lt;br&gt;NcmP&lt;br&gt;Location: 12700 - 11858" locus_tag="ARS01468.1" class="clusterblast-orf" id="knownclusterblast-1_all_1_8_19"  />
</g>
<g id="a1_0020"  >
<polygon points="644,435 649,430 657,430 657,440 649,440 644,435 " style="fill:white; stroke-width:1; stroke:black; " description="&lt;b&gt;ARS01467.1&lt;/b&gt;&lt;br&gt;NcmO&lt;br&gt;Location: 11843 - 10689" locus_tag="ARS01467.1" class="clusterblast-orf" id="knownclusterblast-1_all_1_8_20"  />
</g>
<g id="a1_0021"  >
<polygon points="662,435 667,430 693,430 693,440 667,440 662,435 " style="fill:white; stroke-width:1; stroke:black; " description="&lt;b&gt;ARS01466.1&lt;/b&gt;&lt;br&gt;NcmN&lt;br&gt;Location: 10284 - 7606" locus_tag="ARS01466.1" class="clusterblast-orf" id="knownclusterblast-1_all_1_8_21"  />
</g>
<g id="a1_0022"  >
<polygon points="700,440 712,440 717,435 712,430 700,430 700,440 " style="fill:white; stroke-width:1; stroke:black; " description="&lt;b&gt;ARS01465.1&lt;/b&gt;&lt;br&gt;NcmL&lt;br&gt;Location: 6996 - 5461" locus_tag="ARS01465.1" class="clusterblast-orf" id="knownclusterblast-1_all_1_8_22"  />
</g>
<g id="a1_0023"  >
<polygon points="717,440 720,440 725,435 720,430 717,430 717,440 " style="fill:white; stroke-width:1; stroke:black; " description="&lt;b&gt;ARS01464.1&lt;/b&gt;&lt;br&gt;NcmM&lt;br&gt;Location: 5444 - 4770" locus_tag="ARS01464.1" class="clusterblast-orf" id="knownclusterblast-1_all_1_8_23"  />
</g>
<g id="a1_0024"  >
<polygon points="730,435 735,430 745,430 745,440 735,440 730,435 " style="fill:white; stroke-width:1; stroke:black; " description="&lt;b&gt;ARS01463.1&lt;/b&gt;&lt;br&gt;hypothetical protein&lt;br&gt;Location: 4371 - 3004" locus_tag="ARS01463.1" class="clusterblast-orf" id="knownclusterblast-1_all_1_8_24"  />
</g>
<g id="a1_0025"  >
<polygon points="746,435 751,430 769,430 769,440 751,440 746,435 " style="fill:white; stroke-width:1; stroke:black; " description="&lt;b&gt;ARS01462.1&lt;/b&gt;&lt;br&gt;helicase&lt;br&gt;Location: 2918 - 924" locus_tag="ARS01462.1" class="clusterblast-orf" id="knownclusterblast-1_all_1_8_25"  />
</g>
<g id="a1_0026"  >
<polygon points="770,440 775,440 780,435 775,430 770,430 770,440 " style="fill:white; stroke-width:1; stroke:black; " description="&lt;b&gt;ARS01461.1&lt;/b&gt;&lt;br&gt;short-chain dehydrogenase&lt;br&gt;Location: 816 - 1" locus_tag="ARS01461.1" class="clusterblast-orf" id="knownclusterblast-1_all_1_8_26"  />
</g>
</svg>
