<svg xmlns="http://www.w3.org/2000/svg" xmlns:xlink="http://www.w3.org/1999/xlink" version="1.1" x="0" y="0" height="50" width="800" viewBox="0 0 800 50" preserveAspectRatio="none"  >
<g label="Query sequence" class="clusterblast-cluster"  >
<text x="5" y="20" class="clusterblast-acc"  >
Query sequence</text>
<line x1="10" y1="35" x2="778.0" y2="35" style="stroke-width:1; stroke:grey; "  />
<polygon points="0,35 5,30 73,30 73,40 5,40 0,35 " style="fill:white; stroke-width:1; stroke:black; " description="&lt;b&gt;ctg90_1&lt;/b&gt;&lt;br&gt;ctg90 1&lt;br&gt;Location: 2 - 1100" locus_tag="ctg90_1" class="clusterblast-orf" id="subclusterblast-1_q0_0_all"  />
<polygon points="74,35 79,30 152,30 152,40 79,40 74,35 " style="fill:white; stroke-width:1; stroke:black; " description="&lt;b&gt;ctg90_2&lt;/b&gt;&lt;br&gt;ctg90 2&lt;br&gt;Location: 1119 - 2289" locus_tag="ctg90_2" class="clusterblast-orf" id="subclusterblast-1_q1_0_all"  />
<polygon points="178,40 204,40 209,35 204,30 178,30 178,40 " style="fill:white; stroke-width:1; stroke:black; " description="&lt;b&gt;ctg90_3&lt;/b&gt;&lt;br&gt;ctg90 3&lt;br&gt;Location: 2680 - 3148" locus_tag="ctg90_3" class="clusterblast-orf" id="subclusterblast-1_q2_0_all"  />
<polygon points="208,35 213,30 306,30 306,40 213,40 208,35 " style="fill:white; stroke-width:1; stroke:black; " description="&lt;b&gt;ctg90_4&lt;/b&gt;&lt;br&gt;ctg90 4&lt;br&gt;Location: 3138 - 4605" locus_tag="ctg90_4" class="clusterblast-orf" id="subclusterblast-1_q3_0_all"  />
<polygon points="306,35 311,30 363,30 363,40 311,40 306,35 " style="fill:white; stroke-width:1; stroke:black; " description="&lt;b&gt;ctg90_5&lt;/b&gt;&lt;br&gt;ctg90 5&lt;br&gt;Location: 4609 - 5473" locus_tag="ctg90_5" class="clusterblast-orf" id="subclusterblast-1_q4_0_all"  />
<polygon points="371,35 376,30 454,30 454,40 376,40 371,35 " style="fill:white; stroke-width:1; stroke:black; " description="&lt;b&gt;ctg90_6&lt;/b&gt;&lt;br&gt;ctg90 6&lt;br&gt;Location: 5583 - 6834" locus_tag="ctg90_6" class="clusterblast-orf" id="subclusterblast-1_q5_0_all"  />
<polygon points="456,35 461,30 468,30 468,40 461,40 456,35 " style="fill:white; stroke-width:1; stroke:black; " description="&lt;b&gt;ctg90_7&lt;/b&gt;&lt;br&gt;ctg90 7&lt;br&gt;Location: 6874 - 7057" locus_tag="ctg90_7" class="clusterblast-orf" id="subclusterblast-1_q6_0_all"  />
<polygon points="464,35 469,30 492,30 492,40 469,40 464,35 " style="fill:white; stroke-width:1; stroke:black; " description="&lt;b&gt;ctg90_8&lt;/b&gt;&lt;br&gt;ctg90 8&lt;br&gt;Location: 6996 - 7407" locus_tag="ctg90_8" class="clusterblast-orf" id="subclusterblast-1_q7_0_all"  />
<polygon points="542,40 579,40 584,35 579,30 542,30 542,40 " style="fill:white; stroke-width:1; stroke:black; " description="&lt;b&gt;ctg90_9&lt;/b&gt;&lt;br&gt;ctg90 9&lt;br&gt;Location: 8172 - 8793" locus_tag="ctg90_9" class="clusterblast-orf" id="subclusterblast-1_q8_0_all"  />
<polygon points="582,40 603,40 608,35 603,30 582,30 582,40 " style="fill:white; stroke-width:1; stroke:black; " description="&lt;b&gt;ctg90_10&lt;/b&gt;&lt;br&gt;ctg90 10&lt;br&gt;Location: 8767 - 9154" locus_tag="ctg90_10" class="clusterblast-orf" id="subclusterblast-1_q9_0_all"  />
<polygon points="607,40 630,40 635,35 630,30 607,30 607,40 " style="fill:white; stroke-width:1; stroke:black; " description="&lt;b&gt;ctg90_11&lt;/b&gt;&lt;br&gt;ctg90 11&lt;br&gt;Location: 9150 - 9564" locus_tag="ctg90_11" class="clusterblast-orf" id="subclusterblast-1_q10_0_all"  />
<polygon points="638,35 643,30 686,30 686,40 643,40 638,35 " style="fill:white; stroke-width:1; stroke:black; " description="&lt;b&gt;ctg90_12&lt;/b&gt;&lt;br&gt;ctg90 12&lt;br&gt;Location: 9610 - 10336" locus_tag="ctg90_12" class="clusterblast-orf" id="subclusterblast-1_q11_0_all"  />
<polygon points="686,35 691,30 780,30 780,40 691,40 686,35 " style="fill:white; stroke-width:1; stroke:black; " description="&lt;b&gt;ctg90_13&lt;/b&gt;&lt;br&gt;ctg90 13&lt;br&gt;Location: 10332 - 11754" locus_tag="ctg90_13" class="clusterblast-orf" id="subclusterblast-1_q12_0_all"  />
</g>
</svg>
