<svg xmlns="http://www.w3.org/2000/svg" xmlns:xlink="http://www.w3.org/1999/xlink" version="1.1" x="0" y="0" height="50" width="800" viewBox="0 0 800 50" preserveAspectRatio="none"  >
<g label="Query sequence" class="clusterblast-cluster"  >
<text x="5" y="20" class="clusterblast-acc"  >
Query sequence</text>
<line x1="10" y1="35" x2="778.0" y2="35" style="stroke-width:1; stroke:grey; "  />
<polygon points="0,40 30,40 35,35 30,30 0,30 0,40 " style="fill:white; stroke-width:1; stroke:black; " description="&lt;b&gt;ctg108_1&lt;/b&gt;&lt;br&gt;ctg108 1&lt;br&gt;Location: 2 - 1151" locus_tag="ctg108_1" class="clusterblast-orf" id="subclusterblast-1_q0_0_all"  />
<polygon points="43,35 48,30 81,30 81,40 48,40 43,35 " style="fill:white; stroke-width:1; stroke:black; " description="&lt;b&gt;ctg108_2&lt;/b&gt;&lt;br&gt;ctg108 2&lt;br&gt;Location: 1417 - 2638" locus_tag="ctg108_2" class="clusterblast-orf" id="subclusterblast-1_q1_0_all"  />
<polygon points="81,35 86,30 111,30 111,40 86,40 81,35 " style="fill:white; stroke-width:1; stroke:black; " description="&lt;b&gt;ctg108_3&lt;/b&gt;&lt;br&gt;ctg108 3&lt;br&gt;Location: 2660 - 3620" locus_tag="ctg108_3" class="clusterblast-orf" id="subclusterblast-1_q2_0_all"  />
<polygon points="113,35 118,30 161,30 161,40 118,40 113,35 " style="fill:white; stroke-width:1; stroke:black; " description="&lt;b&gt;ctg108_4&lt;/b&gt;&lt;br&gt;ctg108 4&lt;br&gt;Location: 3681 - 5262" locus_tag="ctg108_4" class="clusterblast-orf" id="subclusterblast-1_q3_0_all"  />
<polygon points="161,35 166,30 349,30 349,40 166,40 161,35 " style="fill:white; stroke-width:1; stroke:black; " description="&lt;b&gt;ctg108_5&lt;/b&gt;&lt;br&gt;ctg108 5&lt;br&gt;Location: 5269 - 11404" locus_tag="ctg108_5" class="clusterblast-orf" id="subclusterblast-1_q4_0_all"  />
<polygon points="349,35 354,30 399,30 399,40 354,40 349,35 " style="fill:white; stroke-width:1; stroke:black; " description="&lt;b&gt;ctg108_6&lt;/b&gt;&lt;br&gt;ctg108 6&lt;br&gt;Location: 11400 - 13026" locus_tag="ctg108_6" class="clusterblast-orf" id="subclusterblast-1_q5_0_all"  />
<polygon points="403,35 408,30 447,30 447,40 408,40 403,35 " style="fill:white; stroke-width:1; stroke:black; " description="&lt;b&gt;ctg108_7&lt;/b&gt;&lt;br&gt;ctg108 7&lt;br&gt;Location: 13163 - 14585" locus_tag="ctg108_7" class="clusterblast-orf" id="subclusterblast-1_q6_0_all"  />
<polygon points="447,35 452,30 475,30 475,40 452,40 447,35 " style="fill:white; stroke-width:1; stroke:black; " description="&lt;b&gt;ctg108_8&lt;/b&gt;&lt;br&gt;ctg108 8&lt;br&gt;Location: 14591 - 15524" locus_tag="ctg108_8" class="clusterblast-orf" id="subclusterblast-1_q7_0_all"  />
<polygon points="475,35 480,30 525,30 525,40 480,40 475,35 " style="fill:white; stroke-width:1; stroke:black; " description="&lt;b&gt;ctg108_9&lt;/b&gt;&lt;br&gt;ctg108 9&lt;br&gt;Location: 15524 - 17135" locus_tag="ctg108_9" class="clusterblast-orf" id="subclusterblast-1_q8_0_all"  />
<polygon points="525,35 530,30 585,30 585,40 530,40 525,35 " style="fill:white; stroke-width:1; stroke:black; " description="&lt;b&gt;ctg108_10&lt;/b&gt;&lt;br&gt;ctg108 10&lt;br&gt;Location: 17131 - 19117" locus_tag="ctg108_10" class="clusterblast-orf" id="subclusterblast-1_q9_0_all"  />
<polygon points="591,40 624,40 629,35 624,30 591,30 591,40 " style="fill:white; stroke-width:1; stroke:black; " description="&lt;b&gt;ctg108_11&lt;/b&gt;&lt;br&gt;ctg108 11&lt;br&gt;Location: 19287 - 20532" locus_tag="ctg108_11" class="clusterblast-orf" id="subclusterblast-1_q10_0_all"  />
<polygon points="639,40 641,40 646,35 641,30 639,30 639,40 " style="fill:white; stroke-width:1; stroke:black; " description="&lt;b&gt;ctg108_12&lt;/b&gt;&lt;br&gt;ctg108 12&lt;br&gt;Location: 20867 - 21101" locus_tag="ctg108_12" class="clusterblast-orf" id="subclusterblast-1_q11_0_all"  />
<polygon points="653,40 658,40 663,35 658,30 653,30 653,40 " style="fill:white; stroke-width:1; stroke:black; " description="&lt;b&gt;ctg108_13&lt;/b&gt;&lt;br&gt;ctg108 13&lt;br&gt;Location: 21335 - 21662" locus_tag="ctg108_13" class="clusterblast-orf" id="subclusterblast-1_q12_0_all"  />
<polygon points="663,35 668,30 692,30 692,40 668,40 663,35 " style="fill:white; stroke-width:1; stroke:black; " description="&lt;b&gt;ctg108_14&lt;/b&gt;&lt;br&gt;ctg108 14&lt;br&gt;Location: 21658 - 22600" locus_tag="ctg108_14" class="clusterblast-orf" id="subclusterblast-1_q13_0_all"  />
<polygon points="691,35 696,30 703,30 703,40 696,40 691,35 " style="fill:white; stroke-width:1; stroke:black; " description="&lt;b&gt;ctg108_15&lt;/b&gt;&lt;br&gt;ctg108 15&lt;br&gt;Location: 22575 - 22962" locus_tag="ctg108_15" class="clusterblast-orf" id="subclusterblast-1_q14_0_all"  />
<polygon points="704,35 709,30 716,30 716,40 709,40 704,35 " style="fill:white; stroke-width:1; stroke:black; " description="&lt;b&gt;ctg108_16&lt;/b&gt;&lt;br&gt;ctg108 16&lt;br&gt;Location: 22971 - 23382" locus_tag="ctg108_16" class="clusterblast-orf" id="subclusterblast-1_q15_0_all"  />
<polygon points="716,35 721,30 726,30 726,40 721,40 716,35 " style="fill:white; stroke-width:1; stroke:black; " description="&lt;b&gt;ctg108_17&lt;/b&gt;&lt;br&gt;ctg108 17&lt;br&gt;Location: 23392 - 23704" locus_tag="ctg108_17" class="clusterblast-orf" id="subclusterblast-1_q16_0_all"  />
<polygon points="726,35 731,30 780,30 780,40 731,40 726,35 " style="fill:white; stroke-width:1; stroke:black; " description="&lt;b&gt;ctg108_18&lt;/b&gt;&lt;br&gt;ctg108 18&lt;br&gt;Location: 23703 - 25461" locus_tag="ctg108_18" class="clusterblast-orf" id="subclusterblast-1_q17_0_all"  />
</g>
</svg>
